M48
; DRILL file {KiCad 8.0.6} date 2025-01-14T04:22:05-0600
; FORMAT={-:-/ absolute / metric / decimal}
; #@! TF.CreationDate,2025-01-14T04:22:05-06:00
; #@! TF.GenerationSoftware,Kicad,Pcbnew,8.0.6
; #@! TF.FileFunction,NonPlated,1,2,NPTH
FMAT,2
METRIC
; #@! TA.AperFunction,NonPlated,NPTH,ComponentDrill
T1C2.400
; #@! TA.AperFunction,NonPlated,NPTH,ComponentDrill
T2C2.850
; #@! TA.AperFunction,NonPlated,NPTH,ComponentDrill
T3C2.930
; #@! TA.AperFunction,NonPlated,NPTH,ComponentDrill
T4C5.105
%
G90
G05
T1
X32.999Y-55.798
X32.999Y-64.948
X45.472Y-99.09
X45.472Y-108.24
X131.307Y-48.288
X140.457Y-48.288
X161.307Y-48.288
X170.457Y-48.288
X202.14Y-52.826
X202.14Y-61.976
X202.14Y-88.191
X202.14Y-97.341
T2
X42.8Y-23.95
X83.8Y-23.95
X250.2Y-24.0
X250.2Y-116.0
X291.2Y-24.0
X291.2Y-116.0
T3
X119.933Y-24.05
X148.933Y-24.05
X185.067Y-24.05
X214.067Y-24.05
T4
X22.0Y-22.0
X22.0Y-118.0
X312.0Y-22.0
X312.0Y-118.0
M30
