%TF.GenerationSoftware,KiCad,Pcbnew,8.0.6*%
%TF.CreationDate,2025-01-14T04:22:05-06:00*%
%TF.ProjectId,nostril,6e6f7374-7269-46c2-9e6b-696361645f70,3.4*%
%TF.SameCoordinates,Original*%
%TF.FileFunction,Drillmap*%
%TF.FilePolarity,Positive*%
%FSLAX45Y45*%
G04 Gerber Fmt 4.5, Leading zero omitted, Abs format (unit mm)*
G04 Created by KiCad (PCBNEW 8.0.6) date 2025-01-14 04:22:05*
%MOMM*%
%LPD*%
G01*
G04 APERTURE LIST*
%ADD10C,0.100000*%
%ADD11C,0.200000*%
%ADD12C,0.175000*%
%ADD13C,0.185000*%
G04 APERTURE END LIST*
D10*
X2200000Y-1500000D02*
X31200000Y-1500000D01*
X31900000Y-11800000D02*
G75*
G02*
X31200000Y-12500000I-700000J0D01*
G01*
X1500000Y-2200000D02*
G75*
G02*
X2200000Y-1500000I700000J0D01*
G01*
X2200000Y-12500000D02*
G75*
G02*
X1500000Y-11800000I0J700000D01*
G01*
X1500000Y-11800000D02*
X1500000Y-2200000D01*
X31200000Y-1500000D02*
G75*
G02*
X31900000Y-2200000I0J-700000D01*
G01*
X31200000Y-12500000D02*
X2200000Y-12500000D01*
X31900000Y-2200000D02*
X31900000Y-11800000D01*
D11*
D10*
X1824760Y-3284760D02*
X1855240Y-3315240D01*
X1855240Y-3284760D02*
X1824760Y-3315240D01*
X2032760Y-4799760D02*
X2063240Y-4830240D01*
X2063240Y-4799760D02*
X2032760Y-4830240D01*
X2513747Y-3796747D02*
X2544227Y-3827227D01*
X2544227Y-3796747D02*
X2513747Y-3827227D01*
X2643961Y-3926961D02*
X2674441Y-3957441D01*
X2674441Y-3926961D02*
X2643961Y-3957441D01*
X2961540Y-3284760D02*
X2992020Y-3315240D01*
X2992020Y-3284760D02*
X2961540Y-3315240D01*
X2962540Y-3731760D02*
X2993020Y-3762240D01*
X2993020Y-3731760D02*
X2962540Y-3762240D01*
X2962540Y-3843520D02*
X2993020Y-3874000D01*
X2993020Y-3843520D02*
X2962540Y-3874000D01*
X2962540Y-4001760D02*
X2993020Y-4032240D01*
X2993020Y-4001760D02*
X2962540Y-4032240D01*
X3000750Y-3555072D02*
X3031230Y-3585552D01*
X3031230Y-3555072D02*
X3000750Y-3585552D01*
X3079662Y-3633760D02*
X3110142Y-3664240D01*
X3110142Y-3633760D02*
X3079662Y-3664240D01*
X3117980Y-3284760D02*
X3148460Y-3315240D01*
X3148460Y-3284760D02*
X3117980Y-3315240D01*
X3120250Y-4001760D02*
X3150730Y-4032240D01*
X3150730Y-4001760D02*
X3120250Y-4032240D01*
X3152000Y-5356760D02*
X3182480Y-5387240D01*
X3182480Y-5356760D02*
X3152000Y-5387240D01*
X3152000Y-6198760D02*
X3182480Y-6229240D01*
X3182480Y-6198760D02*
X3152000Y-6229240D01*
X3170827Y-3731874D02*
X3201307Y-3762354D01*
X3201307Y-3731874D02*
X3170827Y-3762354D01*
X3171760Y-3843634D02*
X3202240Y-3874114D01*
X3202240Y-3843634D02*
X3171760Y-3874114D01*
X3750552Y-7486968D02*
X3781032Y-7517448D01*
X3781032Y-7486968D02*
X3750552Y-7517448D01*
X3862070Y-7375450D02*
X3892550Y-7405930D01*
X3892550Y-7375450D02*
X3862070Y-7405930D01*
X3925602Y-3600602D02*
X3956082Y-3631082D01*
X3956082Y-3600602D02*
X3925602Y-3631082D01*
X4055816Y-3730816D02*
X4086296Y-3761296D01*
X4086296Y-3730816D02*
X4055816Y-3761296D01*
X4085760Y-9783760D02*
X4116240Y-9814240D01*
X4116240Y-9783760D02*
X4085760Y-9814240D01*
X4228919Y-7695601D02*
X4259399Y-7726081D01*
X4259399Y-7695601D02*
X4228919Y-7726081D01*
X4538760Y-4134540D02*
X4569240Y-4165020D01*
X4569240Y-4134540D02*
X4538760Y-4165020D01*
X4538760Y-4354250D02*
X4569240Y-4384730D01*
X4569240Y-4354250D02*
X4538760Y-4384730D01*
X4552132Y-7216132D02*
X4582612Y-7246612D01*
X4582612Y-7216132D02*
X4552132Y-7246612D01*
X4706990Y-7371990D02*
X4737470Y-7402470D01*
X4737470Y-7371990D02*
X4706990Y-7402470D01*
X4914760Y-3369760D02*
X4945240Y-3400240D01*
X4945240Y-3369760D02*
X4914760Y-3400240D01*
X5221760Y-6088270D02*
X5252240Y-6118750D01*
X5252240Y-6088270D02*
X5221760Y-6118750D01*
X5221760Y-6307980D02*
X5252240Y-6338460D01*
X5252240Y-6307980D02*
X5221760Y-6338460D01*
X5871780Y-3679760D02*
X5902260Y-3710240D01*
X5902260Y-3679760D02*
X5871780Y-3710240D01*
X5871780Y-3986411D02*
X5902260Y-4016891D01*
X5902260Y-3986411D02*
X5871780Y-4016891D01*
X5871780Y-4454854D02*
X5902260Y-4485334D01*
X5902260Y-4454854D02*
X5871780Y-4485334D01*
X5957740Y-3679760D02*
X5988220Y-3710240D01*
X5988220Y-3679760D02*
X5957740Y-3710240D01*
X5957740Y-3986411D02*
X5988220Y-4016891D01*
X5988220Y-3986411D02*
X5957740Y-4016891D01*
X5957740Y-4454854D02*
X5988220Y-4485334D01*
X5988220Y-4454854D02*
X5957740Y-4485334D01*
X6383760Y-3460320D02*
X6414240Y-3490800D01*
X6414240Y-3460320D02*
X6383760Y-3490800D01*
X6383760Y-3644470D02*
X6414240Y-3674950D01*
X6414240Y-3644470D02*
X6383760Y-3674950D01*
X6530760Y-10018270D02*
X6561240Y-10048750D01*
X6561240Y-10018270D02*
X6530760Y-10048750D01*
X6530760Y-10237980D02*
X6561240Y-10268460D01*
X6561240Y-10237980D02*
X6530760Y-10268460D01*
X6556760Y-6088270D02*
X6587240Y-6118750D01*
X6587240Y-6088270D02*
X6556760Y-6118750D01*
X6556760Y-6307980D02*
X6587240Y-6338460D01*
X6587240Y-6307980D02*
X6556760Y-6338460D01*
X6678760Y-4134540D02*
X6709240Y-4165020D01*
X6709240Y-4134540D02*
X6678760Y-4165020D01*
X6678760Y-4352980D02*
X6709240Y-4383460D01*
X6709240Y-4352980D02*
X6678760Y-4383460D01*
X6679560Y-3643200D02*
X6710040Y-3673680D01*
X6710040Y-3643200D02*
X6679560Y-3673680D01*
X6679560Y-4591760D02*
X6710040Y-4622240D01*
X6710040Y-4591760D02*
X6679560Y-4622240D01*
X6679560Y-4978760D02*
X6710040Y-5009240D01*
X6710040Y-4978760D02*
X6679560Y-5009240D01*
X6754960Y-4134540D02*
X6785440Y-4165020D01*
X6785440Y-4134540D02*
X6754960Y-4165020D01*
X6754960Y-4352980D02*
X6785440Y-4383460D01*
X6785440Y-4352980D02*
X6754960Y-4383460D01*
X6755760Y-3643200D02*
X6786240Y-3673680D01*
X6786240Y-3643200D02*
X6755760Y-3673680D01*
X6755760Y-4591760D02*
X6786240Y-4622240D01*
X6786240Y-4591760D02*
X6755760Y-4622240D01*
X6755760Y-4978760D02*
X6786240Y-5009240D01*
X6786240Y-4978760D02*
X6755760Y-5009240D01*
X6858760Y-10337320D02*
X6889240Y-10367800D01*
X6889240Y-10337320D02*
X6858760Y-10367800D01*
X6858760Y-10521470D02*
X6889240Y-10551950D01*
X6889240Y-10521470D02*
X6858760Y-10551950D01*
X6903849Y-9638671D02*
X6934329Y-9669151D01*
X6934329Y-9638671D02*
X6903849Y-9669151D01*
X7084760Y-4134540D02*
X7115240Y-4165020D01*
X7115240Y-4134540D02*
X7084760Y-4165020D01*
X7084760Y-4354250D02*
X7115240Y-4384730D01*
X7115240Y-4354250D02*
X7084760Y-4384730D01*
X7093273Y-9449247D02*
X7123753Y-9479727D01*
X7123753Y-9449247D02*
X7093273Y-9479727D01*
X7096760Y-10019540D02*
X7127240Y-10050020D01*
X7127240Y-10019540D02*
X7096760Y-10050020D01*
X7096818Y-10289849D02*
X7127298Y-10320329D01*
X7127298Y-10289849D02*
X7096818Y-10320329D01*
X7152640Y-9967628D02*
X7183120Y-9998108D01*
X7183120Y-9967628D02*
X7152640Y-9998108D01*
X7152640Y-10237980D02*
X7183120Y-10268460D01*
X7183120Y-10237980D02*
X7152640Y-10268460D01*
X7212349Y-10708171D02*
X7242829Y-10738651D01*
X7242829Y-10708171D02*
X7212349Y-10738651D01*
X7218209Y-10276802D02*
X7248689Y-10307282D01*
X7248689Y-10276802D02*
X7218209Y-10307282D01*
X7219760Y-10019540D02*
X7250240Y-10050020D01*
X7250240Y-10019540D02*
X7219760Y-10050020D01*
X7294080Y-9985864D02*
X7324560Y-10016344D01*
X7324560Y-9985864D02*
X7294080Y-10016344D01*
X7294080Y-10237980D02*
X7324560Y-10268460D01*
X7324560Y-10237980D02*
X7294080Y-10268460D01*
X7398760Y-3284760D02*
X7429240Y-3315240D01*
X7429240Y-3284760D02*
X7398760Y-3315240D01*
X7409610Y-3932760D02*
X7440090Y-3963240D01*
X7440090Y-3932760D02*
X7409610Y-3963240D01*
X7466760Y-3460320D02*
X7497240Y-3490800D01*
X7497240Y-3460320D02*
X7466760Y-3490800D01*
X7466760Y-3643200D02*
X7497240Y-3673680D01*
X7497240Y-3643200D02*
X7466760Y-3673680D01*
X7466760Y-4134540D02*
X7497240Y-4165020D01*
X7497240Y-4134540D02*
X7466760Y-4165020D01*
X7470260Y-10450260D02*
X7500740Y-10480740D01*
X7500740Y-10450260D02*
X7470260Y-10480740D01*
X7542760Y-4352980D02*
X7573240Y-4383460D01*
X7573240Y-4352980D02*
X7542760Y-4383460D01*
X7542760Y-4587760D02*
X7573240Y-4618240D01*
X7573240Y-4587760D02*
X7542760Y-4618240D01*
X7542760Y-4963760D02*
X7573240Y-4994240D01*
X7573240Y-4963760D02*
X7542760Y-4994240D01*
X7542760Y-5438880D02*
X7573240Y-5469360D01*
X7573240Y-5438880D02*
X7542760Y-5469360D01*
X7542760Y-5586200D02*
X7573240Y-5616680D01*
X7573240Y-5586200D02*
X7542760Y-5616680D01*
X7542760Y-6089540D02*
X7573240Y-6120020D01*
X7573240Y-6089540D02*
X7542760Y-6120020D01*
X7542760Y-6307980D02*
X7573240Y-6338460D01*
X7573240Y-6307980D02*
X7542760Y-6338460D01*
X7542960Y-3460320D02*
X7573440Y-3490800D01*
X7573440Y-3460320D02*
X7542960Y-3490800D01*
X7542960Y-3643200D02*
X7573440Y-3673680D01*
X7573440Y-3643200D02*
X7542960Y-3673680D01*
X7542960Y-4134540D02*
X7573440Y-4165020D01*
X7573440Y-4134540D02*
X7542960Y-4165020D01*
X7596855Y-3284734D02*
X7627335Y-3315214D01*
X7627335Y-3284734D02*
X7596855Y-3315214D01*
X7598840Y-3932760D02*
X7629320Y-3963240D01*
X7629320Y-3932760D02*
X7598840Y-3963240D01*
X7697760Y-4457760D02*
X7728240Y-4488240D01*
X7728240Y-4457760D02*
X7697760Y-4488240D01*
X9328760Y-7505880D02*
X9359240Y-7536360D01*
X9359240Y-7505880D02*
X9328760Y-7536360D01*
X9328760Y-7618910D02*
X9359240Y-7649390D01*
X9359240Y-7618910D02*
X9328760Y-7649390D01*
X9634753Y-10574753D02*
X9665233Y-10605233D01*
X9665233Y-10574753D02*
X9634753Y-10605233D01*
X9736369Y-10675560D02*
X9766849Y-10706040D01*
X9766849Y-10675560D02*
X9736369Y-10706040D01*
X9823338Y-10746680D02*
X9853818Y-10777160D01*
X9853818Y-10746680D02*
X9823338Y-10777160D01*
X9860760Y-5438880D02*
X9891240Y-5469360D01*
X9891240Y-5438880D02*
X9860760Y-5469360D01*
X9860760Y-5587470D02*
X9891240Y-5617950D01*
X9891240Y-5587470D02*
X9860760Y-5617950D01*
X9961760Y-3460320D02*
X9992240Y-3490800D01*
X9992240Y-3460320D02*
X9961760Y-3490800D01*
X9961760Y-3644470D02*
X9992240Y-3674950D01*
X9992240Y-3644470D02*
X9961760Y-3674950D01*
X9973072Y-10688072D02*
X10003552Y-10718552D01*
X10003552Y-10688072D02*
X9973072Y-10718552D01*
X9974760Y-4134540D02*
X10005240Y-4165020D01*
X10005240Y-4134540D02*
X9974760Y-4165020D01*
X9974760Y-4354250D02*
X10005240Y-4384730D01*
X10005240Y-4354250D02*
X9974760Y-4384730D01*
X10129540Y-10807677D02*
X10160020Y-10838157D01*
X10160020Y-10807677D02*
X10129540Y-10838157D01*
X10133760Y-10883760D02*
X10164240Y-10914240D01*
X10164240Y-10883760D02*
X10133760Y-10914240D01*
X10137173Y-10731860D02*
X10167653Y-10762340D01*
X10167653Y-10731860D02*
X10137173Y-10762340D01*
X10144760Y-1929760D02*
X10175240Y-1960240D01*
X10175240Y-1929760D02*
X10144760Y-1960240D01*
X10198760Y-10019540D02*
X10229240Y-10050020D01*
X10229240Y-10019540D02*
X10198760Y-10050020D01*
X10198760Y-10239250D02*
X10229240Y-10269730D01*
X10229240Y-10239250D02*
X10198760Y-10269730D01*
X10210597Y-10710800D02*
X10241077Y-10741280D01*
X10241077Y-10710800D02*
X10210597Y-10741280D01*
X10676760Y-6088270D02*
X10707240Y-6118750D01*
X10707240Y-6088270D02*
X10676760Y-6118750D01*
X10676760Y-6307980D02*
X10707240Y-6338460D01*
X10707240Y-6307980D02*
X10676760Y-6338460D01*
X11086760Y-4708540D02*
X11117240Y-4739020D01*
X11117240Y-4708540D02*
X11086760Y-4739020D01*
X11086760Y-4866250D02*
X11117240Y-4896730D01*
X11117240Y-4866250D02*
X11086760Y-4896730D01*
X11291691Y-8380691D02*
X11322171Y-8411171D01*
X11322171Y-8380691D02*
X11291691Y-8411171D01*
X11403209Y-8492209D02*
X11433689Y-8522689D01*
X11433689Y-8492209D02*
X11403209Y-8522689D01*
X11417760Y-10893680D02*
X11448240Y-10924160D01*
X11448240Y-10893680D02*
X11417760Y-10924160D01*
X11419760Y-10529760D02*
X11450240Y-10560240D01*
X11450240Y-10529760D02*
X11419760Y-10560240D01*
X11842687Y-3495807D02*
X11873167Y-3526287D01*
X11873167Y-3495807D02*
X11842687Y-3526287D01*
X11865089Y-7809089D02*
X11895569Y-7839569D01*
X11895569Y-7809089D02*
X11865089Y-7839569D01*
X11954621Y-3607640D02*
X11985101Y-3638120D01*
X11985101Y-3607640D02*
X11954621Y-3638120D01*
X11975709Y-7919709D02*
X12006189Y-7950189D01*
X12006189Y-7919709D02*
X11975709Y-7950189D01*
X12174760Y-3495880D02*
X12205240Y-3526360D01*
X12205240Y-3495880D02*
X12174760Y-3526360D01*
X12174760Y-3643200D02*
X12205240Y-3673680D01*
X12205240Y-3643200D02*
X12174760Y-3673680D01*
X12362030Y-6004030D02*
X12392510Y-6034510D01*
X12392510Y-6004030D02*
X12362030Y-6034510D01*
X12415911Y-5950148D02*
X12446391Y-5980628D01*
X12446391Y-5950148D02*
X12415911Y-5980628D01*
X12425760Y-3907760D02*
X12456240Y-3938240D01*
X12456240Y-3907760D02*
X12425760Y-3938240D01*
X12439089Y-7235089D02*
X12469569Y-7265569D01*
X12469569Y-7235089D02*
X12439089Y-7265569D01*
X12516490Y-6158490D02*
X12546970Y-6188970D01*
X12546970Y-6158490D02*
X12516490Y-6188970D01*
X12547506Y-10502092D02*
X12577986Y-10532572D01*
X12577986Y-10502092D02*
X12547506Y-10532572D01*
X12548016Y-10613900D02*
X12578496Y-10644380D01*
X12578496Y-10613900D02*
X12548016Y-10644380D01*
X12548080Y-10726240D02*
X12578560Y-10756720D01*
X12578560Y-10726240D02*
X12548080Y-10756720D01*
X12549273Y-10839708D02*
X12579753Y-10870188D01*
X12579753Y-10839708D02*
X12549273Y-10870188D01*
X12550607Y-7346607D02*
X12581087Y-7377087D01*
X12581087Y-7346607D02*
X12550607Y-7377087D01*
X12570372Y-6104609D02*
X12600852Y-6135089D01*
X12600852Y-6104609D02*
X12570372Y-6135089D01*
X12599540Y-10557760D02*
X12630020Y-10588240D01*
X12630020Y-10557760D02*
X12599540Y-10588240D01*
X12599540Y-10670040D02*
X12630020Y-10700520D01*
X12630020Y-10670040D02*
X12599540Y-10700520D01*
X12599540Y-10782438D02*
X12630020Y-10812918D01*
X12630020Y-10782438D02*
X12599540Y-10812918D01*
X12618760Y-3460320D02*
X12649240Y-3490800D01*
X12649240Y-3460320D02*
X12618760Y-3490800D01*
X12618760Y-3644470D02*
X12649240Y-3674950D01*
X12649240Y-3644470D02*
X12618760Y-3674950D01*
X12678555Y-7168480D02*
X12709035Y-7198960D01*
X12709035Y-7168480D02*
X12678555Y-7198960D01*
X12678760Y-7057040D02*
X12709240Y-7087520D01*
X12709240Y-7057040D02*
X12678760Y-7087520D01*
X12771760Y-4189760D02*
X12802240Y-4220240D01*
X12802240Y-4189760D02*
X12771760Y-4220240D01*
X12772760Y-6109880D02*
X12803240Y-6140360D01*
X12803240Y-6109880D02*
X12772760Y-6140360D01*
X12772760Y-6258470D02*
X12803240Y-6288950D01*
X12803240Y-6258470D02*
X12772760Y-6288950D01*
X12817980Y-10501695D02*
X12848460Y-10532175D01*
X12848460Y-10501695D02*
X12817980Y-10532175D01*
X12817980Y-10613455D02*
X12848460Y-10643935D01*
X12848460Y-10613455D02*
X12817980Y-10643935D01*
X12817980Y-10726572D02*
X12848460Y-10757052D01*
X12848460Y-10726572D02*
X12817980Y-10757052D01*
X12817980Y-10838760D02*
X12848460Y-10869240D01*
X12848460Y-10838760D02*
X12817980Y-10869240D01*
X12868760Y-3284760D02*
X12899240Y-3315240D01*
X12899240Y-3284760D02*
X12868760Y-3315240D01*
X12869192Y-10669880D02*
X12899672Y-10700360D01*
X12899672Y-10669880D02*
X12869192Y-10700360D01*
X12869685Y-10782545D02*
X12900165Y-10813025D01*
X12900165Y-10782545D02*
X12869685Y-10813025D01*
X12870548Y-10558147D02*
X12901028Y-10588627D01*
X12901028Y-10558147D02*
X12870548Y-10588627D01*
X12943933Y-3514933D02*
X12974413Y-3545413D01*
X12974413Y-3514933D02*
X12943933Y-3545413D01*
X12979558Y-3274558D02*
X13010038Y-3305038D01*
X13010038Y-3274558D02*
X12979558Y-3305038D01*
X13128982Y-3284983D02*
X13159462Y-3315463D01*
X13159462Y-3284983D02*
X13128982Y-3315463D01*
X13255052Y-6426052D02*
X13285532Y-6456532D01*
X13285532Y-6426052D02*
X13255052Y-6456532D01*
X13366570Y-6537570D02*
X13397050Y-6568050D01*
X13397050Y-6537570D02*
X13366570Y-6568050D01*
X13368068Y-6314832D02*
X13398548Y-6345312D01*
X13398548Y-6314832D02*
X13368068Y-6345312D01*
X13374868Y-4928869D02*
X13405348Y-4959349D01*
X13405348Y-4928869D02*
X13374868Y-4959349D01*
X13421950Y-6260950D02*
X13452430Y-6291430D01*
X13452430Y-6260950D02*
X13421950Y-6291430D01*
X13435651Y-4989652D02*
X13466131Y-5020132D01*
X13466131Y-4989652D02*
X13435651Y-5020132D01*
X13478688Y-6425452D02*
X13509168Y-6455932D01*
X13509168Y-6425452D02*
X13478688Y-6455932D01*
X13532570Y-6371570D02*
X13563050Y-6402050D01*
X13563050Y-6371570D02*
X13532570Y-6402050D01*
X13549760Y-5442270D02*
X13580240Y-5472750D01*
X13580240Y-5442270D02*
X13549760Y-5472750D01*
X13549760Y-5661980D02*
X13580240Y-5692460D01*
X13580240Y-5661980D02*
X13549760Y-5692460D01*
X13605760Y-11307039D02*
X13636240Y-11337519D01*
X13636240Y-11307039D02*
X13605760Y-11337519D01*
X13605760Y-11526749D02*
X13636240Y-11557229D01*
X13636240Y-11526749D02*
X13605760Y-11557229D01*
X13652368Y-4651369D02*
X13682848Y-4681849D01*
X13682848Y-4651369D02*
X13652368Y-4681849D01*
X13713151Y-4712152D02*
X13743631Y-4742632D01*
X13743631Y-4712152D02*
X13713151Y-4742632D01*
X13758552Y-5922552D02*
X13789032Y-5953032D01*
X13789032Y-5922552D02*
X13758552Y-5953032D01*
X13860760Y-6508880D02*
X13891240Y-6539360D01*
X13891240Y-6508880D02*
X13860760Y-6539360D01*
X13860760Y-6657470D02*
X13891240Y-6687950D01*
X13891240Y-6657470D02*
X13860760Y-6687950D01*
X13870070Y-6034070D02*
X13900550Y-6064550D01*
X13900550Y-6034070D02*
X13870070Y-6064550D01*
X14034101Y-5600101D02*
X14064581Y-5630581D01*
X14064581Y-5600101D02*
X14034101Y-5630581D01*
X14185601Y-5450601D02*
X14216081Y-5481081D01*
X14216081Y-5450601D02*
X14185601Y-5481081D01*
X14250760Y-10399760D02*
X14281240Y-10430240D01*
X14281240Y-10399760D02*
X14250760Y-10430240D01*
X14250760Y-10894305D02*
X14281240Y-10924785D01*
X14281240Y-10894305D02*
X14250760Y-10924785D01*
X14319760Y-8083030D02*
X14350240Y-8113510D01*
X14350240Y-8083030D02*
X14319760Y-8113510D01*
X14319760Y-8196060D02*
X14350240Y-8226540D01*
X14350240Y-8196060D02*
X14319760Y-8226540D01*
X14342919Y-5607919D02*
X14373399Y-5638399D01*
X14373399Y-5607919D02*
X14342919Y-5638399D01*
X14484530Y-5903990D02*
X14515010Y-5934470D01*
X14515010Y-5903990D02*
X14484530Y-5934470D01*
X14514760Y-3284760D02*
X14545240Y-3315240D01*
X14545240Y-3284760D02*
X14514760Y-3315240D01*
X14544855Y-5608697D02*
X14575335Y-5639177D01*
X14575335Y-5608697D02*
X14544855Y-5639177D01*
X14567148Y-5986609D02*
X14597628Y-6017089D01*
X14597628Y-5986609D02*
X14567148Y-6017089D01*
X14621030Y-6040490D02*
X14651510Y-6070970D01*
X14651510Y-6040490D02*
X14621030Y-6070970D01*
X14639388Y-5748132D02*
X14669868Y-5778612D01*
X14669868Y-5748132D02*
X14639388Y-5778612D01*
X14650760Y-4493780D02*
X14681240Y-4524260D01*
X14681240Y-4493780D02*
X14650760Y-4524260D01*
X14650760Y-4579740D02*
X14681240Y-4610220D01*
X14681240Y-4579740D02*
X14650760Y-4610220D01*
X14721609Y-5832148D02*
X14752089Y-5862628D01*
X14752089Y-5832148D02*
X14721609Y-5862628D01*
X14724918Y-3284918D02*
X14755398Y-3315398D01*
X14755398Y-3284918D02*
X14724918Y-3315398D01*
X14738470Y-4682760D02*
X14768950Y-4713240D01*
X14768950Y-4682760D02*
X14738470Y-4713240D01*
X14775490Y-5886030D02*
X14805970Y-5916510D01*
X14805970Y-5886030D02*
X14775490Y-5916510D01*
X14896180Y-4682760D02*
X14926660Y-4713240D01*
X14926660Y-4682760D02*
X14896180Y-4713240D01*
X14926560Y-3218720D02*
X14957040Y-3249200D01*
X14957040Y-3218720D02*
X14926560Y-3249200D01*
X14946760Y-3432230D02*
X14977240Y-3462710D01*
X14977240Y-3432230D02*
X14946760Y-3462710D01*
X15002760Y-3218720D02*
X15033240Y-3249200D01*
X15033240Y-3218720D02*
X15002760Y-3249200D01*
X15002760Y-3484760D02*
X15033240Y-3515240D01*
X15033240Y-3484760D02*
X15002760Y-3515240D01*
X15216148Y-4781148D02*
X15246628Y-4811628D01*
X15246628Y-4781148D02*
X15216148Y-4811628D01*
X15371507Y-4936507D02*
X15401987Y-4966987D01*
X15401987Y-4936507D02*
X15371507Y-4966987D01*
X15584067Y-10502094D02*
X15614547Y-10532574D01*
X15614547Y-10502094D02*
X15584067Y-10532574D01*
X15590748Y-10613867D02*
X15621228Y-10644347D01*
X15621228Y-10613867D02*
X15590748Y-10644347D01*
X15590863Y-10725760D02*
X15621343Y-10756240D01*
X15621343Y-10725760D02*
X15590863Y-10756240D01*
X15591593Y-10838425D02*
X15622073Y-10868905D01*
X15622073Y-10838425D02*
X15591593Y-10868905D01*
X15641270Y-7276760D02*
X15671750Y-7307240D01*
X15671750Y-7276760D02*
X15641270Y-7307240D01*
X15641270Y-9468760D02*
X15671750Y-9499240D01*
X15671750Y-9468760D02*
X15641270Y-9499240D01*
X15641270Y-11270760D02*
X15671750Y-11301240D01*
X15671750Y-11270760D02*
X15641270Y-11301240D01*
X15642540Y-8138760D02*
X15673020Y-8169240D01*
X15673020Y-8138760D02*
X15642540Y-8169240D01*
X15642540Y-10557974D02*
X15673020Y-10588454D01*
X15673020Y-10557974D02*
X15642540Y-10588454D01*
X15642540Y-10669760D02*
X15673020Y-10700240D01*
X15673020Y-10669760D02*
X15642540Y-10700240D01*
X15642540Y-10781760D02*
X15673020Y-10812240D01*
X15673020Y-10781760D02*
X15642540Y-10812240D01*
X15644868Y-4828652D02*
X15675348Y-4859132D01*
X15675348Y-4828652D02*
X15644868Y-4859132D01*
X15704950Y-3591950D02*
X15735430Y-3622430D01*
X15735430Y-3591950D02*
X15704950Y-3622430D01*
X15705651Y-4767869D02*
X15736131Y-4798349D01*
X15736131Y-4767869D02*
X15705651Y-4798349D01*
X15751760Y-11984770D02*
X15782240Y-12015250D01*
X15782240Y-11984770D02*
X15751760Y-12015250D01*
X15751760Y-12269250D02*
X15782240Y-12299730D01*
X15782240Y-12269250D02*
X15751760Y-12299730D01*
X15816468Y-3703468D02*
X15846948Y-3733948D01*
X15846948Y-3703468D02*
X15816468Y-3733948D01*
X15860980Y-7276760D02*
X15891460Y-7307240D01*
X15891460Y-7276760D02*
X15860980Y-7307240D01*
X15860980Y-8138760D02*
X15891460Y-8169240D01*
X15891460Y-8138760D02*
X15860980Y-8169240D01*
X15860980Y-9468760D02*
X15891460Y-9499240D01*
X15891460Y-9468760D02*
X15860980Y-9499240D01*
X15860980Y-10614054D02*
X15891460Y-10644534D01*
X15891460Y-10614054D02*
X15860980Y-10644534D01*
X15860980Y-10725814D02*
X15891460Y-10756294D01*
X15891460Y-10725814D02*
X15860980Y-10756294D01*
X15860980Y-10837760D02*
X15891460Y-10868240D01*
X15891460Y-10837760D02*
X15860980Y-10868240D01*
X15860980Y-11270760D02*
X15891460Y-11301240D01*
X15891460Y-11270760D02*
X15860980Y-11301240D01*
X15862547Y-10501695D02*
X15893027Y-10532175D01*
X15893027Y-10501695D02*
X15862547Y-10532175D01*
X15894760Y-1973730D02*
X15925240Y-2004210D01*
X15925240Y-1973730D02*
X15894760Y-2004210D01*
X15907392Y-1862128D02*
X15937872Y-1892608D01*
X15937872Y-1862128D02*
X15907392Y-1892608D01*
X15912685Y-10781787D02*
X15943165Y-10812267D01*
X15943165Y-10781787D02*
X15912685Y-10812267D01*
X15913156Y-10669934D02*
X15943636Y-10700414D01*
X15943636Y-10669934D02*
X15913156Y-10700414D01*
X15913344Y-10558494D02*
X15943824Y-10588974D01*
X15943824Y-10558494D02*
X15913344Y-10588974D01*
X16104760Y-2854050D02*
X16135240Y-2884530D01*
X16135240Y-2854050D02*
X16104760Y-2884530D01*
X16104760Y-3109320D02*
X16135240Y-3139800D01*
X16135240Y-3109320D02*
X16104760Y-3139800D01*
X16554760Y-3078880D02*
X16585240Y-3109360D01*
X16585240Y-3078880D02*
X16554760Y-3109360D01*
X16704760Y-2444760D02*
X16735240Y-2475240D01*
X16735240Y-2444760D02*
X16704760Y-2475240D01*
X16719760Y-2149760D02*
X16750240Y-2180240D01*
X16750240Y-2149760D02*
X16719760Y-2180240D01*
X16743637Y-3003637D02*
X16774117Y-3034117D01*
X16774117Y-3003637D02*
X16743637Y-3034117D01*
X17157793Y-2890880D02*
X17188273Y-2921360D01*
X17188273Y-2890880D02*
X17157793Y-2921360D01*
X17214760Y-3073760D02*
X17245240Y-3104240D01*
X17245240Y-3073760D02*
X17214760Y-3104240D01*
X17232630Y-2876531D02*
X17263110Y-2907011D01*
X17263110Y-2876531D02*
X17232630Y-2907011D01*
X17279760Y-1999760D02*
X17310240Y-2030240D01*
X17310240Y-1999760D02*
X17279760Y-2030240D01*
X17308760Y-2890880D02*
X17339240Y-2921360D01*
X17339240Y-2890880D02*
X17308760Y-2921360D01*
X17308760Y-3075030D02*
X17339240Y-3105510D01*
X17339240Y-3075030D02*
X17308760Y-3105510D01*
X17464760Y-2479760D02*
X17495240Y-2510240D01*
X17495240Y-2479760D02*
X17464760Y-2510240D01*
X17469760Y-2399760D02*
X17500240Y-2430240D01*
X17500240Y-2399760D02*
X17469760Y-2430240D01*
X17474760Y-2324760D02*
X17505240Y-2355240D01*
X17505240Y-2324760D02*
X17474760Y-2355240D01*
X17489760Y-3543312D02*
X17520240Y-3573792D01*
X17520240Y-3543312D02*
X17489760Y-3573792D01*
X17504760Y-1924760D02*
X17535240Y-1955240D01*
X17535240Y-1924760D02*
X17504760Y-1955240D01*
X17588760Y-5119780D02*
X17619240Y-5150260D01*
X17619240Y-5119780D02*
X17588760Y-5150260D01*
X17588760Y-5205740D02*
X17619240Y-5236220D01*
X17619240Y-5205740D02*
X17588760Y-5236220D01*
X17589760Y-2039760D02*
X17620240Y-2070240D01*
X17620240Y-2039760D02*
X17589760Y-2070240D01*
X17604760Y-2479760D02*
X17635240Y-2510240D01*
X17635240Y-2479760D02*
X17604760Y-2510240D01*
X17609760Y-2399760D02*
X17640240Y-2430240D01*
X17640240Y-2399760D02*
X17609760Y-2430240D01*
X17614760Y-2324760D02*
X17645240Y-2355240D01*
X17645240Y-2324760D02*
X17614760Y-2355240D01*
X17739997Y-3589997D02*
X17770477Y-3620477D01*
X17770477Y-3589997D02*
X17739997Y-3620477D01*
X17826450Y-5572070D02*
X17856930Y-5602550D01*
X17856930Y-5572070D02*
X17826450Y-5602550D01*
X17880332Y-5625952D02*
X17910812Y-5656432D01*
X17910812Y-5625952D02*
X17880332Y-5656432D01*
X17937070Y-5461450D02*
X17967550Y-5491930D01*
X17967550Y-5461450D02*
X17937070Y-5491930D01*
X17990952Y-5515332D02*
X18021432Y-5545812D01*
X18021432Y-5515332D02*
X17990952Y-5545812D01*
X18064760Y-5119780D02*
X18095240Y-5150260D01*
X18095240Y-5119780D02*
X18064760Y-5150260D01*
X18064760Y-5205740D02*
X18095240Y-5236220D01*
X18095240Y-5205740D02*
X18064760Y-5236220D01*
X18131629Y-2761080D02*
X18162109Y-2791560D01*
X18162109Y-2761080D02*
X18131629Y-2791560D01*
X18247760Y-3185700D02*
X18278240Y-3216180D01*
X18278240Y-3185700D02*
X18247760Y-3216180D01*
X18247760Y-3675760D02*
X18278240Y-3706240D01*
X18278240Y-3675760D02*
X18247760Y-3706240D01*
X18251927Y-2750089D02*
X18282407Y-2780569D01*
X18282407Y-2750089D02*
X18251927Y-2780569D01*
X18328020Y-2746046D02*
X18358500Y-2776526D01*
X18358500Y-2746046D02*
X18328020Y-2776526D01*
X18330760Y-2669760D02*
X18361240Y-2700240D01*
X18361240Y-2669760D02*
X18330760Y-2700240D01*
X18373760Y-3977602D02*
X18404240Y-4008082D01*
X18404240Y-3977602D02*
X18373760Y-4008082D01*
X18373760Y-4135310D02*
X18404240Y-4165790D01*
X18404240Y-4135310D02*
X18373760Y-4165790D01*
X18384760Y-11512760D02*
X18415240Y-11543240D01*
X18415240Y-11512760D02*
X18384760Y-11543240D01*
X18384760Y-11656740D02*
X18415240Y-11687220D01*
X18415240Y-11656740D02*
X18384760Y-11687220D01*
X18407046Y-2667020D02*
X18437526Y-2697500D01*
X18437526Y-2667020D02*
X18407046Y-2697500D01*
X18442894Y-2940093D02*
X18473374Y-2970573D01*
X18473374Y-2940093D02*
X18442894Y-2970573D01*
X18519037Y-2937137D02*
X18549517Y-2967617D01*
X18549517Y-2937137D02*
X18519037Y-2967617D01*
X18521994Y-2860994D02*
X18552474Y-2891474D01*
X18552474Y-2860994D02*
X18521994Y-2891474D01*
X18598347Y-2858321D02*
X18628827Y-2888801D01*
X18628827Y-2858321D02*
X18598347Y-2888801D01*
X18631701Y-5466932D02*
X18662181Y-5497412D01*
X18662181Y-5466932D02*
X18631701Y-5497412D01*
X18633760Y-5390760D02*
X18664240Y-5421240D01*
X18664240Y-5390760D02*
X18633760Y-5421240D01*
X19179760Y-4694760D02*
X19210240Y-4725240D01*
X19210240Y-4694760D02*
X19179760Y-4725240D01*
X19465859Y-6405859D02*
X19496339Y-6436339D01*
X19496339Y-6405859D02*
X19465859Y-6436339D01*
X19519240Y-6478683D02*
X19549720Y-6509163D01*
X19549720Y-6478683D02*
X19519240Y-6509163D01*
X19884760Y-5164760D02*
X19915240Y-5195240D01*
X19915240Y-5164760D02*
X19884760Y-5195240D01*
X19954799Y-5134743D02*
X19985279Y-5165223D01*
X19985279Y-5134743D02*
X19954799Y-5165223D01*
X19975760Y-11075760D02*
X20006240Y-11106240D01*
X20006240Y-11075760D02*
X19975760Y-11106240D01*
X20132760Y-3354760D02*
X20163240Y-3385240D01*
X20163240Y-3354760D02*
X20132760Y-3385240D01*
X20368270Y-3949760D02*
X20398750Y-3980240D01*
X20398750Y-3949760D02*
X20368270Y-3980240D01*
X20428760Y-7938190D02*
X20459240Y-7968670D01*
X20459240Y-7938190D02*
X20428760Y-7968670D01*
X20428760Y-8094630D02*
X20459240Y-8125110D01*
X20459240Y-8094630D02*
X20428760Y-8125110D01*
X20478760Y-3702660D02*
X20509240Y-3733140D01*
X20509240Y-3702660D02*
X20478760Y-3733140D01*
X20478760Y-4335760D02*
X20509240Y-4366240D01*
X20509240Y-4335760D02*
X20478760Y-4366240D01*
X20478760Y-5267760D02*
X20509240Y-5298240D01*
X20509240Y-5267760D02*
X20478760Y-5298240D01*
X20587980Y-3949760D02*
X20618460Y-3980240D01*
X20618460Y-3949760D02*
X20587980Y-3980240D01*
X20681296Y-10085097D02*
X20711776Y-10115577D01*
X20711776Y-10085097D02*
X20681296Y-10115577D01*
X20741760Y-3350800D02*
X20772240Y-3381280D01*
X20772240Y-3350800D02*
X20741760Y-3381280D01*
X20757450Y-10082450D02*
X20787930Y-10112930D01*
X20787930Y-10082450D02*
X20757450Y-10112930D01*
X20760779Y-10006322D02*
X20791259Y-10036802D01*
X20791259Y-10006322D02*
X20760779Y-10036802D01*
X20828570Y-10232570D02*
X20859050Y-10263050D01*
X20859050Y-10232570D02*
X20828570Y-10263050D01*
X20836906Y-10002994D02*
X20867386Y-10033474D01*
X20867386Y-10002994D02*
X20836906Y-10033474D01*
X20840090Y-9926860D02*
X20870570Y-9957340D01*
X20870570Y-9926860D02*
X20840090Y-9957340D01*
X20904773Y-10229747D02*
X20935253Y-10260227D01*
X20935253Y-10229747D02*
X20904773Y-10260227D01*
X20907596Y-10153544D02*
X20938076Y-10184024D01*
X20938076Y-10153544D02*
X20907596Y-10184024D01*
X20916224Y-9923676D02*
X20946704Y-9954156D01*
X20946704Y-9923676D02*
X20916224Y-9954156D01*
X20944760Y-9834760D02*
X20975240Y-9865240D01*
X20975240Y-9834760D02*
X20944760Y-9865240D01*
X20984095Y-10151016D02*
X21014575Y-10181496D01*
X21014575Y-10151016D02*
X20984095Y-10181496D01*
X20987040Y-10074100D02*
X21017520Y-10104580D01*
X21017520Y-10074100D02*
X20987040Y-10104580D01*
X21063762Y-10071796D02*
X21094242Y-10102276D01*
X21094242Y-10071796D02*
X21063762Y-10102276D01*
X21094760Y-9979760D02*
X21125240Y-10010240D01*
X21125240Y-9979760D02*
X21094760Y-10010240D01*
X21180270Y-9227760D02*
X21210750Y-9258240D01*
X21210750Y-9227760D02*
X21180270Y-9258240D01*
X21214152Y-7971568D02*
X21244632Y-8002048D01*
X21244632Y-7971568D02*
X21214152Y-8002048D01*
X21237160Y-11576760D02*
X21267640Y-11607240D01*
X21267640Y-11576760D02*
X21237160Y-11607240D01*
X21292989Y-8050331D02*
X21323469Y-8080811D01*
X21323469Y-8050331D02*
X21292989Y-8080811D01*
X21337980Y-9227760D02*
X21368460Y-9258240D01*
X21368460Y-9227760D02*
X21337980Y-9258240D01*
X21385760Y-3431540D02*
X21416240Y-3462020D01*
X21416240Y-3431540D02*
X21385760Y-3462020D01*
X21385760Y-3669640D02*
X21416240Y-3700120D01*
X21416240Y-3669640D02*
X21385760Y-3700120D01*
X21616760Y-7938540D02*
X21647240Y-7969020D01*
X21647240Y-7938540D02*
X21616760Y-7969020D01*
X21616760Y-8096250D02*
X21647240Y-8126730D01*
X21647240Y-8096250D02*
X21616760Y-8126730D01*
X21969760Y-7437860D02*
X22000240Y-7468340D01*
X22000240Y-7437860D02*
X21969760Y-7468340D01*
X21969760Y-8128000D02*
X22000240Y-8158480D01*
X22000240Y-8128000D02*
X21969760Y-8158480D01*
X22319760Y-10382760D02*
X22350240Y-10413240D01*
X22350240Y-10382760D02*
X22319760Y-10413240D01*
X22360760Y-9897070D02*
X22391240Y-9927550D01*
X22391240Y-9897070D02*
X22360760Y-9927550D01*
X22549160Y-11576760D02*
X22579640Y-11607240D01*
X22579640Y-11576760D02*
X22549160Y-11607240D01*
X22804760Y-9829760D02*
X22835240Y-9860240D01*
X22835240Y-9829760D02*
X22804760Y-9860240D01*
X22804760Y-9963110D02*
X22835240Y-9993590D01*
X22835240Y-9963110D02*
X22804760Y-9993590D01*
X22909132Y-9400388D02*
X22939612Y-9430868D01*
X22939612Y-9400388D02*
X22909132Y-9430868D01*
X23064490Y-9245030D02*
X23094970Y-9275510D01*
X23094970Y-9245030D02*
X23064490Y-9275510D01*
X23189760Y-1624280D02*
X23220240Y-1654760D01*
X23220240Y-1624280D02*
X23189760Y-1654760D01*
X23379530Y-9868990D02*
X23410010Y-9899470D01*
X23410010Y-9868990D02*
X23379530Y-9899470D01*
X23409760Y-3284760D02*
X23440240Y-3315240D01*
X23440240Y-3284760D02*
X23409760Y-3315240D01*
X23533990Y-9695540D02*
X23564470Y-9726020D01*
X23564470Y-9695540D02*
X23533990Y-9726020D01*
X23631070Y-3285070D02*
X23661550Y-3315550D01*
X23661550Y-3285070D02*
X23631070Y-3315550D01*
X24187760Y-10355910D02*
X24218240Y-10386390D01*
X24218240Y-10355910D02*
X24187760Y-10386390D01*
X24189760Y-9994760D02*
X24220240Y-10025240D01*
X24220240Y-9994760D02*
X24189760Y-10025240D01*
X24612450Y-3681450D02*
X24642930Y-3711930D01*
X24642930Y-3681450D02*
X24612450Y-3711930D01*
X24723070Y-3792070D02*
X24753550Y-3822550D01*
X24753550Y-3792070D02*
X24723070Y-3822550D01*
X24959760Y-12154760D02*
X24990240Y-12185240D01*
X24990240Y-12154760D02*
X24959760Y-12185240D01*
X24963760Y-11897760D02*
X24994240Y-11928240D01*
X24994240Y-11897760D02*
X24963760Y-11928240D01*
X25654760Y-3368760D02*
X25685240Y-3399240D01*
X25685240Y-3368760D02*
X25654760Y-3399240D01*
X25773450Y-4875450D02*
X25803930Y-4905930D01*
X25803930Y-4875450D02*
X25773450Y-4905930D01*
X25827332Y-4821568D02*
X25857812Y-4852048D01*
X25857812Y-4821568D02*
X25827332Y-4852048D01*
X25884070Y-4986070D02*
X25914550Y-5016550D01*
X25914550Y-4986070D02*
X25884070Y-5016550D01*
X25937952Y-4932188D02*
X25968432Y-4962668D01*
X25968432Y-4932188D02*
X25937952Y-4962668D01*
X26051849Y-3686849D02*
X26082329Y-3717329D01*
X26082329Y-3686849D02*
X26051849Y-3717329D01*
X26131773Y-3766773D02*
X26162253Y-3797253D01*
X26162253Y-3766773D02*
X26131773Y-3797253D01*
X26203760Y-4307760D02*
X26234240Y-4338240D01*
X26234240Y-4307760D02*
X26203760Y-4338240D01*
X26254760Y-3350800D02*
X26285240Y-3381280D01*
X26285240Y-3350800D02*
X26254760Y-3381280D01*
X26439760Y-4543760D02*
X26470240Y-4574240D01*
X26470240Y-4543760D02*
X26439760Y-4574240D01*
X26611780Y-3412760D02*
X26642260Y-3443240D01*
X26642260Y-3412760D02*
X26611780Y-3443240D01*
X26697740Y-3412760D02*
X26728220Y-3443240D01*
X26728220Y-3412760D02*
X26697740Y-3443240D01*
X26754391Y-4957392D02*
X26784871Y-4987872D01*
X26784871Y-4957392D02*
X26754391Y-4987872D01*
X26833418Y-5036418D02*
X26863898Y-5066898D01*
X26863898Y-5036418D02*
X26833418Y-5066898D01*
X27021760Y-9599720D02*
X27052240Y-9630200D01*
X27052240Y-9599720D02*
X27021760Y-9630200D01*
X27021760Y-9733070D02*
X27052240Y-9763550D01*
X27052240Y-9733070D02*
X27021760Y-9763550D01*
X27298760Y-10673760D02*
X27329240Y-10704240D01*
X27329240Y-10673760D02*
X27298760Y-10704240D01*
X27336610Y-3759760D02*
X27367090Y-3790240D01*
X27367090Y-3759760D02*
X27336610Y-3790240D01*
X27337880Y-3284760D02*
X27368360Y-3315240D01*
X27368360Y-3284760D02*
X27337880Y-3315240D01*
X27520760Y-3284760D02*
X27551240Y-3315240D01*
X27551240Y-3284760D02*
X27520760Y-3315240D01*
X27520760Y-3759760D02*
X27551240Y-3790240D01*
X27551240Y-3759760D02*
X27520760Y-3790240D01*
X27724760Y-7914760D02*
X27755240Y-7945240D01*
X27755240Y-7914760D02*
X27724760Y-7945240D01*
X27814760Y-1701188D02*
X27845240Y-1731668D01*
X27845240Y-1701188D02*
X27814760Y-1731668D01*
X27834597Y-9537233D02*
X27865077Y-9567713D01*
X27865077Y-9537233D02*
X27834597Y-9567713D01*
X27834760Y-8034760D02*
X27865240Y-8065240D01*
X27865240Y-8034760D02*
X27834760Y-8065240D01*
X27843016Y-9734082D02*
X27873496Y-9764562D01*
X27873496Y-9734082D02*
X27843016Y-9764562D01*
X27909760Y-9549760D02*
X27940240Y-9580240D01*
X27940240Y-9549760D02*
X27909760Y-9580240D01*
X27914760Y-9759760D02*
X27945240Y-9790240D01*
X27945240Y-9759760D02*
X27914760Y-9790240D01*
X28401760Y-3284760D02*
X28432240Y-3315240D01*
X28432240Y-3284760D02*
X28401760Y-3315240D01*
X28847052Y-2843468D02*
X28877532Y-2873948D01*
X28877532Y-2843468D02*
X28847052Y-2873948D01*
X28958570Y-2731950D02*
X28989050Y-2762430D01*
X28989050Y-2731950D02*
X28958570Y-2762430D01*
X29178760Y-12125540D02*
X29209240Y-12156020D01*
X29209240Y-12125540D02*
X29178760Y-12156020D01*
X29179760Y-4634760D02*
X29210240Y-4665240D01*
X29210240Y-4634760D02*
X29179760Y-4665240D01*
X29179760Y-8390760D02*
X29210240Y-8421240D01*
X29210240Y-8390760D02*
X29179760Y-8421240D01*
X29179760Y-9598450D02*
X29210240Y-9628930D01*
X29210240Y-9598450D02*
X29179760Y-9628930D01*
X29179760Y-9731800D02*
X29210240Y-9762280D01*
X29210240Y-9731800D02*
X29179760Y-9762280D01*
X29180906Y-11387009D02*
X29211386Y-11417489D01*
X29211386Y-11387009D02*
X29180906Y-11417489D01*
X29183478Y-11766418D02*
X29213958Y-11796898D01*
X29213958Y-11766418D02*
X29183478Y-11796898D01*
X29288760Y-8324720D02*
X29319240Y-8355200D01*
X29319240Y-8324720D02*
X29288760Y-8355200D01*
X29304760Y-9734760D02*
X29335240Y-9765240D01*
X29335240Y-9734760D02*
X29304760Y-9765240D01*
X29416760Y-9590800D02*
X29447240Y-9621280D01*
X29447240Y-9590800D02*
X29416760Y-9621280D01*
X29419760Y-8314760D02*
X29450240Y-8345240D01*
X29450240Y-8314760D02*
X29419760Y-8345240D01*
X29429165Y-5405165D02*
X29459645Y-5435645D01*
X29459645Y-5405165D02*
X29429165Y-5435645D01*
X29523457Y-5499457D02*
X29553937Y-5529937D01*
X29553937Y-5499457D02*
X29523457Y-5529937D01*
X29549760Y-9739760D02*
X29580240Y-9770240D01*
X29580240Y-9739760D02*
X29549760Y-9770240D01*
X29556760Y-8324720D02*
X29587240Y-8355200D01*
X29587240Y-8324720D02*
X29556760Y-8355200D01*
X29556760Y-9590800D02*
X29587240Y-9621280D01*
X29587240Y-9590800D02*
X29556760Y-9621280D01*
X29679760Y-5460070D02*
X29710240Y-5490550D01*
X29710240Y-5460070D02*
X29679760Y-5490550D01*
X29679760Y-9524760D02*
X29710240Y-9555240D01*
X29710240Y-9524760D02*
X29679760Y-9555240D01*
X29680160Y-8390760D02*
X29710640Y-8421240D01*
X29710640Y-8390760D02*
X29680160Y-8421240D01*
X29680760Y-5325450D02*
X29711240Y-5355930D01*
X29711240Y-5325450D02*
X29680760Y-5355930D01*
X30059760Y-8789760D02*
X30090240Y-8820240D01*
X30090240Y-8789760D02*
X30059760Y-8820240D01*
X30064760Y-8599760D02*
X30095240Y-8630240D01*
X30095240Y-8599760D02*
X30064760Y-8630240D01*
X30187160Y-7745725D02*
X30217640Y-7776205D01*
X30217640Y-7745725D02*
X30187160Y-7776205D01*
X30314760Y-8599760D02*
X30345240Y-8630240D01*
X30345240Y-8599760D02*
X30314760Y-8630240D01*
X30314760Y-8789760D02*
X30345240Y-8820240D01*
X30345240Y-8789760D02*
X30314760Y-8820240D01*
X30463160Y-6096725D02*
X30493640Y-6127205D01*
X30493640Y-6096725D02*
X30463160Y-6127205D01*
X30482760Y-4624760D02*
X30513240Y-4655240D01*
X30513240Y-4624760D02*
X30482760Y-4655240D01*
X30482760Y-5325450D02*
X30513240Y-5355930D01*
X30513240Y-5325450D02*
X30482760Y-5355930D01*
X30957760Y-6339760D02*
X30988240Y-6370240D01*
X30988240Y-6339760D02*
X30957760Y-6370240D01*
X31098160Y-7667760D02*
X31128640Y-7698240D01*
X31128640Y-7667760D02*
X31098160Y-7698240D01*
X31120760Y-5305760D02*
X31151240Y-5336240D01*
X31151240Y-5305760D02*
X31120760Y-5336240D01*
X31284760Y-4624760D02*
X31315240Y-4655240D01*
X31315240Y-4624760D02*
X31284760Y-4655240D01*
X31284760Y-9524760D02*
X31315240Y-9555240D01*
X31315240Y-9524760D02*
X31284760Y-9555240D01*
X2237397Y-4514850D02*
G75*
G02*
X2162397Y-4514850I-37500J0D01*
G01*
X2162397Y-4514850D02*
G75*
G02*
X2237397Y-4514850I37500J0D01*
G01*
X2237397Y-4714850D02*
G75*
G02*
X2162397Y-4714850I-37500J0D01*
G01*
X2162397Y-4714850D02*
G75*
G02*
X2237397Y-4714850I37500J0D01*
G01*
X2237397Y-4914850D02*
G75*
G02*
X2162397Y-4914850I-37500J0D01*
G01*
X2162397Y-4914850D02*
G75*
G02*
X2237397Y-4914850I37500J0D01*
G01*
X2237397Y-5114850D02*
G75*
G02*
X2162397Y-5114850I-37500J0D01*
G01*
X2162397Y-5114850D02*
G75*
G02*
X2237397Y-5114850I37500J0D01*
G01*
X2237397Y-5314850D02*
G75*
G02*
X2162397Y-5314850I-37500J0D01*
G01*
X2162397Y-5314850D02*
G75*
G02*
X2237397Y-5314850I37500J0D01*
G01*
X2237397Y-5714850D02*
G75*
G02*
X2162397Y-5714850I-37500J0D01*
G01*
X2162397Y-5714850D02*
G75*
G02*
X2237397Y-5714850I37500J0D01*
G01*
X2237397Y-5914850D02*
G75*
G02*
X2162397Y-5914850I-37500J0D01*
G01*
X2162397Y-5914850D02*
G75*
G02*
X2237397Y-5914850I37500J0D01*
G01*
X2237397Y-6114850D02*
G75*
G02*
X2162397Y-6114850I-37500J0D01*
G01*
X2162397Y-6114850D02*
G75*
G02*
X2237397Y-6114850I37500J0D01*
G01*
X2237397Y-6314850D02*
G75*
G02*
X2162397Y-6314850I-37500J0D01*
G01*
X2162397Y-6314850D02*
G75*
G02*
X2237397Y-6314850I37500J0D01*
G01*
X2437397Y-4414850D02*
G75*
G02*
X2362397Y-4414850I-37500J0D01*
G01*
X2362397Y-4414850D02*
G75*
G02*
X2437397Y-4414850I37500J0D01*
G01*
X2437397Y-4614850D02*
G75*
G02*
X2362397Y-4614850I-37500J0D01*
G01*
X2362397Y-4614850D02*
G75*
G02*
X2437397Y-4614850I37500J0D01*
G01*
X2437397Y-4814850D02*
G75*
G02*
X2362397Y-4814850I-37500J0D01*
G01*
X2362397Y-4814850D02*
G75*
G02*
X2437397Y-4814850I37500J0D01*
G01*
X2437397Y-5014850D02*
G75*
G02*
X2362397Y-5014850I-37500J0D01*
G01*
X2362397Y-5014850D02*
G75*
G02*
X2437397Y-5014850I37500J0D01*
G01*
X2437397Y-5214850D02*
G75*
G02*
X2362397Y-5214850I-37500J0D01*
G01*
X2362397Y-5214850D02*
G75*
G02*
X2437397Y-5214850I37500J0D01*
G01*
X2437397Y-5414850D02*
G75*
G02*
X2362397Y-5414850I-37500J0D01*
G01*
X2362397Y-5414850D02*
G75*
G02*
X2437397Y-5414850I37500J0D01*
G01*
X2437397Y-5814850D02*
G75*
G02*
X2362397Y-5814850I-37500J0D01*
G01*
X2362397Y-5814850D02*
G75*
G02*
X2437397Y-5814850I37500J0D01*
G01*
X2437397Y-6014850D02*
G75*
G02*
X2362397Y-6014850I-37500J0D01*
G01*
X2362397Y-6014850D02*
G75*
G02*
X2437397Y-6014850I37500J0D01*
G01*
X2437397Y-6214850D02*
G75*
G02*
X2362397Y-6214850I-37500J0D01*
G01*
X2362397Y-6214850D02*
G75*
G02*
X2437397Y-6214850I37500J0D01*
G01*
X2687397Y-4414850D02*
G75*
G02*
X2612397Y-4414850I-37500J0D01*
G01*
X2612397Y-4414850D02*
G75*
G02*
X2687397Y-4414850I37500J0D01*
G01*
X2687397Y-4614850D02*
G75*
G02*
X2612397Y-4614850I-37500J0D01*
G01*
X2612397Y-4614850D02*
G75*
G02*
X2687397Y-4614850I37500J0D01*
G01*
X2687397Y-4814850D02*
G75*
G02*
X2612397Y-4814850I-37500J0D01*
G01*
X2612397Y-4814850D02*
G75*
G02*
X2687397Y-4814850I37500J0D01*
G01*
X2687397Y-5014850D02*
G75*
G02*
X2612397Y-5014850I-37500J0D01*
G01*
X2612397Y-5014850D02*
G75*
G02*
X2687397Y-5014850I37500J0D01*
G01*
X2687397Y-5214850D02*
G75*
G02*
X2612397Y-5214850I-37500J0D01*
G01*
X2612397Y-5214850D02*
G75*
G02*
X2687397Y-5214850I37500J0D01*
G01*
X2687397Y-5414850D02*
G75*
G02*
X2612397Y-5414850I-37500J0D01*
G01*
X2612397Y-5414850D02*
G75*
G02*
X2687397Y-5414850I37500J0D01*
G01*
X2687397Y-5814850D02*
G75*
G02*
X2612397Y-5814850I-37500J0D01*
G01*
X2612397Y-5814850D02*
G75*
G02*
X2687397Y-5814850I37500J0D01*
G01*
X2687397Y-6014850D02*
G75*
G02*
X2612397Y-6014850I-37500J0D01*
G01*
X2612397Y-6014850D02*
G75*
G02*
X2687397Y-6014850I37500J0D01*
G01*
X2687397Y-6214850D02*
G75*
G02*
X2612397Y-6214850I-37500J0D01*
G01*
X2612397Y-6214850D02*
G75*
G02*
X2687397Y-6214850I37500J0D01*
G01*
X2887397Y-4514850D02*
G75*
G02*
X2812397Y-4514850I-37500J0D01*
G01*
X2812397Y-4514850D02*
G75*
G02*
X2887397Y-4514850I37500J0D01*
G01*
X2887397Y-4714850D02*
G75*
G02*
X2812397Y-4714850I-37500J0D01*
G01*
X2812397Y-4714850D02*
G75*
G02*
X2887397Y-4714850I37500J0D01*
G01*
X2887397Y-4914850D02*
G75*
G02*
X2812397Y-4914850I-37500J0D01*
G01*
X2812397Y-4914850D02*
G75*
G02*
X2887397Y-4914850I37500J0D01*
G01*
X2887397Y-5114850D02*
G75*
G02*
X2812397Y-5114850I-37500J0D01*
G01*
X2812397Y-5114850D02*
G75*
G02*
X2887397Y-5114850I37500J0D01*
G01*
X2887397Y-5314850D02*
G75*
G02*
X2812397Y-5314850I-37500J0D01*
G01*
X2812397Y-5314850D02*
G75*
G02*
X2887397Y-5314850I37500J0D01*
G01*
X2887397Y-5714850D02*
G75*
G02*
X2812397Y-5714850I-37500J0D01*
G01*
X2812397Y-5714850D02*
G75*
G02*
X2887397Y-5714850I37500J0D01*
G01*
X2887397Y-5914850D02*
G75*
G02*
X2812397Y-5914850I-37500J0D01*
G01*
X2812397Y-5914850D02*
G75*
G02*
X2887397Y-5914850I37500J0D01*
G01*
X2887397Y-6114850D02*
G75*
G02*
X2812397Y-6114850I-37500J0D01*
G01*
X2812397Y-6114850D02*
G75*
G02*
X2887397Y-6114850I37500J0D01*
G01*
X2887397Y-6314850D02*
G75*
G02*
X2812397Y-6314850I-37500J0D01*
G01*
X2812397Y-6314850D02*
G75*
G02*
X2887397Y-6314850I37500J0D01*
G01*
X3484697Y-8844000D02*
G75*
G02*
X3409697Y-8844000I-37500J0D01*
G01*
X3409697Y-8844000D02*
G75*
G02*
X3484697Y-8844000I37500J0D01*
G01*
X3484697Y-9044000D02*
G75*
G02*
X3409697Y-9044000I-37500J0D01*
G01*
X3409697Y-9044000D02*
G75*
G02*
X3484697Y-9044000I37500J0D01*
G01*
X3484697Y-9244000D02*
G75*
G02*
X3409697Y-9244000I-37500J0D01*
G01*
X3409697Y-9244000D02*
G75*
G02*
X3484697Y-9244000I37500J0D01*
G01*
X3484697Y-9444000D02*
G75*
G02*
X3409697Y-9444000I-37500J0D01*
G01*
X3409697Y-9444000D02*
G75*
G02*
X3484697Y-9444000I37500J0D01*
G01*
X3484697Y-9644000D02*
G75*
G02*
X3409697Y-9644000I-37500J0D01*
G01*
X3409697Y-9644000D02*
G75*
G02*
X3484697Y-9644000I37500J0D01*
G01*
X3484697Y-10044000D02*
G75*
G02*
X3409697Y-10044000I-37500J0D01*
G01*
X3409697Y-10044000D02*
G75*
G02*
X3484697Y-10044000I37500J0D01*
G01*
X3484697Y-10244000D02*
G75*
G02*
X3409697Y-10244000I-37500J0D01*
G01*
X3409697Y-10244000D02*
G75*
G02*
X3484697Y-10244000I37500J0D01*
G01*
X3484697Y-10444000D02*
G75*
G02*
X3409697Y-10444000I-37500J0D01*
G01*
X3409697Y-10444000D02*
G75*
G02*
X3484697Y-10444000I37500J0D01*
G01*
X3484697Y-10644000D02*
G75*
G02*
X3409697Y-10644000I-37500J0D01*
G01*
X3409697Y-10644000D02*
G75*
G02*
X3484697Y-10644000I37500J0D01*
G01*
X3684697Y-8744000D02*
G75*
G02*
X3609697Y-8744000I-37500J0D01*
G01*
X3609697Y-8744000D02*
G75*
G02*
X3684697Y-8744000I37500J0D01*
G01*
X3684697Y-8944000D02*
G75*
G02*
X3609697Y-8944000I-37500J0D01*
G01*
X3609697Y-8944000D02*
G75*
G02*
X3684697Y-8944000I37500J0D01*
G01*
X3684697Y-9144000D02*
G75*
G02*
X3609697Y-9144000I-37500J0D01*
G01*
X3609697Y-9144000D02*
G75*
G02*
X3684697Y-9144000I37500J0D01*
G01*
X3684697Y-9344000D02*
G75*
G02*
X3609697Y-9344000I-37500J0D01*
G01*
X3609697Y-9344000D02*
G75*
G02*
X3684697Y-9344000I37500J0D01*
G01*
X3684697Y-9544000D02*
G75*
G02*
X3609697Y-9544000I-37500J0D01*
G01*
X3609697Y-9544000D02*
G75*
G02*
X3684697Y-9544000I37500J0D01*
G01*
X3684697Y-9744000D02*
G75*
G02*
X3609697Y-9744000I-37500J0D01*
G01*
X3609697Y-9744000D02*
G75*
G02*
X3684697Y-9744000I37500J0D01*
G01*
X3684697Y-10144000D02*
G75*
G02*
X3609697Y-10144000I-37500J0D01*
G01*
X3609697Y-10144000D02*
G75*
G02*
X3684697Y-10144000I37500J0D01*
G01*
X3684697Y-10344000D02*
G75*
G02*
X3609697Y-10344000I-37500J0D01*
G01*
X3609697Y-10344000D02*
G75*
G02*
X3684697Y-10344000I37500J0D01*
G01*
X3684697Y-10544000D02*
G75*
G02*
X3609697Y-10544000I-37500J0D01*
G01*
X3609697Y-10544000D02*
G75*
G02*
X3684697Y-10544000I37500J0D01*
G01*
X3934697Y-8744000D02*
G75*
G02*
X3859697Y-8744000I-37500J0D01*
G01*
X3859697Y-8744000D02*
G75*
G02*
X3934697Y-8744000I37500J0D01*
G01*
X3934697Y-8944000D02*
G75*
G02*
X3859697Y-8944000I-37500J0D01*
G01*
X3859697Y-8944000D02*
G75*
G02*
X3934697Y-8944000I37500J0D01*
G01*
X3934697Y-9144000D02*
G75*
G02*
X3859697Y-9144000I-37500J0D01*
G01*
X3859697Y-9144000D02*
G75*
G02*
X3934697Y-9144000I37500J0D01*
G01*
X3934697Y-9344000D02*
G75*
G02*
X3859697Y-9344000I-37500J0D01*
G01*
X3859697Y-9344000D02*
G75*
G02*
X3934697Y-9344000I37500J0D01*
G01*
X3934697Y-9544000D02*
G75*
G02*
X3859697Y-9544000I-37500J0D01*
G01*
X3859697Y-9544000D02*
G75*
G02*
X3934697Y-9544000I37500J0D01*
G01*
X3934697Y-9744000D02*
G75*
G02*
X3859697Y-9744000I-37500J0D01*
G01*
X3859697Y-9744000D02*
G75*
G02*
X3934697Y-9744000I37500J0D01*
G01*
X3934697Y-10144000D02*
G75*
G02*
X3859697Y-10144000I-37500J0D01*
G01*
X3859697Y-10144000D02*
G75*
G02*
X3934697Y-10144000I37500J0D01*
G01*
X3934697Y-10344000D02*
G75*
G02*
X3859697Y-10344000I-37500J0D01*
G01*
X3859697Y-10344000D02*
G75*
G02*
X3934697Y-10344000I37500J0D01*
G01*
X3934697Y-10544000D02*
G75*
G02*
X3859697Y-10544000I-37500J0D01*
G01*
X3859697Y-10544000D02*
G75*
G02*
X3934697Y-10544000I37500J0D01*
G01*
X4134697Y-8844000D02*
G75*
G02*
X4059697Y-8844000I-37500J0D01*
G01*
X4059697Y-8844000D02*
G75*
G02*
X4134697Y-8844000I37500J0D01*
G01*
X4134697Y-9044000D02*
G75*
G02*
X4059697Y-9044000I-37500J0D01*
G01*
X4059697Y-9044000D02*
G75*
G02*
X4134697Y-9044000I37500J0D01*
G01*
X4134697Y-9244000D02*
G75*
G02*
X4059697Y-9244000I-37500J0D01*
G01*
X4059697Y-9244000D02*
G75*
G02*
X4134697Y-9244000I37500J0D01*
G01*
X4134697Y-9444000D02*
G75*
G02*
X4059697Y-9444000I-37500J0D01*
G01*
X4059697Y-9444000D02*
G75*
G02*
X4134697Y-9444000I37500J0D01*
G01*
X4134697Y-9644000D02*
G75*
G02*
X4059697Y-9644000I-37500J0D01*
G01*
X4059697Y-9644000D02*
G75*
G02*
X4134697Y-9644000I37500J0D01*
G01*
X4134697Y-10044000D02*
G75*
G02*
X4059697Y-10044000I-37500J0D01*
G01*
X4059697Y-10044000D02*
G75*
G02*
X4134697Y-10044000I37500J0D01*
G01*
X4134697Y-10244000D02*
G75*
G02*
X4059697Y-10244000I-37500J0D01*
G01*
X4059697Y-10244000D02*
G75*
G02*
X4134697Y-10244000I37500J0D01*
G01*
X4134697Y-10444000D02*
G75*
G02*
X4059697Y-10444000I-37500J0D01*
G01*
X4059697Y-10444000D02*
G75*
G02*
X4134697Y-10444000I37500J0D01*
G01*
X4134697Y-10644000D02*
G75*
G02*
X4059697Y-10644000I-37500J0D01*
G01*
X4059697Y-10644000D02*
G75*
G02*
X4134697Y-10644000I37500J0D01*
G01*
X13348200Y-3728800D02*
G75*
G02*
X13273200Y-3728800I-37500J0D01*
G01*
X13273200Y-3728800D02*
G75*
G02*
X13348200Y-3728800I37500J0D01*
G01*
X13348200Y-4378800D02*
G75*
G02*
X13273200Y-4378800I-37500J0D01*
G01*
X13273200Y-4378800D02*
G75*
G02*
X13348200Y-4378800I37500J0D01*
G01*
X13448200Y-3928800D02*
G75*
G02*
X13373200Y-3928800I-37500J0D01*
G01*
X13373200Y-3928800D02*
G75*
G02*
X13448200Y-3928800I37500J0D01*
G01*
X13448200Y-4178800D02*
G75*
G02*
X13373200Y-4178800I-37500J0D01*
G01*
X13373200Y-4178800D02*
G75*
G02*
X13448200Y-4178800I37500J0D01*
G01*
X13548200Y-3728800D02*
G75*
G02*
X13473200Y-3728800I-37500J0D01*
G01*
X13473200Y-3728800D02*
G75*
G02*
X13548200Y-3728800I37500J0D01*
G01*
X13548200Y-4378800D02*
G75*
G02*
X13473200Y-4378800I-37500J0D01*
G01*
X13473200Y-4378800D02*
G75*
G02*
X13548200Y-4378800I37500J0D01*
G01*
X13648200Y-3928800D02*
G75*
G02*
X13573200Y-3928800I-37500J0D01*
G01*
X13573200Y-3928800D02*
G75*
G02*
X13648200Y-3928800I37500J0D01*
G01*
X13648200Y-4178800D02*
G75*
G02*
X13573200Y-4178800I-37500J0D01*
G01*
X13573200Y-4178800D02*
G75*
G02*
X13648200Y-4178800I37500J0D01*
G01*
X13748200Y-3728800D02*
G75*
G02*
X13673200Y-3728800I-37500J0D01*
G01*
X13673200Y-3728800D02*
G75*
G02*
X13748200Y-3728800I37500J0D01*
G01*
X13748200Y-4378800D02*
G75*
G02*
X13673200Y-4378800I-37500J0D01*
G01*
X13673200Y-4378800D02*
G75*
G02*
X13748200Y-4378800I37500J0D01*
G01*
X13848200Y-3928800D02*
G75*
G02*
X13773200Y-3928800I-37500J0D01*
G01*
X13773200Y-3928800D02*
G75*
G02*
X13848200Y-3928800I37500J0D01*
G01*
X13848200Y-4178800D02*
G75*
G02*
X13773200Y-4178800I-37500J0D01*
G01*
X13773200Y-4178800D02*
G75*
G02*
X13848200Y-4178800I37500J0D01*
G01*
X13948200Y-3728800D02*
G75*
G02*
X13873200Y-3728800I-37500J0D01*
G01*
X13873200Y-3728800D02*
G75*
G02*
X13948200Y-3728800I37500J0D01*
G01*
X13948200Y-4378800D02*
G75*
G02*
X13873200Y-4378800I-37500J0D01*
G01*
X13873200Y-4378800D02*
G75*
G02*
X13948200Y-4378800I37500J0D01*
G01*
X14248200Y-3928800D02*
G75*
G02*
X14173200Y-3928800I-37500J0D01*
G01*
X14173200Y-3928800D02*
G75*
G02*
X14248200Y-3928800I37500J0D01*
G01*
X14248200Y-4178800D02*
G75*
G02*
X14173200Y-4178800I-37500J0D01*
G01*
X14173200Y-4178800D02*
G75*
G02*
X14248200Y-4178800I37500J0D01*
G01*
X14348200Y-3728800D02*
G75*
G02*
X14273200Y-3728800I-37500J0D01*
G01*
X14273200Y-3728800D02*
G75*
G02*
X14348200Y-3728800I37500J0D01*
G01*
X14348200Y-4378800D02*
G75*
G02*
X14273200Y-4378800I-37500J0D01*
G01*
X14273200Y-4378800D02*
G75*
G02*
X14348200Y-4378800I37500J0D01*
G01*
X14448200Y-3928800D02*
G75*
G02*
X14373200Y-3928800I-37500J0D01*
G01*
X14373200Y-3928800D02*
G75*
G02*
X14448200Y-3928800I37500J0D01*
G01*
X14448200Y-4178800D02*
G75*
G02*
X14373200Y-4178800I-37500J0D01*
G01*
X14373200Y-4178800D02*
G75*
G02*
X14448200Y-4178800I37500J0D01*
G01*
X14548200Y-3728800D02*
G75*
G02*
X14473200Y-3728800I-37500J0D01*
G01*
X14473200Y-3728800D02*
G75*
G02*
X14548200Y-3728800I37500J0D01*
G01*
X14548200Y-4378800D02*
G75*
G02*
X14473200Y-4378800I-37500J0D01*
G01*
X14473200Y-4378800D02*
G75*
G02*
X14548200Y-4378800I37500J0D01*
G01*
X14648200Y-3928800D02*
G75*
G02*
X14573200Y-3928800I-37500J0D01*
G01*
X14573200Y-3928800D02*
G75*
G02*
X14648200Y-3928800I37500J0D01*
G01*
X14648200Y-4178800D02*
G75*
G02*
X14573200Y-4178800I-37500J0D01*
G01*
X14573200Y-4178800D02*
G75*
G02*
X14648200Y-4178800I37500J0D01*
G01*
X14748200Y-3728800D02*
G75*
G02*
X14673200Y-3728800I-37500J0D01*
G01*
X14673200Y-3728800D02*
G75*
G02*
X14748200Y-3728800I37500J0D01*
G01*
X14748200Y-4378800D02*
G75*
G02*
X14673200Y-4378800I-37500J0D01*
G01*
X14673200Y-4378800D02*
G75*
G02*
X14748200Y-4378800I37500J0D01*
G01*
X14848200Y-3928800D02*
G75*
G02*
X14773200Y-3928800I-37500J0D01*
G01*
X14773200Y-3928800D02*
G75*
G02*
X14848200Y-3928800I37500J0D01*
G01*
X14848200Y-4178800D02*
G75*
G02*
X14773200Y-4178800I-37500J0D01*
G01*
X14773200Y-4178800D02*
G75*
G02*
X14848200Y-4178800I37500J0D01*
G01*
X14948200Y-3728800D02*
G75*
G02*
X14873200Y-3728800I-37500J0D01*
G01*
X14873200Y-3728800D02*
G75*
G02*
X14948200Y-3728800I37500J0D01*
G01*
X14948200Y-4378800D02*
G75*
G02*
X14873200Y-4378800I-37500J0D01*
G01*
X14873200Y-4378800D02*
G75*
G02*
X14948200Y-4378800I37500J0D01*
G01*
X15048200Y-3928800D02*
G75*
G02*
X14973200Y-3928800I-37500J0D01*
G01*
X14973200Y-3928800D02*
G75*
G02*
X15048200Y-3928800I37500J0D01*
G01*
X15048200Y-4178800D02*
G75*
G02*
X14973200Y-4178800I-37500J0D01*
G01*
X14973200Y-4178800D02*
G75*
G02*
X15048200Y-4178800I37500J0D01*
G01*
X15148200Y-3728800D02*
G75*
G02*
X15073200Y-3728800I-37500J0D01*
G01*
X15073200Y-3728800D02*
G75*
G02*
X15148200Y-3728800I37500J0D01*
G01*
X15148200Y-4378800D02*
G75*
G02*
X15073200Y-4378800I-37500J0D01*
G01*
X15073200Y-4378800D02*
G75*
G02*
X15148200Y-4378800I37500J0D01*
G01*
X15248200Y-3928800D02*
G75*
G02*
X15173200Y-3928800I-37500J0D01*
G01*
X15173200Y-3928800D02*
G75*
G02*
X15248200Y-3928800I37500J0D01*
G01*
X15248200Y-4178800D02*
G75*
G02*
X15173200Y-4178800I-37500J0D01*
G01*
X15173200Y-4178800D02*
G75*
G02*
X15248200Y-4178800I37500J0D01*
G01*
X16348200Y-3728800D02*
G75*
G02*
X16273200Y-3728800I-37500J0D01*
G01*
X16273200Y-3728800D02*
G75*
G02*
X16348200Y-3728800I37500J0D01*
G01*
X16348200Y-4378800D02*
G75*
G02*
X16273200Y-4378800I-37500J0D01*
G01*
X16273200Y-4378800D02*
G75*
G02*
X16348200Y-4378800I37500J0D01*
G01*
X16448200Y-3928800D02*
G75*
G02*
X16373200Y-3928800I-37500J0D01*
G01*
X16373200Y-3928800D02*
G75*
G02*
X16448200Y-3928800I37500J0D01*
G01*
X16448200Y-4178800D02*
G75*
G02*
X16373200Y-4178800I-37500J0D01*
G01*
X16373200Y-4178800D02*
G75*
G02*
X16448200Y-4178800I37500J0D01*
G01*
X16548200Y-3728800D02*
G75*
G02*
X16473200Y-3728800I-37500J0D01*
G01*
X16473200Y-3728800D02*
G75*
G02*
X16548200Y-3728800I37500J0D01*
G01*
X16548200Y-4378800D02*
G75*
G02*
X16473200Y-4378800I-37500J0D01*
G01*
X16473200Y-4378800D02*
G75*
G02*
X16548200Y-4378800I37500J0D01*
G01*
X16648200Y-3928800D02*
G75*
G02*
X16573200Y-3928800I-37500J0D01*
G01*
X16573200Y-3928800D02*
G75*
G02*
X16648200Y-3928800I37500J0D01*
G01*
X16648200Y-4178800D02*
G75*
G02*
X16573200Y-4178800I-37500J0D01*
G01*
X16573200Y-4178800D02*
G75*
G02*
X16648200Y-4178800I37500J0D01*
G01*
X16748200Y-3728800D02*
G75*
G02*
X16673200Y-3728800I-37500J0D01*
G01*
X16673200Y-3728800D02*
G75*
G02*
X16748200Y-3728800I37500J0D01*
G01*
X16748200Y-4378800D02*
G75*
G02*
X16673200Y-4378800I-37500J0D01*
G01*
X16673200Y-4378800D02*
G75*
G02*
X16748200Y-4378800I37500J0D01*
G01*
X16848200Y-3928800D02*
G75*
G02*
X16773200Y-3928800I-37500J0D01*
G01*
X16773200Y-3928800D02*
G75*
G02*
X16848200Y-3928800I37500J0D01*
G01*
X16848200Y-4178800D02*
G75*
G02*
X16773200Y-4178800I-37500J0D01*
G01*
X16773200Y-4178800D02*
G75*
G02*
X16848200Y-4178800I37500J0D01*
G01*
X16948200Y-3728800D02*
G75*
G02*
X16873200Y-3728800I-37500J0D01*
G01*
X16873200Y-3728800D02*
G75*
G02*
X16948200Y-3728800I37500J0D01*
G01*
X16948200Y-4378800D02*
G75*
G02*
X16873200Y-4378800I-37500J0D01*
G01*
X16873200Y-4378800D02*
G75*
G02*
X16948200Y-4378800I37500J0D01*
G01*
X17248200Y-3928800D02*
G75*
G02*
X17173200Y-3928800I-37500J0D01*
G01*
X17173200Y-3928800D02*
G75*
G02*
X17248200Y-3928800I37500J0D01*
G01*
X17248200Y-4178800D02*
G75*
G02*
X17173200Y-4178800I-37500J0D01*
G01*
X17173200Y-4178800D02*
G75*
G02*
X17248200Y-4178800I37500J0D01*
G01*
X17348200Y-3728800D02*
G75*
G02*
X17273200Y-3728800I-37500J0D01*
G01*
X17273200Y-3728800D02*
G75*
G02*
X17348200Y-3728800I37500J0D01*
G01*
X17348200Y-4378800D02*
G75*
G02*
X17273200Y-4378800I-37500J0D01*
G01*
X17273200Y-4378800D02*
G75*
G02*
X17348200Y-4378800I37500J0D01*
G01*
X17448200Y-3928800D02*
G75*
G02*
X17373200Y-3928800I-37500J0D01*
G01*
X17373200Y-3928800D02*
G75*
G02*
X17448200Y-3928800I37500J0D01*
G01*
X17448200Y-4178800D02*
G75*
G02*
X17373200Y-4178800I-37500J0D01*
G01*
X17373200Y-4178800D02*
G75*
G02*
X17448200Y-4178800I37500J0D01*
G01*
X17548200Y-3728800D02*
G75*
G02*
X17473200Y-3728800I-37500J0D01*
G01*
X17473200Y-3728800D02*
G75*
G02*
X17548200Y-3728800I37500J0D01*
G01*
X17548200Y-4378800D02*
G75*
G02*
X17473200Y-4378800I-37500J0D01*
G01*
X17473200Y-4378800D02*
G75*
G02*
X17548200Y-4378800I37500J0D01*
G01*
X17648200Y-3928800D02*
G75*
G02*
X17573200Y-3928800I-37500J0D01*
G01*
X17573200Y-3928800D02*
G75*
G02*
X17648200Y-3928800I37500J0D01*
G01*
X17648200Y-4178800D02*
G75*
G02*
X17573200Y-4178800I-37500J0D01*
G01*
X17573200Y-4178800D02*
G75*
G02*
X17648200Y-4178800I37500J0D01*
G01*
X17748200Y-3728800D02*
G75*
G02*
X17673200Y-3728800I-37500J0D01*
G01*
X17673200Y-3728800D02*
G75*
G02*
X17748200Y-3728800I37500J0D01*
G01*
X17748200Y-4378800D02*
G75*
G02*
X17673200Y-4378800I-37500J0D01*
G01*
X17673200Y-4378800D02*
G75*
G02*
X17748200Y-4378800I37500J0D01*
G01*
X17848200Y-3928800D02*
G75*
G02*
X17773200Y-3928800I-37500J0D01*
G01*
X17773200Y-3928800D02*
G75*
G02*
X17848200Y-3928800I37500J0D01*
G01*
X17848200Y-4178800D02*
G75*
G02*
X17773200Y-4178800I-37500J0D01*
G01*
X17773200Y-4178800D02*
G75*
G02*
X17848200Y-4178800I37500J0D01*
G01*
X17948200Y-3728800D02*
G75*
G02*
X17873200Y-3728800I-37500J0D01*
G01*
X17873200Y-3728800D02*
G75*
G02*
X17948200Y-3728800I37500J0D01*
G01*
X17948200Y-4378800D02*
G75*
G02*
X17873200Y-4378800I-37500J0D01*
G01*
X17873200Y-4378800D02*
G75*
G02*
X17948200Y-4378800I37500J0D01*
G01*
X18048200Y-3928800D02*
G75*
G02*
X17973200Y-3928800I-37500J0D01*
G01*
X17973200Y-3928800D02*
G75*
G02*
X18048200Y-3928800I37500J0D01*
G01*
X18048200Y-4178800D02*
G75*
G02*
X17973200Y-4178800I-37500J0D01*
G01*
X17973200Y-4178800D02*
G75*
G02*
X18048200Y-4178800I37500J0D01*
G01*
X18148200Y-3728800D02*
G75*
G02*
X18073200Y-3728800I-37500J0D01*
G01*
X18073200Y-3728800D02*
G75*
G02*
X18148200Y-3728800I37500J0D01*
G01*
X18148200Y-4378800D02*
G75*
G02*
X18073200Y-4378800I-37500J0D01*
G01*
X18073200Y-4378800D02*
G75*
G02*
X18148200Y-4378800I37500J0D01*
G01*
X18248200Y-3928800D02*
G75*
G02*
X18173200Y-3928800I-37500J0D01*
G01*
X18173200Y-3928800D02*
G75*
G02*
X18248200Y-3928800I37500J0D01*
G01*
X18248200Y-4178800D02*
G75*
G02*
X18173200Y-4178800I-37500J0D01*
G01*
X18173200Y-4178800D02*
G75*
G02*
X18248200Y-4178800I37500J0D01*
G01*
X19151500Y-4217650D02*
G75*
G02*
X19076500Y-4217650I-37500J0D01*
G01*
X19076500Y-4217650D02*
G75*
G02*
X19151500Y-4217650I37500J0D01*
G01*
X19151500Y-4417650D02*
G75*
G02*
X19076500Y-4417650I-37500J0D01*
G01*
X19076500Y-4417650D02*
G75*
G02*
X19151500Y-4417650I37500J0D01*
G01*
X19151500Y-4617650D02*
G75*
G02*
X19076500Y-4617650I-37500J0D01*
G01*
X19076500Y-4617650D02*
G75*
G02*
X19151500Y-4617650I37500J0D01*
G01*
X19151500Y-4817650D02*
G75*
G02*
X19076500Y-4817650I-37500J0D01*
G01*
X19076500Y-4817650D02*
G75*
G02*
X19151500Y-4817650I37500J0D01*
G01*
X19151500Y-5017650D02*
G75*
G02*
X19076500Y-5017650I-37500J0D01*
G01*
X19076500Y-5017650D02*
G75*
G02*
X19151500Y-5017650I37500J0D01*
G01*
X19151500Y-5417650D02*
G75*
G02*
X19076500Y-5417650I-37500J0D01*
G01*
X19076500Y-5417650D02*
G75*
G02*
X19151500Y-5417650I37500J0D01*
G01*
X19151500Y-5617650D02*
G75*
G02*
X19076500Y-5617650I-37500J0D01*
G01*
X19076500Y-5617650D02*
G75*
G02*
X19151500Y-5617650I37500J0D01*
G01*
X19151500Y-5817650D02*
G75*
G02*
X19076500Y-5817650I-37500J0D01*
G01*
X19076500Y-5817650D02*
G75*
G02*
X19151500Y-5817650I37500J0D01*
G01*
X19151500Y-6017650D02*
G75*
G02*
X19076500Y-6017650I-37500J0D01*
G01*
X19076500Y-6017650D02*
G75*
G02*
X19151500Y-6017650I37500J0D01*
G01*
X19151500Y-7754150D02*
G75*
G02*
X19076500Y-7754150I-37500J0D01*
G01*
X19076500Y-7754150D02*
G75*
G02*
X19151500Y-7754150I37500J0D01*
G01*
X19151500Y-7954150D02*
G75*
G02*
X19076500Y-7954150I-37500J0D01*
G01*
X19076500Y-7954150D02*
G75*
G02*
X19151500Y-7954150I37500J0D01*
G01*
X19151500Y-8154150D02*
G75*
G02*
X19076500Y-8154150I-37500J0D01*
G01*
X19076500Y-8154150D02*
G75*
G02*
X19151500Y-8154150I37500J0D01*
G01*
X19151500Y-8354150D02*
G75*
G02*
X19076500Y-8354150I-37500J0D01*
G01*
X19076500Y-8354150D02*
G75*
G02*
X19151500Y-8354150I37500J0D01*
G01*
X19151500Y-8554150D02*
G75*
G02*
X19076500Y-8554150I-37500J0D01*
G01*
X19076500Y-8554150D02*
G75*
G02*
X19151500Y-8554150I37500J0D01*
G01*
X19151500Y-8954150D02*
G75*
G02*
X19076500Y-8954150I-37500J0D01*
G01*
X19076500Y-8954150D02*
G75*
G02*
X19151500Y-8954150I37500J0D01*
G01*
X19151500Y-9154150D02*
G75*
G02*
X19076500Y-9154150I-37500J0D01*
G01*
X19076500Y-9154150D02*
G75*
G02*
X19151500Y-9154150I37500J0D01*
G01*
X19151500Y-9354150D02*
G75*
G02*
X19076500Y-9354150I-37500J0D01*
G01*
X19076500Y-9354150D02*
G75*
G02*
X19151500Y-9354150I37500J0D01*
G01*
X19151500Y-9554150D02*
G75*
G02*
X19076500Y-9554150I-37500J0D01*
G01*
X19076500Y-9554150D02*
G75*
G02*
X19151500Y-9554150I37500J0D01*
G01*
X19351500Y-4117650D02*
G75*
G02*
X19276500Y-4117650I-37500J0D01*
G01*
X19276500Y-4117650D02*
G75*
G02*
X19351500Y-4117650I37500J0D01*
G01*
X19351500Y-4317650D02*
G75*
G02*
X19276500Y-4317650I-37500J0D01*
G01*
X19276500Y-4317650D02*
G75*
G02*
X19351500Y-4317650I37500J0D01*
G01*
X19351500Y-4517650D02*
G75*
G02*
X19276500Y-4517650I-37500J0D01*
G01*
X19276500Y-4517650D02*
G75*
G02*
X19351500Y-4517650I37500J0D01*
G01*
X19351500Y-4717650D02*
G75*
G02*
X19276500Y-4717650I-37500J0D01*
G01*
X19276500Y-4717650D02*
G75*
G02*
X19351500Y-4717650I37500J0D01*
G01*
X19351500Y-4917650D02*
G75*
G02*
X19276500Y-4917650I-37500J0D01*
G01*
X19276500Y-4917650D02*
G75*
G02*
X19351500Y-4917650I37500J0D01*
G01*
X19351500Y-5117650D02*
G75*
G02*
X19276500Y-5117650I-37500J0D01*
G01*
X19276500Y-5117650D02*
G75*
G02*
X19351500Y-5117650I37500J0D01*
G01*
X19351500Y-5517650D02*
G75*
G02*
X19276500Y-5517650I-37500J0D01*
G01*
X19276500Y-5517650D02*
G75*
G02*
X19351500Y-5517650I37500J0D01*
G01*
X19351500Y-5717650D02*
G75*
G02*
X19276500Y-5717650I-37500J0D01*
G01*
X19276500Y-5717650D02*
G75*
G02*
X19351500Y-5717650I37500J0D01*
G01*
X19351500Y-5917650D02*
G75*
G02*
X19276500Y-5917650I-37500J0D01*
G01*
X19276500Y-5917650D02*
G75*
G02*
X19351500Y-5917650I37500J0D01*
G01*
X19351500Y-7654150D02*
G75*
G02*
X19276500Y-7654150I-37500J0D01*
G01*
X19276500Y-7654150D02*
G75*
G02*
X19351500Y-7654150I37500J0D01*
G01*
X19351500Y-7854150D02*
G75*
G02*
X19276500Y-7854150I-37500J0D01*
G01*
X19276500Y-7854150D02*
G75*
G02*
X19351500Y-7854150I37500J0D01*
G01*
X19351500Y-8054150D02*
G75*
G02*
X19276500Y-8054150I-37500J0D01*
G01*
X19276500Y-8054150D02*
G75*
G02*
X19351500Y-8054150I37500J0D01*
G01*
X19351500Y-8254150D02*
G75*
G02*
X19276500Y-8254150I-37500J0D01*
G01*
X19276500Y-8254150D02*
G75*
G02*
X19351500Y-8254150I37500J0D01*
G01*
X19351500Y-8454150D02*
G75*
G02*
X19276500Y-8454150I-37500J0D01*
G01*
X19276500Y-8454150D02*
G75*
G02*
X19351500Y-8454150I37500J0D01*
G01*
X19351500Y-8654150D02*
G75*
G02*
X19276500Y-8654150I-37500J0D01*
G01*
X19276500Y-8654150D02*
G75*
G02*
X19351500Y-8654150I37500J0D01*
G01*
X19351500Y-9054150D02*
G75*
G02*
X19276500Y-9054150I-37500J0D01*
G01*
X19276500Y-9054150D02*
G75*
G02*
X19351500Y-9054150I37500J0D01*
G01*
X19351500Y-9254150D02*
G75*
G02*
X19276500Y-9254150I-37500J0D01*
G01*
X19276500Y-9254150D02*
G75*
G02*
X19351500Y-9254150I37500J0D01*
G01*
X19351500Y-9454150D02*
G75*
G02*
X19276500Y-9454150I-37500J0D01*
G01*
X19276500Y-9454150D02*
G75*
G02*
X19351500Y-9454150I37500J0D01*
G01*
X19601500Y-4117650D02*
G75*
G02*
X19526500Y-4117650I-37500J0D01*
G01*
X19526500Y-4117650D02*
G75*
G02*
X19601500Y-4117650I37500J0D01*
G01*
X19601500Y-4317650D02*
G75*
G02*
X19526500Y-4317650I-37500J0D01*
G01*
X19526500Y-4317650D02*
G75*
G02*
X19601500Y-4317650I37500J0D01*
G01*
X19601500Y-4517650D02*
G75*
G02*
X19526500Y-4517650I-37500J0D01*
G01*
X19526500Y-4517650D02*
G75*
G02*
X19601500Y-4517650I37500J0D01*
G01*
X19601500Y-4717650D02*
G75*
G02*
X19526500Y-4717650I-37500J0D01*
G01*
X19526500Y-4717650D02*
G75*
G02*
X19601500Y-4717650I37500J0D01*
G01*
X19601500Y-4917650D02*
G75*
G02*
X19526500Y-4917650I-37500J0D01*
G01*
X19526500Y-4917650D02*
G75*
G02*
X19601500Y-4917650I37500J0D01*
G01*
X19601500Y-5117650D02*
G75*
G02*
X19526500Y-5117650I-37500J0D01*
G01*
X19526500Y-5117650D02*
G75*
G02*
X19601500Y-5117650I37500J0D01*
G01*
X19601500Y-5517650D02*
G75*
G02*
X19526500Y-5517650I-37500J0D01*
G01*
X19526500Y-5517650D02*
G75*
G02*
X19601500Y-5517650I37500J0D01*
G01*
X19601500Y-5717650D02*
G75*
G02*
X19526500Y-5717650I-37500J0D01*
G01*
X19526500Y-5717650D02*
G75*
G02*
X19601500Y-5717650I37500J0D01*
G01*
X19601500Y-5917650D02*
G75*
G02*
X19526500Y-5917650I-37500J0D01*
G01*
X19526500Y-5917650D02*
G75*
G02*
X19601500Y-5917650I37500J0D01*
G01*
X19601500Y-7654150D02*
G75*
G02*
X19526500Y-7654150I-37500J0D01*
G01*
X19526500Y-7654150D02*
G75*
G02*
X19601500Y-7654150I37500J0D01*
G01*
X19601500Y-7854150D02*
G75*
G02*
X19526500Y-7854150I-37500J0D01*
G01*
X19526500Y-7854150D02*
G75*
G02*
X19601500Y-7854150I37500J0D01*
G01*
X19601500Y-8054150D02*
G75*
G02*
X19526500Y-8054150I-37500J0D01*
G01*
X19526500Y-8054150D02*
G75*
G02*
X19601500Y-8054150I37500J0D01*
G01*
X19601500Y-8254150D02*
G75*
G02*
X19526500Y-8254150I-37500J0D01*
G01*
X19526500Y-8254150D02*
G75*
G02*
X19601500Y-8254150I37500J0D01*
G01*
X19601500Y-8454150D02*
G75*
G02*
X19526500Y-8454150I-37500J0D01*
G01*
X19526500Y-8454150D02*
G75*
G02*
X19601500Y-8454150I37500J0D01*
G01*
X19601500Y-8654150D02*
G75*
G02*
X19526500Y-8654150I-37500J0D01*
G01*
X19526500Y-8654150D02*
G75*
G02*
X19601500Y-8654150I37500J0D01*
G01*
X19601500Y-9054150D02*
G75*
G02*
X19526500Y-9054150I-37500J0D01*
G01*
X19526500Y-9054150D02*
G75*
G02*
X19601500Y-9054150I37500J0D01*
G01*
X19601500Y-9254150D02*
G75*
G02*
X19526500Y-9254150I-37500J0D01*
G01*
X19526500Y-9254150D02*
G75*
G02*
X19601500Y-9254150I37500J0D01*
G01*
X19601500Y-9454150D02*
G75*
G02*
X19526500Y-9454150I-37500J0D01*
G01*
X19526500Y-9454150D02*
G75*
G02*
X19601500Y-9454150I37500J0D01*
G01*
X19801500Y-4217650D02*
G75*
G02*
X19726500Y-4217650I-37500J0D01*
G01*
X19726500Y-4217650D02*
G75*
G02*
X19801500Y-4217650I37500J0D01*
G01*
X19801500Y-4417650D02*
G75*
G02*
X19726500Y-4417650I-37500J0D01*
G01*
X19726500Y-4417650D02*
G75*
G02*
X19801500Y-4417650I37500J0D01*
G01*
X19801500Y-4617650D02*
G75*
G02*
X19726500Y-4617650I-37500J0D01*
G01*
X19726500Y-4617650D02*
G75*
G02*
X19801500Y-4617650I37500J0D01*
G01*
X19801500Y-4817650D02*
G75*
G02*
X19726500Y-4817650I-37500J0D01*
G01*
X19726500Y-4817650D02*
G75*
G02*
X19801500Y-4817650I37500J0D01*
G01*
X19801500Y-5017650D02*
G75*
G02*
X19726500Y-5017650I-37500J0D01*
G01*
X19726500Y-5017650D02*
G75*
G02*
X19801500Y-5017650I37500J0D01*
G01*
X19801500Y-5417650D02*
G75*
G02*
X19726500Y-5417650I-37500J0D01*
G01*
X19726500Y-5417650D02*
G75*
G02*
X19801500Y-5417650I37500J0D01*
G01*
X19801500Y-5617650D02*
G75*
G02*
X19726500Y-5617650I-37500J0D01*
G01*
X19726500Y-5617650D02*
G75*
G02*
X19801500Y-5617650I37500J0D01*
G01*
X19801500Y-5817650D02*
G75*
G02*
X19726500Y-5817650I-37500J0D01*
G01*
X19726500Y-5817650D02*
G75*
G02*
X19801500Y-5817650I37500J0D01*
G01*
X19801500Y-6017650D02*
G75*
G02*
X19726500Y-6017650I-37500J0D01*
G01*
X19726500Y-6017650D02*
G75*
G02*
X19801500Y-6017650I37500J0D01*
G01*
X19801500Y-7754150D02*
G75*
G02*
X19726500Y-7754150I-37500J0D01*
G01*
X19726500Y-7754150D02*
G75*
G02*
X19801500Y-7754150I37500J0D01*
G01*
X19801500Y-7954150D02*
G75*
G02*
X19726500Y-7954150I-37500J0D01*
G01*
X19726500Y-7954150D02*
G75*
G02*
X19801500Y-7954150I37500J0D01*
G01*
X19801500Y-8154150D02*
G75*
G02*
X19726500Y-8154150I-37500J0D01*
G01*
X19726500Y-8154150D02*
G75*
G02*
X19801500Y-8154150I37500J0D01*
G01*
X19801500Y-8354150D02*
G75*
G02*
X19726500Y-8354150I-37500J0D01*
G01*
X19726500Y-8354150D02*
G75*
G02*
X19801500Y-8354150I37500J0D01*
G01*
X19801500Y-8554150D02*
G75*
G02*
X19726500Y-8554150I-37500J0D01*
G01*
X19726500Y-8554150D02*
G75*
G02*
X19801500Y-8554150I37500J0D01*
G01*
X19801500Y-8954150D02*
G75*
G02*
X19726500Y-8954150I-37500J0D01*
G01*
X19726500Y-8954150D02*
G75*
G02*
X19801500Y-8954150I37500J0D01*
G01*
X19801500Y-9154150D02*
G75*
G02*
X19726500Y-9154150I-37500J0D01*
G01*
X19726500Y-9154150D02*
G75*
G02*
X19801500Y-9154150I37500J0D01*
G01*
X19801500Y-9354150D02*
G75*
G02*
X19726500Y-9354150I-37500J0D01*
G01*
X19726500Y-9354150D02*
G75*
G02*
X19801500Y-9354150I37500J0D01*
G01*
X19801500Y-9554150D02*
G75*
G02*
X19726500Y-9554150I-37500J0D01*
G01*
X19726500Y-9554150D02*
G75*
G02*
X19801500Y-9554150I37500J0D01*
G01*
X9902000Y-2761000D02*
X9902000Y-2861000D01*
X9852000Y-2811000D02*
X9952000Y-2811000D01*
X9902000Y-3015000D02*
X9902000Y-3115000D01*
X9852000Y-3065000D02*
X9952000Y-3065000D01*
X10156000Y-2761000D02*
X10156000Y-2861000D01*
X10106000Y-2811000D02*
X10206000Y-2811000D01*
X10156000Y-3015000D02*
X10156000Y-3115000D01*
X10106000Y-3065000D02*
X10206000Y-3065000D01*
X10410000Y-2761000D02*
X10410000Y-2861000D01*
X10360000Y-2811000D02*
X10460000Y-2811000D01*
X10410000Y-3015000D02*
X10410000Y-3115000D01*
X10360000Y-3065000D02*
X10460000Y-3065000D01*
X16457000Y-2660000D02*
X16457000Y-2760000D01*
X16407000Y-2710000D02*
X16507000Y-2710000D01*
X16711000Y-2660000D02*
X16711000Y-2760000D01*
X16661000Y-2710000D02*
X16761000Y-2710000D01*
X16965000Y-2660000D02*
X16965000Y-2760000D01*
X16915000Y-2710000D02*
X17015000Y-2710000D01*
X22950000Y-2746000D02*
X22950000Y-2846000D01*
X22900000Y-2796000D02*
X23000000Y-2796000D01*
X22950000Y-3000000D02*
X22950000Y-3100000D01*
X22900000Y-3050000D02*
X23000000Y-3050000D01*
X23204000Y-2746000D02*
X23204000Y-2846000D01*
X23154000Y-2796000D02*
X23254000Y-2796000D01*
X23204000Y-3000000D02*
X23204000Y-3100000D01*
X23154000Y-3050000D02*
X23254000Y-3050000D01*
X23458000Y-2746000D02*
X23458000Y-2846000D01*
X23408000Y-2796000D02*
X23508000Y-2796000D01*
X23458000Y-3000000D02*
X23458000Y-3100000D01*
X23408000Y-3050000D02*
X23508000Y-3050000D01*
D12*
X4991872Y-2106872D02*
X4991872Y-1983128D01*
X4868128Y-1983128D01*
X4868128Y-2106872D01*
X4991872Y-2106872D01*
X4991872Y-2906872D02*
X4991872Y-2783128D01*
X4868128Y-2783128D01*
X4868128Y-2906872D01*
X4991872Y-2906872D01*
X5191872Y-2506872D02*
X5191872Y-2383128D01*
X5068128Y-2383128D01*
X5068128Y-2506872D01*
X5191872Y-2506872D01*
X5391872Y-2106872D02*
X5391872Y-1983128D01*
X5268128Y-1983128D01*
X5268128Y-2106872D01*
X5391872Y-2106872D01*
X5391872Y-2906872D02*
X5391872Y-2783128D01*
X5268128Y-2783128D01*
X5268128Y-2906872D01*
X5391872Y-2906872D01*
X5591872Y-2506872D02*
X5591872Y-2383128D01*
X5468128Y-2383128D01*
X5468128Y-2506872D01*
X5591872Y-2506872D01*
X5791872Y-2106872D02*
X5791872Y-1983128D01*
X5668128Y-1983128D01*
X5668128Y-2106872D01*
X5791872Y-2106872D01*
X5791872Y-2906872D02*
X5791872Y-2783128D01*
X5668128Y-2783128D01*
X5668128Y-2906872D01*
X5791872Y-2906872D01*
X5991872Y-2506872D02*
X5991872Y-2383128D01*
X5868128Y-2383128D01*
X5868128Y-2506872D01*
X5991872Y-2506872D01*
X6191872Y-2106872D02*
X6191872Y-1983128D01*
X6068128Y-1983128D01*
X6068128Y-2106872D01*
X6191872Y-2106872D01*
X6191872Y-2906872D02*
X6191872Y-2783128D01*
X6068128Y-2783128D01*
X6068128Y-2906872D01*
X6191872Y-2906872D01*
X6391872Y-2506872D02*
X6391872Y-2383128D01*
X6268128Y-2383128D01*
X6268128Y-2506872D01*
X6391872Y-2506872D01*
X6591872Y-2106872D02*
X6591872Y-1983128D01*
X6468128Y-1983128D01*
X6468128Y-2106872D01*
X6591872Y-2106872D01*
X6591872Y-2906872D02*
X6591872Y-2783128D01*
X6468128Y-2783128D01*
X6468128Y-2906872D01*
X6591872Y-2906872D01*
X6791872Y-2506872D02*
X6791872Y-2383128D01*
X6668128Y-2383128D01*
X6668128Y-2506872D01*
X6791872Y-2506872D01*
X6991872Y-2106872D02*
X6991872Y-1983128D01*
X6868128Y-1983128D01*
X6868128Y-2106872D01*
X6991872Y-2106872D01*
X6991872Y-2906872D02*
X6991872Y-2783128D01*
X6868128Y-2783128D01*
X6868128Y-2906872D01*
X6991872Y-2906872D01*
X7191872Y-2506872D02*
X7191872Y-2383128D01*
X7068128Y-2383128D01*
X7068128Y-2506872D01*
X7191872Y-2506872D01*
X7391872Y-2106872D02*
X7391872Y-1983128D01*
X7268128Y-1983128D01*
X7268128Y-2106872D01*
X7391872Y-2106872D01*
X7391872Y-2906872D02*
X7391872Y-2783128D01*
X7268128Y-2783128D01*
X7268128Y-2906872D01*
X7391872Y-2906872D01*
X7591872Y-2506872D02*
X7591872Y-2383128D01*
X7468128Y-2383128D01*
X7468128Y-2506872D01*
X7591872Y-2506872D01*
X7791872Y-2106872D02*
X7791872Y-1983128D01*
X7668128Y-1983128D01*
X7668128Y-2106872D01*
X7791872Y-2106872D01*
X7791872Y-2906872D02*
X7791872Y-2783128D01*
X7668128Y-2783128D01*
X7668128Y-2906872D01*
X7791872Y-2906872D01*
X25731872Y-2111872D02*
X25731872Y-1988128D01*
X25608128Y-1988128D01*
X25608128Y-2111872D01*
X25731872Y-2111872D01*
X25731872Y-2911872D02*
X25731872Y-2788128D01*
X25608128Y-2788128D01*
X25608128Y-2911872D01*
X25731872Y-2911872D01*
X25731872Y-11211872D02*
X25731872Y-11088128D01*
X25608128Y-11088128D01*
X25608128Y-11211872D01*
X25731872Y-11211872D01*
X25731872Y-12011872D02*
X25731872Y-11888128D01*
X25608128Y-11888128D01*
X25608128Y-12011872D01*
X25731872Y-12011872D01*
X25931872Y-2511872D02*
X25931872Y-2388128D01*
X25808128Y-2388128D01*
X25808128Y-2511872D01*
X25931872Y-2511872D01*
X25931872Y-11611872D02*
X25931872Y-11488128D01*
X25808128Y-11488128D01*
X25808128Y-11611872D01*
X25931872Y-11611872D01*
X26131872Y-2111872D02*
X26131872Y-1988128D01*
X26008128Y-1988128D01*
X26008128Y-2111872D01*
X26131872Y-2111872D01*
X26131872Y-2911872D02*
X26131872Y-2788128D01*
X26008128Y-2788128D01*
X26008128Y-2911872D01*
X26131872Y-2911872D01*
X26131872Y-11211872D02*
X26131872Y-11088128D01*
X26008128Y-11088128D01*
X26008128Y-11211872D01*
X26131872Y-11211872D01*
X26131872Y-12011872D02*
X26131872Y-11888128D01*
X26008128Y-11888128D01*
X26008128Y-12011872D01*
X26131872Y-12011872D01*
X26331872Y-2511872D02*
X26331872Y-2388128D01*
X26208128Y-2388128D01*
X26208128Y-2511872D01*
X26331872Y-2511872D01*
X26331872Y-11611872D02*
X26331872Y-11488128D01*
X26208128Y-11488128D01*
X26208128Y-11611872D01*
X26331872Y-11611872D01*
X26531872Y-2111872D02*
X26531872Y-1988128D01*
X26408128Y-1988128D01*
X26408128Y-2111872D01*
X26531872Y-2111872D01*
X26531872Y-2911872D02*
X26531872Y-2788128D01*
X26408128Y-2788128D01*
X26408128Y-2911872D01*
X26531872Y-2911872D01*
X26531872Y-11211872D02*
X26531872Y-11088128D01*
X26408128Y-11088128D01*
X26408128Y-11211872D01*
X26531872Y-11211872D01*
X26531872Y-12011872D02*
X26531872Y-11888128D01*
X26408128Y-11888128D01*
X26408128Y-12011872D01*
X26531872Y-12011872D01*
X26731872Y-2511872D02*
X26731872Y-2388128D01*
X26608128Y-2388128D01*
X26608128Y-2511872D01*
X26731872Y-2511872D01*
X26731872Y-11611872D02*
X26731872Y-11488128D01*
X26608128Y-11488128D01*
X26608128Y-11611872D01*
X26731872Y-11611872D01*
X26931872Y-2111872D02*
X26931872Y-1988128D01*
X26808128Y-1988128D01*
X26808128Y-2111872D01*
X26931872Y-2111872D01*
X26931872Y-2911872D02*
X26931872Y-2788128D01*
X26808128Y-2788128D01*
X26808128Y-2911872D01*
X26931872Y-2911872D01*
X26931872Y-11211872D02*
X26931872Y-11088128D01*
X26808128Y-11088128D01*
X26808128Y-11211872D01*
X26931872Y-11211872D01*
X26931872Y-12011872D02*
X26931872Y-11888128D01*
X26808128Y-11888128D01*
X26808128Y-12011872D01*
X26931872Y-12011872D01*
X27131872Y-2511872D02*
X27131872Y-2388128D01*
X27008128Y-2388128D01*
X27008128Y-2511872D01*
X27131872Y-2511872D01*
X27131872Y-11611872D02*
X27131872Y-11488128D01*
X27008128Y-11488128D01*
X27008128Y-11611872D01*
X27131872Y-11611872D01*
X27331872Y-2111872D02*
X27331872Y-1988128D01*
X27208128Y-1988128D01*
X27208128Y-2111872D01*
X27331872Y-2111872D01*
X27331872Y-2911872D02*
X27331872Y-2788128D01*
X27208128Y-2788128D01*
X27208128Y-2911872D01*
X27331872Y-2911872D01*
X27331872Y-11211872D02*
X27331872Y-11088128D01*
X27208128Y-11088128D01*
X27208128Y-11211872D01*
X27331872Y-11211872D01*
X27331872Y-12011872D02*
X27331872Y-11888128D01*
X27208128Y-11888128D01*
X27208128Y-12011872D01*
X27331872Y-12011872D01*
X27531872Y-2511872D02*
X27531872Y-2388128D01*
X27408128Y-2388128D01*
X27408128Y-2511872D01*
X27531872Y-2511872D01*
X27531872Y-11611872D02*
X27531872Y-11488128D01*
X27408128Y-11488128D01*
X27408128Y-11611872D01*
X27531872Y-11611872D01*
X27731872Y-2111872D02*
X27731872Y-1988128D01*
X27608128Y-1988128D01*
X27608128Y-2111872D01*
X27731872Y-2111872D01*
X27731872Y-2911872D02*
X27731872Y-2788128D01*
X27608128Y-2788128D01*
X27608128Y-2911872D01*
X27731872Y-2911872D01*
X27731872Y-11211872D02*
X27731872Y-11088128D01*
X27608128Y-11088128D01*
X27608128Y-11211872D01*
X27731872Y-11211872D01*
X27731872Y-12011872D02*
X27731872Y-11888128D01*
X27608128Y-11888128D01*
X27608128Y-12011872D01*
X27731872Y-12011872D01*
X27931872Y-2511872D02*
X27931872Y-2388128D01*
X27808128Y-2388128D01*
X27808128Y-2511872D01*
X27931872Y-2511872D01*
X27931872Y-11611872D02*
X27931872Y-11488128D01*
X27808128Y-11488128D01*
X27808128Y-11611872D01*
X27931872Y-11611872D01*
X28131872Y-2111872D02*
X28131872Y-1988128D01*
X28008128Y-1988128D01*
X28008128Y-2111872D01*
X28131872Y-2111872D01*
X28131872Y-2911872D02*
X28131872Y-2788128D01*
X28008128Y-2788128D01*
X28008128Y-2911872D01*
X28131872Y-2911872D01*
X28131872Y-11211872D02*
X28131872Y-11088128D01*
X28008128Y-11088128D01*
X28008128Y-11211872D01*
X28131872Y-11211872D01*
X28131872Y-12011872D02*
X28131872Y-11888128D01*
X28008128Y-11888128D01*
X28008128Y-12011872D01*
X28131872Y-12011872D01*
X28331872Y-2511872D02*
X28331872Y-2388128D01*
X28208128Y-2388128D01*
X28208128Y-2511872D01*
X28331872Y-2511872D01*
X28331872Y-11611872D02*
X28331872Y-11488128D01*
X28208128Y-11488128D01*
X28208128Y-11611872D01*
X28331872Y-11611872D01*
X28531872Y-2111872D02*
X28531872Y-1988128D01*
X28408128Y-1988128D01*
X28408128Y-2111872D01*
X28531872Y-2111872D01*
X28531872Y-2911872D02*
X28531872Y-2788128D01*
X28408128Y-2788128D01*
X28408128Y-2911872D01*
X28531872Y-2911872D01*
X28531872Y-11211872D02*
X28531872Y-11088128D01*
X28408128Y-11088128D01*
X28408128Y-11211872D01*
X28531872Y-11211872D01*
X28531872Y-12011872D02*
X28531872Y-11888128D01*
X28408128Y-11888128D01*
X28408128Y-12011872D01*
X28531872Y-12011872D01*
D13*
X12643333Y-2147500D02*
X12735833Y-2055000D01*
X12643333Y-1962500D01*
X12550833Y-2055000D01*
X12643333Y-2147500D01*
X12643333Y-2947500D02*
X12735833Y-2855000D01*
X12643333Y-2762500D01*
X12550833Y-2855000D01*
X12643333Y-2947500D01*
X12843333Y-2547500D02*
X12935833Y-2455000D01*
X12843333Y-2362500D01*
X12750833Y-2455000D01*
X12843333Y-2547500D01*
X13043333Y-2147500D02*
X13135833Y-2055000D01*
X13043333Y-1962500D01*
X12950833Y-2055000D01*
X13043333Y-2147500D01*
X13043333Y-2947500D02*
X13135833Y-2855000D01*
X13043333Y-2762500D01*
X12950833Y-2855000D01*
X13043333Y-2947500D01*
X13243333Y-2547500D02*
X13335833Y-2455000D01*
X13243333Y-2362500D01*
X13150833Y-2455000D01*
X13243333Y-2547500D01*
X13443333Y-2147500D02*
X13535833Y-2055000D01*
X13443333Y-1962500D01*
X13350833Y-2055000D01*
X13443333Y-2147500D01*
X13443333Y-2947500D02*
X13535833Y-2855000D01*
X13443333Y-2762500D01*
X13350833Y-2855000D01*
X13443333Y-2947500D01*
X13643333Y-2547500D02*
X13735833Y-2455000D01*
X13643333Y-2362500D01*
X13550833Y-2455000D01*
X13643333Y-2547500D01*
X13843333Y-2147500D02*
X13935833Y-2055000D01*
X13843333Y-1962500D01*
X13750833Y-2055000D01*
X13843333Y-2147500D01*
X13843333Y-2947500D02*
X13935833Y-2855000D01*
X13843333Y-2762500D01*
X13750833Y-2855000D01*
X13843333Y-2947500D01*
X14043333Y-2547500D02*
X14135833Y-2455000D01*
X14043333Y-2362500D01*
X13950833Y-2455000D01*
X14043333Y-2547500D01*
X14243333Y-2147500D02*
X14335833Y-2055000D01*
X14243333Y-1962500D01*
X14150833Y-2055000D01*
X14243333Y-2147500D01*
X14243333Y-2947500D02*
X14335833Y-2855000D01*
X14243333Y-2762500D01*
X14150833Y-2855000D01*
X14243333Y-2947500D01*
X19156667Y-2147500D02*
X19249167Y-2055000D01*
X19156667Y-1962500D01*
X19064167Y-2055000D01*
X19156667Y-2147500D01*
X19156667Y-2947500D02*
X19249167Y-2855000D01*
X19156667Y-2762500D01*
X19064167Y-2855000D01*
X19156667Y-2947500D01*
X19356667Y-2547500D02*
X19449167Y-2455000D01*
X19356667Y-2362500D01*
X19264167Y-2455000D01*
X19356667Y-2547500D01*
X19556667Y-2147500D02*
X19649167Y-2055000D01*
X19556667Y-1962500D01*
X19464167Y-2055000D01*
X19556667Y-2147500D01*
X19556667Y-2947500D02*
X19649167Y-2855000D01*
X19556667Y-2762500D01*
X19464167Y-2855000D01*
X19556667Y-2947500D01*
X19756667Y-2547500D02*
X19849167Y-2455000D01*
X19756667Y-2362500D01*
X19664167Y-2455000D01*
X19756667Y-2547500D01*
X19956667Y-2147500D02*
X20049167Y-2055000D01*
X19956667Y-1962500D01*
X19864167Y-2055000D01*
X19956667Y-2147500D01*
X19956667Y-2947500D02*
X20049167Y-2855000D01*
X19956667Y-2762500D01*
X19864167Y-2855000D01*
X19956667Y-2947500D01*
X20156667Y-2547500D02*
X20249167Y-2455000D01*
X20156667Y-2362500D01*
X20064167Y-2455000D01*
X20156667Y-2547500D01*
X20356667Y-2147500D02*
X20449167Y-2055000D01*
X20356667Y-1962500D01*
X20264167Y-2055000D01*
X20356667Y-2147500D01*
X20356667Y-2947500D02*
X20449167Y-2855000D01*
X20356667Y-2762500D01*
X20264167Y-2855000D01*
X20356667Y-2947500D01*
X20556667Y-2547500D02*
X20649167Y-2455000D01*
X20556667Y-2362500D01*
X20464167Y-2455000D01*
X20556667Y-2547500D01*
X20756667Y-2147500D02*
X20849167Y-2055000D01*
X20756667Y-1962500D01*
X20664167Y-2055000D01*
X20756667Y-2147500D01*
X20756667Y-2947500D02*
X20849167Y-2855000D01*
X20756667Y-2762500D01*
X20664167Y-2855000D01*
X20756667Y-2947500D01*
D11*
X1755777Y-12816484D02*
X1755777Y-12616484D01*
X1755777Y-12616484D02*
X1803396Y-12616484D01*
X1803396Y-12616484D02*
X1831967Y-12626008D01*
X1831967Y-12626008D02*
X1851015Y-12645055D01*
X1851015Y-12645055D02*
X1860539Y-12664103D01*
X1860539Y-12664103D02*
X1870062Y-12702198D01*
X1870062Y-12702198D02*
X1870062Y-12730769D01*
X1870062Y-12730769D02*
X1860539Y-12768865D01*
X1860539Y-12768865D02*
X1851015Y-12787912D01*
X1851015Y-12787912D02*
X1831967Y-12806960D01*
X1831967Y-12806960D02*
X1803396Y-12816484D01*
X1803396Y-12816484D02*
X1755777Y-12816484D01*
X1955777Y-12816484D02*
X1955777Y-12683150D01*
X1955777Y-12721246D02*
X1965301Y-12702198D01*
X1965301Y-12702198D02*
X1974824Y-12692674D01*
X1974824Y-12692674D02*
X1993872Y-12683150D01*
X1993872Y-12683150D02*
X2012920Y-12683150D01*
X2079586Y-12816484D02*
X2079586Y-12683150D01*
X2079586Y-12616484D02*
X2070062Y-12626008D01*
X2070062Y-12626008D02*
X2079586Y-12635531D01*
X2079586Y-12635531D02*
X2089110Y-12626008D01*
X2089110Y-12626008D02*
X2079586Y-12616484D01*
X2079586Y-12616484D02*
X2079586Y-12635531D01*
X2203396Y-12816484D02*
X2184348Y-12806960D01*
X2184348Y-12806960D02*
X2174824Y-12787912D01*
X2174824Y-12787912D02*
X2174824Y-12616484D01*
X2308158Y-12816484D02*
X2289110Y-12806960D01*
X2289110Y-12806960D02*
X2279586Y-12787912D01*
X2279586Y-12787912D02*
X2279586Y-12616484D01*
X2536729Y-12816484D02*
X2536729Y-12616484D01*
X2536729Y-12616484D02*
X2603396Y-12759341D01*
X2603396Y-12759341D02*
X2670063Y-12616484D01*
X2670063Y-12616484D02*
X2670063Y-12816484D01*
X2851015Y-12816484D02*
X2851015Y-12711722D01*
X2851015Y-12711722D02*
X2841491Y-12692674D01*
X2841491Y-12692674D02*
X2822443Y-12683150D01*
X2822443Y-12683150D02*
X2784348Y-12683150D01*
X2784348Y-12683150D02*
X2765301Y-12692674D01*
X2851015Y-12806960D02*
X2831967Y-12816484D01*
X2831967Y-12816484D02*
X2784348Y-12816484D01*
X2784348Y-12816484D02*
X2765301Y-12806960D01*
X2765301Y-12806960D02*
X2755777Y-12787912D01*
X2755777Y-12787912D02*
X2755777Y-12768865D01*
X2755777Y-12768865D02*
X2765301Y-12749817D01*
X2765301Y-12749817D02*
X2784348Y-12740293D01*
X2784348Y-12740293D02*
X2831967Y-12740293D01*
X2831967Y-12740293D02*
X2851015Y-12730769D01*
X2946253Y-12683150D02*
X2946253Y-12883150D01*
X2946253Y-12692674D02*
X2965301Y-12683150D01*
X2965301Y-12683150D02*
X3003396Y-12683150D01*
X3003396Y-12683150D02*
X3022443Y-12692674D01*
X3022443Y-12692674D02*
X3031967Y-12702198D01*
X3031967Y-12702198D02*
X3041491Y-12721246D01*
X3041491Y-12721246D02*
X3041491Y-12778388D01*
X3041491Y-12778388D02*
X3031967Y-12797436D01*
X3031967Y-12797436D02*
X3022443Y-12806960D01*
X3022443Y-12806960D02*
X3003396Y-12816484D01*
X3003396Y-12816484D02*
X2965301Y-12816484D01*
X2965301Y-12816484D02*
X2946253Y-12806960D01*
X3127205Y-12797436D02*
X3136729Y-12806960D01*
X3136729Y-12806960D02*
X3127205Y-12816484D01*
X3127205Y-12816484D02*
X3117682Y-12806960D01*
X3117682Y-12806960D02*
X3127205Y-12797436D01*
X3127205Y-12797436D02*
X3127205Y-12816484D01*
X3127205Y-12692674D02*
X3136729Y-12702198D01*
X3136729Y-12702198D02*
X3127205Y-12711722D01*
X3127205Y-12711722D02*
X3117682Y-12702198D01*
X3117682Y-12702198D02*
X3127205Y-12692674D01*
X3127205Y-12692674D02*
X3127205Y-12711722D01*
D10*
X1464520Y-13129760D02*
X1495000Y-13160240D01*
X1495000Y-13129760D02*
X1464520Y-13160240D01*
D11*
X1793872Y-13036484D02*
X1812920Y-13036484D01*
X1812920Y-13036484D02*
X1831967Y-13046008D01*
X1831967Y-13046008D02*
X1841491Y-13055531D01*
X1841491Y-13055531D02*
X1851015Y-13074579D01*
X1851015Y-13074579D02*
X1860539Y-13112674D01*
X1860539Y-13112674D02*
X1860539Y-13160293D01*
X1860539Y-13160293D02*
X1851015Y-13198388D01*
X1851015Y-13198388D02*
X1841491Y-13217436D01*
X1841491Y-13217436D02*
X1831967Y-13226960D01*
X1831967Y-13226960D02*
X1812920Y-13236484D01*
X1812920Y-13236484D02*
X1793872Y-13236484D01*
X1793872Y-13236484D02*
X1774824Y-13226960D01*
X1774824Y-13226960D02*
X1765301Y-13217436D01*
X1765301Y-13217436D02*
X1755777Y-13198388D01*
X1755777Y-13198388D02*
X1746253Y-13160293D01*
X1746253Y-13160293D02*
X1746253Y-13112674D01*
X1746253Y-13112674D02*
X1755777Y-13074579D01*
X1755777Y-13074579D02*
X1765301Y-13055531D01*
X1765301Y-13055531D02*
X1774824Y-13046008D01*
X1774824Y-13046008D02*
X1793872Y-13036484D01*
X1946253Y-13217436D02*
X1955777Y-13226960D01*
X1955777Y-13226960D02*
X1946253Y-13236484D01*
X1946253Y-13236484D02*
X1936729Y-13226960D01*
X1936729Y-13226960D02*
X1946253Y-13217436D01*
X1946253Y-13217436D02*
X1946253Y-13236484D01*
X2022443Y-13036484D02*
X2146253Y-13036484D01*
X2146253Y-13036484D02*
X2079586Y-13112674D01*
X2079586Y-13112674D02*
X2108158Y-13112674D01*
X2108158Y-13112674D02*
X2127205Y-13122198D01*
X2127205Y-13122198D02*
X2136729Y-13131722D01*
X2136729Y-13131722D02*
X2146253Y-13150769D01*
X2146253Y-13150769D02*
X2146253Y-13198388D01*
X2146253Y-13198388D02*
X2136729Y-13217436D01*
X2136729Y-13217436D02*
X2127205Y-13226960D01*
X2127205Y-13226960D02*
X2108158Y-13236484D01*
X2108158Y-13236484D02*
X2051015Y-13236484D01*
X2051015Y-13236484D02*
X2031967Y-13226960D01*
X2031967Y-13226960D02*
X2022443Y-13217436D01*
X2270063Y-13036484D02*
X2289110Y-13036484D01*
X2289110Y-13036484D02*
X2308158Y-13046008D01*
X2308158Y-13046008D02*
X2317682Y-13055531D01*
X2317682Y-13055531D02*
X2327205Y-13074579D01*
X2327205Y-13074579D02*
X2336729Y-13112674D01*
X2336729Y-13112674D02*
X2336729Y-13160293D01*
X2336729Y-13160293D02*
X2327205Y-13198388D01*
X2327205Y-13198388D02*
X2317682Y-13217436D01*
X2317682Y-13217436D02*
X2308158Y-13226960D01*
X2308158Y-13226960D02*
X2289110Y-13236484D01*
X2289110Y-13236484D02*
X2270063Y-13236484D01*
X2270063Y-13236484D02*
X2251015Y-13226960D01*
X2251015Y-13226960D02*
X2241491Y-13217436D01*
X2241491Y-13217436D02*
X2231967Y-13198388D01*
X2231967Y-13198388D02*
X2222444Y-13160293D01*
X2222444Y-13160293D02*
X2222444Y-13112674D01*
X2222444Y-13112674D02*
X2231967Y-13074579D01*
X2231967Y-13074579D02*
X2241491Y-13055531D01*
X2241491Y-13055531D02*
X2251015Y-13046008D01*
X2251015Y-13046008D02*
X2270063Y-13036484D01*
X2517682Y-13036484D02*
X2422444Y-13036484D01*
X2422444Y-13036484D02*
X2412920Y-13131722D01*
X2412920Y-13131722D02*
X2422444Y-13122198D01*
X2422444Y-13122198D02*
X2441491Y-13112674D01*
X2441491Y-13112674D02*
X2489110Y-13112674D01*
X2489110Y-13112674D02*
X2508158Y-13122198D01*
X2508158Y-13122198D02*
X2517682Y-13131722D01*
X2517682Y-13131722D02*
X2527205Y-13150769D01*
X2527205Y-13150769D02*
X2527205Y-13198388D01*
X2527205Y-13198388D02*
X2517682Y-13217436D01*
X2517682Y-13217436D02*
X2508158Y-13226960D01*
X2508158Y-13226960D02*
X2489110Y-13236484D01*
X2489110Y-13236484D02*
X2441491Y-13236484D01*
X2441491Y-13236484D02*
X2422444Y-13226960D01*
X2422444Y-13226960D02*
X2412920Y-13217436D01*
X2612920Y-13236484D02*
X2612920Y-13103150D01*
X2612920Y-13122198D02*
X2622444Y-13112674D01*
X2622444Y-13112674D02*
X2641491Y-13103150D01*
X2641491Y-13103150D02*
X2670063Y-13103150D01*
X2670063Y-13103150D02*
X2689110Y-13112674D01*
X2689110Y-13112674D02*
X2698634Y-13131722D01*
X2698634Y-13131722D02*
X2698634Y-13236484D01*
X2698634Y-13131722D02*
X2708158Y-13112674D01*
X2708158Y-13112674D02*
X2727205Y-13103150D01*
X2727205Y-13103150D02*
X2755777Y-13103150D01*
X2755777Y-13103150D02*
X2774825Y-13112674D01*
X2774825Y-13112674D02*
X2784348Y-13131722D01*
X2784348Y-13131722D02*
X2784348Y-13236484D01*
X2879586Y-13236484D02*
X2879586Y-13103150D01*
X2879586Y-13122198D02*
X2889110Y-13112674D01*
X2889110Y-13112674D02*
X2908158Y-13103150D01*
X2908158Y-13103150D02*
X2936729Y-13103150D01*
X2936729Y-13103150D02*
X2955777Y-13112674D01*
X2955777Y-13112674D02*
X2965301Y-13131722D01*
X2965301Y-13131722D02*
X2965301Y-13236484D01*
X2965301Y-13131722D02*
X2974824Y-13112674D01*
X2974824Y-13112674D02*
X2993872Y-13103150D01*
X2993872Y-13103150D02*
X3022443Y-13103150D01*
X3022443Y-13103150D02*
X3041491Y-13112674D01*
X3041491Y-13112674D02*
X3051015Y-13131722D01*
X3051015Y-13131722D02*
X3051015Y-13236484D01*
X3441491Y-13026960D02*
X3270063Y-13284103D01*
X3698634Y-13036484D02*
X3717682Y-13036484D01*
X3717682Y-13036484D02*
X3736729Y-13046008D01*
X3736729Y-13046008D02*
X3746253Y-13055531D01*
X3746253Y-13055531D02*
X3755777Y-13074579D01*
X3755777Y-13074579D02*
X3765301Y-13112674D01*
X3765301Y-13112674D02*
X3765301Y-13160293D01*
X3765301Y-13160293D02*
X3755777Y-13198388D01*
X3755777Y-13198388D02*
X3746253Y-13217436D01*
X3746253Y-13217436D02*
X3736729Y-13226960D01*
X3736729Y-13226960D02*
X3717682Y-13236484D01*
X3717682Y-13236484D02*
X3698634Y-13236484D01*
X3698634Y-13236484D02*
X3679586Y-13226960D01*
X3679586Y-13226960D02*
X3670063Y-13217436D01*
X3670063Y-13217436D02*
X3660539Y-13198388D01*
X3660539Y-13198388D02*
X3651015Y-13160293D01*
X3651015Y-13160293D02*
X3651015Y-13112674D01*
X3651015Y-13112674D02*
X3660539Y-13074579D01*
X3660539Y-13074579D02*
X3670063Y-13055531D01*
X3670063Y-13055531D02*
X3679586Y-13046008D01*
X3679586Y-13046008D02*
X3698634Y-13036484D01*
X3851015Y-13217436D02*
X3860539Y-13226960D01*
X3860539Y-13226960D02*
X3851015Y-13236484D01*
X3851015Y-13236484D02*
X3841491Y-13226960D01*
X3841491Y-13226960D02*
X3851015Y-13217436D01*
X3851015Y-13217436D02*
X3851015Y-13236484D01*
X3984348Y-13036484D02*
X4003396Y-13036484D01*
X4003396Y-13036484D02*
X4022444Y-13046008D01*
X4022444Y-13046008D02*
X4031967Y-13055531D01*
X4031967Y-13055531D02*
X4041491Y-13074579D01*
X4041491Y-13074579D02*
X4051015Y-13112674D01*
X4051015Y-13112674D02*
X4051015Y-13160293D01*
X4051015Y-13160293D02*
X4041491Y-13198388D01*
X4041491Y-13198388D02*
X4031967Y-13217436D01*
X4031967Y-13217436D02*
X4022444Y-13226960D01*
X4022444Y-13226960D02*
X4003396Y-13236484D01*
X4003396Y-13236484D02*
X3984348Y-13236484D01*
X3984348Y-13236484D02*
X3965301Y-13226960D01*
X3965301Y-13226960D02*
X3955777Y-13217436D01*
X3955777Y-13217436D02*
X3946253Y-13198388D01*
X3946253Y-13198388D02*
X3936729Y-13160293D01*
X3936729Y-13160293D02*
X3936729Y-13112674D01*
X3936729Y-13112674D02*
X3946253Y-13074579D01*
X3946253Y-13074579D02*
X3955777Y-13055531D01*
X3955777Y-13055531D02*
X3965301Y-13046008D01*
X3965301Y-13046008D02*
X3984348Y-13036484D01*
X4241491Y-13236484D02*
X4127206Y-13236484D01*
X4184348Y-13236484D02*
X4184348Y-13036484D01*
X4184348Y-13036484D02*
X4165301Y-13065055D01*
X4165301Y-13065055D02*
X4146253Y-13084103D01*
X4146253Y-13084103D02*
X4127206Y-13093627D01*
X4317682Y-13055531D02*
X4327206Y-13046008D01*
X4327206Y-13046008D02*
X4346253Y-13036484D01*
X4346253Y-13036484D02*
X4393872Y-13036484D01*
X4393872Y-13036484D02*
X4412920Y-13046008D01*
X4412920Y-13046008D02*
X4422444Y-13055531D01*
X4422444Y-13055531D02*
X4431968Y-13074579D01*
X4431968Y-13074579D02*
X4431968Y-13093627D01*
X4431968Y-13093627D02*
X4422444Y-13122198D01*
X4422444Y-13122198D02*
X4308158Y-13236484D01*
X4308158Y-13236484D02*
X4431968Y-13236484D01*
X4555777Y-13036484D02*
X4574825Y-13036484D01*
X4574825Y-13036484D02*
X4593872Y-13046008D01*
X4593872Y-13046008D02*
X4603396Y-13055531D01*
X4603396Y-13055531D02*
X4612920Y-13074579D01*
X4612920Y-13074579D02*
X4622444Y-13112674D01*
X4622444Y-13112674D02*
X4622444Y-13160293D01*
X4622444Y-13160293D02*
X4612920Y-13198388D01*
X4612920Y-13198388D02*
X4603396Y-13217436D01*
X4603396Y-13217436D02*
X4593872Y-13226960D01*
X4593872Y-13226960D02*
X4574825Y-13236484D01*
X4574825Y-13236484D02*
X4555777Y-13236484D01*
X4555777Y-13236484D02*
X4536729Y-13226960D01*
X4536729Y-13226960D02*
X4527206Y-13217436D01*
X4527206Y-13217436D02*
X4517682Y-13198388D01*
X4517682Y-13198388D02*
X4508158Y-13160293D01*
X4508158Y-13160293D02*
X4508158Y-13112674D01*
X4508158Y-13112674D02*
X4517682Y-13074579D01*
X4517682Y-13074579D02*
X4527206Y-13055531D01*
X4527206Y-13055531D02*
X4536729Y-13046008D01*
X4536729Y-13046008D02*
X4555777Y-13036484D01*
X4698634Y-13036484D02*
X4698634Y-13074579D01*
X4774825Y-13036484D02*
X4774825Y-13074579D01*
X5070063Y-13312674D02*
X5060539Y-13303150D01*
X5060539Y-13303150D02*
X5041491Y-13274579D01*
X5041491Y-13274579D02*
X5031968Y-13255531D01*
X5031968Y-13255531D02*
X5022444Y-13226960D01*
X5022444Y-13226960D02*
X5012920Y-13179341D01*
X5012920Y-13179341D02*
X5012920Y-13141246D01*
X5012920Y-13141246D02*
X5022444Y-13093627D01*
X5022444Y-13093627D02*
X5031968Y-13065055D01*
X5031968Y-13065055D02*
X5041491Y-13046008D01*
X5041491Y-13046008D02*
X5060539Y-13017436D01*
X5060539Y-13017436D02*
X5070063Y-13007912D01*
X5127206Y-13036484D02*
X5251015Y-13036484D01*
X5251015Y-13036484D02*
X5184349Y-13112674D01*
X5184349Y-13112674D02*
X5212920Y-13112674D01*
X5212920Y-13112674D02*
X5231968Y-13122198D01*
X5231968Y-13122198D02*
X5241491Y-13131722D01*
X5241491Y-13131722D02*
X5251015Y-13150769D01*
X5251015Y-13150769D02*
X5251015Y-13198388D01*
X5251015Y-13198388D02*
X5241491Y-13217436D01*
X5241491Y-13217436D02*
X5231968Y-13226960D01*
X5231968Y-13226960D02*
X5212920Y-13236484D01*
X5212920Y-13236484D02*
X5155777Y-13236484D01*
X5155777Y-13236484D02*
X5136730Y-13226960D01*
X5136730Y-13226960D02*
X5127206Y-13217436D01*
X5346253Y-13236484D02*
X5384349Y-13236484D01*
X5384349Y-13236484D02*
X5403396Y-13226960D01*
X5403396Y-13226960D02*
X5412920Y-13217436D01*
X5412920Y-13217436D02*
X5431968Y-13188865D01*
X5431968Y-13188865D02*
X5441491Y-13150769D01*
X5441491Y-13150769D02*
X5441491Y-13074579D01*
X5441491Y-13074579D02*
X5431968Y-13055531D01*
X5431968Y-13055531D02*
X5422444Y-13046008D01*
X5422444Y-13046008D02*
X5403396Y-13036484D01*
X5403396Y-13036484D02*
X5365301Y-13036484D01*
X5365301Y-13036484D02*
X5346253Y-13046008D01*
X5346253Y-13046008D02*
X5336730Y-13055531D01*
X5336730Y-13055531D02*
X5327206Y-13074579D01*
X5327206Y-13074579D02*
X5327206Y-13122198D01*
X5327206Y-13122198D02*
X5336730Y-13141246D01*
X5336730Y-13141246D02*
X5346253Y-13150769D01*
X5346253Y-13150769D02*
X5365301Y-13160293D01*
X5365301Y-13160293D02*
X5403396Y-13160293D01*
X5403396Y-13160293D02*
X5422444Y-13150769D01*
X5422444Y-13150769D02*
X5431968Y-13141246D01*
X5431968Y-13141246D02*
X5441491Y-13122198D01*
X5508158Y-13036484D02*
X5631968Y-13036484D01*
X5631968Y-13036484D02*
X5565301Y-13112674D01*
X5565301Y-13112674D02*
X5593872Y-13112674D01*
X5593872Y-13112674D02*
X5612920Y-13122198D01*
X5612920Y-13122198D02*
X5622444Y-13131722D01*
X5622444Y-13131722D02*
X5631968Y-13150769D01*
X5631968Y-13150769D02*
X5631968Y-13198388D01*
X5631968Y-13198388D02*
X5622444Y-13217436D01*
X5622444Y-13217436D02*
X5612920Y-13226960D01*
X5612920Y-13226960D02*
X5593872Y-13236484D01*
X5593872Y-13236484D02*
X5536730Y-13236484D01*
X5536730Y-13236484D02*
X5517682Y-13226960D01*
X5517682Y-13226960D02*
X5508158Y-13217436D01*
X5870063Y-13236484D02*
X5870063Y-13036484D01*
X5955777Y-13236484D02*
X5955777Y-13131722D01*
X5955777Y-13131722D02*
X5946253Y-13112674D01*
X5946253Y-13112674D02*
X5927206Y-13103150D01*
X5927206Y-13103150D02*
X5898634Y-13103150D01*
X5898634Y-13103150D02*
X5879587Y-13112674D01*
X5879587Y-13112674D02*
X5870063Y-13122198D01*
X6079587Y-13236484D02*
X6060539Y-13226960D01*
X6060539Y-13226960D02*
X6051015Y-13217436D01*
X6051015Y-13217436D02*
X6041491Y-13198388D01*
X6041491Y-13198388D02*
X6041491Y-13141246D01*
X6041491Y-13141246D02*
X6051015Y-13122198D01*
X6051015Y-13122198D02*
X6060539Y-13112674D01*
X6060539Y-13112674D02*
X6079587Y-13103150D01*
X6079587Y-13103150D02*
X6108158Y-13103150D01*
X6108158Y-13103150D02*
X6127206Y-13112674D01*
X6127206Y-13112674D02*
X6136730Y-13122198D01*
X6136730Y-13122198D02*
X6146253Y-13141246D01*
X6146253Y-13141246D02*
X6146253Y-13198388D01*
X6146253Y-13198388D02*
X6136730Y-13217436D01*
X6136730Y-13217436D02*
X6127206Y-13226960D01*
X6127206Y-13226960D02*
X6108158Y-13236484D01*
X6108158Y-13236484D02*
X6079587Y-13236484D01*
X6260539Y-13236484D02*
X6241491Y-13226960D01*
X6241491Y-13226960D02*
X6231968Y-13207912D01*
X6231968Y-13207912D02*
X6231968Y-13036484D01*
X6412920Y-13226960D02*
X6393872Y-13236484D01*
X6393872Y-13236484D02*
X6355777Y-13236484D01*
X6355777Y-13236484D02*
X6336730Y-13226960D01*
X6336730Y-13226960D02*
X6327206Y-13207912D01*
X6327206Y-13207912D02*
X6327206Y-13131722D01*
X6327206Y-13131722D02*
X6336730Y-13112674D01*
X6336730Y-13112674D02*
X6355777Y-13103150D01*
X6355777Y-13103150D02*
X6393872Y-13103150D01*
X6393872Y-13103150D02*
X6412920Y-13112674D01*
X6412920Y-13112674D02*
X6422444Y-13131722D01*
X6422444Y-13131722D02*
X6422444Y-13150769D01*
X6422444Y-13150769D02*
X6327206Y-13169817D01*
X6498634Y-13226960D02*
X6517682Y-13236484D01*
X6517682Y-13236484D02*
X6555777Y-13236484D01*
X6555777Y-13236484D02*
X6574825Y-13226960D01*
X6574825Y-13226960D02*
X6584349Y-13207912D01*
X6584349Y-13207912D02*
X6584349Y-13198388D01*
X6584349Y-13198388D02*
X6574825Y-13179341D01*
X6574825Y-13179341D02*
X6555777Y-13169817D01*
X6555777Y-13169817D02*
X6527206Y-13169817D01*
X6527206Y-13169817D02*
X6508158Y-13160293D01*
X6508158Y-13160293D02*
X6498634Y-13141246D01*
X6498634Y-13141246D02*
X6498634Y-13131722D01*
X6498634Y-13131722D02*
X6508158Y-13112674D01*
X6508158Y-13112674D02*
X6527206Y-13103150D01*
X6527206Y-13103150D02*
X6555777Y-13103150D01*
X6555777Y-13103150D02*
X6574825Y-13112674D01*
X6651015Y-13312674D02*
X6660539Y-13303150D01*
X6660539Y-13303150D02*
X6679587Y-13274579D01*
X6679587Y-13274579D02*
X6689111Y-13255531D01*
X6689111Y-13255531D02*
X6698634Y-13226960D01*
X6698634Y-13226960D02*
X6708158Y-13179341D01*
X6708158Y-13179341D02*
X6708158Y-13141246D01*
X6708158Y-13141246D02*
X6698634Y-13093627D01*
X6698634Y-13093627D02*
X6689111Y-13065055D01*
X6689111Y-13065055D02*
X6679587Y-13046008D01*
X6679587Y-13046008D02*
X6660539Y-13017436D01*
X6660539Y-13017436D02*
X6651015Y-13007912D01*
D10*
X1495000Y-13409000D02*
G75*
G02*
X1420000Y-13409000I-37500J0D01*
G01*
X1420000Y-13409000D02*
G75*
G02*
X1495000Y-13409000I37500J0D01*
G01*
D11*
X1793872Y-13300484D02*
X1812920Y-13300484D01*
X1812920Y-13300484D02*
X1831967Y-13310008D01*
X1831967Y-13310008D02*
X1841491Y-13319531D01*
X1841491Y-13319531D02*
X1851015Y-13338579D01*
X1851015Y-13338579D02*
X1860539Y-13376674D01*
X1860539Y-13376674D02*
X1860539Y-13424293D01*
X1860539Y-13424293D02*
X1851015Y-13462388D01*
X1851015Y-13462388D02*
X1841491Y-13481436D01*
X1841491Y-13481436D02*
X1831967Y-13490960D01*
X1831967Y-13490960D02*
X1812920Y-13500484D01*
X1812920Y-13500484D02*
X1793872Y-13500484D01*
X1793872Y-13500484D02*
X1774824Y-13490960D01*
X1774824Y-13490960D02*
X1765301Y-13481436D01*
X1765301Y-13481436D02*
X1755777Y-13462388D01*
X1755777Y-13462388D02*
X1746253Y-13424293D01*
X1746253Y-13424293D02*
X1746253Y-13376674D01*
X1746253Y-13376674D02*
X1755777Y-13338579D01*
X1755777Y-13338579D02*
X1765301Y-13319531D01*
X1765301Y-13319531D02*
X1774824Y-13310008D01*
X1774824Y-13310008D02*
X1793872Y-13300484D01*
X1946253Y-13481436D02*
X1955777Y-13490960D01*
X1955777Y-13490960D02*
X1946253Y-13500484D01*
X1946253Y-13500484D02*
X1936729Y-13490960D01*
X1936729Y-13490960D02*
X1946253Y-13481436D01*
X1946253Y-13481436D02*
X1946253Y-13500484D01*
X2022443Y-13300484D02*
X2155777Y-13300484D01*
X2155777Y-13300484D02*
X2070062Y-13500484D01*
X2327205Y-13300484D02*
X2231967Y-13300484D01*
X2231967Y-13300484D02*
X2222444Y-13395722D01*
X2222444Y-13395722D02*
X2231967Y-13386198D01*
X2231967Y-13386198D02*
X2251015Y-13376674D01*
X2251015Y-13376674D02*
X2298634Y-13376674D01*
X2298634Y-13376674D02*
X2317682Y-13386198D01*
X2317682Y-13386198D02*
X2327205Y-13395722D01*
X2327205Y-13395722D02*
X2336729Y-13414769D01*
X2336729Y-13414769D02*
X2336729Y-13462388D01*
X2336729Y-13462388D02*
X2327205Y-13481436D01*
X2327205Y-13481436D02*
X2317682Y-13490960D01*
X2317682Y-13490960D02*
X2298634Y-13500484D01*
X2298634Y-13500484D02*
X2251015Y-13500484D01*
X2251015Y-13500484D02*
X2231967Y-13490960D01*
X2231967Y-13490960D02*
X2222444Y-13481436D01*
X2460539Y-13300484D02*
X2479586Y-13300484D01*
X2479586Y-13300484D02*
X2498634Y-13310008D01*
X2498634Y-13310008D02*
X2508158Y-13319531D01*
X2508158Y-13319531D02*
X2517682Y-13338579D01*
X2517682Y-13338579D02*
X2527205Y-13376674D01*
X2527205Y-13376674D02*
X2527205Y-13424293D01*
X2527205Y-13424293D02*
X2517682Y-13462388D01*
X2517682Y-13462388D02*
X2508158Y-13481436D01*
X2508158Y-13481436D02*
X2498634Y-13490960D01*
X2498634Y-13490960D02*
X2479586Y-13500484D01*
X2479586Y-13500484D02*
X2460539Y-13500484D01*
X2460539Y-13500484D02*
X2441491Y-13490960D01*
X2441491Y-13490960D02*
X2431967Y-13481436D01*
X2431967Y-13481436D02*
X2422444Y-13462388D01*
X2422444Y-13462388D02*
X2412920Y-13424293D01*
X2412920Y-13424293D02*
X2412920Y-13376674D01*
X2412920Y-13376674D02*
X2422444Y-13338579D01*
X2422444Y-13338579D02*
X2431967Y-13319531D01*
X2431967Y-13319531D02*
X2441491Y-13310008D01*
X2441491Y-13310008D02*
X2460539Y-13300484D01*
X2612920Y-13500484D02*
X2612920Y-13367150D01*
X2612920Y-13386198D02*
X2622444Y-13376674D01*
X2622444Y-13376674D02*
X2641491Y-13367150D01*
X2641491Y-13367150D02*
X2670063Y-13367150D01*
X2670063Y-13367150D02*
X2689110Y-13376674D01*
X2689110Y-13376674D02*
X2698634Y-13395722D01*
X2698634Y-13395722D02*
X2698634Y-13500484D01*
X2698634Y-13395722D02*
X2708158Y-13376674D01*
X2708158Y-13376674D02*
X2727205Y-13367150D01*
X2727205Y-13367150D02*
X2755777Y-13367150D01*
X2755777Y-13367150D02*
X2774825Y-13376674D01*
X2774825Y-13376674D02*
X2784348Y-13395722D01*
X2784348Y-13395722D02*
X2784348Y-13500484D01*
X2879586Y-13500484D02*
X2879586Y-13367150D01*
X2879586Y-13386198D02*
X2889110Y-13376674D01*
X2889110Y-13376674D02*
X2908158Y-13367150D01*
X2908158Y-13367150D02*
X2936729Y-13367150D01*
X2936729Y-13367150D02*
X2955777Y-13376674D01*
X2955777Y-13376674D02*
X2965301Y-13395722D01*
X2965301Y-13395722D02*
X2965301Y-13500484D01*
X2965301Y-13395722D02*
X2974824Y-13376674D01*
X2974824Y-13376674D02*
X2993872Y-13367150D01*
X2993872Y-13367150D02*
X3022443Y-13367150D01*
X3022443Y-13367150D02*
X3041491Y-13376674D01*
X3041491Y-13376674D02*
X3051015Y-13395722D01*
X3051015Y-13395722D02*
X3051015Y-13500484D01*
X3441491Y-13290960D02*
X3270063Y-13548103D01*
X3698634Y-13300484D02*
X3717682Y-13300484D01*
X3717682Y-13300484D02*
X3736729Y-13310008D01*
X3736729Y-13310008D02*
X3746253Y-13319531D01*
X3746253Y-13319531D02*
X3755777Y-13338579D01*
X3755777Y-13338579D02*
X3765301Y-13376674D01*
X3765301Y-13376674D02*
X3765301Y-13424293D01*
X3765301Y-13424293D02*
X3755777Y-13462388D01*
X3755777Y-13462388D02*
X3746253Y-13481436D01*
X3746253Y-13481436D02*
X3736729Y-13490960D01*
X3736729Y-13490960D02*
X3717682Y-13500484D01*
X3717682Y-13500484D02*
X3698634Y-13500484D01*
X3698634Y-13500484D02*
X3679586Y-13490960D01*
X3679586Y-13490960D02*
X3670063Y-13481436D01*
X3670063Y-13481436D02*
X3660539Y-13462388D01*
X3660539Y-13462388D02*
X3651015Y-13424293D01*
X3651015Y-13424293D02*
X3651015Y-13376674D01*
X3651015Y-13376674D02*
X3660539Y-13338579D01*
X3660539Y-13338579D02*
X3670063Y-13319531D01*
X3670063Y-13319531D02*
X3679586Y-13310008D01*
X3679586Y-13310008D02*
X3698634Y-13300484D01*
X3851015Y-13481436D02*
X3860539Y-13490960D01*
X3860539Y-13490960D02*
X3851015Y-13500484D01*
X3851015Y-13500484D02*
X3841491Y-13490960D01*
X3841491Y-13490960D02*
X3851015Y-13481436D01*
X3851015Y-13481436D02*
X3851015Y-13500484D01*
X3984348Y-13300484D02*
X4003396Y-13300484D01*
X4003396Y-13300484D02*
X4022444Y-13310008D01*
X4022444Y-13310008D02*
X4031967Y-13319531D01*
X4031967Y-13319531D02*
X4041491Y-13338579D01*
X4041491Y-13338579D02*
X4051015Y-13376674D01*
X4051015Y-13376674D02*
X4051015Y-13424293D01*
X4051015Y-13424293D02*
X4041491Y-13462388D01*
X4041491Y-13462388D02*
X4031967Y-13481436D01*
X4031967Y-13481436D02*
X4022444Y-13490960D01*
X4022444Y-13490960D02*
X4003396Y-13500484D01*
X4003396Y-13500484D02*
X3984348Y-13500484D01*
X3984348Y-13500484D02*
X3965301Y-13490960D01*
X3965301Y-13490960D02*
X3955777Y-13481436D01*
X3955777Y-13481436D02*
X3946253Y-13462388D01*
X3946253Y-13462388D02*
X3936729Y-13424293D01*
X3936729Y-13424293D02*
X3936729Y-13376674D01*
X3936729Y-13376674D02*
X3946253Y-13338579D01*
X3946253Y-13338579D02*
X3955777Y-13319531D01*
X3955777Y-13319531D02*
X3965301Y-13310008D01*
X3965301Y-13310008D02*
X3984348Y-13300484D01*
X4127206Y-13319531D02*
X4136729Y-13310008D01*
X4136729Y-13310008D02*
X4155777Y-13300484D01*
X4155777Y-13300484D02*
X4203396Y-13300484D01*
X4203396Y-13300484D02*
X4222444Y-13310008D01*
X4222444Y-13310008D02*
X4231968Y-13319531D01*
X4231968Y-13319531D02*
X4241491Y-13338579D01*
X4241491Y-13338579D02*
X4241491Y-13357627D01*
X4241491Y-13357627D02*
X4231968Y-13386198D01*
X4231968Y-13386198D02*
X4117682Y-13500484D01*
X4117682Y-13500484D02*
X4241491Y-13500484D01*
X4336729Y-13500484D02*
X4374825Y-13500484D01*
X4374825Y-13500484D02*
X4393872Y-13490960D01*
X4393872Y-13490960D02*
X4403396Y-13481436D01*
X4403396Y-13481436D02*
X4422444Y-13452865D01*
X4422444Y-13452865D02*
X4431968Y-13414769D01*
X4431968Y-13414769D02*
X4431968Y-13338579D01*
X4431968Y-13338579D02*
X4422444Y-13319531D01*
X4422444Y-13319531D02*
X4412920Y-13310008D01*
X4412920Y-13310008D02*
X4393872Y-13300484D01*
X4393872Y-13300484D02*
X4355777Y-13300484D01*
X4355777Y-13300484D02*
X4336729Y-13310008D01*
X4336729Y-13310008D02*
X4327206Y-13319531D01*
X4327206Y-13319531D02*
X4317682Y-13338579D01*
X4317682Y-13338579D02*
X4317682Y-13386198D01*
X4317682Y-13386198D02*
X4327206Y-13405246D01*
X4327206Y-13405246D02*
X4336729Y-13414769D01*
X4336729Y-13414769D02*
X4355777Y-13424293D01*
X4355777Y-13424293D02*
X4393872Y-13424293D01*
X4393872Y-13424293D02*
X4412920Y-13414769D01*
X4412920Y-13414769D02*
X4422444Y-13405246D01*
X4422444Y-13405246D02*
X4431968Y-13386198D01*
X4612920Y-13300484D02*
X4517682Y-13300484D01*
X4517682Y-13300484D02*
X4508158Y-13395722D01*
X4508158Y-13395722D02*
X4517682Y-13386198D01*
X4517682Y-13386198D02*
X4536729Y-13376674D01*
X4536729Y-13376674D02*
X4584349Y-13376674D01*
X4584349Y-13376674D02*
X4603396Y-13386198D01*
X4603396Y-13386198D02*
X4612920Y-13395722D01*
X4612920Y-13395722D02*
X4622444Y-13414769D01*
X4622444Y-13414769D02*
X4622444Y-13462388D01*
X4622444Y-13462388D02*
X4612920Y-13481436D01*
X4612920Y-13481436D02*
X4603396Y-13490960D01*
X4603396Y-13490960D02*
X4584349Y-13500484D01*
X4584349Y-13500484D02*
X4536729Y-13500484D01*
X4536729Y-13500484D02*
X4517682Y-13490960D01*
X4517682Y-13490960D02*
X4508158Y-13481436D01*
X4698634Y-13300484D02*
X4698634Y-13338579D01*
X4774825Y-13300484D02*
X4774825Y-13338579D01*
X5070063Y-13576674D02*
X5060539Y-13567150D01*
X5060539Y-13567150D02*
X5041491Y-13538579D01*
X5041491Y-13538579D02*
X5031968Y-13519531D01*
X5031968Y-13519531D02*
X5022444Y-13490960D01*
X5022444Y-13490960D02*
X5012920Y-13443341D01*
X5012920Y-13443341D02*
X5012920Y-13405246D01*
X5012920Y-13405246D02*
X5022444Y-13357627D01*
X5022444Y-13357627D02*
X5031968Y-13329055D01*
X5031968Y-13329055D02*
X5041491Y-13310008D01*
X5041491Y-13310008D02*
X5060539Y-13281436D01*
X5060539Y-13281436D02*
X5070063Y-13271912D01*
X5136730Y-13319531D02*
X5146253Y-13310008D01*
X5146253Y-13310008D02*
X5165301Y-13300484D01*
X5165301Y-13300484D02*
X5212920Y-13300484D01*
X5212920Y-13300484D02*
X5231968Y-13310008D01*
X5231968Y-13310008D02*
X5241491Y-13319531D01*
X5241491Y-13319531D02*
X5251015Y-13338579D01*
X5251015Y-13338579D02*
X5251015Y-13357627D01*
X5251015Y-13357627D02*
X5241491Y-13386198D01*
X5241491Y-13386198D02*
X5127206Y-13500484D01*
X5127206Y-13500484D02*
X5251015Y-13500484D01*
X5441491Y-13500484D02*
X5327206Y-13500484D01*
X5384349Y-13500484D02*
X5384349Y-13300484D01*
X5384349Y-13300484D02*
X5365301Y-13329055D01*
X5365301Y-13329055D02*
X5346253Y-13348103D01*
X5346253Y-13348103D02*
X5327206Y-13357627D01*
X5612920Y-13300484D02*
X5574825Y-13300484D01*
X5574825Y-13300484D02*
X5555777Y-13310008D01*
X5555777Y-13310008D02*
X5546253Y-13319531D01*
X5546253Y-13319531D02*
X5527206Y-13348103D01*
X5527206Y-13348103D02*
X5517682Y-13386198D01*
X5517682Y-13386198D02*
X5517682Y-13462388D01*
X5517682Y-13462388D02*
X5527206Y-13481436D01*
X5527206Y-13481436D02*
X5536730Y-13490960D01*
X5536730Y-13490960D02*
X5555777Y-13500484D01*
X5555777Y-13500484D02*
X5593872Y-13500484D01*
X5593872Y-13500484D02*
X5612920Y-13490960D01*
X5612920Y-13490960D02*
X5622444Y-13481436D01*
X5622444Y-13481436D02*
X5631968Y-13462388D01*
X5631968Y-13462388D02*
X5631968Y-13414769D01*
X5631968Y-13414769D02*
X5622444Y-13395722D01*
X5622444Y-13395722D02*
X5612920Y-13386198D01*
X5612920Y-13386198D02*
X5593872Y-13376674D01*
X5593872Y-13376674D02*
X5555777Y-13376674D01*
X5555777Y-13376674D02*
X5536730Y-13386198D01*
X5536730Y-13386198D02*
X5527206Y-13395722D01*
X5527206Y-13395722D02*
X5517682Y-13414769D01*
X5870063Y-13500484D02*
X5870063Y-13300484D01*
X5955777Y-13500484D02*
X5955777Y-13395722D01*
X5955777Y-13395722D02*
X5946253Y-13376674D01*
X5946253Y-13376674D02*
X5927206Y-13367150D01*
X5927206Y-13367150D02*
X5898634Y-13367150D01*
X5898634Y-13367150D02*
X5879587Y-13376674D01*
X5879587Y-13376674D02*
X5870063Y-13386198D01*
X6079587Y-13500484D02*
X6060539Y-13490960D01*
X6060539Y-13490960D02*
X6051015Y-13481436D01*
X6051015Y-13481436D02*
X6041491Y-13462388D01*
X6041491Y-13462388D02*
X6041491Y-13405246D01*
X6041491Y-13405246D02*
X6051015Y-13386198D01*
X6051015Y-13386198D02*
X6060539Y-13376674D01*
X6060539Y-13376674D02*
X6079587Y-13367150D01*
X6079587Y-13367150D02*
X6108158Y-13367150D01*
X6108158Y-13367150D02*
X6127206Y-13376674D01*
X6127206Y-13376674D02*
X6136730Y-13386198D01*
X6136730Y-13386198D02*
X6146253Y-13405246D01*
X6146253Y-13405246D02*
X6146253Y-13462388D01*
X6146253Y-13462388D02*
X6136730Y-13481436D01*
X6136730Y-13481436D02*
X6127206Y-13490960D01*
X6127206Y-13490960D02*
X6108158Y-13500484D01*
X6108158Y-13500484D02*
X6079587Y-13500484D01*
X6260539Y-13500484D02*
X6241491Y-13490960D01*
X6241491Y-13490960D02*
X6231968Y-13471912D01*
X6231968Y-13471912D02*
X6231968Y-13300484D01*
X6412920Y-13490960D02*
X6393872Y-13500484D01*
X6393872Y-13500484D02*
X6355777Y-13500484D01*
X6355777Y-13500484D02*
X6336730Y-13490960D01*
X6336730Y-13490960D02*
X6327206Y-13471912D01*
X6327206Y-13471912D02*
X6327206Y-13395722D01*
X6327206Y-13395722D02*
X6336730Y-13376674D01*
X6336730Y-13376674D02*
X6355777Y-13367150D01*
X6355777Y-13367150D02*
X6393872Y-13367150D01*
X6393872Y-13367150D02*
X6412920Y-13376674D01*
X6412920Y-13376674D02*
X6422444Y-13395722D01*
X6422444Y-13395722D02*
X6422444Y-13414769D01*
X6422444Y-13414769D02*
X6327206Y-13433817D01*
X6498634Y-13490960D02*
X6517682Y-13500484D01*
X6517682Y-13500484D02*
X6555777Y-13500484D01*
X6555777Y-13500484D02*
X6574825Y-13490960D01*
X6574825Y-13490960D02*
X6584349Y-13471912D01*
X6584349Y-13471912D02*
X6584349Y-13462388D01*
X6584349Y-13462388D02*
X6574825Y-13443341D01*
X6574825Y-13443341D02*
X6555777Y-13433817D01*
X6555777Y-13433817D02*
X6527206Y-13433817D01*
X6527206Y-13433817D02*
X6508158Y-13424293D01*
X6508158Y-13424293D02*
X6498634Y-13405246D01*
X6498634Y-13405246D02*
X6498634Y-13395722D01*
X6498634Y-13395722D02*
X6508158Y-13376674D01*
X6508158Y-13376674D02*
X6527206Y-13367150D01*
X6527206Y-13367150D02*
X6555777Y-13367150D01*
X6555777Y-13367150D02*
X6574825Y-13376674D01*
X6651015Y-13576674D02*
X6660539Y-13567150D01*
X6660539Y-13567150D02*
X6679587Y-13538579D01*
X6679587Y-13538579D02*
X6689111Y-13519531D01*
X6689111Y-13519531D02*
X6698634Y-13490960D01*
X6698634Y-13490960D02*
X6708158Y-13443341D01*
X6708158Y-13443341D02*
X6708158Y-13405246D01*
X6708158Y-13405246D02*
X6698634Y-13357627D01*
X6698634Y-13357627D02*
X6689111Y-13329055D01*
X6689111Y-13329055D02*
X6679587Y-13310008D01*
X6679587Y-13310008D02*
X6660539Y-13281436D01*
X6660539Y-13281436D02*
X6651015Y-13271912D01*
D10*
X1445000Y-13623000D02*
X1445000Y-13723000D01*
X1395000Y-13673000D02*
X1495000Y-13673000D01*
D11*
X1860539Y-13764484D02*
X1746253Y-13764484D01*
X1803396Y-13764484D02*
X1803396Y-13564484D01*
X1803396Y-13564484D02*
X1784348Y-13593055D01*
X1784348Y-13593055D02*
X1765301Y-13612103D01*
X1765301Y-13612103D02*
X1746253Y-13621627D01*
X1946253Y-13745436D02*
X1955777Y-13754960D01*
X1955777Y-13754960D02*
X1946253Y-13764484D01*
X1946253Y-13764484D02*
X1936729Y-13754960D01*
X1936729Y-13754960D02*
X1946253Y-13745436D01*
X1946253Y-13745436D02*
X1946253Y-13764484D01*
X2079586Y-13564484D02*
X2098634Y-13564484D01*
X2098634Y-13564484D02*
X2117682Y-13574008D01*
X2117682Y-13574008D02*
X2127205Y-13583531D01*
X2127205Y-13583531D02*
X2136729Y-13602579D01*
X2136729Y-13602579D02*
X2146253Y-13640674D01*
X2146253Y-13640674D02*
X2146253Y-13688293D01*
X2146253Y-13688293D02*
X2136729Y-13726388D01*
X2136729Y-13726388D02*
X2127205Y-13745436D01*
X2127205Y-13745436D02*
X2117682Y-13754960D01*
X2117682Y-13754960D02*
X2098634Y-13764484D01*
X2098634Y-13764484D02*
X2079586Y-13764484D01*
X2079586Y-13764484D02*
X2060539Y-13754960D01*
X2060539Y-13754960D02*
X2051015Y-13745436D01*
X2051015Y-13745436D02*
X2041491Y-13726388D01*
X2041491Y-13726388D02*
X2031967Y-13688293D01*
X2031967Y-13688293D02*
X2031967Y-13640674D01*
X2031967Y-13640674D02*
X2041491Y-13602579D01*
X2041491Y-13602579D02*
X2051015Y-13583531D01*
X2051015Y-13583531D02*
X2060539Y-13574008D01*
X2060539Y-13574008D02*
X2079586Y-13564484D01*
X2270063Y-13564484D02*
X2289110Y-13564484D01*
X2289110Y-13564484D02*
X2308158Y-13574008D01*
X2308158Y-13574008D02*
X2317682Y-13583531D01*
X2317682Y-13583531D02*
X2327205Y-13602579D01*
X2327205Y-13602579D02*
X2336729Y-13640674D01*
X2336729Y-13640674D02*
X2336729Y-13688293D01*
X2336729Y-13688293D02*
X2327205Y-13726388D01*
X2327205Y-13726388D02*
X2317682Y-13745436D01*
X2317682Y-13745436D02*
X2308158Y-13754960D01*
X2308158Y-13754960D02*
X2289110Y-13764484D01*
X2289110Y-13764484D02*
X2270063Y-13764484D01*
X2270063Y-13764484D02*
X2251015Y-13754960D01*
X2251015Y-13754960D02*
X2241491Y-13745436D01*
X2241491Y-13745436D02*
X2231967Y-13726388D01*
X2231967Y-13726388D02*
X2222444Y-13688293D01*
X2222444Y-13688293D02*
X2222444Y-13640674D01*
X2222444Y-13640674D02*
X2231967Y-13602579D01*
X2231967Y-13602579D02*
X2241491Y-13583531D01*
X2241491Y-13583531D02*
X2251015Y-13574008D01*
X2251015Y-13574008D02*
X2270063Y-13564484D01*
X2460539Y-13564484D02*
X2479586Y-13564484D01*
X2479586Y-13564484D02*
X2498634Y-13574008D01*
X2498634Y-13574008D02*
X2508158Y-13583531D01*
X2508158Y-13583531D02*
X2517682Y-13602579D01*
X2517682Y-13602579D02*
X2527205Y-13640674D01*
X2527205Y-13640674D02*
X2527205Y-13688293D01*
X2527205Y-13688293D02*
X2517682Y-13726388D01*
X2517682Y-13726388D02*
X2508158Y-13745436D01*
X2508158Y-13745436D02*
X2498634Y-13754960D01*
X2498634Y-13754960D02*
X2479586Y-13764484D01*
X2479586Y-13764484D02*
X2460539Y-13764484D01*
X2460539Y-13764484D02*
X2441491Y-13754960D01*
X2441491Y-13754960D02*
X2431967Y-13745436D01*
X2431967Y-13745436D02*
X2422444Y-13726388D01*
X2422444Y-13726388D02*
X2412920Y-13688293D01*
X2412920Y-13688293D02*
X2412920Y-13640674D01*
X2412920Y-13640674D02*
X2422444Y-13602579D01*
X2422444Y-13602579D02*
X2431967Y-13583531D01*
X2431967Y-13583531D02*
X2441491Y-13574008D01*
X2441491Y-13574008D02*
X2460539Y-13564484D01*
X2612920Y-13764484D02*
X2612920Y-13631150D01*
X2612920Y-13650198D02*
X2622444Y-13640674D01*
X2622444Y-13640674D02*
X2641491Y-13631150D01*
X2641491Y-13631150D02*
X2670063Y-13631150D01*
X2670063Y-13631150D02*
X2689110Y-13640674D01*
X2689110Y-13640674D02*
X2698634Y-13659722D01*
X2698634Y-13659722D02*
X2698634Y-13764484D01*
X2698634Y-13659722D02*
X2708158Y-13640674D01*
X2708158Y-13640674D02*
X2727205Y-13631150D01*
X2727205Y-13631150D02*
X2755777Y-13631150D01*
X2755777Y-13631150D02*
X2774825Y-13640674D01*
X2774825Y-13640674D02*
X2784348Y-13659722D01*
X2784348Y-13659722D02*
X2784348Y-13764484D01*
X2879586Y-13764484D02*
X2879586Y-13631150D01*
X2879586Y-13650198D02*
X2889110Y-13640674D01*
X2889110Y-13640674D02*
X2908158Y-13631150D01*
X2908158Y-13631150D02*
X2936729Y-13631150D01*
X2936729Y-13631150D02*
X2955777Y-13640674D01*
X2955777Y-13640674D02*
X2965301Y-13659722D01*
X2965301Y-13659722D02*
X2965301Y-13764484D01*
X2965301Y-13659722D02*
X2974824Y-13640674D01*
X2974824Y-13640674D02*
X2993872Y-13631150D01*
X2993872Y-13631150D02*
X3022443Y-13631150D01*
X3022443Y-13631150D02*
X3041491Y-13640674D01*
X3041491Y-13640674D02*
X3051015Y-13659722D01*
X3051015Y-13659722D02*
X3051015Y-13764484D01*
X3441491Y-13554960D02*
X3270063Y-13812103D01*
X3698634Y-13564484D02*
X3717682Y-13564484D01*
X3717682Y-13564484D02*
X3736729Y-13574008D01*
X3736729Y-13574008D02*
X3746253Y-13583531D01*
X3746253Y-13583531D02*
X3755777Y-13602579D01*
X3755777Y-13602579D02*
X3765301Y-13640674D01*
X3765301Y-13640674D02*
X3765301Y-13688293D01*
X3765301Y-13688293D02*
X3755777Y-13726388D01*
X3755777Y-13726388D02*
X3746253Y-13745436D01*
X3746253Y-13745436D02*
X3736729Y-13754960D01*
X3736729Y-13754960D02*
X3717682Y-13764484D01*
X3717682Y-13764484D02*
X3698634Y-13764484D01*
X3698634Y-13764484D02*
X3679586Y-13754960D01*
X3679586Y-13754960D02*
X3670063Y-13745436D01*
X3670063Y-13745436D02*
X3660539Y-13726388D01*
X3660539Y-13726388D02*
X3651015Y-13688293D01*
X3651015Y-13688293D02*
X3651015Y-13640674D01*
X3651015Y-13640674D02*
X3660539Y-13602579D01*
X3660539Y-13602579D02*
X3670063Y-13583531D01*
X3670063Y-13583531D02*
X3679586Y-13574008D01*
X3679586Y-13574008D02*
X3698634Y-13564484D01*
X3851015Y-13745436D02*
X3860539Y-13754960D01*
X3860539Y-13754960D02*
X3851015Y-13764484D01*
X3851015Y-13764484D02*
X3841491Y-13754960D01*
X3841491Y-13754960D02*
X3851015Y-13745436D01*
X3851015Y-13745436D02*
X3851015Y-13764484D01*
X3984348Y-13564484D02*
X4003396Y-13564484D01*
X4003396Y-13564484D02*
X4022444Y-13574008D01*
X4022444Y-13574008D02*
X4031967Y-13583531D01*
X4031967Y-13583531D02*
X4041491Y-13602579D01*
X4041491Y-13602579D02*
X4051015Y-13640674D01*
X4051015Y-13640674D02*
X4051015Y-13688293D01*
X4051015Y-13688293D02*
X4041491Y-13726388D01*
X4041491Y-13726388D02*
X4031967Y-13745436D01*
X4031967Y-13745436D02*
X4022444Y-13754960D01*
X4022444Y-13754960D02*
X4003396Y-13764484D01*
X4003396Y-13764484D02*
X3984348Y-13764484D01*
X3984348Y-13764484D02*
X3965301Y-13754960D01*
X3965301Y-13754960D02*
X3955777Y-13745436D01*
X3955777Y-13745436D02*
X3946253Y-13726388D01*
X3946253Y-13726388D02*
X3936729Y-13688293D01*
X3936729Y-13688293D02*
X3936729Y-13640674D01*
X3936729Y-13640674D02*
X3946253Y-13602579D01*
X3946253Y-13602579D02*
X3955777Y-13583531D01*
X3955777Y-13583531D02*
X3965301Y-13574008D01*
X3965301Y-13574008D02*
X3984348Y-13564484D01*
X4117682Y-13564484D02*
X4241491Y-13564484D01*
X4241491Y-13564484D02*
X4174825Y-13640674D01*
X4174825Y-13640674D02*
X4203396Y-13640674D01*
X4203396Y-13640674D02*
X4222444Y-13650198D01*
X4222444Y-13650198D02*
X4231968Y-13659722D01*
X4231968Y-13659722D02*
X4241491Y-13678769D01*
X4241491Y-13678769D02*
X4241491Y-13726388D01*
X4241491Y-13726388D02*
X4231968Y-13745436D01*
X4231968Y-13745436D02*
X4222444Y-13754960D01*
X4222444Y-13754960D02*
X4203396Y-13764484D01*
X4203396Y-13764484D02*
X4146253Y-13764484D01*
X4146253Y-13764484D02*
X4127206Y-13754960D01*
X4127206Y-13754960D02*
X4117682Y-13745436D01*
X4336729Y-13764484D02*
X4374825Y-13764484D01*
X4374825Y-13764484D02*
X4393872Y-13754960D01*
X4393872Y-13754960D02*
X4403396Y-13745436D01*
X4403396Y-13745436D02*
X4422444Y-13716865D01*
X4422444Y-13716865D02*
X4431968Y-13678769D01*
X4431968Y-13678769D02*
X4431968Y-13602579D01*
X4431968Y-13602579D02*
X4422444Y-13583531D01*
X4422444Y-13583531D02*
X4412920Y-13574008D01*
X4412920Y-13574008D02*
X4393872Y-13564484D01*
X4393872Y-13564484D02*
X4355777Y-13564484D01*
X4355777Y-13564484D02*
X4336729Y-13574008D01*
X4336729Y-13574008D02*
X4327206Y-13583531D01*
X4327206Y-13583531D02*
X4317682Y-13602579D01*
X4317682Y-13602579D02*
X4317682Y-13650198D01*
X4317682Y-13650198D02*
X4327206Y-13669246D01*
X4327206Y-13669246D02*
X4336729Y-13678769D01*
X4336729Y-13678769D02*
X4355777Y-13688293D01*
X4355777Y-13688293D02*
X4393872Y-13688293D01*
X4393872Y-13688293D02*
X4412920Y-13678769D01*
X4412920Y-13678769D02*
X4422444Y-13669246D01*
X4422444Y-13669246D02*
X4431968Y-13650198D01*
X4603396Y-13631150D02*
X4603396Y-13764484D01*
X4555777Y-13554960D02*
X4508158Y-13697817D01*
X4508158Y-13697817D02*
X4631968Y-13697817D01*
X4698634Y-13564484D02*
X4698634Y-13602579D01*
X4774825Y-13564484D02*
X4774825Y-13602579D01*
X5070063Y-13840674D02*
X5060539Y-13831150D01*
X5060539Y-13831150D02*
X5041491Y-13802579D01*
X5041491Y-13802579D02*
X5031968Y-13783531D01*
X5031968Y-13783531D02*
X5022444Y-13754960D01*
X5022444Y-13754960D02*
X5012920Y-13707341D01*
X5012920Y-13707341D02*
X5012920Y-13669246D01*
X5012920Y-13669246D02*
X5022444Y-13621627D01*
X5022444Y-13621627D02*
X5031968Y-13593055D01*
X5031968Y-13593055D02*
X5041491Y-13574008D01*
X5041491Y-13574008D02*
X5060539Y-13545436D01*
X5060539Y-13545436D02*
X5070063Y-13535912D01*
X5251015Y-13764484D02*
X5136730Y-13764484D01*
X5193872Y-13764484D02*
X5193872Y-13564484D01*
X5193872Y-13564484D02*
X5174825Y-13593055D01*
X5174825Y-13593055D02*
X5155777Y-13612103D01*
X5155777Y-13612103D02*
X5136730Y-13621627D01*
X5431968Y-13564484D02*
X5336730Y-13564484D01*
X5336730Y-13564484D02*
X5327206Y-13659722D01*
X5327206Y-13659722D02*
X5336730Y-13650198D01*
X5336730Y-13650198D02*
X5355777Y-13640674D01*
X5355777Y-13640674D02*
X5403396Y-13640674D01*
X5403396Y-13640674D02*
X5422444Y-13650198D01*
X5422444Y-13650198D02*
X5431968Y-13659722D01*
X5431968Y-13659722D02*
X5441491Y-13678769D01*
X5441491Y-13678769D02*
X5441491Y-13726388D01*
X5441491Y-13726388D02*
X5431968Y-13745436D01*
X5431968Y-13745436D02*
X5422444Y-13754960D01*
X5422444Y-13754960D02*
X5403396Y-13764484D01*
X5403396Y-13764484D02*
X5355777Y-13764484D01*
X5355777Y-13764484D02*
X5336730Y-13754960D01*
X5336730Y-13754960D02*
X5327206Y-13745436D01*
X5679587Y-13764484D02*
X5679587Y-13564484D01*
X5765301Y-13764484D02*
X5765301Y-13659722D01*
X5765301Y-13659722D02*
X5755777Y-13640674D01*
X5755777Y-13640674D02*
X5736730Y-13631150D01*
X5736730Y-13631150D02*
X5708158Y-13631150D01*
X5708158Y-13631150D02*
X5689110Y-13640674D01*
X5689110Y-13640674D02*
X5679587Y-13650198D01*
X5889110Y-13764484D02*
X5870063Y-13754960D01*
X5870063Y-13754960D02*
X5860539Y-13745436D01*
X5860539Y-13745436D02*
X5851015Y-13726388D01*
X5851015Y-13726388D02*
X5851015Y-13669246D01*
X5851015Y-13669246D02*
X5860539Y-13650198D01*
X5860539Y-13650198D02*
X5870063Y-13640674D01*
X5870063Y-13640674D02*
X5889110Y-13631150D01*
X5889110Y-13631150D02*
X5917682Y-13631150D01*
X5917682Y-13631150D02*
X5936730Y-13640674D01*
X5936730Y-13640674D02*
X5946253Y-13650198D01*
X5946253Y-13650198D02*
X5955777Y-13669246D01*
X5955777Y-13669246D02*
X5955777Y-13726388D01*
X5955777Y-13726388D02*
X5946253Y-13745436D01*
X5946253Y-13745436D02*
X5936730Y-13754960D01*
X5936730Y-13754960D02*
X5917682Y-13764484D01*
X5917682Y-13764484D02*
X5889110Y-13764484D01*
X6070063Y-13764484D02*
X6051015Y-13754960D01*
X6051015Y-13754960D02*
X6041491Y-13735912D01*
X6041491Y-13735912D02*
X6041491Y-13564484D01*
X6222444Y-13754960D02*
X6203396Y-13764484D01*
X6203396Y-13764484D02*
X6165301Y-13764484D01*
X6165301Y-13764484D02*
X6146253Y-13754960D01*
X6146253Y-13754960D02*
X6136730Y-13735912D01*
X6136730Y-13735912D02*
X6136730Y-13659722D01*
X6136730Y-13659722D02*
X6146253Y-13640674D01*
X6146253Y-13640674D02*
X6165301Y-13631150D01*
X6165301Y-13631150D02*
X6203396Y-13631150D01*
X6203396Y-13631150D02*
X6222444Y-13640674D01*
X6222444Y-13640674D02*
X6231968Y-13659722D01*
X6231968Y-13659722D02*
X6231968Y-13678769D01*
X6231968Y-13678769D02*
X6136730Y-13697817D01*
X6308158Y-13754960D02*
X6327206Y-13764484D01*
X6327206Y-13764484D02*
X6365301Y-13764484D01*
X6365301Y-13764484D02*
X6384349Y-13754960D01*
X6384349Y-13754960D02*
X6393872Y-13735912D01*
X6393872Y-13735912D02*
X6393872Y-13726388D01*
X6393872Y-13726388D02*
X6384349Y-13707341D01*
X6384349Y-13707341D02*
X6365301Y-13697817D01*
X6365301Y-13697817D02*
X6336730Y-13697817D01*
X6336730Y-13697817D02*
X6317682Y-13688293D01*
X6317682Y-13688293D02*
X6308158Y-13669246D01*
X6308158Y-13669246D02*
X6308158Y-13659722D01*
X6308158Y-13659722D02*
X6317682Y-13640674D01*
X6317682Y-13640674D02*
X6336730Y-13631150D01*
X6336730Y-13631150D02*
X6365301Y-13631150D01*
X6365301Y-13631150D02*
X6384349Y-13640674D01*
X6460539Y-13840674D02*
X6470063Y-13831150D01*
X6470063Y-13831150D02*
X6489111Y-13802579D01*
X6489111Y-13802579D02*
X6498634Y-13783531D01*
X6498634Y-13783531D02*
X6508158Y-13754960D01*
X6508158Y-13754960D02*
X6517682Y-13707341D01*
X6517682Y-13707341D02*
X6517682Y-13669246D01*
X6517682Y-13669246D02*
X6508158Y-13621627D01*
X6508158Y-13621627D02*
X6498634Y-13593055D01*
X6498634Y-13593055D02*
X6489111Y-13574008D01*
X6489111Y-13574008D02*
X6470063Y-13545436D01*
X6470063Y-13545436D02*
X6460539Y-13535912D01*
D12*
X1469372Y-13998872D02*
X1469372Y-13875128D01*
X1345628Y-13875128D01*
X1345628Y-13998872D01*
X1469372Y-13998872D01*
D11*
X1860539Y-14028484D02*
X1746253Y-14028484D01*
X1803396Y-14028484D02*
X1803396Y-13828484D01*
X1803396Y-13828484D02*
X1784348Y-13857055D01*
X1784348Y-13857055D02*
X1765301Y-13876103D01*
X1765301Y-13876103D02*
X1746253Y-13885627D01*
X1946253Y-14009436D02*
X1955777Y-14018960D01*
X1955777Y-14018960D02*
X1946253Y-14028484D01*
X1946253Y-14028484D02*
X1936729Y-14018960D01*
X1936729Y-14018960D02*
X1946253Y-14009436D01*
X1946253Y-14009436D02*
X1946253Y-14028484D01*
X2022443Y-13828484D02*
X2155777Y-13828484D01*
X2155777Y-13828484D02*
X2070062Y-14028484D01*
X2327205Y-13828484D02*
X2231967Y-13828484D01*
X2231967Y-13828484D02*
X2222444Y-13923722D01*
X2222444Y-13923722D02*
X2231967Y-13914198D01*
X2231967Y-13914198D02*
X2251015Y-13904674D01*
X2251015Y-13904674D02*
X2298634Y-13904674D01*
X2298634Y-13904674D02*
X2317682Y-13914198D01*
X2317682Y-13914198D02*
X2327205Y-13923722D01*
X2327205Y-13923722D02*
X2336729Y-13942769D01*
X2336729Y-13942769D02*
X2336729Y-13990388D01*
X2336729Y-13990388D02*
X2327205Y-14009436D01*
X2327205Y-14009436D02*
X2317682Y-14018960D01*
X2317682Y-14018960D02*
X2298634Y-14028484D01*
X2298634Y-14028484D02*
X2251015Y-14028484D01*
X2251015Y-14028484D02*
X2231967Y-14018960D01*
X2231967Y-14018960D02*
X2222444Y-14009436D01*
X2460539Y-13828484D02*
X2479586Y-13828484D01*
X2479586Y-13828484D02*
X2498634Y-13838008D01*
X2498634Y-13838008D02*
X2508158Y-13847531D01*
X2508158Y-13847531D02*
X2517682Y-13866579D01*
X2517682Y-13866579D02*
X2527205Y-13904674D01*
X2527205Y-13904674D02*
X2527205Y-13952293D01*
X2527205Y-13952293D02*
X2517682Y-13990388D01*
X2517682Y-13990388D02*
X2508158Y-14009436D01*
X2508158Y-14009436D02*
X2498634Y-14018960D01*
X2498634Y-14018960D02*
X2479586Y-14028484D01*
X2479586Y-14028484D02*
X2460539Y-14028484D01*
X2460539Y-14028484D02*
X2441491Y-14018960D01*
X2441491Y-14018960D02*
X2431967Y-14009436D01*
X2431967Y-14009436D02*
X2422444Y-13990388D01*
X2422444Y-13990388D02*
X2412920Y-13952293D01*
X2412920Y-13952293D02*
X2412920Y-13904674D01*
X2412920Y-13904674D02*
X2422444Y-13866579D01*
X2422444Y-13866579D02*
X2431967Y-13847531D01*
X2431967Y-13847531D02*
X2441491Y-13838008D01*
X2441491Y-13838008D02*
X2460539Y-13828484D01*
X2612920Y-14028484D02*
X2612920Y-13895150D01*
X2612920Y-13914198D02*
X2622444Y-13904674D01*
X2622444Y-13904674D02*
X2641491Y-13895150D01*
X2641491Y-13895150D02*
X2670063Y-13895150D01*
X2670063Y-13895150D02*
X2689110Y-13904674D01*
X2689110Y-13904674D02*
X2698634Y-13923722D01*
X2698634Y-13923722D02*
X2698634Y-14028484D01*
X2698634Y-13923722D02*
X2708158Y-13904674D01*
X2708158Y-13904674D02*
X2727205Y-13895150D01*
X2727205Y-13895150D02*
X2755777Y-13895150D01*
X2755777Y-13895150D02*
X2774825Y-13904674D01*
X2774825Y-13904674D02*
X2784348Y-13923722D01*
X2784348Y-13923722D02*
X2784348Y-14028484D01*
X2879586Y-14028484D02*
X2879586Y-13895150D01*
X2879586Y-13914198D02*
X2889110Y-13904674D01*
X2889110Y-13904674D02*
X2908158Y-13895150D01*
X2908158Y-13895150D02*
X2936729Y-13895150D01*
X2936729Y-13895150D02*
X2955777Y-13904674D01*
X2955777Y-13904674D02*
X2965301Y-13923722D01*
X2965301Y-13923722D02*
X2965301Y-14028484D01*
X2965301Y-13923722D02*
X2974824Y-13904674D01*
X2974824Y-13904674D02*
X2993872Y-13895150D01*
X2993872Y-13895150D02*
X3022443Y-13895150D01*
X3022443Y-13895150D02*
X3041491Y-13904674D01*
X3041491Y-13904674D02*
X3051015Y-13923722D01*
X3051015Y-13923722D02*
X3051015Y-14028484D01*
X3441491Y-13818960D02*
X3270063Y-14076103D01*
X3698634Y-13828484D02*
X3717682Y-13828484D01*
X3717682Y-13828484D02*
X3736729Y-13838008D01*
X3736729Y-13838008D02*
X3746253Y-13847531D01*
X3746253Y-13847531D02*
X3755777Y-13866579D01*
X3755777Y-13866579D02*
X3765301Y-13904674D01*
X3765301Y-13904674D02*
X3765301Y-13952293D01*
X3765301Y-13952293D02*
X3755777Y-13990388D01*
X3755777Y-13990388D02*
X3746253Y-14009436D01*
X3746253Y-14009436D02*
X3736729Y-14018960D01*
X3736729Y-14018960D02*
X3717682Y-14028484D01*
X3717682Y-14028484D02*
X3698634Y-14028484D01*
X3698634Y-14028484D02*
X3679586Y-14018960D01*
X3679586Y-14018960D02*
X3670063Y-14009436D01*
X3670063Y-14009436D02*
X3660539Y-13990388D01*
X3660539Y-13990388D02*
X3651015Y-13952293D01*
X3651015Y-13952293D02*
X3651015Y-13904674D01*
X3651015Y-13904674D02*
X3660539Y-13866579D01*
X3660539Y-13866579D02*
X3670063Y-13847531D01*
X3670063Y-13847531D02*
X3679586Y-13838008D01*
X3679586Y-13838008D02*
X3698634Y-13828484D01*
X3851015Y-14009436D02*
X3860539Y-14018960D01*
X3860539Y-14018960D02*
X3851015Y-14028484D01*
X3851015Y-14028484D02*
X3841491Y-14018960D01*
X3841491Y-14018960D02*
X3851015Y-14009436D01*
X3851015Y-14009436D02*
X3851015Y-14028484D01*
X3984348Y-13828484D02*
X4003396Y-13828484D01*
X4003396Y-13828484D02*
X4022444Y-13838008D01*
X4022444Y-13838008D02*
X4031967Y-13847531D01*
X4031967Y-13847531D02*
X4041491Y-13866579D01*
X4041491Y-13866579D02*
X4051015Y-13904674D01*
X4051015Y-13904674D02*
X4051015Y-13952293D01*
X4051015Y-13952293D02*
X4041491Y-13990388D01*
X4041491Y-13990388D02*
X4031967Y-14009436D01*
X4031967Y-14009436D02*
X4022444Y-14018960D01*
X4022444Y-14018960D02*
X4003396Y-14028484D01*
X4003396Y-14028484D02*
X3984348Y-14028484D01*
X3984348Y-14028484D02*
X3965301Y-14018960D01*
X3965301Y-14018960D02*
X3955777Y-14009436D01*
X3955777Y-14009436D02*
X3946253Y-13990388D01*
X3946253Y-13990388D02*
X3936729Y-13952293D01*
X3936729Y-13952293D02*
X3936729Y-13904674D01*
X3936729Y-13904674D02*
X3946253Y-13866579D01*
X3946253Y-13866579D02*
X3955777Y-13847531D01*
X3955777Y-13847531D02*
X3965301Y-13838008D01*
X3965301Y-13838008D02*
X3984348Y-13828484D01*
X4222444Y-13828484D02*
X4184348Y-13828484D01*
X4184348Y-13828484D02*
X4165301Y-13838008D01*
X4165301Y-13838008D02*
X4155777Y-13847531D01*
X4155777Y-13847531D02*
X4136729Y-13876103D01*
X4136729Y-13876103D02*
X4127206Y-13914198D01*
X4127206Y-13914198D02*
X4127206Y-13990388D01*
X4127206Y-13990388D02*
X4136729Y-14009436D01*
X4136729Y-14009436D02*
X4146253Y-14018960D01*
X4146253Y-14018960D02*
X4165301Y-14028484D01*
X4165301Y-14028484D02*
X4203396Y-14028484D01*
X4203396Y-14028484D02*
X4222444Y-14018960D01*
X4222444Y-14018960D02*
X4231968Y-14009436D01*
X4231968Y-14009436D02*
X4241491Y-13990388D01*
X4241491Y-13990388D02*
X4241491Y-13942769D01*
X4241491Y-13942769D02*
X4231968Y-13923722D01*
X4231968Y-13923722D02*
X4222444Y-13914198D01*
X4222444Y-13914198D02*
X4203396Y-13904674D01*
X4203396Y-13904674D02*
X4165301Y-13904674D01*
X4165301Y-13904674D02*
X4146253Y-13914198D01*
X4146253Y-13914198D02*
X4136729Y-13923722D01*
X4136729Y-13923722D02*
X4127206Y-13942769D01*
X4355777Y-13914198D02*
X4336729Y-13904674D01*
X4336729Y-13904674D02*
X4327206Y-13895150D01*
X4327206Y-13895150D02*
X4317682Y-13876103D01*
X4317682Y-13876103D02*
X4317682Y-13866579D01*
X4317682Y-13866579D02*
X4327206Y-13847531D01*
X4327206Y-13847531D02*
X4336729Y-13838008D01*
X4336729Y-13838008D02*
X4355777Y-13828484D01*
X4355777Y-13828484D02*
X4393872Y-13828484D01*
X4393872Y-13828484D02*
X4412920Y-13838008D01*
X4412920Y-13838008D02*
X4422444Y-13847531D01*
X4422444Y-13847531D02*
X4431968Y-13866579D01*
X4431968Y-13866579D02*
X4431968Y-13876103D01*
X4431968Y-13876103D02*
X4422444Y-13895150D01*
X4422444Y-13895150D02*
X4412920Y-13904674D01*
X4412920Y-13904674D02*
X4393872Y-13914198D01*
X4393872Y-13914198D02*
X4355777Y-13914198D01*
X4355777Y-13914198D02*
X4336729Y-13923722D01*
X4336729Y-13923722D02*
X4327206Y-13933246D01*
X4327206Y-13933246D02*
X4317682Y-13952293D01*
X4317682Y-13952293D02*
X4317682Y-13990388D01*
X4317682Y-13990388D02*
X4327206Y-14009436D01*
X4327206Y-14009436D02*
X4336729Y-14018960D01*
X4336729Y-14018960D02*
X4355777Y-14028484D01*
X4355777Y-14028484D02*
X4393872Y-14028484D01*
X4393872Y-14028484D02*
X4412920Y-14018960D01*
X4412920Y-14018960D02*
X4422444Y-14009436D01*
X4422444Y-14009436D02*
X4431968Y-13990388D01*
X4431968Y-13990388D02*
X4431968Y-13952293D01*
X4431968Y-13952293D02*
X4422444Y-13933246D01*
X4422444Y-13933246D02*
X4412920Y-13923722D01*
X4412920Y-13923722D02*
X4393872Y-13914198D01*
X4527206Y-14028484D02*
X4565301Y-14028484D01*
X4565301Y-14028484D02*
X4584349Y-14018960D01*
X4584349Y-14018960D02*
X4593872Y-14009436D01*
X4593872Y-14009436D02*
X4612920Y-13980865D01*
X4612920Y-13980865D02*
X4622444Y-13942769D01*
X4622444Y-13942769D02*
X4622444Y-13866579D01*
X4622444Y-13866579D02*
X4612920Y-13847531D01*
X4612920Y-13847531D02*
X4603396Y-13838008D01*
X4603396Y-13838008D02*
X4584349Y-13828484D01*
X4584349Y-13828484D02*
X4546253Y-13828484D01*
X4546253Y-13828484D02*
X4527206Y-13838008D01*
X4527206Y-13838008D02*
X4517682Y-13847531D01*
X4517682Y-13847531D02*
X4508158Y-13866579D01*
X4508158Y-13866579D02*
X4508158Y-13914198D01*
X4508158Y-13914198D02*
X4517682Y-13933246D01*
X4517682Y-13933246D02*
X4527206Y-13942769D01*
X4527206Y-13942769D02*
X4546253Y-13952293D01*
X4546253Y-13952293D02*
X4584349Y-13952293D01*
X4584349Y-13952293D02*
X4603396Y-13942769D01*
X4603396Y-13942769D02*
X4612920Y-13933246D01*
X4612920Y-13933246D02*
X4622444Y-13914198D01*
X4698634Y-13828484D02*
X4698634Y-13866579D01*
X4774825Y-13828484D02*
X4774825Y-13866579D01*
X5070063Y-14104674D02*
X5060539Y-14095150D01*
X5060539Y-14095150D02*
X5041491Y-14066579D01*
X5041491Y-14066579D02*
X5031968Y-14047531D01*
X5031968Y-14047531D02*
X5022444Y-14018960D01*
X5022444Y-14018960D02*
X5012920Y-13971341D01*
X5012920Y-13971341D02*
X5012920Y-13933246D01*
X5012920Y-13933246D02*
X5022444Y-13885627D01*
X5022444Y-13885627D02*
X5031968Y-13857055D01*
X5031968Y-13857055D02*
X5041491Y-13838008D01*
X5041491Y-13838008D02*
X5060539Y-13809436D01*
X5060539Y-13809436D02*
X5070063Y-13799912D01*
X5231968Y-13828484D02*
X5193872Y-13828484D01*
X5193872Y-13828484D02*
X5174825Y-13838008D01*
X5174825Y-13838008D02*
X5165301Y-13847531D01*
X5165301Y-13847531D02*
X5146253Y-13876103D01*
X5146253Y-13876103D02*
X5136730Y-13914198D01*
X5136730Y-13914198D02*
X5136730Y-13990388D01*
X5136730Y-13990388D02*
X5146253Y-14009436D01*
X5146253Y-14009436D02*
X5155777Y-14018960D01*
X5155777Y-14018960D02*
X5174825Y-14028484D01*
X5174825Y-14028484D02*
X5212920Y-14028484D01*
X5212920Y-14028484D02*
X5231968Y-14018960D01*
X5231968Y-14018960D02*
X5241491Y-14009436D01*
X5241491Y-14009436D02*
X5251015Y-13990388D01*
X5251015Y-13990388D02*
X5251015Y-13942769D01*
X5251015Y-13942769D02*
X5241491Y-13923722D01*
X5241491Y-13923722D02*
X5231968Y-13914198D01*
X5231968Y-13914198D02*
X5212920Y-13904674D01*
X5212920Y-13904674D02*
X5174825Y-13904674D01*
X5174825Y-13904674D02*
X5155777Y-13914198D01*
X5155777Y-13914198D02*
X5146253Y-13923722D01*
X5146253Y-13923722D02*
X5136730Y-13942769D01*
X5346253Y-14028484D02*
X5384349Y-14028484D01*
X5384349Y-14028484D02*
X5403396Y-14018960D01*
X5403396Y-14018960D02*
X5412920Y-14009436D01*
X5412920Y-14009436D02*
X5431968Y-13980865D01*
X5431968Y-13980865D02*
X5441491Y-13942769D01*
X5441491Y-13942769D02*
X5441491Y-13866579D01*
X5441491Y-13866579D02*
X5431968Y-13847531D01*
X5431968Y-13847531D02*
X5422444Y-13838008D01*
X5422444Y-13838008D02*
X5403396Y-13828484D01*
X5403396Y-13828484D02*
X5365301Y-13828484D01*
X5365301Y-13828484D02*
X5346253Y-13838008D01*
X5346253Y-13838008D02*
X5336730Y-13847531D01*
X5336730Y-13847531D02*
X5327206Y-13866579D01*
X5327206Y-13866579D02*
X5327206Y-13914198D01*
X5327206Y-13914198D02*
X5336730Y-13933246D01*
X5336730Y-13933246D02*
X5346253Y-13942769D01*
X5346253Y-13942769D02*
X5365301Y-13952293D01*
X5365301Y-13952293D02*
X5403396Y-13952293D01*
X5403396Y-13952293D02*
X5422444Y-13942769D01*
X5422444Y-13942769D02*
X5431968Y-13933246D01*
X5431968Y-13933246D02*
X5441491Y-13914198D01*
X5679587Y-14028484D02*
X5679587Y-13828484D01*
X5765301Y-14028484D02*
X5765301Y-13923722D01*
X5765301Y-13923722D02*
X5755777Y-13904674D01*
X5755777Y-13904674D02*
X5736730Y-13895150D01*
X5736730Y-13895150D02*
X5708158Y-13895150D01*
X5708158Y-13895150D02*
X5689110Y-13904674D01*
X5689110Y-13904674D02*
X5679587Y-13914198D01*
X5889110Y-14028484D02*
X5870063Y-14018960D01*
X5870063Y-14018960D02*
X5860539Y-14009436D01*
X5860539Y-14009436D02*
X5851015Y-13990388D01*
X5851015Y-13990388D02*
X5851015Y-13933246D01*
X5851015Y-13933246D02*
X5860539Y-13914198D01*
X5860539Y-13914198D02*
X5870063Y-13904674D01*
X5870063Y-13904674D02*
X5889110Y-13895150D01*
X5889110Y-13895150D02*
X5917682Y-13895150D01*
X5917682Y-13895150D02*
X5936730Y-13904674D01*
X5936730Y-13904674D02*
X5946253Y-13914198D01*
X5946253Y-13914198D02*
X5955777Y-13933246D01*
X5955777Y-13933246D02*
X5955777Y-13990388D01*
X5955777Y-13990388D02*
X5946253Y-14009436D01*
X5946253Y-14009436D02*
X5936730Y-14018960D01*
X5936730Y-14018960D02*
X5917682Y-14028484D01*
X5917682Y-14028484D02*
X5889110Y-14028484D01*
X6070063Y-14028484D02*
X6051015Y-14018960D01*
X6051015Y-14018960D02*
X6041491Y-13999912D01*
X6041491Y-13999912D02*
X6041491Y-13828484D01*
X6222444Y-14018960D02*
X6203396Y-14028484D01*
X6203396Y-14028484D02*
X6165301Y-14028484D01*
X6165301Y-14028484D02*
X6146253Y-14018960D01*
X6146253Y-14018960D02*
X6136730Y-13999912D01*
X6136730Y-13999912D02*
X6136730Y-13923722D01*
X6136730Y-13923722D02*
X6146253Y-13904674D01*
X6146253Y-13904674D02*
X6165301Y-13895150D01*
X6165301Y-13895150D02*
X6203396Y-13895150D01*
X6203396Y-13895150D02*
X6222444Y-13904674D01*
X6222444Y-13904674D02*
X6231968Y-13923722D01*
X6231968Y-13923722D02*
X6231968Y-13942769D01*
X6231968Y-13942769D02*
X6136730Y-13961817D01*
X6308158Y-14018960D02*
X6327206Y-14028484D01*
X6327206Y-14028484D02*
X6365301Y-14028484D01*
X6365301Y-14028484D02*
X6384349Y-14018960D01*
X6384349Y-14018960D02*
X6393872Y-13999912D01*
X6393872Y-13999912D02*
X6393872Y-13990388D01*
X6393872Y-13990388D02*
X6384349Y-13971341D01*
X6384349Y-13971341D02*
X6365301Y-13961817D01*
X6365301Y-13961817D02*
X6336730Y-13961817D01*
X6336730Y-13961817D02*
X6317682Y-13952293D01*
X6317682Y-13952293D02*
X6308158Y-13933246D01*
X6308158Y-13933246D02*
X6308158Y-13923722D01*
X6308158Y-13923722D02*
X6317682Y-13904674D01*
X6317682Y-13904674D02*
X6336730Y-13895150D01*
X6336730Y-13895150D02*
X6365301Y-13895150D01*
X6365301Y-13895150D02*
X6384349Y-13904674D01*
X6460539Y-14104674D02*
X6470063Y-14095150D01*
X6470063Y-14095150D02*
X6489111Y-14066579D01*
X6489111Y-14066579D02*
X6498634Y-14047531D01*
X6498634Y-14047531D02*
X6508158Y-14018960D01*
X6508158Y-14018960D02*
X6517682Y-13971341D01*
X6517682Y-13971341D02*
X6517682Y-13933246D01*
X6517682Y-13933246D02*
X6508158Y-13885627D01*
X6508158Y-13885627D02*
X6498634Y-13857055D01*
X6498634Y-13857055D02*
X6489111Y-13838008D01*
X6489111Y-13838008D02*
X6470063Y-13809436D01*
X6470063Y-13809436D02*
X6460539Y-13799912D01*
D13*
X1402500Y-14324500D02*
X1495000Y-14232000D01*
X1402500Y-14139500D01*
X1310000Y-14232000D01*
X1402500Y-14324500D01*
D11*
X1860539Y-14323484D02*
X1746253Y-14323484D01*
X1803396Y-14323484D02*
X1803396Y-14123484D01*
X1803396Y-14123484D02*
X1784348Y-14152055D01*
X1784348Y-14152055D02*
X1765301Y-14171103D01*
X1765301Y-14171103D02*
X1746253Y-14180627D01*
X1946253Y-14304436D02*
X1955777Y-14313960D01*
X1955777Y-14313960D02*
X1946253Y-14323484D01*
X1946253Y-14323484D02*
X1936729Y-14313960D01*
X1936729Y-14313960D02*
X1946253Y-14304436D01*
X1946253Y-14304436D02*
X1946253Y-14323484D01*
X2070062Y-14209198D02*
X2051015Y-14199674D01*
X2051015Y-14199674D02*
X2041491Y-14190150D01*
X2041491Y-14190150D02*
X2031967Y-14171103D01*
X2031967Y-14171103D02*
X2031967Y-14161579D01*
X2031967Y-14161579D02*
X2041491Y-14142531D01*
X2041491Y-14142531D02*
X2051015Y-14133008D01*
X2051015Y-14133008D02*
X2070062Y-14123484D01*
X2070062Y-14123484D02*
X2108158Y-14123484D01*
X2108158Y-14123484D02*
X2127205Y-14133008D01*
X2127205Y-14133008D02*
X2136729Y-14142531D01*
X2136729Y-14142531D02*
X2146253Y-14161579D01*
X2146253Y-14161579D02*
X2146253Y-14171103D01*
X2146253Y-14171103D02*
X2136729Y-14190150D01*
X2136729Y-14190150D02*
X2127205Y-14199674D01*
X2127205Y-14199674D02*
X2108158Y-14209198D01*
X2108158Y-14209198D02*
X2070062Y-14209198D01*
X2070062Y-14209198D02*
X2051015Y-14218722D01*
X2051015Y-14218722D02*
X2041491Y-14228246D01*
X2041491Y-14228246D02*
X2031967Y-14247293D01*
X2031967Y-14247293D02*
X2031967Y-14285388D01*
X2031967Y-14285388D02*
X2041491Y-14304436D01*
X2041491Y-14304436D02*
X2051015Y-14313960D01*
X2051015Y-14313960D02*
X2070062Y-14323484D01*
X2070062Y-14323484D02*
X2108158Y-14323484D01*
X2108158Y-14323484D02*
X2127205Y-14313960D01*
X2127205Y-14313960D02*
X2136729Y-14304436D01*
X2136729Y-14304436D02*
X2146253Y-14285388D01*
X2146253Y-14285388D02*
X2146253Y-14247293D01*
X2146253Y-14247293D02*
X2136729Y-14228246D01*
X2136729Y-14228246D02*
X2127205Y-14218722D01*
X2127205Y-14218722D02*
X2108158Y-14209198D01*
X2327205Y-14123484D02*
X2231967Y-14123484D01*
X2231967Y-14123484D02*
X2222444Y-14218722D01*
X2222444Y-14218722D02*
X2231967Y-14209198D01*
X2231967Y-14209198D02*
X2251015Y-14199674D01*
X2251015Y-14199674D02*
X2298634Y-14199674D01*
X2298634Y-14199674D02*
X2317682Y-14209198D01*
X2317682Y-14209198D02*
X2327205Y-14218722D01*
X2327205Y-14218722D02*
X2336729Y-14237769D01*
X2336729Y-14237769D02*
X2336729Y-14285388D01*
X2336729Y-14285388D02*
X2327205Y-14304436D01*
X2327205Y-14304436D02*
X2317682Y-14313960D01*
X2317682Y-14313960D02*
X2298634Y-14323484D01*
X2298634Y-14323484D02*
X2251015Y-14323484D01*
X2251015Y-14323484D02*
X2231967Y-14313960D01*
X2231967Y-14313960D02*
X2222444Y-14304436D01*
X2460539Y-14123484D02*
X2479586Y-14123484D01*
X2479586Y-14123484D02*
X2498634Y-14133008D01*
X2498634Y-14133008D02*
X2508158Y-14142531D01*
X2508158Y-14142531D02*
X2517682Y-14161579D01*
X2517682Y-14161579D02*
X2527205Y-14199674D01*
X2527205Y-14199674D02*
X2527205Y-14247293D01*
X2527205Y-14247293D02*
X2517682Y-14285388D01*
X2517682Y-14285388D02*
X2508158Y-14304436D01*
X2508158Y-14304436D02*
X2498634Y-14313960D01*
X2498634Y-14313960D02*
X2479586Y-14323484D01*
X2479586Y-14323484D02*
X2460539Y-14323484D01*
X2460539Y-14323484D02*
X2441491Y-14313960D01*
X2441491Y-14313960D02*
X2431967Y-14304436D01*
X2431967Y-14304436D02*
X2422444Y-14285388D01*
X2422444Y-14285388D02*
X2412920Y-14247293D01*
X2412920Y-14247293D02*
X2412920Y-14199674D01*
X2412920Y-14199674D02*
X2422444Y-14161579D01*
X2422444Y-14161579D02*
X2431967Y-14142531D01*
X2431967Y-14142531D02*
X2441491Y-14133008D01*
X2441491Y-14133008D02*
X2460539Y-14123484D01*
X2612920Y-14323484D02*
X2612920Y-14190150D01*
X2612920Y-14209198D02*
X2622444Y-14199674D01*
X2622444Y-14199674D02*
X2641491Y-14190150D01*
X2641491Y-14190150D02*
X2670063Y-14190150D01*
X2670063Y-14190150D02*
X2689110Y-14199674D01*
X2689110Y-14199674D02*
X2698634Y-14218722D01*
X2698634Y-14218722D02*
X2698634Y-14323484D01*
X2698634Y-14218722D02*
X2708158Y-14199674D01*
X2708158Y-14199674D02*
X2727205Y-14190150D01*
X2727205Y-14190150D02*
X2755777Y-14190150D01*
X2755777Y-14190150D02*
X2774825Y-14199674D01*
X2774825Y-14199674D02*
X2784348Y-14218722D01*
X2784348Y-14218722D02*
X2784348Y-14323484D01*
X2879586Y-14323484D02*
X2879586Y-14190150D01*
X2879586Y-14209198D02*
X2889110Y-14199674D01*
X2889110Y-14199674D02*
X2908158Y-14190150D01*
X2908158Y-14190150D02*
X2936729Y-14190150D01*
X2936729Y-14190150D02*
X2955777Y-14199674D01*
X2955777Y-14199674D02*
X2965301Y-14218722D01*
X2965301Y-14218722D02*
X2965301Y-14323484D01*
X2965301Y-14218722D02*
X2974824Y-14199674D01*
X2974824Y-14199674D02*
X2993872Y-14190150D01*
X2993872Y-14190150D02*
X3022443Y-14190150D01*
X3022443Y-14190150D02*
X3041491Y-14199674D01*
X3041491Y-14199674D02*
X3051015Y-14218722D01*
X3051015Y-14218722D02*
X3051015Y-14323484D01*
X3441491Y-14113960D02*
X3270063Y-14371103D01*
X3698634Y-14123484D02*
X3717682Y-14123484D01*
X3717682Y-14123484D02*
X3736729Y-14133008D01*
X3736729Y-14133008D02*
X3746253Y-14142531D01*
X3746253Y-14142531D02*
X3755777Y-14161579D01*
X3755777Y-14161579D02*
X3765301Y-14199674D01*
X3765301Y-14199674D02*
X3765301Y-14247293D01*
X3765301Y-14247293D02*
X3755777Y-14285388D01*
X3755777Y-14285388D02*
X3746253Y-14304436D01*
X3746253Y-14304436D02*
X3736729Y-14313960D01*
X3736729Y-14313960D02*
X3717682Y-14323484D01*
X3717682Y-14323484D02*
X3698634Y-14323484D01*
X3698634Y-14323484D02*
X3679586Y-14313960D01*
X3679586Y-14313960D02*
X3670063Y-14304436D01*
X3670063Y-14304436D02*
X3660539Y-14285388D01*
X3660539Y-14285388D02*
X3651015Y-14247293D01*
X3651015Y-14247293D02*
X3651015Y-14199674D01*
X3651015Y-14199674D02*
X3660539Y-14161579D01*
X3660539Y-14161579D02*
X3670063Y-14142531D01*
X3670063Y-14142531D02*
X3679586Y-14133008D01*
X3679586Y-14133008D02*
X3698634Y-14123484D01*
X3851015Y-14304436D02*
X3860539Y-14313960D01*
X3860539Y-14313960D02*
X3851015Y-14323484D01*
X3851015Y-14323484D02*
X3841491Y-14313960D01*
X3841491Y-14313960D02*
X3851015Y-14304436D01*
X3851015Y-14304436D02*
X3851015Y-14323484D01*
X3984348Y-14123484D02*
X4003396Y-14123484D01*
X4003396Y-14123484D02*
X4022444Y-14133008D01*
X4022444Y-14133008D02*
X4031967Y-14142531D01*
X4031967Y-14142531D02*
X4041491Y-14161579D01*
X4041491Y-14161579D02*
X4051015Y-14199674D01*
X4051015Y-14199674D02*
X4051015Y-14247293D01*
X4051015Y-14247293D02*
X4041491Y-14285388D01*
X4041491Y-14285388D02*
X4031967Y-14304436D01*
X4031967Y-14304436D02*
X4022444Y-14313960D01*
X4022444Y-14313960D02*
X4003396Y-14323484D01*
X4003396Y-14323484D02*
X3984348Y-14323484D01*
X3984348Y-14323484D02*
X3965301Y-14313960D01*
X3965301Y-14313960D02*
X3955777Y-14304436D01*
X3955777Y-14304436D02*
X3946253Y-14285388D01*
X3946253Y-14285388D02*
X3936729Y-14247293D01*
X3936729Y-14247293D02*
X3936729Y-14199674D01*
X3936729Y-14199674D02*
X3946253Y-14161579D01*
X3946253Y-14161579D02*
X3955777Y-14142531D01*
X3955777Y-14142531D02*
X3965301Y-14133008D01*
X3965301Y-14133008D02*
X3984348Y-14123484D01*
X4117682Y-14123484D02*
X4251015Y-14123484D01*
X4251015Y-14123484D02*
X4165301Y-14323484D01*
X4317682Y-14142531D02*
X4327206Y-14133008D01*
X4327206Y-14133008D02*
X4346253Y-14123484D01*
X4346253Y-14123484D02*
X4393872Y-14123484D01*
X4393872Y-14123484D02*
X4412920Y-14133008D01*
X4412920Y-14133008D02*
X4422444Y-14142531D01*
X4422444Y-14142531D02*
X4431968Y-14161579D01*
X4431968Y-14161579D02*
X4431968Y-14180627D01*
X4431968Y-14180627D02*
X4422444Y-14209198D01*
X4422444Y-14209198D02*
X4308158Y-14323484D01*
X4308158Y-14323484D02*
X4431968Y-14323484D01*
X4546253Y-14209198D02*
X4527206Y-14199674D01*
X4527206Y-14199674D02*
X4517682Y-14190150D01*
X4517682Y-14190150D02*
X4508158Y-14171103D01*
X4508158Y-14171103D02*
X4508158Y-14161579D01*
X4508158Y-14161579D02*
X4517682Y-14142531D01*
X4517682Y-14142531D02*
X4527206Y-14133008D01*
X4527206Y-14133008D02*
X4546253Y-14123484D01*
X4546253Y-14123484D02*
X4584349Y-14123484D01*
X4584349Y-14123484D02*
X4603396Y-14133008D01*
X4603396Y-14133008D02*
X4612920Y-14142531D01*
X4612920Y-14142531D02*
X4622444Y-14161579D01*
X4622444Y-14161579D02*
X4622444Y-14171103D01*
X4622444Y-14171103D02*
X4612920Y-14190150D01*
X4612920Y-14190150D02*
X4603396Y-14199674D01*
X4603396Y-14199674D02*
X4584349Y-14209198D01*
X4584349Y-14209198D02*
X4546253Y-14209198D01*
X4546253Y-14209198D02*
X4527206Y-14218722D01*
X4527206Y-14218722D02*
X4517682Y-14228246D01*
X4517682Y-14228246D02*
X4508158Y-14247293D01*
X4508158Y-14247293D02*
X4508158Y-14285388D01*
X4508158Y-14285388D02*
X4517682Y-14304436D01*
X4517682Y-14304436D02*
X4527206Y-14313960D01*
X4527206Y-14313960D02*
X4546253Y-14323484D01*
X4546253Y-14323484D02*
X4584349Y-14323484D01*
X4584349Y-14323484D02*
X4603396Y-14313960D01*
X4603396Y-14313960D02*
X4612920Y-14304436D01*
X4612920Y-14304436D02*
X4622444Y-14285388D01*
X4622444Y-14285388D02*
X4622444Y-14247293D01*
X4622444Y-14247293D02*
X4612920Y-14228246D01*
X4612920Y-14228246D02*
X4603396Y-14218722D01*
X4603396Y-14218722D02*
X4584349Y-14209198D01*
X4698634Y-14123484D02*
X4698634Y-14161579D01*
X4774825Y-14123484D02*
X4774825Y-14161579D01*
X5070063Y-14399674D02*
X5060539Y-14390150D01*
X5060539Y-14390150D02*
X5041491Y-14361579D01*
X5041491Y-14361579D02*
X5031968Y-14342531D01*
X5031968Y-14342531D02*
X5022444Y-14313960D01*
X5022444Y-14313960D02*
X5012920Y-14266341D01*
X5012920Y-14266341D02*
X5012920Y-14228246D01*
X5012920Y-14228246D02*
X5022444Y-14180627D01*
X5022444Y-14180627D02*
X5031968Y-14152055D01*
X5031968Y-14152055D02*
X5041491Y-14133008D01*
X5041491Y-14133008D02*
X5060539Y-14104436D01*
X5060539Y-14104436D02*
X5070063Y-14094912D01*
X5136730Y-14142531D02*
X5146253Y-14133008D01*
X5146253Y-14133008D02*
X5165301Y-14123484D01*
X5165301Y-14123484D02*
X5212920Y-14123484D01*
X5212920Y-14123484D02*
X5231968Y-14133008D01*
X5231968Y-14133008D02*
X5241491Y-14142531D01*
X5241491Y-14142531D02*
X5251015Y-14161579D01*
X5251015Y-14161579D02*
X5251015Y-14180627D01*
X5251015Y-14180627D02*
X5241491Y-14209198D01*
X5241491Y-14209198D02*
X5127206Y-14323484D01*
X5127206Y-14323484D02*
X5251015Y-14323484D01*
X5365301Y-14209198D02*
X5346253Y-14199674D01*
X5346253Y-14199674D02*
X5336730Y-14190150D01*
X5336730Y-14190150D02*
X5327206Y-14171103D01*
X5327206Y-14171103D02*
X5327206Y-14161579D01*
X5327206Y-14161579D02*
X5336730Y-14142531D01*
X5336730Y-14142531D02*
X5346253Y-14133008D01*
X5346253Y-14133008D02*
X5365301Y-14123484D01*
X5365301Y-14123484D02*
X5403396Y-14123484D01*
X5403396Y-14123484D02*
X5422444Y-14133008D01*
X5422444Y-14133008D02*
X5431968Y-14142531D01*
X5431968Y-14142531D02*
X5441491Y-14161579D01*
X5441491Y-14161579D02*
X5441491Y-14171103D01*
X5441491Y-14171103D02*
X5431968Y-14190150D01*
X5431968Y-14190150D02*
X5422444Y-14199674D01*
X5422444Y-14199674D02*
X5403396Y-14209198D01*
X5403396Y-14209198D02*
X5365301Y-14209198D01*
X5365301Y-14209198D02*
X5346253Y-14218722D01*
X5346253Y-14218722D02*
X5336730Y-14228246D01*
X5336730Y-14228246D02*
X5327206Y-14247293D01*
X5327206Y-14247293D02*
X5327206Y-14285388D01*
X5327206Y-14285388D02*
X5336730Y-14304436D01*
X5336730Y-14304436D02*
X5346253Y-14313960D01*
X5346253Y-14313960D02*
X5365301Y-14323484D01*
X5365301Y-14323484D02*
X5403396Y-14323484D01*
X5403396Y-14323484D02*
X5422444Y-14313960D01*
X5422444Y-14313960D02*
X5431968Y-14304436D01*
X5431968Y-14304436D02*
X5441491Y-14285388D01*
X5441491Y-14285388D02*
X5441491Y-14247293D01*
X5441491Y-14247293D02*
X5431968Y-14228246D01*
X5431968Y-14228246D02*
X5422444Y-14218722D01*
X5422444Y-14218722D02*
X5403396Y-14209198D01*
X5679587Y-14323484D02*
X5679587Y-14123484D01*
X5765301Y-14323484D02*
X5765301Y-14218722D01*
X5765301Y-14218722D02*
X5755777Y-14199674D01*
X5755777Y-14199674D02*
X5736730Y-14190150D01*
X5736730Y-14190150D02*
X5708158Y-14190150D01*
X5708158Y-14190150D02*
X5689110Y-14199674D01*
X5689110Y-14199674D02*
X5679587Y-14209198D01*
X5889110Y-14323484D02*
X5870063Y-14313960D01*
X5870063Y-14313960D02*
X5860539Y-14304436D01*
X5860539Y-14304436D02*
X5851015Y-14285388D01*
X5851015Y-14285388D02*
X5851015Y-14228246D01*
X5851015Y-14228246D02*
X5860539Y-14209198D01*
X5860539Y-14209198D02*
X5870063Y-14199674D01*
X5870063Y-14199674D02*
X5889110Y-14190150D01*
X5889110Y-14190150D02*
X5917682Y-14190150D01*
X5917682Y-14190150D02*
X5936730Y-14199674D01*
X5936730Y-14199674D02*
X5946253Y-14209198D01*
X5946253Y-14209198D02*
X5955777Y-14228246D01*
X5955777Y-14228246D02*
X5955777Y-14285388D01*
X5955777Y-14285388D02*
X5946253Y-14304436D01*
X5946253Y-14304436D02*
X5936730Y-14313960D01*
X5936730Y-14313960D02*
X5917682Y-14323484D01*
X5917682Y-14323484D02*
X5889110Y-14323484D01*
X6070063Y-14323484D02*
X6051015Y-14313960D01*
X6051015Y-14313960D02*
X6041491Y-14294912D01*
X6041491Y-14294912D02*
X6041491Y-14123484D01*
X6222444Y-14313960D02*
X6203396Y-14323484D01*
X6203396Y-14323484D02*
X6165301Y-14323484D01*
X6165301Y-14323484D02*
X6146253Y-14313960D01*
X6146253Y-14313960D02*
X6136730Y-14294912D01*
X6136730Y-14294912D02*
X6136730Y-14218722D01*
X6136730Y-14218722D02*
X6146253Y-14199674D01*
X6146253Y-14199674D02*
X6165301Y-14190150D01*
X6165301Y-14190150D02*
X6203396Y-14190150D01*
X6203396Y-14190150D02*
X6222444Y-14199674D01*
X6222444Y-14199674D02*
X6231968Y-14218722D01*
X6231968Y-14218722D02*
X6231968Y-14237769D01*
X6231968Y-14237769D02*
X6136730Y-14256817D01*
X6308158Y-14313960D02*
X6327206Y-14323484D01*
X6327206Y-14323484D02*
X6365301Y-14323484D01*
X6365301Y-14323484D02*
X6384349Y-14313960D01*
X6384349Y-14313960D02*
X6393872Y-14294912D01*
X6393872Y-14294912D02*
X6393872Y-14285388D01*
X6393872Y-14285388D02*
X6384349Y-14266341D01*
X6384349Y-14266341D02*
X6365301Y-14256817D01*
X6365301Y-14256817D02*
X6336730Y-14256817D01*
X6336730Y-14256817D02*
X6317682Y-14247293D01*
X6317682Y-14247293D02*
X6308158Y-14228246D01*
X6308158Y-14228246D02*
X6308158Y-14218722D01*
X6308158Y-14218722D02*
X6317682Y-14199674D01*
X6317682Y-14199674D02*
X6336730Y-14190150D01*
X6336730Y-14190150D02*
X6365301Y-14190150D01*
X6365301Y-14190150D02*
X6384349Y-14199674D01*
X6460539Y-14399674D02*
X6470063Y-14390150D01*
X6470063Y-14390150D02*
X6489111Y-14361579D01*
X6489111Y-14361579D02*
X6498634Y-14342531D01*
X6498634Y-14342531D02*
X6508158Y-14313960D01*
X6508158Y-14313960D02*
X6517682Y-14266341D01*
X6517682Y-14266341D02*
X6517682Y-14228246D01*
X6517682Y-14228246D02*
X6508158Y-14180627D01*
X6508158Y-14180627D02*
X6498634Y-14152055D01*
X6498634Y-14152055D02*
X6489111Y-14133008D01*
X6489111Y-14133008D02*
X6470063Y-14104436D01*
X6470063Y-14104436D02*
X6460539Y-14094912D01*
M02*
