M48
; DRILL file {KiCad 8.0.6} date 2025-01-14T04:22:05-0600
; FORMAT={-:-/ absolute / metric / decimal}
; #@! TF.CreationDate,2025-01-14T04:22:05-06:00
; #@! TF.GenerationSoftware,Kicad,Pcbnew,8.0.6
; #@! TF.FileFunction,Plated,1,2,PTH
FMAT,2
METRIC
; #@! TA.AperFunction,Plated,PTH,ViaDrill
T1C0.305
; #@! TA.AperFunction,Plated,PTH,ComponentDrill
T2C0.750
; #@! TA.AperFunction,Plated,PTH,ComponentDrill
T3C1.000
; #@! TA.AperFunction,Plated,PTH,ComponentDrill
T4C1.750
; #@! TA.AperFunction,Plated,PTH,ComponentDrill
T5C1.850
%
G90
G05
T1
X18.4Y-33.0
X20.48Y-48.15
X25.29Y-38.12
X26.592Y-39.422
X29.768Y-33.0
X29.778Y-37.47
X29.778Y-38.588
X29.778Y-40.17
X30.16Y-35.703
X30.949Y-36.49
X31.332Y-33.0
X31.355Y-40.17
X31.672Y-53.72
X31.672Y-62.14
X31.861Y-37.471
X31.87Y-38.589
X37.658Y-75.022
X38.773Y-73.907
X39.408Y-36.158
X40.711Y-37.461
X41.01Y-97.99
X42.442Y-77.108
X45.54Y-41.498
X45.54Y-43.695
X45.674Y-72.314
X47.222Y-73.872
X49.3Y-33.85
X52.37Y-61.035
X52.37Y-63.232
X58.87Y-36.95
X58.87Y-40.017
X58.87Y-44.701
X59.73Y-36.95
X59.73Y-40.017
X59.73Y-44.701
X63.99Y-34.756
X63.99Y-36.597
X65.46Y-100.335
X65.46Y-102.532
X65.72Y-61.035
X65.72Y-63.232
X66.94Y-41.498
X66.94Y-43.682
X66.948Y-36.584
X66.948Y-46.07
X66.948Y-49.94
X67.702Y-41.498
X67.702Y-43.682
X67.71Y-36.584
X67.71Y-46.07
X67.71Y-49.94
X68.74Y-103.526
X68.74Y-105.367
X69.191Y-96.539
X71.0Y-41.498
X71.0Y-43.695
X71.085Y-94.645
X71.12Y-100.348
X71.121Y-103.051
X71.679Y-99.829
X71.679Y-102.532
X72.276Y-107.234
X72.334Y-102.92
X72.35Y-100.348
X73.093Y-100.011
X73.093Y-102.532
X74.14Y-33.0
X74.248Y-39.48
X74.82Y-34.756
X74.82Y-36.584
X74.82Y-41.498
X74.855Y-104.655
X75.58Y-43.682
X75.58Y-46.03
X75.58Y-49.79
X75.58Y-54.541
X75.58Y-56.014
X75.58Y-61.048
X75.58Y-63.232
X75.582Y-34.756
X75.582Y-36.584
X75.582Y-41.498
X76.121Y-33.0
X76.141Y-39.48
X77.13Y-44.73
X93.44Y-75.211
X93.44Y-76.341
X96.5Y-105.9
X97.516Y-106.908
X98.386Y-107.619
X98.76Y-54.541
X98.76Y-56.027
X99.77Y-34.756
X99.77Y-36.597
X99.883Y-107.033
X99.9Y-41.498
X99.9Y-43.695
X101.448Y-108.229
X101.49Y-108.99
X101.524Y-107.471
X101.6Y-19.45
X102.14Y-100.348
X102.14Y-102.545
X102.258Y-107.26
X106.92Y-61.035
X106.92Y-63.232
X111.02Y-47.238
X111.02Y-48.815
X113.069Y-83.959
X114.184Y-85.074
X114.33Y-109.089
X114.35Y-105.45
X118.579Y-35.11
X118.803Y-78.243
X119.699Y-36.229
X119.909Y-79.349
X121.9Y-35.111
X121.9Y-36.584
X123.773Y-60.193
X124.312Y-59.654
X124.41Y-39.23
X124.543Y-72.503
X125.317Y-61.737
X125.627Y-105.173
X125.633Y-106.291
X125.633Y-107.415
X125.645Y-108.549
X125.658Y-73.618
X125.856Y-61.198
X126.148Y-105.73
X126.148Y-106.853
X126.148Y-107.977
X126.34Y-34.756
X126.34Y-36.597
X126.938Y-71.837
X126.94Y-70.723
X127.87Y-42.05
X127.88Y-61.251
X127.88Y-62.737
X128.332Y-105.169
X128.332Y-106.287
X128.332Y-107.418
X128.332Y-108.54
X128.84Y-33.0
X128.844Y-106.851
X128.849Y-107.978
X128.858Y-105.734
X129.592Y-35.302
X129.948Y-32.898
X131.442Y-33.002
X132.703Y-64.413
X133.818Y-65.528
X133.833Y-63.301
X133.901Y-49.441
X134.372Y-62.762
X134.509Y-50.049
X134.939Y-64.407
X135.478Y-63.868
X135.65Y-54.575
X135.65Y-56.772
X136.21Y-113.223
X136.21Y-115.42
X136.676Y-46.666
X137.284Y-47.274
X137.738Y-59.378
X138.76Y-65.241
X138.76Y-66.727
X138.853Y-60.493
X140.493Y-56.153
X142.008Y-54.658
X142.66Y-104.15
X142.66Y-109.095
X143.35Y-80.983
X143.35Y-82.113
X143.582Y-56.232
X144.998Y-59.192
X145.3Y-33.0
X145.601Y-56.239
X145.824Y-60.018
X146.363Y-60.557
X146.546Y-57.634
X146.66Y-45.09
X146.66Y-45.95
X147.368Y-58.474
X147.402Y-33.002
X147.537Y-46.98
X147.907Y-59.013
X149.114Y-46.98
X149.418Y-32.34
X149.62Y-34.475
X150.18Y-32.34
X150.18Y-35.0
X152.314Y-47.964
X153.867Y-49.517
X155.993Y-105.173
X156.06Y-106.291
X156.061Y-107.41
X156.068Y-108.537
X156.565Y-72.92
X156.565Y-94.84
X156.565Y-112.86
X156.578Y-81.54
X156.578Y-105.732
X156.578Y-106.85
X156.578Y-107.97
X156.601Y-48.439
X157.202Y-36.072
X157.209Y-47.831
X157.67Y-120.0
X157.67Y-122.845
X158.317Y-37.187
X158.762Y-72.92
X158.762Y-81.54
X158.762Y-94.84
X158.762Y-106.293
X158.762Y-107.411
X158.762Y-108.53
X158.762Y-112.86
X158.778Y-105.169
X159.1Y-19.89
X159.226Y-18.774
X159.279Y-107.97
X159.284Y-106.852
X159.286Y-105.737
X161.2Y-28.693
X161.2Y-31.246
X165.7Y-30.941
X167.2Y-24.6
X167.35Y-21.65
X167.589Y-30.189
X171.73Y-29.061
X172.3Y-30.89
X172.479Y-28.918
X172.95Y-20.15
X173.24Y-29.061
X173.24Y-30.903
X174.8Y-24.95
X174.85Y-24.15
X174.9Y-23.4
X175.05Y-35.586
X175.2Y-19.4
X176.04Y-51.35
X176.04Y-52.21
X176.05Y-20.55
X176.2Y-24.95
X176.25Y-24.15
X176.3Y-23.4
X177.552Y-36.052
X178.417Y-55.873
X178.956Y-56.412
X179.523Y-54.767
X180.062Y-55.306
X180.8Y-51.35
X180.8Y-52.21
X181.469Y-27.763
X182.63Y-32.009
X182.63Y-36.91
X182.672Y-27.653
X183.433Y-27.613
X183.46Y-26.85
X183.89Y-39.928
X183.89Y-41.505
X184.0Y-115.28
X184.0Y-116.72
X184.223Y-26.823
X184.581Y-29.553
X185.343Y-29.524
X185.372Y-28.762
X186.136Y-28.736
X186.469Y-54.822
X186.49Y-54.06
X191.95Y-47.1
X194.811Y-64.211
X195.345Y-64.939
X199.0Y-51.8
X199.7Y-51.5
X199.91Y-110.91
X201.48Y-33.7
X203.835Y-39.65
X204.44Y-79.534
X204.44Y-81.099
X204.94Y-37.179
X204.94Y-43.51
X204.94Y-52.83
X206.032Y-39.65
X206.965Y-101.003
X207.57Y-33.66
X207.727Y-100.977
X207.76Y-100.216
X208.438Y-102.478
X208.521Y-100.182
X208.553Y-99.421
X209.2Y-102.45
X209.228Y-101.688
X209.315Y-99.389
X209.6Y-98.5
X209.993Y-101.663
X210.023Y-100.893
X210.79Y-100.87
X211.1Y-99.95
X211.955Y-92.43
X212.294Y-79.868
X212.524Y-115.92
X213.082Y-80.656
X213.532Y-92.43
X214.01Y-34.468
X214.01Y-36.849
X216.32Y-79.538
X216.32Y-81.115
X219.85Y-74.531
X219.85Y-81.432
X223.35Y-103.98
X223.76Y-99.123
X225.644Y-115.92
X228.2Y-98.45
X228.2Y-99.783
X229.244Y-94.156
X230.797Y-92.603
X232.05Y-16.395
X233.948Y-98.842
X234.25Y-33.0
X235.492Y-97.108
X236.463Y-33.003
X242.03Y-103.712
X242.05Y-100.1
X246.277Y-36.967
X247.383Y-38.073
X249.75Y-121.7
X249.79Y-119.13
X256.7Y-33.84
X257.887Y-48.907
X258.426Y-48.368
X258.993Y-50.013
X259.532Y-49.474
X260.671Y-37.021
X261.47Y-37.82
X262.19Y-43.23
X262.7Y-33.66
X264.55Y-45.59
X266.27Y-34.28
X267.13Y-34.28
X267.696Y-49.726
X268.487Y-50.517
X270.37Y-96.15
X270.37Y-97.483
X273.14Y-106.89
X273.518Y-37.75
X273.531Y-33.0
X275.36Y-33.0
X275.36Y-37.75
X277.4Y-79.3
X278.3Y-17.164
X278.498Y-95.525
X278.5Y-80.5
X278.583Y-97.493
X279.25Y-95.65
X279.3Y-97.75
X284.17Y-33.0
X288.623Y-28.587
X289.738Y-27.472
X291.94Y-121.408
X291.95Y-46.5
X291.95Y-84.06
X291.95Y-96.137
X291.95Y-97.47
X291.961Y-114.022
X291.987Y-117.817
X293.04Y-83.4
X293.2Y-97.5
X294.32Y-96.06
X294.35Y-83.3
X294.444Y-54.204
X295.387Y-55.147
X295.65Y-97.55
X295.72Y-83.4
X295.72Y-96.06
X296.95Y-54.753
X296.95Y-95.4
X296.954Y-84.06
X296.96Y-53.407
X300.75Y-88.05
X300.8Y-86.15
X302.024Y-77.61
X303.3Y-86.15
X303.3Y-88.05
X304.784Y-61.12
X304.98Y-46.4
X304.98Y-53.407
X309.73Y-63.55
X311.134Y-76.83
X311.36Y-53.21
X313.0Y-46.4
X313.0Y-95.4
T2
X21.999Y-45.148
X21.999Y-47.148
X21.999Y-49.148
X21.999Y-51.148
X21.999Y-53.148
X21.999Y-57.148
X21.999Y-59.148
X21.999Y-61.148
X21.999Y-63.148
X23.999Y-44.148
X23.999Y-46.148
X23.999Y-48.148
X23.999Y-50.148
X23.999Y-52.148
X23.999Y-54.148
X23.999Y-58.148
X23.999Y-60.148
X23.999Y-62.148
X26.499Y-44.148
X26.499Y-46.148
X26.499Y-48.148
X26.499Y-50.148
X26.499Y-52.148
X26.499Y-54.148
X26.499Y-58.148
X26.499Y-60.148
X26.499Y-62.148
X28.499Y-45.148
X28.499Y-47.148
X28.499Y-49.148
X28.499Y-51.148
X28.499Y-53.148
X28.499Y-57.148
X28.499Y-59.148
X28.499Y-61.148
X28.499Y-63.148
X34.472Y-88.44
X34.472Y-90.44
X34.472Y-92.44
X34.472Y-94.44
X34.472Y-96.44
X34.472Y-100.44
X34.472Y-102.44
X34.472Y-104.44
X34.472Y-106.44
X36.472Y-87.44
X36.472Y-89.44
X36.472Y-91.44
X36.472Y-93.44
X36.472Y-95.44
X36.472Y-97.44
X36.472Y-101.44
X36.472Y-103.44
X36.472Y-105.44
X38.972Y-87.44
X38.972Y-89.44
X38.972Y-91.44
X38.972Y-93.44
X38.972Y-95.44
X38.972Y-97.44
X38.972Y-101.44
X38.972Y-103.44
X38.972Y-105.44
X40.972Y-88.44
X40.972Y-90.44
X40.972Y-92.44
X40.972Y-94.44
X40.972Y-96.44
X40.972Y-100.44
X40.972Y-102.44
X40.972Y-104.44
X40.972Y-106.44
X133.107Y-37.288
X133.107Y-43.788
X134.107Y-39.288
X134.107Y-41.788
X135.107Y-37.288
X135.107Y-43.788
X136.107Y-39.288
X136.107Y-41.788
X137.107Y-37.288
X137.107Y-43.788
X138.107Y-39.288
X138.107Y-41.788
X139.107Y-37.288
X139.107Y-43.788
X142.107Y-39.288
X142.107Y-41.788
X143.107Y-37.288
X143.107Y-43.788
X144.107Y-39.288
X144.107Y-41.788
X145.107Y-37.288
X145.107Y-43.788
X146.107Y-39.288
X146.107Y-41.788
X147.107Y-37.288
X147.107Y-43.788
X148.107Y-39.288
X148.107Y-41.788
X149.107Y-37.288
X149.107Y-43.788
X150.107Y-39.288
X150.107Y-41.788
X151.107Y-37.288
X151.107Y-43.788
X152.107Y-39.288
X152.107Y-41.788
X163.107Y-37.288
X163.107Y-43.788
X164.107Y-39.288
X164.107Y-41.788
X165.107Y-37.288
X165.107Y-43.788
X166.107Y-39.288
X166.107Y-41.788
X167.107Y-37.288
X167.107Y-43.788
X168.107Y-39.288
X168.107Y-41.788
X169.107Y-37.288
X169.107Y-43.788
X172.107Y-39.288
X172.107Y-41.788
X173.107Y-37.288
X173.107Y-43.788
X174.107Y-39.288
X174.107Y-41.788
X175.107Y-37.288
X175.107Y-43.788
X176.107Y-39.288
X176.107Y-41.788
X177.107Y-37.288
X177.107Y-43.788
X178.107Y-39.288
X178.107Y-41.788
X179.107Y-37.288
X179.107Y-43.788
X180.107Y-39.288
X180.107Y-41.788
X181.107Y-37.288
X181.107Y-43.788
X182.107Y-39.288
X182.107Y-41.788
X191.14Y-42.176
X191.14Y-44.176
X191.14Y-46.176
X191.14Y-48.176
X191.14Y-50.176
X191.14Y-54.176
X191.14Y-56.176
X191.14Y-58.176
X191.14Y-60.176
X191.14Y-77.541
X191.14Y-79.541
X191.14Y-81.541
X191.14Y-83.541
X191.14Y-85.541
X191.14Y-89.541
X191.14Y-91.541
X191.14Y-93.541
X191.14Y-95.541
X193.14Y-41.176
X193.14Y-43.176
X193.14Y-45.176
X193.14Y-47.176
X193.14Y-49.176
X193.14Y-51.176
X193.14Y-55.176
X193.14Y-57.176
X193.14Y-59.176
X193.14Y-76.541
X193.14Y-78.541
X193.14Y-80.541
X193.14Y-82.541
X193.14Y-84.541
X193.14Y-86.541
X193.14Y-90.541
X193.14Y-92.541
X193.14Y-94.541
X195.64Y-41.176
X195.64Y-43.176
X195.64Y-45.176
X195.64Y-47.176
X195.64Y-49.176
X195.64Y-51.176
X195.64Y-55.176
X195.64Y-57.176
X195.64Y-59.176
X195.64Y-76.541
X195.64Y-78.541
X195.64Y-80.541
X195.64Y-82.541
X195.64Y-84.541
X195.64Y-86.541
X195.64Y-90.541
X195.64Y-92.541
X195.64Y-94.541
X197.64Y-42.176
X197.64Y-44.176
X197.64Y-46.176
X197.64Y-48.176
X197.64Y-50.176
X197.64Y-54.176
X197.64Y-56.176
X197.64Y-58.176
X197.64Y-60.176
X197.64Y-77.541
X197.64Y-79.541
X197.64Y-81.541
X197.64Y-83.541
X197.64Y-85.541
X197.64Y-89.541
X197.64Y-91.541
X197.64Y-93.541
X197.64Y-95.541
T3
X99.02Y-28.11
X99.02Y-30.65
X101.56Y-28.11
X101.56Y-30.65
X104.1Y-28.11
X104.1Y-30.65
X164.57Y-27.1
X167.11Y-27.1
X169.65Y-27.1
X229.5Y-27.96
X229.5Y-30.5
X232.04Y-27.96
X232.04Y-30.5
X234.58Y-27.96
X234.58Y-30.5
T4
X49.3Y-20.45
X49.3Y-28.45
X51.3Y-24.45
X53.3Y-20.45
X53.3Y-28.45
X55.3Y-24.45
X57.3Y-20.45
X57.3Y-28.45
X59.3Y-24.45
X61.3Y-20.45
X61.3Y-28.45
X63.3Y-24.45
X65.3Y-20.45
X65.3Y-28.45
X67.3Y-24.45
X69.3Y-20.45
X69.3Y-28.45
X71.3Y-24.45
X73.3Y-20.45
X73.3Y-28.45
X75.3Y-24.45
X77.3Y-20.45
X77.3Y-28.45
X256.7Y-20.5
X256.7Y-28.5
X256.7Y-111.5
X256.7Y-119.5
X258.7Y-24.5
X258.7Y-115.5
X260.7Y-20.5
X260.7Y-28.5
X260.7Y-111.5
X260.7Y-119.5
X262.7Y-24.5
X262.7Y-115.5
X264.7Y-20.5
X264.7Y-28.5
X264.7Y-111.5
X264.7Y-119.5
X266.7Y-24.5
X266.7Y-115.5
X268.7Y-20.5
X268.7Y-28.5
X268.7Y-111.5
X268.7Y-119.5
X270.7Y-24.5
X270.7Y-115.5
X272.7Y-20.5
X272.7Y-28.5
X272.7Y-111.5
X272.7Y-119.5
X274.7Y-24.5
X274.7Y-115.5
X276.7Y-20.5
X276.7Y-28.5
X276.7Y-111.5
X276.7Y-119.5
X278.7Y-24.5
X278.7Y-115.5
X280.7Y-20.5
X280.7Y-28.5
X280.7Y-111.5
X280.7Y-119.5
X282.7Y-24.5
X282.7Y-115.5
X284.7Y-20.5
X284.7Y-28.5
X284.7Y-111.5
X284.7Y-119.5
T5
X126.433Y-20.55
X126.433Y-28.55
X128.433Y-24.55
X130.433Y-20.55
X130.433Y-28.55
X132.433Y-24.55
X134.433Y-20.55
X134.433Y-28.55
X136.433Y-24.55
X138.433Y-20.55
X138.433Y-28.55
X140.433Y-24.55
X142.433Y-20.55
X142.433Y-28.55
X191.567Y-20.55
X191.567Y-28.55
X193.567Y-24.55
X195.567Y-20.55
X195.567Y-28.55
X197.567Y-24.55
X199.567Y-20.55
X199.567Y-28.55
X201.567Y-24.55
X203.567Y-20.55
X203.567Y-28.55
X205.567Y-24.55
X207.567Y-20.55
X207.567Y-28.55
M30
