G04 #@! TF.GenerationSoftware,KiCad,Pcbnew,8.0.6*
G04 #@! TF.CreationDate,2025-01-14T04:21:59-06:00*
G04 #@! TF.ProjectId,nostril,6e6f7374-7269-46c2-9e6b-696361645f70,3.4*
G04 #@! TF.SameCoordinates,Original*
G04 #@! TF.FileFunction,Paste,Top*
G04 #@! TF.FilePolarity,Positive*
%FSLAX46Y46*%
G04 Gerber Fmt 4.6, Leading zero omitted, Abs format (unit mm)*
G04 Created by KiCad (PCBNEW 8.0.6) date 2025-01-14 04:21:59*
%MOMM*%
%LPD*%
G01*
G04 APERTURE LIST*
G04 Aperture macros list*
%AMRoundRect*
0 Rectangle with rounded corners*
0 $1 Rounding radius*
0 $2 $3 $4 $5 $6 $7 $8 $9 X,Y pos of 4 corners*
0 Add a 4 corners polygon primitive as box body*
4,1,4,$2,$3,$4,$5,$6,$7,$8,$9,$2,$3,0*
0 Add four circle primitives for the rounded corners*
1,1,$1+$1,$2,$3*
1,1,$1+$1,$4,$5*
1,1,$1+$1,$6,$7*
1,1,$1+$1,$8,$9*
0 Add four rect primitives between the rounded corners*
20,1,$1+$1,$2,$3,$4,$5,0*
20,1,$1+$1,$4,$5,$6,$7,0*
20,1,$1+$1,$6,$7,$8,$9,0*
20,1,$1+$1,$8,$9,$2,$3,0*%
G04 Aperture macros list end*
%ADD10R,4.500000X3.000000*%
%ADD11R,0.900000X2.500000*%
%ADD12R,1.200000X1.200000*%
%ADD13RoundRect,0.250000X-0.650000X0.325000X-0.650000X-0.325000X0.650000X-0.325000X0.650000X0.325000X0*%
%ADD14R,4.500000X2.600000*%
%ADD15R,0.700000X1.522000*%
%ADD16R,2.300000X2.300000*%
%ADD17C,6.200000*%
%ADD18RoundRect,0.250000X0.650000X-0.325000X0.650000X0.325000X-0.650000X0.325000X-0.650000X-0.325000X0*%
%ADD19RoundRect,0.225000X-0.250000X0.225000X-0.250000X-0.225000X0.250000X-0.225000X0.250000X0.225000X0*%
%ADD20RoundRect,0.200000X0.200000X0.275000X-0.200000X0.275000X-0.200000X-0.275000X0.200000X-0.275000X0*%
%ADD21R,3.180001X2.561399*%
%ADD22RoundRect,0.225000X-0.225000X-0.250000X0.225000X-0.250000X0.225000X0.250000X-0.225000X0.250000X0*%
%ADD23RoundRect,0.200000X-0.275000X0.200000X-0.275000X-0.200000X0.275000X-0.200000X0.275000X0.200000X0*%
%ADD24RoundRect,0.150000X-0.587500X-0.150000X0.587500X-0.150000X0.587500X0.150000X-0.587500X0.150000X0*%
%ADD25RoundRect,0.200000X-0.200000X-0.275000X0.200000X-0.275000X0.200000X0.275000X-0.200000X0.275000X0*%
%ADD26RoundRect,0.050000X-0.450000X0.525000X-0.450000X-0.525000X0.450000X-0.525000X0.450000X0.525000X0*%
G04 APERTURE END LIST*
D10*
X170887000Y-110915000D03*
D11*
X306427000Y-92399646D03*
X303527000Y-92399646D03*
D10*
X223347000Y-110915000D03*
D12*
X211282000Y-115915000D03*
X209182000Y-115915000D03*
D11*
X303527000Y-49399646D03*
X306427000Y-49399646D03*
D13*
X311134000Y-73054646D03*
X311134000Y-76004646D03*
D14*
X302954000Y-66869646D03*
X302954000Y-74869646D03*
D15*
X307072000Y-61113646D03*
X308342000Y-61113646D03*
X309612000Y-61113646D03*
X310882000Y-61113646D03*
X310882000Y-55685646D03*
X309612000Y-55685646D03*
X308342000Y-55685646D03*
X307072000Y-55685646D03*
D16*
X308977000Y-58399646D03*
D10*
X210232000Y-110915000D03*
D17*
X256640000Y-84688000D03*
X142461000Y-119000000D03*
D18*
X311134000Y-80604646D03*
X311134000Y-77654646D03*
D19*
X304750000Y-57775000D03*
X304750000Y-59325000D03*
D20*
X224172000Y-114335000D03*
X222522000Y-114335000D03*
D21*
X302034000Y-81031346D03*
X302034000Y-87107946D03*
D20*
X211057000Y-114335000D03*
X209407000Y-114335000D03*
D22*
X310424000Y-69729646D03*
X311974000Y-69729646D03*
D10*
X184002000Y-110915000D03*
D17*
X278650000Y-51288000D03*
D12*
X224397000Y-115915000D03*
X222297000Y-115915000D03*
D23*
X167250000Y-22925000D03*
X167250000Y-24575000D03*
D17*
X171756999Y-98688001D03*
D24*
X171025000Y-19200000D03*
X171025000Y-21100000D03*
X172900000Y-20150000D03*
D25*
X310374000Y-71189646D03*
X312024000Y-71189646D03*
D17*
X124846969Y-53798500D03*
D22*
X310329000Y-50629646D03*
X311879000Y-50629646D03*
D26*
X168765000Y-19357500D03*
X165085000Y-19357500D03*
X165085000Y-21087500D03*
X168765000Y-21087500D03*
D22*
X310329000Y-52089646D03*
X311879000Y-52089646D03*
D20*
X312024000Y-66809646D03*
X310374000Y-66809646D03*
D17*
X124846969Y-95975000D03*
D10*
X197117000Y-110915000D03*
M02*
