%TF.GenerationSoftware,KiCad,Pcbnew,8.0.6-8.0.6-0~ubuntu22.04.1*%
%TF.CreationDate,2024-10-29T19:31:54-04:00*%
%TF.ProjectId,power_therm,706f7765-725f-4746-9865-726d2e6b6963,rev?*%
%TF.SameCoordinates,Original*%
%TF.FileFunction,Copper,L2,Inr*%
%TF.FilePolarity,Positive*%
%FSLAX46Y46*%
G04 Gerber Fmt 4.6, Leading zero omitted, Abs format (unit mm)*
G04 Created by KiCad (PCBNEW 8.0.6-8.0.6-0~ubuntu22.04.1) date 2024-10-29 19:31:54*
%MOMM*%
%LPD*%
G01*
G04 APERTURE LIST*
%TA.AperFunction,ComponentPad*%
%ADD10C,2.000000*%
%TD*%
%TA.AperFunction,ComponentPad*%
%ADD11C,1.163000*%
%TD*%
%TA.AperFunction,ViaPad*%
%ADD12C,0.800000*%
%TD*%
%TA.AperFunction,ViaPad*%
%ADD13C,0.600000*%
%TD*%
G04 APERTURE END LIST*
D10*
%TO.N,CELL17*%
%TO.C,TP2*%
X451865981Y-67437000D03*
X451865981Y-69977000D03*
X451865981Y-72517000D03*
X451865981Y-75057000D03*
X451865981Y-77597000D03*
X454405981Y-67437000D03*
X454405981Y-69977000D03*
X454405981Y-72517000D03*
X454405981Y-75057000D03*
X454405981Y-77597000D03*
X456945981Y-67437000D03*
X456945981Y-69977000D03*
X456945981Y-72517000D03*
X456945981Y-75057000D03*
X456945981Y-77597000D03*
X459485981Y-67437000D03*
X459485981Y-69977000D03*
X459485981Y-72517000D03*
X459485981Y-75057000D03*
X459485981Y-77597000D03*
X462025981Y-67437000D03*
X462025981Y-69977000D03*
X462025981Y-72517000D03*
X462025981Y-75057000D03*
X462025981Y-77597000D03*
%TD*%
%TO.N,GND*%
%TO.C,TP1*%
X65023981Y-67437000D03*
X65023981Y-69977000D03*
X65023981Y-72517000D03*
X65023981Y-75057000D03*
X65023981Y-77597000D03*
X67563981Y-67437000D03*
X67563981Y-69977000D03*
X67563981Y-72517000D03*
X67563981Y-75057000D03*
X67563981Y-77597000D03*
X70103981Y-67437000D03*
X70103981Y-69977000D03*
X70103981Y-72517000D03*
X70103981Y-75057000D03*
X70103981Y-77597000D03*
X72643981Y-67437000D03*
X72643981Y-69977000D03*
X72643981Y-72517000D03*
X72643981Y-75057000D03*
X72643981Y-77597000D03*
X75183981Y-67437000D03*
X75183981Y-69977000D03*
X75183981Y-72517000D03*
X75183981Y-75057000D03*
X75183981Y-77597000D03*
%TD*%
D11*
%TO.N,Therm17*%
%TO.C,J2*%
X355000000Y-47000000D03*
%TO.N,GND*%
X355000000Y-49000000D03*
%TO.N,Therm16*%
X357000000Y-47000000D03*
%TO.N,Therm1*%
X357000000Y-49000000D03*
%TO.N,Therm15*%
X359000000Y-47000000D03*
%TO.N,Therm2*%
X359000000Y-49000000D03*
%TO.N,Therm14*%
X361000000Y-47000000D03*
%TO.N,Therm3*%
X361000000Y-49000000D03*
%TO.N,GND*%
X363000000Y-47000000D03*
%TO.N,Therm4*%
X363000000Y-49000000D03*
%TO.N,Therm13*%
X365000000Y-47000000D03*
%TO.N,Therm5*%
X365000000Y-49000000D03*
%TO.N,Therm12*%
X367000000Y-47000000D03*
%TO.N,Therm6*%
X367000000Y-49000000D03*
%TO.N,Therm11*%
X369000000Y-47000000D03*
%TO.N,Therm7*%
X369000000Y-49000000D03*
%TO.N,Therm10*%
X371000000Y-47000000D03*
%TO.N,Therm8*%
X371000000Y-49000000D03*
%TO.N,Therm9*%
X373000000Y-47000000D03*
%TO.N,GND*%
X373000000Y-49000000D03*
%TO.N,N/C*%
X352075000Y-48000000D03*
X375925000Y-48000000D03*
%TD*%
%TO.N,CELL7*%
%TO.C,J4*%
X271000000Y-47000000D03*
%TO.N,CELL8*%
X271000000Y-49000000D03*
%TO.N,CELL6*%
X273000000Y-47000000D03*
%TO.N,CELL9*%
X273000000Y-49000000D03*
%TO.N,CELL5*%
X275000000Y-47000000D03*
%TO.N,CELL10*%
X275000000Y-49000000D03*
%TO.N,CELL4*%
X277000000Y-47000000D03*
%TO.N,CELL11*%
X277000000Y-49000000D03*
%TO.N,CELL3*%
X279000000Y-47000000D03*
%TO.N,CELL12*%
X279000000Y-49000000D03*
%TO.N,CELL2*%
X281000000Y-47000000D03*
%TO.N,CELL13*%
X281000000Y-49000000D03*
%TO.N,CELL1*%
X283000000Y-47000000D03*
%TO.N,CELL14*%
X283000000Y-49000000D03*
%TO.N,unconnected-(J4-Pad15)*%
X285000000Y-47000000D03*
%TO.N,CELL15*%
X285000000Y-49000000D03*
%TO.N,unconnected-(J4-Pad17)*%
X287000000Y-47000000D03*
%TO.N,CELL16*%
X287000000Y-49000000D03*
%TO.N,unconnected-(J4-Pad19)*%
X289000000Y-47000000D03*
%TO.N,CELL17*%
X289000000Y-49000000D03*
%TO.N,N/C*%
X268075000Y-48000000D03*
X291925000Y-48000000D03*
%TD*%
%TO.N,Therm34*%
%TO.C,J3*%
X391000000Y-47000000D03*
%TO.N,GND*%
X391000000Y-49000000D03*
%TO.N,Therm33*%
X393000000Y-47000000D03*
%TO.N,Therm18*%
X393000000Y-49000000D03*
%TO.N,Therm32*%
X395000000Y-47000000D03*
%TO.N,Therm19*%
X395000000Y-49000000D03*
%TO.N,Therm31*%
X397000000Y-47000000D03*
%TO.N,Therm20*%
X397000000Y-49000000D03*
%TO.N,GND*%
X399000000Y-47000000D03*
%TO.N,Therm21*%
X399000000Y-49000000D03*
%TO.N,Therm30*%
X401000000Y-47000000D03*
%TO.N,Therm22*%
X401000000Y-49000000D03*
%TO.N,Therm29*%
X403000000Y-47000000D03*
%TO.N,Therm23*%
X403000000Y-49000000D03*
%TO.N,Therm28*%
X405000000Y-47000000D03*
%TO.N,Therm24*%
X405000000Y-49000000D03*
%TO.N,Therm27*%
X407000000Y-47000000D03*
%TO.N,Therm25*%
X407000000Y-49000000D03*
%TO.N,Therm26*%
X409000000Y-47000000D03*
%TO.N,GND*%
X409000000Y-49000000D03*
%TO.N,N/C*%
X388075000Y-48000000D03*
X411925000Y-48000000D03*
%TD*%
D12*
%TO.N,GND*%
X73677000Y-193883000D03*
X82677000Y-109883000D03*
X85677000Y-76883000D03*
X85677000Y-142883000D03*
X56309000Y-94898000D03*
X67677000Y-178883000D03*
X85677000Y-100883000D03*
X82677000Y-145883000D03*
X59309000Y-184898000D03*
X67677000Y-157883000D03*
X70677000Y-106883000D03*
X64677000Y-124883000D03*
X56309000Y-73898000D03*
X82677000Y-151883000D03*
X85677000Y-151883000D03*
X61677000Y-85883000D03*
X59309000Y-70898000D03*
X64677000Y-109883000D03*
X67612000Y-196898000D03*
X70677000Y-88883000D03*
X70677000Y-151883000D03*
X56309000Y-124898000D03*
X73677000Y-169883000D03*
X82677000Y-199883000D03*
X59309000Y-199898000D03*
X61677000Y-124883000D03*
X70677000Y-124883000D03*
X85677000Y-181883000D03*
X53309000Y-79898000D03*
X56309000Y-139898000D03*
X56309000Y-142898000D03*
X82598000Y-73787000D03*
X64677000Y-97883000D03*
X59309000Y-94898000D03*
D13*
X89800000Y-115550000D03*
D12*
X64677000Y-193883000D03*
X70677000Y-178883000D03*
X85677000Y-124883000D03*
X79677000Y-139883000D03*
X59309000Y-160898000D03*
X82677000Y-106883000D03*
X67677000Y-85883000D03*
X61677000Y-166883000D03*
X79677000Y-166883000D03*
X64677000Y-208883000D03*
D13*
X367020000Y-129380000D03*
D12*
X70677000Y-205883000D03*
X53309000Y-73898000D03*
X79677000Y-190883000D03*
X73677000Y-205883000D03*
X85677000Y-178883000D03*
X67677000Y-187883000D03*
X56309000Y-166898000D03*
X79677000Y-199883000D03*
X76677000Y-196883000D03*
X64677000Y-118883000D03*
X85677000Y-160883000D03*
D13*
X409170000Y-183590000D03*
D12*
X53309000Y-67898000D03*
X85677000Y-91883000D03*
X53309000Y-118898000D03*
X76677000Y-160883000D03*
X76677000Y-205883000D03*
X64677000Y-121883000D03*
X70677000Y-160883000D03*
X73677000Y-175883000D03*
X85677000Y-208883000D03*
X79677000Y-82883000D03*
X76677000Y-133883000D03*
X53309000Y-163898000D03*
X76677000Y-163883000D03*
X59309000Y-136898000D03*
D13*
X281680000Y-183790000D03*
D12*
X61677000Y-118883000D03*
X73677000Y-187883000D03*
X79677000Y-163883000D03*
D13*
X238860000Y-129520000D03*
D12*
X79677000Y-118883000D03*
X64677000Y-142883000D03*
X61677000Y-151883000D03*
X76677000Y-85883000D03*
X56309000Y-157898000D03*
X67677000Y-127883000D03*
X67677000Y-172883000D03*
X53309000Y-88898000D03*
X56309000Y-175898000D03*
X79677000Y-106883000D03*
X82677000Y-169883000D03*
D13*
X302910000Y-170040000D03*
D12*
X79677000Y-205883000D03*
X70866000Y-130858000D03*
X64677000Y-205883000D03*
X73677000Y-130883000D03*
D13*
X175290000Y-170320000D03*
D12*
X76677000Y-151883000D03*
X79677000Y-136883000D03*
X64677000Y-85883000D03*
X79677000Y-94883000D03*
X59309000Y-187898000D03*
D13*
X431520000Y-114130000D03*
D12*
X67677000Y-118883000D03*
X79677000Y-202883000D03*
X70677000Y-166883000D03*
X82677000Y-97883000D03*
X67677000Y-190883000D03*
X56309000Y-109898000D03*
X70677000Y-202883000D03*
X61677000Y-169883000D03*
X64677000Y-115883000D03*
X64677000Y-181883000D03*
X76677000Y-127883000D03*
X73677000Y-94883000D03*
X79677000Y-184883000D03*
D13*
X217930000Y-170190000D03*
D12*
X70677000Y-187883000D03*
X64677000Y-199883000D03*
X64677000Y-112883000D03*
X67677000Y-124883000D03*
X59309000Y-157898000D03*
X82677000Y-190883000D03*
X79677000Y-175883000D03*
X82677000Y-160883000D03*
X70677000Y-172883000D03*
X70677000Y-115883000D03*
X64677000Y-202883000D03*
D13*
X217980000Y-115450000D03*
D12*
X70677000Y-121883000D03*
X76677000Y-136883000D03*
X59309000Y-139898000D03*
X82677000Y-163883000D03*
X79677000Y-97883000D03*
X59309000Y-181898000D03*
X56309000Y-91898000D03*
X59309000Y-151898000D03*
X73677000Y-178883000D03*
X56309000Y-121898000D03*
D13*
X153990000Y-129370000D03*
D12*
X79677000Y-100883000D03*
X56309000Y-163898000D03*
X64677000Y-148883000D03*
X53309000Y-151898000D03*
X73677000Y-184883000D03*
X70677000Y-184883000D03*
X85598000Y-70787000D03*
X79677000Y-154883000D03*
X76677000Y-184883000D03*
X53309000Y-139898000D03*
X59309000Y-121898000D03*
X73677000Y-154883000D03*
X85677000Y-193883000D03*
X53309000Y-133898000D03*
X61677000Y-208883000D03*
X76677000Y-142883000D03*
X53309000Y-172898000D03*
X64677000Y-184883000D03*
X53309000Y-184898000D03*
X82677000Y-154883000D03*
X82677000Y-79883000D03*
X76677000Y-190883000D03*
X79677000Y-130883000D03*
X70677000Y-97883000D03*
X64677000Y-145883000D03*
X56309000Y-85898000D03*
X67677000Y-94883000D03*
X79677000Y-79883000D03*
X85677000Y-184883000D03*
X85677000Y-112883000D03*
X79677000Y-151883000D03*
X59309000Y-190898000D03*
X61677000Y-136883000D03*
X67677000Y-169883000D03*
X56309000Y-103898000D03*
X53309000Y-106898000D03*
D13*
X388200000Y-170210000D03*
D12*
X67677000Y-166883000D03*
X76677000Y-100883000D03*
X73677000Y-85883000D03*
X53309000Y-97898000D03*
X56309000Y-151898000D03*
X70677000Y-145883000D03*
X61677000Y-157883000D03*
X82677000Y-118883000D03*
X76677000Y-94883000D03*
X85677000Y-106883000D03*
X64677000Y-169883000D03*
X76677000Y-91883000D03*
X85677000Y-139883000D03*
X53309000Y-94898000D03*
X70677000Y-154883000D03*
X56309000Y-88898000D03*
X79677000Y-196883000D03*
X53309000Y-103898000D03*
X53309000Y-193898000D03*
X59309000Y-154898000D03*
X59309000Y-112898000D03*
X79677000Y-127883000D03*
X73677000Y-181883000D03*
X67677000Y-160883000D03*
X64677000Y-160883000D03*
X61677000Y-130883000D03*
X85677000Y-88883000D03*
X82677000Y-115883000D03*
D13*
X174970000Y-115640000D03*
D12*
X82677000Y-205883000D03*
X85677000Y-172883000D03*
X67677000Y-151883000D03*
D13*
X431650000Y-171600000D03*
D12*
X79677000Y-178883000D03*
X82677000Y-196883000D03*
X56309000Y-67898000D03*
X82677000Y-124883000D03*
X85677000Y-109883000D03*
X85677000Y-205883000D03*
X79677000Y-112883000D03*
X56309000Y-172898000D03*
X85677000Y-127883000D03*
D13*
X111310000Y-129250000D03*
D12*
X70866000Y-133858000D03*
X64677000Y-178883000D03*
X67677000Y-121883000D03*
X79677000Y-88883000D03*
X85677000Y-169883000D03*
X76677000Y-139883000D03*
X82677000Y-112883000D03*
X56309000Y-76898000D03*
X56309000Y-97898000D03*
X67677000Y-175883000D03*
X82677000Y-187883000D03*
X76677000Y-169883000D03*
X59309000Y-127898000D03*
X67677000Y-163883000D03*
X70677000Y-118883000D03*
X61677000Y-154883000D03*
X82677000Y-121883000D03*
X53309000Y-115898000D03*
D13*
X281120000Y-129100000D03*
D12*
X82677000Y-103883000D03*
X61677000Y-196883000D03*
X59309000Y-178898000D03*
X70677000Y-208883000D03*
X70677000Y-82883000D03*
X53309000Y-160898000D03*
D13*
X89600000Y-170210000D03*
D12*
X76677000Y-193883000D03*
X67677000Y-103883000D03*
X73677000Y-160883000D03*
X76677000Y-208883000D03*
X53309000Y-82898000D03*
X59309000Y-193898000D03*
X70677000Y-103883000D03*
X70677000Y-175883000D03*
D13*
X111340000Y-183790000D03*
D12*
X76677000Y-154883000D03*
X70677000Y-109883000D03*
X79677000Y-193883000D03*
X73677000Y-115883000D03*
X76677000Y-157883000D03*
X70677000Y-91883000D03*
X61677000Y-82883000D03*
X85677000Y-199883000D03*
X82677000Y-148883000D03*
X85677000Y-154883000D03*
X53309000Y-175898000D03*
X85677000Y-133883000D03*
X70677000Y-85883000D03*
X82677000Y-91883000D03*
X59309000Y-67898000D03*
D13*
X366790000Y-183800000D03*
D12*
X67677000Y-139883000D03*
X64677000Y-157883000D03*
X59309000Y-130898000D03*
X61677000Y-112883000D03*
X85677000Y-166883000D03*
X73677000Y-172883000D03*
X67677000Y-205883000D03*
X73677000Y-139883000D03*
X56309000Y-193898000D03*
X59309000Y-91898000D03*
X53309000Y-121898000D03*
X79598000Y-67787000D03*
X79677000Y-109883000D03*
X67677000Y-91883000D03*
X70677000Y-148883000D03*
X64677000Y-196883000D03*
X85677000Y-97883000D03*
D13*
X324380000Y-183720000D03*
D12*
X70612000Y-199898000D03*
X61677000Y-184883000D03*
X67677000Y-100883000D03*
X82677000Y-142883000D03*
X56309000Y-145898000D03*
X59309000Y-115898000D03*
X56309000Y-154898000D03*
X79677000Y-115883000D03*
X59309000Y-166898000D03*
X53309000Y-196898000D03*
X61677000Y-91883000D03*
X76677000Y-130883000D03*
X76677000Y-202883000D03*
D13*
X260000000Y-170100000D03*
D12*
X85677000Y-145883000D03*
X70677000Y-163883000D03*
X85677000Y-115883000D03*
X73677000Y-127883000D03*
X56309000Y-181898000D03*
X64677000Y-163883000D03*
X61677000Y-205883000D03*
X73677000Y-208883000D03*
D13*
X239230000Y-183500000D03*
D12*
X73677000Y-109883000D03*
X82598000Y-67787000D03*
X85677000Y-196883000D03*
X73677000Y-142883000D03*
X61677000Y-103883000D03*
X73677000Y-133883000D03*
X67677000Y-88883000D03*
X53309000Y-199898000D03*
X79677000Y-187883000D03*
X76677000Y-121883000D03*
X82677000Y-157883000D03*
X59309000Y-82898000D03*
X53309000Y-124898000D03*
X76677000Y-187883000D03*
X61677000Y-133883000D03*
X79677000Y-133883000D03*
X85677000Y-190883000D03*
X85677000Y-130883000D03*
X85677000Y-163883000D03*
X61677000Y-160883000D03*
D13*
X132490000Y-170170000D03*
D12*
X73677000Y-145883000D03*
X76677000Y-103883000D03*
X64677000Y-136883000D03*
X70677000Y-193883000D03*
D13*
X260290000Y-115680000D03*
D12*
X56309000Y-130898000D03*
X76677000Y-145883000D03*
X82677000Y-133883000D03*
X59309000Y-73898000D03*
X82677000Y-127883000D03*
X73677000Y-196883000D03*
X53309000Y-127898000D03*
X79677000Y-208883000D03*
X53309000Y-166898000D03*
X73677000Y-199883000D03*
X67677000Y-115883000D03*
X67677000Y-106883000D03*
X56309000Y-127898000D03*
X67677000Y-208883000D03*
X76677000Y-166883000D03*
X85677000Y-136883000D03*
X82677000Y-136883000D03*
X59309000Y-172898000D03*
X53309000Y-130898000D03*
X56309000Y-178898000D03*
X61677000Y-109883000D03*
X59309000Y-76898000D03*
D13*
X345610000Y-170210000D03*
D12*
X53309000Y-76898000D03*
X53309000Y-112898000D03*
X56309000Y-133898000D03*
X53309000Y-136898000D03*
X59309000Y-97898000D03*
X82677000Y-94883000D03*
X79598000Y-70787000D03*
X53309000Y-109898000D03*
X70677000Y-112883000D03*
X53309000Y-190898000D03*
X61677000Y-193883000D03*
D13*
X388180000Y-115600000D03*
D12*
X53309000Y-70898000D03*
X76677000Y-82883000D03*
X67677000Y-109883000D03*
X73677000Y-157883000D03*
X59309000Y-109898000D03*
X67677000Y-112883000D03*
X85677000Y-187883000D03*
X73677000Y-91883000D03*
X61677000Y-121883000D03*
X61677000Y-145883000D03*
X67677000Y-142883000D03*
X79677000Y-172883000D03*
X56309000Y-136898000D03*
X61677000Y-115883000D03*
X73677000Y-121883000D03*
X70677000Y-190883000D03*
X73677000Y-166883000D03*
X56309000Y-82898000D03*
X82677000Y-82883000D03*
X59309000Y-145898000D03*
X64677000Y-133883000D03*
X64677000Y-175883000D03*
X73677000Y-97883000D03*
X70677000Y-157883000D03*
X73677000Y-151883000D03*
X56309000Y-118898000D03*
X67677000Y-136883000D03*
X64677000Y-151883000D03*
X85677000Y-103883000D03*
X79677000Y-145883000D03*
X73677000Y-88883000D03*
X70677000Y-127883000D03*
X67677000Y-202883000D03*
X67677000Y-145883000D03*
X82677000Y-166883000D03*
X59309000Y-106898000D03*
X70677000Y-100883000D03*
X64677000Y-88883000D03*
X85677000Y-82883000D03*
X73677000Y-202883000D03*
X67677000Y-154883000D03*
X76677000Y-88883000D03*
X59309000Y-169898000D03*
X82677000Y-100883000D03*
X79677000Y-169883000D03*
X85677000Y-118883000D03*
X56309000Y-112898000D03*
X59309000Y-196898000D03*
X59309000Y-79898000D03*
X61677000Y-181883000D03*
X56309000Y-148898000D03*
X70677000Y-136883000D03*
X53309000Y-181898000D03*
D13*
X196490000Y-129440000D03*
X196440000Y-184100000D03*
D12*
X61677000Y-163883000D03*
X76677000Y-118883000D03*
X79677000Y-181883000D03*
X61677000Y-187883000D03*
X82598000Y-70787000D03*
X56309000Y-196898000D03*
X73677000Y-82883000D03*
X76677000Y-109883000D03*
X79677000Y-103883000D03*
X59309000Y-118898000D03*
X53309000Y-187898000D03*
X64677000Y-91883000D03*
X70677000Y-94883000D03*
X82677000Y-175883000D03*
X61677000Y-97883000D03*
X67866000Y-130858000D03*
X70677000Y-139883000D03*
X56309000Y-100898000D03*
X64677000Y-130883000D03*
X79677000Y-157883000D03*
X85677000Y-148883000D03*
X56309000Y-199898000D03*
X67677000Y-184883000D03*
X59309000Y-103898000D03*
X64677000Y-94883000D03*
X73677000Y-112883000D03*
X59309000Y-175898000D03*
X61677000Y-202883000D03*
X73677000Y-163883000D03*
X61677000Y-148883000D03*
X82677000Y-139883000D03*
D13*
X324470000Y-129290000D03*
D12*
X53309000Y-157898000D03*
X67612000Y-199898000D03*
X61677000Y-172883000D03*
X76677000Y-199883000D03*
X67677000Y-193883000D03*
X56309000Y-160898000D03*
X79598000Y-73787000D03*
X85677000Y-79883000D03*
X56309000Y-169898000D03*
X53309000Y-91898000D03*
X61677000Y-94883000D03*
X61677000Y-175883000D03*
X59309000Y-85898000D03*
X82677000Y-178883000D03*
X82677000Y-202883000D03*
X61677000Y-178883000D03*
X64677000Y-187883000D03*
X53309000Y-148898000D03*
D13*
X132650000Y-115600000D03*
D12*
X59309000Y-163898000D03*
X64677000Y-154883000D03*
X56309000Y-184898000D03*
X82677000Y-172883000D03*
X56309000Y-115898000D03*
X56309000Y-106898000D03*
X56309000Y-70898000D03*
X56309000Y-187898000D03*
X67677000Y-82883000D03*
X85677000Y-157883000D03*
X79677000Y-76883000D03*
X73677000Y-136883000D03*
X64677000Y-106883000D03*
X82677000Y-130883000D03*
X53309000Y-145898000D03*
D13*
X409460000Y-129580000D03*
D12*
X79677000Y-91883000D03*
X82677000Y-76883000D03*
X76677000Y-97883000D03*
X59309000Y-124898000D03*
X82677000Y-88883000D03*
X76677000Y-175883000D03*
X85677000Y-202883000D03*
X61677000Y-142883000D03*
X85677000Y-85883000D03*
X59309000Y-133898000D03*
X79677000Y-160883000D03*
X61677000Y-199883000D03*
X82677000Y-193883000D03*
X85598000Y-73787000D03*
X53309000Y-100898000D03*
X79677000Y-121883000D03*
X76677000Y-178883000D03*
X56309000Y-79898000D03*
X73677000Y-106883000D03*
X64677000Y-82883000D03*
X61677000Y-127883000D03*
X73677000Y-103883000D03*
X79677000Y-85883000D03*
X76677000Y-106883000D03*
X59309000Y-88898000D03*
X64677000Y-172883000D03*
X70677000Y-181883000D03*
X59309000Y-142898000D03*
X53309000Y-178898000D03*
D13*
X153960000Y-183820000D03*
D12*
X73677000Y-190883000D03*
X67677000Y-181883000D03*
X79677000Y-142883000D03*
X76677000Y-148883000D03*
X53309000Y-85898000D03*
X82677000Y-208883000D03*
X82677000Y-181883000D03*
X59309000Y-100898000D03*
X85598000Y-67787000D03*
X76677000Y-181883000D03*
X64677000Y-127883000D03*
X73677000Y-100883000D03*
X67677000Y-97883000D03*
X70612000Y-196898000D03*
X85677000Y-94883000D03*
X73677000Y-118883000D03*
X67866000Y-133858000D03*
X61677000Y-88883000D03*
X64677000Y-166883000D03*
X73677000Y-148883000D03*
X82677000Y-184883000D03*
X76677000Y-112883000D03*
X61677000Y-106883000D03*
X76677000Y-124883000D03*
X79677000Y-148883000D03*
X70677000Y-142883000D03*
X53309000Y-154898000D03*
X70677000Y-169883000D03*
X73677000Y-124883000D03*
D13*
X345690000Y-115660000D03*
D12*
X53309000Y-142898000D03*
X82677000Y-85883000D03*
D13*
X303100000Y-115640000D03*
D12*
X59309000Y-148898000D03*
X79677000Y-124883000D03*
X85677000Y-121883000D03*
X53309000Y-169898000D03*
X67677000Y-148883000D03*
X56309000Y-190898000D03*
X85677000Y-175883000D03*
X76677000Y-115883000D03*
X76677000Y-172883000D03*
%TO.N,CELL17*%
X462706000Y-203358000D03*
X471074000Y-182343000D03*
X450706000Y-164358000D03*
X471218000Y-86535000D03*
X474218000Y-83535000D03*
X447709000Y-80518000D03*
X441706000Y-95358000D03*
X471074000Y-125343000D03*
X447706000Y-116358000D03*
X471074000Y-158343000D03*
X441706000Y-137358000D03*
X471074000Y-194343000D03*
X450706000Y-122358000D03*
X444706000Y-209358000D03*
X462706000Y-89358000D03*
X453709000Y-80518000D03*
X456706000Y-116358000D03*
X471074000Y-167343000D03*
X459706000Y-152358000D03*
X441802000Y-73200000D03*
X441706000Y-152358000D03*
X462706000Y-155358000D03*
X468074000Y-155343000D03*
X453706000Y-185358000D03*
X474074000Y-194343000D03*
X453706000Y-170358000D03*
X456706000Y-164358000D03*
X447802000Y-70200000D03*
X468074000Y-116343000D03*
X453706000Y-161358000D03*
X450706000Y-209358000D03*
X471074000Y-161343000D03*
X441706000Y-173358000D03*
X456709000Y-80518000D03*
X441706000Y-119358000D03*
X465706000Y-203358000D03*
X447706000Y-197358000D03*
X474074000Y-110343000D03*
X468218000Y-80535000D03*
X459706000Y-137358000D03*
X441706000Y-143358000D03*
X444706000Y-122358000D03*
X450709000Y-80518000D03*
X450706000Y-161358000D03*
X465706000Y-179358000D03*
X474074000Y-122343000D03*
X474074000Y-164343000D03*
X444706000Y-86358000D03*
X459706000Y-197358000D03*
X453706000Y-167358000D03*
X462706000Y-104358000D03*
X465706000Y-116358000D03*
X450706000Y-143358000D03*
X453706000Y-134358000D03*
X465706000Y-128358000D03*
X471074000Y-113343000D03*
X459706000Y-146358000D03*
X471074000Y-200343000D03*
X474074000Y-119343000D03*
X453706000Y-107358000D03*
X456706000Y-209358000D03*
X459706000Y-200358000D03*
X465706000Y-176358000D03*
X447706000Y-188358000D03*
X459706000Y-149358000D03*
X453706000Y-176358000D03*
X462706000Y-206358000D03*
X462706000Y-146358000D03*
X450706000Y-116358000D03*
X468074000Y-200343000D03*
X450706000Y-113358000D03*
X447706000Y-134358000D03*
X441706000Y-89358000D03*
X468074000Y-134343000D03*
X456706000Y-83358000D03*
X450706000Y-191358000D03*
X465706000Y-164358000D03*
X444706000Y-83358000D03*
X471074000Y-137343000D03*
X468074000Y-119343000D03*
X450706000Y-206358000D03*
X468074000Y-110343000D03*
X447802000Y-67200000D03*
X468074000Y-191343000D03*
X465706000Y-182358000D03*
X447706000Y-209358000D03*
X471074000Y-128343000D03*
X441706000Y-83358000D03*
X465706000Y-95358000D03*
X453706000Y-212358000D03*
X474074000Y-101343000D03*
X459706000Y-188358000D03*
X474074000Y-158343000D03*
X465706000Y-161358000D03*
X450706000Y-155358000D03*
X462706000Y-137358000D03*
X450706000Y-101358000D03*
X447706000Y-164358000D03*
X471074000Y-116343000D03*
X468074000Y-104343000D03*
X459517000Y-161383000D03*
X462706000Y-98358000D03*
X462706000Y-161358000D03*
X459706000Y-134358000D03*
X462706000Y-179358000D03*
X471074000Y-143343000D03*
X456706000Y-194358000D03*
X471218000Y-83535000D03*
X474218000Y-80535000D03*
X450706000Y-86358000D03*
X474074000Y-128343000D03*
X447706000Y-191358000D03*
X447706000Y-125358000D03*
X453706000Y-209358000D03*
X444706000Y-182358000D03*
X453706000Y-128358000D03*
X465706000Y-146358000D03*
X441706000Y-125358000D03*
X456706000Y-89358000D03*
X459706000Y-122358000D03*
X453706000Y-155358000D03*
X459706000Y-212358000D03*
X456517000Y-161383000D03*
X453706000Y-95358000D03*
X459706000Y-116358000D03*
X474074000Y-92343000D03*
X444802000Y-76200000D03*
X468074000Y-152343000D03*
X441706000Y-140358000D03*
X459706000Y-131358000D03*
X456706000Y-122358000D03*
X453706000Y-146358000D03*
X471074000Y-164343000D03*
X471074000Y-134343000D03*
X459706000Y-203358000D03*
X468074000Y-128343000D03*
X444706000Y-134358000D03*
X441706000Y-203358000D03*
X450706000Y-182358000D03*
X441706000Y-194358000D03*
X459771000Y-92343000D03*
X453706000Y-179358000D03*
X444706000Y-104358000D03*
X459706000Y-182358000D03*
X444706000Y-155358000D03*
X459706000Y-173358000D03*
X462706000Y-173358000D03*
X468074000Y-137343000D03*
X441706000Y-110358000D03*
X447706000Y-98358000D03*
X468932000Y-76327000D03*
X441706000Y-134358000D03*
X474074000Y-143343000D03*
X462706000Y-185358000D03*
X447706000Y-113358000D03*
X468074000Y-158343000D03*
X444802000Y-70200000D03*
X456706000Y-176358000D03*
X474074000Y-113343000D03*
X441706000Y-176358000D03*
X447706000Y-161358000D03*
X468074000Y-182343000D03*
X444706000Y-92358000D03*
X444706000Y-137358000D03*
X456706000Y-185358000D03*
X441706000Y-155358000D03*
X441706000Y-200358000D03*
X465706000Y-89358000D03*
X453706000Y-104358000D03*
X459706000Y-185358000D03*
X465788000Y-152400000D03*
X444706000Y-125358000D03*
X468074000Y-164343000D03*
X468074000Y-122343000D03*
X465706000Y-158358000D03*
X441706000Y-146358000D03*
X462706000Y-167358000D03*
X453706000Y-188358000D03*
X450706000Y-200358000D03*
X447706000Y-155358000D03*
X462706000Y-143358000D03*
X468074000Y-161343000D03*
X447706000Y-158358000D03*
X447706000Y-92358000D03*
X444706000Y-101358000D03*
X453706000Y-110358000D03*
X468074000Y-107343000D03*
X465706000Y-188358000D03*
X465706000Y-200358000D03*
X459706000Y-125358000D03*
X474074000Y-155343000D03*
X450706000Y-197358000D03*
X444706000Y-197358000D03*
X456706000Y-173358000D03*
X459706000Y-206358000D03*
X441706000Y-170358000D03*
X462706000Y-128358000D03*
X465706000Y-143358000D03*
X462706000Y-95358000D03*
X453706000Y-191358000D03*
X465706000Y-98358000D03*
X474074000Y-116343000D03*
X453706000Y-116358000D03*
X459706000Y-83358000D03*
X444706000Y-128358000D03*
X456706000Y-101358000D03*
X441706000Y-122358000D03*
X462706000Y-122358000D03*
X471074000Y-146343000D03*
X465706000Y-134358000D03*
X453706000Y-92358000D03*
X441706000Y-209358000D03*
X471074000Y-155343000D03*
X468932000Y-67327000D03*
X453706000Y-200358000D03*
X441706000Y-188358000D03*
X462709000Y-80518000D03*
X474074000Y-134343000D03*
X459706000Y-107358000D03*
X450706000Y-167358000D03*
X453706000Y-182358000D03*
X456706000Y-131358000D03*
X468074000Y-185343000D03*
X474074000Y-95343000D03*
X474074000Y-125343000D03*
X468074000Y-113343000D03*
X447706000Y-203358000D03*
X450706000Y-203358000D03*
X471074000Y-122343000D03*
X453706000Y-101358000D03*
X456706000Y-119358000D03*
X444706000Y-200358000D03*
X462706000Y-125358000D03*
X462706000Y-209358000D03*
X447706000Y-128358000D03*
X462706000Y-113358000D03*
X453706000Y-83358000D03*
X468074000Y-125343000D03*
X456706000Y-125358000D03*
X471932000Y-67327000D03*
X453706000Y-98358000D03*
X456706000Y-212358000D03*
X447706000Y-179358000D03*
X456706000Y-155358000D03*
X474074000Y-191343000D03*
X462788000Y-152400000D03*
X471074000Y-152343000D03*
X471074000Y-179343000D03*
X450706000Y-104358000D03*
X456706000Y-86358000D03*
X471932000Y-70327000D03*
X447706000Y-200358000D03*
X450706000Y-125358000D03*
X453706000Y-125358000D03*
X462706000Y-116358000D03*
X468074000Y-194343000D03*
X459706000Y-101358000D03*
X459706000Y-167358000D03*
X471074000Y-95343000D03*
X468074000Y-203343000D03*
X465706000Y-170358000D03*
X459771000Y-95343000D03*
X471074000Y-191343000D03*
X471074000Y-176343000D03*
X474074000Y-185343000D03*
X450706000Y-98358000D03*
X459706000Y-86358000D03*
X450706000Y-170358000D03*
X456706000Y-143358000D03*
X471074000Y-131343000D03*
X474074000Y-188343000D03*
X471074000Y-107343000D03*
X468074000Y-149343000D03*
X444706000Y-194358000D03*
X471074000Y-119343000D03*
X456517000Y-158383000D03*
X450706000Y-173358000D03*
X450706000Y-134358000D03*
X465709000Y-80518000D03*
X450706000Y-149358000D03*
X465706000Y-173358000D03*
X468074000Y-197343000D03*
X453706000Y-143358000D03*
X456706000Y-179358000D03*
X468074000Y-140343000D03*
X441802000Y-70200000D03*
X468074000Y-167343000D03*
X456706000Y-167358000D03*
X450706000Y-95358000D03*
X447706000Y-119358000D03*
X465706000Y-212358000D03*
X450706000Y-140358000D03*
X447706000Y-173358000D03*
X444706000Y-164358000D03*
X465706000Y-131358000D03*
X471932000Y-76327000D03*
X465706000Y-86358000D03*
X459706000Y-209358000D03*
X447706000Y-140358000D03*
X462706000Y-170358000D03*
X444706000Y-212358000D03*
X441706000Y-104358000D03*
X447706000Y-131358000D03*
X444706000Y-188358000D03*
X462706000Y-176358000D03*
X447802000Y-73200000D03*
X462706000Y-212358000D03*
X468074000Y-179343000D03*
X453706000Y-173358000D03*
X447706000Y-104358000D03*
X444706000Y-146358000D03*
X447706000Y-86358000D03*
X444802000Y-67200000D03*
X474074000Y-98343000D03*
X453706000Y-152358000D03*
X441706000Y-182358000D03*
X441706000Y-167358000D03*
X462706000Y-200358000D03*
X459706000Y-113358000D03*
X462706000Y-164358000D03*
X468074000Y-176343000D03*
X444706000Y-116358000D03*
X468932000Y-70327000D03*
X453706000Y-89358000D03*
X441706000Y-98358000D03*
X456706000Y-104358000D03*
X474074000Y-107343000D03*
X456706000Y-110358000D03*
X456706000Y-149358000D03*
X468074000Y-131343000D03*
X453706000Y-131358000D03*
X474074000Y-200343000D03*
X468074000Y-170343000D03*
X456706000Y-146358000D03*
X456706000Y-203358000D03*
X468218000Y-89535000D03*
X462706000Y-149358000D03*
X450706000Y-146358000D03*
X471074000Y-92343000D03*
X453706000Y-137358000D03*
X465706000Y-83358000D03*
X453706000Y-206358000D03*
X468218000Y-86535000D03*
X444802000Y-73200000D03*
X462706000Y-131358000D03*
X465706000Y-209358000D03*
X459706000Y-194358000D03*
X465706000Y-92358000D03*
X444706000Y-89358000D03*
X468074000Y-188343000D03*
X453706000Y-197358000D03*
X456706000Y-200358000D03*
X459706000Y-140358000D03*
X471218000Y-80535000D03*
X462706000Y-110358000D03*
X471074000Y-173343000D03*
X462706000Y-86358000D03*
X441709000Y-80645000D03*
X471074000Y-197343000D03*
X444706000Y-167358000D03*
X456706000Y-98358000D03*
X450706000Y-107358000D03*
X447706000Y-95358000D03*
X444706000Y-149358000D03*
X444706000Y-113358000D03*
X465706000Y-185358000D03*
X444706000Y-158358000D03*
X441706000Y-179358000D03*
X441706000Y-131358000D03*
X465706000Y-113358000D03*
X444706000Y-143358000D03*
X465706000Y-125358000D03*
X462706000Y-83358000D03*
X447706000Y-89358000D03*
X462706000Y-197358000D03*
X447706000Y-101358000D03*
X468074000Y-95343000D03*
X441706000Y-158358000D03*
X450706000Y-152358000D03*
X447802000Y-76200000D03*
X468932000Y-73327000D03*
X474074000Y-170343000D03*
X450706000Y-176358000D03*
X450706000Y-185358000D03*
X441706000Y-206358000D03*
X450706000Y-131358000D03*
X441706000Y-128358000D03*
X444706000Y-176358000D03*
X465706000Y-140358000D03*
X474074000Y-167343000D03*
X474074000Y-104343000D03*
X453706000Y-164358000D03*
X474074000Y-146343000D03*
X450706000Y-194358000D03*
X465706000Y-155358000D03*
X468074000Y-173343000D03*
X474074000Y-131343000D03*
X453706000Y-122358000D03*
X471074000Y-170343000D03*
X441706000Y-185358000D03*
X459709000Y-80518000D03*
X447706000Y-206358000D03*
X459517000Y-158383000D03*
X441706000Y-197358000D03*
X474074000Y-179343000D03*
X450706000Y-89358000D03*
X444706000Y-185358000D03*
X441706000Y-191358000D03*
X456706000Y-134358000D03*
X459706000Y-164358000D03*
X447706000Y-176358000D03*
X444706000Y-179358000D03*
X459706000Y-143358000D03*
X441802000Y-76200000D03*
X462706000Y-119358000D03*
X474074000Y-140343000D03*
X444706000Y-170358000D03*
X474074000Y-137343000D03*
X456706000Y-191358000D03*
X447706000Y-182358000D03*
X474074000Y-152343000D03*
X447706000Y-170358000D03*
X456706000Y-128358000D03*
X444706000Y-152358000D03*
X474218000Y-86535000D03*
X468074000Y-98343000D03*
X456706000Y-188358000D03*
X453706000Y-113358000D03*
X450706000Y-158358000D03*
X444706000Y-161358000D03*
X447706000Y-146358000D03*
X444706000Y-173358000D03*
X459706000Y-176358000D03*
X474074000Y-161343000D03*
X453706000Y-140358000D03*
X444709000Y-80518000D03*
X441706000Y-116358000D03*
X450706000Y-137358000D03*
X471074000Y-110343000D03*
X471074000Y-140343000D03*
X450706000Y-188358000D03*
X465706000Y-107358000D03*
X441706000Y-149358000D03*
X465932000Y-73327000D03*
X447706000Y-83358000D03*
X465932000Y-67327000D03*
X444706000Y-140358000D03*
X465706000Y-110358000D03*
X459706000Y-110358000D03*
X441706000Y-212358000D03*
X459706000Y-155358000D03*
X441706000Y-164358000D03*
X462706000Y-194358000D03*
X474074000Y-182343000D03*
X444706000Y-98358000D03*
X471074000Y-188343000D03*
X444706000Y-206358000D03*
X462706000Y-182358000D03*
X459706000Y-170358000D03*
X465706000Y-122358000D03*
X450706000Y-212358000D03*
X450706000Y-110358000D03*
X468074000Y-146343000D03*
X441706000Y-92358000D03*
X441706000Y-86358000D03*
X447706000Y-149358000D03*
X459706000Y-191358000D03*
X456706000Y-107358000D03*
X441706000Y-161358000D03*
X465706000Y-119358000D03*
X465706000Y-197358000D03*
X447706000Y-107358000D03*
X474074000Y-197343000D03*
X447706000Y-122358000D03*
X459706000Y-119358000D03*
X444706000Y-191358000D03*
X471074000Y-98343000D03*
X453706000Y-194358000D03*
X447706000Y-110358000D03*
X441706000Y-101358000D03*
X447706000Y-185358000D03*
X468074000Y-92343000D03*
X456706000Y-140358000D03*
X471074000Y-104343000D03*
X447706000Y-137358000D03*
X453706000Y-119358000D03*
X444706000Y-107358000D03*
X441802000Y-67200000D03*
X450706000Y-128358000D03*
X465706000Y-206358000D03*
X453706000Y-158358000D03*
X465706000Y-104358000D03*
X450706000Y-92358000D03*
X465932000Y-76327000D03*
X444706000Y-131358000D03*
X450706000Y-179358000D03*
X471074000Y-185343000D03*
X444706000Y-203358000D03*
X441706000Y-113358000D03*
X456706000Y-170358000D03*
X474074000Y-173343000D03*
X462706000Y-92358000D03*
X453706000Y-86358000D03*
X465706000Y-167358000D03*
X468074000Y-143343000D03*
X462706000Y-107358000D03*
X474074000Y-149343000D03*
X444706000Y-95358000D03*
X459706000Y-179358000D03*
X471218000Y-89535000D03*
X456706000Y-206358000D03*
X468074000Y-101343000D03*
X462706000Y-134358000D03*
X468218000Y-83535000D03*
X447706000Y-212358000D03*
X444706000Y-119358000D03*
X465932000Y-70327000D03*
X447706000Y-167358000D03*
X447706000Y-143358000D03*
X465706000Y-194358000D03*
X456771000Y-92343000D03*
X441706000Y-107358000D03*
X459706000Y-89358000D03*
X459706000Y-104358000D03*
X453706000Y-203358000D03*
X444706000Y-110358000D03*
X450706000Y-83358000D03*
X453706000Y-149358000D03*
X462706000Y-158358000D03*
X456706000Y-137358000D03*
X459706000Y-98358000D03*
X456706000Y-197358000D03*
X456706000Y-152358000D03*
X471074000Y-149343000D03*
X474074000Y-176343000D03*
X471932000Y-73327000D03*
X465706000Y-137358000D03*
X474218000Y-89535000D03*
X447706000Y-152358000D03*
X456771000Y-95343000D03*
X447706000Y-194358000D03*
X459706000Y-128358000D03*
X465706000Y-149358000D03*
X471074000Y-101343000D03*
X456706000Y-113358000D03*
X450706000Y-119358000D03*
X456706000Y-182358000D03*
%TD*%
%TA.AperFunction,Conductor*%
%TO.N,GND*%
G36*
X87065039Y-59709685D02*
G01*
X87110794Y-59762489D01*
X87122000Y-59814000D01*
X87122000Y-93321662D01*
X87118574Y-93350609D01*
X87047545Y-93646463D01*
X86971141Y-94128862D01*
X86971141Y-94128863D01*
X86932821Y-94615767D01*
X86932821Y-110387613D01*
X86932814Y-110387633D01*
X86932814Y-110598325D01*
X86966126Y-110915285D01*
X86966127Y-110915291D01*
X87032382Y-111227000D01*
X87032382Y-111227001D01*
X87115931Y-111484140D01*
X87122000Y-111522458D01*
X87122000Y-119642543D01*
X87115931Y-119680861D01*
X87032394Y-119937963D01*
X87032393Y-119937965D01*
X86966136Y-120249684D01*
X86932821Y-120566639D01*
X86932821Y-120725984D01*
X86932820Y-120801861D01*
X86932821Y-120801874D01*
X86932821Y-164917613D01*
X86932814Y-164917633D01*
X86932814Y-165128325D01*
X86966126Y-165445285D01*
X86966127Y-165445291D01*
X87032382Y-165757000D01*
X87032382Y-165757001D01*
X87115931Y-166014140D01*
X87122000Y-166052458D01*
X87122000Y-174172543D01*
X87115931Y-174210861D01*
X87032394Y-174467963D01*
X87032393Y-174467965D01*
X86966136Y-174779684D01*
X86932821Y-175096639D01*
X86932821Y-175255984D01*
X86932820Y-175331861D01*
X86932821Y-175331874D01*
X86932821Y-191079202D01*
X86971141Y-191566106D01*
X86971141Y-191566107D01*
X87047545Y-192048506D01*
X87118574Y-192344359D01*
X87122000Y-192373306D01*
X87122000Y-214982997D01*
X87102315Y-215050036D01*
X87049511Y-215095791D01*
X86998000Y-215106997D01*
X58004211Y-215106997D01*
X57978266Y-215104252D01*
X57962005Y-215100772D01*
X57914661Y-215079539D01*
X57912064Y-215077636D01*
X57877550Y-215038885D01*
X57875960Y-215036087D01*
X57860335Y-214986677D01*
X57860303Y-214986348D01*
X57860027Y-214983467D01*
X57865988Y-214931910D01*
X57867022Y-214928851D01*
X57893541Y-214884279D01*
X57904825Y-214872104D01*
X57924449Y-214854961D01*
X58121770Y-214716259D01*
X58515015Y-214393843D01*
X58883278Y-214043162D01*
X59224532Y-213666147D01*
X59536899Y-213264872D01*
X59818661Y-212841545D01*
X60068266Y-212398497D01*
X60284342Y-211938165D01*
X60465698Y-211463081D01*
X60611339Y-210975861D01*
X60720461Y-210479185D01*
X60792464Y-209975786D01*
X60807936Y-209748173D01*
X60826952Y-209468462D01*
X60826952Y-209468449D01*
X60826953Y-209468435D01*
X60823737Y-208959923D01*
X60782835Y-208453049D01*
X60704470Y-207950601D01*
X60589075Y-207455345D01*
X60437285Y-206970005D01*
X60249934Y-206497253D01*
X60028053Y-206039691D01*
X60028052Y-206039689D01*
X60028049Y-206039683D01*
X59772871Y-205599843D01*
X59772864Y-205599832D01*
X59485779Y-205180114D01*
X59485773Y-205180106D01*
X59405371Y-205079472D01*
X59168355Y-204782813D01*
X59047077Y-204652186D01*
X58822360Y-204410143D01*
X58449697Y-204064155D01*
X58449691Y-204064149D01*
X58052399Y-203746732D01*
X57977640Y-203695597D01*
X57632672Y-203459638D01*
X57632661Y-203459631D01*
X57192822Y-203204452D01*
X56735262Y-202982573D01*
X56648414Y-202948155D01*
X56262500Y-202795217D01*
X56171649Y-202766803D01*
X55777175Y-202643430D01*
X55777154Y-202643424D01*
X55281914Y-202528033D01*
X55281909Y-202528032D01*
X55281905Y-202528031D01*
X54779457Y-202449666D01*
X54779453Y-202449665D01*
X54779449Y-202449665D01*
X54272588Y-202408763D01*
X54145455Y-202407959D01*
X53764071Y-202405547D01*
X53764069Y-202405547D01*
X53764056Y-202405547D01*
X53764043Y-202405547D01*
X53256729Y-202440034D01*
X53256723Y-202440034D01*
X53256720Y-202440035D01*
X52753321Y-202512038D01*
X52753314Y-202512039D01*
X52753300Y-202512042D01*
X52256651Y-202621157D01*
X51769413Y-202766803D01*
X51294341Y-202948155D01*
X50834020Y-203164224D01*
X50834013Y-203164228D01*
X50390964Y-203413832D01*
X49967638Y-203695593D01*
X49967618Y-203695607D01*
X49566358Y-204007963D01*
X49566357Y-204007964D01*
X49189340Y-204349220D01*
X48838667Y-204717472D01*
X48516246Y-205110723D01*
X48412180Y-205258766D01*
X48412086Y-205258884D01*
X48377576Y-205307992D01*
X48360416Y-205327639D01*
X48348219Y-205338944D01*
X48303624Y-205365474D01*
X48300582Y-205366502D01*
X48249088Y-205372466D01*
X48245886Y-205372160D01*
X48196391Y-205356515D01*
X48193597Y-205354926D01*
X48154869Y-205320426D01*
X48152969Y-205317833D01*
X48131735Y-205270482D01*
X48128222Y-205254061D01*
X48125481Y-205228131D01*
X48125481Y-190715497D01*
X61838798Y-190715497D01*
X61858705Y-191006544D01*
X61858706Y-191006546D01*
X61918056Y-191292158D01*
X61918061Y-191292175D01*
X62015752Y-191567051D01*
X62149967Y-191826074D01*
X62149971Y-191826080D01*
X62318194Y-192064398D01*
X62318198Y-192064402D01*
X62318200Y-192064405D01*
X62517319Y-192277610D01*
X62517324Y-192277614D01*
X62517326Y-192277616D01*
X62743608Y-192461710D01*
X62743611Y-192461712D01*
X62743615Y-192461715D01*
X62992873Y-192613292D01*
X63260448Y-192729517D01*
X63541357Y-192808224D01*
X63795443Y-192843146D01*
X63830366Y-192847947D01*
X63830367Y-192847947D01*
X64122096Y-192847947D01*
X64153253Y-192843664D01*
X64411105Y-192808224D01*
X64692014Y-192729517D01*
X64959589Y-192613292D01*
X65208847Y-192461715D01*
X65435143Y-192277610D01*
X65634262Y-192064405D01*
X65802495Y-191826073D01*
X65936709Y-191567053D01*
X66034402Y-191292170D01*
X66034403Y-191292163D01*
X66034405Y-191292158D01*
X66078658Y-191079197D01*
X66093756Y-191006544D01*
X66113664Y-190715497D01*
X66093756Y-190424450D01*
X66069302Y-190306770D01*
X66034405Y-190138835D01*
X66034400Y-190138818D01*
X65936709Y-189863942D01*
X65936709Y-189863941D01*
X65802495Y-189604921D01*
X65802494Y-189604919D01*
X65802490Y-189604913D01*
X65634267Y-189366595D01*
X65634263Y-189366591D01*
X65634262Y-189366589D01*
X65435143Y-189153384D01*
X65435136Y-189153379D01*
X65435135Y-189153377D01*
X65208853Y-188969283D01*
X65208842Y-188969276D01*
X64959593Y-188817704D01*
X64959590Y-188817702D01*
X64959589Y-188817702D01*
X64835396Y-188763757D01*
X64692017Y-188701478D01*
X64692015Y-188701477D01*
X64692014Y-188701477D01*
X64612092Y-188679084D01*
X64411110Y-188622771D01*
X64411106Y-188622770D01*
X64411105Y-188622770D01*
X64266600Y-188602908D01*
X64122096Y-188583047D01*
X64122095Y-188583047D01*
X63830367Y-188583047D01*
X63830366Y-188583047D01*
X63541357Y-188622770D01*
X63541351Y-188622771D01*
X63260444Y-188701478D01*
X62992868Y-188817704D01*
X62743619Y-188969276D01*
X62743608Y-188969283D01*
X62517326Y-189153377D01*
X62318194Y-189366595D01*
X62149971Y-189604913D01*
X62149967Y-189604919D01*
X62015752Y-189863942D01*
X61918061Y-190138818D01*
X61918056Y-190138835D01*
X61858706Y-190424447D01*
X61858705Y-190424449D01*
X61838798Y-190715497D01*
X48125481Y-190715497D01*
X48125481Y-139915497D01*
X61883352Y-139915497D01*
X61902844Y-140200477D01*
X61902845Y-140200478D01*
X61960958Y-140480137D01*
X61960963Y-140480154D01*
X62056618Y-140749300D01*
X62185411Y-140997860D01*
X62188035Y-141002923D01*
X62280690Y-141134187D01*
X62352762Y-141236290D01*
X62547722Y-141445040D01*
X62547725Y-141445043D01*
X62547730Y-141445048D01*
X62769309Y-141625316D01*
X62769311Y-141625317D01*
X62769312Y-141625318D01*
X63013372Y-141773734D01*
X63192308Y-141851457D01*
X63275368Y-141887535D01*
X63550422Y-141964602D01*
X63799212Y-141998796D01*
X63833407Y-142003497D01*
X63833408Y-142003497D01*
X64119055Y-142003497D01*
X64149563Y-141999303D01*
X64402040Y-141964602D01*
X64677094Y-141887535D01*
X64939091Y-141773733D01*
X65183153Y-141625316D01*
X65404732Y-141445048D01*
X65599701Y-141236288D01*
X65764427Y-141002923D01*
X65895843Y-140749302D01*
X65991500Y-140480149D01*
X65991501Y-140480142D01*
X65991503Y-140480137D01*
X66014163Y-140371087D01*
X66049617Y-140200477D01*
X66069110Y-139915497D01*
X66049617Y-139630517D01*
X66023463Y-139504658D01*
X65991503Y-139350856D01*
X65991498Y-139350839D01*
X65895843Y-139081693D01*
X65895843Y-139081692D01*
X65764427Y-138828071D01*
X65599701Y-138594706D01*
X65599699Y-138594703D01*
X65404739Y-138385953D01*
X65404735Y-138385949D01*
X65404732Y-138385946D01*
X65183153Y-138205678D01*
X65183151Y-138205677D01*
X65183149Y-138205675D01*
X64939089Y-138057259D01*
X64677097Y-137943460D01*
X64677095Y-137943459D01*
X64677094Y-137943459D01*
X64598841Y-137921533D01*
X64402045Y-137866393D01*
X64402041Y-137866392D01*
X64402040Y-137866392D01*
X64260547Y-137846944D01*
X64119055Y-137827497D01*
X64119054Y-137827497D01*
X63833408Y-137827497D01*
X63833407Y-137827497D01*
X63550422Y-137866392D01*
X63550416Y-137866393D01*
X63275364Y-137943460D01*
X63013372Y-138057259D01*
X62769312Y-138205675D01*
X62547736Y-138385940D01*
X62547722Y-138385953D01*
X62352762Y-138594703D01*
X62188032Y-138828075D01*
X62056618Y-139081693D01*
X61960963Y-139350839D01*
X61960958Y-139350856D01*
X61902845Y-139630515D01*
X61902844Y-139630516D01*
X61883352Y-139915497D01*
X48125481Y-139915497D01*
X48125481Y-101815497D01*
X61838798Y-101815497D01*
X61858705Y-102106544D01*
X61858706Y-102106546D01*
X61918056Y-102392158D01*
X61918061Y-102392175D01*
X62015752Y-102667051D01*
X62149967Y-102926074D01*
X62149971Y-102926080D01*
X62318194Y-103164398D01*
X62318198Y-103164402D01*
X62318200Y-103164405D01*
X62517319Y-103377610D01*
X62517324Y-103377614D01*
X62517326Y-103377616D01*
X62743608Y-103561710D01*
X62743611Y-103561712D01*
X62743615Y-103561715D01*
X62992873Y-103713292D01*
X63260448Y-103829517D01*
X63541357Y-103908224D01*
X63795443Y-103943146D01*
X63830366Y-103947947D01*
X63830367Y-103947947D01*
X64122096Y-103947947D01*
X64153253Y-103943664D01*
X64411105Y-103908224D01*
X64692014Y-103829517D01*
X64959589Y-103713292D01*
X65208847Y-103561715D01*
X65435143Y-103377610D01*
X65634262Y-103164405D01*
X65802495Y-102926073D01*
X65936709Y-102667053D01*
X66034402Y-102392170D01*
X66034403Y-102392163D01*
X66034405Y-102392158D01*
X66069302Y-102224224D01*
X66093756Y-102106544D01*
X66113664Y-101815497D01*
X66093756Y-101524450D01*
X66069302Y-101406770D01*
X66034405Y-101238835D01*
X66034400Y-101238818D01*
X65936709Y-100963942D01*
X65936709Y-100963941D01*
X65802495Y-100704921D01*
X65802494Y-100704919D01*
X65802490Y-100704913D01*
X65634267Y-100466595D01*
X65634263Y-100466591D01*
X65634262Y-100466589D01*
X65435143Y-100253384D01*
X65435136Y-100253379D01*
X65435135Y-100253377D01*
X65208853Y-100069283D01*
X65208842Y-100069276D01*
X64959593Y-99917704D01*
X64959590Y-99917702D01*
X64959589Y-99917702D01*
X64835396Y-99863757D01*
X64692017Y-99801478D01*
X64692015Y-99801477D01*
X64692014Y-99801477D01*
X64612092Y-99779084D01*
X64411110Y-99722771D01*
X64411106Y-99722770D01*
X64411105Y-99722770D01*
X64266600Y-99702908D01*
X64122096Y-99683047D01*
X64122095Y-99683047D01*
X63830367Y-99683047D01*
X63830366Y-99683047D01*
X63541357Y-99722770D01*
X63541351Y-99722771D01*
X63260444Y-99801478D01*
X62992868Y-99917704D01*
X62743619Y-100069276D01*
X62743608Y-100069283D01*
X62517326Y-100253377D01*
X62318194Y-100466595D01*
X62149971Y-100704913D01*
X62149967Y-100704919D01*
X62015752Y-100963942D01*
X61918061Y-101238818D01*
X61918056Y-101238835D01*
X61858706Y-101524447D01*
X61858705Y-101524449D01*
X61838798Y-101815497D01*
X48125481Y-101815497D01*
X48125481Y-62868482D01*
X48125676Y-62861530D01*
X48135621Y-62684437D01*
X48141907Y-62572495D01*
X48143461Y-62558696D01*
X48191371Y-62276722D01*
X48194460Y-62263187D01*
X48273638Y-61988351D01*
X48278229Y-61975233D01*
X48280044Y-61970851D01*
X48387676Y-61711001D01*
X48393699Y-61698495D01*
X48532050Y-61448165D01*
X48539445Y-61436397D01*
X48704955Y-61203132D01*
X48713596Y-61192295D01*
X48904193Y-60979016D01*
X48914004Y-60969205D01*
X49127284Y-60778605D01*
X49138116Y-60769967D01*
X49371400Y-60604442D01*
X49383132Y-60597070D01*
X49633478Y-60458707D01*
X49645974Y-60452689D01*
X49910233Y-60343228D01*
X49923325Y-60338646D01*
X50198166Y-60259465D01*
X50211709Y-60256374D01*
X50493677Y-60208464D01*
X50507480Y-60206908D01*
X50796120Y-60190698D01*
X50803073Y-60190503D01*
X80846043Y-60190503D01*
X80846366Y-60190481D01*
X80952543Y-60190482D01*
X81311935Y-60155087D01*
X81666128Y-60084636D01*
X82011709Y-59979807D01*
X82345351Y-59841610D01*
X82528835Y-59743536D01*
X82601606Y-59704641D01*
X82660058Y-59690000D01*
X86998000Y-59690000D01*
X87065039Y-59709685D01*
G37*
%TD.AperFunction*%
%TD*%
%TA.AperFunction,Conductor*%
%TO.N,GND*%
G36*
X66910417Y-75406337D02*
G01*
X66991128Y-75527129D01*
X67093852Y-75629853D01*
X67214644Y-75710564D01*
X67249522Y-75725011D01*
X66693923Y-76280609D01*
X66696327Y-76319316D01*
X66696327Y-76334686D01*
X66693923Y-76373390D01*
X67249522Y-76928988D01*
X67214644Y-76943436D01*
X67093852Y-77024147D01*
X66991128Y-77126871D01*
X66910417Y-77247663D01*
X66895969Y-77282541D01*
X66340543Y-76727115D01*
X66306775Y-76730618D01*
X66281192Y-76730618D01*
X66247416Y-76727115D01*
X65691991Y-77282540D01*
X65677545Y-77247663D01*
X65596834Y-77126871D01*
X65494110Y-77024147D01*
X65373318Y-76943436D01*
X65338439Y-76928988D01*
X65894037Y-76373390D01*
X65891634Y-76334682D01*
X65891634Y-76319312D01*
X65894037Y-76280609D01*
X65338439Y-75725011D01*
X65373318Y-75710564D01*
X65494110Y-75629853D01*
X65596834Y-75527129D01*
X65677545Y-75406337D01*
X65691991Y-75371458D01*
X66247414Y-75926881D01*
X66281192Y-75923379D01*
X66306775Y-75923380D01*
X66340545Y-75926882D01*
X66895969Y-75371457D01*
X66910417Y-75406337D01*
G37*
%TD.AperFunction*%
%TA.AperFunction,Conductor*%
G36*
X69450417Y-75406337D02*
G01*
X69531128Y-75527129D01*
X69633852Y-75629853D01*
X69754644Y-75710564D01*
X69789522Y-75725011D01*
X69233923Y-76280609D01*
X69236327Y-76319316D01*
X69236327Y-76334686D01*
X69233923Y-76373390D01*
X69789522Y-76928988D01*
X69754644Y-76943436D01*
X69633852Y-77024147D01*
X69531128Y-77126871D01*
X69450417Y-77247663D01*
X69435969Y-77282541D01*
X68880543Y-76727115D01*
X68846775Y-76730618D01*
X68821192Y-76730618D01*
X68787416Y-76727115D01*
X68231991Y-77282540D01*
X68217545Y-77247663D01*
X68136834Y-77126871D01*
X68034110Y-77024147D01*
X67913318Y-76943436D01*
X67878439Y-76928988D01*
X68434037Y-76373390D01*
X68431634Y-76334682D01*
X68431634Y-76319312D01*
X68434037Y-76280609D01*
X67878439Y-75725011D01*
X67913318Y-75710564D01*
X68034110Y-75629853D01*
X68136834Y-75527129D01*
X68217545Y-75406337D01*
X68231992Y-75371458D01*
X68787414Y-75926881D01*
X68821192Y-75923379D01*
X68846775Y-75923380D01*
X68880545Y-75926882D01*
X69435969Y-75371457D01*
X69450417Y-75406337D01*
G37*
%TD.AperFunction*%
%TA.AperFunction,Conductor*%
G36*
X71990417Y-75406337D02*
G01*
X72071128Y-75527129D01*
X72173852Y-75629853D01*
X72294644Y-75710564D01*
X72329522Y-75725011D01*
X71773923Y-76280609D01*
X71776327Y-76319316D01*
X71776327Y-76334686D01*
X71773923Y-76373390D01*
X72329522Y-76928988D01*
X72294644Y-76943436D01*
X72173852Y-77024147D01*
X72071128Y-77126871D01*
X71990417Y-77247663D01*
X71975969Y-77282541D01*
X71420543Y-76727115D01*
X71386775Y-76730618D01*
X71361192Y-76730618D01*
X71327416Y-76727115D01*
X70771991Y-77282540D01*
X70757545Y-77247663D01*
X70676834Y-77126871D01*
X70574110Y-77024147D01*
X70453318Y-76943436D01*
X70418439Y-76928988D01*
X70974037Y-76373390D01*
X70971634Y-76334682D01*
X70971634Y-76319312D01*
X70974037Y-76280609D01*
X70418439Y-75725011D01*
X70453318Y-75710564D01*
X70574110Y-75629853D01*
X70676834Y-75527129D01*
X70757545Y-75406337D01*
X70771991Y-75371458D01*
X71327414Y-75926881D01*
X71361192Y-75923379D01*
X71386775Y-75923380D01*
X71420545Y-75926882D01*
X71975969Y-75371457D01*
X71990417Y-75406337D01*
G37*
%TD.AperFunction*%
%TA.AperFunction,Conductor*%
G36*
X74530417Y-75406337D02*
G01*
X74611128Y-75527129D01*
X74713852Y-75629853D01*
X74834644Y-75710564D01*
X74869522Y-75725011D01*
X74313923Y-76280609D01*
X74316327Y-76319316D01*
X74316327Y-76334686D01*
X74313923Y-76373390D01*
X74869522Y-76928988D01*
X74834644Y-76943436D01*
X74713852Y-77024147D01*
X74611128Y-77126871D01*
X74530417Y-77247663D01*
X74515969Y-77282541D01*
X73960543Y-76727115D01*
X73926775Y-76730618D01*
X73901192Y-76730618D01*
X73867416Y-76727115D01*
X73311991Y-77282540D01*
X73297545Y-77247663D01*
X73216834Y-77126871D01*
X73114110Y-77024147D01*
X72993318Y-76943436D01*
X72958439Y-76928988D01*
X73514037Y-76373390D01*
X73511634Y-76334682D01*
X73511634Y-76319312D01*
X73514037Y-76280609D01*
X72958439Y-75725011D01*
X72993318Y-75710564D01*
X73114110Y-75629853D01*
X73216834Y-75527129D01*
X73297545Y-75406337D01*
X73311991Y-75371458D01*
X73867414Y-75926881D01*
X73901192Y-75923379D01*
X73926775Y-75923380D01*
X73960545Y-75926882D01*
X74515969Y-75371457D01*
X74530417Y-75406337D01*
G37*
%TD.AperFunction*%
%TA.AperFunction,Conductor*%
G36*
X66910417Y-72866337D02*
G01*
X66991128Y-72987129D01*
X67093852Y-73089853D01*
X67214644Y-73170564D01*
X67249522Y-73185011D01*
X66693923Y-73740609D01*
X66696327Y-73779316D01*
X66696327Y-73794686D01*
X66693923Y-73833390D01*
X67249522Y-74388988D01*
X67214644Y-74403436D01*
X67093852Y-74484147D01*
X66991128Y-74586871D01*
X66910417Y-74707663D01*
X66895969Y-74742541D01*
X66340543Y-74187115D01*
X66306775Y-74190618D01*
X66281192Y-74190618D01*
X66247416Y-74187115D01*
X65691991Y-74742540D01*
X65677545Y-74707663D01*
X65596834Y-74586871D01*
X65494110Y-74484147D01*
X65373318Y-74403436D01*
X65338439Y-74388988D01*
X65894037Y-73833390D01*
X65891634Y-73794682D01*
X65891634Y-73779312D01*
X65894037Y-73740609D01*
X65338439Y-73185011D01*
X65373318Y-73170564D01*
X65494110Y-73089853D01*
X65596834Y-72987129D01*
X65677545Y-72866337D01*
X65691991Y-72831458D01*
X66247414Y-73386881D01*
X66281192Y-73383379D01*
X66306775Y-73383380D01*
X66340545Y-73386882D01*
X66895969Y-72831457D01*
X66910417Y-72866337D01*
G37*
%TD.AperFunction*%
%TA.AperFunction,Conductor*%
G36*
X69450417Y-72866337D02*
G01*
X69531128Y-72987129D01*
X69633852Y-73089853D01*
X69754644Y-73170564D01*
X69789522Y-73185011D01*
X69233923Y-73740609D01*
X69236327Y-73779316D01*
X69236327Y-73794686D01*
X69233923Y-73833390D01*
X69789522Y-74388988D01*
X69754644Y-74403436D01*
X69633852Y-74484147D01*
X69531128Y-74586871D01*
X69450417Y-74707663D01*
X69435969Y-74742541D01*
X68880543Y-74187115D01*
X68846775Y-74190618D01*
X68821192Y-74190618D01*
X68787416Y-74187115D01*
X68231991Y-74742540D01*
X68217545Y-74707663D01*
X68136834Y-74586871D01*
X68034110Y-74484147D01*
X67913318Y-74403436D01*
X67878439Y-74388988D01*
X68434037Y-73833390D01*
X68431634Y-73794682D01*
X68431634Y-73779312D01*
X68434037Y-73740609D01*
X67878439Y-73185011D01*
X67913318Y-73170564D01*
X68034110Y-73089853D01*
X68136834Y-72987129D01*
X68217545Y-72866337D01*
X68231992Y-72831458D01*
X68787414Y-73386881D01*
X68821192Y-73383379D01*
X68846775Y-73383380D01*
X68880545Y-73386882D01*
X69435969Y-72831457D01*
X69450417Y-72866337D01*
G37*
%TD.AperFunction*%
%TA.AperFunction,Conductor*%
G36*
X71990417Y-72866337D02*
G01*
X72071128Y-72987129D01*
X72173852Y-73089853D01*
X72294644Y-73170564D01*
X72329522Y-73185011D01*
X71773923Y-73740609D01*
X71776327Y-73779316D01*
X71776327Y-73794686D01*
X71773923Y-73833390D01*
X72329522Y-74388988D01*
X72294644Y-74403436D01*
X72173852Y-74484147D01*
X72071128Y-74586871D01*
X71990417Y-74707663D01*
X71975969Y-74742541D01*
X71420543Y-74187115D01*
X71386775Y-74190618D01*
X71361192Y-74190618D01*
X71327416Y-74187115D01*
X70771991Y-74742540D01*
X70757545Y-74707663D01*
X70676834Y-74586871D01*
X70574110Y-74484147D01*
X70453318Y-74403436D01*
X70418439Y-74388988D01*
X70974037Y-73833390D01*
X70971634Y-73794682D01*
X70971634Y-73779312D01*
X70974037Y-73740609D01*
X70418439Y-73185011D01*
X70453318Y-73170564D01*
X70574110Y-73089853D01*
X70676834Y-72987129D01*
X70757545Y-72866337D01*
X70771991Y-72831458D01*
X71327414Y-73386881D01*
X71361192Y-73383379D01*
X71386775Y-73383380D01*
X71420545Y-73386882D01*
X71975969Y-72831457D01*
X71990417Y-72866337D01*
G37*
%TD.AperFunction*%
%TA.AperFunction,Conductor*%
G36*
X74530417Y-72866337D02*
G01*
X74611128Y-72987129D01*
X74713852Y-73089853D01*
X74834644Y-73170564D01*
X74869522Y-73185011D01*
X74313923Y-73740609D01*
X74316327Y-73779316D01*
X74316327Y-73794686D01*
X74313923Y-73833390D01*
X74869522Y-74388988D01*
X74834644Y-74403436D01*
X74713852Y-74484147D01*
X74611128Y-74586871D01*
X74530417Y-74707663D01*
X74515969Y-74742541D01*
X73960543Y-74187115D01*
X73926775Y-74190618D01*
X73901192Y-74190618D01*
X73867416Y-74187115D01*
X73311991Y-74742540D01*
X73297545Y-74707663D01*
X73216834Y-74586871D01*
X73114110Y-74484147D01*
X72993318Y-74403436D01*
X72958439Y-74388988D01*
X73514037Y-73833390D01*
X73511634Y-73794682D01*
X73511634Y-73779312D01*
X73514037Y-73740609D01*
X72958439Y-73185011D01*
X72993318Y-73170564D01*
X73114110Y-73089853D01*
X73216834Y-72987129D01*
X73297545Y-72866337D01*
X73311991Y-72831458D01*
X73867414Y-73386881D01*
X73901192Y-73383379D01*
X73926775Y-73383380D01*
X73960545Y-73386882D01*
X74515969Y-72831457D01*
X74530417Y-72866337D01*
G37*
%TD.AperFunction*%
%TA.AperFunction,Conductor*%
G36*
X66910417Y-70326337D02*
G01*
X66991128Y-70447129D01*
X67093852Y-70549853D01*
X67214644Y-70630564D01*
X67249522Y-70645011D01*
X66693923Y-71200609D01*
X66696327Y-71239316D01*
X66696327Y-71254686D01*
X66693923Y-71293390D01*
X67249522Y-71848988D01*
X67214644Y-71863436D01*
X67093852Y-71944147D01*
X66991128Y-72046871D01*
X66910417Y-72167663D01*
X66895969Y-72202541D01*
X66340543Y-71647115D01*
X66306775Y-71650618D01*
X66281192Y-71650618D01*
X66247416Y-71647115D01*
X65691991Y-72202540D01*
X65677545Y-72167663D01*
X65596834Y-72046871D01*
X65494110Y-71944147D01*
X65373318Y-71863436D01*
X65338439Y-71848988D01*
X65894037Y-71293390D01*
X65891634Y-71254682D01*
X65891634Y-71239312D01*
X65894037Y-71200609D01*
X65338439Y-70645011D01*
X65373318Y-70630564D01*
X65494110Y-70549853D01*
X65596834Y-70447129D01*
X65677545Y-70326337D01*
X65691991Y-70291458D01*
X66247414Y-70846881D01*
X66281192Y-70843379D01*
X66306775Y-70843380D01*
X66340545Y-70846882D01*
X66895969Y-70291457D01*
X66910417Y-70326337D01*
G37*
%TD.AperFunction*%
%TA.AperFunction,Conductor*%
G36*
X69450417Y-70326337D02*
G01*
X69531128Y-70447129D01*
X69633852Y-70549853D01*
X69754644Y-70630564D01*
X69789522Y-70645011D01*
X69233923Y-71200609D01*
X69236327Y-71239316D01*
X69236327Y-71254686D01*
X69233923Y-71293390D01*
X69789522Y-71848988D01*
X69754644Y-71863436D01*
X69633852Y-71944147D01*
X69531128Y-72046871D01*
X69450417Y-72167663D01*
X69435969Y-72202541D01*
X68880543Y-71647115D01*
X68846775Y-71650618D01*
X68821192Y-71650618D01*
X68787416Y-71647115D01*
X68231991Y-72202540D01*
X68217545Y-72167663D01*
X68136834Y-72046871D01*
X68034110Y-71944147D01*
X67913318Y-71863436D01*
X67878439Y-71848988D01*
X68434037Y-71293390D01*
X68431634Y-71254682D01*
X68431634Y-71239312D01*
X68434037Y-71200609D01*
X67878439Y-70645011D01*
X67913318Y-70630564D01*
X68034110Y-70549853D01*
X68136834Y-70447129D01*
X68217545Y-70326337D01*
X68231992Y-70291458D01*
X68787414Y-70846881D01*
X68821192Y-70843379D01*
X68846775Y-70843380D01*
X68880545Y-70846882D01*
X69435969Y-70291457D01*
X69450417Y-70326337D01*
G37*
%TD.AperFunction*%
%TA.AperFunction,Conductor*%
G36*
X71990417Y-70326337D02*
G01*
X72071128Y-70447129D01*
X72173852Y-70549853D01*
X72294644Y-70630564D01*
X72329522Y-70645011D01*
X71773923Y-71200609D01*
X71776327Y-71239316D01*
X71776327Y-71254686D01*
X71773923Y-71293390D01*
X72329522Y-71848988D01*
X72294644Y-71863436D01*
X72173852Y-71944147D01*
X72071128Y-72046871D01*
X71990417Y-72167663D01*
X71975969Y-72202541D01*
X71420543Y-71647115D01*
X71386775Y-71650618D01*
X71361192Y-71650618D01*
X71327416Y-71647115D01*
X70771991Y-72202540D01*
X70757545Y-72167663D01*
X70676834Y-72046871D01*
X70574110Y-71944147D01*
X70453318Y-71863436D01*
X70418439Y-71848988D01*
X70974037Y-71293390D01*
X70971634Y-71254682D01*
X70971634Y-71239312D01*
X70974037Y-71200609D01*
X70418439Y-70645011D01*
X70453318Y-70630564D01*
X70574110Y-70549853D01*
X70676834Y-70447129D01*
X70757545Y-70326337D01*
X70771991Y-70291458D01*
X71327414Y-70846881D01*
X71361192Y-70843379D01*
X71386775Y-70843380D01*
X71420545Y-70846882D01*
X71975969Y-70291457D01*
X71990417Y-70326337D01*
G37*
%TD.AperFunction*%
%TA.AperFunction,Conductor*%
G36*
X74530417Y-70326337D02*
G01*
X74611128Y-70447129D01*
X74713852Y-70549853D01*
X74834644Y-70630564D01*
X74869522Y-70645011D01*
X74313923Y-71200609D01*
X74316327Y-71239316D01*
X74316327Y-71254686D01*
X74313923Y-71293390D01*
X74869522Y-71848988D01*
X74834644Y-71863436D01*
X74713852Y-71944147D01*
X74611128Y-72046871D01*
X74530417Y-72167663D01*
X74515969Y-72202541D01*
X73960543Y-71647115D01*
X73926775Y-71650618D01*
X73901192Y-71650618D01*
X73867416Y-71647115D01*
X73311991Y-72202540D01*
X73297545Y-72167663D01*
X73216834Y-72046871D01*
X73114110Y-71944147D01*
X72993318Y-71863436D01*
X72958439Y-71848988D01*
X73514037Y-71293390D01*
X73511634Y-71254682D01*
X73511634Y-71239312D01*
X73514037Y-71200609D01*
X72958439Y-70645011D01*
X72993318Y-70630564D01*
X73114110Y-70549853D01*
X73216834Y-70447129D01*
X73297545Y-70326337D01*
X73311991Y-70291458D01*
X73867414Y-70846881D01*
X73901192Y-70843379D01*
X73926775Y-70843380D01*
X73960545Y-70846882D01*
X74515969Y-70291457D01*
X74530417Y-70326337D01*
G37*
%TD.AperFunction*%
%TA.AperFunction,Conductor*%
G36*
X66910417Y-67786337D02*
G01*
X66991128Y-67907129D01*
X67093852Y-68009853D01*
X67214644Y-68090564D01*
X67249522Y-68105011D01*
X66693923Y-68660609D01*
X66696327Y-68699316D01*
X66696327Y-68714686D01*
X66693923Y-68753390D01*
X67249522Y-69308988D01*
X67214644Y-69323436D01*
X67093852Y-69404147D01*
X66991128Y-69506871D01*
X66910417Y-69627663D01*
X66895969Y-69662541D01*
X66340543Y-69107115D01*
X66306775Y-69110618D01*
X66281192Y-69110618D01*
X66247416Y-69107115D01*
X65691991Y-69662540D01*
X65677545Y-69627663D01*
X65596834Y-69506871D01*
X65494110Y-69404147D01*
X65373318Y-69323436D01*
X65338439Y-69308988D01*
X65894037Y-68753390D01*
X65891634Y-68714682D01*
X65891634Y-68699312D01*
X65894037Y-68660609D01*
X65338439Y-68105011D01*
X65373318Y-68090564D01*
X65494110Y-68009853D01*
X65596834Y-67907129D01*
X65677545Y-67786337D01*
X65691991Y-67751458D01*
X66247414Y-68306881D01*
X66281192Y-68303379D01*
X66306775Y-68303380D01*
X66340545Y-68306882D01*
X66895969Y-67751457D01*
X66910417Y-67786337D01*
G37*
%TD.AperFunction*%
%TA.AperFunction,Conductor*%
G36*
X69450417Y-67786337D02*
G01*
X69531128Y-67907129D01*
X69633852Y-68009853D01*
X69754644Y-68090564D01*
X69789522Y-68105011D01*
X69233923Y-68660609D01*
X69236327Y-68699316D01*
X69236327Y-68714686D01*
X69233923Y-68753390D01*
X69789522Y-69308988D01*
X69754644Y-69323436D01*
X69633852Y-69404147D01*
X69531128Y-69506871D01*
X69450417Y-69627663D01*
X69435969Y-69662541D01*
X68880543Y-69107115D01*
X68846775Y-69110618D01*
X68821192Y-69110618D01*
X68787416Y-69107115D01*
X68231991Y-69662540D01*
X68217545Y-69627663D01*
X68136834Y-69506871D01*
X68034110Y-69404147D01*
X67913318Y-69323436D01*
X67878439Y-69308988D01*
X68434037Y-68753390D01*
X68431634Y-68714682D01*
X68431634Y-68699312D01*
X68434037Y-68660609D01*
X67878439Y-68105011D01*
X67913318Y-68090564D01*
X68034110Y-68009853D01*
X68136834Y-67907129D01*
X68217545Y-67786337D01*
X68231992Y-67751458D01*
X68787414Y-68306881D01*
X68821192Y-68303379D01*
X68846775Y-68303380D01*
X68880545Y-68306882D01*
X69435969Y-67751457D01*
X69450417Y-67786337D01*
G37*
%TD.AperFunction*%
%TA.AperFunction,Conductor*%
G36*
X71990417Y-67786337D02*
G01*
X72071128Y-67907129D01*
X72173852Y-68009853D01*
X72294644Y-68090564D01*
X72329522Y-68105011D01*
X71773923Y-68660609D01*
X71776327Y-68699316D01*
X71776327Y-68714686D01*
X71773923Y-68753390D01*
X72329522Y-69308988D01*
X72294644Y-69323436D01*
X72173852Y-69404147D01*
X72071128Y-69506871D01*
X71990417Y-69627663D01*
X71975969Y-69662541D01*
X71420543Y-69107115D01*
X71386775Y-69110618D01*
X71361192Y-69110618D01*
X71327416Y-69107115D01*
X70771991Y-69662540D01*
X70757545Y-69627663D01*
X70676834Y-69506871D01*
X70574110Y-69404147D01*
X70453318Y-69323436D01*
X70418439Y-69308988D01*
X70974037Y-68753390D01*
X70971634Y-68714682D01*
X70971634Y-68699312D01*
X70974037Y-68660609D01*
X70418439Y-68105011D01*
X70453318Y-68090564D01*
X70574110Y-68009853D01*
X70676834Y-67907129D01*
X70757545Y-67786337D01*
X70771991Y-67751458D01*
X71327414Y-68306881D01*
X71361192Y-68303379D01*
X71386775Y-68303380D01*
X71420545Y-68306882D01*
X71975969Y-67751457D01*
X71990417Y-67786337D01*
G37*
%TD.AperFunction*%
%TA.AperFunction,Conductor*%
G36*
X74530417Y-67786337D02*
G01*
X74611128Y-67907129D01*
X74713852Y-68009853D01*
X74834644Y-68090564D01*
X74869522Y-68105011D01*
X74313923Y-68660609D01*
X74316327Y-68699316D01*
X74316327Y-68714686D01*
X74313923Y-68753390D01*
X74869522Y-69308988D01*
X74834644Y-69323436D01*
X74713852Y-69404147D01*
X74611128Y-69506871D01*
X74530417Y-69627663D01*
X74515969Y-69662541D01*
X73960543Y-69107115D01*
X73926775Y-69110618D01*
X73901192Y-69110618D01*
X73867416Y-69107115D01*
X73311991Y-69662540D01*
X73297545Y-69627663D01*
X73216834Y-69506871D01*
X73114110Y-69404147D01*
X72993318Y-69323436D01*
X72958439Y-69308988D01*
X73514037Y-68753390D01*
X73511634Y-68714682D01*
X73511634Y-68699312D01*
X73514037Y-68660609D01*
X72958439Y-68105011D01*
X72993318Y-68090564D01*
X73114110Y-68009853D01*
X73216834Y-67907129D01*
X73297545Y-67786337D01*
X73311991Y-67751458D01*
X73867414Y-68306881D01*
X73901192Y-68303379D01*
X73926775Y-68303380D01*
X73960545Y-68306882D01*
X74515969Y-67751457D01*
X74530417Y-67786337D01*
G37*
%TD.AperFunction*%
%TA.AperFunction,Conductor*%
G36*
X87065039Y-59709685D02*
G01*
X87110794Y-59762489D01*
X87122000Y-59814000D01*
X87122000Y-93321662D01*
X87118574Y-93350609D01*
X87047545Y-93646463D01*
X86971141Y-94128862D01*
X86971141Y-94128863D01*
X86932821Y-94615767D01*
X86932821Y-110387613D01*
X86932814Y-110387633D01*
X86932814Y-110598325D01*
X86966126Y-110915285D01*
X86966127Y-110915291D01*
X87032382Y-111227000D01*
X87032382Y-111227001D01*
X87115931Y-111484140D01*
X87122000Y-111522458D01*
X87122000Y-119642543D01*
X87115931Y-119680861D01*
X87032394Y-119937963D01*
X87032393Y-119937965D01*
X86966136Y-120249684D01*
X86932821Y-120566639D01*
X86932821Y-120725984D01*
X86932820Y-120801861D01*
X86932821Y-120801874D01*
X86932821Y-164917613D01*
X86932814Y-164917633D01*
X86932814Y-165128325D01*
X86966126Y-165445285D01*
X86966127Y-165445291D01*
X87032382Y-165757000D01*
X87032382Y-165757001D01*
X87115931Y-166014140D01*
X87122000Y-166052458D01*
X87122000Y-174172543D01*
X87115931Y-174210861D01*
X87032394Y-174467963D01*
X87032393Y-174467965D01*
X86966136Y-174779684D01*
X86932821Y-175096639D01*
X86932821Y-175255984D01*
X86932820Y-175331861D01*
X86932821Y-175331874D01*
X86932821Y-191079202D01*
X86971141Y-191566106D01*
X86971141Y-191566107D01*
X87047545Y-192048506D01*
X87118574Y-192344359D01*
X87122000Y-192373306D01*
X87122000Y-214982997D01*
X87102315Y-215050036D01*
X87049511Y-215095791D01*
X86998000Y-215106997D01*
X58004211Y-215106997D01*
X57978266Y-215104252D01*
X57962005Y-215100772D01*
X57914661Y-215079539D01*
X57912064Y-215077636D01*
X57877550Y-215038885D01*
X57875960Y-215036087D01*
X57860335Y-214986677D01*
X57860303Y-214986348D01*
X57860027Y-214983467D01*
X57865988Y-214931910D01*
X57867022Y-214928851D01*
X57893541Y-214884279D01*
X57904825Y-214872104D01*
X57924449Y-214854961D01*
X58121770Y-214716259D01*
X58515015Y-214393843D01*
X58883278Y-214043162D01*
X59224532Y-213666147D01*
X59536899Y-213264872D01*
X59818661Y-212841545D01*
X60068266Y-212398497D01*
X60284342Y-211938165D01*
X60465698Y-211463081D01*
X60611339Y-210975861D01*
X60720461Y-210479185D01*
X60792464Y-209975786D01*
X60807936Y-209748173D01*
X60826952Y-209468462D01*
X60826952Y-209468449D01*
X60826953Y-209468435D01*
X60823737Y-208959923D01*
X60782835Y-208453049D01*
X60704470Y-207950601D01*
X60589075Y-207455345D01*
X60437285Y-206970005D01*
X60249934Y-206497253D01*
X60028053Y-206039691D01*
X60028052Y-206039689D01*
X60028049Y-206039683D01*
X59772871Y-205599843D01*
X59772864Y-205599832D01*
X59485779Y-205180114D01*
X59485773Y-205180106D01*
X59405371Y-205079472D01*
X59168355Y-204782813D01*
X59047077Y-204652186D01*
X58822360Y-204410143D01*
X58449697Y-204064155D01*
X58449691Y-204064149D01*
X58052399Y-203746732D01*
X57977640Y-203695597D01*
X57632672Y-203459638D01*
X57632661Y-203459631D01*
X57192822Y-203204452D01*
X56735262Y-202982573D01*
X56648414Y-202948155D01*
X56262500Y-202795217D01*
X56171649Y-202766803D01*
X55777175Y-202643430D01*
X55777154Y-202643424D01*
X55281914Y-202528033D01*
X55281909Y-202528032D01*
X55281905Y-202528031D01*
X54779457Y-202449666D01*
X54779453Y-202449665D01*
X54779449Y-202449665D01*
X54272588Y-202408763D01*
X54145455Y-202407959D01*
X53764071Y-202405547D01*
X53764069Y-202405547D01*
X53764056Y-202405547D01*
X53764043Y-202405547D01*
X53256729Y-202440034D01*
X53256723Y-202440034D01*
X53256720Y-202440035D01*
X52753321Y-202512038D01*
X52753314Y-202512039D01*
X52753300Y-202512042D01*
X52256651Y-202621157D01*
X51769413Y-202766803D01*
X51294341Y-202948155D01*
X50834020Y-203164224D01*
X50834013Y-203164228D01*
X50390964Y-203413832D01*
X49967638Y-203695593D01*
X49967618Y-203695607D01*
X49566358Y-204007963D01*
X49566357Y-204007964D01*
X49189340Y-204349220D01*
X48838667Y-204717472D01*
X48516246Y-205110723D01*
X48412180Y-205258766D01*
X48412086Y-205258884D01*
X48377576Y-205307992D01*
X48360416Y-205327639D01*
X48348219Y-205338944D01*
X48303624Y-205365474D01*
X48300582Y-205366502D01*
X48249088Y-205372466D01*
X48245886Y-205372160D01*
X48196391Y-205356515D01*
X48193597Y-205354926D01*
X48154869Y-205320426D01*
X48152969Y-205317833D01*
X48131735Y-205270482D01*
X48128222Y-205254061D01*
X48125481Y-205228131D01*
X48125481Y-190715497D01*
X61838798Y-190715497D01*
X61858705Y-191006544D01*
X61858706Y-191006546D01*
X61918056Y-191292158D01*
X61918061Y-191292175D01*
X62015752Y-191567051D01*
X62149967Y-191826074D01*
X62149971Y-191826080D01*
X62318194Y-192064398D01*
X62318198Y-192064402D01*
X62318200Y-192064405D01*
X62517319Y-192277610D01*
X62517324Y-192277614D01*
X62517326Y-192277616D01*
X62743608Y-192461710D01*
X62743611Y-192461712D01*
X62743615Y-192461715D01*
X62992873Y-192613292D01*
X63260448Y-192729517D01*
X63541357Y-192808224D01*
X63795443Y-192843146D01*
X63830366Y-192847947D01*
X63830367Y-192847947D01*
X64122096Y-192847947D01*
X64153253Y-192843664D01*
X64411105Y-192808224D01*
X64692014Y-192729517D01*
X64959589Y-192613292D01*
X65208847Y-192461715D01*
X65435143Y-192277610D01*
X65634262Y-192064405D01*
X65802495Y-191826073D01*
X65936709Y-191567053D01*
X66034402Y-191292170D01*
X66034403Y-191292163D01*
X66034405Y-191292158D01*
X66078658Y-191079197D01*
X66093756Y-191006544D01*
X66113664Y-190715497D01*
X66093756Y-190424450D01*
X66069302Y-190306770D01*
X66034405Y-190138835D01*
X66034400Y-190138818D01*
X65936709Y-189863942D01*
X65936709Y-189863941D01*
X65802495Y-189604921D01*
X65802494Y-189604919D01*
X65802490Y-189604913D01*
X65634267Y-189366595D01*
X65634263Y-189366591D01*
X65634262Y-189366589D01*
X65435143Y-189153384D01*
X65435136Y-189153379D01*
X65435135Y-189153377D01*
X65208853Y-188969283D01*
X65208842Y-188969276D01*
X64959593Y-188817704D01*
X64959590Y-188817702D01*
X64959589Y-188817702D01*
X64835396Y-188763757D01*
X64692017Y-188701478D01*
X64692015Y-188701477D01*
X64692014Y-188701477D01*
X64612092Y-188679084D01*
X64411110Y-188622771D01*
X64411106Y-188622770D01*
X64411105Y-188622770D01*
X64266600Y-188602908D01*
X64122096Y-188583047D01*
X64122095Y-188583047D01*
X63830367Y-188583047D01*
X63830366Y-188583047D01*
X63541357Y-188622770D01*
X63541351Y-188622771D01*
X63260444Y-188701478D01*
X62992868Y-188817704D01*
X62743619Y-188969276D01*
X62743608Y-188969283D01*
X62517326Y-189153377D01*
X62318194Y-189366595D01*
X62149971Y-189604913D01*
X62149967Y-189604919D01*
X62015752Y-189863942D01*
X61918061Y-190138818D01*
X61918056Y-190138835D01*
X61858706Y-190424447D01*
X61858705Y-190424449D01*
X61838798Y-190715497D01*
X48125481Y-190715497D01*
X48125481Y-139915497D01*
X61883352Y-139915497D01*
X61902844Y-140200477D01*
X61902845Y-140200478D01*
X61960958Y-140480137D01*
X61960963Y-140480154D01*
X62056618Y-140749300D01*
X62185411Y-140997860D01*
X62188035Y-141002923D01*
X62280690Y-141134187D01*
X62352762Y-141236290D01*
X62547722Y-141445040D01*
X62547725Y-141445043D01*
X62547730Y-141445048D01*
X62769309Y-141625316D01*
X62769311Y-141625317D01*
X62769312Y-141625318D01*
X63013372Y-141773734D01*
X63192308Y-141851457D01*
X63275368Y-141887535D01*
X63550422Y-141964602D01*
X63799212Y-141998796D01*
X63833407Y-142003497D01*
X63833408Y-142003497D01*
X64119055Y-142003497D01*
X64149563Y-141999303D01*
X64402040Y-141964602D01*
X64677094Y-141887535D01*
X64939091Y-141773733D01*
X65183153Y-141625316D01*
X65404732Y-141445048D01*
X65599701Y-141236288D01*
X65764427Y-141002923D01*
X65895843Y-140749302D01*
X65991500Y-140480149D01*
X65991501Y-140480142D01*
X65991503Y-140480137D01*
X66014163Y-140371087D01*
X66049617Y-140200477D01*
X66069110Y-139915497D01*
X66049617Y-139630517D01*
X66023463Y-139504658D01*
X65991503Y-139350856D01*
X65991498Y-139350839D01*
X65895843Y-139081693D01*
X65895843Y-139081692D01*
X65764427Y-138828071D01*
X65599701Y-138594706D01*
X65599699Y-138594703D01*
X65404739Y-138385953D01*
X65404735Y-138385949D01*
X65404732Y-138385946D01*
X65183153Y-138205678D01*
X65183151Y-138205677D01*
X65183149Y-138205675D01*
X64939089Y-138057259D01*
X64677097Y-137943460D01*
X64677095Y-137943459D01*
X64677094Y-137943459D01*
X64598841Y-137921533D01*
X64402045Y-137866393D01*
X64402041Y-137866392D01*
X64402040Y-137866392D01*
X64260547Y-137846944D01*
X64119055Y-137827497D01*
X64119054Y-137827497D01*
X63833408Y-137827497D01*
X63833407Y-137827497D01*
X63550422Y-137866392D01*
X63550416Y-137866393D01*
X63275364Y-137943460D01*
X63013372Y-138057259D01*
X62769312Y-138205675D01*
X62547736Y-138385940D01*
X62547722Y-138385953D01*
X62352762Y-138594703D01*
X62188032Y-138828075D01*
X62056618Y-139081693D01*
X61960963Y-139350839D01*
X61960958Y-139350856D01*
X61902845Y-139630515D01*
X61902844Y-139630516D01*
X61883352Y-139915497D01*
X48125481Y-139915497D01*
X48125481Y-101815497D01*
X61838798Y-101815497D01*
X61858705Y-102106544D01*
X61858706Y-102106546D01*
X61918056Y-102392158D01*
X61918061Y-102392175D01*
X62015752Y-102667051D01*
X62149967Y-102926074D01*
X62149971Y-102926080D01*
X62318194Y-103164398D01*
X62318198Y-103164402D01*
X62318200Y-103164405D01*
X62517319Y-103377610D01*
X62517324Y-103377614D01*
X62517326Y-103377616D01*
X62743608Y-103561710D01*
X62743611Y-103561712D01*
X62743615Y-103561715D01*
X62992873Y-103713292D01*
X63260448Y-103829517D01*
X63541357Y-103908224D01*
X63795443Y-103943146D01*
X63830366Y-103947947D01*
X63830367Y-103947947D01*
X64122096Y-103947947D01*
X64153253Y-103943664D01*
X64411105Y-103908224D01*
X64692014Y-103829517D01*
X64959589Y-103713292D01*
X65208847Y-103561715D01*
X65435143Y-103377610D01*
X65634262Y-103164405D01*
X65802495Y-102926073D01*
X65936709Y-102667053D01*
X66034402Y-102392170D01*
X66034403Y-102392163D01*
X66034405Y-102392158D01*
X66069302Y-102224224D01*
X66093756Y-102106544D01*
X66113664Y-101815497D01*
X66093756Y-101524450D01*
X66069302Y-101406770D01*
X66034405Y-101238835D01*
X66034400Y-101238818D01*
X65936709Y-100963942D01*
X65936709Y-100963941D01*
X65802495Y-100704921D01*
X65802494Y-100704919D01*
X65802490Y-100704913D01*
X65634267Y-100466595D01*
X65634263Y-100466591D01*
X65634262Y-100466589D01*
X65435143Y-100253384D01*
X65435136Y-100253379D01*
X65435135Y-100253377D01*
X65208853Y-100069283D01*
X65208842Y-100069276D01*
X64959593Y-99917704D01*
X64959590Y-99917702D01*
X64959589Y-99917702D01*
X64835396Y-99863757D01*
X64692017Y-99801478D01*
X64692015Y-99801477D01*
X64692014Y-99801477D01*
X64612092Y-99779084D01*
X64411110Y-99722771D01*
X64411106Y-99722770D01*
X64411105Y-99722770D01*
X64266600Y-99702908D01*
X64122096Y-99683047D01*
X64122095Y-99683047D01*
X63830367Y-99683047D01*
X63830366Y-99683047D01*
X63541357Y-99722770D01*
X63541351Y-99722771D01*
X63260444Y-99801478D01*
X62992868Y-99917704D01*
X62743619Y-100069276D01*
X62743608Y-100069283D01*
X62517326Y-100253377D01*
X62318194Y-100466595D01*
X62149971Y-100704913D01*
X62149967Y-100704919D01*
X62015752Y-100963942D01*
X61918061Y-101238818D01*
X61918056Y-101238835D01*
X61858706Y-101524447D01*
X61858705Y-101524449D01*
X61838798Y-101815497D01*
X48125481Y-101815497D01*
X48125481Y-67436994D01*
X63518840Y-67436994D01*
X63518840Y-67437005D01*
X63539366Y-67684729D01*
X63539368Y-67684738D01*
X63600393Y-67925717D01*
X63700247Y-68153364D01*
X63800545Y-68306882D01*
X64355969Y-67751457D01*
X64370417Y-67786337D01*
X64451128Y-67907129D01*
X64553852Y-68009853D01*
X64674644Y-68090564D01*
X64709522Y-68105011D01*
X64153923Y-68660609D01*
X64156327Y-68699316D01*
X64156327Y-68714686D01*
X64153923Y-68753390D01*
X64709522Y-69308988D01*
X64674644Y-69323436D01*
X64553852Y-69404147D01*
X64451128Y-69506871D01*
X64370417Y-69627663D01*
X64355970Y-69662541D01*
X63800545Y-69107116D01*
X63700248Y-69260632D01*
X63600393Y-69488282D01*
X63539368Y-69729261D01*
X63539366Y-69729270D01*
X63518840Y-69976994D01*
X63518840Y-69977005D01*
X63539366Y-70224729D01*
X63539368Y-70224738D01*
X63600393Y-70465717D01*
X63700247Y-70693364D01*
X63800545Y-70846882D01*
X64355969Y-70291457D01*
X64370417Y-70326337D01*
X64451128Y-70447129D01*
X64553852Y-70549853D01*
X64674644Y-70630564D01*
X64709522Y-70645011D01*
X64153923Y-71200609D01*
X64156327Y-71239316D01*
X64156327Y-71254686D01*
X64153923Y-71293390D01*
X64709522Y-71848988D01*
X64674644Y-71863436D01*
X64553852Y-71944147D01*
X64451128Y-72046871D01*
X64370417Y-72167663D01*
X64355970Y-72202541D01*
X63800545Y-71647116D01*
X63700248Y-71800632D01*
X63600393Y-72028282D01*
X63539368Y-72269261D01*
X63539366Y-72269270D01*
X63518840Y-72516994D01*
X63518840Y-72517005D01*
X63539366Y-72764729D01*
X63539368Y-72764738D01*
X63600393Y-73005717D01*
X63700247Y-73233364D01*
X63800545Y-73386882D01*
X64355969Y-72831457D01*
X64370417Y-72866337D01*
X64451128Y-72987129D01*
X64553852Y-73089853D01*
X64674644Y-73170564D01*
X64709522Y-73185011D01*
X64153923Y-73740609D01*
X64156327Y-73779316D01*
X64156327Y-73794686D01*
X64153923Y-73833390D01*
X64709522Y-74388988D01*
X64674644Y-74403436D01*
X64553852Y-74484147D01*
X64451128Y-74586871D01*
X64370417Y-74707663D01*
X64355970Y-74742541D01*
X63800545Y-74187116D01*
X63700248Y-74340632D01*
X63600393Y-74568282D01*
X63539368Y-74809261D01*
X63539366Y-74809270D01*
X63518840Y-75056994D01*
X63518840Y-75057005D01*
X63539366Y-75304729D01*
X63539368Y-75304738D01*
X63600393Y-75545717D01*
X63700247Y-75773364D01*
X63800545Y-75926882D01*
X64355969Y-75371457D01*
X64370417Y-75406337D01*
X64451128Y-75527129D01*
X64553852Y-75629853D01*
X64674644Y-75710564D01*
X64709522Y-75725011D01*
X64153923Y-76280609D01*
X64156327Y-76319316D01*
X64156327Y-76334686D01*
X64153923Y-76373390D01*
X64709522Y-76928988D01*
X64674644Y-76943436D01*
X64553852Y-77024147D01*
X64451128Y-77126871D01*
X64370417Y-77247663D01*
X64355970Y-77282541D01*
X63800545Y-76727116D01*
X63700248Y-76880632D01*
X63600393Y-77108282D01*
X63539368Y-77349261D01*
X63539366Y-77349270D01*
X63518840Y-77596994D01*
X63518840Y-77597005D01*
X63539366Y-77844729D01*
X63539368Y-77844738D01*
X63600393Y-78085717D01*
X63700247Y-78313364D01*
X63800545Y-78466882D01*
X64355969Y-77911457D01*
X64370417Y-77946337D01*
X64451128Y-78067129D01*
X64553852Y-78169853D01*
X64674644Y-78250564D01*
X64709522Y-78265011D01*
X64153923Y-78820609D01*
X64200749Y-78857055D01*
X64200751Y-78857056D01*
X64419366Y-78975364D01*
X64419377Y-78975369D01*
X64654487Y-79056083D01*
X64899688Y-79097000D01*
X65148274Y-79097000D01*
X65393474Y-79056083D01*
X65628584Y-78975369D01*
X65628595Y-78975364D01*
X65847209Y-78857057D01*
X65847212Y-78857055D01*
X65894037Y-78820609D01*
X65338439Y-78265011D01*
X65373318Y-78250564D01*
X65494110Y-78169853D01*
X65596834Y-78067129D01*
X65677545Y-77946337D01*
X65691991Y-77911458D01*
X66247414Y-78466881D01*
X66281192Y-78463379D01*
X66306775Y-78463380D01*
X66340545Y-78466882D01*
X66895969Y-77911457D01*
X66910417Y-77946337D01*
X66991128Y-78067129D01*
X67093852Y-78169853D01*
X67214644Y-78250564D01*
X67249522Y-78265011D01*
X66693923Y-78820609D01*
X66740749Y-78857055D01*
X66740751Y-78857056D01*
X66959366Y-78975364D01*
X66959377Y-78975369D01*
X67194487Y-79056083D01*
X67439688Y-79097000D01*
X67688274Y-79097000D01*
X67933474Y-79056083D01*
X68168584Y-78975369D01*
X68168595Y-78975364D01*
X68387209Y-78857057D01*
X68387212Y-78857055D01*
X68434037Y-78820609D01*
X67878439Y-78265011D01*
X67913318Y-78250564D01*
X68034110Y-78169853D01*
X68136834Y-78067129D01*
X68217545Y-77946337D01*
X68231992Y-77911458D01*
X68787414Y-78466881D01*
X68821192Y-78463379D01*
X68846775Y-78463380D01*
X68880545Y-78466882D01*
X69435969Y-77911457D01*
X69450417Y-77946337D01*
X69531128Y-78067129D01*
X69633852Y-78169853D01*
X69754644Y-78250564D01*
X69789522Y-78265011D01*
X69233923Y-78820609D01*
X69280749Y-78857055D01*
X69280751Y-78857056D01*
X69499366Y-78975364D01*
X69499377Y-78975369D01*
X69734487Y-79056083D01*
X69979688Y-79097000D01*
X70228274Y-79097000D01*
X70473474Y-79056083D01*
X70708584Y-78975369D01*
X70708595Y-78975364D01*
X70927209Y-78857057D01*
X70927212Y-78857055D01*
X70974037Y-78820609D01*
X70418439Y-78265011D01*
X70453318Y-78250564D01*
X70574110Y-78169853D01*
X70676834Y-78067129D01*
X70757545Y-77946337D01*
X70771991Y-77911458D01*
X71327414Y-78466881D01*
X71361192Y-78463379D01*
X71386775Y-78463380D01*
X71420545Y-78466882D01*
X71975969Y-77911457D01*
X71990417Y-77946337D01*
X72071128Y-78067129D01*
X72173852Y-78169853D01*
X72294644Y-78250564D01*
X72329522Y-78265011D01*
X71773923Y-78820609D01*
X71820749Y-78857055D01*
X71820751Y-78857056D01*
X72039366Y-78975364D01*
X72039377Y-78975369D01*
X72274487Y-79056083D01*
X72519688Y-79097000D01*
X72768274Y-79097000D01*
X73013474Y-79056083D01*
X73248584Y-78975369D01*
X73248595Y-78975364D01*
X73467209Y-78857057D01*
X73467212Y-78857055D01*
X73514037Y-78820609D01*
X72958439Y-78265011D01*
X72993318Y-78250564D01*
X73114110Y-78169853D01*
X73216834Y-78067129D01*
X73297545Y-77946337D01*
X73311991Y-77911458D01*
X73867414Y-78466881D01*
X73901192Y-78463379D01*
X73926775Y-78463380D01*
X73960545Y-78466882D01*
X74515969Y-77911457D01*
X74530417Y-77946337D01*
X74611128Y-78067129D01*
X74713852Y-78169853D01*
X74834644Y-78250564D01*
X74869522Y-78265011D01*
X74313923Y-78820609D01*
X74360749Y-78857055D01*
X74360751Y-78857056D01*
X74579366Y-78975364D01*
X74579377Y-78975369D01*
X74814487Y-79056083D01*
X75059688Y-79097000D01*
X75308274Y-79097000D01*
X75553474Y-79056083D01*
X75788584Y-78975369D01*
X75788595Y-78975364D01*
X76007209Y-78857057D01*
X76007212Y-78857055D01*
X76054037Y-78820609D01*
X75498439Y-78265011D01*
X75533318Y-78250564D01*
X75654110Y-78169853D01*
X75756834Y-78067129D01*
X75837545Y-77946337D01*
X75851992Y-77911458D01*
X76407415Y-78466882D01*
X76507712Y-78313369D01*
X76607568Y-78085717D01*
X76668593Y-77844738D01*
X76668595Y-77844729D01*
X76689122Y-77597005D01*
X76689122Y-77596994D01*
X76668595Y-77349270D01*
X76668593Y-77349261D01*
X76607568Y-77108282D01*
X76507712Y-76880630D01*
X76407415Y-76727116D01*
X75851991Y-77282540D01*
X75837545Y-77247663D01*
X75756834Y-77126871D01*
X75654110Y-77024147D01*
X75533318Y-76943436D01*
X75498439Y-76928988D01*
X76054037Y-76373390D01*
X76051634Y-76334682D01*
X76051634Y-76319312D01*
X76054037Y-76280609D01*
X75498439Y-75725011D01*
X75533318Y-75710564D01*
X75654110Y-75629853D01*
X75756834Y-75527129D01*
X75837545Y-75406337D01*
X75851992Y-75371458D01*
X76407415Y-75926882D01*
X76507712Y-75773369D01*
X76607568Y-75545717D01*
X76668593Y-75304738D01*
X76668595Y-75304729D01*
X76689122Y-75057005D01*
X76689122Y-75056994D01*
X76668595Y-74809270D01*
X76668593Y-74809261D01*
X76607568Y-74568282D01*
X76507712Y-74340630D01*
X76407415Y-74187116D01*
X75851991Y-74742540D01*
X75837545Y-74707663D01*
X75756834Y-74586871D01*
X75654110Y-74484147D01*
X75533318Y-74403436D01*
X75498439Y-74388988D01*
X76054037Y-73833390D01*
X76051634Y-73794682D01*
X76051634Y-73779312D01*
X76054037Y-73740609D01*
X75498439Y-73185011D01*
X75533318Y-73170564D01*
X75654110Y-73089853D01*
X75756834Y-72987129D01*
X75837545Y-72866337D01*
X75851992Y-72831458D01*
X76407415Y-73386882D01*
X76507712Y-73233369D01*
X76607568Y-73005717D01*
X76668593Y-72764738D01*
X76668595Y-72764729D01*
X76689122Y-72517005D01*
X76689122Y-72516994D01*
X76668595Y-72269270D01*
X76668593Y-72269261D01*
X76607568Y-72028282D01*
X76507712Y-71800630D01*
X76407415Y-71647116D01*
X75851991Y-72202540D01*
X75837545Y-72167663D01*
X75756834Y-72046871D01*
X75654110Y-71944147D01*
X75533318Y-71863436D01*
X75498439Y-71848988D01*
X76054037Y-71293390D01*
X76051634Y-71254682D01*
X76051634Y-71239312D01*
X76054037Y-71200609D01*
X75498439Y-70645011D01*
X75533318Y-70630564D01*
X75654110Y-70549853D01*
X75756834Y-70447129D01*
X75837545Y-70326337D01*
X75851992Y-70291458D01*
X76407415Y-70846882D01*
X76507712Y-70693369D01*
X76607568Y-70465717D01*
X76668593Y-70224738D01*
X76668595Y-70224729D01*
X76689122Y-69977005D01*
X76689122Y-69976994D01*
X76668595Y-69729270D01*
X76668593Y-69729261D01*
X76607568Y-69488282D01*
X76507712Y-69260630D01*
X76407415Y-69107116D01*
X75851991Y-69662540D01*
X75837545Y-69627663D01*
X75756834Y-69506871D01*
X75654110Y-69404147D01*
X75533318Y-69323436D01*
X75498439Y-69308988D01*
X76054037Y-68753390D01*
X76051634Y-68714682D01*
X76051634Y-68699312D01*
X76054037Y-68660609D01*
X75498439Y-68105011D01*
X75533318Y-68090564D01*
X75654110Y-68009853D01*
X75756834Y-67907129D01*
X75837545Y-67786337D01*
X75851992Y-67751458D01*
X76407415Y-68306882D01*
X76507712Y-68153369D01*
X76607568Y-67925717D01*
X76668593Y-67684738D01*
X76668595Y-67684729D01*
X76689122Y-67437005D01*
X76689122Y-67436994D01*
X76668595Y-67189270D01*
X76668593Y-67189261D01*
X76607568Y-66948282D01*
X76507712Y-66720630D01*
X76407415Y-66567116D01*
X75851991Y-67122540D01*
X75837545Y-67087663D01*
X75756834Y-66966871D01*
X75654110Y-66864147D01*
X75533318Y-66783436D01*
X75498439Y-66768988D01*
X76054038Y-66213390D01*
X76054037Y-66213389D01*
X76007210Y-66176943D01*
X75788595Y-66058635D01*
X75788584Y-66058630D01*
X75553474Y-65977916D01*
X75308274Y-65937000D01*
X75059688Y-65937000D01*
X74814487Y-65977916D01*
X74579377Y-66058630D01*
X74579371Y-66058632D01*
X74360742Y-66176949D01*
X74313923Y-66213388D01*
X74313923Y-66213390D01*
X74869522Y-66768988D01*
X74834644Y-66783436D01*
X74713852Y-66864147D01*
X74611128Y-66966871D01*
X74530417Y-67087663D01*
X74515969Y-67122541D01*
X73960543Y-66567115D01*
X73926775Y-66570618D01*
X73901192Y-66570618D01*
X73867416Y-66567115D01*
X73311991Y-67122540D01*
X73297545Y-67087663D01*
X73216834Y-66966871D01*
X73114110Y-66864147D01*
X72993318Y-66783436D01*
X72958439Y-66768988D01*
X73514038Y-66213390D01*
X73514037Y-66213389D01*
X73467210Y-66176943D01*
X73248595Y-66058635D01*
X73248584Y-66058630D01*
X73013474Y-65977916D01*
X72768274Y-65937000D01*
X72519688Y-65937000D01*
X72274487Y-65977916D01*
X72039377Y-66058630D01*
X72039371Y-66058632D01*
X71820742Y-66176949D01*
X71773923Y-66213388D01*
X71773923Y-66213390D01*
X72329522Y-66768988D01*
X72294644Y-66783436D01*
X72173852Y-66864147D01*
X72071128Y-66966871D01*
X71990417Y-67087663D01*
X71975969Y-67122541D01*
X71420543Y-66567115D01*
X71386775Y-66570618D01*
X71361192Y-66570618D01*
X71327416Y-66567115D01*
X70771991Y-67122540D01*
X70757545Y-67087663D01*
X70676834Y-66966871D01*
X70574110Y-66864147D01*
X70453318Y-66783436D01*
X70418439Y-66768988D01*
X70974038Y-66213390D01*
X70974037Y-66213389D01*
X70927210Y-66176943D01*
X70708595Y-66058635D01*
X70708584Y-66058630D01*
X70473474Y-65977916D01*
X70228274Y-65937000D01*
X69979688Y-65937000D01*
X69734487Y-65977916D01*
X69499377Y-66058630D01*
X69499371Y-66058632D01*
X69280742Y-66176949D01*
X69233923Y-66213388D01*
X69233923Y-66213390D01*
X69789522Y-66768988D01*
X69754644Y-66783436D01*
X69633852Y-66864147D01*
X69531128Y-66966871D01*
X69450417Y-67087663D01*
X69435969Y-67122541D01*
X68880543Y-66567115D01*
X68846775Y-66570618D01*
X68821192Y-66570618D01*
X68787416Y-66567115D01*
X68231991Y-67122540D01*
X68217545Y-67087663D01*
X68136834Y-66966871D01*
X68034110Y-66864147D01*
X67913318Y-66783436D01*
X67878439Y-66768988D01*
X68434038Y-66213390D01*
X68434037Y-66213389D01*
X68387210Y-66176943D01*
X68168595Y-66058635D01*
X68168584Y-66058630D01*
X67933474Y-65977916D01*
X67688274Y-65937000D01*
X67439688Y-65937000D01*
X67194487Y-65977916D01*
X66959377Y-66058630D01*
X66959371Y-66058632D01*
X66740742Y-66176949D01*
X66693923Y-66213388D01*
X66693923Y-66213390D01*
X67249522Y-66768988D01*
X67214644Y-66783436D01*
X67093852Y-66864147D01*
X66991128Y-66966871D01*
X66910417Y-67087663D01*
X66895969Y-67122541D01*
X66340543Y-66567115D01*
X66306775Y-66570618D01*
X66281192Y-66570618D01*
X66247416Y-66567115D01*
X65691991Y-67122540D01*
X65677545Y-67087663D01*
X65596834Y-66966871D01*
X65494110Y-66864147D01*
X65373318Y-66783436D01*
X65338439Y-66768988D01*
X65894038Y-66213390D01*
X65894037Y-66213389D01*
X65847210Y-66176943D01*
X65628595Y-66058635D01*
X65628584Y-66058630D01*
X65393474Y-65977916D01*
X65148274Y-65937000D01*
X64899688Y-65937000D01*
X64654487Y-65977916D01*
X64419377Y-66058630D01*
X64419371Y-66058632D01*
X64200742Y-66176949D01*
X64153923Y-66213388D01*
X64153923Y-66213390D01*
X64709522Y-66768988D01*
X64674644Y-66783436D01*
X64553852Y-66864147D01*
X64451128Y-66966871D01*
X64370417Y-67087663D01*
X64355970Y-67122541D01*
X63800545Y-66567116D01*
X63700248Y-66720632D01*
X63600393Y-66948282D01*
X63539368Y-67189261D01*
X63539366Y-67189270D01*
X63518840Y-67436994D01*
X48125481Y-67436994D01*
X48125481Y-62868482D01*
X48125676Y-62861530D01*
X48135621Y-62684437D01*
X48141907Y-62572495D01*
X48143461Y-62558696D01*
X48191371Y-62276722D01*
X48194460Y-62263187D01*
X48273638Y-61988351D01*
X48278229Y-61975233D01*
X48280044Y-61970851D01*
X48387676Y-61711001D01*
X48393699Y-61698495D01*
X48532050Y-61448165D01*
X48539445Y-61436397D01*
X48704955Y-61203132D01*
X48713596Y-61192295D01*
X48904193Y-60979016D01*
X48914004Y-60969205D01*
X49127284Y-60778605D01*
X49138116Y-60769967D01*
X49371400Y-60604442D01*
X49383132Y-60597070D01*
X49633478Y-60458707D01*
X49645974Y-60452689D01*
X49910233Y-60343228D01*
X49923325Y-60338646D01*
X50198166Y-60259465D01*
X50211709Y-60256374D01*
X50493677Y-60208464D01*
X50507480Y-60206908D01*
X50796120Y-60190698D01*
X50803073Y-60190503D01*
X80846043Y-60190503D01*
X80846366Y-60190481D01*
X80952543Y-60190482D01*
X81311935Y-60155087D01*
X81666128Y-60084636D01*
X82011709Y-59979807D01*
X82345351Y-59841610D01*
X82528835Y-59743536D01*
X82601606Y-59704641D01*
X82660058Y-59690000D01*
X86998000Y-59690000D01*
X87065039Y-59709685D01*
G37*
%TD.AperFunction*%
%TD*%
%TA.AperFunction,Conductor*%
%TO.N,CELL17*%
G36*
X444036710Y-59462507D02*
G01*
X444103619Y-59482623D01*
X444104591Y-59483264D01*
X444386123Y-59671380D01*
X444386132Y-59671385D01*
X444386134Y-59671386D01*
X444704603Y-59841612D01*
X444704605Y-59841612D01*
X444704611Y-59841616D01*
X445038251Y-59979816D01*
X445383831Y-60084649D01*
X445738022Y-60155103D01*
X446097413Y-60190502D01*
X446197647Y-60190502D01*
X446197655Y-60190503D01*
X446277978Y-60190503D01*
X446343870Y-60190504D01*
X446343874Y-60190503D01*
X476184088Y-60190503D01*
X476184092Y-60190504D01*
X476246504Y-60190503D01*
X476253456Y-60190697D01*
X476542493Y-60206928D01*
X476556290Y-60208482D01*
X476838253Y-60256388D01*
X476851808Y-60259482D01*
X477126630Y-60338656D01*
X477139755Y-60343249D01*
X477403972Y-60452690D01*
X477416501Y-60458723D01*
X477666820Y-60597068D01*
X477678583Y-60604459D01*
X477774990Y-60672863D01*
X477911835Y-60769959D01*
X477922707Y-60778629D01*
X478135962Y-60969204D01*
X478145794Y-60979037D01*
X478336358Y-61192276D01*
X478345029Y-61203148D01*
X478510529Y-61436399D01*
X478517927Y-61448173D01*
X478656269Y-61698483D01*
X478662302Y-61711011D01*
X478771747Y-61975231D01*
X478776340Y-61988357D01*
X478855515Y-62263181D01*
X478858609Y-62276738D01*
X478906513Y-62558686D01*
X478908070Y-62572503D01*
X478924286Y-62861245D01*
X478924481Y-62868198D01*
X478924481Y-205228286D01*
X478921736Y-205254232D01*
X478918258Y-205270486D01*
X478897027Y-205317829D01*
X478895130Y-205320418D01*
X478856394Y-205354924D01*
X478853601Y-205356512D01*
X478804170Y-205372149D01*
X478800974Y-205372456D01*
X478749396Y-205366490D01*
X478746353Y-205365461D01*
X478701778Y-205338936D01*
X478689526Y-205327579D01*
X478672380Y-205307950D01*
X478533735Y-205110713D01*
X478407703Y-204956995D01*
X478211322Y-204717474D01*
X478211315Y-204717466D01*
X477860640Y-204349212D01*
X477860638Y-204349210D01*
X477483635Y-204007970D01*
X477483609Y-204007948D01*
X477082351Y-203695597D01*
X477082349Y-203695596D01*
X477082347Y-203695594D01*
X476659021Y-203413835D01*
X476659012Y-203413830D01*
X476659001Y-203413823D01*
X476215980Y-203164235D01*
X476215951Y-203164220D01*
X475755644Y-202948159D01*
X475755640Y-202948157D01*
X475280570Y-202766807D01*
X474793337Y-202621164D01*
X474296687Y-202512049D01*
X474296677Y-202512047D01*
X474296667Y-202512045D01*
X473793270Y-202440043D01*
X473793262Y-202440042D01*
X473793260Y-202440042D01*
X473285921Y-202405556D01*
X473285920Y-202405556D01*
X473158792Y-202406360D01*
X472777407Y-202408772D01*
X472777401Y-202408772D01*
X472270547Y-202449675D01*
X472270543Y-202449675D01*
X472019315Y-202488858D01*
X471768092Y-202528041D01*
X471768089Y-202528041D01*
X471768087Y-202528042D01*
X471768082Y-202528043D01*
X471272844Y-202643434D01*
X471272830Y-202643438D01*
X470787498Y-202795228D01*
X470314744Y-202982579D01*
X469857182Y-203204460D01*
X469417344Y-203459638D01*
X469417333Y-203459645D01*
X468997617Y-203746729D01*
X468997609Y-203746735D01*
X468600324Y-204064147D01*
X468227649Y-204410146D01*
X467881650Y-204782821D01*
X467564242Y-205180101D01*
X467277147Y-205599830D01*
X467277140Y-205599841D01*
X467021965Y-206039672D01*
X466800083Y-206497236D01*
X466612727Y-206969999D01*
X466460939Y-207455326D01*
X466460935Y-207455340D01*
X466345544Y-207950578D01*
X466345543Y-207950583D01*
X466267175Y-208453039D01*
X466267175Y-208453042D01*
X466226273Y-208959897D01*
X466226273Y-208959903D01*
X466223055Y-209468430D01*
X466223055Y-209468443D01*
X466257542Y-209975756D01*
X466329545Y-210479171D01*
X466438663Y-210975833D01*
X466584306Y-211463066D01*
X466765650Y-211938123D01*
X466765667Y-211938162D01*
X466981718Y-212398447D01*
X466981733Y-212398476D01*
X467231321Y-212841498D01*
X467231328Y-212841509D01*
X467231333Y-212841518D01*
X467513092Y-213264844D01*
X467513095Y-213264848D01*
X467825445Y-213666105D01*
X467825467Y-213666131D01*
X468166701Y-214043129D01*
X468534963Y-214393812D01*
X468534971Y-214393819D01*
X468743248Y-214564583D01*
X468928210Y-214716232D01*
X468984430Y-214755751D01*
X469075495Y-214819765D01*
X469075643Y-214819884D01*
X469082313Y-214824571D01*
X469082315Y-214824573D01*
X469125497Y-214854916D01*
X469145135Y-214872067D01*
X469156445Y-214884268D01*
X469182989Y-214928892D01*
X469184019Y-214931942D01*
X469189975Y-214983412D01*
X469189669Y-214986614D01*
X469174014Y-215036127D01*
X469172423Y-215038924D01*
X469137919Y-215077646D01*
X469135324Y-215079547D01*
X469087979Y-215100774D01*
X469071708Y-215104254D01*
X469045774Y-215106996D01*
X468985411Y-215106996D01*
X468985395Y-215106997D01*
X440306000Y-215106997D01*
X440238961Y-215087312D01*
X440193206Y-215034508D01*
X440182000Y-214982997D01*
X440182000Y-192306670D01*
X440185426Y-192277723D01*
X440216347Y-192148929D01*
X440240456Y-192048509D01*
X440316861Y-191566106D01*
X440355181Y-191079197D01*
X440355181Y-190834989D01*
X440355181Y-190769097D01*
X440355181Y-190715497D01*
X460936298Y-190715497D01*
X460956205Y-191006544D01*
X460956206Y-191006546D01*
X461015556Y-191292158D01*
X461015561Y-191292175D01*
X461113252Y-191567051D01*
X461247467Y-191826074D01*
X461247471Y-191826080D01*
X461415694Y-192064398D01*
X461415698Y-192064402D01*
X461415700Y-192064405D01*
X461614819Y-192277610D01*
X461614824Y-192277614D01*
X461614826Y-192277616D01*
X461841108Y-192461710D01*
X461841111Y-192461712D01*
X461841115Y-192461715D01*
X462090373Y-192613292D01*
X462357948Y-192729517D01*
X462638857Y-192808224D01*
X462892943Y-192843146D01*
X462927866Y-192847947D01*
X462927867Y-192847947D01*
X463219596Y-192847947D01*
X463250753Y-192843664D01*
X463508605Y-192808224D01*
X463789514Y-192729517D01*
X464057089Y-192613292D01*
X464306347Y-192461715D01*
X464532643Y-192277610D01*
X464731762Y-192064405D01*
X464899995Y-191826073D01*
X465034209Y-191567053D01*
X465131902Y-191292170D01*
X465131903Y-191292163D01*
X465131905Y-191292158D01*
X465176160Y-191079189D01*
X465191256Y-191006544D01*
X465211164Y-190715497D01*
X465191256Y-190424450D01*
X465166802Y-190306770D01*
X465131905Y-190138835D01*
X465131900Y-190138818D01*
X465034209Y-189863942D01*
X465034209Y-189863941D01*
X464899995Y-189604921D01*
X464899994Y-189604919D01*
X464899990Y-189604913D01*
X464731767Y-189366595D01*
X464731763Y-189366591D01*
X464731762Y-189366589D01*
X464532643Y-189153384D01*
X464532636Y-189153379D01*
X464532635Y-189153377D01*
X464306353Y-188969283D01*
X464306342Y-188969276D01*
X464057093Y-188817704D01*
X464057090Y-188817702D01*
X464057089Y-188817702D01*
X463932896Y-188763757D01*
X463789517Y-188701478D01*
X463789515Y-188701477D01*
X463789514Y-188701477D01*
X463709592Y-188679084D01*
X463508610Y-188622771D01*
X463508606Y-188622770D01*
X463508605Y-188622770D01*
X463364100Y-188602908D01*
X463219596Y-188583047D01*
X463219595Y-188583047D01*
X462927867Y-188583047D01*
X462927866Y-188583047D01*
X462638857Y-188622770D01*
X462638851Y-188622771D01*
X462357944Y-188701478D01*
X462090368Y-188817704D01*
X461841119Y-188969276D01*
X461841108Y-188969283D01*
X461614826Y-189153377D01*
X461415694Y-189366595D01*
X461247471Y-189604913D01*
X461247467Y-189604919D01*
X461113252Y-189863942D01*
X461015561Y-190138818D01*
X461015556Y-190138835D01*
X460956206Y-190424447D01*
X460956205Y-190424449D01*
X460936298Y-190715497D01*
X440355181Y-190715497D01*
X440355181Y-175321877D01*
X440355182Y-175321874D01*
X440355181Y-175307379D01*
X440355214Y-175307266D01*
X440355214Y-175255982D01*
X440355215Y-175255982D01*
X440355214Y-175096635D01*
X440321900Y-174779688D01*
X440255638Y-174467959D01*
X440157154Y-174164864D01*
X440157151Y-174164857D01*
X440156983Y-174164340D01*
X440150915Y-174126274D01*
X440135384Y-166135537D01*
X440146106Y-166084863D01*
X440157132Y-166060099D01*
X440255609Y-165757017D01*
X440255609Y-165757014D01*
X440255613Y-165757004D01*
X440321871Y-165445275D01*
X440355182Y-165128328D01*
X440355181Y-164968982D01*
X440355181Y-164903090D01*
X440355181Y-139915497D01*
X460980852Y-139915497D01*
X461000344Y-140200477D01*
X461000345Y-140200478D01*
X461058458Y-140480137D01*
X461058463Y-140480154D01*
X461154118Y-140749300D01*
X461282911Y-140997860D01*
X461285535Y-141002923D01*
X461378190Y-141134187D01*
X461450262Y-141236290D01*
X461645222Y-141445040D01*
X461645225Y-141445043D01*
X461645230Y-141445048D01*
X461866809Y-141625316D01*
X461866811Y-141625317D01*
X461866812Y-141625318D01*
X462110872Y-141773734D01*
X462289808Y-141851457D01*
X462372868Y-141887535D01*
X462647922Y-141964602D01*
X462896712Y-141998796D01*
X462930907Y-142003497D01*
X462930908Y-142003497D01*
X463216555Y-142003497D01*
X463247063Y-141999303D01*
X463499540Y-141964602D01*
X463774594Y-141887535D01*
X464036591Y-141773733D01*
X464280653Y-141625316D01*
X464502232Y-141445048D01*
X464697201Y-141236288D01*
X464861927Y-141002923D01*
X464993343Y-140749302D01*
X465089000Y-140480149D01*
X465089001Y-140480142D01*
X465089003Y-140480137D01*
X465111663Y-140371087D01*
X465147117Y-140200477D01*
X465166610Y-139915497D01*
X465147117Y-139630517D01*
X465120963Y-139504658D01*
X465089003Y-139350856D01*
X465088998Y-139350839D01*
X464993343Y-139081693D01*
X464993343Y-139081692D01*
X464861927Y-138828071D01*
X464697201Y-138594706D01*
X464697199Y-138594703D01*
X464502239Y-138385953D01*
X464502235Y-138385949D01*
X464502232Y-138385946D01*
X464280653Y-138205678D01*
X464280651Y-138205677D01*
X464280649Y-138205675D01*
X464036589Y-138057259D01*
X463774597Y-137943460D01*
X463774595Y-137943459D01*
X463774594Y-137943459D01*
X463696341Y-137921533D01*
X463499545Y-137866393D01*
X463499541Y-137866392D01*
X463499540Y-137866392D01*
X463358047Y-137846944D01*
X463216555Y-137827497D01*
X463216554Y-137827497D01*
X462930908Y-137827497D01*
X462930907Y-137827497D01*
X462647922Y-137866392D01*
X462647916Y-137866393D01*
X462372864Y-137943460D01*
X462110872Y-138057259D01*
X461866812Y-138205675D01*
X461645236Y-138385940D01*
X461645222Y-138385953D01*
X461450262Y-138594703D01*
X461285532Y-138828075D01*
X461154118Y-139081693D01*
X461058463Y-139350839D01*
X461058458Y-139350856D01*
X461000345Y-139630515D01*
X461000344Y-139630516D01*
X460980852Y-139915497D01*
X440355181Y-139915497D01*
X440355181Y-120791877D01*
X440355182Y-120791874D01*
X440355181Y-120777379D01*
X440355214Y-120777266D01*
X440355214Y-120725982D01*
X440355215Y-120725982D01*
X440355214Y-120566635D01*
X440321900Y-120249688D01*
X440255638Y-119937959D01*
X440157154Y-119634864D01*
X440055181Y-119405833D01*
X440044461Y-119355644D01*
X440029859Y-111842551D01*
X440040575Y-111791890D01*
X440157132Y-111530099D01*
X440255613Y-111227004D01*
X440321871Y-110915275D01*
X440355182Y-110598328D01*
X440355181Y-110438982D01*
X440355181Y-110373090D01*
X440355181Y-101815497D01*
X460936298Y-101815497D01*
X460956205Y-102106544D01*
X460956206Y-102106546D01*
X461015556Y-102392158D01*
X461015561Y-102392175D01*
X461113252Y-102667051D01*
X461247467Y-102926074D01*
X461247471Y-102926080D01*
X461415694Y-103164398D01*
X461415698Y-103164402D01*
X461415700Y-103164405D01*
X461614819Y-103377610D01*
X461614824Y-103377614D01*
X461614826Y-103377616D01*
X461841108Y-103561710D01*
X461841111Y-103561712D01*
X461841115Y-103561715D01*
X462090373Y-103713292D01*
X462357948Y-103829517D01*
X462638857Y-103908224D01*
X462892943Y-103943146D01*
X462927866Y-103947947D01*
X462927867Y-103947947D01*
X463219596Y-103947947D01*
X463250753Y-103943664D01*
X463508605Y-103908224D01*
X463789514Y-103829517D01*
X464057089Y-103713292D01*
X464306347Y-103561715D01*
X464532643Y-103377610D01*
X464731762Y-103164405D01*
X464899995Y-102926073D01*
X465034209Y-102667053D01*
X465131902Y-102392170D01*
X465131903Y-102392163D01*
X465131905Y-102392158D01*
X465166802Y-102224224D01*
X465191256Y-102106544D01*
X465211164Y-101815497D01*
X465191256Y-101524450D01*
X465166802Y-101406770D01*
X465131905Y-101238835D01*
X465131900Y-101238818D01*
X465034209Y-100963942D01*
X465034209Y-100963941D01*
X464899995Y-100704921D01*
X464899994Y-100704919D01*
X464899990Y-100704913D01*
X464731767Y-100466595D01*
X464731763Y-100466591D01*
X464731762Y-100466589D01*
X464532643Y-100253384D01*
X464532636Y-100253379D01*
X464532635Y-100253377D01*
X464306353Y-100069283D01*
X464306342Y-100069276D01*
X464057093Y-99917704D01*
X464057090Y-99917702D01*
X464057089Y-99917702D01*
X463932896Y-99863757D01*
X463789517Y-99801478D01*
X463789515Y-99801477D01*
X463789514Y-99801477D01*
X463709592Y-99779084D01*
X463508610Y-99722771D01*
X463508606Y-99722770D01*
X463508605Y-99722770D01*
X463364100Y-99702908D01*
X463219596Y-99683047D01*
X463219595Y-99683047D01*
X462927867Y-99683047D01*
X462927866Y-99683047D01*
X462638857Y-99722770D01*
X462638851Y-99722771D01*
X462357944Y-99801478D01*
X462090368Y-99917704D01*
X461841119Y-100069276D01*
X461841108Y-100069283D01*
X461614826Y-100253377D01*
X461415694Y-100466595D01*
X461247471Y-100704913D01*
X461247467Y-100704919D01*
X461113252Y-100963942D01*
X461015561Y-101238818D01*
X461015556Y-101238835D01*
X460956206Y-101524447D01*
X460956205Y-101524449D01*
X460936298Y-101815497D01*
X440355181Y-101815497D01*
X440355181Y-94794089D01*
X440355181Y-94615773D01*
X440316861Y-94128864D01*
X440240456Y-93646461D01*
X440126437Y-93171541D01*
X439998799Y-92778710D01*
X439992732Y-92740644D01*
X439928243Y-59561043D01*
X439947797Y-59493966D01*
X440000512Y-59448109D01*
X440053039Y-59436806D01*
X444036710Y-59462507D01*
G37*
%TD.AperFunction*%
%TD*%
M02*
