%TF.GenerationSoftware,KiCad,Pcbnew,8.0.6-8.0.6-0~ubuntu22.04.1*%
%TF.CreationDate,2024-10-29T19:32:18-04:00*%
%TF.ProjectId,power_therm,706f7765-725f-4746-9865-726d2e6b6963,rev?*%
%TF.SameCoordinates,Original*%
%TF.FileFunction,Soldermask,Bot*%
%TF.FilePolarity,Negative*%
%FSLAX46Y46*%
G04 Gerber Fmt 4.6, Leading zero omitted, Abs format (unit mm)*
G04 Created by KiCad (PCBNEW 8.0.6-8.0.6-0~ubuntu22.04.1) date 2024-10-29 19:32:18*
%MOMM*%
%LPD*%
G01*
G04 APERTURE LIST*
G04 Aperture macros list*
%AMRoundRect*
0 Rectangle with rounded corners*
0 $1 Rounding radius*
0 $2 $3 $4 $5 $6 $7 $8 $9 X,Y pos of 4 corners*
0 Add a 4 corners polygon primitive as box body*
4,1,4,$2,$3,$4,$5,$6,$7,$8,$9,$2,$3,0*
0 Add four circle primitives for the rounded corners*
1,1,$1+$1,$2,$3*
1,1,$1+$1,$4,$5*
1,1,$1+$1,$6,$7*
1,1,$1+$1,$8,$9*
0 Add four rect primitives between the rounded corners*
20,1,$1+$1,$2,$3,$4,$5,0*
20,1,$1+$1,$4,$5,$6,$7,0*
20,1,$1+$1,$6,$7,$8,$9,0*
20,1,$1+$1,$8,$9,$2,$3,0*%
G04 Aperture macros list end*
%ADD10C,2.000000*%
%ADD11RoundRect,0.200000X-0.200000X-0.275000X0.200000X-0.275000X0.200000X0.275000X-0.200000X0.275000X0*%
%ADD12RoundRect,0.200000X0.200000X0.275000X-0.200000X0.275000X-0.200000X-0.275000X0.200000X-0.275000X0*%
%ADD13C,1.367000*%
G04 APERTURE END LIST*
D10*
%TO.C,TP2*%
X451865981Y-67437000D03*
X451865981Y-69977000D03*
X451865981Y-72517000D03*
X451865981Y-75057000D03*
X451865981Y-77597000D03*
X454405981Y-67437000D03*
X454405981Y-69977000D03*
X454405981Y-72517000D03*
X454405981Y-75057000D03*
X454405981Y-77597000D03*
X456945981Y-67437000D03*
X456945981Y-69977000D03*
X456945981Y-72517000D03*
X456945981Y-75057000D03*
X456945981Y-77597000D03*
X459485981Y-67437000D03*
X459485981Y-69977000D03*
X459485981Y-72517000D03*
X459485981Y-75057000D03*
X459485981Y-77597000D03*
X462025981Y-67437000D03*
X462025981Y-69977000D03*
X462025981Y-72517000D03*
X462025981Y-75057000D03*
X462025981Y-77597000D03*
%TD*%
%TO.C,TP1*%
X65023981Y-67437000D03*
X65023981Y-69977000D03*
X65023981Y-72517000D03*
X65023981Y-75057000D03*
X65023981Y-77597000D03*
X67563981Y-67437000D03*
X67563981Y-69977000D03*
X67563981Y-72517000D03*
X67563981Y-75057000D03*
X67563981Y-77597000D03*
X70103981Y-67437000D03*
X70103981Y-69977000D03*
X70103981Y-72517000D03*
X70103981Y-75057000D03*
X70103981Y-77597000D03*
X72643981Y-67437000D03*
X72643981Y-69977000D03*
X72643981Y-72517000D03*
X72643981Y-75057000D03*
X72643981Y-77597000D03*
X75183981Y-67437000D03*
X75183981Y-69977000D03*
X75183981Y-72517000D03*
X75183981Y-75057000D03*
X75183981Y-77597000D03*
%TD*%
D11*
%TO.C,TH6*%
X135020000Y-170140000D03*
X136670000Y-170140000D03*
%TD*%
%TO.C,TH21*%
X305730000Y-115600000D03*
X307380000Y-115600000D03*
%TD*%
%TO.C,TH8*%
X156460000Y-183780000D03*
X158110000Y-183780000D03*
%TD*%
D12*
%TO.C,TH34*%
X434995000Y-170190000D03*
X433345000Y-170190000D03*
%TD*%
D11*
%TO.C,TH1*%
X92385000Y-115550000D03*
X94035000Y-115550000D03*
%TD*%
%TO.C,TH5*%
X135070000Y-115530000D03*
X136720000Y-115530000D03*
%TD*%
%TO.C,TH19*%
X283750000Y-129110000D03*
X285400000Y-129110000D03*
%TD*%
D13*
%TO.C,J2*%
X355000000Y-47000000D03*
X355000000Y-49000000D03*
X357000000Y-47000000D03*
X357000000Y-49000000D03*
X359000000Y-47000000D03*
X359000000Y-49000000D03*
X361000000Y-47000000D03*
X361000000Y-49000000D03*
X363000000Y-47000000D03*
X363000000Y-49000000D03*
X365000000Y-47000000D03*
X365000000Y-49000000D03*
X367000000Y-47000000D03*
X367000000Y-49000000D03*
X369000000Y-47000000D03*
X369000000Y-49000000D03*
X371000000Y-47000000D03*
X371000000Y-49000000D03*
X373000000Y-47000000D03*
X373000000Y-49000000D03*
X352075000Y-48000000D03*
X375925000Y-48000000D03*
%TD*%
D11*
%TO.C,TH26*%
X348195000Y-170180000D03*
X349845000Y-170180000D03*
%TD*%
%TO.C,TH10*%
X177880000Y-170290000D03*
X179530000Y-170290000D03*
%TD*%
%TO.C,TH15*%
X241425000Y-129510000D03*
X243075000Y-129510000D03*
%TD*%
%TO.C,TH13*%
X220570000Y-115460000D03*
X222220000Y-115460000D03*
%TD*%
%TO.C,TH30*%
X390695000Y-170200000D03*
X392345000Y-170200000D03*
%TD*%
%TO.C,TH22*%
X305555000Y-170000000D03*
X307205000Y-170000000D03*
%TD*%
%TO.C,TH7*%
X156515000Y-129340000D03*
X158165000Y-129340000D03*
%TD*%
%TO.C,TH2*%
X92200000Y-170180000D03*
X93850000Y-170180000D03*
%TD*%
%TO.C,TH18*%
X262555000Y-170060000D03*
X264205000Y-170060000D03*
%TD*%
%TO.C,TH14*%
X220525000Y-170170000D03*
X222175000Y-170170000D03*
%TD*%
D13*
%TO.C,J4*%
X271000000Y-47000000D03*
X271000000Y-49000000D03*
X273000000Y-47000000D03*
X273000000Y-49000000D03*
X275000000Y-47000000D03*
X275000000Y-49000000D03*
X277000000Y-47000000D03*
X277000000Y-49000000D03*
X279000000Y-47000000D03*
X279000000Y-49000000D03*
X281000000Y-47000000D03*
X281000000Y-49000000D03*
X283000000Y-47000000D03*
X283000000Y-49000000D03*
X285000000Y-47000000D03*
X285000000Y-49000000D03*
X287000000Y-47000000D03*
X287000000Y-49000000D03*
X289000000Y-47000000D03*
X289000000Y-49000000D03*
X268075000Y-48000000D03*
X291925000Y-48000000D03*
%TD*%
D11*
%TO.C,TH11*%
X199045000Y-129390000D03*
X200695000Y-129390000D03*
%TD*%
%TO.C,TH31*%
X411995000Y-129570000D03*
X413645000Y-129570000D03*
%TD*%
%TO.C,TH20*%
X284275000Y-183810000D03*
X285925000Y-183810000D03*
%TD*%
D13*
%TO.C,J3*%
X391000000Y-47000000D03*
X391000000Y-49000000D03*
X393000000Y-47000000D03*
X393000000Y-49000000D03*
X395000000Y-47000000D03*
X395000000Y-49000000D03*
X397000000Y-47000000D03*
X397000000Y-49000000D03*
X399000000Y-47000000D03*
X399000000Y-49000000D03*
X401000000Y-47000000D03*
X401000000Y-49000000D03*
X403000000Y-47000000D03*
X403000000Y-49000000D03*
X405000000Y-47000000D03*
X405000000Y-49000000D03*
X407000000Y-47000000D03*
X407000000Y-49000000D03*
X409000000Y-47000000D03*
X409000000Y-49000000D03*
X388075000Y-48000000D03*
X411925000Y-48000000D03*
%TD*%
D11*
%TO.C,TH17*%
X262855000Y-115640000D03*
X264505000Y-115640000D03*
%TD*%
%TO.C,TH29*%
X390785000Y-115590000D03*
X392435000Y-115590000D03*
%TD*%
%TO.C,TH16*%
X241795000Y-183530000D03*
X243445000Y-183530000D03*
%TD*%
%TO.C,TH3*%
X113735000Y-129240000D03*
X115385000Y-129240000D03*
%TD*%
%TO.C,TH24*%
X326965000Y-183730000D03*
X328615000Y-183730000D03*
%TD*%
%TO.C,TH9*%
X177475000Y-115610000D03*
X179125000Y-115610000D03*
%TD*%
%TO.C,TH25*%
X348335000Y-115630000D03*
X349985000Y-115630000D03*
%TD*%
%TO.C,TH4*%
X113945000Y-183810000D03*
X115595000Y-183810000D03*
%TD*%
%TO.C,TH32*%
X411785000Y-183590000D03*
X413435000Y-183590000D03*
%TD*%
%TO.C,TH28*%
X369285000Y-183800000D03*
X370935000Y-183800000D03*
%TD*%
%TO.C,TH23*%
X327095000Y-129280000D03*
X328745000Y-129280000D03*
%TD*%
%TO.C,TH27*%
X369590000Y-129310000D03*
X371240000Y-129310000D03*
%TD*%
%TO.C,TH12*%
X199015000Y-184110000D03*
X200665000Y-184110000D03*
%TD*%
D12*
%TO.C,TH33*%
X434995000Y-115600000D03*
X433345000Y-115600000D03*
%TD*%
M02*
