%TF.GenerationSoftware,KiCad,Pcbnew,8.0.6-8.0.6-0~ubuntu22.04.1*%
%TF.CreationDate,2024-10-29T19:32:15-04:00*%
%TF.ProjectId,power_therm,706f7765-725f-4746-9865-726d2e6b6963,rev?*%
%TF.SameCoordinates,Original*%
%TF.FileFunction,Soldermask,Top*%
%TF.FilePolarity,Negative*%
%FSLAX46Y46*%
G04 Gerber Fmt 4.6, Leading zero omitted, Abs format (unit mm)*
G04 Created by KiCad (PCBNEW 8.0.6-8.0.6-0~ubuntu22.04.1) date 2024-10-29 19:32:15*
%MOMM*%
%LPD*%
G01*
G04 APERTURE LIST*
G04 Aperture macros list*
%AMRoundRect*
0 Rectangle with rounded corners*
0 $1 Rounding radius*
0 $2 $3 $4 $5 $6 $7 $8 $9 X,Y pos of 4 corners*
0 Add a 4 corners polygon primitive as box body*
4,1,4,$2,$3,$4,$5,$6,$7,$8,$9,$2,$3,0*
0 Add four circle primitives for the rounded corners*
1,1,$1+$1,$2,$3*
1,1,$1+$1,$4,$5*
1,1,$1+$1,$6,$7*
1,1,$1+$1,$8,$9*
0 Add four rect primitives between the rounded corners*
20,1,$1+$1,$2,$3,$4,$5,0*
20,1,$1+$1,$4,$5,$6,$7,0*
20,1,$1+$1,$6,$7,$8,$9,0*
20,1,$1+$1,$8,$9,$2,$3,0*%
%AMFreePoly0*
4,1,67,-4.250000,56.750000,-4.229535,57.166573,-4.168337,57.579134,-4.066996,57.983710,-3.926488,58.376405,-3.748165,58.753436,-3.533746,59.111173,-3.285294,59.446171,-3.005204,59.755204,-2.696171,60.035294,-2.361173,60.283746,-2.003436,60.498165,-1.626405,60.676488,-1.233710,60.816996,-0.829134,60.918337,-0.416573,60.979535,0.000000,61.000000,0.416573,60.979535,0.829134,60.918337,1.233710,60.816996,
1.626405,60.676488,2.003436,60.498165,2.361173,60.283746,2.696171,60.035294,3.005204,59.755204,3.285294,59.446171,3.533746,59.111173,3.748165,58.753436,3.926488,58.376405,4.066996,57.983710,4.168337,57.579134,4.229535,57.166573,4.250000,56.750000,4.250000,-56.750000,4.229535,-57.166573,4.168337,-57.579134,4.066996,-57.983710,3.926488,-58.376405,3.748165,-58.753436,3.533746,-59.111173,
3.285294,-59.446171,3.005204,-59.755204,2.696171,-60.035294,2.361173,-60.283746,2.003436,-60.498165,1.626405,-60.676488,1.233710,-60.816996,0.829134,-60.918337,0.416573,-60.979535,0.000000,-61.000000,-0.416573,-60.979535,-0.829134,-60.918337,-1.233710,-60.816996,-1.626405,-60.676488,-2.003436,-60.498165,-2.361173,-60.283746,-2.696171,-60.035294,-3.005204,-59.755204,-3.285294,-59.446171,-3.533746,-59.111173,
-3.748165,-58.753436,-3.926488,-58.376405,-4.066996,-57.983710,-4.168337,-57.579134,-4.229535,-57.166573,-4.250000,-56.750000,-4.250000,56.750000,-4.250000,56.750000,$1*%
%AMFreePoly1*
4,1,67,-4.250000,54.750000,-4.229535,55.166573,-4.168337,55.579134,-4.066996,55.983710,-3.926488,56.376405,-3.748165,56.753436,-3.533746,57.111173,-3.285294,57.446171,-3.005204,57.755204,-2.696171,58.035294,-2.361173,58.283746,-2.003436,58.498165,-1.626405,58.676488,-1.233710,58.816996,-0.829134,58.918337,-0.416573,58.979535,0.000000,59.000000,0.416573,58.979535,0.829134,58.918337,1.233710,58.816996,
1.626405,58.676488,2.003436,58.498165,2.361173,58.283746,2.696171,58.035294,3.005204,57.755204,3.285294,57.446171,3.533746,57.111173,3.748165,56.753436,3.926488,56.376405,4.066996,55.983710,4.168337,55.579134,4.229535,55.166573,4.250000,54.750000,4.250000,-54.750000,4.229535,-55.166573,4.168337,-55.579134,4.066996,-55.983710,3.926488,-56.376405,3.748165,-56.753436,3.533746,-57.111173,
3.285294,-57.446171,3.005204,-57.755204,2.696171,-58.035294,2.361173,-58.283746,2.003436,-58.498165,1.626405,-58.676488,1.233710,-58.816996,0.829134,-58.918337,0.416573,-58.979535,0.000000,-59.000000,-0.416573,-58.979535,-0.829134,-58.918337,-1.233710,-58.816996,-1.626405,-58.676488,-2.003436,-58.498165,-2.361173,-58.283746,-2.696171,-58.035294,-3.005204,-57.755204,-3.285294,-57.446171,-3.533746,-57.111173,
-3.748165,-56.753436,-3.926488,-56.376405,-4.066996,-55.983710,-4.168337,-55.579134,-4.229535,-55.166573,-4.250000,-54.750000,-4.250000,54.750000,-4.250000,54.750000,$1*%
%AMFreePoly2*
4,1,67,-4.250000,55.920000,-4.229535,56.336573,-4.168337,56.749134,-4.066996,57.153710,-3.926488,57.546405,-3.748165,57.923436,-3.533746,58.281173,-3.285294,58.616171,-3.005204,58.925204,-2.696171,59.205294,-2.361173,59.453746,-2.003436,59.668165,-1.626405,59.846488,-1.233710,59.986996,-0.829134,60.088337,-0.416573,60.149535,0.000000,60.170000,0.416573,60.149535,0.829134,60.088337,1.233710,59.986996,
1.626405,59.846488,2.003436,59.668165,2.361173,59.453746,2.696171,59.205294,3.005204,58.925204,3.285294,58.616171,3.533746,58.281173,3.748165,57.923436,3.926488,57.546405,4.066996,57.153710,4.168337,56.749134,4.229535,56.336573,4.250000,55.920000,4.250000,-55.920000,4.229535,-56.336573,4.168337,-56.749134,4.066996,-57.153710,3.926488,-57.546405,3.748165,-57.923436,3.533746,-58.281173,
3.285294,-58.616171,3.005204,-58.925204,2.696171,-59.205294,2.361173,-59.453746,2.003436,-59.668165,1.626405,-59.846488,1.233710,-59.986996,0.829134,-60.088337,0.416573,-60.149535,0.000000,-60.170000,-0.416573,-60.149535,-0.829134,-60.088337,-1.233710,-59.986996,-1.626405,-59.846488,-2.003436,-59.668165,-2.361173,-59.453746,-2.696171,-59.205294,-3.005204,-58.925204,-3.285294,-58.616171,-3.533746,-58.281173,
-3.748165,-57.923436,-3.926488,-57.546405,-4.066996,-57.153710,-4.168337,-56.749134,-4.229535,-56.336573,-4.250000,-55.920000,-4.250000,55.920000,-4.250000,55.920000,$1*%
G04 Aperture macros list end*
%ADD10C,0.000000*%
%ADD11R,1.500000X1.000000*%
%ADD12RoundRect,0.243750X0.456250X-0.243750X0.456250X0.243750X-0.456250X0.243750X-0.456250X-0.243750X0*%
%ADD13FreePoly0,0.000000*%
%ADD14R,1.000000X1.500000*%
%ADD15C,2.000000*%
%ADD16R,15.240000X15.240000*%
%ADD17FreePoly1,0.000000*%
%ADD18RoundRect,0.243750X0.243750X0.456250X-0.243750X0.456250X-0.243750X-0.456250X0.243750X-0.456250X0*%
%ADD19FreePoly2,0.000000*%
%ADD20C,1.367000*%
G04 APERTURE END LIST*
D10*
%TO.C,REF\u002A\u002A*%
G36*
X128610058Y-51748176D02*
G01*
X120610000Y-51748176D01*
X120610000Y-48240070D01*
X123662195Y-48240070D01*
X123662258Y-48241400D01*
X123662424Y-48242727D01*
X123662696Y-48244042D01*
X123663075Y-48245337D01*
X123663564Y-48246606D01*
X123664165Y-48247840D01*
X123664879Y-48249032D01*
X123665709Y-48250174D01*
X123666656Y-48251260D01*
X123667724Y-48252280D01*
X123668914Y-48253228D01*
X123670227Y-48254097D01*
X123671667Y-48254878D01*
X123673235Y-48255563D01*
X123674933Y-48256146D01*
X123828755Y-48303676D01*
X123989699Y-48345693D01*
X124157830Y-48381625D01*
X124333216Y-48410898D01*
X124423650Y-48422859D01*
X124515922Y-48432939D01*
X124610041Y-48441069D01*
X124706014Y-48447175D01*
X124803851Y-48451187D01*
X124903558Y-48453033D01*
X125005146Y-48452641D01*
X125108622Y-48449939D01*
X125110695Y-48449983D01*
X125112682Y-48450115D01*
X125114587Y-48450336D01*
X125116412Y-48450644D01*
X125118160Y-48451041D01*
X125119833Y-48451526D01*
X125120643Y-48451802D01*
X125121435Y-48452100D01*
X125122210Y-48452419D01*
X125122968Y-48452761D01*
X125123709Y-48453125D01*
X125124434Y-48453511D01*
X125125144Y-48453919D01*
X125125838Y-48454349D01*
X125126516Y-48454801D01*
X125127180Y-48455275D01*
X125128465Y-48456289D01*
X125129695Y-48457391D01*
X125130872Y-48458582D01*
X125132000Y-48459861D01*
X125133081Y-48461228D01*
X125148732Y-48482424D01*
X125169035Y-48512969D01*
X125192116Y-48551980D01*
X125204112Y-48574385D01*
X125216101Y-48598576D01*
X125227847Y-48624443D01*
X125239116Y-48651875D01*
X125249674Y-48680762D01*
X125259287Y-48710995D01*
X125267720Y-48742462D01*
X125274739Y-48775053D01*
X125280110Y-48808659D01*
X125283599Y-48843169D01*
X125283648Y-48844045D01*
X125283789Y-48844909D01*
X125284018Y-48845760D01*
X125284327Y-48846597D01*
X125284710Y-48847419D01*
X125285162Y-48848225D01*
X125285676Y-48849013D01*
X125286245Y-48849783D01*
X125286864Y-48850534D01*
X125287527Y-48851265D01*
X125288226Y-48851974D01*
X125288957Y-48852660D01*
X125290487Y-48853963D01*
X125292066Y-48855163D01*
X125293645Y-48856253D01*
X125295175Y-48857225D01*
X125296605Y-48858069D01*
X125297887Y-48858779D01*
X125299805Y-48859760D01*
X125300532Y-48860102D01*
X125554533Y-48860102D01*
X125555227Y-48860091D01*
X125555900Y-48860058D01*
X125556553Y-48860004D01*
X125557186Y-48859929D01*
X125557799Y-48859833D01*
X125558394Y-48859717D01*
X125558970Y-48859581D01*
X125559530Y-48859426D01*
X125560073Y-48859251D01*
X125560600Y-48859057D01*
X125561112Y-48858844D01*
X125561610Y-48858614D01*
X125562094Y-48858365D01*
X125562564Y-48858099D01*
X125563023Y-48857815D01*
X125563469Y-48857515D01*
X125563905Y-48857198D01*
X125564330Y-48856865D01*
X125565152Y-48856152D01*
X125565942Y-48855378D01*
X125566703Y-48854546D01*
X125567443Y-48853659D01*
X125568166Y-48852719D01*
X125568878Y-48851730D01*
X125569584Y-48850695D01*
X125613957Y-48775047D01*
X125661197Y-48700197D01*
X125711075Y-48626217D01*
X125763358Y-48553178D01*
X125874223Y-48410205D01*
X125991947Y-48271845D01*
X126114688Y-48138667D01*
X126240600Y-48011238D01*
X126367841Y-47890126D01*
X126494567Y-47775899D01*
X126618934Y-47669124D01*
X126739097Y-47570369D01*
X126959440Y-47399191D01*
X127140845Y-47266907D01*
X127268562Y-47178058D01*
X127266680Y-47178058D01*
X127268020Y-47176968D01*
X127269220Y-47175818D01*
X127270283Y-47174616D01*
X127271211Y-47173369D01*
X127272009Y-47172083D01*
X127272679Y-47170765D01*
X127273224Y-47169423D01*
X127273647Y-47168063D01*
X127273952Y-47166691D01*
X127274142Y-47165316D01*
X127274219Y-47163943D01*
X127274188Y-47162580D01*
X127274050Y-47161233D01*
X127273809Y-47159910D01*
X127273468Y-47158617D01*
X127273030Y-47157362D01*
X127272499Y-47156150D01*
X127271877Y-47154990D01*
X127271167Y-47153887D01*
X127270373Y-47152849D01*
X127269498Y-47151883D01*
X127268545Y-47150995D01*
X127267516Y-47150193D01*
X127266416Y-47149483D01*
X127265246Y-47148872D01*
X127264011Y-47148368D01*
X127262713Y-47147976D01*
X127261356Y-47147705D01*
X127259942Y-47147560D01*
X127258474Y-47147548D01*
X127256956Y-47147678D01*
X127255391Y-47147954D01*
X126134029Y-47281539D01*
X126130263Y-47281963D01*
X126126725Y-47282524D01*
X126123409Y-47283216D01*
X126120311Y-47284035D01*
X126117426Y-47284973D01*
X126114751Y-47286025D01*
X126112281Y-47287185D01*
X126110010Y-47288448D01*
X126107936Y-47289807D01*
X126106052Y-47291257D01*
X126104355Y-47292791D01*
X126102841Y-47294405D01*
X126101504Y-47296091D01*
X126100341Y-47297845D01*
X126099346Y-47299660D01*
X126098516Y-47301530D01*
X126097845Y-47303450D01*
X126097330Y-47305414D01*
X126096966Y-47307416D01*
X126096748Y-47309449D01*
X126096672Y-47311509D01*
X126096734Y-47313589D01*
X126096928Y-47315684D01*
X126097252Y-47317787D01*
X126097699Y-47319893D01*
X126098265Y-47321996D01*
X126098947Y-47324090D01*
X126099739Y-47326169D01*
X126100638Y-47328228D01*
X126101638Y-47330260D01*
X126102735Y-47332259D01*
X126103925Y-47334221D01*
X126117066Y-47356652D01*
X126126447Y-47374338D01*
X126137086Y-47396545D01*
X126148518Y-47423426D01*
X126154387Y-47438668D01*
X126160281Y-47455136D01*
X126166142Y-47472849D01*
X126171912Y-47491828D01*
X126177533Y-47512091D01*
X126182947Y-47533658D01*
X126184318Y-47539486D01*
X126185534Y-47546328D01*
X126186486Y-47554097D01*
X126187063Y-47562703D01*
X126187155Y-47572059D01*
X126186651Y-47582077D01*
X126185442Y-47592667D01*
X126183418Y-47603743D01*
X126180467Y-47615216D01*
X126176480Y-47626997D01*
X126171346Y-47638999D01*
X126168315Y-47645055D01*
X126164956Y-47651133D01*
X126161255Y-47657222D01*
X126157198Y-47663311D01*
X126152772Y-47669389D01*
X126147963Y-47675445D01*
X126142758Y-47681468D01*
X126137141Y-47687447D01*
X126131101Y-47693370D01*
X126124621Y-47699228D01*
X126012144Y-47796536D01*
X125914079Y-47876830D01*
X125859587Y-47919311D01*
X125803358Y-47961224D01*
X125746821Y-48000977D01*
X125691403Y-48036976D01*
X125638531Y-48067628D01*
X125589634Y-48091340D01*
X125567122Y-48100096D01*
X125546138Y-48106520D01*
X125526863Y-48110412D01*
X125509473Y-48111574D01*
X125494147Y-48109805D01*
X125481064Y-48104908D01*
X125470402Y-48096683D01*
X125462340Y-48084931D01*
X125445406Y-48019080D01*
X125445209Y-48018567D01*
X125444970Y-48018086D01*
X125444693Y-48017636D01*
X125444381Y-48017217D01*
X125444038Y-48016826D01*
X125443666Y-48016463D01*
X125443269Y-48016127D01*
X125442849Y-48015816D01*
X125442410Y-48015531D01*
X125441955Y-48015269D01*
X125441486Y-48015030D01*
X125441008Y-48014813D01*
X125440523Y-48014617D01*
X125440034Y-48014440D01*
X125439057Y-48014141D01*
X125438102Y-48013908D01*
X125437193Y-48013733D01*
X125436357Y-48013607D01*
X125435617Y-48013523D01*
X125434526Y-48013446D01*
X125434118Y-48013435D01*
X123674933Y-48224161D01*
X123673555Y-48224402D01*
X123672246Y-48224768D01*
X123671006Y-48225251D01*
X123669840Y-48225844D01*
X123668747Y-48226539D01*
X123667731Y-48227328D01*
X123666794Y-48228204D01*
X123665937Y-48229159D01*
X123665163Y-48230186D01*
X123664474Y-48231276D01*
X123663871Y-48232424D01*
X123663357Y-48233620D01*
X123662935Y-48234858D01*
X123662605Y-48236129D01*
X123662370Y-48237426D01*
X123662233Y-48238743D01*
X123662195Y-48240070D01*
X120610000Y-48240070D01*
X120610000Y-47711352D01*
X122647335Y-47711352D01*
X122647344Y-47712557D01*
X122647436Y-47713750D01*
X122647614Y-47714924D01*
X122647879Y-47716074D01*
X122648232Y-47717193D01*
X122648675Y-47718276D01*
X122649208Y-47719317D01*
X122649834Y-47720311D01*
X122650554Y-47721250D01*
X122651368Y-47722130D01*
X122652279Y-47722945D01*
X122653288Y-47723688D01*
X122684605Y-47747585D01*
X122716494Y-47771284D01*
X122749001Y-47794762D01*
X122782170Y-47817997D01*
X122816044Y-47840968D01*
X122850668Y-47863652D01*
X122886085Y-47886028D01*
X122922340Y-47908073D01*
X122958027Y-47929150D01*
X122994494Y-47948628D01*
X123031683Y-47966496D01*
X123069537Y-47982744D01*
X123107996Y-47997361D01*
X123147004Y-48010334D01*
X123186503Y-48021654D01*
X123226434Y-48031310D01*
X123266741Y-48039290D01*
X123307364Y-48045583D01*
X123348246Y-48050178D01*
X123389329Y-48053064D01*
X123430556Y-48054231D01*
X123471868Y-48053667D01*
X123513208Y-48051361D01*
X123554518Y-48047303D01*
X125377673Y-47829051D01*
X125378191Y-47829034D01*
X125378687Y-47828986D01*
X125379161Y-47828907D01*
X125379613Y-47828797D01*
X125380043Y-47828659D01*
X125380451Y-47828493D01*
X125380837Y-47828300D01*
X125381201Y-47828081D01*
X125381542Y-47827837D01*
X125381862Y-47827569D01*
X125382160Y-47827279D01*
X125382435Y-47826967D01*
X125382689Y-47826635D01*
X125382921Y-47826282D01*
X125383130Y-47825911D01*
X125383317Y-47825523D01*
X125383483Y-47825118D01*
X125383626Y-47824698D01*
X125383747Y-47824263D01*
X125383847Y-47823814D01*
X125383924Y-47823353D01*
X125383979Y-47822881D01*
X125384023Y-47821907D01*
X125383979Y-47820900D01*
X125383847Y-47819868D01*
X125383626Y-47818819D01*
X125383317Y-47817762D01*
X125364458Y-47762376D01*
X125344629Y-47707695D01*
X125323918Y-47653720D01*
X125302414Y-47600451D01*
X125280203Y-47547887D01*
X125257376Y-47496028D01*
X125234019Y-47444876D01*
X125210221Y-47394429D01*
X125210029Y-47394087D01*
X125209805Y-47393766D01*
X125209554Y-47393466D01*
X125209277Y-47393186D01*
X125208976Y-47392926D01*
X125208654Y-47392684D01*
X125208314Y-47392460D01*
X125207958Y-47392253D01*
X125207587Y-47392063D01*
X125207206Y-47391888D01*
X125206815Y-47391729D01*
X125206418Y-47391584D01*
X125205614Y-47391335D01*
X125204812Y-47391136D01*
X125204032Y-47390981D01*
X125203294Y-47390864D01*
X125202617Y-47390780D01*
X125202019Y-47390724D01*
X125201141Y-47390673D01*
X125200814Y-47390665D01*
X122662696Y-47693584D01*
X122661313Y-47693815D01*
X122659986Y-47694150D01*
X122658717Y-47694583D01*
X122657507Y-47695109D01*
X122656358Y-47695722D01*
X122655271Y-47696416D01*
X122654247Y-47697185D01*
X122653288Y-47698023D01*
X122652396Y-47698925D01*
X122651570Y-47699884D01*
X122650814Y-47700895D01*
X122650128Y-47701952D01*
X122649514Y-47703048D01*
X122648972Y-47704179D01*
X122648505Y-47705338D01*
X122648114Y-47706519D01*
X122647800Y-47707717D01*
X122647565Y-47708926D01*
X122647409Y-47710139D01*
X122647335Y-47711352D01*
X120610000Y-47711352D01*
X120610000Y-46981751D01*
X121942864Y-46981751D01*
X121942882Y-46982884D01*
X121942975Y-46984021D01*
X121943144Y-46985157D01*
X121943390Y-46986289D01*
X121943717Y-46987415D01*
X121944124Y-46988532D01*
X121944615Y-46989635D01*
X121945190Y-46990723D01*
X121945852Y-46991792D01*
X121945851Y-46991792D01*
X121974544Y-47034419D01*
X121994667Y-47062899D01*
X122018759Y-47095744D01*
X122046908Y-47132646D01*
X122079201Y-47173296D01*
X122115729Y-47217386D01*
X122156577Y-47264607D01*
X122184979Y-47295358D01*
X122215076Y-47324087D01*
X122246755Y-47350753D01*
X122279903Y-47375320D01*
X122314406Y-47397748D01*
X122350153Y-47417999D01*
X122387030Y-47436034D01*
X122424923Y-47451814D01*
X122463721Y-47465301D01*
X122503310Y-47476457D01*
X122543577Y-47485242D01*
X122584408Y-47491619D01*
X122625692Y-47495548D01*
X122667315Y-47496992D01*
X122709164Y-47495910D01*
X122751125Y-47492266D01*
X125101095Y-47210043D01*
X125101619Y-47210022D01*
X125102130Y-47209958D01*
X125102629Y-47209853D01*
X125103113Y-47209709D01*
X125103582Y-47209528D01*
X125104035Y-47209312D01*
X125104470Y-47209062D01*
X125104888Y-47208779D01*
X125105286Y-47208467D01*
X125105663Y-47208126D01*
X125106020Y-47207758D01*
X125106354Y-47207365D01*
X125106664Y-47206948D01*
X125106951Y-47206510D01*
X125107211Y-47206052D01*
X125107445Y-47205575D01*
X125107652Y-47205082D01*
X125107830Y-47204574D01*
X125107978Y-47204053D01*
X125108096Y-47203521D01*
X125108182Y-47202979D01*
X125108235Y-47202429D01*
X125108254Y-47201873D01*
X125108239Y-47201312D01*
X125108188Y-47200749D01*
X125108100Y-47200185D01*
X125107974Y-47199621D01*
X125107809Y-47199060D01*
X125107604Y-47198503D01*
X125107358Y-47197952D01*
X125107071Y-47197408D01*
X125106740Y-47196873D01*
X125066718Y-47128019D01*
X125025748Y-47061260D01*
X124983940Y-46996749D01*
X124941405Y-46934642D01*
X124898252Y-46875092D01*
X124854592Y-46818255D01*
X124810535Y-46764283D01*
X124766192Y-46713333D01*
X124756782Y-46703434D01*
X124746914Y-46694205D01*
X124736616Y-46685655D01*
X124725916Y-46677790D01*
X124714841Y-46670620D01*
X124703419Y-46664153D01*
X124691677Y-46658397D01*
X124679644Y-46653360D01*
X124667345Y-46649051D01*
X124654809Y-46645478D01*
X124642064Y-46642649D01*
X124629138Y-46640572D01*
X124616056Y-46639256D01*
X124602848Y-46638709D01*
X124589541Y-46638939D01*
X124576162Y-46639955D01*
X121959022Y-46963570D01*
X121957804Y-46963784D01*
X121956621Y-46964073D01*
X121955474Y-46964432D01*
X121954366Y-46964860D01*
X121953298Y-46965352D01*
X121952271Y-46965905D01*
X121951288Y-46966518D01*
X121950349Y-46967186D01*
X121949458Y-46967906D01*
X121948615Y-46968675D01*
X121947823Y-46969491D01*
X121947083Y-46970350D01*
X121946396Y-46971248D01*
X121945765Y-46972184D01*
X121945191Y-46973153D01*
X121944676Y-46974153D01*
X121944221Y-46975181D01*
X121943829Y-46976233D01*
X121943501Y-46977306D01*
X121943239Y-46978397D01*
X121943044Y-46979504D01*
X121942919Y-46980623D01*
X121942864Y-46981751D01*
X120610000Y-46981751D01*
X120610000Y-43750000D01*
X128610058Y-43750000D01*
X128610058Y-51748176D01*
G37*
%TD*%
D11*
%TO.C,JP8*%
X252820000Y-86510000D03*
X252820000Y-85210000D03*
%TD*%
D12*
%TO.C,F12*%
X338360000Y-82137500D03*
X338360000Y-80262500D03*
%TD*%
%TO.C,F5*%
X189170000Y-82087500D03*
X189170000Y-80212500D03*
%TD*%
%TO.C,F11*%
X317020000Y-82047500D03*
X317020000Y-80172500D03*
%TD*%
%TO.C,F10*%
X295540000Y-82067500D03*
X295540000Y-80192500D03*
%TD*%
%TO.C,F16*%
X423620000Y-82057500D03*
X423620000Y-80182500D03*
%TD*%
%TO.C,F9*%
X274190000Y-82067500D03*
X274190000Y-80192500D03*
%TD*%
D13*
%TO.C,TP12*%
X295550000Y-150670000D03*
%TD*%
%TO.C,TP19*%
X444870000Y-151792000D03*
%TD*%
%TO.C,TP8*%
X210390000Y-150000000D03*
%TD*%
D12*
%TO.C,F7*%
X231520000Y-82077500D03*
X231520000Y-80202500D03*
%TD*%
D13*
%TO.C,TP16*%
X380800000Y-150670000D03*
%TD*%
D14*
%TO.C,JP17*%
X436430000Y-85340000D03*
X435130000Y-85340000D03*
%TD*%
D13*
%TO.C,TP3*%
X103810000Y-150670000D03*
%TD*%
%TO.C,TP4*%
X125090000Y-150670000D03*
%TD*%
D11*
%TO.C,JP4*%
X168090000Y-86550000D03*
X168090000Y-85250000D03*
%TD*%
D12*
%TO.C,F15*%
X402260000Y-82067500D03*
X402260000Y-80192500D03*
%TD*%
D11*
%TO.C,JP6*%
X210240000Y-86510000D03*
X210240000Y-85210000D03*
%TD*%
D15*
%TO.C,TP2*%
X451865981Y-67437000D03*
X451865981Y-69977000D03*
X451865981Y-72517000D03*
X451865981Y-75057000D03*
X451865981Y-77597000D03*
X454405981Y-67437000D03*
X454405981Y-69977000D03*
X454405981Y-72517000D03*
X454405981Y-75057000D03*
X454405981Y-77597000D03*
X456945981Y-67437000D03*
X456945981Y-69977000D03*
X456945981Y-72517000D03*
D16*
X456945981Y-72517000D03*
D15*
X456945981Y-75057000D03*
X456945981Y-77597000D03*
X459485981Y-67437000D03*
X459485981Y-69977000D03*
X459485981Y-72517000D03*
X459485981Y-75057000D03*
X459485981Y-77597000D03*
X462025981Y-67437000D03*
X462025981Y-69977000D03*
X462025981Y-72517000D03*
X462025981Y-75057000D03*
X462025981Y-77597000D03*
%TD*%
D12*
%TO.C,F2*%
X125230000Y-82207500D03*
X125230000Y-80332500D03*
%TD*%
D13*
%TO.C,TP10*%
X252970000Y-150670000D03*
%TD*%
D12*
%TO.C,F1*%
X103910000Y-82367500D03*
X103910000Y-80492500D03*
%TD*%
D13*
%TO.C,TP20*%
X82600000Y-150670000D03*
%TD*%
D11*
%TO.C,JP5*%
X189170000Y-86550000D03*
X189170000Y-85250000D03*
%TD*%
%TO.C,JP10*%
X295540000Y-86530000D03*
X295540000Y-85230000D03*
%TD*%
D15*
%TO.C,TP1*%
X65023981Y-67437000D03*
X65023981Y-69977000D03*
X65023981Y-72517000D03*
X65023981Y-75057000D03*
X65023981Y-77597000D03*
X67563981Y-67437000D03*
X67563981Y-69977000D03*
X67563981Y-72517000D03*
X67563981Y-75057000D03*
X67563981Y-77597000D03*
X70103981Y-67437000D03*
X70103981Y-69977000D03*
X70103981Y-72517000D03*
D16*
X70103981Y-72517000D03*
D15*
X70103981Y-75057000D03*
X70103981Y-77597000D03*
X72643981Y-67437000D03*
X72643981Y-69977000D03*
X72643981Y-72517000D03*
X72643981Y-75057000D03*
X72643981Y-77597000D03*
X75183981Y-67437000D03*
X75183981Y-69977000D03*
X75183981Y-72517000D03*
X75183981Y-75057000D03*
X75183981Y-77597000D03*
%TD*%
D11*
%TO.C,JP3*%
X146590000Y-86510000D03*
X146590000Y-85210000D03*
%TD*%
D13*
%TO.C,TP15*%
X359500000Y-150670000D03*
%TD*%
D12*
%TO.C,F8*%
X252820000Y-82047500D03*
X252820000Y-80172500D03*
%TD*%
%TO.C,F4*%
X168090000Y-82087500D03*
X168090000Y-80212500D03*
%TD*%
D13*
%TO.C,TP17*%
X402270000Y-151792000D03*
%TD*%
D12*
%TO.C,F13*%
X359610000Y-82057500D03*
X359610000Y-80182500D03*
%TD*%
D11*
%TO.C,JP12*%
X338360000Y-86500000D03*
X338360000Y-85200000D03*
%TD*%
D17*
%TO.C,TP14*%
X338200000Y-148300000D03*
%TD*%
D11*
%TO.C,JP7*%
X231520000Y-86540000D03*
X231520000Y-85240000D03*
%TD*%
D18*
%TO.C,F17*%
X432017500Y-85340000D03*
X430142500Y-85340000D03*
%TD*%
D11*
%TO.C,JP9*%
X274190000Y-86530000D03*
X274190000Y-85230000D03*
%TD*%
D19*
%TO.C,TP9*%
X231800000Y-149000000D03*
%TD*%
D11*
%TO.C,JP13*%
X359610000Y-86520000D03*
X359610000Y-85220000D03*
%TD*%
%TO.C,JP16*%
X423620000Y-86520000D03*
X423620000Y-85220000D03*
%TD*%
%TO.C,JP15*%
X402260000Y-86530000D03*
X402260000Y-85230000D03*
%TD*%
D13*
%TO.C,TP5*%
X146370000Y-150670000D03*
%TD*%
%TO.C,TP18*%
X423570000Y-151892000D03*
%TD*%
%TO.C,TP6*%
X167650000Y-150670000D03*
%TD*%
D11*
%TO.C,JP14*%
X380970000Y-86510000D03*
X380970000Y-85210000D03*
%TD*%
%TO.C,JP11*%
X317020000Y-86510000D03*
X317020000Y-85210000D03*
%TD*%
D13*
%TO.C,TP13*%
X316900000Y-150670000D03*
%TD*%
%TO.C,TP7*%
X189100000Y-150670000D03*
%TD*%
D11*
%TO.C,JP1*%
X103910000Y-86680000D03*
X103910000Y-85380000D03*
%TD*%
D12*
%TO.C,F14*%
X380970000Y-82047500D03*
X380970000Y-80172500D03*
%TD*%
D13*
%TO.C,TP11*%
X274260000Y-150670000D03*
%TD*%
D12*
%TO.C,F6*%
X210240000Y-82047500D03*
X210240000Y-80172500D03*
%TD*%
%TO.C,F3*%
X146590000Y-82047500D03*
X146590000Y-80172500D03*
%TD*%
D11*
%TO.C,JP2*%
X125230000Y-86520000D03*
X125230000Y-85220000D03*
%TD*%
D20*
%TO.C,J2*%
X355000000Y-47000000D03*
X355000000Y-49000000D03*
X357000000Y-47000000D03*
X357000000Y-49000000D03*
X359000000Y-47000000D03*
X359000000Y-49000000D03*
X361000000Y-47000000D03*
X361000000Y-49000000D03*
X363000000Y-47000000D03*
X363000000Y-49000000D03*
X365000000Y-47000000D03*
X365000000Y-49000000D03*
X367000000Y-47000000D03*
X367000000Y-49000000D03*
X369000000Y-47000000D03*
X369000000Y-49000000D03*
X371000000Y-47000000D03*
X371000000Y-49000000D03*
X373000000Y-47000000D03*
X373000000Y-49000000D03*
X352075000Y-48000000D03*
X375925000Y-48000000D03*
%TD*%
%TO.C,J4*%
X271000000Y-47000000D03*
X271000000Y-49000000D03*
X273000000Y-47000000D03*
X273000000Y-49000000D03*
X275000000Y-47000000D03*
X275000000Y-49000000D03*
X277000000Y-47000000D03*
X277000000Y-49000000D03*
X279000000Y-47000000D03*
X279000000Y-49000000D03*
X281000000Y-47000000D03*
X281000000Y-49000000D03*
X283000000Y-47000000D03*
X283000000Y-49000000D03*
X285000000Y-47000000D03*
X285000000Y-49000000D03*
X287000000Y-47000000D03*
X287000000Y-49000000D03*
X289000000Y-47000000D03*
X289000000Y-49000000D03*
X268075000Y-48000000D03*
X291925000Y-48000000D03*
%TD*%
%TO.C,J3*%
X391000000Y-47000000D03*
X391000000Y-49000000D03*
X393000000Y-47000000D03*
X393000000Y-49000000D03*
X395000000Y-47000000D03*
X395000000Y-49000000D03*
X397000000Y-47000000D03*
X397000000Y-49000000D03*
X399000000Y-47000000D03*
X399000000Y-49000000D03*
X401000000Y-47000000D03*
X401000000Y-49000000D03*
X403000000Y-47000000D03*
X403000000Y-49000000D03*
X405000000Y-47000000D03*
X405000000Y-49000000D03*
X407000000Y-47000000D03*
X407000000Y-49000000D03*
X409000000Y-47000000D03*
X409000000Y-49000000D03*
X388075000Y-48000000D03*
X411925000Y-48000000D03*
%TD*%
M02*
