G04 #@! TF.GenerationSoftware,KiCad,Pcbnew,5.0.2-bee76a0~70~ubuntu18.04.1*
G04 #@! TF.CreationDate,2019-11-25T08:18:34-05:00*
G04 #@! TF.ProjectId,interface,696e7465-7266-4616-9365-2e6b69636164,rev?*
G04 #@! TF.SameCoordinates,Original*
G04 #@! TF.FileFunction,Copper,L1,Top*
G04 #@! TF.FilePolarity,Positive*
%FSLAX46Y46*%
G04 Gerber Fmt 4.6, Leading zero omitted, Abs format (unit mm)*
G04 Created by KiCad (PCBNEW 5.0.2-bee76a0~70~ubuntu18.04.1) date Mon 25 Nov 2019 08:18:34 AM EST*
%MOMM*%
%LPD*%
G01*
G04 APERTURE LIST*
G04 #@! TA.AperFunction,Conductor*
%ADD10C,0.100076*%
G04 #@! TD*
G04 #@! TA.AperFunction,ComponentPad*
%ADD11C,1.700000*%
G04 #@! TD*
G04 #@! TA.AperFunction,ComponentPad*
%ADD12C,1.417157*%
G04 #@! TD*
G04 #@! TA.AperFunction,ComponentPad*
%ADD13C,2.000000*%
G04 #@! TD*
G04 #@! TA.AperFunction,ComponentPad*
%ADD14C,1.300000*%
G04 #@! TD*
G04 #@! TA.AperFunction,ComponentPad*
%ADD15C,1.500000*%
G04 #@! TD*
G04 #@! TA.AperFunction,ComponentPad*
%ADD16C,2.750000*%
G04 #@! TD*
G04 #@! TA.AperFunction,ComponentPad*
%ADD17C,3.000000*%
G04 #@! TD*
G04 #@! TA.AperFunction,SMDPad,CuDef*
%ADD18R,1.300000X0.700000*%
G04 #@! TD*
G04 #@! TA.AperFunction,ViaPad*
%ADD19C,0.800000*%
G04 #@! TD*
G04 #@! TA.AperFunction,Conductor*
%ADD20C,0.152400*%
G04 #@! TD*
G04 #@! TA.AperFunction,Conductor*
%ADD21C,0.254000*%
G04 #@! TD*
G04 #@! TA.AperFunction,Conductor*
%ADD22C,0.762000*%
G04 #@! TD*
G04 APERTURE END LIST*
D10*
G04 #@! TO.N,/START_BTN*
G04 #@! TO.C,U4*
G36*
X165158104Y-63199204D02*
X165182373Y-63202804D01*
X165206171Y-63208765D01*
X165229271Y-63217030D01*
X165251449Y-63227520D01*
X165272493Y-63240133D01*
X165292198Y-63254747D01*
X165310377Y-63271223D01*
X165326853Y-63289402D01*
X165341467Y-63309107D01*
X165354080Y-63330151D01*
X165364570Y-63352329D01*
X165372835Y-63375429D01*
X165378796Y-63399227D01*
X165382396Y-63423496D01*
X165383600Y-63448000D01*
X165383600Y-64648000D01*
X165382396Y-64672504D01*
X165378796Y-64696773D01*
X165372835Y-64720571D01*
X165364570Y-64743671D01*
X165354080Y-64765849D01*
X165341467Y-64786893D01*
X165326853Y-64806598D01*
X165310377Y-64824777D01*
X165292198Y-64841253D01*
X165272493Y-64855867D01*
X165251449Y-64868480D01*
X165229271Y-64878970D01*
X165206171Y-64887235D01*
X165182373Y-64893196D01*
X165158104Y-64896796D01*
X165133600Y-64898000D01*
X163933600Y-64898000D01*
X163909096Y-64896796D01*
X163884827Y-64893196D01*
X163861029Y-64887235D01*
X163837929Y-64878970D01*
X163815751Y-64868480D01*
X163794707Y-64855867D01*
X163775002Y-64841253D01*
X163756823Y-64824777D01*
X163740347Y-64806598D01*
X163725733Y-64786893D01*
X163713120Y-64765849D01*
X163702630Y-64743671D01*
X163694365Y-64720571D01*
X163688404Y-64696773D01*
X163684804Y-64672504D01*
X163683600Y-64648000D01*
X163683600Y-63448000D01*
X163684804Y-63423496D01*
X163688404Y-63399227D01*
X163694365Y-63375429D01*
X163702630Y-63352329D01*
X163713120Y-63330151D01*
X163725733Y-63309107D01*
X163740347Y-63289402D01*
X163756823Y-63271223D01*
X163775002Y-63254747D01*
X163794707Y-63240133D01*
X163815751Y-63227520D01*
X163837929Y-63217030D01*
X163861029Y-63208765D01*
X163884827Y-63202804D01*
X163909096Y-63199204D01*
X163933600Y-63198000D01*
X165133600Y-63198000D01*
X165158104Y-63199204D01*
X165158104Y-63199204D01*
G37*
D11*
G04 #@! TD*
G04 #@! TO.P,U4,1*
G04 #@! TO.N,/START_BTN*
X164533600Y-64048000D03*
G04 #@! TO.P,U4,2*
G04 #@! TO.N,/START_LED*
X162033600Y-64048000D03*
G04 #@! TO.P,U4,3*
G04 #@! TO.N,/BMS_LED*
X159533600Y-64048000D03*
G04 #@! TO.P,U4,4*
G04 #@! TO.N,/IMD_LED*
X157033600Y-64048000D03*
G04 #@! TO.P,U4,5*
G04 #@! TO.N,GND*
X154533600Y-64048000D03*
G04 #@! TO.P,U4,6*
X164533600Y-66548000D03*
G04 #@! TO.P,U4,7*
X162033600Y-66548000D03*
G04 #@! TO.P,U4,8*
X159533600Y-66548000D03*
G04 #@! TO.P,U4,9*
X157033600Y-66548000D03*
G04 #@! TO.P,U4,10*
X154533600Y-66548000D03*
G04 #@! TD*
D12*
G04 #@! TO.P,U2,1*
G04 #@! TO.N,GND*
X137007600Y-90652600D03*
D10*
G04 #@! TD*
G04 #@! TO.N,GND*
G04 #@! TO.C,U2*
G36*
X136162404Y-90003827D02*
X136176630Y-89956929D01*
X136199733Y-89913707D01*
X136230823Y-89875823D01*
X136268707Y-89844733D01*
X136311929Y-89821630D01*
X136358827Y-89807404D01*
X136407600Y-89802600D01*
X137607600Y-89802600D01*
X137656373Y-89807404D01*
X137703271Y-89821630D01*
X137746493Y-89844733D01*
X137784377Y-89875823D01*
X137815467Y-89913707D01*
X137838570Y-89956929D01*
X137852796Y-90003827D01*
X137857600Y-90052600D01*
X137857600Y-90852600D01*
X137852796Y-90901373D01*
X137838570Y-90948271D01*
X137815467Y-90991493D01*
X137784377Y-91029377D01*
X137384377Y-91429377D01*
X137346493Y-91460467D01*
X137303271Y-91483570D01*
X137256373Y-91497796D01*
X137207600Y-91502600D01*
X136407600Y-91502600D01*
X136358827Y-91497796D01*
X136311929Y-91483570D01*
X136268707Y-91460467D01*
X136230823Y-91429377D01*
X136199733Y-91391493D01*
X136176630Y-91348271D01*
X136162404Y-91301373D01*
X136157600Y-91252600D01*
X136157600Y-90052600D01*
X136162404Y-90003827D01*
X136162404Y-90003827D01*
G37*
D11*
G04 #@! TO.P,U2,2*
G04 #@! TO.N,GND*
X139507600Y-90652600D03*
G04 #@! TO.P,U2,3*
G04 #@! TO.N,/5V_LED_BARS*
X137007600Y-88152600D03*
G04 #@! TO.P,U2,4*
G04 #@! TO.N,/SPEED_LED_BAR*
X139507600Y-88152600D03*
G04 #@! TD*
D13*
G04 #@! TO.P,J5,5*
G04 #@! TO.N,N/C*
X77771800Y-92556200D03*
D14*
G04 #@! TO.P,J5,4*
G04 #@! TO.N,/5V_CAN_LOGGER*
X82981800Y-91516200D03*
G04 #@! TO.P,J5,2*
G04 #@! TO.N,/IS>BOTS*
X80441800Y-91516200D03*
G04 #@! TO.P,J5,1*
G04 #@! TO.N,/BOTS>ESTOP*
X79171800Y-94056200D03*
G04 #@! TO.P,J5,3*
G04 #@! TO.N,/ESTOP>HVD*
X81711800Y-94056200D03*
G04 #@! TD*
D11*
G04 #@! TO.P,U3,4*
G04 #@! TO.N,/SOC_LED_BAR*
X166457000Y-87898600D03*
G04 #@! TO.P,U3,3*
G04 #@! TO.N,/5V_LED_BARS*
X163957000Y-87898600D03*
G04 #@! TO.P,U3,2*
G04 #@! TO.N,GND*
X166457000Y-90398600D03*
D12*
G04 #@! TO.P,U3,1*
X163957000Y-90398600D03*
D10*
G04 #@! TD*
G04 #@! TO.N,GND*
G04 #@! TO.C,U3*
G36*
X163111804Y-89749827D02*
X163126030Y-89702929D01*
X163149133Y-89659707D01*
X163180223Y-89621823D01*
X163218107Y-89590733D01*
X163261329Y-89567630D01*
X163308227Y-89553404D01*
X163357000Y-89548600D01*
X164557000Y-89548600D01*
X164605773Y-89553404D01*
X164652671Y-89567630D01*
X164695893Y-89590733D01*
X164733777Y-89621823D01*
X164764867Y-89659707D01*
X164787970Y-89702929D01*
X164802196Y-89749827D01*
X164807000Y-89798600D01*
X164807000Y-90598600D01*
X164802196Y-90647373D01*
X164787970Y-90694271D01*
X164764867Y-90737493D01*
X164733777Y-90775377D01*
X164333777Y-91175377D01*
X164295893Y-91206467D01*
X164252671Y-91229570D01*
X164205773Y-91243796D01*
X164157000Y-91248600D01*
X163357000Y-91248600D01*
X163308227Y-91243796D01*
X163261329Y-91229570D01*
X163218107Y-91206467D01*
X163180223Y-91175377D01*
X163149133Y-91137493D01*
X163126030Y-91094271D01*
X163111804Y-91047373D01*
X163107000Y-90998600D01*
X163107000Y-89798600D01*
X163111804Y-89749827D01*
X163111804Y-89749827D01*
G37*
D15*
G04 #@! TO.P,U6,12*
G04 #@! TO.N,/RJ45_LED_G_THROTTLE*
X104082800Y-88569800D03*
G04 #@! TO.P,U6,11*
G04 #@! TO.N,Net-(U6-Pad11)*
X101542800Y-88569800D03*
G04 #@! TO.P,U6,9*
G04 #@! TO.N,Net-(U6-Pad9)*
X90982800Y-88569800D03*
G04 #@! TO.P,U6,10*
G04 #@! TO.N,/RJ45_LED_O_THROTTLE*
X93522800Y-88569800D03*
G04 #@! TO.P,U6,1*
G04 #@! TO.N,/CANH*
X101982800Y-81939800D03*
G04 #@! TO.P,U6,3*
G04 #@! TO.N,/RESET_THROTTLE*
X99442800Y-81939800D03*
G04 #@! TO.P,U6,5*
G04 #@! TO.N,/MISO_THROTTLE*
X96902800Y-81939800D03*
G04 #@! TO.P,U6,7*
G04 #@! TO.N,/5V_THROTTLE*
X94362800Y-81939800D03*
G04 #@! TO.P,U6,2*
G04 #@! TO.N,/CANL*
X100712800Y-79399800D03*
G04 #@! TO.P,U6,4*
G04 #@! TO.N,/SCK_THROTTLE*
X98172800Y-79399800D03*
G04 #@! TO.P,U6,6*
G04 #@! TO.N,/MOSI_THROTTLE*
X95632800Y-79399800D03*
G04 #@! TO.P,U6,8*
G04 #@! TO.N,GND*
X93092800Y-79399800D03*
D16*
G04 #@! TO.P,U6,13*
G04 #@! TO.N,Net-(U6-Pad13)*
X104482800Y-83819800D03*
G04 #@! TO.P,U6,14*
G04 #@! TO.N,Net-(U6-Pad14)*
X90582800Y-83819800D03*
G04 #@! TD*
D10*
G04 #@! TO.N,/LV_LED*
G04 #@! TO.C,U1*
G36*
X146674504Y-63210004D02*
X146698773Y-63213604D01*
X146722571Y-63219565D01*
X146745671Y-63227830D01*
X146767849Y-63238320D01*
X146788893Y-63250933D01*
X146808598Y-63265547D01*
X146826777Y-63282023D01*
X146843253Y-63300202D01*
X146857867Y-63319907D01*
X146870480Y-63340951D01*
X146880970Y-63363129D01*
X146889235Y-63386229D01*
X146895196Y-63410027D01*
X146898796Y-63434296D01*
X146900000Y-63458800D01*
X146900000Y-64658800D01*
X146898796Y-64683304D01*
X146895196Y-64707573D01*
X146889235Y-64731371D01*
X146880970Y-64754471D01*
X146870480Y-64776649D01*
X146857867Y-64797693D01*
X146843253Y-64817398D01*
X146826777Y-64835577D01*
X146808598Y-64852053D01*
X146788893Y-64866667D01*
X146767849Y-64879280D01*
X146745671Y-64889770D01*
X146722571Y-64898035D01*
X146698773Y-64903996D01*
X146674504Y-64907596D01*
X146650000Y-64908800D01*
X145450000Y-64908800D01*
X145425496Y-64907596D01*
X145401227Y-64903996D01*
X145377429Y-64898035D01*
X145354329Y-64889770D01*
X145332151Y-64879280D01*
X145311107Y-64866667D01*
X145291402Y-64852053D01*
X145273223Y-64835577D01*
X145256747Y-64817398D01*
X145242133Y-64797693D01*
X145229520Y-64776649D01*
X145219030Y-64754471D01*
X145210765Y-64731371D01*
X145204804Y-64707573D01*
X145201204Y-64683304D01*
X145200000Y-64658800D01*
X145200000Y-63458800D01*
X145201204Y-63434296D01*
X145204804Y-63410027D01*
X145210765Y-63386229D01*
X145219030Y-63363129D01*
X145229520Y-63340951D01*
X145242133Y-63319907D01*
X145256747Y-63300202D01*
X145273223Y-63282023D01*
X145291402Y-63265547D01*
X145311107Y-63250933D01*
X145332151Y-63238320D01*
X145354329Y-63227830D01*
X145377429Y-63219565D01*
X145401227Y-63213604D01*
X145425496Y-63210004D01*
X145450000Y-63208800D01*
X146650000Y-63208800D01*
X146674504Y-63210004D01*
X146674504Y-63210004D01*
G37*
D11*
G04 #@! TD*
G04 #@! TO.P,U1,1*
G04 #@! TO.N,/LV_LED*
X146050000Y-64058800D03*
G04 #@! TO.P,U1,2*
G04 #@! TO.N,/HV_LED*
X143550000Y-64058800D03*
G04 #@! TO.P,U1,3*
G04 #@! TO.N,/BRAKE_LED*
X141050000Y-64058800D03*
G04 #@! TO.P,U1,4*
G04 #@! TO.N,/DRIVE_MODE_+*
X138550000Y-64058800D03*
G04 #@! TO.P,U1,5*
G04 #@! TO.N,/DRIVE_MODE_SENSE*
X136050000Y-64058800D03*
G04 #@! TO.P,U1,6*
G04 #@! TO.N,/DRIVE_MODE_-*
X133550000Y-64058800D03*
G04 #@! TO.P,U1,7*
G04 #@! TO.N,GND*
X146050000Y-66558800D03*
G04 #@! TO.P,U1,8*
X143550000Y-66558800D03*
G04 #@! TO.P,U1,9*
X141050000Y-66558800D03*
G04 #@! TO.P,U1,10*
X138550000Y-66558800D03*
G04 #@! TO.P,U1,11*
X136050000Y-66558800D03*
G04 #@! TO.P,U1,12*
X133550000Y-66558800D03*
G04 #@! TD*
D14*
G04 #@! TO.P,J3,3*
G04 #@! TO.N,/5V_LED_BARS*
X201955400Y-92354400D03*
G04 #@! TO.P,J3,1*
G04 #@! TO.N,/SPEED_LED_BAR*
X199415400Y-92354400D03*
G04 #@! TO.P,J3,2*
G04 #@! TO.N,/SOC_LED_BAR*
X200685400Y-89814400D03*
G04 #@! TO.P,J3,4*
G04 #@! TO.N,GND*
X203225400Y-89814400D03*
D13*
G04 #@! TO.P,J3,5*
G04 #@! TO.N,N/C*
X198015400Y-90854400D03*
G04 #@! TD*
D17*
G04 #@! TO.P,J7,31*
G04 #@! TO.N,/CANL*
X157283600Y-75824200D03*
G04 #@! TO.P,J7,25*
G04 #@! TO.N,/THROTTLE_POT_1_SENSE*
X133283600Y-75824200D03*
G04 #@! TO.P,J7,26*
G04 #@! TO.N,/THROTTLE_POT_1_-*
X137283600Y-75824200D03*
G04 #@! TO.P,J7,27*
G04 #@! TO.N,/THROTTLE_POT_2_+*
X141283600Y-75824200D03*
G04 #@! TO.P,J7,28*
G04 #@! TO.N,/THROTTLE_POT_2_SENSE*
X145283600Y-75824200D03*
G04 #@! TO.P,J7,29*
G04 #@! TO.N,/THROTTLE_POT_2_-*
X149283600Y-75824200D03*
G04 #@! TO.P,J7,30*
G04 #@! TO.N,/CANH*
X153283600Y-75824200D03*
G04 #@! TO.P,J7,14*
G04 #@! TO.N,/CANL*
X135283600Y-79824200D03*
G04 #@! TO.P,J7,15*
G04 #@! TO.N,GND*
X139283600Y-79824200D03*
G04 #@! TO.P,J7,17*
G04 #@! TO.N,/STEERING_POT_SENSE*
X147283600Y-79824200D03*
G04 #@! TO.P,J7,16*
G04 #@! TO.N,/STEERING_POT_+*
X143283600Y-79824200D03*
G04 #@! TO.P,J7,18*
G04 #@! TO.N,/STEERING_POT_-*
X151283600Y-79824200D03*
G04 #@! TO.P,J7,19*
G04 #@! TO.N,GND*
X155283600Y-79824200D03*
G04 #@! TO.P,J7,7*
G04 #@! TO.N,/ESTOP>HVD*
X153283600Y-83824200D03*
G04 #@! TO.P,J7,6*
G04 #@! TO.N,/BOTS>ESTOP*
X149283600Y-83824200D03*
G04 #@! TO.P,J7,4*
G04 #@! TO.N,/IS>BOTS*
X141283600Y-83824200D03*
G04 #@! TO.P,J7,5*
X145283600Y-83824200D03*
G04 #@! TO.P,J7,3*
G04 #@! TO.N,/5V_CAN_LOGGER*
X137283600Y-83824200D03*
G04 #@! TO.P,J7,2*
G04 #@! TO.N,+12V*
X133283600Y-83824200D03*
G04 #@! TO.P,J7,24*
G04 #@! TO.N,/THROTTLE_POT_1_+*
X129283600Y-75824200D03*
G04 #@! TO.P,J7,13*
G04 #@! TO.N,/CANH*
X131283600Y-79824200D03*
G04 #@! TO.P,J7,1*
G04 #@! TO.N,GND*
X129283600Y-83824200D03*
G04 #@! TO.P,J7,8*
X157283600Y-83824200D03*
G04 #@! TO.P,J7,20*
X159283600Y-79824200D03*
G04 #@! TO.P,J7,32*
X161283600Y-75824200D03*
G04 #@! TO.P,J7,9*
X161283600Y-83824200D03*
G04 #@! TO.P,J7,33*
G04 #@! TO.N,/RTD_LSD*
X165283600Y-75824200D03*
G04 #@! TO.P,J7,21*
G04 #@! TO.N,+12V*
X163283600Y-79824200D03*
G04 #@! TO.P,J7,10*
G04 #@! TO.N,GND*
X165283600Y-83824200D03*
G04 #@! TO.P,J7,34*
G04 #@! TO.N,/CANH*
X169283600Y-75824200D03*
G04 #@! TO.P,J7,22*
G04 #@! TO.N,+12V*
X167283600Y-79824200D03*
G04 #@! TO.P,J7,11*
G04 #@! TO.N,/CANH*
X169283600Y-83824200D03*
G04 #@! TO.P,J7,35*
G04 #@! TO.N,/CANL*
X173283600Y-75824200D03*
G04 #@! TO.P,J7,23*
G04 #@! TO.N,GND*
X171283600Y-79824200D03*
G04 #@! TO.P,J7,12*
G04 #@! TO.N,/CANL*
X173283600Y-83824200D03*
G04 #@! TD*
D14*
G04 #@! TO.P,J1,5*
G04 #@! TO.N,/MOSI_DUX*
X192760600Y-84937600D03*
G04 #@! TO.P,J1,3*
G04 #@! TO.N,/5V_DUX*
X192760600Y-87477600D03*
G04 #@! TO.P,J1,1*
G04 #@! TO.N,GND*
X192760600Y-90017600D03*
G04 #@! TO.P,J1,7*
G04 #@! TO.N,/RESET_DUX*
X192760600Y-82397600D03*
G04 #@! TO.P,J1,2*
G04 #@! TO.N,+12V*
X190220600Y-88747600D03*
G04 #@! TO.P,J1,4*
G04 #@! TO.N,/MISO_DUX*
X190220600Y-86207600D03*
G04 #@! TO.P,J1,6*
G04 #@! TO.N,/SCK_DUX*
X190220600Y-83667600D03*
G04 #@! TO.P,J1,8*
G04 #@! TO.N,/CANH*
X190220600Y-81127600D03*
G04 #@! TO.P,J1,9*
G04 #@! TO.N,/CANL*
X192760600Y-79857600D03*
G04 #@! TO.P,J1,10*
G04 #@! TO.N,/START_BTN*
X190220600Y-78587600D03*
G04 #@! TO.P,J1,11*
G04 #@! TO.N,/START_LED*
X192760600Y-77317600D03*
G04 #@! TO.P,J1,12*
G04 #@! TO.N,/BMS_LED*
X190220600Y-76047600D03*
G04 #@! TO.P,J1,13*
G04 #@! TO.N,/IMD_LED*
X192760600Y-74777600D03*
G04 #@! TO.P,J1,14*
G04 #@! TO.N,GND*
X190220600Y-73507600D03*
G04 #@! TO.P,J1,15*
G04 #@! TO.N,/RTD_LSD*
X192760600Y-72237600D03*
G04 #@! TO.P,J1,16*
G04 #@! TO.N,/RJ45_LED_O_DUX*
X190220600Y-70967600D03*
G04 #@! TO.P,J1,17*
G04 #@! TO.N,/RJ45_LED_G_DUX*
X192760600Y-69697600D03*
G04 #@! TO.P,J1,18*
G04 #@! TO.N,/STEERING_POT_+*
X190220600Y-68427600D03*
G04 #@! TO.P,J1,19*
G04 #@! TO.N,/STEERING_POT_SENSE*
X192760600Y-67157600D03*
G04 #@! TO.P,J1,20*
G04 #@! TO.N,/STEERING_POT_-*
X190220600Y-65887600D03*
D13*
G04 #@! TO.P,J1,21*
G04 #@! TO.N,N/C*
X190960600Y-91417600D03*
G04 #@! TD*
G04 #@! TO.P,J2,21*
G04 #@! TO.N,N/C*
X111941200Y-91671600D03*
D14*
G04 #@! TO.P,J2,20*
G04 #@! TO.N,/DRIVE_MODE_-*
X111201200Y-66141600D03*
G04 #@! TO.P,J2,19*
G04 #@! TO.N,/DRIVE_MODE_SENSE*
X113741200Y-67411600D03*
G04 #@! TO.P,J2,18*
G04 #@! TO.N,/DRIVE_MODE_+*
X111201200Y-68681600D03*
G04 #@! TO.P,J2,17*
G04 #@! TO.N,/RJ45_LED_G_THROTTLE*
X113741200Y-69951600D03*
G04 #@! TO.P,J2,16*
G04 #@! TO.N,/RJ45_LED_O_THROTTLE*
X111201200Y-71221600D03*
G04 #@! TO.P,J2,15*
G04 #@! TO.N,/THROTTLE_POT_2_-*
X113741200Y-72491600D03*
G04 #@! TO.P,J2,14*
G04 #@! TO.N,/THROTTLE_POT_2_SENSE*
X111201200Y-73761600D03*
G04 #@! TO.P,J2,13*
G04 #@! TO.N,/THROTTLE_POT_2_+*
X113741200Y-75031600D03*
G04 #@! TO.P,J2,12*
G04 #@! TO.N,/THROTTLE_POT_1_-*
X111201200Y-76301600D03*
G04 #@! TO.P,J2,11*
G04 #@! TO.N,/THROTTLE_POT_1_SENSE*
X113741200Y-77571600D03*
G04 #@! TO.P,J2,10*
G04 #@! TO.N,/THROTTLE_POT_1_+*
X111201200Y-78841600D03*
G04 #@! TO.P,J2,9*
G04 #@! TO.N,/CANL*
X113741200Y-80111600D03*
G04 #@! TO.P,J2,8*
G04 #@! TO.N,/CANH*
X111201200Y-81381600D03*
G04 #@! TO.P,J2,6*
G04 #@! TO.N,/SCK_THROTTLE*
X111201200Y-83921600D03*
G04 #@! TO.P,J2,4*
G04 #@! TO.N,/MISO_THROTTLE*
X111201200Y-86461600D03*
G04 #@! TO.P,J2,2*
G04 #@! TO.N,+12V*
X111201200Y-89001600D03*
G04 #@! TO.P,J2,7*
G04 #@! TO.N,/RESET_THROTTLE*
X113741200Y-82651600D03*
G04 #@! TO.P,J2,1*
G04 #@! TO.N,GND*
X113741200Y-90271600D03*
G04 #@! TO.P,J2,3*
G04 #@! TO.N,/5V_THROTTLE*
X113741200Y-87731600D03*
G04 #@! TO.P,J2,5*
G04 #@! TO.N,/MOSI_THROTTLE*
X113741200Y-85191600D03*
G04 #@! TD*
D13*
G04 #@! TO.P,J4,11*
G04 #@! TO.N,N/C*
X224132600Y-91563600D03*
D14*
G04 #@! TO.P,J4,10*
G04 #@! TO.N,GND*
X211302600Y-92303600D03*
G04 #@! TO.P,J4,9*
X212572600Y-89763600D03*
G04 #@! TO.P,J4,8*
X213842600Y-92303600D03*
G04 #@! TO.P,J4,6*
X216382600Y-92303600D03*
G04 #@! TO.P,J4,4*
G04 #@! TO.N,/5V_STEERING*
X218922600Y-92303600D03*
G04 #@! TO.P,J4,2*
G04 #@! TO.N,/HV_LED*
X221462600Y-92303600D03*
G04 #@! TO.P,J4,7*
G04 #@! TO.N,GND*
X215112600Y-89763600D03*
G04 #@! TO.P,J4,1*
G04 #@! TO.N,/LV_LED*
X222732600Y-89763600D03*
G04 #@! TO.P,J4,3*
G04 #@! TO.N,/BRAKE_LED*
X220192600Y-89763600D03*
G04 #@! TO.P,J4,5*
G04 #@! TO.N,GND*
X217652600Y-89763600D03*
G04 #@! TD*
D12*
G04 #@! TO.P,J6,1*
G04 #@! TO.N,GND*
X146177000Y-90652600D03*
D10*
G04 #@! TD*
G04 #@! TO.N,GND*
G04 #@! TO.C,J6*
G36*
X145331804Y-90003827D02*
X145346030Y-89956929D01*
X145369133Y-89913707D01*
X145400223Y-89875823D01*
X145438107Y-89844733D01*
X145481329Y-89821630D01*
X145528227Y-89807404D01*
X145577000Y-89802600D01*
X146777000Y-89802600D01*
X146825773Y-89807404D01*
X146872671Y-89821630D01*
X146915893Y-89844733D01*
X146953777Y-89875823D01*
X146984867Y-89913707D01*
X147007970Y-89956929D01*
X147022196Y-90003827D01*
X147027000Y-90052600D01*
X147027000Y-90852600D01*
X147022196Y-90901373D01*
X147007970Y-90948271D01*
X146984867Y-90991493D01*
X146953777Y-91029377D01*
X146553777Y-91429377D01*
X146515893Y-91460467D01*
X146472671Y-91483570D01*
X146425773Y-91497796D01*
X146377000Y-91502600D01*
X145577000Y-91502600D01*
X145528227Y-91497796D01*
X145481329Y-91483570D01*
X145438107Y-91460467D01*
X145400223Y-91429377D01*
X145369133Y-91391493D01*
X145346030Y-91348271D01*
X145331804Y-91301373D01*
X145327000Y-91252600D01*
X145327000Y-90052600D01*
X145331804Y-90003827D01*
X145331804Y-90003827D01*
G37*
D11*
G04 #@! TO.P,J6,2*
G04 #@! TO.N,/5V_STEERING*
X148677000Y-90652600D03*
G04 #@! TO.P,J6,3*
G04 #@! TO.N,/CANH*
X146177000Y-88152600D03*
G04 #@! TO.P,J6,4*
G04 #@! TO.N,/CANL*
X148677000Y-88152600D03*
G04 #@! TD*
D10*
G04 #@! TO.N,/BOTS>ESTOP*
G04 #@! TO.C,J8*
G36*
X156861504Y-87694004D02*
X156885773Y-87697604D01*
X156909571Y-87703565D01*
X156932671Y-87711830D01*
X156954849Y-87722320D01*
X156975893Y-87734933D01*
X156995598Y-87749547D01*
X157013777Y-87766023D01*
X157030253Y-87784202D01*
X157044867Y-87803907D01*
X157057480Y-87824951D01*
X157067970Y-87847129D01*
X157076235Y-87870229D01*
X157082196Y-87894027D01*
X157085796Y-87918296D01*
X157087000Y-87942800D01*
X157087000Y-88942800D01*
X157085796Y-88967304D01*
X157082196Y-88991573D01*
X157076235Y-89015371D01*
X157067970Y-89038471D01*
X157057480Y-89060649D01*
X157044867Y-89081693D01*
X157030253Y-89101398D01*
X157013777Y-89119577D01*
X156995598Y-89136053D01*
X156975893Y-89150667D01*
X156954849Y-89163280D01*
X156932671Y-89173770D01*
X156909571Y-89182035D01*
X156885773Y-89187996D01*
X156861504Y-89191596D01*
X156837000Y-89192800D01*
X155837000Y-89192800D01*
X155812496Y-89191596D01*
X155788227Y-89187996D01*
X155764429Y-89182035D01*
X155741329Y-89173770D01*
X155719151Y-89163280D01*
X155698107Y-89150667D01*
X155678402Y-89136053D01*
X155660223Y-89119577D01*
X155643747Y-89101398D01*
X155629133Y-89081693D01*
X155616520Y-89060649D01*
X155606030Y-89038471D01*
X155597765Y-89015371D01*
X155591804Y-88991573D01*
X155588204Y-88967304D01*
X155587000Y-88942800D01*
X155587000Y-87942800D01*
X155588204Y-87918296D01*
X155591804Y-87894027D01*
X155597765Y-87870229D01*
X155606030Y-87847129D01*
X155616520Y-87824951D01*
X155629133Y-87803907D01*
X155643747Y-87784202D01*
X155660223Y-87766023D01*
X155678402Y-87749547D01*
X155698107Y-87734933D01*
X155719151Y-87722320D01*
X155741329Y-87711830D01*
X155764429Y-87703565D01*
X155788227Y-87697604D01*
X155812496Y-87694004D01*
X155837000Y-87692800D01*
X156837000Y-87692800D01*
X156861504Y-87694004D01*
X156861504Y-87694004D01*
G37*
D15*
G04 #@! TD*
G04 #@! TO.P,J8,1*
G04 #@! TO.N,/BOTS>ESTOP*
X156337000Y-88442800D03*
G04 #@! TO.P,J8,2*
G04 #@! TO.N,/ESTOP>HVD*
X156337000Y-91442800D03*
G04 #@! TD*
D16*
G04 #@! TO.P,U5,14*
G04 #@! TO.N,Net-(U5-Pad14)*
X213823400Y-77368400D03*
G04 #@! TO.P,U5,13*
G04 #@! TO.N,Net-(U5-Pad13)*
X199923400Y-77368400D03*
D15*
G04 #@! TO.P,U5,8*
G04 #@! TO.N,GND*
X211313400Y-81788400D03*
G04 #@! TO.P,U5,6*
G04 #@! TO.N,/MOSI_DUX*
X208773400Y-81788400D03*
G04 #@! TO.P,U5,4*
G04 #@! TO.N,/SCK_DUX*
X206233400Y-81788400D03*
G04 #@! TO.P,U5,2*
G04 #@! TO.N,/CANL*
X203693400Y-81788400D03*
G04 #@! TO.P,U5,7*
G04 #@! TO.N,/5V_DUX*
X210043400Y-79248400D03*
G04 #@! TO.P,U5,5*
G04 #@! TO.N,/MISO_DUX*
X207503400Y-79248400D03*
G04 #@! TO.P,U5,3*
G04 #@! TO.N,/RESET_DUX*
X204963400Y-79248400D03*
G04 #@! TO.P,U5,1*
G04 #@! TO.N,/CANH*
X202423400Y-79248400D03*
G04 #@! TO.P,U5,10*
G04 #@! TO.N,/RJ45_LED_O_DUX*
X210883400Y-72618400D03*
G04 #@! TO.P,U5,9*
G04 #@! TO.N,Net-(U5-Pad9)*
X213423400Y-72618400D03*
G04 #@! TO.P,U5,11*
G04 #@! TO.N,Net-(U5-Pad11)*
X202863400Y-72618400D03*
G04 #@! TO.P,U5,12*
G04 #@! TO.N,/RJ45_LED_G_DUX*
X200323400Y-72618400D03*
G04 #@! TD*
D18*
G04 #@! TO.P,R1 (DNP),1*
G04 #@! TO.N,/CANL*
X178206400Y-76631800D03*
G04 #@! TO.P,R1 (DNP),2*
G04 #@! TO.N,/CANH*
X178206400Y-74731800D03*
G04 #@! TD*
D19*
G04 #@! TO.N,GND*
X145643600Y-92557600D03*
G04 #@! TO.N,/STEERING_POT_+*
X147497800Y-72644000D03*
G04 #@! TO.N,/STEERING_POT_SENSE*
X148666200Y-73025000D03*
G04 #@! TO.N,/STEERING_POT_-*
X150952200Y-73380600D03*
G04 #@! TO.N,/5V_LED_BARS*
X150291800Y-93903800D03*
X152755600Y-93776800D03*
G04 #@! TO.N,/SPEED_LED_BAR*
X163652200Y-93421200D03*
X166801800Y-93370400D03*
X151841200Y-93040200D03*
X149402800Y-93268800D03*
G04 #@! TO.N,/ESTOP>HVD*
X135458200Y-93634000D03*
X140442469Y-92547289D03*
X142581362Y-92182655D03*
X143567146Y-91255854D03*
G04 #@! TO.N,/BOTS>ESTOP*
X136550400Y-93878401D03*
X140614400Y-93532400D03*
X141874254Y-91475546D03*
X142830546Y-90519254D03*
X144076028Y-87432310D03*
X143840201Y-85661589D03*
G04 #@! TO.N,/IS>BOTS*
X143078200Y-87366400D03*
G04 #@! TD*
D20*
G04 #@! TO.N,/MOSI_DUX*
X208773400Y-81788400D02*
X206809383Y-83752417D01*
X204258183Y-83752417D02*
X204258181Y-83752419D01*
X193945781Y-83752419D02*
X192760600Y-84937600D01*
X206809383Y-83752417D02*
X204258183Y-83752417D01*
X204258181Y-83752419D02*
X193945781Y-83752419D01*
D21*
G04 #@! TO.N,/5V_DUX*
X193028393Y-86610809D02*
X193017791Y-86610809D01*
X210043400Y-79248400D02*
X210043400Y-80309060D01*
X193017791Y-86610809D02*
X192760600Y-86868000D01*
X192760600Y-86868000D02*
X192760600Y-87477600D01*
X195131163Y-84508039D02*
X193028393Y-86610809D01*
X208142764Y-84508039D02*
X195131163Y-84508039D01*
X210202811Y-82447992D02*
X208142764Y-84508039D01*
X210202811Y-80468471D02*
X210202811Y-82447992D01*
X210043400Y-80309060D02*
X210202811Y-80468471D01*
G04 #@! TO.N,GND*
X137007600Y-90652600D02*
X139507600Y-90652600D01*
X163957000Y-90398600D02*
X166457000Y-90398600D01*
X146177000Y-90652600D02*
X146177000Y-92024200D01*
X146177000Y-92024200D02*
X145643600Y-92557600D01*
D20*
G04 #@! TO.N,/RESET_DUX*
X204963400Y-79248400D02*
X204963400Y-82037178D01*
X203952979Y-83047599D02*
X193410599Y-83047599D01*
X204963400Y-82037178D02*
X203952979Y-83047599D01*
X193410599Y-83047599D02*
X192760600Y-82397600D01*
D22*
G04 #@! TO.N,+12V*
X167283600Y-79824200D02*
X168783599Y-81324199D01*
X189570601Y-88097601D02*
X190220600Y-88747600D01*
X168783599Y-81324199D02*
X169703717Y-81324199D01*
X169703717Y-81324199D02*
X170446918Y-82067400D01*
X170446918Y-82067400D02*
X171960518Y-82067400D01*
X171960518Y-82067400D02*
X172284719Y-81743199D01*
X172284719Y-81743199D02*
X183216199Y-81743199D01*
X183216199Y-81743199D02*
X189570601Y-88097601D01*
X163283600Y-79824200D02*
X167283600Y-79824200D01*
X129844800Y-89001600D02*
X111201200Y-89001600D01*
X131191000Y-89001600D02*
X129844800Y-89001600D01*
X133283600Y-83824200D02*
X133283600Y-86909000D01*
X133283600Y-86909000D02*
X131191000Y-89001600D01*
D20*
G04 #@! TO.N,/MISO_DUX*
X204404154Y-84104829D02*
X194964149Y-84104829D01*
X207503400Y-79248400D02*
X207752178Y-79248400D01*
X194964149Y-84104829D02*
X192861378Y-86207600D01*
X192861378Y-86207600D02*
X191139838Y-86207600D01*
X204404156Y-84104827D02*
X204404154Y-84104829D01*
X207975751Y-84104827D02*
X204404156Y-84104827D01*
X209799601Y-82280977D02*
X207975751Y-84104827D01*
X209799601Y-81295823D02*
X209799601Y-82280977D01*
X191139838Y-86207600D02*
X190220600Y-86207600D01*
X207752178Y-79248400D02*
X209799601Y-81295823D01*
G04 #@! TO.N,/SCK_DUX*
X206233400Y-81788400D02*
X204621792Y-83400008D01*
X204621792Y-83400008D02*
X204098952Y-83400009D01*
X204098952Y-83400009D02*
X191407429Y-83400009D01*
X191407429Y-83400009D02*
X191139838Y-83667600D01*
X191139838Y-83667600D02*
X190220600Y-83667600D01*
G04 #@! TO.N,/CANH*
X111201200Y-81381600D02*
X129726200Y-81381600D01*
X129726200Y-81381600D02*
X131283600Y-79824200D01*
X110029010Y-79752210D02*
X110551201Y-80274401D01*
X110551201Y-80274401D02*
X110551201Y-80731601D01*
X103102390Y-79759550D02*
X103102390Y-79752210D01*
X103102390Y-79752210D02*
X110029010Y-79752210D01*
X101982800Y-80879140D02*
X103102390Y-79759550D01*
X101982800Y-81939800D02*
X101982800Y-80879140D01*
X110551201Y-80731601D02*
X111201200Y-81381600D01*
X195760200Y-81432400D02*
X200239400Y-81432400D01*
X200239400Y-81432400D02*
X202423400Y-79248400D01*
X195756610Y-81435990D02*
X195760200Y-81432400D01*
X193252019Y-78931399D02*
X195756610Y-81435990D01*
X186350182Y-81686400D02*
X188742562Y-81686400D01*
X180135572Y-75471790D02*
X186350182Y-81686400D01*
X176893990Y-75471790D02*
X180135572Y-75471790D01*
X175470199Y-74047999D02*
X176893990Y-75471790D01*
X171059801Y-74047999D02*
X175470199Y-74047999D01*
X169283600Y-75824200D02*
X171059801Y-74047999D01*
X189301362Y-81127600D02*
X190220600Y-81127600D01*
X188742562Y-81686400D02*
X189301362Y-81127600D01*
X153283600Y-75824200D02*
X155059801Y-74047999D01*
X155059801Y-74047999D02*
X167507399Y-74047999D01*
X167783601Y-74324201D02*
X169283600Y-75824200D01*
X167507399Y-74047999D02*
X167783601Y-74324201D01*
X153283600Y-75824200D02*
X151507399Y-77600401D01*
X151507399Y-77600401D02*
X133507399Y-77600401D01*
X133507399Y-77600401D02*
X132783599Y-78324201D01*
X132783599Y-78324201D02*
X131283600Y-79824200D01*
X190870599Y-80477601D02*
X190870599Y-80376823D01*
X190220600Y-81127600D02*
X190870599Y-80477601D01*
X190870599Y-80376823D02*
X192316023Y-78931399D01*
X192316023Y-78931399D02*
X193252019Y-78931399D01*
X176893990Y-75471790D02*
X177166410Y-75471790D01*
X177906400Y-74731800D02*
X178206400Y-74731800D01*
X177166410Y-75471790D02*
X177906400Y-74731800D01*
X144714600Y-86690200D02*
X146177000Y-88152600D01*
X141106617Y-86690200D02*
X144714600Y-86690200D01*
X139141200Y-82946784D02*
X139141200Y-84724783D01*
X137877627Y-81683211D02*
X139141200Y-82946784D01*
X133142610Y-81683210D02*
X137877627Y-81683211D01*
X139141200Y-84724783D02*
X141106617Y-86690200D01*
X131283600Y-79824200D02*
X133142610Y-81683210D01*
G04 #@! TO.N,/CANL*
X155783601Y-77324199D02*
X157283600Y-75824200D01*
X100712800Y-79399800D02*
X110388622Y-79399800D01*
X157283600Y-75824200D02*
X159507399Y-78047999D01*
X159507399Y-78047999D02*
X171059801Y-78047999D01*
X171059801Y-78047999D02*
X171783601Y-77324199D01*
X171783601Y-77324199D02*
X173283600Y-75824200D01*
X135283600Y-79824200D02*
X137154989Y-77952811D01*
X137154989Y-77952811D02*
X155154989Y-77952811D01*
X155154989Y-77952811D02*
X155783601Y-77324199D01*
X112821962Y-80111600D02*
X113741200Y-80111600D01*
X111100422Y-80111600D02*
X112821962Y-80111600D01*
X190068200Y-82053801D02*
X191483637Y-82053801D01*
X186219201Y-82053801D02*
X190068200Y-82053801D01*
X189776023Y-82053801D02*
X190068200Y-82053801D01*
X179989600Y-75824200D02*
X186219201Y-82053801D01*
X110388622Y-79399800D02*
X111100422Y-80111600D01*
X135283600Y-79824200D02*
X135283600Y-81207000D01*
X192760600Y-79857600D02*
X193679838Y-79857600D01*
X193679838Y-79857600D02*
X195610638Y-81788400D01*
X195610638Y-81788400D02*
X202632740Y-81788400D01*
X202632740Y-81788400D02*
X203693400Y-81788400D01*
X191483637Y-82053801D02*
X192760600Y-80776838D01*
X192760600Y-80776838D02*
X192760600Y-79857600D01*
X177114200Y-75824200D02*
X179989600Y-75824200D01*
X177114200Y-75839600D02*
X177906400Y-76631800D01*
X177114200Y-75824200D02*
X177114200Y-75839600D01*
X177906400Y-76631800D02*
X178206400Y-76631800D01*
X173283600Y-75824200D02*
X177114200Y-75824200D01*
X147827001Y-87302601D02*
X148677000Y-88152600D01*
X135283600Y-79824200D02*
X136783599Y-81324199D01*
X141252590Y-86337789D02*
X146862190Y-86337790D01*
X146862190Y-86337790D02*
X147827001Y-87302601D01*
X136783599Y-81324199D02*
X138016999Y-81324199D01*
X139507399Y-84592598D02*
X141252590Y-86337789D01*
X139507399Y-82814599D02*
X139507399Y-84592598D01*
X138016999Y-81324199D02*
X139507399Y-82814599D01*
G04 #@! TO.N,/START_BTN*
X164533600Y-64048000D02*
X166097600Y-62484000D01*
X184388218Y-75844400D02*
X187477400Y-75844400D01*
X187477400Y-75844400D02*
X190220600Y-78587600D01*
X171027818Y-62484000D02*
X184388218Y-75844400D01*
X166097600Y-62484000D02*
X171027818Y-62484000D01*
G04 #@! TO.N,/START_LED*
X163924610Y-62156990D02*
X165926226Y-62156990D01*
X165926226Y-62156990D02*
X165951627Y-62131589D01*
X191841362Y-77317600D02*
X192760600Y-77317600D01*
X190119822Y-77317600D02*
X191841362Y-77317600D01*
X188287832Y-75485610D02*
X190119822Y-77317600D01*
X184559467Y-75485610D02*
X188287832Y-75485610D01*
X171205446Y-62131589D02*
X184559467Y-75485610D01*
X165951627Y-62131589D02*
X171205446Y-62131589D01*
X162033600Y-64048000D02*
X163924610Y-62156990D01*
G04 #@! TO.N,/BMS_LED*
X165803033Y-61781799D02*
X165805655Y-61779179D01*
X165805655Y-61779179D02*
X171351419Y-61779179D01*
X171351419Y-61779179D02*
X184705439Y-75133199D01*
X184705439Y-75133199D02*
X189306200Y-75133200D01*
X189570601Y-75397601D02*
X190220600Y-76047600D01*
X189306200Y-75133200D02*
X189570601Y-75397601D01*
X160339023Y-61781799D02*
X165803033Y-61781799D01*
X159533600Y-64048000D02*
X159533600Y-62587222D01*
X159533600Y-62587222D02*
X160339023Y-61781799D01*
G04 #@! TO.N,/IMD_LED*
X192760600Y-74777600D02*
X184848222Y-74777600D01*
X184848222Y-74777600D02*
X177952400Y-67881778D01*
X177952400Y-67881778D02*
X177837822Y-67767200D01*
X171487822Y-61417200D02*
X177952400Y-67881778D01*
X157033600Y-64048000D02*
X159664400Y-61417200D01*
X159664400Y-61417200D02*
X171487822Y-61417200D01*
G04 #@! TO.N,/RJ45_LED_O_DUX*
X190870599Y-70216823D02*
X190870599Y-70317601D01*
X209512000Y-71247000D02*
X199450382Y-71247000D01*
X192316023Y-68771399D02*
X190870599Y-70216823D01*
X196974782Y-68771399D02*
X192316023Y-68771399D01*
X210883400Y-72618400D02*
X209512000Y-71247000D01*
X190870599Y-70317601D02*
X190220600Y-70967600D01*
X199450382Y-71247000D02*
X196974782Y-68771399D01*
G04 #@! TO.N,/RJ45_LED_G_DUX*
X196828809Y-69123809D02*
X193344800Y-69123809D01*
X192760600Y-69697600D02*
X192771009Y-69697600D01*
X192771009Y-69697600D02*
X193344800Y-69123809D01*
X200323400Y-72618400D02*
X196828809Y-69123809D01*
G04 #@! TO.N,/STEERING_POT_+*
X148310600Y-71831200D02*
X147497800Y-72644000D01*
X158162352Y-55575200D02*
X148310600Y-65426952D01*
X168209707Y-55575200D02*
X158162352Y-55575200D01*
X188116331Y-61142553D02*
X168209707Y-55575200D01*
X191139838Y-68427600D02*
X191483637Y-68083801D01*
X148310600Y-65426952D02*
X148310600Y-71831200D01*
X190220600Y-68427600D02*
X191139838Y-68427600D01*
X193686801Y-66713023D02*
X188116331Y-61142553D01*
X191483637Y-68083801D02*
X193205177Y-68083801D01*
X193205177Y-68083801D02*
X193686801Y-67602177D01*
X193686801Y-67602177D02*
X193686801Y-66713023D01*
G04 #@! TO.N,/STEERING_POT_SENSE*
X158308325Y-55927611D02*
X148666200Y-65569736D01*
X192110601Y-66507601D02*
X192110601Y-66406823D01*
X148666200Y-72459315D02*
X148666200Y-73025000D01*
X148666200Y-65569736D02*
X148666200Y-72459315D01*
X192110601Y-66406823D02*
X186861252Y-61157474D01*
X168161359Y-55927611D02*
X158308325Y-55927611D01*
X186861252Y-61157474D02*
X168161359Y-55927611D01*
X192760600Y-67157600D02*
X192110601Y-66507601D01*
G04 #@! TO.N,/STEERING_POT_-*
X189570601Y-65237601D02*
X190220600Y-65887600D01*
X149072600Y-71501000D02*
X149072600Y-65661720D01*
X150952200Y-73380600D02*
X149072600Y-71501000D01*
X149072600Y-65661720D02*
X158447920Y-56286400D01*
X158447920Y-56286400D02*
X168135817Y-56286400D01*
X168135817Y-56286400D02*
X185466267Y-61133267D01*
X185466267Y-61133267D02*
X189570601Y-65237601D01*
G04 #@! TO.N,/DRIVE_MODE_-*
X133550000Y-64058800D02*
X113284000Y-64058800D01*
X113284000Y-64058800D02*
X111201200Y-66141600D01*
G04 #@! TO.N,/DRIVE_MODE_SENSE*
X117657638Y-64414400D02*
X131851400Y-64414400D01*
X113741200Y-67411600D02*
X114660438Y-67411600D01*
X114660438Y-67411600D02*
X117657638Y-64414400D01*
X131851400Y-64414400D02*
X132622001Y-65185001D01*
X132622001Y-65185001D02*
X134923799Y-65185001D01*
X134923799Y-65185001D02*
X135200001Y-64908799D01*
X135200001Y-64908799D02*
X136050000Y-64058800D01*
G04 #@! TO.N,/DRIVE_MODE_+*
X117803610Y-64766810D02*
X113888820Y-68681600D01*
X113888820Y-68681600D02*
X111201200Y-68681600D01*
X130091232Y-64766810D02*
X117803610Y-64766810D01*
X134090577Y-67685001D02*
X133009423Y-67685001D01*
X134871982Y-66903596D02*
X134090577Y-67685001D01*
X138550000Y-64058800D02*
X137423799Y-65185001D01*
X134871982Y-65735200D02*
X134871982Y-66903596D01*
X135422181Y-65185001D02*
X134871982Y-65735200D01*
X137423799Y-65185001D02*
X135422181Y-65185001D01*
X133009423Y-67685001D02*
X130091232Y-64766810D01*
G04 #@! TO.N,/RJ45_LED_G_THROTTLE*
X112903000Y-69951600D02*
X113741200Y-69951600D01*
X108864400Y-69951600D02*
X112903000Y-69951600D01*
X112821962Y-69951600D02*
X112903000Y-69951600D01*
X108026200Y-70789800D02*
X108864400Y-69951600D01*
X88579189Y-81651611D02*
X99441000Y-70789800D01*
X99441000Y-70789800D02*
X108026200Y-70789800D01*
X88579189Y-87684967D02*
X88579189Y-81651611D01*
X90708622Y-89814400D02*
X88579189Y-87684967D01*
X104082800Y-88569800D02*
X102838200Y-89814400D01*
X102838200Y-89814400D02*
X90708622Y-89814400D01*
G04 #@! TO.N,/RJ45_LED_O_THROTTLE*
X111201200Y-71221600D02*
X99507584Y-71221600D01*
X88931600Y-81797584D02*
X88931600Y-85039260D01*
X92462140Y-88569800D02*
X93522800Y-88569800D01*
X88931600Y-85039260D02*
X92462140Y-88569800D01*
X99507584Y-71221600D02*
X88931600Y-81797584D01*
G04 #@! TO.N,/THROTTLE_POT_2_-*
X114762581Y-73141599D02*
X116830384Y-75209400D01*
X116830384Y-75209400D02*
X121015216Y-75209400D01*
X113741200Y-72491600D02*
X114391199Y-73141599D01*
X114391199Y-73141599D02*
X114762581Y-73141599D01*
X123631416Y-72593200D02*
X146052600Y-72593200D01*
X121015216Y-75209400D02*
X123631416Y-72593200D01*
X146052600Y-72593200D02*
X147783601Y-74324201D01*
X147783601Y-74324201D02*
X149283600Y-75824200D01*
G04 #@! TO.N,/THROTTLE_POT_2_SENSE*
X112120438Y-73761600D02*
X111201200Y-73761600D01*
X142408200Y-72948800D02*
X123774200Y-72948800D01*
X121158000Y-75565000D02*
X116687600Y-75565000D01*
X114884200Y-73761600D02*
X112120438Y-73761600D01*
X116687600Y-75565000D02*
X114884200Y-73761600D01*
X145283600Y-75824200D02*
X142408200Y-72948800D01*
X123774200Y-72948800D02*
X121158000Y-75565000D01*
G04 #@! TO.N,/THROTTLE_POT_2_+*
X123901200Y-73329800D02*
X138789200Y-73329800D01*
X114630200Y-75920600D02*
X121310400Y-75920600D01*
X121310400Y-75920600D02*
X123901200Y-73329800D01*
X138789200Y-73329800D02*
X139783601Y-74324201D01*
X139783601Y-74324201D02*
X141283600Y-75824200D01*
X113741200Y-75031600D02*
X114630200Y-75920600D01*
G04 #@! TO.N,/THROTTLE_POT_1_-*
X137283600Y-75824200D02*
X135154989Y-73695589D01*
X135154989Y-73695589D02*
X124119611Y-73695589D01*
X112120438Y-76301600D02*
X111201200Y-76301600D01*
X124119611Y-73695589D02*
X121513600Y-76301600D01*
X121513600Y-76301600D02*
X112120438Y-76301600D01*
G04 #@! TO.N,/THROTTLE_POT_1_SENSE*
X131507399Y-74047999D02*
X131783601Y-74324201D01*
X119837200Y-78486000D02*
X124275201Y-74047999D01*
X114661980Y-78486000D02*
X119837200Y-78486000D01*
X113741200Y-77571600D02*
X114658790Y-78489190D01*
X124275201Y-74047999D02*
X131507399Y-74047999D01*
X114658790Y-78489190D02*
X114661980Y-78486000D01*
X131783601Y-74324201D02*
X133283600Y-75824200D01*
G04 #@! TO.N,/THROTTLE_POT_1_+*
X129283600Y-75824200D02*
X127881400Y-74422000D01*
X119989600Y-78841600D02*
X111201200Y-78841600D01*
X124409200Y-74422000D02*
X119989600Y-78841600D01*
X127881400Y-74422000D02*
X124409200Y-74422000D01*
G04 #@! TO.N,/SCK_THROTTLE*
X98172800Y-81192639D02*
X98285561Y-81305400D01*
X98281411Y-84305247D02*
X98281411Y-81309550D01*
X99980564Y-86004400D02*
X98281411Y-84305247D01*
X98281411Y-81309550D02*
X98285561Y-81305400D01*
X109753400Y-86004400D02*
X99980564Y-86004400D01*
X110551201Y-85206599D02*
X109753400Y-86004400D01*
X111201200Y-83921600D02*
X110551201Y-84571599D01*
X110551201Y-84571599D02*
X110551201Y-85206599D01*
X98172800Y-79399800D02*
X98172800Y-81192639D01*
G04 #@! TO.N,/MISO_THROTTLE*
X99695000Y-86715600D02*
X110582805Y-86715600D01*
X110582805Y-86715600D02*
X110836805Y-86461600D01*
X110836805Y-86461600D02*
X111201200Y-86461600D01*
X97663000Y-84683600D02*
X99695000Y-86715600D01*
X96902800Y-83919800D02*
X97663000Y-84680000D01*
X97663000Y-84680000D02*
X97663000Y-84683600D01*
X96902800Y-81939800D02*
X96902800Y-83919800D01*
G04 #@! TO.N,/RESET_THROTTLE*
X109601000Y-85648800D02*
X100155800Y-85648800D01*
X100155800Y-85648800D02*
X99669600Y-85162600D01*
X110185200Y-83566822D02*
X110185200Y-85064600D01*
X110185200Y-85064600D02*
X109601000Y-85648800D01*
X99442800Y-84935800D02*
X99669600Y-85162600D01*
X99669600Y-85162600D02*
X99669600Y-85166200D01*
X111100422Y-82651600D02*
X110185200Y-83566822D01*
X113741200Y-82651600D02*
X111100422Y-82651600D01*
X99442800Y-81939800D02*
X99442800Y-84935800D01*
D21*
G04 #@! TO.N,/5V_THROTTLE*
X99527985Y-87118810D02*
X110412448Y-87118810D01*
X110412448Y-87118810D02*
X111025238Y-87731600D01*
X111025238Y-87731600D02*
X112821962Y-87731600D01*
X112821962Y-87731600D02*
X113741200Y-87731600D01*
X94362800Y-81939800D02*
X94362800Y-81953624D01*
X94362800Y-81953624D02*
X99527985Y-87118810D01*
D20*
G04 #@! TO.N,/MOSI_THROTTLE*
X97929001Y-81447223D02*
X97929001Y-84447618D01*
X96631577Y-80149799D02*
X97929001Y-81447223D01*
X95632800Y-79399800D02*
X96382799Y-80149799D01*
X98013791Y-84536009D02*
X97952091Y-84470708D01*
X96382799Y-80149799D02*
X96631577Y-80149799D01*
X97952091Y-84470708D02*
X97950291Y-84472509D01*
X97929001Y-84447618D02*
X97952091Y-84470708D01*
X98348800Y-84871018D02*
X98013791Y-84536009D01*
X99837782Y-86360000D02*
X98348800Y-84871018D01*
X109932022Y-86360000D02*
X99837782Y-86360000D01*
X113741200Y-85191600D02*
X111100422Y-85191600D01*
X111100422Y-85191600D02*
X109932022Y-86360000D01*
D21*
G04 #@! TO.N,/5V_LED_BARS*
X162779990Y-89075610D02*
X163107001Y-88748599D01*
X162779990Y-91237608D02*
X162779990Y-89075610D01*
X199766341Y-93449421D02*
X199766341Y-93451259D01*
X200861362Y-92354400D02*
X199766341Y-93449421D01*
X163107001Y-88748599D02*
X163957000Y-87898600D01*
X201955400Y-92354400D02*
X200861362Y-92354400D01*
X199766341Y-93451259D02*
X198958200Y-94259400D01*
X165801782Y-94259400D02*
X162779990Y-91237608D01*
X198958200Y-94259400D02*
X165801782Y-94259400D01*
X135830590Y-91491608D02*
X138598382Y-94259400D01*
X137007600Y-88152600D02*
X135830590Y-89329610D01*
X135830590Y-89329610D02*
X135830590Y-91491608D01*
X148412200Y-94259400D02*
X148564600Y-94259400D01*
X138598382Y-94259400D02*
X148412200Y-94259400D01*
X153155599Y-94176799D02*
X152755600Y-93776800D01*
X165801782Y-94259400D02*
X153238200Y-94259400D01*
X153238200Y-94259400D02*
X153155599Y-94176799D01*
X150114000Y-93903800D02*
X150291800Y-93903800D01*
X148412200Y-94259400D02*
X149758400Y-94259400D01*
X149758400Y-94259400D02*
X150114000Y-93903800D01*
D20*
G04 #@! TO.N,/SPEED_LED_BAR*
X198765401Y-93004399D02*
X199415400Y-92354400D01*
X197919990Y-93849810D02*
X198765401Y-93004399D01*
X167281210Y-93849810D02*
X197919990Y-93849810D01*
X166801800Y-93370400D02*
X167281210Y-93849810D01*
X163652200Y-93421200D02*
X155524178Y-93421200D01*
X155524178Y-93421200D02*
X153709577Y-91606599D01*
X152709116Y-91606599D02*
X153060400Y-91606599D01*
X151841200Y-92474515D02*
X152709116Y-91606599D01*
X151841200Y-93040200D02*
X151841200Y-92474515D01*
X153709577Y-91606599D02*
X153060400Y-91606599D01*
X153060400Y-91606599D02*
X152964423Y-91606599D01*
X144623800Y-93268800D02*
X144780000Y-93268800D01*
X139507600Y-88152600D02*
X144623800Y-93268800D01*
X144708494Y-93268800D02*
X144780000Y-93268800D01*
X144780000Y-93268800D02*
X149402800Y-93268800D01*
G04 #@! TO.N,/SOC_LED_BAR*
X172055800Y-93497400D02*
X195376800Y-93497400D01*
X200035401Y-89164401D02*
X200685400Y-89814400D01*
X197816621Y-89164401D02*
X200035401Y-89164401D01*
X195376800Y-93497400D02*
X196265800Y-92608400D01*
X196265800Y-92608400D02*
X196265800Y-90715222D01*
X166457000Y-87898600D02*
X172055800Y-93497400D01*
X196265800Y-90715222D02*
X197816621Y-89164401D01*
G04 #@! TO.N,/BRAKE_LED*
X220192600Y-89763600D02*
X220192600Y-88844362D01*
X220967108Y-69964108D02*
X209780690Y-66835564D01*
X168121209Y-55184517D02*
X158054651Y-55184517D01*
X220192600Y-88844362D02*
X222021400Y-87015562D01*
X141899999Y-64908799D02*
X141050000Y-64058800D01*
X222021400Y-71018400D02*
X220967108Y-69964108D01*
X143009423Y-67685001D02*
X142176201Y-66851779D01*
X145497199Y-67685001D02*
X143009423Y-67685001D01*
X158054651Y-55184517D02*
X147176201Y-66062967D01*
X222021400Y-87015562D02*
X222021400Y-71018400D01*
X142176201Y-66851779D02*
X142176201Y-65185001D01*
X142176201Y-65185001D02*
X141899999Y-64908799D01*
X145509423Y-67685001D02*
X145503311Y-67678889D01*
X146590577Y-67685001D02*
X145509423Y-67685001D01*
X145503311Y-67678889D02*
X145497199Y-67685001D01*
X147176201Y-67099377D02*
X146590577Y-67685001D01*
X209780690Y-66835564D02*
X168121209Y-55184517D01*
X147176201Y-66062967D02*
X147176201Y-67099377D01*
G04 #@! TO.N,/LV_LED*
X146897487Y-63211313D02*
X146050000Y-64058800D01*
X222732600Y-89763600D02*
X222732600Y-70695650D01*
X221386476Y-69349526D02*
X168121783Y-54452810D01*
X222732600Y-70695650D02*
X221386476Y-69349526D01*
X149031087Y-63211313D02*
X146897487Y-63211313D01*
X168121783Y-54452810D02*
X157789590Y-54452810D01*
X157789590Y-54452810D02*
X149031087Y-63211313D01*
G04 #@! TO.N,/HV_LED*
X168118217Y-54817746D02*
X221202602Y-69664036D01*
X221462600Y-91384362D02*
X221462600Y-92303600D01*
X143550000Y-64058800D02*
X144923799Y-65432599D01*
X144923799Y-65432599D02*
X147308185Y-65432599D01*
X147308185Y-65432599D02*
X157935563Y-54805221D01*
X157935563Y-54805221D02*
X168073435Y-54805221D01*
X222377000Y-87604600D02*
X221462600Y-88519000D01*
X221202602Y-69664036D02*
X222377000Y-70838434D01*
X222377000Y-70838434D02*
X222377000Y-87604600D01*
X168073435Y-54805221D02*
X168075586Y-54805823D01*
X221462600Y-88519000D02*
X221462600Y-91384362D01*
X168075586Y-54805823D02*
X168118217Y-54817746D01*
D21*
G04 #@! TO.N,/5V_STEERING*
X149526999Y-91502599D02*
X148677000Y-90652600D01*
X149526999Y-91776561D02*
X149526999Y-91502599D01*
X152463848Y-94713410D02*
X149526999Y-91776561D01*
X216512790Y-94713410D02*
X152463848Y-94713410D01*
X218922600Y-92303600D02*
X216512790Y-94713410D01*
G04 #@! TO.N,/5V_CAN_LOGGER*
X84464201Y-92998601D02*
X83631799Y-92166199D01*
X128195275Y-92998601D02*
X84464201Y-92998601D01*
X135783601Y-85410275D02*
X128195275Y-92998601D01*
X83631799Y-92166199D02*
X82981800Y-91516200D01*
X135783601Y-85324199D02*
X135783601Y-85410275D01*
X137283600Y-83824200D02*
X135783601Y-85324199D01*
D22*
G04 #@! TO.N,/ESTOP>HVD*
X157086999Y-90692801D02*
X156337000Y-91442800D01*
X157668010Y-90111790D02*
X157086999Y-90692801D01*
X157668010Y-87598582D02*
X157668010Y-90111790D01*
X155393627Y-85324199D02*
X157668010Y-87598582D01*
X154783599Y-85324199D02*
X155393627Y-85324199D01*
X153283600Y-83824200D02*
X154783599Y-85324199D01*
D20*
X82862828Y-93824410D02*
X133353190Y-93824410D01*
X81711800Y-94056200D02*
X82631038Y-94056200D01*
X82631038Y-94056200D02*
X82862828Y-93824410D01*
X133353190Y-93824410D02*
X135267790Y-93824410D01*
X135267790Y-93824410D02*
X135458200Y-93634000D01*
X140442469Y-92547289D02*
X142216728Y-92547289D01*
X142216728Y-92547289D02*
X142581362Y-92182655D01*
X155587001Y-90692801D02*
X156337000Y-91442800D01*
X154420590Y-89526390D02*
X155587001Y-90692801D01*
X145296610Y-89526390D02*
X154420590Y-89526390D01*
X143567146Y-91255854D02*
X145296610Y-89526390D01*
D22*
G04 #@! TO.N,/BOTS>ESTOP*
X149283600Y-83824200D02*
X151364601Y-85905201D01*
D20*
X92989400Y-94310200D02*
X93141800Y-94310200D01*
X84302601Y-94310199D02*
X93141799Y-94310199D01*
X83235800Y-95377000D02*
X84302601Y-94310199D01*
X93141799Y-94310199D02*
X93141800Y-94310200D01*
X79573362Y-95377000D02*
X83235800Y-95377000D01*
X79171800Y-94056200D02*
X79171800Y-94975438D01*
X79171800Y-94975438D02*
X79573362Y-95377000D01*
D22*
X153902200Y-88442800D02*
X151364601Y-85905201D01*
X156337000Y-88442800D02*
X153902200Y-88442800D01*
D20*
X93141799Y-94310199D02*
X118465602Y-94310200D01*
X118465602Y-94310200D02*
X134239000Y-94310200D01*
X134239000Y-94310200D02*
X136118601Y-94310200D01*
X136118601Y-94310200D02*
X136550400Y-93878401D01*
X139766268Y-93249953D02*
X139766268Y-92222712D01*
X140614400Y-93532400D02*
X140048715Y-93532400D01*
X139766268Y-92222712D02*
X140701380Y-91287600D01*
X140048715Y-93532400D02*
X139766268Y-93249953D01*
X140701380Y-91287600D02*
X141686308Y-91287600D01*
X141686308Y-91287600D02*
X141874254Y-91475546D01*
X142830546Y-90519254D02*
X144076028Y-89273772D01*
X144076028Y-89273772D02*
X144076028Y-87432310D01*
X147446211Y-85661589D02*
X149283600Y-83824200D01*
X143840201Y-85661589D02*
X147446211Y-85661589D01*
D22*
G04 #@! TO.N,/IS>BOTS*
X141283600Y-83824200D02*
X145283600Y-83824200D01*
D20*
X83337777Y-92442401D02*
X84367376Y-93472000D01*
X80441800Y-91516200D02*
X81368001Y-92442401D01*
X81368001Y-92442401D02*
X83337777Y-92442401D01*
X140388178Y-87366400D02*
X143078200Y-87366400D01*
X140048177Y-87026399D02*
X140388178Y-87366400D01*
X136467023Y-87026399D02*
X140048177Y-87026399D01*
X84367376Y-93472000D02*
X130021422Y-93472000D01*
X130021422Y-93472000D02*
X136467023Y-87026399D01*
G04 #@! TD*
M02*
