M48
INCH,TZ
T1C0.0157
T2C0.0315
T3C0.0374
T4C0.0394
T5C0.0472
T6C0.0591
T7C0.0689
T8C0.0858
T9C0.0394
T10C0.0512
T11C0.0787
T12C0.1122
%
G90
G05
T1
X53330Y-36864
X53760Y-36960
X55292Y-36436
X55360Y-36824
X55856Y-36014
X56134Y-36292
X56232Y-35638
X56330Y-34396
X56522Y-35928
X56630Y-33725
X56723Y-34422
X57340Y-36440
X58070Y-28600
X58530Y-28750
X58820Y-36720
X59170Y-36970
X59430Y-28890
X59780Y-36630
X60140Y-36920
X64430Y-36780
X65670Y-36760
T2
X83190Y-36340
X83690Y-35340
X84190Y-36340
X84690Y-35340
X85190Y-36340
X85690Y-35340
X86190Y-36340
X86690Y-35340
X87190Y-36340
X87690Y-35340
X43780Y-26040
X43780Y-27040
X43780Y-28040
X43780Y-29040
X43780Y-30040
X43780Y-31040
X43780Y-32040
X43780Y-33040
X43780Y-34040
X43780Y-35040
X44780Y-26540
X44780Y-27540
X44780Y-28540
X44780Y-29540
X44780Y-30540
X44780Y-31540
X44780Y-32540
X44780Y-33540
X44780Y-34540
X44780Y-35540
X78510Y-36360
X79010Y-35360
X79510Y-36360
X80010Y-35360
X74890Y-25940
X74890Y-26940
X74890Y-27940
X74890Y-28940
X74890Y-29940
X74890Y-30940
X74890Y-31940
X74890Y-32940
X74890Y-33940
X74890Y-34940
X75890Y-26440
X75890Y-27440
X75890Y-28440
X75890Y-29440
X75890Y-30440
X75890Y-31440
X75890Y-32440
X75890Y-33440
X75890Y-34440
X75890Y-35440
X31170Y-37030
X31670Y-36030
X32170Y-37030
X32670Y-36030
T3
X35820Y-34870
X36651Y-31260
X36820Y-34870
X37151Y-32260
X37651Y-31260
X38151Y-32260
X38651Y-31260
X39151Y-32260
X39651Y-31260
X39977Y-34870
X40151Y-32260
X40977Y-34870
X78867Y-28590
X79694Y-31200
X79867Y-28590
X80194Y-32200
X80694Y-31200
X81194Y-32200
X81694Y-31200
X82194Y-32200
X82694Y-31200
X83025Y-28590
X83194Y-32200
X84025Y-28590
T4
X61550Y-34820
X61550Y-36001
T5
X57550Y-34706
X57550Y-35690
X58534Y-34706
X58534Y-35690
X52579Y-25220
X52579Y-26204
X53563Y-25220
X53563Y-26204
X54547Y-25220
X54547Y-26204
X55531Y-25220
X55531Y-26204
X56516Y-25220
X56516Y-26204
X57500Y-25220
X57500Y-26204
X64550Y-34606
X64550Y-35590
X65534Y-34606
X65534Y-35590
X53940Y-34706
X53940Y-35690
X54924Y-34706
X54924Y-35690
X60840Y-25216
X60840Y-26200
X61824Y-25216
X61824Y-26200
X62809Y-25216
X62809Y-26200
X63793Y-25216
X63793Y-26200
X64777Y-25216
X64777Y-26200
T6
X44071Y-36091
X77959Y-35769
X75181Y-35991
X30619Y-36439
X88241Y-36049
T7
X50899Y-29852
X50899Y-33002
X51686Y-31427
X52474Y-29852
X52474Y-33002
X53261Y-31427
X54049Y-29852
X54049Y-33002
X54836Y-31427
X55623Y-29852
X55623Y-33002
X56411Y-31427
X57198Y-29852
X57198Y-33002
X57986Y-31427
X58773Y-29852
X58773Y-33002
X59560Y-31427
X60348Y-29852
X60348Y-33002
X61135Y-31427
X61923Y-29852
X61923Y-33002
X62710Y-31427
X63497Y-29852
X63497Y-33002
X64285Y-31427
X65072Y-29852
X65072Y-33002
X65860Y-31427
X66647Y-29852
X66647Y-33002
X67434Y-31427
X68222Y-29852
X68222Y-33002
T8
X35663Y-33000
X41135Y-33000
X78710Y-30460
X84182Y-30460
T9
X60369Y-36371
X62731Y-36371
T10
X58042Y-36218
X55039Y-24692
X65042Y-36118
X54432Y-36218
X63301Y-24688
T11
X46490Y-28553
X47080Y-35679
X72041Y-35679
X72631Y-28553
T12
X48340Y-31230
X70781Y-31230
T0
M30
