G04 #@! TF.GenerationSoftware,KiCad,Pcbnew,(5.1.10-1-10_14)*
G04 #@! TF.CreationDate,2021-09-30T23:38:58-04:00*
G04 #@! TF.ProjectId,lv_bms_tester_board,6c765f62-6d73-45f7-9465-737465725f62,rev?*
G04 #@! TF.SameCoordinates,Original*
G04 #@! TF.FileFunction,Copper,L1,Top*
G04 #@! TF.FilePolarity,Positive*
%FSLAX46Y46*%
G04 Gerber Fmt 4.6, Leading zero omitted, Abs format (unit mm)*
G04 Created by KiCad (PCBNEW (5.1.10-1-10_14)) date 2021-09-30 23:38:58*
%MOMM*%
%LPD*%
G01*
G04 APERTURE LIST*
G04 #@! TA.AperFunction,SMDPad,CuDef*
%ADD10R,3.000000X4.500000*%
G04 #@! TD*
G04 #@! TA.AperFunction,SMDPad,CuDef*
%ADD11R,0.700000X1.300000*%
G04 #@! TD*
G04 #@! TA.AperFunction,SMDPad,CuDef*
%ADD12C,1.500000*%
G04 #@! TD*
G04 #@! TA.AperFunction,SMDPad,CuDef*
%ADD13R,1.300000X0.700000*%
G04 #@! TD*
G04 #@! TA.AperFunction,SMDPad,CuDef*
%ADD14R,0.900000X0.800000*%
G04 #@! TD*
G04 #@! TA.AperFunction,SMDPad,CuDef*
%ADD15R,1.100000X4.600000*%
G04 #@! TD*
G04 #@! TA.AperFunction,SMDPad,CuDef*
%ADD16R,10.800000X9.400000*%
G04 #@! TD*
G04 #@! TA.AperFunction,ViaPad*
%ADD17C,0.609600*%
G04 #@! TD*
G04 #@! TA.AperFunction,Conductor*
%ADD18C,2.000000*%
G04 #@! TD*
G04 #@! TA.AperFunction,Conductor*
%ADD19C,0.381000*%
G04 #@! TD*
G04 #@! TA.AperFunction,Conductor*
%ADD20C,0.254000*%
G04 #@! TD*
G04 #@! TA.AperFunction,Conductor*
%ADD21C,0.100000*%
G04 #@! TD*
G04 APERTURE END LIST*
D10*
X143510000Y-80264000D03*
X143002000Y-131064000D03*
X149860000Y-106426000D03*
X150368000Y-120396000D03*
D11*
X143952000Y-106680000D03*
X142052000Y-106680000D03*
D12*
X150368000Y-89916000D03*
X150368000Y-125730000D03*
X150368000Y-97986000D03*
D11*
X141986000Y-112776000D03*
X143886000Y-112776000D03*
D13*
X142240000Y-117028000D03*
X142240000Y-115128000D03*
D14*
X144272000Y-109728000D03*
X142272000Y-108678000D03*
X142272000Y-110778000D03*
G04 #@! TA.AperFunction,ComponentPad*
G36*
G01*
X115360000Y-85840000D02*
X115360000Y-84740000D01*
G75*
G02*
X115910000Y-84190000I550000J0D01*
G01*
X117010000Y-84190000D01*
G75*
G02*
X117560000Y-84740000I0J-550000D01*
G01*
X117560000Y-85840000D01*
G75*
G02*
X117010000Y-86390000I-550000J0D01*
G01*
X115910000Y-86390000D01*
G75*
G02*
X115360000Y-85840000I0J550000D01*
G01*
G37*
G04 #@! TD.AperFunction*
G04 #@! TA.AperFunction,ComponentPad*
G36*
G01*
X117900000Y-85840000D02*
X117900000Y-84740000D01*
G75*
G02*
X118450000Y-84190000I550000J0D01*
G01*
X119550000Y-84190000D01*
G75*
G02*
X120100000Y-84740000I0J-550000D01*
G01*
X120100000Y-85840000D01*
G75*
G02*
X119550000Y-86390000I-550000J0D01*
G01*
X118450000Y-86390000D01*
G75*
G02*
X117900000Y-85840000I0J550000D01*
G01*
G37*
G04 #@! TD.AperFunction*
G04 #@! TA.AperFunction,ComponentPad*
G36*
G01*
X120440000Y-85840000D02*
X120440000Y-84740000D01*
G75*
G02*
X120990000Y-84190000I550000J0D01*
G01*
X122090000Y-84190000D01*
G75*
G02*
X122640000Y-84740000I0J-550000D01*
G01*
X122640000Y-85840000D01*
G75*
G02*
X122090000Y-86390000I-550000J0D01*
G01*
X120990000Y-86390000D01*
G75*
G02*
X120440000Y-85840000I0J550000D01*
G01*
G37*
G04 #@! TD.AperFunction*
G04 #@! TA.AperFunction,ComponentPad*
G36*
G01*
X120440000Y-80760000D02*
X120440000Y-79660000D01*
G75*
G02*
X120990000Y-79110000I550000J0D01*
G01*
X122090000Y-79110000D01*
G75*
G02*
X122640000Y-79660000I0J-550000D01*
G01*
X122640000Y-80760000D01*
G75*
G02*
X122090000Y-81310000I-550000J0D01*
G01*
X120990000Y-81310000D01*
G75*
G02*
X120440000Y-80760000I0J550000D01*
G01*
G37*
G04 #@! TD.AperFunction*
G04 #@! TA.AperFunction,ComponentPad*
G36*
G01*
X117900000Y-80760000D02*
X117900000Y-79660000D01*
G75*
G02*
X118450000Y-79110000I550000J0D01*
G01*
X119550000Y-79110000D01*
G75*
G02*
X120100000Y-79660000I0J-550000D01*
G01*
X120100000Y-80760000D01*
G75*
G02*
X119550000Y-81310000I-550000J0D01*
G01*
X118450000Y-81310000D01*
G75*
G02*
X117900000Y-80760000I0J550000D01*
G01*
G37*
G04 #@! TD.AperFunction*
G04 #@! TA.AperFunction,ComponentPad*
G36*
G01*
X115360000Y-80760000D02*
X115360000Y-79660000D01*
G75*
G02*
X115910000Y-79110000I550000J0D01*
G01*
X117010000Y-79110000D01*
G75*
G02*
X117560000Y-79660000I0J-550000D01*
G01*
X117560000Y-80760000D01*
G75*
G02*
X117010000Y-81310000I-550000J0D01*
G01*
X115910000Y-81310000D01*
G75*
G02*
X115360000Y-80760000I0J550000D01*
G01*
G37*
G04 #@! TD.AperFunction*
G04 #@! TA.AperFunction,ComponentPad*
G36*
G01*
X115860000Y-131590000D02*
X115860000Y-130490000D01*
G75*
G02*
X116410000Y-129940000I550000J0D01*
G01*
X117510000Y-129940000D01*
G75*
G02*
X118060000Y-130490000I0J-550000D01*
G01*
X118060000Y-131590000D01*
G75*
G02*
X117510000Y-132140000I-550000J0D01*
G01*
X116410000Y-132140000D01*
G75*
G02*
X115860000Y-131590000I0J550000D01*
G01*
G37*
G04 #@! TD.AperFunction*
G04 #@! TA.AperFunction,ComponentPad*
G36*
G01*
X118400000Y-131590000D02*
X118400000Y-130490000D01*
G75*
G02*
X118950000Y-129940000I550000J0D01*
G01*
X120050000Y-129940000D01*
G75*
G02*
X120600000Y-130490000I0J-550000D01*
G01*
X120600000Y-131590000D01*
G75*
G02*
X120050000Y-132140000I-550000J0D01*
G01*
X118950000Y-132140000D01*
G75*
G02*
X118400000Y-131590000I0J550000D01*
G01*
G37*
G04 #@! TD.AperFunction*
G04 #@! TA.AperFunction,ComponentPad*
G36*
G01*
X120940000Y-131590000D02*
X120940000Y-130490000D01*
G75*
G02*
X121490000Y-129940000I550000J0D01*
G01*
X122590000Y-129940000D01*
G75*
G02*
X123140000Y-130490000I0J-550000D01*
G01*
X123140000Y-131590000D01*
G75*
G02*
X122590000Y-132140000I-550000J0D01*
G01*
X121490000Y-132140000D01*
G75*
G02*
X120940000Y-131590000I0J550000D01*
G01*
G37*
G04 #@! TD.AperFunction*
G04 #@! TA.AperFunction,ComponentPad*
G36*
G01*
X120940000Y-126510000D02*
X120940000Y-125410000D01*
G75*
G02*
X121490000Y-124860000I550000J0D01*
G01*
X122590000Y-124860000D01*
G75*
G02*
X123140000Y-125410000I0J-550000D01*
G01*
X123140000Y-126510000D01*
G75*
G02*
X122590000Y-127060000I-550000J0D01*
G01*
X121490000Y-127060000D01*
G75*
G02*
X120940000Y-126510000I0J550000D01*
G01*
G37*
G04 #@! TD.AperFunction*
G04 #@! TA.AperFunction,ComponentPad*
G36*
G01*
X118400000Y-126510000D02*
X118400000Y-125410000D01*
G75*
G02*
X118950000Y-124860000I550000J0D01*
G01*
X120050000Y-124860000D01*
G75*
G02*
X120600000Y-125410000I0J-550000D01*
G01*
X120600000Y-126510000D01*
G75*
G02*
X120050000Y-127060000I-550000J0D01*
G01*
X118950000Y-127060000D01*
G75*
G02*
X118400000Y-126510000I0J550000D01*
G01*
G37*
G04 #@! TD.AperFunction*
G04 #@! TA.AperFunction,ComponentPad*
G36*
G01*
X115860000Y-126510000D02*
X115860000Y-125410000D01*
G75*
G02*
X116410000Y-124860000I550000J0D01*
G01*
X117510000Y-124860000D01*
G75*
G02*
X118060000Y-125410000I0J-550000D01*
G01*
X118060000Y-126510000D01*
G75*
G02*
X117510000Y-127060000I-550000J0D01*
G01*
X116410000Y-127060000D01*
G75*
G02*
X115860000Y-126510000I0J550000D01*
G01*
G37*
G04 #@! TD.AperFunction*
D15*
X121950000Y-91250000D03*
D16*
X119410000Y-100400000D03*
D15*
X116870000Y-91250000D03*
X119410000Y-91250000D03*
X116935000Y-119975000D03*
D16*
X119475000Y-110825000D03*
D15*
X122015000Y-119975000D03*
X119475000Y-119975000D03*
D17*
X100750000Y-96000000D03*
X105830000Y-98540000D03*
X110910000Y-96000000D03*
X126150000Y-98540000D03*
X131230000Y-96000000D03*
X136310000Y-98540000D03*
X100750000Y-101080000D03*
X105830000Y-103620000D03*
X110910000Y-101080000D03*
X126150000Y-103620000D03*
X131230000Y-101080000D03*
X136310000Y-103620000D03*
X100750000Y-106160000D03*
X105830000Y-108700000D03*
X110910000Y-106160000D03*
X126150000Y-108700000D03*
X131230000Y-106160000D03*
X136310000Y-108700000D03*
X100750000Y-111240000D03*
X105830000Y-113780000D03*
X110910000Y-111240000D03*
X126150000Y-113780000D03*
X131230000Y-111240000D03*
X136310000Y-113780000D03*
X100754000Y-118632000D03*
X105834000Y-121172000D03*
X110914000Y-118632000D03*
X126154000Y-121172000D03*
X131234000Y-118632000D03*
X136314000Y-121172000D03*
X105834000Y-131332000D03*
X110914000Y-128792000D03*
X126154000Y-131332000D03*
X131234000Y-128792000D03*
X136314000Y-131332000D03*
X126154000Y-126252000D03*
X110914000Y-123712000D03*
X100754000Y-123712000D03*
X105834000Y-126252000D03*
X131234000Y-123712000D03*
X136314000Y-126252000D03*
X106850000Y-82818000D03*
X111930000Y-80278000D03*
X127170000Y-82818000D03*
X132250000Y-80278000D03*
X137330000Y-82818000D03*
X106850000Y-92978000D03*
X111930000Y-90438000D03*
X127170000Y-92978000D03*
X132250000Y-90438000D03*
X101770000Y-90438000D03*
X137330000Y-92978000D03*
X127170000Y-87898000D03*
X111930000Y-85358000D03*
X101770000Y-85358000D03*
X106850000Y-87898000D03*
X132250000Y-85358000D03*
X137330000Y-87898000D03*
D18*
X149860000Y-103124000D02*
X149860000Y-106426000D01*
X149860000Y-109982000D02*
X149860000Y-106426000D01*
X147320000Y-106426000D02*
X149860000Y-106426000D01*
X152146000Y-106426000D02*
X149860000Y-106426000D01*
D19*
X142052000Y-108458000D02*
X142272000Y-108678000D01*
X142052000Y-106680000D02*
X142052000Y-108458000D01*
D20*
X142052000Y-106680000D02*
X142052000Y-105222000D01*
X129286000Y-117094000D02*
X129750000Y-116630000D01*
X127250000Y-117606000D02*
X127762000Y-117094000D01*
X127762000Y-117094000D02*
X129286000Y-117094000D01*
X125000000Y-123500000D02*
X127250000Y-121250000D01*
X118007600Y-123500000D02*
X125000000Y-123500000D01*
X127250000Y-121250000D02*
X127250000Y-117606000D01*
X116935000Y-122427400D02*
X118007600Y-123500000D01*
X116935000Y-119975000D02*
X116935000Y-122427400D01*
X141774000Y-117094000D02*
X142038000Y-116830000D01*
X129286000Y-117094000D02*
X141774000Y-117094000D01*
X142240000Y-117028000D02*
X143068000Y-117028000D01*
X142240000Y-117028000D02*
X142814000Y-117028000D01*
X143886000Y-115956000D02*
X143886000Y-112776000D01*
X142814000Y-117028000D02*
X143886000Y-115956000D01*
X150368000Y-89916000D02*
X144526000Y-89916000D01*
X139998000Y-94444000D02*
X129750000Y-94444000D01*
X144526000Y-89916000D02*
X139998000Y-94444000D01*
X129750000Y-116630000D02*
X129750000Y-94444000D01*
X127826000Y-91250000D02*
X121950000Y-91250000D01*
X129750000Y-93174000D02*
X127826000Y-91250000D01*
X129750000Y-94444000D02*
X129750000Y-93174000D01*
D18*
X119410000Y-91250000D02*
X119410000Y-100400000D01*
X119475000Y-119975000D02*
X119475000Y-110825000D01*
D20*
X142240000Y-115128000D02*
X139004000Y-115128000D01*
X150368000Y-97986000D02*
X138234000Y-97986000D01*
D18*
X116960000Y-125960000D02*
X119500000Y-125960000D01*
X119500000Y-125960000D02*
X122040000Y-125960000D01*
X122040000Y-125960000D02*
X122040000Y-131040000D01*
X122040000Y-131040000D02*
X119500000Y-131040000D01*
X119500000Y-131040000D02*
X116960000Y-131040000D01*
X116960000Y-131040000D02*
X116960000Y-125960000D01*
X119500000Y-125960000D02*
X119500000Y-131040000D01*
X125862000Y-131040000D02*
X126154000Y-131332000D01*
X122040000Y-131040000D02*
X125862000Y-131040000D01*
X113162000Y-131040000D02*
X110914000Y-128792000D01*
X116960000Y-131040000D02*
X113162000Y-131040000D01*
X125862000Y-125960000D02*
X126154000Y-126252000D01*
X122040000Y-125960000D02*
X125862000Y-125960000D01*
X113746000Y-125960000D02*
X110914000Y-128792000D01*
X116960000Y-125960000D02*
X113746000Y-125960000D01*
D19*
X139700000Y-131064000D02*
X138684000Y-132080000D01*
X143002000Y-131064000D02*
X139700000Y-131064000D01*
X143002000Y-131064000D02*
X143002000Y-130302000D01*
X143002000Y-130302000D02*
X142494000Y-129794000D01*
X142494000Y-129794000D02*
X139192000Y-129794000D01*
X139192000Y-129794000D02*
X138176000Y-130810000D01*
D18*
X116460000Y-85290000D02*
X121540000Y-85290000D01*
X121540000Y-85290000D02*
X121540000Y-80210000D01*
X121540000Y-80210000D02*
X116460000Y-80210000D01*
X116460000Y-80210000D02*
X116460000Y-85290000D01*
X119000000Y-85290000D02*
X119000000Y-80210000D01*
X111998000Y-80210000D02*
X111930000Y-80278000D01*
X116460000Y-80210000D02*
X111998000Y-80210000D01*
X111998000Y-85290000D02*
X111930000Y-85358000D01*
X116460000Y-85290000D02*
X111998000Y-85290000D01*
X124698000Y-85290000D02*
X127170000Y-82818000D01*
X121540000Y-85290000D02*
X124698000Y-85290000D01*
X124562000Y-80210000D02*
X127170000Y-82818000D01*
X121540000Y-80210000D02*
X124562000Y-80210000D01*
D20*
X143510000Y-80264000D02*
X142748000Y-79502000D01*
D19*
X143510000Y-80264000D02*
X137668000Y-80264000D01*
X137668000Y-80264000D02*
X136398000Y-81534000D01*
X143510000Y-80264000D02*
X143510000Y-79502000D01*
X143510000Y-79502000D02*
X142748000Y-78740000D01*
X142748000Y-78740000D02*
X137414000Y-78740000D01*
X137414000Y-78740000D02*
X137160000Y-78740000D01*
X137160000Y-78740000D02*
X135890000Y-80010000D01*
D20*
X144272000Y-107000000D02*
X143952000Y-106680000D01*
X144272000Y-109728000D02*
X144272000Y-107000000D01*
X150368000Y-115824000D02*
X144272000Y-109728000D01*
X150368000Y-120904000D02*
X150368000Y-115824000D01*
X142038000Y-112828000D02*
X141986000Y-112776000D01*
X141986000Y-111064000D02*
X142272000Y-110778000D01*
X141986000Y-112776000D02*
X141986000Y-111064000D01*
X142272000Y-110778000D02*
X142782000Y-110778000D01*
X142782000Y-110778000D02*
X143510000Y-111506000D01*
X144118922Y-111506000D02*
X146304000Y-113691078D01*
X143510000Y-111506000D02*
X144118922Y-111506000D01*
X146304000Y-121412000D02*
X150368000Y-125476000D01*
X146304000Y-121412000D02*
X146304000Y-113792000D01*
X139573000Y-93853000D02*
X130156400Y-93853000D01*
X130156400Y-93193953D01*
X130158365Y-93174000D01*
X130156400Y-93154047D01*
X130156400Y-93154040D01*
X130150519Y-93094332D01*
X130127281Y-93017725D01*
X130089544Y-92947124D01*
X130068717Y-92921746D01*
X130051482Y-92900745D01*
X130051477Y-92900740D01*
X130038758Y-92885242D01*
X130023260Y-92872523D01*
X128127482Y-90976746D01*
X128114758Y-90961242D01*
X128052876Y-90910456D01*
X127982275Y-90872719D01*
X127905668Y-90849481D01*
X127845960Y-90843600D01*
X127845953Y-90843600D01*
X127826000Y-90841635D01*
X127806047Y-90843600D01*
X122780751Y-90843600D01*
X122780751Y-88950000D01*
X122775356Y-88895228D01*
X122759380Y-88842561D01*
X122733436Y-88794023D01*
X122698521Y-88751479D01*
X122655977Y-88716564D01*
X122607439Y-88690620D01*
X122554772Y-88674644D01*
X122500000Y-88669249D01*
X121400000Y-88669249D01*
X121345228Y-88674644D01*
X121292561Y-88690620D01*
X121244023Y-88716564D01*
X121201479Y-88751479D01*
X121166564Y-88794023D01*
X121140620Y-88842561D01*
X121124644Y-88895228D01*
X121119249Y-88950000D01*
X121119249Y-93550000D01*
X121124644Y-93604772D01*
X121140620Y-93657439D01*
X121166564Y-93705977D01*
X121201479Y-93748521D01*
X121244023Y-93783436D01*
X121292561Y-93809380D01*
X121345228Y-93825356D01*
X121400000Y-93830751D01*
X122500000Y-93830751D01*
X122554772Y-93825356D01*
X122607439Y-93809380D01*
X122655977Y-93783436D01*
X122698521Y-93748521D01*
X122733436Y-93705977D01*
X122759380Y-93657439D01*
X122775356Y-93604772D01*
X122780751Y-93550000D01*
X122780751Y-91656400D01*
X127657664Y-91656400D01*
X129343601Y-93342338D01*
X129343601Y-93853000D01*
X120689400Y-93853000D01*
X120689400Y-91187151D01*
X120670888Y-90999194D01*
X120597730Y-90758026D01*
X120478929Y-90535764D01*
X120319049Y-90340951D01*
X120240751Y-90276693D01*
X120240751Y-88950000D01*
X120235356Y-88895228D01*
X120219380Y-88842561D01*
X120193436Y-88794023D01*
X120158521Y-88751479D01*
X120115977Y-88716564D01*
X120067439Y-88690620D01*
X120014772Y-88674644D01*
X119960000Y-88669249D01*
X118860000Y-88669249D01*
X118805228Y-88674644D01*
X118752561Y-88690620D01*
X118704023Y-88716564D01*
X118661479Y-88751479D01*
X118626564Y-88794023D01*
X118600620Y-88842561D01*
X118584644Y-88895228D01*
X118579249Y-88950000D01*
X118579249Y-90276693D01*
X118500951Y-90340951D01*
X118341071Y-90535765D01*
X118222270Y-90758027D01*
X118149112Y-90999195D01*
X118130600Y-91187152D01*
X118130600Y-93853000D01*
X117978062Y-93853000D01*
X118009502Y-93794180D01*
X118045812Y-93674482D01*
X118058072Y-93550000D01*
X118055000Y-91535750D01*
X117896250Y-91377000D01*
X116997000Y-91377000D01*
X116997000Y-91397000D01*
X116743000Y-91397000D01*
X116743000Y-91377000D01*
X115843750Y-91377000D01*
X115685000Y-91535750D01*
X115681928Y-93550000D01*
X115694188Y-93674482D01*
X115730498Y-93794180D01*
X115761938Y-93853000D01*
X99187000Y-93853000D01*
X99187000Y-88950000D01*
X115681928Y-88950000D01*
X115685000Y-90964250D01*
X115843750Y-91123000D01*
X116743000Y-91123000D01*
X116743000Y-88473750D01*
X116997000Y-88473750D01*
X116997000Y-91123000D01*
X117896250Y-91123000D01*
X118055000Y-90964250D01*
X118058072Y-88950000D01*
X118045812Y-88825518D01*
X118009502Y-88705820D01*
X117950537Y-88595506D01*
X117871185Y-88498815D01*
X117774494Y-88419463D01*
X117664180Y-88360498D01*
X117544482Y-88324188D01*
X117420000Y-88311928D01*
X117155750Y-88315000D01*
X116997000Y-88473750D01*
X116743000Y-88473750D01*
X116584250Y-88315000D01*
X116320000Y-88311928D01*
X116195518Y-88324188D01*
X116075820Y-88360498D01*
X115965506Y-88419463D01*
X115868815Y-88498815D01*
X115789463Y-88595506D01*
X115730498Y-88705820D01*
X115694188Y-88825518D01*
X115681928Y-88950000D01*
X99187000Y-88950000D01*
X99187000Y-86390000D01*
X114721928Y-86390000D01*
X114734188Y-86514482D01*
X114770498Y-86634180D01*
X114829463Y-86744494D01*
X114908815Y-86841185D01*
X115005506Y-86920537D01*
X115115820Y-86979502D01*
X115235518Y-87015812D01*
X115360000Y-87028072D01*
X116174250Y-87025000D01*
X116333000Y-86866250D01*
X116333000Y-85417000D01*
X116587000Y-85417000D01*
X116587000Y-86866250D01*
X116745750Y-87025000D01*
X117560000Y-87028072D01*
X117684482Y-87015812D01*
X117730000Y-87002004D01*
X117775518Y-87015812D01*
X117900000Y-87028072D01*
X118714250Y-87025000D01*
X118873000Y-86866250D01*
X118873000Y-85417000D01*
X119127000Y-85417000D01*
X119127000Y-86866250D01*
X119285750Y-87025000D01*
X120100000Y-87028072D01*
X120224482Y-87015812D01*
X120270000Y-87002004D01*
X120315518Y-87015812D01*
X120440000Y-87028072D01*
X121254250Y-87025000D01*
X121413000Y-86866250D01*
X121413000Y-85417000D01*
X121667000Y-85417000D01*
X121667000Y-86866250D01*
X121825750Y-87025000D01*
X122640000Y-87028072D01*
X122764482Y-87015812D01*
X122884180Y-86979502D01*
X122994494Y-86920537D01*
X123091185Y-86841185D01*
X123170537Y-86744494D01*
X123229502Y-86634180D01*
X123265812Y-86514482D01*
X123278072Y-86390000D01*
X123275000Y-85575750D01*
X123116250Y-85417000D01*
X121667000Y-85417000D01*
X121413000Y-85417000D01*
X119127000Y-85417000D01*
X118873000Y-85417000D01*
X116587000Y-85417000D01*
X116333000Y-85417000D01*
X114883750Y-85417000D01*
X114725000Y-85575750D01*
X114721928Y-86390000D01*
X99187000Y-86390000D01*
X99187000Y-84190000D01*
X114721928Y-84190000D01*
X114725000Y-85004250D01*
X114883750Y-85163000D01*
X116333000Y-85163000D01*
X116333000Y-83713750D01*
X116587000Y-83713750D01*
X116587000Y-85163000D01*
X118873000Y-85163000D01*
X118873000Y-83713750D01*
X119127000Y-83713750D01*
X119127000Y-85163000D01*
X121413000Y-85163000D01*
X121413000Y-83713750D01*
X121667000Y-83713750D01*
X121667000Y-85163000D01*
X123116250Y-85163000D01*
X123275000Y-85004250D01*
X123278072Y-84190000D01*
X123265812Y-84065518D01*
X123229502Y-83945820D01*
X123170537Y-83835506D01*
X123091185Y-83738815D01*
X122994494Y-83659463D01*
X122884180Y-83600498D01*
X122764482Y-83564188D01*
X122640000Y-83551928D01*
X121825750Y-83555000D01*
X121667000Y-83713750D01*
X121413000Y-83713750D01*
X121254250Y-83555000D01*
X120440000Y-83551928D01*
X120315518Y-83564188D01*
X120270000Y-83577996D01*
X120224482Y-83564188D01*
X120100000Y-83551928D01*
X119285750Y-83555000D01*
X119127000Y-83713750D01*
X118873000Y-83713750D01*
X118714250Y-83555000D01*
X117900000Y-83551928D01*
X117775518Y-83564188D01*
X117730000Y-83577996D01*
X117684482Y-83564188D01*
X117560000Y-83551928D01*
X116745750Y-83555000D01*
X116587000Y-83713750D01*
X116333000Y-83713750D01*
X116174250Y-83555000D01*
X115360000Y-83551928D01*
X115235518Y-83564188D01*
X115115820Y-83600498D01*
X115005506Y-83659463D01*
X114908815Y-83738815D01*
X114829463Y-83835506D01*
X114770498Y-83945820D01*
X114734188Y-84065518D01*
X114721928Y-84190000D01*
X99187000Y-84190000D01*
X99187000Y-79874141D01*
X100220600Y-79874141D01*
X100220600Y-80145859D01*
X100273610Y-80412356D01*
X100377592Y-80663391D01*
X100528550Y-80889316D01*
X100720684Y-81081450D01*
X100946609Y-81232408D01*
X101197644Y-81336390D01*
X101464141Y-81389400D01*
X101735859Y-81389400D01*
X102002356Y-81336390D01*
X102066067Y-81310000D01*
X114721928Y-81310000D01*
X114734188Y-81434482D01*
X114770498Y-81554180D01*
X114829463Y-81664494D01*
X114908815Y-81761185D01*
X115005506Y-81840537D01*
X115115820Y-81899502D01*
X115235518Y-81935812D01*
X115360000Y-81948072D01*
X116174250Y-81945000D01*
X116333000Y-81786250D01*
X116333000Y-80337000D01*
X116587000Y-80337000D01*
X116587000Y-81786250D01*
X116745750Y-81945000D01*
X117560000Y-81948072D01*
X117684482Y-81935812D01*
X117730000Y-81922004D01*
X117775518Y-81935812D01*
X117900000Y-81948072D01*
X118714250Y-81945000D01*
X118873000Y-81786250D01*
X118873000Y-80337000D01*
X119127000Y-80337000D01*
X119127000Y-81786250D01*
X119285750Y-81945000D01*
X120100000Y-81948072D01*
X120224482Y-81935812D01*
X120270000Y-81922004D01*
X120315518Y-81935812D01*
X120440000Y-81948072D01*
X121254250Y-81945000D01*
X121413000Y-81786250D01*
X121413000Y-80337000D01*
X121667000Y-80337000D01*
X121667000Y-81786250D01*
X121825750Y-81945000D01*
X122640000Y-81948072D01*
X122764482Y-81935812D01*
X122884180Y-81899502D01*
X122994494Y-81840537D01*
X123091185Y-81761185D01*
X123170537Y-81664494D01*
X123229502Y-81554180D01*
X123265812Y-81434482D01*
X123278072Y-81310000D01*
X123275000Y-80495750D01*
X123116250Y-80337000D01*
X121667000Y-80337000D01*
X121413000Y-80337000D01*
X119127000Y-80337000D01*
X118873000Y-80337000D01*
X116587000Y-80337000D01*
X116333000Y-80337000D01*
X114883750Y-80337000D01*
X114725000Y-80495750D01*
X114721928Y-81310000D01*
X102066067Y-81310000D01*
X102253391Y-81232408D01*
X102479316Y-81081450D01*
X102671450Y-80889316D01*
X102822408Y-80663391D01*
X102926390Y-80412356D01*
X102979400Y-80145859D01*
X102979400Y-79874141D01*
X102926390Y-79607644D01*
X102822408Y-79356609D01*
X102671450Y-79130684D01*
X102650766Y-79110000D01*
X114721928Y-79110000D01*
X114725000Y-79924250D01*
X114883750Y-80083000D01*
X116333000Y-80083000D01*
X116333000Y-78633750D01*
X116587000Y-78633750D01*
X116587000Y-80083000D01*
X118873000Y-80083000D01*
X118873000Y-78633750D01*
X119127000Y-78633750D01*
X119127000Y-80083000D01*
X121413000Y-80083000D01*
X121413000Y-78633750D01*
X121667000Y-78633750D01*
X121667000Y-80083000D01*
X123116250Y-80083000D01*
X123275000Y-79924250D01*
X123278072Y-79110000D01*
X123265812Y-78985518D01*
X123229502Y-78865820D01*
X123170537Y-78755506D01*
X123091185Y-78658815D01*
X122994494Y-78579463D01*
X122884180Y-78520498D01*
X122764482Y-78484188D01*
X122640000Y-78471928D01*
X121825750Y-78475000D01*
X121667000Y-78633750D01*
X121413000Y-78633750D01*
X121254250Y-78475000D01*
X120440000Y-78471928D01*
X120315518Y-78484188D01*
X120270000Y-78497996D01*
X120224482Y-78484188D01*
X120100000Y-78471928D01*
X119285750Y-78475000D01*
X119127000Y-78633750D01*
X118873000Y-78633750D01*
X118714250Y-78475000D01*
X117900000Y-78471928D01*
X117775518Y-78484188D01*
X117730000Y-78497996D01*
X117684482Y-78484188D01*
X117560000Y-78471928D01*
X116745750Y-78475000D01*
X116587000Y-78633750D01*
X116333000Y-78633750D01*
X116174250Y-78475000D01*
X115360000Y-78471928D01*
X115235518Y-78484188D01*
X115115820Y-78520498D01*
X115005506Y-78579463D01*
X114908815Y-78658815D01*
X114829463Y-78755506D01*
X114770498Y-78865820D01*
X114734188Y-78985518D01*
X114721928Y-79110000D01*
X102650766Y-79110000D01*
X102479316Y-78938550D01*
X102253391Y-78787592D01*
X102002356Y-78683610D01*
X101735859Y-78630600D01*
X101464141Y-78630600D01*
X101197644Y-78683610D01*
X100946609Y-78787592D01*
X100720684Y-78938550D01*
X100528550Y-79130684D01*
X100377592Y-79356609D01*
X100273610Y-79607644D01*
X100220600Y-79874141D01*
X99187000Y-79874141D01*
X99187000Y-77597000D01*
X139573000Y-77597000D01*
X139573000Y-93853000D01*
G04 #@! TA.AperFunction,Conductor*
D21*
G36*
X139573000Y-93853000D02*
G01*
X130156400Y-93853000D01*
X130156400Y-93193953D01*
X130158365Y-93174000D01*
X130156400Y-93154047D01*
X130156400Y-93154040D01*
X130150519Y-93094332D01*
X130127281Y-93017725D01*
X130089544Y-92947124D01*
X130068717Y-92921746D01*
X130051482Y-92900745D01*
X130051477Y-92900740D01*
X130038758Y-92885242D01*
X130023260Y-92872523D01*
X128127482Y-90976746D01*
X128114758Y-90961242D01*
X128052876Y-90910456D01*
X127982275Y-90872719D01*
X127905668Y-90849481D01*
X127845960Y-90843600D01*
X127845953Y-90843600D01*
X127826000Y-90841635D01*
X127806047Y-90843600D01*
X122780751Y-90843600D01*
X122780751Y-88950000D01*
X122775356Y-88895228D01*
X122759380Y-88842561D01*
X122733436Y-88794023D01*
X122698521Y-88751479D01*
X122655977Y-88716564D01*
X122607439Y-88690620D01*
X122554772Y-88674644D01*
X122500000Y-88669249D01*
X121400000Y-88669249D01*
X121345228Y-88674644D01*
X121292561Y-88690620D01*
X121244023Y-88716564D01*
X121201479Y-88751479D01*
X121166564Y-88794023D01*
X121140620Y-88842561D01*
X121124644Y-88895228D01*
X121119249Y-88950000D01*
X121119249Y-93550000D01*
X121124644Y-93604772D01*
X121140620Y-93657439D01*
X121166564Y-93705977D01*
X121201479Y-93748521D01*
X121244023Y-93783436D01*
X121292561Y-93809380D01*
X121345228Y-93825356D01*
X121400000Y-93830751D01*
X122500000Y-93830751D01*
X122554772Y-93825356D01*
X122607439Y-93809380D01*
X122655977Y-93783436D01*
X122698521Y-93748521D01*
X122733436Y-93705977D01*
X122759380Y-93657439D01*
X122775356Y-93604772D01*
X122780751Y-93550000D01*
X122780751Y-91656400D01*
X127657664Y-91656400D01*
X129343601Y-93342338D01*
X129343601Y-93853000D01*
X120689400Y-93853000D01*
X120689400Y-91187151D01*
X120670888Y-90999194D01*
X120597730Y-90758026D01*
X120478929Y-90535764D01*
X120319049Y-90340951D01*
X120240751Y-90276693D01*
X120240751Y-88950000D01*
X120235356Y-88895228D01*
X120219380Y-88842561D01*
X120193436Y-88794023D01*
X120158521Y-88751479D01*
X120115977Y-88716564D01*
X120067439Y-88690620D01*
X120014772Y-88674644D01*
X119960000Y-88669249D01*
X118860000Y-88669249D01*
X118805228Y-88674644D01*
X118752561Y-88690620D01*
X118704023Y-88716564D01*
X118661479Y-88751479D01*
X118626564Y-88794023D01*
X118600620Y-88842561D01*
X118584644Y-88895228D01*
X118579249Y-88950000D01*
X118579249Y-90276693D01*
X118500951Y-90340951D01*
X118341071Y-90535765D01*
X118222270Y-90758027D01*
X118149112Y-90999195D01*
X118130600Y-91187152D01*
X118130600Y-93853000D01*
X117978062Y-93853000D01*
X118009502Y-93794180D01*
X118045812Y-93674482D01*
X118058072Y-93550000D01*
X118055000Y-91535750D01*
X117896250Y-91377000D01*
X116997000Y-91377000D01*
X116997000Y-91397000D01*
X116743000Y-91397000D01*
X116743000Y-91377000D01*
X115843750Y-91377000D01*
X115685000Y-91535750D01*
X115681928Y-93550000D01*
X115694188Y-93674482D01*
X115730498Y-93794180D01*
X115761938Y-93853000D01*
X99187000Y-93853000D01*
X99187000Y-88950000D01*
X115681928Y-88950000D01*
X115685000Y-90964250D01*
X115843750Y-91123000D01*
X116743000Y-91123000D01*
X116743000Y-88473750D01*
X116997000Y-88473750D01*
X116997000Y-91123000D01*
X117896250Y-91123000D01*
X118055000Y-90964250D01*
X118058072Y-88950000D01*
X118045812Y-88825518D01*
X118009502Y-88705820D01*
X117950537Y-88595506D01*
X117871185Y-88498815D01*
X117774494Y-88419463D01*
X117664180Y-88360498D01*
X117544482Y-88324188D01*
X117420000Y-88311928D01*
X117155750Y-88315000D01*
X116997000Y-88473750D01*
X116743000Y-88473750D01*
X116584250Y-88315000D01*
X116320000Y-88311928D01*
X116195518Y-88324188D01*
X116075820Y-88360498D01*
X115965506Y-88419463D01*
X115868815Y-88498815D01*
X115789463Y-88595506D01*
X115730498Y-88705820D01*
X115694188Y-88825518D01*
X115681928Y-88950000D01*
X99187000Y-88950000D01*
X99187000Y-86390000D01*
X114721928Y-86390000D01*
X114734188Y-86514482D01*
X114770498Y-86634180D01*
X114829463Y-86744494D01*
X114908815Y-86841185D01*
X115005506Y-86920537D01*
X115115820Y-86979502D01*
X115235518Y-87015812D01*
X115360000Y-87028072D01*
X116174250Y-87025000D01*
X116333000Y-86866250D01*
X116333000Y-85417000D01*
X116587000Y-85417000D01*
X116587000Y-86866250D01*
X116745750Y-87025000D01*
X117560000Y-87028072D01*
X117684482Y-87015812D01*
X117730000Y-87002004D01*
X117775518Y-87015812D01*
X117900000Y-87028072D01*
X118714250Y-87025000D01*
X118873000Y-86866250D01*
X118873000Y-85417000D01*
X119127000Y-85417000D01*
X119127000Y-86866250D01*
X119285750Y-87025000D01*
X120100000Y-87028072D01*
X120224482Y-87015812D01*
X120270000Y-87002004D01*
X120315518Y-87015812D01*
X120440000Y-87028072D01*
X121254250Y-87025000D01*
X121413000Y-86866250D01*
X121413000Y-85417000D01*
X121667000Y-85417000D01*
X121667000Y-86866250D01*
X121825750Y-87025000D01*
X122640000Y-87028072D01*
X122764482Y-87015812D01*
X122884180Y-86979502D01*
X122994494Y-86920537D01*
X123091185Y-86841185D01*
X123170537Y-86744494D01*
X123229502Y-86634180D01*
X123265812Y-86514482D01*
X123278072Y-86390000D01*
X123275000Y-85575750D01*
X123116250Y-85417000D01*
X121667000Y-85417000D01*
X121413000Y-85417000D01*
X119127000Y-85417000D01*
X118873000Y-85417000D01*
X116587000Y-85417000D01*
X116333000Y-85417000D01*
X114883750Y-85417000D01*
X114725000Y-85575750D01*
X114721928Y-86390000D01*
X99187000Y-86390000D01*
X99187000Y-84190000D01*
X114721928Y-84190000D01*
X114725000Y-85004250D01*
X114883750Y-85163000D01*
X116333000Y-85163000D01*
X116333000Y-83713750D01*
X116587000Y-83713750D01*
X116587000Y-85163000D01*
X118873000Y-85163000D01*
X118873000Y-83713750D01*
X119127000Y-83713750D01*
X119127000Y-85163000D01*
X121413000Y-85163000D01*
X121413000Y-83713750D01*
X121667000Y-83713750D01*
X121667000Y-85163000D01*
X123116250Y-85163000D01*
X123275000Y-85004250D01*
X123278072Y-84190000D01*
X123265812Y-84065518D01*
X123229502Y-83945820D01*
X123170537Y-83835506D01*
X123091185Y-83738815D01*
X122994494Y-83659463D01*
X122884180Y-83600498D01*
X122764482Y-83564188D01*
X122640000Y-83551928D01*
X121825750Y-83555000D01*
X121667000Y-83713750D01*
X121413000Y-83713750D01*
X121254250Y-83555000D01*
X120440000Y-83551928D01*
X120315518Y-83564188D01*
X120270000Y-83577996D01*
X120224482Y-83564188D01*
X120100000Y-83551928D01*
X119285750Y-83555000D01*
X119127000Y-83713750D01*
X118873000Y-83713750D01*
X118714250Y-83555000D01*
X117900000Y-83551928D01*
X117775518Y-83564188D01*
X117730000Y-83577996D01*
X117684482Y-83564188D01*
X117560000Y-83551928D01*
X116745750Y-83555000D01*
X116587000Y-83713750D01*
X116333000Y-83713750D01*
X116174250Y-83555000D01*
X115360000Y-83551928D01*
X115235518Y-83564188D01*
X115115820Y-83600498D01*
X115005506Y-83659463D01*
X114908815Y-83738815D01*
X114829463Y-83835506D01*
X114770498Y-83945820D01*
X114734188Y-84065518D01*
X114721928Y-84190000D01*
X99187000Y-84190000D01*
X99187000Y-79874141D01*
X100220600Y-79874141D01*
X100220600Y-80145859D01*
X100273610Y-80412356D01*
X100377592Y-80663391D01*
X100528550Y-80889316D01*
X100720684Y-81081450D01*
X100946609Y-81232408D01*
X101197644Y-81336390D01*
X101464141Y-81389400D01*
X101735859Y-81389400D01*
X102002356Y-81336390D01*
X102066067Y-81310000D01*
X114721928Y-81310000D01*
X114734188Y-81434482D01*
X114770498Y-81554180D01*
X114829463Y-81664494D01*
X114908815Y-81761185D01*
X115005506Y-81840537D01*
X115115820Y-81899502D01*
X115235518Y-81935812D01*
X115360000Y-81948072D01*
X116174250Y-81945000D01*
X116333000Y-81786250D01*
X116333000Y-80337000D01*
X116587000Y-80337000D01*
X116587000Y-81786250D01*
X116745750Y-81945000D01*
X117560000Y-81948072D01*
X117684482Y-81935812D01*
X117730000Y-81922004D01*
X117775518Y-81935812D01*
X117900000Y-81948072D01*
X118714250Y-81945000D01*
X118873000Y-81786250D01*
X118873000Y-80337000D01*
X119127000Y-80337000D01*
X119127000Y-81786250D01*
X119285750Y-81945000D01*
X120100000Y-81948072D01*
X120224482Y-81935812D01*
X120270000Y-81922004D01*
X120315518Y-81935812D01*
X120440000Y-81948072D01*
X121254250Y-81945000D01*
X121413000Y-81786250D01*
X121413000Y-80337000D01*
X121667000Y-80337000D01*
X121667000Y-81786250D01*
X121825750Y-81945000D01*
X122640000Y-81948072D01*
X122764482Y-81935812D01*
X122884180Y-81899502D01*
X122994494Y-81840537D01*
X123091185Y-81761185D01*
X123170537Y-81664494D01*
X123229502Y-81554180D01*
X123265812Y-81434482D01*
X123278072Y-81310000D01*
X123275000Y-80495750D01*
X123116250Y-80337000D01*
X121667000Y-80337000D01*
X121413000Y-80337000D01*
X119127000Y-80337000D01*
X118873000Y-80337000D01*
X116587000Y-80337000D01*
X116333000Y-80337000D01*
X114883750Y-80337000D01*
X114725000Y-80495750D01*
X114721928Y-81310000D01*
X102066067Y-81310000D01*
X102253391Y-81232408D01*
X102479316Y-81081450D01*
X102671450Y-80889316D01*
X102822408Y-80663391D01*
X102926390Y-80412356D01*
X102979400Y-80145859D01*
X102979400Y-79874141D01*
X102926390Y-79607644D01*
X102822408Y-79356609D01*
X102671450Y-79130684D01*
X102650766Y-79110000D01*
X114721928Y-79110000D01*
X114725000Y-79924250D01*
X114883750Y-80083000D01*
X116333000Y-80083000D01*
X116333000Y-78633750D01*
X116587000Y-78633750D01*
X116587000Y-80083000D01*
X118873000Y-80083000D01*
X118873000Y-78633750D01*
X119127000Y-78633750D01*
X119127000Y-80083000D01*
X121413000Y-80083000D01*
X121413000Y-78633750D01*
X121667000Y-78633750D01*
X121667000Y-80083000D01*
X123116250Y-80083000D01*
X123275000Y-79924250D01*
X123278072Y-79110000D01*
X123265812Y-78985518D01*
X123229502Y-78865820D01*
X123170537Y-78755506D01*
X123091185Y-78658815D01*
X122994494Y-78579463D01*
X122884180Y-78520498D01*
X122764482Y-78484188D01*
X122640000Y-78471928D01*
X121825750Y-78475000D01*
X121667000Y-78633750D01*
X121413000Y-78633750D01*
X121254250Y-78475000D01*
X120440000Y-78471928D01*
X120315518Y-78484188D01*
X120270000Y-78497996D01*
X120224482Y-78484188D01*
X120100000Y-78471928D01*
X119285750Y-78475000D01*
X119127000Y-78633750D01*
X118873000Y-78633750D01*
X118714250Y-78475000D01*
X117900000Y-78471928D01*
X117775518Y-78484188D01*
X117730000Y-78497996D01*
X117684482Y-78484188D01*
X117560000Y-78471928D01*
X116745750Y-78475000D01*
X116587000Y-78633750D01*
X116333000Y-78633750D01*
X116174250Y-78475000D01*
X115360000Y-78471928D01*
X115235518Y-78484188D01*
X115115820Y-78520498D01*
X115005506Y-78579463D01*
X114908815Y-78658815D01*
X114829463Y-78755506D01*
X114770498Y-78865820D01*
X114734188Y-78985518D01*
X114721928Y-79110000D01*
X102650766Y-79110000D01*
X102479316Y-78938550D01*
X102253391Y-78787592D01*
X102002356Y-78683610D01*
X101735859Y-78630600D01*
X101464141Y-78630600D01*
X101197644Y-78683610D01*
X100946609Y-78787592D01*
X100720684Y-78938550D01*
X100528550Y-79130684D01*
X100377592Y-79356609D01*
X100273610Y-79607644D01*
X100220600Y-79874141D01*
X99187000Y-79874141D01*
X99187000Y-77597000D01*
X139573000Y-77597000D01*
X139573000Y-93853000D01*
G37*
G04 #@! TD.AperFunction*
D20*
X116186479Y-117476479D02*
X116151564Y-117519023D01*
X116125620Y-117567561D01*
X116109644Y-117620228D01*
X116104249Y-117675000D01*
X116104249Y-122275000D01*
X116109644Y-122329772D01*
X116125620Y-122382439D01*
X116151564Y-122430977D01*
X116186479Y-122473521D01*
X116229023Y-122508436D01*
X116277561Y-122534380D01*
X116330228Y-122550356D01*
X116385000Y-122555751D01*
X116549249Y-122555751D01*
X116557719Y-122583674D01*
X116557720Y-122583675D01*
X116595457Y-122654276D01*
X116612549Y-122675102D01*
X116633518Y-122700654D01*
X116633524Y-122700660D01*
X116646243Y-122716158D01*
X116661741Y-122728877D01*
X117706118Y-123773254D01*
X117718842Y-123788758D01*
X117780724Y-123839544D01*
X117851325Y-123877281D01*
X117904693Y-123893470D01*
X117927931Y-123900519D01*
X117935935Y-123901307D01*
X117987640Y-123906400D01*
X117987646Y-123906400D01*
X118007599Y-123908365D01*
X118027552Y-123906400D01*
X124980047Y-123906400D01*
X125000000Y-123908365D01*
X125019953Y-123906400D01*
X125019960Y-123906400D01*
X125079668Y-123900519D01*
X125156275Y-123877281D01*
X125226876Y-123839544D01*
X125288758Y-123788758D01*
X125301482Y-123773254D01*
X127523261Y-121551476D01*
X127538758Y-121538758D01*
X127551477Y-121523260D01*
X127551482Y-121523255D01*
X127568717Y-121502254D01*
X127589544Y-121476876D01*
X127627281Y-121406275D01*
X127650519Y-121329668D01*
X127656400Y-121269960D01*
X127656400Y-121269953D01*
X127658365Y-121250000D01*
X127656400Y-121230047D01*
X127656400Y-117774336D01*
X127930336Y-117500400D01*
X129266047Y-117500400D01*
X129286000Y-117502365D01*
X129305953Y-117500400D01*
X139573000Y-117500400D01*
X139573000Y-133731000D01*
X99187000Y-133731000D01*
X99187000Y-131182141D01*
X100220600Y-131182141D01*
X100220600Y-131453859D01*
X100273610Y-131720356D01*
X100377592Y-131971391D01*
X100528550Y-132197316D01*
X100720684Y-132389450D01*
X100946609Y-132540408D01*
X101197644Y-132644390D01*
X101464141Y-132697400D01*
X101735859Y-132697400D01*
X102002356Y-132644390D01*
X102253391Y-132540408D01*
X102479316Y-132389450D01*
X102671450Y-132197316D01*
X102709747Y-132140000D01*
X115221928Y-132140000D01*
X115234188Y-132264482D01*
X115270498Y-132384180D01*
X115329463Y-132494494D01*
X115408815Y-132591185D01*
X115505506Y-132670537D01*
X115615820Y-132729502D01*
X115735518Y-132765812D01*
X115860000Y-132778072D01*
X116674250Y-132775000D01*
X116833000Y-132616250D01*
X116833000Y-131167000D01*
X117087000Y-131167000D01*
X117087000Y-132616250D01*
X117245750Y-132775000D01*
X118060000Y-132778072D01*
X118184482Y-132765812D01*
X118230000Y-132752004D01*
X118275518Y-132765812D01*
X118400000Y-132778072D01*
X119214250Y-132775000D01*
X119373000Y-132616250D01*
X119373000Y-131167000D01*
X119627000Y-131167000D01*
X119627000Y-132616250D01*
X119785750Y-132775000D01*
X120600000Y-132778072D01*
X120724482Y-132765812D01*
X120770000Y-132752004D01*
X120815518Y-132765812D01*
X120940000Y-132778072D01*
X121754250Y-132775000D01*
X121913000Y-132616250D01*
X121913000Y-131167000D01*
X122167000Y-131167000D01*
X122167000Y-132616250D01*
X122325750Y-132775000D01*
X123140000Y-132778072D01*
X123264482Y-132765812D01*
X123384180Y-132729502D01*
X123494494Y-132670537D01*
X123591185Y-132591185D01*
X123670537Y-132494494D01*
X123729502Y-132384180D01*
X123765812Y-132264482D01*
X123778072Y-132140000D01*
X123775000Y-131325750D01*
X123616250Y-131167000D01*
X122167000Y-131167000D01*
X121913000Y-131167000D01*
X119627000Y-131167000D01*
X119373000Y-131167000D01*
X117087000Y-131167000D01*
X116833000Y-131167000D01*
X115383750Y-131167000D01*
X115225000Y-131325750D01*
X115221928Y-132140000D01*
X102709747Y-132140000D01*
X102822408Y-131971391D01*
X102926390Y-131720356D01*
X102979400Y-131453859D01*
X102979400Y-131182141D01*
X102926390Y-130915644D01*
X102822408Y-130664609D01*
X102671450Y-130438684D01*
X102479316Y-130246550D01*
X102253391Y-130095592D01*
X102002356Y-129991610D01*
X101742898Y-129940000D01*
X115221928Y-129940000D01*
X115225000Y-130754250D01*
X115383750Y-130913000D01*
X116833000Y-130913000D01*
X116833000Y-129463750D01*
X117087000Y-129463750D01*
X117087000Y-130913000D01*
X119373000Y-130913000D01*
X119373000Y-129463750D01*
X119627000Y-129463750D01*
X119627000Y-130913000D01*
X121913000Y-130913000D01*
X121913000Y-129463750D01*
X122167000Y-129463750D01*
X122167000Y-130913000D01*
X123616250Y-130913000D01*
X123775000Y-130754250D01*
X123778072Y-129940000D01*
X123765812Y-129815518D01*
X123729502Y-129695820D01*
X123670537Y-129585506D01*
X123591185Y-129488815D01*
X123494494Y-129409463D01*
X123384180Y-129350498D01*
X123264482Y-129314188D01*
X123140000Y-129301928D01*
X122325750Y-129305000D01*
X122167000Y-129463750D01*
X121913000Y-129463750D01*
X121754250Y-129305000D01*
X120940000Y-129301928D01*
X120815518Y-129314188D01*
X120770000Y-129327996D01*
X120724482Y-129314188D01*
X120600000Y-129301928D01*
X119785750Y-129305000D01*
X119627000Y-129463750D01*
X119373000Y-129463750D01*
X119214250Y-129305000D01*
X118400000Y-129301928D01*
X118275518Y-129314188D01*
X118230000Y-129327996D01*
X118184482Y-129314188D01*
X118060000Y-129301928D01*
X117245750Y-129305000D01*
X117087000Y-129463750D01*
X116833000Y-129463750D01*
X116674250Y-129305000D01*
X115860000Y-129301928D01*
X115735518Y-129314188D01*
X115615820Y-129350498D01*
X115505506Y-129409463D01*
X115408815Y-129488815D01*
X115329463Y-129585506D01*
X115270498Y-129695820D01*
X115234188Y-129815518D01*
X115221928Y-129940000D01*
X101742898Y-129940000D01*
X101735859Y-129938600D01*
X101464141Y-129938600D01*
X101197644Y-129991610D01*
X100946609Y-130095592D01*
X100720684Y-130246550D01*
X100528550Y-130438684D01*
X100377592Y-130664609D01*
X100273610Y-130915644D01*
X100220600Y-131182141D01*
X99187000Y-131182141D01*
X99187000Y-127060000D01*
X115221928Y-127060000D01*
X115234188Y-127184482D01*
X115270498Y-127304180D01*
X115329463Y-127414494D01*
X115408815Y-127511185D01*
X115505506Y-127590537D01*
X115615820Y-127649502D01*
X115735518Y-127685812D01*
X115860000Y-127698072D01*
X116674250Y-127695000D01*
X116833000Y-127536250D01*
X116833000Y-126087000D01*
X117087000Y-126087000D01*
X117087000Y-127536250D01*
X117245750Y-127695000D01*
X118060000Y-127698072D01*
X118184482Y-127685812D01*
X118230000Y-127672004D01*
X118275518Y-127685812D01*
X118400000Y-127698072D01*
X119214250Y-127695000D01*
X119373000Y-127536250D01*
X119373000Y-126087000D01*
X119627000Y-126087000D01*
X119627000Y-127536250D01*
X119785750Y-127695000D01*
X120600000Y-127698072D01*
X120724482Y-127685812D01*
X120770000Y-127672004D01*
X120815518Y-127685812D01*
X120940000Y-127698072D01*
X121754250Y-127695000D01*
X121913000Y-127536250D01*
X121913000Y-126087000D01*
X122167000Y-126087000D01*
X122167000Y-127536250D01*
X122325750Y-127695000D01*
X123140000Y-127698072D01*
X123264482Y-127685812D01*
X123384180Y-127649502D01*
X123494494Y-127590537D01*
X123591185Y-127511185D01*
X123670537Y-127414494D01*
X123729502Y-127304180D01*
X123765812Y-127184482D01*
X123778072Y-127060000D01*
X123775000Y-126245750D01*
X123616250Y-126087000D01*
X122167000Y-126087000D01*
X121913000Y-126087000D01*
X119627000Y-126087000D01*
X119373000Y-126087000D01*
X117087000Y-126087000D01*
X116833000Y-126087000D01*
X115383750Y-126087000D01*
X115225000Y-126245750D01*
X115221928Y-127060000D01*
X99187000Y-127060000D01*
X99187000Y-124860000D01*
X115221928Y-124860000D01*
X115225000Y-125674250D01*
X115383750Y-125833000D01*
X116833000Y-125833000D01*
X116833000Y-124383750D01*
X117087000Y-124383750D01*
X117087000Y-125833000D01*
X119373000Y-125833000D01*
X119373000Y-124383750D01*
X119627000Y-124383750D01*
X119627000Y-125833000D01*
X121913000Y-125833000D01*
X121913000Y-124383750D01*
X122167000Y-124383750D01*
X122167000Y-125833000D01*
X123616250Y-125833000D01*
X123775000Y-125674250D01*
X123778072Y-124860000D01*
X123765812Y-124735518D01*
X123729502Y-124615820D01*
X123670537Y-124505506D01*
X123591185Y-124408815D01*
X123494494Y-124329463D01*
X123384180Y-124270498D01*
X123264482Y-124234188D01*
X123140000Y-124221928D01*
X122325750Y-124225000D01*
X122167000Y-124383750D01*
X121913000Y-124383750D01*
X121754250Y-124225000D01*
X120940000Y-124221928D01*
X120815518Y-124234188D01*
X120770000Y-124247996D01*
X120724482Y-124234188D01*
X120600000Y-124221928D01*
X119785750Y-124225000D01*
X119627000Y-124383750D01*
X119373000Y-124383750D01*
X119214250Y-124225000D01*
X118400000Y-124221928D01*
X118275518Y-124234188D01*
X118230000Y-124247996D01*
X118184482Y-124234188D01*
X118060000Y-124221928D01*
X117245750Y-124225000D01*
X117087000Y-124383750D01*
X116833000Y-124383750D01*
X116674250Y-124225000D01*
X115860000Y-124221928D01*
X115735518Y-124234188D01*
X115615820Y-124270498D01*
X115505506Y-124329463D01*
X115408815Y-124408815D01*
X115329463Y-124505506D01*
X115270498Y-124615820D01*
X115234188Y-124735518D01*
X115221928Y-124860000D01*
X99187000Y-124860000D01*
X99187000Y-117475000D01*
X116188281Y-117475000D01*
X116186479Y-117476479D01*
G04 #@! TA.AperFunction,Conductor*
D21*
G36*
X116186479Y-117476479D02*
G01*
X116151564Y-117519023D01*
X116125620Y-117567561D01*
X116109644Y-117620228D01*
X116104249Y-117675000D01*
X116104249Y-122275000D01*
X116109644Y-122329772D01*
X116125620Y-122382439D01*
X116151564Y-122430977D01*
X116186479Y-122473521D01*
X116229023Y-122508436D01*
X116277561Y-122534380D01*
X116330228Y-122550356D01*
X116385000Y-122555751D01*
X116549249Y-122555751D01*
X116557719Y-122583674D01*
X116557720Y-122583675D01*
X116595457Y-122654276D01*
X116612549Y-122675102D01*
X116633518Y-122700654D01*
X116633524Y-122700660D01*
X116646243Y-122716158D01*
X116661741Y-122728877D01*
X117706118Y-123773254D01*
X117718842Y-123788758D01*
X117780724Y-123839544D01*
X117851325Y-123877281D01*
X117904693Y-123893470D01*
X117927931Y-123900519D01*
X117935935Y-123901307D01*
X117987640Y-123906400D01*
X117987646Y-123906400D01*
X118007599Y-123908365D01*
X118027552Y-123906400D01*
X124980047Y-123906400D01*
X125000000Y-123908365D01*
X125019953Y-123906400D01*
X125019960Y-123906400D01*
X125079668Y-123900519D01*
X125156275Y-123877281D01*
X125226876Y-123839544D01*
X125288758Y-123788758D01*
X125301482Y-123773254D01*
X127523261Y-121551476D01*
X127538758Y-121538758D01*
X127551477Y-121523260D01*
X127551482Y-121523255D01*
X127568717Y-121502254D01*
X127589544Y-121476876D01*
X127627281Y-121406275D01*
X127650519Y-121329668D01*
X127656400Y-121269960D01*
X127656400Y-121269953D01*
X127658365Y-121250000D01*
X127656400Y-121230047D01*
X127656400Y-117774336D01*
X127930336Y-117500400D01*
X129266047Y-117500400D01*
X129286000Y-117502365D01*
X129305953Y-117500400D01*
X139573000Y-117500400D01*
X139573000Y-133731000D01*
X99187000Y-133731000D01*
X99187000Y-131182141D01*
X100220600Y-131182141D01*
X100220600Y-131453859D01*
X100273610Y-131720356D01*
X100377592Y-131971391D01*
X100528550Y-132197316D01*
X100720684Y-132389450D01*
X100946609Y-132540408D01*
X101197644Y-132644390D01*
X101464141Y-132697400D01*
X101735859Y-132697400D01*
X102002356Y-132644390D01*
X102253391Y-132540408D01*
X102479316Y-132389450D01*
X102671450Y-132197316D01*
X102709747Y-132140000D01*
X115221928Y-132140000D01*
X115234188Y-132264482D01*
X115270498Y-132384180D01*
X115329463Y-132494494D01*
X115408815Y-132591185D01*
X115505506Y-132670537D01*
X115615820Y-132729502D01*
X115735518Y-132765812D01*
X115860000Y-132778072D01*
X116674250Y-132775000D01*
X116833000Y-132616250D01*
X116833000Y-131167000D01*
X117087000Y-131167000D01*
X117087000Y-132616250D01*
X117245750Y-132775000D01*
X118060000Y-132778072D01*
X118184482Y-132765812D01*
X118230000Y-132752004D01*
X118275518Y-132765812D01*
X118400000Y-132778072D01*
X119214250Y-132775000D01*
X119373000Y-132616250D01*
X119373000Y-131167000D01*
X119627000Y-131167000D01*
X119627000Y-132616250D01*
X119785750Y-132775000D01*
X120600000Y-132778072D01*
X120724482Y-132765812D01*
X120770000Y-132752004D01*
X120815518Y-132765812D01*
X120940000Y-132778072D01*
X121754250Y-132775000D01*
X121913000Y-132616250D01*
X121913000Y-131167000D01*
X122167000Y-131167000D01*
X122167000Y-132616250D01*
X122325750Y-132775000D01*
X123140000Y-132778072D01*
X123264482Y-132765812D01*
X123384180Y-132729502D01*
X123494494Y-132670537D01*
X123591185Y-132591185D01*
X123670537Y-132494494D01*
X123729502Y-132384180D01*
X123765812Y-132264482D01*
X123778072Y-132140000D01*
X123775000Y-131325750D01*
X123616250Y-131167000D01*
X122167000Y-131167000D01*
X121913000Y-131167000D01*
X119627000Y-131167000D01*
X119373000Y-131167000D01*
X117087000Y-131167000D01*
X116833000Y-131167000D01*
X115383750Y-131167000D01*
X115225000Y-131325750D01*
X115221928Y-132140000D01*
X102709747Y-132140000D01*
X102822408Y-131971391D01*
X102926390Y-131720356D01*
X102979400Y-131453859D01*
X102979400Y-131182141D01*
X102926390Y-130915644D01*
X102822408Y-130664609D01*
X102671450Y-130438684D01*
X102479316Y-130246550D01*
X102253391Y-130095592D01*
X102002356Y-129991610D01*
X101742898Y-129940000D01*
X115221928Y-129940000D01*
X115225000Y-130754250D01*
X115383750Y-130913000D01*
X116833000Y-130913000D01*
X116833000Y-129463750D01*
X117087000Y-129463750D01*
X117087000Y-130913000D01*
X119373000Y-130913000D01*
X119373000Y-129463750D01*
X119627000Y-129463750D01*
X119627000Y-130913000D01*
X121913000Y-130913000D01*
X121913000Y-129463750D01*
X122167000Y-129463750D01*
X122167000Y-130913000D01*
X123616250Y-130913000D01*
X123775000Y-130754250D01*
X123778072Y-129940000D01*
X123765812Y-129815518D01*
X123729502Y-129695820D01*
X123670537Y-129585506D01*
X123591185Y-129488815D01*
X123494494Y-129409463D01*
X123384180Y-129350498D01*
X123264482Y-129314188D01*
X123140000Y-129301928D01*
X122325750Y-129305000D01*
X122167000Y-129463750D01*
X121913000Y-129463750D01*
X121754250Y-129305000D01*
X120940000Y-129301928D01*
X120815518Y-129314188D01*
X120770000Y-129327996D01*
X120724482Y-129314188D01*
X120600000Y-129301928D01*
X119785750Y-129305000D01*
X119627000Y-129463750D01*
X119373000Y-129463750D01*
X119214250Y-129305000D01*
X118400000Y-129301928D01*
X118275518Y-129314188D01*
X118230000Y-129327996D01*
X118184482Y-129314188D01*
X118060000Y-129301928D01*
X117245750Y-129305000D01*
X117087000Y-129463750D01*
X116833000Y-129463750D01*
X116674250Y-129305000D01*
X115860000Y-129301928D01*
X115735518Y-129314188D01*
X115615820Y-129350498D01*
X115505506Y-129409463D01*
X115408815Y-129488815D01*
X115329463Y-129585506D01*
X115270498Y-129695820D01*
X115234188Y-129815518D01*
X115221928Y-129940000D01*
X101742898Y-129940000D01*
X101735859Y-129938600D01*
X101464141Y-129938600D01*
X101197644Y-129991610D01*
X100946609Y-130095592D01*
X100720684Y-130246550D01*
X100528550Y-130438684D01*
X100377592Y-130664609D01*
X100273610Y-130915644D01*
X100220600Y-131182141D01*
X99187000Y-131182141D01*
X99187000Y-127060000D01*
X115221928Y-127060000D01*
X115234188Y-127184482D01*
X115270498Y-127304180D01*
X115329463Y-127414494D01*
X115408815Y-127511185D01*
X115505506Y-127590537D01*
X115615820Y-127649502D01*
X115735518Y-127685812D01*
X115860000Y-127698072D01*
X116674250Y-127695000D01*
X116833000Y-127536250D01*
X116833000Y-126087000D01*
X117087000Y-126087000D01*
X117087000Y-127536250D01*
X117245750Y-127695000D01*
X118060000Y-127698072D01*
X118184482Y-127685812D01*
X118230000Y-127672004D01*
X118275518Y-127685812D01*
X118400000Y-127698072D01*
X119214250Y-127695000D01*
X119373000Y-127536250D01*
X119373000Y-126087000D01*
X119627000Y-126087000D01*
X119627000Y-127536250D01*
X119785750Y-127695000D01*
X120600000Y-127698072D01*
X120724482Y-127685812D01*
X120770000Y-127672004D01*
X120815518Y-127685812D01*
X120940000Y-127698072D01*
X121754250Y-127695000D01*
X121913000Y-127536250D01*
X121913000Y-126087000D01*
X122167000Y-126087000D01*
X122167000Y-127536250D01*
X122325750Y-127695000D01*
X123140000Y-127698072D01*
X123264482Y-127685812D01*
X123384180Y-127649502D01*
X123494494Y-127590537D01*
X123591185Y-127511185D01*
X123670537Y-127414494D01*
X123729502Y-127304180D01*
X123765812Y-127184482D01*
X123778072Y-127060000D01*
X123775000Y-126245750D01*
X123616250Y-126087000D01*
X122167000Y-126087000D01*
X121913000Y-126087000D01*
X119627000Y-126087000D01*
X119373000Y-126087000D01*
X117087000Y-126087000D01*
X116833000Y-126087000D01*
X115383750Y-126087000D01*
X115225000Y-126245750D01*
X115221928Y-127060000D01*
X99187000Y-127060000D01*
X99187000Y-124860000D01*
X115221928Y-124860000D01*
X115225000Y-125674250D01*
X115383750Y-125833000D01*
X116833000Y-125833000D01*
X116833000Y-124383750D01*
X117087000Y-124383750D01*
X117087000Y-125833000D01*
X119373000Y-125833000D01*
X119373000Y-124383750D01*
X119627000Y-124383750D01*
X119627000Y-125833000D01*
X121913000Y-125833000D01*
X121913000Y-124383750D01*
X122167000Y-124383750D01*
X122167000Y-125833000D01*
X123616250Y-125833000D01*
X123775000Y-125674250D01*
X123778072Y-124860000D01*
X123765812Y-124735518D01*
X123729502Y-124615820D01*
X123670537Y-124505506D01*
X123591185Y-124408815D01*
X123494494Y-124329463D01*
X123384180Y-124270498D01*
X123264482Y-124234188D01*
X123140000Y-124221928D01*
X122325750Y-124225000D01*
X122167000Y-124383750D01*
X121913000Y-124383750D01*
X121754250Y-124225000D01*
X120940000Y-124221928D01*
X120815518Y-124234188D01*
X120770000Y-124247996D01*
X120724482Y-124234188D01*
X120600000Y-124221928D01*
X119785750Y-124225000D01*
X119627000Y-124383750D01*
X119373000Y-124383750D01*
X119214250Y-124225000D01*
X118400000Y-124221928D01*
X118275518Y-124234188D01*
X118230000Y-124247996D01*
X118184482Y-124234188D01*
X118060000Y-124221928D01*
X117245750Y-124225000D01*
X117087000Y-124383750D01*
X116833000Y-124383750D01*
X116674250Y-124225000D01*
X115860000Y-124221928D01*
X115735518Y-124234188D01*
X115615820Y-124270498D01*
X115505506Y-124329463D01*
X115408815Y-124408815D01*
X115329463Y-124505506D01*
X115270498Y-124615820D01*
X115234188Y-124735518D01*
X115221928Y-124860000D01*
X99187000Y-124860000D01*
X99187000Y-117475000D01*
X116188281Y-117475000D01*
X116186479Y-117476479D01*
G37*
G04 #@! TD.AperFunction*
D20*
X118195600Y-120037848D02*
X118214112Y-120225805D01*
X118287270Y-120466973D01*
X118406071Y-120689235D01*
X118565951Y-120884049D01*
X118644249Y-120948307D01*
X118644249Y-122275000D01*
X118649644Y-122329772D01*
X118665620Y-122382439D01*
X118691564Y-122430977D01*
X118726479Y-122473521D01*
X118769023Y-122508436D01*
X118817561Y-122534380D01*
X118870228Y-122550356D01*
X118925000Y-122555751D01*
X120025000Y-122555751D01*
X120079772Y-122550356D01*
X120132439Y-122534380D01*
X120180977Y-122508436D01*
X120223521Y-122473521D01*
X120258436Y-122430977D01*
X120284380Y-122382439D01*
X120300356Y-122329772D01*
X120305751Y-122275000D01*
X120826928Y-122275000D01*
X120839188Y-122399482D01*
X120875498Y-122519180D01*
X120934463Y-122629494D01*
X121013815Y-122726185D01*
X121110506Y-122805537D01*
X121220820Y-122864502D01*
X121340518Y-122900812D01*
X121465000Y-122913072D01*
X121729250Y-122910000D01*
X121888000Y-122751250D01*
X121888000Y-120102000D01*
X122142000Y-120102000D01*
X122142000Y-122751250D01*
X122300750Y-122910000D01*
X122565000Y-122913072D01*
X122689482Y-122900812D01*
X122809180Y-122864502D01*
X122919494Y-122805537D01*
X123016185Y-122726185D01*
X123095537Y-122629494D01*
X123154502Y-122519180D01*
X123190812Y-122399482D01*
X123203072Y-122275000D01*
X123200000Y-120260750D01*
X123041250Y-120102000D01*
X122142000Y-120102000D01*
X121888000Y-120102000D01*
X120988750Y-120102000D01*
X120830000Y-120260750D01*
X120826928Y-122275000D01*
X120305751Y-122275000D01*
X120305751Y-120948307D01*
X120384049Y-120884049D01*
X120543929Y-120689236D01*
X120662730Y-120466974D01*
X120735888Y-120225806D01*
X120754400Y-120037849D01*
X120754400Y-117475000D01*
X120862096Y-117475000D01*
X120839188Y-117550518D01*
X120826928Y-117675000D01*
X120830000Y-119689250D01*
X120988750Y-119848000D01*
X121888000Y-119848000D01*
X121888000Y-119828000D01*
X122142000Y-119828000D01*
X122142000Y-119848000D01*
X123041250Y-119848000D01*
X123200000Y-119689250D01*
X123203072Y-117675000D01*
X123190812Y-117550518D01*
X123167904Y-117475000D01*
X126865052Y-117475000D01*
X126849481Y-117526332D01*
X126841635Y-117606000D01*
X126843601Y-117625963D01*
X126843600Y-121081663D01*
X124831664Y-123093600D01*
X118175936Y-123093600D01*
X117608260Y-122525924D01*
X117640977Y-122508436D01*
X117683521Y-122473521D01*
X117718436Y-122430977D01*
X117744380Y-122382439D01*
X117760356Y-122329772D01*
X117765751Y-122275000D01*
X117765751Y-117675000D01*
X117760356Y-117620228D01*
X117744380Y-117567561D01*
X117718436Y-117519023D01*
X117683521Y-117476479D01*
X117681719Y-117475000D01*
X118195600Y-117475000D01*
X118195600Y-120037848D01*
G04 #@! TA.AperFunction,Conductor*
D21*
G36*
X118195600Y-120037848D02*
G01*
X118214112Y-120225805D01*
X118287270Y-120466973D01*
X118406071Y-120689235D01*
X118565951Y-120884049D01*
X118644249Y-120948307D01*
X118644249Y-122275000D01*
X118649644Y-122329772D01*
X118665620Y-122382439D01*
X118691564Y-122430977D01*
X118726479Y-122473521D01*
X118769023Y-122508436D01*
X118817561Y-122534380D01*
X118870228Y-122550356D01*
X118925000Y-122555751D01*
X120025000Y-122555751D01*
X120079772Y-122550356D01*
X120132439Y-122534380D01*
X120180977Y-122508436D01*
X120223521Y-122473521D01*
X120258436Y-122430977D01*
X120284380Y-122382439D01*
X120300356Y-122329772D01*
X120305751Y-122275000D01*
X120826928Y-122275000D01*
X120839188Y-122399482D01*
X120875498Y-122519180D01*
X120934463Y-122629494D01*
X121013815Y-122726185D01*
X121110506Y-122805537D01*
X121220820Y-122864502D01*
X121340518Y-122900812D01*
X121465000Y-122913072D01*
X121729250Y-122910000D01*
X121888000Y-122751250D01*
X121888000Y-120102000D01*
X122142000Y-120102000D01*
X122142000Y-122751250D01*
X122300750Y-122910000D01*
X122565000Y-122913072D01*
X122689482Y-122900812D01*
X122809180Y-122864502D01*
X122919494Y-122805537D01*
X123016185Y-122726185D01*
X123095537Y-122629494D01*
X123154502Y-122519180D01*
X123190812Y-122399482D01*
X123203072Y-122275000D01*
X123200000Y-120260750D01*
X123041250Y-120102000D01*
X122142000Y-120102000D01*
X121888000Y-120102000D01*
X120988750Y-120102000D01*
X120830000Y-120260750D01*
X120826928Y-122275000D01*
X120305751Y-122275000D01*
X120305751Y-120948307D01*
X120384049Y-120884049D01*
X120543929Y-120689236D01*
X120662730Y-120466974D01*
X120735888Y-120225806D01*
X120754400Y-120037849D01*
X120754400Y-117475000D01*
X120862096Y-117475000D01*
X120839188Y-117550518D01*
X120826928Y-117675000D01*
X120830000Y-119689250D01*
X120988750Y-119848000D01*
X121888000Y-119848000D01*
X121888000Y-119828000D01*
X122142000Y-119828000D01*
X122142000Y-119848000D01*
X123041250Y-119848000D01*
X123200000Y-119689250D01*
X123203072Y-117675000D01*
X123190812Y-117550518D01*
X123167904Y-117475000D01*
X126865052Y-117475000D01*
X126849481Y-117526332D01*
X126841635Y-117606000D01*
X126843601Y-117625963D01*
X126843600Y-121081663D01*
X124831664Y-123093600D01*
X118175936Y-123093600D01*
X117608260Y-122525924D01*
X117640977Y-122508436D01*
X117683521Y-122473521D01*
X117718436Y-122430977D01*
X117744380Y-122382439D01*
X117760356Y-122329772D01*
X117765751Y-122275000D01*
X117765751Y-117675000D01*
X117760356Y-117620228D01*
X117744380Y-117567561D01*
X117718436Y-117519023D01*
X117683521Y-117476479D01*
X117681719Y-117475000D01*
X118195600Y-117475000D01*
X118195600Y-120037848D01*
G37*
G04 #@! TD.AperFunction*
D20*
X129343600Y-116459000D02*
X99187000Y-116459000D01*
X99187000Y-115525000D01*
X113436928Y-115525000D01*
X113449188Y-115649482D01*
X113485498Y-115769180D01*
X113544463Y-115879494D01*
X113623815Y-115976185D01*
X113720506Y-116055537D01*
X113830820Y-116114502D01*
X113950518Y-116150812D01*
X114075000Y-116163072D01*
X119189250Y-116160000D01*
X119348000Y-116001250D01*
X119348000Y-110952000D01*
X119602000Y-110952000D01*
X119602000Y-116001250D01*
X119760750Y-116160000D01*
X124875000Y-116163072D01*
X124999482Y-116150812D01*
X125119180Y-116114502D01*
X125229494Y-116055537D01*
X125326185Y-115976185D01*
X125405537Y-115879494D01*
X125464502Y-115769180D01*
X125500812Y-115649482D01*
X125513072Y-115525000D01*
X125510000Y-111110750D01*
X125351250Y-110952000D01*
X119602000Y-110952000D01*
X119348000Y-110952000D01*
X113598750Y-110952000D01*
X113440000Y-111110750D01*
X113436928Y-115525000D01*
X99187000Y-115525000D01*
X99187000Y-105100000D01*
X113371928Y-105100000D01*
X113384188Y-105224482D01*
X113420498Y-105344180D01*
X113479463Y-105454494D01*
X113558815Y-105551185D01*
X113655506Y-105630537D01*
X113668250Y-105637349D01*
X113623815Y-105673815D01*
X113544463Y-105770506D01*
X113485498Y-105880820D01*
X113449188Y-106000518D01*
X113436928Y-106125000D01*
X113440000Y-110539250D01*
X113598750Y-110698000D01*
X119348000Y-110698000D01*
X119348000Y-105648750D01*
X119279250Y-105580000D01*
X119283000Y-105576250D01*
X119283000Y-100527000D01*
X119537000Y-100527000D01*
X119537000Y-105576250D01*
X119605750Y-105645000D01*
X119602000Y-105648750D01*
X119602000Y-110698000D01*
X125351250Y-110698000D01*
X125510000Y-110539250D01*
X125513072Y-106125000D01*
X125500812Y-106000518D01*
X125464502Y-105880820D01*
X125405537Y-105770506D01*
X125326185Y-105673815D01*
X125229494Y-105594463D01*
X125216750Y-105587651D01*
X125261185Y-105551185D01*
X125340537Y-105454494D01*
X125399502Y-105344180D01*
X125435812Y-105224482D01*
X125448072Y-105100000D01*
X125445000Y-100685750D01*
X125286250Y-100527000D01*
X119537000Y-100527000D01*
X119283000Y-100527000D01*
X113533750Y-100527000D01*
X113375000Y-100685750D01*
X113371928Y-105100000D01*
X99187000Y-105100000D01*
X99187000Y-95700000D01*
X113371928Y-95700000D01*
X113375000Y-100114250D01*
X113533750Y-100273000D01*
X119283000Y-100273000D01*
X119283000Y-95223750D01*
X119537000Y-95223750D01*
X119537000Y-100273000D01*
X125286250Y-100273000D01*
X125445000Y-100114250D01*
X125448072Y-95700000D01*
X125435812Y-95575518D01*
X125399502Y-95455820D01*
X125340537Y-95345506D01*
X125261185Y-95248815D01*
X125164494Y-95169463D01*
X125054180Y-95110498D01*
X124934482Y-95074188D01*
X124810000Y-95061928D01*
X119695750Y-95065000D01*
X119537000Y-95223750D01*
X119283000Y-95223750D01*
X119124250Y-95065000D01*
X114010000Y-95061928D01*
X113885518Y-95074188D01*
X113765820Y-95110498D01*
X113655506Y-95169463D01*
X113558815Y-95248815D01*
X113479463Y-95345506D01*
X113420498Y-95455820D01*
X113384188Y-95575518D01*
X113371928Y-95700000D01*
X99187000Y-95700000D01*
X99187000Y-94869000D01*
X129343601Y-94869000D01*
X129343600Y-116459000D01*
G04 #@! TA.AperFunction,Conductor*
D21*
G36*
X129343600Y-116459000D02*
G01*
X99187000Y-116459000D01*
X99187000Y-115525000D01*
X113436928Y-115525000D01*
X113449188Y-115649482D01*
X113485498Y-115769180D01*
X113544463Y-115879494D01*
X113623815Y-115976185D01*
X113720506Y-116055537D01*
X113830820Y-116114502D01*
X113950518Y-116150812D01*
X114075000Y-116163072D01*
X119189250Y-116160000D01*
X119348000Y-116001250D01*
X119348000Y-110952000D01*
X119602000Y-110952000D01*
X119602000Y-116001250D01*
X119760750Y-116160000D01*
X124875000Y-116163072D01*
X124999482Y-116150812D01*
X125119180Y-116114502D01*
X125229494Y-116055537D01*
X125326185Y-115976185D01*
X125405537Y-115879494D01*
X125464502Y-115769180D01*
X125500812Y-115649482D01*
X125513072Y-115525000D01*
X125510000Y-111110750D01*
X125351250Y-110952000D01*
X119602000Y-110952000D01*
X119348000Y-110952000D01*
X113598750Y-110952000D01*
X113440000Y-111110750D01*
X113436928Y-115525000D01*
X99187000Y-115525000D01*
X99187000Y-105100000D01*
X113371928Y-105100000D01*
X113384188Y-105224482D01*
X113420498Y-105344180D01*
X113479463Y-105454494D01*
X113558815Y-105551185D01*
X113655506Y-105630537D01*
X113668250Y-105637349D01*
X113623815Y-105673815D01*
X113544463Y-105770506D01*
X113485498Y-105880820D01*
X113449188Y-106000518D01*
X113436928Y-106125000D01*
X113440000Y-110539250D01*
X113598750Y-110698000D01*
X119348000Y-110698000D01*
X119348000Y-105648750D01*
X119279250Y-105580000D01*
X119283000Y-105576250D01*
X119283000Y-100527000D01*
X119537000Y-100527000D01*
X119537000Y-105576250D01*
X119605750Y-105645000D01*
X119602000Y-105648750D01*
X119602000Y-110698000D01*
X125351250Y-110698000D01*
X125510000Y-110539250D01*
X125513072Y-106125000D01*
X125500812Y-106000518D01*
X125464502Y-105880820D01*
X125405537Y-105770506D01*
X125326185Y-105673815D01*
X125229494Y-105594463D01*
X125216750Y-105587651D01*
X125261185Y-105551185D01*
X125340537Y-105454494D01*
X125399502Y-105344180D01*
X125435812Y-105224482D01*
X125448072Y-105100000D01*
X125445000Y-100685750D01*
X125286250Y-100527000D01*
X119537000Y-100527000D01*
X119283000Y-100527000D01*
X113533750Y-100527000D01*
X113375000Y-100685750D01*
X113371928Y-105100000D01*
X99187000Y-105100000D01*
X99187000Y-95700000D01*
X113371928Y-95700000D01*
X113375000Y-100114250D01*
X113533750Y-100273000D01*
X119283000Y-100273000D01*
X119283000Y-95223750D01*
X119537000Y-95223750D01*
X119537000Y-100273000D01*
X125286250Y-100273000D01*
X125445000Y-100114250D01*
X125448072Y-95700000D01*
X125435812Y-95575518D01*
X125399502Y-95455820D01*
X125340537Y-95345506D01*
X125261185Y-95248815D01*
X125164494Y-95169463D01*
X125054180Y-95110498D01*
X124934482Y-95074188D01*
X124810000Y-95061928D01*
X119695750Y-95065000D01*
X119537000Y-95223750D01*
X119283000Y-95223750D01*
X119124250Y-95065000D01*
X114010000Y-95061928D01*
X113885518Y-95074188D01*
X113765820Y-95110498D01*
X113655506Y-95169463D01*
X113558815Y-95248815D01*
X113479463Y-95345506D01*
X113420498Y-95455820D01*
X113384188Y-95575518D01*
X113371928Y-95700000D01*
X99187000Y-95700000D01*
X99187000Y-94869000D01*
X129343601Y-94869000D01*
X129343600Y-116459000D01*
G37*
G04 #@! TD.AperFunction*
D20*
X139573000Y-116459000D02*
X130156400Y-116459000D01*
X130156400Y-94869000D01*
X139573000Y-94869000D01*
X139573000Y-116459000D01*
G04 #@! TA.AperFunction,Conductor*
D21*
G36*
X139573000Y-116459000D02*
G01*
X130156400Y-116459000D01*
X130156400Y-94869000D01*
X139573000Y-94869000D01*
X139573000Y-116459000D01*
G37*
G04 #@! TD.AperFunction*
D20*
X153289000Y-133731000D02*
X140589000Y-133731000D01*
X140589000Y-131533900D01*
X141221249Y-131533900D01*
X141221249Y-133314000D01*
X141226644Y-133368772D01*
X141242620Y-133421439D01*
X141268564Y-133469977D01*
X141303479Y-133512521D01*
X141346023Y-133547436D01*
X141394561Y-133573380D01*
X141447228Y-133589356D01*
X141502000Y-133594751D01*
X144502000Y-133594751D01*
X144556772Y-133589356D01*
X144609439Y-133573380D01*
X144657977Y-133547436D01*
X144700521Y-133512521D01*
X144735436Y-133469977D01*
X144761380Y-133421439D01*
X144777356Y-133368772D01*
X144782751Y-133314000D01*
X144782751Y-128814000D01*
X144777356Y-128759228D01*
X144761380Y-128706561D01*
X144735436Y-128658023D01*
X144700521Y-128615479D01*
X144657977Y-128580564D01*
X144609439Y-128554620D01*
X144556772Y-128538644D01*
X144502000Y-128533249D01*
X141502000Y-128533249D01*
X141447228Y-128538644D01*
X141394561Y-128554620D01*
X141346023Y-128580564D01*
X141303479Y-128615479D01*
X141268564Y-128658023D01*
X141242620Y-128706561D01*
X141226644Y-128759228D01*
X141221249Y-128814000D01*
X141221249Y-129324100D01*
X140589000Y-129324100D01*
X140589000Y-117500400D01*
X141338617Y-117500400D01*
X141356564Y-117533977D01*
X141391479Y-117576521D01*
X141434023Y-117611436D01*
X141482561Y-117637380D01*
X141535228Y-117653356D01*
X141590000Y-117658751D01*
X142890000Y-117658751D01*
X142944772Y-117653356D01*
X142997439Y-117637380D01*
X143045977Y-117611436D01*
X143088521Y-117576521D01*
X143123436Y-117533977D01*
X143149380Y-117485439D01*
X143165356Y-117432772D01*
X143166333Y-117422857D01*
X143224275Y-117405281D01*
X143294876Y-117367544D01*
X143356758Y-117316758D01*
X143407544Y-117254876D01*
X143445281Y-117184275D01*
X143468519Y-117107668D01*
X143476366Y-117028000D01*
X143468519Y-116948332D01*
X143468492Y-116948244D01*
X144159261Y-116257476D01*
X144174758Y-116244758D01*
X144187477Y-116229260D01*
X144187482Y-116229255D01*
X144210439Y-116201281D01*
X144225544Y-116182876D01*
X144263281Y-116112275D01*
X144286519Y-116035668D01*
X144292400Y-115975960D01*
X144292400Y-115975953D01*
X144294365Y-115956000D01*
X144292400Y-115936047D01*
X144292400Y-113700862D01*
X144343439Y-113685380D01*
X144391977Y-113659436D01*
X144434521Y-113624521D01*
X144469436Y-113581977D01*
X144495380Y-113533439D01*
X144511356Y-113480772D01*
X144516751Y-113426000D01*
X144516751Y-112478565D01*
X145897601Y-113859416D01*
X145897600Y-121392047D01*
X145895635Y-121412000D01*
X145897600Y-121431953D01*
X145897600Y-121431959D01*
X145903481Y-121491667D01*
X145926719Y-121568274D01*
X145964456Y-121638875D01*
X146015242Y-121700758D01*
X146030746Y-121713482D01*
X149497375Y-125180111D01*
X149455757Y-125242396D01*
X149378159Y-125429735D01*
X149338600Y-125628613D01*
X149338600Y-125831387D01*
X149378159Y-126030265D01*
X149455757Y-126217604D01*
X149568413Y-126386204D01*
X149711796Y-126529587D01*
X149880396Y-126642243D01*
X150067735Y-126719841D01*
X150266613Y-126759400D01*
X150469387Y-126759400D01*
X150668265Y-126719841D01*
X150855604Y-126642243D01*
X151024204Y-126529587D01*
X151167587Y-126386204D01*
X151280243Y-126217604D01*
X151357841Y-126030265D01*
X151397400Y-125831387D01*
X151397400Y-125628613D01*
X151357841Y-125429735D01*
X151280243Y-125242396D01*
X151167587Y-125073796D01*
X151024204Y-124930413D01*
X150855604Y-124817757D01*
X150668265Y-124740159D01*
X150469387Y-124700600D01*
X150266613Y-124700600D01*
X150183808Y-124717071D01*
X146710400Y-121243664D01*
X146710400Y-113772040D01*
X146707396Y-113741537D01*
X146712365Y-113691078D01*
X146704519Y-113611409D01*
X146681281Y-113534803D01*
X146643543Y-113464202D01*
X146605482Y-113417823D01*
X144420403Y-111232745D01*
X144407680Y-111217242D01*
X144345798Y-111166456D01*
X144275197Y-111128719D01*
X144198590Y-111105481D01*
X144138882Y-111099600D01*
X144138875Y-111099600D01*
X144118922Y-111097635D01*
X144098969Y-111099600D01*
X143678336Y-111099600D01*
X143083482Y-110504746D01*
X143070758Y-110489242D01*
X143008876Y-110438456D01*
X143002751Y-110435182D01*
X143002751Y-110378000D01*
X142997356Y-110323228D01*
X142981380Y-110270561D01*
X142955436Y-110222023D01*
X142920521Y-110179479D01*
X142877977Y-110144564D01*
X142829439Y-110118620D01*
X142776772Y-110102644D01*
X142722000Y-110097249D01*
X141822000Y-110097249D01*
X141767228Y-110102644D01*
X141714561Y-110118620D01*
X141666023Y-110144564D01*
X141623479Y-110179479D01*
X141588564Y-110222023D01*
X141562620Y-110270561D01*
X141546644Y-110323228D01*
X141541249Y-110378000D01*
X141541249Y-111178000D01*
X141546644Y-111232772D01*
X141562620Y-111285439D01*
X141579601Y-111317208D01*
X141579601Y-111851138D01*
X141528561Y-111866620D01*
X141480023Y-111892564D01*
X141437479Y-111927479D01*
X141402564Y-111970023D01*
X141376620Y-112018561D01*
X141360644Y-112071228D01*
X141355249Y-112126000D01*
X141355249Y-113426000D01*
X141360644Y-113480772D01*
X141376620Y-113533439D01*
X141402564Y-113581977D01*
X141437479Y-113624521D01*
X141480023Y-113659436D01*
X141528561Y-113685380D01*
X141581228Y-113701356D01*
X141636000Y-113706751D01*
X142336000Y-113706751D01*
X142390772Y-113701356D01*
X142443439Y-113685380D01*
X142491977Y-113659436D01*
X142534521Y-113624521D01*
X142569436Y-113581977D01*
X142595380Y-113533439D01*
X142611356Y-113480772D01*
X142616751Y-113426000D01*
X142616751Y-112126000D01*
X142611356Y-112071228D01*
X142595380Y-112018561D01*
X142569436Y-111970023D01*
X142534521Y-111927479D01*
X142491977Y-111892564D01*
X142443439Y-111866620D01*
X142392400Y-111851138D01*
X142392400Y-111458751D01*
X142722000Y-111458751D01*
X142776772Y-111453356D01*
X142829439Y-111437380D01*
X142853685Y-111424421D01*
X143208518Y-111779254D01*
X143221242Y-111794758D01*
X143283124Y-111845544D01*
X143353725Y-111883281D01*
X143381581Y-111891731D01*
X143380023Y-111892564D01*
X143337479Y-111927479D01*
X143302564Y-111970023D01*
X143276620Y-112018561D01*
X143260644Y-112071228D01*
X143255249Y-112126000D01*
X143255249Y-113426000D01*
X143260644Y-113480772D01*
X143276620Y-113533439D01*
X143302564Y-113581977D01*
X143337479Y-113624521D01*
X143380023Y-113659436D01*
X143428561Y-113685380D01*
X143479601Y-113700862D01*
X143479600Y-115787663D01*
X142870015Y-116397249D01*
X141590000Y-116397249D01*
X141535228Y-116402644D01*
X141482561Y-116418620D01*
X141434023Y-116444564D01*
X141391479Y-116479479D01*
X141356564Y-116522023D01*
X141330620Y-116570561D01*
X141314644Y-116623228D01*
X141309249Y-116678000D01*
X141309249Y-116687600D01*
X140589000Y-116687600D01*
X140589000Y-115534400D01*
X141315138Y-115534400D01*
X141330620Y-115585439D01*
X141356564Y-115633977D01*
X141391479Y-115676521D01*
X141434023Y-115711436D01*
X141482561Y-115737380D01*
X141535228Y-115753356D01*
X141590000Y-115758751D01*
X142890000Y-115758751D01*
X142944772Y-115753356D01*
X142997439Y-115737380D01*
X143045977Y-115711436D01*
X143088521Y-115676521D01*
X143123436Y-115633977D01*
X143149380Y-115585439D01*
X143165356Y-115532772D01*
X143170751Y-115478000D01*
X143170751Y-114778000D01*
X143165356Y-114723228D01*
X143149380Y-114670561D01*
X143123436Y-114622023D01*
X143088521Y-114579479D01*
X143045977Y-114544564D01*
X142997439Y-114518620D01*
X142944772Y-114502644D01*
X142890000Y-114497249D01*
X141590000Y-114497249D01*
X141535228Y-114502644D01*
X141482561Y-114518620D01*
X141434023Y-114544564D01*
X141391479Y-114579479D01*
X141356564Y-114622023D01*
X141330620Y-114670561D01*
X141315138Y-114721600D01*
X140589000Y-114721600D01*
X140589000Y-109078000D01*
X141183928Y-109078000D01*
X141196188Y-109202482D01*
X141232498Y-109322180D01*
X141291463Y-109432494D01*
X141370815Y-109529185D01*
X141467506Y-109608537D01*
X141577820Y-109667502D01*
X141697518Y-109703812D01*
X141822000Y-109716072D01*
X141986250Y-109713000D01*
X142145000Y-109554250D01*
X142145000Y-108805000D01*
X142399000Y-108805000D01*
X142399000Y-109554250D01*
X142557750Y-109713000D01*
X142722000Y-109716072D01*
X142846482Y-109703812D01*
X142966180Y-109667502D01*
X143076494Y-109608537D01*
X143173185Y-109529185D01*
X143252537Y-109432494D01*
X143311502Y-109322180D01*
X143347812Y-109202482D01*
X143360072Y-109078000D01*
X143357000Y-108963750D01*
X143198250Y-108805000D01*
X142399000Y-108805000D01*
X142145000Y-108805000D01*
X141345750Y-108805000D01*
X141187000Y-108963750D01*
X141183928Y-109078000D01*
X140589000Y-109078000D01*
X140589000Y-107330000D01*
X141063928Y-107330000D01*
X141076188Y-107454482D01*
X141112498Y-107574180D01*
X141171463Y-107684494D01*
X141250815Y-107781185D01*
X141344897Y-107858396D01*
X141291463Y-107923506D01*
X141232498Y-108033820D01*
X141196188Y-108153518D01*
X141183928Y-108278000D01*
X141187000Y-108392250D01*
X141345750Y-108551000D01*
X142145000Y-108551000D01*
X142145000Y-108531000D01*
X142399000Y-108531000D01*
X142399000Y-108551000D01*
X143198250Y-108551000D01*
X143357000Y-108392250D01*
X143360072Y-108278000D01*
X143347812Y-108153518D01*
X143311502Y-108033820D01*
X143252537Y-107923506D01*
X143173185Y-107826815D01*
X143076494Y-107747463D01*
X142966180Y-107688498D01*
X142935389Y-107679158D01*
X142991502Y-107574180D01*
X143027812Y-107454482D01*
X143040072Y-107330000D01*
X143037000Y-106965750D01*
X142878250Y-106807000D01*
X142179000Y-106807000D01*
X142179000Y-106827000D01*
X141925000Y-106827000D01*
X141925000Y-106807000D01*
X141225750Y-106807000D01*
X141067000Y-106965750D01*
X141063928Y-107330000D01*
X140589000Y-107330000D01*
X140589000Y-106030000D01*
X141063928Y-106030000D01*
X141067000Y-106394250D01*
X141225750Y-106553000D01*
X141925000Y-106553000D01*
X141925000Y-105553750D01*
X142179000Y-105553750D01*
X142179000Y-106553000D01*
X142878250Y-106553000D01*
X143037000Y-106394250D01*
X143040072Y-106030000D01*
X143321249Y-106030000D01*
X143321249Y-107330000D01*
X143326644Y-107384772D01*
X143342620Y-107437439D01*
X143368564Y-107485977D01*
X143403479Y-107528521D01*
X143446023Y-107563436D01*
X143494561Y-107589380D01*
X143547228Y-107605356D01*
X143602000Y-107610751D01*
X143865601Y-107610751D01*
X143865600Y-109047249D01*
X143822000Y-109047249D01*
X143767228Y-109052644D01*
X143714561Y-109068620D01*
X143666023Y-109094564D01*
X143623479Y-109129479D01*
X143588564Y-109172023D01*
X143562620Y-109220561D01*
X143546644Y-109273228D01*
X143541249Y-109328000D01*
X143541249Y-110128000D01*
X143546644Y-110182772D01*
X143562620Y-110235439D01*
X143588564Y-110283977D01*
X143623479Y-110326521D01*
X143666023Y-110361436D01*
X143714561Y-110387380D01*
X143767228Y-110403356D01*
X143822000Y-110408751D01*
X144378015Y-110408751D01*
X149961601Y-115992338D01*
X149961601Y-117865249D01*
X148868000Y-117865249D01*
X148813228Y-117870644D01*
X148760561Y-117886620D01*
X148712023Y-117912564D01*
X148669479Y-117947479D01*
X148634564Y-117990023D01*
X148608620Y-118038561D01*
X148592644Y-118091228D01*
X148587249Y-118146000D01*
X148587249Y-122646000D01*
X148592644Y-122700772D01*
X148608620Y-122753439D01*
X148634564Y-122801977D01*
X148669479Y-122844521D01*
X148712023Y-122879436D01*
X148760561Y-122905380D01*
X148813228Y-122921356D01*
X148868000Y-122926751D01*
X151868000Y-122926751D01*
X151922772Y-122921356D01*
X151975439Y-122905380D01*
X152023977Y-122879436D01*
X152066521Y-122844521D01*
X152101436Y-122801977D01*
X152127380Y-122753439D01*
X152143356Y-122700772D01*
X152148751Y-122646000D01*
X152148751Y-118146000D01*
X152143356Y-118091228D01*
X152127380Y-118038561D01*
X152101436Y-117990023D01*
X152066521Y-117947479D01*
X152023977Y-117912564D01*
X151975439Y-117886620D01*
X151922772Y-117870644D01*
X151868000Y-117865249D01*
X150774400Y-117865249D01*
X150774400Y-115843953D01*
X150776365Y-115824000D01*
X150774400Y-115804047D01*
X150774400Y-115804040D01*
X150768519Y-115744332D01*
X150745281Y-115667725D01*
X150707544Y-115597124D01*
X150686717Y-115571746D01*
X150669482Y-115550745D01*
X150669477Y-115550740D01*
X150656758Y-115535242D01*
X150641260Y-115522523D01*
X145002751Y-109884015D01*
X145002751Y-109328000D01*
X144997356Y-109273228D01*
X144981380Y-109220561D01*
X144955436Y-109172023D01*
X144920521Y-109129479D01*
X144877977Y-109094564D01*
X144829439Y-109068620D01*
X144776772Y-109052644D01*
X144722000Y-109047249D01*
X144678400Y-109047249D01*
X144678400Y-108676000D01*
X147721928Y-108676000D01*
X147734188Y-108800482D01*
X147770498Y-108920180D01*
X147829463Y-109030494D01*
X147908815Y-109127185D01*
X148005506Y-109206537D01*
X148115820Y-109265502D01*
X148235518Y-109301812D01*
X148360000Y-109314072D01*
X149574250Y-109311000D01*
X149733000Y-109152250D01*
X149733000Y-106553000D01*
X149987000Y-106553000D01*
X149987000Y-109152250D01*
X150145750Y-109311000D01*
X151360000Y-109314072D01*
X151484482Y-109301812D01*
X151604180Y-109265502D01*
X151714494Y-109206537D01*
X151811185Y-109127185D01*
X151890537Y-109030494D01*
X151949502Y-108920180D01*
X151985812Y-108800482D01*
X151998072Y-108676000D01*
X151995000Y-106711750D01*
X151836250Y-106553000D01*
X149987000Y-106553000D01*
X149733000Y-106553000D01*
X147883750Y-106553000D01*
X147725000Y-106711750D01*
X147721928Y-108676000D01*
X144678400Y-108676000D01*
X144678400Y-107019952D01*
X144680365Y-106999999D01*
X144678400Y-106980046D01*
X144678400Y-106980040D01*
X144672519Y-106920332D01*
X144649281Y-106843725D01*
X144611544Y-106773124D01*
X144582751Y-106738040D01*
X144582751Y-106030000D01*
X144577356Y-105975228D01*
X144561380Y-105922561D01*
X144535436Y-105874023D01*
X144500521Y-105831479D01*
X144457977Y-105796564D01*
X144409439Y-105770620D01*
X144356772Y-105754644D01*
X144302000Y-105749249D01*
X143602000Y-105749249D01*
X143547228Y-105754644D01*
X143494561Y-105770620D01*
X143446023Y-105796564D01*
X143403479Y-105831479D01*
X143368564Y-105874023D01*
X143342620Y-105922561D01*
X143326644Y-105975228D01*
X143321249Y-106030000D01*
X143040072Y-106030000D01*
X143027812Y-105905518D01*
X142991502Y-105785820D01*
X142932537Y-105675506D01*
X142853185Y-105578815D01*
X142756494Y-105499463D01*
X142646180Y-105440498D01*
X142526482Y-105404188D01*
X142402000Y-105391928D01*
X142337750Y-105395000D01*
X142179000Y-105553750D01*
X141925000Y-105553750D01*
X141766250Y-105395000D01*
X141702000Y-105391928D01*
X141577518Y-105404188D01*
X141457820Y-105440498D01*
X141347506Y-105499463D01*
X141250815Y-105578815D01*
X141171463Y-105675506D01*
X141112498Y-105785820D01*
X141076188Y-105905518D01*
X141063928Y-106030000D01*
X140589000Y-106030000D01*
X140589000Y-104176000D01*
X147721928Y-104176000D01*
X147725000Y-106140250D01*
X147883750Y-106299000D01*
X149733000Y-106299000D01*
X149733000Y-103699750D01*
X149987000Y-103699750D01*
X149987000Y-106299000D01*
X151836250Y-106299000D01*
X151995000Y-106140250D01*
X151998072Y-104176000D01*
X151985812Y-104051518D01*
X151949502Y-103931820D01*
X151890537Y-103821506D01*
X151811185Y-103724815D01*
X151714494Y-103645463D01*
X151604180Y-103586498D01*
X151484482Y-103550188D01*
X151360000Y-103537928D01*
X150145750Y-103541000D01*
X149987000Y-103699750D01*
X149733000Y-103699750D01*
X149574250Y-103541000D01*
X148360000Y-103537928D01*
X148235518Y-103550188D01*
X148115820Y-103586498D01*
X148005506Y-103645463D01*
X147908815Y-103724815D01*
X147829463Y-103821506D01*
X147770498Y-103931820D01*
X147734188Y-104051518D01*
X147721928Y-104176000D01*
X140589000Y-104176000D01*
X140589000Y-98392400D01*
X149422121Y-98392400D01*
X149455757Y-98473604D01*
X149568413Y-98642204D01*
X149711796Y-98785587D01*
X149880396Y-98898243D01*
X150067735Y-98975841D01*
X150266613Y-99015400D01*
X150469387Y-99015400D01*
X150668265Y-98975841D01*
X150855604Y-98898243D01*
X151024204Y-98785587D01*
X151167587Y-98642204D01*
X151280243Y-98473604D01*
X151357841Y-98286265D01*
X151397400Y-98087387D01*
X151397400Y-97884613D01*
X151357841Y-97685735D01*
X151280243Y-97498396D01*
X151167587Y-97329796D01*
X151024204Y-97186413D01*
X150855604Y-97073757D01*
X150668265Y-96996159D01*
X150469387Y-96956600D01*
X150266613Y-96956600D01*
X150067735Y-96996159D01*
X149880396Y-97073757D01*
X149711796Y-97186413D01*
X149568413Y-97329796D01*
X149455757Y-97498396D01*
X149422121Y-97579600D01*
X140589000Y-97579600D01*
X140589000Y-94427736D01*
X144694337Y-90322400D01*
X149422121Y-90322400D01*
X149455757Y-90403604D01*
X149568413Y-90572204D01*
X149711796Y-90715587D01*
X149880396Y-90828243D01*
X150067735Y-90905841D01*
X150266613Y-90945400D01*
X150469387Y-90945400D01*
X150668265Y-90905841D01*
X150855604Y-90828243D01*
X151024204Y-90715587D01*
X151167587Y-90572204D01*
X151280243Y-90403604D01*
X151357841Y-90216265D01*
X151397400Y-90017387D01*
X151397400Y-89814613D01*
X151357841Y-89615735D01*
X151280243Y-89428396D01*
X151167587Y-89259796D01*
X151024204Y-89116413D01*
X150855604Y-89003757D01*
X150668265Y-88926159D01*
X150469387Y-88886600D01*
X150266613Y-88886600D01*
X150067735Y-88926159D01*
X149880396Y-89003757D01*
X149711796Y-89116413D01*
X149568413Y-89259796D01*
X149455757Y-89428396D01*
X149422121Y-89509600D01*
X144545952Y-89509600D01*
X144525999Y-89507635D01*
X144506046Y-89509600D01*
X144506040Y-89509600D01*
X144454335Y-89514693D01*
X144446331Y-89515481D01*
X144369725Y-89538719D01*
X144299124Y-89576456D01*
X144273746Y-89597283D01*
X144252745Y-89614518D01*
X144252740Y-89614523D01*
X144237242Y-89627242D01*
X144224523Y-89642740D01*
X140589000Y-93278264D01*
X140589000Y-80733900D01*
X141729249Y-80733900D01*
X141729249Y-82514000D01*
X141734644Y-82568772D01*
X141750620Y-82621439D01*
X141776564Y-82669977D01*
X141811479Y-82712521D01*
X141854023Y-82747436D01*
X141902561Y-82773380D01*
X141955228Y-82789356D01*
X142010000Y-82794751D01*
X145010000Y-82794751D01*
X145064772Y-82789356D01*
X145117439Y-82773380D01*
X145165977Y-82747436D01*
X145208521Y-82712521D01*
X145243436Y-82669977D01*
X145269380Y-82621439D01*
X145285356Y-82568772D01*
X145290751Y-82514000D01*
X145290751Y-78014000D01*
X145285356Y-77959228D01*
X145269380Y-77906561D01*
X145243436Y-77858023D01*
X145208521Y-77815479D01*
X145165977Y-77780564D01*
X145117439Y-77754620D01*
X145064772Y-77738644D01*
X145010000Y-77733249D01*
X142010000Y-77733249D01*
X141955228Y-77738644D01*
X141902561Y-77754620D01*
X141854023Y-77780564D01*
X141811479Y-77815479D01*
X141776564Y-77858023D01*
X141750620Y-77906561D01*
X141734644Y-77959228D01*
X141729249Y-78014000D01*
X141729249Y-78270100D01*
X140589000Y-78270100D01*
X140589000Y-77597000D01*
X153289000Y-77597000D01*
X153289000Y-133731000D01*
G04 #@! TA.AperFunction,Conductor*
D21*
G36*
X153289000Y-133731000D02*
G01*
X140589000Y-133731000D01*
X140589000Y-131533900D01*
X141221249Y-131533900D01*
X141221249Y-133314000D01*
X141226644Y-133368772D01*
X141242620Y-133421439D01*
X141268564Y-133469977D01*
X141303479Y-133512521D01*
X141346023Y-133547436D01*
X141394561Y-133573380D01*
X141447228Y-133589356D01*
X141502000Y-133594751D01*
X144502000Y-133594751D01*
X144556772Y-133589356D01*
X144609439Y-133573380D01*
X144657977Y-133547436D01*
X144700521Y-133512521D01*
X144735436Y-133469977D01*
X144761380Y-133421439D01*
X144777356Y-133368772D01*
X144782751Y-133314000D01*
X144782751Y-128814000D01*
X144777356Y-128759228D01*
X144761380Y-128706561D01*
X144735436Y-128658023D01*
X144700521Y-128615479D01*
X144657977Y-128580564D01*
X144609439Y-128554620D01*
X144556772Y-128538644D01*
X144502000Y-128533249D01*
X141502000Y-128533249D01*
X141447228Y-128538644D01*
X141394561Y-128554620D01*
X141346023Y-128580564D01*
X141303479Y-128615479D01*
X141268564Y-128658023D01*
X141242620Y-128706561D01*
X141226644Y-128759228D01*
X141221249Y-128814000D01*
X141221249Y-129324100D01*
X140589000Y-129324100D01*
X140589000Y-117500400D01*
X141338617Y-117500400D01*
X141356564Y-117533977D01*
X141391479Y-117576521D01*
X141434023Y-117611436D01*
X141482561Y-117637380D01*
X141535228Y-117653356D01*
X141590000Y-117658751D01*
X142890000Y-117658751D01*
X142944772Y-117653356D01*
X142997439Y-117637380D01*
X143045977Y-117611436D01*
X143088521Y-117576521D01*
X143123436Y-117533977D01*
X143149380Y-117485439D01*
X143165356Y-117432772D01*
X143166333Y-117422857D01*
X143224275Y-117405281D01*
X143294876Y-117367544D01*
X143356758Y-117316758D01*
X143407544Y-117254876D01*
X143445281Y-117184275D01*
X143468519Y-117107668D01*
X143476366Y-117028000D01*
X143468519Y-116948332D01*
X143468492Y-116948244D01*
X144159261Y-116257476D01*
X144174758Y-116244758D01*
X144187477Y-116229260D01*
X144187482Y-116229255D01*
X144210439Y-116201281D01*
X144225544Y-116182876D01*
X144263281Y-116112275D01*
X144286519Y-116035668D01*
X144292400Y-115975960D01*
X144292400Y-115975953D01*
X144294365Y-115956000D01*
X144292400Y-115936047D01*
X144292400Y-113700862D01*
X144343439Y-113685380D01*
X144391977Y-113659436D01*
X144434521Y-113624521D01*
X144469436Y-113581977D01*
X144495380Y-113533439D01*
X144511356Y-113480772D01*
X144516751Y-113426000D01*
X144516751Y-112478565D01*
X145897601Y-113859416D01*
X145897600Y-121392047D01*
X145895635Y-121412000D01*
X145897600Y-121431953D01*
X145897600Y-121431959D01*
X145903481Y-121491667D01*
X145926719Y-121568274D01*
X145964456Y-121638875D01*
X146015242Y-121700758D01*
X146030746Y-121713482D01*
X149497375Y-125180111D01*
X149455757Y-125242396D01*
X149378159Y-125429735D01*
X149338600Y-125628613D01*
X149338600Y-125831387D01*
X149378159Y-126030265D01*
X149455757Y-126217604D01*
X149568413Y-126386204D01*
X149711796Y-126529587D01*
X149880396Y-126642243D01*
X150067735Y-126719841D01*
X150266613Y-126759400D01*
X150469387Y-126759400D01*
X150668265Y-126719841D01*
X150855604Y-126642243D01*
X151024204Y-126529587D01*
X151167587Y-126386204D01*
X151280243Y-126217604D01*
X151357841Y-126030265D01*
X151397400Y-125831387D01*
X151397400Y-125628613D01*
X151357841Y-125429735D01*
X151280243Y-125242396D01*
X151167587Y-125073796D01*
X151024204Y-124930413D01*
X150855604Y-124817757D01*
X150668265Y-124740159D01*
X150469387Y-124700600D01*
X150266613Y-124700600D01*
X150183808Y-124717071D01*
X146710400Y-121243664D01*
X146710400Y-113772040D01*
X146707396Y-113741537D01*
X146712365Y-113691078D01*
X146704519Y-113611409D01*
X146681281Y-113534803D01*
X146643543Y-113464202D01*
X146605482Y-113417823D01*
X144420403Y-111232745D01*
X144407680Y-111217242D01*
X144345798Y-111166456D01*
X144275197Y-111128719D01*
X144198590Y-111105481D01*
X144138882Y-111099600D01*
X144138875Y-111099600D01*
X144118922Y-111097635D01*
X144098969Y-111099600D01*
X143678336Y-111099600D01*
X143083482Y-110504746D01*
X143070758Y-110489242D01*
X143008876Y-110438456D01*
X143002751Y-110435182D01*
X143002751Y-110378000D01*
X142997356Y-110323228D01*
X142981380Y-110270561D01*
X142955436Y-110222023D01*
X142920521Y-110179479D01*
X142877977Y-110144564D01*
X142829439Y-110118620D01*
X142776772Y-110102644D01*
X142722000Y-110097249D01*
X141822000Y-110097249D01*
X141767228Y-110102644D01*
X141714561Y-110118620D01*
X141666023Y-110144564D01*
X141623479Y-110179479D01*
X141588564Y-110222023D01*
X141562620Y-110270561D01*
X141546644Y-110323228D01*
X141541249Y-110378000D01*
X141541249Y-111178000D01*
X141546644Y-111232772D01*
X141562620Y-111285439D01*
X141579601Y-111317208D01*
X141579601Y-111851138D01*
X141528561Y-111866620D01*
X141480023Y-111892564D01*
X141437479Y-111927479D01*
X141402564Y-111970023D01*
X141376620Y-112018561D01*
X141360644Y-112071228D01*
X141355249Y-112126000D01*
X141355249Y-113426000D01*
X141360644Y-113480772D01*
X141376620Y-113533439D01*
X141402564Y-113581977D01*
X141437479Y-113624521D01*
X141480023Y-113659436D01*
X141528561Y-113685380D01*
X141581228Y-113701356D01*
X141636000Y-113706751D01*
X142336000Y-113706751D01*
X142390772Y-113701356D01*
X142443439Y-113685380D01*
X142491977Y-113659436D01*
X142534521Y-113624521D01*
X142569436Y-113581977D01*
X142595380Y-113533439D01*
X142611356Y-113480772D01*
X142616751Y-113426000D01*
X142616751Y-112126000D01*
X142611356Y-112071228D01*
X142595380Y-112018561D01*
X142569436Y-111970023D01*
X142534521Y-111927479D01*
X142491977Y-111892564D01*
X142443439Y-111866620D01*
X142392400Y-111851138D01*
X142392400Y-111458751D01*
X142722000Y-111458751D01*
X142776772Y-111453356D01*
X142829439Y-111437380D01*
X142853685Y-111424421D01*
X143208518Y-111779254D01*
X143221242Y-111794758D01*
X143283124Y-111845544D01*
X143353725Y-111883281D01*
X143381581Y-111891731D01*
X143380023Y-111892564D01*
X143337479Y-111927479D01*
X143302564Y-111970023D01*
X143276620Y-112018561D01*
X143260644Y-112071228D01*
X143255249Y-112126000D01*
X143255249Y-113426000D01*
X143260644Y-113480772D01*
X143276620Y-113533439D01*
X143302564Y-113581977D01*
X143337479Y-113624521D01*
X143380023Y-113659436D01*
X143428561Y-113685380D01*
X143479601Y-113700862D01*
X143479600Y-115787663D01*
X142870015Y-116397249D01*
X141590000Y-116397249D01*
X141535228Y-116402644D01*
X141482561Y-116418620D01*
X141434023Y-116444564D01*
X141391479Y-116479479D01*
X141356564Y-116522023D01*
X141330620Y-116570561D01*
X141314644Y-116623228D01*
X141309249Y-116678000D01*
X141309249Y-116687600D01*
X140589000Y-116687600D01*
X140589000Y-115534400D01*
X141315138Y-115534400D01*
X141330620Y-115585439D01*
X141356564Y-115633977D01*
X141391479Y-115676521D01*
X141434023Y-115711436D01*
X141482561Y-115737380D01*
X141535228Y-115753356D01*
X141590000Y-115758751D01*
X142890000Y-115758751D01*
X142944772Y-115753356D01*
X142997439Y-115737380D01*
X143045977Y-115711436D01*
X143088521Y-115676521D01*
X143123436Y-115633977D01*
X143149380Y-115585439D01*
X143165356Y-115532772D01*
X143170751Y-115478000D01*
X143170751Y-114778000D01*
X143165356Y-114723228D01*
X143149380Y-114670561D01*
X143123436Y-114622023D01*
X143088521Y-114579479D01*
X143045977Y-114544564D01*
X142997439Y-114518620D01*
X142944772Y-114502644D01*
X142890000Y-114497249D01*
X141590000Y-114497249D01*
X141535228Y-114502644D01*
X141482561Y-114518620D01*
X141434023Y-114544564D01*
X141391479Y-114579479D01*
X141356564Y-114622023D01*
X141330620Y-114670561D01*
X141315138Y-114721600D01*
X140589000Y-114721600D01*
X140589000Y-109078000D01*
X141183928Y-109078000D01*
X141196188Y-109202482D01*
X141232498Y-109322180D01*
X141291463Y-109432494D01*
X141370815Y-109529185D01*
X141467506Y-109608537D01*
X141577820Y-109667502D01*
X141697518Y-109703812D01*
X141822000Y-109716072D01*
X141986250Y-109713000D01*
X142145000Y-109554250D01*
X142145000Y-108805000D01*
X142399000Y-108805000D01*
X142399000Y-109554250D01*
X142557750Y-109713000D01*
X142722000Y-109716072D01*
X142846482Y-109703812D01*
X142966180Y-109667502D01*
X143076494Y-109608537D01*
X143173185Y-109529185D01*
X143252537Y-109432494D01*
X143311502Y-109322180D01*
X143347812Y-109202482D01*
X143360072Y-109078000D01*
X143357000Y-108963750D01*
X143198250Y-108805000D01*
X142399000Y-108805000D01*
X142145000Y-108805000D01*
X141345750Y-108805000D01*
X141187000Y-108963750D01*
X141183928Y-109078000D01*
X140589000Y-109078000D01*
X140589000Y-107330000D01*
X141063928Y-107330000D01*
X141076188Y-107454482D01*
X141112498Y-107574180D01*
X141171463Y-107684494D01*
X141250815Y-107781185D01*
X141344897Y-107858396D01*
X141291463Y-107923506D01*
X141232498Y-108033820D01*
X141196188Y-108153518D01*
X141183928Y-108278000D01*
X141187000Y-108392250D01*
X141345750Y-108551000D01*
X142145000Y-108551000D01*
X142145000Y-108531000D01*
X142399000Y-108531000D01*
X142399000Y-108551000D01*
X143198250Y-108551000D01*
X143357000Y-108392250D01*
X143360072Y-108278000D01*
X143347812Y-108153518D01*
X143311502Y-108033820D01*
X143252537Y-107923506D01*
X143173185Y-107826815D01*
X143076494Y-107747463D01*
X142966180Y-107688498D01*
X142935389Y-107679158D01*
X142991502Y-107574180D01*
X143027812Y-107454482D01*
X143040072Y-107330000D01*
X143037000Y-106965750D01*
X142878250Y-106807000D01*
X142179000Y-106807000D01*
X142179000Y-106827000D01*
X141925000Y-106827000D01*
X141925000Y-106807000D01*
X141225750Y-106807000D01*
X141067000Y-106965750D01*
X141063928Y-107330000D01*
X140589000Y-107330000D01*
X140589000Y-106030000D01*
X141063928Y-106030000D01*
X141067000Y-106394250D01*
X141225750Y-106553000D01*
X141925000Y-106553000D01*
X141925000Y-105553750D01*
X142179000Y-105553750D01*
X142179000Y-106553000D01*
X142878250Y-106553000D01*
X143037000Y-106394250D01*
X143040072Y-106030000D01*
X143321249Y-106030000D01*
X143321249Y-107330000D01*
X143326644Y-107384772D01*
X143342620Y-107437439D01*
X143368564Y-107485977D01*
X143403479Y-107528521D01*
X143446023Y-107563436D01*
X143494561Y-107589380D01*
X143547228Y-107605356D01*
X143602000Y-107610751D01*
X143865601Y-107610751D01*
X143865600Y-109047249D01*
X143822000Y-109047249D01*
X143767228Y-109052644D01*
X143714561Y-109068620D01*
X143666023Y-109094564D01*
X143623479Y-109129479D01*
X143588564Y-109172023D01*
X143562620Y-109220561D01*
X143546644Y-109273228D01*
X143541249Y-109328000D01*
X143541249Y-110128000D01*
X143546644Y-110182772D01*
X143562620Y-110235439D01*
X143588564Y-110283977D01*
X143623479Y-110326521D01*
X143666023Y-110361436D01*
X143714561Y-110387380D01*
X143767228Y-110403356D01*
X143822000Y-110408751D01*
X144378015Y-110408751D01*
X149961601Y-115992338D01*
X149961601Y-117865249D01*
X148868000Y-117865249D01*
X148813228Y-117870644D01*
X148760561Y-117886620D01*
X148712023Y-117912564D01*
X148669479Y-117947479D01*
X148634564Y-117990023D01*
X148608620Y-118038561D01*
X148592644Y-118091228D01*
X148587249Y-118146000D01*
X148587249Y-122646000D01*
X148592644Y-122700772D01*
X148608620Y-122753439D01*
X148634564Y-122801977D01*
X148669479Y-122844521D01*
X148712023Y-122879436D01*
X148760561Y-122905380D01*
X148813228Y-122921356D01*
X148868000Y-122926751D01*
X151868000Y-122926751D01*
X151922772Y-122921356D01*
X151975439Y-122905380D01*
X152023977Y-122879436D01*
X152066521Y-122844521D01*
X152101436Y-122801977D01*
X152127380Y-122753439D01*
X152143356Y-122700772D01*
X152148751Y-122646000D01*
X152148751Y-118146000D01*
X152143356Y-118091228D01*
X152127380Y-118038561D01*
X152101436Y-117990023D01*
X152066521Y-117947479D01*
X152023977Y-117912564D01*
X151975439Y-117886620D01*
X151922772Y-117870644D01*
X151868000Y-117865249D01*
X150774400Y-117865249D01*
X150774400Y-115843953D01*
X150776365Y-115824000D01*
X150774400Y-115804047D01*
X150774400Y-115804040D01*
X150768519Y-115744332D01*
X150745281Y-115667725D01*
X150707544Y-115597124D01*
X150686717Y-115571746D01*
X150669482Y-115550745D01*
X150669477Y-115550740D01*
X150656758Y-115535242D01*
X150641260Y-115522523D01*
X145002751Y-109884015D01*
X145002751Y-109328000D01*
X144997356Y-109273228D01*
X144981380Y-109220561D01*
X144955436Y-109172023D01*
X144920521Y-109129479D01*
X144877977Y-109094564D01*
X144829439Y-109068620D01*
X144776772Y-109052644D01*
X144722000Y-109047249D01*
X144678400Y-109047249D01*
X144678400Y-108676000D01*
X147721928Y-108676000D01*
X147734188Y-108800482D01*
X147770498Y-108920180D01*
X147829463Y-109030494D01*
X147908815Y-109127185D01*
X148005506Y-109206537D01*
X148115820Y-109265502D01*
X148235518Y-109301812D01*
X148360000Y-109314072D01*
X149574250Y-109311000D01*
X149733000Y-109152250D01*
X149733000Y-106553000D01*
X149987000Y-106553000D01*
X149987000Y-109152250D01*
X150145750Y-109311000D01*
X151360000Y-109314072D01*
X151484482Y-109301812D01*
X151604180Y-109265502D01*
X151714494Y-109206537D01*
X151811185Y-109127185D01*
X151890537Y-109030494D01*
X151949502Y-108920180D01*
X151985812Y-108800482D01*
X151998072Y-108676000D01*
X151995000Y-106711750D01*
X151836250Y-106553000D01*
X149987000Y-106553000D01*
X149733000Y-106553000D01*
X147883750Y-106553000D01*
X147725000Y-106711750D01*
X147721928Y-108676000D01*
X144678400Y-108676000D01*
X144678400Y-107019952D01*
X144680365Y-106999999D01*
X144678400Y-106980046D01*
X144678400Y-106980040D01*
X144672519Y-106920332D01*
X144649281Y-106843725D01*
X144611544Y-106773124D01*
X144582751Y-106738040D01*
X144582751Y-106030000D01*
X144577356Y-105975228D01*
X144561380Y-105922561D01*
X144535436Y-105874023D01*
X144500521Y-105831479D01*
X144457977Y-105796564D01*
X144409439Y-105770620D01*
X144356772Y-105754644D01*
X144302000Y-105749249D01*
X143602000Y-105749249D01*
X143547228Y-105754644D01*
X143494561Y-105770620D01*
X143446023Y-105796564D01*
X143403479Y-105831479D01*
X143368564Y-105874023D01*
X143342620Y-105922561D01*
X143326644Y-105975228D01*
X143321249Y-106030000D01*
X143040072Y-106030000D01*
X143027812Y-105905518D01*
X142991502Y-105785820D01*
X142932537Y-105675506D01*
X142853185Y-105578815D01*
X142756494Y-105499463D01*
X142646180Y-105440498D01*
X142526482Y-105404188D01*
X142402000Y-105391928D01*
X142337750Y-105395000D01*
X142179000Y-105553750D01*
X141925000Y-105553750D01*
X141766250Y-105395000D01*
X141702000Y-105391928D01*
X141577518Y-105404188D01*
X141457820Y-105440498D01*
X141347506Y-105499463D01*
X141250815Y-105578815D01*
X141171463Y-105675506D01*
X141112498Y-105785820D01*
X141076188Y-105905518D01*
X141063928Y-106030000D01*
X140589000Y-106030000D01*
X140589000Y-104176000D01*
X147721928Y-104176000D01*
X147725000Y-106140250D01*
X147883750Y-106299000D01*
X149733000Y-106299000D01*
X149733000Y-103699750D01*
X149987000Y-103699750D01*
X149987000Y-106299000D01*
X151836250Y-106299000D01*
X151995000Y-106140250D01*
X151998072Y-104176000D01*
X151985812Y-104051518D01*
X151949502Y-103931820D01*
X151890537Y-103821506D01*
X151811185Y-103724815D01*
X151714494Y-103645463D01*
X151604180Y-103586498D01*
X151484482Y-103550188D01*
X151360000Y-103537928D01*
X150145750Y-103541000D01*
X149987000Y-103699750D01*
X149733000Y-103699750D01*
X149574250Y-103541000D01*
X148360000Y-103537928D01*
X148235518Y-103550188D01*
X148115820Y-103586498D01*
X148005506Y-103645463D01*
X147908815Y-103724815D01*
X147829463Y-103821506D01*
X147770498Y-103931820D01*
X147734188Y-104051518D01*
X147721928Y-104176000D01*
X140589000Y-104176000D01*
X140589000Y-98392400D01*
X149422121Y-98392400D01*
X149455757Y-98473604D01*
X149568413Y-98642204D01*
X149711796Y-98785587D01*
X149880396Y-98898243D01*
X150067735Y-98975841D01*
X150266613Y-99015400D01*
X150469387Y-99015400D01*
X150668265Y-98975841D01*
X150855604Y-98898243D01*
X151024204Y-98785587D01*
X151167587Y-98642204D01*
X151280243Y-98473604D01*
X151357841Y-98286265D01*
X151397400Y-98087387D01*
X151397400Y-97884613D01*
X151357841Y-97685735D01*
X151280243Y-97498396D01*
X151167587Y-97329796D01*
X151024204Y-97186413D01*
X150855604Y-97073757D01*
X150668265Y-96996159D01*
X150469387Y-96956600D01*
X150266613Y-96956600D01*
X150067735Y-96996159D01*
X149880396Y-97073757D01*
X149711796Y-97186413D01*
X149568413Y-97329796D01*
X149455757Y-97498396D01*
X149422121Y-97579600D01*
X140589000Y-97579600D01*
X140589000Y-94427736D01*
X144694337Y-90322400D01*
X149422121Y-90322400D01*
X149455757Y-90403604D01*
X149568413Y-90572204D01*
X149711796Y-90715587D01*
X149880396Y-90828243D01*
X150067735Y-90905841D01*
X150266613Y-90945400D01*
X150469387Y-90945400D01*
X150668265Y-90905841D01*
X150855604Y-90828243D01*
X151024204Y-90715587D01*
X151167587Y-90572204D01*
X151280243Y-90403604D01*
X151357841Y-90216265D01*
X151397400Y-90017387D01*
X151397400Y-89814613D01*
X151357841Y-89615735D01*
X151280243Y-89428396D01*
X151167587Y-89259796D01*
X151024204Y-89116413D01*
X150855604Y-89003757D01*
X150668265Y-88926159D01*
X150469387Y-88886600D01*
X150266613Y-88886600D01*
X150067735Y-88926159D01*
X149880396Y-89003757D01*
X149711796Y-89116413D01*
X149568413Y-89259796D01*
X149455757Y-89428396D01*
X149422121Y-89509600D01*
X144545952Y-89509600D01*
X144525999Y-89507635D01*
X144506046Y-89509600D01*
X144506040Y-89509600D01*
X144454335Y-89514693D01*
X144446331Y-89515481D01*
X144369725Y-89538719D01*
X144299124Y-89576456D01*
X144273746Y-89597283D01*
X144252745Y-89614518D01*
X144252740Y-89614523D01*
X144237242Y-89627242D01*
X144224523Y-89642740D01*
X140589000Y-93278264D01*
X140589000Y-80733900D01*
X141729249Y-80733900D01*
X141729249Y-82514000D01*
X141734644Y-82568772D01*
X141750620Y-82621439D01*
X141776564Y-82669977D01*
X141811479Y-82712521D01*
X141854023Y-82747436D01*
X141902561Y-82773380D01*
X141955228Y-82789356D01*
X142010000Y-82794751D01*
X145010000Y-82794751D01*
X145064772Y-82789356D01*
X145117439Y-82773380D01*
X145165977Y-82747436D01*
X145208521Y-82712521D01*
X145243436Y-82669977D01*
X145269380Y-82621439D01*
X145285356Y-82568772D01*
X145290751Y-82514000D01*
X145290751Y-78014000D01*
X145285356Y-77959228D01*
X145269380Y-77906561D01*
X145243436Y-77858023D01*
X145208521Y-77815479D01*
X145165977Y-77780564D01*
X145117439Y-77754620D01*
X145064772Y-77738644D01*
X145010000Y-77733249D01*
X142010000Y-77733249D01*
X141955228Y-77738644D01*
X141902561Y-77754620D01*
X141854023Y-77780564D01*
X141811479Y-77815479D01*
X141776564Y-77858023D01*
X141750620Y-77906561D01*
X141734644Y-77959228D01*
X141729249Y-78014000D01*
X141729249Y-78270100D01*
X140589000Y-78270100D01*
X140589000Y-77597000D01*
X153289000Y-77597000D01*
X153289000Y-133731000D01*
G37*
G04 #@! TD.AperFunction*
M02*
