G04 #@! TF.GenerationSoftware,KiCad,Pcbnew,(5.1.10-1-10_14)*
G04 #@! TF.CreationDate,2021-09-30T23:38:58-04:00*
G04 #@! TF.ProjectId,lv_bms_tester_board,6c765f62-6d73-45f7-9465-737465725f62,rev?*
G04 #@! TF.SameCoordinates,Original*
G04 #@! TF.FileFunction,Copper,L4,Bot*
G04 #@! TF.FilePolarity,Positive*
%FSLAX46Y46*%
G04 Gerber Fmt 4.6, Leading zero omitted, Abs format (unit mm)*
G04 Created by KiCad (PCBNEW (5.1.10-1-10_14)) date 2021-09-30 23:38:58*
%MOMM*%
%LPD*%
G01*
G04 APERTURE LIST*
G04 #@! TA.AperFunction,ViaPad*
%ADD10C,0.609600*%
G04 #@! TD*
G04 #@! TA.AperFunction,Conductor*
%ADD11C,0.254000*%
G04 #@! TD*
G04 #@! TA.AperFunction,Conductor*
%ADD12C,0.100000*%
G04 #@! TD*
G04 APERTURE END LIST*
G04 #@! TA.AperFunction,ComponentPad*
G36*
G01*
X115360000Y-85840000D02*
X115360000Y-84740000D01*
G75*
G02*
X115910000Y-84190000I550000J0D01*
G01*
X117010000Y-84190000D01*
G75*
G02*
X117560000Y-84740000I0J-550000D01*
G01*
X117560000Y-85840000D01*
G75*
G02*
X117010000Y-86390000I-550000J0D01*
G01*
X115910000Y-86390000D01*
G75*
G02*
X115360000Y-85840000I0J550000D01*
G01*
G37*
G04 #@! TD.AperFunction*
G04 #@! TA.AperFunction,ComponentPad*
G36*
G01*
X117900000Y-85840000D02*
X117900000Y-84740000D01*
G75*
G02*
X118450000Y-84190000I550000J0D01*
G01*
X119550000Y-84190000D01*
G75*
G02*
X120100000Y-84740000I0J-550000D01*
G01*
X120100000Y-85840000D01*
G75*
G02*
X119550000Y-86390000I-550000J0D01*
G01*
X118450000Y-86390000D01*
G75*
G02*
X117900000Y-85840000I0J550000D01*
G01*
G37*
G04 #@! TD.AperFunction*
G04 #@! TA.AperFunction,ComponentPad*
G36*
G01*
X120440000Y-85840000D02*
X120440000Y-84740000D01*
G75*
G02*
X120990000Y-84190000I550000J0D01*
G01*
X122090000Y-84190000D01*
G75*
G02*
X122640000Y-84740000I0J-550000D01*
G01*
X122640000Y-85840000D01*
G75*
G02*
X122090000Y-86390000I-550000J0D01*
G01*
X120990000Y-86390000D01*
G75*
G02*
X120440000Y-85840000I0J550000D01*
G01*
G37*
G04 #@! TD.AperFunction*
G04 #@! TA.AperFunction,ComponentPad*
G36*
G01*
X120440000Y-80760000D02*
X120440000Y-79660000D01*
G75*
G02*
X120990000Y-79110000I550000J0D01*
G01*
X122090000Y-79110000D01*
G75*
G02*
X122640000Y-79660000I0J-550000D01*
G01*
X122640000Y-80760000D01*
G75*
G02*
X122090000Y-81310000I-550000J0D01*
G01*
X120990000Y-81310000D01*
G75*
G02*
X120440000Y-80760000I0J550000D01*
G01*
G37*
G04 #@! TD.AperFunction*
G04 #@! TA.AperFunction,ComponentPad*
G36*
G01*
X117900000Y-80760000D02*
X117900000Y-79660000D01*
G75*
G02*
X118450000Y-79110000I550000J0D01*
G01*
X119550000Y-79110000D01*
G75*
G02*
X120100000Y-79660000I0J-550000D01*
G01*
X120100000Y-80760000D01*
G75*
G02*
X119550000Y-81310000I-550000J0D01*
G01*
X118450000Y-81310000D01*
G75*
G02*
X117900000Y-80760000I0J550000D01*
G01*
G37*
G04 #@! TD.AperFunction*
G04 #@! TA.AperFunction,ComponentPad*
G36*
G01*
X115360000Y-80760000D02*
X115360000Y-79660000D01*
G75*
G02*
X115910000Y-79110000I550000J0D01*
G01*
X117010000Y-79110000D01*
G75*
G02*
X117560000Y-79660000I0J-550000D01*
G01*
X117560000Y-80760000D01*
G75*
G02*
X117010000Y-81310000I-550000J0D01*
G01*
X115910000Y-81310000D01*
G75*
G02*
X115360000Y-80760000I0J550000D01*
G01*
G37*
G04 #@! TD.AperFunction*
G04 #@! TA.AperFunction,ComponentPad*
G36*
G01*
X115860000Y-131590000D02*
X115860000Y-130490000D01*
G75*
G02*
X116410000Y-129940000I550000J0D01*
G01*
X117510000Y-129940000D01*
G75*
G02*
X118060000Y-130490000I0J-550000D01*
G01*
X118060000Y-131590000D01*
G75*
G02*
X117510000Y-132140000I-550000J0D01*
G01*
X116410000Y-132140000D01*
G75*
G02*
X115860000Y-131590000I0J550000D01*
G01*
G37*
G04 #@! TD.AperFunction*
G04 #@! TA.AperFunction,ComponentPad*
G36*
G01*
X118400000Y-131590000D02*
X118400000Y-130490000D01*
G75*
G02*
X118950000Y-129940000I550000J0D01*
G01*
X120050000Y-129940000D01*
G75*
G02*
X120600000Y-130490000I0J-550000D01*
G01*
X120600000Y-131590000D01*
G75*
G02*
X120050000Y-132140000I-550000J0D01*
G01*
X118950000Y-132140000D01*
G75*
G02*
X118400000Y-131590000I0J550000D01*
G01*
G37*
G04 #@! TD.AperFunction*
G04 #@! TA.AperFunction,ComponentPad*
G36*
G01*
X120940000Y-131590000D02*
X120940000Y-130490000D01*
G75*
G02*
X121490000Y-129940000I550000J0D01*
G01*
X122590000Y-129940000D01*
G75*
G02*
X123140000Y-130490000I0J-550000D01*
G01*
X123140000Y-131590000D01*
G75*
G02*
X122590000Y-132140000I-550000J0D01*
G01*
X121490000Y-132140000D01*
G75*
G02*
X120940000Y-131590000I0J550000D01*
G01*
G37*
G04 #@! TD.AperFunction*
G04 #@! TA.AperFunction,ComponentPad*
G36*
G01*
X120940000Y-126510000D02*
X120940000Y-125410000D01*
G75*
G02*
X121490000Y-124860000I550000J0D01*
G01*
X122590000Y-124860000D01*
G75*
G02*
X123140000Y-125410000I0J-550000D01*
G01*
X123140000Y-126510000D01*
G75*
G02*
X122590000Y-127060000I-550000J0D01*
G01*
X121490000Y-127060000D01*
G75*
G02*
X120940000Y-126510000I0J550000D01*
G01*
G37*
G04 #@! TD.AperFunction*
G04 #@! TA.AperFunction,ComponentPad*
G36*
G01*
X118400000Y-126510000D02*
X118400000Y-125410000D01*
G75*
G02*
X118950000Y-124860000I550000J0D01*
G01*
X120050000Y-124860000D01*
G75*
G02*
X120600000Y-125410000I0J-550000D01*
G01*
X120600000Y-126510000D01*
G75*
G02*
X120050000Y-127060000I-550000J0D01*
G01*
X118950000Y-127060000D01*
G75*
G02*
X118400000Y-126510000I0J550000D01*
G01*
G37*
G04 #@! TD.AperFunction*
G04 #@! TA.AperFunction,ComponentPad*
G36*
G01*
X115860000Y-126510000D02*
X115860000Y-125410000D01*
G75*
G02*
X116410000Y-124860000I550000J0D01*
G01*
X117510000Y-124860000D01*
G75*
G02*
X118060000Y-125410000I0J-550000D01*
G01*
X118060000Y-126510000D01*
G75*
G02*
X117510000Y-127060000I-550000J0D01*
G01*
X116410000Y-127060000D01*
G75*
G02*
X115860000Y-126510000I0J550000D01*
G01*
G37*
G04 #@! TD.AperFunction*
D10*
X100750000Y-96000000D03*
X105830000Y-98540000D03*
X110910000Y-96000000D03*
X126150000Y-98540000D03*
X131230000Y-96000000D03*
X136310000Y-98540000D03*
X100750000Y-101080000D03*
X105830000Y-103620000D03*
X110910000Y-101080000D03*
X126150000Y-103620000D03*
X131230000Y-101080000D03*
X136310000Y-103620000D03*
X100750000Y-106160000D03*
X105830000Y-108700000D03*
X110910000Y-106160000D03*
X126150000Y-108700000D03*
X131230000Y-106160000D03*
X136310000Y-108700000D03*
X100750000Y-111240000D03*
X105830000Y-113780000D03*
X110910000Y-111240000D03*
X126150000Y-113780000D03*
X131230000Y-111240000D03*
X136310000Y-113780000D03*
X100754000Y-118632000D03*
X105834000Y-121172000D03*
X110914000Y-118632000D03*
X126154000Y-121172000D03*
X131234000Y-118632000D03*
X136314000Y-121172000D03*
X105834000Y-131332000D03*
X110914000Y-128792000D03*
X126154000Y-131332000D03*
X131234000Y-128792000D03*
X136314000Y-131332000D03*
X126154000Y-126252000D03*
X110914000Y-123712000D03*
X100754000Y-123712000D03*
X105834000Y-126252000D03*
X131234000Y-123712000D03*
X136314000Y-126252000D03*
X106850000Y-82818000D03*
X111930000Y-80278000D03*
X127170000Y-82818000D03*
X132250000Y-80278000D03*
X137330000Y-82818000D03*
X106850000Y-92978000D03*
X111930000Y-90438000D03*
X127170000Y-92978000D03*
X132250000Y-90438000D03*
X101770000Y-90438000D03*
X137330000Y-92978000D03*
X127170000Y-87898000D03*
X111930000Y-85358000D03*
X101770000Y-85358000D03*
X106850000Y-87898000D03*
X132250000Y-85358000D03*
X137330000Y-87898000D03*
D11*
X139573000Y-93853000D02*
X99187000Y-93853000D01*
X99187000Y-86390000D01*
X114721928Y-86390000D01*
X114734188Y-86514482D01*
X114770498Y-86634180D01*
X114829463Y-86744494D01*
X114908815Y-86841185D01*
X115005506Y-86920537D01*
X115115820Y-86979502D01*
X115235518Y-87015812D01*
X115360000Y-87028072D01*
X116174250Y-87025000D01*
X116333000Y-86866250D01*
X116333000Y-85417000D01*
X116587000Y-85417000D01*
X116587000Y-86866250D01*
X116745750Y-87025000D01*
X117560000Y-87028072D01*
X117684482Y-87015812D01*
X117730000Y-87002004D01*
X117775518Y-87015812D01*
X117900000Y-87028072D01*
X118714250Y-87025000D01*
X118873000Y-86866250D01*
X118873000Y-85417000D01*
X119127000Y-85417000D01*
X119127000Y-86866250D01*
X119285750Y-87025000D01*
X120100000Y-87028072D01*
X120224482Y-87015812D01*
X120270000Y-87002004D01*
X120315518Y-87015812D01*
X120440000Y-87028072D01*
X121254250Y-87025000D01*
X121413000Y-86866250D01*
X121413000Y-85417000D01*
X121667000Y-85417000D01*
X121667000Y-86866250D01*
X121825750Y-87025000D01*
X122640000Y-87028072D01*
X122764482Y-87015812D01*
X122884180Y-86979502D01*
X122994494Y-86920537D01*
X123091185Y-86841185D01*
X123170537Y-86744494D01*
X123229502Y-86634180D01*
X123265812Y-86514482D01*
X123278072Y-86390000D01*
X123275000Y-85575750D01*
X123116250Y-85417000D01*
X121667000Y-85417000D01*
X121413000Y-85417000D01*
X119127000Y-85417000D01*
X118873000Y-85417000D01*
X116587000Y-85417000D01*
X116333000Y-85417000D01*
X114883750Y-85417000D01*
X114725000Y-85575750D01*
X114721928Y-86390000D01*
X99187000Y-86390000D01*
X99187000Y-84190000D01*
X114721928Y-84190000D01*
X114725000Y-85004250D01*
X114883750Y-85163000D01*
X116333000Y-85163000D01*
X116333000Y-83713750D01*
X116587000Y-83713750D01*
X116587000Y-85163000D01*
X118873000Y-85163000D01*
X118873000Y-83713750D01*
X119127000Y-83713750D01*
X119127000Y-85163000D01*
X121413000Y-85163000D01*
X121413000Y-83713750D01*
X121667000Y-83713750D01*
X121667000Y-85163000D01*
X123116250Y-85163000D01*
X123275000Y-85004250D01*
X123278072Y-84190000D01*
X123265812Y-84065518D01*
X123229502Y-83945820D01*
X123170537Y-83835506D01*
X123091185Y-83738815D01*
X122994494Y-83659463D01*
X122884180Y-83600498D01*
X122764482Y-83564188D01*
X122640000Y-83551928D01*
X121825750Y-83555000D01*
X121667000Y-83713750D01*
X121413000Y-83713750D01*
X121254250Y-83555000D01*
X120440000Y-83551928D01*
X120315518Y-83564188D01*
X120270000Y-83577996D01*
X120224482Y-83564188D01*
X120100000Y-83551928D01*
X119285750Y-83555000D01*
X119127000Y-83713750D01*
X118873000Y-83713750D01*
X118714250Y-83555000D01*
X117900000Y-83551928D01*
X117775518Y-83564188D01*
X117730000Y-83577996D01*
X117684482Y-83564188D01*
X117560000Y-83551928D01*
X116745750Y-83555000D01*
X116587000Y-83713750D01*
X116333000Y-83713750D01*
X116174250Y-83555000D01*
X115360000Y-83551928D01*
X115235518Y-83564188D01*
X115115820Y-83600498D01*
X115005506Y-83659463D01*
X114908815Y-83738815D01*
X114829463Y-83835506D01*
X114770498Y-83945820D01*
X114734188Y-84065518D01*
X114721928Y-84190000D01*
X99187000Y-84190000D01*
X99187000Y-79874141D01*
X100220600Y-79874141D01*
X100220600Y-80145859D01*
X100273610Y-80412356D01*
X100377592Y-80663391D01*
X100528550Y-80889316D01*
X100720684Y-81081450D01*
X100946609Y-81232408D01*
X101197644Y-81336390D01*
X101464141Y-81389400D01*
X101735859Y-81389400D01*
X102002356Y-81336390D01*
X102066067Y-81310000D01*
X114721928Y-81310000D01*
X114734188Y-81434482D01*
X114770498Y-81554180D01*
X114829463Y-81664494D01*
X114908815Y-81761185D01*
X115005506Y-81840537D01*
X115115820Y-81899502D01*
X115235518Y-81935812D01*
X115360000Y-81948072D01*
X116174250Y-81945000D01*
X116333000Y-81786250D01*
X116333000Y-80337000D01*
X116587000Y-80337000D01*
X116587000Y-81786250D01*
X116745750Y-81945000D01*
X117560000Y-81948072D01*
X117684482Y-81935812D01*
X117730000Y-81922004D01*
X117775518Y-81935812D01*
X117900000Y-81948072D01*
X118714250Y-81945000D01*
X118873000Y-81786250D01*
X118873000Y-80337000D01*
X119127000Y-80337000D01*
X119127000Y-81786250D01*
X119285750Y-81945000D01*
X120100000Y-81948072D01*
X120224482Y-81935812D01*
X120270000Y-81922004D01*
X120315518Y-81935812D01*
X120440000Y-81948072D01*
X121254250Y-81945000D01*
X121413000Y-81786250D01*
X121413000Y-80337000D01*
X121667000Y-80337000D01*
X121667000Y-81786250D01*
X121825750Y-81945000D01*
X122640000Y-81948072D01*
X122764482Y-81935812D01*
X122884180Y-81899502D01*
X122994494Y-81840537D01*
X123091185Y-81761185D01*
X123170537Y-81664494D01*
X123229502Y-81554180D01*
X123265812Y-81434482D01*
X123278072Y-81310000D01*
X123275000Y-80495750D01*
X123116250Y-80337000D01*
X121667000Y-80337000D01*
X121413000Y-80337000D01*
X119127000Y-80337000D01*
X118873000Y-80337000D01*
X116587000Y-80337000D01*
X116333000Y-80337000D01*
X114883750Y-80337000D01*
X114725000Y-80495750D01*
X114721928Y-81310000D01*
X102066067Y-81310000D01*
X102253391Y-81232408D01*
X102479316Y-81081450D01*
X102671450Y-80889316D01*
X102822408Y-80663391D01*
X102926390Y-80412356D01*
X102979400Y-80145859D01*
X102979400Y-79874141D01*
X102926390Y-79607644D01*
X102822408Y-79356609D01*
X102671450Y-79130684D01*
X102650766Y-79110000D01*
X114721928Y-79110000D01*
X114725000Y-79924250D01*
X114883750Y-80083000D01*
X116333000Y-80083000D01*
X116333000Y-78633750D01*
X116587000Y-78633750D01*
X116587000Y-80083000D01*
X118873000Y-80083000D01*
X118873000Y-78633750D01*
X119127000Y-78633750D01*
X119127000Y-80083000D01*
X121413000Y-80083000D01*
X121413000Y-78633750D01*
X121667000Y-78633750D01*
X121667000Y-80083000D01*
X123116250Y-80083000D01*
X123275000Y-79924250D01*
X123278072Y-79110000D01*
X123265812Y-78985518D01*
X123229502Y-78865820D01*
X123170537Y-78755506D01*
X123091185Y-78658815D01*
X122994494Y-78579463D01*
X122884180Y-78520498D01*
X122764482Y-78484188D01*
X122640000Y-78471928D01*
X121825750Y-78475000D01*
X121667000Y-78633750D01*
X121413000Y-78633750D01*
X121254250Y-78475000D01*
X120440000Y-78471928D01*
X120315518Y-78484188D01*
X120270000Y-78497996D01*
X120224482Y-78484188D01*
X120100000Y-78471928D01*
X119285750Y-78475000D01*
X119127000Y-78633750D01*
X118873000Y-78633750D01*
X118714250Y-78475000D01*
X117900000Y-78471928D01*
X117775518Y-78484188D01*
X117730000Y-78497996D01*
X117684482Y-78484188D01*
X117560000Y-78471928D01*
X116745750Y-78475000D01*
X116587000Y-78633750D01*
X116333000Y-78633750D01*
X116174250Y-78475000D01*
X115360000Y-78471928D01*
X115235518Y-78484188D01*
X115115820Y-78520498D01*
X115005506Y-78579463D01*
X114908815Y-78658815D01*
X114829463Y-78755506D01*
X114770498Y-78865820D01*
X114734188Y-78985518D01*
X114721928Y-79110000D01*
X102650766Y-79110000D01*
X102479316Y-78938550D01*
X102253391Y-78787592D01*
X102002356Y-78683610D01*
X101735859Y-78630600D01*
X101464141Y-78630600D01*
X101197644Y-78683610D01*
X100946609Y-78787592D01*
X100720684Y-78938550D01*
X100528550Y-79130684D01*
X100377592Y-79356609D01*
X100273610Y-79607644D01*
X100220600Y-79874141D01*
X99187000Y-79874141D01*
X99187000Y-77597000D01*
X139573000Y-77597000D01*
X139573000Y-93853000D01*
G04 #@! TA.AperFunction,Conductor*
D12*
G36*
X139573000Y-93853000D02*
G01*
X99187000Y-93853000D01*
X99187000Y-86390000D01*
X114721928Y-86390000D01*
X114734188Y-86514482D01*
X114770498Y-86634180D01*
X114829463Y-86744494D01*
X114908815Y-86841185D01*
X115005506Y-86920537D01*
X115115820Y-86979502D01*
X115235518Y-87015812D01*
X115360000Y-87028072D01*
X116174250Y-87025000D01*
X116333000Y-86866250D01*
X116333000Y-85417000D01*
X116587000Y-85417000D01*
X116587000Y-86866250D01*
X116745750Y-87025000D01*
X117560000Y-87028072D01*
X117684482Y-87015812D01*
X117730000Y-87002004D01*
X117775518Y-87015812D01*
X117900000Y-87028072D01*
X118714250Y-87025000D01*
X118873000Y-86866250D01*
X118873000Y-85417000D01*
X119127000Y-85417000D01*
X119127000Y-86866250D01*
X119285750Y-87025000D01*
X120100000Y-87028072D01*
X120224482Y-87015812D01*
X120270000Y-87002004D01*
X120315518Y-87015812D01*
X120440000Y-87028072D01*
X121254250Y-87025000D01*
X121413000Y-86866250D01*
X121413000Y-85417000D01*
X121667000Y-85417000D01*
X121667000Y-86866250D01*
X121825750Y-87025000D01*
X122640000Y-87028072D01*
X122764482Y-87015812D01*
X122884180Y-86979502D01*
X122994494Y-86920537D01*
X123091185Y-86841185D01*
X123170537Y-86744494D01*
X123229502Y-86634180D01*
X123265812Y-86514482D01*
X123278072Y-86390000D01*
X123275000Y-85575750D01*
X123116250Y-85417000D01*
X121667000Y-85417000D01*
X121413000Y-85417000D01*
X119127000Y-85417000D01*
X118873000Y-85417000D01*
X116587000Y-85417000D01*
X116333000Y-85417000D01*
X114883750Y-85417000D01*
X114725000Y-85575750D01*
X114721928Y-86390000D01*
X99187000Y-86390000D01*
X99187000Y-84190000D01*
X114721928Y-84190000D01*
X114725000Y-85004250D01*
X114883750Y-85163000D01*
X116333000Y-85163000D01*
X116333000Y-83713750D01*
X116587000Y-83713750D01*
X116587000Y-85163000D01*
X118873000Y-85163000D01*
X118873000Y-83713750D01*
X119127000Y-83713750D01*
X119127000Y-85163000D01*
X121413000Y-85163000D01*
X121413000Y-83713750D01*
X121667000Y-83713750D01*
X121667000Y-85163000D01*
X123116250Y-85163000D01*
X123275000Y-85004250D01*
X123278072Y-84190000D01*
X123265812Y-84065518D01*
X123229502Y-83945820D01*
X123170537Y-83835506D01*
X123091185Y-83738815D01*
X122994494Y-83659463D01*
X122884180Y-83600498D01*
X122764482Y-83564188D01*
X122640000Y-83551928D01*
X121825750Y-83555000D01*
X121667000Y-83713750D01*
X121413000Y-83713750D01*
X121254250Y-83555000D01*
X120440000Y-83551928D01*
X120315518Y-83564188D01*
X120270000Y-83577996D01*
X120224482Y-83564188D01*
X120100000Y-83551928D01*
X119285750Y-83555000D01*
X119127000Y-83713750D01*
X118873000Y-83713750D01*
X118714250Y-83555000D01*
X117900000Y-83551928D01*
X117775518Y-83564188D01*
X117730000Y-83577996D01*
X117684482Y-83564188D01*
X117560000Y-83551928D01*
X116745750Y-83555000D01*
X116587000Y-83713750D01*
X116333000Y-83713750D01*
X116174250Y-83555000D01*
X115360000Y-83551928D01*
X115235518Y-83564188D01*
X115115820Y-83600498D01*
X115005506Y-83659463D01*
X114908815Y-83738815D01*
X114829463Y-83835506D01*
X114770498Y-83945820D01*
X114734188Y-84065518D01*
X114721928Y-84190000D01*
X99187000Y-84190000D01*
X99187000Y-79874141D01*
X100220600Y-79874141D01*
X100220600Y-80145859D01*
X100273610Y-80412356D01*
X100377592Y-80663391D01*
X100528550Y-80889316D01*
X100720684Y-81081450D01*
X100946609Y-81232408D01*
X101197644Y-81336390D01*
X101464141Y-81389400D01*
X101735859Y-81389400D01*
X102002356Y-81336390D01*
X102066067Y-81310000D01*
X114721928Y-81310000D01*
X114734188Y-81434482D01*
X114770498Y-81554180D01*
X114829463Y-81664494D01*
X114908815Y-81761185D01*
X115005506Y-81840537D01*
X115115820Y-81899502D01*
X115235518Y-81935812D01*
X115360000Y-81948072D01*
X116174250Y-81945000D01*
X116333000Y-81786250D01*
X116333000Y-80337000D01*
X116587000Y-80337000D01*
X116587000Y-81786250D01*
X116745750Y-81945000D01*
X117560000Y-81948072D01*
X117684482Y-81935812D01*
X117730000Y-81922004D01*
X117775518Y-81935812D01*
X117900000Y-81948072D01*
X118714250Y-81945000D01*
X118873000Y-81786250D01*
X118873000Y-80337000D01*
X119127000Y-80337000D01*
X119127000Y-81786250D01*
X119285750Y-81945000D01*
X120100000Y-81948072D01*
X120224482Y-81935812D01*
X120270000Y-81922004D01*
X120315518Y-81935812D01*
X120440000Y-81948072D01*
X121254250Y-81945000D01*
X121413000Y-81786250D01*
X121413000Y-80337000D01*
X121667000Y-80337000D01*
X121667000Y-81786250D01*
X121825750Y-81945000D01*
X122640000Y-81948072D01*
X122764482Y-81935812D01*
X122884180Y-81899502D01*
X122994494Y-81840537D01*
X123091185Y-81761185D01*
X123170537Y-81664494D01*
X123229502Y-81554180D01*
X123265812Y-81434482D01*
X123278072Y-81310000D01*
X123275000Y-80495750D01*
X123116250Y-80337000D01*
X121667000Y-80337000D01*
X121413000Y-80337000D01*
X119127000Y-80337000D01*
X118873000Y-80337000D01*
X116587000Y-80337000D01*
X116333000Y-80337000D01*
X114883750Y-80337000D01*
X114725000Y-80495750D01*
X114721928Y-81310000D01*
X102066067Y-81310000D01*
X102253391Y-81232408D01*
X102479316Y-81081450D01*
X102671450Y-80889316D01*
X102822408Y-80663391D01*
X102926390Y-80412356D01*
X102979400Y-80145859D01*
X102979400Y-79874141D01*
X102926390Y-79607644D01*
X102822408Y-79356609D01*
X102671450Y-79130684D01*
X102650766Y-79110000D01*
X114721928Y-79110000D01*
X114725000Y-79924250D01*
X114883750Y-80083000D01*
X116333000Y-80083000D01*
X116333000Y-78633750D01*
X116587000Y-78633750D01*
X116587000Y-80083000D01*
X118873000Y-80083000D01*
X118873000Y-78633750D01*
X119127000Y-78633750D01*
X119127000Y-80083000D01*
X121413000Y-80083000D01*
X121413000Y-78633750D01*
X121667000Y-78633750D01*
X121667000Y-80083000D01*
X123116250Y-80083000D01*
X123275000Y-79924250D01*
X123278072Y-79110000D01*
X123265812Y-78985518D01*
X123229502Y-78865820D01*
X123170537Y-78755506D01*
X123091185Y-78658815D01*
X122994494Y-78579463D01*
X122884180Y-78520498D01*
X122764482Y-78484188D01*
X122640000Y-78471928D01*
X121825750Y-78475000D01*
X121667000Y-78633750D01*
X121413000Y-78633750D01*
X121254250Y-78475000D01*
X120440000Y-78471928D01*
X120315518Y-78484188D01*
X120270000Y-78497996D01*
X120224482Y-78484188D01*
X120100000Y-78471928D01*
X119285750Y-78475000D01*
X119127000Y-78633750D01*
X118873000Y-78633750D01*
X118714250Y-78475000D01*
X117900000Y-78471928D01*
X117775518Y-78484188D01*
X117730000Y-78497996D01*
X117684482Y-78484188D01*
X117560000Y-78471928D01*
X116745750Y-78475000D01*
X116587000Y-78633750D01*
X116333000Y-78633750D01*
X116174250Y-78475000D01*
X115360000Y-78471928D01*
X115235518Y-78484188D01*
X115115820Y-78520498D01*
X115005506Y-78579463D01*
X114908815Y-78658815D01*
X114829463Y-78755506D01*
X114770498Y-78865820D01*
X114734188Y-78985518D01*
X114721928Y-79110000D01*
X102650766Y-79110000D01*
X102479316Y-78938550D01*
X102253391Y-78787592D01*
X102002356Y-78683610D01*
X101735859Y-78630600D01*
X101464141Y-78630600D01*
X101197644Y-78683610D01*
X100946609Y-78787592D01*
X100720684Y-78938550D01*
X100528550Y-79130684D01*
X100377592Y-79356609D01*
X100273610Y-79607644D01*
X100220600Y-79874141D01*
X99187000Y-79874141D01*
X99187000Y-77597000D01*
X139573000Y-77597000D01*
X139573000Y-93853000D01*
G37*
G04 #@! TD.AperFunction*
D11*
X139573000Y-133731000D02*
X99187000Y-133731000D01*
X99187000Y-131182141D01*
X100220600Y-131182141D01*
X100220600Y-131453859D01*
X100273610Y-131720356D01*
X100377592Y-131971391D01*
X100528550Y-132197316D01*
X100720684Y-132389450D01*
X100946609Y-132540408D01*
X101197644Y-132644390D01*
X101464141Y-132697400D01*
X101735859Y-132697400D01*
X102002356Y-132644390D01*
X102253391Y-132540408D01*
X102479316Y-132389450D01*
X102671450Y-132197316D01*
X102709747Y-132140000D01*
X115221928Y-132140000D01*
X115234188Y-132264482D01*
X115270498Y-132384180D01*
X115329463Y-132494494D01*
X115408815Y-132591185D01*
X115505506Y-132670537D01*
X115615820Y-132729502D01*
X115735518Y-132765812D01*
X115860000Y-132778072D01*
X116674250Y-132775000D01*
X116833000Y-132616250D01*
X116833000Y-131167000D01*
X117087000Y-131167000D01*
X117087000Y-132616250D01*
X117245750Y-132775000D01*
X118060000Y-132778072D01*
X118184482Y-132765812D01*
X118230000Y-132752004D01*
X118275518Y-132765812D01*
X118400000Y-132778072D01*
X119214250Y-132775000D01*
X119373000Y-132616250D01*
X119373000Y-131167000D01*
X119627000Y-131167000D01*
X119627000Y-132616250D01*
X119785750Y-132775000D01*
X120600000Y-132778072D01*
X120724482Y-132765812D01*
X120770000Y-132752004D01*
X120815518Y-132765812D01*
X120940000Y-132778072D01*
X121754250Y-132775000D01*
X121913000Y-132616250D01*
X121913000Y-131167000D01*
X122167000Y-131167000D01*
X122167000Y-132616250D01*
X122325750Y-132775000D01*
X123140000Y-132778072D01*
X123264482Y-132765812D01*
X123384180Y-132729502D01*
X123494494Y-132670537D01*
X123591185Y-132591185D01*
X123670537Y-132494494D01*
X123729502Y-132384180D01*
X123765812Y-132264482D01*
X123778072Y-132140000D01*
X123775000Y-131325750D01*
X123616250Y-131167000D01*
X122167000Y-131167000D01*
X121913000Y-131167000D01*
X119627000Y-131167000D01*
X119373000Y-131167000D01*
X117087000Y-131167000D01*
X116833000Y-131167000D01*
X115383750Y-131167000D01*
X115225000Y-131325750D01*
X115221928Y-132140000D01*
X102709747Y-132140000D01*
X102822408Y-131971391D01*
X102926390Y-131720356D01*
X102979400Y-131453859D01*
X102979400Y-131182141D01*
X102926390Y-130915644D01*
X102822408Y-130664609D01*
X102671450Y-130438684D01*
X102479316Y-130246550D01*
X102253391Y-130095592D01*
X102002356Y-129991610D01*
X101742898Y-129940000D01*
X115221928Y-129940000D01*
X115225000Y-130754250D01*
X115383750Y-130913000D01*
X116833000Y-130913000D01*
X116833000Y-129463750D01*
X117087000Y-129463750D01*
X117087000Y-130913000D01*
X119373000Y-130913000D01*
X119373000Y-129463750D01*
X119627000Y-129463750D01*
X119627000Y-130913000D01*
X121913000Y-130913000D01*
X121913000Y-129463750D01*
X122167000Y-129463750D01*
X122167000Y-130913000D01*
X123616250Y-130913000D01*
X123775000Y-130754250D01*
X123778072Y-129940000D01*
X123765812Y-129815518D01*
X123729502Y-129695820D01*
X123670537Y-129585506D01*
X123591185Y-129488815D01*
X123494494Y-129409463D01*
X123384180Y-129350498D01*
X123264482Y-129314188D01*
X123140000Y-129301928D01*
X122325750Y-129305000D01*
X122167000Y-129463750D01*
X121913000Y-129463750D01*
X121754250Y-129305000D01*
X120940000Y-129301928D01*
X120815518Y-129314188D01*
X120770000Y-129327996D01*
X120724482Y-129314188D01*
X120600000Y-129301928D01*
X119785750Y-129305000D01*
X119627000Y-129463750D01*
X119373000Y-129463750D01*
X119214250Y-129305000D01*
X118400000Y-129301928D01*
X118275518Y-129314188D01*
X118230000Y-129327996D01*
X118184482Y-129314188D01*
X118060000Y-129301928D01*
X117245750Y-129305000D01*
X117087000Y-129463750D01*
X116833000Y-129463750D01*
X116674250Y-129305000D01*
X115860000Y-129301928D01*
X115735518Y-129314188D01*
X115615820Y-129350498D01*
X115505506Y-129409463D01*
X115408815Y-129488815D01*
X115329463Y-129585506D01*
X115270498Y-129695820D01*
X115234188Y-129815518D01*
X115221928Y-129940000D01*
X101742898Y-129940000D01*
X101735859Y-129938600D01*
X101464141Y-129938600D01*
X101197644Y-129991610D01*
X100946609Y-130095592D01*
X100720684Y-130246550D01*
X100528550Y-130438684D01*
X100377592Y-130664609D01*
X100273610Y-130915644D01*
X100220600Y-131182141D01*
X99187000Y-131182141D01*
X99187000Y-127060000D01*
X115221928Y-127060000D01*
X115234188Y-127184482D01*
X115270498Y-127304180D01*
X115329463Y-127414494D01*
X115408815Y-127511185D01*
X115505506Y-127590537D01*
X115615820Y-127649502D01*
X115735518Y-127685812D01*
X115860000Y-127698072D01*
X116674250Y-127695000D01*
X116833000Y-127536250D01*
X116833000Y-126087000D01*
X117087000Y-126087000D01*
X117087000Y-127536250D01*
X117245750Y-127695000D01*
X118060000Y-127698072D01*
X118184482Y-127685812D01*
X118230000Y-127672004D01*
X118275518Y-127685812D01*
X118400000Y-127698072D01*
X119214250Y-127695000D01*
X119373000Y-127536250D01*
X119373000Y-126087000D01*
X119627000Y-126087000D01*
X119627000Y-127536250D01*
X119785750Y-127695000D01*
X120600000Y-127698072D01*
X120724482Y-127685812D01*
X120770000Y-127672004D01*
X120815518Y-127685812D01*
X120940000Y-127698072D01*
X121754250Y-127695000D01*
X121913000Y-127536250D01*
X121913000Y-126087000D01*
X122167000Y-126087000D01*
X122167000Y-127536250D01*
X122325750Y-127695000D01*
X123140000Y-127698072D01*
X123264482Y-127685812D01*
X123384180Y-127649502D01*
X123494494Y-127590537D01*
X123591185Y-127511185D01*
X123670537Y-127414494D01*
X123729502Y-127304180D01*
X123765812Y-127184482D01*
X123778072Y-127060000D01*
X123775000Y-126245750D01*
X123616250Y-126087000D01*
X122167000Y-126087000D01*
X121913000Y-126087000D01*
X119627000Y-126087000D01*
X119373000Y-126087000D01*
X117087000Y-126087000D01*
X116833000Y-126087000D01*
X115383750Y-126087000D01*
X115225000Y-126245750D01*
X115221928Y-127060000D01*
X99187000Y-127060000D01*
X99187000Y-124860000D01*
X115221928Y-124860000D01*
X115225000Y-125674250D01*
X115383750Y-125833000D01*
X116833000Y-125833000D01*
X116833000Y-124383750D01*
X117087000Y-124383750D01*
X117087000Y-125833000D01*
X119373000Y-125833000D01*
X119373000Y-124383750D01*
X119627000Y-124383750D01*
X119627000Y-125833000D01*
X121913000Y-125833000D01*
X121913000Y-124383750D01*
X122167000Y-124383750D01*
X122167000Y-125833000D01*
X123616250Y-125833000D01*
X123775000Y-125674250D01*
X123778072Y-124860000D01*
X123765812Y-124735518D01*
X123729502Y-124615820D01*
X123670537Y-124505506D01*
X123591185Y-124408815D01*
X123494494Y-124329463D01*
X123384180Y-124270498D01*
X123264482Y-124234188D01*
X123140000Y-124221928D01*
X122325750Y-124225000D01*
X122167000Y-124383750D01*
X121913000Y-124383750D01*
X121754250Y-124225000D01*
X120940000Y-124221928D01*
X120815518Y-124234188D01*
X120770000Y-124247996D01*
X120724482Y-124234188D01*
X120600000Y-124221928D01*
X119785750Y-124225000D01*
X119627000Y-124383750D01*
X119373000Y-124383750D01*
X119214250Y-124225000D01*
X118400000Y-124221928D01*
X118275518Y-124234188D01*
X118230000Y-124247996D01*
X118184482Y-124234188D01*
X118060000Y-124221928D01*
X117245750Y-124225000D01*
X117087000Y-124383750D01*
X116833000Y-124383750D01*
X116674250Y-124225000D01*
X115860000Y-124221928D01*
X115735518Y-124234188D01*
X115615820Y-124270498D01*
X115505506Y-124329463D01*
X115408815Y-124408815D01*
X115329463Y-124505506D01*
X115270498Y-124615820D01*
X115234188Y-124735518D01*
X115221928Y-124860000D01*
X99187000Y-124860000D01*
X99187000Y-117475000D01*
X139573000Y-117475000D01*
X139573000Y-133731000D01*
G04 #@! TA.AperFunction,Conductor*
D12*
G36*
X139573000Y-133731000D02*
G01*
X99187000Y-133731000D01*
X99187000Y-131182141D01*
X100220600Y-131182141D01*
X100220600Y-131453859D01*
X100273610Y-131720356D01*
X100377592Y-131971391D01*
X100528550Y-132197316D01*
X100720684Y-132389450D01*
X100946609Y-132540408D01*
X101197644Y-132644390D01*
X101464141Y-132697400D01*
X101735859Y-132697400D01*
X102002356Y-132644390D01*
X102253391Y-132540408D01*
X102479316Y-132389450D01*
X102671450Y-132197316D01*
X102709747Y-132140000D01*
X115221928Y-132140000D01*
X115234188Y-132264482D01*
X115270498Y-132384180D01*
X115329463Y-132494494D01*
X115408815Y-132591185D01*
X115505506Y-132670537D01*
X115615820Y-132729502D01*
X115735518Y-132765812D01*
X115860000Y-132778072D01*
X116674250Y-132775000D01*
X116833000Y-132616250D01*
X116833000Y-131167000D01*
X117087000Y-131167000D01*
X117087000Y-132616250D01*
X117245750Y-132775000D01*
X118060000Y-132778072D01*
X118184482Y-132765812D01*
X118230000Y-132752004D01*
X118275518Y-132765812D01*
X118400000Y-132778072D01*
X119214250Y-132775000D01*
X119373000Y-132616250D01*
X119373000Y-131167000D01*
X119627000Y-131167000D01*
X119627000Y-132616250D01*
X119785750Y-132775000D01*
X120600000Y-132778072D01*
X120724482Y-132765812D01*
X120770000Y-132752004D01*
X120815518Y-132765812D01*
X120940000Y-132778072D01*
X121754250Y-132775000D01*
X121913000Y-132616250D01*
X121913000Y-131167000D01*
X122167000Y-131167000D01*
X122167000Y-132616250D01*
X122325750Y-132775000D01*
X123140000Y-132778072D01*
X123264482Y-132765812D01*
X123384180Y-132729502D01*
X123494494Y-132670537D01*
X123591185Y-132591185D01*
X123670537Y-132494494D01*
X123729502Y-132384180D01*
X123765812Y-132264482D01*
X123778072Y-132140000D01*
X123775000Y-131325750D01*
X123616250Y-131167000D01*
X122167000Y-131167000D01*
X121913000Y-131167000D01*
X119627000Y-131167000D01*
X119373000Y-131167000D01*
X117087000Y-131167000D01*
X116833000Y-131167000D01*
X115383750Y-131167000D01*
X115225000Y-131325750D01*
X115221928Y-132140000D01*
X102709747Y-132140000D01*
X102822408Y-131971391D01*
X102926390Y-131720356D01*
X102979400Y-131453859D01*
X102979400Y-131182141D01*
X102926390Y-130915644D01*
X102822408Y-130664609D01*
X102671450Y-130438684D01*
X102479316Y-130246550D01*
X102253391Y-130095592D01*
X102002356Y-129991610D01*
X101742898Y-129940000D01*
X115221928Y-129940000D01*
X115225000Y-130754250D01*
X115383750Y-130913000D01*
X116833000Y-130913000D01*
X116833000Y-129463750D01*
X117087000Y-129463750D01*
X117087000Y-130913000D01*
X119373000Y-130913000D01*
X119373000Y-129463750D01*
X119627000Y-129463750D01*
X119627000Y-130913000D01*
X121913000Y-130913000D01*
X121913000Y-129463750D01*
X122167000Y-129463750D01*
X122167000Y-130913000D01*
X123616250Y-130913000D01*
X123775000Y-130754250D01*
X123778072Y-129940000D01*
X123765812Y-129815518D01*
X123729502Y-129695820D01*
X123670537Y-129585506D01*
X123591185Y-129488815D01*
X123494494Y-129409463D01*
X123384180Y-129350498D01*
X123264482Y-129314188D01*
X123140000Y-129301928D01*
X122325750Y-129305000D01*
X122167000Y-129463750D01*
X121913000Y-129463750D01*
X121754250Y-129305000D01*
X120940000Y-129301928D01*
X120815518Y-129314188D01*
X120770000Y-129327996D01*
X120724482Y-129314188D01*
X120600000Y-129301928D01*
X119785750Y-129305000D01*
X119627000Y-129463750D01*
X119373000Y-129463750D01*
X119214250Y-129305000D01*
X118400000Y-129301928D01*
X118275518Y-129314188D01*
X118230000Y-129327996D01*
X118184482Y-129314188D01*
X118060000Y-129301928D01*
X117245750Y-129305000D01*
X117087000Y-129463750D01*
X116833000Y-129463750D01*
X116674250Y-129305000D01*
X115860000Y-129301928D01*
X115735518Y-129314188D01*
X115615820Y-129350498D01*
X115505506Y-129409463D01*
X115408815Y-129488815D01*
X115329463Y-129585506D01*
X115270498Y-129695820D01*
X115234188Y-129815518D01*
X115221928Y-129940000D01*
X101742898Y-129940000D01*
X101735859Y-129938600D01*
X101464141Y-129938600D01*
X101197644Y-129991610D01*
X100946609Y-130095592D01*
X100720684Y-130246550D01*
X100528550Y-130438684D01*
X100377592Y-130664609D01*
X100273610Y-130915644D01*
X100220600Y-131182141D01*
X99187000Y-131182141D01*
X99187000Y-127060000D01*
X115221928Y-127060000D01*
X115234188Y-127184482D01*
X115270498Y-127304180D01*
X115329463Y-127414494D01*
X115408815Y-127511185D01*
X115505506Y-127590537D01*
X115615820Y-127649502D01*
X115735518Y-127685812D01*
X115860000Y-127698072D01*
X116674250Y-127695000D01*
X116833000Y-127536250D01*
X116833000Y-126087000D01*
X117087000Y-126087000D01*
X117087000Y-127536250D01*
X117245750Y-127695000D01*
X118060000Y-127698072D01*
X118184482Y-127685812D01*
X118230000Y-127672004D01*
X118275518Y-127685812D01*
X118400000Y-127698072D01*
X119214250Y-127695000D01*
X119373000Y-127536250D01*
X119373000Y-126087000D01*
X119627000Y-126087000D01*
X119627000Y-127536250D01*
X119785750Y-127695000D01*
X120600000Y-127698072D01*
X120724482Y-127685812D01*
X120770000Y-127672004D01*
X120815518Y-127685812D01*
X120940000Y-127698072D01*
X121754250Y-127695000D01*
X121913000Y-127536250D01*
X121913000Y-126087000D01*
X122167000Y-126087000D01*
X122167000Y-127536250D01*
X122325750Y-127695000D01*
X123140000Y-127698072D01*
X123264482Y-127685812D01*
X123384180Y-127649502D01*
X123494494Y-127590537D01*
X123591185Y-127511185D01*
X123670537Y-127414494D01*
X123729502Y-127304180D01*
X123765812Y-127184482D01*
X123778072Y-127060000D01*
X123775000Y-126245750D01*
X123616250Y-126087000D01*
X122167000Y-126087000D01*
X121913000Y-126087000D01*
X119627000Y-126087000D01*
X119373000Y-126087000D01*
X117087000Y-126087000D01*
X116833000Y-126087000D01*
X115383750Y-126087000D01*
X115225000Y-126245750D01*
X115221928Y-127060000D01*
X99187000Y-127060000D01*
X99187000Y-124860000D01*
X115221928Y-124860000D01*
X115225000Y-125674250D01*
X115383750Y-125833000D01*
X116833000Y-125833000D01*
X116833000Y-124383750D01*
X117087000Y-124383750D01*
X117087000Y-125833000D01*
X119373000Y-125833000D01*
X119373000Y-124383750D01*
X119627000Y-124383750D01*
X119627000Y-125833000D01*
X121913000Y-125833000D01*
X121913000Y-124383750D01*
X122167000Y-124383750D01*
X122167000Y-125833000D01*
X123616250Y-125833000D01*
X123775000Y-125674250D01*
X123778072Y-124860000D01*
X123765812Y-124735518D01*
X123729502Y-124615820D01*
X123670537Y-124505506D01*
X123591185Y-124408815D01*
X123494494Y-124329463D01*
X123384180Y-124270498D01*
X123264482Y-124234188D01*
X123140000Y-124221928D01*
X122325750Y-124225000D01*
X122167000Y-124383750D01*
X121913000Y-124383750D01*
X121754250Y-124225000D01*
X120940000Y-124221928D01*
X120815518Y-124234188D01*
X120770000Y-124247996D01*
X120724482Y-124234188D01*
X120600000Y-124221928D01*
X119785750Y-124225000D01*
X119627000Y-124383750D01*
X119373000Y-124383750D01*
X119214250Y-124225000D01*
X118400000Y-124221928D01*
X118275518Y-124234188D01*
X118230000Y-124247996D01*
X118184482Y-124234188D01*
X118060000Y-124221928D01*
X117245750Y-124225000D01*
X117087000Y-124383750D01*
X116833000Y-124383750D01*
X116674250Y-124225000D01*
X115860000Y-124221928D01*
X115735518Y-124234188D01*
X115615820Y-124270498D01*
X115505506Y-124329463D01*
X115408815Y-124408815D01*
X115329463Y-124505506D01*
X115270498Y-124615820D01*
X115234188Y-124735518D01*
X115221928Y-124860000D01*
X99187000Y-124860000D01*
X99187000Y-117475000D01*
X139573000Y-117475000D01*
X139573000Y-133731000D01*
G37*
G04 #@! TD.AperFunction*
D11*
X139573000Y-116459000D02*
X99187000Y-116459000D01*
X99187000Y-94869000D01*
X139573000Y-94869000D01*
X139573000Y-116459000D01*
G04 #@! TA.AperFunction,Conductor*
D12*
G36*
X139573000Y-116459000D02*
G01*
X99187000Y-116459000D01*
X99187000Y-94869000D01*
X139573000Y-94869000D01*
X139573000Y-116459000D01*
G37*
G04 #@! TD.AperFunction*
M02*
