G04 #@! TF.GenerationSoftware,KiCad,Pcbnew,(5.1.4-0-10_14)*
G04 #@! TF.CreationDate,2020-02-02T19:29:53-05:00*
G04 #@! TF.ProjectId,AIR_MINUS,4149525f-4d49-44e5-9553-2e6b69636164,rev?*
G04 #@! TF.SameCoordinates,Original*
G04 #@! TF.FileFunction,Profile,NP*
%FSLAX46Y46*%
G04 Gerber Fmt 4.6, Leading zero omitted, Abs format (unit mm)*
G04 Created by KiCad (PCBNEW (5.1.4-0-10_14)) date 2020-02-02 19:29:53*
%MOMM*%
%LPD*%
G04 APERTURE LIST*
%ADD10C,0.200000*%
G04 APERTURE END LIST*
D10*
X66045048Y-174307686D02*
G75*
G02X70774888Y-118733954I12224952J26947686D01*
G01*
X151929999Y-170664999D02*
G75*
G02X147929999Y-174664999I-4000000J0D01*
G01*
X70774887Y-118733954D02*
G75*
G02X74643534Y-119802407I1013162J-3869561D01*
G01*
X147929999Y-174664999D02*
X67697571Y-174664999D01*
X75730000Y-131850001D02*
G75*
G02X75853253Y-131369049I1000000J1D01*
G01*
X151930000Y-170664999D02*
X151930000Y-113895001D01*
X83350000Y-113895001D02*
G75*
G02X87350000Y-109895001I4000000J0D01*
G01*
X83350000Y-116245000D02*
G75*
G02X74643534Y-119802407I-5080000J0D01*
G01*
X147929999Y-109895000D02*
X87350000Y-109895000D01*
X80913257Y-164591635D02*
G75*
G02X80686747Y-163350951I650237J759732D01*
G01*
X75853253Y-131369049D02*
X80686747Y-131369049D01*
X67697571Y-174664999D02*
G75*
G02X66045048Y-174307686I0J4000000D01*
G01*
X75853253Y-163350951D02*
G75*
G02X75626743Y-164591635I-876747J-480952D01*
G01*
X80686747Y-131369048D02*
G75*
G02X80810000Y-131850000I-876747J-480952D01*
G01*
X80913258Y-164591636D02*
G75*
G02X75626743Y-164591635I-2643258J-3088364D01*
G01*
X75853253Y-163350952D02*
G75*
G02X75730000Y-162870000I876747J480952D01*
G01*
X69697001Y-147360000D02*
G75*
G03X69697001Y-147360000I-4762001J0D01*
G01*
X96367000Y-147360000D02*
G75*
G03X96367000Y-147360000I-4762000J0D01*
G01*
X75730000Y-131850000D02*
X75730000Y-162870000D01*
X80810000Y-131850000D02*
X80810000Y-162870000D01*
X80810000Y-162869999D02*
G75*
G02X80686747Y-163350951I-1000000J-1D01*
G01*
X147929999Y-109895001D02*
G75*
G02X151929999Y-113895001I0J-4000000D01*
G01*
X83350000Y-116245000D02*
X83350000Y-113895001D01*
M02*
