G04 #@! TF.GenerationSoftware,KiCad,Pcbnew,(5.1.4-0-10_14)*
G04 #@! TF.CreationDate,2020-02-02T19:29:52-05:00*
G04 #@! TF.ProjectId,AIR_MINUS,4149525f-4d49-44e5-9553-2e6b69636164,rev?*
G04 #@! TF.SameCoordinates,Original*
G04 #@! TF.FileFunction,Legend,Top*
G04 #@! TF.FilePolarity,Positive*
%FSLAX46Y46*%
G04 Gerber Fmt 4.6, Leading zero omitted, Abs format (unit mm)*
G04 Created by KiCad (PCBNEW (5.1.4-0-10_14)) date 2020-02-02 19:29:52*
%MOMM*%
%LPD*%
G04 APERTURE LIST*
%ADD10C,0.150000*%
%ADD11C,0.120000*%
%ADD12C,0.200000*%
%ADD13C,0.010000*%
G04 APERTURE END LIST*
D10*
X124116005Y-167878747D02*
X123984106Y-168016165D01*
X123952511Y-168117849D01*
X123953891Y-168185178D01*
X123991005Y-168352812D01*
X124095448Y-168519066D01*
X124370284Y-168782864D01*
X124471968Y-168814459D01*
X124539297Y-168813080D01*
X124639602Y-168777345D01*
X124771501Y-168639927D01*
X124803096Y-168538243D01*
X124801716Y-168470914D01*
X124765982Y-168370610D01*
X124594210Y-168205736D01*
X124492526Y-168174141D01*
X124425196Y-168175520D01*
X124324892Y-168211254D01*
X124192993Y-168348673D01*
X124161398Y-168450356D01*
X124162777Y-168517686D01*
X124198512Y-168617990D01*
X125131465Y-168127369D02*
X125198794Y-168125989D01*
X125200174Y-168193318D01*
X125132845Y-168194698D01*
X125131465Y-168127369D01*
X125200174Y-168193318D01*
X125562897Y-167815418D02*
X125694796Y-167678000D01*
X125726392Y-167576316D01*
X125725012Y-167508987D01*
X125687898Y-167341353D01*
X125583455Y-167175100D01*
X125308618Y-166911301D01*
X125206934Y-166879706D01*
X125139605Y-166881086D01*
X125039301Y-166916820D01*
X124907401Y-167054238D01*
X124875806Y-167155922D01*
X124877186Y-167223251D01*
X124912920Y-167323555D01*
X125084693Y-167488430D01*
X125186377Y-167520025D01*
X125253706Y-167518645D01*
X125354010Y-167482911D01*
X125485910Y-167345493D01*
X125517505Y-167243809D01*
X125516125Y-167176479D01*
X125480391Y-167076175D01*
X125599873Y-166332793D02*
X125665823Y-166264084D01*
X125766127Y-166228349D01*
X125833456Y-166226970D01*
X125935140Y-166258565D01*
X126105533Y-166356110D01*
X126277306Y-166520984D01*
X126381749Y-166687238D01*
X126417483Y-166787542D01*
X126418863Y-166854871D01*
X126387268Y-166956555D01*
X126321318Y-167025264D01*
X126221014Y-167060998D01*
X126153685Y-167062378D01*
X126052001Y-167030783D01*
X125881608Y-166933238D01*
X125709835Y-166768364D01*
X125605392Y-166602110D01*
X125569658Y-166501806D01*
X125568278Y-166434477D01*
X125599873Y-166332793D01*
X126061521Y-165851829D02*
X126490194Y-165405220D01*
X126534206Y-165909501D01*
X126633130Y-165806437D01*
X126733435Y-165770703D01*
X126800764Y-165769323D01*
X126902448Y-165800918D01*
X127074221Y-165965792D01*
X127109955Y-166066097D01*
X127111335Y-166133426D01*
X127079739Y-166235110D01*
X126881890Y-166441237D01*
X126781586Y-166476971D01*
X126714257Y-166478351D01*
X128036010Y-165238828D02*
X127555046Y-164777181D01*
X127623755Y-164843130D02*
X127622375Y-164775801D01*
X127653971Y-164674117D01*
X127752895Y-164571054D01*
X127853199Y-164535319D01*
X127954883Y-164566914D01*
X128332783Y-164929638D01*
X127954883Y-164566914D02*
X127919149Y-164466610D01*
X127950744Y-164364926D01*
X128049669Y-164261863D01*
X128149973Y-164226128D01*
X128251657Y-164257724D01*
X128629557Y-164620447D01*
X128959305Y-164276901D02*
X128478341Y-163815254D01*
X128547051Y-163881203D02*
X128545671Y-163813874D01*
X128577266Y-163712190D01*
X128676190Y-163609127D01*
X128776495Y-163573392D01*
X128878179Y-163604987D01*
X129256078Y-163967711D01*
X128878179Y-163604987D02*
X128842444Y-163504683D01*
X128874039Y-163402999D01*
X128972964Y-163299936D01*
X129073268Y-163264202D01*
X129174952Y-163295797D01*
X129552852Y-163658520D01*
D11*
X130026632Y-164345643D02*
X125246632Y-169325643D01*
X130500000Y-164800000D02*
X129603562Y-163939563D01*
X125720000Y-169780000D02*
X124823562Y-168919563D01*
X125246632Y-169325643D02*
X125603633Y-168106853D01*
X125246632Y-169325643D02*
X126449774Y-168919012D01*
X130026632Y-164345643D02*
X128823490Y-164752274D01*
X130026632Y-164345643D02*
X129669631Y-165564433D01*
D10*
X121950412Y-158711023D02*
X122140888Y-158710828D01*
X122236078Y-158663112D01*
X122283648Y-158615444D01*
X122378741Y-158472490D01*
X122426165Y-158281965D01*
X122425777Y-157901013D01*
X122378060Y-157805824D01*
X122330393Y-157758253D01*
X122235106Y-157710732D01*
X122044630Y-157710926D01*
X121949441Y-157758642D01*
X121901870Y-157806310D01*
X121854348Y-157901596D01*
X121854591Y-158139691D01*
X121902307Y-158234881D01*
X121949975Y-158282451D01*
X122045262Y-158329973D01*
X122235738Y-158329779D01*
X122330927Y-158282063D01*
X122378498Y-158234395D01*
X122426020Y-158139108D01*
X122855077Y-158614861D02*
X122902744Y-158662432D01*
X122855174Y-158710099D01*
X122807506Y-158662529D01*
X122855077Y-158614861D01*
X122855174Y-158710099D01*
X123473638Y-158138039D02*
X123378351Y-158090518D01*
X123330684Y-158042947D01*
X123282968Y-157947758D01*
X123282919Y-157900139D01*
X123330441Y-157804852D01*
X123378011Y-157757184D01*
X123473201Y-157709468D01*
X123663677Y-157709274D01*
X123758963Y-157756796D01*
X123806631Y-157804366D01*
X123854347Y-157899556D01*
X123854396Y-157947175D01*
X123806874Y-158042461D01*
X123759304Y-158090129D01*
X123664114Y-158137845D01*
X123473638Y-158138039D01*
X123378449Y-158185756D01*
X123330878Y-158233423D01*
X123283356Y-158328710D01*
X123283551Y-158519186D01*
X123331267Y-158614375D01*
X123378934Y-158661946D01*
X123474221Y-158709468D01*
X123664697Y-158709273D01*
X123759887Y-158661557D01*
X123807457Y-158613889D01*
X123854979Y-158518603D01*
X123854785Y-158328127D01*
X123807068Y-158232937D01*
X123759401Y-158185367D01*
X123664114Y-158137845D01*
X124473200Y-157708448D02*
X124568438Y-157708351D01*
X124663725Y-157755872D01*
X124711392Y-157803443D01*
X124759109Y-157898632D01*
X124806922Y-158089060D01*
X124807165Y-158327155D01*
X124759740Y-158517680D01*
X124712219Y-158612966D01*
X124664648Y-158660634D01*
X124569459Y-158708350D01*
X124474221Y-158708447D01*
X124378934Y-158660925D01*
X124331266Y-158613355D01*
X124283550Y-158518165D01*
X124235737Y-158327738D01*
X124235494Y-158089643D01*
X124282918Y-157899118D01*
X124330440Y-157803832D01*
X124378011Y-157756164D01*
X124473200Y-157708448D01*
X125425581Y-157707476D02*
X125520819Y-157707379D01*
X125616105Y-157754901D01*
X125663773Y-157802471D01*
X125711489Y-157897660D01*
X125759303Y-158088088D01*
X125759546Y-158326183D01*
X125712121Y-158516708D01*
X125664599Y-158611994D01*
X125617029Y-158659662D01*
X125521839Y-158707378D01*
X125426601Y-158707475D01*
X125331314Y-158659954D01*
X125283647Y-158612383D01*
X125235931Y-158517194D01*
X125188117Y-158326766D01*
X125187874Y-158088671D01*
X125235299Y-157898146D01*
X125282821Y-157802860D01*
X125330391Y-157755192D01*
X125425581Y-157707476D01*
X126950410Y-158705920D02*
X126949730Y-158039254D01*
X126949827Y-158134492D02*
X126997397Y-158086825D01*
X127092587Y-158039108D01*
X127235444Y-158038963D01*
X127330730Y-158086484D01*
X127378447Y-158181674D01*
X127378981Y-158705483D01*
X127378447Y-158181674D02*
X127425968Y-158086387D01*
X127521158Y-158038671D01*
X127664015Y-158038525D01*
X127759302Y-158086047D01*
X127807018Y-158181237D01*
X127807552Y-158705046D01*
X128283742Y-158704560D02*
X128283062Y-158037894D01*
X128283159Y-158133132D02*
X128330730Y-158085464D01*
X128425919Y-158037748D01*
X128568776Y-158037602D01*
X128664063Y-158085124D01*
X128711779Y-158180313D01*
X128712314Y-158704123D01*
X128711779Y-158180313D02*
X128759301Y-158085027D01*
X128854490Y-158037311D01*
X128997348Y-158037165D01*
X129092634Y-158084687D01*
X129140350Y-158179876D01*
X129140885Y-158703685D01*
D11*
X120620082Y-156989999D02*
X130420082Y-156979999D01*
X120620000Y-156910000D02*
X120620680Y-157576419D01*
X130420000Y-156900000D02*
X130420680Y-157566419D01*
X130420082Y-156979999D02*
X129294177Y-157567569D01*
X130420082Y-156979999D02*
X129292980Y-156394728D01*
X120620082Y-156989999D02*
X121747184Y-157575270D01*
X120620082Y-156989999D02*
X121745987Y-156402429D01*
D10*
X134452596Y-125318197D02*
X134409057Y-125503630D01*
X134433646Y-125607232D01*
X134469119Y-125664475D01*
X134586425Y-125789846D01*
X134760973Y-125879744D01*
X135131840Y-125966822D01*
X135235441Y-125942234D01*
X135292685Y-125906760D01*
X135360812Y-125824928D01*
X135404352Y-125639495D01*
X135379763Y-125535893D01*
X135344289Y-125478650D01*
X135262458Y-125410522D01*
X135030666Y-125356098D01*
X134927065Y-125380687D01*
X134869821Y-125416160D01*
X134801693Y-125497992D01*
X134758154Y-125683426D01*
X134782743Y-125787027D01*
X134818216Y-125844270D01*
X134900048Y-125912398D01*
X135453138Y-125015067D02*
X135510381Y-124979593D01*
X135545854Y-125036837D01*
X135488611Y-125072310D01*
X135453138Y-125015067D01*
X135545854Y-125036837D01*
X134724717Y-124159239D02*
X134746486Y-124066522D01*
X134814614Y-123984690D01*
X134871857Y-123949217D01*
X134975459Y-123924628D01*
X135171777Y-123921809D01*
X135403569Y-123976233D01*
X135578117Y-124066131D01*
X135659949Y-124134259D01*
X135695423Y-124191502D01*
X135720011Y-124295103D01*
X135698242Y-124387820D01*
X135630114Y-124469652D01*
X135572871Y-124505125D01*
X135469269Y-124529714D01*
X135272951Y-124532533D01*
X135041159Y-124478109D01*
X134866611Y-124388212D01*
X134784779Y-124320084D01*
X134749305Y-124262840D01*
X134724717Y-124159239D01*
X135348753Y-123376394D02*
X135280625Y-123458226D01*
X135223382Y-123493699D01*
X135119780Y-123518288D01*
X135073422Y-123507403D01*
X134991590Y-123439275D01*
X134956117Y-123382032D01*
X134931528Y-123278431D01*
X134975067Y-123092997D01*
X135043195Y-123011166D01*
X135100438Y-122975692D01*
X135204040Y-122951103D01*
X135250398Y-122961988D01*
X135332230Y-123030116D01*
X135367704Y-123087359D01*
X135392292Y-123190961D01*
X135348753Y-123376394D01*
X135373342Y-123479995D01*
X135408815Y-123537239D01*
X135490647Y-123605367D01*
X135676080Y-123648906D01*
X135779682Y-123624317D01*
X135836925Y-123588844D01*
X135905053Y-123507012D01*
X135948592Y-123321578D01*
X135924004Y-123217977D01*
X135888530Y-123160734D01*
X135806698Y-123092606D01*
X135621265Y-123049067D01*
X135517663Y-123073655D01*
X135460420Y-123109129D01*
X135392292Y-123190961D01*
X136209828Y-122208979D02*
X136079210Y-122765278D01*
X136144519Y-122487129D02*
X135170994Y-122258548D01*
X135288299Y-122383919D01*
X135359246Y-122498405D01*
X135383835Y-122602006D01*
X136481948Y-121050020D02*
X135832931Y-120897633D01*
X135925648Y-120919403D02*
X135890174Y-120862159D01*
X135865586Y-120758558D01*
X135898240Y-120619483D01*
X135966368Y-120537651D01*
X136069970Y-120513062D01*
X136579911Y-120632795D01*
X136069970Y-120513062D02*
X135988138Y-120444935D01*
X135963549Y-120341333D01*
X135996203Y-120202258D01*
X136064331Y-120120426D01*
X136167933Y-120095838D01*
X136677875Y-120215570D01*
X136786723Y-119751987D02*
X136137706Y-119599600D01*
X136230423Y-119621369D02*
X136194949Y-119564126D01*
X136170360Y-119460525D01*
X136203015Y-119321450D01*
X136271143Y-119239618D01*
X136374744Y-119215029D01*
X136884686Y-119334762D01*
X136374744Y-119215029D02*
X136292912Y-119146901D01*
X136268324Y-119043300D01*
X136300978Y-118904225D01*
X136369106Y-118822393D01*
X136472708Y-118797804D01*
X136982649Y-118917537D01*
D11*
X137646377Y-119667663D02*
X136256377Y-125587663D01*
X138210000Y-119800000D02*
X137075482Y-119533618D01*
X136820000Y-125720000D02*
X135685482Y-125453618D01*
X136256377Y-125587663D02*
X135942979Y-124356939D01*
X136256377Y-125587663D02*
X137084770Y-124625028D01*
X137646377Y-119667663D02*
X136817984Y-120630298D01*
X137646377Y-119667663D02*
X137959775Y-120898387D01*
D10*
X127835555Y-121717439D02*
X127800839Y-121616778D01*
X127800141Y-121549438D01*
X127832765Y-121448080D01*
X127866086Y-121414061D01*
X127966747Y-121379345D01*
X128034087Y-121378647D01*
X128135446Y-121411271D01*
X128271520Y-121544555D01*
X128306237Y-121645216D01*
X128306934Y-121712556D01*
X128274311Y-121813915D01*
X128240989Y-121847934D01*
X128140328Y-121882650D01*
X128072989Y-121883347D01*
X127971630Y-121850724D01*
X127835555Y-121717439D01*
X127734196Y-121684815D01*
X127666857Y-121685513D01*
X127566195Y-121720229D01*
X127432911Y-121856304D01*
X127400287Y-121957663D01*
X127400985Y-122025003D01*
X127435701Y-122125664D01*
X127571776Y-122258948D01*
X127673134Y-122291572D01*
X127740474Y-122290874D01*
X127841135Y-122256158D01*
X127974420Y-122120083D01*
X128007044Y-122018725D01*
X128006346Y-121951385D01*
X127971630Y-121850724D01*
X128080662Y-122624086D02*
X128081359Y-122691426D01*
X128014019Y-122692124D01*
X128013322Y-122624784D01*
X128080662Y-122624086D01*
X128014019Y-122692124D01*
X128856117Y-122717074D02*
X128821400Y-122616413D01*
X128820703Y-122549073D01*
X128853326Y-122447715D01*
X128886648Y-122413696D01*
X128987309Y-122378980D01*
X129054649Y-122378282D01*
X129156007Y-122410906D01*
X129292082Y-122544191D01*
X129326798Y-122644852D01*
X129327496Y-122712191D01*
X129294872Y-122813550D01*
X129261551Y-122847569D01*
X129160890Y-122882285D01*
X129093550Y-122882983D01*
X128992191Y-122850359D01*
X128856117Y-122717074D01*
X128754758Y-122684451D01*
X128687418Y-122685148D01*
X128586757Y-122719864D01*
X128453472Y-122855939D01*
X128420849Y-122957298D01*
X128421546Y-123024638D01*
X128456263Y-123125299D01*
X128592337Y-123258584D01*
X128693696Y-123291207D01*
X128761036Y-123290510D01*
X128861697Y-123255793D01*
X128994982Y-123119719D01*
X129027605Y-123018360D01*
X129026908Y-122951020D01*
X128992191Y-122850359D01*
X129666288Y-122910723D02*
X130142550Y-123377220D01*
X129136637Y-123791722D01*
X130754887Y-123977001D02*
X130414700Y-123643789D01*
X130047469Y-123950655D01*
X130114809Y-123949958D01*
X130216168Y-123982581D01*
X130386261Y-124149187D01*
X130420978Y-124249848D01*
X130421675Y-124317188D01*
X130389052Y-124418547D01*
X130222446Y-124588640D01*
X130121785Y-124623357D01*
X130054445Y-124624054D01*
X129953086Y-124591430D01*
X129782992Y-124424825D01*
X129748276Y-124324164D01*
X129747579Y-124256824D01*
X130939629Y-125557745D02*
X131406125Y-125081482D01*
X131339483Y-125149520D02*
X131406823Y-125148822D01*
X131508181Y-125181446D01*
X131610238Y-125281409D01*
X131644954Y-125382071D01*
X131612330Y-125483429D01*
X131245797Y-125857635D01*
X131612330Y-125483429D02*
X131712991Y-125448713D01*
X131814350Y-125481337D01*
X131916406Y-125581300D01*
X131951122Y-125681961D01*
X131918499Y-125783320D01*
X131551966Y-126157526D01*
X131892153Y-126490737D02*
X132358649Y-126014475D01*
X132292007Y-126082513D02*
X132359347Y-126081815D01*
X132460706Y-126114439D01*
X132562762Y-126214402D01*
X132597478Y-126315063D01*
X132564854Y-126416422D01*
X132198321Y-126790628D01*
X132564854Y-126416422D02*
X132665515Y-126381706D01*
X132766874Y-126414329D01*
X132868930Y-126514293D01*
X132903646Y-126614954D01*
X132871023Y-126716313D01*
X132504490Y-127090518D01*
D11*
X132516943Y-128247211D02*
X126176943Y-122037211D01*
X131760000Y-129020000D02*
X132927288Y-127828276D01*
X125420000Y-122810000D02*
X126587288Y-121618276D01*
X126176943Y-122037211D02*
X127392054Y-122406541D01*
X126176943Y-122037211D02*
X126571365Y-123244411D01*
X132516943Y-128247211D02*
X132122521Y-127040011D01*
X132516943Y-128247211D02*
X131301832Y-127877881D01*
D10*
X127233458Y-173352305D02*
X127043376Y-173364549D01*
X126951396Y-173418192D01*
X126906937Y-173468774D01*
X126821079Y-173617458D01*
X126785803Y-173810601D01*
X126810292Y-174190765D01*
X126863935Y-174282745D01*
X126914517Y-174327205D01*
X127012619Y-174368603D01*
X127202701Y-174356358D01*
X127294681Y-174302716D01*
X127339140Y-174252134D01*
X127380539Y-174154032D01*
X127365233Y-173916429D01*
X127311590Y-173824449D01*
X127261008Y-173779989D01*
X127162906Y-173738591D01*
X126972824Y-173750836D01*
X126880844Y-173804479D01*
X126836385Y-173855060D01*
X126794986Y-173953163D01*
X127814346Y-174221523D02*
X127864928Y-174265982D01*
X127820468Y-174316564D01*
X127769887Y-174272104D01*
X127814346Y-174221523D01*
X127820468Y-174316564D01*
X128706595Y-173257409D02*
X128231390Y-173288021D01*
X128214481Y-173766287D01*
X128258940Y-173715706D01*
X128350920Y-173662063D01*
X128588523Y-173646757D01*
X128686625Y-173688155D01*
X128737207Y-173732615D01*
X128790850Y-173824595D01*
X128806155Y-174062197D01*
X128764757Y-174160300D01*
X128720298Y-174210881D01*
X128628318Y-174264524D01*
X128390715Y-174279830D01*
X128292613Y-174238432D01*
X128242031Y-174193972D01*
X129086760Y-173232920D02*
X129704527Y-173193125D01*
X129396372Y-173594718D01*
X129538934Y-173585534D01*
X129637036Y-173626932D01*
X129687618Y-173671392D01*
X129741261Y-173763372D01*
X129756566Y-174000975D01*
X129715168Y-174099077D01*
X129670709Y-174149659D01*
X129578729Y-174203301D01*
X129293605Y-174221668D01*
X129195503Y-174180270D01*
X129144922Y-174135811D01*
X130581325Y-173470669D02*
X130624181Y-174135956D01*
X130319233Y-173105810D02*
X130127547Y-173833924D01*
X130745315Y-173794129D01*
X131907236Y-174053306D02*
X131864380Y-173388018D01*
X131870502Y-173483059D02*
X131914962Y-173432477D01*
X132006942Y-173378834D01*
X132149503Y-173369651D01*
X132247606Y-173411049D01*
X132301248Y-173503029D01*
X132334921Y-174025755D01*
X132301248Y-173503029D02*
X132342647Y-173404927D01*
X132434627Y-173351284D01*
X132577188Y-173342101D01*
X132675291Y-173383499D01*
X132728933Y-173475479D01*
X132762606Y-173998205D01*
X133237812Y-173967594D02*
X133194956Y-173302306D01*
X133201078Y-173397347D02*
X133245537Y-173346765D01*
X133337517Y-173293122D01*
X133480079Y-173283939D01*
X133578181Y-173325337D01*
X133631824Y-173417317D01*
X133665496Y-173940043D01*
X133631824Y-173417317D02*
X133673222Y-173319215D01*
X133765202Y-173265572D01*
X133907764Y-173256389D01*
X134005866Y-173297787D01*
X134059509Y-173389767D01*
X134093181Y-173912493D01*
D11*
X127110898Y-172636322D02*
X133630898Y-172216322D01*
X127010000Y-171070000D02*
X127148595Y-173221529D01*
X133530000Y-170650000D02*
X133668595Y-172801529D01*
X133630898Y-172216322D02*
X132544422Y-172873946D01*
X133630898Y-172216322D02*
X132469027Y-171703530D01*
X127110898Y-172636322D02*
X128272769Y-173149114D01*
X127110898Y-172636322D02*
X128197374Y-171978698D01*
D12*
X83349523Y-129223095D02*
X83349523Y-127923095D01*
X83906666Y-129161190D02*
X84030476Y-129223095D01*
X84278095Y-129223095D01*
X84401904Y-129161190D01*
X84463809Y-129037380D01*
X84463809Y-128975476D01*
X84401904Y-128851666D01*
X84278095Y-128789761D01*
X84092380Y-128789761D01*
X83968571Y-128727857D01*
X83906666Y-128604047D01*
X83906666Y-128542142D01*
X83968571Y-128418333D01*
X84092380Y-128356428D01*
X84278095Y-128356428D01*
X84401904Y-128418333D01*
X85578095Y-129223095D02*
X85578095Y-128542142D01*
X85516190Y-128418333D01*
X85392380Y-128356428D01*
X85144761Y-128356428D01*
X85020952Y-128418333D01*
X85578095Y-129161190D02*
X85454285Y-129223095D01*
X85144761Y-129223095D01*
X85020952Y-129161190D01*
X84959047Y-129037380D01*
X84959047Y-128913571D01*
X85020952Y-128789761D01*
X85144761Y-128727857D01*
X85454285Y-128727857D01*
X85578095Y-128665952D01*
X86197142Y-129223095D02*
X86197142Y-127923095D01*
X86197142Y-128418333D02*
X86320952Y-128356428D01*
X86568571Y-128356428D01*
X86692380Y-128418333D01*
X86754285Y-128480238D01*
X86816190Y-128604047D01*
X86816190Y-128975476D01*
X86754285Y-129099285D01*
X86692380Y-129161190D01*
X86568571Y-129223095D01*
X86320952Y-129223095D01*
X86197142Y-129161190D01*
X87868571Y-129161190D02*
X87744761Y-129223095D01*
X87497142Y-129223095D01*
X87373333Y-129161190D01*
X87311428Y-129037380D01*
X87311428Y-128542142D01*
X87373333Y-128418333D01*
X87497142Y-128356428D01*
X87744761Y-128356428D01*
X87868571Y-128418333D01*
X87930476Y-128542142D01*
X87930476Y-128665952D01*
X87311428Y-128789761D01*
X88673333Y-129223095D02*
X88549523Y-129161190D01*
X88487619Y-129037380D01*
X88487619Y-127923095D01*
X89354285Y-129223095D02*
X89230476Y-129161190D01*
X89168571Y-129037380D01*
X89168571Y-127923095D01*
X90406666Y-129223095D02*
X90406666Y-128542142D01*
X90344761Y-128418333D01*
X90220952Y-128356428D01*
X89973333Y-128356428D01*
X89849523Y-128418333D01*
X90406666Y-129161190D02*
X90282857Y-129223095D01*
X89973333Y-129223095D01*
X89849523Y-129161190D01*
X89787619Y-129037380D01*
X89787619Y-128913571D01*
X89849523Y-128789761D01*
X89973333Y-128727857D01*
X90282857Y-128727857D01*
X90406666Y-128665952D01*
X91954285Y-128851666D02*
X92573333Y-128851666D01*
X91830476Y-129223095D02*
X92263809Y-127923095D01*
X92697142Y-129223095D01*
X93130476Y-129223095D02*
X93130476Y-127923095D01*
X93130476Y-128418333D02*
X93254285Y-128356428D01*
X93501904Y-128356428D01*
X93625714Y-128418333D01*
X93687619Y-128480238D01*
X93749523Y-128604047D01*
X93749523Y-128975476D01*
X93687619Y-129099285D01*
X93625714Y-129161190D01*
X93501904Y-129223095D01*
X93254285Y-129223095D01*
X93130476Y-129161190D01*
X94306666Y-129223095D02*
X94306666Y-128356428D01*
X94306666Y-127923095D02*
X94244761Y-127985000D01*
X94306666Y-128046904D01*
X94368571Y-127985000D01*
X94306666Y-127923095D01*
X94306666Y-128046904D01*
X95111428Y-129223095D02*
X94987619Y-129161190D01*
X94925714Y-129037380D01*
X94925714Y-127923095D01*
X95606666Y-129223095D02*
X95606666Y-127923095D01*
X96163809Y-129223095D02*
X96163809Y-128542142D01*
X96101904Y-128418333D01*
X95978095Y-128356428D01*
X95792380Y-128356428D01*
X95668571Y-128418333D01*
X95606666Y-128480238D01*
X97278095Y-129161190D02*
X97154285Y-129223095D01*
X96906666Y-129223095D01*
X96782857Y-129161190D01*
X96720952Y-129037380D01*
X96720952Y-128542142D01*
X96782857Y-128418333D01*
X96906666Y-128356428D01*
X97154285Y-128356428D01*
X97278095Y-128418333D01*
X97340000Y-128542142D01*
X97340000Y-128665952D01*
X96720952Y-128789761D01*
X97897142Y-129223095D02*
X97897142Y-128356428D01*
X97897142Y-127923095D02*
X97835238Y-127985000D01*
X97897142Y-128046904D01*
X97959047Y-127985000D01*
X97897142Y-127923095D01*
X97897142Y-128046904D01*
X98516190Y-129223095D02*
X98516190Y-128356428D01*
X98516190Y-128604047D02*
X98578095Y-128480238D01*
X98640000Y-128418333D01*
X98763809Y-128356428D01*
X98887619Y-128356428D01*
X99878095Y-129223095D02*
X99878095Y-128542142D01*
X99816190Y-128418333D01*
X99692380Y-128356428D01*
X99444761Y-128356428D01*
X99320952Y-128418333D01*
X99878095Y-129161190D02*
X99754285Y-129223095D01*
X99444761Y-129223095D01*
X99320952Y-129161190D01*
X99259047Y-129037380D01*
X99259047Y-128913571D01*
X99320952Y-128789761D01*
X99444761Y-128727857D01*
X99754285Y-128727857D01*
X99878095Y-128665952D01*
X83287619Y-131001666D02*
X83906666Y-131001666D01*
X83163809Y-131373095D02*
X83597142Y-130073095D01*
X84030476Y-131373095D01*
X84463809Y-131373095D02*
X84463809Y-130073095D01*
X85825714Y-131373095D02*
X85392380Y-130754047D01*
X85082857Y-131373095D02*
X85082857Y-130073095D01*
X85578095Y-130073095D01*
X85701904Y-130135000D01*
X85763809Y-130196904D01*
X85825714Y-130320714D01*
X85825714Y-130506428D01*
X85763809Y-130630238D01*
X85701904Y-130692142D01*
X85578095Y-130754047D01*
X85082857Y-130754047D01*
X87373333Y-131373095D02*
X87373333Y-130073095D01*
X87806666Y-131001666D01*
X88240000Y-130073095D01*
X88240000Y-131373095D01*
X88859047Y-131373095D02*
X88859047Y-130073095D01*
X89478095Y-131373095D02*
X89478095Y-130073095D01*
X90220952Y-131373095D01*
X90220952Y-130073095D01*
X90840000Y-130073095D02*
X90840000Y-131125476D01*
X90901904Y-131249285D01*
X90963809Y-131311190D01*
X91087619Y-131373095D01*
X91335238Y-131373095D01*
X91459047Y-131311190D01*
X91520952Y-131249285D01*
X91582857Y-131125476D01*
X91582857Y-130073095D01*
X92140000Y-131311190D02*
X92325714Y-131373095D01*
X92635238Y-131373095D01*
X92759047Y-131311190D01*
X92820952Y-131249285D01*
X92882857Y-131125476D01*
X92882857Y-131001666D01*
X92820952Y-130877857D01*
X92759047Y-130815952D01*
X92635238Y-130754047D01*
X92387619Y-130692142D01*
X92263809Y-130630238D01*
X92201904Y-130568333D01*
X92140000Y-130444523D01*
X92140000Y-130320714D01*
X92201904Y-130196904D01*
X92263809Y-130135000D01*
X92387619Y-130073095D01*
X92697142Y-130073095D01*
X92882857Y-130135000D01*
X84092380Y-133523095D02*
X83659047Y-132904047D01*
X83349523Y-133523095D02*
X83349523Y-132223095D01*
X83844761Y-132223095D01*
X83968571Y-132285000D01*
X84030476Y-132346904D01*
X84092380Y-132470714D01*
X84092380Y-132656428D01*
X84030476Y-132780238D01*
X83968571Y-132842142D01*
X83844761Y-132904047D01*
X83349523Y-132904047D01*
X85144761Y-133461190D02*
X85020952Y-133523095D01*
X84773333Y-133523095D01*
X84649523Y-133461190D01*
X84587619Y-133337380D01*
X84587619Y-132842142D01*
X84649523Y-132718333D01*
X84773333Y-132656428D01*
X85020952Y-132656428D01*
X85144761Y-132718333D01*
X85206666Y-132842142D01*
X85206666Y-132965952D01*
X84587619Y-133089761D01*
X85640000Y-132656428D02*
X85949523Y-133523095D01*
X86259047Y-132656428D01*
X86754285Y-133399285D02*
X86816190Y-133461190D01*
X86754285Y-133523095D01*
X86692380Y-133461190D01*
X86754285Y-133399285D01*
X86754285Y-133523095D01*
X88054285Y-133523095D02*
X87311428Y-133523095D01*
X87682857Y-133523095D02*
X87682857Y-132223095D01*
X87559047Y-132408809D01*
X87435238Y-132532619D01*
X87311428Y-132594523D01*
X89911428Y-133956428D02*
X89911428Y-132099285D01*
X92511428Y-133523095D02*
X91768571Y-133523095D01*
X92140000Y-133523095D02*
X92140000Y-132223095D01*
X92016190Y-132408809D01*
X91892380Y-132532619D01*
X91768571Y-132594523D01*
X93068571Y-133399285D02*
X93130476Y-133461190D01*
X93068571Y-133523095D01*
X93006666Y-133461190D01*
X93068571Y-133399285D01*
X93068571Y-133523095D01*
X93625714Y-132346904D02*
X93687619Y-132285000D01*
X93811428Y-132223095D01*
X94120952Y-132223095D01*
X94244761Y-132285000D01*
X94306666Y-132346904D01*
X94368571Y-132470714D01*
X94368571Y-132594523D01*
X94306666Y-132780238D01*
X93563809Y-133523095D01*
X94368571Y-133523095D01*
X94801904Y-132223095D02*
X95668571Y-132223095D01*
X95111428Y-133523095D01*
X96163809Y-133399285D02*
X96225714Y-133461190D01*
X96163809Y-133523095D01*
X96101904Y-133461190D01*
X96163809Y-133399285D01*
X96163809Y-133523095D01*
X96720952Y-132346904D02*
X96782857Y-132285000D01*
X96906666Y-132223095D01*
X97216190Y-132223095D01*
X97340000Y-132285000D01*
X97401904Y-132346904D01*
X97463809Y-132470714D01*
X97463809Y-132594523D01*
X97401904Y-132780238D01*
X96659047Y-133523095D01*
X97463809Y-133523095D01*
X98268571Y-132223095D02*
X98392380Y-132223095D01*
X98516190Y-132285000D01*
X98578095Y-132346904D01*
X98640000Y-132470714D01*
X98701904Y-132718333D01*
X98701904Y-133027857D01*
X98640000Y-133275476D01*
X98578095Y-133399285D01*
X98516190Y-133461190D01*
X98392380Y-133523095D01*
X98268571Y-133523095D01*
X98144761Y-133461190D01*
X98082857Y-133399285D01*
X98020952Y-133275476D01*
X97959047Y-133027857D01*
X97959047Y-132718333D01*
X98020952Y-132470714D01*
X98082857Y-132346904D01*
X98144761Y-132285000D01*
X98268571Y-132223095D01*
X83597142Y-134373095D02*
X83844761Y-134373095D01*
X83968571Y-134435000D01*
X84092380Y-134558809D01*
X84154285Y-134806428D01*
X84154285Y-135239761D01*
X84092380Y-135487380D01*
X83968571Y-135611190D01*
X83844761Y-135673095D01*
X83597142Y-135673095D01*
X83473333Y-135611190D01*
X83349523Y-135487380D01*
X83287619Y-135239761D01*
X83287619Y-134806428D01*
X83349523Y-134558809D01*
X83473333Y-134435000D01*
X83597142Y-134373095D01*
X84711428Y-134992142D02*
X85144761Y-134992142D01*
X85330476Y-135673095D02*
X84711428Y-135673095D01*
X84711428Y-134373095D01*
X85330476Y-134373095D01*
X85887619Y-135673095D02*
X85887619Y-134373095D01*
X86320952Y-135301666D01*
X86754285Y-134373095D01*
X86754285Y-135673095D01*
X88363809Y-135177857D02*
X89354285Y-135177857D01*
X90963809Y-135673095D02*
X90963809Y-134373095D01*
X91397142Y-135301666D01*
X91830476Y-134373095D01*
X91830476Y-135673095D01*
X92449523Y-135673095D02*
X92449523Y-134373095D01*
X93192380Y-135673095D02*
X92635238Y-134930238D01*
X93192380Y-134373095D02*
X92449523Y-135115952D01*
X93563809Y-134373095D02*
X93997142Y-135673095D01*
X94430476Y-134373095D01*
D11*
X127070000Y-154172000D02*
X101670000Y-154172000D01*
X127070000Y-111772000D02*
X101670000Y-111772000D01*
X127070000Y-154172000D02*
X127070000Y-111772000D01*
X114170000Y-141102000D02*
X114170000Y-124802000D01*
X108970000Y-124802000D02*
X114170000Y-124802000D01*
X108970000Y-141102000D02*
X114170000Y-141102000D01*
X101670000Y-154172000D02*
X101670000Y-111772000D01*
X108970000Y-141102000D02*
X108970000Y-124802000D01*
D10*
X83610000Y-155360000D02*
X83610000Y-139360000D01*
X99610000Y-155360000D02*
X83610000Y-155360000D01*
X99610000Y-139360000D02*
X99610000Y-155360000D01*
X83610000Y-139360000D02*
X99610000Y-139360000D01*
X56950000Y-155360000D02*
X56950000Y-139360000D01*
X72950000Y-155360000D02*
X56950000Y-155360000D01*
X72950000Y-139360000D02*
X72950000Y-155360000D01*
X56950000Y-139360000D02*
X72950000Y-139360000D01*
D13*
G36*
X87652732Y-123102934D02*
G01*
X87998509Y-123217067D01*
X88251809Y-123436087D01*
X88381164Y-123728444D01*
X88391333Y-123843388D01*
X88391333Y-124092667D01*
X87671667Y-124092667D01*
X87275570Y-124104317D01*
X87036076Y-124145379D01*
X86941671Y-124225013D01*
X86980839Y-124352384D01*
X87129452Y-124524119D01*
X87361004Y-124645888D01*
X87677081Y-124666331D01*
X88024942Y-124583276D01*
X88073833Y-124562977D01*
X88195144Y-124548126D01*
X88222000Y-124629962D01*
X88143320Y-124744792D01*
X87930893Y-124842556D01*
X87904500Y-124850215D01*
X87644374Y-124916132D01*
X87473496Y-124926217D01*
X87318876Y-124873136D01*
X87147903Y-124774214D01*
X86869655Y-124546892D01*
X86729512Y-124266159D01*
X86698000Y-123962766D01*
X86725684Y-123767122D01*
X86952000Y-123767122D01*
X86970661Y-123847363D01*
X87049661Y-123894469D01*
X87223525Y-123916935D01*
X87526776Y-123923253D01*
X87587000Y-123923333D01*
X87890550Y-123918637D01*
X88115090Y-123906214D01*
X88219233Y-123888565D01*
X88222000Y-123884984D01*
X88190619Y-123788183D01*
X88122818Y-123628954D01*
X87961471Y-123438076D01*
X87725515Y-123339274D01*
X87460777Y-123327139D01*
X87213083Y-123396264D01*
X87028261Y-123541241D01*
X86952136Y-123756661D01*
X86952000Y-123767122D01*
X86725684Y-123767122D01*
X86732075Y-123721962D01*
X86856793Y-123506735D01*
X86996697Y-123353702D01*
X87193031Y-123174198D01*
X87351944Y-123095671D01*
X87546032Y-123090371D01*
X87652732Y-123102934D01*
X87652732Y-123102934D01*
G37*
X87652732Y-123102934D02*
X87998509Y-123217067D01*
X88251809Y-123436087D01*
X88381164Y-123728444D01*
X88391333Y-123843388D01*
X88391333Y-124092667D01*
X87671667Y-124092667D01*
X87275570Y-124104317D01*
X87036076Y-124145379D01*
X86941671Y-124225013D01*
X86980839Y-124352384D01*
X87129452Y-124524119D01*
X87361004Y-124645888D01*
X87677081Y-124666331D01*
X88024942Y-124583276D01*
X88073833Y-124562977D01*
X88195144Y-124548126D01*
X88222000Y-124629962D01*
X88143320Y-124744792D01*
X87930893Y-124842556D01*
X87904500Y-124850215D01*
X87644374Y-124916132D01*
X87473496Y-124926217D01*
X87318876Y-124873136D01*
X87147903Y-124774214D01*
X86869655Y-124546892D01*
X86729512Y-124266159D01*
X86698000Y-123962766D01*
X86725684Y-123767122D01*
X86952000Y-123767122D01*
X86970661Y-123847363D01*
X87049661Y-123894469D01*
X87223525Y-123916935D01*
X87526776Y-123923253D01*
X87587000Y-123923333D01*
X87890550Y-123918637D01*
X88115090Y-123906214D01*
X88219233Y-123888565D01*
X88222000Y-123884984D01*
X88190619Y-123788183D01*
X88122818Y-123628954D01*
X87961471Y-123438076D01*
X87725515Y-123339274D01*
X87460777Y-123327139D01*
X87213083Y-123396264D01*
X87028261Y-123541241D01*
X86952136Y-123756661D01*
X86952000Y-123767122D01*
X86725684Y-123767122D01*
X86732075Y-123721962D01*
X86856793Y-123506735D01*
X86996697Y-123353702D01*
X87193031Y-123174198D01*
X87351944Y-123095671D01*
X87546032Y-123090371D01*
X87652732Y-123102934D01*
G36*
X90607462Y-123146188D02*
G01*
X90855339Y-123321753D01*
X91061677Y-123554749D01*
X91176224Y-123796244D01*
X91185333Y-123872533D01*
X91185333Y-124092667D01*
X90423333Y-124092667D01*
X90036814Y-124102109D01*
X89777656Y-124128977D01*
X89664716Y-124171079D01*
X89661333Y-124181182D01*
X89716402Y-124296111D01*
X89850820Y-124458840D01*
X89869151Y-124477515D01*
X90146528Y-124645031D01*
X90473349Y-124680931D01*
X90786624Y-124580221D01*
X90827828Y-124553532D01*
X90963681Y-124469174D01*
X91011162Y-124490057D01*
X91016000Y-124557852D01*
X90944132Y-124668565D01*
X90768418Y-124790142D01*
X90548691Y-124890064D01*
X90344788Y-124935810D01*
X90320219Y-124936019D01*
X90173352Y-124901827D01*
X89958977Y-124822737D01*
X89933331Y-124811774D01*
X89653364Y-124614025D01*
X89494636Y-124342379D01*
X89448448Y-124031520D01*
X89487673Y-123816948D01*
X89666495Y-123816948D01*
X89777388Y-123886950D01*
X90035088Y-123918319D01*
X90296333Y-123923333D01*
X90622512Y-123918742D01*
X90814001Y-123899308D01*
X90905325Y-123856538D01*
X90931008Y-123781937D01*
X90931333Y-123767122D01*
X90859308Y-123548172D01*
X90674125Y-123396701D01*
X90422124Y-123323314D01*
X90149643Y-123338617D01*
X89903022Y-123453217D01*
X89833965Y-123515965D01*
X89689618Y-123697043D01*
X89666495Y-123816948D01*
X89487673Y-123816948D01*
X89506103Y-123716137D01*
X89658905Y-123430916D01*
X89898155Y-123210544D01*
X90215158Y-123089708D01*
X90368300Y-123076983D01*
X90607462Y-123146188D01*
X90607462Y-123146188D01*
G37*
X90607462Y-123146188D02*
X90855339Y-123321753D01*
X91061677Y-123554749D01*
X91176224Y-123796244D01*
X91185333Y-123872533D01*
X91185333Y-124092667D01*
X90423333Y-124092667D01*
X90036814Y-124102109D01*
X89777656Y-124128977D01*
X89664716Y-124171079D01*
X89661333Y-124181182D01*
X89716402Y-124296111D01*
X89850820Y-124458840D01*
X89869151Y-124477515D01*
X90146528Y-124645031D01*
X90473349Y-124680931D01*
X90786624Y-124580221D01*
X90827828Y-124553532D01*
X90963681Y-124469174D01*
X91011162Y-124490057D01*
X91016000Y-124557852D01*
X90944132Y-124668565D01*
X90768418Y-124790142D01*
X90548691Y-124890064D01*
X90344788Y-124935810D01*
X90320219Y-124936019D01*
X90173352Y-124901827D01*
X89958977Y-124822737D01*
X89933331Y-124811774D01*
X89653364Y-124614025D01*
X89494636Y-124342379D01*
X89448448Y-124031520D01*
X89487673Y-123816948D01*
X89666495Y-123816948D01*
X89777388Y-123886950D01*
X90035088Y-123918319D01*
X90296333Y-123923333D01*
X90622512Y-123918742D01*
X90814001Y-123899308D01*
X90905325Y-123856538D01*
X90931008Y-123781937D01*
X90931333Y-123767122D01*
X90859308Y-123548172D01*
X90674125Y-123396701D01*
X90422124Y-123323314D01*
X90149643Y-123338617D01*
X89903022Y-123453217D01*
X89833965Y-123515965D01*
X89689618Y-123697043D01*
X89666495Y-123816948D01*
X89487673Y-123816948D01*
X89506103Y-123716137D01*
X89658905Y-123430916D01*
X89898155Y-123210544D01*
X90215158Y-123089708D01*
X90368300Y-123076983D01*
X90607462Y-123146188D01*
G36*
X92633472Y-123132103D02*
G01*
X92673479Y-123148880D01*
X92845686Y-123253377D01*
X92858879Y-123327815D01*
X92722226Y-123361854D01*
X92494105Y-123351187D01*
X92127473Y-123371098D01*
X91866150Y-123518694D01*
X91720713Y-123785185D01*
X91693333Y-124016613D01*
X91766231Y-124322594D01*
X91958048Y-124548038D01*
X92228470Y-124670015D01*
X92537182Y-124665593D01*
X92714899Y-124597688D01*
X92842585Y-124553852D01*
X92878589Y-124627469D01*
X92878667Y-124635024D01*
X92855694Y-124748308D01*
X92757763Y-124819119D01*
X92541352Y-124875985D01*
X92497667Y-124884744D01*
X92227011Y-124884801D01*
X91979363Y-124818688D01*
X91660043Y-124597809D01*
X91479458Y-124281645D01*
X91439333Y-123995657D01*
X91512719Y-123657558D01*
X91707255Y-123375786D01*
X91984512Y-123176707D01*
X92306061Y-123086690D01*
X92633472Y-123132103D01*
X92633472Y-123132103D01*
G37*
X92633472Y-123132103D02*
X92673479Y-123148880D01*
X92845686Y-123253377D01*
X92858879Y-123327815D01*
X92722226Y-123361854D01*
X92494105Y-123351187D01*
X92127473Y-123371098D01*
X91866150Y-123518694D01*
X91720713Y-123785185D01*
X91693333Y-124016613D01*
X91766231Y-124322594D01*
X91958048Y-124548038D01*
X92228470Y-124670015D01*
X92537182Y-124665593D01*
X92714899Y-124597688D01*
X92842585Y-124553852D01*
X92878589Y-124627469D01*
X92878667Y-124635024D01*
X92855694Y-124748308D01*
X92757763Y-124819119D01*
X92541352Y-124875985D01*
X92497667Y-124884744D01*
X92227011Y-124884801D01*
X91979363Y-124818688D01*
X91660043Y-124597809D01*
X91479458Y-124281645D01*
X91439333Y-123995657D01*
X91512719Y-123657558D01*
X91707255Y-123375786D01*
X91984512Y-123176707D01*
X92306061Y-123086690D01*
X92633472Y-123132103D01*
G36*
X97316742Y-123128058D02*
G01*
X97433504Y-123232136D01*
X97450667Y-123295275D01*
X97397515Y-123371498D01*
X97220796Y-123364969D01*
X97199781Y-123360923D01*
X96828247Y-123348926D01*
X96545546Y-123475616D01*
X96392077Y-123669829D01*
X96305752Y-123992563D01*
X96387327Y-124297873D01*
X96565467Y-124519570D01*
X96743218Y-124644975D01*
X96950118Y-124677097D01*
X97108637Y-124662655D01*
X97344526Y-124654423D01*
X97442729Y-124698818D01*
X97392003Y-124778361D01*
X97233488Y-124856762D01*
X97054672Y-124918192D01*
X96923377Y-124924497D01*
X96759001Y-124870405D01*
X96636029Y-124817674D01*
X96317918Y-124599162D01*
X96137983Y-124283509D01*
X96096000Y-123980694D01*
X96171656Y-123638059D01*
X96372617Y-123355052D01*
X96659876Y-123158919D01*
X96994422Y-123076907D01*
X97316742Y-123128058D01*
X97316742Y-123128058D01*
G37*
X97316742Y-123128058D02*
X97433504Y-123232136D01*
X97450667Y-123295275D01*
X97397515Y-123371498D01*
X97220796Y-123364969D01*
X97199781Y-123360923D01*
X96828247Y-123348926D01*
X96545546Y-123475616D01*
X96392077Y-123669829D01*
X96305752Y-123992563D01*
X96387327Y-124297873D01*
X96565467Y-124519570D01*
X96743218Y-124644975D01*
X96950118Y-124677097D01*
X97108637Y-124662655D01*
X97344526Y-124654423D01*
X97442729Y-124698818D01*
X97392003Y-124778361D01*
X97233488Y-124856762D01*
X97054672Y-124918192D01*
X96923377Y-124924497D01*
X96759001Y-124870405D01*
X96636029Y-124817674D01*
X96317918Y-124599162D01*
X96137983Y-124283509D01*
X96096000Y-123980694D01*
X96171656Y-123638059D01*
X96372617Y-123355052D01*
X96659876Y-123158919D01*
X96994422Y-123076907D01*
X97316742Y-123128058D01*
G36*
X88934240Y-122481396D02*
G01*
X88960679Y-122717491D01*
X88977606Y-123092484D01*
X88983976Y-123591235D01*
X88984000Y-123627000D01*
X88978340Y-124133154D01*
X88962058Y-124516516D01*
X88936196Y-124761951D01*
X88901800Y-124854321D01*
X88899333Y-124854667D01*
X88864426Y-124772604D01*
X88837987Y-124536508D01*
X88821061Y-124161516D01*
X88814690Y-123662764D01*
X88814667Y-123627000D01*
X88820326Y-123120846D01*
X88836608Y-122737483D01*
X88862470Y-122492048D01*
X88896867Y-122399679D01*
X88899333Y-122399333D01*
X88934240Y-122481396D01*
X88934240Y-122481396D01*
G37*
X88934240Y-122481396D02*
X88960679Y-122717491D01*
X88977606Y-123092484D01*
X88983976Y-123591235D01*
X88984000Y-123627000D01*
X88978340Y-124133154D01*
X88962058Y-124516516D01*
X88936196Y-124761951D01*
X88901800Y-124854321D01*
X88899333Y-124854667D01*
X88864426Y-124772604D01*
X88837987Y-124536508D01*
X88821061Y-124161516D01*
X88814690Y-123662764D01*
X88814667Y-123627000D01*
X88820326Y-123120846D01*
X88836608Y-122737483D01*
X88862470Y-122492048D01*
X88896867Y-122399679D01*
X88899333Y-122399333D01*
X88934240Y-122481396D01*
G36*
X93614493Y-122729061D02*
G01*
X93640667Y-122907333D01*
X93667277Y-123093253D01*
X93766288Y-123158713D01*
X93810000Y-123161333D01*
X93947580Y-123196789D01*
X93979333Y-123246000D01*
X93908421Y-123314790D01*
X93810000Y-123330667D01*
X93729548Y-123343399D01*
X93679556Y-123403082D01*
X93652863Y-123541946D01*
X93642306Y-123792219D01*
X93640667Y-124092667D01*
X93635717Y-124464416D01*
X93617654Y-124695974D01*
X93581655Y-124816278D01*
X93522896Y-124854265D01*
X93513667Y-124854667D01*
X93451708Y-124824971D01*
X93413115Y-124716594D01*
X93393065Y-124500597D01*
X93386733Y-124148041D01*
X93386667Y-124092667D01*
X93383837Y-123730632D01*
X93370574Y-123505669D01*
X93339715Y-123385550D01*
X93284099Y-123338046D01*
X93217333Y-123330667D01*
X93079753Y-123295210D01*
X93048000Y-123246000D01*
X93118912Y-123177210D01*
X93217333Y-123161333D01*
X93341280Y-123121417D01*
X93384920Y-122972900D01*
X93386667Y-122907333D01*
X93424531Y-122705681D01*
X93513667Y-122653333D01*
X93614493Y-122729061D01*
X93614493Y-122729061D01*
G37*
X93614493Y-122729061D02*
X93640667Y-122907333D01*
X93667277Y-123093253D01*
X93766288Y-123158713D01*
X93810000Y-123161333D01*
X93947580Y-123196789D01*
X93979333Y-123246000D01*
X93908421Y-123314790D01*
X93810000Y-123330667D01*
X93729548Y-123343399D01*
X93679556Y-123403082D01*
X93652863Y-123541946D01*
X93642306Y-123792219D01*
X93640667Y-124092667D01*
X93635717Y-124464416D01*
X93617654Y-124695974D01*
X93581655Y-124816278D01*
X93522896Y-124854265D01*
X93513667Y-124854667D01*
X93451708Y-124824971D01*
X93413115Y-124716594D01*
X93393065Y-124500597D01*
X93386733Y-124148041D01*
X93386667Y-124092667D01*
X93383837Y-123730632D01*
X93370574Y-123505669D01*
X93339715Y-123385550D01*
X93284099Y-123338046D01*
X93217333Y-123330667D01*
X93079753Y-123295210D01*
X93048000Y-123246000D01*
X93118912Y-123177210D01*
X93217333Y-123161333D01*
X93341280Y-123121417D01*
X93384920Y-122972900D01*
X93386667Y-122907333D01*
X93424531Y-122705681D01*
X93513667Y-122653333D01*
X93614493Y-122729061D01*
G36*
X95075186Y-123165512D02*
G01*
X95080000Y-123203667D01*
X95006562Y-123305909D01*
X94871312Y-123330667D01*
X94693800Y-123373850D01*
X94576483Y-123517382D01*
X94510662Y-123782237D01*
X94487637Y-124189387D01*
X94487333Y-124256434D01*
X94476241Y-124562581D01*
X94446469Y-124774373D01*
X94403277Y-124854653D01*
X94402667Y-124854667D01*
X94363335Y-124774171D01*
X94334898Y-124548950D01*
X94319797Y-124203397D01*
X94318000Y-124008000D01*
X94326049Y-123614680D01*
X94348572Y-123330316D01*
X94383127Y-123179305D01*
X94402667Y-123161333D01*
X94482724Y-123227369D01*
X94487333Y-123259122D01*
X94536241Y-123289390D01*
X94642167Y-123216789D01*
X94825367Y-123103687D01*
X94986675Y-123086086D01*
X95075186Y-123165512D01*
X95075186Y-123165512D01*
G37*
X95075186Y-123165512D02*
X95080000Y-123203667D01*
X95006562Y-123305909D01*
X94871312Y-123330667D01*
X94693800Y-123373850D01*
X94576483Y-123517382D01*
X94510662Y-123782237D01*
X94487637Y-124189387D01*
X94487333Y-124256434D01*
X94476241Y-124562581D01*
X94446469Y-124774373D01*
X94403277Y-124854653D01*
X94402667Y-124854667D01*
X94363335Y-124774171D01*
X94334898Y-124548950D01*
X94319797Y-124203397D01*
X94318000Y-124008000D01*
X94326049Y-123614680D01*
X94348572Y-123330316D01*
X94383127Y-123179305D01*
X94402667Y-123161333D01*
X94482724Y-123227369D01*
X94487333Y-123259122D01*
X94536241Y-123289390D01*
X94642167Y-123216789D01*
X94825367Y-123103687D01*
X94986675Y-123086086D01*
X95075186Y-123165512D01*
G36*
X95604889Y-123189311D02*
G01*
X95642911Y-123291814D01*
X95663911Y-123496693D01*
X95672065Y-123831801D01*
X95672667Y-124008000D01*
X95668470Y-124402818D01*
X95653094Y-124656300D01*
X95622362Y-124796296D01*
X95572096Y-124850660D01*
X95545667Y-124854667D01*
X95486444Y-124826688D01*
X95448422Y-124724185D01*
X95427422Y-124519306D01*
X95419268Y-124184199D01*
X95418667Y-124008000D01*
X95422863Y-123613182D01*
X95438239Y-123359700D01*
X95468971Y-123219703D01*
X95519237Y-123165340D01*
X95545667Y-123161333D01*
X95604889Y-123189311D01*
X95604889Y-123189311D01*
G37*
X95604889Y-123189311D02*
X95642911Y-123291814D01*
X95663911Y-123496693D01*
X95672065Y-123831801D01*
X95672667Y-124008000D01*
X95668470Y-124402818D01*
X95653094Y-124656300D01*
X95622362Y-124796296D01*
X95572096Y-124850660D01*
X95545667Y-124854667D01*
X95486444Y-124826688D01*
X95448422Y-124724185D01*
X95427422Y-124519306D01*
X95419268Y-124184199D01*
X95418667Y-124008000D01*
X95422863Y-123613182D01*
X95438239Y-123359700D01*
X95468971Y-123219703D01*
X95519237Y-123165340D01*
X95545667Y-123161333D01*
X95604889Y-123189311D01*
G36*
X95657973Y-122464545D02*
G01*
X95672667Y-122521336D01*
X95625795Y-122659919D01*
X95525767Y-122707024D01*
X95472809Y-122679254D01*
X95417777Y-122544650D01*
X95468380Y-122427001D01*
X95545667Y-122399333D01*
X95657973Y-122464545D01*
X95657973Y-122464545D01*
G37*
X95657973Y-122464545D02*
X95672667Y-122521336D01*
X95625795Y-122659919D01*
X95525767Y-122707024D01*
X95472809Y-122679254D01*
X95417777Y-122544650D01*
X95468380Y-122427001D01*
X95545667Y-122399333D01*
X95657973Y-122464545D01*
G36*
X88598813Y-118638908D02*
G01*
X89071028Y-118856496D01*
X89449545Y-119194977D01*
X89714600Y-119634581D01*
X89846427Y-120155535D01*
X89857480Y-120367333D01*
X89781133Y-120907242D01*
X89567023Y-121374749D01*
X89237548Y-121752431D01*
X88815105Y-122022863D01*
X88322092Y-122168622D01*
X87780905Y-122172284D01*
X87583260Y-122136543D01*
X87116464Y-121946867D01*
X86734678Y-121626739D01*
X86456685Y-121201555D01*
X86301268Y-120696708D01*
X86279716Y-120429842D01*
X87164824Y-120429842D01*
X87258517Y-120772587D01*
X87463993Y-121055802D01*
X87756004Y-121242604D01*
X88052667Y-121298034D01*
X88269679Y-121253910D01*
X88512227Y-121146581D01*
X88530771Y-121135569D01*
X88787494Y-120894875D01*
X88917106Y-120592149D01*
X88929972Y-120264223D01*
X88836457Y-119947929D01*
X88646927Y-119680100D01*
X88371746Y-119497567D01*
X88052667Y-119436633D01*
X87732623Y-119512651D01*
X87441392Y-119711505D01*
X87237888Y-119989396D01*
X87208162Y-120064447D01*
X87164824Y-120429842D01*
X86279716Y-120429842D01*
X86274667Y-120367333D01*
X86348434Y-119805854D01*
X86559121Y-119329324D01*
X86890808Y-118953912D01*
X87327570Y-118695783D01*
X87853488Y-118571105D01*
X88052667Y-118561985D01*
X88598813Y-118638908D01*
X88598813Y-118638908D01*
G37*
X88598813Y-118638908D02*
X89071028Y-118856496D01*
X89449545Y-119194977D01*
X89714600Y-119634581D01*
X89846427Y-120155535D01*
X89857480Y-120367333D01*
X89781133Y-120907242D01*
X89567023Y-121374749D01*
X89237548Y-121752431D01*
X88815105Y-122022863D01*
X88322092Y-122168622D01*
X87780905Y-122172284D01*
X87583260Y-122136543D01*
X87116464Y-121946867D01*
X86734678Y-121626739D01*
X86456685Y-121201555D01*
X86301268Y-120696708D01*
X86279716Y-120429842D01*
X87164824Y-120429842D01*
X87258517Y-120772587D01*
X87463993Y-121055802D01*
X87756004Y-121242604D01*
X88052667Y-121298034D01*
X88269679Y-121253910D01*
X88512227Y-121146581D01*
X88530771Y-121135569D01*
X88787494Y-120894875D01*
X88917106Y-120592149D01*
X88929972Y-120264223D01*
X88836457Y-119947929D01*
X88646927Y-119680100D01*
X88371746Y-119497567D01*
X88052667Y-119436633D01*
X87732623Y-119512651D01*
X87441392Y-119711505D01*
X87237888Y-119989396D01*
X87208162Y-120064447D01*
X87164824Y-120429842D01*
X86279716Y-120429842D01*
X86274667Y-120367333D01*
X86348434Y-119805854D01*
X86559121Y-119329324D01*
X86890808Y-118953912D01*
X87327570Y-118695783D01*
X87853488Y-118571105D01*
X88052667Y-118561985D01*
X88598813Y-118638908D01*
G36*
X91270000Y-121298667D02*
G01*
X92455333Y-121298667D01*
X92455333Y-122145333D01*
X90338667Y-122145333D01*
X90338667Y-118589333D01*
X91270000Y-118589333D01*
X91270000Y-121298667D01*
X91270000Y-121298667D01*
G37*
X91270000Y-121298667D02*
X92455333Y-121298667D01*
X92455333Y-122145333D01*
X90338667Y-122145333D01*
X90338667Y-118589333D01*
X91270000Y-118589333D01*
X91270000Y-121298667D01*
G36*
X93725333Y-122145333D02*
G01*
X92878667Y-122145333D01*
X92878667Y-118589333D01*
X93725333Y-118589333D01*
X93725333Y-122145333D01*
X93725333Y-122145333D01*
G37*
X93725333Y-122145333D02*
X92878667Y-122145333D01*
X92878667Y-118589333D01*
X93725333Y-118589333D01*
X93725333Y-122145333D01*
G36*
X97450667Y-122145333D02*
G01*
X96561667Y-122142527D01*
X96011333Y-121298667D01*
X95792235Y-120970310D01*
X95603357Y-120701382D01*
X95464958Y-120519780D01*
X95397500Y-120453403D01*
X95370849Y-120531468D01*
X95349705Y-120743085D01*
X95336755Y-121052494D01*
X95334000Y-121298667D01*
X95334000Y-122145333D01*
X94487333Y-122145333D01*
X94487333Y-120595182D01*
X94484605Y-120014305D01*
X94475323Y-119580007D01*
X94457843Y-119269606D01*
X94430521Y-119060421D01*
X94391712Y-118929767D01*
X94363026Y-118880682D01*
X94266437Y-118732617D01*
X94268590Y-118645203D01*
X94390829Y-118602899D01*
X94654494Y-118590163D01*
X94762500Y-118589783D01*
X95291667Y-118590233D01*
X96561667Y-120567739D01*
X96585520Y-119578536D01*
X96609374Y-118589333D01*
X97450667Y-118589333D01*
X97450667Y-122145333D01*
X97450667Y-122145333D01*
G37*
X97450667Y-122145333D02*
X96561667Y-122142527D01*
X96011333Y-121298667D01*
X95792235Y-120970310D01*
X95603357Y-120701382D01*
X95464958Y-120519780D01*
X95397500Y-120453403D01*
X95370849Y-120531468D01*
X95349705Y-120743085D01*
X95336755Y-121052494D01*
X95334000Y-121298667D01*
X95334000Y-122145333D01*
X94487333Y-122145333D01*
X94487333Y-120595182D01*
X94484605Y-120014305D01*
X94475323Y-119580007D01*
X94457843Y-119269606D01*
X94430521Y-119060421D01*
X94391712Y-118929767D01*
X94363026Y-118880682D01*
X94266437Y-118732617D01*
X94268590Y-118645203D01*
X94390829Y-118602899D01*
X94654494Y-118590163D01*
X94762500Y-118589783D01*
X95291667Y-118590233D01*
X96561667Y-120567739D01*
X96585520Y-119578536D01*
X96609374Y-118589333D01*
X97450667Y-118589333D01*
X97450667Y-122145333D01*
G36*
X100072599Y-113478377D02*
G01*
X100049105Y-113548504D01*
X99984106Y-113595988D01*
X99819449Y-113704647D01*
X99554865Y-113897740D01*
X99220698Y-114151520D01*
X98847291Y-114442236D01*
X98464988Y-114746142D01*
X98104132Y-115039489D01*
X97795067Y-115298528D01*
X97671336Y-115406082D01*
X97210737Y-115842121D01*
X96730574Y-116346078D01*
X96270255Y-116873107D01*
X95869185Y-117378360D01*
X95601182Y-117762076D01*
X95431910Y-118018949D01*
X95305719Y-118164184D01*
X95176051Y-118229801D01*
X94996346Y-118247824D01*
X94893336Y-118248909D01*
X94650517Y-118242537D01*
X94525581Y-118199042D01*
X94467149Y-118086075D01*
X94441287Y-117964320D01*
X94354687Y-117678638D01*
X94234348Y-117426023D01*
X94164123Y-117319028D01*
X94085782Y-117245608D01*
X93966623Y-117196917D01*
X93773940Y-117164112D01*
X93475032Y-117138348D01*
X93077731Y-117113240D01*
X92602490Y-117076968D01*
X92114073Y-117027220D01*
X91679772Y-116971438D01*
X91441095Y-116932237D01*
X91034092Y-116848343D01*
X90649536Y-116757321D01*
X90318876Y-116668025D01*
X90073564Y-116589311D01*
X89945049Y-116530032D01*
X89935974Y-116508470D01*
X90023899Y-116490793D01*
X90254412Y-116456157D01*
X90601973Y-116407797D01*
X91041043Y-116348949D01*
X91546086Y-116282848D01*
X92091561Y-116212729D01*
X92651932Y-116141827D01*
X93201660Y-116073376D01*
X93715206Y-116010613D01*
X94167032Y-115956773D01*
X94531599Y-115915090D01*
X94783370Y-115888799D01*
X94889500Y-115880972D01*
X94983190Y-115948223D01*
X94995333Y-116007000D01*
X95054619Y-116110940D01*
X95221574Y-116107471D01*
X95479839Y-116004470D01*
X95813059Y-115809819D01*
X96204878Y-115531396D01*
X96536696Y-115264479D01*
X96820276Y-114995776D01*
X96967763Y-114763598D01*
X96993685Y-114527097D01*
X96912572Y-114245428D01*
X96905382Y-114228025D01*
X96830428Y-114019228D01*
X96805160Y-113885186D01*
X96810675Y-113867103D01*
X96906591Y-113841573D01*
X97137773Y-113802881D01*
X97472434Y-113754816D01*
X97878783Y-113701165D01*
X98325033Y-113645718D01*
X98779393Y-113592263D01*
X99210076Y-113544587D01*
X99585292Y-113506480D01*
X99873253Y-113481729D01*
X100042169Y-113474122D01*
X100072599Y-113478377D01*
X100072599Y-113478377D01*
G37*
X100072599Y-113478377D02*
X100049105Y-113548504D01*
X99984106Y-113595988D01*
X99819449Y-113704647D01*
X99554865Y-113897740D01*
X99220698Y-114151520D01*
X98847291Y-114442236D01*
X98464988Y-114746142D01*
X98104132Y-115039489D01*
X97795067Y-115298528D01*
X97671336Y-115406082D01*
X97210737Y-115842121D01*
X96730574Y-116346078D01*
X96270255Y-116873107D01*
X95869185Y-117378360D01*
X95601182Y-117762076D01*
X95431910Y-118018949D01*
X95305719Y-118164184D01*
X95176051Y-118229801D01*
X94996346Y-118247824D01*
X94893336Y-118248909D01*
X94650517Y-118242537D01*
X94525581Y-118199042D01*
X94467149Y-118086075D01*
X94441287Y-117964320D01*
X94354687Y-117678638D01*
X94234348Y-117426023D01*
X94164123Y-117319028D01*
X94085782Y-117245608D01*
X93966623Y-117196917D01*
X93773940Y-117164112D01*
X93475032Y-117138348D01*
X93077731Y-117113240D01*
X92602490Y-117076968D01*
X92114073Y-117027220D01*
X91679772Y-116971438D01*
X91441095Y-116932237D01*
X91034092Y-116848343D01*
X90649536Y-116757321D01*
X90318876Y-116668025D01*
X90073564Y-116589311D01*
X89945049Y-116530032D01*
X89935974Y-116508470D01*
X90023899Y-116490793D01*
X90254412Y-116456157D01*
X90601973Y-116407797D01*
X91041043Y-116348949D01*
X91546086Y-116282848D01*
X92091561Y-116212729D01*
X92651932Y-116141827D01*
X93201660Y-116073376D01*
X93715206Y-116010613D01*
X94167032Y-115956773D01*
X94531599Y-115915090D01*
X94783370Y-115888799D01*
X94889500Y-115880972D01*
X94983190Y-115948223D01*
X94995333Y-116007000D01*
X95054619Y-116110940D01*
X95221574Y-116107471D01*
X95479839Y-116004470D01*
X95813059Y-115809819D01*
X96204878Y-115531396D01*
X96536696Y-115264479D01*
X96820276Y-114995776D01*
X96967763Y-114763598D01*
X96993685Y-114527097D01*
X96912572Y-114245428D01*
X96905382Y-114228025D01*
X96830428Y-114019228D01*
X96805160Y-113885186D01*
X96810675Y-113867103D01*
X96906591Y-113841573D01*
X97137773Y-113802881D01*
X97472434Y-113754816D01*
X97878783Y-113701165D01*
X98325033Y-113645718D01*
X98779393Y-113592263D01*
X99210076Y-113544587D01*
X99585292Y-113506480D01*
X99873253Y-113481729D01*
X100042169Y-113474122D01*
X100072599Y-113478377D01*
G36*
X94268802Y-114155913D02*
G01*
X94351139Y-114261066D01*
X94447420Y-114472868D01*
X94534879Y-114692928D01*
X94641412Y-114982895D01*
X94710297Y-115207223D01*
X94729052Y-115324282D01*
X94726128Y-115330761D01*
X94627671Y-115357006D01*
X94385295Y-115397256D01*
X94023576Y-115448692D01*
X93567090Y-115508500D01*
X93040413Y-115573862D01*
X92468122Y-115641961D01*
X91874793Y-115709982D01*
X91285002Y-115775107D01*
X90723325Y-115834521D01*
X90214339Y-115885405D01*
X89782620Y-115924945D01*
X89452745Y-115950323D01*
X89249289Y-115958722D01*
X89246971Y-115958701D01*
X88898645Y-115937583D01*
X88569353Y-115888976D01*
X88376403Y-115838292D01*
X88134807Y-115730687D01*
X87853661Y-115578175D01*
X87572480Y-115406068D01*
X87330781Y-115239676D01*
X87168081Y-115104312D01*
X87121333Y-115034385D01*
X87190084Y-114958797D01*
X87251091Y-114948667D01*
X87364124Y-114938865D01*
X87622840Y-114911234D01*
X88004831Y-114868435D01*
X88487690Y-114813130D01*
X89049010Y-114747979D01*
X89666384Y-114675643D01*
X90317406Y-114598784D01*
X90979667Y-114520064D01*
X91630762Y-114442142D01*
X92248284Y-114367681D01*
X92809825Y-114299342D01*
X93292978Y-114239785D01*
X93675337Y-114191673D01*
X93934494Y-114157665D01*
X94034462Y-114143029D01*
X94172534Y-114126777D01*
X94268802Y-114155913D01*
X94268802Y-114155913D01*
G37*
X94268802Y-114155913D02*
X94351139Y-114261066D01*
X94447420Y-114472868D01*
X94534879Y-114692928D01*
X94641412Y-114982895D01*
X94710297Y-115207223D01*
X94729052Y-115324282D01*
X94726128Y-115330761D01*
X94627671Y-115357006D01*
X94385295Y-115397256D01*
X94023576Y-115448692D01*
X93567090Y-115508500D01*
X93040413Y-115573862D01*
X92468122Y-115641961D01*
X91874793Y-115709982D01*
X91285002Y-115775107D01*
X90723325Y-115834521D01*
X90214339Y-115885405D01*
X89782620Y-115924945D01*
X89452745Y-115950323D01*
X89249289Y-115958722D01*
X89246971Y-115958701D01*
X88898645Y-115937583D01*
X88569353Y-115888976D01*
X88376403Y-115838292D01*
X88134807Y-115730687D01*
X87853661Y-115578175D01*
X87572480Y-115406068D01*
X87330781Y-115239676D01*
X87168081Y-115104312D01*
X87121333Y-115034385D01*
X87190084Y-114958797D01*
X87251091Y-114948667D01*
X87364124Y-114938865D01*
X87622840Y-114911234D01*
X88004831Y-114868435D01*
X88487690Y-114813130D01*
X89049010Y-114747979D01*
X89666384Y-114675643D01*
X90317406Y-114598784D01*
X90979667Y-114520064D01*
X91630762Y-114442142D01*
X92248284Y-114367681D01*
X92809825Y-114299342D01*
X93292978Y-114239785D01*
X93675337Y-114191673D01*
X93934494Y-114157665D01*
X94034462Y-114143029D01*
X94172534Y-114126777D01*
X94268802Y-114155913D01*
G36*
X92797714Y-112074652D02*
G01*
X92827891Y-112082759D01*
X92959918Y-112188647D01*
X93153626Y-112396119D01*
X93377239Y-112665552D01*
X93598978Y-112957321D01*
X93787068Y-113231804D01*
X93888106Y-113404756D01*
X93943878Y-113557610D01*
X93892600Y-113626795D01*
X93877151Y-113632485D01*
X93765061Y-113651895D01*
X93507022Y-113687563D01*
X93125360Y-113736865D01*
X92642402Y-113797178D01*
X92080476Y-113865877D01*
X91461909Y-113940340D01*
X90809028Y-114017941D01*
X90144161Y-114096058D01*
X89489635Y-114172067D01*
X88867776Y-114243343D01*
X88300914Y-114307264D01*
X87811374Y-114361204D01*
X87421484Y-114402542D01*
X87153571Y-114428652D01*
X87031454Y-114436950D01*
X86812086Y-114405649D01*
X86548188Y-114333994D01*
X86516153Y-114322902D01*
X86241705Y-114198240D01*
X85995308Y-114045615D01*
X85982558Y-114035783D01*
X85830322Y-113894920D01*
X85640196Y-113690611D01*
X85442058Y-113459234D01*
X85265783Y-113237168D01*
X85141249Y-113060793D01*
X85098333Y-112966488D01*
X85100584Y-112961860D01*
X85188546Y-112945224D01*
X85427581Y-112910311D01*
X85800673Y-112859351D01*
X86290808Y-112794570D01*
X86880971Y-112718200D01*
X87554147Y-112632468D01*
X88293320Y-112539602D01*
X88891240Y-112465319D01*
X89890667Y-112343428D01*
X90730161Y-112244809D01*
X91417410Y-112168715D01*
X91960102Y-112114400D01*
X92365925Y-112081115D01*
X92642566Y-112068115D01*
X92797714Y-112074652D01*
X92797714Y-112074652D01*
G37*
X92797714Y-112074652D02*
X92827891Y-112082759D01*
X92959918Y-112188647D01*
X93153626Y-112396119D01*
X93377239Y-112665552D01*
X93598978Y-112957321D01*
X93787068Y-113231804D01*
X93888106Y-113404756D01*
X93943878Y-113557610D01*
X93892600Y-113626795D01*
X93877151Y-113632485D01*
X93765061Y-113651895D01*
X93507022Y-113687563D01*
X93125360Y-113736865D01*
X92642402Y-113797178D01*
X92080476Y-113865877D01*
X91461909Y-113940340D01*
X90809028Y-114017941D01*
X90144161Y-114096058D01*
X89489635Y-114172067D01*
X88867776Y-114243343D01*
X88300914Y-114307264D01*
X87811374Y-114361204D01*
X87421484Y-114402542D01*
X87153571Y-114428652D01*
X87031454Y-114436950D01*
X86812086Y-114405649D01*
X86548188Y-114333994D01*
X86516153Y-114322902D01*
X86241705Y-114198240D01*
X85995308Y-114045615D01*
X85982558Y-114035783D01*
X85830322Y-113894920D01*
X85640196Y-113690611D01*
X85442058Y-113459234D01*
X85265783Y-113237168D01*
X85141249Y-113060793D01*
X85098333Y-112966488D01*
X85100584Y-112961860D01*
X85188546Y-112945224D01*
X85427581Y-112910311D01*
X85800673Y-112859351D01*
X86290808Y-112794570D01*
X86880971Y-112718200D01*
X87554147Y-112632468D01*
X88293320Y-112539602D01*
X88891240Y-112465319D01*
X89890667Y-112343428D01*
X90730161Y-112244809D01*
X91417410Y-112168715D01*
X91960102Y-112114400D01*
X92365925Y-112081115D01*
X92642566Y-112068115D01*
X92797714Y-112074652D01*
D10*
X106870000Y-162080000D02*
X106870000Y-156700000D01*
X118330000Y-162080000D02*
X106870000Y-162080000D01*
X118330000Y-156700000D02*
X118330000Y-162080000D01*
X106870000Y-156700000D02*
X118330000Y-156700000D01*
D11*
X140140000Y-122415000D02*
X140140000Y-112045000D01*
X149270000Y-122415000D02*
X140140000Y-122415000D01*
X150270000Y-121415000D02*
X149270000Y-122415000D01*
X150270000Y-113045000D02*
X150270000Y-121415000D01*
X149270000Y-112045000D02*
X150270000Y-113045000D01*
X140140000Y-112045000D02*
X149270000Y-112045000D01*
X105490000Y-158630000D02*
X105490000Y-159830000D01*
X103730000Y-159830000D02*
X103730000Y-158630000D01*
D10*
X98710000Y-173152000D02*
X98710000Y-164516000D01*
X129190000Y-173152000D02*
X98710000Y-173152000D01*
X129190000Y-164516000D02*
X129190000Y-173152000D01*
X98710000Y-164516000D02*
X129190000Y-164516000D01*
D11*
X130020000Y-126065000D02*
X135780000Y-126065000D01*
X130020000Y-127485000D02*
X130020000Y-126065000D01*
X130520000Y-127485000D02*
X130020000Y-127485000D01*
X130520000Y-137515000D02*
X130520000Y-127485000D01*
X130020000Y-137515000D02*
X130520000Y-137515000D01*
X130020000Y-138935000D02*
X130020000Y-137515000D01*
X135780000Y-138935000D02*
X130020000Y-138935000D01*
X137610000Y-126065000D02*
X137300000Y-126065000D01*
X137610000Y-138935000D02*
X137610000Y-126065000D01*
X137300000Y-138935000D02*
X137610000Y-138935000D01*
D10*
X141898000Y-125100000D02*
X141898000Y-140100000D01*
X147620000Y-125100000D02*
X147620000Y-140100000D01*
X147620000Y-140100000D02*
X141898000Y-140100000D01*
X147620000Y-125100000D02*
X141898000Y-125100000D01*
X150930000Y-128700000D02*
X147620000Y-128700000D01*
X150930000Y-136500000D02*
X150930000Y-128700000D01*
X147620000Y-136500000D02*
X150930000Y-136500000D01*
X116864333Y-133520380D02*
X116531000Y-133044190D01*
X116292904Y-133520380D02*
X116292904Y-132520380D01*
X116673857Y-132520380D01*
X116769095Y-132568000D01*
X116816714Y-132615619D01*
X116864333Y-132710857D01*
X116864333Y-132853714D01*
X116816714Y-132948952D01*
X116769095Y-132996571D01*
X116673857Y-133044190D01*
X116292904Y-133044190D01*
X117816714Y-133520380D02*
X117245285Y-133520380D01*
X117531000Y-133520380D02*
X117531000Y-132520380D01*
X117435761Y-132663238D01*
X117340523Y-132758476D01*
X117245285Y-132806095D01*
X91256666Y-137542380D02*
X91256666Y-138256666D01*
X91209047Y-138399523D01*
X91113809Y-138494761D01*
X90970952Y-138542380D01*
X90875714Y-138542380D01*
X92209047Y-137542380D02*
X91732857Y-137542380D01*
X91685238Y-138018571D01*
X91732857Y-137970952D01*
X91828095Y-137923333D01*
X92066190Y-137923333D01*
X92161428Y-137970952D01*
X92209047Y-138018571D01*
X92256666Y-138113809D01*
X92256666Y-138351904D01*
X92209047Y-138447142D01*
X92161428Y-138494761D01*
X92066190Y-138542380D01*
X91828095Y-138542380D01*
X91732857Y-138494761D01*
X91685238Y-138447142D01*
X83148666Y-139192380D02*
X83148666Y-139906666D01*
X83101047Y-140049523D01*
X83005809Y-140144761D01*
X82862952Y-140192380D01*
X82767714Y-140192380D01*
X83529619Y-139192380D02*
X84148666Y-139192380D01*
X83815333Y-139573333D01*
X83958190Y-139573333D01*
X84053428Y-139620952D01*
X84101047Y-139668571D01*
X84148666Y-139763809D01*
X84148666Y-140001904D01*
X84101047Y-140097142D01*
X84053428Y-140144761D01*
X83958190Y-140192380D01*
X83672476Y-140192380D01*
X83577238Y-140144761D01*
X83529619Y-140097142D01*
X64596666Y-137542380D02*
X64596666Y-138256666D01*
X64549047Y-138399523D01*
X64453809Y-138494761D01*
X64310952Y-138542380D01*
X64215714Y-138542380D01*
X65501428Y-137875714D02*
X65501428Y-138542380D01*
X65263333Y-137494761D02*
X65025238Y-138209047D01*
X65644285Y-138209047D01*
X56488666Y-139192380D02*
X56488666Y-139906666D01*
X56441047Y-140049523D01*
X56345809Y-140144761D01*
X56202952Y-140192380D01*
X56107714Y-140192380D01*
X56869619Y-139192380D02*
X57488666Y-139192380D01*
X57155333Y-139573333D01*
X57298190Y-139573333D01*
X57393428Y-139620952D01*
X57441047Y-139668571D01*
X57488666Y-139763809D01*
X57488666Y-140001904D01*
X57441047Y-140097142D01*
X57393428Y-140144761D01*
X57298190Y-140192380D01*
X57012476Y-140192380D01*
X56917238Y-140144761D01*
X56869619Y-140097142D01*
X109236666Y-155818571D02*
X108903333Y-155818571D01*
X108903333Y-156342380D02*
X108903333Y-155342380D01*
X109379523Y-155342380D01*
X110284285Y-156342380D02*
X109712857Y-156342380D01*
X109998571Y-156342380D02*
X109998571Y-155342380D01*
X109903333Y-155485238D01*
X109808095Y-155580476D01*
X109712857Y-155628095D01*
X138032380Y-113323333D02*
X138746666Y-113323333D01*
X138889523Y-113370952D01*
X138984761Y-113466190D01*
X139032380Y-113609047D01*
X139032380Y-113704285D01*
X138032380Y-112942380D02*
X138032380Y-112323333D01*
X138413333Y-112656666D01*
X138413333Y-112513809D01*
X138460952Y-112418571D01*
X138508571Y-112370952D01*
X138603809Y-112323333D01*
X138841904Y-112323333D01*
X138937142Y-112370952D01*
X138984761Y-112418571D01*
X139032380Y-112513809D01*
X139032380Y-112799523D01*
X138984761Y-112894761D01*
X138937142Y-112942380D01*
X103302380Y-159336666D02*
X102826190Y-159670000D01*
X103302380Y-159908095D02*
X102302380Y-159908095D01*
X102302380Y-159527142D01*
X102350000Y-159431904D01*
X102397619Y-159384285D01*
X102492857Y-159336666D01*
X102635714Y-159336666D01*
X102730952Y-159384285D01*
X102778571Y-159431904D01*
X102826190Y-159527142D01*
X102826190Y-159908095D01*
X102397619Y-158955714D02*
X102350000Y-158908095D01*
X102302380Y-158812857D01*
X102302380Y-158574761D01*
X102350000Y-158479523D01*
X102397619Y-158431904D01*
X102492857Y-158384285D01*
X102588095Y-158384285D01*
X102730952Y-158431904D01*
X103302380Y-159003333D01*
X103302380Y-158384285D01*
X115671904Y-163672380D02*
X115671904Y-162672380D01*
X116243333Y-163672380D02*
X115814761Y-163100952D01*
X116243333Y-162672380D02*
X115671904Y-163243809D01*
X117195714Y-163672380D02*
X116624285Y-163672380D01*
X116910000Y-163672380D02*
X116910000Y-162672380D01*
X116814761Y-162815238D01*
X116719523Y-162910476D01*
X116624285Y-162958095D01*
X128382380Y-133261904D02*
X129191904Y-133261904D01*
X129287142Y-133214285D01*
X129334761Y-133166666D01*
X129382380Y-133071428D01*
X129382380Y-132880952D01*
X129334761Y-132785714D01*
X129287142Y-132738095D01*
X129191904Y-132690476D01*
X128382380Y-132690476D01*
X129382380Y-131690476D02*
X129382380Y-132261904D01*
X129382380Y-131976190D02*
X128382380Y-131976190D01*
X128525238Y-132071428D01*
X128620476Y-132166666D01*
X128668095Y-132261904D01*
X148360780Y-127345333D02*
X149075066Y-127345333D01*
X149217923Y-127392952D01*
X149313161Y-127488190D01*
X149360780Y-127631047D01*
X149360780Y-127726285D01*
X149360780Y-126345333D02*
X149360780Y-126916761D01*
X149360780Y-126631047D02*
X148360780Y-126631047D01*
X148503638Y-126726285D01*
X148598876Y-126821523D01*
X148646495Y-126916761D01*
X142301980Y-153444533D02*
X143016266Y-153444533D01*
X143159123Y-153492152D01*
X143254361Y-153587390D01*
X143301980Y-153730247D01*
X143301980Y-153825485D01*
X142397219Y-153015961D02*
X142349600Y-152968342D01*
X142301980Y-152873104D01*
X142301980Y-152635009D01*
X142349600Y-152539771D01*
X142397219Y-152492152D01*
X142492457Y-152444533D01*
X142587695Y-152444533D01*
X142730552Y-152492152D01*
X143301980Y-153063580D01*
X143301980Y-152444533D01*
M02*
