M48
INCH,TZ
T1C0.0295
T2C0.0354
T3C0.0394
T4C0.0402
T5C0.0630
T6C0.0638
T7C0.0846
T8C0.0945
T9C0.3858
T10C0.0394
T11C0.1181
%
G90
G05
T1
X39862Y-67370
X43799Y-65402
X45768Y-65402
X49705Y-67370
T2
X53289Y-66745
X54076Y-66745
X54863Y-66745
X55651Y-66745
X56438Y-66745
T3
X52205Y-50984
X52205Y-52165
X52205Y-53346
X53386Y-50984
X53386Y-52165
X53386Y-53346
T4
X53558Y-61099
X53558Y-62280
X53558Y-63461
X54739Y-61099
X54739Y-62280
X54739Y-63461
X54425Y-45563
X54425Y-46744
X55606Y-45563
X55606Y-46744
X57165Y-50138
X57165Y-51516
X57165Y-52894
X57165Y-54272
T5
X23071Y-55516
X33567Y-55516
X33567Y-60516
X23071Y-60516
X24071Y-55516
X34567Y-55516
X34567Y-60516
X35567Y-55516
X35567Y-60516
X36567Y-55516
X36567Y-60516
X37567Y-55516
X37567Y-60516
X38567Y-55516
X38567Y-60516
X56287Y-50827
X24071Y-60516
X25071Y-55516
X25071Y-60516
X26071Y-55516
X26071Y-60516
X27071Y-55516
X27071Y-60516
X28071Y-55516
X28071Y-60516
T6
X43925Y-50189
X43925Y-54480
T7
X51320Y-56902
X51320Y-58280
X58407Y-56902
X58407Y-58280
T8
X44976Y-47239
X44976Y-57239
T9
X25571Y-58016
X36067Y-58016
T10
X53756Y-49803
X53756Y-54528
T11
X56440Y-62280
X57307Y-46154
T0
M30
