G04 #@! TF.GenerationSoftware,KiCad,Pcbnew,(5.1.4-0-10_14)*
G04 #@! TF.CreationDate,2020-02-02T19:29:53-05:00*
G04 #@! TF.ProjectId,AIR_MINUS,4149525f-4d49-44e5-9553-2e6b69636164,rev?*
G04 #@! TF.SameCoordinates,Original*
G04 #@! TF.FileFunction,Soldermask,Top*
G04 #@! TF.FilePolarity,Negative*
%FSLAX46Y46*%
G04 Gerber Fmt 4.6, Leading zero omitted, Abs format (unit mm)*
G04 Created by KiCad (PCBNEW (5.1.4-0-10_14)) date 2020-02-02 19:29:53*
%MOMM*%
%LPD*%
G04 APERTURE LIST*
%ADD10C,0.100000*%
G04 APERTURE END LIST*
D10*
G36*
X126410721Y-170590174D02*
G01*
X126510995Y-170631709D01*
X126510996Y-170631710D01*
X126601242Y-170692010D01*
X126677990Y-170768758D01*
X126677991Y-170768760D01*
X126738291Y-170859005D01*
X126779826Y-170959279D01*
X126801000Y-171065730D01*
X126801000Y-171174270D01*
X126779826Y-171280721D01*
X126738291Y-171380995D01*
X126738290Y-171380996D01*
X126677990Y-171471242D01*
X126601242Y-171547990D01*
X126555812Y-171578345D01*
X126510995Y-171608291D01*
X126410721Y-171649826D01*
X126304270Y-171671000D01*
X126195730Y-171671000D01*
X126089279Y-171649826D01*
X125989005Y-171608291D01*
X125944188Y-171578345D01*
X125898758Y-171547990D01*
X125822010Y-171471242D01*
X125761710Y-171380996D01*
X125761709Y-171380995D01*
X125720174Y-171280721D01*
X125699000Y-171174270D01*
X125699000Y-171065730D01*
X125720174Y-170959279D01*
X125761709Y-170859005D01*
X125822009Y-170768760D01*
X125822010Y-170768758D01*
X125898758Y-170692010D01*
X125989004Y-170631710D01*
X125989005Y-170631709D01*
X126089279Y-170590174D01*
X126195730Y-170569000D01*
X126304270Y-170569000D01*
X126410721Y-170590174D01*
X126410721Y-170590174D01*
G37*
G36*
X101410721Y-170590174D02*
G01*
X101510995Y-170631709D01*
X101510996Y-170631710D01*
X101601242Y-170692010D01*
X101677990Y-170768758D01*
X101677991Y-170768760D01*
X101738291Y-170859005D01*
X101779826Y-170959279D01*
X101801000Y-171065730D01*
X101801000Y-171174270D01*
X101779826Y-171280721D01*
X101738291Y-171380995D01*
X101738290Y-171380996D01*
X101677990Y-171471242D01*
X101601242Y-171547990D01*
X101555812Y-171578345D01*
X101510995Y-171608291D01*
X101410721Y-171649826D01*
X101304270Y-171671000D01*
X101195730Y-171671000D01*
X101089279Y-171649826D01*
X100989005Y-171608291D01*
X100944188Y-171578345D01*
X100898758Y-171547990D01*
X100822010Y-171471242D01*
X100761710Y-171380996D01*
X100761709Y-171380995D01*
X100720174Y-171280721D01*
X100699000Y-171174270D01*
X100699000Y-171065730D01*
X100720174Y-170959279D01*
X100761709Y-170859005D01*
X100822009Y-170768760D01*
X100822010Y-170768758D01*
X100898758Y-170692010D01*
X100989004Y-170631710D01*
X100989005Y-170631709D01*
X101089279Y-170590174D01*
X101195730Y-170569000D01*
X101304270Y-170569000D01*
X101410721Y-170590174D01*
X101410721Y-170590174D01*
G37*
G36*
X135509823Y-168241790D02*
G01*
X135610482Y-168272325D01*
X135660813Y-168287592D01*
X135799965Y-168361971D01*
X135921933Y-168462067D01*
X136022029Y-168584035D01*
X136096408Y-168723187D01*
X136096408Y-168723188D01*
X136142210Y-168874177D01*
X136153800Y-168991855D01*
X136153800Y-170070545D01*
X136142210Y-170188223D01*
X136111675Y-170288882D01*
X136096408Y-170339213D01*
X136022030Y-170478364D01*
X136022029Y-170478365D01*
X135921933Y-170600333D01*
X135883699Y-170631710D01*
X135799964Y-170700429D01*
X135660812Y-170774808D01*
X135610481Y-170790075D01*
X135509822Y-170820610D01*
X135352800Y-170836075D01*
X135195777Y-170820610D01*
X135095118Y-170790075D01*
X135044787Y-170774808D01*
X134905635Y-170700429D01*
X134895375Y-170692009D01*
X134783667Y-170600333D01*
X134683571Y-170478364D01*
X134609193Y-170339213D01*
X134609192Y-170339212D01*
X134593925Y-170288881D01*
X134563390Y-170188222D01*
X134551800Y-170070544D01*
X134551801Y-168991855D01*
X134563391Y-168874177D01*
X134609193Y-168723188D01*
X134609193Y-168723187D01*
X134683572Y-168584035D01*
X134783668Y-168462067D01*
X134905636Y-168361971D01*
X135044788Y-168287592D01*
X135095119Y-168272325D01*
X135195778Y-168241790D01*
X135352800Y-168226325D01*
X135509823Y-168241790D01*
X135509823Y-168241790D01*
G37*
G36*
X137509823Y-168241790D02*
G01*
X137610482Y-168272325D01*
X137660813Y-168287592D01*
X137799965Y-168361971D01*
X137921933Y-168462067D01*
X138022029Y-168584035D01*
X138096408Y-168723187D01*
X138096408Y-168723188D01*
X138142210Y-168874177D01*
X138153800Y-168991855D01*
X138153800Y-170070545D01*
X138142210Y-170188223D01*
X138111675Y-170288882D01*
X138096408Y-170339213D01*
X138022030Y-170478364D01*
X138022029Y-170478365D01*
X137921933Y-170600333D01*
X137883699Y-170631710D01*
X137799964Y-170700429D01*
X137660812Y-170774808D01*
X137610481Y-170790075D01*
X137509822Y-170820610D01*
X137352800Y-170836075D01*
X137195777Y-170820610D01*
X137095118Y-170790075D01*
X137044787Y-170774808D01*
X136905635Y-170700429D01*
X136895375Y-170692009D01*
X136783667Y-170600333D01*
X136683571Y-170478364D01*
X136609193Y-170339213D01*
X136609192Y-170339212D01*
X136593925Y-170288881D01*
X136563390Y-170188222D01*
X136551800Y-170070544D01*
X136551801Y-168991855D01*
X136563391Y-168874177D01*
X136609193Y-168723188D01*
X136609193Y-168723187D01*
X136683572Y-168584035D01*
X136783668Y-168462067D01*
X136905636Y-168361971D01*
X137044788Y-168287592D01*
X137095119Y-168272325D01*
X137195778Y-168241790D01*
X137352800Y-168226325D01*
X137509823Y-168241790D01*
X137509823Y-168241790D01*
G37*
G36*
X139509823Y-168241790D02*
G01*
X139610482Y-168272325D01*
X139660813Y-168287592D01*
X139799965Y-168361971D01*
X139921933Y-168462067D01*
X140022029Y-168584035D01*
X140096408Y-168723187D01*
X140096408Y-168723188D01*
X140142210Y-168874177D01*
X140153800Y-168991855D01*
X140153800Y-170070545D01*
X140142210Y-170188223D01*
X140111675Y-170288882D01*
X140096408Y-170339213D01*
X140022030Y-170478364D01*
X140022029Y-170478365D01*
X139921933Y-170600333D01*
X139883699Y-170631710D01*
X139799964Y-170700429D01*
X139660812Y-170774808D01*
X139610481Y-170790075D01*
X139509822Y-170820610D01*
X139352800Y-170836075D01*
X139195777Y-170820610D01*
X139095118Y-170790075D01*
X139044787Y-170774808D01*
X138905635Y-170700429D01*
X138895375Y-170692009D01*
X138783667Y-170600333D01*
X138683571Y-170478364D01*
X138609193Y-170339213D01*
X138609192Y-170339212D01*
X138593925Y-170288881D01*
X138563390Y-170188222D01*
X138551800Y-170070544D01*
X138551801Y-168991855D01*
X138563391Y-168874177D01*
X138609193Y-168723188D01*
X138609193Y-168723187D01*
X138683572Y-168584035D01*
X138783668Y-168462067D01*
X138905636Y-168361971D01*
X139044788Y-168287592D01*
X139095119Y-168272325D01*
X139195778Y-168241790D01*
X139352800Y-168226325D01*
X139509823Y-168241790D01*
X139509823Y-168241790D01*
G37*
G36*
X141509823Y-168241790D02*
G01*
X141610482Y-168272325D01*
X141660813Y-168287592D01*
X141799965Y-168361971D01*
X141921933Y-168462067D01*
X142022029Y-168584035D01*
X142096408Y-168723187D01*
X142096408Y-168723188D01*
X142142210Y-168874177D01*
X142153800Y-168991855D01*
X142153800Y-170070545D01*
X142142210Y-170188223D01*
X142111675Y-170288882D01*
X142096408Y-170339213D01*
X142022030Y-170478364D01*
X142022029Y-170478365D01*
X141921933Y-170600333D01*
X141883699Y-170631710D01*
X141799964Y-170700429D01*
X141660812Y-170774808D01*
X141610481Y-170790075D01*
X141509822Y-170820610D01*
X141352800Y-170836075D01*
X141195777Y-170820610D01*
X141095118Y-170790075D01*
X141044787Y-170774808D01*
X140905635Y-170700429D01*
X140895375Y-170692009D01*
X140783667Y-170600333D01*
X140683571Y-170478364D01*
X140609193Y-170339213D01*
X140609192Y-170339212D01*
X140593925Y-170288881D01*
X140563390Y-170188222D01*
X140551800Y-170070544D01*
X140551801Y-168991855D01*
X140563391Y-168874177D01*
X140609193Y-168723188D01*
X140609193Y-168723187D01*
X140683572Y-168584035D01*
X140783668Y-168462067D01*
X140905636Y-168361971D01*
X141044788Y-168287592D01*
X141095119Y-168272325D01*
X141195778Y-168241790D01*
X141352800Y-168226325D01*
X141509823Y-168241790D01*
X141509823Y-168241790D01*
G37*
G36*
X143509823Y-168241790D02*
G01*
X143610482Y-168272325D01*
X143660813Y-168287592D01*
X143799965Y-168361971D01*
X143921933Y-168462067D01*
X144022029Y-168584035D01*
X144096408Y-168723187D01*
X144096408Y-168723188D01*
X144142210Y-168874177D01*
X144153800Y-168991855D01*
X144153800Y-170070545D01*
X144142210Y-170188223D01*
X144111675Y-170288882D01*
X144096408Y-170339213D01*
X144022030Y-170478364D01*
X144022029Y-170478365D01*
X143921933Y-170600333D01*
X143883699Y-170631710D01*
X143799964Y-170700429D01*
X143660812Y-170774808D01*
X143610481Y-170790075D01*
X143509822Y-170820610D01*
X143352800Y-170836075D01*
X143195777Y-170820610D01*
X143095118Y-170790075D01*
X143044787Y-170774808D01*
X142905635Y-170700429D01*
X142895375Y-170692009D01*
X142783667Y-170600333D01*
X142683571Y-170478364D01*
X142609193Y-170339213D01*
X142609192Y-170339212D01*
X142593925Y-170288881D01*
X142563390Y-170188222D01*
X142551800Y-170070544D01*
X142551801Y-168991855D01*
X142563391Y-168874177D01*
X142609193Y-168723188D01*
X142609193Y-168723187D01*
X142683572Y-168584035D01*
X142783668Y-168462067D01*
X142905636Y-168361971D01*
X143044788Y-168287592D01*
X143095119Y-168272325D01*
X143195778Y-168241790D01*
X143352800Y-168226325D01*
X143509823Y-168241790D01*
X143509823Y-168241790D01*
G37*
G36*
X116410721Y-165590174D02*
G01*
X116510995Y-165631709D01*
X116510996Y-165631710D01*
X116601242Y-165692010D01*
X116677990Y-165768758D01*
X116677991Y-165768760D01*
X116738291Y-165859005D01*
X116779826Y-165959279D01*
X116801000Y-166065730D01*
X116801000Y-166174270D01*
X116779826Y-166280721D01*
X116738291Y-166380995D01*
X116738290Y-166380996D01*
X116677990Y-166471242D01*
X116601242Y-166547990D01*
X116555812Y-166578345D01*
X116510995Y-166608291D01*
X116410721Y-166649826D01*
X116304270Y-166671000D01*
X116195730Y-166671000D01*
X116089279Y-166649826D01*
X115989005Y-166608291D01*
X115944188Y-166578345D01*
X115898758Y-166547990D01*
X115822010Y-166471242D01*
X115761710Y-166380996D01*
X115761709Y-166380995D01*
X115720174Y-166280721D01*
X115699000Y-166174270D01*
X115699000Y-166065730D01*
X115720174Y-165959279D01*
X115761709Y-165859005D01*
X115822009Y-165768760D01*
X115822010Y-165768758D01*
X115898758Y-165692010D01*
X115989004Y-165631710D01*
X115989005Y-165631709D01*
X116089279Y-165590174D01*
X116195730Y-165569000D01*
X116304270Y-165569000D01*
X116410721Y-165590174D01*
X116410721Y-165590174D01*
G37*
G36*
X111410721Y-165590174D02*
G01*
X111510995Y-165631709D01*
X111510996Y-165631710D01*
X111601242Y-165692010D01*
X111677990Y-165768758D01*
X111677991Y-165768760D01*
X111738291Y-165859005D01*
X111779826Y-165959279D01*
X111801000Y-166065730D01*
X111801000Y-166174270D01*
X111779826Y-166280721D01*
X111738291Y-166380995D01*
X111738290Y-166380996D01*
X111677990Y-166471242D01*
X111601242Y-166547990D01*
X111555812Y-166578345D01*
X111510995Y-166608291D01*
X111410721Y-166649826D01*
X111304270Y-166671000D01*
X111195730Y-166671000D01*
X111089279Y-166649826D01*
X110989005Y-166608291D01*
X110944188Y-166578345D01*
X110898758Y-166547990D01*
X110822010Y-166471242D01*
X110761710Y-166380996D01*
X110761709Y-166380995D01*
X110720174Y-166280721D01*
X110699000Y-166174270D01*
X110699000Y-166065730D01*
X110720174Y-165959279D01*
X110761709Y-165859005D01*
X110822009Y-165768760D01*
X110822010Y-165768758D01*
X110898758Y-165692010D01*
X110989004Y-165631710D01*
X110989005Y-165631709D01*
X111089279Y-165590174D01*
X111195730Y-165569000D01*
X111304270Y-165569000D01*
X111410721Y-165590174D01*
X111410721Y-165590174D01*
G37*
G36*
X139256659Y-160469060D02*
G01*
X139393332Y-160525672D01*
X139516335Y-160607860D01*
X139620940Y-160712465D01*
X139703128Y-160835468D01*
X139759740Y-160972141D01*
X139788600Y-161117233D01*
X139788600Y-161265167D01*
X139759740Y-161410259D01*
X139703128Y-161546932D01*
X139620940Y-161669935D01*
X139516335Y-161774540D01*
X139393332Y-161856728D01*
X139393331Y-161856729D01*
X139393330Y-161856729D01*
X139256659Y-161913340D01*
X139111568Y-161942200D01*
X138963632Y-161942200D01*
X138818541Y-161913340D01*
X138681870Y-161856729D01*
X138681869Y-161856729D01*
X138681868Y-161856728D01*
X138558865Y-161774540D01*
X138454260Y-161669935D01*
X138372072Y-161546932D01*
X138315460Y-161410259D01*
X138286600Y-161265167D01*
X138286600Y-161117233D01*
X138315460Y-160972141D01*
X138372072Y-160835468D01*
X138454260Y-160712465D01*
X138558865Y-160607860D01*
X138681868Y-160525672D01*
X138818541Y-160469060D01*
X138963632Y-160440200D01*
X139111568Y-160440200D01*
X139256659Y-160469060D01*
X139256659Y-160469060D01*
G37*
G36*
X136256659Y-160469060D02*
G01*
X136393332Y-160525672D01*
X136516335Y-160607860D01*
X136620940Y-160712465D01*
X136703128Y-160835468D01*
X136759740Y-160972141D01*
X136788600Y-161117233D01*
X136788600Y-161265167D01*
X136759740Y-161410259D01*
X136703128Y-161546932D01*
X136620940Y-161669935D01*
X136516335Y-161774540D01*
X136393332Y-161856728D01*
X136393331Y-161856729D01*
X136393330Y-161856729D01*
X136256659Y-161913340D01*
X136111568Y-161942200D01*
X135963632Y-161942200D01*
X135818541Y-161913340D01*
X135681870Y-161856729D01*
X135681869Y-161856729D01*
X135681868Y-161856728D01*
X135558865Y-161774540D01*
X135454260Y-161669935D01*
X135372072Y-161546932D01*
X135315460Y-161410259D01*
X135286600Y-161265167D01*
X135286600Y-161117233D01*
X135315460Y-160972141D01*
X135372072Y-160835468D01*
X135454260Y-160712465D01*
X135558865Y-160607860D01*
X135681868Y-160525672D01*
X135818541Y-160469060D01*
X135963632Y-160440200D01*
X136111568Y-160440200D01*
X136256659Y-160469060D01*
X136256659Y-160469060D01*
G37*
G36*
X118081000Y-161831000D02*
G01*
X115179000Y-161831000D01*
X115179000Y-156949000D01*
X118081000Y-156949000D01*
X118081000Y-161831000D01*
X118081000Y-161831000D01*
G37*
G36*
X110021000Y-161831000D02*
G01*
X107119000Y-161831000D01*
X107119000Y-156949000D01*
X110021000Y-156949000D01*
X110021000Y-161831000D01*
X110021000Y-161831000D01*
G37*
G36*
X105311000Y-160581000D02*
G01*
X103909000Y-160581000D01*
X103909000Y-159779000D01*
X105311000Y-159779000D01*
X105311000Y-160581000D01*
X105311000Y-160581000D01*
G37*
G36*
X143660185Y-156670002D02*
G01*
X143810010Y-156699804D01*
X144092274Y-156816721D01*
X144346305Y-156986459D01*
X144562341Y-157202495D01*
X144732079Y-157456526D01*
X144848996Y-157738790D01*
X144908600Y-158038440D01*
X144908600Y-158343960D01*
X144848996Y-158643610D01*
X144732079Y-158925874D01*
X144562341Y-159179905D01*
X144346305Y-159395941D01*
X144092274Y-159565679D01*
X143810010Y-159682596D01*
X143660185Y-159712398D01*
X143510361Y-159742200D01*
X143204839Y-159742200D01*
X143055015Y-159712398D01*
X142905190Y-159682596D01*
X142622926Y-159565679D01*
X142368895Y-159395941D01*
X142152859Y-159179905D01*
X141983121Y-158925874D01*
X141866204Y-158643610D01*
X141806600Y-158343960D01*
X141806600Y-158038440D01*
X141866204Y-157738790D01*
X141983121Y-157456526D01*
X142152859Y-157202495D01*
X142368895Y-156986459D01*
X142622926Y-156816721D01*
X142905190Y-156699804D01*
X143055015Y-156670002D01*
X143204839Y-156640200D01*
X143510361Y-156640200D01*
X143660185Y-156670002D01*
X143660185Y-156670002D01*
G37*
G36*
X139256659Y-157469060D02*
G01*
X139393332Y-157525672D01*
X139516335Y-157607860D01*
X139620940Y-157712465D01*
X139638530Y-157738791D01*
X139703129Y-157835470D01*
X139759740Y-157972141D01*
X139788600Y-158117232D01*
X139788600Y-158265168D01*
X139772927Y-158343961D01*
X139759740Y-158410259D01*
X139703128Y-158546932D01*
X139620940Y-158669935D01*
X139516335Y-158774540D01*
X139393332Y-158856728D01*
X139393331Y-158856729D01*
X139393330Y-158856729D01*
X139256659Y-158913340D01*
X139111568Y-158942200D01*
X138963632Y-158942200D01*
X138818541Y-158913340D01*
X138681870Y-158856729D01*
X138681869Y-158856729D01*
X138681868Y-158856728D01*
X138558865Y-158774540D01*
X138454260Y-158669935D01*
X138372072Y-158546932D01*
X138315460Y-158410259D01*
X138302273Y-158343961D01*
X138286600Y-158265168D01*
X138286600Y-158117232D01*
X138315460Y-157972141D01*
X138372071Y-157835470D01*
X138436670Y-157738791D01*
X138454260Y-157712465D01*
X138558865Y-157607860D01*
X138681868Y-157525672D01*
X138818541Y-157469060D01*
X138963632Y-157440200D01*
X139111568Y-157440200D01*
X139256659Y-157469060D01*
X139256659Y-157469060D01*
G37*
G36*
X136256659Y-157469060D02*
G01*
X136393332Y-157525672D01*
X136516335Y-157607860D01*
X136620940Y-157712465D01*
X136638530Y-157738791D01*
X136703129Y-157835470D01*
X136759740Y-157972141D01*
X136788600Y-158117232D01*
X136788600Y-158265168D01*
X136772927Y-158343961D01*
X136759740Y-158410259D01*
X136703128Y-158546932D01*
X136620940Y-158669935D01*
X136516335Y-158774540D01*
X136393332Y-158856728D01*
X136393331Y-158856729D01*
X136393330Y-158856729D01*
X136256659Y-158913340D01*
X136111568Y-158942200D01*
X135963632Y-158942200D01*
X135818541Y-158913340D01*
X135681870Y-158856729D01*
X135681869Y-158856729D01*
X135681868Y-158856728D01*
X135558865Y-158774540D01*
X135454260Y-158669935D01*
X135372072Y-158546932D01*
X135315460Y-158410259D01*
X135302273Y-158343961D01*
X135286600Y-158265168D01*
X135286600Y-158117232D01*
X135315460Y-157972141D01*
X135372071Y-157835470D01*
X135436670Y-157738791D01*
X135454260Y-157712465D01*
X135558865Y-157607860D01*
X135681868Y-157525672D01*
X135818541Y-157469060D01*
X135963632Y-157440200D01*
X136111568Y-157440200D01*
X136256659Y-157469060D01*
X136256659Y-157469060D01*
G37*
G36*
X105311000Y-158681000D02*
G01*
X103909000Y-158681000D01*
X103909000Y-157879000D01*
X105311000Y-157879000D01*
X105311000Y-158681000D01*
X105311000Y-158681000D01*
G37*
G36*
X139256659Y-154469060D02*
G01*
X139393332Y-154525672D01*
X139516335Y-154607860D01*
X139620940Y-154712465D01*
X139620941Y-154712467D01*
X139703129Y-154835470D01*
X139759740Y-154972141D01*
X139788600Y-155117233D01*
X139788600Y-155265167D01*
X139759740Y-155410259D01*
X139703128Y-155546932D01*
X139620940Y-155669935D01*
X139516335Y-155774540D01*
X139393332Y-155856728D01*
X139393331Y-155856729D01*
X139393330Y-155856729D01*
X139256659Y-155913340D01*
X139111568Y-155942200D01*
X138963632Y-155942200D01*
X138818541Y-155913340D01*
X138681870Y-155856729D01*
X138681869Y-155856729D01*
X138681868Y-155856728D01*
X138558865Y-155774540D01*
X138454260Y-155669935D01*
X138372072Y-155546932D01*
X138315460Y-155410259D01*
X138286600Y-155265167D01*
X138286600Y-155117233D01*
X138315460Y-154972141D01*
X138372071Y-154835470D01*
X138454259Y-154712467D01*
X138454260Y-154712465D01*
X138558865Y-154607860D01*
X138681868Y-154525672D01*
X138818541Y-154469060D01*
X138963632Y-154440200D01*
X139111568Y-154440200D01*
X139256659Y-154469060D01*
X139256659Y-154469060D01*
G37*
G36*
X136256659Y-154469060D02*
G01*
X136393332Y-154525672D01*
X136516335Y-154607860D01*
X136620940Y-154712465D01*
X136620941Y-154712467D01*
X136703129Y-154835470D01*
X136759740Y-154972141D01*
X136788600Y-155117233D01*
X136788600Y-155265167D01*
X136759740Y-155410259D01*
X136703128Y-155546932D01*
X136620940Y-155669935D01*
X136516335Y-155774540D01*
X136393332Y-155856728D01*
X136393331Y-155856729D01*
X136393330Y-155856729D01*
X136256659Y-155913340D01*
X136111568Y-155942200D01*
X135963632Y-155942200D01*
X135818541Y-155913340D01*
X135681870Y-155856729D01*
X135681869Y-155856729D01*
X135681868Y-155856728D01*
X135558865Y-155774540D01*
X135454260Y-155669935D01*
X135372072Y-155546932D01*
X135315460Y-155410259D01*
X135286600Y-155265167D01*
X135286600Y-155117233D01*
X135315460Y-154972141D01*
X135372071Y-154835470D01*
X135454259Y-154712467D01*
X135454260Y-154712465D01*
X135558865Y-154607860D01*
X135681868Y-154525672D01*
X135818541Y-154469060D01*
X135963632Y-154440200D01*
X136111568Y-154440200D01*
X136256659Y-154469060D01*
X136256659Y-154469060D01*
G37*
G36*
X99161000Y-154911000D02*
G01*
X84059000Y-154911000D01*
X84059000Y-139809000D01*
X99161000Y-139809000D01*
X99161000Y-154911000D01*
X99161000Y-154911000D01*
G37*
G36*
X72501000Y-154911000D02*
G01*
X57399000Y-154911000D01*
X57399000Y-139809000D01*
X72501000Y-139809000D01*
X72501000Y-154911000D01*
X72501000Y-154911000D01*
G37*
G36*
X130951054Y-142559018D02*
G01*
X131324311Y-142713626D01*
X131324313Y-142713627D01*
X131660236Y-142938084D01*
X131945916Y-143223764D01*
X132170374Y-143559689D01*
X132324982Y-143932946D01*
X132403800Y-144329193D01*
X132403800Y-144733207D01*
X132324982Y-145129454D01*
X132170374Y-145502711D01*
X131945916Y-145838636D01*
X131660234Y-146124318D01*
X131580990Y-146177267D01*
X131562048Y-146192812D01*
X131546502Y-146211754D01*
X131534951Y-146233365D01*
X131527838Y-146256814D01*
X131525436Y-146281200D01*
X131527838Y-146305586D01*
X131534951Y-146329035D01*
X131546502Y-146350645D01*
X131562047Y-146369587D01*
X131580990Y-146385133D01*
X131660234Y-146438082D01*
X131945916Y-146723764D01*
X132170374Y-147059689D01*
X132324982Y-147432946D01*
X132403800Y-147829193D01*
X132403800Y-148233207D01*
X132324982Y-148629454D01*
X132170374Y-149002711D01*
X132170373Y-149002713D01*
X131945916Y-149338636D01*
X131660236Y-149624316D01*
X131324313Y-149848773D01*
X131324312Y-149848774D01*
X131324311Y-149848774D01*
X130951054Y-150003382D01*
X130554807Y-150082200D01*
X130150793Y-150082200D01*
X129754546Y-150003382D01*
X129381289Y-149848774D01*
X129381288Y-149848774D01*
X129381287Y-149848773D01*
X129045364Y-149624316D01*
X128759684Y-149338636D01*
X128535227Y-149002713D01*
X128535226Y-149002711D01*
X128380618Y-148629454D01*
X128301800Y-148233207D01*
X128301800Y-147829193D01*
X128380618Y-147432946D01*
X128535226Y-147059689D01*
X128759684Y-146723764D01*
X129045366Y-146438082D01*
X129124610Y-146385133D01*
X129143552Y-146369588D01*
X129159098Y-146350646D01*
X129170649Y-146329035D01*
X129177762Y-146305586D01*
X129180164Y-146281200D01*
X129177762Y-146256814D01*
X129170649Y-146233365D01*
X129159098Y-146211755D01*
X129143553Y-146192813D01*
X129124610Y-146177267D01*
X129045366Y-146124318D01*
X128759684Y-145838636D01*
X128535226Y-145502711D01*
X128380618Y-145129454D01*
X128301800Y-144733207D01*
X128301800Y-144329193D01*
X128380618Y-143932946D01*
X128535226Y-143559689D01*
X128759684Y-143223764D01*
X129045364Y-142938084D01*
X129381287Y-142713627D01*
X129381289Y-142713626D01*
X129754546Y-142559018D01*
X130150793Y-142480200D01*
X130554807Y-142480200D01*
X130951054Y-142559018D01*
X130951054Y-142559018D01*
G37*
G36*
X148951054Y-142559018D02*
G01*
X149324311Y-142713626D01*
X149324313Y-142713627D01*
X149660236Y-142938084D01*
X149945916Y-143223764D01*
X150170374Y-143559689D01*
X150324982Y-143932946D01*
X150403800Y-144329193D01*
X150403800Y-144733207D01*
X150324982Y-145129454D01*
X150170374Y-145502711D01*
X149945916Y-145838636D01*
X149660234Y-146124318D01*
X149580990Y-146177267D01*
X149562048Y-146192812D01*
X149546502Y-146211754D01*
X149534951Y-146233365D01*
X149527838Y-146256814D01*
X149525436Y-146281200D01*
X149527838Y-146305586D01*
X149534951Y-146329035D01*
X149546502Y-146350645D01*
X149562047Y-146369587D01*
X149580990Y-146385133D01*
X149660234Y-146438082D01*
X149945916Y-146723764D01*
X150170374Y-147059689D01*
X150324982Y-147432946D01*
X150403800Y-147829193D01*
X150403800Y-148233207D01*
X150324982Y-148629454D01*
X150170374Y-149002711D01*
X150170373Y-149002713D01*
X149945916Y-149338636D01*
X149660236Y-149624316D01*
X149324313Y-149848773D01*
X149324312Y-149848774D01*
X149324311Y-149848774D01*
X148951054Y-150003382D01*
X148554807Y-150082200D01*
X148150793Y-150082200D01*
X147754546Y-150003382D01*
X147381289Y-149848774D01*
X147381288Y-149848774D01*
X147381287Y-149848773D01*
X147045364Y-149624316D01*
X146759684Y-149338636D01*
X146535227Y-149002713D01*
X146535226Y-149002711D01*
X146380618Y-148629454D01*
X146301800Y-148233207D01*
X146301800Y-147829193D01*
X146380618Y-147432946D01*
X146535226Y-147059689D01*
X146759684Y-146723764D01*
X147045366Y-146438082D01*
X147124610Y-146385133D01*
X147143552Y-146369588D01*
X147159098Y-146350646D01*
X147170649Y-146329035D01*
X147177762Y-146305586D01*
X147180164Y-146281200D01*
X147177762Y-146256814D01*
X147170649Y-146233365D01*
X147159098Y-146211755D01*
X147143553Y-146192813D01*
X147124610Y-146177267D01*
X147045366Y-146124318D01*
X146759684Y-145838636D01*
X146535226Y-145502711D01*
X146380618Y-145129454D01*
X146301800Y-144733207D01*
X146301800Y-144329193D01*
X146380618Y-143932946D01*
X146535226Y-143559689D01*
X146759684Y-143223764D01*
X147045364Y-142938084D01*
X147381287Y-142713627D01*
X147381289Y-142713626D01*
X147754546Y-142559018D01*
X148150793Y-142480200D01*
X148554807Y-142480200D01*
X148951054Y-142559018D01*
X148951054Y-142559018D01*
G37*
G36*
X114532831Y-143914841D02*
G01*
X114677826Y-143943682D01*
X114790974Y-143990550D01*
X114950989Y-144056830D01*
X114950990Y-144056831D01*
X115196832Y-144221097D01*
X115405903Y-144430168D01*
X115405904Y-144430170D01*
X115570170Y-144676011D01*
X115593861Y-144733206D01*
X115683318Y-144949174D01*
X115741000Y-145239164D01*
X115741000Y-145534836D01*
X115683318Y-145824826D01*
X115636450Y-145937974D01*
X115570170Y-146097989D01*
X115494154Y-146211755D01*
X115405903Y-146343832D01*
X115196832Y-146552903D01*
X115152986Y-146582200D01*
X114950989Y-146717170D01*
X114790974Y-146783450D01*
X114677826Y-146830318D01*
X114532831Y-146859159D01*
X114387837Y-146888000D01*
X114092163Y-146888000D01*
X113947169Y-146859159D01*
X113802174Y-146830318D01*
X113689026Y-146783450D01*
X113529011Y-146717170D01*
X113327014Y-146582200D01*
X113283168Y-146552903D01*
X113074097Y-146343832D01*
X112985846Y-146211755D01*
X112909830Y-146097989D01*
X112843550Y-145937974D01*
X112796682Y-145824826D01*
X112739000Y-145534836D01*
X112739000Y-145239164D01*
X112796682Y-144949174D01*
X112886139Y-144733206D01*
X112909830Y-144676011D01*
X113074096Y-144430170D01*
X113074097Y-144430168D01*
X113283168Y-144221097D01*
X113529010Y-144056831D01*
X113529011Y-144056830D01*
X113689026Y-143990550D01*
X113802174Y-143943682D01*
X113947169Y-143914841D01*
X114092163Y-143886000D01*
X114387837Y-143886000D01*
X114532831Y-143914841D01*
X114532831Y-143914841D01*
G37*
G36*
X111750972Y-137283232D02*
G01*
X111894067Y-137311695D01*
X112096256Y-137395444D01*
X112278221Y-137517030D01*
X112432970Y-137671779D01*
X112554556Y-137853744D01*
X112638305Y-138055933D01*
X112681000Y-138270576D01*
X112681000Y-138489424D01*
X112638305Y-138704067D01*
X112554556Y-138906256D01*
X112432970Y-139088221D01*
X112278221Y-139242970D01*
X112096256Y-139364556D01*
X111894067Y-139448305D01*
X111750972Y-139476768D01*
X111679425Y-139491000D01*
X111460575Y-139491000D01*
X111389028Y-139476768D01*
X111245933Y-139448305D01*
X111043744Y-139364556D01*
X110861779Y-139242970D01*
X110707030Y-139088221D01*
X110585444Y-138906256D01*
X110501695Y-138704067D01*
X110459000Y-138489424D01*
X110459000Y-138270576D01*
X110501695Y-138055933D01*
X110585444Y-137853744D01*
X110707030Y-137671779D01*
X110861779Y-137517030D01*
X111043744Y-137395444D01*
X111245933Y-137311695D01*
X111389028Y-137283232D01*
X111460575Y-137269000D01*
X111679425Y-137269000D01*
X111750972Y-137283232D01*
X111750972Y-137283232D01*
G37*
G36*
X136700721Y-137970174D02*
G01*
X136800995Y-138011709D01*
X136800996Y-138011710D01*
X136891242Y-138072010D01*
X136967990Y-138148758D01*
X136967991Y-138148760D01*
X137028291Y-138239005D01*
X137069826Y-138339279D01*
X137091000Y-138445730D01*
X137091000Y-138554270D01*
X137069826Y-138660721D01*
X137028291Y-138760995D01*
X137028290Y-138760996D01*
X136967990Y-138851242D01*
X136891242Y-138927990D01*
X136845812Y-138958345D01*
X136800995Y-138988291D01*
X136700721Y-139029826D01*
X136594270Y-139051000D01*
X136485730Y-139051000D01*
X136379279Y-139029826D01*
X136279005Y-138988291D01*
X136234188Y-138958345D01*
X136188758Y-138927990D01*
X136112010Y-138851242D01*
X136051710Y-138760996D01*
X136051709Y-138760995D01*
X136010174Y-138660721D01*
X135989000Y-138554270D01*
X135989000Y-138445730D01*
X136010174Y-138339279D01*
X136051709Y-138239005D01*
X136112009Y-138148760D01*
X136112010Y-138148758D01*
X136188758Y-138072010D01*
X136279004Y-138011710D01*
X136279005Y-138011709D01*
X136379279Y-137970174D01*
X136485730Y-137949000D01*
X136594270Y-137949000D01*
X136700721Y-137970174D01*
X136700721Y-137970174D01*
G37*
G36*
X145294425Y-137104599D02*
G01*
X145418621Y-137129302D01*
X145555022Y-137185801D01*
X145677779Y-137267825D01*
X145782175Y-137372221D01*
X145864199Y-137494978D01*
X145920698Y-137631379D01*
X145949500Y-137776181D01*
X145949500Y-137923819D01*
X145920698Y-138068621D01*
X145864199Y-138205022D01*
X145782175Y-138327779D01*
X145677779Y-138432175D01*
X145555022Y-138514199D01*
X145418621Y-138570698D01*
X145294425Y-138595401D01*
X145273820Y-138599500D01*
X145126180Y-138599500D01*
X145105575Y-138595401D01*
X144981379Y-138570698D01*
X144844978Y-138514199D01*
X144722221Y-138432175D01*
X144617825Y-138327779D01*
X144535801Y-138205022D01*
X144479302Y-138068621D01*
X144450500Y-137923819D01*
X144450500Y-137776181D01*
X144479302Y-137631379D01*
X144535801Y-137494978D01*
X144617825Y-137372221D01*
X144722221Y-137267825D01*
X144844978Y-137185801D01*
X144981379Y-137129302D01*
X145105575Y-137104599D01*
X145126180Y-137100500D01*
X145273820Y-137100500D01*
X145294425Y-137104599D01*
X145294425Y-137104599D01*
G37*
G36*
X133253048Y-134703122D02*
G01*
X133287387Y-134713539D01*
X133319036Y-134730456D01*
X133346778Y-134753222D01*
X133369544Y-134780964D01*
X133386461Y-134812613D01*
X133396878Y-134846952D01*
X133401000Y-134888807D01*
X133401000Y-136111193D01*
X133396878Y-136153048D01*
X133386461Y-136187387D01*
X133369544Y-136219036D01*
X133346778Y-136246778D01*
X133319036Y-136269544D01*
X133287387Y-136286461D01*
X133253048Y-136296878D01*
X133211193Y-136301000D01*
X131988807Y-136301000D01*
X131946952Y-136296878D01*
X131912613Y-136286461D01*
X131880964Y-136269544D01*
X131853222Y-136246778D01*
X131830456Y-136219036D01*
X131813539Y-136187387D01*
X131803122Y-136153048D01*
X131799000Y-136111193D01*
X131799000Y-134888807D01*
X131803122Y-134846952D01*
X131813539Y-134812613D01*
X131830456Y-134780964D01*
X131853222Y-134753222D01*
X131880964Y-134730456D01*
X131912613Y-134713539D01*
X131946952Y-134703122D01*
X131988807Y-134699000D01*
X133211193Y-134699000D01*
X133253048Y-134703122D01*
X133253048Y-134703122D01*
G37*
G36*
X135833642Y-134729781D02*
G01*
X135957208Y-134780964D01*
X135979416Y-134790163D01*
X136110608Y-134877822D01*
X136222178Y-134989392D01*
X136295749Y-135099500D01*
X136309838Y-135120586D01*
X136370219Y-135266358D01*
X136401000Y-135421107D01*
X136401000Y-135578893D01*
X136370219Y-135733642D01*
X136309838Y-135879414D01*
X136309837Y-135879416D01*
X136222178Y-136010608D01*
X136110608Y-136122178D01*
X135979416Y-136209837D01*
X135979415Y-136209838D01*
X135979414Y-136209838D01*
X135833642Y-136270219D01*
X135678893Y-136301000D01*
X135521107Y-136301000D01*
X135366358Y-136270219D01*
X135220586Y-136209838D01*
X135220585Y-136209838D01*
X135220584Y-136209837D01*
X135089392Y-136122178D01*
X134977822Y-136010608D01*
X134890163Y-135879416D01*
X134890162Y-135879414D01*
X134829781Y-135733642D01*
X134799000Y-135578893D01*
X134799000Y-135421107D01*
X134829781Y-135266358D01*
X134890162Y-135120586D01*
X134904251Y-135099500D01*
X134977822Y-134989392D01*
X135089392Y-134877822D01*
X135220584Y-134790163D01*
X135242792Y-134780964D01*
X135366358Y-134729781D01*
X135521107Y-134699000D01*
X135678893Y-134699000D01*
X135833642Y-134729781D01*
X135833642Y-134729781D01*
G37*
G36*
X145294425Y-133604599D02*
G01*
X145418621Y-133629302D01*
X145555022Y-133685801D01*
X145677779Y-133767825D01*
X145782175Y-133872221D01*
X145864199Y-133994978D01*
X145920698Y-134131379D01*
X145949500Y-134276181D01*
X145949500Y-134423819D01*
X145920698Y-134568621D01*
X145864199Y-134705022D01*
X145782175Y-134827779D01*
X145677779Y-134932175D01*
X145555022Y-135014199D01*
X145418621Y-135070698D01*
X145294425Y-135095401D01*
X145273820Y-135099500D01*
X145126180Y-135099500D01*
X145105575Y-135095401D01*
X144981379Y-135070698D01*
X144844978Y-135014199D01*
X144722221Y-134932175D01*
X144617825Y-134827779D01*
X144535801Y-134705022D01*
X144479302Y-134568621D01*
X144450500Y-134423819D01*
X144450500Y-134276181D01*
X144479302Y-134131379D01*
X144535801Y-133994978D01*
X144617825Y-133872221D01*
X144722221Y-133767825D01*
X144844978Y-133685801D01*
X144981379Y-133629302D01*
X145105575Y-133604599D01*
X145126180Y-133600500D01*
X145273820Y-133600500D01*
X145294425Y-133604599D01*
X145294425Y-133604599D01*
G37*
G36*
X135833642Y-131729781D02*
G01*
X135979414Y-131790162D01*
X135979416Y-131790163D01*
X136110608Y-131877822D01*
X136222178Y-131989392D01*
X136309837Y-132120584D01*
X136309838Y-132120586D01*
X136370219Y-132266358D01*
X136401000Y-132421107D01*
X136401000Y-132578893D01*
X136370219Y-132733642D01*
X136309838Y-132879414D01*
X136309837Y-132879416D01*
X136222178Y-133010608D01*
X136110608Y-133122178D01*
X135979416Y-133209837D01*
X135979415Y-133209838D01*
X135979414Y-133209838D01*
X135833642Y-133270219D01*
X135678893Y-133301000D01*
X135521107Y-133301000D01*
X135366358Y-133270219D01*
X135220586Y-133209838D01*
X135220585Y-133209838D01*
X135220584Y-133209837D01*
X135089392Y-133122178D01*
X134977822Y-133010608D01*
X134890163Y-132879416D01*
X134890162Y-132879414D01*
X134829781Y-132733642D01*
X134799000Y-132578893D01*
X134799000Y-132421107D01*
X134829781Y-132266358D01*
X134890162Y-132120586D01*
X134890163Y-132120584D01*
X134977822Y-131989392D01*
X135089392Y-131877822D01*
X135220584Y-131790163D01*
X135220586Y-131790162D01*
X135366358Y-131729781D01*
X135521107Y-131699000D01*
X135678893Y-131699000D01*
X135833642Y-131729781D01*
X135833642Y-131729781D01*
G37*
G36*
X132833642Y-131729781D02*
G01*
X132979414Y-131790162D01*
X132979416Y-131790163D01*
X133110608Y-131877822D01*
X133222178Y-131989392D01*
X133309837Y-132120584D01*
X133309838Y-132120586D01*
X133370219Y-132266358D01*
X133401000Y-132421107D01*
X133401000Y-132578893D01*
X133370219Y-132733642D01*
X133309838Y-132879414D01*
X133309837Y-132879416D01*
X133222178Y-133010608D01*
X133110608Y-133122178D01*
X132979416Y-133209837D01*
X132979415Y-133209838D01*
X132979414Y-133209838D01*
X132833642Y-133270219D01*
X132678893Y-133301000D01*
X132521107Y-133301000D01*
X132366358Y-133270219D01*
X132220586Y-133209838D01*
X132220585Y-133209838D01*
X132220584Y-133209837D01*
X132089392Y-133122178D01*
X131977822Y-133010608D01*
X131890163Y-132879416D01*
X131890162Y-132879414D01*
X131829781Y-132733642D01*
X131799000Y-132578893D01*
X131799000Y-132421107D01*
X131829781Y-132266358D01*
X131890162Y-132120586D01*
X131890163Y-132120584D01*
X131977822Y-131989392D01*
X132089392Y-131877822D01*
X132220584Y-131790163D01*
X132220586Y-131790162D01*
X132366358Y-131729781D01*
X132521107Y-131699000D01*
X132678893Y-131699000D01*
X132833642Y-131729781D01*
X132833642Y-131729781D01*
G37*
G36*
X145294425Y-130104599D02*
G01*
X145418621Y-130129302D01*
X145555022Y-130185801D01*
X145677779Y-130267825D01*
X145782175Y-130372221D01*
X145864199Y-130494978D01*
X145920698Y-130631379D01*
X145949500Y-130776181D01*
X145949500Y-130923819D01*
X145920698Y-131068621D01*
X145864199Y-131205022D01*
X145782175Y-131327779D01*
X145677779Y-131432175D01*
X145555022Y-131514199D01*
X145418621Y-131570698D01*
X145294425Y-131595401D01*
X145273820Y-131599500D01*
X145126180Y-131599500D01*
X145105575Y-131595401D01*
X144981379Y-131570698D01*
X144844978Y-131514199D01*
X144722221Y-131432175D01*
X144617825Y-131327779D01*
X144535801Y-131205022D01*
X144479302Y-131068621D01*
X144450500Y-130923819D01*
X144450500Y-130776181D01*
X144479302Y-130631379D01*
X144535801Y-130494978D01*
X144617825Y-130372221D01*
X144722221Y-130267825D01*
X144844978Y-130185801D01*
X144981379Y-130129302D01*
X145105575Y-130104599D01*
X145126180Y-130100500D01*
X145273820Y-130100500D01*
X145294425Y-130104599D01*
X145294425Y-130104599D01*
G37*
G36*
X135833642Y-128729781D02*
G01*
X135979414Y-128790162D01*
X135979416Y-128790163D01*
X136110608Y-128877822D01*
X136222178Y-128989392D01*
X136309837Y-129120584D01*
X136309838Y-129120586D01*
X136370219Y-129266358D01*
X136401000Y-129421107D01*
X136401000Y-129578893D01*
X136370219Y-129733642D01*
X136309838Y-129879414D01*
X136309837Y-129879416D01*
X136222178Y-130010608D01*
X136110608Y-130122178D01*
X135979416Y-130209837D01*
X135979415Y-130209838D01*
X135979414Y-130209838D01*
X135833642Y-130270219D01*
X135678893Y-130301000D01*
X135521107Y-130301000D01*
X135366358Y-130270219D01*
X135220586Y-130209838D01*
X135220585Y-130209838D01*
X135220584Y-130209837D01*
X135089392Y-130122178D01*
X134977822Y-130010608D01*
X134890163Y-129879416D01*
X134890162Y-129879414D01*
X134829781Y-129733642D01*
X134799000Y-129578893D01*
X134799000Y-129421107D01*
X134829781Y-129266358D01*
X134890162Y-129120586D01*
X134890163Y-129120584D01*
X134977822Y-128989392D01*
X135089392Y-128877822D01*
X135220584Y-128790163D01*
X135220586Y-128790162D01*
X135366358Y-128729781D01*
X135521107Y-128699000D01*
X135678893Y-128699000D01*
X135833642Y-128729781D01*
X135833642Y-128729781D01*
G37*
G36*
X132833642Y-128729781D02*
G01*
X132979414Y-128790162D01*
X132979416Y-128790163D01*
X133110608Y-128877822D01*
X133222178Y-128989392D01*
X133309837Y-129120584D01*
X133309838Y-129120586D01*
X133370219Y-129266358D01*
X133401000Y-129421107D01*
X133401000Y-129578893D01*
X133370219Y-129733642D01*
X133309838Y-129879414D01*
X133309837Y-129879416D01*
X133222178Y-130010608D01*
X133110608Y-130122178D01*
X132979416Y-130209837D01*
X132979415Y-130209838D01*
X132979414Y-130209838D01*
X132833642Y-130270219D01*
X132678893Y-130301000D01*
X132521107Y-130301000D01*
X132366358Y-130270219D01*
X132220586Y-130209838D01*
X132220585Y-130209838D01*
X132220584Y-130209837D01*
X132089392Y-130122178D01*
X131977822Y-130010608D01*
X131890163Y-129879416D01*
X131890162Y-129879414D01*
X131829781Y-129733642D01*
X131799000Y-129578893D01*
X131799000Y-129421107D01*
X131829781Y-129266358D01*
X131890162Y-129120586D01*
X131890163Y-129120584D01*
X131977822Y-128989392D01*
X132089392Y-128877822D01*
X132220584Y-128790163D01*
X132220586Y-128790162D01*
X132366358Y-128729781D01*
X132521107Y-128699000D01*
X132678893Y-128699000D01*
X132833642Y-128729781D01*
X132833642Y-128729781D01*
G37*
G36*
X143273793Y-128098524D02*
G01*
X143463333Y-128177034D01*
X143463335Y-128177035D01*
X143480076Y-128188221D01*
X143633917Y-128291014D01*
X143778986Y-128436083D01*
X143892966Y-128606667D01*
X143971476Y-128796207D01*
X144011500Y-128997420D01*
X144011500Y-129202580D01*
X143971476Y-129403793D01*
X143898947Y-129578893D01*
X143892965Y-129593335D01*
X143778986Y-129763917D01*
X143633917Y-129908986D01*
X143463335Y-130022965D01*
X143463334Y-130022966D01*
X143463333Y-130022966D01*
X143273793Y-130101476D01*
X143072580Y-130141500D01*
X142867420Y-130141500D01*
X142666207Y-130101476D01*
X142476667Y-130022966D01*
X142476666Y-130022966D01*
X142476665Y-130022965D01*
X142306083Y-129908986D01*
X142161014Y-129763917D01*
X142047035Y-129593335D01*
X142041053Y-129578893D01*
X141968524Y-129403793D01*
X141928500Y-129202580D01*
X141928500Y-128997420D01*
X141968524Y-128796207D01*
X142047034Y-128606667D01*
X142161014Y-128436083D01*
X142306083Y-128291014D01*
X142459924Y-128188221D01*
X142476665Y-128177035D01*
X142476667Y-128177034D01*
X142666207Y-128098524D01*
X142867420Y-128058500D01*
X143072580Y-128058500D01*
X143273793Y-128098524D01*
X143273793Y-128098524D01*
G37*
G36*
X111750972Y-126383232D02*
G01*
X111894067Y-126411695D01*
X112096256Y-126495444D01*
X112278221Y-126617030D01*
X112432970Y-126771779D01*
X112554556Y-126953744D01*
X112638305Y-127155933D01*
X112681000Y-127370576D01*
X112681000Y-127589424D01*
X112638305Y-127804067D01*
X112554556Y-128006256D01*
X112432970Y-128188221D01*
X112278221Y-128342970D01*
X112096256Y-128464556D01*
X111894067Y-128548305D01*
X111750972Y-128576768D01*
X111679425Y-128591000D01*
X111460575Y-128591000D01*
X111389028Y-128576768D01*
X111245933Y-128548305D01*
X111043744Y-128464556D01*
X110861779Y-128342970D01*
X110707030Y-128188221D01*
X110585444Y-128006256D01*
X110501695Y-127804067D01*
X110459000Y-127589424D01*
X110459000Y-127370576D01*
X110501695Y-127155933D01*
X110585444Y-126953744D01*
X110707030Y-126771779D01*
X110861779Y-126617030D01*
X111043744Y-126495444D01*
X111245933Y-126411695D01*
X111389028Y-126383232D01*
X111460575Y-126369000D01*
X111679425Y-126369000D01*
X111750972Y-126383232D01*
X111750972Y-126383232D01*
G37*
G36*
X145294425Y-126604599D02*
G01*
X145418621Y-126629302D01*
X145555022Y-126685801D01*
X145677779Y-126767825D01*
X145782175Y-126872221D01*
X145864199Y-126994978D01*
X145920698Y-127131379D01*
X145949500Y-127276181D01*
X145949500Y-127423819D01*
X145920698Y-127568621D01*
X145864199Y-127705022D01*
X145782175Y-127827779D01*
X145677779Y-127932175D01*
X145555022Y-128014199D01*
X145418621Y-128070698D01*
X145294425Y-128095401D01*
X145273820Y-128099500D01*
X145126180Y-128099500D01*
X145105575Y-128095401D01*
X144981379Y-128070698D01*
X144844978Y-128014199D01*
X144722221Y-127932175D01*
X144617825Y-127827779D01*
X144535801Y-127705022D01*
X144479302Y-127568621D01*
X144450500Y-127423819D01*
X144450500Y-127276181D01*
X144479302Y-127131379D01*
X144535801Y-126994978D01*
X144617825Y-126872221D01*
X144722221Y-126767825D01*
X144844978Y-126685801D01*
X144981379Y-126629302D01*
X145105575Y-126604599D01*
X145126180Y-126600500D01*
X145273820Y-126600500D01*
X145294425Y-126604599D01*
X145294425Y-126604599D01*
G37*
G36*
X136700721Y-125970174D02*
G01*
X136800995Y-126011709D01*
X136800996Y-126011710D01*
X136891242Y-126072010D01*
X136967990Y-126148758D01*
X136967991Y-126148760D01*
X137028291Y-126239005D01*
X137069826Y-126339279D01*
X137091000Y-126445730D01*
X137091000Y-126554270D01*
X137069826Y-126660721D01*
X137028291Y-126760995D01*
X136998345Y-126805812D01*
X136967990Y-126851242D01*
X136891242Y-126927990D01*
X136852698Y-126953744D01*
X136800995Y-126988291D01*
X136700721Y-127029826D01*
X136594270Y-127051000D01*
X136485730Y-127051000D01*
X136379279Y-127029826D01*
X136279005Y-126988291D01*
X136227302Y-126953744D01*
X136188758Y-126927990D01*
X136112010Y-126851242D01*
X136081655Y-126805812D01*
X136051709Y-126760995D01*
X136010174Y-126660721D01*
X135989000Y-126554270D01*
X135989000Y-126445730D01*
X136010174Y-126339279D01*
X136051709Y-126239005D01*
X136112009Y-126148760D01*
X136112010Y-126148758D01*
X136188758Y-126072010D01*
X136279004Y-126011710D01*
X136279005Y-126011709D01*
X136379279Y-125970174D01*
X136485730Y-125949000D01*
X136594270Y-125949000D01*
X136700721Y-125970174D01*
X136700721Y-125970174D01*
G37*
G36*
X114439905Y-118496357D02*
G01*
X114677826Y-118543682D01*
X114790974Y-118590550D01*
X114950989Y-118656830D01*
X114950990Y-118656831D01*
X115196832Y-118821097D01*
X115405903Y-119030168D01*
X115405904Y-119030170D01*
X115570170Y-119276011D01*
X115601719Y-119352178D01*
X115663040Y-119500218D01*
X115683318Y-119549175D01*
X115741000Y-119839163D01*
X115741000Y-120134837D01*
X115683318Y-120424825D01*
X115570170Y-120697989D01*
X115570169Y-120697990D01*
X115405903Y-120943832D01*
X115196832Y-121152903D01*
X115073076Y-121235594D01*
X114950989Y-121317170D01*
X114790974Y-121383450D01*
X114677826Y-121430318D01*
X114532831Y-121459159D01*
X114387837Y-121488000D01*
X114092163Y-121488000D01*
X113947169Y-121459159D01*
X113802174Y-121430318D01*
X113689026Y-121383450D01*
X113529011Y-121317170D01*
X113406924Y-121235594D01*
X113283168Y-121152903D01*
X113074097Y-120943832D01*
X112909831Y-120697990D01*
X112909830Y-120697989D01*
X112796682Y-120424825D01*
X112739000Y-120134837D01*
X112739000Y-119839163D01*
X112796682Y-119549175D01*
X112816961Y-119500218D01*
X112878281Y-119352178D01*
X112909830Y-119276011D01*
X113074096Y-119030170D01*
X113074097Y-119030168D01*
X113283168Y-118821097D01*
X113529010Y-118656831D01*
X113529011Y-118656830D01*
X113689026Y-118590550D01*
X113802174Y-118543682D01*
X114040095Y-118496357D01*
X114092163Y-118486000D01*
X114387837Y-118486000D01*
X114439905Y-118496357D01*
X114439905Y-118496357D01*
G37*
G36*
X138473642Y-117959781D02*
G01*
X138619414Y-118020162D01*
X138619416Y-118020163D01*
X138750608Y-118107822D01*
X138862178Y-118219392D01*
X138949837Y-118350584D01*
X138949838Y-118350586D01*
X139010219Y-118496358D01*
X139041000Y-118651107D01*
X139041000Y-118808893D01*
X139010219Y-118963642D01*
X138982663Y-119030168D01*
X138949837Y-119109416D01*
X138862178Y-119240608D01*
X138750608Y-119352178D01*
X138619416Y-119439837D01*
X138619415Y-119439838D01*
X138619414Y-119439838D01*
X138473642Y-119500219D01*
X138318893Y-119531000D01*
X138161107Y-119531000D01*
X138006358Y-119500219D01*
X137860586Y-119439838D01*
X137860585Y-119439838D01*
X137860584Y-119439837D01*
X137729392Y-119352178D01*
X137617822Y-119240608D01*
X137530163Y-119109416D01*
X137497337Y-119030168D01*
X137469781Y-118963642D01*
X137439000Y-118808893D01*
X137439000Y-118651107D01*
X137469781Y-118496358D01*
X137530162Y-118350586D01*
X137530163Y-118350584D01*
X137617822Y-118219392D01*
X137729392Y-118107822D01*
X137860584Y-118020163D01*
X137860586Y-118020162D01*
X138006358Y-117959781D01*
X138161107Y-117929000D01*
X138318893Y-117929000D01*
X138473642Y-117959781D01*
X138473642Y-117959781D01*
G37*
G36*
X141473642Y-117959781D02*
G01*
X141619414Y-118020162D01*
X141619416Y-118020163D01*
X141750608Y-118107822D01*
X141862178Y-118219392D01*
X141949837Y-118350584D01*
X141949838Y-118350586D01*
X142010219Y-118496358D01*
X142041000Y-118651107D01*
X142041000Y-118808893D01*
X142010219Y-118963642D01*
X141982663Y-119030168D01*
X141949837Y-119109416D01*
X141862178Y-119240608D01*
X141750608Y-119352178D01*
X141619416Y-119439837D01*
X141619415Y-119439838D01*
X141619414Y-119439838D01*
X141473642Y-119500219D01*
X141318893Y-119531000D01*
X141161107Y-119531000D01*
X141006358Y-119500219D01*
X140860586Y-119439838D01*
X140860585Y-119439838D01*
X140860584Y-119439837D01*
X140729392Y-119352178D01*
X140617822Y-119240608D01*
X140530163Y-119109416D01*
X140497337Y-119030168D01*
X140469781Y-118963642D01*
X140439000Y-118808893D01*
X140439000Y-118651107D01*
X140469781Y-118496358D01*
X140530162Y-118350586D01*
X140530163Y-118350584D01*
X140617822Y-118219392D01*
X140729392Y-118107822D01*
X140860584Y-118020163D01*
X140860586Y-118020162D01*
X141006358Y-117959781D01*
X141161107Y-117929000D01*
X141318893Y-117929000D01*
X141473642Y-117959781D01*
X141473642Y-117959781D01*
G37*
G36*
X145862585Y-115708802D02*
G01*
X146012410Y-115738604D01*
X146294674Y-115855521D01*
X146548705Y-116025259D01*
X146764741Y-116241295D01*
X146934479Y-116495326D01*
X147051396Y-116777590D01*
X147111000Y-117077240D01*
X147111000Y-117382760D01*
X147051396Y-117682410D01*
X146934479Y-117964674D01*
X146764741Y-118218705D01*
X146548705Y-118434741D01*
X146294674Y-118604479D01*
X146012410Y-118721396D01*
X145862585Y-118751198D01*
X145712761Y-118781000D01*
X145407239Y-118781000D01*
X145257415Y-118751198D01*
X145107590Y-118721396D01*
X144825326Y-118604479D01*
X144571295Y-118434741D01*
X144355259Y-118218705D01*
X144185521Y-117964674D01*
X144068604Y-117682410D01*
X144009000Y-117382760D01*
X144009000Y-117077240D01*
X144068604Y-116777590D01*
X144185521Y-116495326D01*
X144355259Y-116241295D01*
X144571295Y-116025259D01*
X144825326Y-115855521D01*
X145107590Y-115738604D01*
X145257415Y-115708802D01*
X145407239Y-115679000D01*
X145712761Y-115679000D01*
X145862585Y-115708802D01*
X145862585Y-115708802D01*
G37*
G36*
X138473642Y-114959781D02*
G01*
X138597208Y-115010964D01*
X138619416Y-115020163D01*
X138750608Y-115107822D01*
X138862178Y-115219392D01*
X138949837Y-115350584D01*
X138949838Y-115350586D01*
X139010219Y-115496358D01*
X139041000Y-115651107D01*
X139041000Y-115808893D01*
X139010219Y-115963642D01*
X138949838Y-116109414D01*
X138949837Y-116109416D01*
X138862178Y-116240608D01*
X138750608Y-116352178D01*
X138619416Y-116439837D01*
X138619415Y-116439838D01*
X138619414Y-116439838D01*
X138473642Y-116500219D01*
X138318893Y-116531000D01*
X138161107Y-116531000D01*
X138006358Y-116500219D01*
X137860586Y-116439838D01*
X137860585Y-116439838D01*
X137860584Y-116439837D01*
X137729392Y-116352178D01*
X137617822Y-116240608D01*
X137530163Y-116109416D01*
X137530162Y-116109414D01*
X137469781Y-115963642D01*
X137439000Y-115808893D01*
X137439000Y-115651107D01*
X137469781Y-115496358D01*
X137530162Y-115350586D01*
X137530163Y-115350584D01*
X137617822Y-115219392D01*
X137729392Y-115107822D01*
X137860584Y-115020163D01*
X137882792Y-115010964D01*
X138006358Y-114959781D01*
X138161107Y-114929000D01*
X138318893Y-114929000D01*
X138473642Y-114959781D01*
X138473642Y-114959781D01*
G37*
G36*
X141893048Y-114933122D02*
G01*
X141927387Y-114943539D01*
X141959036Y-114960456D01*
X141986778Y-114983222D01*
X142009544Y-115010964D01*
X142026461Y-115042613D01*
X142036878Y-115076952D01*
X142041000Y-115118807D01*
X142041000Y-116341193D01*
X142036878Y-116383048D01*
X142026461Y-116417387D01*
X142009544Y-116449036D01*
X141986778Y-116476778D01*
X141959036Y-116499544D01*
X141927387Y-116516461D01*
X141893048Y-116526878D01*
X141851193Y-116531000D01*
X140628807Y-116531000D01*
X140586952Y-116526878D01*
X140552613Y-116516461D01*
X140520964Y-116499544D01*
X140493222Y-116476778D01*
X140470456Y-116449036D01*
X140453539Y-116417387D01*
X140443122Y-116383048D01*
X140439000Y-116341193D01*
X140439000Y-115118807D01*
X140443122Y-115076952D01*
X140453539Y-115042613D01*
X140470456Y-115010964D01*
X140493222Y-114983222D01*
X140520964Y-114960456D01*
X140552613Y-114943539D01*
X140586952Y-114933122D01*
X140628807Y-114929000D01*
X141851193Y-114929000D01*
X141893048Y-114933122D01*
X141893048Y-114933122D01*
G37*
M02*
