G04 #@! TF.GenerationSoftware,KiCad,Pcbnew,(5.1.4-0-10_14)*
G04 #@! TF.CreationDate,2020-02-02T19:29:53-05:00*
G04 #@! TF.ProjectId,AIR_MINUS,4149525f-4d49-44e5-9553-2e6b69636164,rev?*
G04 #@! TF.SameCoordinates,Original*
G04 #@! TF.FileFunction,Legend,Bot*
G04 #@! TF.FilePolarity,Positive*
%FSLAX46Y46*%
G04 Gerber Fmt 4.6, Leading zero omitted, Abs format (unit mm)*
G04 Created by KiCad (PCBNEW (5.1.4-0-10_14)) date 2020-02-02 19:29:53*
%MOMM*%
%LPD*%
G04 APERTURE LIST*
%ADD10C,0.120000*%
%ADD11C,0.100000*%
%ADD12C,0.150000*%
G04 APERTURE END LIST*
D10*
X115950000Y-167450000D02*
X112100000Y-167450000D01*
X115950000Y-169450000D02*
X112100000Y-169450000D01*
X115950000Y-167450000D02*
X115950000Y-169450000D01*
D11*
X113950000Y-169700000D02*
X113950000Y-170200000D01*
X113950000Y-169950000D02*
X113950000Y-169700000D01*
X114350000Y-169950000D02*
X113950000Y-169950000D01*
X113650000Y-170150000D02*
X113950000Y-169950000D01*
X113650000Y-169750000D02*
X113650000Y-170150000D01*
X113950000Y-169950000D02*
X113650000Y-169750000D01*
X113650000Y-169950000D02*
X113250000Y-169950000D01*
D10*
X139352800Y-139531200D02*
X139352800Y-169531200D01*
X130352800Y-146281200D02*
X148352800Y-146281200D01*
D12*
X114615095Y-166997380D02*
X114615095Y-165997380D01*
X114377000Y-165997380D01*
X114234142Y-166045000D01*
X114138904Y-166140238D01*
X114091285Y-166235476D01*
X114043666Y-166425952D01*
X114043666Y-166568809D01*
X114091285Y-166759285D01*
X114138904Y-166854523D01*
X114234142Y-166949761D01*
X114377000Y-166997380D01*
X114615095Y-166997380D01*
X113091285Y-166997380D02*
X113662714Y-166997380D01*
X113377000Y-166997380D02*
X113377000Y-165997380D01*
X113472238Y-166140238D01*
X113567476Y-166235476D01*
X113662714Y-166283095D01*
X129652780Y-151440095D02*
X130462304Y-151440095D01*
X130557542Y-151487714D01*
X130605161Y-151535333D01*
X130652780Y-151630571D01*
X130652780Y-151821047D01*
X130605161Y-151916285D01*
X130557542Y-151963904D01*
X130462304Y-152011523D01*
X129652780Y-152011523D01*
X129748019Y-152440095D02*
X129700400Y-152487714D01*
X129652780Y-152582952D01*
X129652780Y-152821047D01*
X129700400Y-152916285D01*
X129748019Y-152963904D01*
X129843257Y-153011523D01*
X129938495Y-153011523D01*
X130081352Y-152963904D01*
X130652780Y-152392476D01*
X130652780Y-153011523D01*
M02*
