G04 #@! TF.GenerationSoftware,KiCad,Pcbnew,8.0.6*
G04 #@! TF.CreationDate,2024-11-19T15:58:11-05:00*
G04 #@! TF.ProjectId,power_therm,706f7765-725f-4746-9865-726d2e6b6963,rev?*
G04 #@! TF.SameCoordinates,Original*
G04 #@! TF.FileFunction,Copper,L1,Top*
G04 #@! TF.FilePolarity,Positive*
%FSLAX46Y46*%
G04 Gerber Fmt 4.6, Leading zero omitted, Abs format (unit mm)*
G04 Created by KiCad (PCBNEW 8.0.6) date 2024-11-19 15:58:11*
%MOMM*%
%LPD*%
G01*
G04 APERTURE LIST*
G04 Aperture macros list*
%AMRoundRect*
0 Rectangle with rounded corners*
0 $1 Rounding radius*
0 $2 $3 $4 $5 $6 $7 $8 $9 X,Y pos of 4 corners*
0 Add a 4 corners polygon primitive as box body*
4,1,4,$2,$3,$4,$5,$6,$7,$8,$9,$2,$3,0*
0 Add four circle primitives for the rounded corners*
1,1,$1+$1,$2,$3*
1,1,$1+$1,$4,$5*
1,1,$1+$1,$6,$7*
1,1,$1+$1,$8,$9*
0 Add four rect primitives between the rounded corners*
20,1,$1+$1,$2,$3,$4,$5,0*
20,1,$1+$1,$4,$5,$6,$7,0*
20,1,$1+$1,$6,$7,$8,$9,0*
20,1,$1+$1,$8,$9,$2,$3,0*%
%AMFreePoly0*
4,1,67,-4.250000,56.750000,-4.229535,57.166573,-4.168337,57.579134,-4.066996,57.983710,-3.926488,58.376405,-3.748165,58.753436,-3.533746,59.111173,-3.285294,59.446171,-3.005204,59.755204,-2.696171,60.035294,-2.361173,60.283746,-2.003436,60.498165,-1.626405,60.676488,-1.233710,60.816996,-0.829134,60.918337,-0.416573,60.979535,0.000000,61.000000,0.416573,60.979535,0.829134,60.918337,1.233710,60.816996,
1.626405,60.676488,2.003436,60.498165,2.361173,60.283746,2.696171,60.035294,3.005204,59.755204,3.285294,59.446171,3.533746,59.111173,3.748165,58.753436,3.926488,58.376405,4.066996,57.983710,4.168337,57.579134,4.229535,57.166573,4.250000,56.750000,4.250000,-56.750000,4.229535,-57.166573,4.168337,-57.579134,4.066996,-57.983710,3.926488,-58.376405,3.748165,-58.753436,3.533746,-59.111173,
3.285294,-59.446171,3.005204,-59.755204,2.696171,-60.035294,2.361173,-60.283746,2.003436,-60.498165,1.626405,-60.676488,1.233710,-60.816996,0.829134,-60.918337,0.416573,-60.979535,0.000000,-61.000000,-0.416573,-60.979535,-0.829134,-60.918337,-1.233710,-60.816996,-1.626405,-60.676488,-2.003436,-60.498165,-2.361173,-60.283746,-2.696171,-60.035294,-3.005204,-59.755204,-3.285294,-59.446171,-3.533746,-59.111173,
-3.748165,-58.753436,-3.926488,-58.376405,-4.066996,-57.983710,-4.168337,-57.579134,-4.229535,-57.166573,-4.250000,-56.750000,-4.250000,56.750000,-4.250000,56.750000,$1*%
%AMFreePoly1*
4,1,67,-4.250000,54.750000,-4.229535,55.166573,-4.168337,55.579134,-4.066996,55.983710,-3.926488,56.376405,-3.748165,56.753436,-3.533746,57.111173,-3.285294,57.446171,-3.005204,57.755204,-2.696171,58.035294,-2.361173,58.283746,-2.003436,58.498165,-1.626405,58.676488,-1.233710,58.816996,-0.829134,58.918337,-0.416573,58.979535,0.000000,59.000000,0.416573,58.979535,0.829134,58.918337,1.233710,58.816996,
1.626405,58.676488,2.003436,58.498165,2.361173,58.283746,2.696171,58.035294,3.005204,57.755204,3.285294,57.446171,3.533746,57.111173,3.748165,56.753436,3.926488,56.376405,4.066996,55.983710,4.168337,55.579134,4.229535,55.166573,4.250000,54.750000,4.250000,-54.750000,4.229535,-55.166573,4.168337,-55.579134,4.066996,-55.983710,3.926488,-56.376405,3.748165,-56.753436,3.533746,-57.111173,
3.285294,-57.446171,3.005204,-57.755204,2.696171,-58.035294,2.361173,-58.283746,2.003436,-58.498165,1.626405,-58.676488,1.233710,-58.816996,0.829134,-58.918337,0.416573,-58.979535,0.000000,-59.000000,-0.416573,-58.979535,-0.829134,-58.918337,-1.233710,-58.816996,-1.626405,-58.676488,-2.003436,-58.498165,-2.361173,-58.283746,-2.696171,-58.035294,-3.005204,-57.755204,-3.285294,-57.446171,-3.533746,-57.111173,
-3.748165,-56.753436,-3.926488,-56.376405,-4.066996,-55.983710,-4.168337,-55.579134,-4.229535,-55.166573,-4.250000,-54.750000,-4.250000,54.750000,-4.250000,54.750000,$1*%
%AMFreePoly2*
4,1,67,-4.250000,55.920000,-4.229535,56.336573,-4.168337,56.749134,-4.066996,57.153710,-3.926488,57.546405,-3.748165,57.923436,-3.533746,58.281173,-3.285294,58.616171,-3.005204,58.925204,-2.696171,59.205294,-2.361173,59.453746,-2.003436,59.668165,-1.626405,59.846488,-1.233710,59.986996,-0.829134,60.088337,-0.416573,60.149535,0.000000,60.170000,0.416573,60.149535,0.829134,60.088337,1.233710,59.986996,
1.626405,59.846488,2.003436,59.668165,2.361173,59.453746,2.696171,59.205294,3.005204,58.925204,3.285294,58.616171,3.533746,58.281173,3.748165,57.923436,3.926488,57.546405,4.066996,57.153710,4.168337,56.749134,4.229535,56.336573,4.250000,55.920000,4.250000,-55.920000,4.229535,-56.336573,4.168337,-56.749134,4.066996,-57.153710,3.926488,-57.546405,3.748165,-57.923436,3.533746,-58.281173,
3.285294,-58.616171,3.005204,-58.925204,2.696171,-59.205294,2.361173,-59.453746,2.003436,-59.668165,1.626405,-59.846488,1.233710,-59.986996,0.829134,-60.088337,0.416573,-60.149535,0.000000,-60.170000,-0.416573,-60.149535,-0.829134,-60.088337,-1.233710,-59.986996,-1.626405,-59.846488,-2.003436,-59.668165,-2.361173,-59.453746,-2.696171,-59.205294,-3.005204,-58.925204,-3.285294,-58.616171,-3.533746,-58.281173,
-3.748165,-57.923436,-3.926488,-57.546405,-4.066996,-57.153710,-4.168337,-56.749134,-4.229535,-56.336573,-4.250000,-55.920000,-4.250000,55.920000,-4.250000,55.920000,$1*%
G04 Aperture macros list end*
G04 #@! TA.AperFunction,Conductor*
%ADD10C,0.200000*%
G04 #@! TD*
G04 #@! TA.AperFunction,EtchedComponent*
%ADD11C,0.000000*%
G04 #@! TD*
G04 #@! TA.AperFunction,SMDPad,CuDef*
%ADD12R,1.500000X1.000000*%
G04 #@! TD*
G04 #@! TA.AperFunction,SMDPad,CuDef*
%ADD13RoundRect,0.243750X0.456250X-0.243750X0.456250X0.243750X-0.456250X0.243750X-0.456250X-0.243750X0*%
G04 #@! TD*
G04 #@! TA.AperFunction,SMDPad,CuDef*
%ADD14FreePoly0,0.000000*%
G04 #@! TD*
G04 #@! TA.AperFunction,SMDPad,CuDef*
%ADD15FreePoly1,0.000000*%
G04 #@! TD*
G04 #@! TA.AperFunction,SMDPad,CuDef*
%ADD16FreePoly2,0.000000*%
G04 #@! TD*
G04 #@! TA.AperFunction,ComponentPad*
%ADD17C,1.163000*%
G04 #@! TD*
G04 #@! TA.AperFunction,ComponentPad*
%ADD18C,2.000000*%
G04 #@! TD*
G04 #@! TA.AperFunction,SMDPad,CuDef*
%ADD19R,15.240000X15.240000*%
G04 #@! TD*
G04 #@! TA.AperFunction,ViaPad*
%ADD20C,0.600000*%
G04 #@! TD*
G04 #@! TA.AperFunction,ViaPad*
%ADD21C,0.800000*%
G04 #@! TD*
G04 #@! TA.AperFunction,Conductor*
%ADD22C,1.000000*%
G04 #@! TD*
G04 #@! TA.AperFunction,Conductor*
%ADD23C,4.000000*%
G04 #@! TD*
G04 #@! TA.AperFunction,Conductor*
%ADD24C,3.000000*%
G04 #@! TD*
G04 #@! TA.AperFunction,Conductor*
%ADD25C,1.500000*%
G04 #@! TD*
G04 APERTURE END LIST*
D10*
X445087000Y-202833000D02*
X445087000Y-204357000D01*
D11*
G04 #@! TA.AperFunction,EtchedComponent*
G36*
X252620000Y-86110000D02*
G01*
X252220000Y-86110000D01*
X252220000Y-85610000D01*
X252620000Y-85610000D01*
X252620000Y-86110000D01*
G37*
G04 #@! TD.AperFunction*
G04 #@! TA.AperFunction,EtchedComponent*
G36*
X253420000Y-86110000D02*
G01*
X253020000Y-86110000D01*
X253020000Y-85610000D01*
X253420000Y-85610000D01*
X253420000Y-86110000D01*
G37*
G04 #@! TD.AperFunction*
G04 #@! TA.AperFunction,EtchedComponent*
G36*
X93400000Y-86050000D02*
G01*
X93000000Y-86050000D01*
X93000000Y-85550000D01*
X93400000Y-85550000D01*
X93400000Y-86050000D01*
G37*
G04 #@! TD.AperFunction*
G04 #@! TA.AperFunction,EtchedComponent*
G36*
X94200000Y-86050000D02*
G01*
X93800000Y-86050000D01*
X93800000Y-85550000D01*
X94200000Y-85550000D01*
X94200000Y-86050000D01*
G37*
G04 #@! TD.AperFunction*
G04 #@! TA.AperFunction,EtchedComponent*
G36*
X430600000Y-85887500D02*
G01*
X430200000Y-85887500D01*
X430200000Y-85387500D01*
X430600000Y-85387500D01*
X430600000Y-85887500D01*
G37*
G04 #@! TD.AperFunction*
G04 #@! TA.AperFunction,EtchedComponent*
G36*
X431400000Y-85887500D02*
G01*
X431000000Y-85887500D01*
X431000000Y-85387500D01*
X431400000Y-85387500D01*
X431400000Y-85887500D01*
G37*
G04 #@! TD.AperFunction*
G04 #@! TA.AperFunction,EtchedComponent*
G36*
X167890000Y-86150000D02*
G01*
X167490000Y-86150000D01*
X167490000Y-85650000D01*
X167890000Y-85650000D01*
X167890000Y-86150000D01*
G37*
G04 #@! TD.AperFunction*
G04 #@! TA.AperFunction,EtchedComponent*
G36*
X168690000Y-86150000D02*
G01*
X168290000Y-86150000D01*
X168290000Y-85650000D01*
X168690000Y-85650000D01*
X168690000Y-86150000D01*
G37*
G04 #@! TD.AperFunction*
G04 #@! TA.AperFunction,EtchedComponent*
G36*
X210040000Y-86110000D02*
G01*
X209640000Y-86110000D01*
X209640000Y-85610000D01*
X210040000Y-85610000D01*
X210040000Y-86110000D01*
G37*
G04 #@! TD.AperFunction*
G04 #@! TA.AperFunction,EtchedComponent*
G36*
X210840000Y-86110000D02*
G01*
X210440000Y-86110000D01*
X210440000Y-85610000D01*
X210840000Y-85610000D01*
X210840000Y-86110000D01*
G37*
G04 #@! TD.AperFunction*
G04 #@! TA.AperFunction,EtchedComponent*
G36*
X188970000Y-86150000D02*
G01*
X188570000Y-86150000D01*
X188570000Y-85650000D01*
X188970000Y-85650000D01*
X188970000Y-86150000D01*
G37*
G04 #@! TD.AperFunction*
G04 #@! TA.AperFunction,EtchedComponent*
G36*
X189770000Y-86150000D02*
G01*
X189370000Y-86150000D01*
X189370000Y-85650000D01*
X189770000Y-85650000D01*
X189770000Y-86150000D01*
G37*
G04 #@! TD.AperFunction*
G04 #@! TA.AperFunction,EtchedComponent*
G36*
X295340000Y-86130000D02*
G01*
X294940000Y-86130000D01*
X294940000Y-85630000D01*
X295340000Y-85630000D01*
X295340000Y-86130000D01*
G37*
G04 #@! TD.AperFunction*
G04 #@! TA.AperFunction,EtchedComponent*
G36*
X296140000Y-86130000D02*
G01*
X295740000Y-86130000D01*
X295740000Y-85630000D01*
X296140000Y-85630000D01*
X296140000Y-86130000D01*
G37*
G04 #@! TD.AperFunction*
G04 #@! TA.AperFunction,EtchedComponent*
G36*
X146390000Y-86110000D02*
G01*
X145990000Y-86110000D01*
X145990000Y-85610000D01*
X146390000Y-85610000D01*
X146390000Y-86110000D01*
G37*
G04 #@! TD.AperFunction*
G04 #@! TA.AperFunction,EtchedComponent*
G36*
X147190000Y-86110000D02*
G01*
X146790000Y-86110000D01*
X146790000Y-85610000D01*
X147190000Y-85610000D01*
X147190000Y-86110000D01*
G37*
G04 #@! TD.AperFunction*
G04 #@! TA.AperFunction,EtchedComponent*
G36*
X338160000Y-86100000D02*
G01*
X337760000Y-86100000D01*
X337760000Y-85600000D01*
X338160000Y-85600000D01*
X338160000Y-86100000D01*
G37*
G04 #@! TD.AperFunction*
G04 #@! TA.AperFunction,EtchedComponent*
G36*
X338960000Y-86100000D02*
G01*
X338560000Y-86100000D01*
X338560000Y-85600000D01*
X338960000Y-85600000D01*
X338960000Y-86100000D01*
G37*
G04 #@! TD.AperFunction*
G04 #@! TA.AperFunction,EtchedComponent*
G36*
X231320000Y-86140000D02*
G01*
X230920000Y-86140000D01*
X230920000Y-85640000D01*
X231320000Y-85640000D01*
X231320000Y-86140000D01*
G37*
G04 #@! TD.AperFunction*
G04 #@! TA.AperFunction,EtchedComponent*
G36*
X232120000Y-86140000D02*
G01*
X231720000Y-86140000D01*
X231720000Y-85640000D01*
X232120000Y-85640000D01*
X232120000Y-86140000D01*
G37*
G04 #@! TD.AperFunction*
G04 #@! TA.AperFunction,EtchedComponent*
G36*
X273990000Y-86130000D02*
G01*
X273590000Y-86130000D01*
X273590000Y-85630000D01*
X273990000Y-85630000D01*
X273990000Y-86130000D01*
G37*
G04 #@! TD.AperFunction*
G04 #@! TA.AperFunction,EtchedComponent*
G36*
X274790000Y-86130000D02*
G01*
X274390000Y-86130000D01*
X274390000Y-85630000D01*
X274790000Y-85630000D01*
X274790000Y-86130000D01*
G37*
G04 #@! TD.AperFunction*
G04 #@! TA.AperFunction,EtchedComponent*
G36*
X359410000Y-86120000D02*
G01*
X359010000Y-86120000D01*
X359010000Y-85620000D01*
X359410000Y-85620000D01*
X359410000Y-86120000D01*
G37*
G04 #@! TD.AperFunction*
G04 #@! TA.AperFunction,EtchedComponent*
G36*
X360210000Y-86120000D02*
G01*
X359810000Y-86120000D01*
X359810000Y-85620000D01*
X360210000Y-85620000D01*
X360210000Y-86120000D01*
G37*
G04 #@! TD.AperFunction*
G04 #@! TA.AperFunction,EtchedComponent*
G36*
X407000000Y-85950000D02*
G01*
X406600000Y-85950000D01*
X406600000Y-85450000D01*
X407000000Y-85450000D01*
X407000000Y-85950000D01*
G37*
G04 #@! TD.AperFunction*
G04 #@! TA.AperFunction,EtchedComponent*
G36*
X407800000Y-85950000D02*
G01*
X407400000Y-85950000D01*
X407400000Y-85450000D01*
X407800000Y-85450000D01*
X407800000Y-85950000D01*
G37*
G04 #@! TD.AperFunction*
G04 #@! TA.AperFunction,EtchedComponent*
G36*
X402060000Y-86130000D02*
G01*
X401660000Y-86130000D01*
X401660000Y-85630000D01*
X402060000Y-85630000D01*
X402060000Y-86130000D01*
G37*
G04 #@! TD.AperFunction*
G04 #@! TA.AperFunction,EtchedComponent*
G36*
X402860000Y-86130000D02*
G01*
X402460000Y-86130000D01*
X402460000Y-85630000D01*
X402860000Y-85630000D01*
X402860000Y-86130000D01*
G37*
G04 #@! TD.AperFunction*
G04 #@! TA.AperFunction,EtchedComponent*
G36*
X380770000Y-86110000D02*
G01*
X380370000Y-86110000D01*
X380370000Y-85610000D01*
X380770000Y-85610000D01*
X380770000Y-86110000D01*
G37*
G04 #@! TD.AperFunction*
G04 #@! TA.AperFunction,EtchedComponent*
G36*
X381570000Y-86110000D02*
G01*
X381170000Y-86110000D01*
X381170000Y-85610000D01*
X381570000Y-85610000D01*
X381570000Y-86110000D01*
G37*
G04 #@! TD.AperFunction*
G04 #@! TA.AperFunction,EtchedComponent*
G36*
X316820000Y-86110000D02*
G01*
X316420000Y-86110000D01*
X316420000Y-85610000D01*
X316820000Y-85610000D01*
X316820000Y-86110000D01*
G37*
G04 #@! TD.AperFunction*
G04 #@! TA.AperFunction,EtchedComponent*
G36*
X317620000Y-86110000D02*
G01*
X317220000Y-86110000D01*
X317220000Y-85610000D01*
X317620000Y-85610000D01*
X317620000Y-86110000D01*
G37*
G04 #@! TD.AperFunction*
G04 #@! TA.AperFunction,EtchedComponent*
G36*
X116500000Y-86000000D02*
G01*
X116100000Y-86000000D01*
X116100000Y-85500000D01*
X116500000Y-85500000D01*
X116500000Y-86000000D01*
G37*
G04 #@! TD.AperFunction*
G04 #@! TA.AperFunction,EtchedComponent*
G36*
X117300000Y-86000000D02*
G01*
X116900000Y-86000000D01*
X116900000Y-85500000D01*
X117300000Y-85500000D01*
X117300000Y-86000000D01*
G37*
G04 #@! TD.AperFunction*
G04 #@! TA.AperFunction,EtchedComponent*
G36*
X125030000Y-86120000D02*
G01*
X124630000Y-86120000D01*
X124630000Y-85620000D01*
X125030000Y-85620000D01*
X125030000Y-86120000D01*
G37*
G04 #@! TD.AperFunction*
G04 #@! TA.AperFunction,EtchedComponent*
G36*
X125830000Y-86120000D02*
G01*
X125430000Y-86120000D01*
X125430000Y-85620000D01*
X125830000Y-85620000D01*
X125830000Y-86120000D01*
G37*
G04 #@! TD.AperFunction*
D12*
X252820000Y-86510000D03*
X252820000Y-85210000D03*
D13*
X338360000Y-82137500D03*
X338360000Y-80262500D03*
D12*
X93600000Y-86450000D03*
X93600000Y-85150000D03*
D13*
X189170000Y-82087500D03*
X189170000Y-80212500D03*
X317020000Y-82047500D03*
X317020000Y-80172500D03*
X295540000Y-82067500D03*
X295540000Y-80192500D03*
X407200000Y-81887500D03*
X407200000Y-80012500D03*
X274190000Y-82067500D03*
X274190000Y-80192500D03*
D14*
X295700000Y-150670000D03*
X444870000Y-151792000D03*
X210390000Y-150000000D03*
D13*
X231520000Y-82077500D03*
X231520000Y-80202500D03*
D14*
X380950000Y-150670000D03*
D12*
X430800000Y-86287500D03*
X430800000Y-84987500D03*
D14*
X103810000Y-150670000D03*
X125260000Y-150670000D03*
D12*
X168090000Y-86550000D03*
X168090000Y-85250000D03*
D13*
X402260000Y-82067500D03*
X402260000Y-80192500D03*
D12*
X210240000Y-86510000D03*
X210240000Y-85210000D03*
D13*
X125230000Y-82207500D03*
X125230000Y-80332500D03*
D14*
X253120000Y-150670000D03*
D13*
X116700000Y-82087500D03*
X116700000Y-80212500D03*
D14*
X82800000Y-150800000D03*
D12*
X189170000Y-86550000D03*
X189170000Y-85250000D03*
X295540000Y-86530000D03*
X295540000Y-85230000D03*
D13*
X93600000Y-81937500D03*
X93600000Y-80062500D03*
D12*
X146590000Y-86510000D03*
X146590000Y-85210000D03*
D14*
X359650000Y-150670000D03*
D13*
X252820000Y-82047500D03*
X252820000Y-80172500D03*
X168090000Y-82087500D03*
X168090000Y-80212500D03*
D14*
X402270000Y-151792000D03*
D13*
X359610000Y-82057500D03*
X359610000Y-80182500D03*
D12*
X338360000Y-86500000D03*
X338360000Y-85200000D03*
D15*
X338350000Y-148300000D03*
D12*
X231520000Y-86540000D03*
X231520000Y-85240000D03*
D13*
X430800000Y-81875000D03*
X430800000Y-80000000D03*
D12*
X274190000Y-86530000D03*
X274190000Y-85230000D03*
D16*
X231800000Y-149000000D03*
D12*
X359610000Y-86520000D03*
X359610000Y-85220000D03*
X407200000Y-86350000D03*
X407200000Y-85050000D03*
X402260000Y-86530000D03*
X402260000Y-85230000D03*
D14*
X146520000Y-150670000D03*
X423570000Y-151892000D03*
X167800000Y-150670000D03*
D12*
X380970000Y-86510000D03*
X380970000Y-85210000D03*
X317020000Y-86510000D03*
X317020000Y-85210000D03*
D14*
X317050000Y-150670000D03*
X189100000Y-150670000D03*
D12*
X116700000Y-86400000D03*
X116700000Y-85100000D03*
D13*
X380970000Y-82047500D03*
X380970000Y-80172500D03*
D14*
X274410000Y-150670000D03*
D13*
X210240000Y-82047500D03*
X210240000Y-80172500D03*
X146590000Y-82047500D03*
X146590000Y-80172500D03*
D12*
X125230000Y-86520000D03*
X125230000Y-85220000D03*
D17*
X345000000Y-47000000D03*
X345000000Y-49000000D03*
X347000000Y-47000000D03*
X347000000Y-49000000D03*
X349000000Y-47000000D03*
X349000000Y-49000000D03*
X351000000Y-47000000D03*
X351000000Y-49000000D03*
X353000000Y-47000000D03*
X353000000Y-49000000D03*
X355000000Y-47000000D03*
X355000000Y-49000000D03*
X357000000Y-47000000D03*
X357000000Y-49000000D03*
X359000000Y-47000000D03*
X359000000Y-49000000D03*
X361000000Y-47000000D03*
X361000000Y-49000000D03*
X363000000Y-47000000D03*
X363000000Y-49000000D03*
X342075000Y-48000000D03*
X365925000Y-48000000D03*
D18*
X462034907Y-77589506D03*
X462034907Y-75049506D03*
X462034907Y-72509506D03*
X462034907Y-69969506D03*
X462034907Y-67429506D03*
X459494907Y-77589506D03*
X459494907Y-75049506D03*
X459494907Y-72509506D03*
X459494907Y-69969506D03*
X459494907Y-67429506D03*
X456954907Y-77589506D03*
X456954907Y-75049506D03*
X456954907Y-72509506D03*
D19*
X456954907Y-72509506D03*
D18*
X456954907Y-69969506D03*
X456954907Y-67429506D03*
X454414907Y-77589506D03*
X454414907Y-75049506D03*
X454414907Y-72509506D03*
X454414907Y-69969506D03*
X454414907Y-67429506D03*
X451874907Y-77589506D03*
X451874907Y-75049506D03*
X451874907Y-72509506D03*
X451874907Y-69969506D03*
X451874907Y-67429506D03*
X75192907Y-77589506D03*
X75192907Y-75049506D03*
X75192907Y-72509506D03*
X75192907Y-69969506D03*
X75192907Y-67429506D03*
X72652907Y-77589506D03*
X72652907Y-75049506D03*
X72652907Y-72509506D03*
X72652907Y-69969506D03*
X72652907Y-67429506D03*
X70112907Y-77589506D03*
X70112907Y-75049506D03*
X70112907Y-72509506D03*
D19*
X70112907Y-72509506D03*
D18*
X70112907Y-69969506D03*
X70112907Y-67429506D03*
X67572907Y-77589506D03*
X67572907Y-75049506D03*
X67572907Y-72509506D03*
X67572907Y-69969506D03*
X67572907Y-67429506D03*
X65032907Y-77589506D03*
X65032907Y-75049506D03*
X65032907Y-72509506D03*
X65032907Y-69969506D03*
X65032907Y-67429506D03*
D17*
X271000000Y-47000000D03*
X271000000Y-49000000D03*
X273000000Y-47000000D03*
X273000000Y-49000000D03*
X275000000Y-47000000D03*
X275000000Y-49000000D03*
X277000000Y-47000000D03*
X277000000Y-49000000D03*
X279000000Y-47000000D03*
X279000000Y-49000000D03*
X281000000Y-47000000D03*
X281000000Y-49000000D03*
X283000000Y-47000000D03*
X283000000Y-49000000D03*
X285000000Y-47000000D03*
X285000000Y-49000000D03*
X287000000Y-47000000D03*
X287000000Y-49000000D03*
X289000000Y-47000000D03*
X289000000Y-49000000D03*
X268075000Y-48000000D03*
X291925000Y-48000000D03*
X391000000Y-47000000D03*
X391000000Y-49000000D03*
X393000000Y-47000000D03*
X393000000Y-49000000D03*
X395000000Y-47000000D03*
X395000000Y-49000000D03*
X397000000Y-47000000D03*
X397000000Y-49000000D03*
X399000000Y-47000000D03*
X399000000Y-49000000D03*
X401000000Y-47000000D03*
X401000000Y-49000000D03*
X403000000Y-47000000D03*
X403000000Y-49000000D03*
X405000000Y-47000000D03*
X405000000Y-49000000D03*
X407000000Y-47000000D03*
X407000000Y-49000000D03*
X409000000Y-47000000D03*
X409000000Y-49000000D03*
X388075000Y-48000000D03*
X411925000Y-48000000D03*
D20*
X89800000Y-116400000D03*
X367020000Y-129970000D03*
X410675207Y-183303988D03*
X282575207Y-183303988D03*
X93200000Y-79400000D03*
X238860000Y-129520000D03*
X302910000Y-170040000D03*
X175290000Y-170320000D03*
X434609740Y-117316488D03*
X217930000Y-170190000D03*
X217980000Y-116490000D03*
X153990000Y-129830000D03*
X388200000Y-170210000D03*
X174970000Y-116330000D03*
X434275207Y-171046488D03*
X111310000Y-129910000D03*
X281120000Y-129790000D03*
X89600000Y-170210000D03*
X112575207Y-183303988D03*
X367975207Y-183303988D03*
X325375207Y-183503988D03*
X260000000Y-170100000D03*
X240275207Y-183303988D03*
X132490000Y-170170000D03*
X260290000Y-116340000D03*
X345610000Y-170210000D03*
X388175069Y-116510000D03*
X196495000Y-129850000D03*
X197075207Y-183103988D03*
X94000000Y-79400000D03*
X324470000Y-129810000D03*
X132630000Y-116470000D03*
X409460000Y-129580000D03*
X154575207Y-183203988D03*
X345690000Y-116630000D03*
X303100000Y-116400000D03*
D21*
X463100000Y-191400000D03*
X462706000Y-203358000D03*
X471074000Y-182343000D03*
X450706000Y-164358000D03*
X471218000Y-86535000D03*
X474218000Y-83535000D03*
X441706000Y-95358000D03*
X471074000Y-125343000D03*
X447706000Y-116358000D03*
X471074000Y-158343000D03*
X441706000Y-137358000D03*
X471074000Y-194343000D03*
X450706000Y-122358000D03*
X444706000Y-209358000D03*
X462706000Y-89358000D03*
X456706000Y-116358000D03*
X471074000Y-167343000D03*
X459706000Y-152358000D03*
X441802000Y-73200000D03*
X441706000Y-152358000D03*
X462706000Y-155358000D03*
X468074000Y-155343000D03*
X465800000Y-83500000D03*
X453706000Y-185358000D03*
X474074000Y-194343000D03*
X453706000Y-170358000D03*
X456706000Y-164358000D03*
X468074000Y-116343000D03*
X453706000Y-161358000D03*
X450706000Y-209358000D03*
X471074000Y-161343000D03*
X441706000Y-173358000D03*
X441706000Y-119358000D03*
X465706000Y-203358000D03*
X447706000Y-197358000D03*
X468218000Y-80535000D03*
X459800000Y-83500000D03*
X459706000Y-137358000D03*
X441706000Y-143358000D03*
X444706000Y-122358000D03*
X450706000Y-161358000D03*
X465706000Y-179358000D03*
X474074000Y-122343000D03*
X474074000Y-164343000D03*
X444706000Y-86358000D03*
X459706000Y-197358000D03*
X453706000Y-167358000D03*
X462706000Y-104358000D03*
X465706000Y-116358000D03*
X450706000Y-143358000D03*
X453706000Y-134358000D03*
X465706000Y-128358000D03*
X459706000Y-146358000D03*
X471074000Y-200343000D03*
X466075207Y-73403988D03*
X474074000Y-119343000D03*
X453706000Y-107358000D03*
X456706000Y-209358000D03*
X466075207Y-67403988D03*
X459706000Y-200358000D03*
X465706000Y-176358000D03*
X447706000Y-188358000D03*
X459706000Y-149358000D03*
X453706000Y-176358000D03*
X462706000Y-206358000D03*
X462706000Y-146358000D03*
X450706000Y-116358000D03*
X468074000Y-200343000D03*
X450706000Y-113358000D03*
X447706000Y-134358000D03*
X441706000Y-89358000D03*
X468074000Y-134343000D03*
X447775207Y-73103988D03*
X450706000Y-191358000D03*
X465706000Y-164358000D03*
X444706000Y-83358000D03*
X471074000Y-137343000D03*
X468074000Y-119343000D03*
X450706000Y-206358000D03*
X468074000Y-191343000D03*
X447706000Y-209358000D03*
X471074000Y-128343000D03*
X441706000Y-83358000D03*
X465706000Y-95358000D03*
X453706000Y-212358000D03*
X459706000Y-188358000D03*
X474074000Y-158343000D03*
X465706000Y-161358000D03*
X450706000Y-155358000D03*
X462706000Y-137358000D03*
X450706000Y-101358000D03*
X447706000Y-164358000D03*
X471074000Y-116343000D03*
X459517000Y-161383000D03*
X462706000Y-98358000D03*
X462706000Y-161358000D03*
X462706000Y-179358000D03*
X462775207Y-81103988D03*
X471074000Y-143343000D03*
X456706000Y-194358000D03*
X471218000Y-83535000D03*
X474218000Y-80535000D03*
X450706000Y-86358000D03*
X474074000Y-128343000D03*
X447706000Y-191358000D03*
X447706000Y-125358000D03*
X453706000Y-209358000D03*
X444706000Y-182358000D03*
X453706000Y-128358000D03*
X453775207Y-81203988D03*
X465706000Y-146358000D03*
X441706000Y-125358000D03*
X456706000Y-89358000D03*
X459706000Y-122358000D03*
X466075207Y-76403988D03*
X453706000Y-155358000D03*
X459706000Y-212358000D03*
X456517000Y-161383000D03*
X453706000Y-95358000D03*
X459706000Y-116358000D03*
X474074000Y-92343000D03*
X444802000Y-76200000D03*
X468074000Y-152343000D03*
X441706000Y-140358000D03*
X456706000Y-122358000D03*
X453706000Y-146358000D03*
X471074000Y-164343000D03*
X471074000Y-134343000D03*
X459706000Y-203358000D03*
X468074000Y-128343000D03*
X444706000Y-134358000D03*
X441706000Y-203358000D03*
X450706000Y-182358000D03*
X441706000Y-194358000D03*
X459771000Y-92343000D03*
X453706000Y-179358000D03*
X444706000Y-104358000D03*
X444706000Y-155358000D03*
X466075207Y-70403988D03*
X459706000Y-173358000D03*
X462706000Y-173358000D03*
X468074000Y-137343000D03*
X441706000Y-110358000D03*
X447706000Y-98358000D03*
X468932000Y-76327000D03*
X441706000Y-134358000D03*
X474074000Y-143343000D03*
X447706000Y-113358000D03*
X468074000Y-158343000D03*
X444802000Y-70200000D03*
X456706000Y-176358000D03*
X441706000Y-176358000D03*
X447706000Y-161358000D03*
X468074000Y-182343000D03*
X444706000Y-92358000D03*
X444706000Y-137358000D03*
X456706000Y-185358000D03*
X441706000Y-155358000D03*
X441706000Y-200358000D03*
X465706000Y-89358000D03*
X453706000Y-104358000D03*
X465788000Y-152400000D03*
X444706000Y-125358000D03*
X468074000Y-164343000D03*
X468074000Y-122343000D03*
X465706000Y-158358000D03*
X441706000Y-146358000D03*
X462706000Y-167358000D03*
X453706000Y-188358000D03*
X450706000Y-200358000D03*
X447706000Y-155358000D03*
X462706000Y-143358000D03*
X468074000Y-161343000D03*
X447706000Y-158358000D03*
X447706000Y-92358000D03*
X444706000Y-101358000D03*
X453706000Y-110358000D03*
X465706000Y-188358000D03*
X465706000Y-200358000D03*
X450800000Y-81203988D03*
X459706000Y-125358000D03*
X474074000Y-155343000D03*
X450706000Y-197358000D03*
X444706000Y-197358000D03*
X456706000Y-173358000D03*
X459706000Y-206358000D03*
X441706000Y-170358000D03*
X462706000Y-128358000D03*
X465706000Y-143358000D03*
X462706000Y-95358000D03*
X453706000Y-191358000D03*
X465706000Y-98358000D03*
X474074000Y-116343000D03*
X474775207Y-67403988D03*
X453706000Y-116358000D03*
X444706000Y-128358000D03*
X456706000Y-101358000D03*
X441706000Y-122358000D03*
X462706000Y-122358000D03*
X471074000Y-146343000D03*
X453706000Y-92358000D03*
X441706000Y-209358000D03*
X471074000Y-155343000D03*
X468932000Y-67327000D03*
X453706000Y-200358000D03*
X441706000Y-188358000D03*
X474074000Y-134343000D03*
X459706000Y-107358000D03*
X450706000Y-167358000D03*
X447675207Y-67203988D03*
X453706000Y-182358000D03*
X456706000Y-131358000D03*
X468074000Y-185343000D03*
X474074000Y-95343000D03*
X474074000Y-125343000D03*
X468074000Y-113343000D03*
X447706000Y-203358000D03*
X450706000Y-203358000D03*
X471074000Y-122343000D03*
X453706000Y-101358000D03*
X456706000Y-119358000D03*
X444706000Y-200358000D03*
X462706000Y-125358000D03*
X462706000Y-209358000D03*
X447706000Y-128358000D03*
X462706000Y-113358000D03*
X447800000Y-83500000D03*
X468074000Y-125343000D03*
X456706000Y-125358000D03*
X471975207Y-67003988D03*
X453706000Y-98358000D03*
X459775207Y-81103988D03*
X456706000Y-212358000D03*
X447706000Y-179358000D03*
X456706000Y-155358000D03*
X474074000Y-191343000D03*
X462788000Y-152400000D03*
X471074000Y-152343000D03*
X471074000Y-179343000D03*
X450706000Y-104358000D03*
X456706000Y-86358000D03*
X447706000Y-200358000D03*
X450706000Y-125358000D03*
X453706000Y-125358000D03*
X462706000Y-116358000D03*
X468074000Y-194343000D03*
X459706000Y-101358000D03*
X459706000Y-167358000D03*
X471074000Y-95343000D03*
X468074000Y-203343000D03*
X465706000Y-170358000D03*
X459771000Y-95343000D03*
X471074000Y-191343000D03*
X471074000Y-176343000D03*
X474074000Y-185343000D03*
X450706000Y-98358000D03*
X459706000Y-86358000D03*
X450706000Y-170358000D03*
X456706000Y-143358000D03*
X471074000Y-131343000D03*
X447675207Y-70203988D03*
X474074000Y-188343000D03*
X468074000Y-149343000D03*
X444706000Y-194358000D03*
X471074000Y-119343000D03*
X456517000Y-158383000D03*
X450706000Y-173358000D03*
X450706000Y-134358000D03*
X450706000Y-149358000D03*
X465706000Y-173358000D03*
X468074000Y-197343000D03*
X453706000Y-143358000D03*
X456706000Y-179358000D03*
X468074000Y-140343000D03*
X441802000Y-70200000D03*
X468074000Y-167343000D03*
X456706000Y-167358000D03*
X450706000Y-95358000D03*
X447706000Y-119358000D03*
X465706000Y-212358000D03*
X450706000Y-140358000D03*
X447706000Y-173358000D03*
X444706000Y-164358000D03*
X465706000Y-86358000D03*
X459706000Y-209358000D03*
X447706000Y-140358000D03*
X462706000Y-170358000D03*
X444706000Y-212358000D03*
X441706000Y-104358000D03*
X447706000Y-131358000D03*
X444706000Y-188358000D03*
X462706000Y-176358000D03*
X462706000Y-212358000D03*
X468074000Y-179343000D03*
X453706000Y-173358000D03*
X447706000Y-104358000D03*
X444706000Y-146358000D03*
X447706000Y-86358000D03*
X444802000Y-67200000D03*
X474074000Y-98343000D03*
X453706000Y-152358000D03*
X441706000Y-182358000D03*
X441706000Y-167358000D03*
X462706000Y-200358000D03*
X459706000Y-113358000D03*
X462706000Y-164358000D03*
X468074000Y-176343000D03*
X444706000Y-116358000D03*
X468932000Y-70327000D03*
X462800000Y-83500000D03*
X453706000Y-89358000D03*
X441706000Y-98358000D03*
X456706000Y-104358000D03*
X456706000Y-110358000D03*
X456706000Y-149358000D03*
X468074000Y-131343000D03*
X453706000Y-131358000D03*
X474074000Y-200343000D03*
X468074000Y-170343000D03*
X456706000Y-146358000D03*
X456706000Y-203358000D03*
X468218000Y-89535000D03*
X462706000Y-149358000D03*
X450706000Y-146358000D03*
X471074000Y-92343000D03*
X453706000Y-137358000D03*
X453706000Y-206358000D03*
X468218000Y-86535000D03*
X444802000Y-73200000D03*
X465706000Y-209358000D03*
X459706000Y-194358000D03*
X465706000Y-92358000D03*
X444706000Y-89358000D03*
X468074000Y-188343000D03*
X453706000Y-197358000D03*
X456706000Y-200358000D03*
X459706000Y-140358000D03*
X471218000Y-80535000D03*
X462706000Y-110358000D03*
X471074000Y-173343000D03*
X462706000Y-86358000D03*
X441709000Y-80645000D03*
X471074000Y-197343000D03*
X444706000Y-167358000D03*
X456706000Y-98358000D03*
X450706000Y-107358000D03*
X447706000Y-95358000D03*
X453800000Y-83500000D03*
X444706000Y-149358000D03*
X444706000Y-113358000D03*
X444706000Y-158358000D03*
X465800000Y-80500000D03*
X441706000Y-179358000D03*
X441706000Y-131358000D03*
X465706000Y-113358000D03*
X444706000Y-143358000D03*
X465706000Y-125358000D03*
X447706000Y-89358000D03*
X462706000Y-197358000D03*
X447706000Y-101358000D03*
X468074000Y-95343000D03*
X441706000Y-158358000D03*
X450706000Y-152358000D03*
X474074000Y-170343000D03*
X450706000Y-176358000D03*
X450706000Y-185358000D03*
X441706000Y-206358000D03*
X450706000Y-131358000D03*
X441706000Y-128358000D03*
X444706000Y-176358000D03*
X465706000Y-140358000D03*
X474074000Y-167343000D03*
X453706000Y-164358000D03*
X474074000Y-146343000D03*
X450706000Y-194358000D03*
X465706000Y-155358000D03*
X450800000Y-83500000D03*
X468074000Y-173343000D03*
X474074000Y-131343000D03*
X453706000Y-122358000D03*
X471074000Y-170343000D03*
X441706000Y-185358000D03*
X447706000Y-206358000D03*
X459517000Y-158383000D03*
X441706000Y-197358000D03*
X474074000Y-179343000D03*
X450706000Y-89358000D03*
X444706000Y-185358000D03*
X441706000Y-191358000D03*
X456706000Y-134358000D03*
X459706000Y-164358000D03*
X462700000Y-140400000D03*
X447706000Y-176358000D03*
X444706000Y-179358000D03*
X459706000Y-143358000D03*
X441802000Y-76200000D03*
X462706000Y-119358000D03*
X474074000Y-140343000D03*
X444706000Y-170358000D03*
X474074000Y-137343000D03*
X456706000Y-191358000D03*
X447706000Y-182358000D03*
X474074000Y-152343000D03*
X447706000Y-170358000D03*
X456706000Y-128358000D03*
X444706000Y-152358000D03*
X474218000Y-86535000D03*
X468074000Y-98343000D03*
X456706000Y-188358000D03*
X453706000Y-113358000D03*
X450706000Y-158358000D03*
X444706000Y-161358000D03*
X447706000Y-146358000D03*
X444706000Y-173358000D03*
X459706000Y-176358000D03*
X474074000Y-161343000D03*
X453706000Y-140358000D03*
X444709000Y-80518000D03*
X441706000Y-116358000D03*
X450706000Y-137358000D03*
X471074000Y-140343000D03*
X450706000Y-188358000D03*
X465706000Y-107358000D03*
X441706000Y-149358000D03*
X444706000Y-140358000D03*
X465706000Y-110358000D03*
X459706000Y-110358000D03*
X441706000Y-212358000D03*
X459706000Y-155358000D03*
X441706000Y-164358000D03*
X462706000Y-194358000D03*
X474074000Y-182343000D03*
X444706000Y-98358000D03*
X471074000Y-188343000D03*
X444706000Y-206358000D03*
X459706000Y-170358000D03*
X465706000Y-122358000D03*
X456800000Y-83500000D03*
X447775207Y-76103988D03*
X450706000Y-212358000D03*
X450706000Y-110358000D03*
X468074000Y-146343000D03*
X441706000Y-92358000D03*
X441706000Y-86358000D03*
X447706000Y-149358000D03*
X459706000Y-191358000D03*
X456706000Y-107358000D03*
X441706000Y-161358000D03*
X474775207Y-76403988D03*
X465706000Y-119358000D03*
X447800000Y-80500000D03*
X465706000Y-197358000D03*
X447706000Y-107358000D03*
X465600000Y-101400000D03*
X474074000Y-197343000D03*
X447706000Y-122358000D03*
X459706000Y-119358000D03*
X444706000Y-191358000D03*
X471074000Y-98343000D03*
X453706000Y-194358000D03*
X447706000Y-110358000D03*
X441706000Y-101358000D03*
X447706000Y-185358000D03*
X468074000Y-92343000D03*
X456706000Y-140358000D03*
X474775207Y-70403988D03*
X447706000Y-137358000D03*
X453706000Y-119358000D03*
X444706000Y-107358000D03*
X441802000Y-67200000D03*
X450706000Y-128358000D03*
X465706000Y-206358000D03*
X453706000Y-158358000D03*
X465706000Y-104358000D03*
X450706000Y-92358000D03*
X444706000Y-131358000D03*
X450706000Y-179358000D03*
X471074000Y-185343000D03*
X444706000Y-203358000D03*
X441706000Y-113358000D03*
X456706000Y-170358000D03*
X474074000Y-173343000D03*
X462706000Y-92358000D03*
X453706000Y-86358000D03*
X465706000Y-167358000D03*
X463100000Y-188400000D03*
X468074000Y-143343000D03*
X462706000Y-107358000D03*
X474074000Y-149343000D03*
X444706000Y-95358000D03*
X459706000Y-179358000D03*
X471218000Y-89535000D03*
X456706000Y-206358000D03*
X468074000Y-101343000D03*
X468218000Y-83535000D03*
X447706000Y-212358000D03*
X444706000Y-119358000D03*
X447706000Y-167358000D03*
X447706000Y-143358000D03*
X465706000Y-194358000D03*
X456771000Y-92343000D03*
X456775207Y-81103988D03*
X441706000Y-107358000D03*
X459706000Y-89358000D03*
X459706000Y-104358000D03*
X453706000Y-203358000D03*
X444706000Y-110358000D03*
X453706000Y-149358000D03*
X465468000Y-191385000D03*
X462600000Y-101400000D03*
X456706000Y-137358000D03*
X459706000Y-98358000D03*
X456706000Y-197358000D03*
X456706000Y-152358000D03*
X471074000Y-149343000D03*
X474074000Y-176343000D03*
X465706000Y-137358000D03*
X474218000Y-89535000D03*
X447706000Y-152358000D03*
X456771000Y-95343000D03*
X447706000Y-194358000D03*
X459706000Y-128358000D03*
X465706000Y-149358000D03*
X456706000Y-113358000D03*
X450706000Y-119358000D03*
X456706000Y-182358000D03*
X73677000Y-193883000D03*
X82677000Y-109883000D03*
X85677000Y-76883000D03*
X85677000Y-142883000D03*
X56309000Y-94898000D03*
X67677000Y-178883000D03*
X85677000Y-100883000D03*
X82677000Y-145883000D03*
X59309000Y-184898000D03*
X67677000Y-157883000D03*
X70677000Y-106883000D03*
X64677000Y-124883000D03*
X64800000Y-103900000D03*
X56309000Y-75103988D03*
X82677000Y-151883000D03*
X85677000Y-151883000D03*
X61677000Y-85883000D03*
X59275207Y-69603988D03*
X64677000Y-109883000D03*
X67612000Y-196898000D03*
X70677000Y-88883000D03*
X70677000Y-151883000D03*
X56309000Y-124898000D03*
X73677000Y-169883000D03*
X82677000Y-199883000D03*
X59309000Y-199898000D03*
X61677000Y-124883000D03*
X70677000Y-124883000D03*
X85677000Y-181883000D03*
X53309000Y-79898000D03*
X56309000Y-139898000D03*
X56309000Y-142898000D03*
X82598000Y-73787000D03*
X64677000Y-97883000D03*
X59309000Y-94898000D03*
X64677000Y-193883000D03*
X70677000Y-178883000D03*
X85677000Y-124883000D03*
X79677000Y-139883000D03*
X59309000Y-160898000D03*
X82677000Y-106883000D03*
X67677000Y-85883000D03*
X61677000Y-166883000D03*
X79677000Y-166883000D03*
X64677000Y-208883000D03*
X70677000Y-205883000D03*
X53309000Y-75203988D03*
X79677000Y-190883000D03*
X73677000Y-205883000D03*
X85677000Y-178883000D03*
X67677000Y-187883000D03*
X56309000Y-166898000D03*
X79677000Y-199883000D03*
X76677000Y-196883000D03*
X64677000Y-118883000D03*
X85677000Y-160883000D03*
X85677000Y-91883000D03*
X53309000Y-118898000D03*
X76677000Y-160883000D03*
X76677000Y-205883000D03*
X64677000Y-121883000D03*
X70677000Y-160883000D03*
X73677000Y-175883000D03*
X85677000Y-208883000D03*
X79677000Y-82883000D03*
X76677000Y-133883000D03*
X53309000Y-163898000D03*
X76677000Y-163883000D03*
X59309000Y-136898000D03*
X61677000Y-118883000D03*
X73677000Y-187883000D03*
X79677000Y-163883000D03*
X79677000Y-118883000D03*
X64677000Y-142883000D03*
X61677000Y-151883000D03*
X76677000Y-85883000D03*
X56309000Y-157898000D03*
X67677000Y-127883000D03*
X67677000Y-172883000D03*
X53309000Y-88898000D03*
X56309000Y-175898000D03*
X79677000Y-106883000D03*
X82677000Y-169883000D03*
X79677000Y-205883000D03*
X70866000Y-130858000D03*
X64677000Y-205883000D03*
X73677000Y-130883000D03*
X76677000Y-151883000D03*
X79677000Y-136883000D03*
X64677000Y-85883000D03*
X79677000Y-94883000D03*
X59309000Y-187898000D03*
X67677000Y-118883000D03*
X79677000Y-202883000D03*
X70677000Y-166883000D03*
X82677000Y-97883000D03*
X67677000Y-190883000D03*
X70677000Y-202883000D03*
X61677000Y-169883000D03*
X64677000Y-115883000D03*
X61600000Y-190900000D03*
X76677000Y-127883000D03*
X73677000Y-94883000D03*
X79677000Y-184883000D03*
X70677000Y-187883000D03*
X64677000Y-199883000D03*
X64677000Y-112883000D03*
X67677000Y-124883000D03*
X59309000Y-157898000D03*
X82677000Y-190883000D03*
X79677000Y-175883000D03*
X82677000Y-160883000D03*
X70677000Y-172883000D03*
X70677000Y-115883000D03*
X64677000Y-202883000D03*
X70677000Y-121883000D03*
X76677000Y-136883000D03*
X59309000Y-139898000D03*
X82677000Y-163883000D03*
X79677000Y-97883000D03*
X59309000Y-181898000D03*
X56309000Y-91898000D03*
X59309000Y-151898000D03*
X73677000Y-178883000D03*
X56309000Y-121898000D03*
X79677000Y-100883000D03*
X56309000Y-163898000D03*
X64677000Y-148883000D03*
X53309000Y-151898000D03*
X73677000Y-184883000D03*
X70677000Y-184883000D03*
X85598000Y-70787000D03*
X79677000Y-154883000D03*
X76677000Y-184883000D03*
X53309000Y-139898000D03*
X59309000Y-121898000D03*
X73677000Y-154883000D03*
X85677000Y-193883000D03*
X53309000Y-133898000D03*
X61677000Y-208883000D03*
X76677000Y-142883000D03*
X53309000Y-172898000D03*
X53309000Y-184898000D03*
X82677000Y-154883000D03*
X82677000Y-79883000D03*
X76677000Y-190883000D03*
X79677000Y-130883000D03*
X70677000Y-97883000D03*
X64677000Y-145883000D03*
X56309000Y-85898000D03*
X67677000Y-94883000D03*
X79677000Y-79883000D03*
X85677000Y-184883000D03*
X85677000Y-112883000D03*
X79677000Y-151883000D03*
X59309000Y-190898000D03*
X61677000Y-136883000D03*
X67677000Y-169883000D03*
X67677000Y-166883000D03*
X76677000Y-100883000D03*
X73677000Y-85883000D03*
X53309000Y-97898000D03*
X56309000Y-151898000D03*
X70677000Y-145883000D03*
X82677000Y-118883000D03*
X76677000Y-94883000D03*
X85677000Y-106883000D03*
X64677000Y-169883000D03*
X76677000Y-91883000D03*
X85677000Y-139883000D03*
X53309000Y-94898000D03*
X70677000Y-154883000D03*
X56309000Y-88898000D03*
X79677000Y-196883000D03*
X53309000Y-193898000D03*
X59309000Y-154898000D03*
X59309000Y-112898000D03*
X79677000Y-127883000D03*
X73677000Y-181883000D03*
X67677000Y-160883000D03*
X64677000Y-160883000D03*
X85677000Y-88883000D03*
X82677000Y-115883000D03*
X82677000Y-205883000D03*
X85677000Y-172883000D03*
X67677000Y-151883000D03*
X79677000Y-178883000D03*
X82677000Y-196883000D03*
X56309000Y-67898000D03*
X82677000Y-124883000D03*
X85677000Y-109883000D03*
X85677000Y-205883000D03*
X79677000Y-112883000D03*
X56309000Y-172898000D03*
X85677000Y-127883000D03*
X70866000Y-133858000D03*
X64677000Y-178883000D03*
X67677000Y-121883000D03*
X79677000Y-88883000D03*
X85677000Y-169883000D03*
X76677000Y-139883000D03*
X82677000Y-112883000D03*
X56309000Y-76898000D03*
X56309000Y-97898000D03*
X67677000Y-175883000D03*
X82677000Y-187883000D03*
X76677000Y-169883000D03*
X59309000Y-127898000D03*
X67677000Y-163883000D03*
X70677000Y-118883000D03*
X61677000Y-154883000D03*
X82677000Y-121883000D03*
X53309000Y-115898000D03*
X82677000Y-103883000D03*
X61677000Y-196883000D03*
X59309000Y-178898000D03*
X70677000Y-208883000D03*
X70677000Y-82883000D03*
X53309000Y-160898000D03*
X76677000Y-193883000D03*
X67677000Y-103883000D03*
X73677000Y-160883000D03*
X76677000Y-208883000D03*
X53309000Y-82898000D03*
X59309000Y-193898000D03*
X70677000Y-103883000D03*
X70677000Y-175883000D03*
X76677000Y-154883000D03*
X70677000Y-109883000D03*
X79677000Y-193883000D03*
X73677000Y-115883000D03*
X76677000Y-157883000D03*
X70677000Y-91883000D03*
X61677000Y-82883000D03*
X85677000Y-199883000D03*
X82677000Y-148883000D03*
X85677000Y-154883000D03*
X53309000Y-175898000D03*
X85677000Y-133883000D03*
X70677000Y-85883000D03*
X82677000Y-91883000D03*
X59309000Y-67898000D03*
X67677000Y-139883000D03*
X59309000Y-130898000D03*
X61677000Y-112883000D03*
X85677000Y-166883000D03*
X73677000Y-172883000D03*
X67677000Y-205883000D03*
X73677000Y-139883000D03*
X56309000Y-193898000D03*
X59309000Y-91898000D03*
X53309000Y-121898000D03*
X79598000Y-67787000D03*
X79677000Y-109883000D03*
X67677000Y-91883000D03*
X70677000Y-148883000D03*
X64677000Y-196883000D03*
X85677000Y-97883000D03*
X70612000Y-199898000D03*
X67677000Y-100883000D03*
X82677000Y-142883000D03*
X56309000Y-145898000D03*
X59309000Y-115898000D03*
X56309000Y-154898000D03*
X79677000Y-115883000D03*
X59309000Y-166898000D03*
X53309000Y-196898000D03*
X61677000Y-91883000D03*
X76677000Y-130883000D03*
X76677000Y-202883000D03*
X85677000Y-145883000D03*
X70677000Y-163883000D03*
X85677000Y-115883000D03*
X73677000Y-127883000D03*
X56309000Y-181898000D03*
X64677000Y-163883000D03*
X61677000Y-205883000D03*
X73677000Y-208883000D03*
X73677000Y-109883000D03*
X82598000Y-67787000D03*
X85677000Y-196883000D03*
X73677000Y-142883000D03*
X61677000Y-103883000D03*
X73677000Y-133883000D03*
X67677000Y-88883000D03*
X53309000Y-199898000D03*
X79677000Y-187883000D03*
X76677000Y-121883000D03*
X64700000Y-100900000D03*
X82677000Y-157883000D03*
X59309000Y-82898000D03*
X53309000Y-124898000D03*
X76677000Y-187883000D03*
X79677000Y-133883000D03*
X85677000Y-190883000D03*
X85677000Y-130883000D03*
X85677000Y-163883000D03*
X61677000Y-160883000D03*
X73677000Y-145883000D03*
X76677000Y-103883000D03*
X64700000Y-140000000D03*
X70677000Y-193883000D03*
X56309000Y-130898000D03*
X76677000Y-145883000D03*
X82677000Y-133883000D03*
X59309000Y-75103988D03*
X82677000Y-127883000D03*
X73677000Y-196883000D03*
X53309000Y-127898000D03*
X79677000Y-208883000D03*
X53309000Y-166898000D03*
X73677000Y-199883000D03*
X67677000Y-115883000D03*
X67677000Y-106883000D03*
X56309000Y-127898000D03*
X67677000Y-208883000D03*
X76677000Y-166883000D03*
X85677000Y-136883000D03*
X82677000Y-136883000D03*
X59309000Y-172898000D03*
X53309000Y-130898000D03*
X56309000Y-178898000D03*
X61677000Y-109883000D03*
X59309000Y-76898000D03*
X53309000Y-76898000D03*
X56309000Y-133898000D03*
X53309000Y-136898000D03*
X59309000Y-97898000D03*
X82677000Y-94883000D03*
X79598000Y-70787000D03*
X70677000Y-112883000D03*
X53309000Y-190898000D03*
X61677000Y-193883000D03*
X53375207Y-69803988D03*
X76677000Y-82883000D03*
X67677000Y-109883000D03*
X73677000Y-157883000D03*
X67677000Y-112883000D03*
X85677000Y-187883000D03*
X73677000Y-91883000D03*
X61677000Y-121883000D03*
X61677000Y-145883000D03*
X67677000Y-142883000D03*
X79677000Y-172883000D03*
X56309000Y-136898000D03*
X61677000Y-115883000D03*
X73677000Y-121883000D03*
X70677000Y-190883000D03*
X73677000Y-166883000D03*
X56309000Y-82898000D03*
X82677000Y-82883000D03*
X59309000Y-145898000D03*
X64677000Y-175883000D03*
X73677000Y-97883000D03*
X70677000Y-157883000D03*
X73677000Y-151883000D03*
X56309000Y-118898000D03*
X67677000Y-136883000D03*
X64677000Y-151883000D03*
X85677000Y-103883000D03*
X79677000Y-145883000D03*
X73677000Y-88883000D03*
X70677000Y-127883000D03*
X67677000Y-202883000D03*
X67677000Y-145883000D03*
X82677000Y-166883000D03*
X70677000Y-100883000D03*
X64677000Y-88883000D03*
X85677000Y-82883000D03*
X73677000Y-202883000D03*
X67677000Y-154883000D03*
X76677000Y-88883000D03*
X59309000Y-169898000D03*
X82677000Y-100883000D03*
X79677000Y-169883000D03*
X85677000Y-118883000D03*
X59309000Y-196898000D03*
X59309000Y-79898000D03*
X56309000Y-148898000D03*
X70677000Y-136883000D03*
X53309000Y-181898000D03*
X61677000Y-163883000D03*
X76677000Y-118883000D03*
X79677000Y-181883000D03*
X61677000Y-187883000D03*
X82598000Y-70787000D03*
X56309000Y-196898000D03*
X73677000Y-82883000D03*
X76677000Y-109883000D03*
X79677000Y-103883000D03*
X59309000Y-118898000D03*
X53309000Y-187898000D03*
X64677000Y-91883000D03*
X70677000Y-94883000D03*
X82677000Y-175883000D03*
X61677000Y-97883000D03*
X67866000Y-130858000D03*
X70677000Y-139883000D03*
X79677000Y-157883000D03*
X85677000Y-148883000D03*
X56309000Y-199898000D03*
X64677000Y-94883000D03*
X73677000Y-112883000D03*
X59309000Y-175898000D03*
X61677000Y-202883000D03*
X73677000Y-163883000D03*
X61677000Y-148883000D03*
X82677000Y-139883000D03*
X53309000Y-157898000D03*
X67612000Y-199898000D03*
X61677000Y-172883000D03*
X76677000Y-199883000D03*
X67677000Y-193883000D03*
X56309000Y-160898000D03*
X79598000Y-73787000D03*
X85677000Y-79883000D03*
X56309000Y-169898000D03*
X53309000Y-91898000D03*
X61677000Y-94883000D03*
X61677000Y-175883000D03*
X59309000Y-85898000D03*
X82677000Y-178883000D03*
X82677000Y-202883000D03*
X61677000Y-178883000D03*
X64677000Y-191000000D03*
X53309000Y-148898000D03*
X59309000Y-163898000D03*
X64677000Y-154883000D03*
X56309000Y-184898000D03*
X82677000Y-172883000D03*
X56309000Y-115898000D03*
X56309000Y-69703988D03*
X56309000Y-187898000D03*
X67677000Y-82883000D03*
X85677000Y-157883000D03*
X79677000Y-76883000D03*
X73677000Y-136883000D03*
X64677000Y-106883000D03*
X82677000Y-130883000D03*
X53309000Y-145898000D03*
X79677000Y-91883000D03*
X82677000Y-76883000D03*
X76677000Y-97883000D03*
X59309000Y-124898000D03*
X82677000Y-88883000D03*
X76677000Y-175883000D03*
X85677000Y-202883000D03*
X61677000Y-142883000D03*
X85677000Y-85883000D03*
X59309000Y-133898000D03*
X79677000Y-160883000D03*
X61677000Y-199883000D03*
X82677000Y-193883000D03*
X85598000Y-73787000D03*
X79677000Y-121883000D03*
X76677000Y-178883000D03*
X56309000Y-79898000D03*
X73677000Y-106883000D03*
X61700000Y-100900000D03*
X64677000Y-82883000D03*
X61677000Y-127883000D03*
X73677000Y-103883000D03*
X79677000Y-85883000D03*
X76677000Y-106883000D03*
X59309000Y-88898000D03*
X64677000Y-172883000D03*
X70677000Y-181883000D03*
X59309000Y-142898000D03*
X53309000Y-178898000D03*
X73677000Y-190883000D03*
X79677000Y-142883000D03*
X76677000Y-148883000D03*
X53309000Y-85898000D03*
X82677000Y-208883000D03*
X82677000Y-181883000D03*
X59309000Y-100898000D03*
X85598000Y-67787000D03*
X76677000Y-181883000D03*
X64677000Y-127883000D03*
X73677000Y-100883000D03*
X67677000Y-97883000D03*
X70612000Y-196898000D03*
X85677000Y-94883000D03*
X73677000Y-118883000D03*
X61600000Y-140000000D03*
X61677000Y-88883000D03*
X64677000Y-166883000D03*
X73677000Y-148883000D03*
X82677000Y-184883000D03*
X76677000Y-112883000D03*
X61677000Y-106883000D03*
X76677000Y-124883000D03*
X79677000Y-148883000D03*
X70677000Y-142883000D03*
X53309000Y-154898000D03*
X70677000Y-169883000D03*
X73677000Y-124883000D03*
X53309000Y-142898000D03*
X82677000Y-85883000D03*
X59309000Y-148898000D03*
X79677000Y-124883000D03*
X85677000Y-121883000D03*
X53309000Y-169898000D03*
X67677000Y-148883000D03*
X56309000Y-190898000D03*
X85677000Y-175883000D03*
X76677000Y-115883000D03*
X76677000Y-172883000D03*
D10*
X93600000Y-79800000D02*
X93200000Y-79400000D01*
X93600000Y-79800000D02*
X94000000Y-79400000D01*
X93600000Y-80062500D02*
X93600000Y-79800000D01*
X296436373Y-76656373D02*
X277000000Y-57220000D01*
X317020000Y-86510000D02*
X317020000Y-150670000D01*
X277000000Y-57220000D02*
X277000000Y-49000000D01*
X313503873Y-76656373D02*
X296436373Y-76656373D01*
X317020000Y-80172500D02*
X313503873Y-76656373D01*
X316632500Y-79785000D02*
X317020000Y-80172500D01*
X232136814Y-79020000D02*
X266836814Y-44320000D01*
X210240000Y-150490000D02*
X210420000Y-150670000D01*
X210240000Y-80172500D02*
X211392500Y-79020000D01*
X211392500Y-79020000D02*
X232136814Y-79020000D01*
X210240000Y-86510000D02*
X210240000Y-150490000D01*
X270320000Y-44320000D02*
X273000000Y-47000000D01*
X266836814Y-44320000D02*
X270320000Y-44320000D01*
X380970000Y-86510000D02*
X380970000Y-150670000D01*
X296933431Y-75456373D02*
X283000000Y-61522942D01*
X283000000Y-61522942D02*
X283000000Y-49000000D01*
X380970000Y-80172500D02*
X376253873Y-75456373D01*
X376253873Y-75456373D02*
X296933431Y-75456373D01*
X423570000Y-151892000D02*
X423570000Y-102720000D01*
X401843873Y-74656373D02*
X297264803Y-74656373D01*
X423620000Y-150620000D02*
X423570000Y-150670000D01*
X423570000Y-102720000D02*
X407200000Y-86350000D01*
X287000000Y-64391570D02*
X287000000Y-49000000D01*
X297264803Y-74656373D02*
X287000000Y-64391570D01*
X407200000Y-80012500D02*
X401843873Y-74656373D01*
X359610000Y-150610000D02*
X359670000Y-150670000D01*
X281000000Y-60088628D02*
X281000000Y-49000000D01*
X359610000Y-80182500D02*
X355283873Y-75856373D01*
X355283873Y-75856373D02*
X296767745Y-75856373D01*
X296767745Y-75856373D02*
X281000000Y-60088628D01*
X359610000Y-86520000D02*
X359610000Y-150610000D01*
X334353873Y-76256373D02*
X338360000Y-80262500D01*
X338360000Y-150660000D02*
X338370000Y-150670000D01*
X279000000Y-49000000D02*
X279000000Y-58654314D01*
X296602059Y-76256373D02*
X334353873Y-76256373D01*
X338360000Y-86500000D02*
X338360000Y-150660000D01*
X279000000Y-58654314D02*
X296602059Y-76256373D01*
X280412500Y-80192500D02*
X295540000Y-80192500D01*
X273400000Y-73180000D02*
X280412500Y-80192500D01*
X273400000Y-50600000D02*
X273400000Y-73180000D01*
X295540000Y-150590000D02*
X295620000Y-150670000D01*
X295540000Y-86530000D02*
X295540000Y-150590000D01*
X275000000Y-49000000D02*
X273400000Y-50600000D01*
X265157500Y-80172500D02*
X252820000Y-80172500D01*
X252820000Y-150520000D02*
X252970000Y-150670000D01*
X272600000Y-50600000D02*
X272600000Y-72730000D01*
X272600000Y-72730000D02*
X265157500Y-80172500D01*
X271000000Y-49000000D02*
X272600000Y-50600000D01*
X252820000Y-86510000D02*
X252820000Y-150520000D01*
D22*
X289000000Y-49828781D02*
X289000000Y-49000000D01*
X428639598Y-77839597D02*
X428639598Y-77839598D01*
X441660012Y-86403988D02*
X441706000Y-86358000D01*
D23*
X422803989Y-72003988D02*
X298375207Y-72003988D01*
D10*
X440640000Y-85340000D02*
X440660000Y-85360000D01*
D23*
X428639598Y-77839597D02*
X422803989Y-72003988D01*
X298375207Y-72003988D02*
X290175207Y-63803988D01*
D22*
X431916488Y-87403988D02*
X430800000Y-86287500D01*
X290175207Y-51003988D02*
X289000000Y-49828781D01*
D23*
X290175207Y-63803988D02*
X290175207Y-51003988D01*
D24*
X433475207Y-87403988D02*
X440660012Y-87403988D01*
D22*
X440660012Y-87403988D02*
X441706000Y-86358000D01*
X433475207Y-87403988D02*
X431916488Y-87403988D01*
D25*
X428639598Y-77839598D02*
X430800000Y-80000000D01*
D10*
X274190000Y-86530000D02*
X274190000Y-150540000D01*
X273000000Y-49000000D02*
X273000000Y-79002500D01*
X274190000Y-150540000D02*
X274320000Y-150670000D01*
X273000000Y-79002500D02*
X274190000Y-80192500D01*
X271000000Y-47000000D02*
X268720000Y-44720000D01*
X268720000Y-44720000D02*
X267002500Y-44720000D01*
X267002500Y-44720000D02*
X231520000Y-80202500D01*
X231520000Y-86540000D02*
X231520000Y-150520000D01*
X231520000Y-150520000D02*
X231670000Y-150670000D01*
X402260000Y-86530000D02*
X402260000Y-150560000D01*
X285000000Y-62957256D02*
X285021372Y-62978628D01*
X402260000Y-150560000D02*
X402270000Y-150570000D01*
X285000000Y-49000000D02*
X285000000Y-62957256D01*
X397123873Y-75056373D02*
X297099117Y-75056373D01*
X297099117Y-75056373D02*
X285021372Y-62978628D01*
X402260000Y-80192500D02*
X397123873Y-75056373D01*
X189170000Y-86550000D02*
X189170000Y-150670000D01*
X266436814Y-44154315D02*
X234491129Y-76100000D01*
X193282500Y-76100000D02*
X189170000Y-80212500D01*
X271166630Y-43920000D02*
X266671128Y-43920000D01*
X266671128Y-43920000D02*
X266436814Y-44154315D01*
X274246630Y-47000000D02*
X271166630Y-43920000D01*
X234491129Y-76100000D02*
X193282500Y-76100000D01*
X275000000Y-47000000D02*
X274246630Y-47000000D01*
X103810000Y-150670000D02*
X103810000Y-99290000D01*
X278320000Y-42320000D02*
X283000000Y-47000000D01*
X103810000Y-99290000D02*
X116700000Y-86400000D01*
X266008386Y-42320000D02*
X278320000Y-42320000D01*
X122412500Y-74500000D02*
X233828386Y-74500000D01*
X233828386Y-74500000D02*
X266008386Y-42320000D01*
X103910000Y-150610000D02*
X103970000Y-150670000D01*
X116700000Y-80212500D02*
X122412500Y-74500000D01*
X280246630Y-47000000D02*
X275966630Y-42720000D01*
X125230000Y-86520000D02*
X125230000Y-150660000D01*
X281000000Y-47000000D02*
X280246630Y-47000000D01*
X125230000Y-150660000D02*
X125220000Y-150670000D01*
X130662500Y-74900000D02*
X125230000Y-80332500D01*
X266174071Y-42720000D02*
X265939757Y-42954315D01*
X265939757Y-42954315D02*
X233994072Y-74900000D01*
X233994072Y-74900000D02*
X130662500Y-74900000D01*
X275966630Y-42720000D02*
X266174071Y-42720000D01*
X266339757Y-43120000D02*
X275120000Y-43120000D01*
X146590000Y-150618000D02*
X146642000Y-150670000D01*
X146590000Y-80172500D02*
X151462500Y-75300000D01*
X146590000Y-86510000D02*
X146590000Y-150618000D01*
X151462500Y-75300000D02*
X234159757Y-75300000D01*
X275120000Y-43120000D02*
X279000000Y-47000000D01*
X234159757Y-75300000D02*
X266339757Y-43120000D01*
X266505443Y-43520000D02*
X273520000Y-43520000D01*
X168090000Y-86550000D02*
X168090000Y-150500000D01*
X168090000Y-150500000D02*
X167920000Y-150670000D01*
X273520000Y-43520000D02*
X277000000Y-47000000D01*
X172602500Y-75700000D02*
X234325443Y-75700000D01*
X234325443Y-75700000D02*
X266505443Y-43520000D01*
X168090000Y-80212500D02*
X172602500Y-75700000D01*
X116700000Y-85100000D02*
X116700000Y-82087500D01*
X125230000Y-85220000D02*
X125230000Y-82207500D01*
X146590000Y-82047500D02*
X146590000Y-85210000D01*
X168090000Y-85250000D02*
X168090000Y-82087500D01*
X252820000Y-85210000D02*
X252820000Y-82047500D01*
X231520000Y-82077500D02*
X231520000Y-85240000D01*
X210240000Y-85210000D02*
X210240000Y-82047500D01*
X189170000Y-85250000D02*
X189170000Y-82087500D01*
X338360000Y-85200000D02*
X338360000Y-82137500D01*
X317020000Y-85210000D02*
X317020000Y-82047500D01*
X295540000Y-82067500D02*
X295540000Y-85230000D01*
X274190000Y-82067500D02*
X274190000Y-85230000D01*
X407200000Y-85050000D02*
X407200000Y-81887500D01*
X402260000Y-85230000D02*
X402260000Y-82067500D01*
X380970000Y-85210000D02*
X380970000Y-82047500D01*
X359610000Y-82057500D02*
X359610000Y-85220000D01*
D22*
X430800000Y-84987500D02*
X430800000Y-81875000D01*
X93600000Y-85150000D02*
X93600000Y-81937500D01*
X93600000Y-86450000D02*
X86244000Y-86450000D01*
X86244000Y-86450000D02*
X85677000Y-85883000D01*
G04 #@! TA.AperFunction,Conductor*
G36*
X444057023Y-59462638D02*
G01*
X444123930Y-59482753D01*
X444125092Y-59483520D01*
X444395040Y-59663893D01*
X444713530Y-59834129D01*
X444861077Y-59895244D01*
X445047167Y-59972325D01*
X445047171Y-59972326D01*
X445047173Y-59972327D01*
X445392755Y-60077158D01*
X445746949Y-60147610D01*
X446106342Y-60183007D01*
X446286908Y-60183006D01*
X446352800Y-60183006D01*
X476193014Y-60183006D01*
X476255425Y-60183006D01*
X476262378Y-60183201D01*
X476551410Y-60199433D01*
X476565211Y-60200988D01*
X476792915Y-60239676D01*
X476847168Y-60248895D01*
X476860725Y-60251989D01*
X476907479Y-60265458D01*
X477135560Y-60331169D01*
X477148657Y-60335752D01*
X477412897Y-60445204D01*
X477425411Y-60451230D01*
X477675731Y-60589578D01*
X477687504Y-60596976D01*
X477920744Y-60762469D01*
X477931604Y-60771129D01*
X478144864Y-60961710D01*
X478154695Y-60971541D01*
X478345273Y-61184798D01*
X478353931Y-61195656D01*
X478436684Y-61312286D01*
X478519432Y-61428909D01*
X478526830Y-61440683D01*
X478665171Y-61690994D01*
X478671204Y-61703523D01*
X478780645Y-61967739D01*
X478785238Y-61980863D01*
X478864412Y-62255682D01*
X478867506Y-62269239D01*
X478915411Y-62551191D01*
X478916968Y-62565009D01*
X478933212Y-62854267D01*
X478933407Y-62861220D01*
X478933407Y-94947575D01*
X478933311Y-94952443D01*
X478915566Y-95404079D01*
X478914802Y-95413786D01*
X478861962Y-95860225D01*
X478860439Y-95869841D01*
X478772735Y-96310759D01*
X478770462Y-96320227D01*
X478648436Y-96752898D01*
X478645428Y-96762158D01*
X478489825Y-97183938D01*
X478486099Y-97192932D01*
X478297890Y-97601192D01*
X478293469Y-97609868D01*
X478073802Y-98002110D01*
X478068715Y-98010412D01*
X477818958Y-98384201D01*
X477813235Y-98392078D01*
X477534916Y-98745125D01*
X477528593Y-98752528D01*
X477223435Y-99082646D01*
X477216550Y-99089531D01*
X476886433Y-99394689D01*
X476879030Y-99401012D01*
X476525983Y-99679331D01*
X476518106Y-99685054D01*
X476144309Y-99934818D01*
X476136007Y-99939905D01*
X475743784Y-100159561D01*
X475735109Y-100163982D01*
X475326839Y-100352197D01*
X475317844Y-100355923D01*
X474896064Y-100511526D01*
X474886804Y-100514534D01*
X474454134Y-100636560D01*
X474444666Y-100638833D01*
X474003747Y-100726538D01*
X473994131Y-100728061D01*
X473547691Y-100780901D01*
X473537985Y-100781665D01*
X473130958Y-100797658D01*
X473086526Y-100799404D01*
X473081659Y-100799500D01*
X472827558Y-100799500D01*
X472316357Y-100837809D01*
X471809420Y-100914218D01*
X471309634Y-101028290D01*
X471309605Y-101028298D01*
X470819758Y-101179395D01*
X470819738Y-101179402D01*
X470342553Y-101366683D01*
X470342533Y-101366691D01*
X470342528Y-101366694D01*
X470342517Y-101366699D01*
X470342511Y-101366702D01*
X469880644Y-101589124D01*
X469436673Y-101845450D01*
X469161329Y-102033176D01*
X469061068Y-102101534D01*
X469013091Y-102134244D01*
X468612274Y-102453883D01*
X468236484Y-102802565D01*
X467887782Y-103178375D01*
X467568152Y-103579178D01*
X467279354Y-104002767D01*
X467023031Y-104446730D01*
X467023029Y-104446733D01*
X466800605Y-104908604D01*
X466800586Y-104908646D01*
X466613308Y-105385820D01*
X466462198Y-105875705D01*
X466462194Y-105875720D01*
X466348119Y-106375515D01*
X466271710Y-106882448D01*
X466233400Y-107393652D01*
X466233400Y-107906347D01*
X466271710Y-108417551D01*
X466348119Y-108924484D01*
X466462194Y-109424279D01*
X466462198Y-109424294D01*
X466613308Y-109914179D01*
X466800586Y-110391353D01*
X466800592Y-110391366D01*
X466800597Y-110391379D01*
X466800605Y-110391395D01*
X467023029Y-110853266D01*
X467023031Y-110853269D01*
X467265617Y-111273439D01*
X467279358Y-111297239D01*
X467555383Y-111702093D01*
X467568152Y-111720821D01*
X467887782Y-112121624D01*
X468236484Y-112497434D01*
X468612274Y-112846116D01*
X468612277Y-112846119D01*
X468612281Y-112846122D01*
X469013092Y-113165757D01*
X469436668Y-113454546D01*
X469436671Y-113454548D01*
X469436673Y-113454549D01*
X469880644Y-113710875D01*
X469960944Y-113749545D01*
X470342528Y-113933306D01*
X470342549Y-113933314D01*
X470342553Y-113933316D01*
X470633668Y-114047570D01*
X470819746Y-114120600D01*
X470819750Y-114120601D01*
X470819758Y-114120604D01*
X471309605Y-114271701D01*
X471309610Y-114271702D01*
X471309625Y-114271707D01*
X471809428Y-114385783D01*
X472316358Y-114462190D01*
X472316354Y-114462190D01*
X472827558Y-114500499D01*
X472827577Y-114500499D01*
X472827580Y-114500500D01*
X473018014Y-114500500D01*
X473081481Y-114500500D01*
X473086349Y-114500596D01*
X473538001Y-114518342D01*
X473547675Y-114519103D01*
X473994136Y-114571946D01*
X474003740Y-114573467D01*
X474444668Y-114661173D01*
X474454128Y-114663444D01*
X474530481Y-114684978D01*
X474886801Y-114785472D01*
X474896061Y-114788480D01*
X475317841Y-114944083D01*
X475326836Y-114947809D01*
X475735105Y-115136023D01*
X475743776Y-115140442D01*
X476136012Y-115360105D01*
X476144296Y-115365182D01*
X476518102Y-115614950D01*
X476525979Y-115620673D01*
X476879024Y-115898993D01*
X476886427Y-115905316D01*
X477041631Y-116048785D01*
X477216552Y-116210480D01*
X477223430Y-116217358D01*
X477528588Y-116547476D01*
X477534911Y-116554880D01*
X477813229Y-116907926D01*
X477818952Y-116915802D01*
X478068716Y-117289600D01*
X478073803Y-117297902D01*
X478293458Y-117690124D01*
X478297879Y-117698799D01*
X478486095Y-118107072D01*
X478489821Y-118116068D01*
X478645420Y-118537840D01*
X478648428Y-118547099D01*
X478770455Y-118979773D01*
X478772728Y-118989241D01*
X478860432Y-119430159D01*
X478861955Y-119439775D01*
X478914795Y-119886214D01*
X478915559Y-119895921D01*
X478933311Y-120347751D01*
X478933407Y-120352619D01*
X478933407Y-205220786D01*
X478930662Y-205246732D01*
X478927182Y-205262995D01*
X478905960Y-205310325D01*
X478904054Y-205312927D01*
X478865314Y-205347443D01*
X478862516Y-205349034D01*
X478813025Y-205364679D01*
X478809814Y-205364986D01*
X478758303Y-205359019D01*
X478755253Y-205357988D01*
X478710672Y-205331464D01*
X478698826Y-205320485D01*
X478681164Y-205300120D01*
X478662176Y-205272692D01*
X478659989Y-205270154D01*
X478650971Y-205257322D01*
X478650968Y-205257319D01*
X478646359Y-205250761D01*
X478646182Y-205250541D01*
X478542636Y-205103235D01*
X478542627Y-205103224D01*
X478542623Y-205103218D01*
X478220225Y-204709996D01*
X478220216Y-204709986D01*
X477927558Y-204402657D01*
X477869540Y-204341730D01*
X477492526Y-204000478D01*
X477492525Y-204000477D01*
X477091265Y-203688121D01*
X477091255Y-203688114D01*
X477091252Y-203688112D01*
X476667927Y-203406352D01*
X476667915Y-203406344D01*
X476224886Y-203156752D01*
X476224867Y-203156742D01*
X475764543Y-202940671D01*
X475289477Y-202759322D01*
X474802244Y-202613678D01*
X474305593Y-202504563D01*
X474305583Y-202504561D01*
X474305573Y-202504559D01*
X473802177Y-202432556D01*
X473802171Y-202432555D01*
X473802167Y-202432555D01*
X473294847Y-202398068D01*
X473294828Y-202398068D01*
X473294827Y-202398068D01*
X472852644Y-202400864D01*
X472786314Y-202401284D01*
X472786308Y-202401284D01*
X472279453Y-202442186D01*
X472279450Y-202442186D01*
X472028222Y-202481369D01*
X471776999Y-202520552D01*
X471776996Y-202520552D01*
X471776994Y-202520553D01*
X471776989Y-202520554D01*
X471281751Y-202635945D01*
X471281730Y-202635951D01*
X470796412Y-202787735D01*
X470323646Y-202975092D01*
X469866088Y-203196970D01*
X469426240Y-203452156D01*
X469006523Y-203739240D01*
X469006515Y-203739246D01*
X468609230Y-204056658D01*
X468236556Y-204402657D01*
X467890569Y-204775318D01*
X467890557Y-204775332D01*
X467573145Y-205172617D01*
X467573139Y-205172625D01*
X467286055Y-205592341D01*
X467286048Y-205592352D01*
X467030870Y-206032190D01*
X466808991Y-206489748D01*
X466621634Y-206962514D01*
X466469850Y-207447831D01*
X466469844Y-207447852D01*
X466354453Y-207943091D01*
X466354452Y-207943096D01*
X466276086Y-208445552D01*
X466276086Y-208445555D01*
X466235184Y-208952410D01*
X466235184Y-208952416D01*
X466231968Y-209460943D01*
X466231968Y-209460956D01*
X466266455Y-209968268D01*
X466266456Y-209968278D01*
X466338458Y-210471667D01*
X466338463Y-210471695D01*
X466447578Y-210968346D01*
X466593222Y-211455577D01*
X466774574Y-211930648D01*
X466990642Y-212390968D01*
X466990646Y-212390975D01*
X467240249Y-212834022D01*
X467240253Y-212834028D01*
X467522013Y-213257354D01*
X467522018Y-213257361D01*
X467522023Y-213257368D01*
X467834378Y-213658626D01*
X467834379Y-213658627D01*
X468175631Y-214035641D01*
X468215864Y-214073953D01*
X468543886Y-214386316D01*
X468937142Y-214708743D01*
X468937144Y-214708745D01*
X469084386Y-214812244D01*
X469084491Y-214812328D01*
X469091227Y-214817061D01*
X469091228Y-214817063D01*
X469115076Y-214833822D01*
X469134409Y-214847409D01*
X469154051Y-214864564D01*
X469165360Y-214876766D01*
X469191897Y-214921375D01*
X469192928Y-214924427D01*
X469198887Y-214975914D01*
X469198580Y-214979125D01*
X469182928Y-215028628D01*
X469181336Y-215031427D01*
X469146838Y-215070147D01*
X469144238Y-215072052D01*
X469096899Y-215093282D01*
X469080670Y-215096755D01*
X469054722Y-215099500D01*
X440305116Y-215099500D01*
X440238077Y-215079815D01*
X440192322Y-215027011D01*
X440181116Y-214975702D01*
X440176230Y-211973450D01*
X440149827Y-195749267D01*
X440166440Y-195687071D01*
X440198613Y-195631344D01*
X440217427Y-195598760D01*
X440217429Y-195598754D01*
X440217435Y-195598745D01*
X440347058Y-195307604D01*
X440445539Y-195004508D01*
X440511797Y-194692779D01*
X440545108Y-194375832D01*
X440545107Y-194216486D01*
X440545107Y-194150594D01*
X440545107Y-183850000D01*
X459211689Y-183850000D01*
X459231549Y-184241618D01*
X459290927Y-184629215D01*
X459389216Y-185008833D01*
X459525397Y-185376530D01*
X459525403Y-185376543D01*
X459698088Y-185728587D01*
X459698089Y-185728588D01*
X459905508Y-186061361D01*
X459905510Y-186061364D01*
X459905511Y-186061365D01*
X460114350Y-186331163D01*
X460145529Y-186371442D01*
X460415688Y-186655650D01*
X460593815Y-186808567D01*
X460713211Y-186911066D01*
X460713214Y-186911068D01*
X461035054Y-187135075D01*
X461377905Y-187325373D01*
X461738249Y-187480008D01*
X461738252Y-187480009D01*
X461738257Y-187480011D01*
X462112378Y-187597393D01*
X462112381Y-187597393D01*
X462112389Y-187597396D01*
X462496485Y-187676329D01*
X462808573Y-187708065D01*
X462886595Y-187716000D01*
X462886596Y-187716000D01*
X463278719Y-187716000D01*
X463343736Y-187709388D01*
X463668829Y-187676329D01*
X464052925Y-187597396D01*
X464052935Y-187597393D01*
X464427056Y-187480011D01*
X464427057Y-187480010D01*
X464427065Y-187480008D01*
X464787409Y-187325373D01*
X465130260Y-187135075D01*
X465452100Y-186911068D01*
X465749626Y-186655650D01*
X466019785Y-186371442D01*
X466259806Y-186061361D01*
X466467225Y-185728588D01*
X466639913Y-185376539D01*
X466776100Y-185008825D01*
X466874386Y-184629220D01*
X466933764Y-184241619D01*
X466953625Y-183850000D01*
X466933764Y-183458381D01*
X466874386Y-183070780D01*
X466776100Y-182691175D01*
X466639913Y-182323461D01*
X466467225Y-181971412D01*
X466259806Y-181638639D01*
X466179799Y-181535278D01*
X466019793Y-181328568D01*
X466019791Y-181328566D01*
X466019785Y-181328558D01*
X465749626Y-181044350D01*
X465600863Y-180916641D01*
X465452102Y-180788933D01*
X465130260Y-180564925D01*
X465130255Y-180564922D01*
X464787408Y-180374626D01*
X464427056Y-180219988D01*
X464052935Y-180102606D01*
X464052929Y-180102605D01*
X464052926Y-180102604D01*
X464052925Y-180102604D01*
X463668829Y-180023671D01*
X463668828Y-180023670D01*
X463668824Y-180023670D01*
X463278719Y-179984000D01*
X463278718Y-179984000D01*
X462886596Y-179984000D01*
X462886595Y-179984000D01*
X462496489Y-180023670D01*
X462112384Y-180102605D01*
X462112378Y-180102606D01*
X461738257Y-180219988D01*
X461377905Y-180374626D01*
X461035058Y-180564922D01*
X461035053Y-180564925D01*
X460713211Y-180788933D01*
X460415689Y-181044349D01*
X460415688Y-181044350D01*
X460145529Y-181328558D01*
X460145526Y-181328560D01*
X460145520Y-181328568D01*
X459905511Y-181638634D01*
X459698088Y-181971412D01*
X459525403Y-182323456D01*
X459525397Y-182323469D01*
X459389216Y-182691166D01*
X459290927Y-183070784D01*
X459231549Y-183458381D01*
X459211689Y-183850000D01*
X440545107Y-183850000D01*
X440545107Y-174452381D01*
X440545108Y-174452378D01*
X440545107Y-174437854D01*
X440545112Y-174437839D01*
X440545112Y-174227143D01*
X440533880Y-174120282D01*
X440511798Y-173910194D01*
X440445537Y-173598467D01*
X440347055Y-173295374D01*
X440217431Y-173004235D01*
X440129077Y-172851203D01*
X440112464Y-172789405D01*
X440103814Y-167473970D01*
X440120426Y-167411770D01*
X440217435Y-167243745D01*
X440347058Y-166952604D01*
X440445539Y-166649508D01*
X440511797Y-166337779D01*
X440545108Y-166020832D01*
X440545107Y-165861486D01*
X440545107Y-165795594D01*
X440545107Y-158450000D01*
X460989778Y-158450000D01*
X461009270Y-158734980D01*
X461009271Y-158734981D01*
X461067384Y-159014640D01*
X461067389Y-159014657D01*
X461163044Y-159283803D01*
X461291837Y-159532363D01*
X461294461Y-159537426D01*
X461387116Y-159668690D01*
X461459188Y-159770793D01*
X461654148Y-159979543D01*
X461654151Y-159979546D01*
X461654156Y-159979551D01*
X461875735Y-160159819D01*
X461875737Y-160159820D01*
X461875738Y-160159821D01*
X462119798Y-160308237D01*
X462298734Y-160385960D01*
X462381794Y-160422038D01*
X462656848Y-160499105D01*
X462905638Y-160533299D01*
X462939833Y-160538000D01*
X462939834Y-160538000D01*
X463225481Y-160538000D01*
X463255989Y-160533806D01*
X463508466Y-160499105D01*
X463783520Y-160422038D01*
X464045517Y-160308236D01*
X464289579Y-160159819D01*
X464511158Y-159979551D01*
X464706127Y-159770791D01*
X464870853Y-159537426D01*
X465002269Y-159283805D01*
X465097926Y-159014652D01*
X465097927Y-159014645D01*
X465097929Y-159014640D01*
X465120589Y-158905590D01*
X465156043Y-158734980D01*
X465175536Y-158450000D01*
X465156043Y-158165020D01*
X465129889Y-158039161D01*
X465097929Y-157885359D01*
X465097924Y-157885342D01*
X465002269Y-157616196D01*
X465002269Y-157616195D01*
X464870853Y-157362574D01*
X464706127Y-157129209D01*
X464706125Y-157129206D01*
X464511165Y-156920456D01*
X464511161Y-156920452D01*
X464511158Y-156920449D01*
X464289579Y-156740181D01*
X464289577Y-156740180D01*
X464289575Y-156740178D01*
X464045515Y-156591762D01*
X463783523Y-156477963D01*
X463783521Y-156477962D01*
X463783520Y-156477962D01*
X463705267Y-156456036D01*
X463508471Y-156400896D01*
X463508467Y-156400895D01*
X463508466Y-156400895D01*
X463366973Y-156381447D01*
X463225481Y-156362000D01*
X463225480Y-156362000D01*
X462939834Y-156362000D01*
X462939833Y-156362000D01*
X462656848Y-156400895D01*
X462656842Y-156400896D01*
X462381790Y-156477963D01*
X462119798Y-156591762D01*
X461875738Y-156740178D01*
X461654162Y-156920443D01*
X461654148Y-156920456D01*
X461459188Y-157129206D01*
X461294458Y-157362578D01*
X461163044Y-157616196D01*
X461067389Y-157885342D01*
X461067384Y-157885359D01*
X461009271Y-158165018D01*
X461009270Y-158165019D01*
X460989778Y-158450000D01*
X440545107Y-158450000D01*
X440545107Y-133050000D01*
X459211689Y-133050000D01*
X459231549Y-133441618D01*
X459290927Y-133829215D01*
X459389216Y-134208833D01*
X459525397Y-134576530D01*
X459525403Y-134576543D01*
X459698088Y-134928587D01*
X459698089Y-134928588D01*
X459905508Y-135261361D01*
X459905510Y-135261364D01*
X459905511Y-135261365D01*
X460114350Y-135531163D01*
X460145529Y-135571442D01*
X460415688Y-135855650D01*
X460593815Y-136008567D01*
X460713211Y-136111066D01*
X460713214Y-136111068D01*
X461035054Y-136335075D01*
X461377905Y-136525373D01*
X461738249Y-136680008D01*
X461738252Y-136680009D01*
X461738257Y-136680011D01*
X462112378Y-136797393D01*
X462112381Y-136797393D01*
X462112389Y-136797396D01*
X462496485Y-136876329D01*
X462808573Y-136908065D01*
X462886595Y-136916000D01*
X462886596Y-136916000D01*
X463278719Y-136916000D01*
X463343736Y-136909388D01*
X463668829Y-136876329D01*
X464052925Y-136797396D01*
X464052935Y-136797393D01*
X464427056Y-136680011D01*
X464427057Y-136680010D01*
X464427065Y-136680008D01*
X464787409Y-136525373D01*
X465130260Y-136335075D01*
X465452100Y-136111068D01*
X465749626Y-135855650D01*
X466019785Y-135571442D01*
X466259806Y-135261361D01*
X466467225Y-134928588D01*
X466639913Y-134576539D01*
X466776100Y-134208825D01*
X466874386Y-133829220D01*
X466933764Y-133441619D01*
X466953625Y-133050000D01*
X466933764Y-132658381D01*
X466874386Y-132270780D01*
X466776100Y-131891175D01*
X466639913Y-131523461D01*
X466467225Y-131171412D01*
X466259806Y-130838639D01*
X466179799Y-130735278D01*
X466019793Y-130528568D01*
X466019791Y-130528566D01*
X466019785Y-130528558D01*
X465749626Y-130244350D01*
X465600863Y-130116641D01*
X465452102Y-129988933D01*
X465130260Y-129764925D01*
X465130255Y-129764922D01*
X464787408Y-129574626D01*
X464427056Y-129419988D01*
X464052935Y-129302606D01*
X464052929Y-129302605D01*
X464052926Y-129302604D01*
X464052925Y-129302604D01*
X463668829Y-129223671D01*
X463668828Y-129223670D01*
X463668824Y-129223670D01*
X463278719Y-129184000D01*
X463278718Y-129184000D01*
X462886596Y-129184000D01*
X462886595Y-129184000D01*
X462496489Y-129223670D01*
X462112384Y-129302605D01*
X462112378Y-129302606D01*
X461738257Y-129419988D01*
X461377905Y-129574626D01*
X461035058Y-129764922D01*
X461035053Y-129764925D01*
X460713211Y-129988933D01*
X460415689Y-130244349D01*
X460415688Y-130244350D01*
X460145529Y-130528558D01*
X460145526Y-130528560D01*
X460145520Y-130528568D01*
X459905511Y-130838634D01*
X459698088Y-131171412D01*
X459525403Y-131523456D01*
X459525397Y-131523469D01*
X459389216Y-131891166D01*
X459290927Y-132270784D01*
X459231549Y-132658381D01*
X459211689Y-133050000D01*
X440545107Y-133050000D01*
X440545107Y-120722381D01*
X440545108Y-120722378D01*
X440545107Y-120707854D01*
X440545112Y-120707839D01*
X440545112Y-120497143D01*
X440529921Y-120352619D01*
X440511798Y-120180194D01*
X440445537Y-119868467D01*
X440347055Y-119565374D01*
X440217431Y-119274235D01*
X440058084Y-118998241D01*
X440048469Y-118985007D01*
X440024989Y-118919203D01*
X440024788Y-118912365D01*
X440016610Y-113887319D01*
X440036185Y-113820252D01*
X440040256Y-113814286D01*
X440058090Y-113789741D01*
X440217435Y-113513745D01*
X440347058Y-113222604D01*
X440445539Y-112919508D01*
X440511797Y-112607779D01*
X440545108Y-112290832D01*
X440545107Y-112131486D01*
X440545107Y-112065594D01*
X440545107Y-92367381D01*
X440545108Y-92367378D01*
X440545107Y-92352854D01*
X440545112Y-92352839D01*
X440545112Y-92142143D01*
X440533880Y-92035282D01*
X440511798Y-91825194D01*
X440445537Y-91513467D01*
X440347055Y-91210374D01*
X440217431Y-90919235D01*
X440058084Y-90643241D01*
X440058078Y-90643233D01*
X440058076Y-90643229D01*
X440032674Y-90608267D01*
X440002222Y-90566353D01*
X439978742Y-90500549D01*
X439978541Y-90493706D01*
X439945415Y-70137850D01*
X439928203Y-59561003D01*
X439947779Y-59493933D01*
X440000508Y-59448093D01*
X440053000Y-59436806D01*
X444057023Y-59462638D01*
G37*
G04 #@! TD.AperFunction*
G04 #@! TA.AperFunction,Conductor*
G36*
X87065039Y-59709685D02*
G01*
X87110794Y-59762489D01*
X87122000Y-59814000D01*
X87122000Y-214975500D01*
X87102315Y-215042539D01*
X87049511Y-215088294D01*
X86998000Y-215099500D01*
X58013113Y-215099500D01*
X57987176Y-215096756D01*
X57970907Y-215093276D01*
X57923579Y-215072056D01*
X57920981Y-215070153D01*
X57886470Y-215031423D01*
X57884878Y-215028624D01*
X57869229Y-214979150D01*
X57868922Y-214975947D01*
X57874890Y-214924396D01*
X57875922Y-214921344D01*
X57902446Y-214876771D01*
X57913756Y-214864569D01*
X57933394Y-214847417D01*
X57976580Y-214817069D01*
X57976581Y-214817067D01*
X57983213Y-214812407D01*
X57983454Y-214812212D01*
X58130672Y-214708729D01*
X58523915Y-214386312D01*
X58892175Y-214035632D01*
X59233427Y-213658618D01*
X59545791Y-213257344D01*
X59827550Y-212834019D01*
X60077153Y-212390972D01*
X60293226Y-211930641D01*
X60474581Y-211455560D01*
X60620220Y-210968341D01*
X60729340Y-210471667D01*
X60801343Y-209968271D01*
X60817542Y-209729959D01*
X60835829Y-209460948D01*
X60835829Y-209460934D01*
X60835830Y-209460922D01*
X60832614Y-208952413D01*
X60791710Y-208445541D01*
X60713346Y-207943096D01*
X60597951Y-207447842D01*
X60446160Y-206962505D01*
X60258810Y-206489756D01*
X60036930Y-206032195D01*
X60036929Y-206032193D01*
X60036926Y-206032187D01*
X59781741Y-205592340D01*
X59494657Y-205172624D01*
X59494651Y-205172616D01*
X59177239Y-204775331D01*
X59177237Y-204775329D01*
X59177234Y-204775325D01*
X59045543Y-204633482D01*
X58831241Y-204402657D01*
X58582620Y-204171832D01*
X58458574Y-204056665D01*
X58458570Y-204056661D01*
X58458567Y-204056659D01*
X58061282Y-203739247D01*
X58061274Y-203739241D01*
X57641558Y-203452157D01*
X57641547Y-203452150D01*
X57201710Y-203196972D01*
X56744152Y-202975094D01*
X56657291Y-202940671D01*
X56271393Y-202787739D01*
X56180532Y-202759322D01*
X55786070Y-202635953D01*
X55786049Y-202635947D01*
X55290811Y-202520556D01*
X55290806Y-202520555D01*
X55290802Y-202520554D01*
X54788357Y-202442189D01*
X54788353Y-202442188D01*
X54788349Y-202442188D01*
X54281490Y-202401286D01*
X54154357Y-202400482D01*
X53772976Y-202398070D01*
X53772974Y-202398070D01*
X53772961Y-202398070D01*
X53772948Y-202398070D01*
X53265636Y-202432557D01*
X53265630Y-202432557D01*
X53265627Y-202432558D01*
X52762231Y-202504560D01*
X52762224Y-202504561D01*
X52762210Y-202504564D01*
X52265560Y-202613679D01*
X51778328Y-202759322D01*
X51303262Y-202940671D01*
X50842938Y-203156741D01*
X50842919Y-203156751D01*
X50399891Y-203406343D01*
X50331059Y-203452157D01*
X49976555Y-203688110D01*
X49833026Y-203799837D01*
X49575281Y-204000474D01*
X49198258Y-204341734D01*
X48847589Y-204709982D01*
X48847582Y-204709990D01*
X48525165Y-205103234D01*
X48525161Y-205103239D01*
X48421243Y-205251074D01*
X48421143Y-205251199D01*
X48386493Y-205300508D01*
X48369331Y-205320156D01*
X48357133Y-205331462D01*
X48312548Y-205357989D01*
X48309495Y-205359021D01*
X48257985Y-205364988D01*
X48254774Y-205364681D01*
X48205271Y-205349029D01*
X48202472Y-205347437D01*
X48163744Y-205312928D01*
X48161838Y-205310326D01*
X48140615Y-205262991D01*
X48137151Y-205246799D01*
X48134407Y-205220858D01*
X48134407Y-183850000D01*
X60114189Y-183850000D01*
X60134049Y-184241618D01*
X60193427Y-184629215D01*
X60291716Y-185008833D01*
X60427897Y-185376530D01*
X60427903Y-185376543D01*
X60600588Y-185728587D01*
X60600589Y-185728588D01*
X60808008Y-186061361D01*
X61048029Y-186371442D01*
X61318188Y-186655650D01*
X61496315Y-186808567D01*
X61615711Y-186911066D01*
X61615714Y-186911068D01*
X61937554Y-187135075D01*
X62280405Y-187325373D01*
X62640749Y-187480008D01*
X62640752Y-187480009D01*
X62640757Y-187480011D01*
X63014878Y-187597393D01*
X63014881Y-187597393D01*
X63014889Y-187597396D01*
X63398985Y-187676329D01*
X63711073Y-187708065D01*
X63789095Y-187716000D01*
X63789096Y-187716000D01*
X64181219Y-187716000D01*
X64246236Y-187709388D01*
X64571329Y-187676329D01*
X64955425Y-187597396D01*
X64955435Y-187597393D01*
X65329556Y-187480011D01*
X65329557Y-187480010D01*
X65329565Y-187480008D01*
X65689909Y-187325373D01*
X66032760Y-187135075D01*
X66354600Y-186911068D01*
X66652126Y-186655650D01*
X66922285Y-186371442D01*
X67162306Y-186061361D01*
X67369725Y-185728588D01*
X67542413Y-185376539D01*
X67678600Y-185008825D01*
X67776886Y-184629220D01*
X67836264Y-184241619D01*
X67856125Y-183850000D01*
X67836264Y-183458381D01*
X67776886Y-183070780D01*
X67678600Y-182691175D01*
X67542413Y-182323461D01*
X67369725Y-181971412D01*
X67162306Y-181638639D01*
X67082299Y-181535278D01*
X66922293Y-181328568D01*
X66922291Y-181328566D01*
X66922285Y-181328558D01*
X66652126Y-181044350D01*
X66503363Y-180916641D01*
X66354602Y-180788933D01*
X66032760Y-180564925D01*
X66032755Y-180564922D01*
X65689908Y-180374626D01*
X65329556Y-180219988D01*
X64955435Y-180102606D01*
X64955429Y-180102605D01*
X64955426Y-180102604D01*
X64955425Y-180102604D01*
X64571329Y-180023671D01*
X64571328Y-180023670D01*
X64571324Y-180023670D01*
X64181219Y-179984000D01*
X64181218Y-179984000D01*
X63789096Y-179984000D01*
X63789095Y-179984000D01*
X63398989Y-180023670D01*
X63014884Y-180102605D01*
X63014878Y-180102606D01*
X62640757Y-180219988D01*
X62280405Y-180374626D01*
X61937558Y-180564922D01*
X61937553Y-180564925D01*
X61615711Y-180788933D01*
X61318189Y-181044349D01*
X61318188Y-181044350D01*
X61048029Y-181328558D01*
X61048026Y-181328560D01*
X61048020Y-181328568D01*
X60808011Y-181638634D01*
X60600588Y-181971412D01*
X60427903Y-182323456D01*
X60427897Y-182323469D01*
X60291716Y-182691166D01*
X60193427Y-183070784D01*
X60134049Y-183458381D01*
X60114189Y-183850000D01*
X48134407Y-183850000D01*
X48134407Y-158450000D01*
X61892278Y-158450000D01*
X61911770Y-158734980D01*
X61911771Y-158734981D01*
X61969884Y-159014640D01*
X61969889Y-159014657D01*
X62065544Y-159283803D01*
X62065545Y-159283805D01*
X62196961Y-159537426D01*
X62289616Y-159668690D01*
X62361688Y-159770793D01*
X62556648Y-159979543D01*
X62556651Y-159979546D01*
X62556656Y-159979551D01*
X62778235Y-160159819D01*
X62778237Y-160159820D01*
X62778238Y-160159821D01*
X63022298Y-160308237D01*
X63201234Y-160385960D01*
X63284294Y-160422038D01*
X63559348Y-160499105D01*
X63808138Y-160533299D01*
X63842333Y-160538000D01*
X63842334Y-160538000D01*
X64127981Y-160538000D01*
X64158489Y-160533806D01*
X64410966Y-160499105D01*
X64686020Y-160422038D01*
X64948017Y-160308236D01*
X65192079Y-160159819D01*
X65413658Y-159979551D01*
X65608627Y-159770791D01*
X65773353Y-159537426D01*
X65904769Y-159283805D01*
X66000426Y-159014652D01*
X66000427Y-159014645D01*
X66000429Y-159014640D01*
X66023089Y-158905590D01*
X66058543Y-158734980D01*
X66078036Y-158450000D01*
X66058543Y-158165020D01*
X66032389Y-158039161D01*
X66000429Y-157885359D01*
X66000424Y-157885342D01*
X65904769Y-157616196D01*
X65904769Y-157616195D01*
X65773353Y-157362574D01*
X65608627Y-157129209D01*
X65608625Y-157129206D01*
X65413665Y-156920456D01*
X65413661Y-156920452D01*
X65413658Y-156920449D01*
X65192079Y-156740181D01*
X65192077Y-156740180D01*
X65192075Y-156740178D01*
X64948015Y-156591762D01*
X64686023Y-156477963D01*
X64686021Y-156477962D01*
X64686020Y-156477962D01*
X64607767Y-156456036D01*
X64410971Y-156400896D01*
X64410967Y-156400895D01*
X64410966Y-156400895D01*
X64269473Y-156381447D01*
X64127981Y-156362000D01*
X64127980Y-156362000D01*
X63842334Y-156362000D01*
X63842333Y-156362000D01*
X63559348Y-156400895D01*
X63559342Y-156400896D01*
X63284290Y-156477963D01*
X63022298Y-156591762D01*
X62778238Y-156740178D01*
X62556662Y-156920443D01*
X62556648Y-156920456D01*
X62361688Y-157129206D01*
X62196958Y-157362578D01*
X62065544Y-157616196D01*
X61969889Y-157885342D01*
X61969884Y-157885359D01*
X61911771Y-158165018D01*
X61911770Y-158165019D01*
X61892278Y-158450000D01*
X48134407Y-158450000D01*
X48134407Y-133050000D01*
X60114189Y-133050000D01*
X60134049Y-133441618D01*
X60193427Y-133829215D01*
X60291716Y-134208833D01*
X60427897Y-134576530D01*
X60427903Y-134576543D01*
X60600588Y-134928587D01*
X60600589Y-134928588D01*
X60808008Y-135261361D01*
X61048029Y-135571442D01*
X61318188Y-135855650D01*
X61496315Y-136008567D01*
X61615711Y-136111066D01*
X61615714Y-136111068D01*
X61937554Y-136335075D01*
X62280405Y-136525373D01*
X62640749Y-136680008D01*
X62640752Y-136680009D01*
X62640757Y-136680011D01*
X63014878Y-136797393D01*
X63014881Y-136797393D01*
X63014889Y-136797396D01*
X63398985Y-136876329D01*
X63711073Y-136908065D01*
X63789095Y-136916000D01*
X63789096Y-136916000D01*
X64181219Y-136916000D01*
X64246236Y-136909388D01*
X64571329Y-136876329D01*
X64955425Y-136797396D01*
X64955435Y-136797393D01*
X65329556Y-136680011D01*
X65329557Y-136680010D01*
X65329565Y-136680008D01*
X65689909Y-136525373D01*
X66032760Y-136335075D01*
X66354600Y-136111068D01*
X66652126Y-135855650D01*
X66922285Y-135571442D01*
X67162306Y-135261361D01*
X67369725Y-134928588D01*
X67542413Y-134576539D01*
X67678600Y-134208825D01*
X67776886Y-133829220D01*
X67836264Y-133441619D01*
X67856125Y-133050000D01*
X67836264Y-132658381D01*
X67776886Y-132270780D01*
X67678600Y-131891175D01*
X67542413Y-131523461D01*
X67369725Y-131171412D01*
X67162306Y-130838639D01*
X66922285Y-130528558D01*
X66652126Y-130244350D01*
X66503363Y-130116641D01*
X66354602Y-129988933D01*
X66032760Y-129764925D01*
X66032755Y-129764922D01*
X65689908Y-129574626D01*
X65329556Y-129419988D01*
X64955435Y-129302606D01*
X64955429Y-129302605D01*
X64955426Y-129302604D01*
X64955425Y-129302604D01*
X64571329Y-129223671D01*
X64571328Y-129223670D01*
X64571324Y-129223670D01*
X64181219Y-129184000D01*
X64181218Y-129184000D01*
X63789096Y-129184000D01*
X63789095Y-129184000D01*
X63398989Y-129223670D01*
X63014884Y-129302605D01*
X63014878Y-129302606D01*
X62640757Y-129419988D01*
X62280405Y-129574626D01*
X61937558Y-129764922D01*
X61937553Y-129764925D01*
X61615711Y-129988933D01*
X61318189Y-130244349D01*
X61318188Y-130244350D01*
X61048029Y-130528558D01*
X61048026Y-130528560D01*
X61048020Y-130528568D01*
X60808011Y-130838634D01*
X60600588Y-131171412D01*
X60427903Y-131523456D01*
X60427897Y-131523469D01*
X60291716Y-131891166D01*
X60193427Y-132270784D01*
X60134049Y-132658381D01*
X60114189Y-133050000D01*
X48134407Y-133050000D01*
X48134407Y-120352424D01*
X48134503Y-120347556D01*
X48136996Y-120284108D01*
X48152248Y-119895901D01*
X48153009Y-119886235D01*
X48205852Y-119439765D01*
X48207374Y-119430159D01*
X48238388Y-119274245D01*
X48295080Y-118989231D01*
X48297351Y-118979773D01*
X48322595Y-118890268D01*
X48419379Y-118547095D01*
X48422385Y-118537843D01*
X48506558Y-118309683D01*
X48577991Y-118116054D01*
X48581714Y-118107068D01*
X48666427Y-117923311D01*
X48769934Y-117698785D01*
X48774341Y-117690138D01*
X48994017Y-117297880D01*
X48999079Y-117289619D01*
X49248865Y-116915786D01*
X49254566Y-116907940D01*
X49532903Y-116554874D01*
X49539221Y-116547477D01*
X49844397Y-116217339D01*
X49851243Y-116210493D01*
X50181399Y-115905299D01*
X50188765Y-115899008D01*
X50541845Y-115620662D01*
X50549708Y-115614951D01*
X50923496Y-115365195D01*
X50931783Y-115360115D01*
X51324061Y-115140429D01*
X51332693Y-115136031D01*
X51740990Y-114947803D01*
X51749961Y-114944088D01*
X52171757Y-114788480D01*
X52180978Y-114785483D01*
X52613706Y-114663442D01*
X52623138Y-114661179D01*
X53064068Y-114573472D01*
X53073656Y-114571953D01*
X53520142Y-114519109D01*
X53529829Y-114518347D01*
X53688094Y-114512129D01*
X53981657Y-114500596D01*
X53986525Y-114500500D01*
X54240232Y-114500500D01*
X54240234Y-114500500D01*
X54240236Y-114500499D01*
X54240255Y-114500499D01*
X54751456Y-114462190D01*
X55258386Y-114385783D01*
X55758188Y-114271706D01*
X56248068Y-114120599D01*
X56725285Y-113933305D01*
X57187172Y-113710872D01*
X57631145Y-113454544D01*
X58054720Y-113165755D01*
X58455531Y-112846120D01*
X58831334Y-112497426D01*
X59180028Y-112121623D01*
X59499664Y-111720813D01*
X59788453Y-111297237D01*
X60044780Y-110853265D01*
X60267213Y-110391378D01*
X60454508Y-109914161D01*
X60605615Y-109424281D01*
X60719692Y-108924479D01*
X60796099Y-108417550D01*
X60834410Y-107906328D01*
X60834410Y-107393672D01*
X60796099Y-106882450D01*
X60719692Y-106375521D01*
X60605615Y-105875719D01*
X60605611Y-105875706D01*
X60454510Y-105385843D01*
X60454508Y-105385839D01*
X60267219Y-104908638D01*
X60267213Y-104908622D01*
X60044780Y-104446735D01*
X60044780Y-104446734D01*
X60044778Y-104446731D01*
X59788456Y-104002769D01*
X59788453Y-104002763D01*
X59499664Y-103579187D01*
X59180028Y-103178377D01*
X58831334Y-102802574D01*
X58831328Y-102802568D01*
X58455537Y-102453885D01*
X58054727Y-102134250D01*
X58054720Y-102134245D01*
X57631145Y-101845456D01*
X57607345Y-101831715D01*
X57187175Y-101589129D01*
X57187172Y-101589127D01*
X56830461Y-101417345D01*
X56725285Y-101366695D01*
X56725272Y-101366690D01*
X56725259Y-101366684D01*
X56248075Y-101179403D01*
X56248055Y-101179396D01*
X55758200Y-101028297D01*
X55758184Y-101028293D01*
X55258390Y-100914218D01*
X55258391Y-100914218D01*
X55258386Y-100914217D01*
X55074659Y-100886524D01*
X54751454Y-100837809D01*
X54751459Y-100837809D01*
X54240255Y-100799500D01*
X54240234Y-100799500D01*
X53986331Y-100799500D01*
X53981463Y-100799404D01*
X53529838Y-100781659D01*
X53520132Y-100780896D01*
X53073670Y-100728055D01*
X53064053Y-100726531D01*
X52623154Y-100638831D01*
X52613686Y-100636558D01*
X52180999Y-100514528D01*
X52171739Y-100511520D01*
X51749967Y-100355920D01*
X51740973Y-100352194D01*
X51332713Y-100163985D01*
X51324037Y-100159565D01*
X50931793Y-99939898D01*
X50923491Y-99934810D01*
X50549703Y-99685053D01*
X50541826Y-99679330D01*
X50188779Y-99401011D01*
X50181376Y-99394688D01*
X49851258Y-99089530D01*
X49844379Y-99082651D01*
X49539210Y-98752522D01*
X49532892Y-98745125D01*
X49254573Y-98392078D01*
X49248850Y-98384201D01*
X48999086Y-98010403D01*
X48994004Y-98002110D01*
X48774341Y-97609874D01*
X48769922Y-97601203D01*
X48581707Y-97192933D01*
X48577981Y-97183938D01*
X48422378Y-96762158D01*
X48419370Y-96752898D01*
X48297344Y-96320228D01*
X48295071Y-96310760D01*
X48207366Y-95869836D01*
X48205844Y-95860225D01*
X48184839Y-95682752D01*
X48153002Y-95413767D01*
X48152241Y-95404097D01*
X48134503Y-94952621D01*
X48134407Y-94947753D01*
X48134407Y-62860984D01*
X48134602Y-62854032D01*
X48138107Y-62791614D01*
X48150833Y-62564999D01*
X48152387Y-62551199D01*
X48200295Y-62269235D01*
X48203388Y-62255683D01*
X48282564Y-61980859D01*
X48287157Y-61967735D01*
X48288971Y-61963355D01*
X48396599Y-61703516D01*
X48402630Y-61690992D01*
X48540972Y-61440680D01*
X48548370Y-61428906D01*
X48713873Y-61195651D01*
X48722528Y-61184797D01*
X48913117Y-60971529D01*
X48922929Y-60961717D01*
X49136198Y-60771127D01*
X49147052Y-60762472D01*
X49380312Y-60596966D01*
X49392075Y-60589575D01*
X49642403Y-60451223D01*
X49654902Y-60445204D01*
X49919146Y-60335751D01*
X49932258Y-60331163D01*
X50207093Y-60251985D01*
X50220628Y-60248896D01*
X50502600Y-60200987D01*
X50516400Y-60199433D01*
X50726626Y-60187627D01*
X50805455Y-60183201D01*
X50812407Y-60183006D01*
X50874798Y-60183006D01*
X80715016Y-60183006D01*
X80729545Y-60183006D01*
X80729548Y-60183007D01*
X80780908Y-60183007D01*
X80961470Y-60183007D01*
X80961474Y-60183007D01*
X81320866Y-60147609D01*
X81675058Y-60077155D01*
X82020639Y-59972324D01*
X82354281Y-59834125D01*
X82488302Y-59762489D01*
X82596526Y-59704642D01*
X82654979Y-59690000D01*
X86998000Y-59690000D01*
X87065039Y-59709685D01*
G37*
G04 #@! TD.AperFunction*
G04 #@! TA.AperFunction,NonConductor*
G36*
X128518246Y-47598673D02*
G01*
X128564001Y-47651477D01*
X128575207Y-47702988D01*
X128575207Y-55479988D01*
X128555522Y-55547027D01*
X128502718Y-55592782D01*
X128451207Y-55603988D01*
X120674207Y-55603988D01*
X120607168Y-55584303D01*
X120561413Y-55531499D01*
X120550207Y-55479988D01*
X120550207Y-47702988D01*
X120569892Y-47635949D01*
X120622696Y-47590194D01*
X120674207Y-47578988D01*
X128451207Y-47578988D01*
X128518246Y-47598673D01*
G37*
G04 #@! TD.AperFunction*
M02*
