G04 #@! TF.GenerationSoftware,KiCad,Pcbnew,8.0.6*
G04 #@! TF.CreationDate,2024-11-19T15:58:11-05:00*
G04 #@! TF.ProjectId,power_therm,706f7765-725f-4746-9865-726d2e6b6963,rev?*
G04 #@! TF.SameCoordinates,Original*
G04 #@! TF.FileFunction,Soldermask,Top*
G04 #@! TF.FilePolarity,Negative*
%FSLAX46Y46*%
G04 Gerber Fmt 4.6, Leading zero omitted, Abs format (unit mm)*
G04 Created by KiCad (PCBNEW 8.0.6) date 2024-11-19 15:58:11*
%MOMM*%
%LPD*%
G01*
G04 APERTURE LIST*
G04 Aperture macros list*
%AMRoundRect*
0 Rectangle with rounded corners*
0 $1 Rounding radius*
0 $2 $3 $4 $5 $6 $7 $8 $9 X,Y pos of 4 corners*
0 Add a 4 corners polygon primitive as box body*
4,1,4,$2,$3,$4,$5,$6,$7,$8,$9,$2,$3,0*
0 Add four circle primitives for the rounded corners*
1,1,$1+$1,$2,$3*
1,1,$1+$1,$4,$5*
1,1,$1+$1,$6,$7*
1,1,$1+$1,$8,$9*
0 Add four rect primitives between the rounded corners*
20,1,$1+$1,$2,$3,$4,$5,0*
20,1,$1+$1,$4,$5,$6,$7,0*
20,1,$1+$1,$6,$7,$8,$9,0*
20,1,$1+$1,$8,$9,$2,$3,0*%
%AMFreePoly0*
4,1,67,-4.250000,56.750000,-4.229535,57.166573,-4.168337,57.579134,-4.066996,57.983710,-3.926488,58.376405,-3.748165,58.753436,-3.533746,59.111173,-3.285294,59.446171,-3.005204,59.755204,-2.696171,60.035294,-2.361173,60.283746,-2.003436,60.498165,-1.626405,60.676488,-1.233710,60.816996,-0.829134,60.918337,-0.416573,60.979535,0.000000,61.000000,0.416573,60.979535,0.829134,60.918337,1.233710,60.816996,
1.626405,60.676488,2.003436,60.498165,2.361173,60.283746,2.696171,60.035294,3.005204,59.755204,3.285294,59.446171,3.533746,59.111173,3.748165,58.753436,3.926488,58.376405,4.066996,57.983710,4.168337,57.579134,4.229535,57.166573,4.250000,56.750000,4.250000,-56.750000,4.229535,-57.166573,4.168337,-57.579134,4.066996,-57.983710,3.926488,-58.376405,3.748165,-58.753436,3.533746,-59.111173,
3.285294,-59.446171,3.005204,-59.755204,2.696171,-60.035294,2.361173,-60.283746,2.003436,-60.498165,1.626405,-60.676488,1.233710,-60.816996,0.829134,-60.918337,0.416573,-60.979535,0.000000,-61.000000,-0.416573,-60.979535,-0.829134,-60.918337,-1.233710,-60.816996,-1.626405,-60.676488,-2.003436,-60.498165,-2.361173,-60.283746,-2.696171,-60.035294,-3.005204,-59.755204,-3.285294,-59.446171,-3.533746,-59.111173,
-3.748165,-58.753436,-3.926488,-58.376405,-4.066996,-57.983710,-4.168337,-57.579134,-4.229535,-57.166573,-4.250000,-56.750000,-4.250000,56.750000,-4.250000,56.750000,$1*%
%AMFreePoly1*
4,1,67,-4.250000,54.750000,-4.229535,55.166573,-4.168337,55.579134,-4.066996,55.983710,-3.926488,56.376405,-3.748165,56.753436,-3.533746,57.111173,-3.285294,57.446171,-3.005204,57.755204,-2.696171,58.035294,-2.361173,58.283746,-2.003436,58.498165,-1.626405,58.676488,-1.233710,58.816996,-0.829134,58.918337,-0.416573,58.979535,0.000000,59.000000,0.416573,58.979535,0.829134,58.918337,1.233710,58.816996,
1.626405,58.676488,2.003436,58.498165,2.361173,58.283746,2.696171,58.035294,3.005204,57.755204,3.285294,57.446171,3.533746,57.111173,3.748165,56.753436,3.926488,56.376405,4.066996,55.983710,4.168337,55.579134,4.229535,55.166573,4.250000,54.750000,4.250000,-54.750000,4.229535,-55.166573,4.168337,-55.579134,4.066996,-55.983710,3.926488,-56.376405,3.748165,-56.753436,3.533746,-57.111173,
3.285294,-57.446171,3.005204,-57.755204,2.696171,-58.035294,2.361173,-58.283746,2.003436,-58.498165,1.626405,-58.676488,1.233710,-58.816996,0.829134,-58.918337,0.416573,-58.979535,0.000000,-59.000000,-0.416573,-58.979535,-0.829134,-58.918337,-1.233710,-58.816996,-1.626405,-58.676488,-2.003436,-58.498165,-2.361173,-58.283746,-2.696171,-58.035294,-3.005204,-57.755204,-3.285294,-57.446171,-3.533746,-57.111173,
-3.748165,-56.753436,-3.926488,-56.376405,-4.066996,-55.983710,-4.168337,-55.579134,-4.229535,-55.166573,-4.250000,-54.750000,-4.250000,54.750000,-4.250000,54.750000,$1*%
%AMFreePoly2*
4,1,67,-4.250000,55.920000,-4.229535,56.336573,-4.168337,56.749134,-4.066996,57.153710,-3.926488,57.546405,-3.748165,57.923436,-3.533746,58.281173,-3.285294,58.616171,-3.005204,58.925204,-2.696171,59.205294,-2.361173,59.453746,-2.003436,59.668165,-1.626405,59.846488,-1.233710,59.986996,-0.829134,60.088337,-0.416573,60.149535,0.000000,60.170000,0.416573,60.149535,0.829134,60.088337,1.233710,59.986996,
1.626405,59.846488,2.003436,59.668165,2.361173,59.453746,2.696171,59.205294,3.005204,58.925204,3.285294,58.616171,3.533746,58.281173,3.748165,57.923436,3.926488,57.546405,4.066996,57.153710,4.168337,56.749134,4.229535,56.336573,4.250000,55.920000,4.250000,-55.920000,4.229535,-56.336573,4.168337,-56.749134,4.066996,-57.153710,3.926488,-57.546405,3.748165,-57.923436,3.533746,-58.281173,
3.285294,-58.616171,3.005204,-58.925204,2.696171,-59.205294,2.361173,-59.453746,2.003436,-59.668165,1.626405,-59.846488,1.233710,-59.986996,0.829134,-60.088337,0.416573,-60.149535,0.000000,-60.170000,-0.416573,-60.149535,-0.829134,-60.088337,-1.233710,-59.986996,-1.626405,-59.846488,-2.003436,-59.668165,-2.361173,-59.453746,-2.696171,-59.205294,-3.005204,-58.925204,-3.285294,-58.616171,-3.533746,-58.281173,
-3.748165,-57.923436,-3.926488,-57.546405,-4.066996,-57.153710,-4.168337,-56.749134,-4.229535,-56.336573,-4.250000,-55.920000,-4.250000,55.920000,-4.250000,55.920000,$1*%
G04 Aperture macros list end*
%ADD10C,0.000000*%
%ADD11R,1.500000X1.000000*%
%ADD12RoundRect,0.243750X0.456250X-0.243750X0.456250X0.243750X-0.456250X0.243750X-0.456250X-0.243750X0*%
%ADD13FreePoly0,0.000000*%
%ADD14FreePoly1,0.000000*%
%ADD15FreePoly2,0.000000*%
%ADD16C,1.367000*%
%ADD17C,2.000000*%
G04 APERTURE END LIST*
D10*
G36*
X128575265Y-55602164D02*
G01*
X120575207Y-55602164D01*
X120575207Y-52094058D01*
X123627402Y-52094058D01*
X123627465Y-52095388D01*
X123627631Y-52096715D01*
X123627903Y-52098030D01*
X123628282Y-52099325D01*
X123628771Y-52100594D01*
X123629372Y-52101828D01*
X123630086Y-52103020D01*
X123630916Y-52104162D01*
X123631863Y-52105248D01*
X123632931Y-52106268D01*
X123634121Y-52107216D01*
X123635434Y-52108085D01*
X123636874Y-52108866D01*
X123638442Y-52109551D01*
X123640140Y-52110134D01*
X123793962Y-52157664D01*
X123954906Y-52199681D01*
X124123037Y-52235613D01*
X124298423Y-52264886D01*
X124388857Y-52276847D01*
X124481129Y-52286927D01*
X124575248Y-52295057D01*
X124671221Y-52301163D01*
X124769058Y-52305175D01*
X124868765Y-52307021D01*
X124970353Y-52306629D01*
X125073829Y-52303927D01*
X125075902Y-52303971D01*
X125077889Y-52304103D01*
X125079794Y-52304324D01*
X125081619Y-52304632D01*
X125083367Y-52305029D01*
X125085040Y-52305514D01*
X125085850Y-52305790D01*
X125086642Y-52306088D01*
X125087417Y-52306407D01*
X125088175Y-52306749D01*
X125088916Y-52307113D01*
X125089641Y-52307499D01*
X125090351Y-52307907D01*
X125091045Y-52308337D01*
X125091723Y-52308789D01*
X125092387Y-52309263D01*
X125093672Y-52310277D01*
X125094902Y-52311379D01*
X125096079Y-52312570D01*
X125097207Y-52313849D01*
X125098288Y-52315216D01*
X125113939Y-52336412D01*
X125134242Y-52366957D01*
X125157323Y-52405968D01*
X125169319Y-52428373D01*
X125181308Y-52452564D01*
X125193054Y-52478431D01*
X125204323Y-52505863D01*
X125214881Y-52534750D01*
X125224494Y-52564983D01*
X125232927Y-52596450D01*
X125239946Y-52629041D01*
X125245317Y-52662647D01*
X125248806Y-52697157D01*
X125248855Y-52698033D01*
X125248996Y-52698897D01*
X125249225Y-52699748D01*
X125249534Y-52700585D01*
X125249917Y-52701407D01*
X125250369Y-52702213D01*
X125250883Y-52703001D01*
X125251452Y-52703771D01*
X125252071Y-52704522D01*
X125252734Y-52705253D01*
X125253433Y-52705962D01*
X125254164Y-52706648D01*
X125255694Y-52707951D01*
X125257273Y-52709151D01*
X125258852Y-52710241D01*
X125260382Y-52711213D01*
X125261812Y-52712057D01*
X125263094Y-52712767D01*
X125265012Y-52713748D01*
X125265739Y-52714090D01*
X125519740Y-52714090D01*
X125520434Y-52714079D01*
X125521107Y-52714046D01*
X125521760Y-52713992D01*
X125522393Y-52713917D01*
X125523006Y-52713821D01*
X125523601Y-52713705D01*
X125524177Y-52713569D01*
X125524737Y-52713414D01*
X125525280Y-52713239D01*
X125525807Y-52713045D01*
X125526319Y-52712832D01*
X125526817Y-52712602D01*
X125527301Y-52712353D01*
X125527771Y-52712087D01*
X125528230Y-52711803D01*
X125528676Y-52711503D01*
X125529112Y-52711186D01*
X125529537Y-52710853D01*
X125530359Y-52710140D01*
X125531149Y-52709366D01*
X125531910Y-52708534D01*
X125532650Y-52707647D01*
X125533373Y-52706707D01*
X125534085Y-52705718D01*
X125534791Y-52704683D01*
X125579164Y-52629035D01*
X125626404Y-52554185D01*
X125676282Y-52480205D01*
X125728565Y-52407166D01*
X125839430Y-52264193D01*
X125957154Y-52125833D01*
X126079895Y-51992655D01*
X126205807Y-51865226D01*
X126333048Y-51744114D01*
X126459774Y-51629887D01*
X126584141Y-51523112D01*
X126704304Y-51424357D01*
X126924647Y-51253179D01*
X127106052Y-51120895D01*
X127233769Y-51032046D01*
X127231887Y-51032046D01*
X127233227Y-51030956D01*
X127234427Y-51029806D01*
X127235490Y-51028604D01*
X127236418Y-51027357D01*
X127237216Y-51026071D01*
X127237886Y-51024753D01*
X127238431Y-51023411D01*
X127238854Y-51022051D01*
X127239159Y-51020679D01*
X127239349Y-51019304D01*
X127239426Y-51017931D01*
X127239395Y-51016568D01*
X127239257Y-51015221D01*
X127239016Y-51013898D01*
X127238675Y-51012605D01*
X127238237Y-51011350D01*
X127237706Y-51010138D01*
X127237084Y-51008978D01*
X127236374Y-51007875D01*
X127235580Y-51006837D01*
X127234705Y-51005871D01*
X127233752Y-51004983D01*
X127232723Y-51004181D01*
X127231623Y-51003471D01*
X127230453Y-51002860D01*
X127229218Y-51002356D01*
X127227920Y-51001964D01*
X127226563Y-51001693D01*
X127225149Y-51001548D01*
X127223681Y-51001536D01*
X127222163Y-51001666D01*
X127220598Y-51001942D01*
X126099236Y-51135527D01*
X126095470Y-51135951D01*
X126091932Y-51136512D01*
X126088616Y-51137204D01*
X126085518Y-51138023D01*
X126082633Y-51138961D01*
X126079958Y-51140013D01*
X126077488Y-51141173D01*
X126075217Y-51142436D01*
X126073143Y-51143795D01*
X126071259Y-51145245D01*
X126069562Y-51146779D01*
X126068048Y-51148393D01*
X126066711Y-51150079D01*
X126065548Y-51151833D01*
X126064553Y-51153648D01*
X126063723Y-51155518D01*
X126063052Y-51157438D01*
X126062537Y-51159402D01*
X126062173Y-51161404D01*
X126061955Y-51163437D01*
X126061879Y-51165497D01*
X126061941Y-51167577D01*
X126062135Y-51169672D01*
X126062459Y-51171775D01*
X126062906Y-51173881D01*
X126063472Y-51175984D01*
X126064154Y-51178078D01*
X126064946Y-51180157D01*
X126065845Y-51182216D01*
X126066845Y-51184248D01*
X126067942Y-51186247D01*
X126069132Y-51188209D01*
X126082273Y-51210640D01*
X126091654Y-51228326D01*
X126102293Y-51250533D01*
X126113725Y-51277414D01*
X126119594Y-51292656D01*
X126125488Y-51309124D01*
X126131349Y-51326837D01*
X126137119Y-51345816D01*
X126142740Y-51366079D01*
X126148154Y-51387646D01*
X126149525Y-51393474D01*
X126150741Y-51400316D01*
X126151693Y-51408085D01*
X126152270Y-51416691D01*
X126152362Y-51426047D01*
X126151858Y-51436065D01*
X126150649Y-51446655D01*
X126148625Y-51457731D01*
X126145674Y-51469204D01*
X126141687Y-51480985D01*
X126136553Y-51492987D01*
X126133522Y-51499043D01*
X126130163Y-51505121D01*
X126126462Y-51511210D01*
X126122405Y-51517299D01*
X126117979Y-51523377D01*
X126113170Y-51529433D01*
X126107965Y-51535456D01*
X126102348Y-51541435D01*
X126096308Y-51547358D01*
X126089828Y-51553216D01*
X125977351Y-51650524D01*
X125879286Y-51730818D01*
X125824794Y-51773299D01*
X125768565Y-51815212D01*
X125712028Y-51854965D01*
X125656610Y-51890964D01*
X125603738Y-51921616D01*
X125554841Y-51945328D01*
X125532329Y-51954084D01*
X125511345Y-51960508D01*
X125492070Y-51964400D01*
X125474680Y-51965562D01*
X125459354Y-51963793D01*
X125446271Y-51958896D01*
X125435609Y-51950671D01*
X125427547Y-51938919D01*
X125410613Y-51873068D01*
X125410416Y-51872555D01*
X125410177Y-51872074D01*
X125409900Y-51871624D01*
X125409588Y-51871205D01*
X125409245Y-51870814D01*
X125408873Y-51870451D01*
X125408476Y-51870115D01*
X125408056Y-51869804D01*
X125407617Y-51869519D01*
X125407162Y-51869257D01*
X125406693Y-51869018D01*
X125406215Y-51868801D01*
X125405730Y-51868605D01*
X125405241Y-51868428D01*
X125404264Y-51868129D01*
X125403309Y-51867896D01*
X125402400Y-51867721D01*
X125401564Y-51867595D01*
X125400824Y-51867511D01*
X125399733Y-51867434D01*
X125399325Y-51867423D01*
X123640140Y-52078149D01*
X123638762Y-52078390D01*
X123637453Y-52078756D01*
X123636213Y-52079239D01*
X123635047Y-52079832D01*
X123633954Y-52080527D01*
X123632938Y-52081316D01*
X123632001Y-52082192D01*
X123631144Y-52083147D01*
X123630370Y-52084174D01*
X123629681Y-52085264D01*
X123629078Y-52086412D01*
X123628564Y-52087608D01*
X123628142Y-52088846D01*
X123627812Y-52090117D01*
X123627577Y-52091414D01*
X123627440Y-52092731D01*
X123627402Y-52094058D01*
X120575207Y-52094058D01*
X120575207Y-51565340D01*
X122612542Y-51565340D01*
X122612551Y-51566545D01*
X122612643Y-51567738D01*
X122612821Y-51568912D01*
X122613086Y-51570062D01*
X122613439Y-51571181D01*
X122613882Y-51572264D01*
X122614415Y-51573305D01*
X122615041Y-51574299D01*
X122615761Y-51575238D01*
X122616575Y-51576118D01*
X122617486Y-51576933D01*
X122618495Y-51577676D01*
X122649812Y-51601573D01*
X122681701Y-51625272D01*
X122714208Y-51648750D01*
X122747377Y-51671985D01*
X122781251Y-51694956D01*
X122815875Y-51717640D01*
X122851292Y-51740016D01*
X122887547Y-51762061D01*
X122923234Y-51783138D01*
X122959701Y-51802616D01*
X122996890Y-51820484D01*
X123034744Y-51836732D01*
X123073203Y-51851349D01*
X123112211Y-51864322D01*
X123151710Y-51875642D01*
X123191641Y-51885298D01*
X123231948Y-51893278D01*
X123272571Y-51899571D01*
X123313453Y-51904166D01*
X123354536Y-51907052D01*
X123395763Y-51908219D01*
X123437075Y-51907655D01*
X123478415Y-51905349D01*
X123519725Y-51901291D01*
X125342880Y-51683039D01*
X125343398Y-51683022D01*
X125343894Y-51682974D01*
X125344368Y-51682895D01*
X125344820Y-51682785D01*
X125345250Y-51682647D01*
X125345658Y-51682481D01*
X125346044Y-51682288D01*
X125346408Y-51682069D01*
X125346749Y-51681825D01*
X125347069Y-51681557D01*
X125347367Y-51681267D01*
X125347642Y-51680955D01*
X125347896Y-51680623D01*
X125348128Y-51680270D01*
X125348337Y-51679899D01*
X125348524Y-51679511D01*
X125348690Y-51679106D01*
X125348833Y-51678686D01*
X125348954Y-51678251D01*
X125349054Y-51677802D01*
X125349131Y-51677341D01*
X125349186Y-51676869D01*
X125349230Y-51675895D01*
X125349186Y-51674888D01*
X125349054Y-51673856D01*
X125348833Y-51672807D01*
X125348524Y-51671750D01*
X125329665Y-51616364D01*
X125309836Y-51561683D01*
X125289125Y-51507708D01*
X125267621Y-51454439D01*
X125245410Y-51401875D01*
X125222583Y-51350016D01*
X125199226Y-51298864D01*
X125175428Y-51248417D01*
X125175236Y-51248075D01*
X125175012Y-51247754D01*
X125174761Y-51247454D01*
X125174484Y-51247174D01*
X125174183Y-51246914D01*
X125173861Y-51246672D01*
X125173521Y-51246448D01*
X125173165Y-51246241D01*
X125172794Y-51246051D01*
X125172413Y-51245876D01*
X125172022Y-51245717D01*
X125171625Y-51245572D01*
X125170821Y-51245323D01*
X125170019Y-51245124D01*
X125169239Y-51244969D01*
X125168501Y-51244852D01*
X125167824Y-51244768D01*
X125167226Y-51244712D01*
X125166348Y-51244661D01*
X125166021Y-51244653D01*
X122627903Y-51547572D01*
X122626520Y-51547803D01*
X122625193Y-51548138D01*
X122623924Y-51548571D01*
X122622714Y-51549097D01*
X122621565Y-51549710D01*
X122620478Y-51550404D01*
X122619454Y-51551173D01*
X122618495Y-51552011D01*
X122617603Y-51552913D01*
X122616777Y-51553872D01*
X122616021Y-51554883D01*
X122615335Y-51555940D01*
X122614721Y-51557036D01*
X122614179Y-51558167D01*
X122613712Y-51559326D01*
X122613321Y-51560507D01*
X122613007Y-51561705D01*
X122612772Y-51562914D01*
X122612616Y-51564127D01*
X122612542Y-51565340D01*
X120575207Y-51565340D01*
X120575207Y-50835739D01*
X121908071Y-50835739D01*
X121908089Y-50836872D01*
X121908182Y-50838009D01*
X121908351Y-50839145D01*
X121908597Y-50840277D01*
X121908924Y-50841403D01*
X121909331Y-50842520D01*
X121909822Y-50843623D01*
X121910397Y-50844711D01*
X121911059Y-50845780D01*
X121911058Y-50845780D01*
X121939751Y-50888407D01*
X121959874Y-50916887D01*
X121983966Y-50949732D01*
X122012115Y-50986634D01*
X122044408Y-51027284D01*
X122080936Y-51071374D01*
X122121784Y-51118595D01*
X122150186Y-51149346D01*
X122180283Y-51178075D01*
X122211962Y-51204741D01*
X122245110Y-51229308D01*
X122279613Y-51251736D01*
X122315360Y-51271987D01*
X122352237Y-51290022D01*
X122390130Y-51305802D01*
X122428928Y-51319289D01*
X122468517Y-51330445D01*
X122508784Y-51339230D01*
X122549615Y-51345607D01*
X122590899Y-51349536D01*
X122632522Y-51350980D01*
X122674371Y-51349898D01*
X122716332Y-51346254D01*
X125066302Y-51064031D01*
X125066826Y-51064010D01*
X125067337Y-51063946D01*
X125067836Y-51063841D01*
X125068320Y-51063697D01*
X125068789Y-51063516D01*
X125069242Y-51063300D01*
X125069677Y-51063050D01*
X125070095Y-51062767D01*
X125070493Y-51062455D01*
X125070870Y-51062114D01*
X125071227Y-51061746D01*
X125071561Y-51061353D01*
X125071871Y-51060936D01*
X125072158Y-51060498D01*
X125072418Y-51060040D01*
X125072652Y-51059563D01*
X125072859Y-51059070D01*
X125073037Y-51058562D01*
X125073185Y-51058041D01*
X125073303Y-51057509D01*
X125073389Y-51056967D01*
X125073442Y-51056417D01*
X125073461Y-51055861D01*
X125073446Y-51055300D01*
X125073395Y-51054737D01*
X125073307Y-51054173D01*
X125073181Y-51053609D01*
X125073016Y-51053048D01*
X125072811Y-51052491D01*
X125072565Y-51051940D01*
X125072278Y-51051396D01*
X125071947Y-51050861D01*
X125031925Y-50982007D01*
X124990955Y-50915248D01*
X124949147Y-50850737D01*
X124906612Y-50788630D01*
X124863459Y-50729080D01*
X124819799Y-50672243D01*
X124775742Y-50618271D01*
X124731399Y-50567321D01*
X124721989Y-50557422D01*
X124712121Y-50548193D01*
X124701823Y-50539643D01*
X124691123Y-50531778D01*
X124680048Y-50524608D01*
X124668626Y-50518141D01*
X124656884Y-50512385D01*
X124644851Y-50507348D01*
X124632552Y-50503039D01*
X124620016Y-50499466D01*
X124607271Y-50496637D01*
X124594345Y-50494560D01*
X124581263Y-50493244D01*
X124568055Y-50492697D01*
X124554748Y-50492927D01*
X124541369Y-50493943D01*
X121924229Y-50817558D01*
X121923011Y-50817772D01*
X121921828Y-50818061D01*
X121920681Y-50818420D01*
X121919573Y-50818848D01*
X121918505Y-50819340D01*
X121917478Y-50819893D01*
X121916495Y-50820506D01*
X121915556Y-50821174D01*
X121914665Y-50821894D01*
X121913822Y-50822663D01*
X121913030Y-50823479D01*
X121912290Y-50824338D01*
X121911603Y-50825236D01*
X121910972Y-50826172D01*
X121910398Y-50827141D01*
X121909883Y-50828141D01*
X121909428Y-50829169D01*
X121909036Y-50830221D01*
X121908708Y-50831294D01*
X121908446Y-50832385D01*
X121908251Y-50833492D01*
X121908126Y-50834611D01*
X121908071Y-50835739D01*
X120575207Y-50835739D01*
X120575207Y-47603988D01*
X128575265Y-47603988D01*
X128575265Y-55602164D01*
G37*
D11*
X252820000Y-86510000D03*
X252820000Y-85210000D03*
D12*
X338360000Y-82137500D03*
X338360000Y-80262500D03*
D11*
X93600000Y-86450000D03*
X93600000Y-85150000D03*
D12*
X189170000Y-82087500D03*
X189170000Y-80212500D03*
X317020000Y-82047500D03*
X317020000Y-80172500D03*
X295540000Y-82067500D03*
X295540000Y-80192500D03*
X407200000Y-81887500D03*
X407200000Y-80012500D03*
X274190000Y-82067500D03*
X274190000Y-80192500D03*
D13*
X295700000Y-150670000D03*
X444870000Y-151792000D03*
X210390000Y-150000000D03*
D12*
X231520000Y-82077500D03*
X231520000Y-80202500D03*
D13*
X380950000Y-150670000D03*
D11*
X430800000Y-86287500D03*
X430800000Y-84987500D03*
D13*
X103810000Y-150670000D03*
X125260000Y-150670000D03*
D11*
X168090000Y-86550000D03*
X168090000Y-85250000D03*
D12*
X402260000Y-82067500D03*
X402260000Y-80192500D03*
D11*
X210240000Y-86510000D03*
X210240000Y-85210000D03*
D12*
X125230000Y-82207500D03*
X125230000Y-80332500D03*
D13*
X253120000Y-150670000D03*
D12*
X116700000Y-82087500D03*
X116700000Y-80212500D03*
D13*
X82800000Y-150800000D03*
D11*
X189170000Y-86550000D03*
X189170000Y-85250000D03*
X295540000Y-86530000D03*
X295540000Y-85230000D03*
D12*
X93600000Y-81937500D03*
X93600000Y-80062500D03*
D11*
X146590000Y-86510000D03*
X146590000Y-85210000D03*
D13*
X359650000Y-150670000D03*
D12*
X252820000Y-82047500D03*
X252820000Y-80172500D03*
X168090000Y-82087500D03*
X168090000Y-80212500D03*
D13*
X402270000Y-151792000D03*
D12*
X359610000Y-82057500D03*
X359610000Y-80182500D03*
D11*
X338360000Y-86500000D03*
X338360000Y-85200000D03*
D14*
X338350000Y-148300000D03*
D11*
X231520000Y-86540000D03*
X231520000Y-85240000D03*
D12*
X430800000Y-81875000D03*
X430800000Y-80000000D03*
D11*
X274190000Y-86530000D03*
X274190000Y-85230000D03*
D15*
X231800000Y-149000000D03*
D11*
X359610000Y-86520000D03*
X359610000Y-85220000D03*
X407200000Y-86350000D03*
X407200000Y-85050000D03*
X402260000Y-86530000D03*
X402260000Y-85230000D03*
D13*
X146520000Y-150670000D03*
X423570000Y-151892000D03*
X167800000Y-150670000D03*
D11*
X380970000Y-86510000D03*
X380970000Y-85210000D03*
X317020000Y-86510000D03*
X317020000Y-85210000D03*
D13*
X317050000Y-150670000D03*
X189100000Y-150670000D03*
D11*
X116700000Y-86400000D03*
X116700000Y-85100000D03*
D12*
X380970000Y-82047500D03*
X380970000Y-80172500D03*
D13*
X274410000Y-150670000D03*
D12*
X210240000Y-82047500D03*
X210240000Y-80172500D03*
X146590000Y-82047500D03*
X146590000Y-80172500D03*
D11*
X125230000Y-86520000D03*
X125230000Y-85220000D03*
D16*
X345000000Y-47000000D03*
X345000000Y-49000000D03*
X347000000Y-47000000D03*
X347000000Y-49000000D03*
X349000000Y-47000000D03*
X349000000Y-49000000D03*
X351000000Y-47000000D03*
X351000000Y-49000000D03*
X353000000Y-47000000D03*
X353000000Y-49000000D03*
X355000000Y-47000000D03*
X355000000Y-49000000D03*
X357000000Y-47000000D03*
X357000000Y-49000000D03*
X359000000Y-47000000D03*
X359000000Y-49000000D03*
X361000000Y-47000000D03*
X361000000Y-49000000D03*
X363000000Y-47000000D03*
X363000000Y-49000000D03*
X342075000Y-48000000D03*
X365925000Y-48000000D03*
D17*
X462034907Y-77589506D03*
X462034907Y-75049506D03*
X462034907Y-72509506D03*
X462034907Y-69969506D03*
X462034907Y-67429506D03*
X459494907Y-77589506D03*
X459494907Y-75049506D03*
X459494907Y-72509506D03*
X459494907Y-69969506D03*
X459494907Y-67429506D03*
X456954907Y-77589506D03*
X456954907Y-75049506D03*
X456954907Y-72509506D03*
X456954907Y-69969506D03*
X456954907Y-67429506D03*
X454414907Y-77589506D03*
X454414907Y-75049506D03*
X454414907Y-72509506D03*
X454414907Y-69969506D03*
X454414907Y-67429506D03*
X451874907Y-77589506D03*
X451874907Y-75049506D03*
X451874907Y-72509506D03*
X451874907Y-69969506D03*
X451874907Y-67429506D03*
X75192907Y-77589506D03*
X75192907Y-75049506D03*
X75192907Y-72509506D03*
X75192907Y-69969506D03*
X75192907Y-67429506D03*
X72652907Y-77589506D03*
X72652907Y-75049506D03*
X72652907Y-72509506D03*
X72652907Y-69969506D03*
X72652907Y-67429506D03*
X70112907Y-77589506D03*
X70112907Y-75049506D03*
X70112907Y-72509506D03*
X70112907Y-69969506D03*
X70112907Y-67429506D03*
X67572907Y-77589506D03*
X67572907Y-75049506D03*
X67572907Y-72509506D03*
X67572907Y-69969506D03*
X67572907Y-67429506D03*
X65032907Y-77589506D03*
X65032907Y-75049506D03*
X65032907Y-72509506D03*
X65032907Y-69969506D03*
X65032907Y-67429506D03*
D16*
X271000000Y-47000000D03*
X271000000Y-49000000D03*
X273000000Y-47000000D03*
X273000000Y-49000000D03*
X275000000Y-47000000D03*
X275000000Y-49000000D03*
X277000000Y-47000000D03*
X277000000Y-49000000D03*
X279000000Y-47000000D03*
X279000000Y-49000000D03*
X281000000Y-47000000D03*
X281000000Y-49000000D03*
X283000000Y-47000000D03*
X283000000Y-49000000D03*
X285000000Y-47000000D03*
X285000000Y-49000000D03*
X287000000Y-47000000D03*
X287000000Y-49000000D03*
X289000000Y-47000000D03*
X289000000Y-49000000D03*
X268075000Y-48000000D03*
X291925000Y-48000000D03*
X391000000Y-47000000D03*
X391000000Y-49000000D03*
X393000000Y-47000000D03*
X393000000Y-49000000D03*
X395000000Y-47000000D03*
X395000000Y-49000000D03*
X397000000Y-47000000D03*
X397000000Y-49000000D03*
X399000000Y-47000000D03*
X399000000Y-49000000D03*
X401000000Y-47000000D03*
X401000000Y-49000000D03*
X403000000Y-47000000D03*
X403000000Y-49000000D03*
X405000000Y-47000000D03*
X405000000Y-49000000D03*
X407000000Y-47000000D03*
X407000000Y-49000000D03*
X409000000Y-47000000D03*
X409000000Y-49000000D03*
X388075000Y-48000000D03*
X411925000Y-48000000D03*
M02*
