G04 #@! TF.GenerationSoftware,KiCad,Pcbnew,(5.1.10-1-10_14)*
G04 #@! TF.CreationDate,2021-10-01T01:12:16-04:00*
G04 #@! TF.ProjectId,throttle,7468726f-7474-46c6-952e-6b696361645f,rev?*
G04 #@! TF.SameCoordinates,Original*
G04 #@! TF.FileFunction,Copper,L4,Bot*
G04 #@! TF.FilePolarity,Positive*
%FSLAX46Y46*%
G04 Gerber Fmt 4.6, Leading zero omitted, Abs format (unit mm)*
G04 Created by KiCad (PCBNEW (5.1.10-1-10_14)) date 2021-10-01 01:12:16*
%MOMM*%
%LPD*%
G01*
G04 APERTURE LIST*
G04 #@! TA.AperFunction,ComponentPad*
%ADD10C,1.300000*%
G04 #@! TD*
G04 #@! TA.AperFunction,ComponentPad*
%ADD11C,2.000000*%
G04 #@! TD*
G04 #@! TA.AperFunction,ComponentPad*
%ADD12C,1.400000*%
G04 #@! TD*
G04 #@! TA.AperFunction,ComponentPad*
%ADD13R,1.400000X1.400000*%
G04 #@! TD*
G04 #@! TA.AperFunction,ViaPad*
%ADD14C,0.609600*%
G04 #@! TD*
G04 #@! TA.AperFunction,Conductor*
%ADD15C,0.152400*%
G04 #@! TD*
G04 #@! TA.AperFunction,Conductor*
%ADD16C,0.762000*%
G04 #@! TD*
G04 #@! TA.AperFunction,Conductor*
%ADD17C,0.254000*%
G04 #@! TD*
G04 #@! TA.AperFunction,Conductor*
%ADD18C,0.381000*%
G04 #@! TD*
G04 APERTURE END LIST*
D10*
X174650000Y-82360000D03*
X174650000Y-79820000D03*
X172110000Y-81090000D03*
X172110000Y-83630000D03*
D11*
X173150000Y-78420000D03*
D10*
X200775000Y-91900000D03*
X203315000Y-91900000D03*
X205855000Y-91900000D03*
X198235000Y-91900000D03*
X204585000Y-89360000D03*
X202045000Y-89360000D03*
X199505000Y-89360000D03*
X196965000Y-89360000D03*
X195695000Y-91900000D03*
X194425000Y-89360000D03*
X193155000Y-91900000D03*
X191885000Y-89360000D03*
X190615000Y-91900000D03*
X189345000Y-89360000D03*
X188075000Y-91900000D03*
X186805000Y-89360000D03*
X185535000Y-91900000D03*
X184265000Y-89360000D03*
X182995000Y-91900000D03*
X181725000Y-89360000D03*
D11*
X207255000Y-90100000D03*
D12*
X176680000Y-92785000D03*
X176680000Y-95325000D03*
X174140000Y-92785000D03*
X174140000Y-95325000D03*
X171600000Y-92785000D03*
D13*
X171600000Y-95325000D03*
D14*
X221300000Y-96450000D03*
X201125000Y-69550000D03*
X201150000Y-71750000D03*
X181600000Y-82300000D03*
X190500000Y-82300000D03*
X183925000Y-95900000D03*
X187867657Y-84857343D03*
X216775000Y-65225000D03*
X216100000Y-68270000D03*
X216525000Y-91575000D03*
X213825000Y-91600000D03*
X212700000Y-71975000D03*
X189650000Y-84150000D03*
X180625000Y-74700000D03*
X197400000Y-84975000D03*
X186775000Y-94225000D03*
X191075000Y-95450000D03*
X216050000Y-74770000D03*
X220090000Y-77870000D03*
X199325000Y-74250000D03*
X182850000Y-74075000D03*
X213150000Y-84675000D03*
X187600000Y-75775000D03*
X186475000Y-76950000D03*
X204616590Y-84547838D03*
X193075000Y-86850000D03*
X198625000Y-81475000D03*
X212700000Y-72825000D03*
X200575000Y-75450000D03*
X209800000Y-66275000D03*
X200050000Y-74775000D03*
X171200000Y-88600000D03*
X209950000Y-86650000D03*
X191300000Y-72075000D03*
X221200000Y-94225000D03*
X189900000Y-73275809D03*
X188850000Y-74075000D03*
X210625000Y-92122710D03*
X214750000Y-96325000D03*
X217900000Y-90547040D03*
X208375000Y-95075000D03*
X224450000Y-96450000D03*
X205650000Y-86550000D03*
X186725000Y-95725000D03*
X209700000Y-73950000D03*
X208950000Y-75650000D03*
X205075000Y-78083400D03*
X210922799Y-71922000D03*
X209950000Y-76300000D03*
D15*
X339300000Y15375000D02*
X342675000Y15375000D01*
X216050000Y-74770000D02*
X217100000Y-74770000D01*
X217100000Y-74770000D02*
X220090000Y-77760000D01*
X220090000Y-77760000D02*
X220090000Y-77870000D01*
X196250000Y-71175000D02*
X189436828Y-71175000D01*
X199325000Y-74250000D02*
X196250000Y-71175000D01*
X189436828Y-71175000D02*
X184532963Y-72549019D01*
X183283290Y-73798692D02*
X182978491Y-74103491D01*
X184532963Y-72549019D02*
X183283290Y-73798692D01*
D16*
X213150000Y-85275000D02*
X213150000Y-84675000D01*
X210040390Y-88384610D02*
X213150000Y-85275000D01*
X204585000Y-89360000D02*
X205560390Y-88384610D01*
X205560390Y-88384610D02*
X210040390Y-88384610D01*
D15*
X180727000Y-81523000D02*
X180787500Y-81462500D01*
X172452400Y-95325000D02*
X171600000Y-95325000D01*
X173150000Y-94627400D02*
X172452400Y-95325000D01*
X180787500Y-81462500D02*
X173150000Y-89100000D01*
X173150000Y-89100000D02*
X173150000Y-94627400D01*
X180787500Y-81462500D02*
X186475000Y-75775000D01*
X186475000Y-75775000D02*
X187400000Y-75775000D01*
X187200000Y-76175000D02*
X187295201Y-76079799D01*
X187200000Y-85300000D02*
X187200000Y-76175000D01*
X190528411Y-88628411D02*
X187200000Y-85300000D01*
X187295201Y-76079799D02*
X187600000Y-75775000D01*
X191556066Y-90700000D02*
X190528411Y-89672345D01*
X190528411Y-89672345D02*
X190528411Y-88628411D01*
X194816399Y-91816399D02*
X193700000Y-90700000D01*
X202045000Y-89360000D02*
X198626399Y-92778601D01*
X193700000Y-90700000D02*
X191556066Y-90700000D01*
X195273271Y-92778601D02*
X194816399Y-92321729D01*
X198626399Y-92778601D02*
X195273271Y-92778601D01*
X194816399Y-92321729D02*
X194816399Y-91816399D01*
X174140000Y-92785000D02*
X173600000Y-92245000D01*
X185731066Y-76950000D02*
X186043948Y-76950000D01*
X173600000Y-89081066D02*
X185731066Y-76950000D01*
X173600000Y-89275000D02*
X173600000Y-89081066D01*
X173600000Y-89275000D02*
X173600000Y-89125000D01*
X186043948Y-76950000D02*
X186475000Y-76950000D01*
X173600000Y-92245000D02*
X173600000Y-89275000D01*
X186875000Y-77350000D02*
X186475000Y-76950000D01*
X186875000Y-85425000D02*
X186875000Y-77350000D01*
X190223601Y-88773601D02*
X186875000Y-85425000D01*
X191429810Y-91004810D02*
X190215165Y-89790165D01*
X199591590Y-93083410D02*
X195133410Y-93083410D01*
X190223601Y-89781729D02*
X190223601Y-88773601D01*
X200775000Y-91900000D02*
X199591590Y-93083410D01*
X194450000Y-92400000D02*
X194450000Y-91894670D01*
X190215165Y-89790165D02*
X190223601Y-89781729D01*
X195133410Y-93083410D02*
X194450000Y-92400000D01*
X194450000Y-91894670D02*
X193560140Y-91004810D01*
X193560140Y-91004810D02*
X191429810Y-91004810D01*
X200683300Y-75296042D02*
X200378501Y-75600841D01*
X208075000Y-67950000D02*
X200575000Y-75450000D01*
X209800000Y-66275000D02*
X209750000Y-66275000D01*
X209750000Y-66275000D02*
X208075000Y-67950000D01*
X200100000Y-74675000D02*
X198450000Y-76325000D01*
D17*
X207700000Y-86650000D02*
X209950000Y-86650000D01*
X194525000Y-73475000D02*
X207700000Y-86650000D01*
X192703427Y-73475000D02*
X194525000Y-73475000D01*
X191939844Y-72711417D02*
X192703427Y-73475000D01*
X191300000Y-72075000D02*
X191936417Y-72711417D01*
X191936417Y-72711417D02*
X191939844Y-72711417D01*
X221200000Y-92400000D02*
X218762830Y-89962830D01*
X216637170Y-89962830D02*
X213500000Y-93100000D01*
X189900000Y-75911328D02*
X189900000Y-73706861D01*
X218762830Y-89962830D02*
X216637170Y-89962830D01*
X202949200Y-90230528D02*
X202949200Y-89831314D01*
X205134100Y-93235812D02*
X204244401Y-92346113D01*
X213500000Y-93100000D02*
X206605265Y-93100000D01*
X204244401Y-91453887D02*
X203761113Y-90970599D01*
X203761113Y-90970599D02*
X203689271Y-90970599D01*
X203689271Y-90970599D02*
X202949200Y-90230528D01*
X202419271Y-88430599D02*
X189900000Y-75911328D01*
X221200000Y-94225000D02*
X221200000Y-92400000D01*
X202491113Y-88430599D02*
X202419271Y-88430599D01*
X202974401Y-88913887D02*
X202491113Y-88430599D01*
X202974401Y-89806113D02*
X202974401Y-88913887D01*
X206605265Y-93100000D02*
X206469453Y-93235812D01*
X206469453Y-93235812D02*
X205134100Y-93235812D01*
X202949200Y-89831314D02*
X202974401Y-89806113D01*
D15*
X189900000Y-73225000D02*
X189900000Y-73275809D01*
D17*
X189900000Y-73706861D02*
X189900000Y-73275809D01*
X204244401Y-92346113D02*
X204244401Y-91453887D01*
X203355611Y-89999654D02*
X203355611Y-90062188D01*
X205408887Y-92829401D02*
X206301113Y-92829401D01*
X204925599Y-92346113D02*
X205408887Y-92829401D01*
X203380812Y-88745547D02*
X203380812Y-89974453D01*
X203929453Y-90564188D02*
X204650812Y-91285547D01*
X203380812Y-89974453D02*
X203355611Y-89999654D01*
X189550000Y-72600000D02*
X190650000Y-72600000D01*
X203355611Y-90062188D02*
X203857611Y-90564188D01*
X204650812Y-91996142D02*
X204925599Y-92270929D01*
X204650812Y-91285547D02*
X204650812Y-91996142D01*
X207007804Y-92122710D02*
X210193948Y-92122710D01*
X206301113Y-92829401D02*
X207007804Y-92122710D01*
X202659453Y-88024188D02*
X203380812Y-88745547D01*
X202587611Y-88024188D02*
X202659453Y-88024188D01*
X191125000Y-76561577D02*
X202587611Y-88024188D01*
X191125000Y-73075000D02*
X191125000Y-76561577D01*
X210193948Y-92122710D02*
X210625000Y-92122710D01*
X190650000Y-72600000D02*
X191125000Y-73075000D01*
X188850000Y-73300000D02*
X189550000Y-72600000D01*
X188850000Y-74075000D02*
X188850000Y-73300000D01*
X204925599Y-92270929D02*
X204925599Y-92346113D01*
X203857611Y-90564188D02*
X203929453Y-90564188D01*
D18*
X217900000Y-90978092D02*
X217900000Y-90547040D01*
X214750000Y-95893948D02*
X217900000Y-92743948D01*
X217900000Y-92743948D02*
X217900000Y-90978092D01*
X214750000Y-96325000D02*
X214750000Y-95893948D01*
X214487727Y-96587273D02*
X174512726Y-96587273D01*
X214750000Y-96325000D02*
X214487727Y-96587273D01*
X170557099Y-96283812D02*
X170858972Y-96585685D01*
X170557099Y-91100191D02*
X170557099Y-96283812D01*
X174650000Y-82360000D02*
X174650000Y-87007290D01*
X170858972Y-96585685D02*
X174512725Y-96587273D01*
X174650000Y-87007290D02*
X170557099Y-91100191D01*
X169911710Y-83288290D02*
X171460001Y-81739999D01*
X224450000Y-96450000D02*
X223766599Y-97133401D01*
X170637932Y-97118999D02*
X169911710Y-96392777D01*
X203777192Y-97133401D02*
X170637932Y-97118999D01*
X223766599Y-97133401D02*
X203777192Y-97133401D01*
X171460001Y-81739999D02*
X172110000Y-81090000D01*
X169911710Y-96392777D02*
X169911710Y-83288290D01*
D15*
X189425000Y-93025000D02*
X186725000Y-95725000D01*
X193155000Y-91900000D02*
X192030000Y-93025000D01*
X192030000Y-93025000D02*
X189425000Y-93025000D01*
X210922799Y-71922000D02*
X210394000Y-72450799D01*
X210394000Y-76056000D02*
X210050000Y-76400000D01*
X210394000Y-72450799D02*
X210394000Y-76056000D01*
M02*
