G04 #@! TF.GenerationSoftware,KiCad,Pcbnew,5.0.2-bee76a0~70~ubuntu16.04.1*
G04 #@! TF.CreationDate,2019-11-05T16:02:50-05:00*
G04 #@! TF.ProjectId,DA_Board_1,44415f42-6f61-4726-945f-312e6b696361,rev?*
G04 #@! TF.SameCoordinates,Original*
G04 #@! TF.FileFunction,Profile,NP*
%FSLAX46Y46*%
G04 Gerber Fmt 4.6, Leading zero omitted, Abs format (unit mm)*
G04 Created by KiCad (PCBNEW 5.0.2-bee76a0~70~ubuntu16.04.1) date Tue 05 Nov 2019 04:02:50 PM EST*
%MOMM*%
%LPD*%
G01*
G04 APERTURE LIST*
%ADD10C,0.200000*%
G04 APERTURE END LIST*
D10*
X223199868Y-183304523D02*
G75*
G03X223199868Y-183304523I-1955800J0D01*
G01*
X179511868Y-183304523D02*
G75*
G03X179511868Y-183304523I-1955800J0D01*
G01*
X270901068Y-179070000D02*
X280860500Y-179070000D01*
X291126175Y-185556618D02*
G75*
G03X280860500Y-179070000I-10265675J-4879882D01*
G01*
X352308068Y-187368523D02*
X337681682Y-187368523D01*
X266887868Y-183304523D02*
G75*
G03X266887868Y-183304523I-1955800J0D01*
G01*
X135823868Y-183304523D02*
G75*
G03X135823868Y-183304523I-1955800J0D01*
G01*
X92135868Y-183304523D02*
G75*
G03X92135868Y-183304523I-1955800J0D01*
G01*
X247438175Y-185556618D02*
G75*
G03X237172500Y-179070000I-10265675J-4879882D01*
G01*
X247438175Y-185556618D02*
G75*
G03X250305682Y-187368523I2867507J1363095D01*
G01*
X46492068Y-187368523D02*
G75*
G03X50556068Y-183304523I0J4064000D01*
G01*
X50556068Y-183304523D02*
X50556068Y-180975000D01*
X52461068Y-179070000D02*
G75*
G03X50556068Y-180975000I0J-1905000D01*
G01*
X354263868Y-183304523D02*
G75*
G03X354263868Y-183304523I-1955800J0D01*
G01*
X116374175Y-185556618D02*
G75*
G03X119241682Y-187368523I2867507J1363095D01*
G01*
X133868068Y-187368523D02*
X119241682Y-187368523D01*
X133868068Y-187368523D02*
G75*
G03X137932068Y-183304523I0J4064000D01*
G01*
X52461068Y-179070000D02*
X62420500Y-179070000D01*
X72686175Y-185556618D02*
G75*
G03X62420500Y-179070000I-10265675J-4879882D01*
G01*
X72686175Y-185556618D02*
G75*
G03X75553682Y-187368523I2867507J1363095D01*
G01*
X137932068Y-183304523D02*
X137932068Y-180975000D01*
X139837068Y-179070000D02*
G75*
G03X137932068Y-180975000I0J-1905000D01*
G01*
X139837068Y-179070000D02*
X149796500Y-179070000D01*
X160062175Y-185556618D02*
G75*
G03X149796500Y-179070000I-10265675J-4879882D01*
G01*
X160062175Y-185556618D02*
G75*
G03X162929682Y-187368523I2867507J1363095D01*
G01*
X177556068Y-187368523D02*
X162929682Y-187368523D01*
X36131500Y-184193523D02*
X36131500Y-128462257D01*
X36131500Y-184193523D02*
G75*
G03X39306500Y-187368523I3175000J0D01*
G01*
X46492068Y-187368523D02*
X39306500Y-187368523D01*
X358277068Y-179070000D02*
G75*
G03X356372068Y-180975000I0J-1905000D01*
G01*
X358277068Y-179070000D02*
X373062500Y-179070000D01*
X373062500Y-179070000D02*
G75*
G03X376237500Y-175895000I0J3175000D01*
G01*
X376237500Y-128462257D02*
X376237500Y-175895000D01*
X227213068Y-179070000D02*
G75*
G03X225308068Y-180975000I0J-1905000D01*
G01*
X227213068Y-179070000D02*
X237172500Y-179070000D01*
X90180068Y-187368523D02*
X75553682Y-187368523D01*
X90180068Y-187368523D02*
G75*
G03X94244068Y-183304523I0J4064000D01*
G01*
X94244068Y-183304523D02*
X94244068Y-180975000D01*
X268996068Y-183304523D02*
X268996068Y-180975000D01*
X270901068Y-179070000D02*
G75*
G03X268996068Y-180975000I0J-1905000D01*
G01*
X376237500Y-128462257D02*
G75*
G03X374345200Y-126569957I-1892300J0D01*
G01*
X38023800Y-126569957D02*
X374345200Y-126569957D01*
X38023800Y-126569957D02*
G75*
G03X36131500Y-128462257I0J-1892300D01*
G01*
X183525068Y-179070000D02*
X193484500Y-179070000D01*
X203750175Y-185556618D02*
G75*
G03X193484500Y-179070000I-10265675J-4879882D01*
G01*
X203750175Y-185556618D02*
G75*
G03X206617682Y-187368523I2867507J1363095D01*
G01*
X264932068Y-187368523D02*
X250305682Y-187368523D01*
X264932068Y-187368523D02*
G75*
G03X268996068Y-183304523I0J4064000D01*
G01*
X374954800Y-129744957D02*
G75*
G03X374954800Y-129744957I-1892300J0D01*
G01*
X352308068Y-187368523D02*
G75*
G03X356372068Y-183304523I0J4064000D01*
G01*
X356372068Y-183304523D02*
X356372068Y-180975000D01*
X221244068Y-187368523D02*
X206617682Y-187368523D01*
X221244068Y-187368523D02*
G75*
G03X225308068Y-183304523I0J4064000D01*
G01*
X225308068Y-183304523D02*
X225308068Y-180975000D01*
X177556068Y-187368523D02*
G75*
G03X181620068Y-183304523I0J4064000D01*
G01*
X181620068Y-183304523D02*
X181620068Y-180975000D01*
X183525068Y-179070000D02*
G75*
G03X181620068Y-180975000I0J-1905000D01*
G01*
X291126175Y-185556618D02*
G75*
G03X293993682Y-187368523I2867507J1363095D01*
G01*
X308620068Y-187368523D02*
X293993682Y-187368523D01*
X308620068Y-187368523D02*
G75*
G03X312684068Y-183304523I0J4064000D01*
G01*
X312684068Y-183304523D02*
X312684068Y-180975000D01*
X334814175Y-185556618D02*
G75*
G03X324548500Y-179070000I-10265675J-4879882D01*
G01*
X334814175Y-185556618D02*
G75*
G03X337681682Y-187368523I2867507J1363095D01*
G01*
X48447868Y-183304523D02*
G75*
G03X48447868Y-183304523I-1955800J0D01*
G01*
X310575868Y-183304523D02*
G75*
G03X310575868Y-183304523I-1955800J0D01*
G01*
X314589068Y-179070000D02*
G75*
G03X312684068Y-180975000I0J-1905000D01*
G01*
X314589068Y-179070000D02*
X324548500Y-179070000D01*
X96149068Y-179070000D02*
G75*
G03X94244068Y-180975000I0J-1905000D01*
G01*
X96149068Y-179070000D02*
X106108500Y-179070000D01*
X116374175Y-185556618D02*
G75*
G03X106108500Y-179070000I-10265675J-4879882D01*
G01*
X41201432Y-129752234D02*
G75*
G03X41201432Y-129752234I-1892300J0D01*
G01*
M02*
