M48
; DRILL file {KiCad 5.1.4-e60b266~84~ubuntu18.04.1} date Mon 09 Dec 2019 09:44:12 PM EST
; FORMAT={-:-/ absolute / inch / decimal}
; #@! TF.CreationDate,2019-12-09T21:44:12-05:00
; #@! TF.GenerationSoftware,Kicad,Pcbnew,5.1.4-e60b266~84~ubuntu18.04.1
FMAT,2
INCH
T1C0.0120
T2C0.0157
T3C0.0400
T4C0.0571
T5C0.0984
%
G90
G05
T1
X1.915Y-4.02
X1.9394Y-3.9344
X2.22Y-4.21
X2.2309Y-4.6209
X2.25Y-3.725
X2.25Y-3.99
X2.25Y-4.055
X2.36Y-4.21
X2.365Y-5.37
X2.4Y-4.735
X2.4191Y-4.4241
X2.455Y-3.92
X2.475Y-4.49
X2.485Y-4.175
X2.4876Y-4.8
X2.5438Y-4.8562
X2.545Y-4.21
X2.6175Y-5.4675
X2.655Y-4.31
X2.68Y-5.3
X2.715Y-4.805
X2.7163Y-4.9713
X2.805Y-5.14
X2.83Y-4.7433
X2.835Y-5.25
X2.843Y-4.792
X2.845Y-4.83
X2.88Y-4.795
X2.88Y-4.865
X2.93Y-5.76
X2.97Y-4.435
X2.985Y-4.825
X3.003Y-4.877
X3.055Y-5.76
X3.06Y-4.985
X3.09Y-4.885
X3.09Y-5.08
X3.125Y-4.885
X3.125Y-5.08
X3.16Y-4.885
X3.16Y-5.035
X3.1797Y-4.205
X3.275Y-4.315
X3.275Y-4.435
X3.2813Y-4.9513
X3.2815Y-4.9065
X3.2859Y-4.6641
X3.32Y-4.28
X3.32Y-4.435
X3.3916Y-4.9216
X3.395Y-4.715
X3.41Y-4.325
X3.4559Y-4.7005
X3.5066Y-5.3716
X3.5141Y-4.4759
X3.5371Y-4.5129
X3.5751Y-4.5684
X3.64Y-4.43
X3.64Y-4.505
X3.645Y-4.335
X3.86Y-4.425
T2
X2.6148Y-3.6778
X2.6153Y-3.5644
X2.6178Y-3.4936
X2.742Y-3.4936
X2.8589Y-3.4921
X2.9703Y-3.4926
X3.6179Y-4.2164
X3.7293Y-3.8414
X3.7307Y-3.9727
X3.7307Y-4.0804
X3.7307Y-4.1631
T3
X3.76Y-4.715
X3.76Y-4.815
X3.76Y-4.915
X3.86Y-4.715
X3.86Y-4.815
X3.86Y-4.915
T4
X2.806Y-4.2489
X2.806Y-5.0363
T5
X2.39Y-3.585
X2.39Y-3.765
T0
M30
