G04 #@! TF.GenerationSoftware,KiCad,Pcbnew,5.1.4-e60b266~84~ubuntu18.04.1*
G04 #@! TF.CreationDate,2019-12-09T21:46:42-05:00*
G04 #@! TF.ProjectId,Accelerometer_Module,41636365-6c65-4726-9f6d-657465725f4d,rev?*
G04 #@! TF.SameCoordinates,Original*
G04 #@! TF.FileFunction,Legend,Top*
G04 #@! TF.FilePolarity,Positive*
%FSLAX46Y46*%
G04 Gerber Fmt 4.6, Leading zero omitted, Abs format (unit mm)*
G04 Created by KiCad (PCBNEW 5.1.4-e60b266~84~ubuntu18.04.1) date 2019-12-09 21:46:42*
%MOMM*%
%LPD*%
G04 APERTURE LIST*
%ADD10C,0.150000*%
%ADD11C,0.200000*%
%ADD12C,0.287500*%
%ADD13C,0.190500*%
%ADD14C,0.300000*%
%ADD15C,0.120000*%
%ADD16C,0.100000*%
G04 APERTURE END LIST*
D10*
X52548428Y-93288928D02*
X52655571Y-93324642D01*
X52691285Y-93360357D01*
X52727000Y-93431785D01*
X52727000Y-93538928D01*
X52691285Y-93610357D01*
X52655571Y-93646071D01*
X52584142Y-93681785D01*
X52298428Y-93681785D01*
X52298428Y-92931785D01*
X52548428Y-92931785D01*
X52619857Y-92967500D01*
X52655571Y-93003214D01*
X52691285Y-93074642D01*
X52691285Y-93146071D01*
X52655571Y-93217500D01*
X52619857Y-93253214D01*
X52548428Y-93288928D01*
X52298428Y-93288928D01*
X53369857Y-93681785D02*
X53369857Y-93288928D01*
X53334142Y-93217500D01*
X53262714Y-93181785D01*
X53119857Y-93181785D01*
X53048428Y-93217500D01*
X53369857Y-93646071D02*
X53298428Y-93681785D01*
X53119857Y-93681785D01*
X53048428Y-93646071D01*
X53012714Y-93574642D01*
X53012714Y-93503214D01*
X53048428Y-93431785D01*
X53119857Y-93396071D01*
X53298428Y-93396071D01*
X53369857Y-93360357D01*
X53619857Y-93181785D02*
X53905571Y-93181785D01*
X53727000Y-92931785D02*
X53727000Y-93574642D01*
X53762714Y-93646071D01*
X53834142Y-93681785D01*
X53905571Y-93681785D01*
X54048428Y-93181785D02*
X54334142Y-93181785D01*
X54155571Y-92931785D02*
X54155571Y-93574642D01*
X54191285Y-93646071D01*
X54262714Y-93681785D01*
X54334142Y-93681785D01*
X54869857Y-93646071D02*
X54798428Y-93681785D01*
X54655571Y-93681785D01*
X54584142Y-93646071D01*
X54548428Y-93574642D01*
X54548428Y-93288928D01*
X54584142Y-93217500D01*
X54655571Y-93181785D01*
X54798428Y-93181785D01*
X54869857Y-93217500D01*
X54905571Y-93288928D01*
X54905571Y-93360357D01*
X54548428Y-93431785D01*
X55227000Y-93681785D02*
X55227000Y-93181785D01*
X55227000Y-93324642D02*
X55262714Y-93253214D01*
X55298428Y-93217500D01*
X55369857Y-93181785D01*
X55441285Y-93181785D01*
X55619857Y-93181785D02*
X55798428Y-93681785D01*
X55977000Y-93181785D02*
X55798428Y-93681785D01*
X55727000Y-93860357D01*
X55691285Y-93896071D01*
X55619857Y-93931785D01*
X52209142Y-94956785D02*
X52209142Y-94206785D01*
X52459142Y-94742500D01*
X52709142Y-94206785D01*
X52709142Y-94956785D01*
X53173428Y-94956785D02*
X53102000Y-94921071D01*
X53066285Y-94885357D01*
X53030571Y-94813928D01*
X53030571Y-94599642D01*
X53066285Y-94528214D01*
X53102000Y-94492500D01*
X53173428Y-94456785D01*
X53280571Y-94456785D01*
X53352000Y-94492500D01*
X53387714Y-94528214D01*
X53423428Y-94599642D01*
X53423428Y-94813928D01*
X53387714Y-94885357D01*
X53352000Y-94921071D01*
X53280571Y-94956785D01*
X53173428Y-94956785D01*
X53744857Y-94456785D02*
X53744857Y-94956785D01*
X53744857Y-94528214D02*
X53780571Y-94492500D01*
X53852000Y-94456785D01*
X53959142Y-94456785D01*
X54030571Y-94492500D01*
X54066285Y-94563928D01*
X54066285Y-94956785D01*
X54423428Y-94956785D02*
X54423428Y-94456785D01*
X54423428Y-94206785D02*
X54387714Y-94242500D01*
X54423428Y-94278214D01*
X54459142Y-94242500D01*
X54423428Y-94206785D01*
X54423428Y-94278214D01*
X54673428Y-94456785D02*
X54959142Y-94456785D01*
X54780571Y-94206785D02*
X54780571Y-94849642D01*
X54816285Y-94921071D01*
X54887714Y-94956785D01*
X54959142Y-94956785D01*
X55316285Y-94956785D02*
X55244857Y-94921071D01*
X55209142Y-94885357D01*
X55173428Y-94813928D01*
X55173428Y-94599642D01*
X55209142Y-94528214D01*
X55244857Y-94492500D01*
X55316285Y-94456785D01*
X55423428Y-94456785D01*
X55494857Y-94492500D01*
X55530571Y-94528214D01*
X55566285Y-94599642D01*
X55566285Y-94813928D01*
X55530571Y-94885357D01*
X55494857Y-94921071D01*
X55423428Y-94956785D01*
X55316285Y-94956785D01*
X55887714Y-94956785D02*
X55887714Y-94456785D01*
X55887714Y-94599642D02*
X55923428Y-94528214D01*
X55959142Y-94492500D01*
X56030571Y-94456785D01*
X56102000Y-94456785D01*
X87030840Y-111904542D02*
X87367557Y-112241259D01*
X86761466Y-112039229D02*
X87704275Y-111567824D01*
X87232870Y-112510633D01*
X87838962Y-112173916D02*
X88108336Y-112443290D01*
X88175679Y-112039229D02*
X87569588Y-112645320D01*
X87535916Y-112746336D01*
X87569588Y-112847351D01*
X87636931Y-112914694D01*
X87872633Y-113150397D02*
X88344038Y-112678992D01*
X88276694Y-112746336D02*
X88344038Y-112746336D01*
X88445053Y-112780007D01*
X88546068Y-112881023D01*
X88579740Y-112982038D01*
X88546068Y-113083053D01*
X88175679Y-113453442D01*
X88546068Y-113083053D02*
X88647084Y-113049381D01*
X88748099Y-113083053D01*
X88849114Y-113184068D01*
X88882786Y-113285084D01*
X88849114Y-113386099D01*
X88478725Y-113756488D01*
X89118488Y-114328908D02*
X89017473Y-114295236D01*
X88882786Y-114160549D01*
X88849114Y-114059534D01*
X88882786Y-113958519D01*
X89152160Y-113689145D01*
X89253175Y-113655473D01*
X89354190Y-113689145D01*
X89488877Y-113823832D01*
X89522549Y-113924847D01*
X89488877Y-114025862D01*
X89421534Y-114093206D01*
X89017473Y-113823832D01*
X90195984Y-114530938D02*
X89623564Y-115103358D01*
X89522549Y-115137030D01*
X89455206Y-115137030D01*
X89354190Y-115103358D01*
X89253175Y-115002343D01*
X89219503Y-114901328D01*
X89758251Y-114968671D02*
X89657236Y-114935000D01*
X89522549Y-114800312D01*
X89488877Y-114699297D01*
X89488877Y-114631954D01*
X89522549Y-114530938D01*
X89724580Y-114328908D01*
X89825595Y-114295236D01*
X89892938Y-114295236D01*
X89993954Y-114328908D01*
X90128641Y-114463595D01*
X90162312Y-114564610D01*
X90364343Y-115642106D02*
X90734732Y-115271717D01*
X90768404Y-115170702D01*
X90734732Y-115069687D01*
X90600045Y-114934999D01*
X90499030Y-114901328D01*
X90398015Y-115608435D02*
X90296999Y-115574763D01*
X90128641Y-115406404D01*
X90094969Y-115305389D01*
X90128641Y-115204374D01*
X90195984Y-115137030D01*
X90297000Y-115103358D01*
X90398015Y-115137030D01*
X90566374Y-115305389D01*
X90667389Y-115339061D01*
X91340824Y-115204374D02*
X91778557Y-115642106D01*
X91273480Y-115675778D01*
X91374496Y-115776793D01*
X91408167Y-115877809D01*
X91408167Y-115945152D01*
X91374496Y-116046167D01*
X91206137Y-116214526D01*
X91105122Y-116248198D01*
X91037778Y-116248198D01*
X90936763Y-116214526D01*
X90734732Y-116012496D01*
X90701061Y-115911480D01*
X90701061Y-115844137D01*
X91980587Y-115978824D02*
X92047931Y-115978824D01*
X92148946Y-116012496D01*
X92317305Y-116180854D01*
X92350976Y-116281870D01*
X92350976Y-116349213D01*
X92317305Y-116450228D01*
X92249961Y-116517572D01*
X92115274Y-116584915D01*
X91307152Y-116584915D01*
X91744885Y-117022648D01*
X92553007Y-117022648D02*
X92519335Y-116921633D01*
X92519335Y-116854289D01*
X92553007Y-116753274D01*
X92586679Y-116719602D01*
X92687694Y-116685931D01*
X92755037Y-116685931D01*
X92856053Y-116719602D01*
X92990740Y-116854289D01*
X93024411Y-116955305D01*
X93024411Y-117022648D01*
X92990740Y-117123663D01*
X92957068Y-117157335D01*
X92856053Y-117191007D01*
X92788709Y-117191007D01*
X92687694Y-117157335D01*
X92553007Y-117022648D01*
X92451992Y-116988976D01*
X92384648Y-116988976D01*
X92283633Y-117022648D01*
X92148946Y-117157335D01*
X92115274Y-117258350D01*
X92115274Y-117325694D01*
X92148946Y-117426709D01*
X92283633Y-117561396D01*
X92384648Y-117595068D01*
X92451992Y-117595068D01*
X92553007Y-117561396D01*
X92687694Y-117426709D01*
X92721366Y-117325694D01*
X92721366Y-117258350D01*
X92687694Y-117157335D01*
X92721366Y-117999129D02*
X93428472Y-117292022D01*
X93697846Y-117561396D01*
X93731518Y-117662411D01*
X93731518Y-117729755D01*
X93697846Y-117830770D01*
X93596831Y-117931785D01*
X93495816Y-117965457D01*
X93428472Y-117965457D01*
X93327457Y-117931785D01*
X93058083Y-117662411D01*
X74874380Y-148050095D02*
X73874380Y-148050095D01*
X73874380Y-147669142D01*
X73922000Y-147573904D01*
X73969619Y-147526285D01*
X74064857Y-147478666D01*
X74207714Y-147478666D01*
X74302952Y-147526285D01*
X74350571Y-147573904D01*
X74398190Y-147669142D01*
X74398190Y-148050095D01*
X74874380Y-147050095D02*
X73874380Y-147050095D01*
X73874380Y-146812000D01*
X73922000Y-146669142D01*
X74017238Y-146573904D01*
X74112476Y-146526285D01*
X74302952Y-146478666D01*
X74445809Y-146478666D01*
X74636285Y-146526285D01*
X74731523Y-146573904D01*
X74826761Y-146669142D01*
X74874380Y-146812000D01*
X74874380Y-147050095D01*
X73874380Y-145573904D02*
X73874380Y-146050095D01*
X74350571Y-146097714D01*
X74302952Y-146050095D01*
X74255333Y-145954857D01*
X74255333Y-145716761D01*
X74302952Y-145621523D01*
X74350571Y-145573904D01*
X74445809Y-145526285D01*
X74683904Y-145526285D01*
X74779142Y-145573904D01*
X74826761Y-145621523D01*
X74874380Y-145716761D01*
X74874380Y-145954857D01*
X74826761Y-146050095D01*
X74779142Y-146097714D01*
X78049380Y-148050095D02*
X77049380Y-148050095D01*
X77049380Y-147669142D01*
X77097000Y-147573904D01*
X77144619Y-147526285D01*
X77239857Y-147478666D01*
X77382714Y-147478666D01*
X77477952Y-147526285D01*
X77525571Y-147573904D01*
X77573190Y-147669142D01*
X77573190Y-148050095D01*
X78049380Y-147050095D02*
X77049380Y-147050095D01*
X77049380Y-146812000D01*
X77097000Y-146669142D01*
X77192238Y-146573904D01*
X77287476Y-146526285D01*
X77477952Y-146478666D01*
X77620809Y-146478666D01*
X77811285Y-146526285D01*
X77906523Y-146573904D01*
X78001761Y-146669142D01*
X78049380Y-146812000D01*
X78049380Y-147050095D01*
X77049380Y-145621523D02*
X77049380Y-145812000D01*
X77097000Y-145907238D01*
X77144619Y-145954857D01*
X77287476Y-146050095D01*
X77477952Y-146097714D01*
X77858904Y-146097714D01*
X77954142Y-146050095D01*
X78001761Y-146002476D01*
X78049380Y-145907238D01*
X78049380Y-145716761D01*
X78001761Y-145621523D01*
X77954142Y-145573904D01*
X77858904Y-145526285D01*
X77620809Y-145526285D01*
X77525571Y-145573904D01*
X77477952Y-145621523D01*
X77430333Y-145716761D01*
X77430333Y-145907238D01*
X77477952Y-146002476D01*
X77525571Y-146050095D01*
X77620809Y-146097714D01*
D11*
X76307904Y-144583000D02*
X75926952Y-144849666D01*
X76307904Y-145040142D02*
X75507904Y-145040142D01*
X75507904Y-144735380D01*
X75546000Y-144659190D01*
X75584095Y-144621095D01*
X75660285Y-144583000D01*
X75774571Y-144583000D01*
X75850761Y-144621095D01*
X75888857Y-144659190D01*
X75926952Y-144735380D01*
X75926952Y-145040142D01*
X75888857Y-144240142D02*
X75888857Y-143973476D01*
X76307904Y-143859190D02*
X76307904Y-144240142D01*
X75507904Y-144240142D01*
X75507904Y-143859190D01*
X76079333Y-143554428D02*
X76079333Y-143173476D01*
X76307904Y-143630619D02*
X75507904Y-143363952D01*
X76307904Y-143097285D01*
X76307904Y-142830619D02*
X75507904Y-142830619D01*
X75507904Y-142640142D01*
X75546000Y-142525857D01*
X75622190Y-142449666D01*
X75698380Y-142411571D01*
X75850761Y-142373476D01*
X75965047Y-142373476D01*
X76117428Y-142411571D01*
X76193619Y-142449666D01*
X76269809Y-142525857D01*
X76307904Y-142640142D01*
X76307904Y-142830619D01*
X75926952Y-141878238D02*
X76307904Y-141878238D01*
X75507904Y-142144904D02*
X75926952Y-141878238D01*
X75507904Y-141611571D01*
D10*
X92559619Y-128595380D02*
X92083428Y-128595380D01*
X92083428Y-127595380D01*
X92892952Y-128071571D02*
X93226285Y-128071571D01*
X93369142Y-128595380D02*
X92892952Y-128595380D01*
X92892952Y-127595380D01*
X93369142Y-127595380D01*
X93797714Y-128595380D02*
X93797714Y-127595380D01*
X94035809Y-127595380D01*
X94178666Y-127643000D01*
X94273904Y-127738238D01*
X94321523Y-127833476D01*
X94369142Y-128023952D01*
X94369142Y-128166809D01*
X94321523Y-128357285D01*
X94273904Y-128452523D01*
X94178666Y-128547761D01*
X94035809Y-128595380D01*
X93797714Y-128595380D01*
X96035809Y-128595380D02*
X95559619Y-128595380D01*
X95559619Y-127595380D01*
X96797714Y-128595380D02*
X96797714Y-128071571D01*
X96750095Y-127976333D01*
X96654857Y-127928714D01*
X96464380Y-127928714D01*
X96369142Y-127976333D01*
X96797714Y-128547761D02*
X96702476Y-128595380D01*
X96464380Y-128595380D01*
X96369142Y-128547761D01*
X96321523Y-128452523D01*
X96321523Y-128357285D01*
X96369142Y-128262047D01*
X96464380Y-128214428D01*
X96702476Y-128214428D01*
X96797714Y-128166809D01*
X97178666Y-127928714D02*
X97416761Y-128595380D01*
X97654857Y-127928714D02*
X97416761Y-128595380D01*
X97321523Y-128833476D01*
X97273904Y-128881095D01*
X97178666Y-128928714D01*
X98178666Y-128595380D02*
X98083428Y-128547761D01*
X98035809Y-128500142D01*
X97988190Y-128404904D01*
X97988190Y-128119190D01*
X98035809Y-128023952D01*
X98083428Y-127976333D01*
X98178666Y-127928714D01*
X98321523Y-127928714D01*
X98416761Y-127976333D01*
X98464380Y-128023952D01*
X98512000Y-128119190D01*
X98512000Y-128404904D01*
X98464380Y-128500142D01*
X98416761Y-128547761D01*
X98321523Y-128595380D01*
X98178666Y-128595380D01*
X99369142Y-127928714D02*
X99369142Y-128595380D01*
X98940571Y-127928714D02*
X98940571Y-128452523D01*
X98988190Y-128547761D01*
X99083428Y-128595380D01*
X99226285Y-128595380D01*
X99321523Y-128547761D01*
X99369142Y-128500142D01*
X99702476Y-127928714D02*
X100083428Y-127928714D01*
X99845333Y-127595380D02*
X99845333Y-128452523D01*
X99892952Y-128547761D01*
X99988190Y-128595380D01*
X100083428Y-128595380D01*
X91741857Y-132659380D02*
X91741857Y-131659380D01*
X92122809Y-131659380D01*
X92218047Y-131707000D01*
X92265666Y-131754619D01*
X92313285Y-131849857D01*
X92313285Y-131992714D01*
X92265666Y-132087952D01*
X92218047Y-132135571D01*
X92122809Y-132183190D01*
X91741857Y-132183190D01*
X93313285Y-132564142D02*
X93265666Y-132611761D01*
X93122809Y-132659380D01*
X93027571Y-132659380D01*
X92884714Y-132611761D01*
X92789476Y-132516523D01*
X92741857Y-132421285D01*
X92694238Y-132230809D01*
X92694238Y-132087952D01*
X92741857Y-131897476D01*
X92789476Y-131802238D01*
X92884714Y-131707000D01*
X93027571Y-131659380D01*
X93122809Y-131659380D01*
X93265666Y-131707000D01*
X93313285Y-131754619D01*
X93932333Y-131659380D02*
X94027571Y-131659380D01*
X94122809Y-131707000D01*
X94170428Y-131754619D01*
X94218047Y-131849857D01*
X94265666Y-132040333D01*
X94265666Y-132278428D01*
X94218047Y-132468904D01*
X94170428Y-132564142D01*
X94122809Y-132611761D01*
X94027571Y-132659380D01*
X93932333Y-132659380D01*
X93837095Y-132611761D01*
X93789476Y-132564142D01*
X93741857Y-132468904D01*
X93694238Y-132278428D01*
X93694238Y-132040333D01*
X93741857Y-131849857D01*
X93789476Y-131754619D01*
X93837095Y-131707000D01*
X93932333Y-131659380D01*
X94694238Y-132278428D02*
X95456142Y-132278428D01*
X91741857Y-131389380D02*
X91741857Y-130389380D01*
X92122809Y-130389380D01*
X92218047Y-130437000D01*
X92265666Y-130484619D01*
X92313285Y-130579857D01*
X92313285Y-130722714D01*
X92265666Y-130817952D01*
X92218047Y-130865571D01*
X92122809Y-130913190D01*
X91741857Y-130913190D01*
X93313285Y-131294142D02*
X93265666Y-131341761D01*
X93122809Y-131389380D01*
X93027571Y-131389380D01*
X92884714Y-131341761D01*
X92789476Y-131246523D01*
X92741857Y-131151285D01*
X92694238Y-130960809D01*
X92694238Y-130817952D01*
X92741857Y-130627476D01*
X92789476Y-130532238D01*
X92884714Y-130437000D01*
X93027571Y-130389380D01*
X93122809Y-130389380D01*
X93265666Y-130437000D01*
X93313285Y-130484619D01*
X94265666Y-131389380D02*
X93694238Y-131389380D01*
X93979952Y-131389380D02*
X93979952Y-130389380D01*
X93884714Y-130532238D01*
X93789476Y-130627476D01*
X93694238Y-130675095D01*
X94694238Y-131008428D02*
X95456142Y-131008428D01*
X91741857Y-130119380D02*
X91741857Y-129119380D01*
X92122809Y-129119380D01*
X92218047Y-129167000D01*
X92265666Y-129214619D01*
X92313285Y-129309857D01*
X92313285Y-129452714D01*
X92265666Y-129547952D01*
X92218047Y-129595571D01*
X92122809Y-129643190D01*
X91741857Y-129643190D01*
X93313285Y-130024142D02*
X93265666Y-130071761D01*
X93122809Y-130119380D01*
X93027571Y-130119380D01*
X92884714Y-130071761D01*
X92789476Y-129976523D01*
X92741857Y-129881285D01*
X92694238Y-129690809D01*
X92694238Y-129547952D01*
X92741857Y-129357476D01*
X92789476Y-129262238D01*
X92884714Y-129167000D01*
X93027571Y-129119380D01*
X93122809Y-129119380D01*
X93265666Y-129167000D01*
X93313285Y-129214619D01*
X93694238Y-129214619D02*
X93741857Y-129167000D01*
X93837095Y-129119380D01*
X94075190Y-129119380D01*
X94170428Y-129167000D01*
X94218047Y-129214619D01*
X94265666Y-129309857D01*
X94265666Y-129405095D01*
X94218047Y-129547952D01*
X93646619Y-130119380D01*
X94265666Y-130119380D01*
X94694238Y-129738428D02*
X95456142Y-129738428D01*
D12*
X90790428Y-143141238D02*
X90242809Y-143141238D01*
X90242809Y-141991238D01*
X91392809Y-141991238D02*
X91611857Y-141991238D01*
X91721380Y-142046000D01*
X91830904Y-142155523D01*
X91885666Y-142374571D01*
X91885666Y-142757904D01*
X91830904Y-142976952D01*
X91721380Y-143086476D01*
X91611857Y-143141238D01*
X91392809Y-143141238D01*
X91283285Y-143086476D01*
X91173761Y-142976952D01*
X91119000Y-142757904D01*
X91119000Y-142374571D01*
X91173761Y-142155523D01*
X91283285Y-142046000D01*
X91392809Y-141991238D01*
X92269000Y-141991238D02*
X92542809Y-143141238D01*
X92761857Y-142319809D01*
X92980904Y-143141238D01*
X93254714Y-141991238D01*
X90215428Y-141109238D02*
X90215428Y-139959238D01*
X90598761Y-140780666D01*
X90982095Y-139959238D01*
X90982095Y-141109238D01*
X91529714Y-140506857D02*
X91913047Y-140506857D01*
X92077333Y-141109238D02*
X91529714Y-141109238D01*
X91529714Y-139959238D01*
X92077333Y-139959238D01*
X92570190Y-141109238D02*
X92570190Y-139959238D01*
X92844000Y-139959238D01*
X93008285Y-140014000D01*
X93117809Y-140123523D01*
X93172571Y-140233047D01*
X93227333Y-140452095D01*
X93227333Y-140616380D01*
X93172571Y-140835428D01*
X93117809Y-140944952D01*
X93008285Y-141054476D01*
X92844000Y-141109238D01*
X92570190Y-141109238D01*
X90295238Y-139077238D02*
X90295238Y-137927238D01*
X90295238Y-138474857D02*
X90952380Y-138474857D01*
X90952380Y-139077238D02*
X90952380Y-137927238D01*
X91500000Y-139077238D02*
X91500000Y-137927238D01*
X92650000Y-137982000D02*
X92540476Y-137927238D01*
X92376190Y-137927238D01*
X92211904Y-137982000D01*
X92102380Y-138091523D01*
X92047619Y-138201047D01*
X91992857Y-138420095D01*
X91992857Y-138584380D01*
X92047619Y-138803428D01*
X92102380Y-138912952D01*
X92211904Y-139022476D01*
X92376190Y-139077238D01*
X92485714Y-139077238D01*
X92650000Y-139022476D01*
X92704761Y-138967714D01*
X92704761Y-138584380D01*
X92485714Y-138584380D01*
X93197619Y-139077238D02*
X93197619Y-137927238D01*
X93197619Y-138474857D02*
X93854761Y-138474857D01*
X93854761Y-139077238D02*
X93854761Y-137927238D01*
D11*
X69919809Y-145687761D02*
X69957904Y-145573476D01*
X69957904Y-145383000D01*
X69919809Y-145306809D01*
X69881714Y-145268714D01*
X69805523Y-145230619D01*
X69729333Y-145230619D01*
X69653142Y-145268714D01*
X69615047Y-145306809D01*
X69576952Y-145383000D01*
X69538857Y-145535380D01*
X69500761Y-145611571D01*
X69462666Y-145649666D01*
X69386476Y-145687761D01*
X69310285Y-145687761D01*
X69234095Y-145649666D01*
X69196000Y-145611571D01*
X69157904Y-145535380D01*
X69157904Y-145344904D01*
X69196000Y-145230619D01*
X69957904Y-144887761D02*
X69157904Y-144887761D01*
X69157904Y-144697285D01*
X69196000Y-144583000D01*
X69272190Y-144506809D01*
X69348380Y-144468714D01*
X69500761Y-144430619D01*
X69615047Y-144430619D01*
X69767428Y-144468714D01*
X69843619Y-144506809D01*
X69919809Y-144583000D01*
X69957904Y-144697285D01*
X69957904Y-144887761D01*
X69881714Y-143021095D02*
X69919809Y-143059190D01*
X69957904Y-143173476D01*
X69957904Y-143249666D01*
X69919809Y-143363952D01*
X69843619Y-143440142D01*
X69767428Y-143478238D01*
X69615047Y-143516333D01*
X69500761Y-143516333D01*
X69348380Y-143478238D01*
X69272190Y-143440142D01*
X69196000Y-143363952D01*
X69157904Y-143249666D01*
X69157904Y-143173476D01*
X69196000Y-143059190D01*
X69234095Y-143021095D01*
X69957904Y-142335380D02*
X69538857Y-142335380D01*
X69462666Y-142373476D01*
X69424571Y-142449666D01*
X69424571Y-142602047D01*
X69462666Y-142678238D01*
X69919809Y-142335380D02*
X69957904Y-142411571D01*
X69957904Y-142602047D01*
X69919809Y-142678238D01*
X69843619Y-142716333D01*
X69767428Y-142716333D01*
X69691238Y-142678238D01*
X69653142Y-142602047D01*
X69653142Y-142411571D01*
X69615047Y-142335380D01*
X69957904Y-141954428D02*
X69424571Y-141954428D01*
X69576952Y-141954428D02*
X69500761Y-141916333D01*
X69462666Y-141878238D01*
X69424571Y-141802047D01*
X69424571Y-141725857D01*
X69957904Y-141116333D02*
X69157904Y-141116333D01*
X69919809Y-141116333D02*
X69957904Y-141192523D01*
X69957904Y-141344904D01*
X69919809Y-141421095D01*
X69881714Y-141459190D01*
X69805523Y-141497285D01*
X69576952Y-141497285D01*
X69500761Y-141459190D01*
X69462666Y-141421095D01*
X69424571Y-141344904D01*
X69424571Y-141192523D01*
X69462666Y-141116333D01*
X66554333Y-147459190D02*
X66554333Y-147078238D01*
X66782904Y-147535380D02*
X65982904Y-147268714D01*
X66782904Y-147002047D01*
X66744809Y-146392523D02*
X66782904Y-146468714D01*
X66782904Y-146621095D01*
X66744809Y-146697285D01*
X66706714Y-146735380D01*
X66630523Y-146773476D01*
X66401952Y-146773476D01*
X66325761Y-146735380D01*
X66287666Y-146697285D01*
X66249571Y-146621095D01*
X66249571Y-146468714D01*
X66287666Y-146392523D01*
X66744809Y-145706809D02*
X66782904Y-145783000D01*
X66782904Y-145935380D01*
X66744809Y-146011571D01*
X66706714Y-146049666D01*
X66630523Y-146087761D01*
X66401952Y-146087761D01*
X66325761Y-146049666D01*
X66287666Y-146011571D01*
X66249571Y-145935380D01*
X66249571Y-145783000D01*
X66287666Y-145706809D01*
X66744809Y-145059190D02*
X66782904Y-145135380D01*
X66782904Y-145287761D01*
X66744809Y-145363952D01*
X66668619Y-145402047D01*
X66363857Y-145402047D01*
X66287666Y-145363952D01*
X66249571Y-145287761D01*
X66249571Y-145135380D01*
X66287666Y-145059190D01*
X66363857Y-145021095D01*
X66440047Y-145021095D01*
X66516238Y-145402047D01*
X66782904Y-144563952D02*
X66744809Y-144640142D01*
X66668619Y-144678238D01*
X65982904Y-144678238D01*
X66744809Y-143954428D02*
X66782904Y-144030619D01*
X66782904Y-144183000D01*
X66744809Y-144259190D01*
X66668619Y-144297285D01*
X66363857Y-144297285D01*
X66287666Y-144259190D01*
X66249571Y-144183000D01*
X66249571Y-144030619D01*
X66287666Y-143954428D01*
X66363857Y-143916333D01*
X66440047Y-143916333D01*
X66516238Y-144297285D01*
X66782904Y-143573476D02*
X66249571Y-143573476D01*
X66401952Y-143573476D02*
X66325761Y-143535380D01*
X66287666Y-143497285D01*
X66249571Y-143421095D01*
X66249571Y-143344904D01*
X66782904Y-142963952D02*
X66744809Y-143040142D01*
X66706714Y-143078238D01*
X66630523Y-143116333D01*
X66401952Y-143116333D01*
X66325761Y-143078238D01*
X66287666Y-143040142D01*
X66249571Y-142963952D01*
X66249571Y-142849666D01*
X66287666Y-142773476D01*
X66325761Y-142735380D01*
X66401952Y-142697285D01*
X66630523Y-142697285D01*
X66706714Y-142735380D01*
X66744809Y-142773476D01*
X66782904Y-142849666D01*
X66782904Y-142963952D01*
X66782904Y-142354428D02*
X66249571Y-142354428D01*
X66325761Y-142354428D02*
X66287666Y-142316333D01*
X66249571Y-142240142D01*
X66249571Y-142125857D01*
X66287666Y-142049666D01*
X66363857Y-142011571D01*
X66782904Y-142011571D01*
X66363857Y-142011571D02*
X66287666Y-141973476D01*
X66249571Y-141897285D01*
X66249571Y-141783000D01*
X66287666Y-141706809D01*
X66363857Y-141668714D01*
X66782904Y-141668714D01*
X66744809Y-140983000D02*
X66782904Y-141059190D01*
X66782904Y-141211571D01*
X66744809Y-141287761D01*
X66668619Y-141325857D01*
X66363857Y-141325857D01*
X66287666Y-141287761D01*
X66249571Y-141211571D01*
X66249571Y-141059190D01*
X66287666Y-140983000D01*
X66363857Y-140944904D01*
X66440047Y-140944904D01*
X66516238Y-141325857D01*
X66249571Y-140716333D02*
X66249571Y-140411571D01*
X65982904Y-140602047D02*
X66668619Y-140602047D01*
X66744809Y-140563952D01*
X66782904Y-140487761D01*
X66782904Y-140411571D01*
X66744809Y-139840142D02*
X66782904Y-139916333D01*
X66782904Y-140068714D01*
X66744809Y-140144904D01*
X66668619Y-140183000D01*
X66363857Y-140183000D01*
X66287666Y-140144904D01*
X66249571Y-140068714D01*
X66249571Y-139916333D01*
X66287666Y-139840142D01*
X66363857Y-139802047D01*
X66440047Y-139802047D01*
X66516238Y-140183000D01*
X66782904Y-139459190D02*
X66249571Y-139459190D01*
X66401952Y-139459190D02*
X66325761Y-139421095D01*
X66287666Y-139383000D01*
X66249571Y-139306809D01*
X66249571Y-139230619D01*
D13*
X62998047Y-89867619D02*
X63191571Y-89867619D01*
X63288333Y-89819238D01*
X63336714Y-89770857D01*
X63433476Y-89625714D01*
X63481857Y-89432190D01*
X63481857Y-89045142D01*
X63433476Y-88948380D01*
X63385095Y-88900000D01*
X63288333Y-88851619D01*
X63094809Y-88851619D01*
X62998047Y-88900000D01*
X62949666Y-88948380D01*
X62901285Y-89045142D01*
X62901285Y-89287047D01*
X62949666Y-89383809D01*
X62998047Y-89432190D01*
X63094809Y-89480571D01*
X63288333Y-89480571D01*
X63385095Y-89432190D01*
X63433476Y-89383809D01*
X63481857Y-89287047D01*
X63772142Y-88851619D02*
X64110809Y-89867619D01*
X64449476Y-88851619D01*
D11*
X72332904Y-143878238D02*
X72332904Y-143725857D01*
X72371000Y-143649666D01*
X72447190Y-143573476D01*
X72599571Y-143535380D01*
X72866238Y-143535380D01*
X73018619Y-143573476D01*
X73094809Y-143649666D01*
X73132904Y-143725857D01*
X73132904Y-143878238D01*
X73094809Y-143954428D01*
X73018619Y-144030619D01*
X72866238Y-144068714D01*
X72599571Y-144068714D01*
X72447190Y-144030619D01*
X72371000Y-143954428D01*
X72332904Y-143878238D01*
X73132904Y-143192523D02*
X72332904Y-143192523D01*
X73132904Y-142735380D01*
X72332904Y-142735380D01*
D14*
X83125857Y-133872857D02*
X83340142Y-133944285D01*
X83411571Y-134015714D01*
X83483000Y-134158571D01*
X83483000Y-134372857D01*
X83411571Y-134515714D01*
X83340142Y-134587142D01*
X83197285Y-134658571D01*
X82625857Y-134658571D01*
X82625857Y-133158571D01*
X83125857Y-133158571D01*
X83268714Y-133230000D01*
X83340142Y-133301428D01*
X83411571Y-133444285D01*
X83411571Y-133587142D01*
X83340142Y-133730000D01*
X83268714Y-133801428D01*
X83125857Y-133872857D01*
X82625857Y-133872857D01*
X84768714Y-134658571D02*
X84768714Y-133872857D01*
X84697285Y-133730000D01*
X84554428Y-133658571D01*
X84268714Y-133658571D01*
X84125857Y-133730000D01*
X84768714Y-134587142D02*
X84625857Y-134658571D01*
X84268714Y-134658571D01*
X84125857Y-134587142D01*
X84054428Y-134444285D01*
X84054428Y-134301428D01*
X84125857Y-134158571D01*
X84268714Y-134087142D01*
X84625857Y-134087142D01*
X84768714Y-134015714D01*
X85268714Y-133658571D02*
X85840142Y-133658571D01*
X85483000Y-133158571D02*
X85483000Y-134444285D01*
X85554428Y-134587142D01*
X85697285Y-134658571D01*
X85840142Y-134658571D01*
X86125857Y-133658571D02*
X86697285Y-133658571D01*
X86340142Y-133158571D02*
X86340142Y-134444285D01*
X86411571Y-134587142D01*
X86554428Y-134658571D01*
X86697285Y-134658571D01*
X87768714Y-134587142D02*
X87625857Y-134658571D01*
X87340142Y-134658571D01*
X87197285Y-134587142D01*
X87125857Y-134444285D01*
X87125857Y-133872857D01*
X87197285Y-133730000D01*
X87340142Y-133658571D01*
X87625857Y-133658571D01*
X87768714Y-133730000D01*
X87840142Y-133872857D01*
X87840142Y-134015714D01*
X87125857Y-134158571D01*
X88483000Y-134658571D02*
X88483000Y-133658571D01*
X88483000Y-133944285D02*
X88554428Y-133801428D01*
X88625857Y-133730000D01*
X88768714Y-133658571D01*
X88911571Y-133658571D01*
X89268714Y-133658571D02*
X89625857Y-134658571D01*
X89983000Y-133658571D02*
X89625857Y-134658571D01*
X89483000Y-135015714D01*
X89411571Y-135087142D01*
X89268714Y-135158571D01*
X84447285Y-137208571D02*
X83733000Y-137208571D01*
X83733000Y-135708571D01*
X85518714Y-137137142D02*
X85375857Y-137208571D01*
X85090142Y-137208571D01*
X84947285Y-137137142D01*
X84875857Y-136994285D01*
X84875857Y-136422857D01*
X84947285Y-136280000D01*
X85090142Y-136208571D01*
X85375857Y-136208571D01*
X85518714Y-136280000D01*
X85590142Y-136422857D01*
X85590142Y-136565714D01*
X84875857Y-136708571D01*
X86090142Y-136208571D02*
X86447285Y-137208571D01*
X86804428Y-136208571D01*
X87947285Y-137137142D02*
X87804428Y-137208571D01*
X87518714Y-137208571D01*
X87375857Y-137137142D01*
X87304428Y-136994285D01*
X87304428Y-136422857D01*
X87375857Y-136280000D01*
X87518714Y-136208571D01*
X87804428Y-136208571D01*
X87947285Y-136280000D01*
X88018714Y-136422857D01*
X88018714Y-136565714D01*
X87304428Y-136708571D01*
X88875857Y-137208571D02*
X88733000Y-137137142D01*
X88661571Y-136994285D01*
X88661571Y-135708571D01*
X57192333Y-139655833D02*
X56599666Y-138809166D01*
X56176333Y-139655833D02*
X56176333Y-137877833D01*
X56853666Y-137877833D01*
X57023000Y-137962500D01*
X57107666Y-138047166D01*
X57192333Y-138216500D01*
X57192333Y-138470500D01*
X57107666Y-138639833D01*
X57023000Y-138724500D01*
X56853666Y-138809166D01*
X56176333Y-138809166D01*
X58631666Y-139571166D02*
X58462333Y-139655833D01*
X58123666Y-139655833D01*
X57954333Y-139571166D01*
X57869666Y-139401833D01*
X57869666Y-138724500D01*
X57954333Y-138555166D01*
X58123666Y-138470500D01*
X58462333Y-138470500D01*
X58631666Y-138555166D01*
X58716333Y-138724500D01*
X58716333Y-138893833D01*
X57869666Y-139063166D01*
X60240333Y-139571166D02*
X60071000Y-139655833D01*
X59732333Y-139655833D01*
X59563000Y-139571166D01*
X59478333Y-139486500D01*
X59393666Y-139317166D01*
X59393666Y-138809166D01*
X59478333Y-138639833D01*
X59563000Y-138555166D01*
X59732333Y-138470500D01*
X60071000Y-138470500D01*
X60240333Y-138555166D01*
X61256333Y-139655833D02*
X61087000Y-139571166D01*
X61002333Y-139486500D01*
X60917666Y-139317166D01*
X60917666Y-138809166D01*
X61002333Y-138639833D01*
X61087000Y-138555166D01*
X61256333Y-138470500D01*
X61510333Y-138470500D01*
X61679666Y-138555166D01*
X61764333Y-138639833D01*
X61849000Y-138809166D01*
X61849000Y-139317166D01*
X61764333Y-139486500D01*
X61679666Y-139571166D01*
X61510333Y-139655833D01*
X61256333Y-139655833D01*
X62611000Y-139655833D02*
X62611000Y-138470500D01*
X62611000Y-138809166D02*
X62695666Y-138639833D01*
X62780333Y-138555166D01*
X62949666Y-138470500D01*
X63119000Y-138470500D01*
X64473666Y-139655833D02*
X64473666Y-137877833D01*
X64473666Y-139571166D02*
X64304333Y-139655833D01*
X63965666Y-139655833D01*
X63796333Y-139571166D01*
X63711666Y-139486500D01*
X63627000Y-139317166D01*
X63627000Y-138809166D01*
X63711666Y-138639833D01*
X63796333Y-138555166D01*
X63965666Y-138470500D01*
X64304333Y-138470500D01*
X64473666Y-138555166D01*
X57742666Y-142622833D02*
X57742666Y-140844833D01*
X58166000Y-140844833D01*
X58420000Y-140929500D01*
X58589333Y-141098833D01*
X58674000Y-141268166D01*
X58758666Y-141606833D01*
X58758666Y-141860833D01*
X58674000Y-142199500D01*
X58589333Y-142368833D01*
X58420000Y-142538166D01*
X58166000Y-142622833D01*
X57742666Y-142622833D01*
X60282666Y-142622833D02*
X60282666Y-141691500D01*
X60198000Y-141522166D01*
X60028666Y-141437500D01*
X59690000Y-141437500D01*
X59520666Y-141522166D01*
X60282666Y-142538166D02*
X60113333Y-142622833D01*
X59690000Y-142622833D01*
X59520666Y-142538166D01*
X59436000Y-142368833D01*
X59436000Y-142199500D01*
X59520666Y-142030166D01*
X59690000Y-141945500D01*
X60113333Y-141945500D01*
X60282666Y-141860833D01*
X60875333Y-141437500D02*
X61552666Y-141437500D01*
X61129333Y-140844833D02*
X61129333Y-142368833D01*
X61214000Y-142538166D01*
X61383333Y-142622833D01*
X61552666Y-142622833D01*
X62907333Y-142622833D02*
X62907333Y-141691500D01*
X62822666Y-141522166D01*
X62653333Y-141437500D01*
X62314666Y-141437500D01*
X62145333Y-141522166D01*
X62907333Y-142538166D02*
X62738000Y-142622833D01*
X62314666Y-142622833D01*
X62145333Y-142538166D01*
X62060666Y-142368833D01*
X62060666Y-142199500D01*
X62145333Y-142030166D01*
X62314666Y-141945500D01*
X62738000Y-141945500D01*
X62907333Y-141860833D01*
D13*
X59931904Y-88265000D02*
X59835142Y-88216619D01*
X59690000Y-88216619D01*
X59544857Y-88265000D01*
X59448095Y-88361761D01*
X59399714Y-88458523D01*
X59351333Y-88652047D01*
X59351333Y-88797190D01*
X59399714Y-88990714D01*
X59448095Y-89087476D01*
X59544857Y-89184238D01*
X59690000Y-89232619D01*
X59786761Y-89232619D01*
X59931904Y-89184238D01*
X59980285Y-89135857D01*
X59980285Y-88797190D01*
X59786761Y-88797190D01*
X60415714Y-89232619D02*
X60415714Y-88216619D01*
X60996285Y-89232619D01*
X60996285Y-88216619D01*
X61480095Y-89232619D02*
X61480095Y-88216619D01*
X61722000Y-88216619D01*
X61867142Y-88265000D01*
X61963904Y-88361761D01*
X62012285Y-88458523D01*
X62060666Y-88652047D01*
X62060666Y-88797190D01*
X62012285Y-88990714D01*
X61963904Y-89087476D01*
X61867142Y-89184238D01*
X61722000Y-89232619D01*
X61480095Y-89232619D01*
X71652190Y-101678619D02*
X72281142Y-101678619D01*
X71942476Y-102065666D01*
X72087619Y-102065666D01*
X72184380Y-102114047D01*
X72232761Y-102162428D01*
X72281142Y-102259190D01*
X72281142Y-102501095D01*
X72232761Y-102597857D01*
X72184380Y-102646238D01*
X72087619Y-102694619D01*
X71797333Y-102694619D01*
X71700571Y-102646238D01*
X71652190Y-102597857D01*
X72716571Y-102597857D02*
X72764952Y-102646238D01*
X72716571Y-102694619D01*
X72668190Y-102646238D01*
X72716571Y-102597857D01*
X72716571Y-102694619D01*
X73103619Y-101678619D02*
X73732571Y-101678619D01*
X73393904Y-102065666D01*
X73539047Y-102065666D01*
X73635809Y-102114047D01*
X73684190Y-102162428D01*
X73732571Y-102259190D01*
X73732571Y-102501095D01*
X73684190Y-102597857D01*
X73635809Y-102646238D01*
X73539047Y-102694619D01*
X73248761Y-102694619D01*
X73152000Y-102646238D01*
X73103619Y-102597857D01*
X74022857Y-101678619D02*
X74361523Y-102694619D01*
X74700190Y-101678619D01*
D14*
X82169142Y-105422000D02*
X82026285Y-105350571D01*
X81812000Y-105350571D01*
X81597714Y-105422000D01*
X81454857Y-105564857D01*
X81383428Y-105707714D01*
X81312000Y-105993428D01*
X81312000Y-106207714D01*
X81383428Y-106493428D01*
X81454857Y-106636285D01*
X81597714Y-106779142D01*
X81812000Y-106850571D01*
X81954857Y-106850571D01*
X82169142Y-106779142D01*
X82240571Y-106707714D01*
X82240571Y-106207714D01*
X81954857Y-106207714D01*
X82883428Y-106850571D02*
X82883428Y-105350571D01*
X83740571Y-106850571D01*
X83740571Y-105350571D01*
X84454857Y-106850571D02*
X84454857Y-105350571D01*
X84812000Y-105350571D01*
X85026285Y-105422000D01*
X85169142Y-105564857D01*
X85240571Y-105707714D01*
X85312000Y-105993428D01*
X85312000Y-106207714D01*
X85240571Y-106493428D01*
X85169142Y-106636285D01*
X85026285Y-106779142D01*
X84812000Y-106850571D01*
X84454857Y-106850571D01*
D13*
X60077047Y-93931619D02*
X60270571Y-93931619D01*
X60367333Y-93883238D01*
X60415714Y-93834857D01*
X60512476Y-93689714D01*
X60560857Y-93496190D01*
X60560857Y-93109142D01*
X60512476Y-93012380D01*
X60464095Y-92964000D01*
X60367333Y-92915619D01*
X60173809Y-92915619D01*
X60077047Y-92964000D01*
X60028666Y-93012380D01*
X59980285Y-93109142D01*
X59980285Y-93351047D01*
X60028666Y-93447809D01*
X60077047Y-93496190D01*
X60173809Y-93544571D01*
X60367333Y-93544571D01*
X60464095Y-93496190D01*
X60512476Y-93447809D01*
X60560857Y-93351047D01*
X60851142Y-92915619D02*
X61189809Y-93931619D01*
X61528476Y-92915619D01*
D10*
X72843000Y-108481000D02*
X72843000Y-114831000D01*
X72843000Y-114831000D02*
X70303000Y-118641000D01*
X72843000Y-124991000D02*
X72843000Y-118641000D01*
X72843000Y-105941000D02*
X72843000Y-104671000D01*
X69033000Y-104671000D02*
X65223000Y-107211000D01*
X57603000Y-104671000D02*
X65223000Y-104671000D01*
X43633000Y-107211000D02*
X43633000Y-123721000D01*
X43633000Y-123721000D02*
X43633000Y-132611000D01*
X43633000Y-132611000D02*
X74113000Y-132611000D01*
X74113000Y-103401000D02*
X43633000Y-103401000D01*
X43633000Y-103401000D02*
X43633000Y-107211000D01*
X74113000Y-132611000D02*
X74113000Y-103401000D01*
X72843000Y-104671000D02*
X69033000Y-104671000D01*
D15*
X78350000Y-105384000D02*
X78350000Y-106584000D01*
X76590000Y-106584000D02*
X76590000Y-105384000D01*
X62747000Y-96424000D02*
X62747000Y-95224000D01*
X64507000Y-95224000D02*
X64507000Y-96424000D01*
X83535000Y-137677000D02*
X84735000Y-137677000D01*
X84735000Y-139437000D02*
X83535000Y-139437000D01*
X83540000Y-139709000D02*
X84740000Y-139709000D01*
X84740000Y-141469000D02*
X83540000Y-141469000D01*
X83535000Y-141741000D02*
X84735000Y-141741000D01*
X84735000Y-143501000D02*
X83535000Y-143501000D01*
X68952000Y-138653000D02*
X68952000Y-139853000D01*
X67192000Y-139853000D02*
X67192000Y-138653000D01*
X73542000Y-139853000D02*
X73542000Y-138653000D01*
X75302000Y-138653000D02*
X75302000Y-139853000D01*
X70367000Y-139858000D02*
X70367000Y-138658000D01*
X72127000Y-138658000D02*
X72127000Y-139858000D01*
X78477000Y-138658000D02*
X78477000Y-139858000D01*
X76717000Y-139858000D02*
X76717000Y-138658000D01*
X95154000Y-117212000D02*
X93954000Y-117212000D01*
X93954000Y-115452000D02*
X95154000Y-115452000D01*
X95149000Y-115307000D02*
X93949000Y-115307000D01*
X93949000Y-113547000D02*
X95149000Y-113547000D01*
X93954000Y-111642000D02*
X95154000Y-111642000D01*
X95154000Y-113402000D02*
X93954000Y-113402000D01*
X61696000Y-135518000D02*
X62896000Y-135518000D01*
X62896000Y-137278000D02*
X61696000Y-137278000D01*
X50012000Y-101228000D02*
X51212000Y-101228000D01*
X51212000Y-102988000D02*
X50012000Y-102988000D01*
D10*
X83069300Y-104608000D02*
X83069300Y-99608000D01*
X91569300Y-104608000D02*
X83069300Y-104608000D01*
X91569300Y-99608000D02*
X91569300Y-104608000D01*
X83069300Y-99608000D02*
X91569300Y-99608000D01*
D15*
X80861800Y-93988000D02*
X80861800Y-94988000D01*
X82561800Y-94988000D02*
X82561800Y-93988000D01*
X74710800Y-99714500D02*
X72710800Y-99714500D01*
X72710800Y-96754500D02*
X74710800Y-96754500D01*
X77798220Y-92350480D02*
X76598220Y-92350480D01*
X76598220Y-90590480D02*
X77798220Y-90590480D01*
X76268200Y-100293080D02*
X81468200Y-100293080D01*
X81468200Y-103933080D02*
X76268200Y-103933080D01*
X76807600Y-93572800D02*
X76807600Y-95372800D01*
X80027600Y-95372800D02*
X80027600Y-92922800D01*
X86688300Y-94738000D02*
X84688300Y-94738000D01*
X84688300Y-96778000D02*
X86688300Y-96778000D01*
X86212300Y-97257500D02*
X85212300Y-97257500D01*
X85212300Y-98957500D02*
X86212300Y-98957500D01*
D11*
X69694300Y-95602500D02*
X68794300Y-96702500D01*
X67994300Y-95602500D02*
X69694300Y-95602500D01*
X68794300Y-96702500D02*
X67994300Y-95602500D01*
X67994300Y-96702500D02*
X69694300Y-96702500D01*
D15*
X67360800Y-99377500D02*
X70027800Y-99377500D01*
X70027800Y-99377500D02*
X70027800Y-96202500D01*
X67360800Y-99377500D02*
X67360800Y-96202500D01*
D16*
X78940000Y-108362000D02*
X78940000Y-108712000D01*
X78940000Y-108712000D02*
X78940000Y-109062000D01*
X78590000Y-108362000D02*
X78940000Y-108712000D01*
X78590000Y-108412000D02*
X78590000Y-108362000D01*
X78590000Y-108362000D02*
X78590000Y-108412000D01*
X78590000Y-109062000D02*
X78590000Y-108412000D01*
X78640000Y-109012000D02*
X78590000Y-109062000D01*
X78940000Y-108712000D02*
X78640000Y-109012000D01*
D15*
X80540000Y-109412000D02*
X80540000Y-108012000D01*
X80540000Y-108012000D02*
X77740000Y-108012000D01*
X80540000Y-109412000D02*
X77740000Y-109412000D01*
D16*
X63290000Y-91907000D02*
X63640000Y-91907000D01*
X63640000Y-91907000D02*
X63990000Y-91907000D01*
X63290000Y-92257000D02*
X63640000Y-91907000D01*
X63340000Y-92257000D02*
X63290000Y-92257000D01*
X63290000Y-92257000D02*
X63340000Y-92257000D01*
X63990000Y-92257000D02*
X63340000Y-92257000D01*
X63940000Y-92207000D02*
X63990000Y-92257000D01*
X63640000Y-91907000D02*
X63940000Y-92207000D01*
D15*
X64340000Y-90307000D02*
X62940000Y-90307000D01*
X62940000Y-90307000D02*
X62940000Y-93107000D01*
X64340000Y-90307000D02*
X64340000Y-93107000D01*
X74342360Y-94877000D02*
X74342360Y-93877000D01*
X72642360Y-93877000D02*
X72642360Y-94877000D01*
X60921000Y-101068000D02*
X60921000Y-100068000D01*
X59221000Y-100068000D02*
X59221000Y-101068000D01*
X74801000Y-94676279D02*
X74801000Y-94350721D01*
X75821000Y-94676279D02*
X75821000Y-94350721D01*
X76897000Y-145140000D02*
X76897000Y-142340000D01*
X78297000Y-145140000D02*
X78297000Y-142340000D01*
X76897000Y-145140000D02*
X78297000Y-145140000D01*
D16*
X77597000Y-143540000D02*
X77297000Y-143240000D01*
X77297000Y-143240000D02*
X77247000Y-143190000D01*
X77247000Y-143190000D02*
X77897000Y-143190000D01*
X77947000Y-143190000D02*
X77897000Y-143190000D01*
X77897000Y-143190000D02*
X77947000Y-143190000D01*
X77947000Y-143190000D02*
X77597000Y-143540000D01*
X77597000Y-143540000D02*
X77247000Y-143540000D01*
X77947000Y-143540000D02*
X77597000Y-143540000D01*
X74772000Y-143540000D02*
X74422000Y-143540000D01*
X74422000Y-143540000D02*
X74072000Y-143540000D01*
X74772000Y-143190000D02*
X74422000Y-143540000D01*
X74722000Y-143190000D02*
X74772000Y-143190000D01*
X74772000Y-143190000D02*
X74722000Y-143190000D01*
X74072000Y-143190000D02*
X74722000Y-143190000D01*
X74122000Y-143240000D02*
X74072000Y-143190000D01*
X74422000Y-143540000D02*
X74122000Y-143240000D01*
D15*
X73722000Y-145140000D02*
X75122000Y-145140000D01*
X75122000Y-145140000D02*
X75122000Y-142340000D01*
X73722000Y-145140000D02*
X73722000Y-142340000D01*
X89768000Y-143321000D02*
X86968000Y-143321000D01*
X89768000Y-141921000D02*
X86968000Y-141921000D01*
X89768000Y-143321000D02*
X89768000Y-141921000D01*
D16*
X88168000Y-142621000D02*
X87868000Y-142921000D01*
X87868000Y-142921000D02*
X87818000Y-142971000D01*
X87818000Y-142971000D02*
X87818000Y-142321000D01*
X87818000Y-142271000D02*
X87818000Y-142321000D01*
X87818000Y-142321000D02*
X87818000Y-142271000D01*
X87818000Y-142271000D02*
X88168000Y-142621000D01*
X88168000Y-142621000D02*
X88168000Y-142971000D01*
X88168000Y-142271000D02*
X88168000Y-142621000D01*
X88168000Y-140239000D02*
X88168000Y-140589000D01*
X88168000Y-140589000D02*
X88168000Y-140939000D01*
X87818000Y-140239000D02*
X88168000Y-140589000D01*
X87818000Y-140289000D02*
X87818000Y-140239000D01*
X87818000Y-140239000D02*
X87818000Y-140289000D01*
X87818000Y-140939000D02*
X87818000Y-140289000D01*
X87868000Y-140889000D02*
X87818000Y-140939000D01*
X88168000Y-140589000D02*
X87868000Y-140889000D01*
D15*
X89768000Y-141289000D02*
X89768000Y-139889000D01*
X89768000Y-139889000D02*
X86968000Y-139889000D01*
X89768000Y-141289000D02*
X86968000Y-141289000D01*
D16*
X88211000Y-138207000D02*
X88211000Y-138557000D01*
X88211000Y-138557000D02*
X88211000Y-138907000D01*
X87861000Y-138207000D02*
X88211000Y-138557000D01*
X87861000Y-138257000D02*
X87861000Y-138207000D01*
X87861000Y-138207000D02*
X87861000Y-138257000D01*
X87861000Y-138907000D02*
X87861000Y-138257000D01*
X87911000Y-138857000D02*
X87861000Y-138907000D01*
X88211000Y-138557000D02*
X87911000Y-138857000D01*
D15*
X89811000Y-139257000D02*
X89811000Y-137857000D01*
X89811000Y-137857000D02*
X87011000Y-137857000D01*
X89811000Y-139257000D02*
X87011000Y-139257000D01*
X83404000Y-99371000D02*
X79004000Y-99371000D01*
X79004000Y-96971000D02*
X83404000Y-96971000D01*
X93949000Y-109229000D02*
X95149000Y-109229000D01*
X95149000Y-110989000D02*
X93949000Y-110989000D01*
X75243731Y-127727761D02*
X76092259Y-126879233D01*
X77336767Y-128123741D02*
X76488239Y-128972269D01*
X81687000Y-92320000D02*
X80487000Y-92320000D01*
X80487000Y-90560000D02*
X81687000Y-90560000D01*
D10*
X52000000Y-100825000D02*
X56400000Y-100825000D01*
X50425000Y-95300000D02*
X56400000Y-95300000D01*
D15*
X81278000Y-113294279D02*
X81278000Y-112968721D01*
X82298000Y-113294279D02*
X82298000Y-112968721D01*
X71947000Y-141540000D02*
X71947000Y-144340000D01*
X70547000Y-141540000D02*
X70547000Y-144340000D01*
X71947000Y-141540000D02*
X70547000Y-141540000D01*
D16*
X71247000Y-143140000D02*
X71547000Y-143440000D01*
X71547000Y-143440000D02*
X71597000Y-143490000D01*
X71597000Y-143490000D02*
X70947000Y-143490000D01*
X70897000Y-143490000D02*
X70947000Y-143490000D01*
X70947000Y-143490000D02*
X70897000Y-143490000D01*
X70897000Y-143490000D02*
X71247000Y-143140000D01*
X71247000Y-143140000D02*
X71597000Y-143140000D01*
X70897000Y-143140000D02*
X71247000Y-143140000D01*
X67722000Y-143140000D02*
X68072000Y-143140000D01*
X68072000Y-143140000D02*
X68422000Y-143140000D01*
X67722000Y-143490000D02*
X68072000Y-143140000D01*
X67772000Y-143490000D02*
X67722000Y-143490000D01*
X67722000Y-143490000D02*
X67772000Y-143490000D01*
X68422000Y-143490000D02*
X67772000Y-143490000D01*
X68372000Y-143440000D02*
X68422000Y-143490000D01*
X68072000Y-143140000D02*
X68372000Y-143440000D01*
D15*
X68772000Y-141540000D02*
X67372000Y-141540000D01*
X67372000Y-141540000D02*
X67372000Y-144340000D01*
X68772000Y-141540000D02*
X68772000Y-144340000D01*
D16*
X80316000Y-116751000D02*
X78316000Y-116751000D01*
X80316000Y-116751000D02*
X80316000Y-115151000D01*
D15*
X78621000Y-111799000D02*
X77621000Y-111799000D01*
X77621000Y-113499000D02*
X78621000Y-113499000D01*
X74562600Y-114850800D02*
X74562600Y-115850800D01*
X76262600Y-115850800D02*
X76262600Y-114850800D01*
D10*
X99314000Y-123571000D02*
X99314000Y-118491000D01*
X99594000Y-126391000D02*
X98044000Y-126391000D01*
X96774000Y-126111000D02*
X96774000Y-123571000D01*
X96774000Y-123571000D02*
X99314000Y-123571000D01*
X99314000Y-118491000D02*
X94234000Y-118491000D01*
X94234000Y-118491000D02*
X94234000Y-123571000D01*
X99594000Y-126391000D02*
X99594000Y-124841000D01*
X94234000Y-126111000D02*
X96774000Y-126111000D01*
X94234000Y-123571000D02*
X94234000Y-126111000D01*
X85918990Y-114100893D02*
X85759891Y-114259992D01*
X91045514Y-119227417D02*
X90815704Y-119457227D01*
X85918990Y-124353941D02*
X86148800Y-124124131D01*
X80792466Y-119227417D02*
X81022276Y-118997607D01*
X85918990Y-114100893D02*
X86148800Y-114330703D01*
X80792466Y-119227417D02*
X81022276Y-119457227D01*
X85918990Y-124353941D02*
X85689180Y-124124131D01*
X91045514Y-119227417D02*
X90815704Y-118997607D01*
X85759891Y-114259992D02*
X84752264Y-113252365D01*
X70659666Y-131278380D02*
X70659666Y-131992666D01*
X70612047Y-132135523D01*
X70516809Y-132230761D01*
X70373952Y-132278380D01*
X70278714Y-132278380D01*
X71088238Y-131373619D02*
X71135857Y-131326000D01*
X71231095Y-131278380D01*
X71469190Y-131278380D01*
X71564428Y-131326000D01*
X71612047Y-131373619D01*
X71659666Y-131468857D01*
X71659666Y-131564095D01*
X71612047Y-131706952D01*
X71040619Y-132278380D01*
X71659666Y-132278380D01*
X79572380Y-107103047D02*
X79096190Y-107436380D01*
X79572380Y-107674476D02*
X78572380Y-107674476D01*
X78572380Y-107293523D01*
X78620000Y-107198285D01*
X78667619Y-107150666D01*
X78762857Y-107103047D01*
X78905714Y-107103047D01*
X79000952Y-107150666D01*
X79048571Y-107198285D01*
X79096190Y-107293523D01*
X79096190Y-107674476D01*
X79572380Y-106150666D02*
X79572380Y-106722095D01*
X79572380Y-106436380D02*
X78572380Y-106436380D01*
X78715238Y-106531619D01*
X78810476Y-106626857D01*
X78858095Y-106722095D01*
X78572380Y-105531619D02*
X78572380Y-105436380D01*
X78620000Y-105341142D01*
X78667619Y-105293523D01*
X78762857Y-105245904D01*
X78953333Y-105198285D01*
X79191428Y-105198285D01*
X79381904Y-105245904D01*
X79477142Y-105293523D01*
X79524761Y-105341142D01*
X79572380Y-105436380D01*
X79572380Y-105531619D01*
X79524761Y-105626857D01*
X79477142Y-105674476D01*
X79381904Y-105722095D01*
X79191428Y-105769714D01*
X78953333Y-105769714D01*
X78762857Y-105722095D01*
X78667619Y-105674476D01*
X78620000Y-105626857D01*
X78572380Y-105531619D01*
X78572380Y-104293523D02*
X78572380Y-104769714D01*
X79048571Y-104817333D01*
X79000952Y-104769714D01*
X78953333Y-104674476D01*
X78953333Y-104436380D01*
X79000952Y-104341142D01*
X79048571Y-104293523D01*
X79143809Y-104245904D01*
X79381904Y-104245904D01*
X79477142Y-104293523D01*
X79524761Y-104341142D01*
X79572380Y-104436380D01*
X79572380Y-104674476D01*
X79524761Y-104769714D01*
X79477142Y-104817333D01*
X62507952Y-98623380D02*
X62174619Y-98147190D01*
X61936523Y-98623380D02*
X61936523Y-97623380D01*
X62317476Y-97623380D01*
X62412714Y-97671000D01*
X62460333Y-97718619D01*
X62507952Y-97813857D01*
X62507952Y-97956714D01*
X62460333Y-98051952D01*
X62412714Y-98099571D01*
X62317476Y-98147190D01*
X61936523Y-98147190D01*
X63460333Y-98623380D02*
X62888904Y-98623380D01*
X63174619Y-98623380D02*
X63174619Y-97623380D01*
X63079380Y-97766238D01*
X62984142Y-97861476D01*
X62888904Y-97909095D01*
X64079380Y-97623380D02*
X64174619Y-97623380D01*
X64269857Y-97671000D01*
X64317476Y-97718619D01*
X64365095Y-97813857D01*
X64412714Y-98004333D01*
X64412714Y-98242428D01*
X64365095Y-98432904D01*
X64317476Y-98528142D01*
X64269857Y-98575761D01*
X64174619Y-98623380D01*
X64079380Y-98623380D01*
X63984142Y-98575761D01*
X63936523Y-98528142D01*
X63888904Y-98432904D01*
X63841285Y-98242428D01*
X63841285Y-98004333D01*
X63888904Y-97813857D01*
X63936523Y-97718619D01*
X63984142Y-97671000D01*
X64079380Y-97623380D01*
X65365095Y-98623380D02*
X64793666Y-98623380D01*
X65079380Y-98623380D02*
X65079380Y-97623380D01*
X64984142Y-97766238D01*
X64888904Y-97861476D01*
X64793666Y-97909095D01*
X96639142Y-130246380D02*
X96305809Y-129770190D01*
X96067714Y-130246380D02*
X96067714Y-129246380D01*
X96448666Y-129246380D01*
X96543904Y-129294000D01*
X96591523Y-129341619D01*
X96639142Y-129436857D01*
X96639142Y-129579714D01*
X96591523Y-129674952D01*
X96543904Y-129722571D01*
X96448666Y-129770190D01*
X96067714Y-129770190D01*
X97591523Y-130246380D02*
X97020095Y-130246380D01*
X97305809Y-130246380D02*
X97305809Y-129246380D01*
X97210571Y-129389238D01*
X97115333Y-129484476D01*
X97020095Y-129532095D01*
X98448666Y-129579714D02*
X98448666Y-130246380D01*
X98210571Y-129198761D02*
X97972476Y-129913047D01*
X98591523Y-129913047D01*
X96639142Y-131516380D02*
X96305809Y-131040190D01*
X96067714Y-131516380D02*
X96067714Y-130516380D01*
X96448666Y-130516380D01*
X96543904Y-130564000D01*
X96591523Y-130611619D01*
X96639142Y-130706857D01*
X96639142Y-130849714D01*
X96591523Y-130944952D01*
X96543904Y-130992571D01*
X96448666Y-131040190D01*
X96067714Y-131040190D01*
X97591523Y-131516380D02*
X97020095Y-131516380D01*
X97305809Y-131516380D02*
X97305809Y-130516380D01*
X97210571Y-130659238D01*
X97115333Y-130754476D01*
X97020095Y-130802095D01*
X97924857Y-130516380D02*
X98543904Y-130516380D01*
X98210571Y-130897333D01*
X98353428Y-130897333D01*
X98448666Y-130944952D01*
X98496285Y-130992571D01*
X98543904Y-131087809D01*
X98543904Y-131325904D01*
X98496285Y-131421142D01*
X98448666Y-131468761D01*
X98353428Y-131516380D01*
X98067714Y-131516380D01*
X97972476Y-131468761D01*
X97924857Y-131421142D01*
X96639142Y-132786380D02*
X96305809Y-132310190D01*
X96067714Y-132786380D02*
X96067714Y-131786380D01*
X96448666Y-131786380D01*
X96543904Y-131834000D01*
X96591523Y-131881619D01*
X96639142Y-131976857D01*
X96639142Y-132119714D01*
X96591523Y-132214952D01*
X96543904Y-132262571D01*
X96448666Y-132310190D01*
X96067714Y-132310190D01*
X97591523Y-132786380D02*
X97020095Y-132786380D01*
X97305809Y-132786380D02*
X97305809Y-131786380D01*
X97210571Y-131929238D01*
X97115333Y-132024476D01*
X97020095Y-132072095D01*
X97972476Y-131881619D02*
X98020095Y-131834000D01*
X98115333Y-131786380D01*
X98353428Y-131786380D01*
X98448666Y-131834000D01*
X98496285Y-131881619D01*
X98543904Y-131976857D01*
X98543904Y-132072095D01*
X98496285Y-132214952D01*
X97924857Y-132786380D01*
X98543904Y-132786380D01*
X68524380Y-134659666D02*
X68048190Y-134993000D01*
X68524380Y-135231095D02*
X67524380Y-135231095D01*
X67524380Y-134850142D01*
X67572000Y-134754904D01*
X67619619Y-134707285D01*
X67714857Y-134659666D01*
X67857714Y-134659666D01*
X67952952Y-134707285D01*
X68000571Y-134754904D01*
X68048190Y-134850142D01*
X68048190Y-135231095D01*
X67524380Y-133754904D02*
X67524380Y-134231095D01*
X68000571Y-134278714D01*
X67952952Y-134231095D01*
X67905333Y-134135857D01*
X67905333Y-133897761D01*
X67952952Y-133802523D01*
X68000571Y-133754904D01*
X68095809Y-133707285D01*
X68333904Y-133707285D01*
X68429142Y-133754904D01*
X68476761Y-133802523D01*
X68524380Y-133897761D01*
X68524380Y-134135857D01*
X68476761Y-134231095D01*
X68429142Y-134278714D01*
X74874380Y-134659666D02*
X74398190Y-134993000D01*
X74874380Y-135231095D02*
X73874380Y-135231095D01*
X73874380Y-134850142D01*
X73922000Y-134754904D01*
X73969619Y-134707285D01*
X74064857Y-134659666D01*
X74207714Y-134659666D01*
X74302952Y-134707285D01*
X74350571Y-134754904D01*
X74398190Y-134850142D01*
X74398190Y-135231095D01*
X74207714Y-133802523D02*
X74874380Y-133802523D01*
X73826761Y-134040619D02*
X74541047Y-134278714D01*
X74541047Y-133659666D01*
X71699380Y-134659666D02*
X71223190Y-134993000D01*
X71699380Y-135231095D02*
X70699380Y-135231095D01*
X70699380Y-134850142D01*
X70747000Y-134754904D01*
X70794619Y-134707285D01*
X70889857Y-134659666D01*
X71032714Y-134659666D01*
X71127952Y-134707285D01*
X71175571Y-134754904D01*
X71223190Y-134850142D01*
X71223190Y-135231095D01*
X70794619Y-134278714D02*
X70747000Y-134231095D01*
X70699380Y-134135857D01*
X70699380Y-133897761D01*
X70747000Y-133802523D01*
X70794619Y-133754904D01*
X70889857Y-133707285D01*
X70985095Y-133707285D01*
X71127952Y-133754904D01*
X71699380Y-134326333D01*
X71699380Y-133707285D01*
X78176380Y-134659666D02*
X77700190Y-134993000D01*
X78176380Y-135231095D02*
X77176380Y-135231095D01*
X77176380Y-134850142D01*
X77224000Y-134754904D01*
X77271619Y-134707285D01*
X77366857Y-134659666D01*
X77509714Y-134659666D01*
X77604952Y-134707285D01*
X77652571Y-134754904D01*
X77700190Y-134850142D01*
X77700190Y-135231095D01*
X78176380Y-133707285D02*
X78176380Y-134278714D01*
X78176380Y-133993000D02*
X77176380Y-133993000D01*
X77319238Y-134088238D01*
X77414476Y-134183476D01*
X77462095Y-134278714D01*
X97020142Y-116784380D02*
X96686809Y-116308190D01*
X96448714Y-116784380D02*
X96448714Y-115784380D01*
X96829666Y-115784380D01*
X96924904Y-115832000D01*
X96972523Y-115879619D01*
X97020142Y-115974857D01*
X97020142Y-116117714D01*
X96972523Y-116212952D01*
X96924904Y-116260571D01*
X96829666Y-116308190D01*
X96448714Y-116308190D01*
X97972523Y-116784380D02*
X97401095Y-116784380D01*
X97686809Y-116784380D02*
X97686809Y-115784380D01*
X97591571Y-115927238D01*
X97496333Y-116022476D01*
X97401095Y-116070095D01*
X98591571Y-115784380D02*
X98686809Y-115784380D01*
X98782047Y-115832000D01*
X98829666Y-115879619D01*
X98877285Y-115974857D01*
X98924904Y-116165333D01*
X98924904Y-116403428D01*
X98877285Y-116593904D01*
X98829666Y-116689142D01*
X98782047Y-116736761D01*
X98686809Y-116784380D01*
X98591571Y-116784380D01*
X98496333Y-116736761D01*
X98448714Y-116689142D01*
X98401095Y-116593904D01*
X98353476Y-116403428D01*
X98353476Y-116165333D01*
X98401095Y-115974857D01*
X98448714Y-115879619D01*
X98496333Y-115832000D01*
X98591571Y-115784380D01*
X97115333Y-114879380D02*
X96782000Y-114403190D01*
X96543904Y-114879380D02*
X96543904Y-113879380D01*
X96924857Y-113879380D01*
X97020095Y-113927000D01*
X97067714Y-113974619D01*
X97115333Y-114069857D01*
X97115333Y-114212714D01*
X97067714Y-114307952D01*
X97020095Y-114355571D01*
X96924857Y-114403190D01*
X96543904Y-114403190D01*
X97591523Y-114879380D02*
X97782000Y-114879380D01*
X97877238Y-114831761D01*
X97924857Y-114784142D01*
X98020095Y-114641285D01*
X98067714Y-114450809D01*
X98067714Y-114069857D01*
X98020095Y-113974619D01*
X97972476Y-113927000D01*
X97877238Y-113879380D01*
X97686761Y-113879380D01*
X97591523Y-113927000D01*
X97543904Y-113974619D01*
X97496285Y-114069857D01*
X97496285Y-114307952D01*
X97543904Y-114403190D01*
X97591523Y-114450809D01*
X97686761Y-114498428D01*
X97877238Y-114498428D01*
X97972476Y-114450809D01*
X98020095Y-114403190D01*
X98067714Y-114307952D01*
X97115333Y-112974380D02*
X96782000Y-112498190D01*
X96543904Y-112974380D02*
X96543904Y-111974380D01*
X96924857Y-111974380D01*
X97020095Y-112022000D01*
X97067714Y-112069619D01*
X97115333Y-112164857D01*
X97115333Y-112307714D01*
X97067714Y-112402952D01*
X97020095Y-112450571D01*
X96924857Y-112498190D01*
X96543904Y-112498190D01*
X97686761Y-112402952D02*
X97591523Y-112355333D01*
X97543904Y-112307714D01*
X97496285Y-112212476D01*
X97496285Y-112164857D01*
X97543904Y-112069619D01*
X97591523Y-112022000D01*
X97686761Y-111974380D01*
X97877238Y-111974380D01*
X97972476Y-112022000D01*
X98020095Y-112069619D01*
X98067714Y-112164857D01*
X98067714Y-112212476D01*
X98020095Y-112307714D01*
X97972476Y-112355333D01*
X97877238Y-112402952D01*
X97686761Y-112402952D01*
X97591523Y-112450571D01*
X97543904Y-112498190D01*
X97496285Y-112593428D01*
X97496285Y-112783904D01*
X97543904Y-112879142D01*
X97591523Y-112926761D01*
X97686761Y-112974380D01*
X97877238Y-112974380D01*
X97972476Y-112926761D01*
X98020095Y-112879142D01*
X98067714Y-112783904D01*
X98067714Y-112593428D01*
X98020095Y-112498190D01*
X97972476Y-112450571D01*
X97877238Y-112402952D01*
X61714142Y-135072380D02*
X61380809Y-134596190D01*
X61142714Y-135072380D02*
X61142714Y-134072380D01*
X61523666Y-134072380D01*
X61618904Y-134120000D01*
X61666523Y-134167619D01*
X61714142Y-134262857D01*
X61714142Y-134405714D01*
X61666523Y-134500952D01*
X61618904Y-134548571D01*
X61523666Y-134596190D01*
X61142714Y-134596190D01*
X62666523Y-135072380D02*
X62095095Y-135072380D01*
X62380809Y-135072380D02*
X62380809Y-134072380D01*
X62285571Y-134215238D01*
X62190333Y-134310476D01*
X62095095Y-134358095D01*
X63618904Y-135072380D02*
X63047476Y-135072380D01*
X63333190Y-135072380D02*
X63333190Y-134072380D01*
X63237952Y-134215238D01*
X63142714Y-134310476D01*
X63047476Y-134358095D01*
X47839333Y-102560380D02*
X47506000Y-102084190D01*
X47267904Y-102560380D02*
X47267904Y-101560380D01*
X47648857Y-101560380D01*
X47744095Y-101608000D01*
X47791714Y-101655619D01*
X47839333Y-101750857D01*
X47839333Y-101893714D01*
X47791714Y-101988952D01*
X47744095Y-102036571D01*
X47648857Y-102084190D01*
X47267904Y-102084190D01*
X48696476Y-101560380D02*
X48506000Y-101560380D01*
X48410761Y-101608000D01*
X48363142Y-101655619D01*
X48267904Y-101798476D01*
X48220285Y-101988952D01*
X48220285Y-102369904D01*
X48267904Y-102465142D01*
X48315523Y-102512761D01*
X48410761Y-102560380D01*
X48601238Y-102560380D01*
X48696476Y-102512761D01*
X48744095Y-102465142D01*
X48791714Y-102369904D01*
X48791714Y-102131809D01*
X48744095Y-102036571D01*
X48696476Y-101988952D01*
X48601238Y-101941333D01*
X48410761Y-101941333D01*
X48315523Y-101988952D01*
X48267904Y-102036571D01*
X48220285Y-102131809D01*
X93017380Y-102514142D02*
X92969761Y-102561761D01*
X92826904Y-102609380D01*
X92731666Y-102609380D01*
X92588809Y-102561761D01*
X92493571Y-102466523D01*
X92445952Y-102371285D01*
X92398333Y-102180809D01*
X92398333Y-102037952D01*
X92445952Y-101847476D01*
X92493571Y-101752238D01*
X92588809Y-101657000D01*
X92731666Y-101609380D01*
X92826904Y-101609380D01*
X92969761Y-101657000D01*
X93017380Y-101704619D01*
X93636428Y-101609380D02*
X93826904Y-101609380D01*
X93922142Y-101657000D01*
X94017380Y-101752238D01*
X94065000Y-101942714D01*
X94065000Y-102276047D01*
X94017380Y-102466523D01*
X93922142Y-102561761D01*
X93826904Y-102609380D01*
X93636428Y-102609380D01*
X93541190Y-102561761D01*
X93445952Y-102466523D01*
X93398333Y-102276047D01*
X93398333Y-101942714D01*
X93445952Y-101752238D01*
X93541190Y-101657000D01*
X93636428Y-101609380D01*
X94493571Y-101609380D02*
X94493571Y-102418904D01*
X94541190Y-102514142D01*
X94588809Y-102561761D01*
X94684047Y-102609380D01*
X94874523Y-102609380D01*
X94969761Y-102561761D01*
X95017380Y-102514142D01*
X95065000Y-102418904D01*
X95065000Y-101609380D01*
X95398333Y-101609380D02*
X95969761Y-101609380D01*
X95684047Y-102609380D02*
X95684047Y-101609380D01*
X96826904Y-102609380D02*
X96255476Y-102609380D01*
X96541190Y-102609380D02*
X96541190Y-101609380D01*
X96445952Y-101752238D01*
X96350714Y-101847476D01*
X96255476Y-101895095D01*
X97445952Y-101609380D02*
X97541190Y-101609380D01*
X97636428Y-101657000D01*
X97684047Y-101704619D01*
X97731666Y-101799857D01*
X97779285Y-101990333D01*
X97779285Y-102228428D01*
X97731666Y-102418904D01*
X97684047Y-102514142D01*
X97636428Y-102561761D01*
X97541190Y-102609380D01*
X97445952Y-102609380D01*
X97350714Y-102561761D01*
X97303095Y-102514142D01*
X97255476Y-102418904D01*
X97207857Y-102228428D01*
X97207857Y-101990333D01*
X97255476Y-101799857D01*
X97303095Y-101704619D01*
X97350714Y-101657000D01*
X97445952Y-101609380D01*
X98160238Y-101704619D02*
X98207857Y-101657000D01*
X98303095Y-101609380D01*
X98541190Y-101609380D01*
X98636428Y-101657000D01*
X98684047Y-101704619D01*
X98731666Y-101799857D01*
X98731666Y-101895095D01*
X98684047Y-102037952D01*
X98112619Y-102609380D01*
X98731666Y-102609380D01*
X81037171Y-96861285D02*
X81008600Y-96889857D01*
X80922885Y-96918428D01*
X80865742Y-96918428D01*
X80780028Y-96889857D01*
X80722885Y-96832714D01*
X80694314Y-96775571D01*
X80665742Y-96661285D01*
X80665742Y-96575571D01*
X80694314Y-96461285D01*
X80722885Y-96404142D01*
X80780028Y-96347000D01*
X80865742Y-96318428D01*
X80922885Y-96318428D01*
X81008600Y-96347000D01*
X81037171Y-96375571D01*
X81608600Y-96918428D02*
X81265742Y-96918428D01*
X81437171Y-96918428D02*
X81437171Y-96318428D01*
X81380028Y-96404142D01*
X81322885Y-96461285D01*
X81265742Y-96489857D01*
X81980028Y-96318428D02*
X82037171Y-96318428D01*
X82094314Y-96347000D01*
X82122885Y-96375571D01*
X82151457Y-96432714D01*
X82180028Y-96547000D01*
X82180028Y-96689857D01*
X82151457Y-96804142D01*
X82122885Y-96861285D01*
X82094314Y-96889857D01*
X82037171Y-96918428D01*
X81980028Y-96918428D01*
X81922885Y-96889857D01*
X81894314Y-96861285D01*
X81865742Y-96804142D01*
X81837171Y-96689857D01*
X81837171Y-96547000D01*
X81865742Y-96432714D01*
X81894314Y-96375571D01*
X81922885Y-96347000D01*
X81980028Y-96318428D01*
X82380028Y-96318428D02*
X82751457Y-96318428D01*
X82551457Y-96547000D01*
X82637171Y-96547000D01*
X82694314Y-96575571D01*
X82722885Y-96604142D01*
X82751457Y-96661285D01*
X82751457Y-96804142D01*
X82722885Y-96861285D01*
X82694314Y-96889857D01*
X82637171Y-96918428D01*
X82465742Y-96918428D01*
X82408600Y-96889857D01*
X82380028Y-96861285D01*
X71866285Y-100385571D02*
X71532952Y-100385571D01*
X71532952Y-100909380D02*
X71532952Y-99909380D01*
X72009142Y-99909380D01*
X72913904Y-100909380D02*
X72342476Y-100909380D01*
X72628190Y-100909380D02*
X72628190Y-99909380D01*
X72532952Y-100052238D01*
X72437714Y-100147476D01*
X72342476Y-100195095D01*
X73532952Y-99909380D02*
X73628190Y-99909380D01*
X73723428Y-99957000D01*
X73771047Y-100004619D01*
X73818666Y-100099857D01*
X73866285Y-100290333D01*
X73866285Y-100528428D01*
X73818666Y-100718904D01*
X73771047Y-100814142D01*
X73723428Y-100861761D01*
X73628190Y-100909380D01*
X73532952Y-100909380D01*
X73437714Y-100861761D01*
X73390095Y-100814142D01*
X73342476Y-100718904D01*
X73294857Y-100528428D01*
X73294857Y-100290333D01*
X73342476Y-100099857D01*
X73390095Y-100004619D01*
X73437714Y-99957000D01*
X73532952Y-99909380D01*
X74818666Y-100909380D02*
X74247238Y-100909380D01*
X74532952Y-100909380D02*
X74532952Y-99909380D01*
X74437714Y-100052238D01*
X74342476Y-100147476D01*
X74247238Y-100195095D01*
X77717380Y-89276047D02*
X77241190Y-89609380D01*
X77717380Y-89847476D02*
X76717380Y-89847476D01*
X76717380Y-89466523D01*
X76765000Y-89371285D01*
X76812619Y-89323666D01*
X76907857Y-89276047D01*
X77050714Y-89276047D01*
X77145952Y-89323666D01*
X77193571Y-89371285D01*
X77241190Y-89466523D01*
X77241190Y-89847476D01*
X77717380Y-88323666D02*
X77717380Y-88895095D01*
X77717380Y-88609380D02*
X76717380Y-88609380D01*
X76860238Y-88704619D01*
X76955476Y-88799857D01*
X77003095Y-88895095D01*
X76717380Y-87704619D02*
X76717380Y-87609380D01*
X76765000Y-87514142D01*
X76812619Y-87466523D01*
X76907857Y-87418904D01*
X77098333Y-87371285D01*
X77336428Y-87371285D01*
X77526904Y-87418904D01*
X77622142Y-87466523D01*
X77669761Y-87514142D01*
X77717380Y-87609380D01*
X77717380Y-87704619D01*
X77669761Y-87799857D01*
X77622142Y-87847476D01*
X77526904Y-87895095D01*
X77336428Y-87942714D01*
X77098333Y-87942714D01*
X76907857Y-87895095D01*
X76812619Y-87847476D01*
X76765000Y-87799857D01*
X76717380Y-87704619D01*
X76812619Y-86990333D02*
X76765000Y-86942714D01*
X76717380Y-86847476D01*
X76717380Y-86609380D01*
X76765000Y-86514142D01*
X76812619Y-86466523D01*
X76907857Y-86418904D01*
X77003095Y-86418904D01*
X77145952Y-86466523D01*
X77717380Y-87037952D01*
X77717380Y-86418904D01*
X77366952Y-102560380D02*
X77033619Y-102084190D01*
X76795523Y-102560380D02*
X76795523Y-101560380D01*
X77176476Y-101560380D01*
X77271714Y-101608000D01*
X77319333Y-101655619D01*
X77366952Y-101750857D01*
X77366952Y-101893714D01*
X77319333Y-101988952D01*
X77271714Y-102036571D01*
X77176476Y-102084190D01*
X76795523Y-102084190D01*
X78319333Y-102560380D02*
X77747904Y-102560380D01*
X78033619Y-102560380D02*
X78033619Y-101560380D01*
X77938380Y-101703238D01*
X77843142Y-101798476D01*
X77747904Y-101846095D01*
X78938380Y-101560380D02*
X79033619Y-101560380D01*
X79128857Y-101608000D01*
X79176476Y-101655619D01*
X79224095Y-101750857D01*
X79271714Y-101941333D01*
X79271714Y-102179428D01*
X79224095Y-102369904D01*
X79176476Y-102465142D01*
X79128857Y-102512761D01*
X79033619Y-102560380D01*
X78938380Y-102560380D01*
X78843142Y-102512761D01*
X78795523Y-102465142D01*
X78747904Y-102369904D01*
X78700285Y-102179428D01*
X78700285Y-101941333D01*
X78747904Y-101750857D01*
X78795523Y-101655619D01*
X78843142Y-101608000D01*
X78938380Y-101560380D01*
X80128857Y-101893714D02*
X80128857Y-102560380D01*
X79890761Y-101512761D02*
X79652666Y-102227047D01*
X80271714Y-102227047D01*
X76317380Y-99996285D02*
X77126904Y-99996285D01*
X77222142Y-99948666D01*
X77269761Y-99901047D01*
X77317380Y-99805809D01*
X77317380Y-99615333D01*
X77269761Y-99520095D01*
X77222142Y-99472476D01*
X77126904Y-99424857D01*
X76317380Y-99424857D01*
X77317380Y-98424857D02*
X77317380Y-98996285D01*
X77317380Y-98710571D02*
X76317380Y-98710571D01*
X76460238Y-98805809D01*
X76555476Y-98901047D01*
X76603095Y-98996285D01*
X76317380Y-97805809D02*
X76317380Y-97710571D01*
X76365000Y-97615333D01*
X76412619Y-97567714D01*
X76507857Y-97520095D01*
X76698333Y-97472476D01*
X76936428Y-97472476D01*
X77126904Y-97520095D01*
X77222142Y-97567714D01*
X77269761Y-97615333D01*
X77317380Y-97710571D01*
X77317380Y-97805809D01*
X77269761Y-97901047D01*
X77222142Y-97948666D01*
X77126904Y-97996285D01*
X76936428Y-98043904D01*
X76698333Y-98043904D01*
X76507857Y-97996285D01*
X76412619Y-97948666D01*
X76365000Y-97901047D01*
X76317380Y-97805809D01*
X77317380Y-96520095D02*
X77317380Y-97091523D01*
X77317380Y-96805809D02*
X76317380Y-96805809D01*
X76460238Y-96901047D01*
X76555476Y-96996285D01*
X76603095Y-97091523D01*
X89267380Y-96114142D02*
X89219761Y-96161761D01*
X89076904Y-96209380D01*
X88981666Y-96209380D01*
X88838809Y-96161761D01*
X88743571Y-96066523D01*
X88695952Y-95971285D01*
X88648333Y-95780809D01*
X88648333Y-95637952D01*
X88695952Y-95447476D01*
X88743571Y-95352238D01*
X88838809Y-95257000D01*
X88981666Y-95209380D01*
X89076904Y-95209380D01*
X89219761Y-95257000D01*
X89267380Y-95304619D01*
X89886428Y-95209380D02*
X90076904Y-95209380D01*
X90172142Y-95257000D01*
X90267380Y-95352238D01*
X90315000Y-95542714D01*
X90315000Y-95876047D01*
X90267380Y-96066523D01*
X90172142Y-96161761D01*
X90076904Y-96209380D01*
X89886428Y-96209380D01*
X89791190Y-96161761D01*
X89695952Y-96066523D01*
X89648333Y-95876047D01*
X89648333Y-95542714D01*
X89695952Y-95352238D01*
X89791190Y-95257000D01*
X89886428Y-95209380D01*
X90743571Y-95209380D02*
X90743571Y-96018904D01*
X90791190Y-96114142D01*
X90838809Y-96161761D01*
X90934047Y-96209380D01*
X91124523Y-96209380D01*
X91219761Y-96161761D01*
X91267380Y-96114142D01*
X91315000Y-96018904D01*
X91315000Y-95209380D01*
X91648333Y-95209380D02*
X92219761Y-95209380D01*
X91934047Y-96209380D02*
X91934047Y-95209380D01*
X93076904Y-96209380D02*
X92505476Y-96209380D01*
X92791190Y-96209380D02*
X92791190Y-95209380D01*
X92695952Y-95352238D01*
X92600714Y-95447476D01*
X92505476Y-95495095D01*
X93695952Y-95209380D02*
X93791190Y-95209380D01*
X93886428Y-95257000D01*
X93934047Y-95304619D01*
X93981666Y-95399857D01*
X94029285Y-95590333D01*
X94029285Y-95828428D01*
X93981666Y-96018904D01*
X93934047Y-96114142D01*
X93886428Y-96161761D01*
X93791190Y-96209380D01*
X93695952Y-96209380D01*
X93600714Y-96161761D01*
X93553095Y-96114142D01*
X93505476Y-96018904D01*
X93457857Y-95828428D01*
X93457857Y-95590333D01*
X93505476Y-95399857D01*
X93553095Y-95304619D01*
X93600714Y-95257000D01*
X93695952Y-95209380D01*
X94981666Y-96209380D02*
X94410238Y-96209380D01*
X94695952Y-96209380D02*
X94695952Y-95209380D01*
X94600714Y-95352238D01*
X94505476Y-95447476D01*
X94410238Y-95495095D01*
X89042380Y-98464142D02*
X88994761Y-98511761D01*
X88851904Y-98559380D01*
X88756666Y-98559380D01*
X88613809Y-98511761D01*
X88518571Y-98416523D01*
X88470952Y-98321285D01*
X88423333Y-98130809D01*
X88423333Y-97987952D01*
X88470952Y-97797476D01*
X88518571Y-97702238D01*
X88613809Y-97607000D01*
X88756666Y-97559380D01*
X88851904Y-97559380D01*
X88994761Y-97607000D01*
X89042380Y-97654619D01*
X89661428Y-97559380D02*
X89851904Y-97559380D01*
X89947142Y-97607000D01*
X90042380Y-97702238D01*
X90090000Y-97892714D01*
X90090000Y-98226047D01*
X90042380Y-98416523D01*
X89947142Y-98511761D01*
X89851904Y-98559380D01*
X89661428Y-98559380D01*
X89566190Y-98511761D01*
X89470952Y-98416523D01*
X89423333Y-98226047D01*
X89423333Y-97892714D01*
X89470952Y-97702238D01*
X89566190Y-97607000D01*
X89661428Y-97559380D01*
X90518571Y-97559380D02*
X90518571Y-98368904D01*
X90566190Y-98464142D01*
X90613809Y-98511761D01*
X90709047Y-98559380D01*
X90899523Y-98559380D01*
X90994761Y-98511761D01*
X91042380Y-98464142D01*
X91090000Y-98368904D01*
X91090000Y-97559380D01*
X91423333Y-97559380D02*
X91994761Y-97559380D01*
X91709047Y-98559380D02*
X91709047Y-97559380D01*
X92851904Y-98559380D02*
X92280476Y-98559380D01*
X92566190Y-98559380D02*
X92566190Y-97559380D01*
X92470952Y-97702238D01*
X92375714Y-97797476D01*
X92280476Y-97845095D01*
X93470952Y-97559380D02*
X93566190Y-97559380D01*
X93661428Y-97607000D01*
X93709047Y-97654619D01*
X93756666Y-97749857D01*
X93804285Y-97940333D01*
X93804285Y-98178428D01*
X93756666Y-98368904D01*
X93709047Y-98464142D01*
X93661428Y-98511761D01*
X93566190Y-98559380D01*
X93470952Y-98559380D01*
X93375714Y-98511761D01*
X93328095Y-98464142D01*
X93280476Y-98368904D01*
X93232857Y-98178428D01*
X93232857Y-97940333D01*
X93280476Y-97749857D01*
X93328095Y-97654619D01*
X93375714Y-97607000D01*
X93470952Y-97559380D01*
X94137619Y-97559380D02*
X94756666Y-97559380D01*
X94423333Y-97940333D01*
X94566190Y-97940333D01*
X94661428Y-97987952D01*
X94709047Y-98035571D01*
X94756666Y-98130809D01*
X94756666Y-98368904D01*
X94709047Y-98464142D01*
X94661428Y-98511761D01*
X94566190Y-98559380D01*
X94280476Y-98559380D01*
X94185238Y-98511761D01*
X94137619Y-98464142D01*
X69267380Y-92172476D02*
X68267380Y-92172476D01*
X68267380Y-91934380D01*
X68315000Y-91791523D01*
X68410238Y-91696285D01*
X68505476Y-91648666D01*
X68695952Y-91601047D01*
X68838809Y-91601047D01*
X69029285Y-91648666D01*
X69124523Y-91696285D01*
X69219761Y-91791523D01*
X69267380Y-91934380D01*
X69267380Y-92172476D01*
X69267380Y-90648666D02*
X69267380Y-91220095D01*
X69267380Y-90934380D02*
X68267380Y-90934380D01*
X68410238Y-91029619D01*
X68505476Y-91124857D01*
X68553095Y-91220095D01*
X68267380Y-90029619D02*
X68267380Y-89934380D01*
X68315000Y-89839142D01*
X68362619Y-89791523D01*
X68457857Y-89743904D01*
X68648333Y-89696285D01*
X68886428Y-89696285D01*
X69076904Y-89743904D01*
X69172142Y-89791523D01*
X69219761Y-89839142D01*
X69267380Y-89934380D01*
X69267380Y-90029619D01*
X69219761Y-90124857D01*
X69172142Y-90172476D01*
X69076904Y-90220095D01*
X68886428Y-90267714D01*
X68648333Y-90267714D01*
X68457857Y-90220095D01*
X68362619Y-90172476D01*
X68315000Y-90124857D01*
X68267380Y-90029619D01*
X69267380Y-88743904D02*
X69267380Y-89315333D01*
X69267380Y-89029619D02*
X68267380Y-89029619D01*
X68410238Y-89124857D01*
X68505476Y-89220095D01*
X68553095Y-89315333D01*
X81240523Y-109164380D02*
X81240523Y-108164380D01*
X81478619Y-108164380D01*
X81621476Y-108212000D01*
X81716714Y-108307238D01*
X81764333Y-108402476D01*
X81811952Y-108592952D01*
X81811952Y-108735809D01*
X81764333Y-108926285D01*
X81716714Y-109021523D01*
X81621476Y-109116761D01*
X81478619Y-109164380D01*
X81240523Y-109164380D01*
X82764333Y-109164380D02*
X82192904Y-109164380D01*
X82478619Y-109164380D02*
X82478619Y-108164380D01*
X82383380Y-108307238D01*
X82288142Y-108402476D01*
X82192904Y-108450095D01*
X83383380Y-108164380D02*
X83478619Y-108164380D01*
X83573857Y-108212000D01*
X83621476Y-108259619D01*
X83669095Y-108354857D01*
X83716714Y-108545333D01*
X83716714Y-108783428D01*
X83669095Y-108973904D01*
X83621476Y-109069142D01*
X83573857Y-109116761D01*
X83478619Y-109164380D01*
X83383380Y-109164380D01*
X83288142Y-109116761D01*
X83240523Y-109069142D01*
X83192904Y-108973904D01*
X83145285Y-108783428D01*
X83145285Y-108545333D01*
X83192904Y-108354857D01*
X83240523Y-108259619D01*
X83288142Y-108212000D01*
X83383380Y-108164380D01*
X84050047Y-108164380D02*
X84669095Y-108164380D01*
X84335761Y-108545333D01*
X84478619Y-108545333D01*
X84573857Y-108592952D01*
X84621476Y-108640571D01*
X84669095Y-108735809D01*
X84669095Y-108973904D01*
X84621476Y-109069142D01*
X84573857Y-109116761D01*
X84478619Y-109164380D01*
X84192904Y-109164380D01*
X84097666Y-109116761D01*
X84050047Y-109069142D01*
X65730380Y-93765476D02*
X64730380Y-93765476D01*
X64730380Y-93527380D01*
X64778000Y-93384523D01*
X64873238Y-93289285D01*
X64968476Y-93241666D01*
X65158952Y-93194047D01*
X65301809Y-93194047D01*
X65492285Y-93241666D01*
X65587523Y-93289285D01*
X65682761Y-93384523D01*
X65730380Y-93527380D01*
X65730380Y-93765476D01*
X65730380Y-92241666D02*
X65730380Y-92813095D01*
X65730380Y-92527380D02*
X64730380Y-92527380D01*
X64873238Y-92622619D01*
X64968476Y-92717857D01*
X65016095Y-92813095D01*
X64730380Y-91622619D02*
X64730380Y-91527380D01*
X64778000Y-91432142D01*
X64825619Y-91384523D01*
X64920857Y-91336904D01*
X65111333Y-91289285D01*
X65349428Y-91289285D01*
X65539904Y-91336904D01*
X65635142Y-91384523D01*
X65682761Y-91432142D01*
X65730380Y-91527380D01*
X65730380Y-91622619D01*
X65682761Y-91717857D01*
X65635142Y-91765476D01*
X65539904Y-91813095D01*
X65349428Y-91860714D01*
X65111333Y-91860714D01*
X64920857Y-91813095D01*
X64825619Y-91765476D01*
X64778000Y-91717857D01*
X64730380Y-91622619D01*
X64825619Y-90908333D02*
X64778000Y-90860714D01*
X64730380Y-90765476D01*
X64730380Y-90527380D01*
X64778000Y-90432142D01*
X64825619Y-90384523D01*
X64920857Y-90336904D01*
X65016095Y-90336904D01*
X65158952Y-90384523D01*
X65730380Y-90955952D01*
X65730380Y-90336904D01*
X73763142Y-91432047D02*
X73810761Y-91479666D01*
X73858380Y-91622523D01*
X73858380Y-91717761D01*
X73810761Y-91860619D01*
X73715523Y-91955857D01*
X73620285Y-92003476D01*
X73429809Y-92051095D01*
X73286952Y-92051095D01*
X73096476Y-92003476D01*
X73001238Y-91955857D01*
X72906000Y-91860619D01*
X72858380Y-91717761D01*
X72858380Y-91622523D01*
X72906000Y-91479666D01*
X72953619Y-91432047D01*
X73858380Y-90479666D02*
X73858380Y-91051095D01*
X73858380Y-90765380D02*
X72858380Y-90765380D01*
X73001238Y-90860619D01*
X73096476Y-90955857D01*
X73144095Y-91051095D01*
X72858380Y-89860619D02*
X72858380Y-89765380D01*
X72906000Y-89670142D01*
X72953619Y-89622523D01*
X73048857Y-89574904D01*
X73239333Y-89527285D01*
X73477428Y-89527285D01*
X73667904Y-89574904D01*
X73763142Y-89622523D01*
X73810761Y-89670142D01*
X73858380Y-89765380D01*
X73858380Y-89860619D01*
X73810761Y-89955857D01*
X73763142Y-90003476D01*
X73667904Y-90051095D01*
X73477428Y-90098714D01*
X73239333Y-90098714D01*
X73048857Y-90051095D01*
X72953619Y-90003476D01*
X72906000Y-89955857D01*
X72858380Y-89860619D01*
X73858380Y-88574904D02*
X73858380Y-89146333D01*
X73858380Y-88860619D02*
X72858380Y-88860619D01*
X73001238Y-88955857D01*
X73096476Y-89051095D01*
X73144095Y-89146333D01*
X62079142Y-100734666D02*
X62126761Y-100782285D01*
X62174380Y-100925142D01*
X62174380Y-101020380D01*
X62126761Y-101163238D01*
X62031523Y-101258476D01*
X61936285Y-101306095D01*
X61745809Y-101353714D01*
X61602952Y-101353714D01*
X61412476Y-101306095D01*
X61317238Y-101258476D01*
X61222000Y-101163238D01*
X61174380Y-101020380D01*
X61174380Y-100925142D01*
X61222000Y-100782285D01*
X61269619Y-100734666D01*
X61174380Y-100401333D02*
X61174380Y-99782285D01*
X61555333Y-100115619D01*
X61555333Y-99972761D01*
X61602952Y-99877523D01*
X61650571Y-99829904D01*
X61745809Y-99782285D01*
X61983904Y-99782285D01*
X62079142Y-99829904D01*
X62126761Y-99877523D01*
X62174380Y-99972761D01*
X62174380Y-100258476D01*
X62126761Y-100353714D01*
X62079142Y-100401333D01*
X75668142Y-92102047D02*
X75715761Y-92149666D01*
X75763380Y-92292523D01*
X75763380Y-92387761D01*
X75715761Y-92530619D01*
X75620523Y-92625857D01*
X75525285Y-92673476D01*
X75334809Y-92721095D01*
X75191952Y-92721095D01*
X75001476Y-92673476D01*
X74906238Y-92625857D01*
X74811000Y-92530619D01*
X74763380Y-92387761D01*
X74763380Y-92292523D01*
X74811000Y-92149666D01*
X74858619Y-92102047D01*
X75763380Y-91149666D02*
X75763380Y-91721095D01*
X75763380Y-91435380D02*
X74763380Y-91435380D01*
X74906238Y-91530619D01*
X75001476Y-91625857D01*
X75049095Y-91721095D01*
X74763380Y-90530619D02*
X74763380Y-90435380D01*
X74811000Y-90340142D01*
X74858619Y-90292523D01*
X74953857Y-90244904D01*
X75144333Y-90197285D01*
X75382428Y-90197285D01*
X75572904Y-90244904D01*
X75668142Y-90292523D01*
X75715761Y-90340142D01*
X75763380Y-90435380D01*
X75763380Y-90530619D01*
X75715761Y-90625857D01*
X75668142Y-90673476D01*
X75572904Y-90721095D01*
X75382428Y-90768714D01*
X75144333Y-90768714D01*
X74953857Y-90721095D01*
X74858619Y-90673476D01*
X74811000Y-90625857D01*
X74763380Y-90530619D01*
X74858619Y-89816333D02*
X74811000Y-89768714D01*
X74763380Y-89673476D01*
X74763380Y-89435380D01*
X74811000Y-89340142D01*
X74858619Y-89292523D01*
X74953857Y-89244904D01*
X75049095Y-89244904D01*
X75191952Y-89292523D01*
X75763380Y-89863952D01*
X75763380Y-89244904D01*
X78049380Y-137136095D02*
X77049380Y-137136095D01*
X77049380Y-136898000D01*
X77097000Y-136755142D01*
X77192238Y-136659904D01*
X77287476Y-136612285D01*
X77477952Y-136564666D01*
X77620809Y-136564666D01*
X77811285Y-136612285D01*
X77906523Y-136659904D01*
X78001761Y-136755142D01*
X78049380Y-136898000D01*
X78049380Y-137136095D01*
X78049380Y-135612285D02*
X78049380Y-136183714D01*
X78049380Y-135898000D02*
X77049380Y-135898000D01*
X77192238Y-135993238D01*
X77287476Y-136088476D01*
X77335095Y-136183714D01*
X74874380Y-137136095D02*
X73874380Y-137136095D01*
X73874380Y-136898000D01*
X73922000Y-136755142D01*
X74017238Y-136659904D01*
X74112476Y-136612285D01*
X74302952Y-136564666D01*
X74445809Y-136564666D01*
X74636285Y-136612285D01*
X74731523Y-136659904D01*
X74826761Y-136755142D01*
X74874380Y-136898000D01*
X74874380Y-137136095D01*
X73874380Y-136231333D02*
X73874380Y-135612285D01*
X74255333Y-135945619D01*
X74255333Y-135802761D01*
X74302952Y-135707523D01*
X74350571Y-135659904D01*
X74445809Y-135612285D01*
X74683904Y-135612285D01*
X74779142Y-135659904D01*
X74826761Y-135707523D01*
X74874380Y-135802761D01*
X74874380Y-136088476D01*
X74826761Y-136183714D01*
X74779142Y-136231333D01*
X98956904Y-132786380D02*
X98956904Y-131786380D01*
X99195000Y-131786380D01*
X99337857Y-131834000D01*
X99433095Y-131929238D01*
X99480714Y-132024476D01*
X99528333Y-132214952D01*
X99528333Y-132357809D01*
X99480714Y-132548285D01*
X99433095Y-132643523D01*
X99337857Y-132738761D01*
X99195000Y-132786380D01*
X98956904Y-132786380D01*
X100433095Y-131786380D02*
X99956904Y-131786380D01*
X99909285Y-132262571D01*
X99956904Y-132214952D01*
X100052142Y-132167333D01*
X100290238Y-132167333D01*
X100385476Y-132214952D01*
X100433095Y-132262571D01*
X100480714Y-132357809D01*
X100480714Y-132595904D01*
X100433095Y-132691142D01*
X100385476Y-132738761D01*
X100290238Y-132786380D01*
X100052142Y-132786380D01*
X99956904Y-132738761D01*
X99909285Y-132691142D01*
X98956904Y-131516380D02*
X98956904Y-130516380D01*
X99195000Y-130516380D01*
X99337857Y-130564000D01*
X99433095Y-130659238D01*
X99480714Y-130754476D01*
X99528333Y-130944952D01*
X99528333Y-131087809D01*
X99480714Y-131278285D01*
X99433095Y-131373523D01*
X99337857Y-131468761D01*
X99195000Y-131516380D01*
X98956904Y-131516380D01*
X100385476Y-130516380D02*
X100195000Y-130516380D01*
X100099761Y-130564000D01*
X100052142Y-130611619D01*
X99956904Y-130754476D01*
X99909285Y-130944952D01*
X99909285Y-131325904D01*
X99956904Y-131421142D01*
X100004523Y-131468761D01*
X100099761Y-131516380D01*
X100290238Y-131516380D01*
X100385476Y-131468761D01*
X100433095Y-131421142D01*
X100480714Y-131325904D01*
X100480714Y-131087809D01*
X100433095Y-130992571D01*
X100385476Y-130944952D01*
X100290238Y-130897333D01*
X100099761Y-130897333D01*
X100004523Y-130944952D01*
X99956904Y-130992571D01*
X99909285Y-131087809D01*
X98956904Y-130246380D02*
X98956904Y-129246380D01*
X99195000Y-129246380D01*
X99337857Y-129294000D01*
X99433095Y-129389238D01*
X99480714Y-129484476D01*
X99528333Y-129674952D01*
X99528333Y-129817809D01*
X99480714Y-130008285D01*
X99433095Y-130103523D01*
X99337857Y-130198761D01*
X99195000Y-130246380D01*
X98956904Y-130246380D01*
X99861666Y-129246380D02*
X100528333Y-129246380D01*
X100099761Y-130246380D01*
X78684380Y-99290047D02*
X78684380Y-99766238D01*
X77684380Y-99766238D01*
X78684380Y-98432904D02*
X78684380Y-99004333D01*
X78684380Y-98718619D02*
X77684380Y-98718619D01*
X77827238Y-98813857D01*
X77922476Y-98909095D01*
X77970095Y-99004333D01*
X77684380Y-97813857D02*
X77684380Y-97718619D01*
X77732000Y-97623380D01*
X77779619Y-97575761D01*
X77874857Y-97528142D01*
X78065333Y-97480523D01*
X78303428Y-97480523D01*
X78493904Y-97528142D01*
X78589142Y-97575761D01*
X78636761Y-97623380D01*
X78684380Y-97718619D01*
X78684380Y-97813857D01*
X78636761Y-97909095D01*
X78589142Y-97956714D01*
X78493904Y-98004333D01*
X78303428Y-98051952D01*
X78065333Y-98051952D01*
X77874857Y-98004333D01*
X77779619Y-97956714D01*
X77732000Y-97909095D01*
X77684380Y-97813857D01*
X78684380Y-96528142D02*
X78684380Y-97099571D01*
X78684380Y-96813857D02*
X77684380Y-96813857D01*
X77827238Y-96909095D01*
X77922476Y-97004333D01*
X77970095Y-97099571D01*
X97115333Y-110688380D02*
X96782000Y-110212190D01*
X96543904Y-110688380D02*
X96543904Y-109688380D01*
X96924857Y-109688380D01*
X97020095Y-109736000D01*
X97067714Y-109783619D01*
X97115333Y-109878857D01*
X97115333Y-110021714D01*
X97067714Y-110116952D01*
X97020095Y-110164571D01*
X96924857Y-110212190D01*
X96543904Y-110212190D01*
X97448666Y-109688380D02*
X98067714Y-109688380D01*
X97734380Y-110069333D01*
X97877238Y-110069333D01*
X97972476Y-110116952D01*
X98020095Y-110164571D01*
X98067714Y-110259809D01*
X98067714Y-110497904D01*
X98020095Y-110593142D01*
X97972476Y-110640761D01*
X97877238Y-110688380D01*
X97591523Y-110688380D01*
X97496285Y-110640761D01*
X97448666Y-110593142D01*
X77672030Y-129596732D02*
X77099610Y-129495717D01*
X77267969Y-130000793D02*
X76560862Y-129293687D01*
X76830236Y-129024312D01*
X76931251Y-128990641D01*
X76998595Y-128990641D01*
X77099610Y-129024312D01*
X77200625Y-129125328D01*
X77234297Y-129226343D01*
X77234297Y-129293687D01*
X77200625Y-129394702D01*
X76931251Y-129664076D01*
X77200625Y-128653923D02*
X77672030Y-128182519D01*
X78076091Y-129192671D01*
X79906952Y-90241380D02*
X79573619Y-89765190D01*
X79335523Y-90241380D02*
X79335523Y-89241380D01*
X79716476Y-89241380D01*
X79811714Y-89289000D01*
X79859333Y-89336619D01*
X79906952Y-89431857D01*
X79906952Y-89574714D01*
X79859333Y-89669952D01*
X79811714Y-89717571D01*
X79716476Y-89765190D01*
X79335523Y-89765190D01*
X80859333Y-90241380D02*
X80287904Y-90241380D01*
X80573619Y-90241380D02*
X80573619Y-89241380D01*
X80478380Y-89384238D01*
X80383142Y-89479476D01*
X80287904Y-89527095D01*
X81478380Y-89241380D02*
X81573619Y-89241380D01*
X81668857Y-89289000D01*
X81716476Y-89336619D01*
X81764095Y-89431857D01*
X81811714Y-89622333D01*
X81811714Y-89860428D01*
X81764095Y-90050904D01*
X81716476Y-90146142D01*
X81668857Y-90193761D01*
X81573619Y-90241380D01*
X81478380Y-90241380D01*
X81383142Y-90193761D01*
X81335523Y-90146142D01*
X81287904Y-90050904D01*
X81240285Y-89860428D01*
X81240285Y-89622333D01*
X81287904Y-89431857D01*
X81335523Y-89336619D01*
X81383142Y-89289000D01*
X81478380Y-89241380D01*
X82145047Y-89241380D02*
X82764095Y-89241380D01*
X82430761Y-89622333D01*
X82573619Y-89622333D01*
X82668857Y-89669952D01*
X82716476Y-89717571D01*
X82764095Y-89812809D01*
X82764095Y-90050904D01*
X82716476Y-90146142D01*
X82668857Y-90193761D01*
X82573619Y-90241380D01*
X82287904Y-90241380D01*
X82192666Y-90193761D01*
X82145047Y-90146142D01*
X54483095Y-99528380D02*
X54483095Y-100337904D01*
X54530714Y-100433142D01*
X54578333Y-100480761D01*
X54673571Y-100528380D01*
X54864047Y-100528380D01*
X54959285Y-100480761D01*
X55006904Y-100433142D01*
X55054523Y-100337904D01*
X55054523Y-99528380D01*
X55435476Y-99528380D02*
X56054523Y-99528380D01*
X55721190Y-99909333D01*
X55864047Y-99909333D01*
X55959285Y-99956952D01*
X56006904Y-100004571D01*
X56054523Y-100099809D01*
X56054523Y-100337904D01*
X56006904Y-100433142D01*
X55959285Y-100480761D01*
X55864047Y-100528380D01*
X55578333Y-100528380D01*
X55483095Y-100480761D01*
X55435476Y-100433142D01*
X82145142Y-110783666D02*
X82192761Y-110831285D01*
X82240380Y-110974142D01*
X82240380Y-111069380D01*
X82192761Y-111212238D01*
X82097523Y-111307476D01*
X82002285Y-111355095D01*
X81811809Y-111402714D01*
X81668952Y-111402714D01*
X81478476Y-111355095D01*
X81383238Y-111307476D01*
X81288000Y-111212238D01*
X81240380Y-111069380D01*
X81240380Y-110974142D01*
X81288000Y-110831285D01*
X81335619Y-110783666D01*
X82240380Y-109831285D02*
X82240380Y-110402714D01*
X82240380Y-110117000D02*
X81240380Y-110117000D01*
X81383238Y-110212238D01*
X81478476Y-110307476D01*
X81526095Y-110402714D01*
X71699380Y-137136095D02*
X70699380Y-137136095D01*
X70699380Y-136898000D01*
X70747000Y-136755142D01*
X70842238Y-136659904D01*
X70937476Y-136612285D01*
X71127952Y-136564666D01*
X71270809Y-136564666D01*
X71461285Y-136612285D01*
X71556523Y-136659904D01*
X71651761Y-136755142D01*
X71699380Y-136898000D01*
X71699380Y-137136095D01*
X70794619Y-136183714D02*
X70747000Y-136136095D01*
X70699380Y-136040857D01*
X70699380Y-135802761D01*
X70747000Y-135707523D01*
X70794619Y-135659904D01*
X70889857Y-135612285D01*
X70985095Y-135612285D01*
X71127952Y-135659904D01*
X71699380Y-136231333D01*
X71699380Y-135612285D01*
X68524380Y-137136095D02*
X67524380Y-137136095D01*
X67524380Y-136898000D01*
X67572000Y-136755142D01*
X67667238Y-136659904D01*
X67762476Y-136612285D01*
X67952952Y-136564666D01*
X68095809Y-136564666D01*
X68286285Y-136612285D01*
X68381523Y-136659904D01*
X68476761Y-136755142D01*
X68524380Y-136898000D01*
X68524380Y-137136095D01*
X67857714Y-135707523D02*
X68524380Y-135707523D01*
X67476761Y-135945619D02*
X68191047Y-136183714D01*
X68191047Y-135564666D01*
X76343095Y-117927380D02*
X76343095Y-116927380D01*
X76581190Y-116927380D01*
X76724047Y-116975000D01*
X76819285Y-117070238D01*
X76866904Y-117165476D01*
X76914523Y-117355952D01*
X76914523Y-117498809D01*
X76866904Y-117689285D01*
X76819285Y-117784523D01*
X76724047Y-117879761D01*
X76581190Y-117927380D01*
X76343095Y-117927380D01*
X77343095Y-117927380D02*
X77343095Y-116927380D01*
X77914523Y-117927380D01*
X77914523Y-116927380D01*
X78390714Y-117927380D02*
X78390714Y-116927380D01*
X78771666Y-116927380D01*
X78866904Y-116975000D01*
X78914523Y-117022619D01*
X78962142Y-117117857D01*
X78962142Y-117260714D01*
X78914523Y-117355952D01*
X78866904Y-117403571D01*
X78771666Y-117451190D01*
X78390714Y-117451190D01*
X79914523Y-117927380D02*
X79343095Y-117927380D01*
X79628809Y-117927380D02*
X79628809Y-116927380D01*
X79533571Y-117070238D01*
X79438333Y-117165476D01*
X79343095Y-117213095D01*
X76359095Y-111577380D02*
X76359095Y-110577380D01*
X76597190Y-110577380D01*
X76740047Y-110625000D01*
X76835285Y-110720238D01*
X76882904Y-110815476D01*
X76930523Y-111005952D01*
X76930523Y-111148809D01*
X76882904Y-111339285D01*
X76835285Y-111434523D01*
X76740047Y-111529761D01*
X76597190Y-111577380D01*
X76359095Y-111577380D01*
X77359095Y-111577380D02*
X77359095Y-110577380D01*
X77930523Y-111577380D01*
X77930523Y-110577380D01*
X78406714Y-111577380D02*
X78406714Y-110577380D01*
X78787666Y-110577380D01*
X78882904Y-110625000D01*
X78930523Y-110672619D01*
X78978142Y-110767857D01*
X78978142Y-110910714D01*
X78930523Y-111005952D01*
X78882904Y-111053571D01*
X78787666Y-111101190D01*
X78406714Y-111101190D01*
X79359095Y-110672619D02*
X79406714Y-110625000D01*
X79501952Y-110577380D01*
X79740047Y-110577380D01*
X79835285Y-110625000D01*
X79882904Y-110672619D01*
X79930523Y-110767857D01*
X79930523Y-110863095D01*
X79882904Y-111005952D01*
X79311476Y-111577380D01*
X79930523Y-111577380D01*
X75890380Y-113267904D02*
X74890380Y-113267904D01*
X74890380Y-113029809D01*
X74938000Y-112886952D01*
X75033238Y-112791714D01*
X75128476Y-112744095D01*
X75318952Y-112696476D01*
X75461809Y-112696476D01*
X75652285Y-112744095D01*
X75747523Y-112791714D01*
X75842761Y-112886952D01*
X75890380Y-113029809D01*
X75890380Y-113267904D01*
X75890380Y-112267904D02*
X74890380Y-112267904D01*
X75890380Y-111696476D01*
X74890380Y-111696476D01*
X75890380Y-111220285D02*
X74890380Y-111220285D01*
X74890380Y-110839333D01*
X74938000Y-110744095D01*
X74985619Y-110696476D01*
X75080857Y-110648857D01*
X75223714Y-110648857D01*
X75318952Y-110696476D01*
X75366571Y-110744095D01*
X75414190Y-110839333D01*
X75414190Y-111220285D01*
X74890380Y-110315523D02*
X74890380Y-109696476D01*
X75271333Y-110029809D01*
X75271333Y-109886952D01*
X75318952Y-109791714D01*
X75366571Y-109744095D01*
X75461809Y-109696476D01*
X75699904Y-109696476D01*
X75795142Y-109744095D01*
X75842761Y-109791714D01*
X75890380Y-109886952D01*
X75890380Y-110172666D01*
X75842761Y-110267904D01*
X75795142Y-110315523D01*
X100163380Y-122761333D02*
X100877666Y-122761333D01*
X101020523Y-122808952D01*
X101115761Y-122904190D01*
X101163380Y-123047047D01*
X101163380Y-123142285D01*
X101163380Y-121761333D02*
X101163380Y-122332761D01*
X101163380Y-122047047D02*
X100163380Y-122047047D01*
X100306238Y-122142285D01*
X100401476Y-122237523D01*
X100449095Y-122332761D01*
X88355026Y-119531522D02*
X88927446Y-120103942D01*
X89028461Y-120137614D01*
X89095805Y-120137614D01*
X89196820Y-120103942D01*
X89331507Y-119969255D01*
X89365179Y-119868240D01*
X89365179Y-119800896D01*
X89331507Y-119699881D01*
X88759087Y-119127461D01*
X90173301Y-119127461D02*
X89769240Y-119531522D01*
X89971270Y-119329492D02*
X89264164Y-118622385D01*
X89297835Y-118790744D01*
X89297835Y-118925431D01*
X89264164Y-119026446D01*
M02*
