G04 #@! TF.GenerationSoftware,KiCad,Pcbnew,5.1.4-e60b266~84~ubuntu18.04.1*
G04 #@! TF.CreationDate,2019-12-09T21:46:42-05:00*
G04 #@! TF.ProjectId,Accelerometer_Module,41636365-6c65-4726-9f6d-657465725f4d,rev?*
G04 #@! TF.SameCoordinates,Original*
G04 #@! TF.FileFunction,Copper,L1,Top*
G04 #@! TF.FilePolarity,Positive*
%FSLAX46Y46*%
G04 Gerber Fmt 4.6, Leading zero omitted, Abs format (unit mm)*
G04 Created by KiCad (PCBNEW 5.1.4-e60b266~84~ubuntu18.04.1) date 2019-12-09 21:46:42*
%MOMM*%
%LPD*%
G04 APERTURE LIST*
%ADD10R,2.500000X1.100000*%
%ADD11R,1.700000X2.800000*%
%ADD12R,2.300000X1.950000*%
%ADD13R,1.700000X3.300000*%
%ADD14C,1.800000*%
%ADD15R,2.600000X2.500000*%
%ADD16R,1.300000X0.700000*%
%ADD17R,0.700000X1.300000*%
%ADD18R,0.800000X1.700000*%
%ADD19R,1.780000X3.500000*%
%ADD20R,1.250000X1.000000*%
%ADD21R,0.900000X2.500000*%
%ADD22R,1.000000X3.200000*%
%ADD23R,0.650000X1.060000*%
%ADD24R,1.000000X1.600000*%
%ADD25R,1.000000X1.250000*%
%ADD26R,2.159000X1.778000*%
%ADD27R,1.200000X1.200000*%
%ADD28C,0.100000*%
%ADD29C,0.875000*%
%ADD30R,1.200000X2.000000*%
%ADD31C,0.700000*%
%ADD32R,1.500000X0.450000*%
%ADD33R,1.400000X1.200000*%
%ADD34R,1.400000X1.400000*%
%ADD35C,1.400000*%
%ADD36C,0.550000*%
%ADD37C,0.800000*%
%ADD38C,0.609600*%
%ADD39C,3.000000*%
%ADD40C,0.250000*%
%ADD41C,0.381000*%
%ADD42C,0.152400*%
%ADD43C,0.254000*%
G04 APERTURE END LIST*
D10*
X59673000Y-124871000D03*
X59173000Y-122371000D03*
X58873000Y-119871000D03*
X58873000Y-117371000D03*
X59173000Y-114871000D03*
X59173000Y-112371000D03*
X59173000Y-109871000D03*
X59173000Y-108246000D03*
X56773000Y-127371000D03*
D11*
X73773000Y-107371000D03*
D12*
X56673000Y-104771000D03*
D13*
X73773000Y-126271000D03*
D14*
X71273000Y-127921000D03*
X71273000Y-107921000D03*
D15*
X50673000Y-104521000D03*
X50673000Y-131921000D03*
D16*
X77470000Y-106934000D03*
X77470000Y-105034000D03*
X63627000Y-94874000D03*
X63627000Y-96774000D03*
D17*
X85085000Y-138557000D03*
X83185000Y-138557000D03*
X85090000Y-140589000D03*
X83190000Y-140589000D03*
X85085000Y-142621000D03*
X83185000Y-142621000D03*
D16*
X68072000Y-140203000D03*
X68072000Y-138303000D03*
X74422000Y-138303000D03*
X74422000Y-140203000D03*
X71247000Y-138308000D03*
X71247000Y-140208000D03*
X77597000Y-140208000D03*
X77597000Y-138308000D03*
D17*
X93604000Y-116332000D03*
X95504000Y-116332000D03*
X93599000Y-114427000D03*
X95499000Y-114427000D03*
X95504000Y-112522000D03*
X93604000Y-112522000D03*
X63246000Y-136398000D03*
X61346000Y-136398000D03*
X51562000Y-102108000D03*
X49662000Y-102108000D03*
D18*
X62074000Y-144018000D03*
X58674000Y-144018000D03*
D19*
X84569300Y-102108000D03*
X89849300Y-102108000D03*
D20*
X81711800Y-95488000D03*
X81711800Y-93488000D03*
D21*
X72260800Y-98234500D03*
X75160800Y-98234500D03*
D17*
X76248220Y-91470480D03*
X78148220Y-91470480D03*
D22*
X81968200Y-102113080D03*
X75768200Y-102113080D03*
D23*
X79367600Y-93372800D03*
X78417600Y-93372800D03*
X77467600Y-93372800D03*
X77467600Y-95572800D03*
X79367600Y-95572800D03*
X78417600Y-95572800D03*
D24*
X84188300Y-95758000D03*
X87188300Y-95758000D03*
D25*
X84712300Y-98107500D03*
X86712300Y-98107500D03*
D26*
X68694300Y-94170500D03*
X68694300Y-98234500D03*
D27*
X77640000Y-108712000D03*
X79840000Y-108712000D03*
X63640000Y-93207000D03*
X63640000Y-91007000D03*
D20*
X73492360Y-93377000D03*
X73492360Y-95377000D03*
X60071000Y-99568000D03*
X60071000Y-101568000D03*
D28*
G36*
X75588691Y-94864553D02*
G01*
X75609926Y-94867703D01*
X75630750Y-94872919D01*
X75650962Y-94880151D01*
X75670368Y-94889330D01*
X75688781Y-94900366D01*
X75706024Y-94913154D01*
X75721930Y-94927570D01*
X75736346Y-94943476D01*
X75749134Y-94960719D01*
X75760170Y-94979132D01*
X75769349Y-94998538D01*
X75776581Y-95018750D01*
X75781797Y-95039574D01*
X75784947Y-95060809D01*
X75786000Y-95082250D01*
X75786000Y-95519750D01*
X75784947Y-95541191D01*
X75781797Y-95562426D01*
X75776581Y-95583250D01*
X75769349Y-95603462D01*
X75760170Y-95622868D01*
X75749134Y-95641281D01*
X75736346Y-95658524D01*
X75721930Y-95674430D01*
X75706024Y-95688846D01*
X75688781Y-95701634D01*
X75670368Y-95712670D01*
X75650962Y-95721849D01*
X75630750Y-95729081D01*
X75609926Y-95734297D01*
X75588691Y-95737447D01*
X75567250Y-95738500D01*
X75054750Y-95738500D01*
X75033309Y-95737447D01*
X75012074Y-95734297D01*
X74991250Y-95729081D01*
X74971038Y-95721849D01*
X74951632Y-95712670D01*
X74933219Y-95701634D01*
X74915976Y-95688846D01*
X74900070Y-95674430D01*
X74885654Y-95658524D01*
X74872866Y-95641281D01*
X74861830Y-95622868D01*
X74852651Y-95603462D01*
X74845419Y-95583250D01*
X74840203Y-95562426D01*
X74837053Y-95541191D01*
X74836000Y-95519750D01*
X74836000Y-95082250D01*
X74837053Y-95060809D01*
X74840203Y-95039574D01*
X74845419Y-95018750D01*
X74852651Y-94998538D01*
X74861830Y-94979132D01*
X74872866Y-94960719D01*
X74885654Y-94943476D01*
X74900070Y-94927570D01*
X74915976Y-94913154D01*
X74933219Y-94900366D01*
X74951632Y-94889330D01*
X74971038Y-94880151D01*
X74991250Y-94872919D01*
X75012074Y-94867703D01*
X75033309Y-94864553D01*
X75054750Y-94863500D01*
X75567250Y-94863500D01*
X75588691Y-94864553D01*
X75588691Y-94864553D01*
G37*
D29*
X75311000Y-95301000D03*
D28*
G36*
X75588691Y-93289553D02*
G01*
X75609926Y-93292703D01*
X75630750Y-93297919D01*
X75650962Y-93305151D01*
X75670368Y-93314330D01*
X75688781Y-93325366D01*
X75706024Y-93338154D01*
X75721930Y-93352570D01*
X75736346Y-93368476D01*
X75749134Y-93385719D01*
X75760170Y-93404132D01*
X75769349Y-93423538D01*
X75776581Y-93443750D01*
X75781797Y-93464574D01*
X75784947Y-93485809D01*
X75786000Y-93507250D01*
X75786000Y-93944750D01*
X75784947Y-93966191D01*
X75781797Y-93987426D01*
X75776581Y-94008250D01*
X75769349Y-94028462D01*
X75760170Y-94047868D01*
X75749134Y-94066281D01*
X75736346Y-94083524D01*
X75721930Y-94099430D01*
X75706024Y-94113846D01*
X75688781Y-94126634D01*
X75670368Y-94137670D01*
X75650962Y-94146849D01*
X75630750Y-94154081D01*
X75609926Y-94159297D01*
X75588691Y-94162447D01*
X75567250Y-94163500D01*
X75054750Y-94163500D01*
X75033309Y-94162447D01*
X75012074Y-94159297D01*
X74991250Y-94154081D01*
X74971038Y-94146849D01*
X74951632Y-94137670D01*
X74933219Y-94126634D01*
X74915976Y-94113846D01*
X74900070Y-94099430D01*
X74885654Y-94083524D01*
X74872866Y-94066281D01*
X74861830Y-94047868D01*
X74852651Y-94028462D01*
X74845419Y-94008250D01*
X74840203Y-93987426D01*
X74837053Y-93966191D01*
X74836000Y-93944750D01*
X74836000Y-93507250D01*
X74837053Y-93485809D01*
X74840203Y-93464574D01*
X74845419Y-93443750D01*
X74852651Y-93423538D01*
X74861830Y-93404132D01*
X74872866Y-93385719D01*
X74885654Y-93368476D01*
X74900070Y-93352570D01*
X74915976Y-93338154D01*
X74933219Y-93325366D01*
X74951632Y-93314330D01*
X74971038Y-93305151D01*
X74991250Y-93297919D01*
X75012074Y-93292703D01*
X75033309Y-93289553D01*
X75054750Y-93288500D01*
X75567250Y-93288500D01*
X75588691Y-93289553D01*
X75588691Y-93289553D01*
G37*
D29*
X75311000Y-93726000D03*
D27*
X77597000Y-144440000D03*
X77597000Y-142240000D03*
X74422000Y-142240000D03*
X74422000Y-144440000D03*
X89068000Y-142621000D03*
X86868000Y-142621000D03*
X86868000Y-140589000D03*
X89068000Y-140589000D03*
X86911000Y-138557000D03*
X89111000Y-138557000D03*
D30*
X79604000Y-98171000D03*
X82804000Y-98171000D03*
D17*
X95499000Y-110109000D03*
X93599000Y-110109000D03*
D31*
X76962000Y-127254000D03*
D28*
G36*
X77174132Y-127961107D02*
G01*
X76254893Y-127041868D01*
X76749868Y-126546893D01*
X77669107Y-127466132D01*
X77174132Y-127961107D01*
X77174132Y-127961107D01*
G37*
D31*
X75618498Y-128597502D03*
D28*
G36*
X75830630Y-129304609D02*
G01*
X74911391Y-128385370D01*
X75406366Y-127890395D01*
X76325605Y-128809634D01*
X75830630Y-129304609D01*
X75830630Y-129304609D01*
G37*
D17*
X80137000Y-91440000D03*
X82037000Y-91440000D03*
D32*
X51250000Y-95825000D03*
X51250000Y-96475000D03*
X51250000Y-97125000D03*
X51250000Y-97775000D03*
X51250000Y-98425000D03*
X51250000Y-99075000D03*
X51250000Y-99725000D03*
X51250000Y-100375000D03*
X57150000Y-100375000D03*
X57150000Y-99725000D03*
X57150000Y-99075000D03*
X57150000Y-98425000D03*
X57150000Y-97775000D03*
X57150000Y-97125000D03*
X57150000Y-96475000D03*
X57150000Y-95825000D03*
D28*
G36*
X82065691Y-113482553D02*
G01*
X82086926Y-113485703D01*
X82107750Y-113490919D01*
X82127962Y-113498151D01*
X82147368Y-113507330D01*
X82165781Y-113518366D01*
X82183024Y-113531154D01*
X82198930Y-113545570D01*
X82213346Y-113561476D01*
X82226134Y-113578719D01*
X82237170Y-113597132D01*
X82246349Y-113616538D01*
X82253581Y-113636750D01*
X82258797Y-113657574D01*
X82261947Y-113678809D01*
X82263000Y-113700250D01*
X82263000Y-114137750D01*
X82261947Y-114159191D01*
X82258797Y-114180426D01*
X82253581Y-114201250D01*
X82246349Y-114221462D01*
X82237170Y-114240868D01*
X82226134Y-114259281D01*
X82213346Y-114276524D01*
X82198930Y-114292430D01*
X82183024Y-114306846D01*
X82165781Y-114319634D01*
X82147368Y-114330670D01*
X82127962Y-114339849D01*
X82107750Y-114347081D01*
X82086926Y-114352297D01*
X82065691Y-114355447D01*
X82044250Y-114356500D01*
X81531750Y-114356500D01*
X81510309Y-114355447D01*
X81489074Y-114352297D01*
X81468250Y-114347081D01*
X81448038Y-114339849D01*
X81428632Y-114330670D01*
X81410219Y-114319634D01*
X81392976Y-114306846D01*
X81377070Y-114292430D01*
X81362654Y-114276524D01*
X81349866Y-114259281D01*
X81338830Y-114240868D01*
X81329651Y-114221462D01*
X81322419Y-114201250D01*
X81317203Y-114180426D01*
X81314053Y-114159191D01*
X81313000Y-114137750D01*
X81313000Y-113700250D01*
X81314053Y-113678809D01*
X81317203Y-113657574D01*
X81322419Y-113636750D01*
X81329651Y-113616538D01*
X81338830Y-113597132D01*
X81349866Y-113578719D01*
X81362654Y-113561476D01*
X81377070Y-113545570D01*
X81392976Y-113531154D01*
X81410219Y-113518366D01*
X81428632Y-113507330D01*
X81448038Y-113498151D01*
X81468250Y-113490919D01*
X81489074Y-113485703D01*
X81510309Y-113482553D01*
X81531750Y-113481500D01*
X82044250Y-113481500D01*
X82065691Y-113482553D01*
X82065691Y-113482553D01*
G37*
D29*
X81788000Y-113919000D03*
D28*
G36*
X82065691Y-111907553D02*
G01*
X82086926Y-111910703D01*
X82107750Y-111915919D01*
X82127962Y-111923151D01*
X82147368Y-111932330D01*
X82165781Y-111943366D01*
X82183024Y-111956154D01*
X82198930Y-111970570D01*
X82213346Y-111986476D01*
X82226134Y-112003719D01*
X82237170Y-112022132D01*
X82246349Y-112041538D01*
X82253581Y-112061750D01*
X82258797Y-112082574D01*
X82261947Y-112103809D01*
X82263000Y-112125250D01*
X82263000Y-112562750D01*
X82261947Y-112584191D01*
X82258797Y-112605426D01*
X82253581Y-112626250D01*
X82246349Y-112646462D01*
X82237170Y-112665868D01*
X82226134Y-112684281D01*
X82213346Y-112701524D01*
X82198930Y-112717430D01*
X82183024Y-112731846D01*
X82165781Y-112744634D01*
X82147368Y-112755670D01*
X82127962Y-112764849D01*
X82107750Y-112772081D01*
X82086926Y-112777297D01*
X82065691Y-112780447D01*
X82044250Y-112781500D01*
X81531750Y-112781500D01*
X81510309Y-112780447D01*
X81489074Y-112777297D01*
X81468250Y-112772081D01*
X81448038Y-112764849D01*
X81428632Y-112755670D01*
X81410219Y-112744634D01*
X81392976Y-112731846D01*
X81377070Y-112717430D01*
X81362654Y-112701524D01*
X81349866Y-112684281D01*
X81338830Y-112665868D01*
X81329651Y-112646462D01*
X81322419Y-112626250D01*
X81317203Y-112605426D01*
X81314053Y-112584191D01*
X81313000Y-112562750D01*
X81313000Y-112125250D01*
X81314053Y-112103809D01*
X81317203Y-112082574D01*
X81322419Y-112061750D01*
X81329651Y-112041538D01*
X81338830Y-112022132D01*
X81349866Y-112003719D01*
X81362654Y-111986476D01*
X81377070Y-111970570D01*
X81392976Y-111956154D01*
X81410219Y-111943366D01*
X81428632Y-111932330D01*
X81448038Y-111923151D01*
X81468250Y-111915919D01*
X81489074Y-111910703D01*
X81510309Y-111907553D01*
X81531750Y-111906500D01*
X82044250Y-111906500D01*
X82065691Y-111907553D01*
X82065691Y-111907553D01*
G37*
D29*
X81788000Y-112344000D03*
D27*
X71247000Y-142240000D03*
X71247000Y-144440000D03*
X68072000Y-144440000D03*
X68072000Y-142240000D03*
D33*
X79416000Y-114351000D03*
X77216000Y-114351000D03*
X77216000Y-115951000D03*
X79416000Y-115951000D03*
D25*
X77121000Y-112649000D03*
X79121000Y-112649000D03*
D20*
X75412600Y-116350800D03*
X75412600Y-114350800D03*
D34*
X98044000Y-124841000D03*
D35*
X95504000Y-124841000D03*
X98044000Y-122301000D03*
X95504000Y-122301000D03*
X98044000Y-119761000D03*
X95504000Y-119761000D03*
D36*
X84893685Y-114242314D03*
D28*
G36*
X84133545Y-113871083D02*
G01*
X84522454Y-113482174D01*
X85653825Y-114613545D01*
X85264916Y-115002454D01*
X84133545Y-113871083D01*
X84133545Y-113871083D01*
G37*
D36*
X84328000Y-114808000D03*
D28*
G36*
X83567860Y-114436769D02*
G01*
X83956769Y-114047860D01*
X85088140Y-115179231D01*
X84699231Y-115568140D01*
X83567860Y-114436769D01*
X83567860Y-114436769D01*
G37*
D36*
X83762314Y-115373685D03*
D28*
G36*
X83002174Y-115002454D02*
G01*
X83391083Y-114613545D01*
X84522454Y-115744916D01*
X84133545Y-116133825D01*
X83002174Y-115002454D01*
X83002174Y-115002454D01*
G37*
D36*
X83196629Y-115939370D03*
D28*
G36*
X82436489Y-115568139D02*
G01*
X82825398Y-115179230D01*
X83956769Y-116310601D01*
X83567860Y-116699510D01*
X82436489Y-115568139D01*
X82436489Y-115568139D01*
G37*
D36*
X82630943Y-116505056D03*
D28*
G36*
X81870803Y-116133825D02*
G01*
X82259712Y-115744916D01*
X83391083Y-116876287D01*
X83002174Y-117265196D01*
X81870803Y-116133825D01*
X81870803Y-116133825D01*
G37*
D36*
X82065258Y-117070741D03*
D28*
G36*
X81305118Y-116699510D02*
G01*
X81694027Y-116310601D01*
X82825398Y-117441972D01*
X82436489Y-117830881D01*
X81305118Y-116699510D01*
X81305118Y-116699510D01*
G37*
D36*
X81499573Y-117636427D03*
D28*
G36*
X80739433Y-117265196D02*
G01*
X81128342Y-116876287D01*
X82259713Y-118007658D01*
X81870804Y-118396567D01*
X80739433Y-117265196D01*
X80739433Y-117265196D01*
G37*
D36*
X80933887Y-118202112D03*
D28*
G36*
X80173747Y-117830881D02*
G01*
X80562656Y-117441972D01*
X81694027Y-118573343D01*
X81305118Y-118962252D01*
X80173747Y-117830881D01*
X80173747Y-117830881D01*
G37*
D36*
X80933887Y-120252722D03*
D28*
G36*
X80562656Y-121012862D02*
G01*
X80173747Y-120623953D01*
X81305118Y-119492582D01*
X81694027Y-119881491D01*
X80562656Y-121012862D01*
X80562656Y-121012862D01*
G37*
D36*
X81499573Y-120818407D03*
D28*
G36*
X81128342Y-121578547D02*
G01*
X80739433Y-121189638D01*
X81870804Y-120058267D01*
X82259713Y-120447176D01*
X81128342Y-121578547D01*
X81128342Y-121578547D01*
G37*
D36*
X82065258Y-121384093D03*
D28*
G36*
X81694027Y-122144233D02*
G01*
X81305118Y-121755324D01*
X82436489Y-120623953D01*
X82825398Y-121012862D01*
X81694027Y-122144233D01*
X81694027Y-122144233D01*
G37*
D36*
X82630943Y-121949778D03*
D28*
G36*
X82259712Y-122709918D02*
G01*
X81870803Y-122321009D01*
X83002174Y-121189638D01*
X83391083Y-121578547D01*
X82259712Y-122709918D01*
X82259712Y-122709918D01*
G37*
D36*
X83196629Y-122515464D03*
D28*
G36*
X82825398Y-123275604D02*
G01*
X82436489Y-122886695D01*
X83567860Y-121755324D01*
X83956769Y-122144233D01*
X82825398Y-123275604D01*
X82825398Y-123275604D01*
G37*
D36*
X83762314Y-123081149D03*
D28*
G36*
X83391083Y-123841289D02*
G01*
X83002174Y-123452380D01*
X84133545Y-122321009D01*
X84522454Y-122709918D01*
X83391083Y-123841289D01*
X83391083Y-123841289D01*
G37*
D36*
X84328000Y-123646834D03*
D28*
G36*
X83956769Y-124406974D02*
G01*
X83567860Y-124018065D01*
X84699231Y-122886694D01*
X85088140Y-123275603D01*
X83956769Y-124406974D01*
X83956769Y-124406974D01*
G37*
D36*
X84893685Y-124212520D03*
D28*
G36*
X84522454Y-124972660D02*
G01*
X84133545Y-124583751D01*
X85264916Y-123452380D01*
X85653825Y-123841289D01*
X84522454Y-124972660D01*
X84522454Y-124972660D01*
G37*
D36*
X86944295Y-124212520D03*
D28*
G36*
X86184155Y-123841289D02*
G01*
X86573064Y-123452380D01*
X87704435Y-124583751D01*
X87315526Y-124972660D01*
X86184155Y-123841289D01*
X86184155Y-123841289D01*
G37*
D36*
X87509980Y-123646834D03*
D28*
G36*
X86749840Y-123275603D02*
G01*
X87138749Y-122886694D01*
X88270120Y-124018065D01*
X87881211Y-124406974D01*
X86749840Y-123275603D01*
X86749840Y-123275603D01*
G37*
D36*
X88075666Y-123081149D03*
D28*
G36*
X87315526Y-122709918D02*
G01*
X87704435Y-122321009D01*
X88835806Y-123452380D01*
X88446897Y-123841289D01*
X87315526Y-122709918D01*
X87315526Y-122709918D01*
G37*
D36*
X88641351Y-122515464D03*
D28*
G36*
X87881211Y-122144233D02*
G01*
X88270120Y-121755324D01*
X89401491Y-122886695D01*
X89012582Y-123275604D01*
X87881211Y-122144233D01*
X87881211Y-122144233D01*
G37*
D36*
X89207037Y-121949778D03*
D28*
G36*
X88446897Y-121578547D02*
G01*
X88835806Y-121189638D01*
X89967177Y-122321009D01*
X89578268Y-122709918D01*
X88446897Y-121578547D01*
X88446897Y-121578547D01*
G37*
D36*
X89772722Y-121384093D03*
D28*
G36*
X89012582Y-121012862D02*
G01*
X89401491Y-120623953D01*
X90532862Y-121755324D01*
X90143953Y-122144233D01*
X89012582Y-121012862D01*
X89012582Y-121012862D01*
G37*
D36*
X90338407Y-120818407D03*
D28*
G36*
X89578267Y-120447176D02*
G01*
X89967176Y-120058267D01*
X91098547Y-121189638D01*
X90709638Y-121578547D01*
X89578267Y-120447176D01*
X89578267Y-120447176D01*
G37*
D36*
X90904093Y-120252722D03*
D28*
G36*
X90143953Y-119881491D02*
G01*
X90532862Y-119492582D01*
X91664233Y-120623953D01*
X91275324Y-121012862D01*
X90143953Y-119881491D01*
X90143953Y-119881491D01*
G37*
D36*
X90904093Y-118202112D03*
D28*
G36*
X90532862Y-118962252D02*
G01*
X90143953Y-118573343D01*
X91275324Y-117441972D01*
X91664233Y-117830881D01*
X90532862Y-118962252D01*
X90532862Y-118962252D01*
G37*
D36*
X90338407Y-117636427D03*
D28*
G36*
X89967176Y-118396567D02*
G01*
X89578267Y-118007658D01*
X90709638Y-116876287D01*
X91098547Y-117265196D01*
X89967176Y-118396567D01*
X89967176Y-118396567D01*
G37*
D36*
X89772722Y-117070741D03*
D28*
G36*
X89401491Y-117830881D02*
G01*
X89012582Y-117441972D01*
X90143953Y-116310601D01*
X90532862Y-116699510D01*
X89401491Y-117830881D01*
X89401491Y-117830881D01*
G37*
D36*
X89207037Y-116505056D03*
D28*
G36*
X88835806Y-117265196D02*
G01*
X88446897Y-116876287D01*
X89578268Y-115744916D01*
X89967177Y-116133825D01*
X88835806Y-117265196D01*
X88835806Y-117265196D01*
G37*
D36*
X88641351Y-115939370D03*
D28*
G36*
X88270120Y-116699510D02*
G01*
X87881211Y-116310601D01*
X89012582Y-115179230D01*
X89401491Y-115568139D01*
X88270120Y-116699510D01*
X88270120Y-116699510D01*
G37*
D36*
X88075666Y-115373685D03*
D28*
G36*
X87704435Y-116133825D02*
G01*
X87315526Y-115744916D01*
X88446897Y-114613545D01*
X88835806Y-115002454D01*
X87704435Y-116133825D01*
X87704435Y-116133825D01*
G37*
D36*
X87509980Y-114808000D03*
D28*
G36*
X87138749Y-115568140D02*
G01*
X86749840Y-115179231D01*
X87881211Y-114047860D01*
X88270120Y-114436769D01*
X87138749Y-115568140D01*
X87138749Y-115568140D01*
G37*
D36*
X86944295Y-114242314D03*
D28*
G36*
X86573064Y-115002454D02*
G01*
X86184155Y-114613545D01*
X87315526Y-113482174D01*
X87704435Y-113871083D01*
X86573064Y-115002454D01*
X86573064Y-115002454D01*
G37*
D37*
X94759780Y-100906580D03*
X94724220Y-97571560D03*
X94759780Y-105742740D03*
X94759780Y-103642160D03*
X75445620Y-88712040D03*
X72616060Y-88699340D03*
X69646800Y-88737440D03*
X66492120Y-88737440D03*
X66428620Y-90535760D03*
X66415920Y-93416120D03*
X91894660Y-107096560D03*
D38*
X48641000Y-102108000D03*
X75438000Y-112649000D03*
X49260500Y-99933500D03*
X57150000Y-94615000D03*
X80764000Y-106807000D03*
X87780259Y-119391630D03*
X62357000Y-99568000D03*
X74422000Y-146304000D03*
X77597000Y-146304000D03*
X60960000Y-120269000D03*
X61444000Y-112371000D03*
X77724000Y-126619000D03*
D39*
X60706000Y-91059000D03*
D38*
X60071000Y-136398000D03*
X89068000Y-136439000D03*
X86233000Y-119761000D03*
X63119000Y-106045000D03*
X56388000Y-106934000D03*
X86614000Y-109855000D03*
X83462258Y-118467742D03*
X56665000Y-117371000D03*
D39*
X60706000Y-95631000D03*
D38*
X83344102Y-125762102D03*
X72211691Y-121717309D03*
X86147407Y-125009407D03*
X73152000Y-123571000D03*
X64612875Y-123347125D03*
X63185750Y-121920000D03*
X83349917Y-124624917D03*
X73152000Y-121793000D03*
X72263000Y-122682000D03*
X92583000Y-110109000D03*
X89259231Y-113686769D03*
X98044000Y-112395000D03*
X71247000Y-130556000D03*
X75819000Y-122555000D03*
X84328000Y-112649000D03*
X84328000Y-108712000D03*
X64643000Y-106934000D03*
X59944000Y-106934000D03*
X83185000Y-112649000D03*
X67437000Y-109474000D03*
X83185000Y-109601000D03*
X68994000Y-126271000D03*
X68961000Y-122047000D03*
X62865000Y-114046000D03*
X79375000Y-124079000D03*
X79375000Y-129032000D03*
X68072000Y-134620000D03*
X76275691Y-123876309D03*
X71882000Y-120480201D03*
X92456000Y-112522000D03*
X89843432Y-114626568D03*
X57150000Y-102997000D03*
X57150000Y-101346000D03*
X92456000Y-114427000D03*
X90806461Y-116037002D03*
X78486000Y-124079000D03*
X78486000Y-129032000D03*
X80264000Y-124079000D03*
X66484500Y-138874500D03*
X72009000Y-133350000D03*
X80264000Y-127889000D03*
D40*
X94759780Y-105742740D02*
X94861380Y-105844340D01*
D41*
X69684900Y-88699340D02*
X69646800Y-88737440D01*
X66492120Y-90472260D02*
X66428620Y-90535760D01*
X67939920Y-93416120D02*
X68694300Y-94170500D01*
D42*
X68503800Y-94170500D02*
X68694300Y-94170500D01*
D43*
X93558360Y-102108000D02*
X94759780Y-100906580D01*
X89849300Y-102108000D02*
X93558360Y-102108000D01*
X74995120Y-93870680D02*
X75298300Y-93567500D01*
X73492360Y-93870680D02*
X74995120Y-93870680D01*
X75423300Y-93567500D02*
X75298300Y-93567500D01*
X76248220Y-92742580D02*
X75423300Y-93567500D01*
X76248220Y-91470480D02*
X76248220Y-92742580D01*
X76248220Y-89514640D02*
X75445620Y-88712040D01*
X76248220Y-91470480D02*
X76248220Y-89514640D01*
X65957380Y-91007000D02*
X66428620Y-90535760D01*
X63640000Y-91007000D02*
X65957380Y-91007000D01*
X87188300Y-97631500D02*
X86712300Y-98107500D01*
X87188300Y-95758000D02*
X87188300Y-97631500D01*
X89849300Y-101369500D02*
X89849300Y-102108000D01*
X86712300Y-98232500D02*
X89849300Y-101369500D01*
X86712300Y-98107500D02*
X86712300Y-98232500D01*
X78417600Y-94156800D02*
X78417600Y-93372800D01*
X78392199Y-94182201D02*
X78417600Y-94156800D01*
X76792001Y-94182201D02*
X78392199Y-94182201D01*
X76177300Y-93567500D02*
X76792001Y-94182201D01*
X75298300Y-93567500D02*
X76177300Y-93567500D01*
X67170300Y-94170500D02*
X66415920Y-93416120D01*
X68694300Y-94170500D02*
X67170300Y-94170500D01*
D41*
X59578000Y-99075000D02*
X57150000Y-99075000D01*
X60071000Y-99568000D02*
X59578000Y-99075000D01*
X51250000Y-97775000D02*
X51250000Y-99075000D01*
X57150000Y-95825000D02*
X57150000Y-97125000D01*
D43*
X78916000Y-115951000D02*
X77316000Y-114351000D01*
X77316000Y-114351000D02*
X77216000Y-114351000D01*
X79416000Y-115951000D02*
X78916000Y-115951000D01*
X77121000Y-114256000D02*
X77216000Y-114351000D01*
X77121000Y-112649000D02*
X77121000Y-114256000D01*
X75412800Y-114351000D02*
X75412600Y-114350800D01*
X77216000Y-114351000D02*
X75412800Y-114351000D01*
X82307629Y-113919000D02*
X81788000Y-113919000D01*
X83762314Y-115373685D02*
X82307629Y-113919000D01*
X81788000Y-114456500D02*
X81788000Y-113919000D01*
X81994548Y-114663048D02*
X81788000Y-114456500D01*
X81994548Y-115868661D02*
X81994548Y-114663048D01*
X82630943Y-116505056D02*
X81994548Y-115868661D01*
X84398709Y-116010080D02*
X83762314Y-115373685D01*
X87780259Y-119391630D02*
X87780259Y-119391630D01*
X87780259Y-120523000D02*
X87780259Y-119391630D01*
X89207037Y-121949778D02*
X87780259Y-120523000D01*
D41*
X49662000Y-102108000D02*
X48931000Y-102108000D01*
X48931000Y-102108000D02*
X48641000Y-102108000D01*
X48641000Y-102108000D02*
X48641000Y-102108000D01*
X77121000Y-112649000D02*
X75438000Y-112649000D01*
X75438000Y-113444400D02*
X75438000Y-112649000D01*
X75412600Y-113469800D02*
X75438000Y-113444400D01*
X75412600Y-114350800D02*
X75412600Y-113469800D01*
X75438000Y-112649000D02*
X75438000Y-112649000D01*
X50119000Y-99075000D02*
X49260500Y-99933500D01*
X51250000Y-99075000D02*
X50119000Y-99075000D01*
X57150000Y-95825000D02*
X57150000Y-95219000D01*
X57150000Y-95219000D02*
X57150000Y-94615000D01*
X57150000Y-94615000D02*
X57150000Y-94615000D01*
X79840000Y-107731000D02*
X80764000Y-106807000D01*
X79840000Y-108712000D02*
X79840000Y-107731000D01*
X80764000Y-106807000D02*
X80764000Y-106807000D01*
D43*
X87780259Y-119391630D02*
X84398709Y-116010080D01*
D41*
X60071000Y-99568000D02*
X61077000Y-99568000D01*
X61077000Y-99568000D02*
X62357000Y-99568000D01*
X62357000Y-99568000D02*
X62357000Y-99568000D01*
X77597000Y-146304000D02*
X77597000Y-144440000D01*
X74422000Y-146304000D02*
X74422000Y-144440000D01*
D43*
X59173000Y-112371000D02*
X61444000Y-112371000D01*
X58873000Y-119871000D02*
X60562000Y-119871000D01*
X60562000Y-119871000D02*
X60960000Y-120269000D01*
X60960000Y-120269000D02*
X61087000Y-120396000D01*
X61444000Y-112371000D02*
X61444000Y-112371000D01*
X77597000Y-126619000D02*
X76962000Y-127254000D01*
X77724000Y-126619000D02*
X77597000Y-126619000D01*
X61346000Y-136398000D02*
X60071000Y-136398000D01*
X89154000Y-142535000D02*
X89068000Y-142621000D01*
D41*
X89068000Y-142621000D02*
X89068000Y-136439000D01*
X89068000Y-136439000D02*
X89068000Y-136439000D01*
D43*
X77440000Y-103030880D02*
X77440000Y-104303000D01*
X76522200Y-102113080D02*
X77440000Y-103030880D01*
X77440000Y-104303000D02*
X77440000Y-104907000D01*
X75768200Y-102113080D02*
X76522200Y-102113080D01*
D41*
X58228000Y-99725000D02*
X60071000Y-101568000D01*
X57150000Y-99725000D02*
X58228000Y-99725000D01*
D43*
X81326388Y-112805612D02*
X81788000Y-112344000D01*
X81033590Y-113098410D02*
X81326388Y-112805612D01*
X81033590Y-114344096D02*
X81033590Y-113098410D01*
X81428863Y-116434346D02*
X81428863Y-114739369D01*
X81428863Y-114739369D02*
X81033590Y-114344096D01*
X82065258Y-117070741D02*
X81428863Y-116434346D01*
X82955381Y-117707136D02*
X82701653Y-117707136D01*
X82701653Y-117707136D02*
X82065258Y-117070741D01*
X83833024Y-116829493D02*
X82955381Y-117707136D01*
X83833024Y-116575765D02*
X83833024Y-116829493D01*
X83196629Y-115939370D02*
X83833024Y-116575765D01*
X82065258Y-117070741D02*
X83462258Y-118467742D01*
D41*
X86233000Y-119761000D02*
X85928201Y-120065799D01*
X74887200Y-102113080D02*
X70955280Y-106045000D01*
X75768200Y-102113080D02*
X74887200Y-102113080D01*
X70955280Y-106045000D02*
X63119000Y-106045000D01*
X63119000Y-106045000D02*
X63119000Y-106045000D01*
X94461099Y-118405901D02*
X95504000Y-117363000D01*
X94461099Y-123798099D02*
X94461099Y-118405901D01*
X95504000Y-117363000D02*
X95504000Y-116332000D01*
X95504000Y-124841000D02*
X94461099Y-123798099D01*
X95504000Y-114432000D02*
X95499000Y-114427000D01*
X95504000Y-116332000D02*
X95504000Y-114432000D01*
X95499000Y-112527000D02*
X95504000Y-112522000D01*
X95499000Y-114427000D02*
X95499000Y-112527000D01*
X95504000Y-110114000D02*
X95499000Y-110109000D01*
X95504000Y-112522000D02*
X95504000Y-110114000D01*
X95499000Y-110109000D02*
X95499000Y-109809000D01*
X78872080Y-102113080D02*
X86614000Y-109855000D01*
X75768200Y-102113080D02*
X78872080Y-102113080D01*
X95504000Y-112222000D02*
X95504000Y-112522000D01*
X88809052Y-109855000D02*
X90055953Y-111101901D01*
X86614000Y-109855000D02*
X88809052Y-109855000D01*
X90055953Y-111101901D02*
X94383901Y-111101901D01*
X94383901Y-111101901D02*
X95504000Y-112222000D01*
X86614000Y-109855000D02*
X86614000Y-109855000D01*
X83462258Y-118467742D02*
X83462258Y-119599112D01*
X86873585Y-123010439D02*
X84074000Y-120210854D01*
X87509980Y-123646834D02*
X86873585Y-123010439D01*
X83462258Y-119599112D02*
X84074000Y-120210854D01*
X84219055Y-120065799D02*
X84074000Y-120210854D01*
X85928201Y-120065799D02*
X84219055Y-120065799D01*
X68072000Y-144440000D02*
X71247000Y-144440000D01*
X60616080Y-102113080D02*
X60071000Y-101568000D01*
X75768200Y-102113080D02*
X60616080Y-102113080D01*
X75004000Y-107371000D02*
X73773000Y-107371000D01*
X75768200Y-106606800D02*
X75004000Y-107371000D01*
X75768200Y-102113080D02*
X75768200Y-106606800D01*
X56388000Y-115586000D02*
X58173000Y-117371000D01*
X56388000Y-106934000D02*
X56388000Y-115586000D01*
D43*
X58173000Y-117371000D02*
X58873000Y-117371000D01*
D41*
X52315901Y-137649901D02*
X58684000Y-144018000D01*
X52315901Y-119658099D02*
X52315901Y-137649901D01*
X56388000Y-115586000D02*
X52315901Y-119658099D01*
X67091000Y-144440000D02*
X68072000Y-144440000D01*
X66320099Y-145210901D02*
X67091000Y-144440000D01*
X60647901Y-145210901D02*
X66320099Y-145210901D01*
X59455000Y-144018000D02*
X60647901Y-145210901D01*
X58674000Y-144018000D02*
X59455000Y-144018000D01*
D43*
X58873000Y-117371000D02*
X56665000Y-117371000D01*
X56665000Y-117371000D02*
X56665000Y-117371000D01*
D41*
X77467600Y-95572800D02*
X78417600Y-95572800D01*
D43*
X75176480Y-95445680D02*
X75298300Y-95567500D01*
X73492360Y-95445680D02*
X75176480Y-95445680D01*
X77462300Y-95567500D02*
X77467600Y-95572800D01*
X75298300Y-95567500D02*
X77462300Y-95567500D01*
X75160800Y-95705000D02*
X75298300Y-95567500D01*
X75160800Y-98234500D02*
X75160800Y-95705000D01*
X63640000Y-96857000D02*
X63940000Y-96857000D01*
X72917360Y-95445680D02*
X73492360Y-95445680D01*
X63940000Y-96857000D02*
X65351320Y-95445680D01*
X65351320Y-95445680D02*
X72917360Y-95445680D01*
D40*
X79367600Y-97924440D02*
X79616700Y-98173540D01*
D43*
X81627000Y-95572800D02*
X81711800Y-95488000D01*
X79367600Y-95572800D02*
X81627000Y-95572800D01*
X79616700Y-98173540D02*
X79616700Y-95821900D01*
X79616700Y-95821900D02*
X79367600Y-95572800D01*
X81596600Y-93372800D02*
X81711800Y-93488000D01*
X79367600Y-93372800D02*
X81596600Y-93372800D01*
D40*
X82034420Y-91485720D02*
X82034420Y-91185720D01*
X81973280Y-102108000D02*
X81968200Y-102113080D01*
X84622640Y-98173540D02*
X84711540Y-98084640D01*
X84711540Y-101965760D02*
X84569300Y-102108000D01*
D43*
X84564220Y-102113080D02*
X84569300Y-102108000D01*
X81968200Y-102113080D02*
X84564220Y-102113080D01*
X84712300Y-101965000D02*
X84569300Y-102108000D01*
X84712300Y-98107500D02*
X84712300Y-101965000D01*
X84646260Y-98173540D02*
X84712300Y-98107500D01*
X82816700Y-98173540D02*
X84646260Y-98173540D01*
X84188300Y-97583500D02*
X84712300Y-98107500D01*
X84188300Y-95758000D02*
X84188300Y-97583500D01*
X82638420Y-91485720D02*
X82034420Y-91485720D01*
X84188300Y-93035600D02*
X82638420Y-91485720D01*
X84188300Y-95758000D02*
X84188300Y-93035600D01*
X63640000Y-93207000D02*
X63640000Y-94957000D01*
X77440000Y-106807000D02*
X77440000Y-108557000D01*
X80119180Y-91470480D02*
X80134420Y-91485720D01*
X78148220Y-91470480D02*
X80119180Y-91470480D01*
X77467600Y-92151100D02*
X77467600Y-93372800D01*
X78148220Y-91470480D02*
X77467600Y-92151100D01*
X77597000Y-142240000D02*
X77597000Y-140208000D01*
X71247000Y-140203000D02*
X71247000Y-142240000D01*
X74422000Y-140142000D02*
X74422000Y-142240000D01*
X68072000Y-140269000D02*
X68072000Y-142240000D01*
X90338407Y-120818407D02*
X90974802Y-121454802D01*
X90974802Y-121454802D02*
X90974802Y-122131198D01*
X81915000Y-131191000D02*
X81978500Y-131127500D01*
X90974802Y-122131198D02*
X81978500Y-131127500D01*
X81851500Y-141891500D02*
X81851500Y-131254500D01*
X82581000Y-142621000D02*
X81851500Y-141891500D01*
X83185000Y-142621000D02*
X82581000Y-142621000D01*
X81978500Y-131127500D02*
X81851500Y-131254500D01*
X82296000Y-139395000D02*
X82296000Y-131384750D01*
X83190000Y-140589000D02*
X83190000Y-140289000D01*
X83190000Y-140289000D02*
X82296000Y-139395000D01*
X91540488Y-120889117D02*
X90904093Y-120252722D01*
X91540488Y-122140262D02*
X91540488Y-120889117D01*
X82296000Y-131384750D02*
X91540488Y-122140262D01*
X90904093Y-118202112D02*
X91946898Y-119244917D01*
X91946898Y-119244917D02*
X91946897Y-122308603D01*
X83185000Y-131070500D02*
X83185000Y-138557000D01*
X91946897Y-122308603D02*
X83185000Y-131070500D01*
D41*
X68646660Y-98282140D02*
X68694300Y-98234500D01*
X68694300Y-98234500D02*
X72260800Y-98234500D01*
X58166000Y-98425000D02*
X57150000Y-98425000D01*
X58188860Y-98402140D02*
X58166000Y-98425000D01*
X68694300Y-98234500D02*
X68526660Y-98402140D01*
X51250000Y-95825000D02*
X51250000Y-96475000D01*
X51250000Y-96475000D02*
X51250000Y-97125000D01*
X56207778Y-98425000D02*
X57150000Y-98425000D01*
X54907778Y-97125000D02*
X56207778Y-98425000D01*
X51250000Y-97125000D02*
X54907778Y-97125000D01*
X68526660Y-98402140D02*
X61445140Y-98402140D01*
X60706000Y-95847320D02*
X60728860Y-95870180D01*
X61445140Y-98402140D02*
X60728860Y-98402140D01*
X60728860Y-98402140D02*
X58188860Y-98402140D01*
X60728860Y-97267180D02*
X60728860Y-98402140D01*
X60706000Y-97244320D02*
X60728860Y-97267180D01*
X60706000Y-95123000D02*
X60706000Y-97244320D01*
D43*
X79121000Y-114056000D02*
X79416000Y-114351000D01*
X79121000Y-112649000D02*
X79121000Y-114056000D01*
X80863178Y-117000032D02*
X81499573Y-117636427D01*
X80863178Y-115595256D02*
X80863178Y-117000032D01*
X79618922Y-114351000D02*
X80863178Y-115595256D01*
X79416000Y-114351000D02*
X79618922Y-114351000D01*
X76816200Y-116350800D02*
X77216000Y-115951000D01*
X75412600Y-116350800D02*
X76816200Y-116350800D01*
X80444978Y-118202112D02*
X80933887Y-118202112D01*
X79567112Y-118202112D02*
X80444978Y-118202112D01*
X77316000Y-115951000D02*
X79567112Y-118202112D01*
X77216000Y-115951000D02*
X77316000Y-115951000D01*
X83105205Y-126001000D02*
X77199000Y-126001000D01*
X83344102Y-125762102D02*
X83105205Y-126001000D01*
X84893685Y-124212520D02*
X83344102Y-125762102D01*
X76495382Y-126001000D02*
X72160382Y-121666000D01*
X77199000Y-126001000D02*
X76495382Y-126001000D01*
X60365382Y-109871000D02*
X59173000Y-109871000D01*
X72211691Y-121717309D02*
X60365382Y-109871000D01*
X86147407Y-125009407D02*
X86944295Y-124212520D01*
X58473000Y-114871000D02*
X59173000Y-114871000D01*
X84749405Y-126407410D02*
X84749405Y-126451595D01*
X86147407Y-125009407D02*
X84749405Y-126407410D01*
X84749405Y-126451595D02*
X84531201Y-126669799D01*
X71280375Y-125442625D02*
X73152000Y-123571000D01*
X66708375Y-125442625D02*
X71280375Y-125442625D01*
X66708375Y-125442625D02*
X64612875Y-123347125D01*
X64612875Y-123347125D02*
X64466151Y-123200401D01*
X59873000Y-114871000D02*
X59173000Y-114871000D01*
X63185750Y-118183750D02*
X59873000Y-114871000D01*
X63185750Y-121920000D02*
X63185750Y-118183750D01*
X71237549Y-129971799D02*
X66708375Y-125442625D01*
X79171799Y-126669799D02*
X75869799Y-129971799D01*
X75869799Y-129971799D02*
X71237549Y-129971799D01*
X84531201Y-126669799D02*
X79171799Y-126669799D01*
X84328000Y-123646834D02*
X83349917Y-124624917D01*
X82380244Y-125594590D02*
X83349917Y-124624917D01*
X77351410Y-125594590D02*
X82380244Y-125594590D01*
X76953590Y-125594590D02*
X77351410Y-125594590D01*
X73152000Y-121793000D02*
X76953590Y-125594590D01*
X59484000Y-122682000D02*
X59173000Y-122371000D01*
X72263000Y-122682000D02*
X59484000Y-122682000D01*
X89259231Y-115321490D02*
X89259231Y-113686769D01*
X88641351Y-115939370D02*
X89259231Y-115321490D01*
X93599000Y-110109000D02*
X92837000Y-110109000D01*
X92837000Y-110109000D02*
X92583000Y-110109000D01*
X92583000Y-110109000D02*
X92583000Y-110109000D01*
X89259231Y-113686769D02*
X89259231Y-113686769D01*
X93599000Y-110109000D02*
X93599000Y-109809000D01*
X98044000Y-112395000D02*
X98044000Y-119761000D01*
X83196629Y-122515464D02*
X80930323Y-124781770D01*
X71247000Y-130556000D02*
X71247000Y-138303000D01*
X78037230Y-124781770D02*
X78037230Y-124773230D01*
X80930323Y-124781770D02*
X78037230Y-124781770D01*
X78037230Y-124773230D02*
X75819000Y-122555000D01*
X75819000Y-122555000D02*
X75819000Y-122555000D01*
X65562000Y-124871000D02*
X60168000Y-124871000D01*
X71247000Y-130556000D02*
X65562000Y-124871000D01*
X51607000Y-102063000D02*
X51562000Y-102108000D01*
X84893685Y-114242314D02*
X84893685Y-113214685D01*
X84893685Y-113214685D02*
X84328000Y-112649000D01*
X84328000Y-112649000D02*
X84328000Y-112649000D01*
X82142612Y-109778770D02*
X83209382Y-108712000D01*
X69278500Y-109283500D02*
X69773770Y-109778770D01*
X69773770Y-109778770D02*
X82142612Y-109778770D01*
X83209382Y-108712000D02*
X84328000Y-108712000D01*
X84328000Y-108712000D02*
X84328000Y-108712000D01*
X56498000Y-104771000D02*
X54724000Y-102997000D01*
X56673000Y-104771000D02*
X56498000Y-104771000D01*
X53055000Y-102997000D02*
X52166000Y-102108000D01*
X52166000Y-102108000D02*
X51562000Y-102108000D01*
X54724000Y-102997000D02*
X53055000Y-102997000D01*
X69278500Y-109283500D02*
X66929000Y-106934000D01*
X66929000Y-106934000D02*
X64643000Y-106934000D01*
X64643000Y-106934000D02*
X64643000Y-106934000D01*
X56673000Y-106000000D02*
X56673000Y-104771000D01*
X57607000Y-106934000D02*
X56673000Y-106000000D01*
X59944000Y-106934000D02*
X57607000Y-106934000D01*
X74185000Y-126001000D02*
X74278000Y-126001000D01*
X84328000Y-114808000D02*
X83185000Y-113665000D01*
X83185000Y-113665000D02*
X83185000Y-112649000D01*
X83185000Y-112649000D02*
X83185000Y-112649000D01*
X67437000Y-109474000D02*
X68148180Y-110185180D01*
X68148180Y-110185180D02*
X82600820Y-110185180D01*
X82600820Y-110185180D02*
X83185000Y-109601000D01*
X83185000Y-109601000D02*
X83185000Y-109601000D01*
X73773000Y-126752004D02*
X73773000Y-126271000D01*
X75618498Y-128597502D02*
X73773000Y-126752004D01*
X73773000Y-126271000D02*
X68994000Y-126271000D01*
X68994000Y-126271000D02*
X68994000Y-126271000D01*
X62865000Y-115951000D02*
X62865000Y-114046000D01*
X68961000Y-122047000D02*
X62865000Y-115951000D01*
X81499573Y-120818407D02*
X79375000Y-122942980D01*
X79375000Y-123494799D02*
X79375000Y-122942980D01*
X79375000Y-123494799D02*
X79375000Y-124079000D01*
X79375000Y-124079000D02*
X79375000Y-124079000D01*
X77597000Y-130810000D02*
X77597000Y-131064000D01*
X79375000Y-129032000D02*
X77597000Y-130810000D01*
X77597000Y-131064000D02*
X77597000Y-138308000D01*
X83762314Y-123081149D02*
X81655283Y-125188180D01*
X68072000Y-134620000D02*
X68072000Y-138369000D01*
X78071180Y-125188180D02*
X77587562Y-125188180D01*
X81655283Y-125188180D02*
X78071180Y-125188180D01*
X77587562Y-125188180D02*
X76275691Y-123876309D01*
X76275691Y-123876309D02*
X74688191Y-122288809D01*
X72879583Y-120480201D02*
X73164191Y-120764809D01*
X71882000Y-120480201D02*
X72879583Y-120480201D01*
X74688191Y-122288809D02*
X73164191Y-120764809D01*
X89207037Y-116505056D02*
X89843432Y-115868661D01*
X93604000Y-112522000D02*
X93000000Y-112522000D01*
X93000000Y-112522000D02*
X92456000Y-112522000D01*
X92456000Y-112522000D02*
X92456000Y-112522000D01*
X89843432Y-115868661D02*
X89843432Y-114626568D01*
X89843432Y-114626568D02*
X89843432Y-112703432D01*
X89843432Y-112703432D02*
X88544410Y-111404410D01*
X66126737Y-111404409D02*
X60792738Y-106070410D01*
X88544410Y-111404410D02*
X66126737Y-111404409D01*
X57150000Y-100965000D02*
X57150000Y-100965000D01*
X60792738Y-106070410D02*
X57719328Y-102997000D01*
X57719328Y-102997000D02*
X57150000Y-102997000D01*
X57150000Y-102997000D02*
X57150000Y-102997000D01*
X57150000Y-101346000D02*
X57150000Y-100375000D01*
X89772722Y-117070741D02*
X90249842Y-116593621D01*
X93599000Y-114427000D02*
X92995000Y-114427000D01*
X92995000Y-114427000D02*
X92456000Y-114427000D01*
X92456000Y-114427000D02*
X92456000Y-114427000D01*
X90409117Y-116434346D02*
X89772722Y-117070741D01*
X90806461Y-116037002D02*
X90806461Y-116037002D01*
X51250000Y-100375000D02*
X51775000Y-100375000D01*
X90806461Y-116037002D02*
X90409117Y-116434346D01*
X52254000Y-100375000D02*
X51250000Y-100375000D01*
X90806461Y-113091711D02*
X88712750Y-110998000D01*
X90806461Y-116037002D02*
X90806461Y-113091711D01*
X54279111Y-102400111D02*
X52254000Y-100375000D01*
X88712750Y-110998000D02*
X66295078Y-110998000D01*
X66295078Y-110998000D02*
X57697189Y-102400111D01*
X57697189Y-102400111D02*
X54279111Y-102400111D01*
X90338407Y-117636427D02*
X90974802Y-117000032D01*
X91025968Y-117000032D02*
X91694000Y-116332000D01*
X90974802Y-117000032D02*
X91025968Y-117000032D01*
X91694000Y-116332000D02*
X93604000Y-116332000D01*
X52254000Y-99725000D02*
X51250000Y-99725000D01*
X91694000Y-116332000D02*
X91694000Y-113404500D01*
X91694000Y-113404500D02*
X88881090Y-110591590D01*
X88881090Y-110591590D02*
X66463418Y-110591590D01*
X66463418Y-110591590D02*
X57865529Y-101993701D01*
X57865529Y-101993701D02*
X54522701Y-101993701D01*
X54522701Y-101993701D02*
X52254000Y-99725000D01*
X85085000Y-142621000D02*
X86868000Y-142621000D01*
X85090000Y-140589000D02*
X86868000Y-140589000D01*
X85085000Y-138557000D02*
X86911000Y-138557000D01*
X78486000Y-122700609D02*
X78486000Y-123494799D01*
X78486000Y-123494799D02*
X78486000Y-124079000D01*
X80933887Y-120252722D02*
X78486000Y-122700609D01*
X78486000Y-124079000D02*
X78486000Y-124079000D01*
X78181201Y-129336799D02*
X74422000Y-133096000D01*
X78486000Y-129032000D02*
X78181201Y-129336799D01*
X74422000Y-133096000D02*
X74422000Y-138242000D01*
X81026000Y-122423351D02*
X81026000Y-122428000D01*
X82065258Y-121384093D02*
X81026000Y-122423351D01*
X81026000Y-122428000D02*
X80264000Y-123190000D01*
X80264000Y-123190000D02*
X80264000Y-124079000D01*
X72440052Y-133350000D02*
X72009000Y-133350000D01*
X73066348Y-133350000D02*
X72440052Y-133350000D01*
X77968549Y-128447799D02*
X73066348Y-133350000D01*
X79705201Y-128447799D02*
X77968549Y-128447799D01*
X80264000Y-127889000D02*
X79705201Y-128447799D01*
X66311500Y-138874500D02*
X66484500Y-138874500D01*
X63246000Y-136398000D02*
X63246000Y-136698000D01*
X62728000Y-144018000D02*
X62074000Y-144018000D01*
X66484500Y-140261500D02*
X62728000Y-144018000D01*
X66484500Y-138874500D02*
X66484500Y-140261500D01*
X63850000Y-136398000D02*
X63246000Y-136398000D01*
X64439052Y-136398000D02*
X63850000Y-136398000D01*
X66484500Y-138443448D02*
X64439052Y-136398000D01*
X66484500Y-138874500D02*
X66484500Y-138443448D01*
D42*
G36*
X85288800Y-90663564D02*
G01*
X85288800Y-99407000D01*
X85290264Y-99421866D01*
X85294600Y-99436160D01*
X85301642Y-99449334D01*
X85311118Y-99460882D01*
X86038800Y-100188564D01*
X86038800Y-103805800D01*
X83715000Y-103805800D01*
X83700134Y-103807264D01*
X83685840Y-103811600D01*
X83672732Y-103818598D01*
X83616929Y-103855800D01*
X81207496Y-103855800D01*
X79366200Y-102014504D01*
X79366200Y-100538564D01*
X79996564Y-99908200D01*
X80765000Y-99908200D01*
X80779866Y-99906736D01*
X80794160Y-99902400D01*
X80807334Y-99895358D01*
X80818882Y-99885882D01*
X81218882Y-99485882D01*
X81228358Y-99474334D01*
X81235400Y-99461160D01*
X81239736Y-99446866D01*
X81241200Y-99432000D01*
X81241200Y-97088564D01*
X81546564Y-96783200D01*
X82915000Y-96783200D01*
X82929866Y-96781736D01*
X82944160Y-96777400D01*
X82957334Y-96770358D01*
X82968882Y-96760882D01*
X83218882Y-96510882D01*
X83228358Y-96499334D01*
X83235400Y-96486160D01*
X83239736Y-96471866D01*
X83241200Y-96457000D01*
X83241200Y-92707000D01*
X83239736Y-92692134D01*
X83235400Y-92677840D01*
X83228358Y-92664666D01*
X83218882Y-92653118D01*
X83018882Y-92453118D01*
X83007334Y-92443642D01*
X82994160Y-92436600D01*
X82979866Y-92432264D01*
X82965000Y-92430800D01*
X81471564Y-92430800D01*
X81091200Y-92050436D01*
X81091200Y-90588564D01*
X81496564Y-90183200D01*
X84808436Y-90183200D01*
X85288800Y-90663564D01*
X85288800Y-90663564D01*
G37*
X85288800Y-90663564D02*
X85288800Y-99407000D01*
X85290264Y-99421866D01*
X85294600Y-99436160D01*
X85301642Y-99449334D01*
X85311118Y-99460882D01*
X86038800Y-100188564D01*
X86038800Y-103805800D01*
X83715000Y-103805800D01*
X83700134Y-103807264D01*
X83685840Y-103811600D01*
X83672732Y-103818598D01*
X83616929Y-103855800D01*
X81207496Y-103855800D01*
X79366200Y-102014504D01*
X79366200Y-100538564D01*
X79996564Y-99908200D01*
X80765000Y-99908200D01*
X80779866Y-99906736D01*
X80794160Y-99902400D01*
X80807334Y-99895358D01*
X80818882Y-99885882D01*
X81218882Y-99485882D01*
X81228358Y-99474334D01*
X81235400Y-99461160D01*
X81239736Y-99446866D01*
X81241200Y-99432000D01*
X81241200Y-97088564D01*
X81546564Y-96783200D01*
X82915000Y-96783200D01*
X82929866Y-96781736D01*
X82944160Y-96777400D01*
X82957334Y-96770358D01*
X82968882Y-96760882D01*
X83218882Y-96510882D01*
X83228358Y-96499334D01*
X83235400Y-96486160D01*
X83239736Y-96471866D01*
X83241200Y-96457000D01*
X83241200Y-92707000D01*
X83239736Y-92692134D01*
X83235400Y-92677840D01*
X83228358Y-92664666D01*
X83218882Y-92653118D01*
X83018882Y-92453118D01*
X83007334Y-92443642D01*
X82994160Y-92436600D01*
X82979866Y-92432264D01*
X82965000Y-92430800D01*
X81471564Y-92430800D01*
X81091200Y-92050436D01*
X81091200Y-90588564D01*
X81496564Y-90183200D01*
X84808436Y-90183200D01*
X85288800Y-90663564D01*
G36*
X97538800Y-96988564D02*
G01*
X97538800Y-106775436D01*
X95708436Y-108605800D01*
X89446564Y-108605800D01*
X87916200Y-107075436D01*
X87916200Y-101107000D01*
X87914736Y-101092134D01*
X87910400Y-101077840D01*
X87903358Y-101064666D01*
X87893882Y-101053118D01*
X85766200Y-98925436D01*
X85766200Y-94983200D01*
X95533436Y-94983200D01*
X97538800Y-96988564D01*
X97538800Y-96988564D01*
G37*
X97538800Y-96988564D02*
X97538800Y-106775436D01*
X95708436Y-108605800D01*
X89446564Y-108605800D01*
X87916200Y-107075436D01*
X87916200Y-101107000D01*
X87914736Y-101092134D01*
X87910400Y-101077840D01*
X87903358Y-101064666D01*
X87893882Y-101053118D01*
X85766200Y-98925436D01*
X85766200Y-94983200D01*
X95533436Y-94983200D01*
X97538800Y-96988564D01*
G36*
X76788800Y-88338564D02*
G01*
X76788800Y-94057000D01*
X76790264Y-94071866D01*
X76794600Y-94086160D01*
X76801642Y-94099334D01*
X76811118Y-94110882D01*
X77231036Y-94530800D01*
X71715000Y-94530800D01*
X71700134Y-94532264D01*
X71685840Y-94536600D01*
X71672666Y-94543642D01*
X71661118Y-94553118D01*
X71124156Y-95090080D01*
X65705844Y-95090080D01*
X65516200Y-94900436D01*
X65516200Y-88013564D01*
X66221564Y-87308200D01*
X75758436Y-87308200D01*
X76788800Y-88338564D01*
X76788800Y-88338564D01*
G37*
X76788800Y-88338564D02*
X76788800Y-94057000D01*
X76790264Y-94071866D01*
X76794600Y-94086160D01*
X76801642Y-94099334D01*
X76811118Y-94110882D01*
X77231036Y-94530800D01*
X71715000Y-94530800D01*
X71700134Y-94532264D01*
X71685840Y-94536600D01*
X71672666Y-94543642D01*
X71661118Y-94553118D01*
X71124156Y-95090080D01*
X65705844Y-95090080D01*
X65516200Y-94900436D01*
X65516200Y-88013564D01*
X66221564Y-87308200D01*
X75758436Y-87308200D01*
X76788800Y-88338564D01*
G36*
X78713800Y-94375436D02*
G01*
X78558436Y-94530800D01*
X78116200Y-94530800D01*
X78116200Y-92858200D01*
X78713800Y-92858200D01*
X78713800Y-94375436D01*
X78713800Y-94375436D01*
G37*
X78713800Y-94375436D02*
X78558436Y-94530800D01*
X78116200Y-94530800D01*
X78116200Y-92858200D01*
X78713800Y-92858200D01*
X78713800Y-94375436D01*
G36*
X77963800Y-94507000D02*
G01*
X77965264Y-94521866D01*
X77967974Y-94530800D01*
X77246564Y-94530800D01*
X77166200Y-94450436D01*
X77166200Y-94383200D01*
X77963800Y-94383200D01*
X77963800Y-94507000D01*
X77963800Y-94507000D01*
G37*
X77963800Y-94507000D02*
X77965264Y-94521866D01*
X77967974Y-94530800D01*
X77246564Y-94530800D01*
X77166200Y-94450436D01*
X77166200Y-94383200D01*
X77963800Y-94383200D01*
X77963800Y-94507000D01*
G36*
X78182236Y-94432000D02*
G01*
X78083436Y-94530800D01*
X77166200Y-94530800D01*
X77166200Y-94308200D01*
X78058436Y-94308200D01*
X78182236Y-94432000D01*
X78182236Y-94432000D01*
G37*
X78182236Y-94432000D02*
X78083436Y-94530800D01*
X77166200Y-94530800D01*
X77166200Y-94308200D01*
X78058436Y-94308200D01*
X78182236Y-94432000D01*
G36*
X82788800Y-92988564D02*
G01*
X82788800Y-94025436D01*
X82633436Y-94180800D01*
X79171564Y-94180800D01*
X79066200Y-94075436D01*
X79066200Y-92858200D01*
X82658436Y-92858200D01*
X82788800Y-92988564D01*
X82788800Y-92988564D01*
G37*
X82788800Y-92988564D02*
X82788800Y-94025436D01*
X82633436Y-94180800D01*
X79171564Y-94180800D01*
X79066200Y-94075436D01*
X79066200Y-92858200D01*
X82658436Y-92858200D01*
X82788800Y-92988564D01*
D43*
G36*
X82563000Y-96154394D02*
G01*
X82387394Y-96330000D01*
X80890000Y-96330000D01*
X80865224Y-96332440D01*
X80841399Y-96339667D01*
X80819443Y-96351403D01*
X80800197Y-96367197D01*
X80475197Y-96692197D01*
X80459403Y-96711443D01*
X80447667Y-96733399D01*
X80440440Y-96757224D01*
X80438000Y-96782000D01*
X80438000Y-99054394D01*
X80312394Y-99180000D01*
X79078500Y-99180000D01*
X79067000Y-99164667D01*
X79067000Y-95109000D01*
X82563000Y-95109000D01*
X82563000Y-96154394D01*
X82563000Y-96154394D01*
G37*
X82563000Y-96154394D02*
X82387394Y-96330000D01*
X80890000Y-96330000D01*
X80865224Y-96332440D01*
X80841399Y-96339667D01*
X80819443Y-96351403D01*
X80800197Y-96367197D01*
X80475197Y-96692197D01*
X80459403Y-96711443D01*
X80447667Y-96733399D01*
X80440440Y-96757224D01*
X80438000Y-96782000D01*
X80438000Y-99054394D01*
X80312394Y-99180000D01*
X79078500Y-99180000D01*
X79067000Y-99164667D01*
X79067000Y-95109000D01*
X82563000Y-95109000D01*
X82563000Y-96154394D01*
M02*
