G04 #@! TF.GenerationSoftware,KiCad,Pcbnew,5.1.10*
G04 #@! TF.CreationDate,2022-03-08T21:35:18-05:00*
G04 #@! TF.ProjectId,throttle,7468726f-7474-46c6-952e-6b696361645f,Rev 2*
G04 #@! TF.SameCoordinates,Original*
G04 #@! TF.FileFunction,Soldermask,Top*
G04 #@! TF.FilePolarity,Negative*
%FSLAX46Y46*%
G04 Gerber Fmt 4.6, Leading zero omitted, Abs format (unit mm)*
G04 Created by KiCad (PCBNEW 5.1.10) date 2022-03-08 21:35:18*
%MOMM*%
%LPD*%
G01*
G04 APERTURE LIST*
%ADD10C,3.102000*%
%ADD11C,1.602000*%
%ADD12C,1.502000*%
%ADD13C,1.622000*%
%ADD14C,3.101999*%
%ADD15C,0.100000*%
G04 APERTURE END LIST*
D10*
X162369500Y-127635000D03*
G36*
G01*
X164670500Y-122781000D02*
X164670500Y-123849000D01*
G75*
G02*
X164403500Y-124116000I-267000J0D01*
G01*
X163335500Y-124116000D01*
G75*
G02*
X163068500Y-123849000I0J267000D01*
G01*
X163068500Y-122781000D01*
G75*
G02*
X163335500Y-122514000I267000J0D01*
G01*
X164403500Y-122514000D01*
G75*
G02*
X164670500Y-122781000I0J-267000D01*
G01*
G37*
D11*
X160869500Y-123315000D03*
X163869500Y-120315000D03*
X160869500Y-120315000D03*
G36*
G01*
X194422000Y-109933501D02*
X194422000Y-108633499D01*
G75*
G02*
X194472999Y-108582500I50999J0D01*
G01*
X195173001Y-108582500D01*
G75*
G02*
X195224000Y-108633499I0J-50999D01*
G01*
X195224000Y-109933501D01*
G75*
G02*
X195173001Y-109984500I-50999J0D01*
G01*
X194472999Y-109984500D01*
G75*
G02*
X194422000Y-109933501I0J50999D01*
G01*
G37*
G36*
G01*
X196322000Y-109933501D02*
X196322000Y-108633499D01*
G75*
G02*
X196372999Y-108582500I50999J0D01*
G01*
X197073001Y-108582500D01*
G75*
G02*
X197124000Y-108633499I0J-50999D01*
G01*
X197124000Y-109933501D01*
G75*
G02*
X197073001Y-109984500I-50999J0D01*
G01*
X196372999Y-109984500D01*
G75*
G02*
X196322000Y-109933501I0J50999D01*
G01*
G37*
G36*
G01*
X198104000Y-109883501D02*
X198104000Y-108683499D01*
G75*
G02*
X198154999Y-108632500I50999J0D01*
G01*
X199355001Y-108632500D01*
G75*
G02*
X199406000Y-108683499I0J-50999D01*
G01*
X199406000Y-109883501D01*
G75*
G02*
X199355001Y-109934500I-50999J0D01*
G01*
X198154999Y-109934500D01*
G75*
G02*
X198104000Y-109883501I0J50999D01*
G01*
G37*
G36*
G01*
X200304000Y-109883501D02*
X200304000Y-108683499D01*
G75*
G02*
X200354999Y-108632500I50999J0D01*
G01*
X201555001Y-108632500D01*
G75*
G02*
X201606000Y-108683499I0J-50999D01*
G01*
X201606000Y-109883501D01*
G75*
G02*
X201555001Y-109934500I-50999J0D01*
G01*
X200354999Y-109934500D01*
G75*
G02*
X200304000Y-109883501I0J50999D01*
G01*
G37*
G36*
G01*
X191750000Y-112346501D02*
X191750000Y-111046499D01*
G75*
G02*
X191800999Y-110995500I50999J0D01*
G01*
X192501001Y-110995500D01*
G75*
G02*
X192552000Y-111046499I0J-50999D01*
G01*
X192552000Y-112346501D01*
G75*
G02*
X192501001Y-112397500I-50999J0D01*
G01*
X191800999Y-112397500D01*
G75*
G02*
X191750000Y-112346501I0J50999D01*
G01*
G37*
G36*
G01*
X193650000Y-112346501D02*
X193650000Y-111046499D01*
G75*
G02*
X193700999Y-110995500I50999J0D01*
G01*
X194401001Y-110995500D01*
G75*
G02*
X194452000Y-111046499I0J-50999D01*
G01*
X194452000Y-112346501D01*
G75*
G02*
X194401001Y-112397500I-50999J0D01*
G01*
X193700999Y-112397500D01*
G75*
G02*
X193650000Y-112346501I0J50999D01*
G01*
G37*
G36*
G01*
X195396000Y-112296501D02*
X195396000Y-111096499D01*
G75*
G02*
X195446999Y-111045500I50999J0D01*
G01*
X196647001Y-111045500D01*
G75*
G02*
X196698000Y-111096499I0J-50999D01*
G01*
X196698000Y-112296501D01*
G75*
G02*
X196647001Y-112347500I-50999J0D01*
G01*
X195446999Y-112347500D01*
G75*
G02*
X195396000Y-112296501I0J50999D01*
G01*
G37*
G36*
G01*
X197596000Y-112296501D02*
X197596000Y-111096499D01*
G75*
G02*
X197646999Y-111045500I50999J0D01*
G01*
X198847001Y-111045500D01*
G75*
G02*
X198898000Y-111096499I0J-50999D01*
G01*
X198898000Y-112296501D01*
G75*
G02*
X198847001Y-112347500I-50999J0D01*
G01*
X197646999Y-112347500D01*
G75*
G02*
X197596000Y-112296501I0J50999D01*
G01*
G37*
G36*
G01*
X177911999Y-95039500D02*
X179212001Y-95039500D01*
G75*
G02*
X179263000Y-95090499I0J-50999D01*
G01*
X179263000Y-95790501D01*
G75*
G02*
X179212001Y-95841500I-50999J0D01*
G01*
X177911999Y-95841500D01*
G75*
G02*
X177861000Y-95790501I0J50999D01*
G01*
X177861000Y-95090499D01*
G75*
G02*
X177911999Y-95039500I50999J0D01*
G01*
G37*
G36*
G01*
X177911999Y-96939500D02*
X179212001Y-96939500D01*
G75*
G02*
X179263000Y-96990499I0J-50999D01*
G01*
X179263000Y-97690501D01*
G75*
G02*
X179212001Y-97741500I-50999J0D01*
G01*
X177911999Y-97741500D01*
G75*
G02*
X177861000Y-97690501I0J50999D01*
G01*
X177861000Y-96990499D01*
G75*
G02*
X177911999Y-96939500I50999J0D01*
G01*
G37*
G36*
G01*
X177063000Y-111236999D02*
X177063000Y-112537001D01*
G75*
G02*
X177012001Y-112588000I-50999J0D01*
G01*
X176311999Y-112588000D01*
G75*
G02*
X176261000Y-112537001I0J50999D01*
G01*
X176261000Y-111236999D01*
G75*
G02*
X176311999Y-111186000I50999J0D01*
G01*
X177012001Y-111186000D01*
G75*
G02*
X177063000Y-111236999I0J-50999D01*
G01*
G37*
G36*
G01*
X178963000Y-111236999D02*
X178963000Y-112537001D01*
G75*
G02*
X178912001Y-112588000I-50999J0D01*
G01*
X178211999Y-112588000D01*
G75*
G02*
X178161000Y-112537001I0J50999D01*
G01*
X178161000Y-111236999D01*
G75*
G02*
X178211999Y-111186000I50999J0D01*
G01*
X178912001Y-111186000D01*
G75*
G02*
X178963000Y-111236999I0J-50999D01*
G01*
G37*
G36*
G01*
X172441000Y-112112499D02*
X172441000Y-113312501D01*
G75*
G02*
X172390001Y-113363500I-50999J0D01*
G01*
X171189999Y-113363500D01*
G75*
G02*
X171139000Y-113312501I0J50999D01*
G01*
X171139000Y-112112499D01*
G75*
G02*
X171189999Y-112061500I50999J0D01*
G01*
X172390001Y-112061500D01*
G75*
G02*
X172441000Y-112112499I0J-50999D01*
G01*
G37*
G36*
G01*
X174641000Y-112112499D02*
X174641000Y-113312501D01*
G75*
G02*
X174590001Y-113363500I-50999J0D01*
G01*
X173389999Y-113363500D01*
G75*
G02*
X173339000Y-113312501I0J50999D01*
G01*
X173339000Y-112112499D01*
G75*
G02*
X173389999Y-112061500I50999J0D01*
G01*
X174590001Y-112061500D01*
G75*
G02*
X174641000Y-112112499I0J-50999D01*
G01*
G37*
G36*
G01*
X175684000Y-103451500D02*
X175684000Y-104701500D01*
G75*
G02*
X175633000Y-104752500I-51000J0D01*
G01*
X174633000Y-104752500D01*
G75*
G02*
X174582000Y-104701500I0J51000D01*
G01*
X174582000Y-103451500D01*
G75*
G02*
X174633000Y-103400500I51000J0D01*
G01*
X175633000Y-103400500D01*
G75*
G02*
X175684000Y-103451500I0J-51000D01*
G01*
G37*
G36*
G01*
X177684000Y-103451500D02*
X177684000Y-104701500D01*
G75*
G02*
X177633000Y-104752500I-51000J0D01*
G01*
X176633000Y-104752500D01*
G75*
G02*
X176582000Y-104701500I0J51000D01*
G01*
X176582000Y-103451500D01*
G75*
G02*
X176633000Y-103400500I51000J0D01*
G01*
X177633000Y-103400500D01*
G75*
G02*
X177684000Y-103451500I0J-51000D01*
G01*
G37*
G36*
G01*
X201465000Y-105229500D02*
X201465000Y-106479500D01*
G75*
G02*
X201414000Y-106530500I-51000J0D01*
G01*
X200414000Y-106530500D01*
G75*
G02*
X200363000Y-106479500I0J51000D01*
G01*
X200363000Y-105229500D01*
G75*
G02*
X200414000Y-105178500I51000J0D01*
G01*
X201414000Y-105178500D01*
G75*
G02*
X201465000Y-105229500I0J-51000D01*
G01*
G37*
G36*
G01*
X199465000Y-105229500D02*
X199465000Y-106479500D01*
G75*
G02*
X199414000Y-106530500I-51000J0D01*
G01*
X198414000Y-106530500D01*
G75*
G02*
X198363000Y-106479500I0J51000D01*
G01*
X198363000Y-105229500D01*
G75*
G02*
X198414000Y-105178500I51000J0D01*
G01*
X199414000Y-105178500D01*
G75*
G02*
X199465000Y-105229500I0J-51000D01*
G01*
G37*
G36*
G01*
X192903000Y-109929500D02*
X191653000Y-109929500D01*
G75*
G02*
X191602000Y-109878500I0J51000D01*
G01*
X191602000Y-108878500D01*
G75*
G02*
X191653000Y-108827500I51000J0D01*
G01*
X192903000Y-108827500D01*
G75*
G02*
X192954000Y-108878500I0J-51000D01*
G01*
X192954000Y-109878500D01*
G75*
G02*
X192903000Y-109929500I-51000J0D01*
G01*
G37*
G36*
G01*
X192903000Y-107929500D02*
X191653000Y-107929500D01*
G75*
G02*
X191602000Y-107878500I0J51000D01*
G01*
X191602000Y-106878500D01*
G75*
G02*
X191653000Y-106827500I51000J0D01*
G01*
X192903000Y-106827500D01*
G75*
G02*
X192954000Y-106878500I0J-51000D01*
G01*
X192954000Y-107878500D01*
G75*
G02*
X192903000Y-107929500I-51000J0D01*
G01*
G37*
G36*
G01*
X186573000Y-116066500D02*
X187823000Y-116066500D01*
G75*
G02*
X187874000Y-116117500I0J-51000D01*
G01*
X187874000Y-117117500D01*
G75*
G02*
X187823000Y-117168500I-51000J0D01*
G01*
X186573000Y-117168500D01*
G75*
G02*
X186522000Y-117117500I0J51000D01*
G01*
X186522000Y-116117500D01*
G75*
G02*
X186573000Y-116066500I51000J0D01*
G01*
G37*
G36*
G01*
X186573000Y-114066500D02*
X187823000Y-114066500D01*
G75*
G02*
X187874000Y-114117500I0J-51000D01*
G01*
X187874000Y-115117500D01*
G75*
G02*
X187823000Y-115168500I-51000J0D01*
G01*
X186573000Y-115168500D01*
G75*
G02*
X186522000Y-115117500I0J51000D01*
G01*
X186522000Y-114117500D01*
G75*
G02*
X186573000Y-114066500I51000J0D01*
G01*
G37*
G36*
G01*
X181727000Y-117168500D02*
X180477000Y-117168500D01*
G75*
G02*
X180426000Y-117117500I0J51000D01*
G01*
X180426000Y-116117500D01*
G75*
G02*
X180477000Y-116066500I51000J0D01*
G01*
X181727000Y-116066500D01*
G75*
G02*
X181778000Y-116117500I0J-51000D01*
G01*
X181778000Y-117117500D01*
G75*
G02*
X181727000Y-117168500I-51000J0D01*
G01*
G37*
G36*
G01*
X181727000Y-115168500D02*
X180477000Y-115168500D01*
G75*
G02*
X180426000Y-115117500I0J51000D01*
G01*
X180426000Y-114117500D01*
G75*
G02*
X180477000Y-114066500I51000J0D01*
G01*
X181727000Y-114066500D01*
G75*
G02*
X181778000Y-114117500I0J-51000D01*
G01*
X181778000Y-115117500D01*
G75*
G02*
X181727000Y-115168500I-51000J0D01*
G01*
G37*
G36*
G01*
X162317000Y-105284500D02*
X162317000Y-103884500D01*
G75*
G02*
X162368000Y-103833500I51000J0D01*
G01*
X163768000Y-103833500D01*
G75*
G02*
X163819000Y-103884500I0J-51000D01*
G01*
X163819000Y-105284500D01*
G75*
G02*
X163768000Y-105335500I-51000J0D01*
G01*
X162368000Y-105335500D01*
G75*
G02*
X162317000Y-105284500I0J51000D01*
G01*
G37*
D12*
X165608000Y-104584500D03*
X163068000Y-107124500D03*
X165608000Y-107124500D03*
X163068000Y-109664500D03*
X165608000Y-109664500D03*
G36*
G01*
X163102719Y-90108499D02*
X163102719Y-91628501D01*
G75*
G02*
X163051720Y-91679500I-50999J0D01*
G01*
X161531718Y-91679500D01*
G75*
G02*
X161480719Y-91628501I0J50999D01*
G01*
X161480719Y-90108499D01*
G75*
G02*
X161531718Y-90057500I50999J0D01*
G01*
X163051720Y-90057500D01*
G75*
G02*
X163102719Y-90108499I0J-50999D01*
G01*
G37*
D13*
X165291718Y-90868500D03*
X168291717Y-90868500D03*
X171291716Y-90868500D03*
X174291715Y-90868500D03*
X177291714Y-90868500D03*
X180291713Y-90868500D03*
X183291713Y-90868500D03*
X186291712Y-90868500D03*
X189291711Y-90868500D03*
X192291710Y-90868500D03*
X195291709Y-90868500D03*
D14*
X164441763Y-86548501D03*
X193141706Y-86548501D03*
G36*
G01*
X195224000Y-105204499D02*
X195224000Y-106504501D01*
G75*
G02*
X195173001Y-106555500I-50999J0D01*
G01*
X194472999Y-106555500D01*
G75*
G02*
X194422000Y-106504501I0J50999D01*
G01*
X194422000Y-105204499D01*
G75*
G02*
X194472999Y-105153500I50999J0D01*
G01*
X195173001Y-105153500D01*
G75*
G02*
X195224000Y-105204499I0J-50999D01*
G01*
G37*
G36*
G01*
X197124000Y-105204499D02*
X197124000Y-106504501D01*
G75*
G02*
X197073001Y-106555500I-50999J0D01*
G01*
X196372999Y-106555500D01*
G75*
G02*
X196322000Y-106504501I0J50999D01*
G01*
X196322000Y-105204499D01*
G75*
G02*
X196372999Y-105153500I50999J0D01*
G01*
X197073001Y-105153500D01*
G75*
G02*
X197124000Y-105204499I0J-50999D01*
G01*
G37*
G36*
G01*
X169687001Y-109430500D02*
X168386999Y-109430500D01*
G75*
G02*
X168336000Y-109379501I0J50999D01*
G01*
X168336000Y-108679499D01*
G75*
G02*
X168386999Y-108628500I50999J0D01*
G01*
X169687001Y-108628500D01*
G75*
G02*
X169738000Y-108679499I0J-50999D01*
G01*
X169738000Y-109379501D01*
G75*
G02*
X169687001Y-109430500I-50999J0D01*
G01*
G37*
G36*
G01*
X169687001Y-107530500D02*
X168386999Y-107530500D01*
G75*
G02*
X168336000Y-107479501I0J50999D01*
G01*
X168336000Y-106779499D01*
G75*
G02*
X168386999Y-106728500I50999J0D01*
G01*
X169687001Y-106728500D01*
G75*
G02*
X169738000Y-106779499I0J-50999D01*
G01*
X169738000Y-107479501D01*
G75*
G02*
X169687001Y-107530500I-50999J0D01*
G01*
G37*
G36*
G01*
X181468000Y-102694501D02*
X181468000Y-101394499D01*
G75*
G02*
X181518999Y-101343500I50999J0D01*
G01*
X182219001Y-101343500D01*
G75*
G02*
X182270000Y-101394499I0J-50999D01*
G01*
X182270000Y-102694501D01*
G75*
G02*
X182219001Y-102745500I-50999J0D01*
G01*
X181518999Y-102745500D01*
G75*
G02*
X181468000Y-102694501I0J50999D01*
G01*
G37*
G36*
G01*
X183368000Y-102694501D02*
X183368000Y-101394499D01*
G75*
G02*
X183418999Y-101343500I50999J0D01*
G01*
X184119001Y-101343500D01*
G75*
G02*
X184170000Y-101394499I0J-50999D01*
G01*
X184170000Y-102694501D01*
G75*
G02*
X184119001Y-102745500I-50999J0D01*
G01*
X183418999Y-102745500D01*
G75*
G02*
X183368000Y-102694501I0J50999D01*
G01*
G37*
G36*
G01*
X196174000Y-94028499D02*
X196174000Y-95328501D01*
G75*
G02*
X196123001Y-95379500I-50999J0D01*
G01*
X195422999Y-95379500D01*
G75*
G02*
X195372000Y-95328501I0J50999D01*
G01*
X195372000Y-94028499D01*
G75*
G02*
X195422999Y-93977500I50999J0D01*
G01*
X196123001Y-93977500D01*
G75*
G02*
X196174000Y-94028499I0J-50999D01*
G01*
G37*
G36*
G01*
X198074000Y-94028499D02*
X198074000Y-95328501D01*
G75*
G02*
X198023001Y-95379500I-50999J0D01*
G01*
X197322999Y-95379500D01*
G75*
G02*
X197272000Y-95328501I0J50999D01*
G01*
X197272000Y-94028499D01*
G75*
G02*
X197322999Y-93977500I50999J0D01*
G01*
X198023001Y-93977500D01*
G75*
G02*
X198074000Y-94028499I0J-50999D01*
G01*
G37*
G36*
G01*
X174650000Y-94282499D02*
X174650000Y-95582501D01*
G75*
G02*
X174599001Y-95633500I-50999J0D01*
G01*
X173898999Y-95633500D01*
G75*
G02*
X173848000Y-95582501I0J50999D01*
G01*
X173848000Y-94282499D01*
G75*
G02*
X173898999Y-94231500I50999J0D01*
G01*
X174599001Y-94231500D01*
G75*
G02*
X174650000Y-94282499I0J-50999D01*
G01*
G37*
G36*
G01*
X176550000Y-94282499D02*
X176550000Y-95582501D01*
G75*
G02*
X176499001Y-95633500I-50999J0D01*
G01*
X175798999Y-95633500D01*
G75*
G02*
X175748000Y-95582501I0J50999D01*
G01*
X175748000Y-94282499D01*
G75*
G02*
X175798999Y-94231500I50999J0D01*
G01*
X176499001Y-94231500D01*
G75*
G02*
X176550000Y-94282499I0J-50999D01*
G01*
G37*
G36*
G01*
X199120999Y-98082500D02*
X200421001Y-98082500D01*
G75*
G02*
X200472000Y-98133499I0J-50999D01*
G01*
X200472000Y-98833501D01*
G75*
G02*
X200421001Y-98884500I-50999J0D01*
G01*
X199120999Y-98884500D01*
G75*
G02*
X199070000Y-98833501I0J50999D01*
G01*
X199070000Y-98133499D01*
G75*
G02*
X199120999Y-98082500I50999J0D01*
G01*
G37*
G36*
G01*
X199120999Y-96182500D02*
X200421001Y-96182500D01*
G75*
G02*
X200472000Y-96233499I0J-50999D01*
G01*
X200472000Y-96933501D01*
G75*
G02*
X200421001Y-96984500I-50999J0D01*
G01*
X199120999Y-96984500D01*
G75*
G02*
X199070000Y-96933501I0J50999D01*
G01*
X199070000Y-96233499D01*
G75*
G02*
X199120999Y-96182500I50999J0D01*
G01*
G37*
G36*
G01*
X194833001Y-98884500D02*
X193532999Y-98884500D01*
G75*
G02*
X193482000Y-98833501I0J50999D01*
G01*
X193482000Y-98133499D01*
G75*
G02*
X193532999Y-98082500I50999J0D01*
G01*
X194833001Y-98082500D01*
G75*
G02*
X194884000Y-98133499I0J-50999D01*
G01*
X194884000Y-98833501D01*
G75*
G02*
X194833001Y-98884500I-50999J0D01*
G01*
G37*
G36*
G01*
X194833001Y-96984500D02*
X193532999Y-96984500D01*
G75*
G02*
X193482000Y-96933501I0J50999D01*
G01*
X193482000Y-96233499D01*
G75*
G02*
X193532999Y-96182500I50999J0D01*
G01*
X194833001Y-96182500D01*
G75*
G02*
X194884000Y-96233499I0J-50999D01*
G01*
X194884000Y-96933501D01*
G75*
G02*
X194833001Y-96984500I-50999J0D01*
G01*
G37*
G36*
G01*
X173243001Y-97238500D02*
X171942999Y-97238500D01*
G75*
G02*
X171892000Y-97187501I0J50999D01*
G01*
X171892000Y-96487499D01*
G75*
G02*
X171942999Y-96436500I50999J0D01*
G01*
X173243001Y-96436500D01*
G75*
G02*
X173294000Y-96487499I0J-50999D01*
G01*
X173294000Y-97187501D01*
G75*
G02*
X173243001Y-97238500I-50999J0D01*
G01*
G37*
G36*
G01*
X173243001Y-99138500D02*
X171942999Y-99138500D01*
G75*
G02*
X171892000Y-99087501I0J50999D01*
G01*
X171892000Y-98387499D01*
G75*
G02*
X171942999Y-98336500I50999J0D01*
G01*
X173243001Y-98336500D01*
G75*
G02*
X173294000Y-98387499I0J-50999D01*
G01*
X173294000Y-99087501D01*
G75*
G02*
X173243001Y-99138500I-50999J0D01*
G01*
G37*
G36*
G01*
X187345000Y-94155499D02*
X187345000Y-95455501D01*
G75*
G02*
X187294001Y-95506500I-50999J0D01*
G01*
X186593999Y-95506500D01*
G75*
G02*
X186543000Y-95455501I0J50999D01*
G01*
X186543000Y-94155499D01*
G75*
G02*
X186593999Y-94104500I50999J0D01*
G01*
X187294001Y-94104500D01*
G75*
G02*
X187345000Y-94155499I0J-50999D01*
G01*
G37*
G36*
G01*
X185445000Y-94155499D02*
X185445000Y-95455501D01*
G75*
G02*
X185394001Y-95506500I-50999J0D01*
G01*
X184693999Y-95506500D01*
G75*
G02*
X184643000Y-95455501I0J50999D01*
G01*
X184643000Y-94155499D01*
G75*
G02*
X184693999Y-94104500I50999J0D01*
G01*
X185394001Y-94104500D01*
G75*
G02*
X185445000Y-94155499I0J-50999D01*
G01*
G37*
G36*
G01*
X165252000Y-94282499D02*
X165252000Y-95582501D01*
G75*
G02*
X165201001Y-95633500I-50999J0D01*
G01*
X164500999Y-95633500D01*
G75*
G02*
X164450000Y-95582501I0J50999D01*
G01*
X164450000Y-94282499D01*
G75*
G02*
X164500999Y-94231500I50999J0D01*
G01*
X165201001Y-94231500D01*
G75*
G02*
X165252000Y-94282499I0J-50999D01*
G01*
G37*
G36*
G01*
X167152000Y-94282499D02*
X167152000Y-95582501D01*
G75*
G02*
X167101001Y-95633500I-50999J0D01*
G01*
X166400999Y-95633500D01*
G75*
G02*
X166350000Y-95582501I0J50999D01*
G01*
X166350000Y-94282499D01*
G75*
G02*
X166400999Y-94231500I50999J0D01*
G01*
X167101001Y-94231500D01*
G75*
G02*
X167152000Y-94282499I0J-50999D01*
G01*
G37*
G36*
G01*
X188579999Y-96309500D02*
X189880001Y-96309500D01*
G75*
G02*
X189931000Y-96360499I0J-50999D01*
G01*
X189931000Y-97060501D01*
G75*
G02*
X189880001Y-97111500I-50999J0D01*
G01*
X188579999Y-97111500D01*
G75*
G02*
X188529000Y-97060501I0J50999D01*
G01*
X188529000Y-96360499D01*
G75*
G02*
X188579999Y-96309500I50999J0D01*
G01*
G37*
G36*
G01*
X188579999Y-98209500D02*
X189880001Y-98209500D01*
G75*
G02*
X189931000Y-98260499I0J-50999D01*
G01*
X189931000Y-98960501D01*
G75*
G02*
X189880001Y-99011500I-50999J0D01*
G01*
X188579999Y-99011500D01*
G75*
G02*
X188529000Y-98960501I0J50999D01*
G01*
X188529000Y-98260499D01*
G75*
G02*
X188579999Y-98209500I50999J0D01*
G01*
G37*
G36*
G01*
X184038001Y-99011500D02*
X182737999Y-99011500D01*
G75*
G02*
X182687000Y-98960501I0J50999D01*
G01*
X182687000Y-98260499D01*
G75*
G02*
X182737999Y-98209500I50999J0D01*
G01*
X184038001Y-98209500D01*
G75*
G02*
X184089000Y-98260499I0J-50999D01*
G01*
X184089000Y-98960501D01*
G75*
G02*
X184038001Y-99011500I-50999J0D01*
G01*
G37*
G36*
G01*
X184038001Y-97111500D02*
X182737999Y-97111500D01*
G75*
G02*
X182687000Y-97060501I0J50999D01*
G01*
X182687000Y-96360499D01*
G75*
G02*
X182737999Y-96309500I50999J0D01*
G01*
X184038001Y-96309500D01*
G75*
G02*
X184089000Y-96360499I0J-50999D01*
G01*
X184089000Y-97060501D01*
G75*
G02*
X184038001Y-97111500I-50999J0D01*
G01*
G37*
G36*
G01*
X168259999Y-98336500D02*
X169560001Y-98336500D01*
G75*
G02*
X169611000Y-98387499I0J-50999D01*
G01*
X169611000Y-99087501D01*
G75*
G02*
X169560001Y-99138500I-50999J0D01*
G01*
X168259999Y-99138500D01*
G75*
G02*
X168209000Y-99087501I0J50999D01*
G01*
X168209000Y-98387499D01*
G75*
G02*
X168259999Y-98336500I50999J0D01*
G01*
G37*
G36*
G01*
X168259999Y-96436500D02*
X169560001Y-96436500D01*
G75*
G02*
X169611000Y-96487499I0J-50999D01*
G01*
X169611000Y-97187501D01*
G75*
G02*
X169560001Y-97238500I-50999J0D01*
G01*
X168259999Y-97238500D01*
G75*
G02*
X168209000Y-97187501I0J50999D01*
G01*
X168209000Y-96487499D01*
G75*
G02*
X168259999Y-96436500I50999J0D01*
G01*
G37*
G36*
G01*
X163718001Y-99138500D02*
X162417999Y-99138500D01*
G75*
G02*
X162367000Y-99087501I0J50999D01*
G01*
X162367000Y-98387499D01*
G75*
G02*
X162417999Y-98336500I50999J0D01*
G01*
X163718001Y-98336500D01*
G75*
G02*
X163769000Y-98387499I0J-50999D01*
G01*
X163769000Y-99087501D01*
G75*
G02*
X163718001Y-99138500I-50999J0D01*
G01*
G37*
G36*
G01*
X163718001Y-97238500D02*
X162417999Y-97238500D01*
G75*
G02*
X162367000Y-97187501I0J50999D01*
G01*
X162367000Y-96487499D01*
G75*
G02*
X162417999Y-96436500I50999J0D01*
G01*
X163718001Y-96436500D01*
G75*
G02*
X163769000Y-96487499I0J-50999D01*
G01*
X163769000Y-97187501D01*
G75*
G02*
X163718001Y-97238500I-50999J0D01*
G01*
G37*
G36*
G01*
X172243000Y-109618500D02*
X172243000Y-110218500D01*
G75*
G02*
X172192000Y-110269500I-51000J0D01*
G01*
X170642000Y-110269500D01*
G75*
G02*
X170591000Y-110218500I0J51000D01*
G01*
X170591000Y-109618500D01*
G75*
G02*
X170642000Y-109567500I51000J0D01*
G01*
X172192000Y-109567500D01*
G75*
G02*
X172243000Y-109618500I0J-51000D01*
G01*
G37*
G36*
G01*
X172243000Y-108348500D02*
X172243000Y-108948500D01*
G75*
G02*
X172192000Y-108999500I-51000J0D01*
G01*
X170642000Y-108999500D01*
G75*
G02*
X170591000Y-108948500I0J51000D01*
G01*
X170591000Y-108348500D01*
G75*
G02*
X170642000Y-108297500I51000J0D01*
G01*
X172192000Y-108297500D01*
G75*
G02*
X172243000Y-108348500I0J-51000D01*
G01*
G37*
G36*
G01*
X172243000Y-107078500D02*
X172243000Y-107678500D01*
G75*
G02*
X172192000Y-107729500I-51000J0D01*
G01*
X170642000Y-107729500D01*
G75*
G02*
X170591000Y-107678500I0J51000D01*
G01*
X170591000Y-107078500D01*
G75*
G02*
X170642000Y-107027500I51000J0D01*
G01*
X172192000Y-107027500D01*
G75*
G02*
X172243000Y-107078500I0J-51000D01*
G01*
G37*
G36*
G01*
X172243000Y-105808500D02*
X172243000Y-106408500D01*
G75*
G02*
X172192000Y-106459500I-51000J0D01*
G01*
X170642000Y-106459500D01*
G75*
G02*
X170591000Y-106408500I0J51000D01*
G01*
X170591000Y-105808500D01*
G75*
G02*
X170642000Y-105757500I51000J0D01*
G01*
X172192000Y-105757500D01*
G75*
G02*
X172243000Y-105808500I0J-51000D01*
G01*
G37*
G36*
G01*
X177643000Y-105808500D02*
X177643000Y-106408500D01*
G75*
G02*
X177592000Y-106459500I-51000J0D01*
G01*
X176042000Y-106459500D01*
G75*
G02*
X175991000Y-106408500I0J51000D01*
G01*
X175991000Y-105808500D01*
G75*
G02*
X176042000Y-105757500I51000J0D01*
G01*
X177592000Y-105757500D01*
G75*
G02*
X177643000Y-105808500I0J-51000D01*
G01*
G37*
G36*
G01*
X177643000Y-107078500D02*
X177643000Y-107678500D01*
G75*
G02*
X177592000Y-107729500I-51000J0D01*
G01*
X176042000Y-107729500D01*
G75*
G02*
X175991000Y-107678500I0J51000D01*
G01*
X175991000Y-107078500D01*
G75*
G02*
X176042000Y-107027500I51000J0D01*
G01*
X177592000Y-107027500D01*
G75*
G02*
X177643000Y-107078500I0J-51000D01*
G01*
G37*
G36*
G01*
X177643000Y-108348500D02*
X177643000Y-108948500D01*
G75*
G02*
X177592000Y-108999500I-51000J0D01*
G01*
X176042000Y-108999500D01*
G75*
G02*
X175991000Y-108948500I0J51000D01*
G01*
X175991000Y-108348500D01*
G75*
G02*
X176042000Y-108297500I51000J0D01*
G01*
X177592000Y-108297500D01*
G75*
G02*
X177643000Y-108348500I0J-51000D01*
G01*
G37*
G36*
G01*
X177643000Y-109618500D02*
X177643000Y-110218500D01*
G75*
G02*
X177592000Y-110269500I-51000J0D01*
G01*
X176042000Y-110269500D01*
G75*
G02*
X175991000Y-110218500I0J51000D01*
G01*
X175991000Y-109618500D01*
G75*
G02*
X176042000Y-109567500I51000J0D01*
G01*
X177592000Y-109567500D01*
G75*
G02*
X177643000Y-109618500I0J-51000D01*
G01*
G37*
G36*
G01*
X180895000Y-105888500D02*
X180895000Y-105338500D01*
G75*
G02*
X180946000Y-105287500I51000J0D01*
G01*
X182546000Y-105287500D01*
G75*
G02*
X182597000Y-105338500I0J-51000D01*
G01*
X182597000Y-105888500D01*
G75*
G02*
X182546000Y-105939500I-51000J0D01*
G01*
X180946000Y-105939500D01*
G75*
G02*
X180895000Y-105888500I0J51000D01*
G01*
G37*
G36*
G01*
X180895000Y-106688500D02*
X180895000Y-106138500D01*
G75*
G02*
X180946000Y-106087500I51000J0D01*
G01*
X182546000Y-106087500D01*
G75*
G02*
X182597000Y-106138500I0J-51000D01*
G01*
X182597000Y-106688500D01*
G75*
G02*
X182546000Y-106739500I-51000J0D01*
G01*
X180946000Y-106739500D01*
G75*
G02*
X180895000Y-106688500I0J51000D01*
G01*
G37*
G36*
G01*
X180895000Y-107488500D02*
X180895000Y-106938500D01*
G75*
G02*
X180946000Y-106887500I51000J0D01*
G01*
X182546000Y-106887500D01*
G75*
G02*
X182597000Y-106938500I0J-51000D01*
G01*
X182597000Y-107488500D01*
G75*
G02*
X182546000Y-107539500I-51000J0D01*
G01*
X180946000Y-107539500D01*
G75*
G02*
X180895000Y-107488500I0J51000D01*
G01*
G37*
G36*
G01*
X180895000Y-108288500D02*
X180895000Y-107738500D01*
G75*
G02*
X180946000Y-107687500I51000J0D01*
G01*
X182546000Y-107687500D01*
G75*
G02*
X182597000Y-107738500I0J-51000D01*
G01*
X182597000Y-108288500D01*
G75*
G02*
X182546000Y-108339500I-51000J0D01*
G01*
X180946000Y-108339500D01*
G75*
G02*
X180895000Y-108288500I0J51000D01*
G01*
G37*
G36*
G01*
X180895000Y-109088500D02*
X180895000Y-108538500D01*
G75*
G02*
X180946000Y-108487500I51000J0D01*
G01*
X182546000Y-108487500D01*
G75*
G02*
X182597000Y-108538500I0J-51000D01*
G01*
X182597000Y-109088500D01*
G75*
G02*
X182546000Y-109139500I-51000J0D01*
G01*
X180946000Y-109139500D01*
G75*
G02*
X180895000Y-109088500I0J51000D01*
G01*
G37*
G36*
G01*
X180895000Y-109888500D02*
X180895000Y-109338500D01*
G75*
G02*
X180946000Y-109287500I51000J0D01*
G01*
X182546000Y-109287500D01*
G75*
G02*
X182597000Y-109338500I0J-51000D01*
G01*
X182597000Y-109888500D01*
G75*
G02*
X182546000Y-109939500I-51000J0D01*
G01*
X180946000Y-109939500D01*
G75*
G02*
X180895000Y-109888500I0J51000D01*
G01*
G37*
G36*
G01*
X180895000Y-110688500D02*
X180895000Y-110138500D01*
G75*
G02*
X180946000Y-110087500I51000J0D01*
G01*
X182546000Y-110087500D01*
G75*
G02*
X182597000Y-110138500I0J-51000D01*
G01*
X182597000Y-110688500D01*
G75*
G02*
X182546000Y-110739500I-51000J0D01*
G01*
X180946000Y-110739500D01*
G75*
G02*
X180895000Y-110688500I0J51000D01*
G01*
G37*
G36*
G01*
X180895000Y-111488500D02*
X180895000Y-110938500D01*
G75*
G02*
X180946000Y-110887500I51000J0D01*
G01*
X182546000Y-110887500D01*
G75*
G02*
X182597000Y-110938500I0J-51000D01*
G01*
X182597000Y-111488500D01*
G75*
G02*
X182546000Y-111539500I-51000J0D01*
G01*
X180946000Y-111539500D01*
G75*
G02*
X180895000Y-111488500I0J51000D01*
G01*
G37*
G36*
G01*
X183471000Y-113514500D02*
X182921000Y-113514500D01*
G75*
G02*
X182870000Y-113463500I0J51000D01*
G01*
X182870000Y-111863500D01*
G75*
G02*
X182921000Y-111812500I51000J0D01*
G01*
X183471000Y-111812500D01*
G75*
G02*
X183522000Y-111863500I0J-51000D01*
G01*
X183522000Y-113463500D01*
G75*
G02*
X183471000Y-113514500I-51000J0D01*
G01*
G37*
G36*
G01*
X184271000Y-113514500D02*
X183721000Y-113514500D01*
G75*
G02*
X183670000Y-113463500I0J51000D01*
G01*
X183670000Y-111863500D01*
G75*
G02*
X183721000Y-111812500I51000J0D01*
G01*
X184271000Y-111812500D01*
G75*
G02*
X184322000Y-111863500I0J-51000D01*
G01*
X184322000Y-113463500D01*
G75*
G02*
X184271000Y-113514500I-51000J0D01*
G01*
G37*
G36*
G01*
X185071000Y-113514500D02*
X184521000Y-113514500D01*
G75*
G02*
X184470000Y-113463500I0J51000D01*
G01*
X184470000Y-111863500D01*
G75*
G02*
X184521000Y-111812500I51000J0D01*
G01*
X185071000Y-111812500D01*
G75*
G02*
X185122000Y-111863500I0J-51000D01*
G01*
X185122000Y-113463500D01*
G75*
G02*
X185071000Y-113514500I-51000J0D01*
G01*
G37*
G36*
G01*
X185871000Y-113514500D02*
X185321000Y-113514500D01*
G75*
G02*
X185270000Y-113463500I0J51000D01*
G01*
X185270000Y-111863500D01*
G75*
G02*
X185321000Y-111812500I51000J0D01*
G01*
X185871000Y-111812500D01*
G75*
G02*
X185922000Y-111863500I0J-51000D01*
G01*
X185922000Y-113463500D01*
G75*
G02*
X185871000Y-113514500I-51000J0D01*
G01*
G37*
G36*
G01*
X186671000Y-113514500D02*
X186121000Y-113514500D01*
G75*
G02*
X186070000Y-113463500I0J51000D01*
G01*
X186070000Y-111863500D01*
G75*
G02*
X186121000Y-111812500I51000J0D01*
G01*
X186671000Y-111812500D01*
G75*
G02*
X186722000Y-111863500I0J-51000D01*
G01*
X186722000Y-113463500D01*
G75*
G02*
X186671000Y-113514500I-51000J0D01*
G01*
G37*
G36*
G01*
X187471000Y-113514500D02*
X186921000Y-113514500D01*
G75*
G02*
X186870000Y-113463500I0J51000D01*
G01*
X186870000Y-111863500D01*
G75*
G02*
X186921000Y-111812500I51000J0D01*
G01*
X187471000Y-111812500D01*
G75*
G02*
X187522000Y-111863500I0J-51000D01*
G01*
X187522000Y-113463500D01*
G75*
G02*
X187471000Y-113514500I-51000J0D01*
G01*
G37*
G36*
G01*
X188271000Y-113514500D02*
X187721000Y-113514500D01*
G75*
G02*
X187670000Y-113463500I0J51000D01*
G01*
X187670000Y-111863500D01*
G75*
G02*
X187721000Y-111812500I51000J0D01*
G01*
X188271000Y-111812500D01*
G75*
G02*
X188322000Y-111863500I0J-51000D01*
G01*
X188322000Y-113463500D01*
G75*
G02*
X188271000Y-113514500I-51000J0D01*
G01*
G37*
G36*
G01*
X189071000Y-113514500D02*
X188521000Y-113514500D01*
G75*
G02*
X188470000Y-113463500I0J51000D01*
G01*
X188470000Y-111863500D01*
G75*
G02*
X188521000Y-111812500I51000J0D01*
G01*
X189071000Y-111812500D01*
G75*
G02*
X189122000Y-111863500I0J-51000D01*
G01*
X189122000Y-113463500D01*
G75*
G02*
X189071000Y-113514500I-51000J0D01*
G01*
G37*
G36*
G01*
X189395000Y-111488500D02*
X189395000Y-110938500D01*
G75*
G02*
X189446000Y-110887500I51000J0D01*
G01*
X191046000Y-110887500D01*
G75*
G02*
X191097000Y-110938500I0J-51000D01*
G01*
X191097000Y-111488500D01*
G75*
G02*
X191046000Y-111539500I-51000J0D01*
G01*
X189446000Y-111539500D01*
G75*
G02*
X189395000Y-111488500I0J51000D01*
G01*
G37*
G36*
G01*
X189395000Y-110688500D02*
X189395000Y-110138500D01*
G75*
G02*
X189446000Y-110087500I51000J0D01*
G01*
X191046000Y-110087500D01*
G75*
G02*
X191097000Y-110138500I0J-51000D01*
G01*
X191097000Y-110688500D01*
G75*
G02*
X191046000Y-110739500I-51000J0D01*
G01*
X189446000Y-110739500D01*
G75*
G02*
X189395000Y-110688500I0J51000D01*
G01*
G37*
G36*
G01*
X189395000Y-109888500D02*
X189395000Y-109338500D01*
G75*
G02*
X189446000Y-109287500I51000J0D01*
G01*
X191046000Y-109287500D01*
G75*
G02*
X191097000Y-109338500I0J-51000D01*
G01*
X191097000Y-109888500D01*
G75*
G02*
X191046000Y-109939500I-51000J0D01*
G01*
X189446000Y-109939500D01*
G75*
G02*
X189395000Y-109888500I0J51000D01*
G01*
G37*
G36*
G01*
X189395000Y-109088500D02*
X189395000Y-108538500D01*
G75*
G02*
X189446000Y-108487500I51000J0D01*
G01*
X191046000Y-108487500D01*
G75*
G02*
X191097000Y-108538500I0J-51000D01*
G01*
X191097000Y-109088500D01*
G75*
G02*
X191046000Y-109139500I-51000J0D01*
G01*
X189446000Y-109139500D01*
G75*
G02*
X189395000Y-109088500I0J51000D01*
G01*
G37*
G36*
G01*
X189395000Y-108288500D02*
X189395000Y-107738500D01*
G75*
G02*
X189446000Y-107687500I51000J0D01*
G01*
X191046000Y-107687500D01*
G75*
G02*
X191097000Y-107738500I0J-51000D01*
G01*
X191097000Y-108288500D01*
G75*
G02*
X191046000Y-108339500I-51000J0D01*
G01*
X189446000Y-108339500D01*
G75*
G02*
X189395000Y-108288500I0J51000D01*
G01*
G37*
G36*
G01*
X189395000Y-107488500D02*
X189395000Y-106938500D01*
G75*
G02*
X189446000Y-106887500I51000J0D01*
G01*
X191046000Y-106887500D01*
G75*
G02*
X191097000Y-106938500I0J-51000D01*
G01*
X191097000Y-107488500D01*
G75*
G02*
X191046000Y-107539500I-51000J0D01*
G01*
X189446000Y-107539500D01*
G75*
G02*
X189395000Y-107488500I0J51000D01*
G01*
G37*
G36*
G01*
X189395000Y-106688500D02*
X189395000Y-106138500D01*
G75*
G02*
X189446000Y-106087500I51000J0D01*
G01*
X191046000Y-106087500D01*
G75*
G02*
X191097000Y-106138500I0J-51000D01*
G01*
X191097000Y-106688500D01*
G75*
G02*
X191046000Y-106739500I-51000J0D01*
G01*
X189446000Y-106739500D01*
G75*
G02*
X189395000Y-106688500I0J51000D01*
G01*
G37*
G36*
G01*
X189395000Y-105888500D02*
X189395000Y-105338500D01*
G75*
G02*
X189446000Y-105287500I51000J0D01*
G01*
X191046000Y-105287500D01*
G75*
G02*
X191097000Y-105338500I0J-51000D01*
G01*
X191097000Y-105888500D01*
G75*
G02*
X191046000Y-105939500I-51000J0D01*
G01*
X189446000Y-105939500D01*
G75*
G02*
X189395000Y-105888500I0J51000D01*
G01*
G37*
G36*
G01*
X189071000Y-105014500D02*
X188521000Y-105014500D01*
G75*
G02*
X188470000Y-104963500I0J51000D01*
G01*
X188470000Y-103363500D01*
G75*
G02*
X188521000Y-103312500I51000J0D01*
G01*
X189071000Y-103312500D01*
G75*
G02*
X189122000Y-103363500I0J-51000D01*
G01*
X189122000Y-104963500D01*
G75*
G02*
X189071000Y-105014500I-51000J0D01*
G01*
G37*
G36*
G01*
X188271000Y-105014500D02*
X187721000Y-105014500D01*
G75*
G02*
X187670000Y-104963500I0J51000D01*
G01*
X187670000Y-103363500D01*
G75*
G02*
X187721000Y-103312500I51000J0D01*
G01*
X188271000Y-103312500D01*
G75*
G02*
X188322000Y-103363500I0J-51000D01*
G01*
X188322000Y-104963500D01*
G75*
G02*
X188271000Y-105014500I-51000J0D01*
G01*
G37*
G36*
G01*
X187471000Y-105014500D02*
X186921000Y-105014500D01*
G75*
G02*
X186870000Y-104963500I0J51000D01*
G01*
X186870000Y-103363500D01*
G75*
G02*
X186921000Y-103312500I51000J0D01*
G01*
X187471000Y-103312500D01*
G75*
G02*
X187522000Y-103363500I0J-51000D01*
G01*
X187522000Y-104963500D01*
G75*
G02*
X187471000Y-105014500I-51000J0D01*
G01*
G37*
G36*
G01*
X186671000Y-105014500D02*
X186121000Y-105014500D01*
G75*
G02*
X186070000Y-104963500I0J51000D01*
G01*
X186070000Y-103363500D01*
G75*
G02*
X186121000Y-103312500I51000J0D01*
G01*
X186671000Y-103312500D01*
G75*
G02*
X186722000Y-103363500I0J-51000D01*
G01*
X186722000Y-104963500D01*
G75*
G02*
X186671000Y-105014500I-51000J0D01*
G01*
G37*
G36*
G01*
X185871000Y-105014500D02*
X185321000Y-105014500D01*
G75*
G02*
X185270000Y-104963500I0J51000D01*
G01*
X185270000Y-103363500D01*
G75*
G02*
X185321000Y-103312500I51000J0D01*
G01*
X185871000Y-103312500D01*
G75*
G02*
X185922000Y-103363500I0J-51000D01*
G01*
X185922000Y-104963500D01*
G75*
G02*
X185871000Y-105014500I-51000J0D01*
G01*
G37*
G36*
G01*
X185071000Y-105014500D02*
X184521000Y-105014500D01*
G75*
G02*
X184470000Y-104963500I0J51000D01*
G01*
X184470000Y-103363500D01*
G75*
G02*
X184521000Y-103312500I51000J0D01*
G01*
X185071000Y-103312500D01*
G75*
G02*
X185122000Y-103363500I0J-51000D01*
G01*
X185122000Y-104963500D01*
G75*
G02*
X185071000Y-105014500I-51000J0D01*
G01*
G37*
G36*
G01*
X184271000Y-105014500D02*
X183721000Y-105014500D01*
G75*
G02*
X183670000Y-104963500I0J51000D01*
G01*
X183670000Y-103363500D01*
G75*
G02*
X183721000Y-103312500I51000J0D01*
G01*
X184271000Y-103312500D01*
G75*
G02*
X184322000Y-103363500I0J-51000D01*
G01*
X184322000Y-104963500D01*
G75*
G02*
X184271000Y-105014500I-51000J0D01*
G01*
G37*
G36*
G01*
X183471000Y-105014500D02*
X182921000Y-105014500D01*
G75*
G02*
X182870000Y-104963500I0J51000D01*
G01*
X182870000Y-103363500D01*
G75*
G02*
X182921000Y-103312500I51000J0D01*
G01*
X183471000Y-103312500D01*
G75*
G02*
X183522000Y-103363500I0J-51000D01*
G01*
X183522000Y-104963500D01*
G75*
G02*
X183471000Y-105014500I-51000J0D01*
G01*
G37*
G36*
G01*
X186001000Y-113979499D02*
X186001000Y-115179501D01*
G75*
G02*
X185950001Y-115230500I-50999J0D01*
G01*
X184549999Y-115230500D01*
G75*
G02*
X184499000Y-115179501I0J50999D01*
G01*
X184499000Y-113979499D01*
G75*
G02*
X184549999Y-113928500I50999J0D01*
G01*
X185950001Y-113928500D01*
G75*
G02*
X186001000Y-113979499I0J-50999D01*
G01*
G37*
G36*
G01*
X183801000Y-113979499D02*
X183801000Y-115179501D01*
G75*
G02*
X183750001Y-115230500I-50999J0D01*
G01*
X182349999Y-115230500D01*
G75*
G02*
X182299000Y-115179501I0J50999D01*
G01*
X182299000Y-113979499D01*
G75*
G02*
X182349999Y-113928500I50999J0D01*
G01*
X183750001Y-113928500D01*
G75*
G02*
X183801000Y-113979499I0J-50999D01*
G01*
G37*
G36*
G01*
X183801000Y-115579499D02*
X183801000Y-116779501D01*
G75*
G02*
X183750001Y-116830500I-50999J0D01*
G01*
X182349999Y-116830500D01*
G75*
G02*
X182299000Y-116779501I0J50999D01*
G01*
X182299000Y-115579499D01*
G75*
G02*
X182349999Y-115528500I50999J0D01*
G01*
X183750001Y-115528500D01*
G75*
G02*
X183801000Y-115579499I0J-50999D01*
G01*
G37*
G36*
G01*
X186001000Y-115579499D02*
X186001000Y-116779501D01*
G75*
G02*
X185950001Y-116830500I-50999J0D01*
G01*
X184549999Y-116830500D01*
G75*
G02*
X184499000Y-116779501I0J50999D01*
G01*
X184499000Y-115579499D01*
G75*
G02*
X184549999Y-115528500I50999J0D01*
G01*
X185950001Y-115528500D01*
G75*
G02*
X186001000Y-115579499I0J-50999D01*
G01*
G37*
G36*
G01*
X197601999Y-98118500D02*
X198252001Y-98118500D01*
G75*
G02*
X198303000Y-98169499I0J-50999D01*
G01*
X198303000Y-99229501D01*
G75*
G02*
X198252001Y-99280500I-50999J0D01*
G01*
X197601999Y-99280500D01*
G75*
G02*
X197551000Y-99229501I0J50999D01*
G01*
X197551000Y-98169499D01*
G75*
G02*
X197601999Y-98118500I50999J0D01*
G01*
G37*
G36*
G01*
X195701999Y-98118500D02*
X196352001Y-98118500D01*
G75*
G02*
X196403000Y-98169499I0J-50999D01*
G01*
X196403000Y-99229501D01*
G75*
G02*
X196352001Y-99280500I-50999J0D01*
G01*
X195701999Y-99280500D01*
G75*
G02*
X195651000Y-99229501I0J50999D01*
G01*
X195651000Y-98169499D01*
G75*
G02*
X195701999Y-98118500I50999J0D01*
G01*
G37*
G36*
G01*
X195701999Y-95918500D02*
X196352001Y-95918500D01*
G75*
G02*
X196403000Y-95969499I0J-50999D01*
G01*
X196403000Y-97029501D01*
G75*
G02*
X196352001Y-97080500I-50999J0D01*
G01*
X195701999Y-97080500D01*
G75*
G02*
X195651000Y-97029501I0J50999D01*
G01*
X195651000Y-95969499D01*
G75*
G02*
X195701999Y-95918500I50999J0D01*
G01*
G37*
G36*
G01*
X196651999Y-95918500D02*
X197302001Y-95918500D01*
G75*
G02*
X197353000Y-95969499I0J-50999D01*
G01*
X197353000Y-97029501D01*
G75*
G02*
X197302001Y-97080500I-50999J0D01*
G01*
X196651999Y-97080500D01*
G75*
G02*
X196601000Y-97029501I0J50999D01*
G01*
X196601000Y-95969499D01*
G75*
G02*
X196651999Y-95918500I50999J0D01*
G01*
G37*
G36*
G01*
X197601999Y-95918500D02*
X198252001Y-95918500D01*
G75*
G02*
X198303000Y-95969499I0J-50999D01*
G01*
X198303000Y-97029501D01*
G75*
G02*
X198252001Y-97080500I-50999J0D01*
G01*
X197601999Y-97080500D01*
G75*
G02*
X197551000Y-97029501I0J50999D01*
G01*
X197551000Y-95969499D01*
G75*
G02*
X197601999Y-95918500I50999J0D01*
G01*
G37*
G36*
G01*
X176077999Y-96215500D02*
X176728001Y-96215500D01*
G75*
G02*
X176779000Y-96266499I0J-50999D01*
G01*
X176779000Y-97326501D01*
G75*
G02*
X176728001Y-97377500I-50999J0D01*
G01*
X176077999Y-97377500D01*
G75*
G02*
X176027000Y-97326501I0J50999D01*
G01*
X176027000Y-96266499D01*
G75*
G02*
X176077999Y-96215500I50999J0D01*
G01*
G37*
G36*
G01*
X175127999Y-96215500D02*
X175778001Y-96215500D01*
G75*
G02*
X175829000Y-96266499I0J-50999D01*
G01*
X175829000Y-97326501D01*
G75*
G02*
X175778001Y-97377500I-50999J0D01*
G01*
X175127999Y-97377500D01*
G75*
G02*
X175077000Y-97326501I0J50999D01*
G01*
X175077000Y-96266499D01*
G75*
G02*
X175127999Y-96215500I50999J0D01*
G01*
G37*
G36*
G01*
X174177999Y-96215500D02*
X174828001Y-96215500D01*
G75*
G02*
X174879000Y-96266499I0J-50999D01*
G01*
X174879000Y-97326501D01*
G75*
G02*
X174828001Y-97377500I-50999J0D01*
G01*
X174177999Y-97377500D01*
G75*
G02*
X174127000Y-97326501I0J50999D01*
G01*
X174127000Y-96266499D01*
G75*
G02*
X174177999Y-96215500I50999J0D01*
G01*
G37*
G36*
G01*
X174177999Y-98415500D02*
X174828001Y-98415500D01*
G75*
G02*
X174879000Y-98466499I0J-50999D01*
G01*
X174879000Y-99526501D01*
G75*
G02*
X174828001Y-99577500I-50999J0D01*
G01*
X174177999Y-99577500D01*
G75*
G02*
X174127000Y-99526501I0J50999D01*
G01*
X174127000Y-98466499D01*
G75*
G02*
X174177999Y-98415500I50999J0D01*
G01*
G37*
G36*
G01*
X176077999Y-98415500D02*
X176728001Y-98415500D01*
G75*
G02*
X176779000Y-98466499I0J-50999D01*
G01*
X176779000Y-99526501D01*
G75*
G02*
X176728001Y-99577500I-50999J0D01*
G01*
X176077999Y-99577500D01*
G75*
G02*
X176027000Y-99526501I0J50999D01*
G01*
X176027000Y-98466499D01*
G75*
G02*
X176077999Y-98415500I50999J0D01*
G01*
G37*
G36*
G01*
X186872999Y-98288500D02*
X187523001Y-98288500D01*
G75*
G02*
X187574000Y-98339499I0J-50999D01*
G01*
X187574000Y-99399501D01*
G75*
G02*
X187523001Y-99450500I-50999J0D01*
G01*
X186872999Y-99450500D01*
G75*
G02*
X186822000Y-99399501I0J50999D01*
G01*
X186822000Y-98339499D01*
G75*
G02*
X186872999Y-98288500I50999J0D01*
G01*
G37*
G36*
G01*
X184972999Y-98288500D02*
X185623001Y-98288500D01*
G75*
G02*
X185674000Y-98339499I0J-50999D01*
G01*
X185674000Y-99399501D01*
G75*
G02*
X185623001Y-99450500I-50999J0D01*
G01*
X184972999Y-99450500D01*
G75*
G02*
X184922000Y-99399501I0J50999D01*
G01*
X184922000Y-98339499D01*
G75*
G02*
X184972999Y-98288500I50999J0D01*
G01*
G37*
G36*
G01*
X184972999Y-96088500D02*
X185623001Y-96088500D01*
G75*
G02*
X185674000Y-96139499I0J-50999D01*
G01*
X185674000Y-97199501D01*
G75*
G02*
X185623001Y-97250500I-50999J0D01*
G01*
X184972999Y-97250500D01*
G75*
G02*
X184922000Y-97199501I0J50999D01*
G01*
X184922000Y-96139499D01*
G75*
G02*
X184972999Y-96088500I50999J0D01*
G01*
G37*
G36*
G01*
X185922999Y-96088500D02*
X186573001Y-96088500D01*
G75*
G02*
X186624000Y-96139499I0J-50999D01*
G01*
X186624000Y-97199501D01*
G75*
G02*
X186573001Y-97250500I-50999J0D01*
G01*
X185922999Y-97250500D01*
G75*
G02*
X185872000Y-97199501I0J50999D01*
G01*
X185872000Y-96139499D01*
G75*
G02*
X185922999Y-96088500I50999J0D01*
G01*
G37*
G36*
G01*
X186872999Y-96088500D02*
X187523001Y-96088500D01*
G75*
G02*
X187574000Y-96139499I0J-50999D01*
G01*
X187574000Y-97199501D01*
G75*
G02*
X187523001Y-97250500I-50999J0D01*
G01*
X186872999Y-97250500D01*
G75*
G02*
X186822000Y-97199501I0J50999D01*
G01*
X186822000Y-96139499D01*
G75*
G02*
X186872999Y-96088500I50999J0D01*
G01*
G37*
G36*
G01*
X166613999Y-96256500D02*
X167264001Y-96256500D01*
G75*
G02*
X167315000Y-96307499I0J-50999D01*
G01*
X167315000Y-97367501D01*
G75*
G02*
X167264001Y-97418500I-50999J0D01*
G01*
X166613999Y-97418500D01*
G75*
G02*
X166563000Y-97367501I0J50999D01*
G01*
X166563000Y-96307499D01*
G75*
G02*
X166613999Y-96256500I50999J0D01*
G01*
G37*
G36*
G01*
X165663999Y-96256500D02*
X166314001Y-96256500D01*
G75*
G02*
X166365000Y-96307499I0J-50999D01*
G01*
X166365000Y-97367501D01*
G75*
G02*
X166314001Y-97418500I-50999J0D01*
G01*
X165663999Y-97418500D01*
G75*
G02*
X165613000Y-97367501I0J50999D01*
G01*
X165613000Y-96307499D01*
G75*
G02*
X165663999Y-96256500I50999J0D01*
G01*
G37*
G36*
G01*
X164713999Y-96256500D02*
X165364001Y-96256500D01*
G75*
G02*
X165415000Y-96307499I0J-50999D01*
G01*
X165415000Y-97367501D01*
G75*
G02*
X165364001Y-97418500I-50999J0D01*
G01*
X164713999Y-97418500D01*
G75*
G02*
X164663000Y-97367501I0J50999D01*
G01*
X164663000Y-96307499D01*
G75*
G02*
X164713999Y-96256500I50999J0D01*
G01*
G37*
G36*
G01*
X164713999Y-98456500D02*
X165364001Y-98456500D01*
G75*
G02*
X165415000Y-98507499I0J-50999D01*
G01*
X165415000Y-99567501D01*
G75*
G02*
X165364001Y-99618500I-50999J0D01*
G01*
X164713999Y-99618500D01*
G75*
G02*
X164663000Y-99567501I0J50999D01*
G01*
X164663000Y-98507499D01*
G75*
G02*
X164713999Y-98456500I50999J0D01*
G01*
G37*
G36*
G01*
X166613999Y-98456500D02*
X167264001Y-98456500D01*
G75*
G02*
X167315000Y-98507499I0J-50999D01*
G01*
X167315000Y-99567501D01*
G75*
G02*
X167264001Y-99618500I-50999J0D01*
G01*
X166613999Y-99618500D01*
G75*
G02*
X166563000Y-99567501I0J50999D01*
G01*
X166563000Y-98507499D01*
G75*
G02*
X166613999Y-98456500I50999J0D01*
G01*
G37*
G36*
G01*
X192732500Y-116352500D02*
X193982500Y-116352500D01*
G75*
G02*
X194033500Y-116403500I0J-51000D01*
G01*
X194033500Y-117403500D01*
G75*
G02*
X193982500Y-117454500I-51000J0D01*
G01*
X192732500Y-117454500D01*
G75*
G02*
X192681500Y-117403500I0J51000D01*
G01*
X192681500Y-116403500D01*
G75*
G02*
X192732500Y-116352500I51000J0D01*
G01*
G37*
G36*
G01*
X192732500Y-114352500D02*
X193982500Y-114352500D01*
G75*
G02*
X194033500Y-114403500I0J-51000D01*
G01*
X194033500Y-115403500D01*
G75*
G02*
X193982500Y-115454500I-51000J0D01*
G01*
X192732500Y-115454500D01*
G75*
G02*
X192681500Y-115403500I0J51000D01*
G01*
X192681500Y-114403500D01*
G75*
G02*
X192732500Y-114352500I51000J0D01*
G01*
G37*
G36*
G01*
X198828500Y-114352500D02*
X200078500Y-114352500D01*
G75*
G02*
X200129500Y-114403500I0J-51000D01*
G01*
X200129500Y-115403500D01*
G75*
G02*
X200078500Y-115454500I-51000J0D01*
G01*
X198828500Y-115454500D01*
G75*
G02*
X198777500Y-115403500I0J51000D01*
G01*
X198777500Y-114403500D01*
G75*
G02*
X198828500Y-114352500I51000J0D01*
G01*
G37*
G36*
G01*
X198828500Y-116352500D02*
X200078500Y-116352500D01*
G75*
G02*
X200129500Y-116403500I0J-51000D01*
G01*
X200129500Y-117403500D01*
G75*
G02*
X200078500Y-117454500I-51000J0D01*
G01*
X198828500Y-117454500D01*
G75*
G02*
X198777500Y-117403500I0J51000D01*
G01*
X198777500Y-116403500D01*
G75*
G02*
X198828500Y-116352500I51000J0D01*
G01*
G37*
G36*
G01*
X194744501Y-115309502D02*
X194744501Y-114659500D01*
G75*
G02*
X194795500Y-114608501I50999J0D01*
G01*
X195855502Y-114608501D01*
G75*
G02*
X195906501Y-114659500I0J-50999D01*
G01*
X195906501Y-115309502D01*
G75*
G02*
X195855502Y-115360501I-50999J0D01*
G01*
X194795500Y-115360501D01*
G75*
G02*
X194744501Y-115309502I0J50999D01*
G01*
G37*
G36*
G01*
X194744501Y-116259502D02*
X194744501Y-115609500D01*
G75*
G02*
X194795500Y-115558501I50999J0D01*
G01*
X195855502Y-115558501D01*
G75*
G02*
X195906501Y-115609500I0J-50999D01*
G01*
X195906501Y-116259502D01*
G75*
G02*
X195855502Y-116310501I-50999J0D01*
G01*
X194795500Y-116310501D01*
G75*
G02*
X194744501Y-116259502I0J50999D01*
G01*
G37*
G36*
G01*
X194744501Y-117209502D02*
X194744501Y-116559500D01*
G75*
G02*
X194795500Y-116508501I50999J0D01*
G01*
X195855502Y-116508501D01*
G75*
G02*
X195906501Y-116559500I0J-50999D01*
G01*
X195906501Y-117209502D01*
G75*
G02*
X195855502Y-117260501I-50999J0D01*
G01*
X194795500Y-117260501D01*
G75*
G02*
X194744501Y-117209502I0J50999D01*
G01*
G37*
G36*
G01*
X196944501Y-117209502D02*
X196944501Y-116559500D01*
G75*
G02*
X196995500Y-116508501I50999J0D01*
G01*
X198055502Y-116508501D01*
G75*
G02*
X198106501Y-116559500I0J-50999D01*
G01*
X198106501Y-117209502D01*
G75*
G02*
X198055502Y-117260501I-50999J0D01*
G01*
X196995500Y-117260501D01*
G75*
G02*
X196944501Y-117209502I0J50999D01*
G01*
G37*
G36*
G01*
X196944501Y-115309502D02*
X196944501Y-114659500D01*
G75*
G02*
X196995500Y-114608501I50999J0D01*
G01*
X198055502Y-114608501D01*
G75*
G02*
X198106501Y-114659500I0J-50999D01*
G01*
X198106501Y-115309502D01*
G75*
G02*
X198055502Y-115360501I-50999J0D01*
G01*
X196995500Y-115360501D01*
G75*
G02*
X196944501Y-115309502I0J50999D01*
G01*
G37*
D11*
X172617000Y-120315000D03*
X175617000Y-120315000D03*
X172617000Y-123315000D03*
G36*
G01*
X176418000Y-122781000D02*
X176418000Y-123849000D01*
G75*
G02*
X176151000Y-124116000I-267000J0D01*
G01*
X175083000Y-124116000D01*
G75*
G02*
X174816000Y-123849000I0J267000D01*
G01*
X174816000Y-122781000D01*
G75*
G02*
X175083000Y-122514000I267000J0D01*
G01*
X176151000Y-122514000D01*
G75*
G02*
X176418000Y-122781000I0J-267000D01*
G01*
G37*
D10*
X174117000Y-127635000D03*
G36*
G01*
X195426000Y-101145500D02*
X195426000Y-99895500D01*
G75*
G02*
X195477000Y-99844500I51000J0D01*
G01*
X196477000Y-99844500D01*
G75*
G02*
X196528000Y-99895500I0J-51000D01*
G01*
X196528000Y-101145500D01*
G75*
G02*
X196477000Y-101196500I-51000J0D01*
G01*
X195477000Y-101196500D01*
G75*
G02*
X195426000Y-101145500I0J51000D01*
G01*
G37*
G36*
G01*
X197426000Y-101145500D02*
X197426000Y-99895500D01*
G75*
G02*
X197477000Y-99844500I51000J0D01*
G01*
X198477000Y-99844500D01*
G75*
G02*
X198528000Y-99895500I0J-51000D01*
G01*
X198528000Y-101145500D01*
G75*
G02*
X198477000Y-101196500I-51000J0D01*
G01*
X197477000Y-101196500D01*
G75*
G02*
X197426000Y-101145500I0J51000D01*
G01*
G37*
G36*
G01*
X178891000Y-98498500D02*
X178891000Y-99748500D01*
G75*
G02*
X178840000Y-99799500I-51000J0D01*
G01*
X177840000Y-99799500D01*
G75*
G02*
X177789000Y-99748500I0J51000D01*
G01*
X177789000Y-98498500D01*
G75*
G02*
X177840000Y-98447500I51000J0D01*
G01*
X178840000Y-98447500D01*
G75*
G02*
X178891000Y-98498500I0J-51000D01*
G01*
G37*
G36*
G01*
X180891000Y-98498500D02*
X180891000Y-99748500D01*
G75*
G02*
X180840000Y-99799500I-51000J0D01*
G01*
X179840000Y-99799500D01*
G75*
G02*
X179789000Y-99748500I0J51000D01*
G01*
X179789000Y-98498500D01*
G75*
G02*
X179840000Y-98447500I51000J0D01*
G01*
X180840000Y-98447500D01*
G75*
G02*
X180891000Y-98498500I0J-51000D01*
G01*
G37*
G36*
G01*
X186171000Y-101399500D02*
X186171000Y-100149500D01*
G75*
G02*
X186222000Y-100098500I51000J0D01*
G01*
X187222000Y-100098500D01*
G75*
G02*
X187273000Y-100149500I0J-51000D01*
G01*
X187273000Y-101399500D01*
G75*
G02*
X187222000Y-101450500I-51000J0D01*
G01*
X186222000Y-101450500D01*
G75*
G02*
X186171000Y-101399500I0J51000D01*
G01*
G37*
G36*
G01*
X188171000Y-101399500D02*
X188171000Y-100149500D01*
G75*
G02*
X188222000Y-100098500I51000J0D01*
G01*
X189222000Y-100098500D01*
G75*
G02*
X189273000Y-100149500I0J-51000D01*
G01*
X189273000Y-101399500D01*
G75*
G02*
X189222000Y-101450500I-51000J0D01*
G01*
X188222000Y-101450500D01*
G75*
G02*
X188171000Y-101399500I0J51000D01*
G01*
G37*
G36*
G01*
X162644000Y-101145500D02*
X162644000Y-99895500D01*
G75*
G02*
X162695000Y-99844500I51000J0D01*
G01*
X163695000Y-99844500D01*
G75*
G02*
X163746000Y-99895500I0J-51000D01*
G01*
X163746000Y-101145500D01*
G75*
G02*
X163695000Y-101196500I-51000J0D01*
G01*
X162695000Y-101196500D01*
G75*
G02*
X162644000Y-101145500I0J51000D01*
G01*
G37*
G36*
G01*
X160644000Y-101145500D02*
X160644000Y-99895500D01*
G75*
G02*
X160695000Y-99844500I51000J0D01*
G01*
X161695000Y-99844500D01*
G75*
G02*
X161746000Y-99895500I0J-51000D01*
G01*
X161746000Y-101145500D01*
G75*
G02*
X161695000Y-101196500I-51000J0D01*
G01*
X160695000Y-101196500D01*
G75*
G02*
X160644000Y-101145500I0J51000D01*
G01*
G37*
X186031000Y-127652500D03*
G36*
G01*
X188332000Y-122798500D02*
X188332000Y-123866500D01*
G75*
G02*
X188065000Y-124133500I-267000J0D01*
G01*
X186997000Y-124133500D01*
G75*
G02*
X186730000Y-123866500I0J267000D01*
G01*
X186730000Y-122798500D01*
G75*
G02*
X186997000Y-122531500I267000J0D01*
G01*
X188065000Y-122531500D01*
G75*
G02*
X188332000Y-122798500I0J-267000D01*
G01*
G37*
D11*
X184531000Y-123332500D03*
X187531000Y-120332500D03*
X184531000Y-120332500D03*
G36*
G01*
X189341999Y-118600500D02*
X190642001Y-118600500D01*
G75*
G02*
X190693000Y-118651499I0J-50999D01*
G01*
X190693000Y-119351501D01*
G75*
G02*
X190642001Y-119402500I-50999J0D01*
G01*
X189341999Y-119402500D01*
G75*
G02*
X189291000Y-119351501I0J50999D01*
G01*
X189291000Y-118651499D01*
G75*
G02*
X189341999Y-118600500I50999J0D01*
G01*
G37*
G36*
G01*
X189341999Y-120500500D02*
X190642001Y-120500500D01*
G75*
G02*
X190693000Y-120551499I0J-50999D01*
G01*
X190693000Y-121251501D01*
G75*
G02*
X190642001Y-121302500I-50999J0D01*
G01*
X189341999Y-121302500D01*
G75*
G02*
X189291000Y-121251501I0J50999D01*
G01*
X189291000Y-120551499D01*
G75*
G02*
X189341999Y-120500500I50999J0D01*
G01*
G37*
G36*
G01*
X197726500Y-118935500D02*
X197726500Y-121094500D01*
G75*
G02*
X197675500Y-121145500I-51000J0D01*
G01*
X195897500Y-121145500D01*
G75*
G02*
X195846500Y-121094500I0J51000D01*
G01*
X195846500Y-118935500D01*
G75*
G02*
X195897500Y-118884500I51000J0D01*
G01*
X197675500Y-118884500D01*
G75*
G02*
X197726500Y-118935500I0J-51000D01*
G01*
G37*
G36*
G01*
X193662500Y-118935500D02*
X193662500Y-121094500D01*
G75*
G02*
X193611500Y-121145500I-51000J0D01*
G01*
X191833500Y-121145500D01*
G75*
G02*
X191782500Y-121094500I0J51000D01*
G01*
X191782500Y-118935500D01*
G75*
G02*
X191833500Y-118884500I51000J0D01*
G01*
X193611500Y-118884500D01*
G75*
G02*
X193662500Y-118935500I0J-51000D01*
G01*
G37*
G36*
G01*
X200561501Y-127354000D02*
X199361499Y-127354000D01*
G75*
G02*
X199310500Y-127303001I0J50999D01*
G01*
X199310500Y-126102999D01*
G75*
G02*
X199361499Y-126052000I50999J0D01*
G01*
X200561501Y-126052000D01*
G75*
G02*
X200612500Y-126102999I0J-50999D01*
G01*
X200612500Y-127303001D01*
G75*
G02*
X200561501Y-127354000I-50999J0D01*
G01*
G37*
G36*
G01*
X200561501Y-125154000D02*
X199361499Y-125154000D01*
G75*
G02*
X199310500Y-125103001I0J50999D01*
G01*
X199310500Y-123902999D01*
G75*
G02*
X199361499Y-123852000I50999J0D01*
G01*
X200561501Y-123852000D01*
G75*
G02*
X200612500Y-123902999I0J-50999D01*
G01*
X200612500Y-125103001D01*
G75*
G02*
X200561501Y-125154000I-50999J0D01*
G01*
G37*
G36*
G01*
X201266499Y-120464000D02*
X202466501Y-120464000D01*
G75*
G02*
X202517500Y-120514999I0J-50999D01*
G01*
X202517500Y-121715001D01*
G75*
G02*
X202466501Y-121766000I-50999J0D01*
G01*
X201266499Y-121766000D01*
G75*
G02*
X201215500Y-121715001I0J50999D01*
G01*
X201215500Y-120514999D01*
G75*
G02*
X201266499Y-120464000I50999J0D01*
G01*
G37*
G36*
G01*
X201266499Y-118264000D02*
X202466501Y-118264000D01*
G75*
G02*
X202517500Y-118314999I0J-50999D01*
G01*
X202517500Y-119515001D01*
G75*
G02*
X202466501Y-119566000I-50999J0D01*
G01*
X201266499Y-119566000D01*
G75*
G02*
X201215500Y-119515001I0J50999D01*
G01*
X201215500Y-118314999D01*
G75*
G02*
X201266499Y-118264000I50999J0D01*
G01*
G37*
G36*
G01*
X192171000Y-123578000D02*
X194671000Y-123578000D01*
G75*
G02*
X194722000Y-123629000I0J-51000D01*
G01*
X194722000Y-124529000D01*
G75*
G02*
X194671000Y-124580000I-51000J0D01*
G01*
X192171000Y-124580000D01*
G75*
G02*
X192120000Y-124529000I0J51000D01*
G01*
X192120000Y-123629000D01*
G75*
G02*
X192171000Y-123578000I51000J0D01*
G01*
G37*
G36*
G01*
X192171000Y-126478000D02*
X194671000Y-126478000D01*
G75*
G02*
X194722000Y-126529000I0J-51000D01*
G01*
X194722000Y-127429000D01*
G75*
G02*
X194671000Y-127480000I-51000J0D01*
G01*
X192171000Y-127480000D01*
G75*
G02*
X192120000Y-127429000I0J51000D01*
G01*
X192120000Y-126529000D01*
G75*
G02*
X192171000Y-126478000I51000J0D01*
G01*
G37*
G36*
G01*
X195882499Y-123995500D02*
X197182501Y-123995500D01*
G75*
G02*
X197233500Y-124046499I0J-50999D01*
G01*
X197233500Y-124746501D01*
G75*
G02*
X197182501Y-124797500I-50999J0D01*
G01*
X195882499Y-124797500D01*
G75*
G02*
X195831500Y-124746501I0J50999D01*
G01*
X195831500Y-124046499D01*
G75*
G02*
X195882499Y-123995500I50999J0D01*
G01*
G37*
G36*
G01*
X195882499Y-125895500D02*
X197182501Y-125895500D01*
G75*
G02*
X197233500Y-125946499I0J-50999D01*
G01*
X197233500Y-126646501D01*
G75*
G02*
X197182501Y-126697500I-50999J0D01*
G01*
X195882499Y-126697500D01*
G75*
G02*
X195831500Y-126646501I0J50999D01*
G01*
X195831500Y-125946499D01*
G75*
G02*
X195882499Y-125895500I50999J0D01*
G01*
G37*
G36*
G01*
X199849501Y-119595500D02*
X198549499Y-119595500D01*
G75*
G02*
X198498500Y-119544501I0J50999D01*
G01*
X198498500Y-118844499D01*
G75*
G02*
X198549499Y-118793500I50999J0D01*
G01*
X199849501Y-118793500D01*
G75*
G02*
X199900500Y-118844499I0J-50999D01*
G01*
X199900500Y-119544501D01*
G75*
G02*
X199849501Y-119595500I-50999J0D01*
G01*
G37*
G36*
G01*
X199849501Y-121495500D02*
X198549499Y-121495500D01*
G75*
G02*
X198498500Y-121444501I0J50999D01*
G01*
X198498500Y-120744499D01*
G75*
G02*
X198549499Y-120693500I50999J0D01*
G01*
X199849501Y-120693500D01*
G75*
G02*
X199900500Y-120744499I0J-50999D01*
G01*
X199900500Y-121444501D01*
G75*
G02*
X199849501Y-121495500I-50999J0D01*
G01*
G37*
D15*
G36*
X195908233Y-116309501D02*
G01*
X195908501Y-116310501D01*
X195908501Y-116508501D01*
X195907501Y-116510233D01*
X195906501Y-116510501D01*
X194744501Y-116510501D01*
X194742769Y-116509501D01*
X194742501Y-116508501D01*
X194742501Y-116310501D01*
X194743501Y-116308769D01*
X194744501Y-116308501D01*
X195906501Y-116308501D01*
X195908233Y-116309501D01*
G37*
G36*
X195908233Y-115359501D02*
G01*
X195908501Y-115360501D01*
X195908501Y-115558501D01*
X195907501Y-115560233D01*
X195906501Y-115560501D01*
X194744501Y-115560501D01*
X194742769Y-115559501D01*
X194742501Y-115558501D01*
X194742501Y-115360501D01*
X194743501Y-115358769D01*
X194744501Y-115358501D01*
X195906501Y-115358501D01*
X195908233Y-115359501D01*
G37*
G36*
X187671732Y-111811500D02*
G01*
X187672000Y-111812500D01*
X187672000Y-113514500D01*
X187671000Y-113516232D01*
X187670000Y-113516500D01*
X187522000Y-113516500D01*
X187520268Y-113515500D01*
X187520000Y-113514500D01*
X187520000Y-111812500D01*
X187521000Y-111810768D01*
X187522000Y-111810500D01*
X187670000Y-111810500D01*
X187671732Y-111811500D01*
G37*
G36*
X188471732Y-111811500D02*
G01*
X188472000Y-111812500D01*
X188472000Y-113514500D01*
X188471000Y-113516232D01*
X188470000Y-113516500D01*
X188322000Y-113516500D01*
X188320268Y-113515500D01*
X188320000Y-113514500D01*
X188320000Y-111812500D01*
X188321000Y-111810768D01*
X188322000Y-111810500D01*
X188470000Y-111810500D01*
X188471732Y-111811500D01*
G37*
G36*
X183671732Y-111811500D02*
G01*
X183672000Y-111812500D01*
X183672000Y-113514500D01*
X183671000Y-113516232D01*
X183670000Y-113516500D01*
X183522000Y-113516500D01*
X183520268Y-113515500D01*
X183520000Y-113514500D01*
X183520000Y-111812500D01*
X183521000Y-111810768D01*
X183522000Y-111810500D01*
X183670000Y-111810500D01*
X183671732Y-111811500D01*
G37*
G36*
X184471732Y-111811500D02*
G01*
X184472000Y-111812500D01*
X184472000Y-113514500D01*
X184471000Y-113516232D01*
X184470000Y-113516500D01*
X184322000Y-113516500D01*
X184320268Y-113515500D01*
X184320000Y-113514500D01*
X184320000Y-111812500D01*
X184321000Y-111810768D01*
X184322000Y-111810500D01*
X184470000Y-111810500D01*
X184471732Y-111811500D01*
G37*
G36*
X185271732Y-111811500D02*
G01*
X185272000Y-111812500D01*
X185272000Y-113514500D01*
X185271000Y-113516232D01*
X185270000Y-113516500D01*
X185122000Y-113516500D01*
X185120268Y-113515500D01*
X185120000Y-113514500D01*
X185120000Y-111812500D01*
X185121000Y-111810768D01*
X185122000Y-111810500D01*
X185270000Y-111810500D01*
X185271732Y-111811500D01*
G37*
G36*
X186071732Y-111811500D02*
G01*
X186072000Y-111812500D01*
X186072000Y-113514500D01*
X186071000Y-113516232D01*
X186070000Y-113516500D01*
X185922000Y-113516500D01*
X185920268Y-113515500D01*
X185920000Y-113514500D01*
X185920000Y-111812500D01*
X185921000Y-111810768D01*
X185922000Y-111810500D01*
X186070000Y-111810500D01*
X186071732Y-111811500D01*
G37*
G36*
X186871732Y-111811500D02*
G01*
X186872000Y-111812500D01*
X186872000Y-113514500D01*
X186871000Y-113516232D01*
X186870000Y-113516500D01*
X186722000Y-113516500D01*
X186720268Y-113515500D01*
X186720000Y-113514500D01*
X186720000Y-111812500D01*
X186721000Y-111810768D01*
X186722000Y-111810500D01*
X186870000Y-111810500D01*
X186871732Y-111811500D01*
G37*
G36*
X191098732Y-110738500D02*
G01*
X191099000Y-110739500D01*
X191099000Y-110887500D01*
X191098000Y-110889232D01*
X191097000Y-110889500D01*
X189395000Y-110889500D01*
X189393268Y-110888500D01*
X189393000Y-110887500D01*
X189393000Y-110739500D01*
X189394000Y-110737768D01*
X189395000Y-110737500D01*
X191097000Y-110737500D01*
X191098732Y-110738500D01*
G37*
G36*
X182598732Y-110738500D02*
G01*
X182599000Y-110739500D01*
X182599000Y-110887500D01*
X182598000Y-110889232D01*
X182597000Y-110889500D01*
X180895000Y-110889500D01*
X180893268Y-110888500D01*
X180893000Y-110887500D01*
X180893000Y-110739500D01*
X180894000Y-110737768D01*
X180895000Y-110737500D01*
X182597000Y-110737500D01*
X182598732Y-110738500D01*
G37*
G36*
X182598732Y-109938500D02*
G01*
X182599000Y-109939500D01*
X182599000Y-110087500D01*
X182598000Y-110089232D01*
X182597000Y-110089500D01*
X180895000Y-110089500D01*
X180893268Y-110088500D01*
X180893000Y-110087500D01*
X180893000Y-109939500D01*
X180894000Y-109937768D01*
X180895000Y-109937500D01*
X182597000Y-109937500D01*
X182598732Y-109938500D01*
G37*
G36*
X191098732Y-109938500D02*
G01*
X191099000Y-109939500D01*
X191099000Y-110087500D01*
X191098000Y-110089232D01*
X191097000Y-110089500D01*
X189395000Y-110089500D01*
X189393268Y-110088500D01*
X189393000Y-110087500D01*
X189393000Y-109939500D01*
X189394000Y-109937768D01*
X189395000Y-109937500D01*
X191097000Y-109937500D01*
X191098732Y-109938500D01*
G37*
G36*
X191098732Y-109138500D02*
G01*
X191099000Y-109139500D01*
X191099000Y-109287500D01*
X191098000Y-109289232D01*
X191097000Y-109289500D01*
X189395000Y-109289500D01*
X189393268Y-109288500D01*
X189393000Y-109287500D01*
X189393000Y-109139500D01*
X189394000Y-109137768D01*
X189395000Y-109137500D01*
X191097000Y-109137500D01*
X191098732Y-109138500D01*
G37*
G36*
X182598732Y-109138500D02*
G01*
X182599000Y-109139500D01*
X182599000Y-109287500D01*
X182598000Y-109289232D01*
X182597000Y-109289500D01*
X180895000Y-109289500D01*
X180893268Y-109288500D01*
X180893000Y-109287500D01*
X180893000Y-109139500D01*
X180894000Y-109137768D01*
X180895000Y-109137500D01*
X182597000Y-109137500D01*
X182598732Y-109138500D01*
G37*
G36*
X182598732Y-108338500D02*
G01*
X182599000Y-108339500D01*
X182599000Y-108487500D01*
X182598000Y-108489232D01*
X182597000Y-108489500D01*
X180895000Y-108489500D01*
X180893268Y-108488500D01*
X180893000Y-108487500D01*
X180893000Y-108339500D01*
X180894000Y-108337768D01*
X180895000Y-108337500D01*
X182597000Y-108337500D01*
X182598732Y-108338500D01*
G37*
G36*
X191098732Y-108338500D02*
G01*
X191099000Y-108339500D01*
X191099000Y-108487500D01*
X191098000Y-108489232D01*
X191097000Y-108489500D01*
X189395000Y-108489500D01*
X189393268Y-108488500D01*
X189393000Y-108487500D01*
X189393000Y-108339500D01*
X189394000Y-108337768D01*
X189395000Y-108337500D01*
X191097000Y-108337500D01*
X191098732Y-108338500D01*
G37*
G36*
X191098732Y-107538500D02*
G01*
X191099000Y-107539500D01*
X191099000Y-107687500D01*
X191098000Y-107689232D01*
X191097000Y-107689500D01*
X189395000Y-107689500D01*
X189393268Y-107688500D01*
X189393000Y-107687500D01*
X189393000Y-107539500D01*
X189394000Y-107537768D01*
X189395000Y-107537500D01*
X191097000Y-107537500D01*
X191098732Y-107538500D01*
G37*
G36*
X182598732Y-107538500D02*
G01*
X182599000Y-107539500D01*
X182599000Y-107687500D01*
X182598000Y-107689232D01*
X182597000Y-107689500D01*
X180895000Y-107689500D01*
X180893268Y-107688500D01*
X180893000Y-107687500D01*
X180893000Y-107539500D01*
X180894000Y-107537768D01*
X180895000Y-107537500D01*
X182597000Y-107537500D01*
X182598732Y-107538500D01*
G37*
G36*
X191098732Y-106738500D02*
G01*
X191099000Y-106739500D01*
X191099000Y-106887500D01*
X191098000Y-106889232D01*
X191097000Y-106889500D01*
X189395000Y-106889500D01*
X189393268Y-106888500D01*
X189393000Y-106887500D01*
X189393000Y-106739500D01*
X189394000Y-106737768D01*
X189395000Y-106737500D01*
X191097000Y-106737500D01*
X191098732Y-106738500D01*
G37*
G36*
X182598732Y-106738500D02*
G01*
X182599000Y-106739500D01*
X182599000Y-106887500D01*
X182598000Y-106889232D01*
X182597000Y-106889500D01*
X180895000Y-106889500D01*
X180893268Y-106888500D01*
X180893000Y-106887500D01*
X180893000Y-106739500D01*
X180894000Y-106737768D01*
X180895000Y-106737500D01*
X182597000Y-106737500D01*
X182598732Y-106738500D01*
G37*
G36*
X182598732Y-105938500D02*
G01*
X182599000Y-105939500D01*
X182599000Y-106087500D01*
X182598000Y-106089232D01*
X182597000Y-106089500D01*
X180895000Y-106089500D01*
X180893268Y-106088500D01*
X180893000Y-106087500D01*
X180893000Y-105939500D01*
X180894000Y-105937768D01*
X180895000Y-105937500D01*
X182597000Y-105937500D01*
X182598732Y-105938500D01*
G37*
G36*
X191098732Y-105938500D02*
G01*
X191099000Y-105939500D01*
X191099000Y-106087500D01*
X191098000Y-106089232D01*
X191097000Y-106089500D01*
X189395000Y-106089500D01*
X189393268Y-106088500D01*
X189393000Y-106087500D01*
X189393000Y-105939500D01*
X189394000Y-105937768D01*
X189395000Y-105937500D01*
X191097000Y-105937500D01*
X191098732Y-105938500D01*
G37*
G36*
X186871732Y-103311500D02*
G01*
X186872000Y-103312500D01*
X186872000Y-105014500D01*
X186871000Y-105016232D01*
X186870000Y-105016500D01*
X186722000Y-105016500D01*
X186720268Y-105015500D01*
X186720000Y-105014500D01*
X186720000Y-103312500D01*
X186721000Y-103310768D01*
X186722000Y-103310500D01*
X186870000Y-103310500D01*
X186871732Y-103311500D01*
G37*
G36*
X184471732Y-103311500D02*
G01*
X184472000Y-103312500D01*
X184472000Y-105014500D01*
X184471000Y-105016232D01*
X184470000Y-105016500D01*
X184322000Y-105016500D01*
X184320268Y-105015500D01*
X184320000Y-105014500D01*
X184320000Y-103312500D01*
X184321000Y-103310768D01*
X184322000Y-103310500D01*
X184470000Y-103310500D01*
X184471732Y-103311500D01*
G37*
G36*
X185271732Y-103311500D02*
G01*
X185272000Y-103312500D01*
X185272000Y-105014500D01*
X185271000Y-105016232D01*
X185270000Y-105016500D01*
X185122000Y-105016500D01*
X185120268Y-105015500D01*
X185120000Y-105014500D01*
X185120000Y-103312500D01*
X185121000Y-103310768D01*
X185122000Y-103310500D01*
X185270000Y-103310500D01*
X185271732Y-103311500D01*
G37*
G36*
X186071732Y-103311500D02*
G01*
X186072000Y-103312500D01*
X186072000Y-105014500D01*
X186071000Y-105016232D01*
X186070000Y-105016500D01*
X185922000Y-105016500D01*
X185920268Y-105015500D01*
X185920000Y-105014500D01*
X185920000Y-103312500D01*
X185921000Y-103310768D01*
X185922000Y-103310500D01*
X186070000Y-103310500D01*
X186071732Y-103311500D01*
G37*
G36*
X187671732Y-103311500D02*
G01*
X187672000Y-103312500D01*
X187672000Y-105014500D01*
X187671000Y-105016232D01*
X187670000Y-105016500D01*
X187522000Y-105016500D01*
X187520268Y-105015500D01*
X187520000Y-105014500D01*
X187520000Y-103312500D01*
X187521000Y-103310768D01*
X187522000Y-103310500D01*
X187670000Y-103310500D01*
X187671732Y-103311500D01*
G37*
G36*
X188471732Y-103311500D02*
G01*
X188472000Y-103312500D01*
X188472000Y-105014500D01*
X188471000Y-105016232D01*
X188470000Y-105016500D01*
X188322000Y-105016500D01*
X188320268Y-105015500D01*
X188320000Y-105014500D01*
X188320000Y-103312500D01*
X188321000Y-103310768D01*
X188322000Y-103310500D01*
X188470000Y-103310500D01*
X188471732Y-103311500D01*
G37*
G36*
X183671732Y-103311500D02*
G01*
X183672000Y-103312500D01*
X183672000Y-105014500D01*
X183671000Y-105016232D01*
X183670000Y-105016500D01*
X183522000Y-105016500D01*
X183520268Y-105015500D01*
X183520000Y-105014500D01*
X183520000Y-103312500D01*
X183521000Y-103310768D01*
X183522000Y-103310500D01*
X183670000Y-103310500D01*
X183671732Y-103311500D01*
G37*
G36*
X166564732Y-96255500D02*
G01*
X166565000Y-96256500D01*
X166565000Y-97418500D01*
X166564000Y-97420232D01*
X166563000Y-97420500D01*
X166365000Y-97420500D01*
X166363268Y-97419500D01*
X166363000Y-97418500D01*
X166363000Y-96256500D01*
X166364000Y-96254768D01*
X166365000Y-96254500D01*
X166563000Y-96254500D01*
X166564732Y-96255500D01*
G37*
G36*
X165614732Y-96255500D02*
G01*
X165615000Y-96256500D01*
X165615000Y-97418500D01*
X165614000Y-97420232D01*
X165613000Y-97420500D01*
X165415000Y-97420500D01*
X165413268Y-97419500D01*
X165413000Y-97418500D01*
X165413000Y-96256500D01*
X165414000Y-96254768D01*
X165415000Y-96254500D01*
X165613000Y-96254500D01*
X165614732Y-96255500D01*
G37*
G36*
X175078732Y-96214500D02*
G01*
X175079000Y-96215500D01*
X175079000Y-97377500D01*
X175078000Y-97379232D01*
X175077000Y-97379500D01*
X174879000Y-97379500D01*
X174877268Y-97378500D01*
X174877000Y-97377500D01*
X174877000Y-96215500D01*
X174878000Y-96213768D01*
X174879000Y-96213500D01*
X175077000Y-96213500D01*
X175078732Y-96214500D01*
G37*
G36*
X176028732Y-96214500D02*
G01*
X176029000Y-96215500D01*
X176029000Y-97377500D01*
X176028000Y-97379232D01*
X176027000Y-97379500D01*
X175829000Y-97379500D01*
X175827268Y-97378500D01*
X175827000Y-97377500D01*
X175827000Y-96215500D01*
X175828000Y-96213768D01*
X175829000Y-96213500D01*
X176027000Y-96213500D01*
X176028732Y-96214500D01*
G37*
G36*
X185873732Y-96087500D02*
G01*
X185874000Y-96088500D01*
X185874000Y-97250500D01*
X185873000Y-97252232D01*
X185872000Y-97252500D01*
X185674000Y-97252500D01*
X185672268Y-97251500D01*
X185672000Y-97250500D01*
X185672000Y-96088500D01*
X185673000Y-96086768D01*
X185674000Y-96086500D01*
X185872000Y-96086500D01*
X185873732Y-96087500D01*
G37*
G36*
X186823732Y-96087500D02*
G01*
X186824000Y-96088500D01*
X186824000Y-97250500D01*
X186823000Y-97252232D01*
X186822000Y-97252500D01*
X186624000Y-97252500D01*
X186622268Y-97251500D01*
X186622000Y-97250500D01*
X186622000Y-96088500D01*
X186623000Y-96086768D01*
X186624000Y-96086500D01*
X186822000Y-96086500D01*
X186823732Y-96087500D01*
G37*
G36*
X197552732Y-95917500D02*
G01*
X197553000Y-95918500D01*
X197553000Y-97080500D01*
X197552000Y-97082232D01*
X197551000Y-97082500D01*
X197353000Y-97082500D01*
X197351268Y-97081500D01*
X197351000Y-97080500D01*
X197351000Y-95918500D01*
X197352000Y-95916768D01*
X197353000Y-95916500D01*
X197551000Y-95916500D01*
X197552732Y-95917500D01*
G37*
G36*
X196602732Y-95917500D02*
G01*
X196603000Y-95918500D01*
X196603000Y-97080500D01*
X196602000Y-97082232D01*
X196601000Y-97082500D01*
X196403000Y-97082500D01*
X196401268Y-97081500D01*
X196401000Y-97080500D01*
X196401000Y-95918500D01*
X196402000Y-95916768D01*
X196403000Y-95916500D01*
X196601000Y-95916500D01*
X196602732Y-95917500D01*
G37*
M02*
