M48
INCH,TZ
T1C0.0120
T2C0.0400
T3C0.0402
T4C0.1181
T5C0.1181
%
G90
G05
T1
X63750Y-40125
X64200Y-37725
X66100Y-37375
X66875Y-43375
X67100Y-39865
X67950Y-37725
X68950Y-40425
X69750Y-37375
X70200Y-42775
X70800Y-44975
X71000Y-42925
X71000Y-43375
X71050Y-42625
X71450Y-38975
X72200Y-37625
X72814Y-40361
X73050Y-39525
X73100Y-43725
X74000Y-37325
X74200Y-46025
X74300Y-42825
X75625Y-46225
X75700Y-41825
X76450Y-37625
X77150Y-40075
X77575Y-48075
X78250Y-37275
X78300Y-41125
X78975Y-46175
X79175Y-48975
X79425Y-48325
T2
X64200Y-41175
X64200Y-42175
X64200Y-43175
X65200Y-41175
X65200Y-42175
X65200Y-43175
T3
X63334Y-47368
X63334Y-48549
X63894Y-35775
X64516Y-47368
X64516Y-48549
X65075Y-35775
X66257Y-35775
X67438Y-35775
X67959Y-47368
X67959Y-48549
X68619Y-35775
X69141Y-47368
X69141Y-48549
X69800Y-35775
X70981Y-35775
X72162Y-35775
X72650Y-47375
X72650Y-48556
X73343Y-35775
X73831Y-47375
X73831Y-48556
X74524Y-35775
X75705Y-35775
X76886Y-35775
T4
X64741Y-34074
X76040Y-34074
T5
X63925Y-50250
X68550Y-50250
X73241Y-50257
T0
M30
