M48
; DRILL file {KiCad 8.0.6} date 2024-11-19T17:52:04-0500
; FORMAT={-:-/ absolute / metric / decimal}
; #@! TF.CreationDate,2024-11-19T17:52:04-05:00
; #@! TF.GenerationSoftware,Kicad,Pcbnew,8.0.6
; #@! TF.FileFunction,Plated,1,2,PTH
FMAT,2
METRIC
; #@! TA.AperFunction,Plated,PTH,ViaDrill
T1C0.200
; #@! TA.AperFunction,Plated,PTH,ViaDrill
T2C0.305
; #@! TA.AperFunction,Plated,PTH,ViaDrill
T3C0.381
; #@! TA.AperFunction,Plated,PTH,ComponentDrill
T4C1.020
; #@! TA.AperFunction,Plated,PTH,ComponentDrill
T5C2.410
; #@! TA.AperFunction,Plated,PTH,ComponentDrill
T6C3.500
%
G90
G05
T1
X149.15Y-86.225
T2
X101.901Y-96.951
X101.901Y-106.951
X115.5Y-110.2
X115.5Y-112.2
X115.6Y-94.0
X115.7Y-95.6
X115.7Y-108.5
X116.342Y-84.501
X116.342Y-86.501
X116.342Y-88.501
X116.342Y-90.501
X116.342Y-92.501
X118.0Y-110.2
X118.0Y-112.2
X118.342Y-84.501
X118.342Y-86.501
X118.342Y-88.501
X118.342Y-90.501
X118.342Y-92.501
X118.342Y-102.001
X118.342Y-109.001
X118.5Y-94.1
X118.5Y-95.5
X119.842Y-109.001
X120.342Y-84.501
X120.342Y-86.501
X120.342Y-88.501
X120.342Y-90.501
X120.342Y-92.501
X120.5Y-110.2
X120.5Y-112.2
X120.8Y-95.5
X120.9Y-94.1
X121.142Y-97.701
X121.142Y-106.601
X121.342Y-109.001
X122.342Y-84.501
X122.342Y-92.501
X122.35Y-86.5
X122.35Y-88.5
X122.35Y-90.5
X122.7Y-107.1
X122.8Y-95.7
X122.8Y-97.4
X122.842Y-100.001
X122.842Y-104.001
X123.0Y-110.2
X123.0Y-112.2
X123.1Y-94.1
X123.65Y-102.3
X124.342Y-84.501
X124.342Y-92.501
X124.35Y-86.5
X124.35Y-88.5
X124.35Y-90.5
X125.5Y-110.2
X125.5Y-112.2
X126.342Y-84.501
X126.342Y-86.501
X126.342Y-88.501
X126.342Y-90.501
X126.342Y-92.501
X128.0Y-110.2
X128.0Y-112.2
X128.2Y-87.35
X128.2Y-91.7
X128.4Y-93.7
X128.58Y-95.215
X128.842Y-99.501
X128.842Y-101.001
X128.842Y-102.501
X129.342Y-105.501
X129.6Y-88.15
X129.85Y-92.5
X130.342Y-98.001
X130.342Y-104.501
X130.5Y-110.2
X130.5Y-112.2
X130.68Y-95.065
X131.1Y-85.05
X131.108Y-87.049
X131.108Y-89.049
X131.342Y-100.501
X131.342Y-102.001
X131.342Y-103.501
X131.4Y-106.6
X132.0Y-104.9
X132.342Y-99.501
X132.5Y-110.2
X132.5Y-112.2
X132.6Y-93.8
X132.6Y-95.4
X132.6Y-102.2
X132.65Y-91.95
X133.1Y-85.05
X133.1Y-87.05
X133.1Y-89.05
X134.2Y-94.05
X134.796Y-95.906
X134.796Y-96.665
X134.796Y-97.453
X134.796Y-98.213
X134.9Y-85.3
X134.9Y-86.1
X134.9Y-86.9
X134.9Y-87.7
X135.05Y-89.05
X135.4Y-92.7
X135.7Y-85.3
X135.7Y-86.1
X135.7Y-86.9
X135.7Y-87.7
X136.1Y-91.3
X136.161Y-95.909
X136.161Y-96.701
X136.161Y-98.206
X136.267Y-97.453
X136.5Y-85.3
X136.5Y-86.1
X136.5Y-86.9
X136.5Y-87.7
X136.85Y-89.05
X137.3Y-85.3
X137.3Y-86.1
X137.3Y-86.9
X137.3Y-87.7
X137.967Y-93.24
X139.2Y-85.3
X139.2Y-86.1
X139.2Y-86.9
X139.2Y-87.7
X140.0Y-85.3
X140.0Y-86.1
X140.0Y-86.9
X140.0Y-87.7
X140.8Y-85.3
X140.8Y-86.1
X140.8Y-86.9
X140.8Y-87.7
X141.1Y-102.4
X141.6Y-85.3
X141.6Y-86.1
X141.6Y-86.9
X141.6Y-87.7
X141.817Y-96.415
X142.274Y-90.919
X142.575Y-94.125
X142.747Y-97.625
X143.4Y-91.089
X146.32Y-91.62
X146.9Y-92.151
X147.68Y-98.081
X147.714Y-93.831
X147.714Y-95.99
X147.93Y-109.19
X149.619Y-93.831
X149.652Y-95.99
X149.67Y-98.099
X150.83Y-91.715
X151.905Y-93.831
X151.905Y-95.99
X151.905Y-98.149
X241.043Y-90.154
X251.4Y-94.825
X253.0Y-92.7
X259.233Y-92.244
X260.625Y-99.094
X261.0Y-85.5
X261.395Y-94.15
X261.495Y-101.106
X261.695Y-92.335
X262.02Y-98.181
X262.145Y-88.775
X262.445Y-100.156
X262.495Y-102.2
X262.695Y-89.456
X262.845Y-93.168
X262.945Y-91.029
X262.97Y-88.269
X262.97Y-97.075
X263.595Y-103.75
T3
X128.892Y-90.051
X138.996Y-92.132
X140.1Y-90.39
X142.672Y-94.958
X147.78Y-107.04
X259.525Y-104.9
X261.42Y-105.725
T4
X92.8Y-89.15
X92.8Y-92.15
X92.8Y-104.55
X92.8Y-107.55
T5
X92.8Y-87.0
X92.8Y-94.3
X92.8Y-102.4
X92.8Y-109.7
T6
X86.263Y-98.55
M30
