G04 #@! TF.GenerationSoftware,KiCad,Pcbnew,8.0.6*
G04 #@! TF.CreationDate,2024-11-19T17:51:49-05:00*
G04 #@! TF.ProjectId,bms_csc,626d735f-6373-4632-9e6b-696361645f70,rev?*
G04 #@! TF.SameCoordinates,Original*
G04 #@! TF.FileFunction,Copper,L2,Bot*
G04 #@! TF.FilePolarity,Positive*
%FSLAX46Y46*%
G04 Gerber Fmt 4.6, Leading zero omitted, Abs format (unit mm)*
G04 Created by KiCad (PCBNEW 8.0.6) date 2024-11-19 17:51:49*
%MOMM*%
%LPD*%
G01*
G04 APERTURE LIST*
G04 #@! TA.AperFunction,NonConductor*
%ADD10C,0.200000*%
G04 #@! TD*
G04 #@! TA.AperFunction,ConnectorPad*
%ADD11O,3.200000X0.700000*%
G04 #@! TD*
G04 #@! TA.AperFunction,ConnectorPad*
%ADD12O,4.300000X0.700000*%
G04 #@! TD*
G04 #@! TA.AperFunction,ComponentPad*
%ADD13C,1.250000*%
G04 #@! TD*
G04 #@! TA.AperFunction,ComponentPad*
%ADD14C,2.560000*%
G04 #@! TD*
G04 #@! TA.AperFunction,ComponentPad*
%ADD15C,5.499999*%
G04 #@! TD*
G04 #@! TA.AperFunction,SMDPad,CuDef*
%ADD16C,7.249998*%
G04 #@! TD*
G04 #@! TA.AperFunction,ViaPad*
%ADD17C,0.609600*%
G04 #@! TD*
G04 #@! TA.AperFunction,ViaPad*
%ADD18C,0.762000*%
G04 #@! TD*
G04 #@! TA.AperFunction,ViaPad*
%ADD19C,0.500000*%
G04 #@! TD*
G04 #@! TA.AperFunction,Conductor*
%ADD20C,0.508000*%
G04 #@! TD*
G04 #@! TA.AperFunction,Conductor*
%ADD21C,0.381000*%
G04 #@! TD*
G04 #@! TA.AperFunction,Conductor*
%ADD22C,0.152400*%
G04 #@! TD*
G04 APERTURE END LIST*
D10*
X265329837Y-77390400D02*
X115004669Y-77390400D01*
D11*
X265970200Y-106800000D03*
D12*
X266520200Y-105800000D03*
X266520200Y-104800000D03*
X266520200Y-103800000D03*
X266520200Y-102800000D03*
X266520200Y-101800000D03*
X266520200Y-100800000D03*
X266520200Y-99800000D03*
X266520200Y-98800000D03*
X266520200Y-97800000D03*
X266520200Y-96800000D03*
X266520200Y-93800000D03*
X266520200Y-92800000D03*
X266520200Y-91800000D03*
X266520200Y-90800000D03*
X266520200Y-89800000D03*
X266520200Y-88800000D03*
X266520200Y-87800000D03*
D13*
X92800000Y-92150002D03*
X92800000Y-89150003D03*
D14*
X92800000Y-94300000D03*
X92800000Y-87000005D03*
D15*
X86262500Y-98550000D03*
D16*
X87262500Y-98550000D03*
D13*
X92800000Y-107550002D03*
X92800000Y-104550003D03*
D14*
X92800000Y-109700000D03*
X92800000Y-102400005D03*
D17*
X121141854Y-97700587D03*
X149651665Y-95990400D03*
X132600000Y-93800000D03*
D18*
X147779837Y-107040400D03*
D17*
X128841854Y-102500587D03*
X120800000Y-95500000D03*
X131341854Y-102000587D03*
X115600000Y-94000000D03*
X115700000Y-108500000D03*
X128579837Y-95215400D03*
X132500000Y-110200000D03*
X128841854Y-99500587D03*
X132600000Y-95400000D03*
X121341854Y-109000587D03*
X128400000Y-93700000D03*
X118000000Y-110200000D03*
X118500000Y-94100000D03*
X149669637Y-98098600D03*
X141817337Y-96415400D03*
X137967337Y-93240400D03*
X118500000Y-95500000D03*
X142575000Y-94125000D03*
X141100000Y-102400000D03*
X123100000Y-94100000D03*
X131341854Y-100500587D03*
X122841854Y-100000587D03*
X125500000Y-112200000D03*
X134200000Y-94050000D03*
X120500000Y-112200000D03*
X251400000Y-94825000D03*
X121141854Y-106600587D03*
X151904837Y-93831400D03*
X118341854Y-109000587D03*
X130500000Y-110200000D03*
X122700000Y-107100000D03*
X122800000Y-95700000D03*
X118000000Y-112200000D03*
X123000000Y-110200000D03*
X147679837Y-98081400D03*
X120500000Y-110200000D03*
X147929837Y-109190400D03*
X147713837Y-95990400D03*
X151904837Y-95990400D03*
X115700000Y-95600000D03*
X132500000Y-112200000D03*
X241042711Y-90153800D03*
X123650000Y-102300000D03*
X128000000Y-112200000D03*
X149618837Y-93831400D03*
X132000000Y-104900000D03*
X128000000Y-110200000D03*
X261000000Y-85500000D03*
X122841854Y-104000587D03*
X128841854Y-101000587D03*
X122800000Y-97400000D03*
X129341854Y-105500587D03*
X142746842Y-97624900D03*
X132600000Y-102200000D03*
X132341854Y-99500587D03*
X259233017Y-92244339D03*
X147713837Y-93831400D03*
X263595200Y-103750000D03*
X253000000Y-92700000D03*
X115500000Y-112200000D03*
X119841854Y-109000587D03*
X130341854Y-104500587D03*
X125500000Y-110200000D03*
X130500000Y-112200000D03*
X123000000Y-112200000D03*
X151904837Y-98149400D03*
X130341854Y-98000587D03*
X131400000Y-106600000D03*
X115500000Y-110200000D03*
X120900000Y-94100000D03*
X131341854Y-103500587D03*
X150829837Y-91715400D03*
X118341854Y-102000587D03*
X130679837Y-95065400D03*
D19*
X149150000Y-86225000D03*
D18*
X261420200Y-105725000D03*
X140100000Y-90390400D03*
X142671744Y-94957598D03*
D17*
X137300000Y-87700000D03*
X116341854Y-86500587D03*
X135700000Y-86900000D03*
X131108146Y-89049413D03*
X126341854Y-84500587D03*
X131108146Y-87049413D03*
X116341854Y-88500587D03*
X128200000Y-87350000D03*
X122350000Y-90500000D03*
X135050000Y-89050000D03*
X126341854Y-92500587D03*
X134900000Y-86100000D03*
X126341854Y-90500587D03*
X136500000Y-87700000D03*
X124350000Y-90500000D03*
X128200000Y-91700000D03*
X116341854Y-92500587D03*
X118341854Y-88500587D03*
X129850000Y-92500000D03*
X118341854Y-86500587D03*
X120341854Y-90500587D03*
X122341854Y-92500587D03*
X133100000Y-89050000D03*
X137300000Y-85300000D03*
X137300000Y-86100000D03*
X116341854Y-84500587D03*
X136850000Y-89050000D03*
X118341854Y-84500587D03*
X135700000Y-86100000D03*
X136500000Y-85300000D03*
X120341854Y-86500587D03*
X122341854Y-84500587D03*
X122350000Y-86500000D03*
X118341854Y-92500587D03*
X135700000Y-87700000D03*
X120341854Y-84500587D03*
X131100000Y-85050000D03*
X135400000Y-92700000D03*
X126341854Y-86500587D03*
X124350000Y-86500000D03*
X134900000Y-85300000D03*
X120341854Y-88500587D03*
X136500000Y-86900000D03*
X133100000Y-85050000D03*
X134900000Y-87700000D03*
X133100000Y-87050000D03*
X126341854Y-88500587D03*
X118341854Y-90500587D03*
X136100000Y-91300000D03*
X124341854Y-84500587D03*
X137300000Y-86900000D03*
X135700000Y-85300000D03*
X122350000Y-88500000D03*
X136500000Y-86100000D03*
X116341854Y-90500587D03*
X124350000Y-88500000D03*
X124341854Y-92500587D03*
X134900000Y-86900000D03*
X129600000Y-88150000D03*
X132650000Y-91950000D03*
X120341854Y-92500587D03*
X261495200Y-101106000D03*
X262495200Y-102200000D03*
X262445200Y-100156000D03*
X260625000Y-99094000D03*
X262020200Y-98181000D03*
X262970200Y-97075000D03*
X261395200Y-94150000D03*
X262845200Y-93168000D03*
X261695200Y-92334600D03*
X146320199Y-91620201D03*
X142274250Y-90919000D03*
X146900000Y-92151201D03*
X143400000Y-91089201D03*
D18*
X138995532Y-92132000D03*
X128891854Y-90050587D03*
D17*
X134796437Y-96665400D03*
X136160837Y-96701209D03*
X136160837Y-95908938D03*
X134796437Y-95905797D03*
X136160837Y-98205540D03*
X134796437Y-98212976D03*
X134796437Y-97453374D03*
X136266863Y-97453374D03*
D18*
X259525000Y-104900000D03*
D17*
X140000000Y-85300000D03*
X141600000Y-86100000D03*
X141600000Y-85300000D03*
X140000000Y-87700000D03*
X140800000Y-86900000D03*
X141600000Y-86900000D03*
X141600000Y-87700000D03*
X139200000Y-85300000D03*
X140800000Y-85300000D03*
X139200000Y-86100000D03*
X140800000Y-86100000D03*
X140800000Y-87700000D03*
X140000000Y-86100000D03*
X140000000Y-86900000D03*
X139200000Y-87700000D03*
X139200000Y-86900000D03*
X101901254Y-96951400D03*
X101901254Y-106951400D03*
X262695200Y-89456000D03*
X262970200Y-88269000D03*
X262145200Y-88775000D03*
X262945200Y-91028600D03*
D20*
X261495200Y-105800000D02*
X266520200Y-105800000D01*
D21*
X141927300Y-93927300D02*
X141927300Y-94393287D01*
X140100000Y-92100000D02*
X141927300Y-93927300D01*
X142491611Y-94957598D02*
X142671744Y-94957598D01*
X141927300Y-94393287D02*
X142491611Y-94957598D01*
D20*
X261420200Y-105725000D02*
X261495200Y-105800000D01*
D21*
X140100000Y-90390400D02*
X140100000Y-92100000D01*
D22*
X266520200Y-100800000D02*
X261801200Y-100800000D01*
X261801200Y-100800000D02*
X261495200Y-101106000D01*
X266520200Y-101800000D02*
X262895200Y-101800000D01*
X262895200Y-101800000D02*
X262495200Y-102200000D01*
X266520200Y-99800000D02*
X262801200Y-99800000D01*
X262801200Y-99800000D02*
X262445200Y-100156000D01*
X266270200Y-99050000D02*
X260720200Y-99050000D01*
X266520200Y-98800000D02*
X266270200Y-99050000D01*
X262151200Y-98050000D02*
X266270200Y-98050000D01*
X262020200Y-98181000D02*
X262151200Y-98050000D01*
X266270200Y-98050000D02*
X266520200Y-97800000D01*
X263245200Y-96800000D02*
X262970200Y-97075000D01*
X266520200Y-96800000D02*
X263245200Y-96800000D01*
X266520200Y-93800000D02*
X261745200Y-93800000D01*
X261745200Y-93800000D02*
X261395200Y-94150000D01*
X262963200Y-93050000D02*
X262845200Y-93168000D01*
X266520200Y-92800000D02*
X266270200Y-93050000D01*
X266270200Y-93050000D02*
X262963200Y-93050000D01*
X261695200Y-92334600D02*
X262004800Y-92025000D01*
X266295200Y-92025000D02*
X266520200Y-91800000D01*
X262004800Y-92025000D02*
X266295200Y-92025000D01*
X143070201Y-91620201D02*
X146320199Y-91620201D01*
X142274250Y-90919000D02*
X142369000Y-90919000D01*
X142369000Y-90919000D02*
X143070201Y-91620201D01*
X143400000Y-91089201D02*
X146540147Y-91089201D01*
X146900000Y-91449054D02*
X146900000Y-92151201D01*
X146540147Y-91089201D02*
X146900000Y-91449054D01*
D21*
X128891854Y-90050587D02*
X136914119Y-90050587D01*
X136914119Y-90050587D02*
X138995532Y-92132000D01*
D22*
X134796437Y-96665400D02*
X136125028Y-96665400D01*
X136125028Y-96665400D02*
X136160837Y-96701209D01*
X134796437Y-95905797D02*
X136157696Y-95905797D01*
X136157696Y-95905797D02*
X136160837Y-95908938D01*
X134796437Y-98212976D02*
X136153401Y-98212976D01*
X136153401Y-98212976D02*
X136160837Y-98205540D01*
X134796437Y-97453374D02*
X136266863Y-97453374D01*
D21*
X259898750Y-105273750D02*
X259525000Y-104900000D01*
X259945200Y-105273750D02*
X259898750Y-105273750D01*
X261471450Y-106800000D02*
X259945200Y-105273750D01*
X265970200Y-106800000D02*
X261471450Y-106800000D01*
X94950002Y-92150002D02*
X99751400Y-96951400D01*
X92800000Y-92150002D02*
X94950002Y-92150002D01*
X99751400Y-96951400D02*
X101901254Y-96951400D01*
X92800000Y-104550003D02*
X97150003Y-104550003D01*
X97150003Y-104550003D02*
X99551400Y-106951400D01*
X99551400Y-106951400D02*
X101901254Y-106951400D01*
D22*
X263039200Y-89800000D02*
X262695200Y-89456000D01*
X266520200Y-89800000D02*
X263039200Y-89800000D01*
X263164200Y-88075000D02*
X266245200Y-88075000D01*
X266245200Y-88075000D02*
X266520200Y-87800000D01*
X262970200Y-88269000D02*
X263164200Y-88075000D01*
X262765148Y-88775000D02*
X262940148Y-88950000D01*
X262940148Y-88950000D02*
X266370200Y-88950000D01*
X266370200Y-88950000D02*
X266520200Y-88800000D01*
X262145200Y-88775000D02*
X262765148Y-88775000D01*
X263173800Y-90800000D02*
X262945200Y-91028600D01*
X266520200Y-90800000D02*
X263173800Y-90800000D01*
G04 #@! TA.AperFunction,Conductor*
G36*
X137110712Y-83748952D02*
G01*
X137178794Y-83769065D01*
X137225199Y-83822796D01*
X137236500Y-83874951D01*
X137236500Y-84552590D01*
X137248792Y-84664271D01*
X137248793Y-84664274D01*
X137260714Y-84717772D01*
X137260716Y-84717778D01*
X137260717Y-84717782D01*
X137297004Y-84824112D01*
X137297005Y-84824114D01*
X137377262Y-84946266D01*
X137415588Y-84989603D01*
X137417356Y-84993373D01*
X137428165Y-85004182D01*
X137433455Y-85009806D01*
X137442376Y-85019894D01*
X137452911Y-85028928D01*
X137525832Y-85101849D01*
X137543425Y-85123910D01*
X137564265Y-85157078D01*
X137576506Y-85182495D01*
X137589444Y-85219469D01*
X137595722Y-85246974D01*
X137600107Y-85285891D01*
X137600107Y-85314107D01*
X137595722Y-85353024D01*
X137589444Y-85380530D01*
X137552712Y-85485506D01*
X137551567Y-85488777D01*
X137543550Y-85513709D01*
X137539945Y-85525984D01*
X137533193Y-85551349D01*
X137519796Y-85696898D01*
X137519795Y-85696902D01*
X137523415Y-85767789D01*
X137523416Y-85767802D01*
X137545137Y-85878517D01*
X137544091Y-85889861D01*
X137551974Y-85912388D01*
X137551982Y-85912410D01*
X137553467Y-85916658D01*
X137553484Y-85916703D01*
X137589443Y-86019466D01*
X137595722Y-86046974D01*
X137600107Y-86085891D01*
X137600107Y-86114107D01*
X137595722Y-86153024D01*
X137589444Y-86180530D01*
X137552712Y-86285506D01*
X137551567Y-86288777D01*
X137543550Y-86313709D01*
X137539945Y-86325984D01*
X137533193Y-86351349D01*
X137519796Y-86496898D01*
X137519795Y-86496902D01*
X137523415Y-86567789D01*
X137523416Y-86567802D01*
X137545137Y-86678517D01*
X137544091Y-86689861D01*
X137551974Y-86712388D01*
X137551982Y-86712410D01*
X137553467Y-86716658D01*
X137553484Y-86716703D01*
X137589443Y-86819466D01*
X137595722Y-86846974D01*
X137600107Y-86885891D01*
X137600107Y-86914107D01*
X137595722Y-86953024D01*
X137589444Y-86980530D01*
X137552712Y-87085506D01*
X137551567Y-87088777D01*
X137543550Y-87113709D01*
X137539945Y-87125984D01*
X137533193Y-87151349D01*
X137519796Y-87296898D01*
X137519795Y-87296902D01*
X137523415Y-87367789D01*
X137523416Y-87367802D01*
X137545137Y-87478517D01*
X137544091Y-87489861D01*
X137551974Y-87512388D01*
X137551982Y-87512410D01*
X137553467Y-87516658D01*
X137553484Y-87516703D01*
X137589443Y-87619466D01*
X137595722Y-87646974D01*
X137600107Y-87685891D01*
X137600107Y-87714107D01*
X137595722Y-87753024D01*
X137589444Y-87780530D01*
X137576508Y-87817500D01*
X137564265Y-87842923D01*
X137543425Y-87876089D01*
X137525833Y-87898147D01*
X137481506Y-87942474D01*
X137480820Y-87942848D01*
X137480905Y-87942933D01*
X137446503Y-87976982D01*
X137446464Y-87977021D01*
X137433883Y-87989462D01*
X137430716Y-87992486D01*
X137429432Y-87993670D01*
X137426806Y-87996459D01*
X137409828Y-88013248D01*
X137409673Y-88013435D01*
X137408766Y-88014333D01*
X137338017Y-88101671D01*
X137277301Y-88234619D01*
X137257302Y-88302731D01*
X137257300Y-88302738D01*
X137236500Y-88447412D01*
X137236500Y-89248486D01*
X137216498Y-89316607D01*
X137162842Y-89363100D01*
X137092568Y-89373204D01*
X137085919Y-89372065D01*
X136982970Y-89351587D01*
X136982965Y-89351587D01*
X136982964Y-89351587D01*
X129484011Y-89351587D01*
X129415890Y-89331585D01*
X129409950Y-89327523D01*
X129339054Y-89276014D01*
X129168239Y-89199962D01*
X128985345Y-89161087D01*
X128985344Y-89161087D01*
X128798364Y-89161087D01*
X128798363Y-89161087D01*
X128615468Y-89199962D01*
X128444649Y-89276016D01*
X128293381Y-89385919D01*
X128168268Y-89524871D01*
X128168264Y-89524877D01*
X128074782Y-89686795D01*
X128074776Y-89686807D01*
X128017000Y-89864625D01*
X128016999Y-89864629D01*
X128016999Y-89864631D01*
X127997454Y-90050587D01*
X128016332Y-90230199D01*
X128017000Y-90236548D01*
X128074776Y-90414366D01*
X128074782Y-90414378D01*
X128168264Y-90576296D01*
X128168268Y-90576302D01*
X128293381Y-90715254D01*
X128444649Y-90825157D01*
X128444651Y-90825158D01*
X128444654Y-90825160D01*
X128615469Y-90901212D01*
X128759488Y-90931823D01*
X128798363Y-90940087D01*
X128798364Y-90940087D01*
X128985345Y-90940087D01*
X129017405Y-90933272D01*
X129168239Y-90901212D01*
X129339054Y-90825160D01*
X129409950Y-90773651D01*
X129476818Y-90749792D01*
X129484011Y-90749587D01*
X136572394Y-90749587D01*
X136640515Y-90769589D01*
X136661489Y-90786492D01*
X137602642Y-91727645D01*
X137636668Y-91789957D01*
X137631603Y-91860772D01*
X137604377Y-91904067D01*
X136386773Y-93170515D01*
X136325142Y-93205758D01*
X136296942Y-93209184D01*
X133236816Y-93233443D01*
X133168539Y-93213982D01*
X133146724Y-93196544D01*
X133110293Y-93160113D01*
X133110292Y-93160112D01*
X132955108Y-93062605D01*
X132868615Y-93032340D01*
X132782121Y-93002074D01*
X132600000Y-92981554D01*
X132417879Y-93002074D01*
X132417876Y-93002074D01*
X132417876Y-93002075D01*
X132244891Y-93062605D01*
X132089707Y-93160112D01*
X132079305Y-93170515D01*
X132052989Y-93196830D01*
X131990680Y-93230855D01*
X131963895Y-93233735D01*
X129135677Y-93233735D01*
X129067556Y-93213733D01*
X129045646Y-93193954D01*
X129044891Y-93194710D01*
X128910295Y-93060114D01*
X128817925Y-93002075D01*
X128755110Y-92962606D01*
X128755109Y-92962605D01*
X128755108Y-92962605D01*
X128668615Y-92932340D01*
X128582121Y-92902074D01*
X128400000Y-92881554D01*
X128217879Y-92902074D01*
X128217876Y-92902074D01*
X128217876Y-92902075D01*
X128044891Y-92962605D01*
X127889704Y-93060114D01*
X127755109Y-93194710D01*
X127753352Y-93192953D01*
X127704711Y-93227087D01*
X127664323Y-93233735D01*
X115894010Y-93233735D01*
X115852395Y-93226664D01*
X115782121Y-93202074D01*
X115600000Y-93181554D01*
X115599999Y-93181554D01*
X115567153Y-93185254D01*
X115550005Y-93187186D01*
X115480074Y-93174937D01*
X115427866Y-93126825D01*
X115409899Y-93061979D01*
X115409899Y-83859735D01*
X115429901Y-83791614D01*
X115483557Y-83745121D01*
X115535899Y-83733735D01*
X127819899Y-83733735D01*
X137110712Y-83748952D01*
G37*
G04 #@! TD.AperFunction*
G04 #@! TA.AperFunction,Conductor*
G36*
X143174176Y-83053501D02*
G01*
X143242269Y-83073598D01*
X143288687Y-83127319D01*
X143300000Y-83179501D01*
X143300000Y-89774000D01*
X143279998Y-89842121D01*
X143226342Y-89888614D01*
X143174000Y-89900000D01*
X140911482Y-89900000D01*
X140843361Y-89879998D01*
X140817846Y-89858311D01*
X140698470Y-89725731D01*
X140547204Y-89615829D01*
X140376385Y-89539775D01*
X140193491Y-89500900D01*
X140193490Y-89500900D01*
X140006510Y-89500900D01*
X140006509Y-89500900D01*
X139823614Y-89539775D01*
X139652795Y-89615829D01*
X139501529Y-89725731D01*
X139382154Y-89858311D01*
X139321708Y-89895550D01*
X139288518Y-89900000D01*
X137876000Y-89900000D01*
X137807879Y-89879998D01*
X137761386Y-89826342D01*
X137750000Y-89774000D01*
X137750000Y-88447409D01*
X137770002Y-88379288D01*
X137805021Y-88344625D01*
X137804761Y-88344299D01*
X137807802Y-88341873D01*
X137808969Y-88340719D01*
X137809212Y-88340565D01*
X137810293Y-88339887D01*
X137939887Y-88210293D01*
X138037394Y-88055110D01*
X138097926Y-87882121D01*
X138118446Y-87700000D01*
X138097926Y-87517879D01*
X138037394Y-87344890D01*
X138037393Y-87344889D01*
X138036248Y-87341615D01*
X138032628Y-87270711D01*
X138036248Y-87258385D01*
X138037394Y-87255110D01*
X138097926Y-87082121D01*
X138118446Y-86900000D01*
X138097926Y-86717879D01*
X138037394Y-86544890D01*
X138037393Y-86544889D01*
X138036248Y-86541615D01*
X138032628Y-86470711D01*
X138036248Y-86458385D01*
X138037394Y-86455110D01*
X138097926Y-86282121D01*
X138118446Y-86100000D01*
X138097926Y-85917879D01*
X138037394Y-85744890D01*
X138037393Y-85744889D01*
X138036248Y-85741615D01*
X138032628Y-85670711D01*
X138036248Y-85658385D01*
X138037394Y-85655110D01*
X138097926Y-85482121D01*
X138118446Y-85300000D01*
X138097926Y-85117879D01*
X138037394Y-84944890D01*
X137939887Y-84789707D01*
X137939886Y-84789706D01*
X137939885Y-84789704D01*
X137810297Y-84660116D01*
X137810290Y-84660111D01*
X137808954Y-84659271D01*
X137808276Y-84658504D01*
X137804763Y-84655703D01*
X137805254Y-84655087D01*
X137761921Y-84606088D01*
X137750000Y-84552590D01*
X137750000Y-83202190D01*
X137770002Y-83134069D01*
X137786905Y-83113095D01*
X137813095Y-83086905D01*
X137875407Y-83052879D01*
X137902190Y-83050000D01*
X140670685Y-83050000D01*
X143174176Y-83053501D01*
G37*
G04 #@! TD.AperFunction*
G04 #@! TA.AperFunction,Conductor*
G36*
X260776008Y-83217992D02*
G01*
X260780306Y-83218074D01*
X260853399Y-83220731D01*
X260876854Y-83223808D01*
X261021965Y-83256950D01*
X261047448Y-83265728D01*
X261180668Y-83328268D01*
X261203704Y-83342269D01*
X261320566Y-83431716D01*
X261340098Y-83450298D01*
X261435256Y-83562557D01*
X261450388Y-83584868D01*
X261519490Y-83714805D01*
X261529529Y-83739825D01*
X261569857Y-83883087D01*
X261574103Y-83906383D01*
X261580098Y-83975770D01*
X261580565Y-83987029D01*
X261570199Y-87149999D01*
X261570200Y-87150000D01*
X263886278Y-87150000D01*
X263954399Y-87170002D01*
X264000892Y-87223658D01*
X264010996Y-87293932D01*
X263991043Y-87345999D01*
X263978987Y-87364043D01*
X263959406Y-87393348D01*
X263959405Y-87393350D01*
X263951467Y-87412517D01*
X263906920Y-87467798D01*
X263839557Y-87490220D01*
X263835058Y-87490300D01*
X263228673Y-87490300D01*
X263187058Y-87483229D01*
X263152321Y-87471074D01*
X262970200Y-87450554D01*
X262788079Y-87471074D01*
X262788076Y-87471074D01*
X262788076Y-87471075D01*
X262615091Y-87531605D01*
X262459904Y-87629114D01*
X262330314Y-87758704D01*
X262330312Y-87758707D01*
X262242912Y-87897803D01*
X262189733Y-87944841D01*
X262150333Y-87955975D01*
X262057354Y-87966451D01*
X261963079Y-87977074D01*
X261963076Y-87977074D01*
X261963076Y-87977075D01*
X261790091Y-88037605D01*
X261634904Y-88135114D01*
X261505314Y-88264704D01*
X261407805Y-88419891D01*
X261362425Y-88549581D01*
X261347274Y-88592879D01*
X261326754Y-88775000D01*
X261347274Y-88957121D01*
X261347275Y-88957123D01*
X261407805Y-89130108D01*
X261505314Y-89285295D01*
X261634904Y-89414885D01*
X261634906Y-89414886D01*
X261634907Y-89414887D01*
X261790090Y-89512394D01*
X261812197Y-89520129D01*
X261869887Y-89561505D01*
X261895789Y-89624946D01*
X261897273Y-89638118D01*
X261897274Y-89638121D01*
X261957806Y-89811110D01*
X262003954Y-89884555D01*
X262055314Y-89966295D01*
X262184904Y-90095885D01*
X262184906Y-90095886D01*
X262184907Y-90095887D01*
X262340090Y-90193394D01*
X262365744Y-90202371D01*
X262423434Y-90243746D01*
X262449598Y-90309746D01*
X262435927Y-90379414D01*
X262413225Y-90410394D01*
X262305313Y-90518306D01*
X262207805Y-90673491D01*
X262185625Y-90736879D01*
X262147274Y-90846479D01*
X262126754Y-91028600D01*
X262147274Y-91210721D01*
X262147274Y-91210723D01*
X262147275Y-91210724D01*
X262168956Y-91272685D01*
X262172575Y-91343589D01*
X262137286Y-91405195D01*
X262074293Y-91437941D01*
X262050027Y-91440300D01*
X261927823Y-91440300D01*
X261779115Y-91480146D01*
X261779114Y-91480146D01*
X261779112Y-91480147D01*
X261744735Y-91499994D01*
X261695846Y-91516081D01*
X261651248Y-91521106D01*
X261513079Y-91536674D01*
X261513076Y-91536674D01*
X261513076Y-91536675D01*
X261340091Y-91597205D01*
X261184904Y-91694714D01*
X261055314Y-91824304D01*
X260957805Y-91979491D01*
X260897721Y-92151201D01*
X260897274Y-92152479D01*
X260876754Y-92334600D01*
X260897274Y-92516721D01*
X260908774Y-92549585D01*
X260957805Y-92689708D01*
X261055314Y-92844895D01*
X261184904Y-92974485D01*
X261184906Y-92974486D01*
X261184907Y-92974487D01*
X261340090Y-93071994D01*
X261385122Y-93087751D01*
X261390073Y-93089484D01*
X261447765Y-93130862D01*
X261473927Y-93196863D01*
X261460254Y-93266530D01*
X261411449Y-93317537D01*
X261407986Y-93319536D01*
X261359104Y-93335620D01*
X261213078Y-93352074D01*
X261213073Y-93352076D01*
X261040090Y-93412606D01*
X260884904Y-93510114D01*
X260755314Y-93639704D01*
X260657805Y-93794891D01*
X260625608Y-93886905D01*
X260597274Y-93967879D01*
X260576754Y-94150000D01*
X260597274Y-94332121D01*
X260597275Y-94332123D01*
X260657805Y-94505108D01*
X260755314Y-94660295D01*
X260884904Y-94789885D01*
X260884906Y-94789886D01*
X260884907Y-94789887D01*
X261040090Y-94887394D01*
X261213079Y-94947926D01*
X261395200Y-94968446D01*
X261449109Y-94962371D01*
X261519037Y-94974620D01*
X261571246Y-95022732D01*
X261589155Y-95091432D01*
X261588524Y-95100748D01*
X261569382Y-95282892D01*
X261567584Y-95300000D01*
X261569251Y-95315861D01*
X261588399Y-95498057D01*
X261588400Y-95498062D01*
X261619171Y-95592762D01*
X261649942Y-95687464D01*
X261649945Y-95687469D01*
X261749515Y-95859931D01*
X261749520Y-95859938D01*
X261882772Y-96007930D01*
X262043887Y-96124987D01*
X262043889Y-96124988D01*
X262043892Y-96124990D01*
X262225825Y-96205992D01*
X262380839Y-96238941D01*
X262443311Y-96272668D01*
X262477632Y-96334817D01*
X262472905Y-96405656D01*
X262443737Y-96451282D01*
X262330313Y-96564706D01*
X262232805Y-96719891D01*
X262175616Y-96883329D01*
X262172274Y-96892879D01*
X262151754Y-97075000D01*
X262168571Y-97224260D01*
X262156323Y-97294190D01*
X262108210Y-97346398D01*
X262039509Y-97364307D01*
X262029262Y-97363574D01*
X262020206Y-97362554D01*
X262020203Y-97362554D01*
X262020201Y-97362554D01*
X262020200Y-97362554D01*
X261838079Y-97383074D01*
X261838076Y-97383074D01*
X261838076Y-97383075D01*
X261665091Y-97443605D01*
X261509904Y-97541114D01*
X261380314Y-97670704D01*
X261282805Y-97825891D01*
X261225681Y-97989143D01*
X261222274Y-97998879D01*
X261216467Y-98050418D01*
X261201754Y-98181000D01*
X261210640Y-98259868D01*
X261198390Y-98329800D01*
X261150277Y-98382008D01*
X261081576Y-98399916D01*
X261018397Y-98380663D01*
X261001431Y-98370003D01*
X260980110Y-98356606D01*
X260980107Y-98356605D01*
X260980109Y-98356605D01*
X260861765Y-98315195D01*
X260807121Y-98296074D01*
X260625000Y-98275554D01*
X260442879Y-98296074D01*
X260442876Y-98296074D01*
X260442876Y-98296075D01*
X260269891Y-98356605D01*
X260114704Y-98454114D01*
X259985114Y-98583704D01*
X259887605Y-98738891D01*
X259847725Y-98852861D01*
X259827074Y-98911879D01*
X259806554Y-99094000D01*
X259827074Y-99276121D01*
X259857340Y-99362615D01*
X259887605Y-99449108D01*
X259985114Y-99604295D01*
X260114704Y-99733885D01*
X260114706Y-99733886D01*
X260114707Y-99733887D01*
X260269890Y-99831394D01*
X260442879Y-99891926D01*
X260625000Y-99912446D01*
X260807121Y-99891926D01*
X260980110Y-99831394D01*
X261135293Y-99733887D01*
X261197576Y-99671603D01*
X261259886Y-99637580D01*
X261286670Y-99634700D01*
X261588378Y-99634700D01*
X261656499Y-99654702D01*
X261702992Y-99708358D01*
X261713096Y-99778632D01*
X261707307Y-99802315D01*
X261647275Y-99973876D01*
X261647274Y-99973879D01*
X261626754Y-100156000D01*
X261625962Y-100163031D01*
X261623825Y-100162790D01*
X261606752Y-100220938D01*
X261563751Y-100261938D01*
X261548011Y-100271025D01*
X261499122Y-100287112D01*
X261474973Y-100289833D01*
X261313079Y-100308074D01*
X261313076Y-100308074D01*
X261313076Y-100308075D01*
X261140091Y-100368605D01*
X260984904Y-100466114D01*
X260855314Y-100595704D01*
X260757805Y-100750891D01*
X260711034Y-100884555D01*
X260697274Y-100923879D01*
X260676754Y-101106000D01*
X260697274Y-101288121D01*
X260725926Y-101370003D01*
X260757805Y-101461108D01*
X260855314Y-101616295D01*
X260984904Y-101745885D01*
X260984906Y-101745886D01*
X260984907Y-101745887D01*
X261140090Y-101843394D01*
X261313079Y-101903926D01*
X261495200Y-101924446D01*
X261553531Y-101917873D01*
X261623460Y-101930122D01*
X261675669Y-101978234D01*
X261693578Y-102046935D01*
X261692845Y-102057187D01*
X261676754Y-102200000D01*
X261697274Y-102382121D01*
X261698362Y-102385230D01*
X261757805Y-102555108D01*
X261855314Y-102710295D01*
X261984904Y-102839885D01*
X261984906Y-102839886D01*
X261984907Y-102839887D01*
X262140090Y-102937394D01*
X262313079Y-102997926D01*
X262495200Y-103018446D01*
X262677321Y-102997926D01*
X262850310Y-102937394D01*
X263005493Y-102839887D01*
X263135087Y-102710293D01*
X263232594Y-102555110D01*
X263262696Y-102469083D01*
X263304075Y-102411393D01*
X263370075Y-102385230D01*
X263381625Y-102384700D01*
X263774818Y-102384700D01*
X263842939Y-102404702D01*
X263889432Y-102458358D01*
X263899536Y-102528632D01*
X263895393Y-102547274D01*
X263894693Y-102549581D01*
X263894692Y-102549584D01*
X263894692Y-102549585D01*
X263893593Y-102555109D01*
X263861700Y-102715441D01*
X263861700Y-102884558D01*
X263872210Y-102937394D01*
X263894692Y-103050415D01*
X263959407Y-103206652D01*
X263959408Y-103206653D01*
X263959409Y-103206655D01*
X263975007Y-103230001D01*
X263996220Y-103297754D01*
X263977435Y-103366221D01*
X263975007Y-103369999D01*
X263959409Y-103393344D01*
X263894693Y-103549581D01*
X263894692Y-103549584D01*
X263861700Y-103715441D01*
X263861700Y-103884558D01*
X263894692Y-104050415D01*
X263894693Y-104050418D01*
X263959407Y-104206652D01*
X263975307Y-104230448D01*
X263996522Y-104298201D01*
X263977739Y-104366668D01*
X263975308Y-104370450D01*
X263959853Y-104393580D01*
X263896718Y-104546000D01*
X264254311Y-104546000D01*
X264307460Y-104559313D01*
X264307829Y-104558424D01*
X264313547Y-104560792D01*
X264313548Y-104560793D01*
X264469785Y-104625508D01*
X264635645Y-104658500D01*
X268404755Y-104658500D01*
X268570615Y-104625508D01*
X268726852Y-104560793D01*
X268726852Y-104560792D01*
X268732571Y-104558424D01*
X268732939Y-104559313D01*
X268786089Y-104546000D01*
X269143681Y-104546000D01*
X269080547Y-104393583D01*
X269065092Y-104370452D01*
X269043877Y-104302699D01*
X269062660Y-104234232D01*
X269065056Y-104230503D01*
X269080993Y-104206652D01*
X269145708Y-104050415D01*
X269178700Y-103884555D01*
X269178700Y-103715445D01*
X269145708Y-103549585D01*
X269080993Y-103393348D01*
X269080990Y-103393344D01*
X269065394Y-103370003D01*
X269044178Y-103302251D01*
X269062960Y-103233784D01*
X269065383Y-103230012D01*
X269080993Y-103206652D01*
X269145708Y-103050415D01*
X269178700Y-102884555D01*
X269178700Y-102715445D01*
X269145708Y-102549585D01*
X269080993Y-102393348D01*
X269065393Y-102370001D01*
X269044178Y-102302251D01*
X269062960Y-102233784D01*
X269065394Y-102229997D01*
X269080992Y-102206653D01*
X269080993Y-102206652D01*
X269145708Y-102050415D01*
X269178700Y-101884555D01*
X269178700Y-101715445D01*
X269145708Y-101549585D01*
X269080993Y-101393348D01*
X269065393Y-101370001D01*
X269044178Y-101302251D01*
X269062960Y-101233784D01*
X269065394Y-101229997D01*
X269080992Y-101206653D01*
X269080993Y-101206652D01*
X269145708Y-101050415D01*
X269178700Y-100884555D01*
X269178700Y-100715445D01*
X269145708Y-100549585D01*
X269080993Y-100393348D01*
X269065393Y-100370001D01*
X269044178Y-100302251D01*
X269062960Y-100233784D01*
X269065394Y-100229997D01*
X269080992Y-100206653D01*
X269080993Y-100206652D01*
X269145708Y-100050415D01*
X269178700Y-99884555D01*
X269178700Y-99715445D01*
X269145708Y-99549585D01*
X269080993Y-99393348D01*
X269065393Y-99370001D01*
X269044178Y-99302251D01*
X269062960Y-99233784D01*
X269065394Y-99229997D01*
X269080992Y-99206653D01*
X269080993Y-99206652D01*
X269145708Y-99050415D01*
X269178700Y-98884555D01*
X269178700Y-98715445D01*
X269145708Y-98549585D01*
X269080993Y-98393348D01*
X269077194Y-98387663D01*
X269065394Y-98370003D01*
X269044178Y-98302251D01*
X269062960Y-98233784D01*
X269065394Y-98229997D01*
X269080992Y-98206653D01*
X269080993Y-98206652D01*
X269145708Y-98050415D01*
X269178700Y-97884555D01*
X269178700Y-97715445D01*
X269145708Y-97549585D01*
X269080993Y-97393348D01*
X269065393Y-97370001D01*
X269044178Y-97302251D01*
X269062960Y-97233784D01*
X269065394Y-97229997D01*
X269080992Y-97206653D01*
X269080993Y-97206652D01*
X269145708Y-97050415D01*
X269178700Y-96884555D01*
X269178700Y-96715445D01*
X269145708Y-96549585D01*
X269104990Y-96451282D01*
X269093780Y-96424218D01*
X269086191Y-96353628D01*
X269117971Y-96290141D01*
X269179029Y-96253914D01*
X269210189Y-96250000D01*
X269418010Y-96250000D01*
X269486131Y-96270002D01*
X269507105Y-96286905D01*
X269933295Y-96713095D01*
X269967321Y-96775407D01*
X269970200Y-96802190D01*
X269970200Y-106897810D01*
X269950198Y-106965931D01*
X269933295Y-106986905D01*
X269507105Y-107413095D01*
X269444793Y-107447121D01*
X269418010Y-107450000D01*
X268054122Y-107450000D01*
X267986001Y-107429998D01*
X267939508Y-107376342D01*
X267929404Y-107306068D01*
X267949356Y-107254000D01*
X267980993Y-107206652D01*
X268045708Y-107050415D01*
X268078700Y-106884555D01*
X268078700Y-106784500D01*
X268098702Y-106716379D01*
X268152358Y-106669886D01*
X268204700Y-106658500D01*
X268404755Y-106658500D01*
X268570615Y-106625508D01*
X268726852Y-106560793D01*
X268867462Y-106466841D01*
X268987041Y-106347262D01*
X269080993Y-106206652D01*
X269145708Y-106050415D01*
X269178700Y-105884555D01*
X269178700Y-105715445D01*
X269145708Y-105549585D01*
X269080993Y-105393348D01*
X269065091Y-105369549D01*
X269043877Y-105301799D01*
X269062660Y-105233332D01*
X269065093Y-105229546D01*
X269080547Y-105206417D01*
X269143682Y-105054000D01*
X268786089Y-105054000D01*
X268732939Y-105040686D01*
X268732571Y-105041576D01*
X268697166Y-105026911D01*
X268664635Y-105013436D01*
X268570618Y-104974493D01*
X268570615Y-104974492D01*
X268404758Y-104941500D01*
X268404755Y-104941500D01*
X264635645Y-104941500D01*
X264635641Y-104941500D01*
X264469784Y-104974492D01*
X264469781Y-104974493D01*
X264340824Y-105027909D01*
X264292606Y-105037500D01*
X262028186Y-105037500D01*
X261960065Y-105017498D01*
X261954125Y-105013436D01*
X261867404Y-104950429D01*
X261847349Y-104941500D01*
X261696585Y-104874375D01*
X261513691Y-104835500D01*
X261513690Y-104835500D01*
X261326710Y-104835500D01*
X261326709Y-104835500D01*
X261143814Y-104874375D01*
X260972996Y-104950428D01*
X260850051Y-105039753D01*
X260783183Y-105063611D01*
X260714032Y-105047530D01*
X260686896Y-105026911D01*
X260433218Y-104773233D01*
X260403960Y-104719653D01*
X260401896Y-104720324D01*
X260342077Y-104536220D01*
X260342071Y-104536208D01*
X260248589Y-104374290D01*
X260248585Y-104374284D01*
X260123472Y-104235332D01*
X259972204Y-104125429D01*
X259801385Y-104049375D01*
X259618491Y-104010500D01*
X259618490Y-104010500D01*
X259431510Y-104010500D01*
X259431509Y-104010500D01*
X259248614Y-104049375D01*
X259077795Y-104125429D01*
X258926527Y-104235332D01*
X258801414Y-104374284D01*
X258801410Y-104374290D01*
X258707928Y-104536208D01*
X258707922Y-104536220D01*
X258650146Y-104714038D01*
X258650145Y-104714042D01*
X258650145Y-104714044D01*
X258630600Y-104900000D01*
X258647796Y-105063611D01*
X258650146Y-105085961D01*
X258707922Y-105263779D01*
X258707928Y-105263791D01*
X258801410Y-105425709D01*
X258801414Y-105425715D01*
X258926527Y-105564667D01*
X259077795Y-105674570D01*
X259077797Y-105674571D01*
X259077800Y-105674573D01*
X259248615Y-105750625D01*
X259387960Y-105780243D01*
X259448326Y-105812833D01*
X259448378Y-105812771D01*
X259448698Y-105813034D01*
X259450434Y-105813971D01*
X259450859Y-105814395D01*
X259453157Y-105816693D01*
X259453163Y-105816698D01*
X259567649Y-105893196D01*
X259569346Y-105894103D01*
X259572431Y-105896391D01*
X259572796Y-105896635D01*
X259572784Y-105896652D01*
X259599045Y-105916130D01*
X260928501Y-107245586D01*
X261025864Y-107342949D01*
X261140349Y-107419446D01*
X261267559Y-107472138D01*
X261402605Y-107499000D01*
X261443129Y-107499000D01*
X261511250Y-107519002D01*
X261557743Y-107572658D01*
X261569127Y-107625769D01*
X261535265Y-113173779D01*
X261534974Y-113181604D01*
X261529411Y-113262973D01*
X261525463Y-113286793D01*
X261481930Y-113450321D01*
X261472049Y-113475867D01*
X261394960Y-113624668D01*
X261379791Y-113647475D01*
X261272373Y-113776096D01*
X261252634Y-113795087D01*
X261119955Y-113897457D01*
X261096580Y-113911732D01*
X260944915Y-113983013D01*
X260919004Y-113991901D01*
X260753933Y-114029078D01*
X260729928Y-114032103D01*
X260646611Y-114034537D01*
X260642446Y-114034590D01*
X251678555Y-114000000D01*
X251678539Y-114000000D01*
X115226000Y-114000000D01*
X115157879Y-113979998D01*
X115111386Y-113926342D01*
X115100000Y-113874000D01*
X115100000Y-95905797D01*
X133977991Y-95905797D01*
X133998511Y-96087918D01*
X134011483Y-96124990D01*
X134053121Y-96243983D01*
X134056741Y-96314887D01*
X134053121Y-96327213D01*
X134015365Y-96435113D01*
X133998511Y-96483279D01*
X133977991Y-96665400D01*
X133998511Y-96847521D01*
X133998511Y-96847523D01*
X133998512Y-96847524D01*
X134058084Y-97017772D01*
X134061703Y-97088676D01*
X134058084Y-97101002D01*
X134014955Y-97224258D01*
X133998511Y-97271253D01*
X133977991Y-97453374D01*
X133998511Y-97635495D01*
X133998511Y-97635497D01*
X133998512Y-97635498D01*
X134053120Y-97791560D01*
X134056739Y-97862465D01*
X134053120Y-97874790D01*
X134001115Y-98023413D01*
X133998511Y-98030855D01*
X133977991Y-98212976D01*
X133998511Y-98395097D01*
X134059043Y-98568086D01*
X134068858Y-98583707D01*
X134156551Y-98723271D01*
X134286141Y-98852861D01*
X134286143Y-98852862D01*
X134286144Y-98852863D01*
X134441327Y-98950370D01*
X134614316Y-99010902D01*
X134796437Y-99031422D01*
X134978558Y-99010902D01*
X135151547Y-98950370D01*
X135306730Y-98852863D01*
X135314168Y-98845425D01*
X135325013Y-98834581D01*
X135387325Y-98800555D01*
X135414108Y-98797676D01*
X135550602Y-98797676D01*
X135618723Y-98817678D01*
X135639697Y-98834581D01*
X135650541Y-98845425D01*
X135650543Y-98845426D01*
X135650544Y-98845427D01*
X135805727Y-98942934D01*
X135978716Y-99003466D01*
X136160837Y-99023986D01*
X136342958Y-99003466D01*
X136515947Y-98942934D01*
X136671130Y-98845427D01*
X136800724Y-98715833D01*
X136898231Y-98560650D01*
X136958763Y-98387661D01*
X136979283Y-98205540D01*
X136958763Y-98023419D01*
X136946768Y-97989142D01*
X136943149Y-97918238D01*
X136959009Y-97880493D01*
X137004257Y-97808484D01*
X137064789Y-97635495D01*
X137085309Y-97453374D01*
X137064789Y-97271253D01*
X137004257Y-97098264D01*
X136959011Y-97026255D01*
X136939705Y-96957934D01*
X136946769Y-96917604D01*
X136958763Y-96883330D01*
X136979283Y-96701209D01*
X136958763Y-96519088D01*
X136898436Y-96346687D01*
X136894817Y-96275784D01*
X136898432Y-96263471D01*
X136958763Y-96091059D01*
X136979283Y-95908938D01*
X136958763Y-95726817D01*
X136898231Y-95553828D01*
X136800724Y-95398645D01*
X136800723Y-95398644D01*
X136800722Y-95398642D01*
X136671132Y-95269052D01*
X136515945Y-95171543D01*
X136429452Y-95141278D01*
X136342958Y-95111012D01*
X136160837Y-95090492D01*
X135978716Y-95111012D01*
X135978713Y-95111012D01*
X135978713Y-95111013D01*
X135805728Y-95171543D01*
X135650541Y-95269052D01*
X135635402Y-95284192D01*
X135573090Y-95318218D01*
X135546307Y-95321097D01*
X135414108Y-95321097D01*
X135345987Y-95301095D01*
X135325013Y-95284192D01*
X135306732Y-95265911D01*
X135151545Y-95168402D01*
X135065052Y-95138137D01*
X134978558Y-95107871D01*
X134796437Y-95087351D01*
X134614316Y-95107871D01*
X134614313Y-95107871D01*
X134614313Y-95107872D01*
X134441328Y-95168402D01*
X134286141Y-95265911D01*
X134156551Y-95395501D01*
X134059042Y-95550688D01*
X134011182Y-95687464D01*
X133998511Y-95723676D01*
X133977991Y-95905797D01*
X115100000Y-95905797D01*
X115100000Y-93759168D01*
X115120002Y-93691047D01*
X115173658Y-93644554D01*
X115243932Y-93634450D01*
X115265181Y-93639415D01*
X115364323Y-93671852D01*
X115391479Y-93680737D01*
X115391484Y-93680737D01*
X115391488Y-93680739D01*
X115461396Y-93692984D01*
X115461400Y-93692984D01*
X115461410Y-93692986D01*
X115581772Y-93696669D01*
X115592004Y-93697401D01*
X115653024Y-93704276D01*
X115680535Y-93710556D01*
X115682796Y-93711348D01*
X115682800Y-93711349D01*
X115682803Y-93711350D01*
X115706741Y-93717524D01*
X115766377Y-93732908D01*
X115807992Y-93739979D01*
X115894010Y-93747235D01*
X115894021Y-93747235D01*
X127664312Y-93747235D01*
X127664323Y-93747235D01*
X127747725Y-93740417D01*
X127763403Y-93737836D01*
X127788104Y-93733771D01*
X127788110Y-93733769D01*
X127788113Y-93733769D01*
X127869310Y-93713492D01*
X127999678Y-93647416D01*
X128048319Y-93613282D01*
X128048318Y-93613281D01*
X128070573Y-93597664D01*
X128071789Y-93595205D01*
X128088941Y-93579718D01*
X128118210Y-93557808D01*
X128201854Y-93474161D01*
X128223904Y-93456577D01*
X128257087Y-93435727D01*
X128282493Y-93423492D01*
X128319471Y-93410553D01*
X128346968Y-93404277D01*
X128385897Y-93399891D01*
X128414103Y-93399891D01*
X128453026Y-93404276D01*
X128480533Y-93410555D01*
X128499015Y-93417023D01*
X128499018Y-93417024D01*
X128499024Y-93417026D01*
X128499023Y-93417026D01*
X128517497Y-93423490D01*
X128542923Y-93435735D01*
X128544729Y-93436870D01*
X128544730Y-93436870D01*
X128576084Y-93456571D01*
X128576091Y-93456575D01*
X128598151Y-93474168D01*
X128667612Y-93543629D01*
X128668521Y-93545294D01*
X128673918Y-93550166D01*
X128678582Y-93554599D01*
X128681792Y-93557809D01*
X128692272Y-93566884D01*
X128695333Y-93569534D01*
X128697284Y-93571260D01*
X128723455Y-93594886D01*
X128723459Y-93594889D01*
X128723466Y-93594895D01*
X128730285Y-93600109D01*
X128736205Y-93604927D01*
X128737434Y-93605991D01*
X128737438Y-93605993D01*
X128740919Y-93608408D01*
X128745605Y-93611822D01*
X128789938Y-93645717D01*
X128922887Y-93706433D01*
X128991008Y-93726435D01*
X129135677Y-93747235D01*
X129135681Y-93747235D01*
X131963906Y-93747235D01*
X132009124Y-93744810D01*
X132018792Y-93744292D01*
X132029794Y-93743108D01*
X132045571Y-93741413D01*
X132051717Y-93740417D01*
X132099843Y-93732618D01*
X132236784Y-93681538D01*
X132299093Y-93647513D01*
X132399027Y-93572702D01*
X132407471Y-93566902D01*
X132457085Y-93535727D01*
X132482490Y-93523493D01*
X132519469Y-93510553D01*
X132546968Y-93504277D01*
X132585897Y-93499891D01*
X132614103Y-93499891D01*
X132653026Y-93504276D01*
X132680533Y-93510555D01*
X132699015Y-93517023D01*
X132699018Y-93517024D01*
X132717505Y-93523492D01*
X132742917Y-93535731D01*
X132780852Y-93559566D01*
X132797826Y-93572349D01*
X132826099Y-93597645D01*
X132826104Y-93597650D01*
X132837834Y-93607026D01*
X132847915Y-93615084D01*
X132894355Y-93648154D01*
X133027782Y-93707814D01*
X133096059Y-93727275D01*
X133240887Y-93746927D01*
X136301013Y-93722668D01*
X136358871Y-93718936D01*
X136387071Y-93715510D01*
X136430182Y-93707782D01*
X136444126Y-93705283D01*
X136444127Y-93705282D01*
X136444136Y-93705281D01*
X136580047Y-93651522D01*
X136638659Y-93618005D01*
X136640521Y-93617008D01*
X136641659Y-93616289D01*
X136641678Y-93616279D01*
X136641680Y-93616278D01*
X136756940Y-93526406D01*
X137923982Y-92312547D01*
X137985611Y-92277306D01*
X138056513Y-92280977D01*
X138114174Y-92322399D01*
X138134643Y-92360940D01*
X138178454Y-92495780D01*
X138178460Y-92495791D01*
X138271942Y-92657709D01*
X138271946Y-92657715D01*
X138397059Y-92796667D01*
X138548327Y-92906570D01*
X138548329Y-92906571D01*
X138548332Y-92906573D01*
X138719147Y-92982625D01*
X138863166Y-93013236D01*
X138902041Y-93021500D01*
X138902042Y-93021500D01*
X139089023Y-93021500D01*
X139121083Y-93014685D01*
X139271917Y-92982625D01*
X139442732Y-92906573D01*
X139594002Y-92796669D01*
X139606612Y-92782663D01*
X139667058Y-92745424D01*
X139738041Y-92746775D01*
X139789344Y-92777879D01*
X141191395Y-94179930D01*
X141225421Y-94242242D01*
X141228300Y-94269025D01*
X141228300Y-94462136D01*
X141247925Y-94560793D01*
X141247925Y-94560795D01*
X141255160Y-94597173D01*
X141255162Y-94597178D01*
X141307853Y-94724386D01*
X141351617Y-94789885D01*
X141351619Y-94789887D01*
X141384352Y-94838874D01*
X141828373Y-95282895D01*
X141851030Y-95315861D01*
X141851369Y-95315666D01*
X141853850Y-95319964D01*
X141854381Y-95320736D01*
X141854667Y-95321377D01*
X141854669Y-95321383D01*
X141899276Y-95398645D01*
X141948159Y-95483314D01*
X142073271Y-95622265D01*
X142224539Y-95732168D01*
X142224541Y-95732169D01*
X142224544Y-95732171D01*
X142395359Y-95808223D01*
X142539378Y-95838834D01*
X142578253Y-95847098D01*
X142578254Y-95847098D01*
X142765235Y-95847098D01*
X142797295Y-95840283D01*
X142948129Y-95808223D01*
X143118944Y-95732171D01*
X143270214Y-95622267D01*
X143296781Y-95592762D01*
X143395329Y-95483313D01*
X143395333Y-95483307D01*
X143446027Y-95395501D01*
X143488819Y-95321383D01*
X143546599Y-95143554D01*
X143566144Y-94957598D01*
X143546599Y-94771642D01*
X143509837Y-94658500D01*
X143488821Y-94593818D01*
X143488815Y-94593806D01*
X143395333Y-94431888D01*
X143395329Y-94431882D01*
X143270216Y-94292930D01*
X143118948Y-94183027D01*
X143111992Y-94179930D01*
X142948129Y-94106973D01*
X142765235Y-94068098D01*
X142765234Y-94068098D01*
X142752300Y-94068098D01*
X142684179Y-94048096D01*
X142637686Y-93994440D01*
X142626300Y-93942098D01*
X142626300Y-93858456D01*
X142626299Y-93858452D01*
X142613656Y-93794890D01*
X142599438Y-93723409D01*
X142546746Y-93596199D01*
X142470249Y-93481714D01*
X142372886Y-93384351D01*
X140835905Y-91847370D01*
X140801879Y-91785058D01*
X140799000Y-91758275D01*
X140799000Y-90990892D01*
X140819002Y-90922771D01*
X140823069Y-90916824D01*
X140823576Y-90916124D01*
X140823585Y-90916115D01*
X140917075Y-90754185D01*
X140974855Y-90576356D01*
X140980113Y-90526330D01*
X141007126Y-90460673D01*
X141065347Y-90420043D01*
X141105423Y-90413500D01*
X141411900Y-90413500D01*
X141480021Y-90433502D01*
X141526514Y-90487158D01*
X141536618Y-90557432D01*
X141530830Y-90581109D01*
X141516758Y-90621327D01*
X141476324Y-90736877D01*
X141476324Y-90736879D01*
X141455804Y-90919000D01*
X141476324Y-91101121D01*
X141476325Y-91101123D01*
X141536855Y-91274108D01*
X141634364Y-91429295D01*
X141763954Y-91558885D01*
X141763956Y-91558886D01*
X141763957Y-91558887D01*
X141919140Y-91656394D01*
X142092129Y-91716926D01*
X142274250Y-91737446D01*
X142291516Y-91735500D01*
X142361447Y-91747746D01*
X142394722Y-91771612D01*
X142602325Y-91979215D01*
X142711187Y-92088077D01*
X142844515Y-92165054D01*
X142993224Y-92204901D01*
X143147178Y-92204901D01*
X145702528Y-92204901D01*
X145770649Y-92224903D01*
X145791623Y-92241806D01*
X145809903Y-92260086D01*
X145809905Y-92260087D01*
X145809906Y-92260088D01*
X145965089Y-92357595D01*
X146073592Y-92395562D01*
X146131283Y-92436940D01*
X146150904Y-92472873D01*
X146162603Y-92506305D01*
X146162605Y-92506310D01*
X146260114Y-92661496D01*
X146389704Y-92791086D01*
X146389706Y-92791087D01*
X146389707Y-92791088D01*
X146544890Y-92888595D01*
X146717879Y-92949127D01*
X146900000Y-92969647D01*
X147082121Y-92949127D01*
X147255110Y-92888595D01*
X147410293Y-92791088D01*
X147539887Y-92661494D01*
X147637394Y-92506311D01*
X147697926Y-92333322D01*
X147718446Y-92151201D01*
X147697926Y-91969080D01*
X147637394Y-91796091D01*
X147539887Y-91640908D01*
X147539886Y-91640907D01*
X147539885Y-91640905D01*
X147521605Y-91622625D01*
X147487579Y-91560313D01*
X147484700Y-91533530D01*
X147484700Y-91372078D01*
X147484144Y-91370003D01*
X147444853Y-91223368D01*
X147367876Y-91090040D01*
X147259014Y-90981178D01*
X146899161Y-90621325D01*
X146839921Y-90587123D01*
X146765833Y-90544348D01*
X146617124Y-90504501D01*
X146617122Y-90504501D01*
X144017671Y-90504501D01*
X143949550Y-90484499D01*
X143928576Y-90467596D01*
X143910295Y-90449315D01*
X143755109Y-90351806D01*
X143742785Y-90347494D01*
X143685095Y-90306114D01*
X143658934Y-90240113D01*
X143672609Y-90170446D01*
X143689176Y-90146058D01*
X143711982Y-90119739D01*
X143772698Y-89986790D01*
X143792700Y-89918669D01*
X143813500Y-89774000D01*
X143813500Y-83180570D01*
X143833502Y-83112449D01*
X143887158Y-83065956D01*
X143939668Y-83054571D01*
X260776008Y-83217992D01*
G37*
G04 #@! TD.AperFunction*
M02*
