G04 #@! TF.GenerationSoftware,KiCad,Pcbnew,5.1.5-52549c5~84~ubuntu18.04.1*
G04 #@! TF.CreationDate,2020-01-27T20:19:36-05:00*
G04 #@! TF.ProjectId,BMS_peripheral,424d535f-7065-4726-9970-686572616c2e,rev?*
G04 #@! TF.SameCoordinates,Original*
G04 #@! TF.FileFunction,Paste,Top*
G04 #@! TF.FilePolarity,Positive*
%FSLAX46Y46*%
G04 Gerber Fmt 4.6, Leading zero omitted, Abs format (unit mm)*
G04 Created by KiCad (PCBNEW 5.1.5-52549c5~84~ubuntu18.04.1) date 2020-01-27 20:19:36*
%MOMM*%
%LPD*%
G04 APERTURE LIST*
%ADD10R,1.060000X0.650000*%
%ADD11R,0.700000X1.300000*%
%ADD12R,0.400000X1.200000*%
%ADD13R,1.250000X1.000000*%
%ADD14R,1.000000X1.250000*%
%ADD15R,2.000000X1.500000*%
%ADD16R,2.000000X3.800000*%
%ADD17R,1.300000X0.700000*%
%ADD18R,0.300000X1.200000*%
%ADD19R,0.250000X1.500000*%
%ADD20R,0.650000X0.400000*%
%ADD21R,1.650000X3.430000*%
%ADD22R,2.920000X1.270000*%
G04 APERTURE END LIST*
D10*
X124884000Y-170876000D03*
X124884000Y-168976000D03*
X127084000Y-168976000D03*
X127084000Y-169926000D03*
X127084000Y-170876000D03*
D11*
X145862000Y-220428820D03*
X147762000Y-220428820D03*
X146406285Y-216080702D03*
X148306285Y-216080702D03*
X146950570Y-211732585D03*
X148850570Y-211732585D03*
X147494855Y-207384468D03*
X149394855Y-207384468D03*
X148039140Y-203036351D03*
X149939140Y-203036351D03*
X148583425Y-198688234D03*
X150483425Y-198688234D03*
X149127710Y-194340117D03*
X151027710Y-194340117D03*
X149671995Y-189992000D03*
X151571995Y-189992000D03*
D12*
X144881600Y-181042000D03*
X145516600Y-181042000D03*
X146151600Y-181042000D03*
X146786600Y-181042000D03*
X147421600Y-181042000D03*
X148056600Y-181042000D03*
X148691600Y-181042000D03*
X149326600Y-181042000D03*
X149326600Y-186242000D03*
X148691600Y-186242000D03*
X148056600Y-186242000D03*
X147421600Y-186242000D03*
X146786600Y-186242000D03*
X146151600Y-186242000D03*
X145516600Y-186242000D03*
X144881600Y-186242000D03*
D13*
X147396200Y-176038000D03*
X147396200Y-178038000D03*
D14*
X151400000Y-126619000D03*
X153400000Y-126619000D03*
X147190852Y-126619000D03*
X149190852Y-126619000D03*
X142981710Y-126619000D03*
X144981710Y-126619000D03*
X138772568Y-126619000D03*
X140772568Y-126619000D03*
X134563426Y-126619000D03*
X136563426Y-126619000D03*
X130354284Y-126619000D03*
X132354284Y-126619000D03*
X126145142Y-126619000D03*
X128145142Y-126619000D03*
X121936000Y-126619000D03*
X123936000Y-126619000D03*
X125476000Y-319278000D03*
X123476000Y-319278000D03*
X129740914Y-319278000D03*
X127740914Y-319278000D03*
X134005828Y-319278000D03*
X132005828Y-319278000D03*
X138270742Y-319278000D03*
X136270742Y-319278000D03*
X142535656Y-319278000D03*
X140535656Y-319278000D03*
X146800570Y-319278000D03*
X144800570Y-319278000D03*
X151065484Y-319278000D03*
X149065484Y-319278000D03*
X155330400Y-319278000D03*
X153330400Y-319278000D03*
X143494000Y-139954000D03*
X141494000Y-139954000D03*
X128794000Y-313436000D03*
X130794000Y-313436000D03*
D13*
X132080000Y-155162000D03*
X132080000Y-153162000D03*
X134112000Y-155178000D03*
X134112000Y-153178000D03*
X140462000Y-297974000D03*
X140462000Y-299974000D03*
X136144000Y-155178000D03*
X136144000Y-153178000D03*
X138176000Y-297958000D03*
X138176000Y-299958000D03*
D14*
X146828000Y-137160000D03*
X148828000Y-137160000D03*
X126984000Y-313436000D03*
X124984000Y-313436000D03*
X146542000Y-239522000D03*
X144542000Y-239522000D03*
X151654000Y-239522000D03*
X153654000Y-239522000D03*
X152178000Y-277876000D03*
X154178000Y-277876000D03*
X147812000Y-277876000D03*
X145812000Y-277876000D03*
X138970000Y-243586000D03*
X140970000Y-243586000D03*
X159734000Y-243586000D03*
X157734000Y-243586000D03*
X159496000Y-273304000D03*
X157496000Y-273304000D03*
D13*
X141224000Y-272780000D03*
X141224000Y-270780000D03*
X126492000Y-176038000D03*
X126492000Y-178038000D03*
X137579100Y-176038000D03*
X137579100Y-178038000D03*
X128778000Y-155686000D03*
X128778000Y-153686000D03*
D15*
X146023800Y-144004000D03*
X146023800Y-148604000D03*
X146023800Y-146304000D03*
D16*
X152323800Y-146304000D03*
D15*
X125832000Y-307862000D03*
X125832000Y-303262000D03*
X125832000Y-305562000D03*
D16*
X119532000Y-305562000D03*
D17*
X151765000Y-117414000D03*
X151765000Y-119314000D03*
X147828000Y-117414000D03*
X147828000Y-119314000D03*
X143891000Y-117414000D03*
X143891000Y-119314000D03*
X139954000Y-117414000D03*
X139954000Y-119314000D03*
X136017000Y-117414000D03*
X136017000Y-119314000D03*
X132080000Y-117414000D03*
X132080000Y-119314000D03*
X128143000Y-117414000D03*
X128143000Y-119314000D03*
X124206000Y-117414000D03*
X124206000Y-119314000D03*
X124968000Y-329626000D03*
X124968000Y-327726000D03*
X129035628Y-329626000D03*
X129035628Y-327726000D03*
X133103256Y-329626000D03*
X133103256Y-327726000D03*
X137170884Y-329626000D03*
X137170884Y-327726000D03*
X141238512Y-329626000D03*
X141238512Y-327726000D03*
X145306140Y-329626000D03*
X145306140Y-327726000D03*
X149373768Y-329626000D03*
X149373768Y-327726000D03*
X153441400Y-329626000D03*
X153441400Y-327726000D03*
X152146000Y-123632000D03*
X152146000Y-121732000D03*
X148494750Y-123632000D03*
X148494750Y-121732000D03*
X144843500Y-123632000D03*
X144843500Y-121732000D03*
X141192250Y-123632000D03*
X141192250Y-121732000D03*
X137541000Y-123632000D03*
X137541000Y-121732000D03*
X133889750Y-123632000D03*
X133889750Y-121732000D03*
X130238500Y-123632000D03*
X130238500Y-121732000D03*
X126587250Y-123632000D03*
X126587250Y-121732000D03*
X122936000Y-123632000D03*
X122936000Y-121732000D03*
X123190000Y-323001600D03*
X123190000Y-324901600D03*
X127241300Y-323001600D03*
X127241300Y-324901600D03*
X131292600Y-323001600D03*
X131292600Y-324901600D03*
X135343900Y-323001600D03*
X135343900Y-324901600D03*
X139395200Y-323001600D03*
X139395200Y-324901600D03*
X143446500Y-323001600D03*
X143446500Y-324901600D03*
X147497800Y-323001600D03*
X147497800Y-324901600D03*
X151549100Y-323001600D03*
X151549100Y-324901600D03*
X155600400Y-323001600D03*
X155600400Y-324901600D03*
D11*
X141544000Y-141986000D03*
X143444000Y-141986000D03*
X130744000Y-311150000D03*
X128844000Y-311150000D03*
X138242000Y-152908000D03*
X140142000Y-152908000D03*
X128844000Y-299974000D03*
X130744000Y-299974000D03*
X130998000Y-170688000D03*
X129098000Y-170688000D03*
X138176000Y-155194000D03*
X140076000Y-155194000D03*
X128844000Y-297942000D03*
X130744000Y-297942000D03*
X130998000Y-168402000D03*
X129098000Y-168402000D03*
X148778000Y-140208000D03*
X146878000Y-140208000D03*
X125034000Y-311150000D03*
X126934000Y-311150000D03*
X124368520Y-220428820D03*
X126268520Y-220428820D03*
X135750260Y-220428820D03*
X137650260Y-220428820D03*
X124991908Y-216133312D03*
X126891908Y-216133312D03*
X136334096Y-216080702D03*
X138234096Y-216080702D03*
X125615296Y-211837810D03*
X127515296Y-211837810D03*
X136917932Y-211732585D03*
X138817932Y-211732585D03*
X126238684Y-207542308D03*
X128138684Y-207542308D03*
X137501768Y-207384468D03*
X139401768Y-207384468D03*
X144739400Y-243611400D03*
X142839400Y-243611400D03*
X148270000Y-243586000D03*
X146370000Y-243586000D03*
X152080000Y-243586000D03*
X150180000Y-243586000D03*
X155702000Y-243586000D03*
X153802000Y-243586000D03*
X153990000Y-273304000D03*
X155890000Y-273304000D03*
X150434000Y-273304000D03*
X152334000Y-273304000D03*
X146878000Y-273304000D03*
X148778000Y-273304000D03*
X143322000Y-273304000D03*
X145222000Y-273304000D03*
X126862072Y-203246806D03*
X128762072Y-203246806D03*
X138085604Y-203036351D03*
X139985604Y-203036351D03*
X127485460Y-198951304D03*
X129385460Y-198951304D03*
X138669440Y-198688234D03*
X140569440Y-198688234D03*
X128108848Y-194655802D03*
X130008848Y-194655802D03*
X139253276Y-194340117D03*
X141153276Y-194340117D03*
X128732236Y-189992000D03*
X130632236Y-189992000D03*
X139837112Y-189992000D03*
X141737112Y-189992000D03*
D17*
X126492000Y-155636000D03*
X126492000Y-153736000D03*
D18*
X145008600Y-247689200D03*
X146278600Y-247689200D03*
X147548600Y-247689200D03*
X148818600Y-247689200D03*
X150088600Y-247689200D03*
X151358600Y-247689200D03*
X152628600Y-247689200D03*
X153898600Y-256489200D03*
X152628600Y-256489200D03*
X151358600Y-256489200D03*
X150088600Y-256489200D03*
X148818600Y-256489200D03*
X147548600Y-256489200D03*
X146278600Y-256489200D03*
X145008600Y-256489200D03*
X153898600Y-247689200D03*
X153898600Y-270140600D03*
X152628600Y-270140600D03*
X151358600Y-270140600D03*
X150088600Y-270140600D03*
X148818600Y-270140600D03*
X147548600Y-270140600D03*
X146278600Y-270140600D03*
X145008600Y-261340600D03*
X146278600Y-261340600D03*
X147548600Y-261340600D03*
X148818600Y-261340600D03*
X150088600Y-261340600D03*
X151358600Y-261340600D03*
X152628600Y-261340600D03*
X153898600Y-261340600D03*
X145008600Y-270140600D03*
D19*
X138338000Y-150019000D03*
X137838000Y-150019000D03*
X137338000Y-150019000D03*
X136838000Y-150019000D03*
X136338000Y-150019000D03*
X135838000Y-150019000D03*
X135338000Y-150019000D03*
X134838000Y-150019000D03*
X134338000Y-150019000D03*
X133838000Y-150019000D03*
X133338000Y-150019000D03*
X132838000Y-150019000D03*
X132338000Y-150019000D03*
X131838000Y-150019000D03*
X131338000Y-150019000D03*
X130838000Y-150019000D03*
X130338000Y-150019000D03*
X129838000Y-150019000D03*
X129338000Y-150019000D03*
X128838000Y-150019000D03*
X128338000Y-150019000D03*
X127838000Y-150019000D03*
X127338000Y-150019000D03*
X126838000Y-142554000D03*
X127338000Y-142554000D03*
X127838000Y-142554000D03*
X128338000Y-142554000D03*
X128838000Y-142554000D03*
X129338000Y-142554000D03*
X129838000Y-142554000D03*
X130338000Y-142554000D03*
X130838000Y-142554000D03*
X131338000Y-142554000D03*
X131838000Y-142554000D03*
X132338000Y-142554000D03*
X132838000Y-142554000D03*
X133338000Y-142554000D03*
X133838000Y-142554000D03*
X134338000Y-142554000D03*
X134838000Y-142554000D03*
X135338000Y-142554000D03*
X135838000Y-142554000D03*
X136338000Y-142554000D03*
X136838000Y-142554000D03*
X137338000Y-142554000D03*
X137838000Y-142554000D03*
X138338000Y-142554000D03*
X126838000Y-150019000D03*
X133188000Y-302863000D03*
X133688000Y-302863000D03*
X134188000Y-302863000D03*
X134688000Y-302863000D03*
X135188000Y-302863000D03*
X135688000Y-302863000D03*
X136188000Y-302863000D03*
X136688000Y-302863000D03*
X137188000Y-302863000D03*
X137688000Y-302863000D03*
X138188000Y-302863000D03*
X138688000Y-302863000D03*
X139188000Y-302863000D03*
X139688000Y-302863000D03*
X140188000Y-302863000D03*
X140688000Y-302863000D03*
X141188000Y-302863000D03*
X141688000Y-302863000D03*
X142188000Y-302863000D03*
X142688000Y-302863000D03*
X143188000Y-302863000D03*
X143688000Y-302863000D03*
X144188000Y-302863000D03*
X144688000Y-310328000D03*
X144188000Y-310328000D03*
X143688000Y-310328000D03*
X143188000Y-310328000D03*
X142688000Y-310328000D03*
X142188000Y-310328000D03*
X141688000Y-310328000D03*
X141188000Y-310328000D03*
X140688000Y-310328000D03*
X140188000Y-310328000D03*
X139688000Y-310328000D03*
X139188000Y-310328000D03*
X138688000Y-310328000D03*
X138188000Y-310328000D03*
X137688000Y-310328000D03*
X137188000Y-310328000D03*
X136688000Y-310328000D03*
X136188000Y-310328000D03*
X135688000Y-310328000D03*
X135188000Y-310328000D03*
X134688000Y-310328000D03*
X134188000Y-310328000D03*
X133688000Y-310328000D03*
X133188000Y-310328000D03*
X144688000Y-302863000D03*
D20*
X130368000Y-183784000D03*
X130368000Y-182484000D03*
X132268000Y-183134000D03*
X132268000Y-182484000D03*
X132268000Y-183784000D03*
D12*
X123786900Y-181042000D03*
X124421900Y-181042000D03*
X125056900Y-181042000D03*
X125691900Y-181042000D03*
X126326900Y-181042000D03*
X126961900Y-181042000D03*
X127596900Y-181042000D03*
X128231900Y-181042000D03*
X128231900Y-186242000D03*
X127596900Y-186242000D03*
X126961900Y-186242000D03*
X126326900Y-186242000D03*
X125691900Y-186242000D03*
X125056900Y-186242000D03*
X124421900Y-186242000D03*
X123786900Y-186242000D03*
X134969250Y-181042000D03*
X135604250Y-181042000D03*
X136239250Y-181042000D03*
X136874250Y-181042000D03*
X137509250Y-181042000D03*
X138144250Y-181042000D03*
X138779250Y-181042000D03*
X139414250Y-181042000D03*
X139414250Y-186242000D03*
X138779250Y-186242000D03*
X138144250Y-186242000D03*
X137509250Y-186242000D03*
X136874250Y-186242000D03*
X136239250Y-186242000D03*
X135604250Y-186242000D03*
X134969250Y-186242000D03*
D20*
X126050000Y-161940000D03*
X126050000Y-160640000D03*
X127950000Y-161290000D03*
X127950000Y-160640000D03*
X127950000Y-161940000D03*
D21*
X120104400Y-237291600D03*
X120104400Y-248051600D03*
D22*
X125564400Y-241171600D03*
X125564400Y-244171600D03*
D21*
X120104400Y-254157200D03*
X120104400Y-264917200D03*
D22*
X125564400Y-258037200D03*
X125564400Y-261037200D03*
M02*
