M48
INCH,TZ
T1C0.0120
T2C0.0315
T3C0.0591
%
G90
G05
T1
X46634Y-107175
X47087Y-37215
X47600Y-40200
X47800Y-47900
X47900Y-128100
X48100Y-34300
X48300Y-80800
X48500Y-128400
X48500Y-128400
X48510Y-79200
X48690Y-86135
X48900Y-45600
X48900Y-109600
X49117Y-43183
X49117Y-84683
X49200Y-110100
X49200Y-130400
X49327Y-82915
X49327Y-42373
X49485Y-81215
X49600Y-139300
X49880Y-82300
X50010Y-47500
X50090Y-79500
X50100Y-65900
X50200Y-70800
X50300Y-69300
X50300Y-109100
X50300Y-123800
X50305Y-139700
X50305Y-122530
X50400Y-117300
X50500Y-45600
X50500Y-70600
X50510Y-76000
X50510Y-77700
X50700Y-61800
X50720Y-74200
X50800Y-63200
X50800Y-110600
X50800Y-130400
X50900Y-58500
X51300Y-65700
X51300Y-128300
X51300Y-128300
X51400Y-38700
X51600Y-47500
X51700Y-39200
X52000Y-38200
X52000Y-45600
X52000Y-67200
X52100Y-70190
X52100Y-71300
X52300Y-108600
X52300Y-118600
X52400Y-130400
X52480Y-141200
X52500Y-71800
X52520Y-111100
X52690Y-107100
X52700Y-142200
X52710Y-47610
X52900Y-118600
X52968Y-65700
X53100Y-59590
X53178Y-84300
X53190Y-84600
X53290Y-39710
X53363Y-108093
X53500Y-45600
X53500Y-59590
X53600Y-61700
X53600Y-71700
X53600Y-116700
X53638Y-82776
X53700Y-141700
X53790Y-107100
X53888Y-81084
X54000Y-130400
X54100Y-116700
X54200Y-71700
X54210Y-142790
X54300Y-58500
X54400Y-35700
X54468Y-77600
X54500Y-61600
X54600Y-55500
X54600Y-128300
X54678Y-79500
X54700Y-59000
X54700Y-69300
X54700Y-70800
X54888Y-74188
X54900Y-41200
X54950Y-144250
X55000Y-70600
X55100Y-45600
X55100Y-107600
X55200Y-116900
X55200Y-140700
X55310Y-76000
X55330Y-36230
X55600Y-47500
X55600Y-112100
X55600Y-130400
X56000Y-94800
X56000Y-107500
X56600Y-45600
X56636Y-107100
X56800Y-139200
X57040Y-85940
X57200Y-93500
X57200Y-112600
X57200Y-130400
X57290Y-84190
X57313Y-55413
X57323Y-37687
X57540Y-82340
X57700Y-40700
X57780Y-128100
X57800Y-70700
X57800Y-80900
X57990Y-137690
X57990Y-47900
X58000Y-43200
X58200Y-45600
X58200Y-109000
X58329Y-106602
X58500Y-79200
X58540Y-75840
X58680Y-77400
X58790Y-74290
X58800Y-113100
X58800Y-130400
X59000Y-69300
X59000Y-70600
X59000Y-71800
X59272Y-122470
X59700Y-94800
X59700Y-105800
X59800Y-45600
X60000Y-109000
X60300Y-59400
X60400Y-113600
X60400Y-130400
X60600Y-59600
X60710Y-42373
X61000Y-58900
X61300Y-58600
X62894Y-96594
X62913Y-143750
X63200Y-95100
X63200Y-108100
T2
X57600Y-139750
X57600Y-140750
X57600Y-141750
X57600Y-142750
X57600Y-143750
X58600Y-139250
X58600Y-140250
X58600Y-141250
X58600Y-142250
X58600Y-143250
X58700Y-36200
X58700Y-37200
X58700Y-38200
X58700Y-39200
X58700Y-40200
X58700Y-41200
X59700Y-35700
X59700Y-36700
X59700Y-37700
X59700Y-38700
X59700Y-39700
X59700Y-40700
X49300Y-36200
X49300Y-37200
X49300Y-38200
X49300Y-39200
X49300Y-40200
X49300Y-41200
X50300Y-35700
X50300Y-36700
X50300Y-37700
X50300Y-38700
X50300Y-39700
X50300Y-40700
X53500Y-106600
X53500Y-107600
X53500Y-108600
X53500Y-109600
X53500Y-110600
X53500Y-111600
X53500Y-112600
X53500Y-113600
X54500Y-106100
X54500Y-107100
X54500Y-108100
X54500Y-109100
X54500Y-110100
X54500Y-111100
X54500Y-112100
X54500Y-113100
X51100Y-139250
X51100Y-140250
X51100Y-141250
X51100Y-142250
X51100Y-143250
X51100Y-144250
X52100Y-138750
X52100Y-139750
X52100Y-140750
X52100Y-141750
X52100Y-142750
X52100Y-143750
T3
X57891Y-138699
X58991Y-35149
X49591Y-35149
X53791Y-105549
X51391Y-138199
T0
M30
