M48
; DRILL file {KiCad 8.0.6} date 2024-11-19T22:04:58-0500
; FORMAT={-:-/ absolute / metric / decimal}
; #@! TF.CreationDate,2024-11-19T22:04:58-05:00
; #@! TF.GenerationSoftware,Kicad,Pcbnew,8.0.6
; #@! TF.FileFunction,Plated,1,4,PTH
FMAT,2
METRIC
; #@! TA.AperFunction,Plated,PTH,ViaDrill
T1C0.200
; #@! TA.AperFunction,Plated,PTH,ViaDrill
T2C0.300
; #@! TA.AperFunction,Plated,PTH,ViaDrill
T3C0.305
; #@! TA.AperFunction,Plated,PTH,ViaDrill
T4C0.381
; #@! TA.AperFunction,Plated,PTH,ComponentDrill
T5C1.016
; #@! TA.AperFunction,Plated,PTH,ComponentDrill
T6C1.020
; #@! TA.AperFunction,Plated,PTH,ComponentDrill
T7C1.300
; #@! TA.AperFunction,Plated,PTH,ComponentDrill
T8C3.500
%
G90
G05
T1
X174.05Y-95.3
X175.889Y-91.448
X178.765Y-104.851
X179.07Y-94.564
X180.3Y-106.3
X180.764Y-91.448
X182.042Y-96.977
X183.21Y-103.632
X183.845Y-94.64
X185.141Y-105.41
X185.152Y-110.448
X185.563Y-91.448
X185.776Y-105.867
X185.95Y-107.4
X186.284Y-101.117
X186.792Y-102.895
X187.35Y-99.771
X188.316Y-94.742
X188.756Y-111.244
X188.976Y-98.908
X189.027Y-98.146
X190.438Y-91.448
X191.389Y-95.047
X191.44Y-103.454
X191.999Y-102.718
X192.049Y-99.974
X193.391Y-93.323
X195.174Y-91.448
X196.901Y-106.477
X197.129Y-98.412
X197.129Y-99.962
X199.238Y-102.87
X199.273Y-98.984
X203.651Y-91.796
X204.267Y-92.812
X205.842Y-111.176
X205.994Y-99.504
X206.633Y-107.309
X207.027Y-94.422
X208.614Y-107.309
X209.478Y-104.296
X210.033Y-114.808
X210.5Y-111.3
X212.442Y-104.096
X212.852Y-108.712
X213.142Y-106.197
X213.208Y-92.253
X214.378Y-106.155
X218.326Y-105.256
X219.375Y-103.647
X221.132Y-103.732
X226.198Y-107.798
X229.4Y-107.819
X235.782Y-102.748
X237.525Y-107.819
X238.093Y-104.386
X240.767Y-108.661
X240.8Y-112.0
X240.868Y-104.597
T2
X172.314Y-102.984
T3
X175.315Y-103.453
T4
X173.137Y-99.595
X174.955Y-98.247
X175.576Y-102.657
X175.717Y-99.085
X177.267Y-99.035
X177.419Y-101.575
X194.64Y-105.639
X199.444Y-107.387
X213.16Y-102.94
X218.123Y-106.449
X232.15Y-103.65
X233.09Y-109.34
T5
X175.764Y-109.909
X175.764Y-112.449
X178.304Y-109.909
X178.304Y-112.449
X180.844Y-109.909
X180.844Y-112.449
X192.583Y-109.931
X192.583Y-112.471
X195.123Y-109.931
X195.123Y-112.471
X197.663Y-109.931
X197.663Y-112.471
T6
X144.976Y-95.909
X144.976Y-98.909
T7
X217.145Y-91.973
X217.145Y-99.593
X227.305Y-99.593
X234.925Y-99.593
T8
X137.7Y-107.5
M30
