%TF.GenerationSoftware,KiCad,Pcbnew,8.0.6*%
%TF.CreationDate,2024-11-19T22:04:59-05:00*%
%TF.ProjectId,bms_core,626d735f-636f-4726-952e-6b696361645f,rev?*%
%TF.SameCoordinates,Original*%
%TF.FileFunction,Drillmap*%
%TF.FilePolarity,Positive*%
%FSLAX45Y45*%
G04 Gerber Fmt 4.5, Leading zero omitted, Abs format (unit mm)*
G04 Created by KiCad (PCBNEW 8.0.6) date 2024-11-19 22:04:59*
%MOMM*%
%LPD*%
G01*
G04 APERTURE LIST*
%ADD10C,0.100000*%
%ADD11C,0.200000*%
%ADD12C,0.101600*%
%ADD13C,0.102000*%
%ADD14C,0.130000*%
%ADD15C,0.350000*%
G04 APERTURE END LIST*
D10*
X13764380Y-9169333D02*
X13764380Y-11379167D01*
X23880500Y-11326500D02*
X23880500Y-11528000D01*
X15019780Y-11174680D02*
X15919780Y-11174680D01*
X13915493Y-9017980D02*
X23880500Y-9017980D01*
X23880500Y-9296500D02*
X23880500Y-9017000D01*
X16019780Y-11074680D02*
G75*
G02*
X15919780Y-11174680I-100000J0D01*
G01*
X16019780Y-11074680D02*
X16019780Y-9504680D01*
X13764380Y-9169333D02*
G75*
G02*
X13915493Y-9017980I151230J123D01*
G01*
X15919780Y-9404680D02*
X15019780Y-9404680D01*
X23880500Y-11528000D02*
X13916780Y-11528000D01*
X15919780Y-9404680D02*
G75*
G02*
X16019780Y-9504680I0J-100000D01*
G01*
X14919780Y-9504680D02*
X14919780Y-11074680D01*
X14919780Y-9504680D02*
G75*
G02*
X15019780Y-9404680I100000J0D01*
G01*
X15019780Y-11174680D02*
G75*
G02*
X14919780Y-11074680I0J100000D01*
G01*
X13916780Y-11527980D02*
G75*
G02*
X13764380Y-11379167I-1790J150610D01*
G01*
X23880500Y-9296500D02*
X24670500Y-9296500D01*
X23880500Y-11326500D02*
X24670500Y-11326500D01*
X23975500Y-10016500D02*
X24670500Y-10016500D01*
X23975500Y-10206500D02*
X24670500Y-10206500D01*
X24670500Y-9296500D02*
X24720500Y-9346500D01*
X24670500Y-10016500D02*
X24720500Y-9966500D01*
X24670500Y-10206500D02*
X24720500Y-10256500D01*
X24670500Y-11326500D02*
X24720500Y-11276500D01*
X24720500Y-9966500D02*
X24720500Y-9346500D01*
X24720500Y-11276500D02*
X24720500Y-10256500D01*
X23975500Y-10206500D02*
G75*
G02*
X23975500Y-10016500I0J95000D01*
G01*
D11*
D10*
X17395000Y-9520000D02*
X17415000Y-9540000D01*
X17415000Y-9520000D02*
X17395000Y-9540000D01*
X17578926Y-9134783D02*
X17598926Y-9154783D01*
X17598926Y-9134783D02*
X17578926Y-9154783D01*
X17866520Y-10475120D02*
X17886520Y-10495120D01*
X17886520Y-10475120D02*
X17866520Y-10495120D01*
X17897000Y-9446420D02*
X17917000Y-9466420D01*
X17917000Y-9446420D02*
X17897000Y-9466420D01*
X18020000Y-10620000D02*
X18040000Y-10640000D01*
X18040000Y-10620000D02*
X18020000Y-10640000D01*
X18066386Y-9134783D02*
X18086386Y-9154783D01*
X18086386Y-9134783D02*
X18066386Y-9154783D01*
X18194180Y-9687720D02*
X18214180Y-9707720D01*
X18214180Y-9687720D02*
X18194180Y-9707720D01*
X18311020Y-10353200D02*
X18331020Y-10373200D01*
X18331020Y-10353200D02*
X18311020Y-10373200D01*
X18374520Y-9454040D02*
X18394520Y-9474040D01*
X18394520Y-9454040D02*
X18374520Y-9474040D01*
X18504060Y-10531000D02*
X18524060Y-10551000D01*
X18524060Y-10531000D02*
X18504060Y-10551000D01*
X18505199Y-11034801D02*
X18525199Y-11054801D01*
X18525199Y-11034801D02*
X18505199Y-11054801D01*
X18546333Y-9134783D02*
X18566333Y-9154783D01*
X18566333Y-9134783D02*
X18546333Y-9154783D01*
X18567560Y-10576720D02*
X18587560Y-10596720D01*
X18587560Y-10576720D02*
X18567560Y-10596720D01*
X18585000Y-10730000D02*
X18605000Y-10750000D01*
X18605000Y-10730000D02*
X18585000Y-10750000D01*
X18618360Y-10101740D02*
X18638360Y-10121740D01*
X18638360Y-10101740D02*
X18618360Y-10121740D01*
X18669160Y-10279540D02*
X18689160Y-10299540D01*
X18689160Y-10279540D02*
X18669160Y-10299540D01*
X18725040Y-9967120D02*
X18745040Y-9987120D01*
X18745040Y-9967120D02*
X18725040Y-9987120D01*
X18821560Y-9464200D02*
X18841560Y-9484200D01*
X18841560Y-9464200D02*
X18821560Y-9484200D01*
X18865564Y-11114437D02*
X18885564Y-11134437D01*
X18885564Y-11114437D02*
X18865564Y-11134437D01*
X18887600Y-9880760D02*
X18907600Y-9900760D01*
X18907600Y-9880760D02*
X18887600Y-9900760D01*
X18892680Y-9804560D02*
X18912680Y-9824560D01*
X18912680Y-9804560D02*
X18892680Y-9824560D01*
X19033793Y-9134783D02*
X19053793Y-9154783D01*
X19053793Y-9134783D02*
X19033793Y-9154783D01*
X19128900Y-9494680D02*
X19148900Y-9514680D01*
X19148900Y-9494680D02*
X19128900Y-9514680D01*
X19133980Y-10335420D02*
X19153980Y-10355420D01*
X19153980Y-10335420D02*
X19133980Y-10355420D01*
X19189860Y-10261760D02*
X19209860Y-10281760D01*
X19209860Y-10261760D02*
X19189860Y-10281760D01*
X19194940Y-9987440D02*
X19214940Y-10007440D01*
X19214940Y-9987440D02*
X19194940Y-10007440D01*
X19329078Y-9322283D02*
X19349078Y-9342283D01*
X19349078Y-9322283D02*
X19329078Y-9342283D01*
X19507360Y-9134783D02*
X19527360Y-9154783D01*
X19527360Y-9134783D02*
X19507360Y-9154783D01*
X19680080Y-10637680D02*
X19700080Y-10657680D01*
X19700080Y-10637680D02*
X19680080Y-10657680D01*
X19702940Y-9831200D02*
X19722940Y-9851200D01*
X19722940Y-9831200D02*
X19702940Y-9851200D01*
X19702940Y-9986200D02*
X19722940Y-10006200D01*
X19722940Y-9986200D02*
X19702940Y-10006200D01*
X19913760Y-10277000D02*
X19933760Y-10297000D01*
X19933760Y-10277000D02*
X19913760Y-10297000D01*
X19917320Y-9888380D02*
X19937320Y-9908380D01*
X19937320Y-9888380D02*
X19917320Y-9908380D01*
X20355110Y-9169560D02*
X20375110Y-9189560D01*
X20375110Y-9169560D02*
X20355110Y-9189560D01*
X20416680Y-9271160D02*
X20436680Y-9291160D01*
X20436680Y-9271160D02*
X20416680Y-9291160D01*
X20574160Y-11107580D02*
X20594160Y-11127580D01*
X20594160Y-11107580D02*
X20574160Y-11127580D01*
X20589400Y-9940400D02*
X20609400Y-9960400D01*
X20609400Y-9940400D02*
X20589400Y-9960400D01*
X20653281Y-10720950D02*
X20673281Y-10740950D01*
X20673281Y-10720950D02*
X20653281Y-10740950D01*
X20692720Y-9432200D02*
X20712720Y-9452200D01*
X20712720Y-9432200D02*
X20692720Y-9452200D01*
X20851401Y-10720950D02*
X20871401Y-10740950D01*
X20871401Y-10720950D02*
X20851401Y-10740950D01*
X20937761Y-10419650D02*
X20957761Y-10439650D01*
X20957761Y-10419650D02*
X20937761Y-10439650D01*
X20993260Y-11470800D02*
X21013260Y-11490800D01*
X21013260Y-11470800D02*
X20993260Y-11490800D01*
X21040000Y-11120000D02*
X21060000Y-11140000D01*
X21060000Y-11120000D02*
X21040000Y-11140000D01*
X21234201Y-10399650D02*
X21254201Y-10419650D01*
X21254201Y-10399650D02*
X21234201Y-10419650D01*
X21275200Y-10861200D02*
X21295200Y-10881200D01*
X21295200Y-10861200D02*
X21275200Y-10881200D01*
X21304201Y-10609650D02*
X21324201Y-10629650D01*
X21324201Y-10609650D02*
X21304201Y-10629650D01*
X21310760Y-9215280D02*
X21330760Y-9235280D01*
X21330760Y-9215280D02*
X21310760Y-9235280D01*
X21427820Y-10605480D02*
X21447820Y-10625480D01*
X21447820Y-10605480D02*
X21427820Y-10625480D01*
X21822620Y-10515560D02*
X21842620Y-10535560D01*
X21842620Y-10515560D02*
X21822620Y-10535560D01*
X21927500Y-10354735D02*
X21947500Y-10374735D01*
X21947500Y-10354735D02*
X21927500Y-10374735D01*
X22103240Y-10363160D02*
X22123240Y-10383160D01*
X22123240Y-10363160D02*
X22103240Y-10383160D01*
X22609820Y-10769820D02*
X22629820Y-10789820D01*
X22629820Y-10769820D02*
X22609820Y-10789820D01*
X22930000Y-10771950D02*
X22950000Y-10791950D01*
X22950000Y-10771950D02*
X22930000Y-10791950D01*
X23568210Y-10264790D02*
X23588210Y-10284790D01*
X23588210Y-10264790D02*
X23568210Y-10284790D01*
X23742490Y-10771950D02*
X23762490Y-10791950D01*
X23762490Y-10771950D02*
X23742490Y-10791950D01*
X23799350Y-10428650D02*
X23819350Y-10448650D01*
X23819350Y-10428650D02*
X23799350Y-10448650D01*
X24066660Y-10856120D02*
X24086660Y-10876120D01*
X24086660Y-10856120D02*
X24066660Y-10876120D01*
X24070000Y-11190000D02*
X24090000Y-11210000D01*
X24090000Y-11190000D02*
X24070000Y-11210000D01*
X24076820Y-10449720D02*
X24096820Y-10469720D01*
X24096820Y-10449720D02*
X24076820Y-10469720D01*
X17246360Y-10298370D02*
G75*
G02*
X17216360Y-10298370I-15000J0D01*
G01*
X17216360Y-10298370D02*
G75*
G02*
X17246360Y-10298370I15000J0D01*
G01*
X17531509Y-10330105D02*
X17531509Y-10360585D01*
X17516269Y-10345345D02*
X17546749Y-10345345D01*
X17327161Y-9972984D02*
X17327161Y-9946043D01*
X17300220Y-9946043D01*
X17300220Y-9972984D01*
X17327161Y-9972984D01*
X17508991Y-9838191D02*
X17508991Y-9811250D01*
X17482050Y-9811250D01*
X17482050Y-9838191D01*
X17508991Y-9838191D01*
X17571090Y-10279218D02*
X17571090Y-10252277D01*
X17544149Y-10252277D01*
X17544149Y-10279218D01*
X17571090Y-10279218D01*
X17585191Y-9922011D02*
X17585191Y-9895070D01*
X17558250Y-9895070D01*
X17558250Y-9922011D01*
X17585191Y-9922011D01*
X17740131Y-9916931D02*
X17740131Y-9889990D01*
X17713190Y-9889990D01*
X17713190Y-9916931D01*
X17740131Y-9916931D01*
X17755371Y-10170931D02*
X17755371Y-10143990D01*
X17728430Y-10143990D01*
X17728430Y-10170931D01*
X17755371Y-10170931D01*
X19477491Y-10577331D02*
X19477491Y-10550390D01*
X19450550Y-10550390D01*
X19450550Y-10577331D01*
X19477491Y-10577331D01*
X19957841Y-10752202D02*
X19957841Y-10725261D01*
X19930900Y-10725261D01*
X19930900Y-10752202D01*
X19957841Y-10752202D01*
X21329471Y-10307471D02*
X21329471Y-10280530D01*
X21302530Y-10280530D01*
X21302530Y-10307471D01*
X21329471Y-10307471D01*
X21825771Y-10658411D02*
X21825771Y-10631470D01*
X21798830Y-10631470D01*
X21798830Y-10658411D01*
X21825771Y-10658411D01*
X23228460Y-10378461D02*
X23228460Y-10351520D01*
X23201519Y-10351520D01*
X23201519Y-10378461D01*
X23228460Y-10378461D01*
X23322440Y-10947421D02*
X23322440Y-10920480D01*
X23295499Y-10920480D01*
X23295499Y-10947421D01*
X23322440Y-10947421D01*
D12*
X17576420Y-11041720D02*
X17627220Y-10990920D01*
X17576420Y-10940120D01*
X17525620Y-10990920D01*
X17576420Y-11041720D01*
X17576420Y-11295720D02*
X17627220Y-11244920D01*
X17576420Y-11194120D01*
X17525620Y-11244920D01*
X17576420Y-11295720D01*
X17830420Y-11041720D02*
X17881220Y-10990920D01*
X17830420Y-10940120D01*
X17779620Y-10990920D01*
X17830420Y-11041720D01*
X17830420Y-11295720D02*
X17881220Y-11244920D01*
X17830420Y-11194120D01*
X17779620Y-11244920D01*
X17830420Y-11295720D01*
X18084420Y-11041720D02*
X18135220Y-10990920D01*
X18084420Y-10940120D01*
X18033620Y-10990920D01*
X18084420Y-11041720D01*
X18084420Y-11295720D02*
X18135220Y-11244920D01*
X18084420Y-11194120D01*
X18033620Y-11244920D01*
X18084420Y-11295720D01*
X19258280Y-11043920D02*
X19309080Y-10993120D01*
X19258280Y-10942320D01*
X19207480Y-10993120D01*
X19258280Y-11043920D01*
X19258280Y-11297920D02*
X19309080Y-11247120D01*
X19258280Y-11196320D01*
X19207480Y-11247120D01*
X19258280Y-11297920D01*
X19512280Y-11043920D02*
X19563080Y-10993120D01*
X19512280Y-10942320D01*
X19461480Y-10993120D01*
X19512280Y-11043920D01*
X19512280Y-11297920D02*
X19563080Y-11247120D01*
X19512280Y-11196320D01*
X19461480Y-11247120D01*
X19512280Y-11297920D01*
X19766280Y-11043920D02*
X19817080Y-10993120D01*
X19766280Y-10942320D01*
X19715480Y-10993120D01*
X19766280Y-11043920D01*
X19766280Y-11297920D02*
X19817080Y-11247120D01*
X19766280Y-11196320D01*
X19715480Y-11247120D01*
X19766280Y-11297920D01*
D13*
X14446580Y-9539900D02*
X14548580Y-9641900D01*
X14548580Y-9539900D02*
X14446580Y-9641900D01*
X14548580Y-9590900D02*
G75*
G02*
X14446580Y-9590900I-51000J0D01*
G01*
X14446580Y-9590900D02*
G75*
G02*
X14548580Y-9590900I51000J0D01*
G01*
X14446580Y-9839900D02*
X14548580Y-9941900D01*
X14548580Y-9839900D02*
X14446580Y-9941900D01*
X14548580Y-9890900D02*
G75*
G02*
X14446580Y-9890900I-51000J0D01*
G01*
X14446580Y-9890900D02*
G75*
G02*
X14548580Y-9890900I51000J0D01*
G01*
D14*
X21649460Y-9132340D02*
X21779460Y-9262340D01*
X21779460Y-9132340D02*
X21649460Y-9262340D01*
X21714460Y-9132340D02*
X21714460Y-9262340D01*
X21649460Y-9197340D02*
X21779460Y-9197340D01*
X21649460Y-9894340D02*
X21779460Y-10024340D01*
X21779460Y-9894340D02*
X21649460Y-10024340D01*
X21714460Y-9894340D02*
X21714460Y-10024340D01*
X21649460Y-9959340D02*
X21779460Y-9959340D01*
X22665460Y-9894340D02*
X22795460Y-10024340D01*
X22795460Y-9894340D02*
X22665460Y-10024340D01*
X22730460Y-9894340D02*
X22730460Y-10024340D01*
X22665460Y-9959340D02*
X22795460Y-9959340D01*
X23427460Y-9894340D02*
X23557460Y-10024340D01*
X23557460Y-9894340D02*
X23427460Y-10024340D01*
X23492460Y-9894340D02*
X23492460Y-10024340D01*
X23427460Y-9959340D02*
X23557460Y-9959340D01*
D15*
X13595000Y-10575000D02*
X13945000Y-10925000D01*
X13945000Y-10575000D02*
X13595000Y-10925000D01*
X13893745Y-10873745D02*
X13893745Y-10626255D01*
X13646255Y-10626255D01*
X13646255Y-10873745D01*
X13893745Y-10873745D01*
D11*
X14020157Y-11844484D02*
X14020157Y-11644484D01*
X14020157Y-11644484D02*
X14067776Y-11644484D01*
X14067776Y-11644484D02*
X14096347Y-11654008D01*
X14096347Y-11654008D02*
X14115395Y-11673055D01*
X14115395Y-11673055D02*
X14124919Y-11692103D01*
X14124919Y-11692103D02*
X14134442Y-11730198D01*
X14134442Y-11730198D02*
X14134442Y-11758769D01*
X14134442Y-11758769D02*
X14124919Y-11796865D01*
X14124919Y-11796865D02*
X14115395Y-11815912D01*
X14115395Y-11815912D02*
X14096347Y-11834960D01*
X14096347Y-11834960D02*
X14067776Y-11844484D01*
X14067776Y-11844484D02*
X14020157Y-11844484D01*
X14220157Y-11844484D02*
X14220157Y-11711150D01*
X14220157Y-11749246D02*
X14229681Y-11730198D01*
X14229681Y-11730198D02*
X14239204Y-11720674D01*
X14239204Y-11720674D02*
X14258252Y-11711150D01*
X14258252Y-11711150D02*
X14277300Y-11711150D01*
X14343966Y-11844484D02*
X14343966Y-11711150D01*
X14343966Y-11644484D02*
X14334442Y-11654008D01*
X14334442Y-11654008D02*
X14343966Y-11663531D01*
X14343966Y-11663531D02*
X14353490Y-11654008D01*
X14353490Y-11654008D02*
X14343966Y-11644484D01*
X14343966Y-11644484D02*
X14343966Y-11663531D01*
X14467776Y-11844484D02*
X14448728Y-11834960D01*
X14448728Y-11834960D02*
X14439204Y-11815912D01*
X14439204Y-11815912D02*
X14439204Y-11644484D01*
X14572538Y-11844484D02*
X14553490Y-11834960D01*
X14553490Y-11834960D02*
X14543966Y-11815912D01*
X14543966Y-11815912D02*
X14543966Y-11644484D01*
X14801109Y-11844484D02*
X14801109Y-11644484D01*
X14801109Y-11644484D02*
X14867776Y-11787341D01*
X14867776Y-11787341D02*
X14934442Y-11644484D01*
X14934442Y-11644484D02*
X14934442Y-11844484D01*
X15115395Y-11844484D02*
X15115395Y-11739722D01*
X15115395Y-11739722D02*
X15105871Y-11720674D01*
X15105871Y-11720674D02*
X15086823Y-11711150D01*
X15086823Y-11711150D02*
X15048728Y-11711150D01*
X15048728Y-11711150D02*
X15029681Y-11720674D01*
X15115395Y-11834960D02*
X15096347Y-11844484D01*
X15096347Y-11844484D02*
X15048728Y-11844484D01*
X15048728Y-11844484D02*
X15029681Y-11834960D01*
X15029681Y-11834960D02*
X15020157Y-11815912D01*
X15020157Y-11815912D02*
X15020157Y-11796865D01*
X15020157Y-11796865D02*
X15029681Y-11777817D01*
X15029681Y-11777817D02*
X15048728Y-11768293D01*
X15048728Y-11768293D02*
X15096347Y-11768293D01*
X15096347Y-11768293D02*
X15115395Y-11758769D01*
X15210633Y-11711150D02*
X15210633Y-11911150D01*
X15210633Y-11720674D02*
X15229681Y-11711150D01*
X15229681Y-11711150D02*
X15267776Y-11711150D01*
X15267776Y-11711150D02*
X15286823Y-11720674D01*
X15286823Y-11720674D02*
X15296347Y-11730198D01*
X15296347Y-11730198D02*
X15305871Y-11749246D01*
X15305871Y-11749246D02*
X15305871Y-11806388D01*
X15305871Y-11806388D02*
X15296347Y-11825436D01*
X15296347Y-11825436D02*
X15286823Y-11834960D01*
X15286823Y-11834960D02*
X15267776Y-11844484D01*
X15267776Y-11844484D02*
X15229681Y-11844484D01*
X15229681Y-11844484D02*
X15210633Y-11834960D01*
X15391585Y-11825436D02*
X15401109Y-11834960D01*
X15401109Y-11834960D02*
X15391585Y-11844484D01*
X15391585Y-11844484D02*
X15382062Y-11834960D01*
X15382062Y-11834960D02*
X15391585Y-11825436D01*
X15391585Y-11825436D02*
X15391585Y-11844484D01*
X15391585Y-11720674D02*
X15401109Y-11730198D01*
X15401109Y-11730198D02*
X15391585Y-11739722D01*
X15391585Y-11739722D02*
X15382062Y-11730198D01*
X15382062Y-11730198D02*
X15391585Y-11720674D01*
X15391585Y-11720674D02*
X15391585Y-11739722D01*
D10*
X13739380Y-12163000D02*
X13759380Y-12183000D01*
X13759380Y-12163000D02*
X13739380Y-12183000D01*
D11*
X14058252Y-12064484D02*
X14077300Y-12064484D01*
X14077300Y-12064484D02*
X14096347Y-12074008D01*
X14096347Y-12074008D02*
X14105871Y-12083531D01*
X14105871Y-12083531D02*
X14115395Y-12102579D01*
X14115395Y-12102579D02*
X14124919Y-12140674D01*
X14124919Y-12140674D02*
X14124919Y-12188293D01*
X14124919Y-12188293D02*
X14115395Y-12226388D01*
X14115395Y-12226388D02*
X14105871Y-12245436D01*
X14105871Y-12245436D02*
X14096347Y-12254960D01*
X14096347Y-12254960D02*
X14077300Y-12264484D01*
X14077300Y-12264484D02*
X14058252Y-12264484D01*
X14058252Y-12264484D02*
X14039204Y-12254960D01*
X14039204Y-12254960D02*
X14029681Y-12245436D01*
X14029681Y-12245436D02*
X14020157Y-12226388D01*
X14020157Y-12226388D02*
X14010633Y-12188293D01*
X14010633Y-12188293D02*
X14010633Y-12140674D01*
X14010633Y-12140674D02*
X14020157Y-12102579D01*
X14020157Y-12102579D02*
X14029681Y-12083531D01*
X14029681Y-12083531D02*
X14039204Y-12074008D01*
X14039204Y-12074008D02*
X14058252Y-12064484D01*
X14210633Y-12245436D02*
X14220157Y-12254960D01*
X14220157Y-12254960D02*
X14210633Y-12264484D01*
X14210633Y-12264484D02*
X14201109Y-12254960D01*
X14201109Y-12254960D02*
X14210633Y-12245436D01*
X14210633Y-12245436D02*
X14210633Y-12264484D01*
X14296347Y-12083531D02*
X14305871Y-12074008D01*
X14305871Y-12074008D02*
X14324919Y-12064484D01*
X14324919Y-12064484D02*
X14372538Y-12064484D01*
X14372538Y-12064484D02*
X14391585Y-12074008D01*
X14391585Y-12074008D02*
X14401109Y-12083531D01*
X14401109Y-12083531D02*
X14410633Y-12102579D01*
X14410633Y-12102579D02*
X14410633Y-12121627D01*
X14410633Y-12121627D02*
X14401109Y-12150198D01*
X14401109Y-12150198D02*
X14286823Y-12264484D01*
X14286823Y-12264484D02*
X14410633Y-12264484D01*
X14534442Y-12064484D02*
X14553490Y-12064484D01*
X14553490Y-12064484D02*
X14572538Y-12074008D01*
X14572538Y-12074008D02*
X14582062Y-12083531D01*
X14582062Y-12083531D02*
X14591585Y-12102579D01*
X14591585Y-12102579D02*
X14601109Y-12140674D01*
X14601109Y-12140674D02*
X14601109Y-12188293D01*
X14601109Y-12188293D02*
X14591585Y-12226388D01*
X14591585Y-12226388D02*
X14582062Y-12245436D01*
X14582062Y-12245436D02*
X14572538Y-12254960D01*
X14572538Y-12254960D02*
X14553490Y-12264484D01*
X14553490Y-12264484D02*
X14534442Y-12264484D01*
X14534442Y-12264484D02*
X14515395Y-12254960D01*
X14515395Y-12254960D02*
X14505871Y-12245436D01*
X14505871Y-12245436D02*
X14496347Y-12226388D01*
X14496347Y-12226388D02*
X14486823Y-12188293D01*
X14486823Y-12188293D02*
X14486823Y-12140674D01*
X14486823Y-12140674D02*
X14496347Y-12102579D01*
X14496347Y-12102579D02*
X14505871Y-12083531D01*
X14505871Y-12083531D02*
X14515395Y-12074008D01*
X14515395Y-12074008D02*
X14534442Y-12064484D01*
X14724919Y-12064484D02*
X14743966Y-12064484D01*
X14743966Y-12064484D02*
X14763014Y-12074008D01*
X14763014Y-12074008D02*
X14772538Y-12083531D01*
X14772538Y-12083531D02*
X14782062Y-12102579D01*
X14782062Y-12102579D02*
X14791585Y-12140674D01*
X14791585Y-12140674D02*
X14791585Y-12188293D01*
X14791585Y-12188293D02*
X14782062Y-12226388D01*
X14782062Y-12226388D02*
X14772538Y-12245436D01*
X14772538Y-12245436D02*
X14763014Y-12254960D01*
X14763014Y-12254960D02*
X14743966Y-12264484D01*
X14743966Y-12264484D02*
X14724919Y-12264484D01*
X14724919Y-12264484D02*
X14705871Y-12254960D01*
X14705871Y-12254960D02*
X14696347Y-12245436D01*
X14696347Y-12245436D02*
X14686823Y-12226388D01*
X14686823Y-12226388D02*
X14677300Y-12188293D01*
X14677300Y-12188293D02*
X14677300Y-12140674D01*
X14677300Y-12140674D02*
X14686823Y-12102579D01*
X14686823Y-12102579D02*
X14696347Y-12083531D01*
X14696347Y-12083531D02*
X14705871Y-12074008D01*
X14705871Y-12074008D02*
X14724919Y-12064484D01*
X14877300Y-12264484D02*
X14877300Y-12131150D01*
X14877300Y-12150198D02*
X14886823Y-12140674D01*
X14886823Y-12140674D02*
X14905871Y-12131150D01*
X14905871Y-12131150D02*
X14934443Y-12131150D01*
X14934443Y-12131150D02*
X14953490Y-12140674D01*
X14953490Y-12140674D02*
X14963014Y-12159722D01*
X14963014Y-12159722D02*
X14963014Y-12264484D01*
X14963014Y-12159722D02*
X14972538Y-12140674D01*
X14972538Y-12140674D02*
X14991585Y-12131150D01*
X14991585Y-12131150D02*
X15020157Y-12131150D01*
X15020157Y-12131150D02*
X15039204Y-12140674D01*
X15039204Y-12140674D02*
X15048728Y-12159722D01*
X15048728Y-12159722D02*
X15048728Y-12264484D01*
X15143966Y-12264484D02*
X15143966Y-12131150D01*
X15143966Y-12150198D02*
X15153490Y-12140674D01*
X15153490Y-12140674D02*
X15172538Y-12131150D01*
X15172538Y-12131150D02*
X15201109Y-12131150D01*
X15201109Y-12131150D02*
X15220157Y-12140674D01*
X15220157Y-12140674D02*
X15229681Y-12159722D01*
X15229681Y-12159722D02*
X15229681Y-12264484D01*
X15229681Y-12159722D02*
X15239204Y-12140674D01*
X15239204Y-12140674D02*
X15258252Y-12131150D01*
X15258252Y-12131150D02*
X15286823Y-12131150D01*
X15286823Y-12131150D02*
X15305871Y-12140674D01*
X15305871Y-12140674D02*
X15315395Y-12159722D01*
X15315395Y-12159722D02*
X15315395Y-12264484D01*
X15705871Y-12054960D02*
X15534443Y-12312103D01*
X15963014Y-12064484D02*
X15982062Y-12064484D01*
X15982062Y-12064484D02*
X16001109Y-12074008D01*
X16001109Y-12074008D02*
X16010633Y-12083531D01*
X16010633Y-12083531D02*
X16020157Y-12102579D01*
X16020157Y-12102579D02*
X16029681Y-12140674D01*
X16029681Y-12140674D02*
X16029681Y-12188293D01*
X16029681Y-12188293D02*
X16020157Y-12226388D01*
X16020157Y-12226388D02*
X16010633Y-12245436D01*
X16010633Y-12245436D02*
X16001109Y-12254960D01*
X16001109Y-12254960D02*
X15982062Y-12264484D01*
X15982062Y-12264484D02*
X15963014Y-12264484D01*
X15963014Y-12264484D02*
X15943966Y-12254960D01*
X15943966Y-12254960D02*
X15934443Y-12245436D01*
X15934443Y-12245436D02*
X15924919Y-12226388D01*
X15924919Y-12226388D02*
X15915395Y-12188293D01*
X15915395Y-12188293D02*
X15915395Y-12140674D01*
X15915395Y-12140674D02*
X15924919Y-12102579D01*
X15924919Y-12102579D02*
X15934443Y-12083531D01*
X15934443Y-12083531D02*
X15943966Y-12074008D01*
X15943966Y-12074008D02*
X15963014Y-12064484D01*
X16115395Y-12245436D02*
X16124919Y-12254960D01*
X16124919Y-12254960D02*
X16115395Y-12264484D01*
X16115395Y-12264484D02*
X16105871Y-12254960D01*
X16105871Y-12254960D02*
X16115395Y-12245436D01*
X16115395Y-12245436D02*
X16115395Y-12264484D01*
X16248728Y-12064484D02*
X16267776Y-12064484D01*
X16267776Y-12064484D02*
X16286824Y-12074008D01*
X16286824Y-12074008D02*
X16296347Y-12083531D01*
X16296347Y-12083531D02*
X16305871Y-12102579D01*
X16305871Y-12102579D02*
X16315395Y-12140674D01*
X16315395Y-12140674D02*
X16315395Y-12188293D01*
X16315395Y-12188293D02*
X16305871Y-12226388D01*
X16305871Y-12226388D02*
X16296347Y-12245436D01*
X16296347Y-12245436D02*
X16286824Y-12254960D01*
X16286824Y-12254960D02*
X16267776Y-12264484D01*
X16267776Y-12264484D02*
X16248728Y-12264484D01*
X16248728Y-12264484D02*
X16229681Y-12254960D01*
X16229681Y-12254960D02*
X16220157Y-12245436D01*
X16220157Y-12245436D02*
X16210633Y-12226388D01*
X16210633Y-12226388D02*
X16201109Y-12188293D01*
X16201109Y-12188293D02*
X16201109Y-12140674D01*
X16201109Y-12140674D02*
X16210633Y-12102579D01*
X16210633Y-12102579D02*
X16220157Y-12083531D01*
X16220157Y-12083531D02*
X16229681Y-12074008D01*
X16229681Y-12074008D02*
X16248728Y-12064484D01*
X16439205Y-12064484D02*
X16458252Y-12064484D01*
X16458252Y-12064484D02*
X16477300Y-12074008D01*
X16477300Y-12074008D02*
X16486824Y-12083531D01*
X16486824Y-12083531D02*
X16496347Y-12102579D01*
X16496347Y-12102579D02*
X16505871Y-12140674D01*
X16505871Y-12140674D02*
X16505871Y-12188293D01*
X16505871Y-12188293D02*
X16496347Y-12226388D01*
X16496347Y-12226388D02*
X16486824Y-12245436D01*
X16486824Y-12245436D02*
X16477300Y-12254960D01*
X16477300Y-12254960D02*
X16458252Y-12264484D01*
X16458252Y-12264484D02*
X16439205Y-12264484D01*
X16439205Y-12264484D02*
X16420157Y-12254960D01*
X16420157Y-12254960D02*
X16410633Y-12245436D01*
X16410633Y-12245436D02*
X16401109Y-12226388D01*
X16401109Y-12226388D02*
X16391586Y-12188293D01*
X16391586Y-12188293D02*
X16391586Y-12140674D01*
X16391586Y-12140674D02*
X16401109Y-12102579D01*
X16401109Y-12102579D02*
X16410633Y-12083531D01*
X16410633Y-12083531D02*
X16420157Y-12074008D01*
X16420157Y-12074008D02*
X16439205Y-12064484D01*
X16572538Y-12064484D02*
X16705871Y-12064484D01*
X16705871Y-12064484D02*
X16620157Y-12264484D01*
X16791586Y-12264484D02*
X16829681Y-12264484D01*
X16829681Y-12264484D02*
X16848729Y-12254960D01*
X16848729Y-12254960D02*
X16858252Y-12245436D01*
X16858252Y-12245436D02*
X16877300Y-12216865D01*
X16877300Y-12216865D02*
X16886824Y-12178769D01*
X16886824Y-12178769D02*
X16886824Y-12102579D01*
X16886824Y-12102579D02*
X16877300Y-12083531D01*
X16877300Y-12083531D02*
X16867776Y-12074008D01*
X16867776Y-12074008D02*
X16848729Y-12064484D01*
X16848729Y-12064484D02*
X16810633Y-12064484D01*
X16810633Y-12064484D02*
X16791586Y-12074008D01*
X16791586Y-12074008D02*
X16782062Y-12083531D01*
X16782062Y-12083531D02*
X16772538Y-12102579D01*
X16772538Y-12102579D02*
X16772538Y-12150198D01*
X16772538Y-12150198D02*
X16782062Y-12169246D01*
X16782062Y-12169246D02*
X16791586Y-12178769D01*
X16791586Y-12178769D02*
X16810633Y-12188293D01*
X16810633Y-12188293D02*
X16848729Y-12188293D01*
X16848729Y-12188293D02*
X16867776Y-12178769D01*
X16867776Y-12178769D02*
X16877300Y-12169246D01*
X16877300Y-12169246D02*
X16886824Y-12150198D01*
X16963014Y-12064484D02*
X16963014Y-12102579D01*
X17039205Y-12064484D02*
X17039205Y-12102579D01*
X17334443Y-12340674D02*
X17324919Y-12331150D01*
X17324919Y-12331150D02*
X17305871Y-12302579D01*
X17305871Y-12302579D02*
X17296348Y-12283531D01*
X17296348Y-12283531D02*
X17286824Y-12254960D01*
X17286824Y-12254960D02*
X17277300Y-12207341D01*
X17277300Y-12207341D02*
X17277300Y-12169246D01*
X17277300Y-12169246D02*
X17286824Y-12121627D01*
X17286824Y-12121627D02*
X17296348Y-12093055D01*
X17296348Y-12093055D02*
X17305871Y-12074008D01*
X17305871Y-12074008D02*
X17324919Y-12045436D01*
X17324919Y-12045436D02*
X17334443Y-12035912D01*
X17505871Y-12064484D02*
X17410633Y-12064484D01*
X17410633Y-12064484D02*
X17401110Y-12159722D01*
X17401110Y-12159722D02*
X17410633Y-12150198D01*
X17410633Y-12150198D02*
X17429681Y-12140674D01*
X17429681Y-12140674D02*
X17477300Y-12140674D01*
X17477300Y-12140674D02*
X17496348Y-12150198D01*
X17496348Y-12150198D02*
X17505871Y-12159722D01*
X17505871Y-12159722D02*
X17515395Y-12178769D01*
X17515395Y-12178769D02*
X17515395Y-12226388D01*
X17515395Y-12226388D02*
X17505871Y-12245436D01*
X17505871Y-12245436D02*
X17496348Y-12254960D01*
X17496348Y-12254960D02*
X17477300Y-12264484D01*
X17477300Y-12264484D02*
X17429681Y-12264484D01*
X17429681Y-12264484D02*
X17410633Y-12254960D01*
X17410633Y-12254960D02*
X17401110Y-12245436D01*
X17610633Y-12264484D02*
X17648729Y-12264484D01*
X17648729Y-12264484D02*
X17667776Y-12254960D01*
X17667776Y-12254960D02*
X17677300Y-12245436D01*
X17677300Y-12245436D02*
X17696348Y-12216865D01*
X17696348Y-12216865D02*
X17705871Y-12178769D01*
X17705871Y-12178769D02*
X17705871Y-12102579D01*
X17705871Y-12102579D02*
X17696348Y-12083531D01*
X17696348Y-12083531D02*
X17686824Y-12074008D01*
X17686824Y-12074008D02*
X17667776Y-12064484D01*
X17667776Y-12064484D02*
X17629681Y-12064484D01*
X17629681Y-12064484D02*
X17610633Y-12074008D01*
X17610633Y-12074008D02*
X17601110Y-12083531D01*
X17601110Y-12083531D02*
X17591586Y-12102579D01*
X17591586Y-12102579D02*
X17591586Y-12150198D01*
X17591586Y-12150198D02*
X17601110Y-12169246D01*
X17601110Y-12169246D02*
X17610633Y-12178769D01*
X17610633Y-12178769D02*
X17629681Y-12188293D01*
X17629681Y-12188293D02*
X17667776Y-12188293D01*
X17667776Y-12188293D02*
X17686824Y-12178769D01*
X17686824Y-12178769D02*
X17696348Y-12169246D01*
X17696348Y-12169246D02*
X17705871Y-12150198D01*
X17943967Y-12264484D02*
X17943967Y-12064484D01*
X18029681Y-12264484D02*
X18029681Y-12159722D01*
X18029681Y-12159722D02*
X18020157Y-12140674D01*
X18020157Y-12140674D02*
X18001110Y-12131150D01*
X18001110Y-12131150D02*
X17972538Y-12131150D01*
X17972538Y-12131150D02*
X17953491Y-12140674D01*
X17953491Y-12140674D02*
X17943967Y-12150198D01*
X18153491Y-12264484D02*
X18134443Y-12254960D01*
X18134443Y-12254960D02*
X18124919Y-12245436D01*
X18124919Y-12245436D02*
X18115395Y-12226388D01*
X18115395Y-12226388D02*
X18115395Y-12169246D01*
X18115395Y-12169246D02*
X18124919Y-12150198D01*
X18124919Y-12150198D02*
X18134443Y-12140674D01*
X18134443Y-12140674D02*
X18153491Y-12131150D01*
X18153491Y-12131150D02*
X18182062Y-12131150D01*
X18182062Y-12131150D02*
X18201110Y-12140674D01*
X18201110Y-12140674D02*
X18210633Y-12150198D01*
X18210633Y-12150198D02*
X18220157Y-12169246D01*
X18220157Y-12169246D02*
X18220157Y-12226388D01*
X18220157Y-12226388D02*
X18210633Y-12245436D01*
X18210633Y-12245436D02*
X18201110Y-12254960D01*
X18201110Y-12254960D02*
X18182062Y-12264484D01*
X18182062Y-12264484D02*
X18153491Y-12264484D01*
X18334443Y-12264484D02*
X18315395Y-12254960D01*
X18315395Y-12254960D02*
X18305872Y-12235912D01*
X18305872Y-12235912D02*
X18305872Y-12064484D01*
X18486824Y-12254960D02*
X18467776Y-12264484D01*
X18467776Y-12264484D02*
X18429681Y-12264484D01*
X18429681Y-12264484D02*
X18410633Y-12254960D01*
X18410633Y-12254960D02*
X18401110Y-12235912D01*
X18401110Y-12235912D02*
X18401110Y-12159722D01*
X18401110Y-12159722D02*
X18410633Y-12140674D01*
X18410633Y-12140674D02*
X18429681Y-12131150D01*
X18429681Y-12131150D02*
X18467776Y-12131150D01*
X18467776Y-12131150D02*
X18486824Y-12140674D01*
X18486824Y-12140674D02*
X18496348Y-12159722D01*
X18496348Y-12159722D02*
X18496348Y-12178769D01*
X18496348Y-12178769D02*
X18401110Y-12197817D01*
X18572538Y-12254960D02*
X18591586Y-12264484D01*
X18591586Y-12264484D02*
X18629681Y-12264484D01*
X18629681Y-12264484D02*
X18648729Y-12254960D01*
X18648729Y-12254960D02*
X18658253Y-12235912D01*
X18658253Y-12235912D02*
X18658253Y-12226388D01*
X18658253Y-12226388D02*
X18648729Y-12207341D01*
X18648729Y-12207341D02*
X18629681Y-12197817D01*
X18629681Y-12197817D02*
X18601110Y-12197817D01*
X18601110Y-12197817D02*
X18582062Y-12188293D01*
X18582062Y-12188293D02*
X18572538Y-12169246D01*
X18572538Y-12169246D02*
X18572538Y-12159722D01*
X18572538Y-12159722D02*
X18582062Y-12140674D01*
X18582062Y-12140674D02*
X18601110Y-12131150D01*
X18601110Y-12131150D02*
X18629681Y-12131150D01*
X18629681Y-12131150D02*
X18648729Y-12140674D01*
X18724919Y-12340674D02*
X18734443Y-12331150D01*
X18734443Y-12331150D02*
X18753491Y-12302579D01*
X18753491Y-12302579D02*
X18763014Y-12283531D01*
X18763014Y-12283531D02*
X18772538Y-12254960D01*
X18772538Y-12254960D02*
X18782062Y-12207341D01*
X18782062Y-12207341D02*
X18782062Y-12169246D01*
X18782062Y-12169246D02*
X18772538Y-12121627D01*
X18772538Y-12121627D02*
X18763014Y-12093055D01*
X18763014Y-12093055D02*
X18753491Y-12074008D01*
X18753491Y-12074008D02*
X18734443Y-12045436D01*
X18734443Y-12045436D02*
X18724919Y-12035912D01*
D10*
X13759380Y-12437000D02*
G75*
G02*
X13729380Y-12437000I-15000J0D01*
G01*
X13729380Y-12437000D02*
G75*
G02*
X13759380Y-12437000I15000J0D01*
G01*
D11*
X14058252Y-12328484D02*
X14077300Y-12328484D01*
X14077300Y-12328484D02*
X14096347Y-12338008D01*
X14096347Y-12338008D02*
X14105871Y-12347531D01*
X14105871Y-12347531D02*
X14115395Y-12366579D01*
X14115395Y-12366579D02*
X14124919Y-12404674D01*
X14124919Y-12404674D02*
X14124919Y-12452293D01*
X14124919Y-12452293D02*
X14115395Y-12490388D01*
X14115395Y-12490388D02*
X14105871Y-12509436D01*
X14105871Y-12509436D02*
X14096347Y-12518960D01*
X14096347Y-12518960D02*
X14077300Y-12528484D01*
X14077300Y-12528484D02*
X14058252Y-12528484D01*
X14058252Y-12528484D02*
X14039204Y-12518960D01*
X14039204Y-12518960D02*
X14029681Y-12509436D01*
X14029681Y-12509436D02*
X14020157Y-12490388D01*
X14020157Y-12490388D02*
X14010633Y-12452293D01*
X14010633Y-12452293D02*
X14010633Y-12404674D01*
X14010633Y-12404674D02*
X14020157Y-12366579D01*
X14020157Y-12366579D02*
X14029681Y-12347531D01*
X14029681Y-12347531D02*
X14039204Y-12338008D01*
X14039204Y-12338008D02*
X14058252Y-12328484D01*
X14210633Y-12509436D02*
X14220157Y-12518960D01*
X14220157Y-12518960D02*
X14210633Y-12528484D01*
X14210633Y-12528484D02*
X14201109Y-12518960D01*
X14201109Y-12518960D02*
X14210633Y-12509436D01*
X14210633Y-12509436D02*
X14210633Y-12528484D01*
X14286823Y-12328484D02*
X14410633Y-12328484D01*
X14410633Y-12328484D02*
X14343966Y-12404674D01*
X14343966Y-12404674D02*
X14372538Y-12404674D01*
X14372538Y-12404674D02*
X14391585Y-12414198D01*
X14391585Y-12414198D02*
X14401109Y-12423722D01*
X14401109Y-12423722D02*
X14410633Y-12442769D01*
X14410633Y-12442769D02*
X14410633Y-12490388D01*
X14410633Y-12490388D02*
X14401109Y-12509436D01*
X14401109Y-12509436D02*
X14391585Y-12518960D01*
X14391585Y-12518960D02*
X14372538Y-12528484D01*
X14372538Y-12528484D02*
X14315395Y-12528484D01*
X14315395Y-12528484D02*
X14296347Y-12518960D01*
X14296347Y-12518960D02*
X14286823Y-12509436D01*
X14534442Y-12328484D02*
X14553490Y-12328484D01*
X14553490Y-12328484D02*
X14572538Y-12338008D01*
X14572538Y-12338008D02*
X14582062Y-12347531D01*
X14582062Y-12347531D02*
X14591585Y-12366579D01*
X14591585Y-12366579D02*
X14601109Y-12404674D01*
X14601109Y-12404674D02*
X14601109Y-12452293D01*
X14601109Y-12452293D02*
X14591585Y-12490388D01*
X14591585Y-12490388D02*
X14582062Y-12509436D01*
X14582062Y-12509436D02*
X14572538Y-12518960D01*
X14572538Y-12518960D02*
X14553490Y-12528484D01*
X14553490Y-12528484D02*
X14534442Y-12528484D01*
X14534442Y-12528484D02*
X14515395Y-12518960D01*
X14515395Y-12518960D02*
X14505871Y-12509436D01*
X14505871Y-12509436D02*
X14496347Y-12490388D01*
X14496347Y-12490388D02*
X14486823Y-12452293D01*
X14486823Y-12452293D02*
X14486823Y-12404674D01*
X14486823Y-12404674D02*
X14496347Y-12366579D01*
X14496347Y-12366579D02*
X14505871Y-12347531D01*
X14505871Y-12347531D02*
X14515395Y-12338008D01*
X14515395Y-12338008D02*
X14534442Y-12328484D01*
X14724919Y-12328484D02*
X14743966Y-12328484D01*
X14743966Y-12328484D02*
X14763014Y-12338008D01*
X14763014Y-12338008D02*
X14772538Y-12347531D01*
X14772538Y-12347531D02*
X14782062Y-12366579D01*
X14782062Y-12366579D02*
X14791585Y-12404674D01*
X14791585Y-12404674D02*
X14791585Y-12452293D01*
X14791585Y-12452293D02*
X14782062Y-12490388D01*
X14782062Y-12490388D02*
X14772538Y-12509436D01*
X14772538Y-12509436D02*
X14763014Y-12518960D01*
X14763014Y-12518960D02*
X14743966Y-12528484D01*
X14743966Y-12528484D02*
X14724919Y-12528484D01*
X14724919Y-12528484D02*
X14705871Y-12518960D01*
X14705871Y-12518960D02*
X14696347Y-12509436D01*
X14696347Y-12509436D02*
X14686823Y-12490388D01*
X14686823Y-12490388D02*
X14677300Y-12452293D01*
X14677300Y-12452293D02*
X14677300Y-12404674D01*
X14677300Y-12404674D02*
X14686823Y-12366579D01*
X14686823Y-12366579D02*
X14696347Y-12347531D01*
X14696347Y-12347531D02*
X14705871Y-12338008D01*
X14705871Y-12338008D02*
X14724919Y-12328484D01*
X14877300Y-12528484D02*
X14877300Y-12395150D01*
X14877300Y-12414198D02*
X14886823Y-12404674D01*
X14886823Y-12404674D02*
X14905871Y-12395150D01*
X14905871Y-12395150D02*
X14934443Y-12395150D01*
X14934443Y-12395150D02*
X14953490Y-12404674D01*
X14953490Y-12404674D02*
X14963014Y-12423722D01*
X14963014Y-12423722D02*
X14963014Y-12528484D01*
X14963014Y-12423722D02*
X14972538Y-12404674D01*
X14972538Y-12404674D02*
X14991585Y-12395150D01*
X14991585Y-12395150D02*
X15020157Y-12395150D01*
X15020157Y-12395150D02*
X15039204Y-12404674D01*
X15039204Y-12404674D02*
X15048728Y-12423722D01*
X15048728Y-12423722D02*
X15048728Y-12528484D01*
X15143966Y-12528484D02*
X15143966Y-12395150D01*
X15143966Y-12414198D02*
X15153490Y-12404674D01*
X15153490Y-12404674D02*
X15172538Y-12395150D01*
X15172538Y-12395150D02*
X15201109Y-12395150D01*
X15201109Y-12395150D02*
X15220157Y-12404674D01*
X15220157Y-12404674D02*
X15229681Y-12423722D01*
X15229681Y-12423722D02*
X15229681Y-12528484D01*
X15229681Y-12423722D02*
X15239204Y-12404674D01*
X15239204Y-12404674D02*
X15258252Y-12395150D01*
X15258252Y-12395150D02*
X15286823Y-12395150D01*
X15286823Y-12395150D02*
X15305871Y-12404674D01*
X15305871Y-12404674D02*
X15315395Y-12423722D01*
X15315395Y-12423722D02*
X15315395Y-12528484D01*
X15705871Y-12318960D02*
X15534443Y-12576103D01*
X15963014Y-12328484D02*
X15982062Y-12328484D01*
X15982062Y-12328484D02*
X16001109Y-12338008D01*
X16001109Y-12338008D02*
X16010633Y-12347531D01*
X16010633Y-12347531D02*
X16020157Y-12366579D01*
X16020157Y-12366579D02*
X16029681Y-12404674D01*
X16029681Y-12404674D02*
X16029681Y-12452293D01*
X16029681Y-12452293D02*
X16020157Y-12490388D01*
X16020157Y-12490388D02*
X16010633Y-12509436D01*
X16010633Y-12509436D02*
X16001109Y-12518960D01*
X16001109Y-12518960D02*
X15982062Y-12528484D01*
X15982062Y-12528484D02*
X15963014Y-12528484D01*
X15963014Y-12528484D02*
X15943966Y-12518960D01*
X15943966Y-12518960D02*
X15934443Y-12509436D01*
X15934443Y-12509436D02*
X15924919Y-12490388D01*
X15924919Y-12490388D02*
X15915395Y-12452293D01*
X15915395Y-12452293D02*
X15915395Y-12404674D01*
X15915395Y-12404674D02*
X15924919Y-12366579D01*
X15924919Y-12366579D02*
X15934443Y-12347531D01*
X15934443Y-12347531D02*
X15943966Y-12338008D01*
X15943966Y-12338008D02*
X15963014Y-12328484D01*
X16115395Y-12509436D02*
X16124919Y-12518960D01*
X16124919Y-12518960D02*
X16115395Y-12528484D01*
X16115395Y-12528484D02*
X16105871Y-12518960D01*
X16105871Y-12518960D02*
X16115395Y-12509436D01*
X16115395Y-12509436D02*
X16115395Y-12528484D01*
X16248728Y-12328484D02*
X16267776Y-12328484D01*
X16267776Y-12328484D02*
X16286824Y-12338008D01*
X16286824Y-12338008D02*
X16296347Y-12347531D01*
X16296347Y-12347531D02*
X16305871Y-12366579D01*
X16305871Y-12366579D02*
X16315395Y-12404674D01*
X16315395Y-12404674D02*
X16315395Y-12452293D01*
X16315395Y-12452293D02*
X16305871Y-12490388D01*
X16305871Y-12490388D02*
X16296347Y-12509436D01*
X16296347Y-12509436D02*
X16286824Y-12518960D01*
X16286824Y-12518960D02*
X16267776Y-12528484D01*
X16267776Y-12528484D02*
X16248728Y-12528484D01*
X16248728Y-12528484D02*
X16229681Y-12518960D01*
X16229681Y-12518960D02*
X16220157Y-12509436D01*
X16220157Y-12509436D02*
X16210633Y-12490388D01*
X16210633Y-12490388D02*
X16201109Y-12452293D01*
X16201109Y-12452293D02*
X16201109Y-12404674D01*
X16201109Y-12404674D02*
X16210633Y-12366579D01*
X16210633Y-12366579D02*
X16220157Y-12347531D01*
X16220157Y-12347531D02*
X16229681Y-12338008D01*
X16229681Y-12338008D02*
X16248728Y-12328484D01*
X16505871Y-12528484D02*
X16391586Y-12528484D01*
X16448728Y-12528484D02*
X16448728Y-12328484D01*
X16448728Y-12328484D02*
X16429681Y-12357055D01*
X16429681Y-12357055D02*
X16410633Y-12376103D01*
X16410633Y-12376103D02*
X16391586Y-12385627D01*
X16696347Y-12528484D02*
X16582062Y-12528484D01*
X16639205Y-12528484D02*
X16639205Y-12328484D01*
X16639205Y-12328484D02*
X16620157Y-12357055D01*
X16620157Y-12357055D02*
X16601109Y-12376103D01*
X16601109Y-12376103D02*
X16582062Y-12385627D01*
X16810633Y-12414198D02*
X16791586Y-12404674D01*
X16791586Y-12404674D02*
X16782062Y-12395150D01*
X16782062Y-12395150D02*
X16772538Y-12376103D01*
X16772538Y-12376103D02*
X16772538Y-12366579D01*
X16772538Y-12366579D02*
X16782062Y-12347531D01*
X16782062Y-12347531D02*
X16791586Y-12338008D01*
X16791586Y-12338008D02*
X16810633Y-12328484D01*
X16810633Y-12328484D02*
X16848729Y-12328484D01*
X16848729Y-12328484D02*
X16867776Y-12338008D01*
X16867776Y-12338008D02*
X16877300Y-12347531D01*
X16877300Y-12347531D02*
X16886824Y-12366579D01*
X16886824Y-12366579D02*
X16886824Y-12376103D01*
X16886824Y-12376103D02*
X16877300Y-12395150D01*
X16877300Y-12395150D02*
X16867776Y-12404674D01*
X16867776Y-12404674D02*
X16848729Y-12414198D01*
X16848729Y-12414198D02*
X16810633Y-12414198D01*
X16810633Y-12414198D02*
X16791586Y-12423722D01*
X16791586Y-12423722D02*
X16782062Y-12433246D01*
X16782062Y-12433246D02*
X16772538Y-12452293D01*
X16772538Y-12452293D02*
X16772538Y-12490388D01*
X16772538Y-12490388D02*
X16782062Y-12509436D01*
X16782062Y-12509436D02*
X16791586Y-12518960D01*
X16791586Y-12518960D02*
X16810633Y-12528484D01*
X16810633Y-12528484D02*
X16848729Y-12528484D01*
X16848729Y-12528484D02*
X16867776Y-12518960D01*
X16867776Y-12518960D02*
X16877300Y-12509436D01*
X16877300Y-12509436D02*
X16886824Y-12490388D01*
X16886824Y-12490388D02*
X16886824Y-12452293D01*
X16886824Y-12452293D02*
X16877300Y-12433246D01*
X16877300Y-12433246D02*
X16867776Y-12423722D01*
X16867776Y-12423722D02*
X16848729Y-12414198D01*
X16963014Y-12328484D02*
X16963014Y-12366579D01*
X17039205Y-12328484D02*
X17039205Y-12366579D01*
X17334443Y-12604674D02*
X17324919Y-12595150D01*
X17324919Y-12595150D02*
X17305871Y-12566579D01*
X17305871Y-12566579D02*
X17296348Y-12547531D01*
X17296348Y-12547531D02*
X17286824Y-12518960D01*
X17286824Y-12518960D02*
X17277300Y-12471341D01*
X17277300Y-12471341D02*
X17277300Y-12433246D01*
X17277300Y-12433246D02*
X17286824Y-12385627D01*
X17286824Y-12385627D02*
X17296348Y-12357055D01*
X17296348Y-12357055D02*
X17305871Y-12338008D01*
X17305871Y-12338008D02*
X17324919Y-12309436D01*
X17324919Y-12309436D02*
X17334443Y-12299912D01*
X17515395Y-12528484D02*
X17401110Y-12528484D01*
X17458252Y-12528484D02*
X17458252Y-12328484D01*
X17458252Y-12328484D02*
X17439205Y-12357055D01*
X17439205Y-12357055D02*
X17420157Y-12376103D01*
X17420157Y-12376103D02*
X17401110Y-12385627D01*
X17753491Y-12528484D02*
X17753491Y-12328484D01*
X17839205Y-12528484D02*
X17839205Y-12423722D01*
X17839205Y-12423722D02*
X17829681Y-12404674D01*
X17829681Y-12404674D02*
X17810633Y-12395150D01*
X17810633Y-12395150D02*
X17782062Y-12395150D01*
X17782062Y-12395150D02*
X17763014Y-12404674D01*
X17763014Y-12404674D02*
X17753491Y-12414198D01*
X17963014Y-12528484D02*
X17943967Y-12518960D01*
X17943967Y-12518960D02*
X17934443Y-12509436D01*
X17934443Y-12509436D02*
X17924919Y-12490388D01*
X17924919Y-12490388D02*
X17924919Y-12433246D01*
X17924919Y-12433246D02*
X17934443Y-12414198D01*
X17934443Y-12414198D02*
X17943967Y-12404674D01*
X17943967Y-12404674D02*
X17963014Y-12395150D01*
X17963014Y-12395150D02*
X17991586Y-12395150D01*
X17991586Y-12395150D02*
X18010633Y-12404674D01*
X18010633Y-12404674D02*
X18020157Y-12414198D01*
X18020157Y-12414198D02*
X18029681Y-12433246D01*
X18029681Y-12433246D02*
X18029681Y-12490388D01*
X18029681Y-12490388D02*
X18020157Y-12509436D01*
X18020157Y-12509436D02*
X18010633Y-12518960D01*
X18010633Y-12518960D02*
X17991586Y-12528484D01*
X17991586Y-12528484D02*
X17963014Y-12528484D01*
X18143967Y-12528484D02*
X18124919Y-12518960D01*
X18124919Y-12518960D02*
X18115395Y-12499912D01*
X18115395Y-12499912D02*
X18115395Y-12328484D01*
X18296348Y-12518960D02*
X18277300Y-12528484D01*
X18277300Y-12528484D02*
X18239205Y-12528484D01*
X18239205Y-12528484D02*
X18220157Y-12518960D01*
X18220157Y-12518960D02*
X18210633Y-12499912D01*
X18210633Y-12499912D02*
X18210633Y-12423722D01*
X18210633Y-12423722D02*
X18220157Y-12404674D01*
X18220157Y-12404674D02*
X18239205Y-12395150D01*
X18239205Y-12395150D02*
X18277300Y-12395150D01*
X18277300Y-12395150D02*
X18296348Y-12404674D01*
X18296348Y-12404674D02*
X18305872Y-12423722D01*
X18305872Y-12423722D02*
X18305872Y-12442769D01*
X18305872Y-12442769D02*
X18210633Y-12461817D01*
X18372538Y-12604674D02*
X18382062Y-12595150D01*
X18382062Y-12595150D02*
X18401110Y-12566579D01*
X18401110Y-12566579D02*
X18410633Y-12547531D01*
X18410633Y-12547531D02*
X18420157Y-12518960D01*
X18420157Y-12518960D02*
X18429681Y-12471341D01*
X18429681Y-12471341D02*
X18429681Y-12433246D01*
X18429681Y-12433246D02*
X18420157Y-12385627D01*
X18420157Y-12385627D02*
X18410633Y-12357055D01*
X18410633Y-12357055D02*
X18401110Y-12338008D01*
X18401110Y-12338008D02*
X18382062Y-12309436D01*
X18382062Y-12309436D02*
X18372538Y-12299912D01*
D10*
X13744140Y-12685760D02*
X13744140Y-12716240D01*
X13728900Y-12701000D02*
X13759380Y-12701000D01*
D11*
X14058252Y-12592484D02*
X14077300Y-12592484D01*
X14077300Y-12592484D02*
X14096347Y-12602008D01*
X14096347Y-12602008D02*
X14105871Y-12611531D01*
X14105871Y-12611531D02*
X14115395Y-12630579D01*
X14115395Y-12630579D02*
X14124919Y-12668674D01*
X14124919Y-12668674D02*
X14124919Y-12716293D01*
X14124919Y-12716293D02*
X14115395Y-12754388D01*
X14115395Y-12754388D02*
X14105871Y-12773436D01*
X14105871Y-12773436D02*
X14096347Y-12782960D01*
X14096347Y-12782960D02*
X14077300Y-12792484D01*
X14077300Y-12792484D02*
X14058252Y-12792484D01*
X14058252Y-12792484D02*
X14039204Y-12782960D01*
X14039204Y-12782960D02*
X14029681Y-12773436D01*
X14029681Y-12773436D02*
X14020157Y-12754388D01*
X14020157Y-12754388D02*
X14010633Y-12716293D01*
X14010633Y-12716293D02*
X14010633Y-12668674D01*
X14010633Y-12668674D02*
X14020157Y-12630579D01*
X14020157Y-12630579D02*
X14029681Y-12611531D01*
X14029681Y-12611531D02*
X14039204Y-12602008D01*
X14039204Y-12602008D02*
X14058252Y-12592484D01*
X14210633Y-12773436D02*
X14220157Y-12782960D01*
X14220157Y-12782960D02*
X14210633Y-12792484D01*
X14210633Y-12792484D02*
X14201109Y-12782960D01*
X14201109Y-12782960D02*
X14210633Y-12773436D01*
X14210633Y-12773436D02*
X14210633Y-12792484D01*
X14286823Y-12592484D02*
X14410633Y-12592484D01*
X14410633Y-12592484D02*
X14343966Y-12668674D01*
X14343966Y-12668674D02*
X14372538Y-12668674D01*
X14372538Y-12668674D02*
X14391585Y-12678198D01*
X14391585Y-12678198D02*
X14401109Y-12687722D01*
X14401109Y-12687722D02*
X14410633Y-12706769D01*
X14410633Y-12706769D02*
X14410633Y-12754388D01*
X14410633Y-12754388D02*
X14401109Y-12773436D01*
X14401109Y-12773436D02*
X14391585Y-12782960D01*
X14391585Y-12782960D02*
X14372538Y-12792484D01*
X14372538Y-12792484D02*
X14315395Y-12792484D01*
X14315395Y-12792484D02*
X14296347Y-12782960D01*
X14296347Y-12782960D02*
X14286823Y-12773436D01*
X14534442Y-12592484D02*
X14553490Y-12592484D01*
X14553490Y-12592484D02*
X14572538Y-12602008D01*
X14572538Y-12602008D02*
X14582062Y-12611531D01*
X14582062Y-12611531D02*
X14591585Y-12630579D01*
X14591585Y-12630579D02*
X14601109Y-12668674D01*
X14601109Y-12668674D02*
X14601109Y-12716293D01*
X14601109Y-12716293D02*
X14591585Y-12754388D01*
X14591585Y-12754388D02*
X14582062Y-12773436D01*
X14582062Y-12773436D02*
X14572538Y-12782960D01*
X14572538Y-12782960D02*
X14553490Y-12792484D01*
X14553490Y-12792484D02*
X14534442Y-12792484D01*
X14534442Y-12792484D02*
X14515395Y-12782960D01*
X14515395Y-12782960D02*
X14505871Y-12773436D01*
X14505871Y-12773436D02*
X14496347Y-12754388D01*
X14496347Y-12754388D02*
X14486823Y-12716293D01*
X14486823Y-12716293D02*
X14486823Y-12668674D01*
X14486823Y-12668674D02*
X14496347Y-12630579D01*
X14496347Y-12630579D02*
X14505871Y-12611531D01*
X14505871Y-12611531D02*
X14515395Y-12602008D01*
X14515395Y-12602008D02*
X14534442Y-12592484D01*
X14782062Y-12592484D02*
X14686823Y-12592484D01*
X14686823Y-12592484D02*
X14677300Y-12687722D01*
X14677300Y-12687722D02*
X14686823Y-12678198D01*
X14686823Y-12678198D02*
X14705871Y-12668674D01*
X14705871Y-12668674D02*
X14753490Y-12668674D01*
X14753490Y-12668674D02*
X14772538Y-12678198D01*
X14772538Y-12678198D02*
X14782062Y-12687722D01*
X14782062Y-12687722D02*
X14791585Y-12706769D01*
X14791585Y-12706769D02*
X14791585Y-12754388D01*
X14791585Y-12754388D02*
X14782062Y-12773436D01*
X14782062Y-12773436D02*
X14772538Y-12782960D01*
X14772538Y-12782960D02*
X14753490Y-12792484D01*
X14753490Y-12792484D02*
X14705871Y-12792484D01*
X14705871Y-12792484D02*
X14686823Y-12782960D01*
X14686823Y-12782960D02*
X14677300Y-12773436D01*
X14877300Y-12792484D02*
X14877300Y-12659150D01*
X14877300Y-12678198D02*
X14886823Y-12668674D01*
X14886823Y-12668674D02*
X14905871Y-12659150D01*
X14905871Y-12659150D02*
X14934443Y-12659150D01*
X14934443Y-12659150D02*
X14953490Y-12668674D01*
X14953490Y-12668674D02*
X14963014Y-12687722D01*
X14963014Y-12687722D02*
X14963014Y-12792484D01*
X14963014Y-12687722D02*
X14972538Y-12668674D01*
X14972538Y-12668674D02*
X14991585Y-12659150D01*
X14991585Y-12659150D02*
X15020157Y-12659150D01*
X15020157Y-12659150D02*
X15039204Y-12668674D01*
X15039204Y-12668674D02*
X15048728Y-12687722D01*
X15048728Y-12687722D02*
X15048728Y-12792484D01*
X15143966Y-12792484D02*
X15143966Y-12659150D01*
X15143966Y-12678198D02*
X15153490Y-12668674D01*
X15153490Y-12668674D02*
X15172538Y-12659150D01*
X15172538Y-12659150D02*
X15201109Y-12659150D01*
X15201109Y-12659150D02*
X15220157Y-12668674D01*
X15220157Y-12668674D02*
X15229681Y-12687722D01*
X15229681Y-12687722D02*
X15229681Y-12792484D01*
X15229681Y-12687722D02*
X15239204Y-12668674D01*
X15239204Y-12668674D02*
X15258252Y-12659150D01*
X15258252Y-12659150D02*
X15286823Y-12659150D01*
X15286823Y-12659150D02*
X15305871Y-12668674D01*
X15305871Y-12668674D02*
X15315395Y-12687722D01*
X15315395Y-12687722D02*
X15315395Y-12792484D01*
X15705871Y-12582960D02*
X15534443Y-12840103D01*
X15963014Y-12592484D02*
X15982062Y-12592484D01*
X15982062Y-12592484D02*
X16001109Y-12602008D01*
X16001109Y-12602008D02*
X16010633Y-12611531D01*
X16010633Y-12611531D02*
X16020157Y-12630579D01*
X16020157Y-12630579D02*
X16029681Y-12668674D01*
X16029681Y-12668674D02*
X16029681Y-12716293D01*
X16029681Y-12716293D02*
X16020157Y-12754388D01*
X16020157Y-12754388D02*
X16010633Y-12773436D01*
X16010633Y-12773436D02*
X16001109Y-12782960D01*
X16001109Y-12782960D02*
X15982062Y-12792484D01*
X15982062Y-12792484D02*
X15963014Y-12792484D01*
X15963014Y-12792484D02*
X15943966Y-12782960D01*
X15943966Y-12782960D02*
X15934443Y-12773436D01*
X15934443Y-12773436D02*
X15924919Y-12754388D01*
X15924919Y-12754388D02*
X15915395Y-12716293D01*
X15915395Y-12716293D02*
X15915395Y-12668674D01*
X15915395Y-12668674D02*
X15924919Y-12630579D01*
X15924919Y-12630579D02*
X15934443Y-12611531D01*
X15934443Y-12611531D02*
X15943966Y-12602008D01*
X15943966Y-12602008D02*
X15963014Y-12592484D01*
X16115395Y-12773436D02*
X16124919Y-12782960D01*
X16124919Y-12782960D02*
X16115395Y-12792484D01*
X16115395Y-12792484D02*
X16105871Y-12782960D01*
X16105871Y-12782960D02*
X16115395Y-12773436D01*
X16115395Y-12773436D02*
X16115395Y-12792484D01*
X16248728Y-12592484D02*
X16267776Y-12592484D01*
X16267776Y-12592484D02*
X16286824Y-12602008D01*
X16286824Y-12602008D02*
X16296347Y-12611531D01*
X16296347Y-12611531D02*
X16305871Y-12630579D01*
X16305871Y-12630579D02*
X16315395Y-12668674D01*
X16315395Y-12668674D02*
X16315395Y-12716293D01*
X16315395Y-12716293D02*
X16305871Y-12754388D01*
X16305871Y-12754388D02*
X16296347Y-12773436D01*
X16296347Y-12773436D02*
X16286824Y-12782960D01*
X16286824Y-12782960D02*
X16267776Y-12792484D01*
X16267776Y-12792484D02*
X16248728Y-12792484D01*
X16248728Y-12792484D02*
X16229681Y-12782960D01*
X16229681Y-12782960D02*
X16220157Y-12773436D01*
X16220157Y-12773436D02*
X16210633Y-12754388D01*
X16210633Y-12754388D02*
X16201109Y-12716293D01*
X16201109Y-12716293D02*
X16201109Y-12668674D01*
X16201109Y-12668674D02*
X16210633Y-12630579D01*
X16210633Y-12630579D02*
X16220157Y-12611531D01*
X16220157Y-12611531D02*
X16229681Y-12602008D01*
X16229681Y-12602008D02*
X16248728Y-12592484D01*
X16505871Y-12792484D02*
X16391586Y-12792484D01*
X16448728Y-12792484D02*
X16448728Y-12592484D01*
X16448728Y-12592484D02*
X16429681Y-12621055D01*
X16429681Y-12621055D02*
X16410633Y-12640103D01*
X16410633Y-12640103D02*
X16391586Y-12649627D01*
X16582062Y-12611531D02*
X16591586Y-12602008D01*
X16591586Y-12602008D02*
X16610633Y-12592484D01*
X16610633Y-12592484D02*
X16658252Y-12592484D01*
X16658252Y-12592484D02*
X16677300Y-12602008D01*
X16677300Y-12602008D02*
X16686824Y-12611531D01*
X16686824Y-12611531D02*
X16696347Y-12630579D01*
X16696347Y-12630579D02*
X16696347Y-12649627D01*
X16696347Y-12649627D02*
X16686824Y-12678198D01*
X16686824Y-12678198D02*
X16572538Y-12792484D01*
X16572538Y-12792484D02*
X16696347Y-12792484D01*
X16820157Y-12592484D02*
X16839205Y-12592484D01*
X16839205Y-12592484D02*
X16858252Y-12602008D01*
X16858252Y-12602008D02*
X16867776Y-12611531D01*
X16867776Y-12611531D02*
X16877300Y-12630579D01*
X16877300Y-12630579D02*
X16886824Y-12668674D01*
X16886824Y-12668674D02*
X16886824Y-12716293D01*
X16886824Y-12716293D02*
X16877300Y-12754388D01*
X16877300Y-12754388D02*
X16867776Y-12773436D01*
X16867776Y-12773436D02*
X16858252Y-12782960D01*
X16858252Y-12782960D02*
X16839205Y-12792484D01*
X16839205Y-12792484D02*
X16820157Y-12792484D01*
X16820157Y-12792484D02*
X16801109Y-12782960D01*
X16801109Y-12782960D02*
X16791586Y-12773436D01*
X16791586Y-12773436D02*
X16782062Y-12754388D01*
X16782062Y-12754388D02*
X16772538Y-12716293D01*
X16772538Y-12716293D02*
X16772538Y-12668674D01*
X16772538Y-12668674D02*
X16782062Y-12630579D01*
X16782062Y-12630579D02*
X16791586Y-12611531D01*
X16791586Y-12611531D02*
X16801109Y-12602008D01*
X16801109Y-12602008D02*
X16820157Y-12592484D01*
X16963014Y-12592484D02*
X16963014Y-12630579D01*
X17039205Y-12592484D02*
X17039205Y-12630579D01*
X17334443Y-12868674D02*
X17324919Y-12859150D01*
X17324919Y-12859150D02*
X17305871Y-12830579D01*
X17305871Y-12830579D02*
X17296348Y-12811531D01*
X17296348Y-12811531D02*
X17286824Y-12782960D01*
X17286824Y-12782960D02*
X17277300Y-12735341D01*
X17277300Y-12735341D02*
X17277300Y-12697246D01*
X17277300Y-12697246D02*
X17286824Y-12649627D01*
X17286824Y-12649627D02*
X17296348Y-12621055D01*
X17296348Y-12621055D02*
X17305871Y-12602008D01*
X17305871Y-12602008D02*
X17324919Y-12573436D01*
X17324919Y-12573436D02*
X17334443Y-12563912D01*
X17515395Y-12792484D02*
X17401110Y-12792484D01*
X17458252Y-12792484D02*
X17458252Y-12592484D01*
X17458252Y-12592484D02*
X17439205Y-12621055D01*
X17439205Y-12621055D02*
X17420157Y-12640103D01*
X17420157Y-12640103D02*
X17401110Y-12649627D01*
X17753491Y-12792484D02*
X17753491Y-12592484D01*
X17839205Y-12792484D02*
X17839205Y-12687722D01*
X17839205Y-12687722D02*
X17829681Y-12668674D01*
X17829681Y-12668674D02*
X17810633Y-12659150D01*
X17810633Y-12659150D02*
X17782062Y-12659150D01*
X17782062Y-12659150D02*
X17763014Y-12668674D01*
X17763014Y-12668674D02*
X17753491Y-12678198D01*
X17963014Y-12792484D02*
X17943967Y-12782960D01*
X17943967Y-12782960D02*
X17934443Y-12773436D01*
X17934443Y-12773436D02*
X17924919Y-12754388D01*
X17924919Y-12754388D02*
X17924919Y-12697246D01*
X17924919Y-12697246D02*
X17934443Y-12678198D01*
X17934443Y-12678198D02*
X17943967Y-12668674D01*
X17943967Y-12668674D02*
X17963014Y-12659150D01*
X17963014Y-12659150D02*
X17991586Y-12659150D01*
X17991586Y-12659150D02*
X18010633Y-12668674D01*
X18010633Y-12668674D02*
X18020157Y-12678198D01*
X18020157Y-12678198D02*
X18029681Y-12697246D01*
X18029681Y-12697246D02*
X18029681Y-12754388D01*
X18029681Y-12754388D02*
X18020157Y-12773436D01*
X18020157Y-12773436D02*
X18010633Y-12782960D01*
X18010633Y-12782960D02*
X17991586Y-12792484D01*
X17991586Y-12792484D02*
X17963014Y-12792484D01*
X18143967Y-12792484D02*
X18124919Y-12782960D01*
X18124919Y-12782960D02*
X18115395Y-12763912D01*
X18115395Y-12763912D02*
X18115395Y-12592484D01*
X18296348Y-12782960D02*
X18277300Y-12792484D01*
X18277300Y-12792484D02*
X18239205Y-12792484D01*
X18239205Y-12792484D02*
X18220157Y-12782960D01*
X18220157Y-12782960D02*
X18210633Y-12763912D01*
X18210633Y-12763912D02*
X18210633Y-12687722D01*
X18210633Y-12687722D02*
X18220157Y-12668674D01*
X18220157Y-12668674D02*
X18239205Y-12659150D01*
X18239205Y-12659150D02*
X18277300Y-12659150D01*
X18277300Y-12659150D02*
X18296348Y-12668674D01*
X18296348Y-12668674D02*
X18305872Y-12687722D01*
X18305872Y-12687722D02*
X18305872Y-12706769D01*
X18305872Y-12706769D02*
X18210633Y-12725817D01*
X18372538Y-12868674D02*
X18382062Y-12859150D01*
X18382062Y-12859150D02*
X18401110Y-12830579D01*
X18401110Y-12830579D02*
X18410633Y-12811531D01*
X18410633Y-12811531D02*
X18420157Y-12782960D01*
X18420157Y-12782960D02*
X18429681Y-12735341D01*
X18429681Y-12735341D02*
X18429681Y-12697246D01*
X18429681Y-12697246D02*
X18420157Y-12649627D01*
X18420157Y-12649627D02*
X18410633Y-12621055D01*
X18410633Y-12621055D02*
X18401110Y-12602008D01*
X18401110Y-12602008D02*
X18382062Y-12573436D01*
X18382062Y-12573436D02*
X18372538Y-12563912D01*
D10*
X13753800Y-12978470D02*
X13753800Y-12951529D01*
X13726859Y-12951529D01*
X13726859Y-12978470D01*
X13753800Y-12978470D01*
D11*
X14058252Y-12856484D02*
X14077300Y-12856484D01*
X14077300Y-12856484D02*
X14096347Y-12866008D01*
X14096347Y-12866008D02*
X14105871Y-12875531D01*
X14105871Y-12875531D02*
X14115395Y-12894579D01*
X14115395Y-12894579D02*
X14124919Y-12932674D01*
X14124919Y-12932674D02*
X14124919Y-12980293D01*
X14124919Y-12980293D02*
X14115395Y-13018388D01*
X14115395Y-13018388D02*
X14105871Y-13037436D01*
X14105871Y-13037436D02*
X14096347Y-13046960D01*
X14096347Y-13046960D02*
X14077300Y-13056484D01*
X14077300Y-13056484D02*
X14058252Y-13056484D01*
X14058252Y-13056484D02*
X14039204Y-13046960D01*
X14039204Y-13046960D02*
X14029681Y-13037436D01*
X14029681Y-13037436D02*
X14020157Y-13018388D01*
X14020157Y-13018388D02*
X14010633Y-12980293D01*
X14010633Y-12980293D02*
X14010633Y-12932674D01*
X14010633Y-12932674D02*
X14020157Y-12894579D01*
X14020157Y-12894579D02*
X14029681Y-12875531D01*
X14029681Y-12875531D02*
X14039204Y-12866008D01*
X14039204Y-12866008D02*
X14058252Y-12856484D01*
X14210633Y-13037436D02*
X14220157Y-13046960D01*
X14220157Y-13046960D02*
X14210633Y-13056484D01*
X14210633Y-13056484D02*
X14201109Y-13046960D01*
X14201109Y-13046960D02*
X14210633Y-13037436D01*
X14210633Y-13037436D02*
X14210633Y-13056484D01*
X14286823Y-12856484D02*
X14410633Y-12856484D01*
X14410633Y-12856484D02*
X14343966Y-12932674D01*
X14343966Y-12932674D02*
X14372538Y-12932674D01*
X14372538Y-12932674D02*
X14391585Y-12942198D01*
X14391585Y-12942198D02*
X14401109Y-12951722D01*
X14401109Y-12951722D02*
X14410633Y-12970769D01*
X14410633Y-12970769D02*
X14410633Y-13018388D01*
X14410633Y-13018388D02*
X14401109Y-13037436D01*
X14401109Y-13037436D02*
X14391585Y-13046960D01*
X14391585Y-13046960D02*
X14372538Y-13056484D01*
X14372538Y-13056484D02*
X14315395Y-13056484D01*
X14315395Y-13056484D02*
X14296347Y-13046960D01*
X14296347Y-13046960D02*
X14286823Y-13037436D01*
X14524919Y-12942198D02*
X14505871Y-12932674D01*
X14505871Y-12932674D02*
X14496347Y-12923150D01*
X14496347Y-12923150D02*
X14486823Y-12904103D01*
X14486823Y-12904103D02*
X14486823Y-12894579D01*
X14486823Y-12894579D02*
X14496347Y-12875531D01*
X14496347Y-12875531D02*
X14505871Y-12866008D01*
X14505871Y-12866008D02*
X14524919Y-12856484D01*
X14524919Y-12856484D02*
X14563014Y-12856484D01*
X14563014Y-12856484D02*
X14582062Y-12866008D01*
X14582062Y-12866008D02*
X14591585Y-12875531D01*
X14591585Y-12875531D02*
X14601109Y-12894579D01*
X14601109Y-12894579D02*
X14601109Y-12904103D01*
X14601109Y-12904103D02*
X14591585Y-12923150D01*
X14591585Y-12923150D02*
X14582062Y-12932674D01*
X14582062Y-12932674D02*
X14563014Y-12942198D01*
X14563014Y-12942198D02*
X14524919Y-12942198D01*
X14524919Y-12942198D02*
X14505871Y-12951722D01*
X14505871Y-12951722D02*
X14496347Y-12961246D01*
X14496347Y-12961246D02*
X14486823Y-12980293D01*
X14486823Y-12980293D02*
X14486823Y-13018388D01*
X14486823Y-13018388D02*
X14496347Y-13037436D01*
X14496347Y-13037436D02*
X14505871Y-13046960D01*
X14505871Y-13046960D02*
X14524919Y-13056484D01*
X14524919Y-13056484D02*
X14563014Y-13056484D01*
X14563014Y-13056484D02*
X14582062Y-13046960D01*
X14582062Y-13046960D02*
X14591585Y-13037436D01*
X14591585Y-13037436D02*
X14601109Y-13018388D01*
X14601109Y-13018388D02*
X14601109Y-12980293D01*
X14601109Y-12980293D02*
X14591585Y-12961246D01*
X14591585Y-12961246D02*
X14582062Y-12951722D01*
X14582062Y-12951722D02*
X14563014Y-12942198D01*
X14791585Y-13056484D02*
X14677300Y-13056484D01*
X14734442Y-13056484D02*
X14734442Y-12856484D01*
X14734442Y-12856484D02*
X14715395Y-12885055D01*
X14715395Y-12885055D02*
X14696347Y-12904103D01*
X14696347Y-12904103D02*
X14677300Y-12913627D01*
X14877300Y-13056484D02*
X14877300Y-12923150D01*
X14877300Y-12942198D02*
X14886823Y-12932674D01*
X14886823Y-12932674D02*
X14905871Y-12923150D01*
X14905871Y-12923150D02*
X14934443Y-12923150D01*
X14934443Y-12923150D02*
X14953490Y-12932674D01*
X14953490Y-12932674D02*
X14963014Y-12951722D01*
X14963014Y-12951722D02*
X14963014Y-13056484D01*
X14963014Y-12951722D02*
X14972538Y-12932674D01*
X14972538Y-12932674D02*
X14991585Y-12923150D01*
X14991585Y-12923150D02*
X15020157Y-12923150D01*
X15020157Y-12923150D02*
X15039204Y-12932674D01*
X15039204Y-12932674D02*
X15048728Y-12951722D01*
X15048728Y-12951722D02*
X15048728Y-13056484D01*
X15143966Y-13056484D02*
X15143966Y-12923150D01*
X15143966Y-12942198D02*
X15153490Y-12932674D01*
X15153490Y-12932674D02*
X15172538Y-12923150D01*
X15172538Y-12923150D02*
X15201109Y-12923150D01*
X15201109Y-12923150D02*
X15220157Y-12932674D01*
X15220157Y-12932674D02*
X15229681Y-12951722D01*
X15229681Y-12951722D02*
X15229681Y-13056484D01*
X15229681Y-12951722D02*
X15239204Y-12932674D01*
X15239204Y-12932674D02*
X15258252Y-12923150D01*
X15258252Y-12923150D02*
X15286823Y-12923150D01*
X15286823Y-12923150D02*
X15305871Y-12932674D01*
X15305871Y-12932674D02*
X15315395Y-12951722D01*
X15315395Y-12951722D02*
X15315395Y-13056484D01*
X15705871Y-12846960D02*
X15534443Y-13104103D01*
X15963014Y-12856484D02*
X15982062Y-12856484D01*
X15982062Y-12856484D02*
X16001109Y-12866008D01*
X16001109Y-12866008D02*
X16010633Y-12875531D01*
X16010633Y-12875531D02*
X16020157Y-12894579D01*
X16020157Y-12894579D02*
X16029681Y-12932674D01*
X16029681Y-12932674D02*
X16029681Y-12980293D01*
X16029681Y-12980293D02*
X16020157Y-13018388D01*
X16020157Y-13018388D02*
X16010633Y-13037436D01*
X16010633Y-13037436D02*
X16001109Y-13046960D01*
X16001109Y-13046960D02*
X15982062Y-13056484D01*
X15982062Y-13056484D02*
X15963014Y-13056484D01*
X15963014Y-13056484D02*
X15943966Y-13046960D01*
X15943966Y-13046960D02*
X15934443Y-13037436D01*
X15934443Y-13037436D02*
X15924919Y-13018388D01*
X15924919Y-13018388D02*
X15915395Y-12980293D01*
X15915395Y-12980293D02*
X15915395Y-12932674D01*
X15915395Y-12932674D02*
X15924919Y-12894579D01*
X15924919Y-12894579D02*
X15934443Y-12875531D01*
X15934443Y-12875531D02*
X15943966Y-12866008D01*
X15943966Y-12866008D02*
X15963014Y-12856484D01*
X16115395Y-13037436D02*
X16124919Y-13046960D01*
X16124919Y-13046960D02*
X16115395Y-13056484D01*
X16115395Y-13056484D02*
X16105871Y-13046960D01*
X16105871Y-13046960D02*
X16115395Y-13037436D01*
X16115395Y-13037436D02*
X16115395Y-13056484D01*
X16248728Y-12856484D02*
X16267776Y-12856484D01*
X16267776Y-12856484D02*
X16286824Y-12866008D01*
X16286824Y-12866008D02*
X16296347Y-12875531D01*
X16296347Y-12875531D02*
X16305871Y-12894579D01*
X16305871Y-12894579D02*
X16315395Y-12932674D01*
X16315395Y-12932674D02*
X16315395Y-12980293D01*
X16315395Y-12980293D02*
X16305871Y-13018388D01*
X16305871Y-13018388D02*
X16296347Y-13037436D01*
X16296347Y-13037436D02*
X16286824Y-13046960D01*
X16286824Y-13046960D02*
X16267776Y-13056484D01*
X16267776Y-13056484D02*
X16248728Y-13056484D01*
X16248728Y-13056484D02*
X16229681Y-13046960D01*
X16229681Y-13046960D02*
X16220157Y-13037436D01*
X16220157Y-13037436D02*
X16210633Y-13018388D01*
X16210633Y-13018388D02*
X16201109Y-12980293D01*
X16201109Y-12980293D02*
X16201109Y-12932674D01*
X16201109Y-12932674D02*
X16210633Y-12894579D01*
X16210633Y-12894579D02*
X16220157Y-12875531D01*
X16220157Y-12875531D02*
X16229681Y-12866008D01*
X16229681Y-12866008D02*
X16248728Y-12856484D01*
X16505871Y-13056484D02*
X16391586Y-13056484D01*
X16448728Y-13056484D02*
X16448728Y-12856484D01*
X16448728Y-12856484D02*
X16429681Y-12885055D01*
X16429681Y-12885055D02*
X16410633Y-12904103D01*
X16410633Y-12904103D02*
X16391586Y-12913627D01*
X16686824Y-12856484D02*
X16591586Y-12856484D01*
X16591586Y-12856484D02*
X16582062Y-12951722D01*
X16582062Y-12951722D02*
X16591586Y-12942198D01*
X16591586Y-12942198D02*
X16610633Y-12932674D01*
X16610633Y-12932674D02*
X16658252Y-12932674D01*
X16658252Y-12932674D02*
X16677300Y-12942198D01*
X16677300Y-12942198D02*
X16686824Y-12951722D01*
X16686824Y-12951722D02*
X16696347Y-12970769D01*
X16696347Y-12970769D02*
X16696347Y-13018388D01*
X16696347Y-13018388D02*
X16686824Y-13037436D01*
X16686824Y-13037436D02*
X16677300Y-13046960D01*
X16677300Y-13046960D02*
X16658252Y-13056484D01*
X16658252Y-13056484D02*
X16610633Y-13056484D01*
X16610633Y-13056484D02*
X16591586Y-13046960D01*
X16591586Y-13046960D02*
X16582062Y-13037436D01*
X16820157Y-12856484D02*
X16839205Y-12856484D01*
X16839205Y-12856484D02*
X16858252Y-12866008D01*
X16858252Y-12866008D02*
X16867776Y-12875531D01*
X16867776Y-12875531D02*
X16877300Y-12894579D01*
X16877300Y-12894579D02*
X16886824Y-12932674D01*
X16886824Y-12932674D02*
X16886824Y-12980293D01*
X16886824Y-12980293D02*
X16877300Y-13018388D01*
X16877300Y-13018388D02*
X16867776Y-13037436D01*
X16867776Y-13037436D02*
X16858252Y-13046960D01*
X16858252Y-13046960D02*
X16839205Y-13056484D01*
X16839205Y-13056484D02*
X16820157Y-13056484D01*
X16820157Y-13056484D02*
X16801109Y-13046960D01*
X16801109Y-13046960D02*
X16791586Y-13037436D01*
X16791586Y-13037436D02*
X16782062Y-13018388D01*
X16782062Y-13018388D02*
X16772538Y-12980293D01*
X16772538Y-12980293D02*
X16772538Y-12932674D01*
X16772538Y-12932674D02*
X16782062Y-12894579D01*
X16782062Y-12894579D02*
X16791586Y-12875531D01*
X16791586Y-12875531D02*
X16801109Y-12866008D01*
X16801109Y-12866008D02*
X16820157Y-12856484D01*
X16963014Y-12856484D02*
X16963014Y-12894579D01*
X17039205Y-12856484D02*
X17039205Y-12894579D01*
X17334443Y-13132674D02*
X17324919Y-13123150D01*
X17324919Y-13123150D02*
X17305871Y-13094579D01*
X17305871Y-13094579D02*
X17296348Y-13075531D01*
X17296348Y-13075531D02*
X17286824Y-13046960D01*
X17286824Y-13046960D02*
X17277300Y-12999341D01*
X17277300Y-12999341D02*
X17277300Y-12961246D01*
X17277300Y-12961246D02*
X17286824Y-12913627D01*
X17286824Y-12913627D02*
X17296348Y-12885055D01*
X17296348Y-12885055D02*
X17305871Y-12866008D01*
X17305871Y-12866008D02*
X17324919Y-12837436D01*
X17324919Y-12837436D02*
X17334443Y-12827912D01*
X17515395Y-13056484D02*
X17401110Y-13056484D01*
X17458252Y-13056484D02*
X17458252Y-12856484D01*
X17458252Y-12856484D02*
X17439205Y-12885055D01*
X17439205Y-12885055D02*
X17420157Y-12904103D01*
X17420157Y-12904103D02*
X17401110Y-12913627D01*
X17591586Y-12875531D02*
X17601110Y-12866008D01*
X17601110Y-12866008D02*
X17620157Y-12856484D01*
X17620157Y-12856484D02*
X17667776Y-12856484D01*
X17667776Y-12856484D02*
X17686824Y-12866008D01*
X17686824Y-12866008D02*
X17696348Y-12875531D01*
X17696348Y-12875531D02*
X17705871Y-12894579D01*
X17705871Y-12894579D02*
X17705871Y-12913627D01*
X17705871Y-12913627D02*
X17696348Y-12942198D01*
X17696348Y-12942198D02*
X17582062Y-13056484D01*
X17582062Y-13056484D02*
X17705871Y-13056484D01*
X17943967Y-13056484D02*
X17943967Y-12856484D01*
X18029681Y-13056484D02*
X18029681Y-12951722D01*
X18029681Y-12951722D02*
X18020157Y-12932674D01*
X18020157Y-12932674D02*
X18001110Y-12923150D01*
X18001110Y-12923150D02*
X17972538Y-12923150D01*
X17972538Y-12923150D02*
X17953491Y-12932674D01*
X17953491Y-12932674D02*
X17943967Y-12942198D01*
X18153491Y-13056484D02*
X18134443Y-13046960D01*
X18134443Y-13046960D02*
X18124919Y-13037436D01*
X18124919Y-13037436D02*
X18115395Y-13018388D01*
X18115395Y-13018388D02*
X18115395Y-12961246D01*
X18115395Y-12961246D02*
X18124919Y-12942198D01*
X18124919Y-12942198D02*
X18134443Y-12932674D01*
X18134443Y-12932674D02*
X18153491Y-12923150D01*
X18153491Y-12923150D02*
X18182062Y-12923150D01*
X18182062Y-12923150D02*
X18201110Y-12932674D01*
X18201110Y-12932674D02*
X18210633Y-12942198D01*
X18210633Y-12942198D02*
X18220157Y-12961246D01*
X18220157Y-12961246D02*
X18220157Y-13018388D01*
X18220157Y-13018388D02*
X18210633Y-13037436D01*
X18210633Y-13037436D02*
X18201110Y-13046960D01*
X18201110Y-13046960D02*
X18182062Y-13056484D01*
X18182062Y-13056484D02*
X18153491Y-13056484D01*
X18334443Y-13056484D02*
X18315395Y-13046960D01*
X18315395Y-13046960D02*
X18305872Y-13027912D01*
X18305872Y-13027912D02*
X18305872Y-12856484D01*
X18486824Y-13046960D02*
X18467776Y-13056484D01*
X18467776Y-13056484D02*
X18429681Y-13056484D01*
X18429681Y-13056484D02*
X18410633Y-13046960D01*
X18410633Y-13046960D02*
X18401110Y-13027912D01*
X18401110Y-13027912D02*
X18401110Y-12951722D01*
X18401110Y-12951722D02*
X18410633Y-12932674D01*
X18410633Y-12932674D02*
X18429681Y-12923150D01*
X18429681Y-12923150D02*
X18467776Y-12923150D01*
X18467776Y-12923150D02*
X18486824Y-12932674D01*
X18486824Y-12932674D02*
X18496348Y-12951722D01*
X18496348Y-12951722D02*
X18496348Y-12970769D01*
X18496348Y-12970769D02*
X18401110Y-12989817D01*
X18572538Y-13046960D02*
X18591586Y-13056484D01*
X18591586Y-13056484D02*
X18629681Y-13056484D01*
X18629681Y-13056484D02*
X18648729Y-13046960D01*
X18648729Y-13046960D02*
X18658253Y-13027912D01*
X18658253Y-13027912D02*
X18658253Y-13018388D01*
X18658253Y-13018388D02*
X18648729Y-12999341D01*
X18648729Y-12999341D02*
X18629681Y-12989817D01*
X18629681Y-12989817D02*
X18601110Y-12989817D01*
X18601110Y-12989817D02*
X18582062Y-12980293D01*
X18582062Y-12980293D02*
X18572538Y-12961246D01*
X18572538Y-12961246D02*
X18572538Y-12951722D01*
X18572538Y-12951722D02*
X18582062Y-12932674D01*
X18582062Y-12932674D02*
X18601110Y-12923150D01*
X18601110Y-12923150D02*
X18629681Y-12923150D01*
X18629681Y-12923150D02*
X18648729Y-12932674D01*
X18724919Y-13132674D02*
X18734443Y-13123150D01*
X18734443Y-13123150D02*
X18753491Y-13094579D01*
X18753491Y-13094579D02*
X18763014Y-13075531D01*
X18763014Y-13075531D02*
X18772538Y-13046960D01*
X18772538Y-13046960D02*
X18782062Y-12999341D01*
X18782062Y-12999341D02*
X18782062Y-12961246D01*
X18782062Y-12961246D02*
X18772538Y-12913627D01*
X18772538Y-12913627D02*
X18763014Y-12885055D01*
X18763014Y-12885055D02*
X18753491Y-12866008D01*
X18753491Y-12866008D02*
X18734443Y-12837436D01*
X18734443Y-12837436D02*
X18724919Y-12827912D01*
D12*
X13708580Y-13279800D02*
X13759380Y-13229000D01*
X13708580Y-13178200D01*
X13657780Y-13229000D01*
X13708580Y-13279800D01*
D11*
X14124919Y-13320484D02*
X14010633Y-13320484D01*
X14067776Y-13320484D02*
X14067776Y-13120484D01*
X14067776Y-13120484D02*
X14048728Y-13149055D01*
X14048728Y-13149055D02*
X14029681Y-13168103D01*
X14029681Y-13168103D02*
X14010633Y-13177627D01*
X14210633Y-13301436D02*
X14220157Y-13310960D01*
X14220157Y-13310960D02*
X14210633Y-13320484D01*
X14210633Y-13320484D02*
X14201109Y-13310960D01*
X14201109Y-13310960D02*
X14210633Y-13301436D01*
X14210633Y-13301436D02*
X14210633Y-13320484D01*
X14343966Y-13120484D02*
X14363014Y-13120484D01*
X14363014Y-13120484D02*
X14382062Y-13130008D01*
X14382062Y-13130008D02*
X14391585Y-13139531D01*
X14391585Y-13139531D02*
X14401109Y-13158579D01*
X14401109Y-13158579D02*
X14410633Y-13196674D01*
X14410633Y-13196674D02*
X14410633Y-13244293D01*
X14410633Y-13244293D02*
X14401109Y-13282388D01*
X14401109Y-13282388D02*
X14391585Y-13301436D01*
X14391585Y-13301436D02*
X14382062Y-13310960D01*
X14382062Y-13310960D02*
X14363014Y-13320484D01*
X14363014Y-13320484D02*
X14343966Y-13320484D01*
X14343966Y-13320484D02*
X14324919Y-13310960D01*
X14324919Y-13310960D02*
X14315395Y-13301436D01*
X14315395Y-13301436D02*
X14305871Y-13282388D01*
X14305871Y-13282388D02*
X14296347Y-13244293D01*
X14296347Y-13244293D02*
X14296347Y-13196674D01*
X14296347Y-13196674D02*
X14305871Y-13158579D01*
X14305871Y-13158579D02*
X14315395Y-13139531D01*
X14315395Y-13139531D02*
X14324919Y-13130008D01*
X14324919Y-13130008D02*
X14343966Y-13120484D01*
X14601109Y-13320484D02*
X14486823Y-13320484D01*
X14543966Y-13320484D02*
X14543966Y-13120484D01*
X14543966Y-13120484D02*
X14524919Y-13149055D01*
X14524919Y-13149055D02*
X14505871Y-13168103D01*
X14505871Y-13168103D02*
X14486823Y-13177627D01*
X14772538Y-13120484D02*
X14734442Y-13120484D01*
X14734442Y-13120484D02*
X14715395Y-13130008D01*
X14715395Y-13130008D02*
X14705871Y-13139531D01*
X14705871Y-13139531D02*
X14686823Y-13168103D01*
X14686823Y-13168103D02*
X14677300Y-13206198D01*
X14677300Y-13206198D02*
X14677300Y-13282388D01*
X14677300Y-13282388D02*
X14686823Y-13301436D01*
X14686823Y-13301436D02*
X14696347Y-13310960D01*
X14696347Y-13310960D02*
X14715395Y-13320484D01*
X14715395Y-13320484D02*
X14753490Y-13320484D01*
X14753490Y-13320484D02*
X14772538Y-13310960D01*
X14772538Y-13310960D02*
X14782062Y-13301436D01*
X14782062Y-13301436D02*
X14791585Y-13282388D01*
X14791585Y-13282388D02*
X14791585Y-13234769D01*
X14791585Y-13234769D02*
X14782062Y-13215722D01*
X14782062Y-13215722D02*
X14772538Y-13206198D01*
X14772538Y-13206198D02*
X14753490Y-13196674D01*
X14753490Y-13196674D02*
X14715395Y-13196674D01*
X14715395Y-13196674D02*
X14696347Y-13206198D01*
X14696347Y-13206198D02*
X14686823Y-13215722D01*
X14686823Y-13215722D02*
X14677300Y-13234769D01*
X14877300Y-13320484D02*
X14877300Y-13187150D01*
X14877300Y-13206198D02*
X14886823Y-13196674D01*
X14886823Y-13196674D02*
X14905871Y-13187150D01*
X14905871Y-13187150D02*
X14934443Y-13187150D01*
X14934443Y-13187150D02*
X14953490Y-13196674D01*
X14953490Y-13196674D02*
X14963014Y-13215722D01*
X14963014Y-13215722D02*
X14963014Y-13320484D01*
X14963014Y-13215722D02*
X14972538Y-13196674D01*
X14972538Y-13196674D02*
X14991585Y-13187150D01*
X14991585Y-13187150D02*
X15020157Y-13187150D01*
X15020157Y-13187150D02*
X15039204Y-13196674D01*
X15039204Y-13196674D02*
X15048728Y-13215722D01*
X15048728Y-13215722D02*
X15048728Y-13320484D01*
X15143966Y-13320484D02*
X15143966Y-13187150D01*
X15143966Y-13206198D02*
X15153490Y-13196674D01*
X15153490Y-13196674D02*
X15172538Y-13187150D01*
X15172538Y-13187150D02*
X15201109Y-13187150D01*
X15201109Y-13187150D02*
X15220157Y-13196674D01*
X15220157Y-13196674D02*
X15229681Y-13215722D01*
X15229681Y-13215722D02*
X15229681Y-13320484D01*
X15229681Y-13215722D02*
X15239204Y-13196674D01*
X15239204Y-13196674D02*
X15258252Y-13187150D01*
X15258252Y-13187150D02*
X15286823Y-13187150D01*
X15286823Y-13187150D02*
X15305871Y-13196674D01*
X15305871Y-13196674D02*
X15315395Y-13215722D01*
X15315395Y-13215722D02*
X15315395Y-13320484D01*
X15705871Y-13110960D02*
X15534443Y-13368103D01*
X15963014Y-13120484D02*
X15982062Y-13120484D01*
X15982062Y-13120484D02*
X16001109Y-13130008D01*
X16001109Y-13130008D02*
X16010633Y-13139531D01*
X16010633Y-13139531D02*
X16020157Y-13158579D01*
X16020157Y-13158579D02*
X16029681Y-13196674D01*
X16029681Y-13196674D02*
X16029681Y-13244293D01*
X16029681Y-13244293D02*
X16020157Y-13282388D01*
X16020157Y-13282388D02*
X16010633Y-13301436D01*
X16010633Y-13301436D02*
X16001109Y-13310960D01*
X16001109Y-13310960D02*
X15982062Y-13320484D01*
X15982062Y-13320484D02*
X15963014Y-13320484D01*
X15963014Y-13320484D02*
X15943966Y-13310960D01*
X15943966Y-13310960D02*
X15934443Y-13301436D01*
X15934443Y-13301436D02*
X15924919Y-13282388D01*
X15924919Y-13282388D02*
X15915395Y-13244293D01*
X15915395Y-13244293D02*
X15915395Y-13196674D01*
X15915395Y-13196674D02*
X15924919Y-13158579D01*
X15924919Y-13158579D02*
X15934443Y-13139531D01*
X15934443Y-13139531D02*
X15943966Y-13130008D01*
X15943966Y-13130008D02*
X15963014Y-13120484D01*
X16115395Y-13301436D02*
X16124919Y-13310960D01*
X16124919Y-13310960D02*
X16115395Y-13320484D01*
X16115395Y-13320484D02*
X16105871Y-13310960D01*
X16105871Y-13310960D02*
X16115395Y-13301436D01*
X16115395Y-13301436D02*
X16115395Y-13320484D01*
X16248728Y-13120484D02*
X16267776Y-13120484D01*
X16267776Y-13120484D02*
X16286824Y-13130008D01*
X16286824Y-13130008D02*
X16296347Y-13139531D01*
X16296347Y-13139531D02*
X16305871Y-13158579D01*
X16305871Y-13158579D02*
X16315395Y-13196674D01*
X16315395Y-13196674D02*
X16315395Y-13244293D01*
X16315395Y-13244293D02*
X16305871Y-13282388D01*
X16305871Y-13282388D02*
X16296347Y-13301436D01*
X16296347Y-13301436D02*
X16286824Y-13310960D01*
X16286824Y-13310960D02*
X16267776Y-13320484D01*
X16267776Y-13320484D02*
X16248728Y-13320484D01*
X16248728Y-13320484D02*
X16229681Y-13310960D01*
X16229681Y-13310960D02*
X16220157Y-13301436D01*
X16220157Y-13301436D02*
X16210633Y-13282388D01*
X16210633Y-13282388D02*
X16201109Y-13244293D01*
X16201109Y-13244293D02*
X16201109Y-13196674D01*
X16201109Y-13196674D02*
X16210633Y-13158579D01*
X16210633Y-13158579D02*
X16220157Y-13139531D01*
X16220157Y-13139531D02*
X16229681Y-13130008D01*
X16229681Y-13130008D02*
X16248728Y-13120484D01*
X16486824Y-13187150D02*
X16486824Y-13320484D01*
X16439205Y-13110960D02*
X16391586Y-13253817D01*
X16391586Y-13253817D02*
X16515395Y-13253817D01*
X16629681Y-13120484D02*
X16648728Y-13120484D01*
X16648728Y-13120484D02*
X16667776Y-13130008D01*
X16667776Y-13130008D02*
X16677300Y-13139531D01*
X16677300Y-13139531D02*
X16686824Y-13158579D01*
X16686824Y-13158579D02*
X16696347Y-13196674D01*
X16696347Y-13196674D02*
X16696347Y-13244293D01*
X16696347Y-13244293D02*
X16686824Y-13282388D01*
X16686824Y-13282388D02*
X16677300Y-13301436D01*
X16677300Y-13301436D02*
X16667776Y-13310960D01*
X16667776Y-13310960D02*
X16648728Y-13320484D01*
X16648728Y-13320484D02*
X16629681Y-13320484D01*
X16629681Y-13320484D02*
X16610633Y-13310960D01*
X16610633Y-13310960D02*
X16601109Y-13301436D01*
X16601109Y-13301436D02*
X16591586Y-13282388D01*
X16591586Y-13282388D02*
X16582062Y-13244293D01*
X16582062Y-13244293D02*
X16582062Y-13196674D01*
X16582062Y-13196674D02*
X16591586Y-13158579D01*
X16591586Y-13158579D02*
X16601109Y-13139531D01*
X16601109Y-13139531D02*
X16610633Y-13130008D01*
X16610633Y-13130008D02*
X16629681Y-13120484D01*
X16820157Y-13120484D02*
X16839205Y-13120484D01*
X16839205Y-13120484D02*
X16858252Y-13130008D01*
X16858252Y-13130008D02*
X16867776Y-13139531D01*
X16867776Y-13139531D02*
X16877300Y-13158579D01*
X16877300Y-13158579D02*
X16886824Y-13196674D01*
X16886824Y-13196674D02*
X16886824Y-13244293D01*
X16886824Y-13244293D02*
X16877300Y-13282388D01*
X16877300Y-13282388D02*
X16867776Y-13301436D01*
X16867776Y-13301436D02*
X16858252Y-13310960D01*
X16858252Y-13310960D02*
X16839205Y-13320484D01*
X16839205Y-13320484D02*
X16820157Y-13320484D01*
X16820157Y-13320484D02*
X16801109Y-13310960D01*
X16801109Y-13310960D02*
X16791586Y-13301436D01*
X16791586Y-13301436D02*
X16782062Y-13282388D01*
X16782062Y-13282388D02*
X16772538Y-13244293D01*
X16772538Y-13244293D02*
X16772538Y-13196674D01*
X16772538Y-13196674D02*
X16782062Y-13158579D01*
X16782062Y-13158579D02*
X16791586Y-13139531D01*
X16791586Y-13139531D02*
X16801109Y-13130008D01*
X16801109Y-13130008D02*
X16820157Y-13120484D01*
X16963014Y-13120484D02*
X16963014Y-13158579D01*
X17039205Y-13120484D02*
X17039205Y-13158579D01*
X17334443Y-13396674D02*
X17324919Y-13387150D01*
X17324919Y-13387150D02*
X17305871Y-13358579D01*
X17305871Y-13358579D02*
X17296348Y-13339531D01*
X17296348Y-13339531D02*
X17286824Y-13310960D01*
X17286824Y-13310960D02*
X17277300Y-13263341D01*
X17277300Y-13263341D02*
X17277300Y-13225246D01*
X17277300Y-13225246D02*
X17286824Y-13177627D01*
X17286824Y-13177627D02*
X17296348Y-13149055D01*
X17296348Y-13149055D02*
X17305871Y-13130008D01*
X17305871Y-13130008D02*
X17324919Y-13101436D01*
X17324919Y-13101436D02*
X17334443Y-13091912D01*
X17515395Y-13320484D02*
X17401110Y-13320484D01*
X17458252Y-13320484D02*
X17458252Y-13120484D01*
X17458252Y-13120484D02*
X17439205Y-13149055D01*
X17439205Y-13149055D02*
X17420157Y-13168103D01*
X17420157Y-13168103D02*
X17401110Y-13177627D01*
X17591586Y-13139531D02*
X17601110Y-13130008D01*
X17601110Y-13130008D02*
X17620157Y-13120484D01*
X17620157Y-13120484D02*
X17667776Y-13120484D01*
X17667776Y-13120484D02*
X17686824Y-13130008D01*
X17686824Y-13130008D02*
X17696348Y-13139531D01*
X17696348Y-13139531D02*
X17705871Y-13158579D01*
X17705871Y-13158579D02*
X17705871Y-13177627D01*
X17705871Y-13177627D02*
X17696348Y-13206198D01*
X17696348Y-13206198D02*
X17582062Y-13320484D01*
X17582062Y-13320484D02*
X17705871Y-13320484D01*
X17943967Y-13320484D02*
X17943967Y-13120484D01*
X18029681Y-13320484D02*
X18029681Y-13215722D01*
X18029681Y-13215722D02*
X18020157Y-13196674D01*
X18020157Y-13196674D02*
X18001110Y-13187150D01*
X18001110Y-13187150D02*
X17972538Y-13187150D01*
X17972538Y-13187150D02*
X17953491Y-13196674D01*
X17953491Y-13196674D02*
X17943967Y-13206198D01*
X18153491Y-13320484D02*
X18134443Y-13310960D01*
X18134443Y-13310960D02*
X18124919Y-13301436D01*
X18124919Y-13301436D02*
X18115395Y-13282388D01*
X18115395Y-13282388D02*
X18115395Y-13225246D01*
X18115395Y-13225246D02*
X18124919Y-13206198D01*
X18124919Y-13206198D02*
X18134443Y-13196674D01*
X18134443Y-13196674D02*
X18153491Y-13187150D01*
X18153491Y-13187150D02*
X18182062Y-13187150D01*
X18182062Y-13187150D02*
X18201110Y-13196674D01*
X18201110Y-13196674D02*
X18210633Y-13206198D01*
X18210633Y-13206198D02*
X18220157Y-13225246D01*
X18220157Y-13225246D02*
X18220157Y-13282388D01*
X18220157Y-13282388D02*
X18210633Y-13301436D01*
X18210633Y-13301436D02*
X18201110Y-13310960D01*
X18201110Y-13310960D02*
X18182062Y-13320484D01*
X18182062Y-13320484D02*
X18153491Y-13320484D01*
X18334443Y-13320484D02*
X18315395Y-13310960D01*
X18315395Y-13310960D02*
X18305872Y-13291912D01*
X18305872Y-13291912D02*
X18305872Y-13120484D01*
X18486824Y-13310960D02*
X18467776Y-13320484D01*
X18467776Y-13320484D02*
X18429681Y-13320484D01*
X18429681Y-13320484D02*
X18410633Y-13310960D01*
X18410633Y-13310960D02*
X18401110Y-13291912D01*
X18401110Y-13291912D02*
X18401110Y-13215722D01*
X18401110Y-13215722D02*
X18410633Y-13196674D01*
X18410633Y-13196674D02*
X18429681Y-13187150D01*
X18429681Y-13187150D02*
X18467776Y-13187150D01*
X18467776Y-13187150D02*
X18486824Y-13196674D01*
X18486824Y-13196674D02*
X18496348Y-13215722D01*
X18496348Y-13215722D02*
X18496348Y-13234769D01*
X18496348Y-13234769D02*
X18401110Y-13253817D01*
X18572538Y-13310960D02*
X18591586Y-13320484D01*
X18591586Y-13320484D02*
X18629681Y-13320484D01*
X18629681Y-13320484D02*
X18648729Y-13310960D01*
X18648729Y-13310960D02*
X18658253Y-13291912D01*
X18658253Y-13291912D02*
X18658253Y-13282388D01*
X18658253Y-13282388D02*
X18648729Y-13263341D01*
X18648729Y-13263341D02*
X18629681Y-13253817D01*
X18629681Y-13253817D02*
X18601110Y-13253817D01*
X18601110Y-13253817D02*
X18582062Y-13244293D01*
X18582062Y-13244293D02*
X18572538Y-13225246D01*
X18572538Y-13225246D02*
X18572538Y-13215722D01*
X18572538Y-13215722D02*
X18582062Y-13196674D01*
X18582062Y-13196674D02*
X18601110Y-13187150D01*
X18601110Y-13187150D02*
X18629681Y-13187150D01*
X18629681Y-13187150D02*
X18648729Y-13196674D01*
X18724919Y-13396674D02*
X18734443Y-13387150D01*
X18734443Y-13387150D02*
X18753491Y-13358579D01*
X18753491Y-13358579D02*
X18763014Y-13339531D01*
X18763014Y-13339531D02*
X18772538Y-13310960D01*
X18772538Y-13310960D02*
X18782062Y-13263341D01*
X18782062Y-13263341D02*
X18782062Y-13225246D01*
X18782062Y-13225246D02*
X18772538Y-13177627D01*
X18772538Y-13177627D02*
X18763014Y-13149055D01*
X18763014Y-13149055D02*
X18753491Y-13130008D01*
X18753491Y-13130008D02*
X18734443Y-13101436D01*
X18734443Y-13101436D02*
X18724919Y-13091912D01*
D13*
X13657380Y-13442000D02*
X13759380Y-13544000D01*
X13759380Y-13442000D02*
X13657380Y-13544000D01*
X13759380Y-13493000D02*
G75*
G02*
X13657380Y-13493000I-51000J0D01*
G01*
X13657380Y-13493000D02*
G75*
G02*
X13759380Y-13493000I51000J0D01*
G01*
D11*
X14124919Y-13584484D02*
X14010633Y-13584484D01*
X14067776Y-13584484D02*
X14067776Y-13384484D01*
X14067776Y-13384484D02*
X14048728Y-13413055D01*
X14048728Y-13413055D02*
X14029681Y-13432103D01*
X14029681Y-13432103D02*
X14010633Y-13441627D01*
X14210633Y-13565436D02*
X14220157Y-13574960D01*
X14220157Y-13574960D02*
X14210633Y-13584484D01*
X14210633Y-13584484D02*
X14201109Y-13574960D01*
X14201109Y-13574960D02*
X14210633Y-13565436D01*
X14210633Y-13565436D02*
X14210633Y-13584484D01*
X14343966Y-13384484D02*
X14363014Y-13384484D01*
X14363014Y-13384484D02*
X14382062Y-13394008D01*
X14382062Y-13394008D02*
X14391585Y-13403531D01*
X14391585Y-13403531D02*
X14401109Y-13422579D01*
X14401109Y-13422579D02*
X14410633Y-13460674D01*
X14410633Y-13460674D02*
X14410633Y-13508293D01*
X14410633Y-13508293D02*
X14401109Y-13546388D01*
X14401109Y-13546388D02*
X14391585Y-13565436D01*
X14391585Y-13565436D02*
X14382062Y-13574960D01*
X14382062Y-13574960D02*
X14363014Y-13584484D01*
X14363014Y-13584484D02*
X14343966Y-13584484D01*
X14343966Y-13584484D02*
X14324919Y-13574960D01*
X14324919Y-13574960D02*
X14315395Y-13565436D01*
X14315395Y-13565436D02*
X14305871Y-13546388D01*
X14305871Y-13546388D02*
X14296347Y-13508293D01*
X14296347Y-13508293D02*
X14296347Y-13460674D01*
X14296347Y-13460674D02*
X14305871Y-13422579D01*
X14305871Y-13422579D02*
X14315395Y-13403531D01*
X14315395Y-13403531D02*
X14324919Y-13394008D01*
X14324919Y-13394008D02*
X14343966Y-13384484D01*
X14486823Y-13403531D02*
X14496347Y-13394008D01*
X14496347Y-13394008D02*
X14515395Y-13384484D01*
X14515395Y-13384484D02*
X14563014Y-13384484D01*
X14563014Y-13384484D02*
X14582062Y-13394008D01*
X14582062Y-13394008D02*
X14591585Y-13403531D01*
X14591585Y-13403531D02*
X14601109Y-13422579D01*
X14601109Y-13422579D02*
X14601109Y-13441627D01*
X14601109Y-13441627D02*
X14591585Y-13470198D01*
X14591585Y-13470198D02*
X14477300Y-13584484D01*
X14477300Y-13584484D02*
X14601109Y-13584484D01*
X14724919Y-13384484D02*
X14743966Y-13384484D01*
X14743966Y-13384484D02*
X14763014Y-13394008D01*
X14763014Y-13394008D02*
X14772538Y-13403531D01*
X14772538Y-13403531D02*
X14782062Y-13422579D01*
X14782062Y-13422579D02*
X14791585Y-13460674D01*
X14791585Y-13460674D02*
X14791585Y-13508293D01*
X14791585Y-13508293D02*
X14782062Y-13546388D01*
X14782062Y-13546388D02*
X14772538Y-13565436D01*
X14772538Y-13565436D02*
X14763014Y-13574960D01*
X14763014Y-13574960D02*
X14743966Y-13584484D01*
X14743966Y-13584484D02*
X14724919Y-13584484D01*
X14724919Y-13584484D02*
X14705871Y-13574960D01*
X14705871Y-13574960D02*
X14696347Y-13565436D01*
X14696347Y-13565436D02*
X14686823Y-13546388D01*
X14686823Y-13546388D02*
X14677300Y-13508293D01*
X14677300Y-13508293D02*
X14677300Y-13460674D01*
X14677300Y-13460674D02*
X14686823Y-13422579D01*
X14686823Y-13422579D02*
X14696347Y-13403531D01*
X14696347Y-13403531D02*
X14705871Y-13394008D01*
X14705871Y-13394008D02*
X14724919Y-13384484D01*
X14877300Y-13584484D02*
X14877300Y-13451150D01*
X14877300Y-13470198D02*
X14886823Y-13460674D01*
X14886823Y-13460674D02*
X14905871Y-13451150D01*
X14905871Y-13451150D02*
X14934443Y-13451150D01*
X14934443Y-13451150D02*
X14953490Y-13460674D01*
X14953490Y-13460674D02*
X14963014Y-13479722D01*
X14963014Y-13479722D02*
X14963014Y-13584484D01*
X14963014Y-13479722D02*
X14972538Y-13460674D01*
X14972538Y-13460674D02*
X14991585Y-13451150D01*
X14991585Y-13451150D02*
X15020157Y-13451150D01*
X15020157Y-13451150D02*
X15039204Y-13460674D01*
X15039204Y-13460674D02*
X15048728Y-13479722D01*
X15048728Y-13479722D02*
X15048728Y-13584484D01*
X15143966Y-13584484D02*
X15143966Y-13451150D01*
X15143966Y-13470198D02*
X15153490Y-13460674D01*
X15153490Y-13460674D02*
X15172538Y-13451150D01*
X15172538Y-13451150D02*
X15201109Y-13451150D01*
X15201109Y-13451150D02*
X15220157Y-13460674D01*
X15220157Y-13460674D02*
X15229681Y-13479722D01*
X15229681Y-13479722D02*
X15229681Y-13584484D01*
X15229681Y-13479722D02*
X15239204Y-13460674D01*
X15239204Y-13460674D02*
X15258252Y-13451150D01*
X15258252Y-13451150D02*
X15286823Y-13451150D01*
X15286823Y-13451150D02*
X15305871Y-13460674D01*
X15305871Y-13460674D02*
X15315395Y-13479722D01*
X15315395Y-13479722D02*
X15315395Y-13584484D01*
X15705871Y-13374960D02*
X15534443Y-13632103D01*
X15963014Y-13384484D02*
X15982062Y-13384484D01*
X15982062Y-13384484D02*
X16001109Y-13394008D01*
X16001109Y-13394008D02*
X16010633Y-13403531D01*
X16010633Y-13403531D02*
X16020157Y-13422579D01*
X16020157Y-13422579D02*
X16029681Y-13460674D01*
X16029681Y-13460674D02*
X16029681Y-13508293D01*
X16029681Y-13508293D02*
X16020157Y-13546388D01*
X16020157Y-13546388D02*
X16010633Y-13565436D01*
X16010633Y-13565436D02*
X16001109Y-13574960D01*
X16001109Y-13574960D02*
X15982062Y-13584484D01*
X15982062Y-13584484D02*
X15963014Y-13584484D01*
X15963014Y-13584484D02*
X15943966Y-13574960D01*
X15943966Y-13574960D02*
X15934443Y-13565436D01*
X15934443Y-13565436D02*
X15924919Y-13546388D01*
X15924919Y-13546388D02*
X15915395Y-13508293D01*
X15915395Y-13508293D02*
X15915395Y-13460674D01*
X15915395Y-13460674D02*
X15924919Y-13422579D01*
X15924919Y-13422579D02*
X15934443Y-13403531D01*
X15934443Y-13403531D02*
X15943966Y-13394008D01*
X15943966Y-13394008D02*
X15963014Y-13384484D01*
X16115395Y-13565436D02*
X16124919Y-13574960D01*
X16124919Y-13574960D02*
X16115395Y-13584484D01*
X16115395Y-13584484D02*
X16105871Y-13574960D01*
X16105871Y-13574960D02*
X16115395Y-13565436D01*
X16115395Y-13565436D02*
X16115395Y-13584484D01*
X16248728Y-13384484D02*
X16267776Y-13384484D01*
X16267776Y-13384484D02*
X16286824Y-13394008D01*
X16286824Y-13394008D02*
X16296347Y-13403531D01*
X16296347Y-13403531D02*
X16305871Y-13422579D01*
X16305871Y-13422579D02*
X16315395Y-13460674D01*
X16315395Y-13460674D02*
X16315395Y-13508293D01*
X16315395Y-13508293D02*
X16305871Y-13546388D01*
X16305871Y-13546388D02*
X16296347Y-13565436D01*
X16296347Y-13565436D02*
X16286824Y-13574960D01*
X16286824Y-13574960D02*
X16267776Y-13584484D01*
X16267776Y-13584484D02*
X16248728Y-13584484D01*
X16248728Y-13584484D02*
X16229681Y-13574960D01*
X16229681Y-13574960D02*
X16220157Y-13565436D01*
X16220157Y-13565436D02*
X16210633Y-13546388D01*
X16210633Y-13546388D02*
X16201109Y-13508293D01*
X16201109Y-13508293D02*
X16201109Y-13460674D01*
X16201109Y-13460674D02*
X16210633Y-13422579D01*
X16210633Y-13422579D02*
X16220157Y-13403531D01*
X16220157Y-13403531D02*
X16229681Y-13394008D01*
X16229681Y-13394008D02*
X16248728Y-13384484D01*
X16486824Y-13451150D02*
X16486824Y-13584484D01*
X16439205Y-13374960D02*
X16391586Y-13517817D01*
X16391586Y-13517817D02*
X16515395Y-13517817D01*
X16629681Y-13384484D02*
X16648728Y-13384484D01*
X16648728Y-13384484D02*
X16667776Y-13394008D01*
X16667776Y-13394008D02*
X16677300Y-13403531D01*
X16677300Y-13403531D02*
X16686824Y-13422579D01*
X16686824Y-13422579D02*
X16696347Y-13460674D01*
X16696347Y-13460674D02*
X16696347Y-13508293D01*
X16696347Y-13508293D02*
X16686824Y-13546388D01*
X16686824Y-13546388D02*
X16677300Y-13565436D01*
X16677300Y-13565436D02*
X16667776Y-13574960D01*
X16667776Y-13574960D02*
X16648728Y-13584484D01*
X16648728Y-13584484D02*
X16629681Y-13584484D01*
X16629681Y-13584484D02*
X16610633Y-13574960D01*
X16610633Y-13574960D02*
X16601109Y-13565436D01*
X16601109Y-13565436D02*
X16591586Y-13546388D01*
X16591586Y-13546388D02*
X16582062Y-13508293D01*
X16582062Y-13508293D02*
X16582062Y-13460674D01*
X16582062Y-13460674D02*
X16591586Y-13422579D01*
X16591586Y-13422579D02*
X16601109Y-13403531D01*
X16601109Y-13403531D02*
X16610633Y-13394008D01*
X16610633Y-13394008D02*
X16629681Y-13384484D01*
X16772538Y-13403531D02*
X16782062Y-13394008D01*
X16782062Y-13394008D02*
X16801109Y-13384484D01*
X16801109Y-13384484D02*
X16848729Y-13384484D01*
X16848729Y-13384484D02*
X16867776Y-13394008D01*
X16867776Y-13394008D02*
X16877300Y-13403531D01*
X16877300Y-13403531D02*
X16886824Y-13422579D01*
X16886824Y-13422579D02*
X16886824Y-13441627D01*
X16886824Y-13441627D02*
X16877300Y-13470198D01*
X16877300Y-13470198D02*
X16763014Y-13584484D01*
X16763014Y-13584484D02*
X16886824Y-13584484D01*
X16963014Y-13384484D02*
X16963014Y-13422579D01*
X17039205Y-13384484D02*
X17039205Y-13422579D01*
X17334443Y-13660674D02*
X17324919Y-13651150D01*
X17324919Y-13651150D02*
X17305871Y-13622579D01*
X17305871Y-13622579D02*
X17296348Y-13603531D01*
X17296348Y-13603531D02*
X17286824Y-13574960D01*
X17286824Y-13574960D02*
X17277300Y-13527341D01*
X17277300Y-13527341D02*
X17277300Y-13489246D01*
X17277300Y-13489246D02*
X17286824Y-13441627D01*
X17286824Y-13441627D02*
X17296348Y-13413055D01*
X17296348Y-13413055D02*
X17305871Y-13394008D01*
X17305871Y-13394008D02*
X17324919Y-13365436D01*
X17324919Y-13365436D02*
X17334443Y-13355912D01*
X17401110Y-13403531D02*
X17410633Y-13394008D01*
X17410633Y-13394008D02*
X17429681Y-13384484D01*
X17429681Y-13384484D02*
X17477300Y-13384484D01*
X17477300Y-13384484D02*
X17496348Y-13394008D01*
X17496348Y-13394008D02*
X17505871Y-13403531D01*
X17505871Y-13403531D02*
X17515395Y-13422579D01*
X17515395Y-13422579D02*
X17515395Y-13441627D01*
X17515395Y-13441627D02*
X17505871Y-13470198D01*
X17505871Y-13470198D02*
X17391586Y-13584484D01*
X17391586Y-13584484D02*
X17515395Y-13584484D01*
X17753491Y-13584484D02*
X17753491Y-13384484D01*
X17839205Y-13584484D02*
X17839205Y-13479722D01*
X17839205Y-13479722D02*
X17829681Y-13460674D01*
X17829681Y-13460674D02*
X17810633Y-13451150D01*
X17810633Y-13451150D02*
X17782062Y-13451150D01*
X17782062Y-13451150D02*
X17763014Y-13460674D01*
X17763014Y-13460674D02*
X17753491Y-13470198D01*
X17963014Y-13584484D02*
X17943967Y-13574960D01*
X17943967Y-13574960D02*
X17934443Y-13565436D01*
X17934443Y-13565436D02*
X17924919Y-13546388D01*
X17924919Y-13546388D02*
X17924919Y-13489246D01*
X17924919Y-13489246D02*
X17934443Y-13470198D01*
X17934443Y-13470198D02*
X17943967Y-13460674D01*
X17943967Y-13460674D02*
X17963014Y-13451150D01*
X17963014Y-13451150D02*
X17991586Y-13451150D01*
X17991586Y-13451150D02*
X18010633Y-13460674D01*
X18010633Y-13460674D02*
X18020157Y-13470198D01*
X18020157Y-13470198D02*
X18029681Y-13489246D01*
X18029681Y-13489246D02*
X18029681Y-13546388D01*
X18029681Y-13546388D02*
X18020157Y-13565436D01*
X18020157Y-13565436D02*
X18010633Y-13574960D01*
X18010633Y-13574960D02*
X17991586Y-13584484D01*
X17991586Y-13584484D02*
X17963014Y-13584484D01*
X18143967Y-13584484D02*
X18124919Y-13574960D01*
X18124919Y-13574960D02*
X18115395Y-13555912D01*
X18115395Y-13555912D02*
X18115395Y-13384484D01*
X18296348Y-13574960D02*
X18277300Y-13584484D01*
X18277300Y-13584484D02*
X18239205Y-13584484D01*
X18239205Y-13584484D02*
X18220157Y-13574960D01*
X18220157Y-13574960D02*
X18210633Y-13555912D01*
X18210633Y-13555912D02*
X18210633Y-13479722D01*
X18210633Y-13479722D02*
X18220157Y-13460674D01*
X18220157Y-13460674D02*
X18239205Y-13451150D01*
X18239205Y-13451150D02*
X18277300Y-13451150D01*
X18277300Y-13451150D02*
X18296348Y-13460674D01*
X18296348Y-13460674D02*
X18305872Y-13479722D01*
X18305872Y-13479722D02*
X18305872Y-13498769D01*
X18305872Y-13498769D02*
X18210633Y-13517817D01*
X18382062Y-13574960D02*
X18401110Y-13584484D01*
X18401110Y-13584484D02*
X18439205Y-13584484D01*
X18439205Y-13584484D02*
X18458253Y-13574960D01*
X18458253Y-13574960D02*
X18467776Y-13555912D01*
X18467776Y-13555912D02*
X18467776Y-13546388D01*
X18467776Y-13546388D02*
X18458253Y-13527341D01*
X18458253Y-13527341D02*
X18439205Y-13517817D01*
X18439205Y-13517817D02*
X18410633Y-13517817D01*
X18410633Y-13517817D02*
X18391586Y-13508293D01*
X18391586Y-13508293D02*
X18382062Y-13489246D01*
X18382062Y-13489246D02*
X18382062Y-13479722D01*
X18382062Y-13479722D02*
X18391586Y-13460674D01*
X18391586Y-13460674D02*
X18410633Y-13451150D01*
X18410633Y-13451150D02*
X18439205Y-13451150D01*
X18439205Y-13451150D02*
X18458253Y-13460674D01*
X18534443Y-13660674D02*
X18543967Y-13651150D01*
X18543967Y-13651150D02*
X18563014Y-13622579D01*
X18563014Y-13622579D02*
X18572538Y-13603531D01*
X18572538Y-13603531D02*
X18582062Y-13574960D01*
X18582062Y-13574960D02*
X18591586Y-13527341D01*
X18591586Y-13527341D02*
X18591586Y-13489246D01*
X18591586Y-13489246D02*
X18582062Y-13441627D01*
X18582062Y-13441627D02*
X18572538Y-13413055D01*
X18572538Y-13413055D02*
X18563014Y-13394008D01*
X18563014Y-13394008D02*
X18543967Y-13365436D01*
X18543967Y-13365436D02*
X18534443Y-13355912D01*
D14*
X13629380Y-13692000D02*
X13759380Y-13822000D01*
X13759380Y-13692000D02*
X13629380Y-13822000D01*
X13694380Y-13692000D02*
X13694380Y-13822000D01*
X13629380Y-13757000D02*
X13759380Y-13757000D01*
D11*
X14124919Y-13848484D02*
X14010633Y-13848484D01*
X14067776Y-13848484D02*
X14067776Y-13648484D01*
X14067776Y-13648484D02*
X14048728Y-13677055D01*
X14048728Y-13677055D02*
X14029681Y-13696103D01*
X14029681Y-13696103D02*
X14010633Y-13705627D01*
X14210633Y-13829436D02*
X14220157Y-13838960D01*
X14220157Y-13838960D02*
X14210633Y-13848484D01*
X14210633Y-13848484D02*
X14201109Y-13838960D01*
X14201109Y-13838960D02*
X14210633Y-13829436D01*
X14210633Y-13829436D02*
X14210633Y-13848484D01*
X14286823Y-13648484D02*
X14410633Y-13648484D01*
X14410633Y-13648484D02*
X14343966Y-13724674D01*
X14343966Y-13724674D02*
X14372538Y-13724674D01*
X14372538Y-13724674D02*
X14391585Y-13734198D01*
X14391585Y-13734198D02*
X14401109Y-13743722D01*
X14401109Y-13743722D02*
X14410633Y-13762769D01*
X14410633Y-13762769D02*
X14410633Y-13810388D01*
X14410633Y-13810388D02*
X14401109Y-13829436D01*
X14401109Y-13829436D02*
X14391585Y-13838960D01*
X14391585Y-13838960D02*
X14372538Y-13848484D01*
X14372538Y-13848484D02*
X14315395Y-13848484D01*
X14315395Y-13848484D02*
X14296347Y-13838960D01*
X14296347Y-13838960D02*
X14286823Y-13829436D01*
X14534442Y-13648484D02*
X14553490Y-13648484D01*
X14553490Y-13648484D02*
X14572538Y-13658008D01*
X14572538Y-13658008D02*
X14582062Y-13667531D01*
X14582062Y-13667531D02*
X14591585Y-13686579D01*
X14591585Y-13686579D02*
X14601109Y-13724674D01*
X14601109Y-13724674D02*
X14601109Y-13772293D01*
X14601109Y-13772293D02*
X14591585Y-13810388D01*
X14591585Y-13810388D02*
X14582062Y-13829436D01*
X14582062Y-13829436D02*
X14572538Y-13838960D01*
X14572538Y-13838960D02*
X14553490Y-13848484D01*
X14553490Y-13848484D02*
X14534442Y-13848484D01*
X14534442Y-13848484D02*
X14515395Y-13838960D01*
X14515395Y-13838960D02*
X14505871Y-13829436D01*
X14505871Y-13829436D02*
X14496347Y-13810388D01*
X14496347Y-13810388D02*
X14486823Y-13772293D01*
X14486823Y-13772293D02*
X14486823Y-13724674D01*
X14486823Y-13724674D02*
X14496347Y-13686579D01*
X14496347Y-13686579D02*
X14505871Y-13667531D01*
X14505871Y-13667531D02*
X14515395Y-13658008D01*
X14515395Y-13658008D02*
X14534442Y-13648484D01*
X14724919Y-13648484D02*
X14743966Y-13648484D01*
X14743966Y-13648484D02*
X14763014Y-13658008D01*
X14763014Y-13658008D02*
X14772538Y-13667531D01*
X14772538Y-13667531D02*
X14782062Y-13686579D01*
X14782062Y-13686579D02*
X14791585Y-13724674D01*
X14791585Y-13724674D02*
X14791585Y-13772293D01*
X14791585Y-13772293D02*
X14782062Y-13810388D01*
X14782062Y-13810388D02*
X14772538Y-13829436D01*
X14772538Y-13829436D02*
X14763014Y-13838960D01*
X14763014Y-13838960D02*
X14743966Y-13848484D01*
X14743966Y-13848484D02*
X14724919Y-13848484D01*
X14724919Y-13848484D02*
X14705871Y-13838960D01*
X14705871Y-13838960D02*
X14696347Y-13829436D01*
X14696347Y-13829436D02*
X14686823Y-13810388D01*
X14686823Y-13810388D02*
X14677300Y-13772293D01*
X14677300Y-13772293D02*
X14677300Y-13724674D01*
X14677300Y-13724674D02*
X14686823Y-13686579D01*
X14686823Y-13686579D02*
X14696347Y-13667531D01*
X14696347Y-13667531D02*
X14705871Y-13658008D01*
X14705871Y-13658008D02*
X14724919Y-13648484D01*
X14877300Y-13848484D02*
X14877300Y-13715150D01*
X14877300Y-13734198D02*
X14886823Y-13724674D01*
X14886823Y-13724674D02*
X14905871Y-13715150D01*
X14905871Y-13715150D02*
X14934443Y-13715150D01*
X14934443Y-13715150D02*
X14953490Y-13724674D01*
X14953490Y-13724674D02*
X14963014Y-13743722D01*
X14963014Y-13743722D02*
X14963014Y-13848484D01*
X14963014Y-13743722D02*
X14972538Y-13724674D01*
X14972538Y-13724674D02*
X14991585Y-13715150D01*
X14991585Y-13715150D02*
X15020157Y-13715150D01*
X15020157Y-13715150D02*
X15039204Y-13724674D01*
X15039204Y-13724674D02*
X15048728Y-13743722D01*
X15048728Y-13743722D02*
X15048728Y-13848484D01*
X15143966Y-13848484D02*
X15143966Y-13715150D01*
X15143966Y-13734198D02*
X15153490Y-13724674D01*
X15153490Y-13724674D02*
X15172538Y-13715150D01*
X15172538Y-13715150D02*
X15201109Y-13715150D01*
X15201109Y-13715150D02*
X15220157Y-13724674D01*
X15220157Y-13724674D02*
X15229681Y-13743722D01*
X15229681Y-13743722D02*
X15229681Y-13848484D01*
X15229681Y-13743722D02*
X15239204Y-13724674D01*
X15239204Y-13724674D02*
X15258252Y-13715150D01*
X15258252Y-13715150D02*
X15286823Y-13715150D01*
X15286823Y-13715150D02*
X15305871Y-13724674D01*
X15305871Y-13724674D02*
X15315395Y-13743722D01*
X15315395Y-13743722D02*
X15315395Y-13848484D01*
X15705871Y-13638960D02*
X15534443Y-13896103D01*
X15963014Y-13648484D02*
X15982062Y-13648484D01*
X15982062Y-13648484D02*
X16001109Y-13658008D01*
X16001109Y-13658008D02*
X16010633Y-13667531D01*
X16010633Y-13667531D02*
X16020157Y-13686579D01*
X16020157Y-13686579D02*
X16029681Y-13724674D01*
X16029681Y-13724674D02*
X16029681Y-13772293D01*
X16029681Y-13772293D02*
X16020157Y-13810388D01*
X16020157Y-13810388D02*
X16010633Y-13829436D01*
X16010633Y-13829436D02*
X16001109Y-13838960D01*
X16001109Y-13838960D02*
X15982062Y-13848484D01*
X15982062Y-13848484D02*
X15963014Y-13848484D01*
X15963014Y-13848484D02*
X15943966Y-13838960D01*
X15943966Y-13838960D02*
X15934443Y-13829436D01*
X15934443Y-13829436D02*
X15924919Y-13810388D01*
X15924919Y-13810388D02*
X15915395Y-13772293D01*
X15915395Y-13772293D02*
X15915395Y-13724674D01*
X15915395Y-13724674D02*
X15924919Y-13686579D01*
X15924919Y-13686579D02*
X15934443Y-13667531D01*
X15934443Y-13667531D02*
X15943966Y-13658008D01*
X15943966Y-13658008D02*
X15963014Y-13648484D01*
X16115395Y-13829436D02*
X16124919Y-13838960D01*
X16124919Y-13838960D02*
X16115395Y-13848484D01*
X16115395Y-13848484D02*
X16105871Y-13838960D01*
X16105871Y-13838960D02*
X16115395Y-13829436D01*
X16115395Y-13829436D02*
X16115395Y-13848484D01*
X16248728Y-13648484D02*
X16267776Y-13648484D01*
X16267776Y-13648484D02*
X16286824Y-13658008D01*
X16286824Y-13658008D02*
X16296347Y-13667531D01*
X16296347Y-13667531D02*
X16305871Y-13686579D01*
X16305871Y-13686579D02*
X16315395Y-13724674D01*
X16315395Y-13724674D02*
X16315395Y-13772293D01*
X16315395Y-13772293D02*
X16305871Y-13810388D01*
X16305871Y-13810388D02*
X16296347Y-13829436D01*
X16296347Y-13829436D02*
X16286824Y-13838960D01*
X16286824Y-13838960D02*
X16267776Y-13848484D01*
X16267776Y-13848484D02*
X16248728Y-13848484D01*
X16248728Y-13848484D02*
X16229681Y-13838960D01*
X16229681Y-13838960D02*
X16220157Y-13829436D01*
X16220157Y-13829436D02*
X16210633Y-13810388D01*
X16210633Y-13810388D02*
X16201109Y-13772293D01*
X16201109Y-13772293D02*
X16201109Y-13724674D01*
X16201109Y-13724674D02*
X16210633Y-13686579D01*
X16210633Y-13686579D02*
X16220157Y-13667531D01*
X16220157Y-13667531D02*
X16229681Y-13658008D01*
X16229681Y-13658008D02*
X16248728Y-13648484D01*
X16496347Y-13648484D02*
X16401109Y-13648484D01*
X16401109Y-13648484D02*
X16391586Y-13743722D01*
X16391586Y-13743722D02*
X16401109Y-13734198D01*
X16401109Y-13734198D02*
X16420157Y-13724674D01*
X16420157Y-13724674D02*
X16467776Y-13724674D01*
X16467776Y-13724674D02*
X16486824Y-13734198D01*
X16486824Y-13734198D02*
X16496347Y-13743722D01*
X16496347Y-13743722D02*
X16505871Y-13762769D01*
X16505871Y-13762769D02*
X16505871Y-13810388D01*
X16505871Y-13810388D02*
X16496347Y-13829436D01*
X16496347Y-13829436D02*
X16486824Y-13838960D01*
X16486824Y-13838960D02*
X16467776Y-13848484D01*
X16467776Y-13848484D02*
X16420157Y-13848484D01*
X16420157Y-13848484D02*
X16401109Y-13838960D01*
X16401109Y-13838960D02*
X16391586Y-13829436D01*
X16696347Y-13848484D02*
X16582062Y-13848484D01*
X16639205Y-13848484D02*
X16639205Y-13648484D01*
X16639205Y-13648484D02*
X16620157Y-13677055D01*
X16620157Y-13677055D02*
X16601109Y-13696103D01*
X16601109Y-13696103D02*
X16582062Y-13705627D01*
X16772538Y-13667531D02*
X16782062Y-13658008D01*
X16782062Y-13658008D02*
X16801109Y-13648484D01*
X16801109Y-13648484D02*
X16848729Y-13648484D01*
X16848729Y-13648484D02*
X16867776Y-13658008D01*
X16867776Y-13658008D02*
X16877300Y-13667531D01*
X16877300Y-13667531D02*
X16886824Y-13686579D01*
X16886824Y-13686579D02*
X16886824Y-13705627D01*
X16886824Y-13705627D02*
X16877300Y-13734198D01*
X16877300Y-13734198D02*
X16763014Y-13848484D01*
X16763014Y-13848484D02*
X16886824Y-13848484D01*
X16963014Y-13648484D02*
X16963014Y-13686579D01*
X17039205Y-13648484D02*
X17039205Y-13686579D01*
X17334443Y-13924674D02*
X17324919Y-13915150D01*
X17324919Y-13915150D02*
X17305871Y-13886579D01*
X17305871Y-13886579D02*
X17296348Y-13867531D01*
X17296348Y-13867531D02*
X17286824Y-13838960D01*
X17286824Y-13838960D02*
X17277300Y-13791341D01*
X17277300Y-13791341D02*
X17277300Y-13753246D01*
X17277300Y-13753246D02*
X17286824Y-13705627D01*
X17286824Y-13705627D02*
X17296348Y-13677055D01*
X17296348Y-13677055D02*
X17305871Y-13658008D01*
X17305871Y-13658008D02*
X17324919Y-13629436D01*
X17324919Y-13629436D02*
X17334443Y-13619912D01*
X17496348Y-13715150D02*
X17496348Y-13848484D01*
X17448729Y-13638960D02*
X17401110Y-13781817D01*
X17401110Y-13781817D02*
X17524919Y-13781817D01*
X17753491Y-13848484D02*
X17753491Y-13648484D01*
X17839205Y-13848484D02*
X17839205Y-13743722D01*
X17839205Y-13743722D02*
X17829681Y-13724674D01*
X17829681Y-13724674D02*
X17810633Y-13715150D01*
X17810633Y-13715150D02*
X17782062Y-13715150D01*
X17782062Y-13715150D02*
X17763014Y-13724674D01*
X17763014Y-13724674D02*
X17753491Y-13734198D01*
X17963014Y-13848484D02*
X17943967Y-13838960D01*
X17943967Y-13838960D02*
X17934443Y-13829436D01*
X17934443Y-13829436D02*
X17924919Y-13810388D01*
X17924919Y-13810388D02*
X17924919Y-13753246D01*
X17924919Y-13753246D02*
X17934443Y-13734198D01*
X17934443Y-13734198D02*
X17943967Y-13724674D01*
X17943967Y-13724674D02*
X17963014Y-13715150D01*
X17963014Y-13715150D02*
X17991586Y-13715150D01*
X17991586Y-13715150D02*
X18010633Y-13724674D01*
X18010633Y-13724674D02*
X18020157Y-13734198D01*
X18020157Y-13734198D02*
X18029681Y-13753246D01*
X18029681Y-13753246D02*
X18029681Y-13810388D01*
X18029681Y-13810388D02*
X18020157Y-13829436D01*
X18020157Y-13829436D02*
X18010633Y-13838960D01*
X18010633Y-13838960D02*
X17991586Y-13848484D01*
X17991586Y-13848484D02*
X17963014Y-13848484D01*
X18143967Y-13848484D02*
X18124919Y-13838960D01*
X18124919Y-13838960D02*
X18115395Y-13819912D01*
X18115395Y-13819912D02*
X18115395Y-13648484D01*
X18296348Y-13838960D02*
X18277300Y-13848484D01*
X18277300Y-13848484D02*
X18239205Y-13848484D01*
X18239205Y-13848484D02*
X18220157Y-13838960D01*
X18220157Y-13838960D02*
X18210633Y-13819912D01*
X18210633Y-13819912D02*
X18210633Y-13743722D01*
X18210633Y-13743722D02*
X18220157Y-13724674D01*
X18220157Y-13724674D02*
X18239205Y-13715150D01*
X18239205Y-13715150D02*
X18277300Y-13715150D01*
X18277300Y-13715150D02*
X18296348Y-13724674D01*
X18296348Y-13724674D02*
X18305872Y-13743722D01*
X18305872Y-13743722D02*
X18305872Y-13762769D01*
X18305872Y-13762769D02*
X18210633Y-13781817D01*
X18382062Y-13838960D02*
X18401110Y-13848484D01*
X18401110Y-13848484D02*
X18439205Y-13848484D01*
X18439205Y-13848484D02*
X18458253Y-13838960D01*
X18458253Y-13838960D02*
X18467776Y-13819912D01*
X18467776Y-13819912D02*
X18467776Y-13810388D01*
X18467776Y-13810388D02*
X18458253Y-13791341D01*
X18458253Y-13791341D02*
X18439205Y-13781817D01*
X18439205Y-13781817D02*
X18410633Y-13781817D01*
X18410633Y-13781817D02*
X18391586Y-13772293D01*
X18391586Y-13772293D02*
X18382062Y-13753246D01*
X18382062Y-13753246D02*
X18382062Y-13743722D01*
X18382062Y-13743722D02*
X18391586Y-13724674D01*
X18391586Y-13724674D02*
X18410633Y-13715150D01*
X18410633Y-13715150D02*
X18439205Y-13715150D01*
X18439205Y-13715150D02*
X18458253Y-13724674D01*
X18534443Y-13924674D02*
X18543967Y-13915150D01*
X18543967Y-13915150D02*
X18563014Y-13886579D01*
X18563014Y-13886579D02*
X18572538Y-13867531D01*
X18572538Y-13867531D02*
X18582062Y-13838960D01*
X18582062Y-13838960D02*
X18591586Y-13791341D01*
X18591586Y-13791341D02*
X18591586Y-13753246D01*
X18591586Y-13753246D02*
X18582062Y-13705627D01*
X18582062Y-13705627D02*
X18572538Y-13677055D01*
X18572538Y-13677055D02*
X18563014Y-13658008D01*
X18563014Y-13658008D02*
X18543967Y-13629436D01*
X18543967Y-13629436D02*
X18534443Y-13619912D01*
X13559380Y-13921000D02*
X13759380Y-14121000D01*
X13759380Y-13921000D02*
X13559380Y-14121000D01*
X13730091Y-14091711D02*
X13730091Y-13950289D01*
X13588669Y-13950289D01*
X13588669Y-14091711D01*
X13730091Y-14091711D01*
X14001109Y-13912484D02*
X14124919Y-13912484D01*
X14124919Y-13912484D02*
X14058252Y-13988674D01*
X14058252Y-13988674D02*
X14086823Y-13988674D01*
X14086823Y-13988674D02*
X14105871Y-13998198D01*
X14105871Y-13998198D02*
X14115395Y-14007722D01*
X14115395Y-14007722D02*
X14124919Y-14026769D01*
X14124919Y-14026769D02*
X14124919Y-14074388D01*
X14124919Y-14074388D02*
X14115395Y-14093436D01*
X14115395Y-14093436D02*
X14105871Y-14102960D01*
X14105871Y-14102960D02*
X14086823Y-14112484D01*
X14086823Y-14112484D02*
X14029681Y-14112484D01*
X14029681Y-14112484D02*
X14010633Y-14102960D01*
X14010633Y-14102960D02*
X14001109Y-14093436D01*
X14210633Y-14093436D02*
X14220157Y-14102960D01*
X14220157Y-14102960D02*
X14210633Y-14112484D01*
X14210633Y-14112484D02*
X14201109Y-14102960D01*
X14201109Y-14102960D02*
X14210633Y-14093436D01*
X14210633Y-14093436D02*
X14210633Y-14112484D01*
X14401109Y-13912484D02*
X14305871Y-13912484D01*
X14305871Y-13912484D02*
X14296347Y-14007722D01*
X14296347Y-14007722D02*
X14305871Y-13998198D01*
X14305871Y-13998198D02*
X14324919Y-13988674D01*
X14324919Y-13988674D02*
X14372538Y-13988674D01*
X14372538Y-13988674D02*
X14391585Y-13998198D01*
X14391585Y-13998198D02*
X14401109Y-14007722D01*
X14401109Y-14007722D02*
X14410633Y-14026769D01*
X14410633Y-14026769D02*
X14410633Y-14074388D01*
X14410633Y-14074388D02*
X14401109Y-14093436D01*
X14401109Y-14093436D02*
X14391585Y-14102960D01*
X14391585Y-14102960D02*
X14372538Y-14112484D01*
X14372538Y-14112484D02*
X14324919Y-14112484D01*
X14324919Y-14112484D02*
X14305871Y-14102960D01*
X14305871Y-14102960D02*
X14296347Y-14093436D01*
X14534442Y-13912484D02*
X14553490Y-13912484D01*
X14553490Y-13912484D02*
X14572538Y-13922008D01*
X14572538Y-13922008D02*
X14582062Y-13931531D01*
X14582062Y-13931531D02*
X14591585Y-13950579D01*
X14591585Y-13950579D02*
X14601109Y-13988674D01*
X14601109Y-13988674D02*
X14601109Y-14036293D01*
X14601109Y-14036293D02*
X14591585Y-14074388D01*
X14591585Y-14074388D02*
X14582062Y-14093436D01*
X14582062Y-14093436D02*
X14572538Y-14102960D01*
X14572538Y-14102960D02*
X14553490Y-14112484D01*
X14553490Y-14112484D02*
X14534442Y-14112484D01*
X14534442Y-14112484D02*
X14515395Y-14102960D01*
X14515395Y-14102960D02*
X14505871Y-14093436D01*
X14505871Y-14093436D02*
X14496347Y-14074388D01*
X14496347Y-14074388D02*
X14486823Y-14036293D01*
X14486823Y-14036293D02*
X14486823Y-13988674D01*
X14486823Y-13988674D02*
X14496347Y-13950579D01*
X14496347Y-13950579D02*
X14505871Y-13931531D01*
X14505871Y-13931531D02*
X14515395Y-13922008D01*
X14515395Y-13922008D02*
X14534442Y-13912484D01*
X14724919Y-13912484D02*
X14743966Y-13912484D01*
X14743966Y-13912484D02*
X14763014Y-13922008D01*
X14763014Y-13922008D02*
X14772538Y-13931531D01*
X14772538Y-13931531D02*
X14782062Y-13950579D01*
X14782062Y-13950579D02*
X14791585Y-13988674D01*
X14791585Y-13988674D02*
X14791585Y-14036293D01*
X14791585Y-14036293D02*
X14782062Y-14074388D01*
X14782062Y-14074388D02*
X14772538Y-14093436D01*
X14772538Y-14093436D02*
X14763014Y-14102960D01*
X14763014Y-14102960D02*
X14743966Y-14112484D01*
X14743966Y-14112484D02*
X14724919Y-14112484D01*
X14724919Y-14112484D02*
X14705871Y-14102960D01*
X14705871Y-14102960D02*
X14696347Y-14093436D01*
X14696347Y-14093436D02*
X14686823Y-14074388D01*
X14686823Y-14074388D02*
X14677300Y-14036293D01*
X14677300Y-14036293D02*
X14677300Y-13988674D01*
X14677300Y-13988674D02*
X14686823Y-13950579D01*
X14686823Y-13950579D02*
X14696347Y-13931531D01*
X14696347Y-13931531D02*
X14705871Y-13922008D01*
X14705871Y-13922008D02*
X14724919Y-13912484D01*
X14877300Y-14112484D02*
X14877300Y-13979150D01*
X14877300Y-13998198D02*
X14886823Y-13988674D01*
X14886823Y-13988674D02*
X14905871Y-13979150D01*
X14905871Y-13979150D02*
X14934443Y-13979150D01*
X14934443Y-13979150D02*
X14953490Y-13988674D01*
X14953490Y-13988674D02*
X14963014Y-14007722D01*
X14963014Y-14007722D02*
X14963014Y-14112484D01*
X14963014Y-14007722D02*
X14972538Y-13988674D01*
X14972538Y-13988674D02*
X14991585Y-13979150D01*
X14991585Y-13979150D02*
X15020157Y-13979150D01*
X15020157Y-13979150D02*
X15039204Y-13988674D01*
X15039204Y-13988674D02*
X15048728Y-14007722D01*
X15048728Y-14007722D02*
X15048728Y-14112484D01*
X15143966Y-14112484D02*
X15143966Y-13979150D01*
X15143966Y-13998198D02*
X15153490Y-13988674D01*
X15153490Y-13988674D02*
X15172538Y-13979150D01*
X15172538Y-13979150D02*
X15201109Y-13979150D01*
X15201109Y-13979150D02*
X15220157Y-13988674D01*
X15220157Y-13988674D02*
X15229681Y-14007722D01*
X15229681Y-14007722D02*
X15229681Y-14112484D01*
X15229681Y-14007722D02*
X15239204Y-13988674D01*
X15239204Y-13988674D02*
X15258252Y-13979150D01*
X15258252Y-13979150D02*
X15286823Y-13979150D01*
X15286823Y-13979150D02*
X15305871Y-13988674D01*
X15305871Y-13988674D02*
X15315395Y-14007722D01*
X15315395Y-14007722D02*
X15315395Y-14112484D01*
X15705871Y-13902960D02*
X15534443Y-14160103D01*
X15963014Y-13912484D02*
X15982062Y-13912484D01*
X15982062Y-13912484D02*
X16001109Y-13922008D01*
X16001109Y-13922008D02*
X16010633Y-13931531D01*
X16010633Y-13931531D02*
X16020157Y-13950579D01*
X16020157Y-13950579D02*
X16029681Y-13988674D01*
X16029681Y-13988674D02*
X16029681Y-14036293D01*
X16029681Y-14036293D02*
X16020157Y-14074388D01*
X16020157Y-14074388D02*
X16010633Y-14093436D01*
X16010633Y-14093436D02*
X16001109Y-14102960D01*
X16001109Y-14102960D02*
X15982062Y-14112484D01*
X15982062Y-14112484D02*
X15963014Y-14112484D01*
X15963014Y-14112484D02*
X15943966Y-14102960D01*
X15943966Y-14102960D02*
X15934443Y-14093436D01*
X15934443Y-14093436D02*
X15924919Y-14074388D01*
X15924919Y-14074388D02*
X15915395Y-14036293D01*
X15915395Y-14036293D02*
X15915395Y-13988674D01*
X15915395Y-13988674D02*
X15924919Y-13950579D01*
X15924919Y-13950579D02*
X15934443Y-13931531D01*
X15934443Y-13931531D02*
X15943966Y-13922008D01*
X15943966Y-13922008D02*
X15963014Y-13912484D01*
X16115395Y-14093436D02*
X16124919Y-14102960D01*
X16124919Y-14102960D02*
X16115395Y-14112484D01*
X16115395Y-14112484D02*
X16105871Y-14102960D01*
X16105871Y-14102960D02*
X16115395Y-14093436D01*
X16115395Y-14093436D02*
X16115395Y-14112484D01*
X16315395Y-14112484D02*
X16201109Y-14112484D01*
X16258252Y-14112484D02*
X16258252Y-13912484D01*
X16258252Y-13912484D02*
X16239205Y-13941055D01*
X16239205Y-13941055D02*
X16220157Y-13960103D01*
X16220157Y-13960103D02*
X16201109Y-13969627D01*
X16382062Y-13912484D02*
X16505871Y-13912484D01*
X16505871Y-13912484D02*
X16439205Y-13988674D01*
X16439205Y-13988674D02*
X16467776Y-13988674D01*
X16467776Y-13988674D02*
X16486824Y-13998198D01*
X16486824Y-13998198D02*
X16496347Y-14007722D01*
X16496347Y-14007722D02*
X16505871Y-14026769D01*
X16505871Y-14026769D02*
X16505871Y-14074388D01*
X16505871Y-14074388D02*
X16496347Y-14093436D01*
X16496347Y-14093436D02*
X16486824Y-14102960D01*
X16486824Y-14102960D02*
X16467776Y-14112484D01*
X16467776Y-14112484D02*
X16410633Y-14112484D01*
X16410633Y-14112484D02*
X16391586Y-14102960D01*
X16391586Y-14102960D02*
X16382062Y-14093436D01*
X16572538Y-13912484D02*
X16705871Y-13912484D01*
X16705871Y-13912484D02*
X16620157Y-14112484D01*
X16810633Y-13998198D02*
X16791586Y-13988674D01*
X16791586Y-13988674D02*
X16782062Y-13979150D01*
X16782062Y-13979150D02*
X16772538Y-13960103D01*
X16772538Y-13960103D02*
X16772538Y-13950579D01*
X16772538Y-13950579D02*
X16782062Y-13931531D01*
X16782062Y-13931531D02*
X16791586Y-13922008D01*
X16791586Y-13922008D02*
X16810633Y-13912484D01*
X16810633Y-13912484D02*
X16848729Y-13912484D01*
X16848729Y-13912484D02*
X16867776Y-13922008D01*
X16867776Y-13922008D02*
X16877300Y-13931531D01*
X16877300Y-13931531D02*
X16886824Y-13950579D01*
X16886824Y-13950579D02*
X16886824Y-13960103D01*
X16886824Y-13960103D02*
X16877300Y-13979150D01*
X16877300Y-13979150D02*
X16867776Y-13988674D01*
X16867776Y-13988674D02*
X16848729Y-13998198D01*
X16848729Y-13998198D02*
X16810633Y-13998198D01*
X16810633Y-13998198D02*
X16791586Y-14007722D01*
X16791586Y-14007722D02*
X16782062Y-14017246D01*
X16782062Y-14017246D02*
X16772538Y-14036293D01*
X16772538Y-14036293D02*
X16772538Y-14074388D01*
X16772538Y-14074388D02*
X16782062Y-14093436D01*
X16782062Y-14093436D02*
X16791586Y-14102960D01*
X16791586Y-14102960D02*
X16810633Y-14112484D01*
X16810633Y-14112484D02*
X16848729Y-14112484D01*
X16848729Y-14112484D02*
X16867776Y-14102960D01*
X16867776Y-14102960D02*
X16877300Y-14093436D01*
X16877300Y-14093436D02*
X16886824Y-14074388D01*
X16886824Y-14074388D02*
X16886824Y-14036293D01*
X16886824Y-14036293D02*
X16877300Y-14017246D01*
X16877300Y-14017246D02*
X16867776Y-14007722D01*
X16867776Y-14007722D02*
X16848729Y-13998198D01*
X16963014Y-13912484D02*
X16963014Y-13950579D01*
X17039205Y-13912484D02*
X17039205Y-13950579D01*
X17334443Y-14188674D02*
X17324919Y-14179150D01*
X17324919Y-14179150D02*
X17305871Y-14150579D01*
X17305871Y-14150579D02*
X17296348Y-14131531D01*
X17296348Y-14131531D02*
X17286824Y-14102960D01*
X17286824Y-14102960D02*
X17277300Y-14055341D01*
X17277300Y-14055341D02*
X17277300Y-14017246D01*
X17277300Y-14017246D02*
X17286824Y-13969627D01*
X17286824Y-13969627D02*
X17296348Y-13941055D01*
X17296348Y-13941055D02*
X17305871Y-13922008D01*
X17305871Y-13922008D02*
X17324919Y-13893436D01*
X17324919Y-13893436D02*
X17334443Y-13883912D01*
X17515395Y-14112484D02*
X17401110Y-14112484D01*
X17458252Y-14112484D02*
X17458252Y-13912484D01*
X17458252Y-13912484D02*
X17439205Y-13941055D01*
X17439205Y-13941055D02*
X17420157Y-13960103D01*
X17420157Y-13960103D02*
X17401110Y-13969627D01*
X17753491Y-14112484D02*
X17753491Y-13912484D01*
X17839205Y-14112484D02*
X17839205Y-14007722D01*
X17839205Y-14007722D02*
X17829681Y-13988674D01*
X17829681Y-13988674D02*
X17810633Y-13979150D01*
X17810633Y-13979150D02*
X17782062Y-13979150D01*
X17782062Y-13979150D02*
X17763014Y-13988674D01*
X17763014Y-13988674D02*
X17753491Y-13998198D01*
X17963014Y-14112484D02*
X17943967Y-14102960D01*
X17943967Y-14102960D02*
X17934443Y-14093436D01*
X17934443Y-14093436D02*
X17924919Y-14074388D01*
X17924919Y-14074388D02*
X17924919Y-14017246D01*
X17924919Y-14017246D02*
X17934443Y-13998198D01*
X17934443Y-13998198D02*
X17943967Y-13988674D01*
X17943967Y-13988674D02*
X17963014Y-13979150D01*
X17963014Y-13979150D02*
X17991586Y-13979150D01*
X17991586Y-13979150D02*
X18010633Y-13988674D01*
X18010633Y-13988674D02*
X18020157Y-13998198D01*
X18020157Y-13998198D02*
X18029681Y-14017246D01*
X18029681Y-14017246D02*
X18029681Y-14074388D01*
X18029681Y-14074388D02*
X18020157Y-14093436D01*
X18020157Y-14093436D02*
X18010633Y-14102960D01*
X18010633Y-14102960D02*
X17991586Y-14112484D01*
X17991586Y-14112484D02*
X17963014Y-14112484D01*
X18143967Y-14112484D02*
X18124919Y-14102960D01*
X18124919Y-14102960D02*
X18115395Y-14083912D01*
X18115395Y-14083912D02*
X18115395Y-13912484D01*
X18296348Y-14102960D02*
X18277300Y-14112484D01*
X18277300Y-14112484D02*
X18239205Y-14112484D01*
X18239205Y-14112484D02*
X18220157Y-14102960D01*
X18220157Y-14102960D02*
X18210633Y-14083912D01*
X18210633Y-14083912D02*
X18210633Y-14007722D01*
X18210633Y-14007722D02*
X18220157Y-13988674D01*
X18220157Y-13988674D02*
X18239205Y-13979150D01*
X18239205Y-13979150D02*
X18277300Y-13979150D01*
X18277300Y-13979150D02*
X18296348Y-13988674D01*
X18296348Y-13988674D02*
X18305872Y-14007722D01*
X18305872Y-14007722D02*
X18305872Y-14026769D01*
X18305872Y-14026769D02*
X18210633Y-14045817D01*
X18372538Y-14188674D02*
X18382062Y-14179150D01*
X18382062Y-14179150D02*
X18401110Y-14150579D01*
X18401110Y-14150579D02*
X18410633Y-14131531D01*
X18410633Y-14131531D02*
X18420157Y-14102960D01*
X18420157Y-14102960D02*
X18429681Y-14055341D01*
X18429681Y-14055341D02*
X18429681Y-14017246D01*
X18429681Y-14017246D02*
X18420157Y-13969627D01*
X18420157Y-13969627D02*
X18410633Y-13941055D01*
X18410633Y-13941055D02*
X18401110Y-13922008D01*
X18401110Y-13922008D02*
X18382062Y-13893436D01*
X18382062Y-13893436D02*
X18372538Y-13883912D01*
M02*
