%TF.GenerationSoftware,KiCad,Pcbnew,8.0.6*%
%TF.CreationDate,2024-11-19T21:59:37-05:00*%
%TF.ProjectId,data_aquisition_module,64617461-5f61-4717-9569-736974696f6e,rev?*%
%TF.SameCoordinates,Original*%
%TF.FileFunction,Drillmap*%
%TF.FilePolarity,Positive*%
%FSLAX45Y45*%
G04 Gerber Fmt 4.5, Leading zero omitted, Abs format (unit mm)*
G04 Created by KiCad (PCBNEW 8.0.6) date 2024-11-19 21:59:37*
%MOMM*%
%LPD*%
G01*
G04 APERTURE LIST*
%ADD10C,0.050000*%
%ADD11C,0.100000*%
%ADD12C,0.200000*%
G04 APERTURE END LIST*
D10*
X16500000Y-11090000D02*
G75*
G02*
X16200000Y-11390000I-300000J0D01*
G01*
X16200000Y-7950000D02*
G75*
G02*
X16500000Y-8250000I0J-300000D01*
G01*
X16200000Y-11390000D02*
X8745000Y-11385000D01*
X8745000Y-7955000D02*
X16200000Y-7950000D01*
X16500000Y-8250000D02*
X16500000Y-11090000D01*
D11*
X7905000Y-8005000D02*
X7905000Y-9025000D01*
X7905000Y-9315000D02*
X7905000Y-11335000D01*
X7955000Y-7955000D02*
X7905000Y-8005000D01*
X7955000Y-9075000D02*
X7905000Y-9025000D01*
X7955000Y-9265000D02*
X7905000Y-9315000D01*
X7955000Y-11385000D02*
X7905000Y-11335000D01*
X8650000Y-9075000D02*
X7955000Y-9075000D01*
X8650000Y-9265000D02*
X7955000Y-9265000D01*
X8745000Y-7955000D02*
X7955000Y-7955000D01*
X8745000Y-11385000D02*
X7955000Y-11385000D01*
X8650000Y-9075000D02*
G75*
G02*
X8650000Y-9265000I0J-95000D01*
G01*
D12*
X8160777Y-11703984D02*
X8160777Y-11503984D01*
X8160777Y-11503984D02*
X8208396Y-11503984D01*
X8208396Y-11503984D02*
X8236967Y-11513508D01*
X8236967Y-11513508D02*
X8256015Y-11532555D01*
X8256015Y-11532555D02*
X8265539Y-11551603D01*
X8265539Y-11551603D02*
X8275062Y-11589698D01*
X8275062Y-11589698D02*
X8275062Y-11618269D01*
X8275062Y-11618269D02*
X8265539Y-11656365D01*
X8265539Y-11656365D02*
X8256015Y-11675412D01*
X8256015Y-11675412D02*
X8236967Y-11694460D01*
X8236967Y-11694460D02*
X8208396Y-11703984D01*
X8208396Y-11703984D02*
X8160777Y-11703984D01*
X8360777Y-11703984D02*
X8360777Y-11570650D01*
X8360777Y-11608746D02*
X8370301Y-11589698D01*
X8370301Y-11589698D02*
X8379824Y-11580174D01*
X8379824Y-11580174D02*
X8398872Y-11570650D01*
X8398872Y-11570650D02*
X8417920Y-11570650D01*
X8484586Y-11703984D02*
X8484586Y-11570650D01*
X8484586Y-11503984D02*
X8475063Y-11513508D01*
X8475063Y-11513508D02*
X8484586Y-11523031D01*
X8484586Y-11523031D02*
X8494110Y-11513508D01*
X8494110Y-11513508D02*
X8484586Y-11503984D01*
X8484586Y-11503984D02*
X8484586Y-11523031D01*
X8608396Y-11703984D02*
X8589348Y-11694460D01*
X8589348Y-11694460D02*
X8579824Y-11675412D01*
X8579824Y-11675412D02*
X8579824Y-11503984D01*
X8713158Y-11703984D02*
X8694110Y-11694460D01*
X8694110Y-11694460D02*
X8684586Y-11675412D01*
X8684586Y-11675412D02*
X8684586Y-11503984D01*
X8941729Y-11703984D02*
X8941729Y-11503984D01*
X8941729Y-11503984D02*
X9008396Y-11646841D01*
X9008396Y-11646841D02*
X9075063Y-11503984D01*
X9075063Y-11503984D02*
X9075063Y-11703984D01*
X9256015Y-11703984D02*
X9256015Y-11599222D01*
X9256015Y-11599222D02*
X9246491Y-11580174D01*
X9246491Y-11580174D02*
X9227444Y-11570650D01*
X9227444Y-11570650D02*
X9189348Y-11570650D01*
X9189348Y-11570650D02*
X9170301Y-11580174D01*
X9256015Y-11694460D02*
X9236967Y-11703984D01*
X9236967Y-11703984D02*
X9189348Y-11703984D01*
X9189348Y-11703984D02*
X9170301Y-11694460D01*
X9170301Y-11694460D02*
X9160777Y-11675412D01*
X9160777Y-11675412D02*
X9160777Y-11656365D01*
X9160777Y-11656365D02*
X9170301Y-11637317D01*
X9170301Y-11637317D02*
X9189348Y-11627793D01*
X9189348Y-11627793D02*
X9236967Y-11627793D01*
X9236967Y-11627793D02*
X9256015Y-11618269D01*
X9351253Y-11570650D02*
X9351253Y-11770650D01*
X9351253Y-11580174D02*
X9370301Y-11570650D01*
X9370301Y-11570650D02*
X9408396Y-11570650D01*
X9408396Y-11570650D02*
X9427444Y-11580174D01*
X9427444Y-11580174D02*
X9436967Y-11589698D01*
X9436967Y-11589698D02*
X9446491Y-11608746D01*
X9446491Y-11608746D02*
X9446491Y-11665888D01*
X9446491Y-11665888D02*
X9436967Y-11684936D01*
X9436967Y-11684936D02*
X9427444Y-11694460D01*
X9427444Y-11694460D02*
X9408396Y-11703984D01*
X9408396Y-11703984D02*
X9370301Y-11703984D01*
X9370301Y-11703984D02*
X9351253Y-11694460D01*
X9532205Y-11684936D02*
X9541729Y-11694460D01*
X9541729Y-11694460D02*
X9532205Y-11703984D01*
X9532205Y-11703984D02*
X9522682Y-11694460D01*
X9522682Y-11694460D02*
X9532205Y-11684936D01*
X9532205Y-11684936D02*
X9532205Y-11703984D01*
X9532205Y-11580174D02*
X9541729Y-11589698D01*
X9541729Y-11589698D02*
X9532205Y-11599222D01*
X9532205Y-11599222D02*
X9522682Y-11589698D01*
X9522682Y-11589698D02*
X9532205Y-11580174D01*
X9532205Y-11580174D02*
X9532205Y-11599222D01*
M02*
