G04 #@! TF.GenerationSoftware,KiCad,Pcbnew,8.0.6*
G04 #@! TF.CreationDate,2024-11-19T21:59:21-05:00*
G04 #@! TF.ProjectId,data_aquisition_module,64617461-5f61-4717-9569-736974696f6e,rev?*
G04 #@! TF.SameCoordinates,Original*
G04 #@! TF.FileFunction,Soldermask,Bot*
G04 #@! TF.FilePolarity,Negative*
%FSLAX46Y46*%
G04 Gerber Fmt 4.6, Leading zero omitted, Abs format (unit mm)*
G04 Created by KiCad (PCBNEW 8.0.6) date 2024-11-19 21:59:21*
%MOMM*%
%LPD*%
G01*
G04 APERTURE LIST*
%ADD10C,0.000000*%
%ADD11C,5.703199*%
%ADD12C,7.453198*%
%ADD13O,3.200000X0.700000*%
%ADD14O,4.300000X0.700000*%
G04 APERTURE END LIST*
D10*
G36*
X162200000Y-86161323D02*
G01*
X162200000Y-86690041D01*
X162200000Y-90198147D01*
X154199942Y-90198147D01*
X154199942Y-85613914D01*
X155535781Y-85613914D01*
X155535858Y-85615287D01*
X155536048Y-85616662D01*
X155536353Y-85618034D01*
X155536776Y-85619394D01*
X155537321Y-85620736D01*
X155537991Y-85622054D01*
X155538789Y-85623340D01*
X155539717Y-85624587D01*
X155540780Y-85625789D01*
X155541980Y-85626939D01*
X155543320Y-85628029D01*
X155541438Y-85628029D01*
X155669155Y-85716878D01*
X155850560Y-85849162D01*
X156070903Y-86020340D01*
X156191066Y-86119095D01*
X156315433Y-86225870D01*
X156442159Y-86340097D01*
X156569400Y-86461209D01*
X156695312Y-86588638D01*
X156818053Y-86721816D01*
X156935777Y-86860176D01*
X157046642Y-87003149D01*
X157098925Y-87076188D01*
X157148803Y-87150168D01*
X157196043Y-87225018D01*
X157240416Y-87300666D01*
X157241122Y-87301701D01*
X157241834Y-87302690D01*
X157242557Y-87303630D01*
X157243297Y-87304517D01*
X157244058Y-87305349D01*
X157244848Y-87306123D01*
X157245670Y-87306836D01*
X157246095Y-87307169D01*
X157246531Y-87307486D01*
X157246977Y-87307786D01*
X157247436Y-87308070D01*
X157247906Y-87308336D01*
X157248390Y-87308585D01*
X157248888Y-87308815D01*
X157249400Y-87309028D01*
X157249927Y-87309222D01*
X157250470Y-87309397D01*
X157251030Y-87309552D01*
X157251606Y-87309688D01*
X157252201Y-87309804D01*
X157252814Y-87309900D01*
X157253447Y-87309975D01*
X157254100Y-87310029D01*
X157254773Y-87310062D01*
X157255467Y-87310073D01*
X157509468Y-87310073D01*
X157510195Y-87309731D01*
X157512113Y-87308750D01*
X157513395Y-87308040D01*
X157514825Y-87307196D01*
X157516355Y-87306224D01*
X157517934Y-87305134D01*
X157519513Y-87303934D01*
X157521043Y-87302631D01*
X157521774Y-87301945D01*
X157522473Y-87301236D01*
X157523136Y-87300505D01*
X157523755Y-87299754D01*
X157524324Y-87298984D01*
X157524838Y-87298196D01*
X157525290Y-87297390D01*
X157525673Y-87296568D01*
X157525982Y-87295731D01*
X157526211Y-87294880D01*
X157526352Y-87294016D01*
X157526401Y-87293140D01*
X157529890Y-87258630D01*
X157535261Y-87225024D01*
X157542280Y-87192433D01*
X157550713Y-87160966D01*
X157560326Y-87130733D01*
X157570884Y-87101846D01*
X157582153Y-87074414D01*
X157593899Y-87048547D01*
X157605888Y-87024356D01*
X157617884Y-87001951D01*
X157640965Y-86962940D01*
X157661268Y-86932395D01*
X157676919Y-86911199D01*
X157678000Y-86909832D01*
X157679128Y-86908553D01*
X157680305Y-86907362D01*
X157681535Y-86906260D01*
X157682820Y-86905246D01*
X157683484Y-86904772D01*
X157684162Y-86904320D01*
X157684856Y-86903890D01*
X157685566Y-86903482D01*
X157686291Y-86903096D01*
X157687032Y-86902732D01*
X157687790Y-86902390D01*
X157688565Y-86902071D01*
X157689357Y-86901773D01*
X157690167Y-86901497D01*
X157691840Y-86901012D01*
X157693588Y-86900615D01*
X157695413Y-86900307D01*
X157697318Y-86900086D01*
X157699305Y-86899954D01*
X157701378Y-86899910D01*
X157804854Y-86902612D01*
X157906442Y-86903004D01*
X158006149Y-86901158D01*
X158103986Y-86897146D01*
X158199959Y-86891040D01*
X158294078Y-86882910D01*
X158386350Y-86872830D01*
X158476784Y-86860869D01*
X158652170Y-86831596D01*
X158820301Y-86795664D01*
X158981245Y-86753647D01*
X159135067Y-86706117D01*
X159136765Y-86705534D01*
X159138333Y-86704849D01*
X159139773Y-86704068D01*
X159141086Y-86703199D01*
X159142276Y-86702251D01*
X159143344Y-86701231D01*
X159144291Y-86700145D01*
X159145121Y-86699003D01*
X159145835Y-86697811D01*
X159146436Y-86696577D01*
X159146925Y-86695308D01*
X159147304Y-86694013D01*
X159147576Y-86692698D01*
X159147742Y-86691371D01*
X159147805Y-86690041D01*
X159147767Y-86688714D01*
X159147630Y-86687397D01*
X159147395Y-86686100D01*
X159147065Y-86684829D01*
X159146643Y-86683591D01*
X159146129Y-86682395D01*
X159145526Y-86681247D01*
X159144837Y-86680157D01*
X159144063Y-86679130D01*
X159143206Y-86678175D01*
X159142269Y-86677299D01*
X159141253Y-86676510D01*
X159140160Y-86675815D01*
X159138994Y-86675222D01*
X159137754Y-86674739D01*
X159136445Y-86674373D01*
X159135067Y-86674132D01*
X157375882Y-86463406D01*
X157375474Y-86463417D01*
X157374383Y-86463494D01*
X157373643Y-86463578D01*
X157372807Y-86463704D01*
X157371898Y-86463879D01*
X157370943Y-86464112D01*
X157369966Y-86464411D01*
X157369477Y-86464588D01*
X157368992Y-86464784D01*
X157368514Y-86465001D01*
X157368045Y-86465240D01*
X157367590Y-86465502D01*
X157367151Y-86465787D01*
X157366731Y-86466098D01*
X157366334Y-86466434D01*
X157365962Y-86466797D01*
X157365619Y-86467188D01*
X157365307Y-86467607D01*
X157365030Y-86468057D01*
X157364791Y-86468538D01*
X157364594Y-86469051D01*
X157347660Y-86534902D01*
X157339598Y-86546654D01*
X157328936Y-86554879D01*
X157315853Y-86559776D01*
X157300527Y-86561545D01*
X157283137Y-86560383D01*
X157263862Y-86556491D01*
X157242878Y-86550067D01*
X157220366Y-86541311D01*
X157171469Y-86517599D01*
X157118597Y-86486947D01*
X157063179Y-86450948D01*
X157006642Y-86411195D01*
X156950413Y-86369282D01*
X156895921Y-86326801D01*
X156828842Y-86271878D01*
X157425977Y-86271878D01*
X157426021Y-86272852D01*
X157426076Y-86273324D01*
X157426153Y-86273785D01*
X157426253Y-86274234D01*
X157426374Y-86274669D01*
X157426517Y-86275089D01*
X157426683Y-86275494D01*
X157426870Y-86275882D01*
X157427079Y-86276253D01*
X157427311Y-86276606D01*
X157427565Y-86276938D01*
X157427840Y-86277250D01*
X157428138Y-86277540D01*
X157428458Y-86277808D01*
X157428799Y-86278052D01*
X157429163Y-86278271D01*
X157429549Y-86278464D01*
X157429957Y-86278630D01*
X157430387Y-86278768D01*
X157430839Y-86278878D01*
X157431313Y-86278957D01*
X157431809Y-86279005D01*
X157432327Y-86279022D01*
X159255482Y-86497274D01*
X159296792Y-86501332D01*
X159338132Y-86503638D01*
X159379444Y-86504202D01*
X159420671Y-86503035D01*
X159461754Y-86500149D01*
X159502636Y-86495554D01*
X159543259Y-86489261D01*
X159583566Y-86481281D01*
X159623497Y-86471625D01*
X159662996Y-86460305D01*
X159702004Y-86447332D01*
X159740463Y-86432715D01*
X159778317Y-86416467D01*
X159815506Y-86398599D01*
X159851973Y-86379121D01*
X159887660Y-86358044D01*
X159923915Y-86335999D01*
X159959332Y-86313623D01*
X159993956Y-86290939D01*
X160027830Y-86267968D01*
X160060999Y-86244733D01*
X160093506Y-86221255D01*
X160125395Y-86197556D01*
X160156712Y-86173659D01*
X160157721Y-86172916D01*
X160158632Y-86172101D01*
X160159446Y-86171221D01*
X160160166Y-86170282D01*
X160160792Y-86169288D01*
X160161325Y-86168247D01*
X160161768Y-86167164D01*
X160162121Y-86166045D01*
X160162386Y-86164895D01*
X160162564Y-86163721D01*
X160162656Y-86162528D01*
X160162665Y-86161323D01*
X160162591Y-86160110D01*
X160162435Y-86158897D01*
X160162200Y-86157688D01*
X160161886Y-86156490D01*
X160161495Y-86155309D01*
X160161028Y-86154150D01*
X160160486Y-86153019D01*
X160159872Y-86151923D01*
X160159186Y-86150866D01*
X160158430Y-86149855D01*
X160157604Y-86148896D01*
X160156712Y-86147994D01*
X160155753Y-86147156D01*
X160154729Y-86146387D01*
X160153642Y-86145693D01*
X160152493Y-86145080D01*
X160151283Y-86144554D01*
X160150014Y-86144121D01*
X160148687Y-86143786D01*
X160147304Y-86143555D01*
X157609186Y-85840636D01*
X157608859Y-85840644D01*
X157607981Y-85840695D01*
X157607383Y-85840751D01*
X157606706Y-85840835D01*
X157605968Y-85840952D01*
X157605188Y-85841107D01*
X157604386Y-85841306D01*
X157603582Y-85841555D01*
X157603185Y-85841700D01*
X157602794Y-85841859D01*
X157602413Y-85842034D01*
X157602042Y-85842224D01*
X157601686Y-85842431D01*
X157601346Y-85842655D01*
X157601024Y-85842897D01*
X157600723Y-85843157D01*
X157600446Y-85843437D01*
X157600195Y-85843737D01*
X157599971Y-85844058D01*
X157599779Y-85844400D01*
X157575981Y-85894847D01*
X157552624Y-85945999D01*
X157529797Y-85997858D01*
X157507586Y-86050422D01*
X157486082Y-86103691D01*
X157465371Y-86157666D01*
X157445542Y-86212347D01*
X157426683Y-86267733D01*
X157426374Y-86268790D01*
X157426153Y-86269839D01*
X157426021Y-86270871D01*
X157425977Y-86271878D01*
X156828842Y-86271878D01*
X156797856Y-86246507D01*
X156685379Y-86149199D01*
X156678899Y-86143341D01*
X156672859Y-86137418D01*
X156667242Y-86131439D01*
X156662037Y-86125416D01*
X156657228Y-86119360D01*
X156652802Y-86113282D01*
X156648745Y-86107193D01*
X156645044Y-86101104D01*
X156641685Y-86095026D01*
X156638654Y-86088970D01*
X156633520Y-86076968D01*
X156629533Y-86065187D01*
X156626582Y-86053714D01*
X156624558Y-86042638D01*
X156623349Y-86032048D01*
X156622845Y-86022030D01*
X156622937Y-86012674D01*
X156623514Y-86004068D01*
X156624466Y-85996299D01*
X156625682Y-85989457D01*
X156627053Y-85983629D01*
X156632467Y-85962062D01*
X156638088Y-85941799D01*
X156643858Y-85922820D01*
X156649719Y-85905107D01*
X156655613Y-85888639D01*
X156661482Y-85873397D01*
X156672914Y-85846516D01*
X156683553Y-85824309D01*
X156692934Y-85806623D01*
X156706075Y-85784192D01*
X156707265Y-85782230D01*
X156708362Y-85780231D01*
X156709362Y-85778199D01*
X156710261Y-85776140D01*
X156711053Y-85774061D01*
X156711735Y-85771967D01*
X156712301Y-85769864D01*
X156712748Y-85767758D01*
X156713072Y-85765655D01*
X156713266Y-85763560D01*
X156713328Y-85761480D01*
X156713252Y-85759420D01*
X156713034Y-85757387D01*
X156712670Y-85755385D01*
X156712155Y-85753421D01*
X156711484Y-85751501D01*
X156710654Y-85749631D01*
X156709659Y-85747816D01*
X156708496Y-85746062D01*
X156707159Y-85744376D01*
X156705645Y-85742762D01*
X156703948Y-85741228D01*
X156702064Y-85739778D01*
X156699990Y-85738419D01*
X156697719Y-85737156D01*
X156695249Y-85735996D01*
X156692574Y-85734944D01*
X156689689Y-85734006D01*
X156686591Y-85733187D01*
X156683275Y-85732495D01*
X156679737Y-85731934D01*
X156675971Y-85731510D01*
X156007225Y-85651844D01*
X157701746Y-85651844D01*
X157701765Y-85652400D01*
X157701818Y-85652950D01*
X157701904Y-85653492D01*
X157702022Y-85654024D01*
X157702170Y-85654545D01*
X157702348Y-85655053D01*
X157702555Y-85655546D01*
X157702789Y-85656023D01*
X157703049Y-85656481D01*
X157703336Y-85656919D01*
X157703646Y-85657336D01*
X157703980Y-85657729D01*
X157704337Y-85658097D01*
X157704714Y-85658438D01*
X157705112Y-85658750D01*
X157705530Y-85659033D01*
X157705965Y-85659283D01*
X157706418Y-85659499D01*
X157706887Y-85659680D01*
X157707371Y-85659824D01*
X157707870Y-85659929D01*
X157708381Y-85659993D01*
X157708905Y-85660014D01*
X160058875Y-85942237D01*
X160100836Y-85945881D01*
X160142685Y-85946963D01*
X160184308Y-85945519D01*
X160225592Y-85941590D01*
X160266423Y-85935213D01*
X160306690Y-85926428D01*
X160346279Y-85915272D01*
X160385077Y-85901785D01*
X160422970Y-85886005D01*
X160459847Y-85867970D01*
X160495594Y-85847719D01*
X160530097Y-85825291D01*
X160563245Y-85800724D01*
X160594924Y-85774058D01*
X160625021Y-85745329D01*
X160653423Y-85714578D01*
X160694271Y-85667357D01*
X160730799Y-85623267D01*
X160763092Y-85582617D01*
X160791241Y-85545715D01*
X160815333Y-85512870D01*
X160835456Y-85484390D01*
X160864149Y-85441763D01*
X160864148Y-85441763D01*
X160864810Y-85440694D01*
X160865385Y-85439606D01*
X160865876Y-85438503D01*
X160866283Y-85437386D01*
X160866610Y-85436260D01*
X160866856Y-85435128D01*
X160867025Y-85433992D01*
X160867118Y-85432855D01*
X160867136Y-85431722D01*
X160867081Y-85430594D01*
X160866956Y-85429475D01*
X160866761Y-85428368D01*
X160866499Y-85427277D01*
X160866171Y-85426204D01*
X160865779Y-85425152D01*
X160865324Y-85424124D01*
X160864809Y-85423124D01*
X160864235Y-85422155D01*
X160863604Y-85421219D01*
X160862917Y-85420321D01*
X160862177Y-85419462D01*
X160861385Y-85418646D01*
X160860542Y-85417877D01*
X160859651Y-85417157D01*
X160858712Y-85416489D01*
X160857729Y-85415876D01*
X160856702Y-85415323D01*
X160855634Y-85414831D01*
X160854526Y-85414403D01*
X160853379Y-85414044D01*
X160852196Y-85413755D01*
X160850978Y-85413541D01*
X158233838Y-85089926D01*
X158220459Y-85088910D01*
X158207152Y-85088680D01*
X158193944Y-85089227D01*
X158180862Y-85090543D01*
X158167936Y-85092620D01*
X158155191Y-85095449D01*
X158142655Y-85099022D01*
X158130356Y-85103331D01*
X158118323Y-85108368D01*
X158106581Y-85114124D01*
X158095159Y-85120591D01*
X158084084Y-85127761D01*
X158073384Y-85135626D01*
X158063086Y-85144176D01*
X158053218Y-85153405D01*
X158043808Y-85163304D01*
X157999465Y-85214254D01*
X157955408Y-85268226D01*
X157911748Y-85325063D01*
X157868595Y-85384613D01*
X157826060Y-85446720D01*
X157784252Y-85511231D01*
X157743282Y-85577990D01*
X157703260Y-85646844D01*
X157702929Y-85647379D01*
X157702642Y-85647923D01*
X157702396Y-85648474D01*
X157702191Y-85649031D01*
X157702026Y-85649592D01*
X157701900Y-85650156D01*
X157701812Y-85650720D01*
X157701761Y-85651283D01*
X157701746Y-85651844D01*
X156007225Y-85651844D01*
X155554609Y-85597925D01*
X155553044Y-85597649D01*
X155551526Y-85597519D01*
X155550058Y-85597531D01*
X155548644Y-85597676D01*
X155547287Y-85597947D01*
X155545989Y-85598339D01*
X155544754Y-85598843D01*
X155543584Y-85599454D01*
X155542484Y-85600164D01*
X155541455Y-85600966D01*
X155540502Y-85601854D01*
X155539627Y-85602820D01*
X155538833Y-85603858D01*
X155538123Y-85604961D01*
X155537501Y-85606121D01*
X155536970Y-85607333D01*
X155536532Y-85608588D01*
X155536191Y-85609881D01*
X155535950Y-85611204D01*
X155535812Y-85612551D01*
X155535781Y-85613914D01*
X154199942Y-85613914D01*
X154199942Y-82199971D01*
X162200000Y-82199971D01*
X162200000Y-85431722D01*
X162200000Y-86161323D01*
G37*
D11*
X164984000Y-96700000D03*
D12*
X163984000Y-96700000D03*
D13*
X83050000Y-80200000D03*
D14*
X82500000Y-81200000D03*
X82500000Y-82200000D03*
X82500000Y-83200000D03*
X82500000Y-84200000D03*
X82500000Y-85200000D03*
X82500000Y-86200000D03*
X82500000Y-87200000D03*
X82500000Y-88200000D03*
X82500000Y-89200000D03*
X82500000Y-90200000D03*
X82500000Y-93200000D03*
X82500000Y-94200000D03*
X82500000Y-95200000D03*
X82500000Y-96200000D03*
X82500000Y-97200000D03*
X82500000Y-98200000D03*
X82500000Y-99200000D03*
X82500000Y-100200000D03*
X82500000Y-101200000D03*
X82500000Y-102200000D03*
X82500000Y-103200000D03*
X82500000Y-104200000D03*
X82500000Y-105200000D03*
X82500000Y-106200000D03*
X82500000Y-107200000D03*
X82500000Y-108200000D03*
X82500000Y-109200000D03*
X82500000Y-110200000D03*
X82500000Y-111200000D03*
X82500000Y-112200000D03*
X82500000Y-113200000D03*
M02*
