G04 #@! TF.GenerationSoftware,KiCad,Pcbnew,8.0.6*
G04 #@! TF.CreationDate,2024-11-19T21:59:20-05:00*
G04 #@! TF.ProjectId,data_aquisition_module,64617461-5f61-4717-9569-736974696f6e,rev?*
G04 #@! TF.SameCoordinates,Original*
G04 #@! TF.FileFunction,Paste,Top*
G04 #@! TF.FilePolarity,Positive*
%FSLAX46Y46*%
G04 Gerber Fmt 4.6, Leading zero omitted, Abs format (unit mm)*
G04 Created by KiCad (PCBNEW 8.0.6) date 2024-11-19 21:59:20*
%MOMM*%
%LPD*%
G01*
G04 APERTURE LIST*
G04 Aperture macros list*
%AMRoundRect*
0 Rectangle with rounded corners*
0 $1 Rounding radius*
0 $2 $3 $4 $5 $6 $7 $8 $9 X,Y pos of 4 corners*
0 Add a 4 corners polygon primitive as box body*
4,1,4,$2,$3,$4,$5,$6,$7,$8,$9,$2,$3,0*
0 Add four circle primitives for the rounded corners*
1,1,$1+$1,$2,$3*
1,1,$1+$1,$4,$5*
1,1,$1+$1,$6,$7*
1,1,$1+$1,$8,$9*
0 Add four rect primitives between the rounded corners*
20,1,$1+$1,$2,$3,$4,$5,0*
20,1,$1+$1,$4,$5,$6,$7,0*
20,1,$1+$1,$6,$7,$8,$9,0*
20,1,$1+$1,$8,$9,$2,$3,0*%
G04 Aperture macros list end*
%ADD10RoundRect,0.200000X0.275000X-0.200000X0.275000X0.200000X-0.275000X0.200000X-0.275000X-0.200000X0*%
%ADD11RoundRect,0.225000X0.250000X-0.225000X0.250000X0.225000X-0.250000X0.225000X-0.250000X-0.225000X0*%
%ADD12RoundRect,0.200000X-0.275000X0.200000X-0.275000X-0.200000X0.275000X-0.200000X0.275000X0.200000X0*%
%ADD13R,1.200000X1.200000*%
%ADD14RoundRect,0.200000X-0.200000X-0.275000X0.200000X-0.275000X0.200000X0.275000X-0.200000X0.275000X0*%
%ADD15RoundRect,0.200000X0.200000X0.275000X-0.200000X0.275000X-0.200000X-0.275000X0.200000X-0.275000X0*%
%ADD16R,1.200000X0.400000*%
%ADD17R,0.650000X0.400000*%
%ADD18RoundRect,0.225000X-0.250000X0.225000X-0.250000X-0.225000X0.250000X-0.225000X0.250000X0.225000X0*%
%ADD19RoundRect,0.225000X0.225000X0.250000X-0.225000X0.250000X-0.225000X-0.250000X0.225000X-0.250000X0*%
%ADD20R,0.400000X0.650000*%
G04 APERTURE END LIST*
D10*
X124500000Y-94075000D03*
X124500000Y-92425000D03*
D11*
X101550000Y-85050000D03*
X101550000Y-83500000D03*
D10*
X151000000Y-94075000D03*
X151000000Y-92425000D03*
X127825000Y-88800000D03*
X127825000Y-87150000D03*
D12*
X122100000Y-96475000D03*
X122100000Y-98125000D03*
D10*
X117000000Y-94075000D03*
X117000000Y-92425000D03*
D12*
X114200000Y-109400000D03*
X114200000Y-111050000D03*
X138500000Y-96425000D03*
X138500000Y-98075000D03*
D10*
X156000000Y-94075000D03*
X156000000Y-92425000D03*
X141000000Y-94075000D03*
X141000000Y-92425000D03*
D13*
X154450000Y-83750000D03*
X156550000Y-83750000D03*
D14*
X92775000Y-101100000D03*
X94425000Y-101100000D03*
D15*
X152325000Y-81525000D03*
X150675000Y-81525000D03*
X152325000Y-83750000D03*
X150675000Y-83750000D03*
D16*
X143900000Y-101527500D03*
X143900000Y-102162500D03*
X143900000Y-102797500D03*
X143900000Y-103432500D03*
X143900000Y-104067500D03*
X143900000Y-104702500D03*
X143900000Y-105337500D03*
X143900000Y-105972500D03*
X149100000Y-105972500D03*
X149100000Y-105337500D03*
X149100000Y-104702500D03*
X149100000Y-104067500D03*
X149100000Y-103432500D03*
X149100000Y-102797500D03*
X149100000Y-102162500D03*
X149100000Y-101527500D03*
D17*
X103000000Y-106200000D03*
X103000000Y-106850000D03*
X103000000Y-107500000D03*
X104900000Y-107500000D03*
X104900000Y-106200000D03*
D12*
X141000000Y-96425000D03*
X141000000Y-98075000D03*
D10*
X153500000Y-94075000D03*
X153500000Y-92425000D03*
D18*
X125600000Y-87225000D03*
X125600000Y-88775000D03*
D16*
X118900000Y-101527500D03*
X118900000Y-102162500D03*
X118900000Y-102797500D03*
X118900000Y-103432500D03*
X118900000Y-104067500D03*
X118900000Y-104702500D03*
X118900000Y-105337500D03*
X118900000Y-105972500D03*
X124100000Y-105972500D03*
X124100000Y-105337500D03*
X124100000Y-104702500D03*
X124100000Y-104067500D03*
X124100000Y-103432500D03*
X124100000Y-102797500D03*
X124100000Y-102162500D03*
X124100000Y-101527500D03*
D15*
X138325000Y-82900000D03*
X136675000Y-82900000D03*
D12*
X129500000Y-96475000D03*
X129500000Y-98125000D03*
X124500000Y-96475000D03*
X124500000Y-98125000D03*
X148500000Y-96425000D03*
X148500000Y-98075000D03*
D17*
X103565500Y-98984500D03*
X103565500Y-99634500D03*
X103565500Y-100284500D03*
X105465500Y-100284500D03*
X105465500Y-98984500D03*
D18*
X93900000Y-106225000D03*
X93900000Y-107775000D03*
D19*
X103025000Y-81450000D03*
X101475000Y-81450000D03*
D10*
X108075000Y-104325000D03*
X108075000Y-102675000D03*
X138500000Y-94075000D03*
X138500000Y-92425000D03*
D12*
X119500000Y-96475000D03*
X119500000Y-98125000D03*
D10*
X101375000Y-99375000D03*
X101375000Y-97725000D03*
D19*
X111275000Y-107750000D03*
X109725000Y-107750000D03*
X97275000Y-107550000D03*
X95725000Y-107550000D03*
D14*
X105000000Y-81450000D03*
X106650000Y-81450000D03*
D10*
X100850000Y-106825000D03*
X100850000Y-105175000D03*
D19*
X104925000Y-102875000D03*
X103375000Y-102875000D03*
D17*
X97050000Y-81425000D03*
X97050000Y-82075000D03*
X97050000Y-82725000D03*
X98950000Y-82725000D03*
X98950000Y-81425000D03*
D10*
X132000000Y-94075000D03*
X132000000Y-92425000D03*
D12*
X134500000Y-96475000D03*
X134500000Y-98125000D03*
D16*
X118525000Y-84452500D03*
X118525000Y-85087500D03*
X118525000Y-85722500D03*
X118525000Y-86357500D03*
X118525000Y-86992500D03*
X118525000Y-87627500D03*
X118525000Y-88262500D03*
X118525000Y-88897500D03*
X123725000Y-88897500D03*
X123725000Y-88262500D03*
X123725000Y-87627500D03*
X123725000Y-86992500D03*
X123725000Y-86357500D03*
X123725000Y-85722500D03*
X123725000Y-85087500D03*
X123725000Y-84452500D03*
D10*
X143500000Y-94075000D03*
X143500000Y-92425000D03*
X122000000Y-94075000D03*
X122000000Y-92425000D03*
X93850000Y-104550000D03*
X93850000Y-102900000D03*
D12*
X91875000Y-106225000D03*
X91875000Y-107875000D03*
D18*
X100850000Y-108525000D03*
X100850000Y-110075000D03*
X126250000Y-103575000D03*
X126250000Y-105125000D03*
X151525000Y-103675000D03*
X151525000Y-105225000D03*
D12*
X132000000Y-96475000D03*
X132000000Y-98125000D03*
D13*
X154475000Y-81525000D03*
X156575000Y-81525000D03*
D12*
X151000000Y-96425000D03*
X151000000Y-98075000D03*
D17*
X110300000Y-103850000D03*
X110300000Y-104500000D03*
X110300000Y-105150000D03*
X112200000Y-105150000D03*
X112200000Y-103850000D03*
D18*
X101415500Y-101309500D03*
X101415500Y-102859500D03*
D10*
X119500000Y-94075000D03*
X119500000Y-92425000D03*
D18*
X143075000Y-86650000D03*
X143075000Y-88200000D03*
D12*
X117000000Y-96475000D03*
X117000000Y-98125000D03*
D15*
X124275000Y-107725000D03*
X122625000Y-107725000D03*
D10*
X94850000Y-82325000D03*
X94850000Y-80675000D03*
X148500000Y-94075000D03*
X148500000Y-92425000D03*
D19*
X104225000Y-110100000D03*
X102675000Y-110100000D03*
D12*
X91700000Y-103075000D03*
X91700000Y-104725000D03*
D10*
X129500000Y-94075000D03*
X129500000Y-92425000D03*
D19*
X98175000Y-85425000D03*
X96625000Y-85425000D03*
D10*
X146000000Y-94075000D03*
X146000000Y-92425000D03*
X134500000Y-94075000D03*
X134500000Y-92425000D03*
D12*
X143500000Y-96425000D03*
X143500000Y-98075000D03*
X116575000Y-109400000D03*
X116575000Y-111050000D03*
D17*
X96150000Y-103750000D03*
X96150000Y-104400000D03*
X96150000Y-105050000D03*
X98050000Y-105050000D03*
X98050000Y-103750000D03*
D12*
X153500000Y-96425000D03*
X153500000Y-98075000D03*
X146000000Y-96425000D03*
X146000000Y-98075000D03*
D20*
X105150000Y-83550000D03*
X104500000Y-83550000D03*
X103850000Y-83550000D03*
X103850000Y-85450000D03*
X105150000Y-85450000D03*
D15*
X149250000Y-107750000D03*
X147600000Y-107750000D03*
D18*
X107909230Y-105975000D03*
X107909230Y-107525000D03*
D12*
X127000000Y-96475000D03*
X127000000Y-98125000D03*
D16*
X135902157Y-84527842D03*
X135902157Y-85162842D03*
X135902157Y-85797842D03*
X135902157Y-86432842D03*
X135902157Y-87067842D03*
X135902157Y-87702842D03*
X135902157Y-88337842D03*
X135902157Y-88972842D03*
X141102157Y-88972842D03*
X141102157Y-88337842D03*
X141102157Y-87702842D03*
X141102157Y-87067842D03*
X141102157Y-86432842D03*
X141102157Y-85797842D03*
X141102157Y-85162842D03*
X141102157Y-84527842D03*
D12*
X156000000Y-96425000D03*
X156000000Y-98075000D03*
D18*
X94875000Y-83950000D03*
X94875000Y-85500000D03*
D10*
X127000000Y-94075000D03*
X127000000Y-92425000D03*
D12*
X96100000Y-100475000D03*
X96100000Y-102125000D03*
M02*
