G04 #@! TF.GenerationSoftware,KiCad,Pcbnew,8.0.6*
G04 #@! TF.CreationDate,2024-11-19T21:59:20-05:00*
G04 #@! TF.ProjectId,data_aquisition_module,64617461-5f61-4717-9569-736974696f6e,rev?*
G04 #@! TF.SameCoordinates,Original*
G04 #@! TF.FileFunction,Copper,L4,Bot*
G04 #@! TF.FilePolarity,Positive*
%FSLAX46Y46*%
G04 Gerber Fmt 4.6, Leading zero omitted, Abs format (unit mm)*
G04 Created by KiCad (PCBNEW 8.0.6) date 2024-11-19 21:59:20*
%MOMM*%
%LPD*%
G01*
G04 APERTURE LIST*
G04 #@! TA.AperFunction,ComponentPad*
%ADD10C,5.499999*%
G04 #@! TD*
G04 #@! TA.AperFunction,SMDPad,CuDef*
%ADD11C,7.249998*%
G04 #@! TD*
G04 #@! TA.AperFunction,ConnectorPad*
%ADD12O,3.200000X0.700000*%
G04 #@! TD*
G04 #@! TA.AperFunction,ConnectorPad*
%ADD13O,4.300000X0.700000*%
G04 #@! TD*
G04 #@! TA.AperFunction,ViaPad*
%ADD14C,0.762000*%
G04 #@! TD*
G04 #@! TA.AperFunction,ViaPad*
%ADD15C,0.800000*%
G04 #@! TD*
G04 #@! TA.AperFunction,ViaPad*
%ADD16C,0.609600*%
G04 #@! TD*
G04 #@! TA.AperFunction,Conductor*
%ADD17C,0.250000*%
G04 #@! TD*
G04 #@! TA.AperFunction,Conductor*
%ADD18C,0.200000*%
G04 #@! TD*
G04 #@! TA.AperFunction,Conductor*
%ADD19C,0.381000*%
G04 #@! TD*
G04 #@! TA.AperFunction,Conductor*
%ADD20C,0.508000*%
G04 #@! TD*
G04 APERTURE END LIST*
D10*
X164984000Y-96700000D03*
D11*
X163984000Y-96700000D03*
D12*
X83050000Y-80200000D03*
D13*
X82500000Y-81200000D03*
X82500000Y-82200000D03*
X82500000Y-83200000D03*
X82500000Y-84200000D03*
X82500000Y-85200000D03*
X82500000Y-86200000D03*
X82500000Y-87200000D03*
X82500000Y-88200000D03*
X82500000Y-89200000D03*
X82500000Y-90200000D03*
X82500000Y-93200000D03*
X82500000Y-94200000D03*
X82500000Y-95200000D03*
X82500000Y-96200000D03*
X82500000Y-97200000D03*
X82500000Y-98200000D03*
X82500000Y-99200000D03*
X82500000Y-100200000D03*
X82500000Y-101200000D03*
X82500000Y-102200000D03*
X82500000Y-103200000D03*
X82500000Y-104200000D03*
X82500000Y-105200000D03*
X82500000Y-106200000D03*
X82500000Y-107200000D03*
X82500000Y-108200000D03*
X82500000Y-109200000D03*
X82500000Y-110200000D03*
X82500000Y-111200000D03*
X82500000Y-112200000D03*
X82500000Y-113200000D03*
D14*
X85203203Y-80974199D03*
X99300000Y-84325000D03*
X106100000Y-101925000D03*
X126000000Y-84500000D03*
X98400000Y-106650000D03*
X144040217Y-87518717D03*
X102234500Y-85934500D03*
D15*
X139650000Y-85097842D03*
D14*
X127900000Y-103750000D03*
X151525000Y-103675000D03*
X152100000Y-101250000D03*
X125500000Y-87150000D03*
X112500000Y-106750000D03*
X115450000Y-112100000D03*
X153667937Y-87382063D03*
X125750000Y-101482000D03*
X105250000Y-109100000D03*
D15*
X102734500Y-82684500D03*
X109250000Y-106250000D03*
X151500000Y-106750000D03*
X84450000Y-94200000D03*
X145100000Y-87550000D03*
X87962396Y-80925000D03*
X85500000Y-83700000D03*
D14*
X85500000Y-104200000D03*
X84950000Y-109350000D03*
D15*
X126250000Y-106750000D03*
X102550000Y-101400000D03*
X95150000Y-106150000D03*
X96050000Y-83825000D03*
X102000000Y-108600000D03*
X126500000Y-86357500D03*
D14*
X84559199Y-99181694D03*
D15*
X149150000Y-81575000D03*
D14*
X85100000Y-87200000D03*
D15*
X86850000Y-107200000D03*
X86835197Y-105800000D03*
X86800000Y-104400000D03*
X86750000Y-103000000D03*
X85600000Y-102100000D03*
X85230025Y-100700000D03*
X85692534Y-97363102D03*
X134333713Y-101195588D03*
X86108624Y-96431938D03*
X134170670Y-100043301D03*
X87284564Y-95300000D03*
X135344979Y-100227661D03*
X135167186Y-99060623D03*
X88368426Y-94216137D03*
X136167268Y-99070756D03*
X135955378Y-97869622D03*
X89044141Y-92932026D03*
X135875000Y-96800000D03*
X137199998Y-97000000D03*
X90618255Y-91749999D03*
X112630122Y-85925500D03*
X111930122Y-85175000D03*
X88142444Y-90849999D03*
X111230622Y-85925500D03*
X110531122Y-85109261D03*
X87963339Y-89450000D03*
X109831622Y-85925500D03*
X109132122Y-85057122D03*
X143550000Y-81550000D03*
X142600000Y-84800000D03*
X132141922Y-81351972D03*
X115017761Y-85517761D03*
X127817143Y-84640240D03*
X114772765Y-86487285D03*
X133087479Y-81677429D03*
X128079962Y-85605087D03*
X108424500Y-85917236D03*
X89650000Y-88650000D03*
X107725000Y-85000000D03*
X154700000Y-95250000D03*
D14*
X88856540Y-84593460D03*
X116300000Y-99500000D03*
D15*
X159332900Y-95250000D03*
D14*
X91700000Y-101400000D03*
D16*
X111318460Y-106531540D03*
X119000000Y-108000000D03*
D15*
X94400000Y-101100000D03*
X88800000Y-111400000D03*
X86850007Y-108600000D03*
X94550000Y-98709500D03*
X89768872Y-85350000D03*
D16*
X97350000Y-83775000D03*
D15*
X135300000Y-81700000D03*
D16*
X104950000Y-101350000D03*
X139800000Y-107704300D03*
X106359500Y-84784500D03*
X102784500Y-83984500D03*
X97100000Y-105100000D03*
X97300000Y-102500000D03*
X99384841Y-109134841D03*
X103325000Y-108850000D03*
D15*
X91168872Y-85450000D03*
X95195727Y-97945928D03*
X91900233Y-80447016D03*
X90468872Y-84498534D03*
D17*
X84559199Y-99181694D02*
X84540893Y-99200000D01*
X85100000Y-87200000D02*
X82500000Y-87200000D01*
D18*
X84950000Y-109350000D02*
X84800000Y-109200000D01*
D17*
X85500000Y-83700000D02*
X85000000Y-84200000D01*
X84540893Y-99200000D02*
X82500000Y-99200000D01*
D18*
X82500000Y-104200000D02*
X85500000Y-104200000D01*
X84450000Y-94200000D02*
X82500000Y-94200000D01*
X84800000Y-109200000D02*
X82500000Y-109200000D01*
D17*
X85000000Y-84200000D02*
X82500000Y-84200000D01*
D18*
X86850000Y-107200000D02*
X82500000Y-107200000D01*
X86635197Y-106000000D02*
X82700000Y-106000000D01*
X82700000Y-106000000D02*
X82500000Y-106200000D01*
X86835197Y-105800000D02*
X86635197Y-106000000D01*
X82500000Y-105200000D02*
X86000000Y-105200000D01*
X86000000Y-105200000D02*
X86800000Y-104400000D01*
X86550000Y-103200000D02*
X82500000Y-103200000D01*
X86750000Y-103000000D02*
X86550000Y-103200000D01*
X85600000Y-102100000D02*
X85500000Y-102200000D01*
X85500000Y-102200000D02*
X82500000Y-102200000D01*
X85230025Y-100700000D02*
X84730025Y-101200000D01*
X84730025Y-101200000D02*
X82500000Y-101200000D01*
X85692534Y-97363102D02*
X85692534Y-99011439D01*
X85692534Y-99011439D02*
X84503973Y-100200000D01*
X84503973Y-100200000D02*
X82500000Y-100200000D01*
X129538125Y-96400000D02*
X134333713Y-101195588D01*
X86140562Y-96400000D02*
X129538125Y-96400000D01*
X86108624Y-96431938D02*
X86140562Y-96400000D01*
X85350000Y-96200611D02*
X85960661Y-95589950D01*
X84950000Y-97469239D02*
X84950000Y-97034925D01*
X84219239Y-98200000D02*
X84950000Y-97469239D01*
X82500000Y-98200000D02*
X84219239Y-98200000D01*
X85960661Y-95589950D02*
X86584564Y-95589950D01*
X85350000Y-96634925D02*
X85350000Y-96200611D01*
X86994614Y-96000000D02*
X130127369Y-96000000D01*
X130127369Y-96000000D02*
X134170670Y-100043301D01*
X84950000Y-97034925D02*
X85350000Y-96634925D01*
X86584564Y-95589950D02*
X86994614Y-96000000D01*
X88050000Y-95600000D02*
X130717318Y-95600000D01*
X130717318Y-95600000D02*
X135344979Y-100227661D01*
X87284564Y-95300000D02*
X87750000Y-95300000D01*
X87750000Y-95300000D02*
X88050000Y-95600000D01*
X84219239Y-97200000D02*
X82500000Y-97200000D01*
X88000000Y-94900000D02*
X88000000Y-94837661D01*
X84950000Y-96469239D02*
X84219239Y-97200000D01*
X88000000Y-94837661D02*
X87762339Y-94600000D01*
X84950000Y-96034925D02*
X84950000Y-96469239D01*
X131325000Y-95200000D02*
X88300000Y-95200000D01*
X88300000Y-95200000D02*
X88000000Y-94900000D01*
X85350000Y-95634925D02*
X84950000Y-96034925D01*
X87762339Y-94600000D02*
X86215686Y-94600000D01*
X86215686Y-94600000D02*
X85350000Y-95465686D01*
X135167800Y-99042800D02*
X131325000Y-95200000D01*
X85350000Y-95465686D02*
X85350000Y-95634925D01*
X88368426Y-94216137D02*
X88952289Y-94800000D01*
X131896512Y-94800000D02*
X136167268Y-99070756D01*
X88952289Y-94800000D02*
X131896512Y-94800000D01*
X89032026Y-93632026D02*
X89770343Y-94370343D01*
X84950000Y-95469239D02*
X84950000Y-95300000D01*
X88201903Y-93350000D02*
X88472165Y-93350000D01*
X84950000Y-95300000D02*
X86200000Y-94050000D01*
X84219239Y-96200000D02*
X84950000Y-95469239D01*
X87501903Y-94050000D02*
X88201903Y-93350000D01*
X88754191Y-93632026D02*
X89032026Y-93632026D01*
X132456099Y-94370343D02*
X135955378Y-97869622D01*
X89770343Y-94370343D02*
X132456099Y-94370343D01*
X86200000Y-94050000D02*
X87501903Y-94050000D01*
X88472165Y-93350000D02*
X88754191Y-93632026D01*
X82500000Y-96200000D02*
X84219239Y-96200000D01*
X133045343Y-93970343D02*
X135875000Y-96800000D01*
X89936029Y-93970343D02*
X133045343Y-93970343D01*
X89044141Y-92932026D02*
X89044141Y-93078455D01*
X89044141Y-93078455D02*
X89936029Y-93970343D01*
X86000000Y-93650000D02*
X84450000Y-95200000D01*
X137199998Y-97000000D02*
X137199998Y-96974998D01*
X133795343Y-93570343D02*
X90170343Y-93570343D01*
X89744141Y-93144141D02*
X89744141Y-92642076D01*
X88754191Y-92232026D02*
X87336217Y-93650000D01*
X87336217Y-93650000D02*
X86000000Y-93650000D01*
X89334091Y-92232026D02*
X88754191Y-92232026D01*
X84450000Y-95200000D02*
X82500000Y-95200000D01*
X89744141Y-92642076D02*
X89334091Y-92232026D01*
X90170343Y-93570343D02*
X89744141Y-93144141D01*
X137199998Y-96974998D02*
X133795343Y-93570343D01*
X107950000Y-91350000D02*
X112630122Y-86669878D01*
X112630122Y-86669878D02*
X112630122Y-85925500D01*
X90618255Y-91749999D02*
X91049999Y-91749999D01*
X91449998Y-91350000D02*
X107950000Y-91350000D01*
X91049999Y-91749999D02*
X91449998Y-91350000D01*
X82500000Y-93250000D02*
X86748528Y-93250000D01*
X87190529Y-93230002D02*
X88588505Y-91832026D01*
X90281804Y-91049999D02*
X90915685Y-91049999D01*
X91015684Y-90950000D02*
X107740686Y-90950000D01*
X90915685Y-91049999D02*
X91015684Y-90950000D01*
X86768526Y-93230002D02*
X87190529Y-93230002D01*
X107740686Y-90950000D02*
X111930122Y-86760564D01*
X89499777Y-91832026D02*
X90281804Y-91049999D01*
X111930122Y-86760564D02*
X111930122Y-85175000D01*
X88588505Y-91832026D02*
X89499777Y-91832026D01*
X86748528Y-93250000D02*
X86768526Y-93230002D01*
X111230622Y-86894378D02*
X111230622Y-85925500D01*
X88442443Y-90550000D02*
X97300000Y-90550000D01*
X97300000Y-90550000D02*
X97400000Y-90450000D01*
X88142444Y-90849999D02*
X88442443Y-90550000D01*
X97400000Y-90450000D02*
X107675000Y-90450000D01*
X107675000Y-90450000D02*
X111230622Y-86894378D01*
X110531122Y-86693878D02*
X107175000Y-90050000D01*
X110531122Y-85109261D02*
X110531122Y-86693878D01*
X97100000Y-90050000D02*
X97000000Y-90150000D01*
X107175000Y-90050000D02*
X97100000Y-90050000D01*
X97000000Y-90150000D02*
X82500000Y-90150000D01*
X109831622Y-86493378D02*
X106700000Y-89625000D01*
X96700000Y-89750000D02*
X88263339Y-89750000D01*
X88263339Y-89750000D02*
X87963339Y-89450000D01*
X96825000Y-89625000D02*
X96700000Y-89750000D01*
X106700000Y-89625000D02*
X96825000Y-89625000D01*
X109831622Y-85925500D02*
X109831622Y-86493378D01*
X96534315Y-89350000D02*
X88853289Y-89350000D01*
X106122072Y-89225000D02*
X96659314Y-89225000D01*
X87223389Y-89200000D02*
X82500000Y-89200000D01*
X88253289Y-88750000D02*
X87673389Y-88750000D01*
X109132122Y-85057122D02*
X109132122Y-86214950D01*
X96659314Y-89225000D02*
X96534315Y-89350000D01*
X109132122Y-86214950D02*
X106122072Y-89225000D01*
X88853289Y-89350000D02*
X88253289Y-88750000D01*
X87673389Y-88750000D02*
X87223389Y-89200000D01*
X143550000Y-81550000D02*
X143550000Y-83850000D01*
X132141922Y-81358078D02*
X132141922Y-81351972D01*
X128859760Y-84640240D02*
X132141922Y-81358078D01*
X127817143Y-84640240D02*
X127276383Y-85181000D01*
X127276383Y-85181000D02*
X115354522Y-85181000D01*
X115354522Y-85181000D02*
X115017761Y-85517761D01*
X143550000Y-83850000D02*
X142600000Y-84800000D01*
X127817143Y-84640240D02*
X128859760Y-84640240D01*
X133087479Y-81677429D02*
X133087479Y-82012521D01*
X115920385Y-85605087D02*
X115038187Y-86487285D01*
X115038187Y-86487285D02*
X114772765Y-86487285D01*
X133087479Y-82012521D02*
X129494913Y-85605087D01*
X128079962Y-85605087D02*
X115920385Y-85605087D01*
X129494913Y-85605087D02*
X128079962Y-85605087D01*
X96368629Y-88950000D02*
X89950000Y-88950000D01*
X89950000Y-88950000D02*
X89650000Y-88650000D01*
X96824999Y-88824999D02*
X96493630Y-88824999D01*
X105516736Y-88825000D02*
X96824999Y-88824999D01*
X96493630Y-88824999D02*
X96368629Y-88950000D01*
X108424500Y-85917236D02*
X105516736Y-88825000D01*
X89160050Y-88150000D02*
X82550000Y-88150000D01*
X89360050Y-87950000D02*
X89160050Y-88150000D01*
X82550000Y-88150000D02*
X82500000Y-88200000D01*
X96327944Y-88424999D02*
X96202944Y-88550000D01*
X90539950Y-88550000D02*
X89939950Y-87950000D01*
X107725000Y-85000000D02*
X107725000Y-85725000D01*
X107725000Y-85725000D02*
X105025000Y-88425000D01*
X89939950Y-87950000D02*
X89360050Y-87950000D01*
X105025000Y-88425000D02*
X96990684Y-88424999D01*
X96990684Y-88424999D02*
X96327944Y-88424999D01*
X96202944Y-88550000D02*
X90539950Y-88550000D01*
D19*
X91700000Y-99922438D02*
X92122438Y-99500000D01*
X91700000Y-101400000D02*
X91700000Y-99922438D01*
X116300000Y-99500000D02*
X92122438Y-99500000D01*
D20*
X159332900Y-95250000D02*
X154700000Y-95250000D01*
D18*
X112786920Y-108000000D02*
X119000000Y-108000000D01*
X112786920Y-108000000D02*
X111318460Y-106531540D01*
X82500000Y-110200000D02*
X84651080Y-110200000D01*
X94400000Y-102900000D02*
X94400000Y-101100000D01*
X87169000Y-110131000D02*
X94400000Y-102900000D01*
X84651080Y-110200000D02*
X84720080Y-110131000D01*
X84720080Y-110131000D02*
X87169000Y-110131000D01*
X88800000Y-111400000D02*
X88600000Y-111200000D01*
X88600000Y-111200000D02*
X82500000Y-111200000D01*
X86850007Y-108600000D02*
X86450007Y-108200000D01*
X86450007Y-108200000D02*
X82500000Y-108200000D01*
X89768872Y-84518872D02*
X88250000Y-83000000D01*
X88250000Y-83000000D02*
X82700000Y-83000000D01*
X82700000Y-83000000D02*
X82500000Y-83200000D01*
X89768872Y-85350000D02*
X89768872Y-84518872D01*
X135300000Y-81700000D02*
X134100000Y-81700000D01*
X100473028Y-80651972D02*
X97350000Y-83775000D01*
X133051972Y-80651972D02*
X100473028Y-80651972D01*
X134100000Y-81700000D02*
X133051972Y-80651972D01*
X104950000Y-101350000D02*
X105800000Y-100500000D01*
X134095700Y-102000000D02*
X139800000Y-107704300D01*
X117100000Y-100500000D02*
X118100000Y-99500000D01*
X105800000Y-100500000D02*
X117100000Y-100500000D01*
X134095700Y-101995700D02*
X134095700Y-102000000D01*
X118100000Y-99500000D02*
X131600000Y-99500000D01*
X131600000Y-99500000D02*
X134095700Y-101995700D01*
X106359500Y-84784500D02*
X103584500Y-84784500D01*
X103584500Y-84784500D02*
X102784500Y-83984500D01*
X97300000Y-102500000D02*
X97300000Y-104900000D01*
X97300000Y-104900000D02*
X97100000Y-105100000D01*
X102875000Y-109300000D02*
X103325000Y-108850000D01*
X99550000Y-109300000D02*
X102875000Y-109300000D01*
X99384841Y-109134841D02*
X99550000Y-109300000D01*
X91168872Y-84208584D02*
X90758822Y-83798534D01*
X90179906Y-83798534D02*
X88181372Y-81800000D01*
X90758822Y-83798534D02*
X90179906Y-83798534D01*
X85065924Y-81800000D02*
X84465924Y-81200000D01*
X91168872Y-85450000D02*
X91168872Y-84208584D01*
X88181372Y-81800000D02*
X85065924Y-81800000D01*
X84465924Y-81200000D02*
X82500000Y-81200000D01*
D17*
X91900233Y-80447016D02*
X91653217Y-80200000D01*
X91653217Y-80200000D02*
X83050000Y-80200000D01*
D18*
X88015686Y-82200000D02*
X82500000Y-82200000D01*
X90314220Y-84498534D02*
X88015686Y-82200000D01*
X90468872Y-84498534D02*
X90314220Y-84498534D01*
G04 #@! TA.AperFunction,Conductor*
G36*
X162003766Y-80000727D02*
G01*
X162293795Y-80018271D01*
X162308657Y-80020075D01*
X162479981Y-80051472D01*
X162590798Y-80071780D01*
X162605335Y-80075363D01*
X162879172Y-80160695D01*
X162893163Y-80166000D01*
X163154743Y-80283727D01*
X163167989Y-80290680D01*
X163413465Y-80439075D01*
X163425776Y-80447573D01*
X163542952Y-80539374D01*
X163651573Y-80624473D01*
X163662781Y-80634403D01*
X163865596Y-80837218D01*
X163875526Y-80848426D01*
X164015517Y-81027112D01*
X164052422Y-81074217D01*
X164060926Y-81086537D01*
X164209316Y-81332004D01*
X164216275Y-81345263D01*
X164333997Y-81606831D01*
X164339306Y-81620832D01*
X164424635Y-81894663D01*
X164428219Y-81909201D01*
X164479923Y-82191340D01*
X164481728Y-82206205D01*
X164499274Y-82496263D01*
X164499500Y-82503750D01*
X164499500Y-110896249D01*
X164499274Y-110903736D01*
X164481728Y-111193794D01*
X164479923Y-111208659D01*
X164428219Y-111490798D01*
X164424635Y-111505336D01*
X164339306Y-111779167D01*
X164333997Y-111793168D01*
X164216275Y-112054736D01*
X164209316Y-112067995D01*
X164060928Y-112313459D01*
X164052422Y-112325782D01*
X163875526Y-112551573D01*
X163865596Y-112562781D01*
X163662781Y-112765596D01*
X163651573Y-112775526D01*
X163425782Y-112952422D01*
X163413459Y-112960928D01*
X163167995Y-113109316D01*
X163154736Y-113116275D01*
X162893168Y-113233997D01*
X162879167Y-113239306D01*
X162605336Y-113324635D01*
X162590798Y-113328219D01*
X162308659Y-113379923D01*
X162293794Y-113381728D01*
X162003784Y-113399270D01*
X161996214Y-113399496D01*
X87524276Y-113349549D01*
X87523523Y-113349500D01*
X87515892Y-113349500D01*
X87450050Y-113349500D01*
X87449685Y-113349499D01*
X87384444Y-113349456D01*
X87384443Y-113349456D01*
X87376789Y-113349451D01*
X87376041Y-113349500D01*
X85274500Y-113349500D01*
X85207461Y-113329815D01*
X85161706Y-113277011D01*
X85150500Y-113225500D01*
X85150500Y-113116232D01*
X85150499Y-113116228D01*
X85117817Y-112951925D01*
X85117816Y-112951918D01*
X85053703Y-112797137D01*
X85034828Y-112768890D01*
X85013951Y-112702214D01*
X85032435Y-112634834D01*
X85034829Y-112631109D01*
X85053703Y-112602863D01*
X85117816Y-112448082D01*
X85150500Y-112283767D01*
X85150500Y-112116233D01*
X85138268Y-112054736D01*
X85117175Y-111948691D01*
X85123402Y-111879099D01*
X85166266Y-111823922D01*
X85232155Y-111800678D01*
X85238792Y-111800500D01*
X87919829Y-111800500D01*
X87986868Y-111820185D01*
X88027216Y-111862500D01*
X88067466Y-111932214D01*
X88067465Y-111932214D01*
X88194129Y-112072888D01*
X88347265Y-112184148D01*
X88347270Y-112184151D01*
X88520192Y-112261142D01*
X88520197Y-112261144D01*
X88705354Y-112300500D01*
X88705355Y-112300500D01*
X88894644Y-112300500D01*
X88894646Y-112300500D01*
X89079803Y-112261144D01*
X89252730Y-112184151D01*
X89368554Y-112100000D01*
X114563644Y-112100000D01*
X114583013Y-112284286D01*
X114583014Y-112284288D01*
X114640274Y-112460514D01*
X114699318Y-112562781D01*
X114732923Y-112620987D01*
X114745391Y-112634834D01*
X114856906Y-112758686D01*
X114856909Y-112758688D01*
X114856912Y-112758691D01*
X115006822Y-112867607D01*
X115176095Y-112942973D01*
X115176098Y-112942973D01*
X115176101Y-112942975D01*
X115357351Y-112981500D01*
X115542649Y-112981500D01*
X115723899Y-112942975D01*
X115723902Y-112942973D01*
X115723904Y-112942973D01*
X115780922Y-112917586D01*
X115893178Y-112867607D01*
X116043088Y-112758691D01*
X116167077Y-112620987D01*
X116259726Y-112460513D01*
X116316987Y-112284284D01*
X116336356Y-112100000D01*
X116316987Y-111915716D01*
X116259726Y-111739487D01*
X116167077Y-111579013D01*
X116094286Y-111498170D01*
X116043093Y-111441313D01*
X116043090Y-111441311D01*
X116043089Y-111441310D01*
X116043088Y-111441309D01*
X115893178Y-111332393D01*
X115893177Y-111332392D01*
X115723904Y-111257026D01*
X115723896Y-111257024D01*
X115542649Y-111218500D01*
X115357351Y-111218500D01*
X115176103Y-111257024D01*
X115176095Y-111257026D01*
X115006822Y-111332392D01*
X114856909Y-111441311D01*
X114856906Y-111441313D01*
X114732922Y-111579014D01*
X114640274Y-111739485D01*
X114583014Y-111915711D01*
X114583013Y-111915713D01*
X114563644Y-112100000D01*
X89368554Y-112100000D01*
X89405871Y-112072888D01*
X89532533Y-111932216D01*
X89627179Y-111768284D01*
X89685674Y-111588256D01*
X89705460Y-111400000D01*
X89685674Y-111211744D01*
X89627179Y-111031716D01*
X89532533Y-110867784D01*
X89405871Y-110727112D01*
X89405870Y-110727111D01*
X89252734Y-110615851D01*
X89252729Y-110615848D01*
X89079807Y-110538857D01*
X89079802Y-110538855D01*
X88934001Y-110507865D01*
X88894646Y-110499500D01*
X88705354Y-110499500D01*
X88672897Y-110506398D01*
X88520197Y-110538855D01*
X88520192Y-110538857D01*
X88408069Y-110588779D01*
X88357633Y-110599500D01*
X87849096Y-110599500D01*
X87782057Y-110579815D01*
X87736302Y-110527011D01*
X87726358Y-110457853D01*
X87755383Y-110394297D01*
X87761415Y-110387819D01*
X89014397Y-109134837D01*
X98574445Y-109134837D01*
X98574445Y-109134844D01*
X98594761Y-109315165D01*
X98594762Y-109315170D01*
X98654700Y-109486463D01*
X98654702Y-109486466D01*
X98751243Y-109640109D01*
X98751248Y-109640115D01*
X98879566Y-109768433D01*
X98879572Y-109768438D01*
X99033215Y-109864979D01*
X99033218Y-109864981D01*
X99033222Y-109864982D01*
X99033223Y-109864983D01*
X99134725Y-109900500D01*
X99204511Y-109924919D01*
X99204516Y-109924920D01*
X99384837Y-109945237D01*
X99384841Y-109945237D01*
X99384845Y-109945237D01*
X99487886Y-109933626D01*
X99565171Y-109924919D01*
X99615072Y-109907457D01*
X99656026Y-109900500D01*
X102788331Y-109900500D01*
X102788347Y-109900501D01*
X102795943Y-109900501D01*
X102954054Y-109900501D01*
X102954057Y-109900501D01*
X103106785Y-109859577D01*
X103156904Y-109830639D01*
X103243716Y-109780520D01*
X103338092Y-109686143D01*
X103399413Y-109652660D01*
X103411890Y-109650606D01*
X103505326Y-109640079D01*
X103505328Y-109640078D01*
X103505330Y-109640078D01*
X103676618Y-109580142D01*
X103676621Y-109580139D01*
X103676625Y-109580138D01*
X103830268Y-109483597D01*
X103830269Y-109483596D01*
X103830274Y-109483593D01*
X103958593Y-109355274D01*
X103983792Y-109315170D01*
X104055138Y-109201625D01*
X104055140Y-109201622D01*
X104055140Y-109201620D01*
X104055142Y-109201618D01*
X104090700Y-109100000D01*
X104363644Y-109100000D01*
X104383013Y-109284286D01*
X104383014Y-109284288D01*
X104440274Y-109460514D01*
X104485804Y-109539374D01*
X104532923Y-109620987D01*
X104563966Y-109655464D01*
X104656906Y-109758686D01*
X104656909Y-109758688D01*
X104656912Y-109758691D01*
X104755940Y-109830639D01*
X104806822Y-109867607D01*
X104976095Y-109942973D01*
X104976098Y-109942973D01*
X104976101Y-109942975D01*
X105157351Y-109981500D01*
X105342649Y-109981500D01*
X105523899Y-109942975D01*
X105523902Y-109942973D01*
X105523904Y-109942973D01*
X105619299Y-109900500D01*
X105693178Y-109867607D01*
X105843088Y-109758691D01*
X105967077Y-109620987D01*
X106059726Y-109460513D01*
X106116987Y-109284284D01*
X106136356Y-109100000D01*
X106116987Y-108915716D01*
X106059726Y-108739487D01*
X106054328Y-108730138D01*
X105998591Y-108633597D01*
X105967077Y-108579013D01*
X105909166Y-108514696D01*
X105843093Y-108441313D01*
X105843090Y-108441311D01*
X105843089Y-108441310D01*
X105843088Y-108441309D01*
X105719649Y-108351625D01*
X105693177Y-108332392D01*
X105523904Y-108257026D01*
X105523896Y-108257024D01*
X105342649Y-108218500D01*
X105157351Y-108218500D01*
X104976103Y-108257024D01*
X104976095Y-108257026D01*
X104806822Y-108332392D01*
X104656909Y-108441311D01*
X104656906Y-108441313D01*
X104532922Y-108579014D01*
X104440274Y-108739485D01*
X104383014Y-108915711D01*
X104383013Y-108915713D01*
X104363644Y-109100000D01*
X104090700Y-109100000D01*
X104115078Y-109030330D01*
X104115079Y-109030324D01*
X104135396Y-108850003D01*
X104135396Y-108849996D01*
X104115079Y-108669675D01*
X104115078Y-108669670D01*
X104100935Y-108629252D01*
X104055142Y-108498382D01*
X104055141Y-108498380D01*
X104055140Y-108498377D01*
X104055138Y-108498374D01*
X103958597Y-108344731D01*
X103958592Y-108344725D01*
X103830274Y-108216407D01*
X103830268Y-108216402D01*
X103676625Y-108119861D01*
X103676622Y-108119859D01*
X103505329Y-108059921D01*
X103505324Y-108059920D01*
X103325004Y-108039604D01*
X103324996Y-108039604D01*
X103144675Y-108059920D01*
X103144670Y-108059921D01*
X102973377Y-108119859D01*
X102973374Y-108119861D01*
X102819731Y-108216402D01*
X102819725Y-108216407D01*
X102691407Y-108344725D01*
X102691402Y-108344731D01*
X102594861Y-108498374D01*
X102594858Y-108498380D01*
X102553543Y-108616454D01*
X102512821Y-108673231D01*
X102447868Y-108698978D01*
X102436501Y-108699500D01*
X100130908Y-108699500D01*
X100063869Y-108679815D01*
X100025914Y-108641472D01*
X100020963Y-108633593D01*
X100018434Y-108629567D01*
X99890115Y-108501248D01*
X99890109Y-108501243D01*
X99736466Y-108404702D01*
X99736463Y-108404700D01*
X99565170Y-108344762D01*
X99565165Y-108344761D01*
X99384845Y-108324445D01*
X99384837Y-108324445D01*
X99204516Y-108344761D01*
X99204511Y-108344762D01*
X99033218Y-108404700D01*
X99033215Y-108404702D01*
X98879572Y-108501243D01*
X98879566Y-108501248D01*
X98751248Y-108629566D01*
X98751243Y-108629572D01*
X98654702Y-108783215D01*
X98654700Y-108783218D01*
X98594762Y-108954511D01*
X98594761Y-108954516D01*
X98574445Y-109134837D01*
X89014397Y-109134837D01*
X91250399Y-106898835D01*
X91499234Y-106650000D01*
X97513644Y-106650000D01*
X97533013Y-106834286D01*
X97533014Y-106834288D01*
X97590274Y-107010514D01*
X97648009Y-107110514D01*
X97682923Y-107170987D01*
X97717979Y-107209921D01*
X97806906Y-107308686D01*
X97806909Y-107308688D01*
X97806912Y-107308691D01*
X97904806Y-107379815D01*
X97956822Y-107417607D01*
X98126095Y-107492973D01*
X98126098Y-107492973D01*
X98126101Y-107492975D01*
X98307351Y-107531500D01*
X98492649Y-107531500D01*
X98673899Y-107492975D01*
X98673902Y-107492973D01*
X98673904Y-107492973D01*
X98774730Y-107448082D01*
X98843178Y-107417607D01*
X98993088Y-107308691D01*
X99117077Y-107170987D01*
X99209726Y-107010513D01*
X99266987Y-106834284D01*
X99286356Y-106650000D01*
X99273905Y-106531536D01*
X110508064Y-106531536D01*
X110508064Y-106531543D01*
X110528380Y-106711864D01*
X110528381Y-106711869D01*
X110588319Y-106883162D01*
X110588321Y-106883165D01*
X110684862Y-107036808D01*
X110684867Y-107036814D01*
X110813185Y-107165132D01*
X110813191Y-107165137D01*
X110966834Y-107261678D01*
X110966840Y-107261681D01*
X110966842Y-107261682D01*
X111101178Y-107308688D01*
X111138133Y-107321619D01*
X111231571Y-107332146D01*
X111295986Y-107359212D01*
X111305370Y-107367685D01*
X112302059Y-108364374D01*
X112302069Y-108364385D01*
X112306399Y-108368715D01*
X112306400Y-108368716D01*
X112418204Y-108480520D01*
X112477400Y-108514696D01*
X112505015Y-108530639D01*
X112505017Y-108530641D01*
X112543071Y-108552611D01*
X112555135Y-108559577D01*
X112707863Y-108600501D01*
X112707866Y-108600501D01*
X112873573Y-108600501D01*
X112873589Y-108600500D01*
X118410271Y-108600500D01*
X118477310Y-108620185D01*
X118489000Y-108629605D01*
X118489283Y-108629252D01*
X118494731Y-108633597D01*
X118648374Y-108730138D01*
X118648377Y-108730140D01*
X118648381Y-108730141D01*
X118648382Y-108730142D01*
X118819670Y-108790078D01*
X118819675Y-108790079D01*
X118999996Y-108810396D01*
X119000000Y-108810396D01*
X119000004Y-108810396D01*
X119180324Y-108790079D01*
X119180327Y-108790078D01*
X119180330Y-108790078D01*
X119351618Y-108730142D01*
X119351620Y-108730140D01*
X119351622Y-108730140D01*
X119351625Y-108730138D01*
X119505268Y-108633597D01*
X119505269Y-108633596D01*
X119505274Y-108633593D01*
X119633593Y-108505274D01*
X119640439Y-108494379D01*
X119730138Y-108351625D01*
X119730140Y-108351622D01*
X119730140Y-108351620D01*
X119730142Y-108351618D01*
X119790078Y-108180330D01*
X119796891Y-108119861D01*
X119810396Y-108000003D01*
X119810396Y-107999996D01*
X119790079Y-107819675D01*
X119790078Y-107819670D01*
X119754288Y-107717388D01*
X119730142Y-107648382D01*
X119730141Y-107648381D01*
X119730140Y-107648377D01*
X119730138Y-107648374D01*
X119633597Y-107494731D01*
X119633592Y-107494725D01*
X119505274Y-107366407D01*
X119505268Y-107366402D01*
X119351625Y-107269861D01*
X119351622Y-107269859D01*
X119180329Y-107209921D01*
X119180324Y-107209920D01*
X119000004Y-107189604D01*
X118999996Y-107189604D01*
X118819675Y-107209920D01*
X118819670Y-107209921D01*
X118648377Y-107269859D01*
X118648374Y-107269861D01*
X118494731Y-107366402D01*
X118489283Y-107370748D01*
X118487708Y-107368774D01*
X118436629Y-107396666D01*
X118410271Y-107399500D01*
X113357654Y-107399500D01*
X113290615Y-107379815D01*
X113244860Y-107327011D01*
X113234916Y-107257853D01*
X113250267Y-107213500D01*
X113264063Y-107189604D01*
X113309726Y-107110513D01*
X113366987Y-106934284D01*
X113386356Y-106750000D01*
X113366987Y-106565716D01*
X113309726Y-106389487D01*
X113217077Y-106229013D01*
X113168514Y-106175078D01*
X113093093Y-106091313D01*
X113093090Y-106091311D01*
X113093089Y-106091310D01*
X113093088Y-106091309D01*
X112975908Y-106006173D01*
X112943177Y-105982392D01*
X112773904Y-105907026D01*
X112773896Y-105907024D01*
X112592649Y-105868500D01*
X112407351Y-105868500D01*
X112226103Y-105907024D01*
X112226095Y-105907026D01*
X112056822Y-105982393D01*
X112056808Y-105982400D01*
X112056394Y-105982702D01*
X112056113Y-105982801D01*
X112051189Y-105985645D01*
X112050668Y-105984743D01*
X111990585Y-106006173D01*
X111922533Y-105990338D01*
X111895842Y-105970055D01*
X111823734Y-105897947D01*
X111823728Y-105897942D01*
X111670085Y-105801401D01*
X111670082Y-105801399D01*
X111498789Y-105741461D01*
X111498784Y-105741460D01*
X111318464Y-105721144D01*
X111318456Y-105721144D01*
X111138135Y-105741460D01*
X111138130Y-105741461D01*
X110966837Y-105801399D01*
X110966834Y-105801401D01*
X110813191Y-105897942D01*
X110813185Y-105897947D01*
X110684867Y-106026265D01*
X110684862Y-106026271D01*
X110588321Y-106179914D01*
X110588319Y-106179917D01*
X110528381Y-106351210D01*
X110528380Y-106351215D01*
X110508064Y-106531536D01*
X99273905Y-106531536D01*
X99266987Y-106465716D01*
X99209726Y-106289487D01*
X99117077Y-106129013D01*
X99068514Y-106075078D01*
X98993093Y-105991313D01*
X98993090Y-105991311D01*
X98993089Y-105991310D01*
X98993088Y-105991309D01*
X98881721Y-105910396D01*
X98843177Y-105882392D01*
X98673904Y-105807026D01*
X98673896Y-105807024D01*
X98492649Y-105768500D01*
X98307351Y-105768500D01*
X98126103Y-105807024D01*
X98126095Y-105807026D01*
X97956822Y-105882392D01*
X97806909Y-105991311D01*
X97806906Y-105991313D01*
X97682922Y-106129014D01*
X97590274Y-106289485D01*
X97533014Y-106465711D01*
X97533013Y-106465713D01*
X97513644Y-106650000D01*
X91499234Y-106650000D01*
X93049238Y-105099996D01*
X96289604Y-105099996D01*
X96289604Y-105100003D01*
X96309920Y-105280324D01*
X96309921Y-105280329D01*
X96369859Y-105451622D01*
X96369861Y-105451625D01*
X96466402Y-105605268D01*
X96466407Y-105605274D01*
X96594725Y-105733592D01*
X96594731Y-105733597D01*
X96748374Y-105830138D01*
X96748377Y-105830140D01*
X96748381Y-105830141D01*
X96748382Y-105830142D01*
X96919670Y-105890078D01*
X96919675Y-105890079D01*
X97099996Y-105910396D01*
X97100000Y-105910396D01*
X97100004Y-105910396D01*
X97280324Y-105890079D01*
X97280327Y-105890078D01*
X97280330Y-105890078D01*
X97451618Y-105830142D01*
X97451620Y-105830140D01*
X97451622Y-105830140D01*
X97451625Y-105830138D01*
X97605268Y-105733597D01*
X97605269Y-105733596D01*
X97605274Y-105733593D01*
X97733593Y-105605274D01*
X97830138Y-105451625D01*
X97830140Y-105451622D01*
X97830140Y-105451620D01*
X97830142Y-105451618D01*
X97890078Y-105280330D01*
X97891492Y-105267785D01*
X97910396Y-105100002D01*
X97910396Y-105100000D01*
X97902632Y-105031099D01*
X97900185Y-105009380D01*
X97900468Y-104979301D01*
X97900499Y-104979063D01*
X97900501Y-104979057D01*
X97900501Y-104820942D01*
X97900501Y-104813347D01*
X97900500Y-104813329D01*
X97900500Y-103750000D01*
X127013644Y-103750000D01*
X127033013Y-103934286D01*
X127033014Y-103934288D01*
X127090274Y-104110514D01*
X127139621Y-104195985D01*
X127182923Y-104270987D01*
X127226112Y-104318954D01*
X127306906Y-104408686D01*
X127306909Y-104408688D01*
X127306912Y-104408691D01*
X127422323Y-104492542D01*
X127456822Y-104517607D01*
X127626095Y-104592973D01*
X127626098Y-104592973D01*
X127626101Y-104592975D01*
X127807351Y-104631500D01*
X127992649Y-104631500D01*
X128173899Y-104592975D01*
X128173902Y-104592973D01*
X128173904Y-104592973D01*
X128294284Y-104539376D01*
X128343178Y-104517607D01*
X128493088Y-104408691D01*
X128500399Y-104400572D01*
X128520629Y-104378104D01*
X128617077Y-104270987D01*
X128709726Y-104110513D01*
X128766987Y-103934284D01*
X128786356Y-103750000D01*
X128766987Y-103565716D01*
X128709726Y-103389487D01*
X128697480Y-103368277D01*
X128639995Y-103268709D01*
X128617077Y-103229013D01*
X128549547Y-103154013D01*
X128493093Y-103091313D01*
X128493090Y-103091311D01*
X128493089Y-103091310D01*
X128493088Y-103091309D01*
X128343178Y-102982393D01*
X128343177Y-102982392D01*
X128173904Y-102907026D01*
X128173896Y-102907024D01*
X127992649Y-102868500D01*
X127807351Y-102868500D01*
X127626103Y-102907024D01*
X127626095Y-102907026D01*
X127456822Y-102982392D01*
X127306909Y-103091311D01*
X127306906Y-103091313D01*
X127182922Y-103229014D01*
X127090274Y-103389485D01*
X127033014Y-103565711D01*
X127033013Y-103565713D01*
X127013644Y-103750000D01*
X97900500Y-103750000D01*
X97900500Y-103089729D01*
X97920185Y-103022690D01*
X97929605Y-103010999D01*
X97929252Y-103010717D01*
X97933589Y-103005277D01*
X97933593Y-103005274D01*
X97950066Y-102979058D01*
X98030138Y-102851625D01*
X98030140Y-102851622D01*
X98030140Y-102851620D01*
X98030142Y-102851618D01*
X98090078Y-102680330D01*
X98095555Y-102631722D01*
X98110396Y-102500003D01*
X98110396Y-102499996D01*
X98090079Y-102319675D01*
X98090078Y-102319670D01*
X98053750Y-102215851D01*
X98030142Y-102148382D01*
X98030141Y-102148381D01*
X98030140Y-102148377D01*
X98030138Y-102148374D01*
X97933597Y-101994731D01*
X97933592Y-101994725D01*
X97805274Y-101866407D01*
X97805268Y-101866402D01*
X97651625Y-101769861D01*
X97651622Y-101769859D01*
X97480329Y-101709921D01*
X97480324Y-101709920D01*
X97300004Y-101689604D01*
X97299996Y-101689604D01*
X97119675Y-101709920D01*
X97119670Y-101709921D01*
X96948377Y-101769859D01*
X96948374Y-101769861D01*
X96794731Y-101866402D01*
X96794725Y-101866407D01*
X96666407Y-101994725D01*
X96666402Y-101994731D01*
X96569861Y-102148374D01*
X96569859Y-102148377D01*
X96509921Y-102319670D01*
X96509920Y-102319675D01*
X96489604Y-102499996D01*
X96489604Y-102500003D01*
X96509920Y-102680324D01*
X96509921Y-102680329D01*
X96569859Y-102851622D01*
X96569861Y-102851625D01*
X96666402Y-103005268D01*
X96670748Y-103010717D01*
X96668774Y-103012291D01*
X96696666Y-103063371D01*
X96699500Y-103089729D01*
X96699500Y-104332040D01*
X96679815Y-104399079D01*
X96641474Y-104437033D01*
X96594724Y-104466408D01*
X96466407Y-104594725D01*
X96466402Y-104594731D01*
X96369861Y-104748374D01*
X96369859Y-104748377D01*
X96309921Y-104919670D01*
X96309920Y-104919675D01*
X96289604Y-105099996D01*
X93049238Y-105099996D01*
X94758506Y-103390728D01*
X94758511Y-103390724D01*
X94768714Y-103380520D01*
X94768716Y-103380520D01*
X94880520Y-103268716D01*
X94903442Y-103229014D01*
X94933390Y-103177143D01*
X94933391Y-103177141D01*
X94959574Y-103131790D01*
X94959573Y-103131790D01*
X94959577Y-103131785D01*
X95000500Y-102979058D01*
X95000500Y-102820943D01*
X95000500Y-101826452D01*
X95020185Y-101759413D01*
X95032350Y-101743480D01*
X95034839Y-101740716D01*
X95132533Y-101632216D01*
X95227179Y-101468284D01*
X95285674Y-101288256D01*
X95305460Y-101100000D01*
X95285674Y-100911744D01*
X95227179Y-100731716D01*
X95132533Y-100567784D01*
X95005871Y-100427112D01*
X94990466Y-100415920D01*
X94989638Y-100415318D01*
X94946972Y-100359989D01*
X94940993Y-100290375D01*
X94973598Y-100228580D01*
X95034437Y-100194223D01*
X95062523Y-100191000D01*
X104960401Y-100191000D01*
X105027440Y-100210685D01*
X105073195Y-100263489D01*
X105083139Y-100332647D01*
X105054114Y-100396203D01*
X105048090Y-100402673D01*
X104968371Y-100482392D01*
X104936909Y-100513854D01*
X104875586Y-100547338D01*
X104863113Y-100549392D01*
X104769675Y-100559920D01*
X104598380Y-100619858D01*
X104598374Y-100619861D01*
X104444731Y-100716402D01*
X104444725Y-100716407D01*
X104316407Y-100844725D01*
X104316402Y-100844731D01*
X104219861Y-100998374D01*
X104219859Y-100998377D01*
X104159921Y-101169670D01*
X104159920Y-101169675D01*
X104139604Y-101349996D01*
X104139604Y-101350003D01*
X104159920Y-101530324D01*
X104159921Y-101530329D01*
X104219859Y-101701622D01*
X104219861Y-101701625D01*
X104316402Y-101855268D01*
X104316407Y-101855274D01*
X104444725Y-101983592D01*
X104444731Y-101983597D01*
X104598374Y-102080138D01*
X104598377Y-102080140D01*
X104598381Y-102080141D01*
X104598382Y-102080142D01*
X104681677Y-102109288D01*
X104769670Y-102140078D01*
X104769675Y-102140079D01*
X104949996Y-102160396D01*
X104950000Y-102160396D01*
X104950004Y-102160396D01*
X105137250Y-102139299D01*
X105137570Y-102142145D01*
X105194447Y-102145616D01*
X105250816Y-102186900D01*
X105270263Y-102223927D01*
X105290274Y-102285514D01*
X105334797Y-102362630D01*
X105382923Y-102445987D01*
X105426112Y-102493954D01*
X105506906Y-102583686D01*
X105506909Y-102583688D01*
X105506912Y-102583691D01*
X105599920Y-102651265D01*
X105656822Y-102692607D01*
X105826095Y-102767973D01*
X105826098Y-102767973D01*
X105826101Y-102767975D01*
X106007351Y-102806500D01*
X106192649Y-102806500D01*
X106373899Y-102767975D01*
X106373902Y-102767973D01*
X106373904Y-102767973D01*
X106430922Y-102742586D01*
X106543178Y-102692607D01*
X106693088Y-102583691D01*
X106817077Y-102445987D01*
X106909726Y-102285513D01*
X106966987Y-102109284D01*
X106986356Y-101925000D01*
X106966987Y-101740716D01*
X106909726Y-101564487D01*
X106862102Y-101482000D01*
X124863644Y-101482000D01*
X124883013Y-101666286D01*
X124883014Y-101666288D01*
X124940274Y-101842514D01*
X125006229Y-101956752D01*
X125032923Y-102002987D01*
X125076112Y-102050954D01*
X125156906Y-102140686D01*
X125156909Y-102140688D01*
X125156912Y-102140691D01*
X125260357Y-102215848D01*
X125306822Y-102249607D01*
X125476095Y-102324973D01*
X125476098Y-102324973D01*
X125476101Y-102324975D01*
X125657351Y-102363500D01*
X125842649Y-102363500D01*
X126023899Y-102324975D01*
X126023902Y-102324973D01*
X126023904Y-102324973D01*
X126080922Y-102299586D01*
X126193178Y-102249607D01*
X126343088Y-102140691D01*
X126343640Y-102140079D01*
X126371367Y-102109284D01*
X126467077Y-102002987D01*
X126559726Y-101842513D01*
X126616987Y-101666284D01*
X126636356Y-101482000D01*
X126616987Y-101297716D01*
X126559726Y-101121487D01*
X126559721Y-101121479D01*
X126529009Y-101068284D01*
X126467077Y-100961013D01*
X126401569Y-100888259D01*
X126343093Y-100823313D01*
X126343090Y-100823311D01*
X126343089Y-100823310D01*
X126343088Y-100823309D01*
X126243148Y-100750698D01*
X126193177Y-100714392D01*
X126023904Y-100639026D01*
X126023896Y-100639024D01*
X125842649Y-100600500D01*
X125657351Y-100600500D01*
X125476103Y-100639024D01*
X125476095Y-100639026D01*
X125306822Y-100714392D01*
X125156909Y-100823311D01*
X125156906Y-100823313D01*
X125032922Y-100961014D01*
X124940274Y-101121485D01*
X124883014Y-101297711D01*
X124883013Y-101297713D01*
X124863644Y-101482000D01*
X106862102Y-101482000D01*
X106817077Y-101404013D01*
X106730152Y-101307472D01*
X106699922Y-101244480D01*
X106708548Y-101175145D01*
X106753289Y-101121479D01*
X106819942Y-101100522D01*
X106822302Y-101100500D01*
X117013331Y-101100500D01*
X117013347Y-101100501D01*
X117020943Y-101100501D01*
X117179054Y-101100501D01*
X117179057Y-101100501D01*
X117331785Y-101059577D01*
X117388701Y-101026716D01*
X117468716Y-100980520D01*
X117580520Y-100868716D01*
X117580520Y-100868714D01*
X117590724Y-100858511D01*
X117590727Y-100858506D01*
X118312417Y-100136819D01*
X118373740Y-100103334D01*
X118400098Y-100100500D01*
X131299903Y-100100500D01*
X131366942Y-100120185D01*
X131387583Y-100136818D01*
X132495244Y-101244480D01*
X133597762Y-102346998D01*
X133609757Y-102362630D01*
X133610232Y-102362267D01*
X133615182Y-102368718D01*
X133734049Y-102487585D01*
X133734055Y-102487590D01*
X138963853Y-107717388D01*
X138997338Y-107778711D01*
X138999392Y-107791185D01*
X139009920Y-107884624D01*
X139069858Y-108055919D01*
X139069861Y-108055925D01*
X139166402Y-108209568D01*
X139166407Y-108209574D01*
X139294725Y-108337892D01*
X139294731Y-108337897D01*
X139448374Y-108434438D01*
X139448377Y-108434440D01*
X139448381Y-108434441D01*
X139448382Y-108434442D01*
X139580066Y-108480520D01*
X139619670Y-108494378D01*
X139619675Y-108494379D01*
X139799996Y-108514696D01*
X139800000Y-108514696D01*
X139800004Y-108514696D01*
X139980324Y-108494379D01*
X139980327Y-108494378D01*
X139980330Y-108494378D01*
X140151618Y-108434442D01*
X140151620Y-108434440D01*
X140151622Y-108434440D01*
X140151625Y-108434438D01*
X140305268Y-108337897D01*
X140305269Y-108337896D01*
X140305274Y-108337893D01*
X140433593Y-108209574D01*
X140433597Y-108209568D01*
X140530138Y-108055925D01*
X140530140Y-108055922D01*
X140530141Y-108055919D01*
X140530142Y-108055918D01*
X140590078Y-107884630D01*
X140591401Y-107872888D01*
X140610396Y-107704303D01*
X140610396Y-107704296D01*
X140590079Y-107523975D01*
X140590078Y-107523970D01*
X140546524Y-107399500D01*
X140530142Y-107352682D01*
X140530141Y-107352681D01*
X140530140Y-107352677D01*
X140530138Y-107352674D01*
X140433597Y-107199031D01*
X140433592Y-107199025D01*
X140305274Y-107070707D01*
X140305268Y-107070702D01*
X140151625Y-106974161D01*
X140151619Y-106974158D01*
X139980324Y-106914220D01*
X139886885Y-106903692D01*
X139822471Y-106876625D01*
X139813088Y-106868153D01*
X136619935Y-103675000D01*
X150638644Y-103675000D01*
X150658013Y-103859286D01*
X150658014Y-103859288D01*
X150715274Y-104035514D01*
X150788343Y-104162074D01*
X150807923Y-104195987D01*
X150822111Y-104211744D01*
X150931906Y-104333686D01*
X150931909Y-104333688D01*
X150931912Y-104333691D01*
X151023966Y-104400572D01*
X151081822Y-104442607D01*
X151251095Y-104517973D01*
X151251098Y-104517973D01*
X151251101Y-104517975D01*
X151432351Y-104556500D01*
X151617649Y-104556500D01*
X151798899Y-104517975D01*
X151798902Y-104517973D01*
X151798904Y-104517973D01*
X151914722Y-104466407D01*
X151968178Y-104442607D01*
X152118088Y-104333691D01*
X152242077Y-104195987D01*
X152334726Y-104035513D01*
X152391987Y-103859284D01*
X152411356Y-103675000D01*
X152391987Y-103490716D01*
X152334726Y-103314487D01*
X152242077Y-103154013D01*
X152160463Y-103063371D01*
X152118093Y-103016313D01*
X152118090Y-103016311D01*
X152118089Y-103016310D01*
X152118088Y-103016309D01*
X151968178Y-102907393D01*
X151968177Y-102907392D01*
X151798904Y-102832026D01*
X151798896Y-102832024D01*
X151617649Y-102793500D01*
X151432351Y-102793500D01*
X151251103Y-102832024D01*
X151251095Y-102832026D01*
X151081822Y-102907392D01*
X150931909Y-103016311D01*
X150931906Y-103016313D01*
X150807922Y-103154014D01*
X150715274Y-103314485D01*
X150658014Y-103490711D01*
X150658013Y-103490713D01*
X150638644Y-103675000D01*
X136619935Y-103675000D01*
X134963010Y-102018075D01*
X134929525Y-101956752D01*
X134934509Y-101887060D01*
X134958541Y-101847422D01*
X134962961Y-101842513D01*
X135066246Y-101727804D01*
X135160892Y-101563872D01*
X135219387Y-101383844D01*
X135233454Y-101250000D01*
X151213644Y-101250000D01*
X151233013Y-101434286D01*
X151233014Y-101434288D01*
X151290274Y-101610514D01*
X151363343Y-101737074D01*
X151382923Y-101770987D01*
X151406469Y-101797137D01*
X151506906Y-101908686D01*
X151506909Y-101908688D01*
X151506912Y-101908691D01*
X151623936Y-101993714D01*
X151656822Y-102017607D01*
X151826095Y-102092973D01*
X151826098Y-102092973D01*
X151826101Y-102092975D01*
X152007351Y-102131500D01*
X152192649Y-102131500D01*
X152373899Y-102092975D01*
X152373902Y-102092973D01*
X152373904Y-102092973D01*
X152460115Y-102054589D01*
X152543178Y-102017607D01*
X152693088Y-101908691D01*
X152817077Y-101770987D01*
X152909726Y-101610513D01*
X152966987Y-101434284D01*
X152986356Y-101250000D01*
X152966987Y-101065716D01*
X152909726Y-100889487D01*
X152817077Y-100729013D01*
X152768514Y-100675078D01*
X152693093Y-100591313D01*
X152693090Y-100591311D01*
X152693089Y-100591310D01*
X152693088Y-100591309D01*
X152543178Y-100482393D01*
X152543177Y-100482392D01*
X152373904Y-100407026D01*
X152373896Y-100407024D01*
X152192649Y-100368500D01*
X152007351Y-100368500D01*
X151826103Y-100407024D01*
X151826095Y-100407026D01*
X151656822Y-100482392D01*
X151506909Y-100591311D01*
X151506906Y-100591313D01*
X151382922Y-100729014D01*
X151290274Y-100889485D01*
X151233014Y-101065711D01*
X151233013Y-101065713D01*
X151213644Y-101250000D01*
X135233454Y-101250000D01*
X135234589Y-101239197D01*
X135261174Y-101174585D01*
X135318471Y-101134600D01*
X135357910Y-101128161D01*
X135439623Y-101128161D01*
X135439625Y-101128161D01*
X135624782Y-101088805D01*
X135797709Y-101011812D01*
X135950850Y-100900549D01*
X136077512Y-100759877D01*
X136172158Y-100595945D01*
X136230653Y-100415917D01*
X136250439Y-100227661D01*
X136235999Y-100090278D01*
X136248568Y-100021553D01*
X136296300Y-99970529D01*
X136333531Y-99956033D01*
X136447071Y-99931900D01*
X136447075Y-99931898D01*
X136447076Y-99931898D01*
X136514534Y-99901863D01*
X136619998Y-99854907D01*
X136773139Y-99743644D01*
X136899801Y-99602972D01*
X136994447Y-99439040D01*
X137052942Y-99259012D01*
X137072728Y-99070756D01*
X137052942Y-98882500D01*
X136994447Y-98702472D01*
X136899801Y-98538540D01*
X136782885Y-98408692D01*
X136752657Y-98345704D01*
X136761282Y-98276369D01*
X136767643Y-98263736D01*
X136782557Y-98237906D01*
X136841052Y-98057878D01*
X136848612Y-97985946D01*
X136875195Y-97921334D01*
X136932492Y-97881349D01*
X136997709Y-97877620D01*
X137105352Y-97900500D01*
X137105353Y-97900500D01*
X137294642Y-97900500D01*
X137294644Y-97900500D01*
X137479801Y-97861144D01*
X137652728Y-97784151D01*
X137805869Y-97672888D01*
X137932531Y-97532216D01*
X138027177Y-97368284D01*
X138085672Y-97188256D01*
X138105458Y-97000000D01*
X138085672Y-96811744D01*
X138027177Y-96631716D01*
X137932531Y-96467784D01*
X137805869Y-96327112D01*
X137805868Y-96327111D01*
X137652732Y-96215851D01*
X137652727Y-96215848D01*
X137479805Y-96138857D01*
X137479800Y-96138855D01*
X137333999Y-96107865D01*
X137294644Y-96099500D01*
X137294643Y-96099500D01*
X137225097Y-96099500D01*
X137158058Y-96079815D01*
X137137416Y-96063181D01*
X136324235Y-95250000D01*
X153794540Y-95250000D01*
X153814326Y-95438256D01*
X153814327Y-95438259D01*
X153872818Y-95618277D01*
X153872821Y-95618284D01*
X153967467Y-95782216D01*
X154094129Y-95922888D01*
X154247265Y-96034148D01*
X154247270Y-96034151D01*
X154420192Y-96111142D01*
X154420197Y-96111144D01*
X154605354Y-96150500D01*
X154605355Y-96150500D01*
X154794644Y-96150500D01*
X154794646Y-96150500D01*
X154979803Y-96111144D01*
X155152730Y-96034151D01*
X155160944Y-96028182D01*
X155226750Y-96004702D01*
X155233831Y-96004500D01*
X158799069Y-96004500D01*
X158866108Y-96024185D01*
X158871956Y-96028183D01*
X158880169Y-96034150D01*
X158880170Y-96034151D01*
X159053092Y-96111142D01*
X159053097Y-96111144D01*
X159238254Y-96150500D01*
X159238255Y-96150500D01*
X159427544Y-96150500D01*
X159427546Y-96150500D01*
X159612703Y-96111144D01*
X159785630Y-96034151D01*
X159938771Y-95922888D01*
X160065433Y-95782216D01*
X160160079Y-95618284D01*
X160218574Y-95438256D01*
X160238360Y-95250000D01*
X160218574Y-95061744D01*
X160160079Y-94881716D01*
X160065433Y-94717784D01*
X159938771Y-94577112D01*
X159938770Y-94577111D01*
X159785634Y-94465851D01*
X159785629Y-94465848D01*
X159612707Y-94388857D01*
X159612702Y-94388855D01*
X159466901Y-94357865D01*
X159427546Y-94349500D01*
X159238254Y-94349500D01*
X159205797Y-94356398D01*
X159053097Y-94388855D01*
X159053092Y-94388857D01*
X158880170Y-94465848D01*
X158880169Y-94465849D01*
X158871956Y-94471817D01*
X158806150Y-94495298D01*
X158799069Y-94495500D01*
X155233831Y-94495500D01*
X155166792Y-94475815D01*
X155160944Y-94471817D01*
X155152730Y-94465849D01*
X155152729Y-94465848D01*
X154979807Y-94388857D01*
X154979802Y-94388855D01*
X154834001Y-94357865D01*
X154794646Y-94349500D01*
X154605354Y-94349500D01*
X154572897Y-94356398D01*
X154420197Y-94388855D01*
X154420192Y-94388857D01*
X154247270Y-94465848D01*
X154247265Y-94465851D01*
X154094129Y-94577111D01*
X153967466Y-94717785D01*
X153872821Y-94881715D01*
X153872818Y-94881722D01*
X153814327Y-95061740D01*
X153814326Y-95061744D01*
X153794540Y-95250000D01*
X136324235Y-95250000D01*
X134282933Y-93208698D01*
X134282931Y-93208695D01*
X134164060Y-93089824D01*
X134164059Y-93089823D01*
X134063083Y-93031525D01*
X134063082Y-93031524D01*
X134027126Y-93010765D01*
X133971224Y-92995786D01*
X133874400Y-92969842D01*
X133716286Y-92969842D01*
X133708690Y-92969842D01*
X133708674Y-92969843D01*
X90470441Y-92969843D01*
X90403402Y-92950158D01*
X90382760Y-92933524D01*
X90380960Y-92931724D01*
X90347475Y-92870401D01*
X90344641Y-92844043D01*
X90344641Y-92765585D01*
X90364326Y-92698546D01*
X90417130Y-92652791D01*
X90486288Y-92642847D01*
X90494419Y-92644294D01*
X90523609Y-92650499D01*
X90712899Y-92650499D01*
X90712901Y-92650499D01*
X90898058Y-92611143D01*
X91070985Y-92534150D01*
X91224126Y-92422887D01*
X91350788Y-92282215D01*
X91350794Y-92282203D01*
X91350900Y-92282060D01*
X91351045Y-92281928D01*
X91355137Y-92277385D01*
X91355614Y-92277814D01*
X91389229Y-92247541D01*
X91418715Y-92230519D01*
X91530519Y-92118715D01*
X91530519Y-92118713D01*
X91540724Y-92108509D01*
X91540726Y-92108505D01*
X91662415Y-91986818D01*
X91723739Y-91953334D01*
X91750096Y-91950500D01*
X107863331Y-91950500D01*
X107863347Y-91950501D01*
X107870943Y-91950501D01*
X108029054Y-91950501D01*
X108029057Y-91950501D01*
X108181785Y-91909577D01*
X108231904Y-91880639D01*
X108318716Y-91830520D01*
X108430520Y-91718716D01*
X108430520Y-91718714D01*
X108440728Y-91708507D01*
X108440730Y-91708504D01*
X112988628Y-87160606D01*
X112988633Y-87160602D01*
X112998836Y-87150398D01*
X112998838Y-87150398D01*
X113110642Y-87038594D01*
X113178835Y-86920480D01*
X113189699Y-86901663D01*
X113230623Y-86748935D01*
X113230623Y-86651950D01*
X113250308Y-86584911D01*
X113262469Y-86568983D01*
X113362655Y-86457716D01*
X113457301Y-86293784D01*
X113515796Y-86113756D01*
X113535582Y-85925500D01*
X113515796Y-85737244D01*
X113457301Y-85557216D01*
X113362655Y-85393284D01*
X113235993Y-85252612D01*
X113235992Y-85252611D01*
X113082856Y-85141351D01*
X113082851Y-85141348D01*
X112909929Y-85064357D01*
X112909924Y-85064355D01*
X112905927Y-85063506D01*
X112903838Y-85062378D01*
X112903748Y-85062349D01*
X112903753Y-85062332D01*
X112844445Y-85030314D01*
X112813778Y-84980536D01*
X112757301Y-84806716D01*
X112662655Y-84642784D01*
X112535993Y-84502112D01*
X112533086Y-84500000D01*
X112382856Y-84390851D01*
X112382851Y-84390848D01*
X112209929Y-84313857D01*
X112209924Y-84313855D01*
X112064123Y-84282865D01*
X112024768Y-84274500D01*
X111835476Y-84274500D01*
X111808311Y-84280274D01*
X111650319Y-84313855D01*
X111650314Y-84313857D01*
X111477392Y-84390848D01*
X111477387Y-84390851D01*
X111337158Y-84492734D01*
X111271352Y-84516214D01*
X111203298Y-84500388D01*
X111172123Y-84475388D01*
X111136998Y-84436377D01*
X111136991Y-84436371D01*
X110983856Y-84325112D01*
X110983851Y-84325109D01*
X110810929Y-84248118D01*
X110810924Y-84248116D01*
X110659110Y-84215848D01*
X110625768Y-84208761D01*
X110436476Y-84208761D01*
X110404019Y-84215659D01*
X110251319Y-84248116D01*
X110251314Y-84248118D01*
X110078393Y-84325109D01*
X109930754Y-84432374D01*
X109864947Y-84455853D01*
X109796893Y-84440027D01*
X109765719Y-84415027D01*
X109760446Y-84409171D01*
X109737993Y-84384234D01*
X109737992Y-84384233D01*
X109737986Y-84384228D01*
X109584856Y-84272973D01*
X109584851Y-84272970D01*
X109411929Y-84195979D01*
X109411924Y-84195977D01*
X109249115Y-84161372D01*
X109226768Y-84156622D01*
X109037476Y-84156622D01*
X109015129Y-84161372D01*
X108852319Y-84195977D01*
X108852314Y-84195979D01*
X108679392Y-84272970D01*
X108679387Y-84272973D01*
X108529557Y-84381831D01*
X108463751Y-84405311D01*
X108395697Y-84389485D01*
X108364522Y-84364485D01*
X108330870Y-84327111D01*
X108177734Y-84215851D01*
X108177729Y-84215848D01*
X108004807Y-84138857D01*
X108004802Y-84138855D01*
X107859001Y-84107865D01*
X107819646Y-84099500D01*
X107630354Y-84099500D01*
X107597897Y-84106398D01*
X107445197Y-84138855D01*
X107445192Y-84138857D01*
X107272271Y-84215848D01*
X107159421Y-84297838D01*
X107093614Y-84321317D01*
X107025560Y-84305491D01*
X106999164Y-84283002D01*
X106998017Y-84284150D01*
X106864774Y-84150907D01*
X106864768Y-84150902D01*
X106711125Y-84054361D01*
X106711122Y-84054359D01*
X106539829Y-83994421D01*
X106539824Y-83994420D01*
X106359504Y-83974104D01*
X106359496Y-83974104D01*
X106179175Y-83994420D01*
X106179170Y-83994421D01*
X106007877Y-84054359D01*
X106007874Y-84054361D01*
X105854231Y-84150902D01*
X105848783Y-84155248D01*
X105847208Y-84153274D01*
X105796129Y-84181166D01*
X105769771Y-84184000D01*
X103884597Y-84184000D01*
X103817558Y-84164315D01*
X103796916Y-84147681D01*
X103620645Y-83971410D01*
X103587160Y-83910087D01*
X103585106Y-83897611D01*
X103574579Y-83804173D01*
X103560294Y-83763348D01*
X103514642Y-83632882D01*
X103514639Y-83632877D01*
X103514638Y-83632874D01*
X103418097Y-83479231D01*
X103418092Y-83479225D01*
X103289774Y-83350907D01*
X103289768Y-83350902D01*
X103136125Y-83254361D01*
X103136122Y-83254359D01*
X102964829Y-83194421D01*
X102964824Y-83194420D01*
X102784504Y-83174104D01*
X102784496Y-83174104D01*
X102604175Y-83194420D01*
X102604170Y-83194421D01*
X102432877Y-83254359D01*
X102432874Y-83254361D01*
X102279231Y-83350902D01*
X102279225Y-83350907D01*
X102150907Y-83479225D01*
X102150902Y-83479231D01*
X102054361Y-83632874D01*
X102054359Y-83632877D01*
X101994421Y-83804170D01*
X101994420Y-83804175D01*
X101974104Y-83984496D01*
X101974104Y-83984503D01*
X101994420Y-84164824D01*
X101994421Y-84164829D01*
X102054359Y-84336122D01*
X102054361Y-84336125D01*
X102150902Y-84489768D01*
X102150907Y-84489774D01*
X102279225Y-84618092D01*
X102279231Y-84618097D01*
X102432874Y-84714638D01*
X102432880Y-84714641D01*
X102432882Y-84714642D01*
X102515431Y-84743527D01*
X102604173Y-84774579D01*
X102697611Y-84785106D01*
X102762026Y-84812172D01*
X102771410Y-84820645D01*
X103099639Y-85148874D01*
X103099649Y-85148885D01*
X103103979Y-85153215D01*
X103103980Y-85153216D01*
X103215784Y-85265020D01*
X103215786Y-85265021D01*
X103215790Y-85265024D01*
X103276419Y-85300028D01*
X103276423Y-85300029D01*
X103276424Y-85300030D01*
X103352715Y-85344077D01*
X103505443Y-85385001D01*
X103505446Y-85385001D01*
X103671153Y-85385001D01*
X103671169Y-85385000D01*
X105769771Y-85385000D01*
X105836810Y-85404685D01*
X105848500Y-85414105D01*
X105848783Y-85413752D01*
X105854231Y-85418097D01*
X106007874Y-85514638D01*
X106007877Y-85514640D01*
X106007881Y-85514641D01*
X106007882Y-85514642D01*
X106129549Y-85557215D01*
X106179170Y-85574578D01*
X106179175Y-85574579D01*
X106359496Y-85594896D01*
X106359500Y-85594896D01*
X106359504Y-85594896D01*
X106539824Y-85574579D01*
X106539827Y-85574578D01*
X106539830Y-85574578D01*
X106711118Y-85514642D01*
X106788271Y-85466162D01*
X106855507Y-85447162D01*
X106922343Y-85467529D01*
X106967557Y-85520796D01*
X106976796Y-85590053D01*
X106947125Y-85653309D01*
X106941925Y-85658837D01*
X104812583Y-87788180D01*
X104751260Y-87821665D01*
X104724902Y-87824499D01*
X96414610Y-87824499D01*
X96414593Y-87824498D01*
X96248886Y-87824498D01*
X96201251Y-87837262D01*
X96126115Y-87857395D01*
X96126111Y-87857396D01*
X96097969Y-87864936D01*
X96096276Y-87865362D01*
X96096175Y-87865413D01*
X96096159Y-87865422D01*
X96096157Y-87865423D01*
X96032608Y-87902113D01*
X96032606Y-87902113D01*
X95979306Y-87932887D01*
X95917306Y-87949500D01*
X90840047Y-87949500D01*
X90773008Y-87929815D01*
X90752366Y-87913181D01*
X90427540Y-87588355D01*
X90427538Y-87588352D01*
X90308667Y-87469481D01*
X90308666Y-87469480D01*
X90221854Y-87419360D01*
X90221854Y-87419359D01*
X90221850Y-87419358D01*
X90171735Y-87390423D01*
X90019007Y-87349499D01*
X89860893Y-87349499D01*
X89853297Y-87349499D01*
X89853281Y-87349500D01*
X89446720Y-87349500D01*
X89446704Y-87349499D01*
X89439108Y-87349499D01*
X89280993Y-87349499D01*
X89204629Y-87369961D01*
X89128264Y-87390423D01*
X89128259Y-87390426D01*
X88991340Y-87469475D01*
X88991332Y-87469481D01*
X88947633Y-87513181D01*
X88886310Y-87546666D01*
X88859952Y-87549500D01*
X84894932Y-87549500D01*
X84827893Y-87529815D01*
X84826041Y-87528602D01*
X84755109Y-87481206D01*
X84710304Y-87427593D01*
X84700000Y-87378104D01*
X84700000Y-87021895D01*
X84719685Y-86954856D01*
X84755110Y-86918793D01*
X84841487Y-86861077D01*
X84842162Y-86860626D01*
X84960626Y-86742162D01*
X85053703Y-86602863D01*
X85117816Y-86448082D01*
X85150500Y-86283767D01*
X85150500Y-86116233D01*
X85117816Y-85951918D01*
X85068227Y-85832201D01*
X85053704Y-85797139D01*
X85034829Y-85768891D01*
X85013951Y-85702214D01*
X85032435Y-85634834D01*
X85034829Y-85631109D01*
X85053703Y-85602863D01*
X85117816Y-85448082D01*
X85150500Y-85283767D01*
X85150500Y-85116233D01*
X85117816Y-84951918D01*
X85053703Y-84797137D01*
X85011257Y-84733612D01*
X84960626Y-84657837D01*
X84842165Y-84539376D01*
X84842161Y-84539373D01*
X84755109Y-84481206D01*
X84710304Y-84427593D01*
X84700000Y-84378104D01*
X84700000Y-84021895D01*
X84719685Y-83954856D01*
X84755110Y-83918793D01*
X84838338Y-83863181D01*
X84842162Y-83860626D01*
X84960626Y-83742162D01*
X85018459Y-83655608D01*
X85072071Y-83610804D01*
X85121561Y-83600500D01*
X87949903Y-83600500D01*
X88016942Y-83620185D01*
X88037584Y-83636819D01*
X88214397Y-83813632D01*
X88247882Y-83874955D01*
X88242898Y-83944647D01*
X88218867Y-83984284D01*
X88139462Y-84072474D01*
X88046814Y-84232945D01*
X87989554Y-84409171D01*
X87989553Y-84409173D01*
X87970184Y-84593460D01*
X87989553Y-84777746D01*
X87989554Y-84777748D01*
X88046814Y-84953974D01*
X88090889Y-85030314D01*
X88139463Y-85114447D01*
X88174368Y-85153213D01*
X88263446Y-85252146D01*
X88263449Y-85252148D01*
X88263452Y-85252151D01*
X88373652Y-85332216D01*
X88413362Y-85361067D01*
X88582635Y-85436433D01*
X88582638Y-85436433D01*
X88582641Y-85436435D01*
X88763891Y-85474960D01*
X88772541Y-85474960D01*
X88839580Y-85494645D01*
X88885335Y-85547449D01*
X88890470Y-85560637D01*
X88894807Y-85573985D01*
X88941690Y-85718278D01*
X88941693Y-85718284D01*
X89036339Y-85882216D01*
X89109607Y-85963588D01*
X89163001Y-86022888D01*
X89316137Y-86134148D01*
X89316142Y-86134151D01*
X89489064Y-86211142D01*
X89489069Y-86211144D01*
X89674226Y-86250500D01*
X89674227Y-86250500D01*
X89863516Y-86250500D01*
X89863518Y-86250500D01*
X90048675Y-86211144D01*
X90221602Y-86134151D01*
X90343794Y-86045373D01*
X90409596Y-86021895D01*
X90477650Y-86037720D01*
X90508823Y-86062718D01*
X90563001Y-86122888D01*
X90563004Y-86122890D01*
X90716137Y-86234148D01*
X90716142Y-86234151D01*
X90889064Y-86311142D01*
X90889069Y-86311144D01*
X91074226Y-86350500D01*
X91074227Y-86350500D01*
X91263516Y-86350500D01*
X91263518Y-86350500D01*
X91448675Y-86311144D01*
X91621602Y-86234151D01*
X91774743Y-86122888D01*
X91901405Y-85982216D01*
X91928954Y-85934500D01*
X101348144Y-85934500D01*
X101367513Y-86118786D01*
X101367514Y-86118788D01*
X101424774Y-86295014D01*
X101456809Y-86350500D01*
X101517423Y-86455487D01*
X101549677Y-86491309D01*
X101641406Y-86593186D01*
X101641409Y-86593188D01*
X101641412Y-86593191D01*
X101755034Y-86675742D01*
X101791322Y-86702107D01*
X101960595Y-86777473D01*
X101960598Y-86777473D01*
X101960601Y-86777475D01*
X102141851Y-86816000D01*
X102327149Y-86816000D01*
X102508399Y-86777475D01*
X102508402Y-86777473D01*
X102508404Y-86777473D01*
X102572501Y-86748935D01*
X102677678Y-86702107D01*
X102827588Y-86593191D01*
X102835044Y-86584911D01*
X102854451Y-86563355D01*
X102951577Y-86455487D01*
X103044226Y-86295013D01*
X103101487Y-86118784D01*
X103120856Y-85934500D01*
X103101487Y-85750216D01*
X103044226Y-85573987D01*
X102951577Y-85413513D01*
X102878377Y-85332216D01*
X102827593Y-85275813D01*
X102827590Y-85275811D01*
X102827589Y-85275810D01*
X102827588Y-85275809D01*
X102679583Y-85168277D01*
X102677677Y-85166892D01*
X102508404Y-85091526D01*
X102508396Y-85091524D01*
X102327149Y-85053000D01*
X102141851Y-85053000D01*
X101960603Y-85091524D01*
X101960595Y-85091526D01*
X101791322Y-85166892D01*
X101641409Y-85275811D01*
X101641406Y-85275813D01*
X101517422Y-85413514D01*
X101424774Y-85573985D01*
X101367514Y-85750211D01*
X101367513Y-85750213D01*
X101348144Y-85934500D01*
X91928954Y-85934500D01*
X91996051Y-85818284D01*
X92054546Y-85638256D01*
X92074332Y-85450000D01*
X92054546Y-85261744D01*
X91996051Y-85081716D01*
X91901405Y-84917784D01*
X91836757Y-84845985D01*
X91801222Y-84806519D01*
X91770992Y-84743527D01*
X91769372Y-84723547D01*
X91769372Y-84129529D01*
X91769370Y-84129520D01*
X91768725Y-84127111D01*
X91763611Y-84108024D01*
X91728449Y-83976799D01*
X91671171Y-83877591D01*
X91649392Y-83839868D01*
X91537588Y-83728064D01*
X91537587Y-83728063D01*
X91533257Y-83723733D01*
X91533246Y-83723723D01*
X91246412Y-83436889D01*
X91246410Y-83436886D01*
X91127539Y-83318015D01*
X91127534Y-83318011D01*
X91017282Y-83254358D01*
X90990607Y-83238957D01*
X90837879Y-83198033D01*
X90679765Y-83198033D01*
X90672169Y-83198033D01*
X90672153Y-83198034D01*
X90480003Y-83198034D01*
X90412964Y-83178349D01*
X90392322Y-83161715D01*
X88668962Y-81438355D01*
X88668960Y-81438352D01*
X88550089Y-81319481D01*
X88550081Y-81319475D01*
X88434027Y-81252472D01*
X88434026Y-81252471D01*
X88419357Y-81244002D01*
X88413157Y-81240423D01*
X88260429Y-81199499D01*
X88102315Y-81199499D01*
X88094719Y-81199499D01*
X88094703Y-81199500D01*
X86203595Y-81199500D01*
X86136556Y-81179815D01*
X86090801Y-81127011D01*
X86080274Y-81062539D01*
X86080701Y-81058473D01*
X86089559Y-80974199D01*
X86088325Y-80962460D01*
X86100894Y-80893732D01*
X86148626Y-80842708D01*
X86211646Y-80825500D01*
X91007352Y-80825500D01*
X91074391Y-80845185D01*
X91114737Y-80887498D01*
X91158018Y-80962462D01*
X91167700Y-80979232D01*
X91294362Y-81119904D01*
X91447498Y-81231164D01*
X91447503Y-81231167D01*
X91620425Y-81308158D01*
X91620430Y-81308160D01*
X91805587Y-81347516D01*
X91805588Y-81347516D01*
X91994877Y-81347516D01*
X91994879Y-81347516D01*
X92180036Y-81308160D01*
X92352963Y-81231167D01*
X92506104Y-81119904D01*
X92632766Y-80979232D01*
X92727412Y-80815300D01*
X92785907Y-80635272D01*
X92805693Y-80447016D01*
X92785907Y-80258760D01*
X92769793Y-80209169D01*
X92767799Y-80139329D01*
X92803879Y-80079496D01*
X92866580Y-80048668D01*
X92887639Y-80046852D01*
X99934192Y-80042126D01*
X100001244Y-80061766D01*
X100047035Y-80114539D01*
X100057025Y-80183691D01*
X100028042Y-80247266D01*
X100021956Y-80253807D01*
X97336910Y-82938853D01*
X97275587Y-82972338D01*
X97263114Y-82974392D01*
X97169675Y-82984920D01*
X96998380Y-83044858D01*
X96998374Y-83044861D01*
X96844731Y-83141402D01*
X96844725Y-83141407D01*
X96716407Y-83269725D01*
X96716402Y-83269731D01*
X96619861Y-83423374D01*
X96619859Y-83423377D01*
X96559921Y-83594670D01*
X96559920Y-83594675D01*
X96539604Y-83774996D01*
X96539604Y-83775003D01*
X96559920Y-83955324D01*
X96559921Y-83955329D01*
X96619858Y-84126618D01*
X96619861Y-84126625D01*
X96716402Y-84280268D01*
X96716407Y-84280274D01*
X96844725Y-84408592D01*
X96844731Y-84408597D01*
X96998374Y-84505138D01*
X96998377Y-84505140D01*
X96998381Y-84505141D01*
X96998382Y-84505142D01*
X97081071Y-84534076D01*
X97169670Y-84565078D01*
X97169675Y-84565079D01*
X97349996Y-84585396D01*
X97350000Y-84585396D01*
X97350004Y-84585396D01*
X97530324Y-84565079D01*
X97530327Y-84565078D01*
X97530330Y-84565078D01*
X97701618Y-84505142D01*
X97701620Y-84505140D01*
X97701622Y-84505140D01*
X97701625Y-84505138D01*
X97855268Y-84408597D01*
X97855269Y-84408596D01*
X97855274Y-84408593D01*
X97938867Y-84325000D01*
X98413644Y-84325000D01*
X98433013Y-84509286D01*
X98433014Y-84509288D01*
X98490274Y-84685514D01*
X98550578Y-84789964D01*
X98582923Y-84845987D01*
X98626112Y-84893954D01*
X98706906Y-84983686D01*
X98706909Y-84983688D01*
X98706912Y-84983691D01*
X98841832Y-85081716D01*
X98856822Y-85092607D01*
X99026095Y-85167973D01*
X99026098Y-85167973D01*
X99026101Y-85167975D01*
X99207351Y-85206500D01*
X99392649Y-85206500D01*
X99573899Y-85167975D01*
X99573902Y-85167973D01*
X99573904Y-85167973D01*
X99690124Y-85116228D01*
X99743178Y-85092607D01*
X99893088Y-84983691D01*
X99895932Y-84980533D01*
X99921697Y-84951917D01*
X100017077Y-84845987D01*
X100109726Y-84685513D01*
X100166987Y-84509284D01*
X100186356Y-84325000D01*
X100166987Y-84140716D01*
X100109726Y-83964487D01*
X100098271Y-83944647D01*
X100070570Y-83896666D01*
X100017077Y-83804013D01*
X99961386Y-83742162D01*
X99893093Y-83666313D01*
X99893090Y-83666311D01*
X99893089Y-83666310D01*
X99893088Y-83666309D01*
X99743178Y-83557393D01*
X99743177Y-83557392D01*
X99573904Y-83482026D01*
X99573896Y-83482024D01*
X99392649Y-83443500D01*
X99207351Y-83443500D01*
X99026103Y-83482024D01*
X99026095Y-83482026D01*
X98856822Y-83557392D01*
X98706909Y-83666311D01*
X98706906Y-83666313D01*
X98582922Y-83804014D01*
X98490274Y-83964485D01*
X98433014Y-84140711D01*
X98433013Y-84140713D01*
X98413644Y-84325000D01*
X97938867Y-84325000D01*
X97983593Y-84280274D01*
X97988182Y-84272971D01*
X98080138Y-84126625D01*
X98080142Y-84126618D01*
X98126399Y-83994422D01*
X98140078Y-83955330D01*
X98140078Y-83955329D01*
X98140079Y-83955327D01*
X98150606Y-83861887D01*
X98177672Y-83797473D01*
X98186135Y-83788098D01*
X100685445Y-81288791D01*
X100746768Y-81255306D01*
X100773126Y-81252472D01*
X131098930Y-81252472D01*
X131165969Y-81272157D01*
X131211724Y-81324961D01*
X131221668Y-81394119D01*
X131192643Y-81457675D01*
X131186611Y-81464153D01*
X128647344Y-84003421D01*
X128586021Y-84036906D01*
X128559663Y-84039740D01*
X128543401Y-84039740D01*
X128476362Y-84020055D01*
X128451252Y-83998713D01*
X128423014Y-83967352D01*
X128423007Y-83967346D01*
X128269877Y-83856091D01*
X128269872Y-83856088D01*
X128096950Y-83779097D01*
X128096945Y-83779095D01*
X127951144Y-83748105D01*
X127911789Y-83739740D01*
X127722497Y-83739740D01*
X127690040Y-83746638D01*
X127537340Y-83779095D01*
X127537335Y-83779097D01*
X127364413Y-83856088D01*
X127364408Y-83856091D01*
X127211272Y-83967351D01*
X127084611Y-84108023D01*
X127084608Y-84108025D01*
X127041428Y-84182816D01*
X126990861Y-84231032D01*
X126922253Y-84244254D01*
X126857389Y-84218286D01*
X126816861Y-84161372D01*
X126816110Y-84159134D01*
X126810124Y-84140713D01*
X126809726Y-84139487D01*
X126717077Y-83979013D01*
X126649928Y-83904436D01*
X126593093Y-83841313D01*
X126593090Y-83841311D01*
X126593089Y-83841310D01*
X126593088Y-83841309D01*
X126456624Y-83742162D01*
X126443177Y-83732392D01*
X126273904Y-83657026D01*
X126273896Y-83657024D01*
X126092649Y-83618500D01*
X125907351Y-83618500D01*
X125726103Y-83657024D01*
X125726095Y-83657026D01*
X125556822Y-83732392D01*
X125406909Y-83841311D01*
X125406906Y-83841313D01*
X125282922Y-83979014D01*
X125190274Y-84139485D01*
X125133014Y-84315711D01*
X125133013Y-84315713D01*
X125130384Y-84340732D01*
X125119289Y-84446297D01*
X125116854Y-84469462D01*
X125090269Y-84534076D01*
X125032972Y-84574061D01*
X124993533Y-84580500D01*
X115441191Y-84580500D01*
X115441175Y-84580499D01*
X115433579Y-84580499D01*
X115275465Y-84580499D01*
X115153179Y-84613265D01*
X115118905Y-84615964D01*
X115118905Y-84617261D01*
X115112407Y-84617261D01*
X114923115Y-84617261D01*
X114890658Y-84624159D01*
X114737958Y-84656616D01*
X114737953Y-84656618D01*
X114565031Y-84733609D01*
X114565026Y-84733612D01*
X114411890Y-84844872D01*
X114285227Y-84985546D01*
X114190582Y-85149476D01*
X114190579Y-85149483D01*
X114132088Y-85329501D01*
X114132087Y-85329505D01*
X114112301Y-85517761D01*
X114132087Y-85706017D01*
X114132087Y-85706019D01*
X114132088Y-85706021D01*
X114145070Y-85745977D01*
X114147065Y-85815818D01*
X114119290Y-85867266D01*
X114040229Y-85955072D01*
X113945586Y-86119000D01*
X113945583Y-86119007D01*
X113887092Y-86299025D01*
X113887091Y-86299029D01*
X113867305Y-86487285D01*
X113887091Y-86675541D01*
X113887092Y-86675544D01*
X113945583Y-86855562D01*
X113945586Y-86855569D01*
X114040232Y-87019501D01*
X114068144Y-87050500D01*
X114166894Y-87160173D01*
X114320030Y-87271433D01*
X114320035Y-87271436D01*
X114492957Y-87348427D01*
X114492962Y-87348429D01*
X114678119Y-87387785D01*
X114678120Y-87387785D01*
X114867409Y-87387785D01*
X114867411Y-87387785D01*
X115052568Y-87348429D01*
X115225495Y-87271436D01*
X115378636Y-87160173D01*
X115505298Y-87019501D01*
X115599944Y-86855569D01*
X115629638Y-86764177D01*
X115659884Y-86714821D01*
X116132801Y-86241906D01*
X116194124Y-86208421D01*
X116220482Y-86205587D01*
X124918542Y-86205587D01*
X124985581Y-86225272D01*
X125031336Y-86278076D01*
X125041280Y-86347234D01*
X125012255Y-86410790D01*
X124991427Y-86429905D01*
X124906913Y-86491307D01*
X124906906Y-86491313D01*
X124782922Y-86629014D01*
X124690274Y-86789485D01*
X124633014Y-86965711D01*
X124633013Y-86965713D01*
X124613644Y-87150000D01*
X124633013Y-87334286D01*
X124633014Y-87334288D01*
X124690274Y-87510514D01*
X124722512Y-87566351D01*
X124782923Y-87670987D01*
X124811752Y-87703005D01*
X124906906Y-87808686D01*
X124906909Y-87808688D01*
X124906912Y-87808691D01*
X125035498Y-87902114D01*
X125056822Y-87917607D01*
X125226095Y-87992973D01*
X125226098Y-87992973D01*
X125226101Y-87992975D01*
X125407351Y-88031500D01*
X125592649Y-88031500D01*
X125773899Y-87992975D01*
X125773902Y-87992973D01*
X125773904Y-87992973D01*
X125871545Y-87949500D01*
X125943178Y-87917607D01*
X126093088Y-87808691D01*
X126103492Y-87797137D01*
X126152617Y-87742577D01*
X126217077Y-87670987D01*
X126304989Y-87518717D01*
X143153861Y-87518717D01*
X143173230Y-87703003D01*
X143173231Y-87703005D01*
X143230491Y-87879231D01*
X143268162Y-87944479D01*
X143323140Y-88039704D01*
X143366329Y-88087671D01*
X143447123Y-88177403D01*
X143447126Y-88177405D01*
X143447129Y-88177408D01*
X143565710Y-88263562D01*
X143597039Y-88286324D01*
X143766312Y-88361690D01*
X143766315Y-88361690D01*
X143766318Y-88361692D01*
X143947568Y-88400217D01*
X144132866Y-88400217D01*
X144314116Y-88361692D01*
X144314119Y-88361690D01*
X144314121Y-88361690D01*
X144371139Y-88336303D01*
X144483395Y-88286324D01*
X144633305Y-88177408D01*
X144757294Y-88039704D01*
X144849943Y-87879230D01*
X144907204Y-87703001D01*
X144926573Y-87518717D01*
X144912210Y-87382063D01*
X152781581Y-87382063D01*
X152800950Y-87566349D01*
X152800951Y-87566351D01*
X152858211Y-87742577D01*
X152905508Y-87824498D01*
X152950860Y-87903050D01*
X152988163Y-87944479D01*
X153074843Y-88040749D01*
X153074846Y-88040751D01*
X153074849Y-88040754D01*
X153178737Y-88116233D01*
X153224759Y-88149670D01*
X153394032Y-88225036D01*
X153394035Y-88225036D01*
X153394038Y-88225038D01*
X153575288Y-88263563D01*
X153760586Y-88263563D01*
X153941836Y-88225038D01*
X153941839Y-88225036D01*
X153941841Y-88225036D01*
X153998859Y-88199649D01*
X154111115Y-88149670D01*
X154261025Y-88040754D01*
X154261971Y-88039704D01*
X154304047Y-87992973D01*
X154385014Y-87903050D01*
X154477663Y-87742576D01*
X154534924Y-87566347D01*
X154554293Y-87382063D01*
X154534924Y-87197779D01*
X154477663Y-87021550D01*
X154385014Y-86861076D01*
X154320555Y-86789487D01*
X154261030Y-86723376D01*
X154261027Y-86723374D01*
X154261026Y-86723373D01*
X154261025Y-86723372D01*
X154142443Y-86637217D01*
X154111114Y-86614455D01*
X153941841Y-86539089D01*
X153941833Y-86539087D01*
X153760586Y-86500563D01*
X153575288Y-86500563D01*
X153394040Y-86539087D01*
X153394032Y-86539089D01*
X153224759Y-86614455D01*
X153074846Y-86723374D01*
X153074843Y-86723376D01*
X152950859Y-86861077D01*
X152858211Y-87021548D01*
X152800951Y-87197774D01*
X152800950Y-87197776D01*
X152781581Y-87382063D01*
X144912210Y-87382063D01*
X144907204Y-87334433D01*
X144849943Y-87158204D01*
X144845206Y-87150000D01*
X144830363Y-87124291D01*
X144757294Y-86997730D01*
X144687738Y-86920480D01*
X144633310Y-86860030D01*
X144633307Y-86860028D01*
X144633306Y-86860027D01*
X144633305Y-86860026D01*
X144519681Y-86777473D01*
X144483394Y-86751109D01*
X144314121Y-86675743D01*
X144314113Y-86675741D01*
X144132866Y-86637217D01*
X143947568Y-86637217D01*
X143766320Y-86675741D01*
X143766312Y-86675743D01*
X143597039Y-86751109D01*
X143447126Y-86860028D01*
X143447123Y-86860030D01*
X143323139Y-86997731D01*
X143230491Y-87158202D01*
X143173231Y-87334428D01*
X143173230Y-87334430D01*
X143153861Y-87518717D01*
X126304989Y-87518717D01*
X126309726Y-87510513D01*
X126366987Y-87334284D01*
X126386356Y-87150000D01*
X126366987Y-86965716D01*
X126309726Y-86789487D01*
X126217077Y-86629013D01*
X126168514Y-86575078D01*
X126093093Y-86491313D01*
X126093086Y-86491307D01*
X126008573Y-86429905D01*
X125965907Y-86374575D01*
X125959928Y-86304962D01*
X125992534Y-86243167D01*
X126053372Y-86208810D01*
X126081458Y-86205587D01*
X127353704Y-86205587D01*
X127420743Y-86225272D01*
X127445853Y-86246614D01*
X127474090Y-86277974D01*
X127474097Y-86277980D01*
X127627227Y-86389235D01*
X127627232Y-86389238D01*
X127800154Y-86466229D01*
X127800159Y-86466231D01*
X127985316Y-86505587D01*
X127985317Y-86505587D01*
X128174606Y-86505587D01*
X128174608Y-86505587D01*
X128359765Y-86466231D01*
X128532692Y-86389238D01*
X128685833Y-86277975D01*
X128714071Y-86246614D01*
X128773557Y-86209966D01*
X128806220Y-86205587D01*
X129408244Y-86205587D01*
X129408260Y-86205588D01*
X129415856Y-86205588D01*
X129573967Y-86205588D01*
X129573970Y-86205588D01*
X129726698Y-86164664D01*
X129779288Y-86134301D01*
X129863629Y-86085607D01*
X129975433Y-85973803D01*
X129975433Y-85973801D01*
X129985637Y-85963598D01*
X129985640Y-85963593D01*
X130851391Y-85097842D01*
X138744540Y-85097842D01*
X138764326Y-85286098D01*
X138764327Y-85286101D01*
X138822818Y-85466119D01*
X138822821Y-85466126D01*
X138917467Y-85630058D01*
X139013978Y-85737244D01*
X139044129Y-85770730D01*
X139197265Y-85881990D01*
X139197270Y-85881993D01*
X139370192Y-85958984D01*
X139370197Y-85958986D01*
X139555354Y-85998342D01*
X139555355Y-85998342D01*
X139744644Y-85998342D01*
X139744646Y-85998342D01*
X139929803Y-85958986D01*
X140102730Y-85881993D01*
X140255871Y-85770730D01*
X140382533Y-85630058D01*
X140477179Y-85466126D01*
X140535674Y-85286098D01*
X140555460Y-85097842D01*
X140535674Y-84909586D01*
X140500067Y-84800000D01*
X141694540Y-84800000D01*
X141714326Y-84988256D01*
X141714327Y-84988259D01*
X141772818Y-85168277D01*
X141772821Y-85168284D01*
X141867467Y-85332216D01*
X141988034Y-85466119D01*
X141994129Y-85472888D01*
X142147265Y-85584148D01*
X142147270Y-85584151D01*
X142320192Y-85661142D01*
X142320197Y-85661144D01*
X142505354Y-85700500D01*
X142505355Y-85700500D01*
X142694644Y-85700500D01*
X142694646Y-85700500D01*
X142879803Y-85661144D01*
X143052730Y-85584151D01*
X143205871Y-85472888D01*
X143332533Y-85332216D01*
X143427179Y-85168284D01*
X143485674Y-84988256D01*
X143505460Y-84800000D01*
X143505460Y-84799997D01*
X143505460Y-84795136D01*
X143525145Y-84728097D01*
X143541779Y-84707455D01*
X143715158Y-84534076D01*
X143908506Y-84340728D01*
X143908511Y-84340724D01*
X143918714Y-84330520D01*
X143918716Y-84330520D01*
X144030520Y-84218716D01*
X144083692Y-84126618D01*
X144109577Y-84081785D01*
X144150501Y-83929057D01*
X144150501Y-83770943D01*
X144150501Y-83763348D01*
X144150500Y-83763330D01*
X144150500Y-82276452D01*
X144170185Y-82209413D01*
X144182350Y-82193480D01*
X144184277Y-82191340D01*
X144282533Y-82082216D01*
X144377179Y-81918284D01*
X144435674Y-81738256D01*
X144455460Y-81550000D01*
X144435674Y-81361744D01*
X144377179Y-81181716D01*
X144282533Y-81017784D01*
X144155871Y-80877112D01*
X144155870Y-80877111D01*
X144002734Y-80765851D01*
X144002729Y-80765848D01*
X143829807Y-80688857D01*
X143829802Y-80688855D01*
X143683874Y-80657838D01*
X143644646Y-80649500D01*
X143455354Y-80649500D01*
X143422897Y-80656398D01*
X143270197Y-80688855D01*
X143270192Y-80688857D01*
X143097270Y-80765848D01*
X143097265Y-80765851D01*
X142944129Y-80877111D01*
X142817466Y-81017785D01*
X142722821Y-81181715D01*
X142722818Y-81181722D01*
X142673989Y-81332004D01*
X142664326Y-81361744D01*
X142644540Y-81550000D01*
X142664326Y-81738256D01*
X142664327Y-81738259D01*
X142722818Y-81918277D01*
X142722821Y-81918284D01*
X142817467Y-82082216D01*
X142915723Y-82191340D01*
X142917650Y-82193480D01*
X142947880Y-82256471D01*
X142949500Y-82276452D01*
X142949500Y-83549903D01*
X142929815Y-83616942D01*
X142913181Y-83637584D01*
X142687584Y-83863181D01*
X142626261Y-83896666D01*
X142599903Y-83899500D01*
X142505354Y-83899500D01*
X142482132Y-83904436D01*
X142320197Y-83938855D01*
X142320192Y-83938857D01*
X142147270Y-84015848D01*
X142147265Y-84015851D01*
X141994129Y-84127111D01*
X141867466Y-84267785D01*
X141772821Y-84431715D01*
X141772818Y-84431722D01*
X141714327Y-84611740D01*
X141714326Y-84611744D01*
X141694540Y-84800000D01*
X140500067Y-84800000D01*
X140477179Y-84729558D01*
X140382533Y-84565626D01*
X140255871Y-84424954D01*
X140242208Y-84415027D01*
X140102734Y-84313693D01*
X140102729Y-84313690D01*
X139929807Y-84236699D01*
X139929802Y-84236697D01*
X139784001Y-84205707D01*
X139744646Y-84197342D01*
X139555354Y-84197342D01*
X139522897Y-84204240D01*
X139370197Y-84236697D01*
X139370192Y-84236699D01*
X139197270Y-84313690D01*
X139197265Y-84313693D01*
X139044129Y-84424953D01*
X138917466Y-84565627D01*
X138822821Y-84729557D01*
X138822818Y-84729564D01*
X138764327Y-84909582D01*
X138764326Y-84909586D01*
X138744540Y-85097842D01*
X130851391Y-85097842D01*
X133429229Y-82520005D01*
X133466468Y-82494411D01*
X133540209Y-82461580D01*
X133693350Y-82350317D01*
X133742315Y-82295934D01*
X133801800Y-82259287D01*
X133866559Y-82259132D01*
X133868212Y-82259575D01*
X133868216Y-82259577D01*
X133980019Y-82289534D01*
X134020942Y-82300500D01*
X134020943Y-82300500D01*
X134573742Y-82300500D01*
X134640781Y-82320185D01*
X134665891Y-82341527D01*
X134694128Y-82372887D01*
X134694135Y-82372893D01*
X134847265Y-82484148D01*
X134847270Y-82484151D01*
X135020192Y-82561142D01*
X135020197Y-82561144D01*
X135205354Y-82600500D01*
X135205355Y-82600500D01*
X135394644Y-82600500D01*
X135394646Y-82600500D01*
X135579803Y-82561144D01*
X135752730Y-82484151D01*
X135905871Y-82372888D01*
X136032533Y-82232216D01*
X136127179Y-82068284D01*
X136185674Y-81888256D01*
X136205460Y-81700000D01*
X136185674Y-81511744D01*
X136127179Y-81331716D01*
X136032533Y-81167784D01*
X135905871Y-81027112D01*
X135905863Y-81027106D01*
X135752734Y-80915851D01*
X135752729Y-80915848D01*
X135579807Y-80838857D01*
X135579802Y-80838855D01*
X135434001Y-80807865D01*
X135394646Y-80799500D01*
X135205354Y-80799500D01*
X135172897Y-80806398D01*
X135020197Y-80838855D01*
X135020192Y-80838857D01*
X134847270Y-80915848D01*
X134847265Y-80915851D01*
X134694135Y-81027106D01*
X134694128Y-81027112D01*
X134665891Y-81058473D01*
X134606405Y-81095121D01*
X134573742Y-81099500D01*
X134400097Y-81099500D01*
X134333058Y-81079815D01*
X134312416Y-81063181D01*
X133539562Y-80290327D01*
X133539560Y-80290324D01*
X133480485Y-80231249D01*
X133447000Y-80169926D01*
X133451984Y-80100234D01*
X133493856Y-80044301D01*
X133559320Y-80019884D01*
X133568063Y-80019568D01*
X161996231Y-80000502D01*
X162003766Y-80000727D01*
G37*
G04 #@! TD.AperFunction*
G04 #@! TA.AperFunction,Conductor*
G36*
X85945259Y-108820185D02*
G01*
X85991014Y-108872989D01*
X85996151Y-108886182D01*
X86022825Y-108968277D01*
X86022828Y-108968284D01*
X86117474Y-109132216D01*
X86244136Y-109272888D01*
X86289961Y-109306182D01*
X86332627Y-109361512D01*
X86338606Y-109431125D01*
X86306000Y-109492920D01*
X86245162Y-109527277D01*
X86217076Y-109530500D01*
X84866496Y-109530500D01*
X84799457Y-109510815D01*
X84797633Y-109509620D01*
X84762980Y-109486466D01*
X84755107Y-109481205D01*
X84710303Y-109427592D01*
X84700000Y-109378104D01*
X84700000Y-109021895D01*
X84719685Y-108954856D01*
X84755110Y-108918793D01*
X84805710Y-108884982D01*
X84842162Y-108860626D01*
X84852792Y-108849996D01*
X84865970Y-108836819D01*
X84927293Y-108803334D01*
X84953651Y-108800500D01*
X85878220Y-108800500D01*
X85945259Y-108820185D01*
G37*
G04 #@! TD.AperFunction*
G04 #@! TA.AperFunction,Conductor*
G36*
X85958579Y-103820185D02*
G01*
X86004334Y-103872989D01*
X86014278Y-103942147D01*
X85998927Y-103986497D01*
X85985832Y-104009180D01*
X85972821Y-104031715D01*
X85972818Y-104031722D01*
X85914327Y-104211740D01*
X85914326Y-104211744D01*
X85894637Y-104399079D01*
X85894540Y-104400002D01*
X85894540Y-104404861D01*
X85874855Y-104471900D01*
X85858222Y-104492542D01*
X85787584Y-104563181D01*
X85726261Y-104596666D01*
X85699902Y-104599500D01*
X84953651Y-104599500D01*
X84886612Y-104579815D01*
X84865970Y-104563181D01*
X84842165Y-104539376D01*
X84842161Y-104539373D01*
X84755109Y-104481206D01*
X84710304Y-104427593D01*
X84700000Y-104378104D01*
X84700000Y-104021895D01*
X84719685Y-103954856D01*
X84755110Y-103918793D01*
X84805710Y-103884982D01*
X84842162Y-103860626D01*
X84843504Y-103859284D01*
X84865970Y-103836819D01*
X84927293Y-103803334D01*
X84953651Y-103800500D01*
X85891540Y-103800500D01*
X85958579Y-103820185D01*
G37*
G04 #@! TD.AperFunction*
M02*
