G04 #@! TF.GenerationSoftware,KiCad,Pcbnew,(5.1.4-0-10_14)*
G04 #@! TF.CreationDate,2020-01-16T11:51:33-05:00*
G04 #@! TF.ProjectId,dashboard_MKV_ewan,64617368-626f-4617-9264-5f4d4b565f65,rev?*
G04 #@! TF.SameCoordinates,Original*
G04 #@! TF.FileFunction,Copper,L3,Inr*
G04 #@! TF.FilePolarity,Positive*
%FSLAX46Y46*%
G04 Gerber Fmt 4.6, Leading zero omitted, Abs format (unit mm)*
G04 Created by KiCad (PCBNEW (5.1.4-0-10_14)) date 2020-01-16 11:51:33*
%MOMM*%
%LPD*%
G04 APERTURE LIST*
%ADD10C,1.300000*%
%ADD11C,2.000000*%
%ADD12R,1.400000X1.400000*%
%ADD13C,1.400000*%
%ADD14C,0.800000*%
%ADD15C,0.609600*%
%ADD16C,0.254000*%
G04 APERTURE END LIST*
D10*
X189157200Y-84934600D03*
X189157200Y-87474600D03*
X189157200Y-90014600D03*
X189157200Y-82394600D03*
X191697200Y-88744600D03*
X191697200Y-86204600D03*
X191697200Y-83664600D03*
X191697200Y-81124600D03*
X189157200Y-79854600D03*
X191697200Y-78584600D03*
X189157200Y-77314600D03*
X191697200Y-76044600D03*
X189157200Y-74774600D03*
X191697200Y-73504600D03*
X189157200Y-72234600D03*
X191697200Y-70964600D03*
X189157200Y-69694600D03*
X191697200Y-68424600D03*
X189157200Y-67154600D03*
X191697200Y-65884600D03*
D11*
X190957200Y-91414600D03*
D10*
X201958400Y-89355800D03*
X199418400Y-89355800D03*
X200688400Y-91895800D03*
X203228400Y-91895800D03*
D11*
X198018400Y-90855800D03*
D10*
X217652600Y-93370400D03*
X220192600Y-93370400D03*
X222732600Y-93370400D03*
X215112600Y-93370400D03*
X221462600Y-90830400D03*
X218922600Y-90830400D03*
X216382600Y-90830400D03*
X213842600Y-90830400D03*
X212572600Y-93370400D03*
X211302600Y-90830400D03*
D11*
X224132600Y-91570400D03*
D12*
X197866000Y-85598000D03*
D13*
X195326000Y-85598000D03*
X197866000Y-83058000D03*
X195326000Y-83058000D03*
X197866000Y-80518000D03*
X195326000Y-80518000D03*
X201422000Y-80518000D03*
X203962000Y-80518000D03*
X201422000Y-83058000D03*
X203962000Y-83058000D03*
X201422000Y-85598000D03*
D12*
X203962000Y-85598000D03*
D14*
X181856380Y-63482220D03*
X178521360Y-63517780D03*
X186692540Y-63482220D03*
X184591960Y-63482220D03*
X170256200Y-82796380D03*
X170357800Y-85598000D03*
X170357800Y-88544400D03*
X170357800Y-91770200D03*
X174365920Y-91826080D03*
X186740800Y-65227200D03*
X171485560Y-91813380D03*
D15*
X219595897Y-87925577D03*
X222961200Y-84419999D03*
X209143600Y-72593200D03*
X199136000Y-71069186D03*
X224948306Y-71079179D03*
X223901000Y-72145989D03*
X206121000Y-75819000D03*
X204876400Y-69900800D03*
X221386400Y-78089999D03*
X209843226Y-72895142D03*
X186080400Y-84023200D03*
X220328830Y-79816030D03*
X193751200Y-68478400D03*
X209843226Y-72895142D03*
X204437870Y-75304270D03*
X209995144Y-84209016D03*
X207843730Y-80783951D03*
X210007450Y-83439000D03*
X199771000Y-87503000D03*
X206857600Y-78282800D03*
X199627414Y-80183914D03*
X206552800Y-73710800D03*
X213664800Y-71831200D03*
X208661008Y-84074000D03*
X193649600Y-84074000D03*
X207450671Y-81474329D03*
X207603417Y-83135773D03*
X224098229Y-84347429D03*
X193751200Y-86106000D03*
X220916381Y-70933877D03*
X220937149Y-70172158D03*
X208085671Y-82109329D03*
X189915800Y-68834000D03*
X205486000Y-84074000D03*
X209245437Y-82804000D03*
X207645000Y-76771500D03*
X205295500Y-78041500D03*
X217297725Y-73388817D03*
X207719335Y-85107197D03*
X210644064Y-84608472D03*
X206042336Y-80566336D03*
X200406000Y-77848000D03*
X216725500Y-84709000D03*
D16*
G36*
X226112401Y-70671899D02*
G01*
X226112400Y-95835800D01*
X169721200Y-95835800D01*
X169721200Y-93278862D01*
X211643200Y-93278862D01*
X211643200Y-93461938D01*
X211678916Y-93641496D01*
X211748976Y-93810636D01*
X211850688Y-93962858D01*
X211980142Y-94092312D01*
X212132364Y-94194024D01*
X212301504Y-94264084D01*
X212481062Y-94299800D01*
X212664138Y-94299800D01*
X212843696Y-94264084D01*
X213012836Y-94194024D01*
X213165058Y-94092312D01*
X213294512Y-93962858D01*
X213396224Y-93810636D01*
X213466284Y-93641496D01*
X213502000Y-93461938D01*
X213502000Y-93278862D01*
X214183200Y-93278862D01*
X214183200Y-93461938D01*
X214218916Y-93641496D01*
X214288976Y-93810636D01*
X214390688Y-93962858D01*
X214520142Y-94092312D01*
X214672364Y-94194024D01*
X214841504Y-94264084D01*
X215021062Y-94299800D01*
X215204138Y-94299800D01*
X215383696Y-94264084D01*
X215552836Y-94194024D01*
X215705058Y-94092312D01*
X215834512Y-93962858D01*
X215936224Y-93810636D01*
X216006284Y-93641496D01*
X216042000Y-93461938D01*
X216042000Y-93278862D01*
X216723200Y-93278862D01*
X216723200Y-93461938D01*
X216758916Y-93641496D01*
X216828976Y-93810636D01*
X216930688Y-93962858D01*
X217060142Y-94092312D01*
X217212364Y-94194024D01*
X217381504Y-94264084D01*
X217561062Y-94299800D01*
X217744138Y-94299800D01*
X217923696Y-94264084D01*
X218092836Y-94194024D01*
X218245058Y-94092312D01*
X218374512Y-93962858D01*
X218476224Y-93810636D01*
X218546284Y-93641496D01*
X218582000Y-93461938D01*
X218582000Y-93278862D01*
X219263200Y-93278862D01*
X219263200Y-93461938D01*
X219298916Y-93641496D01*
X219368976Y-93810636D01*
X219470688Y-93962858D01*
X219600142Y-94092312D01*
X219752364Y-94194024D01*
X219921504Y-94264084D01*
X220101062Y-94299800D01*
X220284138Y-94299800D01*
X220463696Y-94264084D01*
X220632836Y-94194024D01*
X220785058Y-94092312D01*
X220914512Y-93962858D01*
X221016224Y-93810636D01*
X221086284Y-93641496D01*
X221122000Y-93461938D01*
X221122000Y-93278862D01*
X221803200Y-93278862D01*
X221803200Y-93461938D01*
X221838916Y-93641496D01*
X221908976Y-93810636D01*
X222010688Y-93962858D01*
X222140142Y-94092312D01*
X222292364Y-94194024D01*
X222461504Y-94264084D01*
X222641062Y-94299800D01*
X222824138Y-94299800D01*
X223003696Y-94264084D01*
X223172836Y-94194024D01*
X223325058Y-94092312D01*
X223454512Y-93962858D01*
X223556224Y-93810636D01*
X223626284Y-93641496D01*
X223662000Y-93461938D01*
X223662000Y-93278862D01*
X223626284Y-93099304D01*
X223556224Y-92930164D01*
X223454512Y-92777942D01*
X223325058Y-92648488D01*
X223172836Y-92546776D01*
X223003696Y-92476716D01*
X222824138Y-92441000D01*
X222641062Y-92441000D01*
X222461504Y-92476716D01*
X222292364Y-92546776D01*
X222140142Y-92648488D01*
X222010688Y-92777942D01*
X221908976Y-92930164D01*
X221838916Y-93099304D01*
X221803200Y-93278862D01*
X221122000Y-93278862D01*
X221086284Y-93099304D01*
X221016224Y-92930164D01*
X220914512Y-92777942D01*
X220785058Y-92648488D01*
X220632836Y-92546776D01*
X220463696Y-92476716D01*
X220284138Y-92441000D01*
X220101062Y-92441000D01*
X219921504Y-92476716D01*
X219752364Y-92546776D01*
X219600142Y-92648488D01*
X219470688Y-92777942D01*
X219368976Y-92930164D01*
X219298916Y-93099304D01*
X219263200Y-93278862D01*
X218582000Y-93278862D01*
X218546284Y-93099304D01*
X218476224Y-92930164D01*
X218374512Y-92777942D01*
X218245058Y-92648488D01*
X218092836Y-92546776D01*
X217923696Y-92476716D01*
X217744138Y-92441000D01*
X217561062Y-92441000D01*
X217381504Y-92476716D01*
X217212364Y-92546776D01*
X217060142Y-92648488D01*
X216930688Y-92777942D01*
X216828976Y-92930164D01*
X216758916Y-93099304D01*
X216723200Y-93278862D01*
X216042000Y-93278862D01*
X216006284Y-93099304D01*
X215936224Y-92930164D01*
X215834512Y-92777942D01*
X215705058Y-92648488D01*
X215552836Y-92546776D01*
X215383696Y-92476716D01*
X215204138Y-92441000D01*
X215021062Y-92441000D01*
X214841504Y-92476716D01*
X214672364Y-92546776D01*
X214520142Y-92648488D01*
X214390688Y-92777942D01*
X214288976Y-92930164D01*
X214218916Y-93099304D01*
X214183200Y-93278862D01*
X213502000Y-93278862D01*
X213466284Y-93099304D01*
X213396224Y-92930164D01*
X213294512Y-92777942D01*
X213165058Y-92648488D01*
X213012836Y-92546776D01*
X212843696Y-92476716D01*
X212664138Y-92441000D01*
X212481062Y-92441000D01*
X212301504Y-92476716D01*
X212132364Y-92546776D01*
X211980142Y-92648488D01*
X211850688Y-92777942D01*
X211748976Y-92930164D01*
X211678916Y-93099304D01*
X211643200Y-93278862D01*
X169721200Y-93278862D01*
X169721200Y-92008669D01*
X169755724Y-92092016D01*
X169830076Y-92203292D01*
X169924708Y-92297924D01*
X170035984Y-92372276D01*
X170159626Y-92423491D01*
X170290885Y-92449600D01*
X170424715Y-92449600D01*
X170555974Y-92423491D01*
X170679616Y-92372276D01*
X170790892Y-92297924D01*
X170885524Y-92203292D01*
X170907254Y-92170771D01*
X170957836Y-92246472D01*
X171052468Y-92341104D01*
X171163744Y-92415456D01*
X171287386Y-92466671D01*
X171418645Y-92492780D01*
X171552475Y-92492780D01*
X171683734Y-92466671D01*
X171807376Y-92415456D01*
X171918652Y-92341104D01*
X172013284Y-92246472D01*
X172087636Y-92135196D01*
X172138851Y-92011554D01*
X172164960Y-91880295D01*
X172164960Y-91759165D01*
X173686520Y-91759165D01*
X173686520Y-91892995D01*
X173712629Y-92024254D01*
X173763844Y-92147896D01*
X173838196Y-92259172D01*
X173932828Y-92353804D01*
X174044104Y-92428156D01*
X174167746Y-92479371D01*
X174299005Y-92505480D01*
X174432835Y-92505480D01*
X174564094Y-92479371D01*
X174687736Y-92428156D01*
X174799012Y-92353804D01*
X174893644Y-92259172D01*
X174967996Y-92147896D01*
X175019211Y-92024254D01*
X175045320Y-91892995D01*
X175045320Y-91759165D01*
X175019211Y-91627906D01*
X174967996Y-91504264D01*
X174893644Y-91392988D01*
X174799012Y-91298356D01*
X174784397Y-91288590D01*
X189677800Y-91288590D01*
X189677800Y-91540610D01*
X189726967Y-91787787D01*
X189823411Y-92020623D01*
X189963425Y-92230170D01*
X190141630Y-92408375D01*
X190351177Y-92548389D01*
X190584013Y-92644833D01*
X190831190Y-92694000D01*
X191083210Y-92694000D01*
X191330387Y-92644833D01*
X191563223Y-92548389D01*
X191772770Y-92408375D01*
X191950975Y-92230170D01*
X192090989Y-92020623D01*
X192187433Y-91787787D01*
X192236600Y-91540610D01*
X192236600Y-91288590D01*
X192187433Y-91041413D01*
X192090989Y-90808577D01*
X192038346Y-90729790D01*
X196739000Y-90729790D01*
X196739000Y-90981810D01*
X196788167Y-91228987D01*
X196884611Y-91461823D01*
X197024625Y-91671370D01*
X197202830Y-91849575D01*
X197412377Y-91989589D01*
X197645213Y-92086033D01*
X197892390Y-92135200D01*
X198144410Y-92135200D01*
X198391587Y-92086033D01*
X198624423Y-91989589D01*
X198833970Y-91849575D01*
X198879283Y-91804262D01*
X199759000Y-91804262D01*
X199759000Y-91987338D01*
X199794716Y-92166896D01*
X199864776Y-92336036D01*
X199966488Y-92488258D01*
X200095942Y-92617712D01*
X200248164Y-92719424D01*
X200417304Y-92789484D01*
X200596862Y-92825200D01*
X200779938Y-92825200D01*
X200959496Y-92789484D01*
X201128636Y-92719424D01*
X201280858Y-92617712D01*
X201410312Y-92488258D01*
X201512024Y-92336036D01*
X201582084Y-92166896D01*
X201617800Y-91987338D01*
X201617800Y-91804262D01*
X202299000Y-91804262D01*
X202299000Y-91987338D01*
X202334716Y-92166896D01*
X202404776Y-92336036D01*
X202506488Y-92488258D01*
X202635942Y-92617712D01*
X202788164Y-92719424D01*
X202957304Y-92789484D01*
X203136862Y-92825200D01*
X203319938Y-92825200D01*
X203499496Y-92789484D01*
X203668636Y-92719424D01*
X203820858Y-92617712D01*
X203950312Y-92488258D01*
X204052024Y-92336036D01*
X204122084Y-92166896D01*
X204157800Y-91987338D01*
X204157800Y-91804262D01*
X204122084Y-91624704D01*
X204052024Y-91455564D01*
X203950312Y-91303342D01*
X203820858Y-91173888D01*
X203668636Y-91072176D01*
X203499496Y-91002116D01*
X203319938Y-90966400D01*
X203136862Y-90966400D01*
X202957304Y-91002116D01*
X202788164Y-91072176D01*
X202635942Y-91173888D01*
X202506488Y-91303342D01*
X202404776Y-91455564D01*
X202334716Y-91624704D01*
X202299000Y-91804262D01*
X201617800Y-91804262D01*
X201582084Y-91624704D01*
X201512024Y-91455564D01*
X201410312Y-91303342D01*
X201280858Y-91173888D01*
X201128636Y-91072176D01*
X200959496Y-91002116D01*
X200779938Y-90966400D01*
X200596862Y-90966400D01*
X200417304Y-91002116D01*
X200248164Y-91072176D01*
X200095942Y-91173888D01*
X199966488Y-91303342D01*
X199864776Y-91455564D01*
X199794716Y-91624704D01*
X199759000Y-91804262D01*
X198879283Y-91804262D01*
X199012175Y-91671370D01*
X199152189Y-91461823D01*
X199248633Y-91228987D01*
X199297800Y-90981810D01*
X199297800Y-90738862D01*
X210373200Y-90738862D01*
X210373200Y-90921938D01*
X210408916Y-91101496D01*
X210478976Y-91270636D01*
X210580688Y-91422858D01*
X210710142Y-91552312D01*
X210862364Y-91654024D01*
X211031504Y-91724084D01*
X211211062Y-91759800D01*
X211394138Y-91759800D01*
X211573696Y-91724084D01*
X211742836Y-91654024D01*
X211895058Y-91552312D01*
X212024512Y-91422858D01*
X212126224Y-91270636D01*
X212196284Y-91101496D01*
X212232000Y-90921938D01*
X212232000Y-90738862D01*
X212913200Y-90738862D01*
X212913200Y-90921938D01*
X212948916Y-91101496D01*
X213018976Y-91270636D01*
X213120688Y-91422858D01*
X213250142Y-91552312D01*
X213402364Y-91654024D01*
X213571504Y-91724084D01*
X213751062Y-91759800D01*
X213934138Y-91759800D01*
X214113696Y-91724084D01*
X214282836Y-91654024D01*
X214435058Y-91552312D01*
X214564512Y-91422858D01*
X214666224Y-91270636D01*
X214736284Y-91101496D01*
X214772000Y-90921938D01*
X214772000Y-90738862D01*
X215453200Y-90738862D01*
X215453200Y-90921938D01*
X215488916Y-91101496D01*
X215558976Y-91270636D01*
X215660688Y-91422858D01*
X215790142Y-91552312D01*
X215942364Y-91654024D01*
X216111504Y-91724084D01*
X216291062Y-91759800D01*
X216474138Y-91759800D01*
X216653696Y-91724084D01*
X216822836Y-91654024D01*
X216975058Y-91552312D01*
X217104512Y-91422858D01*
X217206224Y-91270636D01*
X217276284Y-91101496D01*
X217312000Y-90921938D01*
X217312000Y-90738862D01*
X217993200Y-90738862D01*
X217993200Y-90921938D01*
X218028916Y-91101496D01*
X218098976Y-91270636D01*
X218200688Y-91422858D01*
X218330142Y-91552312D01*
X218482364Y-91654024D01*
X218651504Y-91724084D01*
X218831062Y-91759800D01*
X219014138Y-91759800D01*
X219193696Y-91724084D01*
X219362836Y-91654024D01*
X219515058Y-91552312D01*
X219644512Y-91422858D01*
X219746224Y-91270636D01*
X219816284Y-91101496D01*
X219852000Y-90921938D01*
X219852000Y-90738862D01*
X220533200Y-90738862D01*
X220533200Y-90921938D01*
X220568916Y-91101496D01*
X220638976Y-91270636D01*
X220740688Y-91422858D01*
X220870142Y-91552312D01*
X221022364Y-91654024D01*
X221191504Y-91724084D01*
X221371062Y-91759800D01*
X221554138Y-91759800D01*
X221733696Y-91724084D01*
X221902836Y-91654024D01*
X222055058Y-91552312D01*
X222162980Y-91444390D01*
X222853200Y-91444390D01*
X222853200Y-91696410D01*
X222902367Y-91943587D01*
X222998811Y-92176423D01*
X223138825Y-92385970D01*
X223317030Y-92564175D01*
X223526577Y-92704189D01*
X223759413Y-92800633D01*
X224006590Y-92849800D01*
X224258610Y-92849800D01*
X224505787Y-92800633D01*
X224738623Y-92704189D01*
X224948170Y-92564175D01*
X225126375Y-92385970D01*
X225266389Y-92176423D01*
X225362833Y-91943587D01*
X225412000Y-91696410D01*
X225412000Y-91444390D01*
X225362833Y-91197213D01*
X225266389Y-90964377D01*
X225126375Y-90754830D01*
X224948170Y-90576625D01*
X224738623Y-90436611D01*
X224505787Y-90340167D01*
X224258610Y-90291000D01*
X224006590Y-90291000D01*
X223759413Y-90340167D01*
X223526577Y-90436611D01*
X223317030Y-90576625D01*
X223138825Y-90754830D01*
X222998811Y-90964377D01*
X222902367Y-91197213D01*
X222853200Y-91444390D01*
X222162980Y-91444390D01*
X222184512Y-91422858D01*
X222286224Y-91270636D01*
X222356284Y-91101496D01*
X222392000Y-90921938D01*
X222392000Y-90738862D01*
X222356284Y-90559304D01*
X222286224Y-90390164D01*
X222184512Y-90237942D01*
X222055058Y-90108488D01*
X221902836Y-90006776D01*
X221733696Y-89936716D01*
X221554138Y-89901000D01*
X221371062Y-89901000D01*
X221191504Y-89936716D01*
X221022364Y-90006776D01*
X220870142Y-90108488D01*
X220740688Y-90237942D01*
X220638976Y-90390164D01*
X220568916Y-90559304D01*
X220533200Y-90738862D01*
X219852000Y-90738862D01*
X219816284Y-90559304D01*
X219746224Y-90390164D01*
X219644512Y-90237942D01*
X219515058Y-90108488D01*
X219362836Y-90006776D01*
X219193696Y-89936716D01*
X219014138Y-89901000D01*
X218831062Y-89901000D01*
X218651504Y-89936716D01*
X218482364Y-90006776D01*
X218330142Y-90108488D01*
X218200688Y-90237942D01*
X218098976Y-90390164D01*
X218028916Y-90559304D01*
X217993200Y-90738862D01*
X217312000Y-90738862D01*
X217276284Y-90559304D01*
X217206224Y-90390164D01*
X217104512Y-90237942D01*
X216975058Y-90108488D01*
X216822836Y-90006776D01*
X216653696Y-89936716D01*
X216474138Y-89901000D01*
X216291062Y-89901000D01*
X216111504Y-89936716D01*
X215942364Y-90006776D01*
X215790142Y-90108488D01*
X215660688Y-90237942D01*
X215558976Y-90390164D01*
X215488916Y-90559304D01*
X215453200Y-90738862D01*
X214772000Y-90738862D01*
X214736284Y-90559304D01*
X214666224Y-90390164D01*
X214564512Y-90237942D01*
X214435058Y-90108488D01*
X214282836Y-90006776D01*
X214113696Y-89936716D01*
X213934138Y-89901000D01*
X213751062Y-89901000D01*
X213571504Y-89936716D01*
X213402364Y-90006776D01*
X213250142Y-90108488D01*
X213120688Y-90237942D01*
X213018976Y-90390164D01*
X212948916Y-90559304D01*
X212913200Y-90738862D01*
X212232000Y-90738862D01*
X212196284Y-90559304D01*
X212126224Y-90390164D01*
X212024512Y-90237942D01*
X211895058Y-90108488D01*
X211742836Y-90006776D01*
X211573696Y-89936716D01*
X211394138Y-89901000D01*
X211211062Y-89901000D01*
X211031504Y-89936716D01*
X210862364Y-90006776D01*
X210710142Y-90108488D01*
X210580688Y-90237942D01*
X210478976Y-90390164D01*
X210408916Y-90559304D01*
X210373200Y-90738862D01*
X199297800Y-90738862D01*
X199297800Y-90729790D01*
X199248633Y-90482613D01*
X199152495Y-90250517D01*
X199326862Y-90285200D01*
X199509938Y-90285200D01*
X199689496Y-90249484D01*
X199858636Y-90179424D01*
X200010858Y-90077712D01*
X200140312Y-89948258D01*
X200242024Y-89796036D01*
X200312084Y-89626896D01*
X200347800Y-89447338D01*
X200347800Y-89264262D01*
X200312084Y-89084704D01*
X200242024Y-88915564D01*
X200140312Y-88763342D01*
X200010858Y-88633888D01*
X199858636Y-88532176D01*
X199689496Y-88462116D01*
X199509938Y-88426400D01*
X199326862Y-88426400D01*
X199147304Y-88462116D01*
X198978164Y-88532176D01*
X198825942Y-88633888D01*
X198696488Y-88763342D01*
X198594776Y-88915564D01*
X198524716Y-89084704D01*
X198489000Y-89264262D01*
X198489000Y-89447338D01*
X198524716Y-89626896D01*
X198551623Y-89691856D01*
X198391587Y-89625567D01*
X198144410Y-89576400D01*
X197892390Y-89576400D01*
X197645213Y-89625567D01*
X197412377Y-89722011D01*
X197202830Y-89862025D01*
X197024625Y-90040230D01*
X196884611Y-90249777D01*
X196788167Y-90482613D01*
X196739000Y-90729790D01*
X192038346Y-90729790D01*
X191950975Y-90599030D01*
X191772770Y-90420825D01*
X191563223Y-90280811D01*
X191330387Y-90184367D01*
X191083210Y-90135200D01*
X190831190Y-90135200D01*
X190584013Y-90184367D01*
X190351177Y-90280811D01*
X190141630Y-90420825D01*
X189963425Y-90599030D01*
X189823411Y-90808577D01*
X189726967Y-91041413D01*
X189677800Y-91288590D01*
X174784397Y-91288590D01*
X174687736Y-91224004D01*
X174564094Y-91172789D01*
X174432835Y-91146680D01*
X174299005Y-91146680D01*
X174167746Y-91172789D01*
X174044104Y-91224004D01*
X173932828Y-91298356D01*
X173838196Y-91392988D01*
X173763844Y-91504264D01*
X173712629Y-91627906D01*
X173686520Y-91759165D01*
X172164960Y-91759165D01*
X172164960Y-91746465D01*
X172138851Y-91615206D01*
X172087636Y-91491564D01*
X172013284Y-91380288D01*
X171918652Y-91285656D01*
X171807376Y-91211304D01*
X171683734Y-91160089D01*
X171552475Y-91133980D01*
X171418645Y-91133980D01*
X171287386Y-91160089D01*
X171163744Y-91211304D01*
X171052468Y-91285656D01*
X170957836Y-91380288D01*
X170936106Y-91412809D01*
X170885524Y-91337108D01*
X170790892Y-91242476D01*
X170679616Y-91168124D01*
X170555974Y-91116909D01*
X170424715Y-91090800D01*
X170290885Y-91090800D01*
X170159626Y-91116909D01*
X170035984Y-91168124D01*
X169924708Y-91242476D01*
X169830076Y-91337108D01*
X169755724Y-91448384D01*
X169721200Y-91531731D01*
X169721200Y-89923062D01*
X188227800Y-89923062D01*
X188227800Y-90106138D01*
X188263516Y-90285696D01*
X188333576Y-90454836D01*
X188435288Y-90607058D01*
X188564742Y-90736512D01*
X188716964Y-90838224D01*
X188886104Y-90908284D01*
X189065662Y-90944000D01*
X189248738Y-90944000D01*
X189428296Y-90908284D01*
X189597436Y-90838224D01*
X189749658Y-90736512D01*
X189879112Y-90607058D01*
X189980824Y-90454836D01*
X190050884Y-90285696D01*
X190086600Y-90106138D01*
X190086600Y-89923062D01*
X190050884Y-89743504D01*
X189980824Y-89574364D01*
X189879112Y-89422142D01*
X189749658Y-89292688D01*
X189597436Y-89190976D01*
X189428296Y-89120916D01*
X189248738Y-89085200D01*
X189065662Y-89085200D01*
X188886104Y-89120916D01*
X188716964Y-89190976D01*
X188564742Y-89292688D01*
X188435288Y-89422142D01*
X188333576Y-89574364D01*
X188263516Y-89743504D01*
X188227800Y-89923062D01*
X169721200Y-89923062D01*
X169721200Y-88782869D01*
X169755724Y-88866216D01*
X169830076Y-88977492D01*
X169924708Y-89072124D01*
X170035984Y-89146476D01*
X170159626Y-89197691D01*
X170290885Y-89223800D01*
X170424715Y-89223800D01*
X170555974Y-89197691D01*
X170679616Y-89146476D01*
X170790892Y-89072124D01*
X170885524Y-88977492D01*
X170959876Y-88866216D01*
X171011091Y-88742574D01*
X171028896Y-88653062D01*
X190767800Y-88653062D01*
X190767800Y-88836138D01*
X190803516Y-89015696D01*
X190873576Y-89184836D01*
X190975288Y-89337058D01*
X191104742Y-89466512D01*
X191256964Y-89568224D01*
X191426104Y-89638284D01*
X191605662Y-89674000D01*
X191788738Y-89674000D01*
X191968296Y-89638284D01*
X192137436Y-89568224D01*
X192289658Y-89466512D01*
X192419112Y-89337058D01*
X192520824Y-89184836D01*
X192590884Y-89015696D01*
X192626600Y-88836138D01*
X192626600Y-88653062D01*
X192590884Y-88473504D01*
X192520824Y-88304364D01*
X192419112Y-88152142D01*
X192289658Y-88022688D01*
X192137436Y-87920976D01*
X191968296Y-87850916D01*
X191788738Y-87815200D01*
X191605662Y-87815200D01*
X191426104Y-87850916D01*
X191256964Y-87920976D01*
X191104742Y-88022688D01*
X190975288Y-88152142D01*
X190873576Y-88304364D01*
X190803516Y-88473504D01*
X190767800Y-88653062D01*
X171028896Y-88653062D01*
X171037200Y-88611315D01*
X171037200Y-88477485D01*
X171011091Y-88346226D01*
X170959876Y-88222584D01*
X170885524Y-88111308D01*
X170790892Y-88016676D01*
X170679616Y-87942324D01*
X170555974Y-87891109D01*
X170424715Y-87865000D01*
X170290885Y-87865000D01*
X170159626Y-87891109D01*
X170035984Y-87942324D01*
X169924708Y-88016676D01*
X169830076Y-88111308D01*
X169755724Y-88222584D01*
X169721200Y-88305931D01*
X169721200Y-87445461D01*
X199186800Y-87445461D01*
X199186800Y-87560539D01*
X199209250Y-87673405D01*
X199253288Y-87779723D01*
X199317222Y-87875406D01*
X199398594Y-87956778D01*
X199494277Y-88020712D01*
X199600595Y-88064750D01*
X199713461Y-88087200D01*
X199828539Y-88087200D01*
X199941405Y-88064750D01*
X200047723Y-88020712D01*
X200143406Y-87956778D01*
X200224778Y-87875406D01*
X200229701Y-87868038D01*
X219011697Y-87868038D01*
X219011697Y-87983116D01*
X219034147Y-88095982D01*
X219078185Y-88202300D01*
X219142119Y-88297983D01*
X219223491Y-88379355D01*
X219319174Y-88443289D01*
X219425492Y-88487327D01*
X219538358Y-88509777D01*
X219653436Y-88509777D01*
X219766302Y-88487327D01*
X219872620Y-88443289D01*
X219968303Y-88379355D01*
X220049675Y-88297983D01*
X220113609Y-88202300D01*
X220157647Y-88095982D01*
X220180097Y-87983116D01*
X220180097Y-87868038D01*
X220157647Y-87755172D01*
X220113609Y-87648854D01*
X220049675Y-87553171D01*
X219968303Y-87471799D01*
X219872620Y-87407865D01*
X219766302Y-87363827D01*
X219653436Y-87341377D01*
X219538358Y-87341377D01*
X219425492Y-87363827D01*
X219319174Y-87407865D01*
X219223491Y-87471799D01*
X219142119Y-87553171D01*
X219078185Y-87648854D01*
X219034147Y-87755172D01*
X219011697Y-87868038D01*
X200229701Y-87868038D01*
X200288712Y-87779723D01*
X200332750Y-87673405D01*
X200355200Y-87560539D01*
X200355200Y-87445461D01*
X200332750Y-87332595D01*
X200288712Y-87226277D01*
X200224778Y-87130594D01*
X200143406Y-87049222D01*
X200047723Y-86985288D01*
X199941405Y-86941250D01*
X199828539Y-86918800D01*
X199713461Y-86918800D01*
X199600595Y-86941250D01*
X199494277Y-86985288D01*
X199398594Y-87049222D01*
X199317222Y-87130594D01*
X199253288Y-87226277D01*
X199209250Y-87332595D01*
X199186800Y-87445461D01*
X169721200Y-87445461D01*
X169721200Y-85836469D01*
X169755724Y-85919816D01*
X169830076Y-86031092D01*
X169924708Y-86125724D01*
X170035984Y-86200076D01*
X170159626Y-86251291D01*
X170290885Y-86277400D01*
X170424715Y-86277400D01*
X170555974Y-86251291D01*
X170679616Y-86200076D01*
X170790892Y-86125724D01*
X170803554Y-86113062D01*
X190767800Y-86113062D01*
X190767800Y-86296138D01*
X190803516Y-86475696D01*
X190873576Y-86644836D01*
X190975288Y-86797058D01*
X191104742Y-86926512D01*
X191256964Y-87028224D01*
X191426104Y-87098284D01*
X191605662Y-87134000D01*
X191788738Y-87134000D01*
X191968296Y-87098284D01*
X192137436Y-87028224D01*
X192289658Y-86926512D01*
X192419112Y-86797058D01*
X192520824Y-86644836D01*
X192590884Y-86475696D01*
X192626600Y-86296138D01*
X192626600Y-86113062D01*
X192613751Y-86048461D01*
X193167000Y-86048461D01*
X193167000Y-86163539D01*
X193189450Y-86276405D01*
X193233488Y-86382723D01*
X193297422Y-86478406D01*
X193378794Y-86559778D01*
X193474477Y-86623712D01*
X193580795Y-86667750D01*
X193693661Y-86690200D01*
X193808739Y-86690200D01*
X193921605Y-86667750D01*
X194027923Y-86623712D01*
X194123606Y-86559778D01*
X194204978Y-86478406D01*
X194268912Y-86382723D01*
X194312950Y-86276405D01*
X194335400Y-86163539D01*
X194335400Y-86048461D01*
X194312950Y-85935595D01*
X194268912Y-85829277D01*
X194204978Y-85733594D01*
X194123606Y-85652222D01*
X194027923Y-85588288D01*
X193921605Y-85544250D01*
X193808739Y-85521800D01*
X193693661Y-85521800D01*
X193580795Y-85544250D01*
X193474477Y-85588288D01*
X193378794Y-85652222D01*
X193297422Y-85733594D01*
X193233488Y-85829277D01*
X193189450Y-85935595D01*
X193167000Y-86048461D01*
X192613751Y-86048461D01*
X192590884Y-85933504D01*
X192520824Y-85764364D01*
X192419112Y-85612142D01*
X192289658Y-85482688D01*
X192137436Y-85380976D01*
X191968296Y-85310916D01*
X191788738Y-85275200D01*
X191605662Y-85275200D01*
X191426104Y-85310916D01*
X191256964Y-85380976D01*
X191104742Y-85482688D01*
X190975288Y-85612142D01*
X190873576Y-85764364D01*
X190803516Y-85933504D01*
X190767800Y-86113062D01*
X170803554Y-86113062D01*
X170885524Y-86031092D01*
X170959876Y-85919816D01*
X171011091Y-85796174D01*
X171037200Y-85664915D01*
X171037200Y-85531085D01*
X171011091Y-85399826D01*
X170959876Y-85276184D01*
X170885524Y-85164908D01*
X170790892Y-85070276D01*
X170679616Y-84995924D01*
X170555974Y-84944709D01*
X170424715Y-84918600D01*
X170290885Y-84918600D01*
X170159626Y-84944709D01*
X170035984Y-84995924D01*
X169924708Y-85070276D01*
X169830076Y-85164908D01*
X169755724Y-85276184D01*
X169721200Y-85359531D01*
X169721200Y-84843062D01*
X188227800Y-84843062D01*
X188227800Y-85026138D01*
X188263516Y-85205696D01*
X188333576Y-85374836D01*
X188435288Y-85527058D01*
X188564742Y-85656512D01*
X188716964Y-85758224D01*
X188886104Y-85828284D01*
X189065662Y-85864000D01*
X189248738Y-85864000D01*
X189428296Y-85828284D01*
X189597436Y-85758224D01*
X189749658Y-85656512D01*
X189879112Y-85527058D01*
X189980824Y-85374836D01*
X190050884Y-85205696D01*
X190086600Y-85026138D01*
X190086600Y-84898000D01*
X196885249Y-84898000D01*
X196885249Y-86298000D01*
X196890644Y-86352772D01*
X196906620Y-86405439D01*
X196932564Y-86453977D01*
X196967479Y-86496521D01*
X197010023Y-86531436D01*
X197058561Y-86557380D01*
X197111228Y-86573356D01*
X197166000Y-86578751D01*
X198566000Y-86578751D01*
X198620772Y-86573356D01*
X198673439Y-86557380D01*
X198721977Y-86531436D01*
X198764521Y-86496521D01*
X198799436Y-86453977D01*
X198825380Y-86405439D01*
X198841356Y-86352772D01*
X198846751Y-86298000D01*
X198846751Y-84898000D01*
X202981249Y-84898000D01*
X202981249Y-86298000D01*
X202986644Y-86352772D01*
X203002620Y-86405439D01*
X203028564Y-86453977D01*
X203063479Y-86496521D01*
X203106023Y-86531436D01*
X203154561Y-86557380D01*
X203207228Y-86573356D01*
X203262000Y-86578751D01*
X204662000Y-86578751D01*
X204716772Y-86573356D01*
X204769439Y-86557380D01*
X204817977Y-86531436D01*
X204860521Y-86496521D01*
X204895436Y-86453977D01*
X204921380Y-86405439D01*
X204937356Y-86352772D01*
X204942751Y-86298000D01*
X204942751Y-85049658D01*
X207135135Y-85049658D01*
X207135135Y-85164736D01*
X207157585Y-85277602D01*
X207201623Y-85383920D01*
X207265557Y-85479603D01*
X207346929Y-85560975D01*
X207442612Y-85624909D01*
X207548930Y-85668947D01*
X207661796Y-85691397D01*
X207776874Y-85691397D01*
X207889740Y-85668947D01*
X207996058Y-85624909D01*
X208091741Y-85560975D01*
X208173113Y-85479603D01*
X208237047Y-85383920D01*
X208281085Y-85277602D01*
X208303535Y-85164736D01*
X208303535Y-85049658D01*
X208281085Y-84936792D01*
X208237047Y-84830474D01*
X208173113Y-84734791D01*
X208091741Y-84653419D01*
X207996058Y-84589485D01*
X207889740Y-84545447D01*
X207776874Y-84522997D01*
X207661796Y-84522997D01*
X207548930Y-84545447D01*
X207442612Y-84589485D01*
X207346929Y-84653419D01*
X207265557Y-84734791D01*
X207201623Y-84830474D01*
X207157585Y-84936792D01*
X207135135Y-85049658D01*
X204942751Y-85049658D01*
X204942751Y-84898000D01*
X204937356Y-84843228D01*
X204921380Y-84790561D01*
X204895436Y-84742023D01*
X204860521Y-84699479D01*
X204817977Y-84664564D01*
X204769439Y-84638620D01*
X204716772Y-84622644D01*
X204662000Y-84617249D01*
X203262000Y-84617249D01*
X203207228Y-84622644D01*
X203154561Y-84638620D01*
X203106023Y-84664564D01*
X203063479Y-84699479D01*
X203028564Y-84742023D01*
X203002620Y-84790561D01*
X202986644Y-84843228D01*
X202981249Y-84898000D01*
X198846751Y-84898000D01*
X198841356Y-84843228D01*
X198825380Y-84790561D01*
X198799436Y-84742023D01*
X198764521Y-84699479D01*
X198721977Y-84664564D01*
X198673439Y-84638620D01*
X198620772Y-84622644D01*
X198566000Y-84617249D01*
X197166000Y-84617249D01*
X197111228Y-84622644D01*
X197058561Y-84638620D01*
X197010023Y-84664564D01*
X196967479Y-84699479D01*
X196932564Y-84742023D01*
X196906620Y-84790561D01*
X196890644Y-84843228D01*
X196885249Y-84898000D01*
X190086600Y-84898000D01*
X190086600Y-84843062D01*
X190050884Y-84663504D01*
X189980824Y-84494364D01*
X189879112Y-84342142D01*
X189749658Y-84212688D01*
X189597436Y-84110976D01*
X189428296Y-84040916D01*
X189248738Y-84005200D01*
X189065662Y-84005200D01*
X188886104Y-84040916D01*
X188716964Y-84110976D01*
X188564742Y-84212688D01*
X188435288Y-84342142D01*
X188333576Y-84494364D01*
X188263516Y-84663504D01*
X188227800Y-84843062D01*
X169721200Y-84843062D01*
X169721200Y-83573062D01*
X190767800Y-83573062D01*
X190767800Y-83756138D01*
X190803516Y-83935696D01*
X190873576Y-84104836D01*
X190975288Y-84257058D01*
X191104742Y-84386512D01*
X191256964Y-84488224D01*
X191426104Y-84558284D01*
X191605662Y-84594000D01*
X191788738Y-84594000D01*
X191968296Y-84558284D01*
X192137436Y-84488224D01*
X192289658Y-84386512D01*
X192419112Y-84257058D01*
X192520824Y-84104836D01*
X192557430Y-84016461D01*
X193065400Y-84016461D01*
X193065400Y-84131539D01*
X193087850Y-84244405D01*
X193131888Y-84350723D01*
X193195822Y-84446406D01*
X193277194Y-84527778D01*
X193372877Y-84591712D01*
X193479195Y-84635750D01*
X193592061Y-84658200D01*
X193707139Y-84658200D01*
X193820005Y-84635750D01*
X193926323Y-84591712D01*
X194022006Y-84527778D01*
X194103378Y-84446406D01*
X194167312Y-84350723D01*
X194211350Y-84244405D01*
X194233800Y-84131539D01*
X194233800Y-84016461D01*
X194211350Y-83903595D01*
X194167312Y-83797277D01*
X194103378Y-83701594D01*
X194022006Y-83620222D01*
X193926323Y-83556288D01*
X193820005Y-83512250D01*
X193707139Y-83489800D01*
X193592061Y-83489800D01*
X193479195Y-83512250D01*
X193372877Y-83556288D01*
X193277194Y-83620222D01*
X193195822Y-83701594D01*
X193131888Y-83797277D01*
X193087850Y-83903595D01*
X193065400Y-84016461D01*
X192557430Y-84016461D01*
X192590884Y-83935696D01*
X192626600Y-83756138D01*
X192626600Y-83573062D01*
X192590884Y-83393504D01*
X192520824Y-83224364D01*
X192419112Y-83072142D01*
X192308508Y-82961538D01*
X194346600Y-82961538D01*
X194346600Y-83154462D01*
X194384238Y-83343680D01*
X194458067Y-83521920D01*
X194565250Y-83682331D01*
X194701669Y-83818750D01*
X194862080Y-83925933D01*
X195040320Y-83999762D01*
X195229538Y-84037400D01*
X195422462Y-84037400D01*
X195611680Y-83999762D01*
X195789920Y-83925933D01*
X195950331Y-83818750D01*
X196086750Y-83682331D01*
X196193933Y-83521920D01*
X196267762Y-83343680D01*
X196305400Y-83154462D01*
X196305400Y-82961538D01*
X196886600Y-82961538D01*
X196886600Y-83154462D01*
X196924238Y-83343680D01*
X196998067Y-83521920D01*
X197105250Y-83682331D01*
X197241669Y-83818750D01*
X197402080Y-83925933D01*
X197580320Y-83999762D01*
X197769538Y-84037400D01*
X197962462Y-84037400D01*
X198151680Y-83999762D01*
X198329920Y-83925933D01*
X198490331Y-83818750D01*
X198626750Y-83682331D01*
X198733933Y-83521920D01*
X198807762Y-83343680D01*
X198845400Y-83154462D01*
X198845400Y-82961538D01*
X200442600Y-82961538D01*
X200442600Y-83154462D01*
X200480238Y-83343680D01*
X200554067Y-83521920D01*
X200661250Y-83682331D01*
X200797669Y-83818750D01*
X200958080Y-83925933D01*
X201136320Y-83999762D01*
X201325538Y-84037400D01*
X201518462Y-84037400D01*
X201707680Y-83999762D01*
X201885920Y-83925933D01*
X202046331Y-83818750D01*
X202182750Y-83682331D01*
X202289933Y-83521920D01*
X202363762Y-83343680D01*
X202401400Y-83154462D01*
X202401400Y-82961538D01*
X202982600Y-82961538D01*
X202982600Y-83154462D01*
X203020238Y-83343680D01*
X203094067Y-83521920D01*
X203201250Y-83682331D01*
X203337669Y-83818750D01*
X203498080Y-83925933D01*
X203676320Y-83999762D01*
X203865538Y-84037400D01*
X204058462Y-84037400D01*
X204163728Y-84016461D01*
X204901800Y-84016461D01*
X204901800Y-84131539D01*
X204924250Y-84244405D01*
X204968288Y-84350723D01*
X205032222Y-84446406D01*
X205113594Y-84527778D01*
X205209277Y-84591712D01*
X205315595Y-84635750D01*
X205428461Y-84658200D01*
X205543539Y-84658200D01*
X205656405Y-84635750D01*
X205762723Y-84591712D01*
X205858406Y-84527778D01*
X205939778Y-84446406D01*
X206003712Y-84350723D01*
X206047750Y-84244405D01*
X206070200Y-84131539D01*
X206070200Y-84016461D01*
X208076808Y-84016461D01*
X208076808Y-84131539D01*
X208099258Y-84244405D01*
X208143296Y-84350723D01*
X208207230Y-84446406D01*
X208288602Y-84527778D01*
X208384285Y-84591712D01*
X208490603Y-84635750D01*
X208603469Y-84658200D01*
X208718547Y-84658200D01*
X208831413Y-84635750D01*
X208937731Y-84591712D01*
X208998760Y-84550933D01*
X210059864Y-84550933D01*
X210059864Y-84666011D01*
X210082314Y-84778877D01*
X210126352Y-84885195D01*
X210190286Y-84980878D01*
X210271658Y-85062250D01*
X210367341Y-85126184D01*
X210473659Y-85170222D01*
X210586525Y-85192672D01*
X210701603Y-85192672D01*
X210814469Y-85170222D01*
X210920787Y-85126184D01*
X211016470Y-85062250D01*
X211097842Y-84980878D01*
X211161776Y-84885195D01*
X211205814Y-84778877D01*
X211228264Y-84666011D01*
X211228264Y-84651461D01*
X216141300Y-84651461D01*
X216141300Y-84766539D01*
X216163750Y-84879405D01*
X216207788Y-84985723D01*
X216271722Y-85081406D01*
X216353094Y-85162778D01*
X216448777Y-85226712D01*
X216555095Y-85270750D01*
X216667961Y-85293200D01*
X216783039Y-85293200D01*
X216895905Y-85270750D01*
X217002223Y-85226712D01*
X217097906Y-85162778D01*
X217179278Y-85081406D01*
X217243212Y-84985723D01*
X217287250Y-84879405D01*
X217309700Y-84766539D01*
X217309700Y-84651461D01*
X217287250Y-84538595D01*
X217243212Y-84432277D01*
X217196562Y-84362460D01*
X222377000Y-84362460D01*
X222377000Y-84477538D01*
X222399450Y-84590404D01*
X222443488Y-84696722D01*
X222507422Y-84792405D01*
X222588794Y-84873777D01*
X222684477Y-84937711D01*
X222790795Y-84981749D01*
X222903661Y-85004199D01*
X223018739Y-85004199D01*
X223131605Y-84981749D01*
X223237923Y-84937711D01*
X223333606Y-84873777D01*
X223414978Y-84792405D01*
X223478912Y-84696722D01*
X223522950Y-84590404D01*
X223537091Y-84519311D01*
X223580517Y-84624152D01*
X223644451Y-84719835D01*
X223725823Y-84801207D01*
X223821506Y-84865141D01*
X223927824Y-84909179D01*
X224040690Y-84931629D01*
X224155768Y-84931629D01*
X224268634Y-84909179D01*
X224374952Y-84865141D01*
X224470635Y-84801207D01*
X224552007Y-84719835D01*
X224615941Y-84624152D01*
X224659979Y-84517834D01*
X224682429Y-84404968D01*
X224682429Y-84289890D01*
X224659979Y-84177024D01*
X224615941Y-84070706D01*
X224552007Y-83975023D01*
X224470635Y-83893651D01*
X224374952Y-83829717D01*
X224268634Y-83785679D01*
X224155768Y-83763229D01*
X224040690Y-83763229D01*
X223927824Y-83785679D01*
X223821506Y-83829717D01*
X223725823Y-83893651D01*
X223644451Y-83975023D01*
X223580517Y-84070706D01*
X223536479Y-84177024D01*
X223522338Y-84248117D01*
X223478912Y-84143276D01*
X223414978Y-84047593D01*
X223333606Y-83966221D01*
X223237923Y-83902287D01*
X223131605Y-83858249D01*
X223018739Y-83835799D01*
X222903661Y-83835799D01*
X222790795Y-83858249D01*
X222684477Y-83902287D01*
X222588794Y-83966221D01*
X222507422Y-84047593D01*
X222443488Y-84143276D01*
X222399450Y-84249594D01*
X222377000Y-84362460D01*
X217196562Y-84362460D01*
X217179278Y-84336594D01*
X217097906Y-84255222D01*
X217002223Y-84191288D01*
X216895905Y-84147250D01*
X216783039Y-84124800D01*
X216667961Y-84124800D01*
X216555095Y-84147250D01*
X216448777Y-84191288D01*
X216353094Y-84255222D01*
X216271722Y-84336594D01*
X216207788Y-84432277D01*
X216163750Y-84538595D01*
X216141300Y-84651461D01*
X211228264Y-84651461D01*
X211228264Y-84550933D01*
X211205814Y-84438067D01*
X211161776Y-84331749D01*
X211097842Y-84236066D01*
X211016470Y-84154694D01*
X210920787Y-84090760D01*
X210814469Y-84046722D01*
X210701603Y-84024272D01*
X210586525Y-84024272D01*
X210473659Y-84046722D01*
X210367341Y-84090760D01*
X210271658Y-84154694D01*
X210190286Y-84236066D01*
X210126352Y-84331749D01*
X210082314Y-84438067D01*
X210059864Y-84550933D01*
X208998760Y-84550933D01*
X209033414Y-84527778D01*
X209114786Y-84446406D01*
X209178720Y-84350723D01*
X209222758Y-84244405D01*
X209245208Y-84131539D01*
X209245208Y-84016461D01*
X209222758Y-83903595D01*
X209178720Y-83797277D01*
X209114786Y-83701594D01*
X209033414Y-83620222D01*
X208937731Y-83556288D01*
X208831413Y-83512250D01*
X208718547Y-83489800D01*
X208603469Y-83489800D01*
X208490603Y-83512250D01*
X208384285Y-83556288D01*
X208288602Y-83620222D01*
X208207230Y-83701594D01*
X208143296Y-83797277D01*
X208099258Y-83903595D01*
X208076808Y-84016461D01*
X206070200Y-84016461D01*
X206047750Y-83903595D01*
X206003712Y-83797277D01*
X205939778Y-83701594D01*
X205858406Y-83620222D01*
X205762723Y-83556288D01*
X205656405Y-83512250D01*
X205543539Y-83489800D01*
X205428461Y-83489800D01*
X205315595Y-83512250D01*
X205209277Y-83556288D01*
X205113594Y-83620222D01*
X205032222Y-83701594D01*
X204968288Y-83797277D01*
X204924250Y-83903595D01*
X204901800Y-84016461D01*
X204163728Y-84016461D01*
X204247680Y-83999762D01*
X204425920Y-83925933D01*
X204586331Y-83818750D01*
X204722750Y-83682331D01*
X204829933Y-83521920D01*
X204903762Y-83343680D01*
X204941400Y-83154462D01*
X204941400Y-82961538D01*
X204903762Y-82772320D01*
X204829933Y-82594080D01*
X204722750Y-82433669D01*
X204586331Y-82297250D01*
X204425920Y-82190067D01*
X204247680Y-82116238D01*
X204058462Y-82078600D01*
X203865538Y-82078600D01*
X203676320Y-82116238D01*
X203498080Y-82190067D01*
X203337669Y-82297250D01*
X203201250Y-82433669D01*
X203094067Y-82594080D01*
X203020238Y-82772320D01*
X202982600Y-82961538D01*
X202401400Y-82961538D01*
X202363762Y-82772320D01*
X202289933Y-82594080D01*
X202182750Y-82433669D01*
X202046331Y-82297250D01*
X201885920Y-82190067D01*
X201707680Y-82116238D01*
X201518462Y-82078600D01*
X201325538Y-82078600D01*
X201136320Y-82116238D01*
X200958080Y-82190067D01*
X200797669Y-82297250D01*
X200661250Y-82433669D01*
X200554067Y-82594080D01*
X200480238Y-82772320D01*
X200442600Y-82961538D01*
X198845400Y-82961538D01*
X198807762Y-82772320D01*
X198733933Y-82594080D01*
X198626750Y-82433669D01*
X198490331Y-82297250D01*
X198329920Y-82190067D01*
X198151680Y-82116238D01*
X197962462Y-82078600D01*
X197769538Y-82078600D01*
X197580320Y-82116238D01*
X197402080Y-82190067D01*
X197241669Y-82297250D01*
X197105250Y-82433669D01*
X196998067Y-82594080D01*
X196924238Y-82772320D01*
X196886600Y-82961538D01*
X196305400Y-82961538D01*
X196267762Y-82772320D01*
X196193933Y-82594080D01*
X196086750Y-82433669D01*
X195950331Y-82297250D01*
X195789920Y-82190067D01*
X195611680Y-82116238D01*
X195422462Y-82078600D01*
X195229538Y-82078600D01*
X195040320Y-82116238D01*
X194862080Y-82190067D01*
X194701669Y-82297250D01*
X194565250Y-82433669D01*
X194458067Y-82594080D01*
X194384238Y-82772320D01*
X194346600Y-82961538D01*
X192308508Y-82961538D01*
X192289658Y-82942688D01*
X192137436Y-82840976D01*
X191968296Y-82770916D01*
X191788738Y-82735200D01*
X191605662Y-82735200D01*
X191426104Y-82770916D01*
X191256964Y-82840976D01*
X191104742Y-82942688D01*
X190975288Y-83072142D01*
X190873576Y-83224364D01*
X190803516Y-83393504D01*
X190767800Y-83573062D01*
X169721200Y-83573062D01*
X169721200Y-83218583D01*
X169728476Y-83229472D01*
X169823108Y-83324104D01*
X169934384Y-83398456D01*
X170058026Y-83449671D01*
X170189285Y-83475780D01*
X170323115Y-83475780D01*
X170454374Y-83449671D01*
X170578016Y-83398456D01*
X170689292Y-83324104D01*
X170783924Y-83229472D01*
X170858276Y-83118196D01*
X170909491Y-82994554D01*
X170935600Y-82863295D01*
X170935600Y-82729465D01*
X170909491Y-82598206D01*
X170858276Y-82474564D01*
X170783924Y-82363288D01*
X170723698Y-82303062D01*
X188227800Y-82303062D01*
X188227800Y-82486138D01*
X188263516Y-82665696D01*
X188333576Y-82834836D01*
X188435288Y-82987058D01*
X188564742Y-83116512D01*
X188716964Y-83218224D01*
X188886104Y-83288284D01*
X189065662Y-83324000D01*
X189248738Y-83324000D01*
X189428296Y-83288284D01*
X189597436Y-83218224D01*
X189749658Y-83116512D01*
X189879112Y-82987058D01*
X189980824Y-82834836D01*
X190050884Y-82665696D01*
X190086600Y-82486138D01*
X190086600Y-82303062D01*
X190050884Y-82123504D01*
X189980824Y-81954364D01*
X189879112Y-81802142D01*
X189749658Y-81672688D01*
X189597436Y-81570976D01*
X189428296Y-81500916D01*
X189248738Y-81465200D01*
X189065662Y-81465200D01*
X188886104Y-81500916D01*
X188716964Y-81570976D01*
X188564742Y-81672688D01*
X188435288Y-81802142D01*
X188333576Y-81954364D01*
X188263516Y-82123504D01*
X188227800Y-82303062D01*
X170723698Y-82303062D01*
X170689292Y-82268656D01*
X170578016Y-82194304D01*
X170454374Y-82143089D01*
X170323115Y-82116980D01*
X170189285Y-82116980D01*
X170058026Y-82143089D01*
X169934384Y-82194304D01*
X169823108Y-82268656D01*
X169728476Y-82363288D01*
X169721200Y-82374177D01*
X169721200Y-81033062D01*
X190767800Y-81033062D01*
X190767800Y-81216138D01*
X190803516Y-81395696D01*
X190873576Y-81564836D01*
X190975288Y-81717058D01*
X191104742Y-81846512D01*
X191256964Y-81948224D01*
X191426104Y-82018284D01*
X191605662Y-82054000D01*
X191788738Y-82054000D01*
X191968296Y-82018284D01*
X192137436Y-81948224D01*
X192289658Y-81846512D01*
X192419112Y-81717058D01*
X192520824Y-81564836D01*
X192590884Y-81395696D01*
X192626600Y-81216138D01*
X192626600Y-81033062D01*
X192590884Y-80853504D01*
X192520824Y-80684364D01*
X192419112Y-80532142D01*
X192308508Y-80421538D01*
X194346600Y-80421538D01*
X194346600Y-80614462D01*
X194384238Y-80803680D01*
X194458067Y-80981920D01*
X194565250Y-81142331D01*
X194701669Y-81278750D01*
X194862080Y-81385933D01*
X195040320Y-81459762D01*
X195229538Y-81497400D01*
X195422462Y-81497400D01*
X195611680Y-81459762D01*
X195789920Y-81385933D01*
X195950331Y-81278750D01*
X196086750Y-81142331D01*
X196193933Y-80981920D01*
X196267762Y-80803680D01*
X196305400Y-80614462D01*
X196305400Y-80421538D01*
X196886600Y-80421538D01*
X196886600Y-80614462D01*
X196924238Y-80803680D01*
X196998067Y-80981920D01*
X197105250Y-81142331D01*
X197241669Y-81278750D01*
X197402080Y-81385933D01*
X197580320Y-81459762D01*
X197769538Y-81497400D01*
X197962462Y-81497400D01*
X198151680Y-81459762D01*
X198329920Y-81385933D01*
X198490331Y-81278750D01*
X198626750Y-81142331D01*
X198733933Y-80981920D01*
X198807762Y-80803680D01*
X198845400Y-80614462D01*
X198845400Y-80421538D01*
X198807762Y-80232320D01*
X198763879Y-80126375D01*
X199043214Y-80126375D01*
X199043214Y-80241453D01*
X199065664Y-80354319D01*
X199109702Y-80460637D01*
X199173636Y-80556320D01*
X199255008Y-80637692D01*
X199350691Y-80701626D01*
X199457009Y-80745664D01*
X199569875Y-80768114D01*
X199684953Y-80768114D01*
X199797819Y-80745664D01*
X199904137Y-80701626D01*
X199999820Y-80637692D01*
X200081192Y-80556320D01*
X200145126Y-80460637D01*
X200161321Y-80421538D01*
X200442600Y-80421538D01*
X200442600Y-80614462D01*
X200480238Y-80803680D01*
X200554067Y-80981920D01*
X200661250Y-81142331D01*
X200797669Y-81278750D01*
X200958080Y-81385933D01*
X201136320Y-81459762D01*
X201325538Y-81497400D01*
X201518462Y-81497400D01*
X201707680Y-81459762D01*
X201885920Y-81385933D01*
X202046331Y-81278750D01*
X202182750Y-81142331D01*
X202289933Y-80981920D01*
X202363762Y-80803680D01*
X202401400Y-80614462D01*
X202401400Y-80421538D01*
X202982600Y-80421538D01*
X202982600Y-80614462D01*
X203020238Y-80803680D01*
X203094067Y-80981920D01*
X203201250Y-81142331D01*
X203337669Y-81278750D01*
X203498080Y-81385933D01*
X203676320Y-81459762D01*
X203865538Y-81497400D01*
X204058462Y-81497400D01*
X204247680Y-81459762D01*
X204351424Y-81416790D01*
X206866471Y-81416790D01*
X206866471Y-81531868D01*
X206888921Y-81644734D01*
X206932959Y-81751052D01*
X206996893Y-81846735D01*
X207078265Y-81928107D01*
X207173948Y-81992041D01*
X207280266Y-82036079D01*
X207393132Y-82058529D01*
X207501471Y-82058529D01*
X207501471Y-82166868D01*
X207523921Y-82279734D01*
X207567959Y-82386052D01*
X207631893Y-82481735D01*
X207711855Y-82561697D01*
X207660956Y-82551573D01*
X207545878Y-82551573D01*
X207433012Y-82574023D01*
X207326694Y-82618061D01*
X207231011Y-82681995D01*
X207149639Y-82763367D01*
X207085705Y-82859050D01*
X207041667Y-82965368D01*
X207019217Y-83078234D01*
X207019217Y-83193312D01*
X207041667Y-83306178D01*
X207085705Y-83412496D01*
X207149639Y-83508179D01*
X207231011Y-83589551D01*
X207326694Y-83653485D01*
X207433012Y-83697523D01*
X207545878Y-83719973D01*
X207660956Y-83719973D01*
X207773822Y-83697523D01*
X207880140Y-83653485D01*
X207975823Y-83589551D01*
X208057195Y-83508179D01*
X208121129Y-83412496D01*
X208165167Y-83306178D01*
X208187617Y-83193312D01*
X208187617Y-83078234D01*
X208165167Y-82965368D01*
X208121129Y-82859050D01*
X208057195Y-82763367D01*
X208040289Y-82746461D01*
X208661237Y-82746461D01*
X208661237Y-82861539D01*
X208683687Y-82974405D01*
X208727725Y-83080723D01*
X208791659Y-83176406D01*
X208873031Y-83257778D01*
X208968714Y-83321712D01*
X209075032Y-83365750D01*
X209187898Y-83388200D01*
X209302976Y-83388200D01*
X209415842Y-83365750D01*
X209427321Y-83360995D01*
X209423250Y-83381461D01*
X209423250Y-83496539D01*
X209445700Y-83609405D01*
X209489738Y-83715723D01*
X209553672Y-83811406D01*
X209635044Y-83892778D01*
X209730727Y-83956712D01*
X209837045Y-84000750D01*
X209949911Y-84023200D01*
X210064989Y-84023200D01*
X210177855Y-84000750D01*
X210284173Y-83956712D01*
X210379856Y-83892778D01*
X210461228Y-83811406D01*
X210525162Y-83715723D01*
X210569200Y-83609405D01*
X210591650Y-83496539D01*
X210591650Y-83381461D01*
X210569200Y-83268595D01*
X210525162Y-83162277D01*
X210461228Y-83066594D01*
X210379856Y-82985222D01*
X210284173Y-82921288D01*
X210177855Y-82877250D01*
X210064989Y-82854800D01*
X209949911Y-82854800D01*
X209837045Y-82877250D01*
X209825566Y-82882005D01*
X209829637Y-82861539D01*
X209829637Y-82746461D01*
X209807187Y-82633595D01*
X209763149Y-82527277D01*
X209699215Y-82431594D01*
X209617843Y-82350222D01*
X209522160Y-82286288D01*
X209415842Y-82242250D01*
X209302976Y-82219800D01*
X209187898Y-82219800D01*
X209075032Y-82242250D01*
X208968714Y-82286288D01*
X208873031Y-82350222D01*
X208791659Y-82431594D01*
X208727725Y-82527277D01*
X208683687Y-82633595D01*
X208661237Y-82746461D01*
X208040289Y-82746461D01*
X207977233Y-82683405D01*
X208028132Y-82693529D01*
X208143210Y-82693529D01*
X208256076Y-82671079D01*
X208362394Y-82627041D01*
X208458077Y-82563107D01*
X208539449Y-82481735D01*
X208603383Y-82386052D01*
X208647421Y-82279734D01*
X208669871Y-82166868D01*
X208669871Y-82051790D01*
X208647421Y-81938924D01*
X208603383Y-81832606D01*
X208539449Y-81736923D01*
X208458077Y-81655551D01*
X208362394Y-81591617D01*
X208256076Y-81547579D01*
X208143210Y-81525129D01*
X208034871Y-81525129D01*
X208034871Y-81416790D01*
X208020229Y-81343177D01*
X208120453Y-81301663D01*
X208216136Y-81237729D01*
X208297508Y-81156357D01*
X208361442Y-81060674D01*
X208405480Y-80954356D01*
X208427930Y-80841490D01*
X208427930Y-80726412D01*
X208405480Y-80613546D01*
X208361442Y-80507228D01*
X208297508Y-80411545D01*
X208216136Y-80330173D01*
X208120453Y-80266239D01*
X208014135Y-80222201D01*
X207901269Y-80199751D01*
X207786191Y-80199751D01*
X207673325Y-80222201D01*
X207567007Y-80266239D01*
X207471324Y-80330173D01*
X207389952Y-80411545D01*
X207326018Y-80507228D01*
X207281980Y-80613546D01*
X207259530Y-80726412D01*
X207259530Y-80841490D01*
X207274172Y-80915103D01*
X207173948Y-80956617D01*
X207078265Y-81020551D01*
X206996893Y-81101923D01*
X206932959Y-81197606D01*
X206888921Y-81303924D01*
X206866471Y-81416790D01*
X204351424Y-81416790D01*
X204425920Y-81385933D01*
X204586331Y-81278750D01*
X204722750Y-81142331D01*
X204829933Y-80981920D01*
X204903762Y-80803680D01*
X204941400Y-80614462D01*
X204941400Y-80508797D01*
X205458136Y-80508797D01*
X205458136Y-80623875D01*
X205480586Y-80736741D01*
X205524624Y-80843059D01*
X205588558Y-80938742D01*
X205669930Y-81020114D01*
X205765613Y-81084048D01*
X205871931Y-81128086D01*
X205984797Y-81150536D01*
X206099875Y-81150536D01*
X206212741Y-81128086D01*
X206319059Y-81084048D01*
X206414742Y-81020114D01*
X206496114Y-80938742D01*
X206560048Y-80843059D01*
X206604086Y-80736741D01*
X206626536Y-80623875D01*
X206626536Y-80508797D01*
X206604086Y-80395931D01*
X206560048Y-80289613D01*
X206496114Y-80193930D01*
X206414742Y-80112558D01*
X206319059Y-80048624D01*
X206212741Y-80004586D01*
X206099875Y-79982136D01*
X205984797Y-79982136D01*
X205871931Y-80004586D01*
X205765613Y-80048624D01*
X205669930Y-80112558D01*
X205588558Y-80193930D01*
X205524624Y-80289613D01*
X205480586Y-80395931D01*
X205458136Y-80508797D01*
X204941400Y-80508797D01*
X204941400Y-80421538D01*
X204903762Y-80232320D01*
X204829933Y-80054080D01*
X204722750Y-79893669D01*
X204586331Y-79757250D01*
X204425920Y-79650067D01*
X204247680Y-79576238D01*
X204058462Y-79538600D01*
X203865538Y-79538600D01*
X203676320Y-79576238D01*
X203498080Y-79650067D01*
X203337669Y-79757250D01*
X203201250Y-79893669D01*
X203094067Y-80054080D01*
X203020238Y-80232320D01*
X202982600Y-80421538D01*
X202401400Y-80421538D01*
X202363762Y-80232320D01*
X202289933Y-80054080D01*
X202182750Y-79893669D01*
X202046331Y-79757250D01*
X201885920Y-79650067D01*
X201707680Y-79576238D01*
X201518462Y-79538600D01*
X201325538Y-79538600D01*
X201136320Y-79576238D01*
X200958080Y-79650067D01*
X200797669Y-79757250D01*
X200661250Y-79893669D01*
X200554067Y-80054080D01*
X200480238Y-80232320D01*
X200442600Y-80421538D01*
X200161321Y-80421538D01*
X200189164Y-80354319D01*
X200211614Y-80241453D01*
X200211614Y-80126375D01*
X200189164Y-80013509D01*
X200145126Y-79907191D01*
X200081192Y-79811508D01*
X199999820Y-79730136D01*
X199904137Y-79666202D01*
X199797819Y-79622164D01*
X199684953Y-79599714D01*
X199569875Y-79599714D01*
X199457009Y-79622164D01*
X199350691Y-79666202D01*
X199255008Y-79730136D01*
X199173636Y-79811508D01*
X199109702Y-79907191D01*
X199065664Y-80013509D01*
X199043214Y-80126375D01*
X198763879Y-80126375D01*
X198733933Y-80054080D01*
X198626750Y-79893669D01*
X198490331Y-79757250D01*
X198329920Y-79650067D01*
X198151680Y-79576238D01*
X197962462Y-79538600D01*
X197769538Y-79538600D01*
X197580320Y-79576238D01*
X197402080Y-79650067D01*
X197241669Y-79757250D01*
X197105250Y-79893669D01*
X196998067Y-80054080D01*
X196924238Y-80232320D01*
X196886600Y-80421538D01*
X196305400Y-80421538D01*
X196267762Y-80232320D01*
X196193933Y-80054080D01*
X196086750Y-79893669D01*
X195950331Y-79757250D01*
X195789920Y-79650067D01*
X195611680Y-79576238D01*
X195422462Y-79538600D01*
X195229538Y-79538600D01*
X195040320Y-79576238D01*
X194862080Y-79650067D01*
X194701669Y-79757250D01*
X194565250Y-79893669D01*
X194458067Y-80054080D01*
X194384238Y-80232320D01*
X194346600Y-80421538D01*
X192308508Y-80421538D01*
X192289658Y-80402688D01*
X192137436Y-80300976D01*
X191968296Y-80230916D01*
X191788738Y-80195200D01*
X191605662Y-80195200D01*
X191426104Y-80230916D01*
X191256964Y-80300976D01*
X191104742Y-80402688D01*
X190975288Y-80532142D01*
X190873576Y-80684364D01*
X190803516Y-80853504D01*
X190767800Y-81033062D01*
X169721200Y-81033062D01*
X169721200Y-79763062D01*
X188227800Y-79763062D01*
X188227800Y-79946138D01*
X188263516Y-80125696D01*
X188333576Y-80294836D01*
X188435288Y-80447058D01*
X188564742Y-80576512D01*
X188716964Y-80678224D01*
X188886104Y-80748284D01*
X189065662Y-80784000D01*
X189248738Y-80784000D01*
X189428296Y-80748284D01*
X189597436Y-80678224D01*
X189749658Y-80576512D01*
X189879112Y-80447058D01*
X189980824Y-80294836D01*
X190050884Y-80125696D01*
X190086600Y-79946138D01*
X190086600Y-79763062D01*
X190050884Y-79583504D01*
X189980824Y-79414364D01*
X189879112Y-79262142D01*
X189749658Y-79132688D01*
X189597436Y-79030976D01*
X189428296Y-78960916D01*
X189248738Y-78925200D01*
X189065662Y-78925200D01*
X188886104Y-78960916D01*
X188716964Y-79030976D01*
X188564742Y-79132688D01*
X188435288Y-79262142D01*
X188333576Y-79414364D01*
X188263516Y-79583504D01*
X188227800Y-79763062D01*
X169721200Y-79763062D01*
X169721200Y-78493062D01*
X190767800Y-78493062D01*
X190767800Y-78676138D01*
X190803516Y-78855696D01*
X190873576Y-79024836D01*
X190975288Y-79177058D01*
X191104742Y-79306512D01*
X191256964Y-79408224D01*
X191426104Y-79478284D01*
X191605662Y-79514000D01*
X191788738Y-79514000D01*
X191968296Y-79478284D01*
X192137436Y-79408224D01*
X192289658Y-79306512D01*
X192419112Y-79177058D01*
X192520824Y-79024836D01*
X192590884Y-78855696D01*
X192626600Y-78676138D01*
X192626600Y-78493062D01*
X192590884Y-78313504D01*
X192520824Y-78144364D01*
X192419112Y-77992142D01*
X192289658Y-77862688D01*
X192181564Y-77790461D01*
X199821800Y-77790461D01*
X199821800Y-77905539D01*
X199844250Y-78018405D01*
X199888288Y-78124723D01*
X199952222Y-78220406D01*
X200033594Y-78301778D01*
X200129277Y-78365712D01*
X200235595Y-78409750D01*
X200348461Y-78432200D01*
X200463539Y-78432200D01*
X200576405Y-78409750D01*
X200682723Y-78365712D01*
X200778406Y-78301778D01*
X200859778Y-78220406D01*
X200923712Y-78124723D01*
X200967750Y-78018405D01*
X200974601Y-77983961D01*
X204711300Y-77983961D01*
X204711300Y-78099039D01*
X204733750Y-78211905D01*
X204777788Y-78318223D01*
X204841722Y-78413906D01*
X204923094Y-78495278D01*
X205018777Y-78559212D01*
X205125095Y-78603250D01*
X205237961Y-78625700D01*
X205353039Y-78625700D01*
X205465905Y-78603250D01*
X205572223Y-78559212D01*
X205667906Y-78495278D01*
X205749278Y-78413906D01*
X205813212Y-78318223D01*
X205851717Y-78225261D01*
X206273400Y-78225261D01*
X206273400Y-78340339D01*
X206295850Y-78453205D01*
X206339888Y-78559523D01*
X206403822Y-78655206D01*
X206485194Y-78736578D01*
X206580877Y-78800512D01*
X206687195Y-78844550D01*
X206800061Y-78867000D01*
X206915139Y-78867000D01*
X207028005Y-78844550D01*
X207134323Y-78800512D01*
X207230006Y-78736578D01*
X207311378Y-78655206D01*
X207375312Y-78559523D01*
X207419350Y-78453205D01*
X207441800Y-78340339D01*
X207441800Y-78225261D01*
X207419350Y-78112395D01*
X207375312Y-78006077D01*
X207311378Y-77910394D01*
X207230006Y-77829022D01*
X207134323Y-77765088D01*
X207028005Y-77721050D01*
X206915139Y-77698600D01*
X206800061Y-77698600D01*
X206687195Y-77721050D01*
X206580877Y-77765088D01*
X206485194Y-77829022D01*
X206403822Y-77910394D01*
X206339888Y-78006077D01*
X206295850Y-78112395D01*
X206273400Y-78225261D01*
X205851717Y-78225261D01*
X205857250Y-78211905D01*
X205879700Y-78099039D01*
X205879700Y-77983961D01*
X205857250Y-77871095D01*
X205813212Y-77764777D01*
X205749278Y-77669094D01*
X205667906Y-77587722D01*
X205572223Y-77523788D01*
X205465905Y-77479750D01*
X205353039Y-77457300D01*
X205237961Y-77457300D01*
X205125095Y-77479750D01*
X205018777Y-77523788D01*
X204923094Y-77587722D01*
X204841722Y-77669094D01*
X204777788Y-77764777D01*
X204733750Y-77871095D01*
X204711300Y-77983961D01*
X200974601Y-77983961D01*
X200990200Y-77905539D01*
X200990200Y-77790461D01*
X200967750Y-77677595D01*
X200923712Y-77571277D01*
X200859778Y-77475594D01*
X200778406Y-77394222D01*
X200682723Y-77330288D01*
X200576405Y-77286250D01*
X200463539Y-77263800D01*
X200348461Y-77263800D01*
X200235595Y-77286250D01*
X200129277Y-77330288D01*
X200033594Y-77394222D01*
X199952222Y-77475594D01*
X199888288Y-77571277D01*
X199844250Y-77677595D01*
X199821800Y-77790461D01*
X192181564Y-77790461D01*
X192137436Y-77760976D01*
X191968296Y-77690916D01*
X191788738Y-77655200D01*
X191605662Y-77655200D01*
X191426104Y-77690916D01*
X191256964Y-77760976D01*
X191104742Y-77862688D01*
X190975288Y-77992142D01*
X190873576Y-78144364D01*
X190803516Y-78313504D01*
X190767800Y-78493062D01*
X169721200Y-78493062D01*
X169721200Y-77223062D01*
X188227800Y-77223062D01*
X188227800Y-77406138D01*
X188263516Y-77585696D01*
X188333576Y-77754836D01*
X188435288Y-77907058D01*
X188564742Y-78036512D01*
X188716964Y-78138224D01*
X188886104Y-78208284D01*
X189065662Y-78244000D01*
X189248738Y-78244000D01*
X189428296Y-78208284D01*
X189597436Y-78138224D01*
X189749658Y-78036512D01*
X189879112Y-77907058D01*
X189980824Y-77754836D01*
X190050884Y-77585696D01*
X190086600Y-77406138D01*
X190086600Y-77223062D01*
X190050884Y-77043504D01*
X189980824Y-76874364D01*
X189879112Y-76722142D01*
X189749658Y-76592688D01*
X189597436Y-76490976D01*
X189428296Y-76420916D01*
X189248738Y-76385200D01*
X189065662Y-76385200D01*
X188886104Y-76420916D01*
X188716964Y-76490976D01*
X188564742Y-76592688D01*
X188435288Y-76722142D01*
X188333576Y-76874364D01*
X188263516Y-77043504D01*
X188227800Y-77223062D01*
X169721200Y-77223062D01*
X169721200Y-75953062D01*
X190767800Y-75953062D01*
X190767800Y-76136138D01*
X190803516Y-76315696D01*
X190873576Y-76484836D01*
X190975288Y-76637058D01*
X191104742Y-76766512D01*
X191256964Y-76868224D01*
X191426104Y-76938284D01*
X191605662Y-76974000D01*
X191788738Y-76974000D01*
X191968296Y-76938284D01*
X192137436Y-76868224D01*
X192289658Y-76766512D01*
X192342209Y-76713961D01*
X207060800Y-76713961D01*
X207060800Y-76829039D01*
X207083250Y-76941905D01*
X207127288Y-77048223D01*
X207191222Y-77143906D01*
X207272594Y-77225278D01*
X207368277Y-77289212D01*
X207474595Y-77333250D01*
X207587461Y-77355700D01*
X207702539Y-77355700D01*
X207815405Y-77333250D01*
X207921723Y-77289212D01*
X208017406Y-77225278D01*
X208098778Y-77143906D01*
X208162712Y-77048223D01*
X208206750Y-76941905D01*
X208229200Y-76829039D01*
X208229200Y-76713961D01*
X208206750Y-76601095D01*
X208162712Y-76494777D01*
X208098778Y-76399094D01*
X208017406Y-76317722D01*
X207921723Y-76253788D01*
X207815405Y-76209750D01*
X207702539Y-76187300D01*
X207587461Y-76187300D01*
X207474595Y-76209750D01*
X207368277Y-76253788D01*
X207272594Y-76317722D01*
X207191222Y-76399094D01*
X207127288Y-76494777D01*
X207083250Y-76601095D01*
X207060800Y-76713961D01*
X192342209Y-76713961D01*
X192419112Y-76637058D01*
X192520824Y-76484836D01*
X192590884Y-76315696D01*
X192626600Y-76136138D01*
X192626600Y-75953062D01*
X192590884Y-75773504D01*
X192585896Y-75761461D01*
X205536800Y-75761461D01*
X205536800Y-75876539D01*
X205559250Y-75989405D01*
X205603288Y-76095723D01*
X205667222Y-76191406D01*
X205748594Y-76272778D01*
X205844277Y-76336712D01*
X205950595Y-76380750D01*
X206063461Y-76403200D01*
X206178539Y-76403200D01*
X206291405Y-76380750D01*
X206397723Y-76336712D01*
X206493406Y-76272778D01*
X206574778Y-76191406D01*
X206638712Y-76095723D01*
X206682750Y-75989405D01*
X206705200Y-75876539D01*
X206705200Y-75761461D01*
X206682750Y-75648595D01*
X206638712Y-75542277D01*
X206574778Y-75446594D01*
X206493406Y-75365222D01*
X206397723Y-75301288D01*
X206291405Y-75257250D01*
X206178539Y-75234800D01*
X206063461Y-75234800D01*
X205950595Y-75257250D01*
X205844277Y-75301288D01*
X205748594Y-75365222D01*
X205667222Y-75446594D01*
X205603288Y-75542277D01*
X205559250Y-75648595D01*
X205536800Y-75761461D01*
X192585896Y-75761461D01*
X192520824Y-75604364D01*
X192419112Y-75452142D01*
X192289658Y-75322688D01*
X192137436Y-75220976D01*
X191968296Y-75150916D01*
X191788738Y-75115200D01*
X191605662Y-75115200D01*
X191426104Y-75150916D01*
X191256964Y-75220976D01*
X191104742Y-75322688D01*
X190975288Y-75452142D01*
X190873576Y-75604364D01*
X190803516Y-75773504D01*
X190767800Y-75953062D01*
X169721200Y-75953062D01*
X169721200Y-74683062D01*
X188227800Y-74683062D01*
X188227800Y-74866138D01*
X188263516Y-75045696D01*
X188333576Y-75214836D01*
X188435288Y-75367058D01*
X188564742Y-75496512D01*
X188716964Y-75598224D01*
X188886104Y-75668284D01*
X189065662Y-75704000D01*
X189248738Y-75704000D01*
X189428296Y-75668284D01*
X189597436Y-75598224D01*
X189749658Y-75496512D01*
X189879112Y-75367058D01*
X189980824Y-75214836D01*
X190050884Y-75045696D01*
X190086600Y-74866138D01*
X190086600Y-74683062D01*
X190050884Y-74503504D01*
X189980824Y-74334364D01*
X189879112Y-74182142D01*
X189749658Y-74052688D01*
X189597436Y-73950976D01*
X189428296Y-73880916D01*
X189248738Y-73845200D01*
X189065662Y-73845200D01*
X188886104Y-73880916D01*
X188716964Y-73950976D01*
X188564742Y-74052688D01*
X188435288Y-74182142D01*
X188333576Y-74334364D01*
X188263516Y-74503504D01*
X188227800Y-74683062D01*
X169721200Y-74683062D01*
X169721200Y-73413062D01*
X190767800Y-73413062D01*
X190767800Y-73596138D01*
X190803516Y-73775696D01*
X190873576Y-73944836D01*
X190975288Y-74097058D01*
X191104742Y-74226512D01*
X191256964Y-74328224D01*
X191426104Y-74398284D01*
X191605662Y-74434000D01*
X191788738Y-74434000D01*
X191968296Y-74398284D01*
X192137436Y-74328224D01*
X192289658Y-74226512D01*
X192419112Y-74097058D01*
X192520824Y-73944836D01*
X192590884Y-73775696D01*
X192615237Y-73653261D01*
X205968600Y-73653261D01*
X205968600Y-73768339D01*
X205991050Y-73881205D01*
X206035088Y-73987523D01*
X206099022Y-74083206D01*
X206180394Y-74164578D01*
X206276077Y-74228512D01*
X206382395Y-74272550D01*
X206495261Y-74295000D01*
X206610339Y-74295000D01*
X206723205Y-74272550D01*
X206829523Y-74228512D01*
X206925206Y-74164578D01*
X207006578Y-74083206D01*
X207070512Y-73987523D01*
X207114550Y-73881205D01*
X207137000Y-73768339D01*
X207137000Y-73653261D01*
X207114550Y-73540395D01*
X207070512Y-73434077D01*
X207006578Y-73338394D01*
X206999462Y-73331278D01*
X216713525Y-73331278D01*
X216713525Y-73446356D01*
X216735975Y-73559222D01*
X216780013Y-73665540D01*
X216843947Y-73761223D01*
X216925319Y-73842595D01*
X217021002Y-73906529D01*
X217127320Y-73950567D01*
X217240186Y-73973017D01*
X217355264Y-73973017D01*
X217468130Y-73950567D01*
X217574448Y-73906529D01*
X217670131Y-73842595D01*
X217751503Y-73761223D01*
X217815437Y-73665540D01*
X217859475Y-73559222D01*
X217881925Y-73446356D01*
X217881925Y-73331278D01*
X217859475Y-73218412D01*
X217815437Y-73112094D01*
X217751503Y-73016411D01*
X217670131Y-72935039D01*
X217574448Y-72871105D01*
X217468130Y-72827067D01*
X217355264Y-72804617D01*
X217240186Y-72804617D01*
X217127320Y-72827067D01*
X217021002Y-72871105D01*
X216925319Y-72935039D01*
X216843947Y-73016411D01*
X216780013Y-73112094D01*
X216735975Y-73218412D01*
X216713525Y-73331278D01*
X206999462Y-73331278D01*
X206925206Y-73257022D01*
X206829523Y-73193088D01*
X206723205Y-73149050D01*
X206610339Y-73126600D01*
X206495261Y-73126600D01*
X206382395Y-73149050D01*
X206276077Y-73193088D01*
X206180394Y-73257022D01*
X206099022Y-73338394D01*
X206035088Y-73434077D01*
X205991050Y-73540395D01*
X205968600Y-73653261D01*
X192615237Y-73653261D01*
X192626600Y-73596138D01*
X192626600Y-73413062D01*
X192590884Y-73233504D01*
X192520824Y-73064364D01*
X192419112Y-72912142D01*
X192289658Y-72782688D01*
X192137436Y-72680976D01*
X191968296Y-72610916D01*
X191788738Y-72575200D01*
X191605662Y-72575200D01*
X191426104Y-72610916D01*
X191256964Y-72680976D01*
X191104742Y-72782688D01*
X190975288Y-72912142D01*
X190873576Y-73064364D01*
X190803516Y-73233504D01*
X190767800Y-73413062D01*
X169721200Y-73413062D01*
X169721200Y-72143062D01*
X188227800Y-72143062D01*
X188227800Y-72326138D01*
X188263516Y-72505696D01*
X188333576Y-72674836D01*
X188435288Y-72827058D01*
X188564742Y-72956512D01*
X188716964Y-73058224D01*
X188886104Y-73128284D01*
X189065662Y-73164000D01*
X189248738Y-73164000D01*
X189428296Y-73128284D01*
X189597436Y-73058224D01*
X189749658Y-72956512D01*
X189879112Y-72827058D01*
X189980824Y-72674836D01*
X190038472Y-72535661D01*
X208559400Y-72535661D01*
X208559400Y-72650739D01*
X208581850Y-72763605D01*
X208625888Y-72869923D01*
X208689822Y-72965606D01*
X208771194Y-73046978D01*
X208866877Y-73110912D01*
X208973195Y-73154950D01*
X209086061Y-73177400D01*
X209201139Y-73177400D01*
X209314005Y-73154950D01*
X209420323Y-73110912D01*
X209516006Y-73046978D01*
X209597378Y-72965606D01*
X209661312Y-72869923D01*
X209705350Y-72763605D01*
X209727800Y-72650739D01*
X209727800Y-72535661D01*
X209705350Y-72422795D01*
X209661312Y-72316477D01*
X209597378Y-72220794D01*
X209516006Y-72139422D01*
X209420323Y-72075488D01*
X209314005Y-72031450D01*
X209201139Y-72009000D01*
X209086061Y-72009000D01*
X208973195Y-72031450D01*
X208866877Y-72075488D01*
X208771194Y-72139422D01*
X208689822Y-72220794D01*
X208625888Y-72316477D01*
X208581850Y-72422795D01*
X208559400Y-72535661D01*
X190038472Y-72535661D01*
X190050884Y-72505696D01*
X190086600Y-72326138D01*
X190086600Y-72143062D01*
X190050884Y-71963504D01*
X189980824Y-71794364D01*
X189879112Y-71642142D01*
X189749658Y-71512688D01*
X189597436Y-71410976D01*
X189428296Y-71340916D01*
X189248738Y-71305200D01*
X189065662Y-71305200D01*
X188886104Y-71340916D01*
X188716964Y-71410976D01*
X188564742Y-71512688D01*
X188435288Y-71642142D01*
X188333576Y-71794364D01*
X188263516Y-71963504D01*
X188227800Y-72143062D01*
X169721200Y-72143062D01*
X169721200Y-70873062D01*
X190767800Y-70873062D01*
X190767800Y-71056138D01*
X190803516Y-71235696D01*
X190873576Y-71404836D01*
X190975288Y-71557058D01*
X191104742Y-71686512D01*
X191256964Y-71788224D01*
X191426104Y-71858284D01*
X191605662Y-71894000D01*
X191788738Y-71894000D01*
X191968296Y-71858284D01*
X192137436Y-71788224D01*
X192159230Y-71773661D01*
X213080600Y-71773661D01*
X213080600Y-71888739D01*
X213103050Y-72001605D01*
X213147088Y-72107923D01*
X213211022Y-72203606D01*
X213292394Y-72284978D01*
X213388077Y-72348912D01*
X213494395Y-72392950D01*
X213607261Y-72415400D01*
X213722339Y-72415400D01*
X213835205Y-72392950D01*
X213941523Y-72348912D01*
X214037206Y-72284978D01*
X214118578Y-72203606D01*
X214182512Y-72107923D01*
X214190577Y-72088450D01*
X223316800Y-72088450D01*
X223316800Y-72203528D01*
X223339250Y-72316394D01*
X223383288Y-72422712D01*
X223447222Y-72518395D01*
X223528594Y-72599767D01*
X223624277Y-72663701D01*
X223730595Y-72707739D01*
X223843461Y-72730189D01*
X223958539Y-72730189D01*
X224071405Y-72707739D01*
X224177723Y-72663701D01*
X224273406Y-72599767D01*
X224354778Y-72518395D01*
X224418712Y-72422712D01*
X224462750Y-72316394D01*
X224485200Y-72203528D01*
X224485200Y-72088450D01*
X224462750Y-71975584D01*
X224418712Y-71869266D01*
X224354778Y-71773583D01*
X224273406Y-71692211D01*
X224177723Y-71628277D01*
X224071405Y-71584239D01*
X223958539Y-71561789D01*
X223843461Y-71561789D01*
X223730595Y-71584239D01*
X223624277Y-71628277D01*
X223528594Y-71692211D01*
X223447222Y-71773583D01*
X223383288Y-71869266D01*
X223339250Y-71975584D01*
X223316800Y-72088450D01*
X214190577Y-72088450D01*
X214226550Y-72001605D01*
X214249000Y-71888739D01*
X214249000Y-71773661D01*
X214226550Y-71660795D01*
X214182512Y-71554477D01*
X214118578Y-71458794D01*
X214037206Y-71377422D01*
X213941523Y-71313488D01*
X213835205Y-71269450D01*
X213722339Y-71247000D01*
X213607261Y-71247000D01*
X213494395Y-71269450D01*
X213388077Y-71313488D01*
X213292394Y-71377422D01*
X213211022Y-71458794D01*
X213147088Y-71554477D01*
X213103050Y-71660795D01*
X213080600Y-71773661D01*
X192159230Y-71773661D01*
X192289658Y-71686512D01*
X192419112Y-71557058D01*
X192520824Y-71404836D01*
X192590884Y-71235696D01*
X192626600Y-71056138D01*
X192626600Y-71011647D01*
X198551800Y-71011647D01*
X198551800Y-71126725D01*
X198574250Y-71239591D01*
X198618288Y-71345909D01*
X198682222Y-71441592D01*
X198763594Y-71522964D01*
X198859277Y-71586898D01*
X198965595Y-71630936D01*
X199078461Y-71653386D01*
X199193539Y-71653386D01*
X199306405Y-71630936D01*
X199412723Y-71586898D01*
X199508406Y-71522964D01*
X199589778Y-71441592D01*
X199653712Y-71345909D01*
X199697750Y-71239591D01*
X199720200Y-71126725D01*
X199720200Y-71011647D01*
X199697750Y-70898781D01*
X199688454Y-70876338D01*
X220332181Y-70876338D01*
X220332181Y-70991416D01*
X220354631Y-71104282D01*
X220398669Y-71210600D01*
X220462603Y-71306283D01*
X220543975Y-71387655D01*
X220639658Y-71451589D01*
X220745976Y-71495627D01*
X220858842Y-71518077D01*
X220973920Y-71518077D01*
X221086786Y-71495627D01*
X221193104Y-71451589D01*
X221288787Y-71387655D01*
X221370159Y-71306283D01*
X221434093Y-71210600D01*
X221478131Y-71104282D01*
X221494569Y-71021640D01*
X224364106Y-71021640D01*
X224364106Y-71136718D01*
X224386556Y-71249584D01*
X224430594Y-71355902D01*
X224494528Y-71451585D01*
X224575900Y-71532957D01*
X224671583Y-71596891D01*
X224777901Y-71640929D01*
X224890767Y-71663379D01*
X225005845Y-71663379D01*
X225118711Y-71640929D01*
X225225029Y-71596891D01*
X225320712Y-71532957D01*
X225402084Y-71451585D01*
X225466018Y-71355902D01*
X225510056Y-71249584D01*
X225532506Y-71136718D01*
X225532506Y-71021640D01*
X225510056Y-70908774D01*
X225466018Y-70802456D01*
X225402084Y-70706773D01*
X225320712Y-70625401D01*
X225225029Y-70561467D01*
X225118711Y-70517429D01*
X225005845Y-70494979D01*
X224890767Y-70494979D01*
X224777901Y-70517429D01*
X224671583Y-70561467D01*
X224575900Y-70625401D01*
X224494528Y-70706773D01*
X224430594Y-70802456D01*
X224386556Y-70908774D01*
X224364106Y-71021640D01*
X221494569Y-71021640D01*
X221500581Y-70991416D01*
X221500581Y-70876338D01*
X221478131Y-70763472D01*
X221434093Y-70657154D01*
X221371706Y-70563785D01*
X221390927Y-70544564D01*
X221454861Y-70448881D01*
X221498899Y-70342563D01*
X221521349Y-70229697D01*
X221521349Y-70114619D01*
X221498899Y-70001753D01*
X221454861Y-69895435D01*
X221390927Y-69799752D01*
X221309555Y-69718380D01*
X221213872Y-69654446D01*
X221107554Y-69610408D01*
X220994688Y-69587958D01*
X220879610Y-69587958D01*
X220766744Y-69610408D01*
X220660426Y-69654446D01*
X220564743Y-69718380D01*
X220483371Y-69799752D01*
X220419437Y-69895435D01*
X220375399Y-70001753D01*
X220352949Y-70114619D01*
X220352949Y-70229697D01*
X220375399Y-70342563D01*
X220419437Y-70448881D01*
X220481824Y-70542250D01*
X220462603Y-70561471D01*
X220398669Y-70657154D01*
X220354631Y-70763472D01*
X220332181Y-70876338D01*
X199688454Y-70876338D01*
X199653712Y-70792463D01*
X199589778Y-70696780D01*
X199508406Y-70615408D01*
X199412723Y-70551474D01*
X199306405Y-70507436D01*
X199193539Y-70484986D01*
X199078461Y-70484986D01*
X198965595Y-70507436D01*
X198859277Y-70551474D01*
X198763594Y-70615408D01*
X198682222Y-70696780D01*
X198618288Y-70792463D01*
X198574250Y-70898781D01*
X198551800Y-71011647D01*
X192626600Y-71011647D01*
X192626600Y-70873062D01*
X192590884Y-70693504D01*
X192520824Y-70524364D01*
X192419112Y-70372142D01*
X192289658Y-70242688D01*
X192137436Y-70140976D01*
X191968296Y-70070916D01*
X191788738Y-70035200D01*
X191605662Y-70035200D01*
X191426104Y-70070916D01*
X191256964Y-70140976D01*
X191104742Y-70242688D01*
X190975288Y-70372142D01*
X190873576Y-70524364D01*
X190803516Y-70693504D01*
X190767800Y-70873062D01*
X169721200Y-70873062D01*
X169721200Y-69603062D01*
X188227800Y-69603062D01*
X188227800Y-69786138D01*
X188263516Y-69965696D01*
X188333576Y-70134836D01*
X188435288Y-70287058D01*
X188564742Y-70416512D01*
X188716964Y-70518224D01*
X188886104Y-70588284D01*
X189065662Y-70624000D01*
X189248738Y-70624000D01*
X189428296Y-70588284D01*
X189597436Y-70518224D01*
X189749658Y-70416512D01*
X189879112Y-70287058D01*
X189980824Y-70134836D01*
X190050884Y-69965696D01*
X190086600Y-69786138D01*
X190086600Y-69603062D01*
X190050884Y-69423504D01*
X190042952Y-69404353D01*
X190086205Y-69395750D01*
X190192523Y-69351712D01*
X190288206Y-69287778D01*
X190369578Y-69206406D01*
X190433512Y-69110723D01*
X190477550Y-69004405D01*
X190500000Y-68891539D01*
X190500000Y-68776461D01*
X190477550Y-68663595D01*
X190433512Y-68557277D01*
X190369578Y-68461594D01*
X190288206Y-68380222D01*
X190192523Y-68316288D01*
X190086205Y-68272250D01*
X189973339Y-68249800D01*
X189858261Y-68249800D01*
X189745395Y-68272250D01*
X189639077Y-68316288D01*
X189543394Y-68380222D01*
X189462022Y-68461594D01*
X189398088Y-68557277D01*
X189354050Y-68663595D01*
X189331600Y-68776461D01*
X189331600Y-68781682D01*
X189248738Y-68765200D01*
X189065662Y-68765200D01*
X188886104Y-68800916D01*
X188716964Y-68870976D01*
X188564742Y-68972688D01*
X188435288Y-69102142D01*
X188333576Y-69254364D01*
X188263516Y-69423504D01*
X188227800Y-69603062D01*
X169721200Y-69603062D01*
X169721200Y-67063062D01*
X188227800Y-67063062D01*
X188227800Y-67246138D01*
X188263516Y-67425696D01*
X188333576Y-67594836D01*
X188435288Y-67747058D01*
X188564742Y-67876512D01*
X188716964Y-67978224D01*
X188886104Y-68048284D01*
X189065662Y-68084000D01*
X189248738Y-68084000D01*
X189428296Y-68048284D01*
X189597436Y-67978224D01*
X189749658Y-67876512D01*
X189879112Y-67747058D01*
X189980824Y-67594836D01*
X190050884Y-67425696D01*
X190086600Y-67246138D01*
X190086600Y-67063062D01*
X190050884Y-66883504D01*
X189980824Y-66714364D01*
X189879112Y-66562142D01*
X189749658Y-66432688D01*
X189597436Y-66330976D01*
X189428296Y-66260916D01*
X189248738Y-66225200D01*
X189065662Y-66225200D01*
X188886104Y-66260916D01*
X188716964Y-66330976D01*
X188564742Y-66432688D01*
X188435288Y-66562142D01*
X188333576Y-66714364D01*
X188263516Y-66883504D01*
X188227800Y-67063062D01*
X169721200Y-67063062D01*
X169721200Y-65160285D01*
X186061400Y-65160285D01*
X186061400Y-65294115D01*
X186087509Y-65425374D01*
X186138724Y-65549016D01*
X186213076Y-65660292D01*
X186307708Y-65754924D01*
X186418984Y-65829276D01*
X186542626Y-65880491D01*
X186673885Y-65906600D01*
X186807715Y-65906600D01*
X186938974Y-65880491D01*
X187062616Y-65829276D01*
X187116814Y-65793062D01*
X190767800Y-65793062D01*
X190767800Y-65976138D01*
X190803516Y-66155696D01*
X190873576Y-66324836D01*
X190975288Y-66477058D01*
X191104742Y-66606512D01*
X191256964Y-66708224D01*
X191426104Y-66778284D01*
X191605662Y-66814000D01*
X191788738Y-66814000D01*
X191968296Y-66778284D01*
X192137436Y-66708224D01*
X192289658Y-66606512D01*
X192419112Y-66477058D01*
X192520824Y-66324836D01*
X192590884Y-66155696D01*
X192626600Y-65976138D01*
X192626600Y-65793062D01*
X192590884Y-65613504D01*
X192520824Y-65444364D01*
X192419112Y-65292142D01*
X192289658Y-65162688D01*
X192137436Y-65060976D01*
X191968296Y-64990916D01*
X191788738Y-64955200D01*
X191605662Y-64955200D01*
X191426104Y-64990916D01*
X191256964Y-65060976D01*
X191104742Y-65162688D01*
X190975288Y-65292142D01*
X190873576Y-65444364D01*
X190803516Y-65613504D01*
X190767800Y-65793062D01*
X187116814Y-65793062D01*
X187173892Y-65754924D01*
X187268524Y-65660292D01*
X187342876Y-65549016D01*
X187394091Y-65425374D01*
X187420200Y-65294115D01*
X187420200Y-65160285D01*
X187394091Y-65029026D01*
X187342876Y-64905384D01*
X187268524Y-64794108D01*
X187173892Y-64699476D01*
X187062616Y-64625124D01*
X186938974Y-64573909D01*
X186807715Y-64547800D01*
X186673885Y-64547800D01*
X186542626Y-64573909D01*
X186418984Y-64625124D01*
X186307708Y-64699476D01*
X186213076Y-64794108D01*
X186138724Y-64905384D01*
X186087509Y-65029026D01*
X186061400Y-65160285D01*
X169721200Y-65160285D01*
X169721200Y-63450865D01*
X177841960Y-63450865D01*
X177841960Y-63584695D01*
X177868069Y-63715954D01*
X177919284Y-63839596D01*
X177993636Y-63950872D01*
X178088268Y-64045504D01*
X178199544Y-64119856D01*
X178323186Y-64171071D01*
X178454445Y-64197180D01*
X178588275Y-64197180D01*
X178719534Y-64171071D01*
X178843176Y-64119856D01*
X178954452Y-64045504D01*
X179049084Y-63950872D01*
X179123436Y-63839596D01*
X179174651Y-63715954D01*
X179200760Y-63584695D01*
X179200760Y-63450865D01*
X179193687Y-63415305D01*
X181176980Y-63415305D01*
X181176980Y-63549135D01*
X181203089Y-63680394D01*
X181254304Y-63804036D01*
X181328656Y-63915312D01*
X181423288Y-64009944D01*
X181534564Y-64084296D01*
X181658206Y-64135511D01*
X181789465Y-64161620D01*
X181923295Y-64161620D01*
X182054554Y-64135511D01*
X182178196Y-64084296D01*
X182289472Y-64009944D01*
X182384104Y-63915312D01*
X182458456Y-63804036D01*
X182509671Y-63680394D01*
X182535780Y-63549135D01*
X182535780Y-63415305D01*
X183912560Y-63415305D01*
X183912560Y-63549135D01*
X183938669Y-63680394D01*
X183989884Y-63804036D01*
X184064236Y-63915312D01*
X184158868Y-64009944D01*
X184270144Y-64084296D01*
X184393786Y-64135511D01*
X184525045Y-64161620D01*
X184658875Y-64161620D01*
X184790134Y-64135511D01*
X184913776Y-64084296D01*
X185025052Y-64009944D01*
X185119684Y-63915312D01*
X185194036Y-63804036D01*
X185245251Y-63680394D01*
X185271360Y-63549135D01*
X185271360Y-63415305D01*
X186013140Y-63415305D01*
X186013140Y-63549135D01*
X186039249Y-63680394D01*
X186090464Y-63804036D01*
X186164816Y-63915312D01*
X186259448Y-64009944D01*
X186370724Y-64084296D01*
X186494366Y-64135511D01*
X186625625Y-64161620D01*
X186759455Y-64161620D01*
X186890714Y-64135511D01*
X187014356Y-64084296D01*
X187125632Y-64009944D01*
X187220264Y-63915312D01*
X187294616Y-63804036D01*
X187345831Y-63680394D01*
X187371940Y-63549135D01*
X187371940Y-63415305D01*
X187345831Y-63284046D01*
X187294616Y-63160404D01*
X187220264Y-63049128D01*
X187125632Y-62954496D01*
X187014356Y-62880144D01*
X186890714Y-62828929D01*
X186759455Y-62802820D01*
X186625625Y-62802820D01*
X186494366Y-62828929D01*
X186370724Y-62880144D01*
X186259448Y-62954496D01*
X186164816Y-63049128D01*
X186090464Y-63160404D01*
X186039249Y-63284046D01*
X186013140Y-63415305D01*
X185271360Y-63415305D01*
X185245251Y-63284046D01*
X185194036Y-63160404D01*
X185119684Y-63049128D01*
X185025052Y-62954496D01*
X184913776Y-62880144D01*
X184790134Y-62828929D01*
X184658875Y-62802820D01*
X184525045Y-62802820D01*
X184393786Y-62828929D01*
X184270144Y-62880144D01*
X184158868Y-62954496D01*
X184064236Y-63049128D01*
X183989884Y-63160404D01*
X183938669Y-63284046D01*
X183912560Y-63415305D01*
X182535780Y-63415305D01*
X182509671Y-63284046D01*
X182458456Y-63160404D01*
X182384104Y-63049128D01*
X182289472Y-62954496D01*
X182178196Y-62880144D01*
X182054554Y-62828929D01*
X181923295Y-62802820D01*
X181789465Y-62802820D01*
X181658206Y-62828929D01*
X181534564Y-62880144D01*
X181423288Y-62954496D01*
X181328656Y-63049128D01*
X181254304Y-63160404D01*
X181203089Y-63284046D01*
X181176980Y-63415305D01*
X179193687Y-63415305D01*
X179174651Y-63319606D01*
X179123436Y-63195964D01*
X179049084Y-63084688D01*
X178954452Y-62990056D01*
X178843176Y-62915704D01*
X178719534Y-62864489D01*
X178588275Y-62838380D01*
X178454445Y-62838380D01*
X178323186Y-62864489D01*
X178199544Y-62915704D01*
X178088268Y-62990056D01*
X177993636Y-63084688D01*
X177919284Y-63195964D01*
X177868069Y-63319606D01*
X177841960Y-63450865D01*
X169721200Y-63450865D01*
X169721200Y-55032740D01*
X226112401Y-70671899D01*
X226112401Y-70671899D01*
G37*
X226112401Y-70671899D02*
X226112400Y-95835800D01*
X169721200Y-95835800D01*
X169721200Y-93278862D01*
X211643200Y-93278862D01*
X211643200Y-93461938D01*
X211678916Y-93641496D01*
X211748976Y-93810636D01*
X211850688Y-93962858D01*
X211980142Y-94092312D01*
X212132364Y-94194024D01*
X212301504Y-94264084D01*
X212481062Y-94299800D01*
X212664138Y-94299800D01*
X212843696Y-94264084D01*
X213012836Y-94194024D01*
X213165058Y-94092312D01*
X213294512Y-93962858D01*
X213396224Y-93810636D01*
X213466284Y-93641496D01*
X213502000Y-93461938D01*
X213502000Y-93278862D01*
X214183200Y-93278862D01*
X214183200Y-93461938D01*
X214218916Y-93641496D01*
X214288976Y-93810636D01*
X214390688Y-93962858D01*
X214520142Y-94092312D01*
X214672364Y-94194024D01*
X214841504Y-94264084D01*
X215021062Y-94299800D01*
X215204138Y-94299800D01*
X215383696Y-94264084D01*
X215552836Y-94194024D01*
X215705058Y-94092312D01*
X215834512Y-93962858D01*
X215936224Y-93810636D01*
X216006284Y-93641496D01*
X216042000Y-93461938D01*
X216042000Y-93278862D01*
X216723200Y-93278862D01*
X216723200Y-93461938D01*
X216758916Y-93641496D01*
X216828976Y-93810636D01*
X216930688Y-93962858D01*
X217060142Y-94092312D01*
X217212364Y-94194024D01*
X217381504Y-94264084D01*
X217561062Y-94299800D01*
X217744138Y-94299800D01*
X217923696Y-94264084D01*
X218092836Y-94194024D01*
X218245058Y-94092312D01*
X218374512Y-93962858D01*
X218476224Y-93810636D01*
X218546284Y-93641496D01*
X218582000Y-93461938D01*
X218582000Y-93278862D01*
X219263200Y-93278862D01*
X219263200Y-93461938D01*
X219298916Y-93641496D01*
X219368976Y-93810636D01*
X219470688Y-93962858D01*
X219600142Y-94092312D01*
X219752364Y-94194024D01*
X219921504Y-94264084D01*
X220101062Y-94299800D01*
X220284138Y-94299800D01*
X220463696Y-94264084D01*
X220632836Y-94194024D01*
X220785058Y-94092312D01*
X220914512Y-93962858D01*
X221016224Y-93810636D01*
X221086284Y-93641496D01*
X221122000Y-93461938D01*
X221122000Y-93278862D01*
X221803200Y-93278862D01*
X221803200Y-93461938D01*
X221838916Y-93641496D01*
X221908976Y-93810636D01*
X222010688Y-93962858D01*
X222140142Y-94092312D01*
X222292364Y-94194024D01*
X222461504Y-94264084D01*
X222641062Y-94299800D01*
X222824138Y-94299800D01*
X223003696Y-94264084D01*
X223172836Y-94194024D01*
X223325058Y-94092312D01*
X223454512Y-93962858D01*
X223556224Y-93810636D01*
X223626284Y-93641496D01*
X223662000Y-93461938D01*
X223662000Y-93278862D01*
X223626284Y-93099304D01*
X223556224Y-92930164D01*
X223454512Y-92777942D01*
X223325058Y-92648488D01*
X223172836Y-92546776D01*
X223003696Y-92476716D01*
X222824138Y-92441000D01*
X222641062Y-92441000D01*
X222461504Y-92476716D01*
X222292364Y-92546776D01*
X222140142Y-92648488D01*
X222010688Y-92777942D01*
X221908976Y-92930164D01*
X221838916Y-93099304D01*
X221803200Y-93278862D01*
X221122000Y-93278862D01*
X221086284Y-93099304D01*
X221016224Y-92930164D01*
X220914512Y-92777942D01*
X220785058Y-92648488D01*
X220632836Y-92546776D01*
X220463696Y-92476716D01*
X220284138Y-92441000D01*
X220101062Y-92441000D01*
X219921504Y-92476716D01*
X219752364Y-92546776D01*
X219600142Y-92648488D01*
X219470688Y-92777942D01*
X219368976Y-92930164D01*
X219298916Y-93099304D01*
X219263200Y-93278862D01*
X218582000Y-93278862D01*
X218546284Y-93099304D01*
X218476224Y-92930164D01*
X218374512Y-92777942D01*
X218245058Y-92648488D01*
X218092836Y-92546776D01*
X217923696Y-92476716D01*
X217744138Y-92441000D01*
X217561062Y-92441000D01*
X217381504Y-92476716D01*
X217212364Y-92546776D01*
X217060142Y-92648488D01*
X216930688Y-92777942D01*
X216828976Y-92930164D01*
X216758916Y-93099304D01*
X216723200Y-93278862D01*
X216042000Y-93278862D01*
X216006284Y-93099304D01*
X215936224Y-92930164D01*
X215834512Y-92777942D01*
X215705058Y-92648488D01*
X215552836Y-92546776D01*
X215383696Y-92476716D01*
X215204138Y-92441000D01*
X215021062Y-92441000D01*
X214841504Y-92476716D01*
X214672364Y-92546776D01*
X214520142Y-92648488D01*
X214390688Y-92777942D01*
X214288976Y-92930164D01*
X214218916Y-93099304D01*
X214183200Y-93278862D01*
X213502000Y-93278862D01*
X213466284Y-93099304D01*
X213396224Y-92930164D01*
X213294512Y-92777942D01*
X213165058Y-92648488D01*
X213012836Y-92546776D01*
X212843696Y-92476716D01*
X212664138Y-92441000D01*
X212481062Y-92441000D01*
X212301504Y-92476716D01*
X212132364Y-92546776D01*
X211980142Y-92648488D01*
X211850688Y-92777942D01*
X211748976Y-92930164D01*
X211678916Y-93099304D01*
X211643200Y-93278862D01*
X169721200Y-93278862D01*
X169721200Y-92008669D01*
X169755724Y-92092016D01*
X169830076Y-92203292D01*
X169924708Y-92297924D01*
X170035984Y-92372276D01*
X170159626Y-92423491D01*
X170290885Y-92449600D01*
X170424715Y-92449600D01*
X170555974Y-92423491D01*
X170679616Y-92372276D01*
X170790892Y-92297924D01*
X170885524Y-92203292D01*
X170907254Y-92170771D01*
X170957836Y-92246472D01*
X171052468Y-92341104D01*
X171163744Y-92415456D01*
X171287386Y-92466671D01*
X171418645Y-92492780D01*
X171552475Y-92492780D01*
X171683734Y-92466671D01*
X171807376Y-92415456D01*
X171918652Y-92341104D01*
X172013284Y-92246472D01*
X172087636Y-92135196D01*
X172138851Y-92011554D01*
X172164960Y-91880295D01*
X172164960Y-91759165D01*
X173686520Y-91759165D01*
X173686520Y-91892995D01*
X173712629Y-92024254D01*
X173763844Y-92147896D01*
X173838196Y-92259172D01*
X173932828Y-92353804D01*
X174044104Y-92428156D01*
X174167746Y-92479371D01*
X174299005Y-92505480D01*
X174432835Y-92505480D01*
X174564094Y-92479371D01*
X174687736Y-92428156D01*
X174799012Y-92353804D01*
X174893644Y-92259172D01*
X174967996Y-92147896D01*
X175019211Y-92024254D01*
X175045320Y-91892995D01*
X175045320Y-91759165D01*
X175019211Y-91627906D01*
X174967996Y-91504264D01*
X174893644Y-91392988D01*
X174799012Y-91298356D01*
X174784397Y-91288590D01*
X189677800Y-91288590D01*
X189677800Y-91540610D01*
X189726967Y-91787787D01*
X189823411Y-92020623D01*
X189963425Y-92230170D01*
X190141630Y-92408375D01*
X190351177Y-92548389D01*
X190584013Y-92644833D01*
X190831190Y-92694000D01*
X191083210Y-92694000D01*
X191330387Y-92644833D01*
X191563223Y-92548389D01*
X191772770Y-92408375D01*
X191950975Y-92230170D01*
X192090989Y-92020623D01*
X192187433Y-91787787D01*
X192236600Y-91540610D01*
X192236600Y-91288590D01*
X192187433Y-91041413D01*
X192090989Y-90808577D01*
X192038346Y-90729790D01*
X196739000Y-90729790D01*
X196739000Y-90981810D01*
X196788167Y-91228987D01*
X196884611Y-91461823D01*
X197024625Y-91671370D01*
X197202830Y-91849575D01*
X197412377Y-91989589D01*
X197645213Y-92086033D01*
X197892390Y-92135200D01*
X198144410Y-92135200D01*
X198391587Y-92086033D01*
X198624423Y-91989589D01*
X198833970Y-91849575D01*
X198879283Y-91804262D01*
X199759000Y-91804262D01*
X199759000Y-91987338D01*
X199794716Y-92166896D01*
X199864776Y-92336036D01*
X199966488Y-92488258D01*
X200095942Y-92617712D01*
X200248164Y-92719424D01*
X200417304Y-92789484D01*
X200596862Y-92825200D01*
X200779938Y-92825200D01*
X200959496Y-92789484D01*
X201128636Y-92719424D01*
X201280858Y-92617712D01*
X201410312Y-92488258D01*
X201512024Y-92336036D01*
X201582084Y-92166896D01*
X201617800Y-91987338D01*
X201617800Y-91804262D01*
X202299000Y-91804262D01*
X202299000Y-91987338D01*
X202334716Y-92166896D01*
X202404776Y-92336036D01*
X202506488Y-92488258D01*
X202635942Y-92617712D01*
X202788164Y-92719424D01*
X202957304Y-92789484D01*
X203136862Y-92825200D01*
X203319938Y-92825200D01*
X203499496Y-92789484D01*
X203668636Y-92719424D01*
X203820858Y-92617712D01*
X203950312Y-92488258D01*
X204052024Y-92336036D01*
X204122084Y-92166896D01*
X204157800Y-91987338D01*
X204157800Y-91804262D01*
X204122084Y-91624704D01*
X204052024Y-91455564D01*
X203950312Y-91303342D01*
X203820858Y-91173888D01*
X203668636Y-91072176D01*
X203499496Y-91002116D01*
X203319938Y-90966400D01*
X203136862Y-90966400D01*
X202957304Y-91002116D01*
X202788164Y-91072176D01*
X202635942Y-91173888D01*
X202506488Y-91303342D01*
X202404776Y-91455564D01*
X202334716Y-91624704D01*
X202299000Y-91804262D01*
X201617800Y-91804262D01*
X201582084Y-91624704D01*
X201512024Y-91455564D01*
X201410312Y-91303342D01*
X201280858Y-91173888D01*
X201128636Y-91072176D01*
X200959496Y-91002116D01*
X200779938Y-90966400D01*
X200596862Y-90966400D01*
X200417304Y-91002116D01*
X200248164Y-91072176D01*
X200095942Y-91173888D01*
X199966488Y-91303342D01*
X199864776Y-91455564D01*
X199794716Y-91624704D01*
X199759000Y-91804262D01*
X198879283Y-91804262D01*
X199012175Y-91671370D01*
X199152189Y-91461823D01*
X199248633Y-91228987D01*
X199297800Y-90981810D01*
X199297800Y-90738862D01*
X210373200Y-90738862D01*
X210373200Y-90921938D01*
X210408916Y-91101496D01*
X210478976Y-91270636D01*
X210580688Y-91422858D01*
X210710142Y-91552312D01*
X210862364Y-91654024D01*
X211031504Y-91724084D01*
X211211062Y-91759800D01*
X211394138Y-91759800D01*
X211573696Y-91724084D01*
X211742836Y-91654024D01*
X211895058Y-91552312D01*
X212024512Y-91422858D01*
X212126224Y-91270636D01*
X212196284Y-91101496D01*
X212232000Y-90921938D01*
X212232000Y-90738862D01*
X212913200Y-90738862D01*
X212913200Y-90921938D01*
X212948916Y-91101496D01*
X213018976Y-91270636D01*
X213120688Y-91422858D01*
X213250142Y-91552312D01*
X213402364Y-91654024D01*
X213571504Y-91724084D01*
X213751062Y-91759800D01*
X213934138Y-91759800D01*
X214113696Y-91724084D01*
X214282836Y-91654024D01*
X214435058Y-91552312D01*
X214564512Y-91422858D01*
X214666224Y-91270636D01*
X214736284Y-91101496D01*
X214772000Y-90921938D01*
X214772000Y-90738862D01*
X215453200Y-90738862D01*
X215453200Y-90921938D01*
X215488916Y-91101496D01*
X215558976Y-91270636D01*
X215660688Y-91422858D01*
X215790142Y-91552312D01*
X215942364Y-91654024D01*
X216111504Y-91724084D01*
X216291062Y-91759800D01*
X216474138Y-91759800D01*
X216653696Y-91724084D01*
X216822836Y-91654024D01*
X216975058Y-91552312D01*
X217104512Y-91422858D01*
X217206224Y-91270636D01*
X217276284Y-91101496D01*
X217312000Y-90921938D01*
X217312000Y-90738862D01*
X217993200Y-90738862D01*
X217993200Y-90921938D01*
X218028916Y-91101496D01*
X218098976Y-91270636D01*
X218200688Y-91422858D01*
X218330142Y-91552312D01*
X218482364Y-91654024D01*
X218651504Y-91724084D01*
X218831062Y-91759800D01*
X219014138Y-91759800D01*
X219193696Y-91724084D01*
X219362836Y-91654024D01*
X219515058Y-91552312D01*
X219644512Y-91422858D01*
X219746224Y-91270636D01*
X219816284Y-91101496D01*
X219852000Y-90921938D01*
X219852000Y-90738862D01*
X220533200Y-90738862D01*
X220533200Y-90921938D01*
X220568916Y-91101496D01*
X220638976Y-91270636D01*
X220740688Y-91422858D01*
X220870142Y-91552312D01*
X221022364Y-91654024D01*
X221191504Y-91724084D01*
X221371062Y-91759800D01*
X221554138Y-91759800D01*
X221733696Y-91724084D01*
X221902836Y-91654024D01*
X222055058Y-91552312D01*
X222162980Y-91444390D01*
X222853200Y-91444390D01*
X222853200Y-91696410D01*
X222902367Y-91943587D01*
X222998811Y-92176423D01*
X223138825Y-92385970D01*
X223317030Y-92564175D01*
X223526577Y-92704189D01*
X223759413Y-92800633D01*
X224006590Y-92849800D01*
X224258610Y-92849800D01*
X224505787Y-92800633D01*
X224738623Y-92704189D01*
X224948170Y-92564175D01*
X225126375Y-92385970D01*
X225266389Y-92176423D01*
X225362833Y-91943587D01*
X225412000Y-91696410D01*
X225412000Y-91444390D01*
X225362833Y-91197213D01*
X225266389Y-90964377D01*
X225126375Y-90754830D01*
X224948170Y-90576625D01*
X224738623Y-90436611D01*
X224505787Y-90340167D01*
X224258610Y-90291000D01*
X224006590Y-90291000D01*
X223759413Y-90340167D01*
X223526577Y-90436611D01*
X223317030Y-90576625D01*
X223138825Y-90754830D01*
X222998811Y-90964377D01*
X222902367Y-91197213D01*
X222853200Y-91444390D01*
X222162980Y-91444390D01*
X222184512Y-91422858D01*
X222286224Y-91270636D01*
X222356284Y-91101496D01*
X222392000Y-90921938D01*
X222392000Y-90738862D01*
X222356284Y-90559304D01*
X222286224Y-90390164D01*
X222184512Y-90237942D01*
X222055058Y-90108488D01*
X221902836Y-90006776D01*
X221733696Y-89936716D01*
X221554138Y-89901000D01*
X221371062Y-89901000D01*
X221191504Y-89936716D01*
X221022364Y-90006776D01*
X220870142Y-90108488D01*
X220740688Y-90237942D01*
X220638976Y-90390164D01*
X220568916Y-90559304D01*
X220533200Y-90738862D01*
X219852000Y-90738862D01*
X219816284Y-90559304D01*
X219746224Y-90390164D01*
X219644512Y-90237942D01*
X219515058Y-90108488D01*
X219362836Y-90006776D01*
X219193696Y-89936716D01*
X219014138Y-89901000D01*
X218831062Y-89901000D01*
X218651504Y-89936716D01*
X218482364Y-90006776D01*
X218330142Y-90108488D01*
X218200688Y-90237942D01*
X218098976Y-90390164D01*
X218028916Y-90559304D01*
X217993200Y-90738862D01*
X217312000Y-90738862D01*
X217276284Y-90559304D01*
X217206224Y-90390164D01*
X217104512Y-90237942D01*
X216975058Y-90108488D01*
X216822836Y-90006776D01*
X216653696Y-89936716D01*
X216474138Y-89901000D01*
X216291062Y-89901000D01*
X216111504Y-89936716D01*
X215942364Y-90006776D01*
X215790142Y-90108488D01*
X215660688Y-90237942D01*
X215558976Y-90390164D01*
X215488916Y-90559304D01*
X215453200Y-90738862D01*
X214772000Y-90738862D01*
X214736284Y-90559304D01*
X214666224Y-90390164D01*
X214564512Y-90237942D01*
X214435058Y-90108488D01*
X214282836Y-90006776D01*
X214113696Y-89936716D01*
X213934138Y-89901000D01*
X213751062Y-89901000D01*
X213571504Y-89936716D01*
X213402364Y-90006776D01*
X213250142Y-90108488D01*
X213120688Y-90237942D01*
X213018976Y-90390164D01*
X212948916Y-90559304D01*
X212913200Y-90738862D01*
X212232000Y-90738862D01*
X212196284Y-90559304D01*
X212126224Y-90390164D01*
X212024512Y-90237942D01*
X211895058Y-90108488D01*
X211742836Y-90006776D01*
X211573696Y-89936716D01*
X211394138Y-89901000D01*
X211211062Y-89901000D01*
X211031504Y-89936716D01*
X210862364Y-90006776D01*
X210710142Y-90108488D01*
X210580688Y-90237942D01*
X210478976Y-90390164D01*
X210408916Y-90559304D01*
X210373200Y-90738862D01*
X199297800Y-90738862D01*
X199297800Y-90729790D01*
X199248633Y-90482613D01*
X199152495Y-90250517D01*
X199326862Y-90285200D01*
X199509938Y-90285200D01*
X199689496Y-90249484D01*
X199858636Y-90179424D01*
X200010858Y-90077712D01*
X200140312Y-89948258D01*
X200242024Y-89796036D01*
X200312084Y-89626896D01*
X200347800Y-89447338D01*
X200347800Y-89264262D01*
X200312084Y-89084704D01*
X200242024Y-88915564D01*
X200140312Y-88763342D01*
X200010858Y-88633888D01*
X199858636Y-88532176D01*
X199689496Y-88462116D01*
X199509938Y-88426400D01*
X199326862Y-88426400D01*
X199147304Y-88462116D01*
X198978164Y-88532176D01*
X198825942Y-88633888D01*
X198696488Y-88763342D01*
X198594776Y-88915564D01*
X198524716Y-89084704D01*
X198489000Y-89264262D01*
X198489000Y-89447338D01*
X198524716Y-89626896D01*
X198551623Y-89691856D01*
X198391587Y-89625567D01*
X198144410Y-89576400D01*
X197892390Y-89576400D01*
X197645213Y-89625567D01*
X197412377Y-89722011D01*
X197202830Y-89862025D01*
X197024625Y-90040230D01*
X196884611Y-90249777D01*
X196788167Y-90482613D01*
X196739000Y-90729790D01*
X192038346Y-90729790D01*
X191950975Y-90599030D01*
X191772770Y-90420825D01*
X191563223Y-90280811D01*
X191330387Y-90184367D01*
X191083210Y-90135200D01*
X190831190Y-90135200D01*
X190584013Y-90184367D01*
X190351177Y-90280811D01*
X190141630Y-90420825D01*
X189963425Y-90599030D01*
X189823411Y-90808577D01*
X189726967Y-91041413D01*
X189677800Y-91288590D01*
X174784397Y-91288590D01*
X174687736Y-91224004D01*
X174564094Y-91172789D01*
X174432835Y-91146680D01*
X174299005Y-91146680D01*
X174167746Y-91172789D01*
X174044104Y-91224004D01*
X173932828Y-91298356D01*
X173838196Y-91392988D01*
X173763844Y-91504264D01*
X173712629Y-91627906D01*
X173686520Y-91759165D01*
X172164960Y-91759165D01*
X172164960Y-91746465D01*
X172138851Y-91615206D01*
X172087636Y-91491564D01*
X172013284Y-91380288D01*
X171918652Y-91285656D01*
X171807376Y-91211304D01*
X171683734Y-91160089D01*
X171552475Y-91133980D01*
X171418645Y-91133980D01*
X171287386Y-91160089D01*
X171163744Y-91211304D01*
X171052468Y-91285656D01*
X170957836Y-91380288D01*
X170936106Y-91412809D01*
X170885524Y-91337108D01*
X170790892Y-91242476D01*
X170679616Y-91168124D01*
X170555974Y-91116909D01*
X170424715Y-91090800D01*
X170290885Y-91090800D01*
X170159626Y-91116909D01*
X170035984Y-91168124D01*
X169924708Y-91242476D01*
X169830076Y-91337108D01*
X169755724Y-91448384D01*
X169721200Y-91531731D01*
X169721200Y-89923062D01*
X188227800Y-89923062D01*
X188227800Y-90106138D01*
X188263516Y-90285696D01*
X188333576Y-90454836D01*
X188435288Y-90607058D01*
X188564742Y-90736512D01*
X188716964Y-90838224D01*
X188886104Y-90908284D01*
X189065662Y-90944000D01*
X189248738Y-90944000D01*
X189428296Y-90908284D01*
X189597436Y-90838224D01*
X189749658Y-90736512D01*
X189879112Y-90607058D01*
X189980824Y-90454836D01*
X190050884Y-90285696D01*
X190086600Y-90106138D01*
X190086600Y-89923062D01*
X190050884Y-89743504D01*
X189980824Y-89574364D01*
X189879112Y-89422142D01*
X189749658Y-89292688D01*
X189597436Y-89190976D01*
X189428296Y-89120916D01*
X189248738Y-89085200D01*
X189065662Y-89085200D01*
X188886104Y-89120916D01*
X188716964Y-89190976D01*
X188564742Y-89292688D01*
X188435288Y-89422142D01*
X188333576Y-89574364D01*
X188263516Y-89743504D01*
X188227800Y-89923062D01*
X169721200Y-89923062D01*
X169721200Y-88782869D01*
X169755724Y-88866216D01*
X169830076Y-88977492D01*
X169924708Y-89072124D01*
X170035984Y-89146476D01*
X170159626Y-89197691D01*
X170290885Y-89223800D01*
X170424715Y-89223800D01*
X170555974Y-89197691D01*
X170679616Y-89146476D01*
X170790892Y-89072124D01*
X170885524Y-88977492D01*
X170959876Y-88866216D01*
X171011091Y-88742574D01*
X171028896Y-88653062D01*
X190767800Y-88653062D01*
X190767800Y-88836138D01*
X190803516Y-89015696D01*
X190873576Y-89184836D01*
X190975288Y-89337058D01*
X191104742Y-89466512D01*
X191256964Y-89568224D01*
X191426104Y-89638284D01*
X191605662Y-89674000D01*
X191788738Y-89674000D01*
X191968296Y-89638284D01*
X192137436Y-89568224D01*
X192289658Y-89466512D01*
X192419112Y-89337058D01*
X192520824Y-89184836D01*
X192590884Y-89015696D01*
X192626600Y-88836138D01*
X192626600Y-88653062D01*
X192590884Y-88473504D01*
X192520824Y-88304364D01*
X192419112Y-88152142D01*
X192289658Y-88022688D01*
X192137436Y-87920976D01*
X191968296Y-87850916D01*
X191788738Y-87815200D01*
X191605662Y-87815200D01*
X191426104Y-87850916D01*
X191256964Y-87920976D01*
X191104742Y-88022688D01*
X190975288Y-88152142D01*
X190873576Y-88304364D01*
X190803516Y-88473504D01*
X190767800Y-88653062D01*
X171028896Y-88653062D01*
X171037200Y-88611315D01*
X171037200Y-88477485D01*
X171011091Y-88346226D01*
X170959876Y-88222584D01*
X170885524Y-88111308D01*
X170790892Y-88016676D01*
X170679616Y-87942324D01*
X170555974Y-87891109D01*
X170424715Y-87865000D01*
X170290885Y-87865000D01*
X170159626Y-87891109D01*
X170035984Y-87942324D01*
X169924708Y-88016676D01*
X169830076Y-88111308D01*
X169755724Y-88222584D01*
X169721200Y-88305931D01*
X169721200Y-87445461D01*
X199186800Y-87445461D01*
X199186800Y-87560539D01*
X199209250Y-87673405D01*
X199253288Y-87779723D01*
X199317222Y-87875406D01*
X199398594Y-87956778D01*
X199494277Y-88020712D01*
X199600595Y-88064750D01*
X199713461Y-88087200D01*
X199828539Y-88087200D01*
X199941405Y-88064750D01*
X200047723Y-88020712D01*
X200143406Y-87956778D01*
X200224778Y-87875406D01*
X200229701Y-87868038D01*
X219011697Y-87868038D01*
X219011697Y-87983116D01*
X219034147Y-88095982D01*
X219078185Y-88202300D01*
X219142119Y-88297983D01*
X219223491Y-88379355D01*
X219319174Y-88443289D01*
X219425492Y-88487327D01*
X219538358Y-88509777D01*
X219653436Y-88509777D01*
X219766302Y-88487327D01*
X219872620Y-88443289D01*
X219968303Y-88379355D01*
X220049675Y-88297983D01*
X220113609Y-88202300D01*
X220157647Y-88095982D01*
X220180097Y-87983116D01*
X220180097Y-87868038D01*
X220157647Y-87755172D01*
X220113609Y-87648854D01*
X220049675Y-87553171D01*
X219968303Y-87471799D01*
X219872620Y-87407865D01*
X219766302Y-87363827D01*
X219653436Y-87341377D01*
X219538358Y-87341377D01*
X219425492Y-87363827D01*
X219319174Y-87407865D01*
X219223491Y-87471799D01*
X219142119Y-87553171D01*
X219078185Y-87648854D01*
X219034147Y-87755172D01*
X219011697Y-87868038D01*
X200229701Y-87868038D01*
X200288712Y-87779723D01*
X200332750Y-87673405D01*
X200355200Y-87560539D01*
X200355200Y-87445461D01*
X200332750Y-87332595D01*
X200288712Y-87226277D01*
X200224778Y-87130594D01*
X200143406Y-87049222D01*
X200047723Y-86985288D01*
X199941405Y-86941250D01*
X199828539Y-86918800D01*
X199713461Y-86918800D01*
X199600595Y-86941250D01*
X199494277Y-86985288D01*
X199398594Y-87049222D01*
X199317222Y-87130594D01*
X199253288Y-87226277D01*
X199209250Y-87332595D01*
X199186800Y-87445461D01*
X169721200Y-87445461D01*
X169721200Y-85836469D01*
X169755724Y-85919816D01*
X169830076Y-86031092D01*
X169924708Y-86125724D01*
X170035984Y-86200076D01*
X170159626Y-86251291D01*
X170290885Y-86277400D01*
X170424715Y-86277400D01*
X170555974Y-86251291D01*
X170679616Y-86200076D01*
X170790892Y-86125724D01*
X170803554Y-86113062D01*
X190767800Y-86113062D01*
X190767800Y-86296138D01*
X190803516Y-86475696D01*
X190873576Y-86644836D01*
X190975288Y-86797058D01*
X191104742Y-86926512D01*
X191256964Y-87028224D01*
X191426104Y-87098284D01*
X191605662Y-87134000D01*
X191788738Y-87134000D01*
X191968296Y-87098284D01*
X192137436Y-87028224D01*
X192289658Y-86926512D01*
X192419112Y-86797058D01*
X192520824Y-86644836D01*
X192590884Y-86475696D01*
X192626600Y-86296138D01*
X192626600Y-86113062D01*
X192613751Y-86048461D01*
X193167000Y-86048461D01*
X193167000Y-86163539D01*
X193189450Y-86276405D01*
X193233488Y-86382723D01*
X193297422Y-86478406D01*
X193378794Y-86559778D01*
X193474477Y-86623712D01*
X193580795Y-86667750D01*
X193693661Y-86690200D01*
X193808739Y-86690200D01*
X193921605Y-86667750D01*
X194027923Y-86623712D01*
X194123606Y-86559778D01*
X194204978Y-86478406D01*
X194268912Y-86382723D01*
X194312950Y-86276405D01*
X194335400Y-86163539D01*
X194335400Y-86048461D01*
X194312950Y-85935595D01*
X194268912Y-85829277D01*
X194204978Y-85733594D01*
X194123606Y-85652222D01*
X194027923Y-85588288D01*
X193921605Y-85544250D01*
X193808739Y-85521800D01*
X193693661Y-85521800D01*
X193580795Y-85544250D01*
X193474477Y-85588288D01*
X193378794Y-85652222D01*
X193297422Y-85733594D01*
X193233488Y-85829277D01*
X193189450Y-85935595D01*
X193167000Y-86048461D01*
X192613751Y-86048461D01*
X192590884Y-85933504D01*
X192520824Y-85764364D01*
X192419112Y-85612142D01*
X192289658Y-85482688D01*
X192137436Y-85380976D01*
X191968296Y-85310916D01*
X191788738Y-85275200D01*
X191605662Y-85275200D01*
X191426104Y-85310916D01*
X191256964Y-85380976D01*
X191104742Y-85482688D01*
X190975288Y-85612142D01*
X190873576Y-85764364D01*
X190803516Y-85933504D01*
X190767800Y-86113062D01*
X170803554Y-86113062D01*
X170885524Y-86031092D01*
X170959876Y-85919816D01*
X171011091Y-85796174D01*
X171037200Y-85664915D01*
X171037200Y-85531085D01*
X171011091Y-85399826D01*
X170959876Y-85276184D01*
X170885524Y-85164908D01*
X170790892Y-85070276D01*
X170679616Y-84995924D01*
X170555974Y-84944709D01*
X170424715Y-84918600D01*
X170290885Y-84918600D01*
X170159626Y-84944709D01*
X170035984Y-84995924D01*
X169924708Y-85070276D01*
X169830076Y-85164908D01*
X169755724Y-85276184D01*
X169721200Y-85359531D01*
X169721200Y-84843062D01*
X188227800Y-84843062D01*
X188227800Y-85026138D01*
X188263516Y-85205696D01*
X188333576Y-85374836D01*
X188435288Y-85527058D01*
X188564742Y-85656512D01*
X188716964Y-85758224D01*
X188886104Y-85828284D01*
X189065662Y-85864000D01*
X189248738Y-85864000D01*
X189428296Y-85828284D01*
X189597436Y-85758224D01*
X189749658Y-85656512D01*
X189879112Y-85527058D01*
X189980824Y-85374836D01*
X190050884Y-85205696D01*
X190086600Y-85026138D01*
X190086600Y-84898000D01*
X196885249Y-84898000D01*
X196885249Y-86298000D01*
X196890644Y-86352772D01*
X196906620Y-86405439D01*
X196932564Y-86453977D01*
X196967479Y-86496521D01*
X197010023Y-86531436D01*
X197058561Y-86557380D01*
X197111228Y-86573356D01*
X197166000Y-86578751D01*
X198566000Y-86578751D01*
X198620772Y-86573356D01*
X198673439Y-86557380D01*
X198721977Y-86531436D01*
X198764521Y-86496521D01*
X198799436Y-86453977D01*
X198825380Y-86405439D01*
X198841356Y-86352772D01*
X198846751Y-86298000D01*
X198846751Y-84898000D01*
X202981249Y-84898000D01*
X202981249Y-86298000D01*
X202986644Y-86352772D01*
X203002620Y-86405439D01*
X203028564Y-86453977D01*
X203063479Y-86496521D01*
X203106023Y-86531436D01*
X203154561Y-86557380D01*
X203207228Y-86573356D01*
X203262000Y-86578751D01*
X204662000Y-86578751D01*
X204716772Y-86573356D01*
X204769439Y-86557380D01*
X204817977Y-86531436D01*
X204860521Y-86496521D01*
X204895436Y-86453977D01*
X204921380Y-86405439D01*
X204937356Y-86352772D01*
X204942751Y-86298000D01*
X204942751Y-85049658D01*
X207135135Y-85049658D01*
X207135135Y-85164736D01*
X207157585Y-85277602D01*
X207201623Y-85383920D01*
X207265557Y-85479603D01*
X207346929Y-85560975D01*
X207442612Y-85624909D01*
X207548930Y-85668947D01*
X207661796Y-85691397D01*
X207776874Y-85691397D01*
X207889740Y-85668947D01*
X207996058Y-85624909D01*
X208091741Y-85560975D01*
X208173113Y-85479603D01*
X208237047Y-85383920D01*
X208281085Y-85277602D01*
X208303535Y-85164736D01*
X208303535Y-85049658D01*
X208281085Y-84936792D01*
X208237047Y-84830474D01*
X208173113Y-84734791D01*
X208091741Y-84653419D01*
X207996058Y-84589485D01*
X207889740Y-84545447D01*
X207776874Y-84522997D01*
X207661796Y-84522997D01*
X207548930Y-84545447D01*
X207442612Y-84589485D01*
X207346929Y-84653419D01*
X207265557Y-84734791D01*
X207201623Y-84830474D01*
X207157585Y-84936792D01*
X207135135Y-85049658D01*
X204942751Y-85049658D01*
X204942751Y-84898000D01*
X204937356Y-84843228D01*
X204921380Y-84790561D01*
X204895436Y-84742023D01*
X204860521Y-84699479D01*
X204817977Y-84664564D01*
X204769439Y-84638620D01*
X204716772Y-84622644D01*
X204662000Y-84617249D01*
X203262000Y-84617249D01*
X203207228Y-84622644D01*
X203154561Y-84638620D01*
X203106023Y-84664564D01*
X203063479Y-84699479D01*
X203028564Y-84742023D01*
X203002620Y-84790561D01*
X202986644Y-84843228D01*
X202981249Y-84898000D01*
X198846751Y-84898000D01*
X198841356Y-84843228D01*
X198825380Y-84790561D01*
X198799436Y-84742023D01*
X198764521Y-84699479D01*
X198721977Y-84664564D01*
X198673439Y-84638620D01*
X198620772Y-84622644D01*
X198566000Y-84617249D01*
X197166000Y-84617249D01*
X197111228Y-84622644D01*
X197058561Y-84638620D01*
X197010023Y-84664564D01*
X196967479Y-84699479D01*
X196932564Y-84742023D01*
X196906620Y-84790561D01*
X196890644Y-84843228D01*
X196885249Y-84898000D01*
X190086600Y-84898000D01*
X190086600Y-84843062D01*
X190050884Y-84663504D01*
X189980824Y-84494364D01*
X189879112Y-84342142D01*
X189749658Y-84212688D01*
X189597436Y-84110976D01*
X189428296Y-84040916D01*
X189248738Y-84005200D01*
X189065662Y-84005200D01*
X188886104Y-84040916D01*
X188716964Y-84110976D01*
X188564742Y-84212688D01*
X188435288Y-84342142D01*
X188333576Y-84494364D01*
X188263516Y-84663504D01*
X188227800Y-84843062D01*
X169721200Y-84843062D01*
X169721200Y-83573062D01*
X190767800Y-83573062D01*
X190767800Y-83756138D01*
X190803516Y-83935696D01*
X190873576Y-84104836D01*
X190975288Y-84257058D01*
X191104742Y-84386512D01*
X191256964Y-84488224D01*
X191426104Y-84558284D01*
X191605662Y-84594000D01*
X191788738Y-84594000D01*
X191968296Y-84558284D01*
X192137436Y-84488224D01*
X192289658Y-84386512D01*
X192419112Y-84257058D01*
X192520824Y-84104836D01*
X192557430Y-84016461D01*
X193065400Y-84016461D01*
X193065400Y-84131539D01*
X193087850Y-84244405D01*
X193131888Y-84350723D01*
X193195822Y-84446406D01*
X193277194Y-84527778D01*
X193372877Y-84591712D01*
X193479195Y-84635750D01*
X193592061Y-84658200D01*
X193707139Y-84658200D01*
X193820005Y-84635750D01*
X193926323Y-84591712D01*
X194022006Y-84527778D01*
X194103378Y-84446406D01*
X194167312Y-84350723D01*
X194211350Y-84244405D01*
X194233800Y-84131539D01*
X194233800Y-84016461D01*
X194211350Y-83903595D01*
X194167312Y-83797277D01*
X194103378Y-83701594D01*
X194022006Y-83620222D01*
X193926323Y-83556288D01*
X193820005Y-83512250D01*
X193707139Y-83489800D01*
X193592061Y-83489800D01*
X193479195Y-83512250D01*
X193372877Y-83556288D01*
X193277194Y-83620222D01*
X193195822Y-83701594D01*
X193131888Y-83797277D01*
X193087850Y-83903595D01*
X193065400Y-84016461D01*
X192557430Y-84016461D01*
X192590884Y-83935696D01*
X192626600Y-83756138D01*
X192626600Y-83573062D01*
X192590884Y-83393504D01*
X192520824Y-83224364D01*
X192419112Y-83072142D01*
X192308508Y-82961538D01*
X194346600Y-82961538D01*
X194346600Y-83154462D01*
X194384238Y-83343680D01*
X194458067Y-83521920D01*
X194565250Y-83682331D01*
X194701669Y-83818750D01*
X194862080Y-83925933D01*
X195040320Y-83999762D01*
X195229538Y-84037400D01*
X195422462Y-84037400D01*
X195611680Y-83999762D01*
X195789920Y-83925933D01*
X195950331Y-83818750D01*
X196086750Y-83682331D01*
X196193933Y-83521920D01*
X196267762Y-83343680D01*
X196305400Y-83154462D01*
X196305400Y-82961538D01*
X196886600Y-82961538D01*
X196886600Y-83154462D01*
X196924238Y-83343680D01*
X196998067Y-83521920D01*
X197105250Y-83682331D01*
X197241669Y-83818750D01*
X197402080Y-83925933D01*
X197580320Y-83999762D01*
X197769538Y-84037400D01*
X197962462Y-84037400D01*
X198151680Y-83999762D01*
X198329920Y-83925933D01*
X198490331Y-83818750D01*
X198626750Y-83682331D01*
X198733933Y-83521920D01*
X198807762Y-83343680D01*
X198845400Y-83154462D01*
X198845400Y-82961538D01*
X200442600Y-82961538D01*
X200442600Y-83154462D01*
X200480238Y-83343680D01*
X200554067Y-83521920D01*
X200661250Y-83682331D01*
X200797669Y-83818750D01*
X200958080Y-83925933D01*
X201136320Y-83999762D01*
X201325538Y-84037400D01*
X201518462Y-84037400D01*
X201707680Y-83999762D01*
X201885920Y-83925933D01*
X202046331Y-83818750D01*
X202182750Y-83682331D01*
X202289933Y-83521920D01*
X202363762Y-83343680D01*
X202401400Y-83154462D01*
X202401400Y-82961538D01*
X202982600Y-82961538D01*
X202982600Y-83154462D01*
X203020238Y-83343680D01*
X203094067Y-83521920D01*
X203201250Y-83682331D01*
X203337669Y-83818750D01*
X203498080Y-83925933D01*
X203676320Y-83999762D01*
X203865538Y-84037400D01*
X204058462Y-84037400D01*
X204163728Y-84016461D01*
X204901800Y-84016461D01*
X204901800Y-84131539D01*
X204924250Y-84244405D01*
X204968288Y-84350723D01*
X205032222Y-84446406D01*
X205113594Y-84527778D01*
X205209277Y-84591712D01*
X205315595Y-84635750D01*
X205428461Y-84658200D01*
X205543539Y-84658200D01*
X205656405Y-84635750D01*
X205762723Y-84591712D01*
X205858406Y-84527778D01*
X205939778Y-84446406D01*
X206003712Y-84350723D01*
X206047750Y-84244405D01*
X206070200Y-84131539D01*
X206070200Y-84016461D01*
X208076808Y-84016461D01*
X208076808Y-84131539D01*
X208099258Y-84244405D01*
X208143296Y-84350723D01*
X208207230Y-84446406D01*
X208288602Y-84527778D01*
X208384285Y-84591712D01*
X208490603Y-84635750D01*
X208603469Y-84658200D01*
X208718547Y-84658200D01*
X208831413Y-84635750D01*
X208937731Y-84591712D01*
X208998760Y-84550933D01*
X210059864Y-84550933D01*
X210059864Y-84666011D01*
X210082314Y-84778877D01*
X210126352Y-84885195D01*
X210190286Y-84980878D01*
X210271658Y-85062250D01*
X210367341Y-85126184D01*
X210473659Y-85170222D01*
X210586525Y-85192672D01*
X210701603Y-85192672D01*
X210814469Y-85170222D01*
X210920787Y-85126184D01*
X211016470Y-85062250D01*
X211097842Y-84980878D01*
X211161776Y-84885195D01*
X211205814Y-84778877D01*
X211228264Y-84666011D01*
X211228264Y-84651461D01*
X216141300Y-84651461D01*
X216141300Y-84766539D01*
X216163750Y-84879405D01*
X216207788Y-84985723D01*
X216271722Y-85081406D01*
X216353094Y-85162778D01*
X216448777Y-85226712D01*
X216555095Y-85270750D01*
X216667961Y-85293200D01*
X216783039Y-85293200D01*
X216895905Y-85270750D01*
X217002223Y-85226712D01*
X217097906Y-85162778D01*
X217179278Y-85081406D01*
X217243212Y-84985723D01*
X217287250Y-84879405D01*
X217309700Y-84766539D01*
X217309700Y-84651461D01*
X217287250Y-84538595D01*
X217243212Y-84432277D01*
X217196562Y-84362460D01*
X222377000Y-84362460D01*
X222377000Y-84477538D01*
X222399450Y-84590404D01*
X222443488Y-84696722D01*
X222507422Y-84792405D01*
X222588794Y-84873777D01*
X222684477Y-84937711D01*
X222790795Y-84981749D01*
X222903661Y-85004199D01*
X223018739Y-85004199D01*
X223131605Y-84981749D01*
X223237923Y-84937711D01*
X223333606Y-84873777D01*
X223414978Y-84792405D01*
X223478912Y-84696722D01*
X223522950Y-84590404D01*
X223537091Y-84519311D01*
X223580517Y-84624152D01*
X223644451Y-84719835D01*
X223725823Y-84801207D01*
X223821506Y-84865141D01*
X223927824Y-84909179D01*
X224040690Y-84931629D01*
X224155768Y-84931629D01*
X224268634Y-84909179D01*
X224374952Y-84865141D01*
X224470635Y-84801207D01*
X224552007Y-84719835D01*
X224615941Y-84624152D01*
X224659979Y-84517834D01*
X224682429Y-84404968D01*
X224682429Y-84289890D01*
X224659979Y-84177024D01*
X224615941Y-84070706D01*
X224552007Y-83975023D01*
X224470635Y-83893651D01*
X224374952Y-83829717D01*
X224268634Y-83785679D01*
X224155768Y-83763229D01*
X224040690Y-83763229D01*
X223927824Y-83785679D01*
X223821506Y-83829717D01*
X223725823Y-83893651D01*
X223644451Y-83975023D01*
X223580517Y-84070706D01*
X223536479Y-84177024D01*
X223522338Y-84248117D01*
X223478912Y-84143276D01*
X223414978Y-84047593D01*
X223333606Y-83966221D01*
X223237923Y-83902287D01*
X223131605Y-83858249D01*
X223018739Y-83835799D01*
X222903661Y-83835799D01*
X222790795Y-83858249D01*
X222684477Y-83902287D01*
X222588794Y-83966221D01*
X222507422Y-84047593D01*
X222443488Y-84143276D01*
X222399450Y-84249594D01*
X222377000Y-84362460D01*
X217196562Y-84362460D01*
X217179278Y-84336594D01*
X217097906Y-84255222D01*
X217002223Y-84191288D01*
X216895905Y-84147250D01*
X216783039Y-84124800D01*
X216667961Y-84124800D01*
X216555095Y-84147250D01*
X216448777Y-84191288D01*
X216353094Y-84255222D01*
X216271722Y-84336594D01*
X216207788Y-84432277D01*
X216163750Y-84538595D01*
X216141300Y-84651461D01*
X211228264Y-84651461D01*
X211228264Y-84550933D01*
X211205814Y-84438067D01*
X211161776Y-84331749D01*
X211097842Y-84236066D01*
X211016470Y-84154694D01*
X210920787Y-84090760D01*
X210814469Y-84046722D01*
X210701603Y-84024272D01*
X210586525Y-84024272D01*
X210473659Y-84046722D01*
X210367341Y-84090760D01*
X210271658Y-84154694D01*
X210190286Y-84236066D01*
X210126352Y-84331749D01*
X210082314Y-84438067D01*
X210059864Y-84550933D01*
X208998760Y-84550933D01*
X209033414Y-84527778D01*
X209114786Y-84446406D01*
X209178720Y-84350723D01*
X209222758Y-84244405D01*
X209245208Y-84131539D01*
X209245208Y-84016461D01*
X209222758Y-83903595D01*
X209178720Y-83797277D01*
X209114786Y-83701594D01*
X209033414Y-83620222D01*
X208937731Y-83556288D01*
X208831413Y-83512250D01*
X208718547Y-83489800D01*
X208603469Y-83489800D01*
X208490603Y-83512250D01*
X208384285Y-83556288D01*
X208288602Y-83620222D01*
X208207230Y-83701594D01*
X208143296Y-83797277D01*
X208099258Y-83903595D01*
X208076808Y-84016461D01*
X206070200Y-84016461D01*
X206047750Y-83903595D01*
X206003712Y-83797277D01*
X205939778Y-83701594D01*
X205858406Y-83620222D01*
X205762723Y-83556288D01*
X205656405Y-83512250D01*
X205543539Y-83489800D01*
X205428461Y-83489800D01*
X205315595Y-83512250D01*
X205209277Y-83556288D01*
X205113594Y-83620222D01*
X205032222Y-83701594D01*
X204968288Y-83797277D01*
X204924250Y-83903595D01*
X204901800Y-84016461D01*
X204163728Y-84016461D01*
X204247680Y-83999762D01*
X204425920Y-83925933D01*
X204586331Y-83818750D01*
X204722750Y-83682331D01*
X204829933Y-83521920D01*
X204903762Y-83343680D01*
X204941400Y-83154462D01*
X204941400Y-82961538D01*
X204903762Y-82772320D01*
X204829933Y-82594080D01*
X204722750Y-82433669D01*
X204586331Y-82297250D01*
X204425920Y-82190067D01*
X204247680Y-82116238D01*
X204058462Y-82078600D01*
X203865538Y-82078600D01*
X203676320Y-82116238D01*
X203498080Y-82190067D01*
X203337669Y-82297250D01*
X203201250Y-82433669D01*
X203094067Y-82594080D01*
X203020238Y-82772320D01*
X202982600Y-82961538D01*
X202401400Y-82961538D01*
X202363762Y-82772320D01*
X202289933Y-82594080D01*
X202182750Y-82433669D01*
X202046331Y-82297250D01*
X201885920Y-82190067D01*
X201707680Y-82116238D01*
X201518462Y-82078600D01*
X201325538Y-82078600D01*
X201136320Y-82116238D01*
X200958080Y-82190067D01*
X200797669Y-82297250D01*
X200661250Y-82433669D01*
X200554067Y-82594080D01*
X200480238Y-82772320D01*
X200442600Y-82961538D01*
X198845400Y-82961538D01*
X198807762Y-82772320D01*
X198733933Y-82594080D01*
X198626750Y-82433669D01*
X198490331Y-82297250D01*
X198329920Y-82190067D01*
X198151680Y-82116238D01*
X197962462Y-82078600D01*
X197769538Y-82078600D01*
X197580320Y-82116238D01*
X197402080Y-82190067D01*
X197241669Y-82297250D01*
X197105250Y-82433669D01*
X196998067Y-82594080D01*
X196924238Y-82772320D01*
X196886600Y-82961538D01*
X196305400Y-82961538D01*
X196267762Y-82772320D01*
X196193933Y-82594080D01*
X196086750Y-82433669D01*
X195950331Y-82297250D01*
X195789920Y-82190067D01*
X195611680Y-82116238D01*
X195422462Y-82078600D01*
X195229538Y-82078600D01*
X195040320Y-82116238D01*
X194862080Y-82190067D01*
X194701669Y-82297250D01*
X194565250Y-82433669D01*
X194458067Y-82594080D01*
X194384238Y-82772320D01*
X194346600Y-82961538D01*
X192308508Y-82961538D01*
X192289658Y-82942688D01*
X192137436Y-82840976D01*
X191968296Y-82770916D01*
X191788738Y-82735200D01*
X191605662Y-82735200D01*
X191426104Y-82770916D01*
X191256964Y-82840976D01*
X191104742Y-82942688D01*
X190975288Y-83072142D01*
X190873576Y-83224364D01*
X190803516Y-83393504D01*
X190767800Y-83573062D01*
X169721200Y-83573062D01*
X169721200Y-83218583D01*
X169728476Y-83229472D01*
X169823108Y-83324104D01*
X169934384Y-83398456D01*
X170058026Y-83449671D01*
X170189285Y-83475780D01*
X170323115Y-83475780D01*
X170454374Y-83449671D01*
X170578016Y-83398456D01*
X170689292Y-83324104D01*
X170783924Y-83229472D01*
X170858276Y-83118196D01*
X170909491Y-82994554D01*
X170935600Y-82863295D01*
X170935600Y-82729465D01*
X170909491Y-82598206D01*
X170858276Y-82474564D01*
X170783924Y-82363288D01*
X170723698Y-82303062D01*
X188227800Y-82303062D01*
X188227800Y-82486138D01*
X188263516Y-82665696D01*
X188333576Y-82834836D01*
X188435288Y-82987058D01*
X188564742Y-83116512D01*
X188716964Y-83218224D01*
X188886104Y-83288284D01*
X189065662Y-83324000D01*
X189248738Y-83324000D01*
X189428296Y-83288284D01*
X189597436Y-83218224D01*
X189749658Y-83116512D01*
X189879112Y-82987058D01*
X189980824Y-82834836D01*
X190050884Y-82665696D01*
X190086600Y-82486138D01*
X190086600Y-82303062D01*
X190050884Y-82123504D01*
X189980824Y-81954364D01*
X189879112Y-81802142D01*
X189749658Y-81672688D01*
X189597436Y-81570976D01*
X189428296Y-81500916D01*
X189248738Y-81465200D01*
X189065662Y-81465200D01*
X188886104Y-81500916D01*
X188716964Y-81570976D01*
X188564742Y-81672688D01*
X188435288Y-81802142D01*
X188333576Y-81954364D01*
X188263516Y-82123504D01*
X188227800Y-82303062D01*
X170723698Y-82303062D01*
X170689292Y-82268656D01*
X170578016Y-82194304D01*
X170454374Y-82143089D01*
X170323115Y-82116980D01*
X170189285Y-82116980D01*
X170058026Y-82143089D01*
X169934384Y-82194304D01*
X169823108Y-82268656D01*
X169728476Y-82363288D01*
X169721200Y-82374177D01*
X169721200Y-81033062D01*
X190767800Y-81033062D01*
X190767800Y-81216138D01*
X190803516Y-81395696D01*
X190873576Y-81564836D01*
X190975288Y-81717058D01*
X191104742Y-81846512D01*
X191256964Y-81948224D01*
X191426104Y-82018284D01*
X191605662Y-82054000D01*
X191788738Y-82054000D01*
X191968296Y-82018284D01*
X192137436Y-81948224D01*
X192289658Y-81846512D01*
X192419112Y-81717058D01*
X192520824Y-81564836D01*
X192590884Y-81395696D01*
X192626600Y-81216138D01*
X192626600Y-81033062D01*
X192590884Y-80853504D01*
X192520824Y-80684364D01*
X192419112Y-80532142D01*
X192308508Y-80421538D01*
X194346600Y-80421538D01*
X194346600Y-80614462D01*
X194384238Y-80803680D01*
X194458067Y-80981920D01*
X194565250Y-81142331D01*
X194701669Y-81278750D01*
X194862080Y-81385933D01*
X195040320Y-81459762D01*
X195229538Y-81497400D01*
X195422462Y-81497400D01*
X195611680Y-81459762D01*
X195789920Y-81385933D01*
X195950331Y-81278750D01*
X196086750Y-81142331D01*
X196193933Y-80981920D01*
X196267762Y-80803680D01*
X196305400Y-80614462D01*
X196305400Y-80421538D01*
X196886600Y-80421538D01*
X196886600Y-80614462D01*
X196924238Y-80803680D01*
X196998067Y-80981920D01*
X197105250Y-81142331D01*
X197241669Y-81278750D01*
X197402080Y-81385933D01*
X197580320Y-81459762D01*
X197769538Y-81497400D01*
X197962462Y-81497400D01*
X198151680Y-81459762D01*
X198329920Y-81385933D01*
X198490331Y-81278750D01*
X198626750Y-81142331D01*
X198733933Y-80981920D01*
X198807762Y-80803680D01*
X198845400Y-80614462D01*
X198845400Y-80421538D01*
X198807762Y-80232320D01*
X198763879Y-80126375D01*
X199043214Y-80126375D01*
X199043214Y-80241453D01*
X199065664Y-80354319D01*
X199109702Y-80460637D01*
X199173636Y-80556320D01*
X199255008Y-80637692D01*
X199350691Y-80701626D01*
X199457009Y-80745664D01*
X199569875Y-80768114D01*
X199684953Y-80768114D01*
X199797819Y-80745664D01*
X199904137Y-80701626D01*
X199999820Y-80637692D01*
X200081192Y-80556320D01*
X200145126Y-80460637D01*
X200161321Y-80421538D01*
X200442600Y-80421538D01*
X200442600Y-80614462D01*
X200480238Y-80803680D01*
X200554067Y-80981920D01*
X200661250Y-81142331D01*
X200797669Y-81278750D01*
X200958080Y-81385933D01*
X201136320Y-81459762D01*
X201325538Y-81497400D01*
X201518462Y-81497400D01*
X201707680Y-81459762D01*
X201885920Y-81385933D01*
X202046331Y-81278750D01*
X202182750Y-81142331D01*
X202289933Y-80981920D01*
X202363762Y-80803680D01*
X202401400Y-80614462D01*
X202401400Y-80421538D01*
X202982600Y-80421538D01*
X202982600Y-80614462D01*
X203020238Y-80803680D01*
X203094067Y-80981920D01*
X203201250Y-81142331D01*
X203337669Y-81278750D01*
X203498080Y-81385933D01*
X203676320Y-81459762D01*
X203865538Y-81497400D01*
X204058462Y-81497400D01*
X204247680Y-81459762D01*
X204351424Y-81416790D01*
X206866471Y-81416790D01*
X206866471Y-81531868D01*
X206888921Y-81644734D01*
X206932959Y-81751052D01*
X206996893Y-81846735D01*
X207078265Y-81928107D01*
X207173948Y-81992041D01*
X207280266Y-82036079D01*
X207393132Y-82058529D01*
X207501471Y-82058529D01*
X207501471Y-82166868D01*
X207523921Y-82279734D01*
X207567959Y-82386052D01*
X207631893Y-82481735D01*
X207711855Y-82561697D01*
X207660956Y-82551573D01*
X207545878Y-82551573D01*
X207433012Y-82574023D01*
X207326694Y-82618061D01*
X207231011Y-82681995D01*
X207149639Y-82763367D01*
X207085705Y-82859050D01*
X207041667Y-82965368D01*
X207019217Y-83078234D01*
X207019217Y-83193312D01*
X207041667Y-83306178D01*
X207085705Y-83412496D01*
X207149639Y-83508179D01*
X207231011Y-83589551D01*
X207326694Y-83653485D01*
X207433012Y-83697523D01*
X207545878Y-83719973D01*
X207660956Y-83719973D01*
X207773822Y-83697523D01*
X207880140Y-83653485D01*
X207975823Y-83589551D01*
X208057195Y-83508179D01*
X208121129Y-83412496D01*
X208165167Y-83306178D01*
X208187617Y-83193312D01*
X208187617Y-83078234D01*
X208165167Y-82965368D01*
X208121129Y-82859050D01*
X208057195Y-82763367D01*
X208040289Y-82746461D01*
X208661237Y-82746461D01*
X208661237Y-82861539D01*
X208683687Y-82974405D01*
X208727725Y-83080723D01*
X208791659Y-83176406D01*
X208873031Y-83257778D01*
X208968714Y-83321712D01*
X209075032Y-83365750D01*
X209187898Y-83388200D01*
X209302976Y-83388200D01*
X209415842Y-83365750D01*
X209427321Y-83360995D01*
X209423250Y-83381461D01*
X209423250Y-83496539D01*
X209445700Y-83609405D01*
X209489738Y-83715723D01*
X209553672Y-83811406D01*
X209635044Y-83892778D01*
X209730727Y-83956712D01*
X209837045Y-84000750D01*
X209949911Y-84023200D01*
X210064989Y-84023200D01*
X210177855Y-84000750D01*
X210284173Y-83956712D01*
X210379856Y-83892778D01*
X210461228Y-83811406D01*
X210525162Y-83715723D01*
X210569200Y-83609405D01*
X210591650Y-83496539D01*
X210591650Y-83381461D01*
X210569200Y-83268595D01*
X210525162Y-83162277D01*
X210461228Y-83066594D01*
X210379856Y-82985222D01*
X210284173Y-82921288D01*
X210177855Y-82877250D01*
X210064989Y-82854800D01*
X209949911Y-82854800D01*
X209837045Y-82877250D01*
X209825566Y-82882005D01*
X209829637Y-82861539D01*
X209829637Y-82746461D01*
X209807187Y-82633595D01*
X209763149Y-82527277D01*
X209699215Y-82431594D01*
X209617843Y-82350222D01*
X209522160Y-82286288D01*
X209415842Y-82242250D01*
X209302976Y-82219800D01*
X209187898Y-82219800D01*
X209075032Y-82242250D01*
X208968714Y-82286288D01*
X208873031Y-82350222D01*
X208791659Y-82431594D01*
X208727725Y-82527277D01*
X208683687Y-82633595D01*
X208661237Y-82746461D01*
X208040289Y-82746461D01*
X207977233Y-82683405D01*
X208028132Y-82693529D01*
X208143210Y-82693529D01*
X208256076Y-82671079D01*
X208362394Y-82627041D01*
X208458077Y-82563107D01*
X208539449Y-82481735D01*
X208603383Y-82386052D01*
X208647421Y-82279734D01*
X208669871Y-82166868D01*
X208669871Y-82051790D01*
X208647421Y-81938924D01*
X208603383Y-81832606D01*
X208539449Y-81736923D01*
X208458077Y-81655551D01*
X208362394Y-81591617D01*
X208256076Y-81547579D01*
X208143210Y-81525129D01*
X208034871Y-81525129D01*
X208034871Y-81416790D01*
X208020229Y-81343177D01*
X208120453Y-81301663D01*
X208216136Y-81237729D01*
X208297508Y-81156357D01*
X208361442Y-81060674D01*
X208405480Y-80954356D01*
X208427930Y-80841490D01*
X208427930Y-80726412D01*
X208405480Y-80613546D01*
X208361442Y-80507228D01*
X208297508Y-80411545D01*
X208216136Y-80330173D01*
X208120453Y-80266239D01*
X208014135Y-80222201D01*
X207901269Y-80199751D01*
X207786191Y-80199751D01*
X207673325Y-80222201D01*
X207567007Y-80266239D01*
X207471324Y-80330173D01*
X207389952Y-80411545D01*
X207326018Y-80507228D01*
X207281980Y-80613546D01*
X207259530Y-80726412D01*
X207259530Y-80841490D01*
X207274172Y-80915103D01*
X207173948Y-80956617D01*
X207078265Y-81020551D01*
X206996893Y-81101923D01*
X206932959Y-81197606D01*
X206888921Y-81303924D01*
X206866471Y-81416790D01*
X204351424Y-81416790D01*
X204425920Y-81385933D01*
X204586331Y-81278750D01*
X204722750Y-81142331D01*
X204829933Y-80981920D01*
X204903762Y-80803680D01*
X204941400Y-80614462D01*
X204941400Y-80508797D01*
X205458136Y-80508797D01*
X205458136Y-80623875D01*
X205480586Y-80736741D01*
X205524624Y-80843059D01*
X205588558Y-80938742D01*
X205669930Y-81020114D01*
X205765613Y-81084048D01*
X205871931Y-81128086D01*
X205984797Y-81150536D01*
X206099875Y-81150536D01*
X206212741Y-81128086D01*
X206319059Y-81084048D01*
X206414742Y-81020114D01*
X206496114Y-80938742D01*
X206560048Y-80843059D01*
X206604086Y-80736741D01*
X206626536Y-80623875D01*
X206626536Y-80508797D01*
X206604086Y-80395931D01*
X206560048Y-80289613D01*
X206496114Y-80193930D01*
X206414742Y-80112558D01*
X206319059Y-80048624D01*
X206212741Y-80004586D01*
X206099875Y-79982136D01*
X205984797Y-79982136D01*
X205871931Y-80004586D01*
X205765613Y-80048624D01*
X205669930Y-80112558D01*
X205588558Y-80193930D01*
X205524624Y-80289613D01*
X205480586Y-80395931D01*
X205458136Y-80508797D01*
X204941400Y-80508797D01*
X204941400Y-80421538D01*
X204903762Y-80232320D01*
X204829933Y-80054080D01*
X204722750Y-79893669D01*
X204586331Y-79757250D01*
X204425920Y-79650067D01*
X204247680Y-79576238D01*
X204058462Y-79538600D01*
X203865538Y-79538600D01*
X203676320Y-79576238D01*
X203498080Y-79650067D01*
X203337669Y-79757250D01*
X203201250Y-79893669D01*
X203094067Y-80054080D01*
X203020238Y-80232320D01*
X202982600Y-80421538D01*
X202401400Y-80421538D01*
X202363762Y-80232320D01*
X202289933Y-80054080D01*
X202182750Y-79893669D01*
X202046331Y-79757250D01*
X201885920Y-79650067D01*
X201707680Y-79576238D01*
X201518462Y-79538600D01*
X201325538Y-79538600D01*
X201136320Y-79576238D01*
X200958080Y-79650067D01*
X200797669Y-79757250D01*
X200661250Y-79893669D01*
X200554067Y-80054080D01*
X200480238Y-80232320D01*
X200442600Y-80421538D01*
X200161321Y-80421538D01*
X200189164Y-80354319D01*
X200211614Y-80241453D01*
X200211614Y-80126375D01*
X200189164Y-80013509D01*
X200145126Y-79907191D01*
X200081192Y-79811508D01*
X199999820Y-79730136D01*
X199904137Y-79666202D01*
X199797819Y-79622164D01*
X199684953Y-79599714D01*
X199569875Y-79599714D01*
X199457009Y-79622164D01*
X199350691Y-79666202D01*
X199255008Y-79730136D01*
X199173636Y-79811508D01*
X199109702Y-79907191D01*
X199065664Y-80013509D01*
X199043214Y-80126375D01*
X198763879Y-80126375D01*
X198733933Y-80054080D01*
X198626750Y-79893669D01*
X198490331Y-79757250D01*
X198329920Y-79650067D01*
X198151680Y-79576238D01*
X197962462Y-79538600D01*
X197769538Y-79538600D01*
X197580320Y-79576238D01*
X197402080Y-79650067D01*
X197241669Y-79757250D01*
X197105250Y-79893669D01*
X196998067Y-80054080D01*
X196924238Y-80232320D01*
X196886600Y-80421538D01*
X196305400Y-80421538D01*
X196267762Y-80232320D01*
X196193933Y-80054080D01*
X196086750Y-79893669D01*
X195950331Y-79757250D01*
X195789920Y-79650067D01*
X195611680Y-79576238D01*
X195422462Y-79538600D01*
X195229538Y-79538600D01*
X195040320Y-79576238D01*
X194862080Y-79650067D01*
X194701669Y-79757250D01*
X194565250Y-79893669D01*
X194458067Y-80054080D01*
X194384238Y-80232320D01*
X194346600Y-80421538D01*
X192308508Y-80421538D01*
X192289658Y-80402688D01*
X192137436Y-80300976D01*
X191968296Y-80230916D01*
X191788738Y-80195200D01*
X191605662Y-80195200D01*
X191426104Y-80230916D01*
X191256964Y-80300976D01*
X191104742Y-80402688D01*
X190975288Y-80532142D01*
X190873576Y-80684364D01*
X190803516Y-80853504D01*
X190767800Y-81033062D01*
X169721200Y-81033062D01*
X169721200Y-79763062D01*
X188227800Y-79763062D01*
X188227800Y-79946138D01*
X188263516Y-80125696D01*
X188333576Y-80294836D01*
X188435288Y-80447058D01*
X188564742Y-80576512D01*
X188716964Y-80678224D01*
X188886104Y-80748284D01*
X189065662Y-80784000D01*
X189248738Y-80784000D01*
X189428296Y-80748284D01*
X189597436Y-80678224D01*
X189749658Y-80576512D01*
X189879112Y-80447058D01*
X189980824Y-80294836D01*
X190050884Y-80125696D01*
X190086600Y-79946138D01*
X190086600Y-79763062D01*
X190050884Y-79583504D01*
X189980824Y-79414364D01*
X189879112Y-79262142D01*
X189749658Y-79132688D01*
X189597436Y-79030976D01*
X189428296Y-78960916D01*
X189248738Y-78925200D01*
X189065662Y-78925200D01*
X188886104Y-78960916D01*
X188716964Y-79030976D01*
X188564742Y-79132688D01*
X188435288Y-79262142D01*
X188333576Y-79414364D01*
X188263516Y-79583504D01*
X188227800Y-79763062D01*
X169721200Y-79763062D01*
X169721200Y-78493062D01*
X190767800Y-78493062D01*
X190767800Y-78676138D01*
X190803516Y-78855696D01*
X190873576Y-79024836D01*
X190975288Y-79177058D01*
X191104742Y-79306512D01*
X191256964Y-79408224D01*
X191426104Y-79478284D01*
X191605662Y-79514000D01*
X191788738Y-79514000D01*
X191968296Y-79478284D01*
X192137436Y-79408224D01*
X192289658Y-79306512D01*
X192419112Y-79177058D01*
X192520824Y-79024836D01*
X192590884Y-78855696D01*
X192626600Y-78676138D01*
X192626600Y-78493062D01*
X192590884Y-78313504D01*
X192520824Y-78144364D01*
X192419112Y-77992142D01*
X192289658Y-77862688D01*
X192181564Y-77790461D01*
X199821800Y-77790461D01*
X199821800Y-77905539D01*
X199844250Y-78018405D01*
X199888288Y-78124723D01*
X199952222Y-78220406D01*
X200033594Y-78301778D01*
X200129277Y-78365712D01*
X200235595Y-78409750D01*
X200348461Y-78432200D01*
X200463539Y-78432200D01*
X200576405Y-78409750D01*
X200682723Y-78365712D01*
X200778406Y-78301778D01*
X200859778Y-78220406D01*
X200923712Y-78124723D01*
X200967750Y-78018405D01*
X200974601Y-77983961D01*
X204711300Y-77983961D01*
X204711300Y-78099039D01*
X204733750Y-78211905D01*
X204777788Y-78318223D01*
X204841722Y-78413906D01*
X204923094Y-78495278D01*
X205018777Y-78559212D01*
X205125095Y-78603250D01*
X205237961Y-78625700D01*
X205353039Y-78625700D01*
X205465905Y-78603250D01*
X205572223Y-78559212D01*
X205667906Y-78495278D01*
X205749278Y-78413906D01*
X205813212Y-78318223D01*
X205851717Y-78225261D01*
X206273400Y-78225261D01*
X206273400Y-78340339D01*
X206295850Y-78453205D01*
X206339888Y-78559523D01*
X206403822Y-78655206D01*
X206485194Y-78736578D01*
X206580877Y-78800512D01*
X206687195Y-78844550D01*
X206800061Y-78867000D01*
X206915139Y-78867000D01*
X207028005Y-78844550D01*
X207134323Y-78800512D01*
X207230006Y-78736578D01*
X207311378Y-78655206D01*
X207375312Y-78559523D01*
X207419350Y-78453205D01*
X207441800Y-78340339D01*
X207441800Y-78225261D01*
X207419350Y-78112395D01*
X207375312Y-78006077D01*
X207311378Y-77910394D01*
X207230006Y-77829022D01*
X207134323Y-77765088D01*
X207028005Y-77721050D01*
X206915139Y-77698600D01*
X206800061Y-77698600D01*
X206687195Y-77721050D01*
X206580877Y-77765088D01*
X206485194Y-77829022D01*
X206403822Y-77910394D01*
X206339888Y-78006077D01*
X206295850Y-78112395D01*
X206273400Y-78225261D01*
X205851717Y-78225261D01*
X205857250Y-78211905D01*
X205879700Y-78099039D01*
X205879700Y-77983961D01*
X205857250Y-77871095D01*
X205813212Y-77764777D01*
X205749278Y-77669094D01*
X205667906Y-77587722D01*
X205572223Y-77523788D01*
X205465905Y-77479750D01*
X205353039Y-77457300D01*
X205237961Y-77457300D01*
X205125095Y-77479750D01*
X205018777Y-77523788D01*
X204923094Y-77587722D01*
X204841722Y-77669094D01*
X204777788Y-77764777D01*
X204733750Y-77871095D01*
X204711300Y-77983961D01*
X200974601Y-77983961D01*
X200990200Y-77905539D01*
X200990200Y-77790461D01*
X200967750Y-77677595D01*
X200923712Y-77571277D01*
X200859778Y-77475594D01*
X200778406Y-77394222D01*
X200682723Y-77330288D01*
X200576405Y-77286250D01*
X200463539Y-77263800D01*
X200348461Y-77263800D01*
X200235595Y-77286250D01*
X200129277Y-77330288D01*
X200033594Y-77394222D01*
X199952222Y-77475594D01*
X199888288Y-77571277D01*
X199844250Y-77677595D01*
X199821800Y-77790461D01*
X192181564Y-77790461D01*
X192137436Y-77760976D01*
X191968296Y-77690916D01*
X191788738Y-77655200D01*
X191605662Y-77655200D01*
X191426104Y-77690916D01*
X191256964Y-77760976D01*
X191104742Y-77862688D01*
X190975288Y-77992142D01*
X190873576Y-78144364D01*
X190803516Y-78313504D01*
X190767800Y-78493062D01*
X169721200Y-78493062D01*
X169721200Y-77223062D01*
X188227800Y-77223062D01*
X188227800Y-77406138D01*
X188263516Y-77585696D01*
X188333576Y-77754836D01*
X188435288Y-77907058D01*
X188564742Y-78036512D01*
X188716964Y-78138224D01*
X188886104Y-78208284D01*
X189065662Y-78244000D01*
X189248738Y-78244000D01*
X189428296Y-78208284D01*
X189597436Y-78138224D01*
X189749658Y-78036512D01*
X189879112Y-77907058D01*
X189980824Y-77754836D01*
X190050884Y-77585696D01*
X190086600Y-77406138D01*
X190086600Y-77223062D01*
X190050884Y-77043504D01*
X189980824Y-76874364D01*
X189879112Y-76722142D01*
X189749658Y-76592688D01*
X189597436Y-76490976D01*
X189428296Y-76420916D01*
X189248738Y-76385200D01*
X189065662Y-76385200D01*
X188886104Y-76420916D01*
X188716964Y-76490976D01*
X188564742Y-76592688D01*
X188435288Y-76722142D01*
X188333576Y-76874364D01*
X188263516Y-77043504D01*
X188227800Y-77223062D01*
X169721200Y-77223062D01*
X169721200Y-75953062D01*
X190767800Y-75953062D01*
X190767800Y-76136138D01*
X190803516Y-76315696D01*
X190873576Y-76484836D01*
X190975288Y-76637058D01*
X191104742Y-76766512D01*
X191256964Y-76868224D01*
X191426104Y-76938284D01*
X191605662Y-76974000D01*
X191788738Y-76974000D01*
X191968296Y-76938284D01*
X192137436Y-76868224D01*
X192289658Y-76766512D01*
X192342209Y-76713961D01*
X207060800Y-76713961D01*
X207060800Y-76829039D01*
X207083250Y-76941905D01*
X207127288Y-77048223D01*
X207191222Y-77143906D01*
X207272594Y-77225278D01*
X207368277Y-77289212D01*
X207474595Y-77333250D01*
X207587461Y-77355700D01*
X207702539Y-77355700D01*
X207815405Y-77333250D01*
X207921723Y-77289212D01*
X208017406Y-77225278D01*
X208098778Y-77143906D01*
X208162712Y-77048223D01*
X208206750Y-76941905D01*
X208229200Y-76829039D01*
X208229200Y-76713961D01*
X208206750Y-76601095D01*
X208162712Y-76494777D01*
X208098778Y-76399094D01*
X208017406Y-76317722D01*
X207921723Y-76253788D01*
X207815405Y-76209750D01*
X207702539Y-76187300D01*
X207587461Y-76187300D01*
X207474595Y-76209750D01*
X207368277Y-76253788D01*
X207272594Y-76317722D01*
X207191222Y-76399094D01*
X207127288Y-76494777D01*
X207083250Y-76601095D01*
X207060800Y-76713961D01*
X192342209Y-76713961D01*
X192419112Y-76637058D01*
X192520824Y-76484836D01*
X192590884Y-76315696D01*
X192626600Y-76136138D01*
X192626600Y-75953062D01*
X192590884Y-75773504D01*
X192585896Y-75761461D01*
X205536800Y-75761461D01*
X205536800Y-75876539D01*
X205559250Y-75989405D01*
X205603288Y-76095723D01*
X205667222Y-76191406D01*
X205748594Y-76272778D01*
X205844277Y-76336712D01*
X205950595Y-76380750D01*
X206063461Y-76403200D01*
X206178539Y-76403200D01*
X206291405Y-76380750D01*
X206397723Y-76336712D01*
X206493406Y-76272778D01*
X206574778Y-76191406D01*
X206638712Y-76095723D01*
X206682750Y-75989405D01*
X206705200Y-75876539D01*
X206705200Y-75761461D01*
X206682750Y-75648595D01*
X206638712Y-75542277D01*
X206574778Y-75446594D01*
X206493406Y-75365222D01*
X206397723Y-75301288D01*
X206291405Y-75257250D01*
X206178539Y-75234800D01*
X206063461Y-75234800D01*
X205950595Y-75257250D01*
X205844277Y-75301288D01*
X205748594Y-75365222D01*
X205667222Y-75446594D01*
X205603288Y-75542277D01*
X205559250Y-75648595D01*
X205536800Y-75761461D01*
X192585896Y-75761461D01*
X192520824Y-75604364D01*
X192419112Y-75452142D01*
X192289658Y-75322688D01*
X192137436Y-75220976D01*
X191968296Y-75150916D01*
X191788738Y-75115200D01*
X191605662Y-75115200D01*
X191426104Y-75150916D01*
X191256964Y-75220976D01*
X191104742Y-75322688D01*
X190975288Y-75452142D01*
X190873576Y-75604364D01*
X190803516Y-75773504D01*
X190767800Y-75953062D01*
X169721200Y-75953062D01*
X169721200Y-74683062D01*
X188227800Y-74683062D01*
X188227800Y-74866138D01*
X188263516Y-75045696D01*
X188333576Y-75214836D01*
X188435288Y-75367058D01*
X188564742Y-75496512D01*
X188716964Y-75598224D01*
X188886104Y-75668284D01*
X189065662Y-75704000D01*
X189248738Y-75704000D01*
X189428296Y-75668284D01*
X189597436Y-75598224D01*
X189749658Y-75496512D01*
X189879112Y-75367058D01*
X189980824Y-75214836D01*
X190050884Y-75045696D01*
X190086600Y-74866138D01*
X190086600Y-74683062D01*
X190050884Y-74503504D01*
X189980824Y-74334364D01*
X189879112Y-74182142D01*
X189749658Y-74052688D01*
X189597436Y-73950976D01*
X189428296Y-73880916D01*
X189248738Y-73845200D01*
X189065662Y-73845200D01*
X188886104Y-73880916D01*
X188716964Y-73950976D01*
X188564742Y-74052688D01*
X188435288Y-74182142D01*
X188333576Y-74334364D01*
X188263516Y-74503504D01*
X188227800Y-74683062D01*
X169721200Y-74683062D01*
X169721200Y-73413062D01*
X190767800Y-73413062D01*
X190767800Y-73596138D01*
X190803516Y-73775696D01*
X190873576Y-73944836D01*
X190975288Y-74097058D01*
X191104742Y-74226512D01*
X191256964Y-74328224D01*
X191426104Y-74398284D01*
X191605662Y-74434000D01*
X191788738Y-74434000D01*
X191968296Y-74398284D01*
X192137436Y-74328224D01*
X192289658Y-74226512D01*
X192419112Y-74097058D01*
X192520824Y-73944836D01*
X192590884Y-73775696D01*
X192615237Y-73653261D01*
X205968600Y-73653261D01*
X205968600Y-73768339D01*
X205991050Y-73881205D01*
X206035088Y-73987523D01*
X206099022Y-74083206D01*
X206180394Y-74164578D01*
X206276077Y-74228512D01*
X206382395Y-74272550D01*
X206495261Y-74295000D01*
X206610339Y-74295000D01*
X206723205Y-74272550D01*
X206829523Y-74228512D01*
X206925206Y-74164578D01*
X207006578Y-74083206D01*
X207070512Y-73987523D01*
X207114550Y-73881205D01*
X207137000Y-73768339D01*
X207137000Y-73653261D01*
X207114550Y-73540395D01*
X207070512Y-73434077D01*
X207006578Y-73338394D01*
X206999462Y-73331278D01*
X216713525Y-73331278D01*
X216713525Y-73446356D01*
X216735975Y-73559222D01*
X216780013Y-73665540D01*
X216843947Y-73761223D01*
X216925319Y-73842595D01*
X217021002Y-73906529D01*
X217127320Y-73950567D01*
X217240186Y-73973017D01*
X217355264Y-73973017D01*
X217468130Y-73950567D01*
X217574448Y-73906529D01*
X217670131Y-73842595D01*
X217751503Y-73761223D01*
X217815437Y-73665540D01*
X217859475Y-73559222D01*
X217881925Y-73446356D01*
X217881925Y-73331278D01*
X217859475Y-73218412D01*
X217815437Y-73112094D01*
X217751503Y-73016411D01*
X217670131Y-72935039D01*
X217574448Y-72871105D01*
X217468130Y-72827067D01*
X217355264Y-72804617D01*
X217240186Y-72804617D01*
X217127320Y-72827067D01*
X217021002Y-72871105D01*
X216925319Y-72935039D01*
X216843947Y-73016411D01*
X216780013Y-73112094D01*
X216735975Y-73218412D01*
X216713525Y-73331278D01*
X206999462Y-73331278D01*
X206925206Y-73257022D01*
X206829523Y-73193088D01*
X206723205Y-73149050D01*
X206610339Y-73126600D01*
X206495261Y-73126600D01*
X206382395Y-73149050D01*
X206276077Y-73193088D01*
X206180394Y-73257022D01*
X206099022Y-73338394D01*
X206035088Y-73434077D01*
X205991050Y-73540395D01*
X205968600Y-73653261D01*
X192615237Y-73653261D01*
X192626600Y-73596138D01*
X192626600Y-73413062D01*
X192590884Y-73233504D01*
X192520824Y-73064364D01*
X192419112Y-72912142D01*
X192289658Y-72782688D01*
X192137436Y-72680976D01*
X191968296Y-72610916D01*
X191788738Y-72575200D01*
X191605662Y-72575200D01*
X191426104Y-72610916D01*
X191256964Y-72680976D01*
X191104742Y-72782688D01*
X190975288Y-72912142D01*
X190873576Y-73064364D01*
X190803516Y-73233504D01*
X190767800Y-73413062D01*
X169721200Y-73413062D01*
X169721200Y-72143062D01*
X188227800Y-72143062D01*
X188227800Y-72326138D01*
X188263516Y-72505696D01*
X188333576Y-72674836D01*
X188435288Y-72827058D01*
X188564742Y-72956512D01*
X188716964Y-73058224D01*
X188886104Y-73128284D01*
X189065662Y-73164000D01*
X189248738Y-73164000D01*
X189428296Y-73128284D01*
X189597436Y-73058224D01*
X189749658Y-72956512D01*
X189879112Y-72827058D01*
X189980824Y-72674836D01*
X190038472Y-72535661D01*
X208559400Y-72535661D01*
X208559400Y-72650739D01*
X208581850Y-72763605D01*
X208625888Y-72869923D01*
X208689822Y-72965606D01*
X208771194Y-73046978D01*
X208866877Y-73110912D01*
X208973195Y-73154950D01*
X209086061Y-73177400D01*
X209201139Y-73177400D01*
X209314005Y-73154950D01*
X209420323Y-73110912D01*
X209516006Y-73046978D01*
X209597378Y-72965606D01*
X209661312Y-72869923D01*
X209705350Y-72763605D01*
X209727800Y-72650739D01*
X209727800Y-72535661D01*
X209705350Y-72422795D01*
X209661312Y-72316477D01*
X209597378Y-72220794D01*
X209516006Y-72139422D01*
X209420323Y-72075488D01*
X209314005Y-72031450D01*
X209201139Y-72009000D01*
X209086061Y-72009000D01*
X208973195Y-72031450D01*
X208866877Y-72075488D01*
X208771194Y-72139422D01*
X208689822Y-72220794D01*
X208625888Y-72316477D01*
X208581850Y-72422795D01*
X208559400Y-72535661D01*
X190038472Y-72535661D01*
X190050884Y-72505696D01*
X190086600Y-72326138D01*
X190086600Y-72143062D01*
X190050884Y-71963504D01*
X189980824Y-71794364D01*
X189879112Y-71642142D01*
X189749658Y-71512688D01*
X189597436Y-71410976D01*
X189428296Y-71340916D01*
X189248738Y-71305200D01*
X189065662Y-71305200D01*
X188886104Y-71340916D01*
X188716964Y-71410976D01*
X188564742Y-71512688D01*
X188435288Y-71642142D01*
X188333576Y-71794364D01*
X188263516Y-71963504D01*
X188227800Y-72143062D01*
X169721200Y-72143062D01*
X169721200Y-70873062D01*
X190767800Y-70873062D01*
X190767800Y-71056138D01*
X190803516Y-71235696D01*
X190873576Y-71404836D01*
X190975288Y-71557058D01*
X191104742Y-71686512D01*
X191256964Y-71788224D01*
X191426104Y-71858284D01*
X191605662Y-71894000D01*
X191788738Y-71894000D01*
X191968296Y-71858284D01*
X192137436Y-71788224D01*
X192159230Y-71773661D01*
X213080600Y-71773661D01*
X213080600Y-71888739D01*
X213103050Y-72001605D01*
X213147088Y-72107923D01*
X213211022Y-72203606D01*
X213292394Y-72284978D01*
X213388077Y-72348912D01*
X213494395Y-72392950D01*
X213607261Y-72415400D01*
X213722339Y-72415400D01*
X213835205Y-72392950D01*
X213941523Y-72348912D01*
X214037206Y-72284978D01*
X214118578Y-72203606D01*
X214182512Y-72107923D01*
X214190577Y-72088450D01*
X223316800Y-72088450D01*
X223316800Y-72203528D01*
X223339250Y-72316394D01*
X223383288Y-72422712D01*
X223447222Y-72518395D01*
X223528594Y-72599767D01*
X223624277Y-72663701D01*
X223730595Y-72707739D01*
X223843461Y-72730189D01*
X223958539Y-72730189D01*
X224071405Y-72707739D01*
X224177723Y-72663701D01*
X224273406Y-72599767D01*
X224354778Y-72518395D01*
X224418712Y-72422712D01*
X224462750Y-72316394D01*
X224485200Y-72203528D01*
X224485200Y-72088450D01*
X224462750Y-71975584D01*
X224418712Y-71869266D01*
X224354778Y-71773583D01*
X224273406Y-71692211D01*
X224177723Y-71628277D01*
X224071405Y-71584239D01*
X223958539Y-71561789D01*
X223843461Y-71561789D01*
X223730595Y-71584239D01*
X223624277Y-71628277D01*
X223528594Y-71692211D01*
X223447222Y-71773583D01*
X223383288Y-71869266D01*
X223339250Y-71975584D01*
X223316800Y-72088450D01*
X214190577Y-72088450D01*
X214226550Y-72001605D01*
X214249000Y-71888739D01*
X214249000Y-71773661D01*
X214226550Y-71660795D01*
X214182512Y-71554477D01*
X214118578Y-71458794D01*
X214037206Y-71377422D01*
X213941523Y-71313488D01*
X213835205Y-71269450D01*
X213722339Y-71247000D01*
X213607261Y-71247000D01*
X213494395Y-71269450D01*
X213388077Y-71313488D01*
X213292394Y-71377422D01*
X213211022Y-71458794D01*
X213147088Y-71554477D01*
X213103050Y-71660795D01*
X213080600Y-71773661D01*
X192159230Y-71773661D01*
X192289658Y-71686512D01*
X192419112Y-71557058D01*
X192520824Y-71404836D01*
X192590884Y-71235696D01*
X192626600Y-71056138D01*
X192626600Y-71011647D01*
X198551800Y-71011647D01*
X198551800Y-71126725D01*
X198574250Y-71239591D01*
X198618288Y-71345909D01*
X198682222Y-71441592D01*
X198763594Y-71522964D01*
X198859277Y-71586898D01*
X198965595Y-71630936D01*
X199078461Y-71653386D01*
X199193539Y-71653386D01*
X199306405Y-71630936D01*
X199412723Y-71586898D01*
X199508406Y-71522964D01*
X199589778Y-71441592D01*
X199653712Y-71345909D01*
X199697750Y-71239591D01*
X199720200Y-71126725D01*
X199720200Y-71011647D01*
X199697750Y-70898781D01*
X199688454Y-70876338D01*
X220332181Y-70876338D01*
X220332181Y-70991416D01*
X220354631Y-71104282D01*
X220398669Y-71210600D01*
X220462603Y-71306283D01*
X220543975Y-71387655D01*
X220639658Y-71451589D01*
X220745976Y-71495627D01*
X220858842Y-71518077D01*
X220973920Y-71518077D01*
X221086786Y-71495627D01*
X221193104Y-71451589D01*
X221288787Y-71387655D01*
X221370159Y-71306283D01*
X221434093Y-71210600D01*
X221478131Y-71104282D01*
X221494569Y-71021640D01*
X224364106Y-71021640D01*
X224364106Y-71136718D01*
X224386556Y-71249584D01*
X224430594Y-71355902D01*
X224494528Y-71451585D01*
X224575900Y-71532957D01*
X224671583Y-71596891D01*
X224777901Y-71640929D01*
X224890767Y-71663379D01*
X225005845Y-71663379D01*
X225118711Y-71640929D01*
X225225029Y-71596891D01*
X225320712Y-71532957D01*
X225402084Y-71451585D01*
X225466018Y-71355902D01*
X225510056Y-71249584D01*
X225532506Y-71136718D01*
X225532506Y-71021640D01*
X225510056Y-70908774D01*
X225466018Y-70802456D01*
X225402084Y-70706773D01*
X225320712Y-70625401D01*
X225225029Y-70561467D01*
X225118711Y-70517429D01*
X225005845Y-70494979D01*
X224890767Y-70494979D01*
X224777901Y-70517429D01*
X224671583Y-70561467D01*
X224575900Y-70625401D01*
X224494528Y-70706773D01*
X224430594Y-70802456D01*
X224386556Y-70908774D01*
X224364106Y-71021640D01*
X221494569Y-71021640D01*
X221500581Y-70991416D01*
X221500581Y-70876338D01*
X221478131Y-70763472D01*
X221434093Y-70657154D01*
X221371706Y-70563785D01*
X221390927Y-70544564D01*
X221454861Y-70448881D01*
X221498899Y-70342563D01*
X221521349Y-70229697D01*
X221521349Y-70114619D01*
X221498899Y-70001753D01*
X221454861Y-69895435D01*
X221390927Y-69799752D01*
X221309555Y-69718380D01*
X221213872Y-69654446D01*
X221107554Y-69610408D01*
X220994688Y-69587958D01*
X220879610Y-69587958D01*
X220766744Y-69610408D01*
X220660426Y-69654446D01*
X220564743Y-69718380D01*
X220483371Y-69799752D01*
X220419437Y-69895435D01*
X220375399Y-70001753D01*
X220352949Y-70114619D01*
X220352949Y-70229697D01*
X220375399Y-70342563D01*
X220419437Y-70448881D01*
X220481824Y-70542250D01*
X220462603Y-70561471D01*
X220398669Y-70657154D01*
X220354631Y-70763472D01*
X220332181Y-70876338D01*
X199688454Y-70876338D01*
X199653712Y-70792463D01*
X199589778Y-70696780D01*
X199508406Y-70615408D01*
X199412723Y-70551474D01*
X199306405Y-70507436D01*
X199193539Y-70484986D01*
X199078461Y-70484986D01*
X198965595Y-70507436D01*
X198859277Y-70551474D01*
X198763594Y-70615408D01*
X198682222Y-70696780D01*
X198618288Y-70792463D01*
X198574250Y-70898781D01*
X198551800Y-71011647D01*
X192626600Y-71011647D01*
X192626600Y-70873062D01*
X192590884Y-70693504D01*
X192520824Y-70524364D01*
X192419112Y-70372142D01*
X192289658Y-70242688D01*
X192137436Y-70140976D01*
X191968296Y-70070916D01*
X191788738Y-70035200D01*
X191605662Y-70035200D01*
X191426104Y-70070916D01*
X191256964Y-70140976D01*
X191104742Y-70242688D01*
X190975288Y-70372142D01*
X190873576Y-70524364D01*
X190803516Y-70693504D01*
X190767800Y-70873062D01*
X169721200Y-70873062D01*
X169721200Y-69603062D01*
X188227800Y-69603062D01*
X188227800Y-69786138D01*
X188263516Y-69965696D01*
X188333576Y-70134836D01*
X188435288Y-70287058D01*
X188564742Y-70416512D01*
X188716964Y-70518224D01*
X188886104Y-70588284D01*
X189065662Y-70624000D01*
X189248738Y-70624000D01*
X189428296Y-70588284D01*
X189597436Y-70518224D01*
X189749658Y-70416512D01*
X189879112Y-70287058D01*
X189980824Y-70134836D01*
X190050884Y-69965696D01*
X190086600Y-69786138D01*
X190086600Y-69603062D01*
X190050884Y-69423504D01*
X190042952Y-69404353D01*
X190086205Y-69395750D01*
X190192523Y-69351712D01*
X190288206Y-69287778D01*
X190369578Y-69206406D01*
X190433512Y-69110723D01*
X190477550Y-69004405D01*
X190500000Y-68891539D01*
X190500000Y-68776461D01*
X190477550Y-68663595D01*
X190433512Y-68557277D01*
X190369578Y-68461594D01*
X190288206Y-68380222D01*
X190192523Y-68316288D01*
X190086205Y-68272250D01*
X189973339Y-68249800D01*
X189858261Y-68249800D01*
X189745395Y-68272250D01*
X189639077Y-68316288D01*
X189543394Y-68380222D01*
X189462022Y-68461594D01*
X189398088Y-68557277D01*
X189354050Y-68663595D01*
X189331600Y-68776461D01*
X189331600Y-68781682D01*
X189248738Y-68765200D01*
X189065662Y-68765200D01*
X188886104Y-68800916D01*
X188716964Y-68870976D01*
X188564742Y-68972688D01*
X188435288Y-69102142D01*
X188333576Y-69254364D01*
X188263516Y-69423504D01*
X188227800Y-69603062D01*
X169721200Y-69603062D01*
X169721200Y-67063062D01*
X188227800Y-67063062D01*
X188227800Y-67246138D01*
X188263516Y-67425696D01*
X188333576Y-67594836D01*
X188435288Y-67747058D01*
X188564742Y-67876512D01*
X188716964Y-67978224D01*
X188886104Y-68048284D01*
X189065662Y-68084000D01*
X189248738Y-68084000D01*
X189428296Y-68048284D01*
X189597436Y-67978224D01*
X189749658Y-67876512D01*
X189879112Y-67747058D01*
X189980824Y-67594836D01*
X190050884Y-67425696D01*
X190086600Y-67246138D01*
X190086600Y-67063062D01*
X190050884Y-66883504D01*
X189980824Y-66714364D01*
X189879112Y-66562142D01*
X189749658Y-66432688D01*
X189597436Y-66330976D01*
X189428296Y-66260916D01*
X189248738Y-66225200D01*
X189065662Y-66225200D01*
X188886104Y-66260916D01*
X188716964Y-66330976D01*
X188564742Y-66432688D01*
X188435288Y-66562142D01*
X188333576Y-66714364D01*
X188263516Y-66883504D01*
X188227800Y-67063062D01*
X169721200Y-67063062D01*
X169721200Y-65160285D01*
X186061400Y-65160285D01*
X186061400Y-65294115D01*
X186087509Y-65425374D01*
X186138724Y-65549016D01*
X186213076Y-65660292D01*
X186307708Y-65754924D01*
X186418984Y-65829276D01*
X186542626Y-65880491D01*
X186673885Y-65906600D01*
X186807715Y-65906600D01*
X186938974Y-65880491D01*
X187062616Y-65829276D01*
X187116814Y-65793062D01*
X190767800Y-65793062D01*
X190767800Y-65976138D01*
X190803516Y-66155696D01*
X190873576Y-66324836D01*
X190975288Y-66477058D01*
X191104742Y-66606512D01*
X191256964Y-66708224D01*
X191426104Y-66778284D01*
X191605662Y-66814000D01*
X191788738Y-66814000D01*
X191968296Y-66778284D01*
X192137436Y-66708224D01*
X192289658Y-66606512D01*
X192419112Y-66477058D01*
X192520824Y-66324836D01*
X192590884Y-66155696D01*
X192626600Y-65976138D01*
X192626600Y-65793062D01*
X192590884Y-65613504D01*
X192520824Y-65444364D01*
X192419112Y-65292142D01*
X192289658Y-65162688D01*
X192137436Y-65060976D01*
X191968296Y-64990916D01*
X191788738Y-64955200D01*
X191605662Y-64955200D01*
X191426104Y-64990916D01*
X191256964Y-65060976D01*
X191104742Y-65162688D01*
X190975288Y-65292142D01*
X190873576Y-65444364D01*
X190803516Y-65613504D01*
X190767800Y-65793062D01*
X187116814Y-65793062D01*
X187173892Y-65754924D01*
X187268524Y-65660292D01*
X187342876Y-65549016D01*
X187394091Y-65425374D01*
X187420200Y-65294115D01*
X187420200Y-65160285D01*
X187394091Y-65029026D01*
X187342876Y-64905384D01*
X187268524Y-64794108D01*
X187173892Y-64699476D01*
X187062616Y-64625124D01*
X186938974Y-64573909D01*
X186807715Y-64547800D01*
X186673885Y-64547800D01*
X186542626Y-64573909D01*
X186418984Y-64625124D01*
X186307708Y-64699476D01*
X186213076Y-64794108D01*
X186138724Y-64905384D01*
X186087509Y-65029026D01*
X186061400Y-65160285D01*
X169721200Y-65160285D01*
X169721200Y-63450865D01*
X177841960Y-63450865D01*
X177841960Y-63584695D01*
X177868069Y-63715954D01*
X177919284Y-63839596D01*
X177993636Y-63950872D01*
X178088268Y-64045504D01*
X178199544Y-64119856D01*
X178323186Y-64171071D01*
X178454445Y-64197180D01*
X178588275Y-64197180D01*
X178719534Y-64171071D01*
X178843176Y-64119856D01*
X178954452Y-64045504D01*
X179049084Y-63950872D01*
X179123436Y-63839596D01*
X179174651Y-63715954D01*
X179200760Y-63584695D01*
X179200760Y-63450865D01*
X179193687Y-63415305D01*
X181176980Y-63415305D01*
X181176980Y-63549135D01*
X181203089Y-63680394D01*
X181254304Y-63804036D01*
X181328656Y-63915312D01*
X181423288Y-64009944D01*
X181534564Y-64084296D01*
X181658206Y-64135511D01*
X181789465Y-64161620D01*
X181923295Y-64161620D01*
X182054554Y-64135511D01*
X182178196Y-64084296D01*
X182289472Y-64009944D01*
X182384104Y-63915312D01*
X182458456Y-63804036D01*
X182509671Y-63680394D01*
X182535780Y-63549135D01*
X182535780Y-63415305D01*
X183912560Y-63415305D01*
X183912560Y-63549135D01*
X183938669Y-63680394D01*
X183989884Y-63804036D01*
X184064236Y-63915312D01*
X184158868Y-64009944D01*
X184270144Y-64084296D01*
X184393786Y-64135511D01*
X184525045Y-64161620D01*
X184658875Y-64161620D01*
X184790134Y-64135511D01*
X184913776Y-64084296D01*
X185025052Y-64009944D01*
X185119684Y-63915312D01*
X185194036Y-63804036D01*
X185245251Y-63680394D01*
X185271360Y-63549135D01*
X185271360Y-63415305D01*
X186013140Y-63415305D01*
X186013140Y-63549135D01*
X186039249Y-63680394D01*
X186090464Y-63804036D01*
X186164816Y-63915312D01*
X186259448Y-64009944D01*
X186370724Y-64084296D01*
X186494366Y-64135511D01*
X186625625Y-64161620D01*
X186759455Y-64161620D01*
X186890714Y-64135511D01*
X187014356Y-64084296D01*
X187125632Y-64009944D01*
X187220264Y-63915312D01*
X187294616Y-63804036D01*
X187345831Y-63680394D01*
X187371940Y-63549135D01*
X187371940Y-63415305D01*
X187345831Y-63284046D01*
X187294616Y-63160404D01*
X187220264Y-63049128D01*
X187125632Y-62954496D01*
X187014356Y-62880144D01*
X186890714Y-62828929D01*
X186759455Y-62802820D01*
X186625625Y-62802820D01*
X186494366Y-62828929D01*
X186370724Y-62880144D01*
X186259448Y-62954496D01*
X186164816Y-63049128D01*
X186090464Y-63160404D01*
X186039249Y-63284046D01*
X186013140Y-63415305D01*
X185271360Y-63415305D01*
X185245251Y-63284046D01*
X185194036Y-63160404D01*
X185119684Y-63049128D01*
X185025052Y-62954496D01*
X184913776Y-62880144D01*
X184790134Y-62828929D01*
X184658875Y-62802820D01*
X184525045Y-62802820D01*
X184393786Y-62828929D01*
X184270144Y-62880144D01*
X184158868Y-62954496D01*
X184064236Y-63049128D01*
X183989884Y-63160404D01*
X183938669Y-63284046D01*
X183912560Y-63415305D01*
X182535780Y-63415305D01*
X182509671Y-63284046D01*
X182458456Y-63160404D01*
X182384104Y-63049128D01*
X182289472Y-62954496D01*
X182178196Y-62880144D01*
X182054554Y-62828929D01*
X181923295Y-62802820D01*
X181789465Y-62802820D01*
X181658206Y-62828929D01*
X181534564Y-62880144D01*
X181423288Y-62954496D01*
X181328656Y-63049128D01*
X181254304Y-63160404D01*
X181203089Y-63284046D01*
X181176980Y-63415305D01*
X179193687Y-63415305D01*
X179174651Y-63319606D01*
X179123436Y-63195964D01*
X179049084Y-63084688D01*
X178954452Y-62990056D01*
X178843176Y-62915704D01*
X178719534Y-62864489D01*
X178588275Y-62838380D01*
X178454445Y-62838380D01*
X178323186Y-62864489D01*
X178199544Y-62915704D01*
X178088268Y-62990056D01*
X177993636Y-63084688D01*
X177919284Y-63195964D01*
X177868069Y-63319606D01*
X177841960Y-63450865D01*
X169721200Y-63450865D01*
X169721200Y-55032740D01*
X226112401Y-70671899D01*
M02*
