%TF.GenerationSoftware,KiCad,Pcbnew,8.0.6*%
%TF.CreationDate,2024-11-19T22:12:21-05:00*%
%TF.ProjectId,imd_latch,696d645f-6c61-4746-9368-2e6b69636164,rev?*%
%TF.SameCoordinates,Original*%
%TF.FileFunction,Drillmap*%
%TF.FilePolarity,Positive*%
%FSLAX45Y45*%
G04 Gerber Fmt 4.5, Leading zero omitted, Abs format (unit mm)*
G04 Created by KiCad (PCBNEW 8.0.6) date 2024-11-19 22:12:21*
%MOMM*%
%LPD*%
G01*
G04 APERTURE LIST*
%ADD10C,0.100000*%
%ADD11C,0.200000*%
%ADD12C,0.130000*%
%ADD13C,0.350000*%
G04 APERTURE END LIST*
D10*
X19050000Y-8000000D02*
G75*
G02*
X19000000Y-7950000I0J50000D01*
G01*
X25000000Y-6800000D02*
X25000000Y-5150000D01*
X19000000Y-5050000D02*
G75*
G02*
X19050000Y-5000000I50000J0D01*
G01*
X18995000Y-7465000D02*
X19000000Y-7950000D01*
X25000000Y-7850495D02*
G75*
G02*
X24862809Y-8000007I-143990J-5575D01*
G01*
X25000000Y-6800000D02*
X25000000Y-7850495D01*
X19050000Y-8000000D02*
X24862808Y-8000000D01*
X24850000Y-5000000D02*
G75*
G02*
X25000000Y-5150000I0J-150000D01*
G01*
X19000000Y-5050000D02*
X18995000Y-5435000D01*
X19050000Y-5000000D02*
X24850000Y-5000000D01*
X18155000Y-5485000D02*
X18155000Y-6505000D01*
X18155000Y-6795000D02*
X18155000Y-7415000D01*
X18205000Y-5435000D02*
X18155000Y-5485000D01*
X18205000Y-6555000D02*
X18155000Y-6505000D01*
X18205000Y-6745000D02*
X18155000Y-6795000D01*
X18205000Y-7465000D02*
X18155000Y-7415000D01*
X18900000Y-6555000D02*
X18205000Y-6555000D01*
X18900000Y-6745000D02*
X18205000Y-6745000D01*
X18995000Y-5435000D02*
X18205000Y-5435000D01*
X18995000Y-7465000D02*
X18205000Y-7465000D01*
X18900000Y-6555000D02*
G75*
G02*
X18900000Y-6745000I0J-95000D01*
G01*
D11*
D10*
X18905000Y-5475000D02*
X18945000Y-5515000D01*
X18945000Y-5475000D02*
X18905000Y-5515000D01*
X19065962Y-6074038D02*
X19105962Y-6114038D01*
X19105962Y-6074038D02*
X19065962Y-6114038D01*
X19070000Y-5780000D02*
X19110000Y-5820000D01*
X19110000Y-5780000D02*
X19070000Y-5820000D01*
X19130000Y-6230000D02*
X19170000Y-6270000D01*
X19170000Y-6230000D02*
X19130000Y-6270000D01*
X19310000Y-5975000D02*
X19350000Y-6015000D01*
X19350000Y-5975000D02*
X19310000Y-6015000D01*
X20965000Y-7360000D02*
X21005000Y-7400000D01*
X21005000Y-7360000D02*
X20965000Y-7400000D01*
X20975000Y-5845000D02*
X21015000Y-5885000D01*
X21015000Y-5845000D02*
X20975000Y-5885000D01*
X21265000Y-7280000D02*
X21305000Y-7320000D01*
X21305000Y-7280000D02*
X21265000Y-7320000D01*
X21830000Y-5852500D02*
X21870000Y-5892500D01*
X21870000Y-5852500D02*
X21830000Y-5892500D01*
X22024500Y-6665000D02*
X22064500Y-6705000D01*
X22064500Y-6665000D02*
X22024500Y-6705000D01*
X22040000Y-7240000D02*
X22080000Y-7280000D01*
X22080000Y-7240000D02*
X22040000Y-7280000D01*
X22075000Y-5852500D02*
X22115000Y-5892500D01*
X22115000Y-5852500D02*
X22075000Y-5892500D01*
X22089500Y-6308800D02*
X22129500Y-6348800D01*
X22129500Y-6308800D02*
X22089500Y-6348800D01*
X22154500Y-6680000D02*
X22194500Y-6720000D01*
X22194500Y-6680000D02*
X22154500Y-6720000D01*
X22172639Y-7022639D02*
X22212639Y-7062639D01*
X22212639Y-7022639D02*
X22172639Y-7062639D01*
X22405000Y-6308800D02*
X22445000Y-6348800D01*
X22445000Y-6308800D02*
X22405000Y-6348800D01*
X22724500Y-6851200D02*
X22764500Y-6891200D01*
X22764500Y-6851200D02*
X22724500Y-6891200D01*
X22930000Y-7030000D02*
X22970000Y-7070000D01*
X22970000Y-7030000D02*
X22930000Y-7070000D01*
X22945000Y-6220000D02*
X22985000Y-6260000D01*
X22985000Y-6220000D02*
X22945000Y-6260000D01*
X23195000Y-6230000D02*
X23235000Y-6270000D01*
X23235000Y-6230000D02*
X23195000Y-6270000D01*
X23447500Y-7330000D02*
X23487500Y-7370000D01*
X23487500Y-7330000D02*
X23447500Y-7370000D01*
X23480000Y-5980000D02*
X23520000Y-6020000D01*
X23520000Y-5980000D02*
X23480000Y-6020000D01*
X23685000Y-7350000D02*
X23725000Y-7390000D01*
X23725000Y-7350000D02*
X23685000Y-7390000D01*
X23809447Y-7622222D02*
X23849447Y-7662222D01*
X23849447Y-7622222D02*
X23809447Y-7662222D01*
X23950000Y-6560000D02*
X23990000Y-6600000D01*
X23990000Y-6560000D02*
X23950000Y-6600000D01*
X24080000Y-5740000D02*
X24120000Y-5780000D01*
X24120000Y-5740000D02*
X24080000Y-5780000D01*
X24085000Y-5330000D02*
X24125000Y-5370000D01*
X24125000Y-5330000D02*
X24085000Y-5370000D01*
X24465000Y-7030000D02*
X24505000Y-7070000D01*
X24505000Y-7030000D02*
X24465000Y-7070000D01*
X24475000Y-5335000D02*
X24515000Y-5375000D01*
X24515000Y-5335000D02*
X24475000Y-5375000D01*
X24475000Y-5725000D02*
X24515000Y-5765000D01*
X24515000Y-5725000D02*
X24475000Y-5765000D01*
D12*
X19685000Y-5962500D02*
G75*
G02*
X19555000Y-5962500I-65000J0D01*
G01*
X19555000Y-5962500D02*
G75*
G02*
X19685000Y-5962500I65000J0D01*
G01*
X19685000Y-6978500D02*
G75*
G02*
X19555000Y-6978500I-65000J0D01*
G01*
X19555000Y-6978500D02*
G75*
G02*
X19685000Y-6978500I65000J0D01*
G01*
X19685000Y-7740500D02*
G75*
G02*
X19555000Y-7740500I-65000J0D01*
G01*
X19555000Y-7740500D02*
G75*
G02*
X19685000Y-7740500I65000J0D01*
G01*
X20447000Y-5962500D02*
G75*
G02*
X20317000Y-5962500I-65000J0D01*
G01*
X20317000Y-5962500D02*
G75*
G02*
X20447000Y-5962500I65000J0D01*
G01*
D13*
X25000000Y-6425000D02*
X25000000Y-6775000D01*
X24825000Y-6600000D02*
X25175000Y-6600000D01*
D11*
X18410777Y-8316484D02*
X18410777Y-8116484D01*
X18410777Y-8116484D02*
X18458396Y-8116484D01*
X18458396Y-8116484D02*
X18486967Y-8126008D01*
X18486967Y-8126008D02*
X18506015Y-8145055D01*
X18506015Y-8145055D02*
X18515539Y-8164103D01*
X18515539Y-8164103D02*
X18525063Y-8202198D01*
X18525063Y-8202198D02*
X18525063Y-8230769D01*
X18525063Y-8230769D02*
X18515539Y-8268865D01*
X18515539Y-8268865D02*
X18506015Y-8287912D01*
X18506015Y-8287912D02*
X18486967Y-8306960D01*
X18486967Y-8306960D02*
X18458396Y-8316484D01*
X18458396Y-8316484D02*
X18410777Y-8316484D01*
X18610777Y-8316484D02*
X18610777Y-8183150D01*
X18610777Y-8221246D02*
X18620301Y-8202198D01*
X18620301Y-8202198D02*
X18629824Y-8192674D01*
X18629824Y-8192674D02*
X18648872Y-8183150D01*
X18648872Y-8183150D02*
X18667920Y-8183150D01*
X18734586Y-8316484D02*
X18734586Y-8183150D01*
X18734586Y-8116484D02*
X18725063Y-8126008D01*
X18725063Y-8126008D02*
X18734586Y-8135531D01*
X18734586Y-8135531D02*
X18744110Y-8126008D01*
X18744110Y-8126008D02*
X18734586Y-8116484D01*
X18734586Y-8116484D02*
X18734586Y-8135531D01*
X18858396Y-8316484D02*
X18839348Y-8306960D01*
X18839348Y-8306960D02*
X18829824Y-8287912D01*
X18829824Y-8287912D02*
X18829824Y-8116484D01*
X18963158Y-8316484D02*
X18944110Y-8306960D01*
X18944110Y-8306960D02*
X18934586Y-8287912D01*
X18934586Y-8287912D02*
X18934586Y-8116484D01*
X19191729Y-8316484D02*
X19191729Y-8116484D01*
X19191729Y-8116484D02*
X19258396Y-8259341D01*
X19258396Y-8259341D02*
X19325063Y-8116484D01*
X19325063Y-8116484D02*
X19325063Y-8316484D01*
X19506015Y-8316484D02*
X19506015Y-8211722D01*
X19506015Y-8211722D02*
X19496491Y-8192674D01*
X19496491Y-8192674D02*
X19477444Y-8183150D01*
X19477444Y-8183150D02*
X19439348Y-8183150D01*
X19439348Y-8183150D02*
X19420301Y-8192674D01*
X19506015Y-8306960D02*
X19486967Y-8316484D01*
X19486967Y-8316484D02*
X19439348Y-8316484D01*
X19439348Y-8316484D02*
X19420301Y-8306960D01*
X19420301Y-8306960D02*
X19410777Y-8287912D01*
X19410777Y-8287912D02*
X19410777Y-8268865D01*
X19410777Y-8268865D02*
X19420301Y-8249817D01*
X19420301Y-8249817D02*
X19439348Y-8240293D01*
X19439348Y-8240293D02*
X19486967Y-8240293D01*
X19486967Y-8240293D02*
X19506015Y-8230769D01*
X19601253Y-8183150D02*
X19601253Y-8383150D01*
X19601253Y-8192674D02*
X19620301Y-8183150D01*
X19620301Y-8183150D02*
X19658396Y-8183150D01*
X19658396Y-8183150D02*
X19677444Y-8192674D01*
X19677444Y-8192674D02*
X19686967Y-8202198D01*
X19686967Y-8202198D02*
X19696491Y-8221246D01*
X19696491Y-8221246D02*
X19696491Y-8278388D01*
X19696491Y-8278388D02*
X19686967Y-8297436D01*
X19686967Y-8297436D02*
X19677444Y-8306960D01*
X19677444Y-8306960D02*
X19658396Y-8316484D01*
X19658396Y-8316484D02*
X19620301Y-8316484D01*
X19620301Y-8316484D02*
X19601253Y-8306960D01*
X19782205Y-8297436D02*
X19791729Y-8306960D01*
X19791729Y-8306960D02*
X19782205Y-8316484D01*
X19782205Y-8316484D02*
X19772682Y-8306960D01*
X19772682Y-8306960D02*
X19782205Y-8297436D01*
X19782205Y-8297436D02*
X19782205Y-8316484D01*
X19782205Y-8192674D02*
X19791729Y-8202198D01*
X19791729Y-8202198D02*
X19782205Y-8211722D01*
X19782205Y-8211722D02*
X19772682Y-8202198D01*
X19772682Y-8202198D02*
X19782205Y-8192674D01*
X19782205Y-8192674D02*
X19782205Y-8211722D01*
D10*
X18110000Y-8625000D02*
X18150000Y-8665000D01*
X18150000Y-8625000D02*
X18110000Y-8665000D01*
D11*
X18448872Y-8536484D02*
X18467920Y-8536484D01*
X18467920Y-8536484D02*
X18486967Y-8546008D01*
X18486967Y-8546008D02*
X18496491Y-8555531D01*
X18496491Y-8555531D02*
X18506015Y-8574579D01*
X18506015Y-8574579D02*
X18515539Y-8612674D01*
X18515539Y-8612674D02*
X18515539Y-8660293D01*
X18515539Y-8660293D02*
X18506015Y-8698389D01*
X18506015Y-8698389D02*
X18496491Y-8717436D01*
X18496491Y-8717436D02*
X18486967Y-8726960D01*
X18486967Y-8726960D02*
X18467920Y-8736484D01*
X18467920Y-8736484D02*
X18448872Y-8736484D01*
X18448872Y-8736484D02*
X18429824Y-8726960D01*
X18429824Y-8726960D02*
X18420301Y-8717436D01*
X18420301Y-8717436D02*
X18410777Y-8698389D01*
X18410777Y-8698389D02*
X18401253Y-8660293D01*
X18401253Y-8660293D02*
X18401253Y-8612674D01*
X18401253Y-8612674D02*
X18410777Y-8574579D01*
X18410777Y-8574579D02*
X18420301Y-8555531D01*
X18420301Y-8555531D02*
X18429824Y-8546008D01*
X18429824Y-8546008D02*
X18448872Y-8536484D01*
X18601253Y-8717436D02*
X18610777Y-8726960D01*
X18610777Y-8726960D02*
X18601253Y-8736484D01*
X18601253Y-8736484D02*
X18591729Y-8726960D01*
X18591729Y-8726960D02*
X18601253Y-8717436D01*
X18601253Y-8717436D02*
X18601253Y-8736484D01*
X18782205Y-8603150D02*
X18782205Y-8736484D01*
X18734586Y-8526960D02*
X18686967Y-8669817D01*
X18686967Y-8669817D02*
X18810777Y-8669817D01*
X18925063Y-8536484D02*
X18944110Y-8536484D01*
X18944110Y-8536484D02*
X18963158Y-8546008D01*
X18963158Y-8546008D02*
X18972682Y-8555531D01*
X18972682Y-8555531D02*
X18982205Y-8574579D01*
X18982205Y-8574579D02*
X18991729Y-8612674D01*
X18991729Y-8612674D02*
X18991729Y-8660293D01*
X18991729Y-8660293D02*
X18982205Y-8698389D01*
X18982205Y-8698389D02*
X18972682Y-8717436D01*
X18972682Y-8717436D02*
X18963158Y-8726960D01*
X18963158Y-8726960D02*
X18944110Y-8736484D01*
X18944110Y-8736484D02*
X18925063Y-8736484D01*
X18925063Y-8736484D02*
X18906015Y-8726960D01*
X18906015Y-8726960D02*
X18896491Y-8717436D01*
X18896491Y-8717436D02*
X18886967Y-8698389D01*
X18886967Y-8698389D02*
X18877444Y-8660293D01*
X18877444Y-8660293D02*
X18877444Y-8612674D01*
X18877444Y-8612674D02*
X18886967Y-8574579D01*
X18886967Y-8574579D02*
X18896491Y-8555531D01*
X18896491Y-8555531D02*
X18906015Y-8546008D01*
X18906015Y-8546008D02*
X18925063Y-8536484D01*
X19115539Y-8536484D02*
X19134586Y-8536484D01*
X19134586Y-8536484D02*
X19153634Y-8546008D01*
X19153634Y-8546008D02*
X19163158Y-8555531D01*
X19163158Y-8555531D02*
X19172682Y-8574579D01*
X19172682Y-8574579D02*
X19182205Y-8612674D01*
X19182205Y-8612674D02*
X19182205Y-8660293D01*
X19182205Y-8660293D02*
X19172682Y-8698389D01*
X19172682Y-8698389D02*
X19163158Y-8717436D01*
X19163158Y-8717436D02*
X19153634Y-8726960D01*
X19153634Y-8726960D02*
X19134586Y-8736484D01*
X19134586Y-8736484D02*
X19115539Y-8736484D01*
X19115539Y-8736484D02*
X19096491Y-8726960D01*
X19096491Y-8726960D02*
X19086967Y-8717436D01*
X19086967Y-8717436D02*
X19077444Y-8698389D01*
X19077444Y-8698389D02*
X19067920Y-8660293D01*
X19067920Y-8660293D02*
X19067920Y-8612674D01*
X19067920Y-8612674D02*
X19077444Y-8574579D01*
X19077444Y-8574579D02*
X19086967Y-8555531D01*
X19086967Y-8555531D02*
X19096491Y-8546008D01*
X19096491Y-8546008D02*
X19115539Y-8536484D01*
X19267920Y-8736484D02*
X19267920Y-8603150D01*
X19267920Y-8622198D02*
X19277444Y-8612674D01*
X19277444Y-8612674D02*
X19296491Y-8603150D01*
X19296491Y-8603150D02*
X19325063Y-8603150D01*
X19325063Y-8603150D02*
X19344110Y-8612674D01*
X19344110Y-8612674D02*
X19353634Y-8631722D01*
X19353634Y-8631722D02*
X19353634Y-8736484D01*
X19353634Y-8631722D02*
X19363158Y-8612674D01*
X19363158Y-8612674D02*
X19382205Y-8603150D01*
X19382205Y-8603150D02*
X19410777Y-8603150D01*
X19410777Y-8603150D02*
X19429825Y-8612674D01*
X19429825Y-8612674D02*
X19439348Y-8631722D01*
X19439348Y-8631722D02*
X19439348Y-8736484D01*
X19534586Y-8736484D02*
X19534586Y-8603150D01*
X19534586Y-8622198D02*
X19544110Y-8612674D01*
X19544110Y-8612674D02*
X19563158Y-8603150D01*
X19563158Y-8603150D02*
X19591729Y-8603150D01*
X19591729Y-8603150D02*
X19610777Y-8612674D01*
X19610777Y-8612674D02*
X19620301Y-8631722D01*
X19620301Y-8631722D02*
X19620301Y-8736484D01*
X19620301Y-8631722D02*
X19629825Y-8612674D01*
X19629825Y-8612674D02*
X19648872Y-8603150D01*
X19648872Y-8603150D02*
X19677444Y-8603150D01*
X19677444Y-8603150D02*
X19696491Y-8612674D01*
X19696491Y-8612674D02*
X19706015Y-8631722D01*
X19706015Y-8631722D02*
X19706015Y-8736484D01*
X20096491Y-8526960D02*
X19925063Y-8784103D01*
X20353634Y-8536484D02*
X20372682Y-8536484D01*
X20372682Y-8536484D02*
X20391729Y-8546008D01*
X20391729Y-8546008D02*
X20401253Y-8555531D01*
X20401253Y-8555531D02*
X20410777Y-8574579D01*
X20410777Y-8574579D02*
X20420301Y-8612674D01*
X20420301Y-8612674D02*
X20420301Y-8660293D01*
X20420301Y-8660293D02*
X20410777Y-8698389D01*
X20410777Y-8698389D02*
X20401253Y-8717436D01*
X20401253Y-8717436D02*
X20391729Y-8726960D01*
X20391729Y-8726960D02*
X20372682Y-8736484D01*
X20372682Y-8736484D02*
X20353634Y-8736484D01*
X20353634Y-8736484D02*
X20334587Y-8726960D01*
X20334587Y-8726960D02*
X20325063Y-8717436D01*
X20325063Y-8717436D02*
X20315539Y-8698389D01*
X20315539Y-8698389D02*
X20306015Y-8660293D01*
X20306015Y-8660293D02*
X20306015Y-8612674D01*
X20306015Y-8612674D02*
X20315539Y-8574579D01*
X20315539Y-8574579D02*
X20325063Y-8555531D01*
X20325063Y-8555531D02*
X20334587Y-8546008D01*
X20334587Y-8546008D02*
X20353634Y-8536484D01*
X20506015Y-8717436D02*
X20515539Y-8726960D01*
X20515539Y-8726960D02*
X20506015Y-8736484D01*
X20506015Y-8736484D02*
X20496491Y-8726960D01*
X20496491Y-8726960D02*
X20506015Y-8717436D01*
X20506015Y-8717436D02*
X20506015Y-8736484D01*
X20639348Y-8536484D02*
X20658396Y-8536484D01*
X20658396Y-8536484D02*
X20677444Y-8546008D01*
X20677444Y-8546008D02*
X20686968Y-8555531D01*
X20686968Y-8555531D02*
X20696491Y-8574579D01*
X20696491Y-8574579D02*
X20706015Y-8612674D01*
X20706015Y-8612674D02*
X20706015Y-8660293D01*
X20706015Y-8660293D02*
X20696491Y-8698389D01*
X20696491Y-8698389D02*
X20686968Y-8717436D01*
X20686968Y-8717436D02*
X20677444Y-8726960D01*
X20677444Y-8726960D02*
X20658396Y-8736484D01*
X20658396Y-8736484D02*
X20639348Y-8736484D01*
X20639348Y-8736484D02*
X20620301Y-8726960D01*
X20620301Y-8726960D02*
X20610777Y-8717436D01*
X20610777Y-8717436D02*
X20601253Y-8698389D01*
X20601253Y-8698389D02*
X20591729Y-8660293D01*
X20591729Y-8660293D02*
X20591729Y-8612674D01*
X20591729Y-8612674D02*
X20601253Y-8574579D01*
X20601253Y-8574579D02*
X20610777Y-8555531D01*
X20610777Y-8555531D02*
X20620301Y-8546008D01*
X20620301Y-8546008D02*
X20639348Y-8536484D01*
X20896491Y-8736484D02*
X20782206Y-8736484D01*
X20839348Y-8736484D02*
X20839348Y-8536484D01*
X20839348Y-8536484D02*
X20820301Y-8565055D01*
X20820301Y-8565055D02*
X20801253Y-8584103D01*
X20801253Y-8584103D02*
X20782206Y-8593627D01*
X21077444Y-8536484D02*
X20982206Y-8536484D01*
X20982206Y-8536484D02*
X20972682Y-8631722D01*
X20972682Y-8631722D02*
X20982206Y-8622198D01*
X20982206Y-8622198D02*
X21001253Y-8612674D01*
X21001253Y-8612674D02*
X21048872Y-8612674D01*
X21048872Y-8612674D02*
X21067920Y-8622198D01*
X21067920Y-8622198D02*
X21077444Y-8631722D01*
X21077444Y-8631722D02*
X21086968Y-8650770D01*
X21086968Y-8650770D02*
X21086968Y-8698389D01*
X21086968Y-8698389D02*
X21077444Y-8717436D01*
X21077444Y-8717436D02*
X21067920Y-8726960D01*
X21067920Y-8726960D02*
X21048872Y-8736484D01*
X21048872Y-8736484D02*
X21001253Y-8736484D01*
X21001253Y-8736484D02*
X20982206Y-8726960D01*
X20982206Y-8726960D02*
X20972682Y-8717436D01*
X21153634Y-8536484D02*
X21286968Y-8536484D01*
X21286968Y-8536484D02*
X21201253Y-8736484D01*
X21353634Y-8536484D02*
X21353634Y-8574579D01*
X21429825Y-8536484D02*
X21429825Y-8574579D01*
X21725063Y-8812674D02*
X21715539Y-8803150D01*
X21715539Y-8803150D02*
X21696491Y-8774579D01*
X21696491Y-8774579D02*
X21686968Y-8755531D01*
X21686968Y-8755531D02*
X21677444Y-8726960D01*
X21677444Y-8726960D02*
X21667920Y-8679341D01*
X21667920Y-8679341D02*
X21667920Y-8641246D01*
X21667920Y-8641246D02*
X21677444Y-8593627D01*
X21677444Y-8593627D02*
X21686968Y-8565055D01*
X21686968Y-8565055D02*
X21696491Y-8546008D01*
X21696491Y-8546008D02*
X21715539Y-8517436D01*
X21715539Y-8517436D02*
X21725063Y-8507912D01*
X21782206Y-8536484D02*
X21906015Y-8536484D01*
X21906015Y-8536484D02*
X21839349Y-8612674D01*
X21839349Y-8612674D02*
X21867920Y-8612674D01*
X21867920Y-8612674D02*
X21886968Y-8622198D01*
X21886968Y-8622198D02*
X21896491Y-8631722D01*
X21896491Y-8631722D02*
X21906015Y-8650770D01*
X21906015Y-8650770D02*
X21906015Y-8698389D01*
X21906015Y-8698389D02*
X21896491Y-8717436D01*
X21896491Y-8717436D02*
X21886968Y-8726960D01*
X21886968Y-8726960D02*
X21867920Y-8736484D01*
X21867920Y-8736484D02*
X21810777Y-8736484D01*
X21810777Y-8736484D02*
X21791730Y-8726960D01*
X21791730Y-8726960D02*
X21782206Y-8717436D01*
X22029825Y-8536484D02*
X22048872Y-8536484D01*
X22048872Y-8536484D02*
X22067920Y-8546008D01*
X22067920Y-8546008D02*
X22077444Y-8555531D01*
X22077444Y-8555531D02*
X22086968Y-8574579D01*
X22086968Y-8574579D02*
X22096491Y-8612674D01*
X22096491Y-8612674D02*
X22096491Y-8660293D01*
X22096491Y-8660293D02*
X22086968Y-8698389D01*
X22086968Y-8698389D02*
X22077444Y-8717436D01*
X22077444Y-8717436D02*
X22067920Y-8726960D01*
X22067920Y-8726960D02*
X22048872Y-8736484D01*
X22048872Y-8736484D02*
X22029825Y-8736484D01*
X22029825Y-8736484D02*
X22010777Y-8726960D01*
X22010777Y-8726960D02*
X22001253Y-8717436D01*
X22001253Y-8717436D02*
X21991730Y-8698389D01*
X21991730Y-8698389D02*
X21982206Y-8660293D01*
X21982206Y-8660293D02*
X21982206Y-8612674D01*
X21982206Y-8612674D02*
X21991730Y-8574579D01*
X21991730Y-8574579D02*
X22001253Y-8555531D01*
X22001253Y-8555531D02*
X22010777Y-8546008D01*
X22010777Y-8546008D02*
X22029825Y-8536484D01*
X22334587Y-8736484D02*
X22334587Y-8536484D01*
X22420301Y-8736484D02*
X22420301Y-8631722D01*
X22420301Y-8631722D02*
X22410777Y-8612674D01*
X22410777Y-8612674D02*
X22391730Y-8603150D01*
X22391730Y-8603150D02*
X22363158Y-8603150D01*
X22363158Y-8603150D02*
X22344111Y-8612674D01*
X22344111Y-8612674D02*
X22334587Y-8622198D01*
X22544110Y-8736484D02*
X22525063Y-8726960D01*
X22525063Y-8726960D02*
X22515539Y-8717436D01*
X22515539Y-8717436D02*
X22506015Y-8698389D01*
X22506015Y-8698389D02*
X22506015Y-8641246D01*
X22506015Y-8641246D02*
X22515539Y-8622198D01*
X22515539Y-8622198D02*
X22525063Y-8612674D01*
X22525063Y-8612674D02*
X22544110Y-8603150D01*
X22544110Y-8603150D02*
X22572682Y-8603150D01*
X22572682Y-8603150D02*
X22591730Y-8612674D01*
X22591730Y-8612674D02*
X22601253Y-8622198D01*
X22601253Y-8622198D02*
X22610777Y-8641246D01*
X22610777Y-8641246D02*
X22610777Y-8698389D01*
X22610777Y-8698389D02*
X22601253Y-8717436D01*
X22601253Y-8717436D02*
X22591730Y-8726960D01*
X22591730Y-8726960D02*
X22572682Y-8736484D01*
X22572682Y-8736484D02*
X22544110Y-8736484D01*
X22725063Y-8736484D02*
X22706015Y-8726960D01*
X22706015Y-8726960D02*
X22696491Y-8707912D01*
X22696491Y-8707912D02*
X22696491Y-8536484D01*
X22877444Y-8726960D02*
X22858396Y-8736484D01*
X22858396Y-8736484D02*
X22820301Y-8736484D01*
X22820301Y-8736484D02*
X22801253Y-8726960D01*
X22801253Y-8726960D02*
X22791730Y-8707912D01*
X22791730Y-8707912D02*
X22791730Y-8631722D01*
X22791730Y-8631722D02*
X22801253Y-8612674D01*
X22801253Y-8612674D02*
X22820301Y-8603150D01*
X22820301Y-8603150D02*
X22858396Y-8603150D01*
X22858396Y-8603150D02*
X22877444Y-8612674D01*
X22877444Y-8612674D02*
X22886968Y-8631722D01*
X22886968Y-8631722D02*
X22886968Y-8650770D01*
X22886968Y-8650770D02*
X22791730Y-8669817D01*
X22963158Y-8726960D02*
X22982206Y-8736484D01*
X22982206Y-8736484D02*
X23020301Y-8736484D01*
X23020301Y-8736484D02*
X23039349Y-8726960D01*
X23039349Y-8726960D02*
X23048872Y-8707912D01*
X23048872Y-8707912D02*
X23048872Y-8698389D01*
X23048872Y-8698389D02*
X23039349Y-8679341D01*
X23039349Y-8679341D02*
X23020301Y-8669817D01*
X23020301Y-8669817D02*
X22991730Y-8669817D01*
X22991730Y-8669817D02*
X22972682Y-8660293D01*
X22972682Y-8660293D02*
X22963158Y-8641246D01*
X22963158Y-8641246D02*
X22963158Y-8631722D01*
X22963158Y-8631722D02*
X22972682Y-8612674D01*
X22972682Y-8612674D02*
X22991730Y-8603150D01*
X22991730Y-8603150D02*
X23020301Y-8603150D01*
X23020301Y-8603150D02*
X23039349Y-8612674D01*
X23115539Y-8812674D02*
X23125063Y-8803150D01*
X23125063Y-8803150D02*
X23144111Y-8774579D01*
X23144111Y-8774579D02*
X23153634Y-8755531D01*
X23153634Y-8755531D02*
X23163158Y-8726960D01*
X23163158Y-8726960D02*
X23172682Y-8679341D01*
X23172682Y-8679341D02*
X23172682Y-8641246D01*
X23172682Y-8641246D02*
X23163158Y-8593627D01*
X23163158Y-8593627D02*
X23153634Y-8565055D01*
X23153634Y-8565055D02*
X23144111Y-8546008D01*
X23144111Y-8546008D02*
X23125063Y-8517436D01*
X23125063Y-8517436D02*
X23115539Y-8507912D01*
D12*
X18150000Y-8909000D02*
G75*
G02*
X18020000Y-8909000I-65000J0D01*
G01*
X18020000Y-8909000D02*
G75*
G02*
X18150000Y-8909000I65000J0D01*
G01*
D11*
X18515539Y-9000484D02*
X18401253Y-9000484D01*
X18458396Y-9000484D02*
X18458396Y-8800484D01*
X18458396Y-8800484D02*
X18439348Y-8829055D01*
X18439348Y-8829055D02*
X18420301Y-8848103D01*
X18420301Y-8848103D02*
X18401253Y-8857627D01*
X18601253Y-8981436D02*
X18610777Y-8990960D01*
X18610777Y-8990960D02*
X18601253Y-9000484D01*
X18601253Y-9000484D02*
X18591729Y-8990960D01*
X18591729Y-8990960D02*
X18601253Y-8981436D01*
X18601253Y-8981436D02*
X18601253Y-9000484D01*
X18677444Y-8800484D02*
X18801253Y-8800484D01*
X18801253Y-8800484D02*
X18734586Y-8876674D01*
X18734586Y-8876674D02*
X18763158Y-8876674D01*
X18763158Y-8876674D02*
X18782205Y-8886198D01*
X18782205Y-8886198D02*
X18791729Y-8895722D01*
X18791729Y-8895722D02*
X18801253Y-8914770D01*
X18801253Y-8914770D02*
X18801253Y-8962389D01*
X18801253Y-8962389D02*
X18791729Y-8981436D01*
X18791729Y-8981436D02*
X18782205Y-8990960D01*
X18782205Y-8990960D02*
X18763158Y-9000484D01*
X18763158Y-9000484D02*
X18706015Y-9000484D01*
X18706015Y-9000484D02*
X18686967Y-8990960D01*
X18686967Y-8990960D02*
X18677444Y-8981436D01*
X18925063Y-8800484D02*
X18944110Y-8800484D01*
X18944110Y-8800484D02*
X18963158Y-8810008D01*
X18963158Y-8810008D02*
X18972682Y-8819531D01*
X18972682Y-8819531D02*
X18982205Y-8838579D01*
X18982205Y-8838579D02*
X18991729Y-8876674D01*
X18991729Y-8876674D02*
X18991729Y-8924293D01*
X18991729Y-8924293D02*
X18982205Y-8962389D01*
X18982205Y-8962389D02*
X18972682Y-8981436D01*
X18972682Y-8981436D02*
X18963158Y-8990960D01*
X18963158Y-8990960D02*
X18944110Y-9000484D01*
X18944110Y-9000484D02*
X18925063Y-9000484D01*
X18925063Y-9000484D02*
X18906015Y-8990960D01*
X18906015Y-8990960D02*
X18896491Y-8981436D01*
X18896491Y-8981436D02*
X18886967Y-8962389D01*
X18886967Y-8962389D02*
X18877444Y-8924293D01*
X18877444Y-8924293D02*
X18877444Y-8876674D01*
X18877444Y-8876674D02*
X18886967Y-8838579D01*
X18886967Y-8838579D02*
X18896491Y-8819531D01*
X18896491Y-8819531D02*
X18906015Y-8810008D01*
X18906015Y-8810008D02*
X18925063Y-8800484D01*
X19115539Y-8800484D02*
X19134586Y-8800484D01*
X19134586Y-8800484D02*
X19153634Y-8810008D01*
X19153634Y-8810008D02*
X19163158Y-8819531D01*
X19163158Y-8819531D02*
X19172682Y-8838579D01*
X19172682Y-8838579D02*
X19182205Y-8876674D01*
X19182205Y-8876674D02*
X19182205Y-8924293D01*
X19182205Y-8924293D02*
X19172682Y-8962389D01*
X19172682Y-8962389D02*
X19163158Y-8981436D01*
X19163158Y-8981436D02*
X19153634Y-8990960D01*
X19153634Y-8990960D02*
X19134586Y-9000484D01*
X19134586Y-9000484D02*
X19115539Y-9000484D01*
X19115539Y-9000484D02*
X19096491Y-8990960D01*
X19096491Y-8990960D02*
X19086967Y-8981436D01*
X19086967Y-8981436D02*
X19077444Y-8962389D01*
X19077444Y-8962389D02*
X19067920Y-8924293D01*
X19067920Y-8924293D02*
X19067920Y-8876674D01*
X19067920Y-8876674D02*
X19077444Y-8838579D01*
X19077444Y-8838579D02*
X19086967Y-8819531D01*
X19086967Y-8819531D02*
X19096491Y-8810008D01*
X19096491Y-8810008D02*
X19115539Y-8800484D01*
X19267920Y-9000484D02*
X19267920Y-8867150D01*
X19267920Y-8886198D02*
X19277444Y-8876674D01*
X19277444Y-8876674D02*
X19296491Y-8867150D01*
X19296491Y-8867150D02*
X19325063Y-8867150D01*
X19325063Y-8867150D02*
X19344110Y-8876674D01*
X19344110Y-8876674D02*
X19353634Y-8895722D01*
X19353634Y-8895722D02*
X19353634Y-9000484D01*
X19353634Y-8895722D02*
X19363158Y-8876674D01*
X19363158Y-8876674D02*
X19382205Y-8867150D01*
X19382205Y-8867150D02*
X19410777Y-8867150D01*
X19410777Y-8867150D02*
X19429825Y-8876674D01*
X19429825Y-8876674D02*
X19439348Y-8895722D01*
X19439348Y-8895722D02*
X19439348Y-9000484D01*
X19534586Y-9000484D02*
X19534586Y-8867150D01*
X19534586Y-8886198D02*
X19544110Y-8876674D01*
X19544110Y-8876674D02*
X19563158Y-8867150D01*
X19563158Y-8867150D02*
X19591729Y-8867150D01*
X19591729Y-8867150D02*
X19610777Y-8876674D01*
X19610777Y-8876674D02*
X19620301Y-8895722D01*
X19620301Y-8895722D02*
X19620301Y-9000484D01*
X19620301Y-8895722D02*
X19629825Y-8876674D01*
X19629825Y-8876674D02*
X19648872Y-8867150D01*
X19648872Y-8867150D02*
X19677444Y-8867150D01*
X19677444Y-8867150D02*
X19696491Y-8876674D01*
X19696491Y-8876674D02*
X19706015Y-8895722D01*
X19706015Y-8895722D02*
X19706015Y-9000484D01*
X20096491Y-8790960D02*
X19925063Y-9048103D01*
X20353634Y-8800484D02*
X20372682Y-8800484D01*
X20372682Y-8800484D02*
X20391729Y-8810008D01*
X20391729Y-8810008D02*
X20401253Y-8819531D01*
X20401253Y-8819531D02*
X20410777Y-8838579D01*
X20410777Y-8838579D02*
X20420301Y-8876674D01*
X20420301Y-8876674D02*
X20420301Y-8924293D01*
X20420301Y-8924293D02*
X20410777Y-8962389D01*
X20410777Y-8962389D02*
X20401253Y-8981436D01*
X20401253Y-8981436D02*
X20391729Y-8990960D01*
X20391729Y-8990960D02*
X20372682Y-9000484D01*
X20372682Y-9000484D02*
X20353634Y-9000484D01*
X20353634Y-9000484D02*
X20334587Y-8990960D01*
X20334587Y-8990960D02*
X20325063Y-8981436D01*
X20325063Y-8981436D02*
X20315539Y-8962389D01*
X20315539Y-8962389D02*
X20306015Y-8924293D01*
X20306015Y-8924293D02*
X20306015Y-8876674D01*
X20306015Y-8876674D02*
X20315539Y-8838579D01*
X20315539Y-8838579D02*
X20325063Y-8819531D01*
X20325063Y-8819531D02*
X20334587Y-8810008D01*
X20334587Y-8810008D02*
X20353634Y-8800484D01*
X20506015Y-8981436D02*
X20515539Y-8990960D01*
X20515539Y-8990960D02*
X20506015Y-9000484D01*
X20506015Y-9000484D02*
X20496491Y-8990960D01*
X20496491Y-8990960D02*
X20506015Y-8981436D01*
X20506015Y-8981436D02*
X20506015Y-9000484D01*
X20639348Y-8800484D02*
X20658396Y-8800484D01*
X20658396Y-8800484D02*
X20677444Y-8810008D01*
X20677444Y-8810008D02*
X20686968Y-8819531D01*
X20686968Y-8819531D02*
X20696491Y-8838579D01*
X20696491Y-8838579D02*
X20706015Y-8876674D01*
X20706015Y-8876674D02*
X20706015Y-8924293D01*
X20706015Y-8924293D02*
X20696491Y-8962389D01*
X20696491Y-8962389D02*
X20686968Y-8981436D01*
X20686968Y-8981436D02*
X20677444Y-8990960D01*
X20677444Y-8990960D02*
X20658396Y-9000484D01*
X20658396Y-9000484D02*
X20639348Y-9000484D01*
X20639348Y-9000484D02*
X20620301Y-8990960D01*
X20620301Y-8990960D02*
X20610777Y-8981436D01*
X20610777Y-8981436D02*
X20601253Y-8962389D01*
X20601253Y-8962389D02*
X20591729Y-8924293D01*
X20591729Y-8924293D02*
X20591729Y-8876674D01*
X20591729Y-8876674D02*
X20601253Y-8838579D01*
X20601253Y-8838579D02*
X20610777Y-8819531D01*
X20610777Y-8819531D02*
X20620301Y-8810008D01*
X20620301Y-8810008D02*
X20639348Y-8800484D01*
X20886968Y-8800484D02*
X20791729Y-8800484D01*
X20791729Y-8800484D02*
X20782206Y-8895722D01*
X20782206Y-8895722D02*
X20791729Y-8886198D01*
X20791729Y-8886198D02*
X20810777Y-8876674D01*
X20810777Y-8876674D02*
X20858396Y-8876674D01*
X20858396Y-8876674D02*
X20877444Y-8886198D01*
X20877444Y-8886198D02*
X20886968Y-8895722D01*
X20886968Y-8895722D02*
X20896491Y-8914770D01*
X20896491Y-8914770D02*
X20896491Y-8962389D01*
X20896491Y-8962389D02*
X20886968Y-8981436D01*
X20886968Y-8981436D02*
X20877444Y-8990960D01*
X20877444Y-8990960D02*
X20858396Y-9000484D01*
X20858396Y-9000484D02*
X20810777Y-9000484D01*
X20810777Y-9000484D02*
X20791729Y-8990960D01*
X20791729Y-8990960D02*
X20782206Y-8981436D01*
X21086968Y-9000484D02*
X20972682Y-9000484D01*
X21029825Y-9000484D02*
X21029825Y-8800484D01*
X21029825Y-8800484D02*
X21010777Y-8829055D01*
X21010777Y-8829055D02*
X20991729Y-8848103D01*
X20991729Y-8848103D02*
X20972682Y-8857627D01*
X21163158Y-8819531D02*
X21172682Y-8810008D01*
X21172682Y-8810008D02*
X21191729Y-8800484D01*
X21191729Y-8800484D02*
X21239349Y-8800484D01*
X21239349Y-8800484D02*
X21258396Y-8810008D01*
X21258396Y-8810008D02*
X21267920Y-8819531D01*
X21267920Y-8819531D02*
X21277444Y-8838579D01*
X21277444Y-8838579D02*
X21277444Y-8857627D01*
X21277444Y-8857627D02*
X21267920Y-8886198D01*
X21267920Y-8886198D02*
X21153634Y-9000484D01*
X21153634Y-9000484D02*
X21277444Y-9000484D01*
X21353634Y-8800484D02*
X21353634Y-8838579D01*
X21429825Y-8800484D02*
X21429825Y-8838579D01*
X21725063Y-9076674D02*
X21715539Y-9067150D01*
X21715539Y-9067150D02*
X21696491Y-9038579D01*
X21696491Y-9038579D02*
X21686968Y-9019531D01*
X21686968Y-9019531D02*
X21677444Y-8990960D01*
X21677444Y-8990960D02*
X21667920Y-8943341D01*
X21667920Y-8943341D02*
X21667920Y-8905246D01*
X21667920Y-8905246D02*
X21677444Y-8857627D01*
X21677444Y-8857627D02*
X21686968Y-8829055D01*
X21686968Y-8829055D02*
X21696491Y-8810008D01*
X21696491Y-8810008D02*
X21715539Y-8781436D01*
X21715539Y-8781436D02*
X21725063Y-8771912D01*
X21886968Y-8867150D02*
X21886968Y-9000484D01*
X21839349Y-8790960D02*
X21791730Y-8933817D01*
X21791730Y-8933817D02*
X21915539Y-8933817D01*
X22144111Y-9000484D02*
X22144111Y-8800484D01*
X22229825Y-9000484D02*
X22229825Y-8895722D01*
X22229825Y-8895722D02*
X22220301Y-8876674D01*
X22220301Y-8876674D02*
X22201253Y-8867150D01*
X22201253Y-8867150D02*
X22172682Y-8867150D01*
X22172682Y-8867150D02*
X22153634Y-8876674D01*
X22153634Y-8876674D02*
X22144111Y-8886198D01*
X22353634Y-9000484D02*
X22334587Y-8990960D01*
X22334587Y-8990960D02*
X22325063Y-8981436D01*
X22325063Y-8981436D02*
X22315539Y-8962389D01*
X22315539Y-8962389D02*
X22315539Y-8905246D01*
X22315539Y-8905246D02*
X22325063Y-8886198D01*
X22325063Y-8886198D02*
X22334587Y-8876674D01*
X22334587Y-8876674D02*
X22353634Y-8867150D01*
X22353634Y-8867150D02*
X22382206Y-8867150D01*
X22382206Y-8867150D02*
X22401253Y-8876674D01*
X22401253Y-8876674D02*
X22410777Y-8886198D01*
X22410777Y-8886198D02*
X22420301Y-8905246D01*
X22420301Y-8905246D02*
X22420301Y-8962389D01*
X22420301Y-8962389D02*
X22410777Y-8981436D01*
X22410777Y-8981436D02*
X22401253Y-8990960D01*
X22401253Y-8990960D02*
X22382206Y-9000484D01*
X22382206Y-9000484D02*
X22353634Y-9000484D01*
X22534587Y-9000484D02*
X22515539Y-8990960D01*
X22515539Y-8990960D02*
X22506015Y-8971912D01*
X22506015Y-8971912D02*
X22506015Y-8800484D01*
X22686968Y-8990960D02*
X22667920Y-9000484D01*
X22667920Y-9000484D02*
X22629825Y-9000484D01*
X22629825Y-9000484D02*
X22610777Y-8990960D01*
X22610777Y-8990960D02*
X22601253Y-8971912D01*
X22601253Y-8971912D02*
X22601253Y-8895722D01*
X22601253Y-8895722D02*
X22610777Y-8876674D01*
X22610777Y-8876674D02*
X22629825Y-8867150D01*
X22629825Y-8867150D02*
X22667920Y-8867150D01*
X22667920Y-8867150D02*
X22686968Y-8876674D01*
X22686968Y-8876674D02*
X22696491Y-8895722D01*
X22696491Y-8895722D02*
X22696491Y-8914770D01*
X22696491Y-8914770D02*
X22601253Y-8933817D01*
X22772682Y-8990960D02*
X22791730Y-9000484D01*
X22791730Y-9000484D02*
X22829825Y-9000484D01*
X22829825Y-9000484D02*
X22848872Y-8990960D01*
X22848872Y-8990960D02*
X22858396Y-8971912D01*
X22858396Y-8971912D02*
X22858396Y-8962389D01*
X22858396Y-8962389D02*
X22848872Y-8943341D01*
X22848872Y-8943341D02*
X22829825Y-8933817D01*
X22829825Y-8933817D02*
X22801253Y-8933817D01*
X22801253Y-8933817D02*
X22782206Y-8924293D01*
X22782206Y-8924293D02*
X22772682Y-8905246D01*
X22772682Y-8905246D02*
X22772682Y-8895722D01*
X22772682Y-8895722D02*
X22782206Y-8876674D01*
X22782206Y-8876674D02*
X22801253Y-8867150D01*
X22801253Y-8867150D02*
X22829825Y-8867150D01*
X22829825Y-8867150D02*
X22848872Y-8876674D01*
X22925063Y-9076674D02*
X22934587Y-9067150D01*
X22934587Y-9067150D02*
X22953634Y-9038579D01*
X22953634Y-9038579D02*
X22963158Y-9019531D01*
X22963158Y-9019531D02*
X22972682Y-8990960D01*
X22972682Y-8990960D02*
X22982206Y-8943341D01*
X22982206Y-8943341D02*
X22982206Y-8905246D01*
X22982206Y-8905246D02*
X22972682Y-8857627D01*
X22972682Y-8857627D02*
X22963158Y-8829055D01*
X22963158Y-8829055D02*
X22953634Y-8810008D01*
X22953634Y-8810008D02*
X22934587Y-8781436D01*
X22934587Y-8781436D02*
X22925063Y-8771912D01*
X18050000Y-9073000D02*
X18050000Y-9273000D01*
X17950000Y-9173000D02*
X18150000Y-9173000D01*
X18391729Y-9064484D02*
X18515539Y-9064484D01*
X18515539Y-9064484D02*
X18448872Y-9140674D01*
X18448872Y-9140674D02*
X18477444Y-9140674D01*
X18477444Y-9140674D02*
X18496491Y-9150198D01*
X18496491Y-9150198D02*
X18506015Y-9159722D01*
X18506015Y-9159722D02*
X18515539Y-9178770D01*
X18515539Y-9178770D02*
X18515539Y-9226389D01*
X18515539Y-9226389D02*
X18506015Y-9245436D01*
X18506015Y-9245436D02*
X18496491Y-9254960D01*
X18496491Y-9254960D02*
X18477444Y-9264484D01*
X18477444Y-9264484D02*
X18420301Y-9264484D01*
X18420301Y-9264484D02*
X18401253Y-9254960D01*
X18401253Y-9254960D02*
X18391729Y-9245436D01*
X18601253Y-9245436D02*
X18610777Y-9254960D01*
X18610777Y-9254960D02*
X18601253Y-9264484D01*
X18601253Y-9264484D02*
X18591729Y-9254960D01*
X18591729Y-9254960D02*
X18601253Y-9245436D01*
X18601253Y-9245436D02*
X18601253Y-9264484D01*
X18791729Y-9064484D02*
X18696491Y-9064484D01*
X18696491Y-9064484D02*
X18686967Y-9159722D01*
X18686967Y-9159722D02*
X18696491Y-9150198D01*
X18696491Y-9150198D02*
X18715539Y-9140674D01*
X18715539Y-9140674D02*
X18763158Y-9140674D01*
X18763158Y-9140674D02*
X18782205Y-9150198D01*
X18782205Y-9150198D02*
X18791729Y-9159722D01*
X18791729Y-9159722D02*
X18801253Y-9178770D01*
X18801253Y-9178770D02*
X18801253Y-9226389D01*
X18801253Y-9226389D02*
X18791729Y-9245436D01*
X18791729Y-9245436D02*
X18782205Y-9254960D01*
X18782205Y-9254960D02*
X18763158Y-9264484D01*
X18763158Y-9264484D02*
X18715539Y-9264484D01*
X18715539Y-9264484D02*
X18696491Y-9254960D01*
X18696491Y-9254960D02*
X18686967Y-9245436D01*
X18925063Y-9064484D02*
X18944110Y-9064484D01*
X18944110Y-9064484D02*
X18963158Y-9074008D01*
X18963158Y-9074008D02*
X18972682Y-9083531D01*
X18972682Y-9083531D02*
X18982205Y-9102579D01*
X18982205Y-9102579D02*
X18991729Y-9140674D01*
X18991729Y-9140674D02*
X18991729Y-9188293D01*
X18991729Y-9188293D02*
X18982205Y-9226389D01*
X18982205Y-9226389D02*
X18972682Y-9245436D01*
X18972682Y-9245436D02*
X18963158Y-9254960D01*
X18963158Y-9254960D02*
X18944110Y-9264484D01*
X18944110Y-9264484D02*
X18925063Y-9264484D01*
X18925063Y-9264484D02*
X18906015Y-9254960D01*
X18906015Y-9254960D02*
X18896491Y-9245436D01*
X18896491Y-9245436D02*
X18886967Y-9226389D01*
X18886967Y-9226389D02*
X18877444Y-9188293D01*
X18877444Y-9188293D02*
X18877444Y-9140674D01*
X18877444Y-9140674D02*
X18886967Y-9102579D01*
X18886967Y-9102579D02*
X18896491Y-9083531D01*
X18896491Y-9083531D02*
X18906015Y-9074008D01*
X18906015Y-9074008D02*
X18925063Y-9064484D01*
X19115539Y-9064484D02*
X19134586Y-9064484D01*
X19134586Y-9064484D02*
X19153634Y-9074008D01*
X19153634Y-9074008D02*
X19163158Y-9083531D01*
X19163158Y-9083531D02*
X19172682Y-9102579D01*
X19172682Y-9102579D02*
X19182205Y-9140674D01*
X19182205Y-9140674D02*
X19182205Y-9188293D01*
X19182205Y-9188293D02*
X19172682Y-9226389D01*
X19172682Y-9226389D02*
X19163158Y-9245436D01*
X19163158Y-9245436D02*
X19153634Y-9254960D01*
X19153634Y-9254960D02*
X19134586Y-9264484D01*
X19134586Y-9264484D02*
X19115539Y-9264484D01*
X19115539Y-9264484D02*
X19096491Y-9254960D01*
X19096491Y-9254960D02*
X19086967Y-9245436D01*
X19086967Y-9245436D02*
X19077444Y-9226389D01*
X19077444Y-9226389D02*
X19067920Y-9188293D01*
X19067920Y-9188293D02*
X19067920Y-9140674D01*
X19067920Y-9140674D02*
X19077444Y-9102579D01*
X19077444Y-9102579D02*
X19086967Y-9083531D01*
X19086967Y-9083531D02*
X19096491Y-9074008D01*
X19096491Y-9074008D02*
X19115539Y-9064484D01*
X19267920Y-9264484D02*
X19267920Y-9131150D01*
X19267920Y-9150198D02*
X19277444Y-9140674D01*
X19277444Y-9140674D02*
X19296491Y-9131150D01*
X19296491Y-9131150D02*
X19325063Y-9131150D01*
X19325063Y-9131150D02*
X19344110Y-9140674D01*
X19344110Y-9140674D02*
X19353634Y-9159722D01*
X19353634Y-9159722D02*
X19353634Y-9264484D01*
X19353634Y-9159722D02*
X19363158Y-9140674D01*
X19363158Y-9140674D02*
X19382205Y-9131150D01*
X19382205Y-9131150D02*
X19410777Y-9131150D01*
X19410777Y-9131150D02*
X19429825Y-9140674D01*
X19429825Y-9140674D02*
X19439348Y-9159722D01*
X19439348Y-9159722D02*
X19439348Y-9264484D01*
X19534586Y-9264484D02*
X19534586Y-9131150D01*
X19534586Y-9150198D02*
X19544110Y-9140674D01*
X19544110Y-9140674D02*
X19563158Y-9131150D01*
X19563158Y-9131150D02*
X19591729Y-9131150D01*
X19591729Y-9131150D02*
X19610777Y-9140674D01*
X19610777Y-9140674D02*
X19620301Y-9159722D01*
X19620301Y-9159722D02*
X19620301Y-9264484D01*
X19620301Y-9159722D02*
X19629825Y-9140674D01*
X19629825Y-9140674D02*
X19648872Y-9131150D01*
X19648872Y-9131150D02*
X19677444Y-9131150D01*
X19677444Y-9131150D02*
X19696491Y-9140674D01*
X19696491Y-9140674D02*
X19706015Y-9159722D01*
X19706015Y-9159722D02*
X19706015Y-9264484D01*
X20096491Y-9054960D02*
X19925063Y-9312103D01*
X20353634Y-9064484D02*
X20372682Y-9064484D01*
X20372682Y-9064484D02*
X20391729Y-9074008D01*
X20391729Y-9074008D02*
X20401253Y-9083531D01*
X20401253Y-9083531D02*
X20410777Y-9102579D01*
X20410777Y-9102579D02*
X20420301Y-9140674D01*
X20420301Y-9140674D02*
X20420301Y-9188293D01*
X20420301Y-9188293D02*
X20410777Y-9226389D01*
X20410777Y-9226389D02*
X20401253Y-9245436D01*
X20401253Y-9245436D02*
X20391729Y-9254960D01*
X20391729Y-9254960D02*
X20372682Y-9264484D01*
X20372682Y-9264484D02*
X20353634Y-9264484D01*
X20353634Y-9264484D02*
X20334587Y-9254960D01*
X20334587Y-9254960D02*
X20325063Y-9245436D01*
X20325063Y-9245436D02*
X20315539Y-9226389D01*
X20315539Y-9226389D02*
X20306015Y-9188293D01*
X20306015Y-9188293D02*
X20306015Y-9140674D01*
X20306015Y-9140674D02*
X20315539Y-9102579D01*
X20315539Y-9102579D02*
X20325063Y-9083531D01*
X20325063Y-9083531D02*
X20334587Y-9074008D01*
X20334587Y-9074008D02*
X20353634Y-9064484D01*
X20506015Y-9245436D02*
X20515539Y-9254960D01*
X20515539Y-9254960D02*
X20506015Y-9264484D01*
X20506015Y-9264484D02*
X20496491Y-9254960D01*
X20496491Y-9254960D02*
X20506015Y-9245436D01*
X20506015Y-9245436D02*
X20506015Y-9264484D01*
X20706015Y-9264484D02*
X20591729Y-9264484D01*
X20648872Y-9264484D02*
X20648872Y-9064484D01*
X20648872Y-9064484D02*
X20629825Y-9093055D01*
X20629825Y-9093055D02*
X20610777Y-9112103D01*
X20610777Y-9112103D02*
X20591729Y-9121627D01*
X20772682Y-9064484D02*
X20896491Y-9064484D01*
X20896491Y-9064484D02*
X20829825Y-9140674D01*
X20829825Y-9140674D02*
X20858396Y-9140674D01*
X20858396Y-9140674D02*
X20877444Y-9150198D01*
X20877444Y-9150198D02*
X20886968Y-9159722D01*
X20886968Y-9159722D02*
X20896491Y-9178770D01*
X20896491Y-9178770D02*
X20896491Y-9226389D01*
X20896491Y-9226389D02*
X20886968Y-9245436D01*
X20886968Y-9245436D02*
X20877444Y-9254960D01*
X20877444Y-9254960D02*
X20858396Y-9264484D01*
X20858396Y-9264484D02*
X20801253Y-9264484D01*
X20801253Y-9264484D02*
X20782206Y-9254960D01*
X20782206Y-9254960D02*
X20772682Y-9245436D01*
X20963158Y-9064484D02*
X21096491Y-9064484D01*
X21096491Y-9064484D02*
X21010777Y-9264484D01*
X21201253Y-9150198D02*
X21182206Y-9140674D01*
X21182206Y-9140674D02*
X21172682Y-9131150D01*
X21172682Y-9131150D02*
X21163158Y-9112103D01*
X21163158Y-9112103D02*
X21163158Y-9102579D01*
X21163158Y-9102579D02*
X21172682Y-9083531D01*
X21172682Y-9083531D02*
X21182206Y-9074008D01*
X21182206Y-9074008D02*
X21201253Y-9064484D01*
X21201253Y-9064484D02*
X21239349Y-9064484D01*
X21239349Y-9064484D02*
X21258396Y-9074008D01*
X21258396Y-9074008D02*
X21267920Y-9083531D01*
X21267920Y-9083531D02*
X21277444Y-9102579D01*
X21277444Y-9102579D02*
X21277444Y-9112103D01*
X21277444Y-9112103D02*
X21267920Y-9131150D01*
X21267920Y-9131150D02*
X21258396Y-9140674D01*
X21258396Y-9140674D02*
X21239349Y-9150198D01*
X21239349Y-9150198D02*
X21201253Y-9150198D01*
X21201253Y-9150198D02*
X21182206Y-9159722D01*
X21182206Y-9159722D02*
X21172682Y-9169246D01*
X21172682Y-9169246D02*
X21163158Y-9188293D01*
X21163158Y-9188293D02*
X21163158Y-9226389D01*
X21163158Y-9226389D02*
X21172682Y-9245436D01*
X21172682Y-9245436D02*
X21182206Y-9254960D01*
X21182206Y-9254960D02*
X21201253Y-9264484D01*
X21201253Y-9264484D02*
X21239349Y-9264484D01*
X21239349Y-9264484D02*
X21258396Y-9254960D01*
X21258396Y-9254960D02*
X21267920Y-9245436D01*
X21267920Y-9245436D02*
X21277444Y-9226389D01*
X21277444Y-9226389D02*
X21277444Y-9188293D01*
X21277444Y-9188293D02*
X21267920Y-9169246D01*
X21267920Y-9169246D02*
X21258396Y-9159722D01*
X21258396Y-9159722D02*
X21239349Y-9150198D01*
X21353634Y-9064484D02*
X21353634Y-9102579D01*
X21429825Y-9064484D02*
X21429825Y-9102579D01*
X21725063Y-9340674D02*
X21715539Y-9331150D01*
X21715539Y-9331150D02*
X21696491Y-9302579D01*
X21696491Y-9302579D02*
X21686968Y-9283531D01*
X21686968Y-9283531D02*
X21677444Y-9254960D01*
X21677444Y-9254960D02*
X21667920Y-9207341D01*
X21667920Y-9207341D02*
X21667920Y-9169246D01*
X21667920Y-9169246D02*
X21677444Y-9121627D01*
X21677444Y-9121627D02*
X21686968Y-9093055D01*
X21686968Y-9093055D02*
X21696491Y-9074008D01*
X21696491Y-9074008D02*
X21715539Y-9045436D01*
X21715539Y-9045436D02*
X21725063Y-9035912D01*
X21906015Y-9264484D02*
X21791730Y-9264484D01*
X21848872Y-9264484D02*
X21848872Y-9064484D01*
X21848872Y-9064484D02*
X21829825Y-9093055D01*
X21829825Y-9093055D02*
X21810777Y-9112103D01*
X21810777Y-9112103D02*
X21791730Y-9121627D01*
X22144111Y-9264484D02*
X22144111Y-9064484D01*
X22229825Y-9264484D02*
X22229825Y-9159722D01*
X22229825Y-9159722D02*
X22220301Y-9140674D01*
X22220301Y-9140674D02*
X22201253Y-9131150D01*
X22201253Y-9131150D02*
X22172682Y-9131150D01*
X22172682Y-9131150D02*
X22153634Y-9140674D01*
X22153634Y-9140674D02*
X22144111Y-9150198D01*
X22353634Y-9264484D02*
X22334587Y-9254960D01*
X22334587Y-9254960D02*
X22325063Y-9245436D01*
X22325063Y-9245436D02*
X22315539Y-9226389D01*
X22315539Y-9226389D02*
X22315539Y-9169246D01*
X22315539Y-9169246D02*
X22325063Y-9150198D01*
X22325063Y-9150198D02*
X22334587Y-9140674D01*
X22334587Y-9140674D02*
X22353634Y-9131150D01*
X22353634Y-9131150D02*
X22382206Y-9131150D01*
X22382206Y-9131150D02*
X22401253Y-9140674D01*
X22401253Y-9140674D02*
X22410777Y-9150198D01*
X22410777Y-9150198D02*
X22420301Y-9169246D01*
X22420301Y-9169246D02*
X22420301Y-9226389D01*
X22420301Y-9226389D02*
X22410777Y-9245436D01*
X22410777Y-9245436D02*
X22401253Y-9254960D01*
X22401253Y-9254960D02*
X22382206Y-9264484D01*
X22382206Y-9264484D02*
X22353634Y-9264484D01*
X22534587Y-9264484D02*
X22515539Y-9254960D01*
X22515539Y-9254960D02*
X22506015Y-9235912D01*
X22506015Y-9235912D02*
X22506015Y-9064484D01*
X22686968Y-9254960D02*
X22667920Y-9264484D01*
X22667920Y-9264484D02*
X22629825Y-9264484D01*
X22629825Y-9264484D02*
X22610777Y-9254960D01*
X22610777Y-9254960D02*
X22601253Y-9235912D01*
X22601253Y-9235912D02*
X22601253Y-9159722D01*
X22601253Y-9159722D02*
X22610777Y-9140674D01*
X22610777Y-9140674D02*
X22629825Y-9131150D01*
X22629825Y-9131150D02*
X22667920Y-9131150D01*
X22667920Y-9131150D02*
X22686968Y-9140674D01*
X22686968Y-9140674D02*
X22696491Y-9159722D01*
X22696491Y-9159722D02*
X22696491Y-9178770D01*
X22696491Y-9178770D02*
X22601253Y-9197817D01*
X22763158Y-9340674D02*
X22772682Y-9331150D01*
X22772682Y-9331150D02*
X22791730Y-9302579D01*
X22791730Y-9302579D02*
X22801253Y-9283531D01*
X22801253Y-9283531D02*
X22810777Y-9254960D01*
X22810777Y-9254960D02*
X22820301Y-9207341D01*
X22820301Y-9207341D02*
X22820301Y-9169246D01*
X22820301Y-9169246D02*
X22810777Y-9121627D01*
X22810777Y-9121627D02*
X22801253Y-9093055D01*
X22801253Y-9093055D02*
X22791730Y-9074008D01*
X22791730Y-9074008D02*
X22772682Y-9045436D01*
X22772682Y-9045436D02*
X22763158Y-9035912D01*
M02*
