M48
; DRILL file {KiCad 8.0.6} date 2024-11-19T22:12:21-0500
; FORMAT={-:-/ absolute / metric / decimal}
; #@! TF.CreationDate,2024-11-19T22:12:21-05:00
; #@! TF.GenerationSoftware,Kicad,Pcbnew,8.0.6
; #@! TF.FileFunction,Plated,1,2,PTH
FMAT,2
METRIC
; #@! TA.AperFunction,Plated,PTH,ViaDrill
T1C0.400
; #@! TA.AperFunction,Plated,PTH,ComponentDrill
T2C1.300
; #@! TA.AperFunction,Plated,PTH,ComponentDrill
T3C3.500
%
G90
G05
T1
X189.25Y-54.95
X190.86Y-60.94
X190.9Y-58.0
X191.5Y-62.5
X193.3Y-59.95
X209.85Y-73.8
X209.95Y-58.65
X212.85Y-73.0
X218.5Y-58.725
X220.445Y-66.85
X220.6Y-72.6
X220.95Y-58.725
X221.095Y-63.288
X221.745Y-67.0
X221.926Y-70.426
X224.25Y-63.288
X227.445Y-68.712
X229.5Y-70.5
X229.65Y-62.4
X232.15Y-62.5
X234.675Y-73.5
X235.0Y-60.0
X237.05Y-73.7
X238.294Y-76.422
X239.7Y-65.8
X241.0Y-57.6
X241.05Y-53.5
X244.85Y-70.5
X244.95Y-53.55
X244.95Y-57.45
T2
X196.2Y-59.625
X196.2Y-69.785
X196.2Y-77.405
X203.82Y-59.625
T3
X250.0Y-66.0
M30
