G04 #@! TF.GenerationSoftware,KiCad,Pcbnew,8.0.6*
G04 #@! TF.CreationDate,2024-11-19T22:12:13-05:00*
G04 #@! TF.ProjectId,imd_latch,696d645f-6c61-4746-9368-2e6b69636164,rev?*
G04 #@! TF.SameCoordinates,Original*
G04 #@! TF.FileFunction,Legend,Top*
G04 #@! TF.FilePolarity,Positive*
%FSLAX46Y46*%
G04 Gerber Fmt 4.6, Leading zero omitted, Abs format (unit mm)*
G04 Created by KiCad (PCBNEW 8.0.6) date 2024-11-19 22:12:13*
%MOMM*%
%LPD*%
G01*
G04 APERTURE LIST*
G04 Aperture macros list*
%AMRoundRect*
0 Rectangle with rounded corners*
0 $1 Rounding radius*
0 $2 $3 $4 $5 $6 $7 $8 $9 X,Y pos of 4 corners*
0 Add a 4 corners polygon primitive as box body*
4,1,4,$2,$3,$4,$5,$6,$7,$8,$9,$2,$3,0*
0 Add four circle primitives for the rounded corners*
1,1,$1+$1,$2,$3*
1,1,$1+$1,$4,$5*
1,1,$1+$1,$6,$7*
1,1,$1+$1,$8,$9*
0 Add four rect primitives between the rounded corners*
20,1,$1+$1,$2,$3,$4,$5,0*
20,1,$1+$1,$4,$5,$6,$7,0*
20,1,$1+$1,$6,$7,$8,$9,0*
20,1,$1+$1,$8,$9,$2,$3,0*%
G04 Aperture macros list end*
%ADD10C,0.150000*%
%ADD11C,0.100000*%
%ADD12C,0.080000*%
%ADD13C,0.070000*%
%ADD14C,0.120000*%
%ADD15C,0.200000*%
%ADD16C,0.000000*%
%ADD17RoundRect,0.225000X0.250000X-0.225000X0.250000X0.225000X-0.250000X0.225000X-0.250000X-0.225000X0*%
%ADD18R,4.500000X3.000000*%
%ADD19R,0.900000X0.800000*%
%ADD20RoundRect,0.100000X-0.225000X-0.100000X0.225000X-0.100000X0.225000X0.100000X-0.225000X0.100000X0*%
%ADD21RoundRect,0.225000X-0.250000X0.225000X-0.250000X-0.225000X0.250000X-0.225000X0.250000X0.225000X0*%
%ADD22RoundRect,0.200000X-0.200000X-0.275000X0.200000X-0.275000X0.200000X0.275000X-0.200000X0.275000X0*%
%ADD23R,1.200000X1.200000*%
%ADD24RoundRect,0.200000X0.275000X-0.200000X0.275000X0.200000X-0.275000X0.200000X-0.275000X-0.200000X0*%
%ADD25C,1.800000*%
%ADD26O,4.300000X0.700000*%
%ADD27O,3.200000X0.700000*%
%ADD28R,0.650000X1.525000*%
%ADD29RoundRect,0.200000X0.200000X0.275000X-0.200000X0.275000X-0.200000X-0.275000X0.200000X-0.275000X0*%
%ADD30RoundRect,0.250000X-0.650000X0.325000X-0.650000X-0.325000X0.650000X-0.325000X0.650000X0.325000X0*%
%ADD31RoundRect,0.225000X0.225000X0.250000X-0.225000X0.250000X-0.225000X-0.250000X0.225000X-0.250000X0*%
%ADD32RoundRect,0.100000X-0.100000X0.225000X-0.100000X-0.225000X0.100000X-0.225000X0.100000X0.225000X0*%
%ADD33C,5.703199*%
%ADD34R,0.900000X1.200000*%
G04 APERTURE END LIST*
D10*
X261976190Y-104454819D02*
X262547618Y-104454819D01*
X262261904Y-105454819D02*
X262261904Y-104454819D01*
X262880952Y-105454819D02*
X262880952Y-104788152D01*
X262880952Y-104454819D02*
X262833333Y-104502438D01*
X262833333Y-104502438D02*
X262880952Y-104550057D01*
X262880952Y-104550057D02*
X262928571Y-104502438D01*
X262928571Y-104502438D02*
X262880952Y-104454819D01*
X262880952Y-104454819D02*
X262880952Y-104550057D01*
X263357142Y-105454819D02*
X263357142Y-104788152D01*
X263357142Y-104883390D02*
X263404761Y-104835771D01*
X263404761Y-104835771D02*
X263499999Y-104788152D01*
X263499999Y-104788152D02*
X263642856Y-104788152D01*
X263642856Y-104788152D02*
X263738094Y-104835771D01*
X263738094Y-104835771D02*
X263785713Y-104931009D01*
X263785713Y-104931009D02*
X263785713Y-105454819D01*
X263785713Y-104931009D02*
X263833332Y-104835771D01*
X263833332Y-104835771D02*
X263928570Y-104788152D01*
X263928570Y-104788152D02*
X264071427Y-104788152D01*
X264071427Y-104788152D02*
X264166666Y-104835771D01*
X264166666Y-104835771D02*
X264214285Y-104931009D01*
X264214285Y-104931009D02*
X264214285Y-105454819D01*
X265071427Y-105407200D02*
X264976189Y-105454819D01*
X264976189Y-105454819D02*
X264785713Y-105454819D01*
X264785713Y-105454819D02*
X264690475Y-105407200D01*
X264690475Y-105407200D02*
X264642856Y-105311961D01*
X264642856Y-105311961D02*
X264642856Y-104931009D01*
X264642856Y-104931009D02*
X264690475Y-104835771D01*
X264690475Y-104835771D02*
X264785713Y-104788152D01*
X264785713Y-104788152D02*
X264976189Y-104788152D01*
X264976189Y-104788152D02*
X265071427Y-104835771D01*
X265071427Y-104835771D02*
X265119046Y-104931009D01*
X265119046Y-104931009D02*
X265119046Y-105026247D01*
X265119046Y-105026247D02*
X264642856Y-105121485D01*
X266309523Y-105454819D02*
X266309523Y-104454819D01*
X266309523Y-104454819D02*
X266547618Y-104454819D01*
X266547618Y-104454819D02*
X266690475Y-104502438D01*
X266690475Y-104502438D02*
X266785713Y-104597676D01*
X266785713Y-104597676D02*
X266833332Y-104692914D01*
X266833332Y-104692914D02*
X266880951Y-104883390D01*
X266880951Y-104883390D02*
X266880951Y-105026247D01*
X266880951Y-105026247D02*
X266833332Y-105216723D01*
X266833332Y-105216723D02*
X266785713Y-105311961D01*
X266785713Y-105311961D02*
X266690475Y-105407200D01*
X266690475Y-105407200D02*
X266547618Y-105454819D01*
X266547618Y-105454819D02*
X266309523Y-105454819D01*
X267690475Y-105407200D02*
X267595237Y-105454819D01*
X267595237Y-105454819D02*
X267404761Y-105454819D01*
X267404761Y-105454819D02*
X267309523Y-105407200D01*
X267309523Y-105407200D02*
X267261904Y-105311961D01*
X267261904Y-105311961D02*
X267261904Y-104931009D01*
X267261904Y-104931009D02*
X267309523Y-104835771D01*
X267309523Y-104835771D02*
X267404761Y-104788152D01*
X267404761Y-104788152D02*
X267595237Y-104788152D01*
X267595237Y-104788152D02*
X267690475Y-104835771D01*
X267690475Y-104835771D02*
X267738094Y-104931009D01*
X267738094Y-104931009D02*
X267738094Y-105026247D01*
X267738094Y-105026247D02*
X267261904Y-105121485D01*
X268309523Y-105454819D02*
X268214285Y-105407200D01*
X268214285Y-105407200D02*
X268166666Y-105311961D01*
X268166666Y-105311961D02*
X268166666Y-104454819D01*
X269119047Y-105454819D02*
X269119047Y-104931009D01*
X269119047Y-104931009D02*
X269071428Y-104835771D01*
X269071428Y-104835771D02*
X268976190Y-104788152D01*
X268976190Y-104788152D02*
X268785714Y-104788152D01*
X268785714Y-104788152D02*
X268690476Y-104835771D01*
X269119047Y-105407200D02*
X269023809Y-105454819D01*
X269023809Y-105454819D02*
X268785714Y-105454819D01*
X268785714Y-105454819D02*
X268690476Y-105407200D01*
X268690476Y-105407200D02*
X268642857Y-105311961D01*
X268642857Y-105311961D02*
X268642857Y-105216723D01*
X268642857Y-105216723D02*
X268690476Y-105121485D01*
X268690476Y-105121485D02*
X268785714Y-105073866D01*
X268785714Y-105073866D02*
X269023809Y-105073866D01*
X269023809Y-105073866D02*
X269119047Y-105026247D01*
X269500000Y-104788152D02*
X269738095Y-105454819D01*
X269976190Y-104788152D02*
X269738095Y-105454819D01*
X269738095Y-105454819D02*
X269642857Y-105692914D01*
X269642857Y-105692914D02*
X269595238Y-105740533D01*
X269595238Y-105740533D02*
X269500000Y-105788152D01*
D11*
X246065789Y-51709133D02*
X245732455Y-51709133D01*
X245732455Y-51709133D02*
X245699122Y-52042466D01*
X245699122Y-52042466D02*
X245732455Y-52009133D01*
X245732455Y-52009133D02*
X245799122Y-51975800D01*
X245799122Y-51975800D02*
X245965789Y-51975800D01*
X245965789Y-51975800D02*
X246032455Y-52009133D01*
X246032455Y-52009133D02*
X246065789Y-52042466D01*
X246065789Y-52042466D02*
X246099122Y-52109133D01*
X246099122Y-52109133D02*
X246099122Y-52275800D01*
X246099122Y-52275800D02*
X246065789Y-52342466D01*
X246065789Y-52342466D02*
X246032455Y-52375800D01*
X246032455Y-52375800D02*
X245965789Y-52409133D01*
X245965789Y-52409133D02*
X245799122Y-52409133D01*
X245799122Y-52409133D02*
X245732455Y-52375800D01*
X245732455Y-52375800D02*
X245699122Y-52342466D01*
X246299122Y-51709133D02*
X246532456Y-52409133D01*
X246532456Y-52409133D02*
X246765789Y-51709133D01*
D10*
X263539903Y-117527255D02*
X262539903Y-117527255D01*
X263539903Y-117051065D02*
X262539903Y-117051065D01*
X262539903Y-117051065D02*
X263254188Y-116717732D01*
X263254188Y-116717732D02*
X262539903Y-116384399D01*
X262539903Y-116384399D02*
X263539903Y-116384399D01*
X263539903Y-115908208D02*
X262539903Y-115908208D01*
X262539903Y-115908208D02*
X262539903Y-115670113D01*
X262539903Y-115670113D02*
X262587522Y-115527256D01*
X262587522Y-115527256D02*
X262682760Y-115432018D01*
X262682760Y-115432018D02*
X262777998Y-115384399D01*
X262777998Y-115384399D02*
X262968474Y-115336780D01*
X262968474Y-115336780D02*
X263111331Y-115336780D01*
X263111331Y-115336780D02*
X263301807Y-115384399D01*
X263301807Y-115384399D02*
X263397045Y-115432018D01*
X263397045Y-115432018D02*
X263492284Y-115527256D01*
X263492284Y-115527256D02*
X263539903Y-115670113D01*
X263539903Y-115670113D02*
X263539903Y-115908208D01*
X263539903Y-113670113D02*
X263539903Y-114146303D01*
X263539903Y-114146303D02*
X262539903Y-114146303D01*
X263539903Y-112908208D02*
X263016093Y-112908208D01*
X263016093Y-112908208D02*
X262920855Y-112955827D01*
X262920855Y-112955827D02*
X262873236Y-113051065D01*
X262873236Y-113051065D02*
X262873236Y-113241541D01*
X262873236Y-113241541D02*
X262920855Y-113336779D01*
X263492284Y-112908208D02*
X263539903Y-113003446D01*
X263539903Y-113003446D02*
X263539903Y-113241541D01*
X263539903Y-113241541D02*
X263492284Y-113336779D01*
X263492284Y-113336779D02*
X263397045Y-113384398D01*
X263397045Y-113384398D02*
X263301807Y-113384398D01*
X263301807Y-113384398D02*
X263206569Y-113336779D01*
X263206569Y-113336779D02*
X263158950Y-113241541D01*
X263158950Y-113241541D02*
X263158950Y-113003446D01*
X263158950Y-113003446D02*
X263111331Y-112908208D01*
X262873236Y-112574874D02*
X262873236Y-112193922D01*
X262539903Y-112432017D02*
X263397045Y-112432017D01*
X263397045Y-112432017D02*
X263492284Y-112384398D01*
X263492284Y-112384398D02*
X263539903Y-112289160D01*
X263539903Y-112289160D02*
X263539903Y-112193922D01*
X263492284Y-111432017D02*
X263539903Y-111527255D01*
X263539903Y-111527255D02*
X263539903Y-111717731D01*
X263539903Y-111717731D02*
X263492284Y-111812969D01*
X263492284Y-111812969D02*
X263444664Y-111860588D01*
X263444664Y-111860588D02*
X263349426Y-111908207D01*
X263349426Y-111908207D02*
X263063712Y-111908207D01*
X263063712Y-111908207D02*
X262968474Y-111860588D01*
X262968474Y-111860588D02*
X262920855Y-111812969D01*
X262920855Y-111812969D02*
X262873236Y-111717731D01*
X262873236Y-111717731D02*
X262873236Y-111527255D01*
X262873236Y-111527255D02*
X262920855Y-111432017D01*
X263539903Y-111003445D02*
X262539903Y-111003445D01*
X263539903Y-110574874D02*
X263016093Y-110574874D01*
X263016093Y-110574874D02*
X262920855Y-110622493D01*
X262920855Y-110622493D02*
X262873236Y-110717731D01*
X262873236Y-110717731D02*
X262873236Y-110860588D01*
X262873236Y-110860588D02*
X262920855Y-110955826D01*
X262920855Y-110955826D02*
X262968474Y-111003445D01*
X263539903Y-109336778D02*
X262539903Y-109336778D01*
X262539903Y-109336778D02*
X263254188Y-109003445D01*
X263254188Y-109003445D02*
X262539903Y-108670112D01*
X262539903Y-108670112D02*
X263539903Y-108670112D01*
X263539903Y-108193921D02*
X262539903Y-108193921D01*
X263539903Y-107622493D02*
X262968474Y-108051064D01*
X262539903Y-107622493D02*
X263111331Y-108193921D01*
X262539903Y-107336778D02*
X263539903Y-107003445D01*
X263539903Y-107003445D02*
X262539903Y-106670112D01*
X263539903Y-106336778D02*
X262539903Y-106336778D01*
X265149847Y-119003446D02*
X264149847Y-119003446D01*
X264149847Y-119003446D02*
X264864132Y-118670113D01*
X264864132Y-118670113D02*
X264149847Y-118336780D01*
X264149847Y-118336780D02*
X265149847Y-118336780D01*
X265149847Y-117860589D02*
X264483180Y-117860589D01*
X264149847Y-117860589D02*
X264197466Y-117908208D01*
X264197466Y-117908208D02*
X264245085Y-117860589D01*
X264245085Y-117860589D02*
X264197466Y-117812970D01*
X264197466Y-117812970D02*
X264149847Y-117860589D01*
X264149847Y-117860589D02*
X264245085Y-117860589D01*
X265149847Y-117384399D02*
X264483180Y-117384399D01*
X264673656Y-117384399D02*
X264578418Y-117336780D01*
X264578418Y-117336780D02*
X264530799Y-117289161D01*
X264530799Y-117289161D02*
X264483180Y-117193923D01*
X264483180Y-117193923D02*
X264483180Y-117098685D01*
X265149847Y-116336780D02*
X264626037Y-116336780D01*
X264626037Y-116336780D02*
X264530799Y-116384399D01*
X264530799Y-116384399D02*
X264483180Y-116479637D01*
X264483180Y-116479637D02*
X264483180Y-116670113D01*
X264483180Y-116670113D02*
X264530799Y-116765351D01*
X265102228Y-116336780D02*
X265149847Y-116432018D01*
X265149847Y-116432018D02*
X265149847Y-116670113D01*
X265149847Y-116670113D02*
X265102228Y-116765351D01*
X265102228Y-116765351D02*
X265006989Y-116812970D01*
X265006989Y-116812970D02*
X264911751Y-116812970D01*
X264911751Y-116812970D02*
X264816513Y-116765351D01*
X264816513Y-116765351D02*
X264768894Y-116670113D01*
X264768894Y-116670113D02*
X264768894Y-116432018D01*
X264768894Y-116432018D02*
X264721275Y-116336780D01*
X264483180Y-115860589D02*
X265149847Y-115860589D01*
X264578418Y-115860589D02*
X264530799Y-115812970D01*
X264530799Y-115812970D02*
X264483180Y-115717732D01*
X264483180Y-115717732D02*
X264483180Y-115574875D01*
X264483180Y-115574875D02*
X264530799Y-115479637D01*
X264530799Y-115479637D02*
X264626037Y-115432018D01*
X264626037Y-115432018D02*
X265149847Y-115432018D01*
X265149847Y-114527256D02*
X264149847Y-114527256D01*
X265102228Y-114527256D02*
X265149847Y-114622494D01*
X265149847Y-114622494D02*
X265149847Y-114812970D01*
X265149847Y-114812970D02*
X265102228Y-114908208D01*
X265102228Y-114908208D02*
X265054608Y-114955827D01*
X265054608Y-114955827D02*
X264959370Y-115003446D01*
X264959370Y-115003446D02*
X264673656Y-115003446D01*
X264673656Y-115003446D02*
X264578418Y-114955827D01*
X264578418Y-114955827D02*
X264530799Y-114908208D01*
X264530799Y-114908208D02*
X264483180Y-114812970D01*
X264483180Y-114812970D02*
X264483180Y-114622494D01*
X264483180Y-114622494D02*
X264530799Y-114527256D01*
X265149847Y-113622494D02*
X264626037Y-113622494D01*
X264626037Y-113622494D02*
X264530799Y-113670113D01*
X264530799Y-113670113D02*
X264483180Y-113765351D01*
X264483180Y-113765351D02*
X264483180Y-113955827D01*
X264483180Y-113955827D02*
X264530799Y-114051065D01*
X265102228Y-113622494D02*
X265149847Y-113717732D01*
X265149847Y-113717732D02*
X265149847Y-113955827D01*
X265149847Y-113955827D02*
X265102228Y-114051065D01*
X265102228Y-114051065D02*
X265006989Y-114098684D01*
X265006989Y-114098684D02*
X264911751Y-114098684D01*
X264911751Y-114098684D02*
X264816513Y-114051065D01*
X264816513Y-114051065D02*
X264768894Y-113955827D01*
X264768894Y-113955827D02*
X264768894Y-113717732D01*
X264768894Y-113717732D02*
X264721275Y-113622494D01*
X265149847Y-112384398D02*
X264149847Y-112384398D01*
X264149847Y-112384398D02*
X264149847Y-112003446D01*
X264149847Y-112003446D02*
X264197466Y-111908208D01*
X264197466Y-111908208D02*
X264245085Y-111860589D01*
X264245085Y-111860589D02*
X264340323Y-111812970D01*
X264340323Y-111812970D02*
X264483180Y-111812970D01*
X264483180Y-111812970D02*
X264578418Y-111860589D01*
X264578418Y-111860589D02*
X264626037Y-111908208D01*
X264626037Y-111908208D02*
X264673656Y-112003446D01*
X264673656Y-112003446D02*
X264673656Y-112384398D01*
X265149847Y-111384398D02*
X264483180Y-111384398D01*
X264149847Y-111384398D02*
X264197466Y-111432017D01*
X264197466Y-111432017D02*
X264245085Y-111384398D01*
X264245085Y-111384398D02*
X264197466Y-111336779D01*
X264197466Y-111336779D02*
X264149847Y-111384398D01*
X264149847Y-111384398D02*
X264245085Y-111384398D01*
X265102228Y-110527256D02*
X265149847Y-110622494D01*
X265149847Y-110622494D02*
X265149847Y-110812970D01*
X265149847Y-110812970D02*
X265102228Y-110908208D01*
X265102228Y-110908208D02*
X265006989Y-110955827D01*
X265006989Y-110955827D02*
X264626037Y-110955827D01*
X264626037Y-110955827D02*
X264530799Y-110908208D01*
X264530799Y-110908208D02*
X264483180Y-110812970D01*
X264483180Y-110812970D02*
X264483180Y-110622494D01*
X264483180Y-110622494D02*
X264530799Y-110527256D01*
X264530799Y-110527256D02*
X264626037Y-110479637D01*
X264626037Y-110479637D02*
X264721275Y-110479637D01*
X264721275Y-110479637D02*
X264816513Y-110955827D01*
X264483180Y-110193922D02*
X264483180Y-109812970D01*
X264149847Y-110051065D02*
X265006989Y-110051065D01*
X265006989Y-110051065D02*
X265102228Y-110003446D01*
X265102228Y-110003446D02*
X265149847Y-109908208D01*
X265149847Y-109908208D02*
X265149847Y-109812970D01*
X265149847Y-109479636D02*
X264483180Y-109479636D01*
X264673656Y-109479636D02*
X264578418Y-109432017D01*
X264578418Y-109432017D02*
X264530799Y-109384398D01*
X264530799Y-109384398D02*
X264483180Y-109289160D01*
X264483180Y-109289160D02*
X264483180Y-109193922D01*
X265149847Y-108432017D02*
X264626037Y-108432017D01*
X264626037Y-108432017D02*
X264530799Y-108479636D01*
X264530799Y-108479636D02*
X264483180Y-108574874D01*
X264483180Y-108574874D02*
X264483180Y-108765350D01*
X264483180Y-108765350D02*
X264530799Y-108860588D01*
X265102228Y-108432017D02*
X265149847Y-108527255D01*
X265149847Y-108527255D02*
X265149847Y-108765350D01*
X265149847Y-108765350D02*
X265102228Y-108860588D01*
X265102228Y-108860588D02*
X265006989Y-108908207D01*
X265006989Y-108908207D02*
X264911751Y-108908207D01*
X264911751Y-108908207D02*
X264816513Y-108860588D01*
X264816513Y-108860588D02*
X264768894Y-108765350D01*
X264768894Y-108765350D02*
X264768894Y-108527255D01*
X264768894Y-108527255D02*
X264721275Y-108432017D01*
X265102228Y-108003445D02*
X265149847Y-107908207D01*
X265149847Y-107908207D02*
X265149847Y-107717731D01*
X265149847Y-107717731D02*
X265102228Y-107622493D01*
X265102228Y-107622493D02*
X265006989Y-107574874D01*
X265006989Y-107574874D02*
X264959370Y-107574874D01*
X264959370Y-107574874D02*
X264864132Y-107622493D01*
X264864132Y-107622493D02*
X264816513Y-107717731D01*
X264816513Y-107717731D02*
X264816513Y-107860588D01*
X264816513Y-107860588D02*
X264768894Y-107955826D01*
X264768894Y-107955826D02*
X264673656Y-108003445D01*
X264673656Y-108003445D02*
X264626037Y-108003445D01*
X264626037Y-108003445D02*
X264530799Y-107955826D01*
X264530799Y-107955826D02*
X264483180Y-107860588D01*
X264483180Y-107860588D02*
X264483180Y-107717731D01*
X264483180Y-107717731D02*
X264530799Y-107622493D01*
X265149847Y-107146302D02*
X264149847Y-107146302D01*
X264768894Y-107051064D02*
X265149847Y-106765350D01*
X264483180Y-106765350D02*
X264864132Y-107146302D01*
X265149847Y-106336778D02*
X264483180Y-106336778D01*
X264149847Y-106336778D02*
X264197466Y-106384397D01*
X264197466Y-106384397D02*
X264245085Y-106336778D01*
X264245085Y-106336778D02*
X264197466Y-106289159D01*
X264197466Y-106289159D02*
X264149847Y-106336778D01*
X264149847Y-106336778D02*
X264245085Y-106336778D01*
X266759791Y-113146303D02*
X266759791Y-113717731D01*
X266759791Y-113432017D02*
X265759791Y-113432017D01*
X265759791Y-113432017D02*
X265902648Y-113527255D01*
X265902648Y-113527255D02*
X265997886Y-113622493D01*
X265997886Y-113622493D02*
X266045505Y-113717731D01*
X265855029Y-112765350D02*
X265807410Y-112717731D01*
X265807410Y-112717731D02*
X265759791Y-112622493D01*
X265759791Y-112622493D02*
X265759791Y-112384398D01*
X265759791Y-112384398D02*
X265807410Y-112289160D01*
X265807410Y-112289160D02*
X265855029Y-112241541D01*
X265855029Y-112241541D02*
X265950267Y-112193922D01*
X265950267Y-112193922D02*
X266045505Y-112193922D01*
X266045505Y-112193922D02*
X266188362Y-112241541D01*
X266188362Y-112241541D02*
X266759791Y-112812969D01*
X266759791Y-112812969D02*
X266759791Y-112193922D01*
X265712172Y-111051065D02*
X266997886Y-111908207D01*
X266759791Y-110193922D02*
X266759791Y-110765350D01*
X266759791Y-110479636D02*
X265759791Y-110479636D01*
X265759791Y-110479636D02*
X265902648Y-110574874D01*
X265902648Y-110574874D02*
X265997886Y-110670112D01*
X265997886Y-110670112D02*
X266045505Y-110765350D01*
X265759791Y-109860588D02*
X265759791Y-109193922D01*
X265759791Y-109193922D02*
X266759791Y-109622493D01*
X265712172Y-108098684D02*
X266997886Y-108955826D01*
X265855029Y-107812969D02*
X265807410Y-107765350D01*
X265807410Y-107765350D02*
X265759791Y-107670112D01*
X265759791Y-107670112D02*
X265759791Y-107432017D01*
X265759791Y-107432017D02*
X265807410Y-107336779D01*
X265807410Y-107336779D02*
X265855029Y-107289160D01*
X265855029Y-107289160D02*
X265950267Y-107241541D01*
X265950267Y-107241541D02*
X266045505Y-107241541D01*
X266045505Y-107241541D02*
X266188362Y-107289160D01*
X266188362Y-107289160D02*
X266759791Y-107860588D01*
X266759791Y-107860588D02*
X266759791Y-107241541D01*
X265855029Y-106860588D02*
X265807410Y-106812969D01*
X265807410Y-106812969D02*
X265759791Y-106717731D01*
X265759791Y-106717731D02*
X265759791Y-106479636D01*
X265759791Y-106479636D02*
X265807410Y-106384398D01*
X265807410Y-106384398D02*
X265855029Y-106336779D01*
X265855029Y-106336779D02*
X265950267Y-106289160D01*
X265950267Y-106289160D02*
X266045505Y-106289160D01*
X266045505Y-106289160D02*
X266188362Y-106336779D01*
X266188362Y-106336779D02*
X266759791Y-106908207D01*
X266759791Y-106908207D02*
X266759791Y-106289160D01*
X268369735Y-109622494D02*
X267893544Y-109955827D01*
X268369735Y-110193922D02*
X267369735Y-110193922D01*
X267369735Y-110193922D02*
X267369735Y-109812970D01*
X267369735Y-109812970D02*
X267417354Y-109717732D01*
X267417354Y-109717732D02*
X267464973Y-109670113D01*
X267464973Y-109670113D02*
X267560211Y-109622494D01*
X267560211Y-109622494D02*
X267703068Y-109622494D01*
X267703068Y-109622494D02*
X267798306Y-109670113D01*
X267798306Y-109670113D02*
X267845925Y-109717732D01*
X267845925Y-109717732D02*
X267893544Y-109812970D01*
X267893544Y-109812970D02*
X267893544Y-110193922D01*
X268322116Y-108812970D02*
X268369735Y-108908208D01*
X268369735Y-108908208D02*
X268369735Y-109098684D01*
X268369735Y-109098684D02*
X268322116Y-109193922D01*
X268322116Y-109193922D02*
X268226877Y-109241541D01*
X268226877Y-109241541D02*
X267845925Y-109241541D01*
X267845925Y-109241541D02*
X267750687Y-109193922D01*
X267750687Y-109193922D02*
X267703068Y-109098684D01*
X267703068Y-109098684D02*
X267703068Y-108908208D01*
X267703068Y-108908208D02*
X267750687Y-108812970D01*
X267750687Y-108812970D02*
X267845925Y-108765351D01*
X267845925Y-108765351D02*
X267941163Y-108765351D01*
X267941163Y-108765351D02*
X268036401Y-109241541D01*
X267703068Y-108432017D02*
X268369735Y-108193922D01*
X268369735Y-108193922D02*
X267703068Y-107955827D01*
X268369735Y-106289160D02*
X268369735Y-106860588D01*
X268369735Y-106574874D02*
X267369735Y-106574874D01*
X267369735Y-106574874D02*
X267512592Y-106670112D01*
X267512592Y-106670112D02*
X267607830Y-106765350D01*
X267607830Y-106765350D02*
X267655449Y-106860588D01*
D12*
X235647869Y-52393840D02*
X235719297Y-52422411D01*
X235719297Y-52422411D02*
X235838345Y-52422411D01*
X235838345Y-52422411D02*
X235885964Y-52393840D01*
X235885964Y-52393840D02*
X235909773Y-52365268D01*
X235909773Y-52365268D02*
X235933583Y-52308125D01*
X235933583Y-52308125D02*
X235933583Y-52250982D01*
X235933583Y-52250982D02*
X235909773Y-52193840D01*
X235909773Y-52193840D02*
X235885964Y-52165268D01*
X235885964Y-52165268D02*
X235838345Y-52136697D01*
X235838345Y-52136697D02*
X235743107Y-52108125D01*
X235743107Y-52108125D02*
X235695488Y-52079554D01*
X235695488Y-52079554D02*
X235671678Y-52050982D01*
X235671678Y-52050982D02*
X235647869Y-51993840D01*
X235647869Y-51993840D02*
X235647869Y-51936697D01*
X235647869Y-51936697D02*
X235671678Y-51879554D01*
X235671678Y-51879554D02*
X235695488Y-51850982D01*
X235695488Y-51850982D02*
X235743107Y-51822411D01*
X235743107Y-51822411D02*
X235862154Y-51822411D01*
X235862154Y-51822411D02*
X235933583Y-51850982D01*
X236147868Y-52422411D02*
X236147868Y-51822411D01*
X236362154Y-52422411D02*
X236362154Y-52108125D01*
X236362154Y-52108125D02*
X236338344Y-52050982D01*
X236338344Y-52050982D02*
X236290725Y-52022411D01*
X236290725Y-52022411D02*
X236219297Y-52022411D01*
X236219297Y-52022411D02*
X236171678Y-52050982D01*
X236171678Y-52050982D02*
X236147868Y-52079554D01*
X236814535Y-52022411D02*
X236814535Y-52422411D01*
X236600249Y-52022411D02*
X236600249Y-52336697D01*
X236600249Y-52336697D02*
X236624059Y-52393840D01*
X236624059Y-52393840D02*
X236671678Y-52422411D01*
X236671678Y-52422411D02*
X236743106Y-52422411D01*
X236743106Y-52422411D02*
X236790725Y-52393840D01*
X236790725Y-52393840D02*
X236814535Y-52365268D01*
X236981202Y-52022411D02*
X237171678Y-52022411D01*
X237052630Y-51822411D02*
X237052630Y-52336697D01*
X237052630Y-52336697D02*
X237076440Y-52393840D01*
X237076440Y-52393840D02*
X237124059Y-52422411D01*
X237124059Y-52422411D02*
X237171678Y-52422411D01*
X237552630Y-52422411D02*
X237552630Y-51822411D01*
X237552630Y-52393840D02*
X237505011Y-52422411D01*
X237505011Y-52422411D02*
X237409773Y-52422411D01*
X237409773Y-52422411D02*
X237362154Y-52393840D01*
X237362154Y-52393840D02*
X237338344Y-52365268D01*
X237338344Y-52365268D02*
X237314535Y-52308125D01*
X237314535Y-52308125D02*
X237314535Y-52136697D01*
X237314535Y-52136697D02*
X237338344Y-52079554D01*
X237338344Y-52079554D02*
X237362154Y-52050982D01*
X237362154Y-52050982D02*
X237409773Y-52022411D01*
X237409773Y-52022411D02*
X237505011Y-52022411D01*
X237505011Y-52022411D02*
X237552630Y-52050982D01*
X237862154Y-52422411D02*
X237814535Y-52393840D01*
X237814535Y-52393840D02*
X237790725Y-52365268D01*
X237790725Y-52365268D02*
X237766916Y-52308125D01*
X237766916Y-52308125D02*
X237766916Y-52136697D01*
X237766916Y-52136697D02*
X237790725Y-52079554D01*
X237790725Y-52079554D02*
X237814535Y-52050982D01*
X237814535Y-52050982D02*
X237862154Y-52022411D01*
X237862154Y-52022411D02*
X237933582Y-52022411D01*
X237933582Y-52022411D02*
X237981201Y-52050982D01*
X237981201Y-52050982D02*
X238005011Y-52079554D01*
X238005011Y-52079554D02*
X238028820Y-52136697D01*
X238028820Y-52136697D02*
X238028820Y-52308125D01*
X238028820Y-52308125D02*
X238005011Y-52365268D01*
X238005011Y-52365268D02*
X237981201Y-52393840D01*
X237981201Y-52393840D02*
X237933582Y-52422411D01*
X237933582Y-52422411D02*
X237862154Y-52422411D01*
X238195487Y-52022411D02*
X238290725Y-52422411D01*
X238290725Y-52422411D02*
X238385963Y-52136697D01*
X238385963Y-52136697D02*
X238481201Y-52422411D01*
X238481201Y-52422411D02*
X238576439Y-52022411D01*
X238766916Y-52022411D02*
X238766916Y-52422411D01*
X238766916Y-52079554D02*
X238790726Y-52050982D01*
X238790726Y-52050982D02*
X238838345Y-52022411D01*
X238838345Y-52022411D02*
X238909773Y-52022411D01*
X238909773Y-52022411D02*
X238957392Y-52050982D01*
X238957392Y-52050982D02*
X238981202Y-52108125D01*
X238981202Y-52108125D02*
X238981202Y-52422411D01*
X239814535Y-52393840D02*
X239766916Y-52422411D01*
X239766916Y-52422411D02*
X239671678Y-52422411D01*
X239671678Y-52422411D02*
X239624059Y-52393840D01*
X239624059Y-52393840D02*
X239600249Y-52365268D01*
X239600249Y-52365268D02*
X239576440Y-52308125D01*
X239576440Y-52308125D02*
X239576440Y-52136697D01*
X239576440Y-52136697D02*
X239600249Y-52079554D01*
X239600249Y-52079554D02*
X239624059Y-52050982D01*
X239624059Y-52050982D02*
X239671678Y-52022411D01*
X239671678Y-52022411D02*
X239766916Y-52022411D01*
X239766916Y-52022411D02*
X239814535Y-52050982D01*
X240028820Y-52422411D02*
X240028820Y-52022411D01*
X240028820Y-51822411D02*
X240005011Y-51850982D01*
X240005011Y-51850982D02*
X240028820Y-51879554D01*
X240028820Y-51879554D02*
X240052630Y-51850982D01*
X240052630Y-51850982D02*
X240028820Y-51822411D01*
X240028820Y-51822411D02*
X240028820Y-51879554D01*
X240266915Y-52422411D02*
X240266915Y-52022411D01*
X240266915Y-52136697D02*
X240290725Y-52079554D01*
X240290725Y-52079554D02*
X240314534Y-52050982D01*
X240314534Y-52050982D02*
X240362153Y-52022411D01*
X240362153Y-52022411D02*
X240409772Y-52022411D01*
X240790725Y-52393840D02*
X240743106Y-52422411D01*
X240743106Y-52422411D02*
X240647868Y-52422411D01*
X240647868Y-52422411D02*
X240600249Y-52393840D01*
X240600249Y-52393840D02*
X240576439Y-52365268D01*
X240576439Y-52365268D02*
X240552630Y-52308125D01*
X240552630Y-52308125D02*
X240552630Y-52136697D01*
X240552630Y-52136697D02*
X240576439Y-52079554D01*
X240576439Y-52079554D02*
X240600249Y-52050982D01*
X240600249Y-52050982D02*
X240647868Y-52022411D01*
X240647868Y-52022411D02*
X240743106Y-52022411D01*
X240743106Y-52022411D02*
X240790725Y-52050982D01*
X241219296Y-52022411D02*
X241219296Y-52422411D01*
X241005010Y-52022411D02*
X241005010Y-52336697D01*
X241005010Y-52336697D02*
X241028820Y-52393840D01*
X241028820Y-52393840D02*
X241076439Y-52422411D01*
X241076439Y-52422411D02*
X241147867Y-52422411D01*
X241147867Y-52422411D02*
X241195486Y-52393840D01*
X241195486Y-52393840D02*
X241219296Y-52365268D01*
X241385963Y-52022411D02*
X241576439Y-52022411D01*
X241457391Y-51822411D02*
X241457391Y-52336697D01*
X241457391Y-52336697D02*
X241481201Y-52393840D01*
X241481201Y-52393840D02*
X241528820Y-52422411D01*
X241528820Y-52422411D02*
X241576439Y-52422411D01*
X242124057Y-52022411D02*
X242124057Y-52422411D01*
X242124057Y-52079554D02*
X242147867Y-52050982D01*
X242147867Y-52050982D02*
X242195486Y-52022411D01*
X242195486Y-52022411D02*
X242266914Y-52022411D01*
X242266914Y-52022411D02*
X242314533Y-52050982D01*
X242314533Y-52050982D02*
X242338343Y-52108125D01*
X242338343Y-52108125D02*
X242338343Y-52422411D01*
X242647867Y-52422411D02*
X242600248Y-52393840D01*
X242600248Y-52393840D02*
X242576438Y-52365268D01*
X242576438Y-52365268D02*
X242552629Y-52308125D01*
X242552629Y-52308125D02*
X242552629Y-52136697D01*
X242552629Y-52136697D02*
X242576438Y-52079554D01*
X242576438Y-52079554D02*
X242600248Y-52050982D01*
X242600248Y-52050982D02*
X242647867Y-52022411D01*
X242647867Y-52022411D02*
X242719295Y-52022411D01*
X242719295Y-52022411D02*
X242766914Y-52050982D01*
X242766914Y-52050982D02*
X242790724Y-52079554D01*
X242790724Y-52079554D02*
X242814533Y-52136697D01*
X242814533Y-52136697D02*
X242814533Y-52308125D01*
X242814533Y-52308125D02*
X242790724Y-52365268D01*
X242790724Y-52365268D02*
X242766914Y-52393840D01*
X242766914Y-52393840D02*
X242719295Y-52422411D01*
X242719295Y-52422411D02*
X242647867Y-52422411D01*
X243243105Y-52422411D02*
X243243105Y-51822411D01*
X243243105Y-52393840D02*
X243195486Y-52422411D01*
X243195486Y-52422411D02*
X243100248Y-52422411D01*
X243100248Y-52422411D02*
X243052629Y-52393840D01*
X243052629Y-52393840D02*
X243028819Y-52365268D01*
X243028819Y-52365268D02*
X243005010Y-52308125D01*
X243005010Y-52308125D02*
X243005010Y-52136697D01*
X243005010Y-52136697D02*
X243028819Y-52079554D01*
X243028819Y-52079554D02*
X243052629Y-52050982D01*
X243052629Y-52050982D02*
X243100248Y-52022411D01*
X243100248Y-52022411D02*
X243195486Y-52022411D01*
X243195486Y-52022411D02*
X243243105Y-52050982D01*
X243671676Y-52393840D02*
X243624057Y-52422411D01*
X243624057Y-52422411D02*
X243528819Y-52422411D01*
X243528819Y-52422411D02*
X243481200Y-52393840D01*
X243481200Y-52393840D02*
X243457391Y-52336697D01*
X243457391Y-52336697D02*
X243457391Y-52108125D01*
X243457391Y-52108125D02*
X243481200Y-52050982D01*
X243481200Y-52050982D02*
X243528819Y-52022411D01*
X243528819Y-52022411D02*
X243624057Y-52022411D01*
X243624057Y-52022411D02*
X243671676Y-52050982D01*
X243671676Y-52050982D02*
X243695486Y-52108125D01*
X243695486Y-52108125D02*
X243695486Y-52165268D01*
X243695486Y-52165268D02*
X243457391Y-52222411D01*
D13*
X237603194Y-55822931D02*
X237946052Y-55822931D01*
X237774623Y-56422931D02*
X237774623Y-55822931D01*
X238146052Y-56422931D02*
X238146052Y-56022931D01*
X238146052Y-55822931D02*
X238117480Y-55851502D01*
X238117480Y-55851502D02*
X238146052Y-55880074D01*
X238146052Y-55880074D02*
X238174623Y-55851502D01*
X238174623Y-55851502D02*
X238146052Y-55822931D01*
X238146052Y-55822931D02*
X238146052Y-55880074D01*
X238431766Y-56422931D02*
X238431766Y-56022931D01*
X238431766Y-56080074D02*
X238460337Y-56051502D01*
X238460337Y-56051502D02*
X238517480Y-56022931D01*
X238517480Y-56022931D02*
X238603194Y-56022931D01*
X238603194Y-56022931D02*
X238660337Y-56051502D01*
X238660337Y-56051502D02*
X238688909Y-56108645D01*
X238688909Y-56108645D02*
X238688909Y-56422931D01*
X238688909Y-56108645D02*
X238717480Y-56051502D01*
X238717480Y-56051502D02*
X238774623Y-56022931D01*
X238774623Y-56022931D02*
X238860337Y-56022931D01*
X238860337Y-56022931D02*
X238917480Y-56051502D01*
X238917480Y-56051502D02*
X238946051Y-56108645D01*
X238946051Y-56108645D02*
X238946051Y-56422931D01*
X239460337Y-56394360D02*
X239403194Y-56422931D01*
X239403194Y-56422931D02*
X239288909Y-56422931D01*
X239288909Y-56422931D02*
X239231766Y-56394360D01*
X239231766Y-56394360D02*
X239203194Y-56337217D01*
X239203194Y-56337217D02*
X239203194Y-56108645D01*
X239203194Y-56108645D02*
X239231766Y-56051502D01*
X239231766Y-56051502D02*
X239288909Y-56022931D01*
X239288909Y-56022931D02*
X239403194Y-56022931D01*
X239403194Y-56022931D02*
X239460337Y-56051502D01*
X239460337Y-56051502D02*
X239488909Y-56108645D01*
X239488909Y-56108645D02*
X239488909Y-56165788D01*
X239488909Y-56165788D02*
X239203194Y-56222931D01*
X240460338Y-56422931D02*
X240460338Y-55822931D01*
X240460338Y-56394360D02*
X240403195Y-56422931D01*
X240403195Y-56422931D02*
X240288909Y-56422931D01*
X240288909Y-56422931D02*
X240231766Y-56394360D01*
X240231766Y-56394360D02*
X240203195Y-56365788D01*
X240203195Y-56365788D02*
X240174623Y-56308645D01*
X240174623Y-56308645D02*
X240174623Y-56137217D01*
X240174623Y-56137217D02*
X240203195Y-56080074D01*
X240203195Y-56080074D02*
X240231766Y-56051502D01*
X240231766Y-56051502D02*
X240288909Y-56022931D01*
X240288909Y-56022931D02*
X240403195Y-56022931D01*
X240403195Y-56022931D02*
X240460338Y-56051502D01*
X240974623Y-56394360D02*
X240917480Y-56422931D01*
X240917480Y-56422931D02*
X240803195Y-56422931D01*
X240803195Y-56422931D02*
X240746052Y-56394360D01*
X240746052Y-56394360D02*
X240717480Y-56337217D01*
X240717480Y-56337217D02*
X240717480Y-56108645D01*
X240717480Y-56108645D02*
X240746052Y-56051502D01*
X240746052Y-56051502D02*
X240803195Y-56022931D01*
X240803195Y-56022931D02*
X240917480Y-56022931D01*
X240917480Y-56022931D02*
X240974623Y-56051502D01*
X240974623Y-56051502D02*
X241003195Y-56108645D01*
X241003195Y-56108645D02*
X241003195Y-56165788D01*
X241003195Y-56165788D02*
X240717480Y-56222931D01*
X241346052Y-56422931D02*
X241288909Y-56394360D01*
X241288909Y-56394360D02*
X241260338Y-56337217D01*
X241260338Y-56337217D02*
X241260338Y-55822931D01*
X241831767Y-56422931D02*
X241831767Y-56108645D01*
X241831767Y-56108645D02*
X241803195Y-56051502D01*
X241803195Y-56051502D02*
X241746052Y-56022931D01*
X241746052Y-56022931D02*
X241631767Y-56022931D01*
X241631767Y-56022931D02*
X241574624Y-56051502D01*
X241831767Y-56394360D02*
X241774624Y-56422931D01*
X241774624Y-56422931D02*
X241631767Y-56422931D01*
X241631767Y-56422931D02*
X241574624Y-56394360D01*
X241574624Y-56394360D02*
X241546052Y-56337217D01*
X241546052Y-56337217D02*
X241546052Y-56280074D01*
X241546052Y-56280074D02*
X241574624Y-56222931D01*
X241574624Y-56222931D02*
X241631767Y-56194360D01*
X241631767Y-56194360D02*
X241774624Y-56194360D01*
X241774624Y-56194360D02*
X241831767Y-56165788D01*
X242060338Y-56022931D02*
X242203195Y-56422931D01*
X242346052Y-56022931D02*
X242203195Y-56422931D01*
X242203195Y-56422931D02*
X242146052Y-56565788D01*
X242146052Y-56565788D02*
X242117481Y-56594360D01*
X242117481Y-56594360D02*
X242060338Y-56622931D01*
D12*
X243457392Y-56434649D02*
X243290726Y-56196554D01*
X243171678Y-56434649D02*
X243171678Y-55934649D01*
X243171678Y-55934649D02*
X243362154Y-55934649D01*
X243362154Y-55934649D02*
X243409773Y-55958459D01*
X243409773Y-55958459D02*
X243433583Y-55982268D01*
X243433583Y-55982268D02*
X243457392Y-56029887D01*
X243457392Y-56029887D02*
X243457392Y-56101316D01*
X243457392Y-56101316D02*
X243433583Y-56148935D01*
X243433583Y-56148935D02*
X243409773Y-56172744D01*
X243409773Y-56172744D02*
X243362154Y-56196554D01*
X243362154Y-56196554D02*
X243171678Y-56196554D01*
X243862154Y-56410840D02*
X243814535Y-56434649D01*
X243814535Y-56434649D02*
X243719297Y-56434649D01*
X243719297Y-56434649D02*
X243671678Y-56410840D01*
X243671678Y-56410840D02*
X243647869Y-56363220D01*
X243647869Y-56363220D02*
X243647869Y-56172744D01*
X243647869Y-56172744D02*
X243671678Y-56125125D01*
X243671678Y-56125125D02*
X243719297Y-56101316D01*
X243719297Y-56101316D02*
X243814535Y-56101316D01*
X243814535Y-56101316D02*
X243862154Y-56125125D01*
X243862154Y-56125125D02*
X243885964Y-56172744D01*
X243885964Y-56172744D02*
X243885964Y-56220363D01*
X243885964Y-56220363D02*
X243647869Y-56267982D01*
X244314535Y-56434649D02*
X244314535Y-56172744D01*
X244314535Y-56172744D02*
X244290725Y-56125125D01*
X244290725Y-56125125D02*
X244243106Y-56101316D01*
X244243106Y-56101316D02*
X244147868Y-56101316D01*
X244147868Y-56101316D02*
X244100249Y-56125125D01*
X244314535Y-56410840D02*
X244266916Y-56434649D01*
X244266916Y-56434649D02*
X244147868Y-56434649D01*
X244147868Y-56434649D02*
X244100249Y-56410840D01*
X244100249Y-56410840D02*
X244076440Y-56363220D01*
X244076440Y-56363220D02*
X244076440Y-56315601D01*
X244076440Y-56315601D02*
X244100249Y-56267982D01*
X244100249Y-56267982D02*
X244147868Y-56244173D01*
X244147868Y-56244173D02*
X244266916Y-56244173D01*
X244266916Y-56244173D02*
X244314535Y-56220363D01*
X244766916Y-56434649D02*
X244766916Y-55934649D01*
X244766916Y-56410840D02*
X244719297Y-56434649D01*
X244719297Y-56434649D02*
X244624059Y-56434649D01*
X244624059Y-56434649D02*
X244576440Y-56410840D01*
X244576440Y-56410840D02*
X244552630Y-56387030D01*
X244552630Y-56387030D02*
X244528821Y-56339411D01*
X244528821Y-56339411D02*
X244528821Y-56196554D01*
X244528821Y-56196554D02*
X244552630Y-56148935D01*
X244552630Y-56148935D02*
X244576440Y-56125125D01*
X244576440Y-56125125D02*
X244624059Y-56101316D01*
X244624059Y-56101316D02*
X244719297Y-56101316D01*
X244719297Y-56101316D02*
X244766916Y-56125125D01*
X245385963Y-56434649D02*
X245385963Y-55934649D01*
X245624058Y-56434649D02*
X245624058Y-55934649D01*
X245624058Y-55934649D02*
X245790725Y-56291792D01*
X245790725Y-56291792D02*
X245957391Y-55934649D01*
X245957391Y-55934649D02*
X245957391Y-56434649D01*
X246195487Y-56434649D02*
X246195487Y-55934649D01*
X246195487Y-55934649D02*
X246314535Y-55934649D01*
X246314535Y-55934649D02*
X246385963Y-55958459D01*
X246385963Y-55958459D02*
X246433582Y-56006078D01*
X246433582Y-56006078D02*
X246457392Y-56053697D01*
X246457392Y-56053697D02*
X246481201Y-56148935D01*
X246481201Y-56148935D02*
X246481201Y-56220363D01*
X246481201Y-56220363D02*
X246457392Y-56315601D01*
X246457392Y-56315601D02*
X246433582Y-56363220D01*
X246433582Y-56363220D02*
X246385963Y-56410840D01*
X246385963Y-56410840D02*
X246314535Y-56434649D01*
X246314535Y-56434649D02*
X246195487Y-56434649D01*
X247052630Y-56410840D02*
X247100249Y-56434649D01*
X247100249Y-56434649D02*
X247195487Y-56434649D01*
X247195487Y-56434649D02*
X247243106Y-56410840D01*
X247243106Y-56410840D02*
X247266915Y-56363220D01*
X247266915Y-56363220D02*
X247266915Y-56339411D01*
X247266915Y-56339411D02*
X247243106Y-56291792D01*
X247243106Y-56291792D02*
X247195487Y-56267982D01*
X247195487Y-56267982D02*
X247124058Y-56267982D01*
X247124058Y-56267982D02*
X247076439Y-56244173D01*
X247076439Y-56244173D02*
X247052630Y-56196554D01*
X247052630Y-56196554D02*
X247052630Y-56172744D01*
X247052630Y-56172744D02*
X247076439Y-56125125D01*
X247076439Y-56125125D02*
X247124058Y-56101316D01*
X247124058Y-56101316D02*
X247195487Y-56101316D01*
X247195487Y-56101316D02*
X247243106Y-56125125D01*
X247409773Y-56101316D02*
X247600249Y-56101316D01*
X247481201Y-55934649D02*
X247481201Y-56363220D01*
X247481201Y-56363220D02*
X247505011Y-56410840D01*
X247505011Y-56410840D02*
X247552630Y-56434649D01*
X247552630Y-56434649D02*
X247600249Y-56434649D01*
X247981201Y-56434649D02*
X247981201Y-56172744D01*
X247981201Y-56172744D02*
X247957391Y-56125125D01*
X247957391Y-56125125D02*
X247909772Y-56101316D01*
X247909772Y-56101316D02*
X247814534Y-56101316D01*
X247814534Y-56101316D02*
X247766915Y-56125125D01*
X247981201Y-56410840D02*
X247933582Y-56434649D01*
X247933582Y-56434649D02*
X247814534Y-56434649D01*
X247814534Y-56434649D02*
X247766915Y-56410840D01*
X247766915Y-56410840D02*
X247743106Y-56363220D01*
X247743106Y-56363220D02*
X247743106Y-56315601D01*
X247743106Y-56315601D02*
X247766915Y-56267982D01*
X247766915Y-56267982D02*
X247814534Y-56244173D01*
X247814534Y-56244173D02*
X247933582Y-56244173D01*
X247933582Y-56244173D02*
X247981201Y-56220363D01*
X248147868Y-56101316D02*
X248338344Y-56101316D01*
X248219296Y-55934649D02*
X248219296Y-56363220D01*
X248219296Y-56363220D02*
X248243106Y-56410840D01*
X248243106Y-56410840D02*
X248290725Y-56434649D01*
X248290725Y-56434649D02*
X248338344Y-56434649D01*
X248719296Y-56101316D02*
X248719296Y-56434649D01*
X248505010Y-56101316D02*
X248505010Y-56363220D01*
X248505010Y-56363220D02*
X248528820Y-56410840D01*
X248528820Y-56410840D02*
X248576439Y-56434649D01*
X248576439Y-56434649D02*
X248647867Y-56434649D01*
X248647867Y-56434649D02*
X248695486Y-56410840D01*
X248695486Y-56410840D02*
X248719296Y-56387030D01*
X248933582Y-56410840D02*
X248981201Y-56434649D01*
X248981201Y-56434649D02*
X249076439Y-56434649D01*
X249076439Y-56434649D02*
X249124058Y-56410840D01*
X249124058Y-56410840D02*
X249147867Y-56363220D01*
X249147867Y-56363220D02*
X249147867Y-56339411D01*
X249147867Y-56339411D02*
X249124058Y-56291792D01*
X249124058Y-56291792D02*
X249076439Y-56267982D01*
X249076439Y-56267982D02*
X249005010Y-56267982D01*
X249005010Y-56267982D02*
X248957391Y-56244173D01*
X248957391Y-56244173D02*
X248933582Y-56196554D01*
X248933582Y-56196554D02*
X248933582Y-56172744D01*
X248933582Y-56172744D02*
X248957391Y-56125125D01*
X248957391Y-56125125D02*
X249005010Y-56101316D01*
X249005010Y-56101316D02*
X249076439Y-56101316D01*
X249076439Y-56101316D02*
X249124058Y-56125125D01*
D11*
X233114286Y-76007419D02*
X233114286Y-75007419D01*
X233400000Y-76007419D02*
X233400000Y-75007419D01*
X233400000Y-75007419D02*
X233600000Y-75721704D01*
X233600000Y-75721704D02*
X233800000Y-75007419D01*
X233800000Y-75007419D02*
X233800000Y-76007419D01*
X234085714Y-76007419D02*
X234085714Y-75007419D01*
X234085714Y-75007419D02*
X234228571Y-75007419D01*
X234228571Y-75007419D02*
X234314285Y-75055038D01*
X234314285Y-75055038D02*
X234371428Y-75150276D01*
X234371428Y-75150276D02*
X234399999Y-75245514D01*
X234399999Y-75245514D02*
X234428571Y-75435990D01*
X234428571Y-75435990D02*
X234428571Y-75578847D01*
X234428571Y-75578847D02*
X234399999Y-75769323D01*
X234399999Y-75769323D02*
X234371428Y-75864561D01*
X234371428Y-75864561D02*
X234314285Y-75959800D01*
X234314285Y-75959800D02*
X234228571Y-76007419D01*
X234228571Y-76007419D02*
X234085714Y-76007419D01*
X235114285Y-75959800D02*
X235200000Y-76007419D01*
X235200000Y-76007419D02*
X235342857Y-76007419D01*
X235342857Y-76007419D02*
X235400000Y-75959800D01*
X235400000Y-75959800D02*
X235428571Y-75912180D01*
X235428571Y-75912180D02*
X235457142Y-75816942D01*
X235457142Y-75816942D02*
X235457142Y-75721704D01*
X235457142Y-75721704D02*
X235428571Y-75626466D01*
X235428571Y-75626466D02*
X235400000Y-75578847D01*
X235400000Y-75578847D02*
X235342857Y-75531228D01*
X235342857Y-75531228D02*
X235228571Y-75483609D01*
X235228571Y-75483609D02*
X235171428Y-75435990D01*
X235171428Y-75435990D02*
X235142857Y-75388371D01*
X235142857Y-75388371D02*
X235114285Y-75293133D01*
X235114285Y-75293133D02*
X235114285Y-75197895D01*
X235114285Y-75197895D02*
X235142857Y-75102657D01*
X235142857Y-75102657D02*
X235171428Y-75055038D01*
X235171428Y-75055038D02*
X235228571Y-75007419D01*
X235228571Y-75007419D02*
X235371428Y-75007419D01*
X235371428Y-75007419D02*
X235457142Y-75055038D01*
X235628571Y-75340752D02*
X235857143Y-75340752D01*
X235714286Y-75007419D02*
X235714286Y-75864561D01*
X235714286Y-75864561D02*
X235742857Y-75959800D01*
X235742857Y-75959800D02*
X235800000Y-76007419D01*
X235800000Y-76007419D02*
X235857143Y-76007419D01*
X236314286Y-76007419D02*
X236314286Y-75483609D01*
X236314286Y-75483609D02*
X236285714Y-75388371D01*
X236285714Y-75388371D02*
X236228571Y-75340752D01*
X236228571Y-75340752D02*
X236114286Y-75340752D01*
X236114286Y-75340752D02*
X236057143Y-75388371D01*
X236314286Y-75959800D02*
X236257143Y-76007419D01*
X236257143Y-76007419D02*
X236114286Y-76007419D01*
X236114286Y-76007419D02*
X236057143Y-75959800D01*
X236057143Y-75959800D02*
X236028571Y-75864561D01*
X236028571Y-75864561D02*
X236028571Y-75769323D01*
X236028571Y-75769323D02*
X236057143Y-75674085D01*
X236057143Y-75674085D02*
X236114286Y-75626466D01*
X236114286Y-75626466D02*
X236257143Y-75626466D01*
X236257143Y-75626466D02*
X236314286Y-75578847D01*
X236514285Y-75340752D02*
X236742857Y-75340752D01*
X236600000Y-75007419D02*
X236600000Y-75864561D01*
X236600000Y-75864561D02*
X236628571Y-75959800D01*
X236628571Y-75959800D02*
X236685714Y-76007419D01*
X236685714Y-76007419D02*
X236742857Y-76007419D01*
X237200000Y-75340752D02*
X237200000Y-76007419D01*
X236942857Y-75340752D02*
X236942857Y-75864561D01*
X236942857Y-75864561D02*
X236971428Y-75959800D01*
X236971428Y-75959800D02*
X237028571Y-76007419D01*
X237028571Y-76007419D02*
X237114285Y-76007419D01*
X237114285Y-76007419D02*
X237171428Y-75959800D01*
X237171428Y-75959800D02*
X237200000Y-75912180D01*
X237457142Y-75959800D02*
X237514285Y-76007419D01*
X237514285Y-76007419D02*
X237628571Y-76007419D01*
X237628571Y-76007419D02*
X237685714Y-75959800D01*
X237685714Y-75959800D02*
X237714285Y-75864561D01*
X237714285Y-75864561D02*
X237714285Y-75816942D01*
X237714285Y-75816942D02*
X237685714Y-75721704D01*
X237685714Y-75721704D02*
X237628571Y-75674085D01*
X237628571Y-75674085D02*
X237542857Y-75674085D01*
X237542857Y-75674085D02*
X237485714Y-75626466D01*
X237485714Y-75626466D02*
X237457142Y-75531228D01*
X237457142Y-75531228D02*
X237457142Y-75483609D01*
X237457142Y-75483609D02*
X237485714Y-75388371D01*
X237485714Y-75388371D02*
X237542857Y-75340752D01*
X237542857Y-75340752D02*
X237628571Y-75340752D01*
X237628571Y-75340752D02*
X237685714Y-75388371D01*
X239192857Y-76107419D02*
X239192857Y-75107419D01*
X239192857Y-75107419D02*
X239335714Y-75107419D01*
X239335714Y-75107419D02*
X239421428Y-75155038D01*
X239421428Y-75155038D02*
X239478571Y-75250276D01*
X239478571Y-75250276D02*
X239507142Y-75345514D01*
X239507142Y-75345514D02*
X239535714Y-75535990D01*
X239535714Y-75535990D02*
X239535714Y-75678847D01*
X239535714Y-75678847D02*
X239507142Y-75869323D01*
X239507142Y-75869323D02*
X239478571Y-75964561D01*
X239478571Y-75964561D02*
X239421428Y-76059800D01*
X239421428Y-76059800D02*
X239335714Y-76107419D01*
X239335714Y-76107419D02*
X239192857Y-76107419D01*
X240021428Y-76059800D02*
X239964285Y-76107419D01*
X239964285Y-76107419D02*
X239850000Y-76107419D01*
X239850000Y-76107419D02*
X239792857Y-76059800D01*
X239792857Y-76059800D02*
X239764285Y-75964561D01*
X239764285Y-75964561D02*
X239764285Y-75583609D01*
X239764285Y-75583609D02*
X239792857Y-75488371D01*
X239792857Y-75488371D02*
X239850000Y-75440752D01*
X239850000Y-75440752D02*
X239964285Y-75440752D01*
X239964285Y-75440752D02*
X240021428Y-75488371D01*
X240021428Y-75488371D02*
X240050000Y-75583609D01*
X240050000Y-75583609D02*
X240050000Y-75678847D01*
X240050000Y-75678847D02*
X239764285Y-75774085D01*
X240392857Y-76107419D02*
X240335714Y-76059800D01*
X240335714Y-76059800D02*
X240307143Y-75964561D01*
X240307143Y-75964561D02*
X240307143Y-75107419D01*
X240878572Y-76107419D02*
X240878572Y-75583609D01*
X240878572Y-75583609D02*
X240850000Y-75488371D01*
X240850000Y-75488371D02*
X240792857Y-75440752D01*
X240792857Y-75440752D02*
X240678572Y-75440752D01*
X240678572Y-75440752D02*
X240621429Y-75488371D01*
X240878572Y-76059800D02*
X240821429Y-76107419D01*
X240821429Y-76107419D02*
X240678572Y-76107419D01*
X240678572Y-76107419D02*
X240621429Y-76059800D01*
X240621429Y-76059800D02*
X240592857Y-75964561D01*
X240592857Y-75964561D02*
X240592857Y-75869323D01*
X240592857Y-75869323D02*
X240621429Y-75774085D01*
X240621429Y-75774085D02*
X240678572Y-75726466D01*
X240678572Y-75726466D02*
X240821429Y-75726466D01*
X240821429Y-75726466D02*
X240878572Y-75678847D01*
X241107143Y-75440752D02*
X241250000Y-76107419D01*
X241392857Y-75440752D02*
X241250000Y-76107419D01*
X241250000Y-76107419D02*
X241192857Y-76345514D01*
X241192857Y-76345514D02*
X241164286Y-76393133D01*
X241164286Y-76393133D02*
X241107143Y-76440752D01*
X242078572Y-76107419D02*
X242078572Y-75107419D01*
X242364286Y-76107419D02*
X242364286Y-75107419D01*
X242364286Y-75107419D02*
X242707143Y-76107419D01*
X242707143Y-76107419D02*
X242707143Y-75107419D01*
X222121429Y-76007419D02*
X222121429Y-75007419D01*
X222407143Y-76007419D02*
X222407143Y-75007419D01*
X222407143Y-75007419D02*
X222607143Y-75721704D01*
X222607143Y-75721704D02*
X222807143Y-75007419D01*
X222807143Y-75007419D02*
X222807143Y-76007419D01*
X223092857Y-76007419D02*
X223092857Y-75007419D01*
X223092857Y-75007419D02*
X223235714Y-75007419D01*
X223235714Y-75007419D02*
X223321428Y-75055038D01*
X223321428Y-75055038D02*
X223378571Y-75150276D01*
X223378571Y-75150276D02*
X223407142Y-75245514D01*
X223407142Y-75245514D02*
X223435714Y-75435990D01*
X223435714Y-75435990D02*
X223435714Y-75578847D01*
X223435714Y-75578847D02*
X223407142Y-75769323D01*
X223407142Y-75769323D02*
X223378571Y-75864561D01*
X223378571Y-75864561D02*
X223321428Y-75959800D01*
X223321428Y-75959800D02*
X223235714Y-76007419D01*
X223235714Y-76007419D02*
X223092857Y-76007419D01*
X224064285Y-75007419D02*
X224407143Y-75007419D01*
X224235714Y-76007419D02*
X224235714Y-75007419D01*
X224607143Y-76007419D02*
X224607143Y-75007419D01*
X224864286Y-76007419D02*
X224864286Y-75483609D01*
X224864286Y-75483609D02*
X224835714Y-75388371D01*
X224835714Y-75388371D02*
X224778571Y-75340752D01*
X224778571Y-75340752D02*
X224692857Y-75340752D01*
X224692857Y-75340752D02*
X224635714Y-75388371D01*
X224635714Y-75388371D02*
X224607143Y-75435990D01*
X225150000Y-76007419D02*
X225150000Y-75340752D01*
X225150000Y-75531228D02*
X225178571Y-75435990D01*
X225178571Y-75435990D02*
X225207143Y-75388371D01*
X225207143Y-75388371D02*
X225264285Y-75340752D01*
X225264285Y-75340752D02*
X225321428Y-75340752D01*
X225750000Y-75959800D02*
X225692857Y-76007419D01*
X225692857Y-76007419D02*
X225578572Y-76007419D01*
X225578572Y-76007419D02*
X225521429Y-75959800D01*
X225521429Y-75959800D02*
X225492857Y-75864561D01*
X225492857Y-75864561D02*
X225492857Y-75483609D01*
X225492857Y-75483609D02*
X225521429Y-75388371D01*
X225521429Y-75388371D02*
X225578572Y-75340752D01*
X225578572Y-75340752D02*
X225692857Y-75340752D01*
X225692857Y-75340752D02*
X225750000Y-75388371D01*
X225750000Y-75388371D02*
X225778572Y-75483609D01*
X225778572Y-75483609D02*
X225778572Y-75578847D01*
X225778572Y-75578847D02*
X225492857Y-75674085D01*
X226007143Y-75959800D02*
X226064286Y-76007419D01*
X226064286Y-76007419D02*
X226178572Y-76007419D01*
X226178572Y-76007419D02*
X226235715Y-75959800D01*
X226235715Y-75959800D02*
X226264286Y-75864561D01*
X226264286Y-75864561D02*
X226264286Y-75816942D01*
X226264286Y-75816942D02*
X226235715Y-75721704D01*
X226235715Y-75721704D02*
X226178572Y-75674085D01*
X226178572Y-75674085D02*
X226092858Y-75674085D01*
X226092858Y-75674085D02*
X226035715Y-75626466D01*
X226035715Y-75626466D02*
X226007143Y-75531228D01*
X226007143Y-75531228D02*
X226007143Y-75483609D01*
X226007143Y-75483609D02*
X226035715Y-75388371D01*
X226035715Y-75388371D02*
X226092858Y-75340752D01*
X226092858Y-75340752D02*
X226178572Y-75340752D01*
X226178572Y-75340752D02*
X226235715Y-75388371D01*
X226521429Y-76007419D02*
X226521429Y-75007419D01*
X226778572Y-76007419D02*
X226778572Y-75483609D01*
X226778572Y-75483609D02*
X226750000Y-75388371D01*
X226750000Y-75388371D02*
X226692857Y-75340752D01*
X226692857Y-75340752D02*
X226607143Y-75340752D01*
X226607143Y-75340752D02*
X226550000Y-75388371D01*
X226550000Y-75388371D02*
X226521429Y-75435990D01*
D10*
X228714286Y-75573866D02*
X229476191Y-75573866D01*
X229095238Y-75954819D02*
X229095238Y-75192914D01*
X230428571Y-74954819D02*
X229952381Y-74954819D01*
X229952381Y-74954819D02*
X229904762Y-75431009D01*
X229904762Y-75431009D02*
X229952381Y-75383390D01*
X229952381Y-75383390D02*
X230047619Y-75335771D01*
X230047619Y-75335771D02*
X230285714Y-75335771D01*
X230285714Y-75335771D02*
X230380952Y-75383390D01*
X230380952Y-75383390D02*
X230428571Y-75431009D01*
X230428571Y-75431009D02*
X230476190Y-75526247D01*
X230476190Y-75526247D02*
X230476190Y-75764342D01*
X230476190Y-75764342D02*
X230428571Y-75859580D01*
X230428571Y-75859580D02*
X230380952Y-75907200D01*
X230380952Y-75907200D02*
X230285714Y-75954819D01*
X230285714Y-75954819D02*
X230047619Y-75954819D01*
X230047619Y-75954819D02*
X229952381Y-75907200D01*
X229952381Y-75907200D02*
X229904762Y-75859580D01*
X230761905Y-74954819D02*
X231095238Y-75954819D01*
X231095238Y-75954819D02*
X231428571Y-74954819D01*
D11*
X217400000Y-75957419D02*
X217400000Y-74957419D01*
X217733333Y-75957419D02*
X217733333Y-74957419D01*
X217733333Y-74957419D02*
X217966667Y-75671704D01*
X217966667Y-75671704D02*
X218200000Y-74957419D01*
X218200000Y-74957419D02*
X218200000Y-75957419D01*
X218533333Y-75957419D02*
X218533333Y-74957419D01*
X218533333Y-74957419D02*
X218700000Y-74957419D01*
X218700000Y-74957419D02*
X218800000Y-75005038D01*
X218800000Y-75005038D02*
X218866667Y-75100276D01*
X218866667Y-75100276D02*
X218900000Y-75195514D01*
X218900000Y-75195514D02*
X218933333Y-75385990D01*
X218933333Y-75385990D02*
X218933333Y-75528847D01*
X218933333Y-75528847D02*
X218900000Y-75719323D01*
X218900000Y-75719323D02*
X218866667Y-75814561D01*
X218866667Y-75814561D02*
X218800000Y-75909800D01*
X218800000Y-75909800D02*
X218700000Y-75957419D01*
X218700000Y-75957419D02*
X218533333Y-75957419D01*
X219766666Y-75957419D02*
X219766666Y-74957419D01*
X220099999Y-75957419D02*
X220099999Y-74957419D01*
X220099999Y-74957419D02*
X220499999Y-75957419D01*
X220499999Y-75957419D02*
X220499999Y-74957419D01*
D10*
X236480951Y-64154819D02*
X236480951Y-63154819D01*
X236480951Y-63154819D02*
X236671427Y-63154819D01*
X236671427Y-63154819D02*
X236785713Y-63202438D01*
X236785713Y-63202438D02*
X236861903Y-63297676D01*
X236861903Y-63297676D02*
X236899998Y-63392914D01*
X236899998Y-63392914D02*
X236938094Y-63583390D01*
X236938094Y-63583390D02*
X236938094Y-63726247D01*
X236938094Y-63726247D02*
X236899998Y-63916723D01*
X236899998Y-63916723D02*
X236861903Y-64011961D01*
X236861903Y-64011961D02*
X236785713Y-64107200D01*
X236785713Y-64107200D02*
X236671427Y-64154819D01*
X236671427Y-64154819D02*
X236480951Y-64154819D01*
X237585713Y-64107200D02*
X237509522Y-64154819D01*
X237509522Y-64154819D02*
X237357141Y-64154819D01*
X237357141Y-64154819D02*
X237280951Y-64107200D01*
X237280951Y-64107200D02*
X237242855Y-64011961D01*
X237242855Y-64011961D02*
X237242855Y-63631009D01*
X237242855Y-63631009D02*
X237280951Y-63535771D01*
X237280951Y-63535771D02*
X237357141Y-63488152D01*
X237357141Y-63488152D02*
X237509522Y-63488152D01*
X237509522Y-63488152D02*
X237585713Y-63535771D01*
X237585713Y-63535771D02*
X237623808Y-63631009D01*
X237623808Y-63631009D02*
X237623808Y-63726247D01*
X237623808Y-63726247D02*
X237242855Y-63821485D01*
X238080950Y-64154819D02*
X238004760Y-64107200D01*
X238004760Y-64107200D02*
X237966665Y-64011961D01*
X237966665Y-64011961D02*
X237966665Y-63154819D01*
X238728570Y-64154819D02*
X238728570Y-63631009D01*
X238728570Y-63631009D02*
X238690475Y-63535771D01*
X238690475Y-63535771D02*
X238614284Y-63488152D01*
X238614284Y-63488152D02*
X238461903Y-63488152D01*
X238461903Y-63488152D02*
X238385713Y-63535771D01*
X238728570Y-64107200D02*
X238652379Y-64154819D01*
X238652379Y-64154819D02*
X238461903Y-64154819D01*
X238461903Y-64154819D02*
X238385713Y-64107200D01*
X238385713Y-64107200D02*
X238347617Y-64011961D01*
X238347617Y-64011961D02*
X238347617Y-63916723D01*
X238347617Y-63916723D02*
X238385713Y-63821485D01*
X238385713Y-63821485D02*
X238461903Y-63773866D01*
X238461903Y-63773866D02*
X238652379Y-63773866D01*
X238652379Y-63773866D02*
X238728570Y-63726247D01*
X239033332Y-63488152D02*
X239223808Y-64154819D01*
X239414285Y-63488152D02*
X239223808Y-64154819D01*
X239223808Y-64154819D02*
X239147618Y-64392914D01*
X239147618Y-64392914D02*
X239109523Y-64440533D01*
X239109523Y-64440533D02*
X239033332Y-64488152D01*
X240290475Y-64107200D02*
X240404761Y-64154819D01*
X240404761Y-64154819D02*
X240595237Y-64154819D01*
X240595237Y-64154819D02*
X240671428Y-64107200D01*
X240671428Y-64107200D02*
X240709523Y-64059580D01*
X240709523Y-64059580D02*
X240747618Y-63964342D01*
X240747618Y-63964342D02*
X240747618Y-63869104D01*
X240747618Y-63869104D02*
X240709523Y-63773866D01*
X240709523Y-63773866D02*
X240671428Y-63726247D01*
X240671428Y-63726247D02*
X240595237Y-63678628D01*
X240595237Y-63678628D02*
X240442856Y-63631009D01*
X240442856Y-63631009D02*
X240366666Y-63583390D01*
X240366666Y-63583390D02*
X240328571Y-63535771D01*
X240328571Y-63535771D02*
X240290475Y-63440533D01*
X240290475Y-63440533D02*
X240290475Y-63345295D01*
X240290475Y-63345295D02*
X240328571Y-63250057D01*
X240328571Y-63250057D02*
X240366666Y-63202438D01*
X240366666Y-63202438D02*
X240442856Y-63154819D01*
X240442856Y-63154819D02*
X240633333Y-63154819D01*
X240633333Y-63154819D02*
X240747618Y-63202438D01*
X240976190Y-63488152D02*
X241280952Y-63488152D01*
X241090476Y-63154819D02*
X241090476Y-64011961D01*
X241090476Y-64011961D02*
X241128571Y-64107200D01*
X241128571Y-64107200D02*
X241204761Y-64154819D01*
X241204761Y-64154819D02*
X241280952Y-64154819D01*
X241890476Y-64154819D02*
X241890476Y-63631009D01*
X241890476Y-63631009D02*
X241852381Y-63535771D01*
X241852381Y-63535771D02*
X241776190Y-63488152D01*
X241776190Y-63488152D02*
X241623809Y-63488152D01*
X241623809Y-63488152D02*
X241547619Y-63535771D01*
X241890476Y-64107200D02*
X241814285Y-64154819D01*
X241814285Y-64154819D02*
X241623809Y-64154819D01*
X241623809Y-64154819D02*
X241547619Y-64107200D01*
X241547619Y-64107200D02*
X241509523Y-64011961D01*
X241509523Y-64011961D02*
X241509523Y-63916723D01*
X241509523Y-63916723D02*
X241547619Y-63821485D01*
X241547619Y-63821485D02*
X241623809Y-63773866D01*
X241623809Y-63773866D02*
X241814285Y-63773866D01*
X241814285Y-63773866D02*
X241890476Y-63726247D01*
X242157143Y-63488152D02*
X242461905Y-63488152D01*
X242271429Y-63154819D02*
X242271429Y-64011961D01*
X242271429Y-64011961D02*
X242309524Y-64107200D01*
X242309524Y-64107200D02*
X242385714Y-64154819D01*
X242385714Y-64154819D02*
X242461905Y-64154819D01*
X243071429Y-63488152D02*
X243071429Y-64154819D01*
X242728572Y-63488152D02*
X242728572Y-64011961D01*
X242728572Y-64011961D02*
X242766667Y-64107200D01*
X242766667Y-64107200D02*
X242842857Y-64154819D01*
X242842857Y-64154819D02*
X242957143Y-64154819D01*
X242957143Y-64154819D02*
X243033334Y-64107200D01*
X243033334Y-64107200D02*
X243071429Y-64059580D01*
X243414286Y-64107200D02*
X243490477Y-64154819D01*
X243490477Y-64154819D02*
X243642858Y-64154819D01*
X243642858Y-64154819D02*
X243719048Y-64107200D01*
X243719048Y-64107200D02*
X243757144Y-64011961D01*
X243757144Y-64011961D02*
X243757144Y-63964342D01*
X243757144Y-63964342D02*
X243719048Y-63869104D01*
X243719048Y-63869104D02*
X243642858Y-63821485D01*
X243642858Y-63821485D02*
X243528572Y-63821485D01*
X243528572Y-63821485D02*
X243452382Y-63773866D01*
X243452382Y-63773866D02*
X243414286Y-63678628D01*
X243414286Y-63678628D02*
X243414286Y-63631009D01*
X243414286Y-63631009D02*
X243452382Y-63535771D01*
X243452382Y-63535771D02*
X243528572Y-63488152D01*
X243528572Y-63488152D02*
X243642858Y-63488152D01*
X243642858Y-63488152D02*
X243719048Y-63535771D01*
D11*
X243792857Y-76107419D02*
X243792857Y-75107419D01*
X243792857Y-75107419D02*
X243935714Y-75107419D01*
X243935714Y-75107419D02*
X244021428Y-75155038D01*
X244021428Y-75155038D02*
X244078571Y-75250276D01*
X244078571Y-75250276D02*
X244107142Y-75345514D01*
X244107142Y-75345514D02*
X244135714Y-75535990D01*
X244135714Y-75535990D02*
X244135714Y-75678847D01*
X244135714Y-75678847D02*
X244107142Y-75869323D01*
X244107142Y-75869323D02*
X244078571Y-75964561D01*
X244078571Y-75964561D02*
X244021428Y-76059800D01*
X244021428Y-76059800D02*
X243935714Y-76107419D01*
X243935714Y-76107419D02*
X243792857Y-76107419D01*
X244621428Y-76059800D02*
X244564285Y-76107419D01*
X244564285Y-76107419D02*
X244450000Y-76107419D01*
X244450000Y-76107419D02*
X244392857Y-76059800D01*
X244392857Y-76059800D02*
X244364285Y-75964561D01*
X244364285Y-75964561D02*
X244364285Y-75583609D01*
X244364285Y-75583609D02*
X244392857Y-75488371D01*
X244392857Y-75488371D02*
X244450000Y-75440752D01*
X244450000Y-75440752D02*
X244564285Y-75440752D01*
X244564285Y-75440752D02*
X244621428Y-75488371D01*
X244621428Y-75488371D02*
X244650000Y-75583609D01*
X244650000Y-75583609D02*
X244650000Y-75678847D01*
X244650000Y-75678847D02*
X244364285Y-75774085D01*
X244992857Y-76107419D02*
X244935714Y-76059800D01*
X244935714Y-76059800D02*
X244907143Y-75964561D01*
X244907143Y-75964561D02*
X244907143Y-75107419D01*
X245478572Y-76107419D02*
X245478572Y-75583609D01*
X245478572Y-75583609D02*
X245450000Y-75488371D01*
X245450000Y-75488371D02*
X245392857Y-75440752D01*
X245392857Y-75440752D02*
X245278572Y-75440752D01*
X245278572Y-75440752D02*
X245221429Y-75488371D01*
X245478572Y-76059800D02*
X245421429Y-76107419D01*
X245421429Y-76107419D02*
X245278572Y-76107419D01*
X245278572Y-76107419D02*
X245221429Y-76059800D01*
X245221429Y-76059800D02*
X245192857Y-75964561D01*
X245192857Y-75964561D02*
X245192857Y-75869323D01*
X245192857Y-75869323D02*
X245221429Y-75774085D01*
X245221429Y-75774085D02*
X245278572Y-75726466D01*
X245278572Y-75726466D02*
X245421429Y-75726466D01*
X245421429Y-75726466D02*
X245478572Y-75678847D01*
X245707143Y-75440752D02*
X245850000Y-76107419D01*
X245992857Y-75440752D02*
X245850000Y-76107419D01*
X245850000Y-76107419D02*
X245792857Y-76345514D01*
X245792857Y-76345514D02*
X245764286Y-76393133D01*
X245764286Y-76393133D02*
X245707143Y-76440752D01*
X246592857Y-75107419D02*
X246935715Y-75107419D01*
X246764286Y-76107419D02*
X246764286Y-75107419D01*
X247135715Y-76107419D02*
X247135715Y-75107419D01*
X247392858Y-76107419D02*
X247392858Y-75583609D01*
X247392858Y-75583609D02*
X247364286Y-75488371D01*
X247364286Y-75488371D02*
X247307143Y-75440752D01*
X247307143Y-75440752D02*
X247221429Y-75440752D01*
X247221429Y-75440752D02*
X247164286Y-75488371D01*
X247164286Y-75488371D02*
X247135715Y-75535990D01*
X247678572Y-76107419D02*
X247678572Y-75440752D01*
X247678572Y-75631228D02*
X247707143Y-75535990D01*
X247707143Y-75535990D02*
X247735715Y-75488371D01*
X247735715Y-75488371D02*
X247792857Y-75440752D01*
X247792857Y-75440752D02*
X247850000Y-75440752D01*
X248278572Y-76059800D02*
X248221429Y-76107419D01*
X248221429Y-76107419D02*
X248107144Y-76107419D01*
X248107144Y-76107419D02*
X248050001Y-76059800D01*
X248050001Y-76059800D02*
X248021429Y-75964561D01*
X248021429Y-75964561D02*
X248021429Y-75583609D01*
X248021429Y-75583609D02*
X248050001Y-75488371D01*
X248050001Y-75488371D02*
X248107144Y-75440752D01*
X248107144Y-75440752D02*
X248221429Y-75440752D01*
X248221429Y-75440752D02*
X248278572Y-75488371D01*
X248278572Y-75488371D02*
X248307144Y-75583609D01*
X248307144Y-75583609D02*
X248307144Y-75678847D01*
X248307144Y-75678847D02*
X248021429Y-75774085D01*
X248535715Y-76059800D02*
X248592858Y-76107419D01*
X248592858Y-76107419D02*
X248707144Y-76107419D01*
X248707144Y-76107419D02*
X248764287Y-76059800D01*
X248764287Y-76059800D02*
X248792858Y-75964561D01*
X248792858Y-75964561D02*
X248792858Y-75916942D01*
X248792858Y-75916942D02*
X248764287Y-75821704D01*
X248764287Y-75821704D02*
X248707144Y-75774085D01*
X248707144Y-75774085D02*
X248621430Y-75774085D01*
X248621430Y-75774085D02*
X248564287Y-75726466D01*
X248564287Y-75726466D02*
X248535715Y-75631228D01*
X248535715Y-75631228D02*
X248535715Y-75583609D01*
X248535715Y-75583609D02*
X248564287Y-75488371D01*
X248564287Y-75488371D02*
X248621430Y-75440752D01*
X248621430Y-75440752D02*
X248707144Y-75440752D01*
X248707144Y-75440752D02*
X248764287Y-75488371D01*
X249050001Y-76107419D02*
X249050001Y-75107419D01*
X249307144Y-76107419D02*
X249307144Y-75583609D01*
X249307144Y-75583609D02*
X249278572Y-75488371D01*
X249278572Y-75488371D02*
X249221429Y-75440752D01*
X249221429Y-75440752D02*
X249135715Y-75440752D01*
X249135715Y-75440752D02*
X249078572Y-75488371D01*
X249078572Y-75488371D02*
X249050001Y-75535990D01*
D10*
X234204819Y-60761904D02*
X235014342Y-60761904D01*
X235014342Y-60761904D02*
X235109580Y-60714285D01*
X235109580Y-60714285D02*
X235157200Y-60666666D01*
X235157200Y-60666666D02*
X235204819Y-60571428D01*
X235204819Y-60571428D02*
X235204819Y-60380952D01*
X235204819Y-60380952D02*
X235157200Y-60285714D01*
X235157200Y-60285714D02*
X235109580Y-60238095D01*
X235109580Y-60238095D02*
X235014342Y-60190476D01*
X235014342Y-60190476D02*
X234204819Y-60190476D01*
X234300057Y-59761904D02*
X234252438Y-59714285D01*
X234252438Y-59714285D02*
X234204819Y-59619047D01*
X234204819Y-59619047D02*
X234204819Y-59380952D01*
X234204819Y-59380952D02*
X234252438Y-59285714D01*
X234252438Y-59285714D02*
X234300057Y-59238095D01*
X234300057Y-59238095D02*
X234395295Y-59190476D01*
X234395295Y-59190476D02*
X234490533Y-59190476D01*
X234490533Y-59190476D02*
X234633390Y-59238095D01*
X234633390Y-59238095D02*
X235204819Y-59809523D01*
X235204819Y-59809523D02*
X235204819Y-59190476D01*
D14*
X217990000Y-59640580D02*
X217990000Y-59359420D01*
X219010000Y-59640580D02*
X219010000Y-59359420D01*
X208090000Y-58070000D02*
X208090000Y-59000000D01*
X208090000Y-58070000D02*
X209550000Y-58070000D01*
X208090000Y-61230000D02*
X208090000Y-60300000D01*
X208090000Y-61230000D02*
X210250000Y-61230000D01*
X217490000Y-70640000D02*
X218900000Y-70640000D01*
X217500000Y-72960000D02*
X218900000Y-72960000D01*
X217120000Y-70690000D02*
X216880000Y-70360000D01*
X217360000Y-70360000D01*
X217120000Y-70690000D01*
G36*
X217120000Y-70690000D02*
G01*
X216880000Y-70360000D01*
X217360000Y-70360000D01*
X217120000Y-70690000D01*
G37*
X220090000Y-71684420D02*
X220090000Y-71965580D01*
X221110000Y-71684420D02*
X221110000Y-71965580D01*
X213437742Y-72477500D02*
X213912258Y-72477500D01*
X213437742Y-73522500D02*
X213912258Y-73522500D01*
X241700000Y-56800000D02*
X238950000Y-56800000D01*
X241700000Y-58200000D02*
X238950000Y-58200000D01*
X241700000Y-58200000D02*
X241700000Y-56800000D01*
X235262742Y-69977500D02*
X235737258Y-69977500D01*
X235262742Y-71022500D02*
X235737258Y-71022500D01*
X213437742Y-69977500D02*
X213912258Y-69977500D01*
X213437742Y-71022500D02*
X213912258Y-71022500D01*
X222977500Y-59737258D02*
X222977500Y-59262742D01*
X224022500Y-59737258D02*
X224022500Y-59262742D01*
X194860000Y-58295000D02*
X194860000Y-78735000D01*
X194860000Y-58295000D02*
X205160000Y-58295000D01*
X194860000Y-78735000D02*
X205160000Y-78735000D01*
X205160000Y-58295000D02*
X205160000Y-78735000D01*
X241700000Y-52800000D02*
X238950000Y-52800000D01*
X241700000Y-54200000D02*
X238950000Y-54200000D01*
X241700000Y-54200000D02*
X241700000Y-52800000D01*
X238937742Y-69977500D02*
X239412258Y-69977500D01*
X238937742Y-71022500D02*
X239412258Y-71022500D01*
X244250000Y-52800000D02*
X244250000Y-54200000D01*
X244250000Y-52800000D02*
X247000000Y-52800000D01*
X244250000Y-54200000D02*
X247000000Y-54200000D01*
X210500000Y-73150000D02*
X207750000Y-73150000D01*
X210500000Y-74550000D02*
X207750000Y-74550000D01*
X210500000Y-74550000D02*
X210500000Y-73150000D01*
D15*
X217880000Y-69475000D02*
X217880000Y-67950000D01*
X218050000Y-64400000D02*
X227950000Y-64400000D01*
X218050000Y-67600000D02*
X218050000Y-64400000D01*
X227950000Y-64400000D02*
X227950000Y-67600000D01*
X227950000Y-67600000D02*
X218050000Y-67600000D01*
D14*
X208562742Y-71477500D02*
X209037258Y-71477500D01*
X208562742Y-72522500D02*
X209037258Y-72522500D01*
X239237258Y-67477500D02*
X238762742Y-67477500D01*
X239237258Y-68522500D02*
X238762742Y-68522500D01*
X232237258Y-69977500D02*
X231762742Y-69977500D01*
X232237258Y-71022500D02*
X231762742Y-71022500D01*
D16*
G36*
X208374394Y-77511793D02*
G01*
X208400242Y-77611955D01*
X208422052Y-77711309D01*
X208441438Y-77814701D01*
X208245961Y-77814701D01*
X208266155Y-77711309D01*
X208288772Y-77611955D01*
X208314620Y-77511793D01*
X208344507Y-77404362D01*
X208374394Y-77511793D01*
G37*
G36*
X209202342Y-75380937D02*
G01*
X209268578Y-75456058D01*
X209302504Y-75564297D01*
X209312197Y-75690307D01*
X209309168Y-75761591D01*
X209300081Y-75826817D01*
X209259693Y-75934249D01*
X209185380Y-76005331D01*
X209071486Y-76031179D01*
X209053716Y-76031179D01*
X209035945Y-76029564D01*
X209035945Y-75357512D01*
X209065024Y-75353473D01*
X209094103Y-75352666D01*
X209202342Y-75380937D01*
G37*
G36*
X208428514Y-75368821D02*
G01*
X208476171Y-75443134D01*
X208498788Y-75553796D01*
X208503029Y-75619830D01*
X208504443Y-75690307D01*
X208503029Y-75760582D01*
X208498788Y-75826010D01*
X208476171Y-75936672D01*
X208427706Y-76011793D01*
X208346123Y-76039257D01*
X208263732Y-76011793D01*
X208216074Y-75937480D01*
X208193457Y-75826817D01*
X208189216Y-75760784D01*
X208187803Y-75690307D01*
X208189216Y-75620032D01*
X208193457Y-75554604D01*
X208216074Y-75443942D01*
X208263732Y-75368821D01*
X208346123Y-75341357D01*
X208428514Y-75368821D01*
G37*
G36*
X211310582Y-78635380D02*
G01*
X211108643Y-78635380D01*
X210740307Y-78635380D01*
X209958401Y-78635380D01*
X209254039Y-78635380D01*
X208522213Y-78635380D01*
X207638530Y-78635380D01*
X206701535Y-78635380D01*
X206391357Y-78635380D01*
X206189418Y-78635380D01*
X206189418Y-78155574D01*
X206391357Y-78155574D01*
X206502827Y-78204847D01*
X206589661Y-78224838D01*
X206701535Y-78231502D01*
X206814890Y-78222976D01*
X206907243Y-78197397D01*
X206978595Y-78154766D01*
X207047052Y-78062076D01*
X207069871Y-77937480D01*
X207063005Y-77862157D01*
X207042407Y-77800969D01*
X206972132Y-77710501D01*
X206878433Y-77652342D01*
X206780695Y-77612763D01*
X206718498Y-77588530D01*
X206661955Y-77558643D01*
X206620759Y-77519871D01*
X206604604Y-77468982D01*
X206622195Y-77405259D01*
X206674969Y-77367026D01*
X206762924Y-77354281D01*
X206876817Y-77370436D01*
X206966478Y-77409208D01*
X207024637Y-77255735D01*
X206913112Y-77210501D01*
X207174879Y-77210501D01*
X207174879Y-77375283D01*
X207438207Y-77375283D01*
X207438207Y-78210501D01*
X207638530Y-78210501D01*
X207956785Y-78210501D01*
X208163570Y-78210501D01*
X208208805Y-77979483D01*
X208475363Y-77979483D01*
X208522213Y-78210501D01*
X208735460Y-78210501D01*
X208708805Y-78097124D01*
X208681826Y-77987044D01*
X208654523Y-77880258D01*
X208626898Y-77776769D01*
X208598950Y-77676575D01*
X208563762Y-77555059D01*
X208528473Y-77436874D01*
X208493084Y-77322021D01*
X208457593Y-77210501D01*
X208790388Y-77210501D01*
X208790388Y-77375283D01*
X209053716Y-77375283D01*
X209053716Y-78210501D01*
X209254039Y-78210501D01*
X209254039Y-77375283D01*
X209517367Y-77375283D01*
X209517367Y-77210501D01*
X209620759Y-77210501D01*
X209620759Y-77848627D01*
X209624798Y-77931826D01*
X209636914Y-78006947D01*
X209658724Y-78072779D01*
X209691842Y-78128110D01*
X209796042Y-78204847D01*
X209869346Y-78224838D01*
X209958401Y-78231502D01*
X210048869Y-78224838D01*
X210123183Y-78204847D01*
X210182956Y-78172334D01*
X210200711Y-78155574D01*
X210430129Y-78155574D01*
X210541599Y-78204847D01*
X210628433Y-78224838D01*
X210740307Y-78231502D01*
X210853662Y-78222976D01*
X210946015Y-78197397D01*
X211017367Y-78154766D01*
X211085824Y-78062076D01*
X211108643Y-77937480D01*
X211101777Y-77862157D01*
X211081179Y-77800969D01*
X211010905Y-77710501D01*
X210917205Y-77652342D01*
X210819467Y-77612763D01*
X210757270Y-77588530D01*
X210700727Y-77558643D01*
X210659532Y-77519871D01*
X210643376Y-77468982D01*
X210660968Y-77405259D01*
X210713741Y-77367026D01*
X210801696Y-77354281D01*
X210915590Y-77370436D01*
X211005250Y-77409208D01*
X211063409Y-77255735D01*
X210947900Y-77208885D01*
X210873384Y-77193134D01*
X210787157Y-77187884D01*
X210688162Y-77196679D01*
X210604425Y-77223066D01*
X210535945Y-77267044D01*
X210467488Y-77361551D01*
X210444669Y-77486753D01*
X210470517Y-77605493D01*
X210535945Y-77685460D01*
X210623990Y-77738772D01*
X210717690Y-77775929D01*
X210785541Y-77804200D01*
X210846931Y-77838126D01*
X210892165Y-77880937D01*
X210909935Y-77935864D01*
X210902666Y-77983522D01*
X210876010Y-78025525D01*
X210823506Y-78054604D01*
X210740307Y-78065105D01*
X210659733Y-78059451D01*
X210592488Y-78042488D01*
X210488288Y-77994023D01*
X210430129Y-78155574D01*
X210200711Y-78155574D01*
X210229806Y-78128110D01*
X210264136Y-78072779D01*
X210286349Y-78006947D01*
X210298465Y-77931826D01*
X210302504Y-77848627D01*
X210302504Y-77210501D01*
X210103796Y-77210501D01*
X210103796Y-77834087D01*
X210097334Y-77939903D01*
X210074717Y-78009370D01*
X210031099Y-78047334D01*
X209961632Y-78058643D01*
X209892165Y-78047334D01*
X209849354Y-78010178D01*
X209827544Y-77941519D01*
X209821082Y-77835703D01*
X209821082Y-77210501D01*
X209659532Y-77210501D01*
X209620759Y-77210501D01*
X209517367Y-77210501D01*
X209050485Y-77210501D01*
X208790388Y-77210501D01*
X208457593Y-77210501D01*
X208347738Y-77210501D01*
X208241115Y-77210501D01*
X208206886Y-77321113D01*
X208172052Y-77434855D01*
X208136611Y-77551727D01*
X208100565Y-77671729D01*
X208071551Y-77771082D01*
X208042666Y-77874637D01*
X208013910Y-77982391D01*
X207985283Y-78094346D01*
X207956785Y-78210501D01*
X207638530Y-78210501D01*
X207638530Y-77375283D01*
X207901858Y-77375283D01*
X207901858Y-77210501D01*
X207707997Y-77210501D01*
X207174879Y-77210501D01*
X206913112Y-77210501D01*
X206909128Y-77208885D01*
X206834612Y-77193134D01*
X206748384Y-77187884D01*
X206649390Y-77196679D01*
X206565652Y-77223066D01*
X206497173Y-77267044D01*
X206428716Y-77361551D01*
X206405897Y-77486753D01*
X206431745Y-77605493D01*
X206497173Y-77685460D01*
X206585218Y-77738772D01*
X206678918Y-77775929D01*
X206746769Y-77804200D01*
X206808158Y-77838126D01*
X206853393Y-77880937D01*
X206871163Y-77935864D01*
X206863893Y-77983522D01*
X206837237Y-78025525D01*
X206784733Y-78054604D01*
X206701535Y-78065105D01*
X206620961Y-78059451D01*
X206553716Y-78042488D01*
X206449515Y-77994023D01*
X206391357Y-78155574D01*
X206189418Y-78155574D01*
X206189418Y-76191115D01*
X207208805Y-76191115D01*
X207388126Y-76191115D01*
X207388126Y-75527141D01*
X207448169Y-75637982D01*
X207505520Y-75748645D01*
X207560178Y-75859128D01*
X207612143Y-75969610D01*
X207661416Y-76080273D01*
X207707997Y-76191115D01*
X207867932Y-76191115D01*
X207867932Y-75690307D01*
X207985864Y-75690307D01*
X207991670Y-75811622D01*
X208009087Y-75917084D01*
X208038116Y-76006694D01*
X208078756Y-76080452D01*
X208149928Y-76153599D01*
X208239589Y-76197487D01*
X208347738Y-76212116D01*
X208453285Y-76197487D01*
X208541599Y-76153599D01*
X208612682Y-76080452D01*
X208653675Y-76006694D01*
X208682956Y-75917084D01*
X208700525Y-75811622D01*
X208706381Y-75690307D01*
X208700626Y-75568992D01*
X208683360Y-75463530D01*
X208654584Y-75373920D01*
X208614297Y-75300162D01*
X208543574Y-75227015D01*
X208496776Y-75204039D01*
X208837237Y-75204039D01*
X208837237Y-76179806D01*
X208946284Y-76198384D01*
X209050485Y-76204039D01*
X209148021Y-76196971D01*
X209172616Y-76191115D01*
X209659532Y-76191115D01*
X210300889Y-76191115D01*
X210300889Y-76026333D01*
X209858239Y-76026333D01*
X209858239Y-75745234D01*
X210212036Y-75745234D01*
X210212036Y-75580452D01*
X209858239Y-75580452D01*
X209858239Y-75355897D01*
X210265347Y-75355897D01*
X210265347Y-75191115D01*
X209659532Y-75191115D01*
X209659532Y-76191115D01*
X209172616Y-76191115D01*
X209237076Y-76175767D01*
X209316034Y-76139216D01*
X209383279Y-76086107D01*
X209438005Y-76015630D01*
X209479402Y-75926979D01*
X209505452Y-75818942D01*
X209514136Y-75690307D01*
X209506260Y-75564499D01*
X209482633Y-75458481D01*
X209444871Y-75370840D01*
X209394588Y-75300162D01*
X209331785Y-75246244D01*
X209256462Y-75208885D01*
X209170638Y-75187076D01*
X209076333Y-75179806D01*
X208964863Y-75184653D01*
X208837237Y-75204039D01*
X208496776Y-75204039D01*
X208454182Y-75183127D01*
X208346123Y-75168498D01*
X208241294Y-75183127D01*
X208152980Y-75227015D01*
X208081179Y-75300162D01*
X208039479Y-75373920D01*
X208009693Y-75463530D01*
X207991821Y-75568992D01*
X207985864Y-75690307D01*
X207867932Y-75690307D01*
X207867932Y-75191115D01*
X207688611Y-75191115D01*
X207688611Y-75806624D01*
X207660137Y-75743619D01*
X207626414Y-75670921D01*
X207588449Y-75592165D01*
X207547254Y-75510985D01*
X207503837Y-75428393D01*
X207459208Y-75345396D01*
X207413974Y-75265226D01*
X207368740Y-75191115D01*
X207208805Y-75191115D01*
X207208805Y-76191115D01*
X206189418Y-76191115D01*
X206189418Y-74764620D01*
X206391357Y-74764620D01*
X211108643Y-74764620D01*
X211310582Y-74764620D01*
X211310582Y-78635380D01*
G37*
D14*
X244250000Y-56800000D02*
X244250000Y-58200000D01*
X244250000Y-56800000D02*
X247000000Y-56800000D01*
X244250000Y-58200000D02*
X247000000Y-58200000D01*
X228790000Y-60238748D02*
X228790000Y-61661252D01*
X230610000Y-60238748D02*
X230610000Y-61661252D01*
X242737258Y-72977500D02*
X242262742Y-72977500D01*
X242737258Y-74022500D02*
X242262742Y-74022500D01*
X213912258Y-74977500D02*
X213437742Y-74977500D01*
X213912258Y-76022500D02*
X213437742Y-76022500D01*
X242737258Y-69977500D02*
X242262742Y-69977500D01*
X242737258Y-71022500D02*
X242262742Y-71022500D01*
X213912258Y-67477500D02*
X213437742Y-67477500D01*
X213912258Y-68522500D02*
X213437742Y-68522500D01*
X232865580Y-62040000D02*
X232584420Y-62040000D01*
X232865580Y-63060000D02*
X232584420Y-63060000D01*
X235737258Y-72977500D02*
X235262742Y-72977500D01*
X235737258Y-74022500D02*
X235262742Y-74022500D01*
X213437742Y-77477500D02*
X213912258Y-77477500D01*
X213437742Y-78522500D02*
X213912258Y-78522500D01*
X231340000Y-59300000D02*
X231340000Y-60700000D01*
X233660000Y-59290000D02*
X233660000Y-60700000D01*
X233940000Y-59160000D02*
X233610000Y-58920000D01*
X233940000Y-58680000D01*
X233940000Y-59160000D01*
G36*
X233940000Y-59160000D02*
G01*
X233610000Y-58920000D01*
X233940000Y-58680000D01*
X233940000Y-59160000D01*
G37*
D16*
G36*
X192653796Y-54598223D02*
G01*
X192699031Y-54634572D01*
X192724879Y-54685460D01*
X192732956Y-54744426D01*
X192429241Y-54744426D01*
X192442973Y-54684653D01*
X192472052Y-54632956D01*
X192518901Y-54597415D01*
X192585945Y-54584491D01*
X192653796Y-54598223D01*
G37*
G36*
X191783441Y-54367609D02*
G01*
X191839580Y-54395477D01*
X191875929Y-54443134D01*
X191888045Y-54511793D01*
X191842811Y-54624071D01*
X191783441Y-54653756D01*
X191695800Y-54663651D01*
X191652181Y-54663651D01*
X191652181Y-54363166D01*
X191684491Y-54359128D01*
X191711955Y-54358320D01*
X191783441Y-54367609D01*
G37*
G36*
X196348465Y-55618417D02*
G01*
X196146527Y-55618417D01*
X194194992Y-55618417D01*
X193295153Y-55618417D01*
X192640872Y-55618417D01*
X192156220Y-55618417D01*
X191453473Y-55618417D01*
X191251535Y-55618417D01*
X190700485Y-55618417D01*
X191122617Y-54211309D01*
X191453473Y-54211309D01*
X191453473Y-55196769D01*
X191652181Y-55196769D01*
X191652181Y-54828433D01*
X191755574Y-54828433D01*
X191810299Y-54919911D01*
X191861389Y-55010178D01*
X191907633Y-55101656D01*
X191947819Y-55196769D01*
X192156220Y-55196769D01*
X192110178Y-55090953D01*
X192054443Y-54979483D01*
X191994669Y-54872859D01*
X191963820Y-54823586D01*
X192224071Y-54823586D01*
X192231341Y-54914459D01*
X192253150Y-54993215D01*
X192288489Y-55060057D01*
X192336349Y-55115186D01*
X192396123Y-55158401D01*
X192467205Y-55189499D01*
X192548990Y-55208279D01*
X192640872Y-55214540D01*
X192771729Y-55202423D01*
X192881583Y-55172536D01*
X192854120Y-55002908D01*
X192762843Y-55028756D01*
X192648950Y-55041680D01*
X192560905Y-55030977D01*
X192490630Y-54998869D01*
X192444588Y-54948183D01*
X192429241Y-54881745D01*
X192921971Y-54881745D01*
X192924394Y-54847819D01*
X192925202Y-54807431D01*
X192915509Y-54690486D01*
X192886430Y-54593825D01*
X192837964Y-54517447D01*
X192770831Y-54462251D01*
X192707192Y-54437480D01*
X193004362Y-54437480D01*
X193038742Y-54549909D01*
X193074031Y-54657795D01*
X193110228Y-54761137D01*
X193147334Y-54859935D01*
X193197146Y-54983163D01*
X193246419Y-55095441D01*
X193295153Y-55196769D01*
X193461551Y-55196769D01*
X193511093Y-55095441D01*
X193523201Y-55069144D01*
X194049596Y-55069144D01*
X194061712Y-55131341D01*
X194094023Y-55176575D01*
X194140065Y-55204847D01*
X194194992Y-55214540D01*
X194295153Y-55177383D01*
X194338772Y-55069144D01*
X194295153Y-54964136D01*
X194194992Y-54926979D01*
X194140065Y-54936672D01*
X194094023Y-54964136D01*
X194061712Y-55008562D01*
X194049596Y-55069144D01*
X193523201Y-55069144D01*
X193562789Y-54983163D01*
X193616640Y-54859935D01*
X193656926Y-54761137D01*
X193695396Y-54657795D01*
X193732048Y-54549909D01*
X193766882Y-54437480D01*
X193564943Y-54437480D01*
X193548183Y-54500889D01*
X193526979Y-54568336D01*
X193503150Y-54638005D01*
X193478514Y-54708078D01*
X193453271Y-54777342D01*
X193427625Y-54844588D01*
X193380775Y-54965751D01*
X193336349Y-54844588D01*
X193313126Y-54777342D01*
X193290307Y-54708078D01*
X193268296Y-54638005D01*
X193247496Y-54568336D01*
X193228716Y-54500889D01*
X193212763Y-54437480D01*
X193004362Y-54437480D01*
X192707192Y-54437480D01*
X192685748Y-54429133D01*
X192582714Y-54418094D01*
X192515670Y-54424556D01*
X192450242Y-54443942D01*
X192389257Y-54476050D01*
X192335541Y-54520679D01*
X192290307Y-54577827D01*
X192254766Y-54647496D01*
X192231745Y-54729483D01*
X192224071Y-54823586D01*
X191963820Y-54823586D01*
X191936511Y-54779968D01*
X192007189Y-54734330D01*
X192054443Y-54671729D01*
X192081099Y-54596607D01*
X192089984Y-54513409D01*
X192083320Y-54434855D01*
X192074547Y-54405170D01*
X195482553Y-54405170D01*
X195547173Y-54569952D01*
X195645719Y-54530372D01*
X195749111Y-54473021D01*
X195749111Y-55031987D01*
X195539095Y-55031987D01*
X195539095Y-55196769D01*
X196146527Y-55196769D01*
X196146527Y-55031987D01*
X195947819Y-55031987D01*
X195947819Y-54196769D01*
X195812116Y-54196769D01*
X195742649Y-54259774D01*
X195657027Y-54317932D01*
X195566559Y-54368013D01*
X195482553Y-54405170D01*
X192074547Y-54405170D01*
X192063328Y-54367205D01*
X191986591Y-54264620D01*
X191931664Y-54229483D01*
X191867044Y-54204847D01*
X191793538Y-54190307D01*
X191711955Y-54185460D01*
X191655412Y-54187076D01*
X191587561Y-54191115D01*
X191517286Y-54199192D01*
X191453473Y-54211309D01*
X191122617Y-54211309D01*
X191251535Y-53781583D01*
X191453473Y-53781583D01*
X196146527Y-53781583D01*
X196348465Y-53781583D01*
X196899515Y-53781583D01*
X196348465Y-55618417D01*
G37*
G36*
X209233037Y-51877060D02*
G01*
X209271809Y-52027302D01*
X209304523Y-52176333D01*
X209333603Y-52331422D01*
X209040388Y-52331422D01*
X209070679Y-52176333D01*
X209104604Y-52027302D01*
X209143376Y-51877060D01*
X209188207Y-51715913D01*
X209233037Y-51877060D01*
G37*
G36*
X205628433Y-51709855D02*
G01*
X205727787Y-51822536D01*
X205778675Y-51984895D01*
X205793215Y-52173910D01*
X205788671Y-52280836D01*
X205775040Y-52378675D01*
X205714459Y-52539822D01*
X205602989Y-52646446D01*
X205432149Y-52685218D01*
X205405493Y-52685218D01*
X205378837Y-52682795D01*
X205378837Y-51674717D01*
X205422456Y-51668659D01*
X205466074Y-51667447D01*
X205628433Y-51709855D01*
G37*
G36*
X213625202Y-53562439D02*
G01*
X213322294Y-53562439D01*
X211725363Y-53562439D01*
X210552504Y-53562439D01*
X209454766Y-53562439D01*
X208487884Y-53562439D01*
X205400646Y-53562439D01*
X204894184Y-53562439D01*
X202657512Y-53562439D01*
X201041195Y-53562439D01*
X197810985Y-53562439D01*
X196599354Y-53562439D01*
X195707593Y-53562439D01*
X194653473Y-53562439D01*
X194013732Y-53562439D01*
X192777868Y-53562439D01*
X191677706Y-53562439D01*
X191374798Y-53562439D01*
X190497334Y-53562439D01*
X190688530Y-52925121D01*
X191677706Y-52925121D01*
X191951535Y-52925121D01*
X191939418Y-51759532D01*
X192116317Y-52394426D01*
X192334410Y-52394426D01*
X192518578Y-51759532D01*
X192504039Y-52925121D01*
X192777868Y-52925121D01*
X192772415Y-52733380D01*
X192765751Y-52545880D01*
X192757573Y-52361107D01*
X192747577Y-52177544D01*
X192735460Y-51993679D01*
X192720921Y-51807997D01*
X192704867Y-51618982D01*
X192688207Y-51425121D01*
X192441034Y-51425121D01*
X192397415Y-51553554D01*
X192344103Y-51719548D01*
X192283522Y-51903716D01*
X192222940Y-52089095D01*
X192167205Y-51914620D01*
X192109047Y-51728029D01*
X192054523Y-51555977D01*
X192012116Y-51425121D01*
X191764943Y-51425121D01*
X191748889Y-51589297D01*
X191734653Y-51766801D01*
X191722233Y-51953998D01*
X191711632Y-52147254D01*
X191702242Y-52344144D01*
X191693457Y-52542246D01*
X191685279Y-52737318D01*
X191677706Y-52925121D01*
X190688530Y-52925121D01*
X191177787Y-51294265D01*
X192986268Y-51294265D01*
X192986268Y-52925121D01*
X193286753Y-52925121D01*
X193286753Y-52387157D01*
X193387318Y-52497415D01*
X193495153Y-52637964D01*
X193595719Y-52788207D01*
X193672052Y-52925121D01*
X194013732Y-52925121D01*
X193922859Y-52770032D01*
X193897995Y-52733683D01*
X194435380Y-52733683D01*
X194453554Y-52826979D01*
X194502019Y-52894830D01*
X194571082Y-52937237D01*
X194653473Y-52951777D01*
X194803716Y-52896042D01*
X194869144Y-52733683D01*
X194803716Y-52576171D01*
X194653473Y-52520436D01*
X194571082Y-52534976D01*
X194502019Y-52576171D01*
X194453554Y-52642811D01*
X194435380Y-52733683D01*
X193897995Y-52733683D01*
X193863187Y-52682795D01*
X193798061Y-52595557D01*
X193729604Y-52509834D01*
X193659935Y-52427141D01*
X193529079Y-52287803D01*
X193636914Y-52171486D01*
X193755654Y-52040630D01*
X193870759Y-51907351D01*
X193970113Y-51786187D01*
X193611470Y-51786187D01*
X193543619Y-51894023D01*
X193462439Y-52011551D01*
X193375202Y-52129079D01*
X193286753Y-52236914D01*
X193286753Y-51425121D01*
X195288368Y-51425121D01*
X195316236Y-51560824D01*
X195356220Y-51730452D01*
X195388261Y-51857404D01*
X195422994Y-51989472D01*
X195460420Y-52126656D01*
X195500000Y-52266532D01*
X195541195Y-52406677D01*
X195584006Y-52547092D01*
X195647617Y-52747011D01*
X195707593Y-52925121D01*
X196015347Y-52925121D01*
X196061659Y-52796015D01*
X196106893Y-52663947D01*
X196151050Y-52528918D01*
X196193457Y-52393215D01*
X196233441Y-52259128D01*
X196271002Y-52126656D01*
X196322496Y-51933704D01*
X196367932Y-51749838D01*
X196385668Y-51672294D01*
X196599354Y-51672294D01*
X196926494Y-51672294D01*
X196926494Y-52677948D01*
X196599354Y-52677948D01*
X196599354Y-52925121D01*
X197551696Y-52925121D01*
X197551696Y-52677948D01*
X197226979Y-52677948D01*
X197226979Y-51672294D01*
X197551696Y-51672294D01*
X197810985Y-51672294D01*
X198138126Y-51672294D01*
X198138126Y-52677948D01*
X197810985Y-52677948D01*
X197810985Y-52925121D01*
X198763328Y-52925121D01*
X198763328Y-52677948D01*
X198438611Y-52677948D01*
X198438611Y-52450162D01*
X200377221Y-52450162D01*
X201041195Y-52450162D01*
X201041195Y-52156947D01*
X200377221Y-52156947D01*
X200377221Y-52450162D01*
X198438611Y-52450162D01*
X198438611Y-51672294D01*
X198763328Y-51672294D01*
X202657512Y-51672294D01*
X202984653Y-51672294D01*
X202984653Y-52677948D01*
X202657512Y-52677948D01*
X202657512Y-52925121D01*
X203609855Y-52925121D01*
X203794023Y-52925121D01*
X204067851Y-52925121D01*
X204055735Y-51759532D01*
X204232633Y-52394426D01*
X204450727Y-52394426D01*
X204634895Y-51759532D01*
X204620355Y-52925121D01*
X204894184Y-52925121D01*
X204888732Y-52733380D01*
X204882068Y-52545880D01*
X204873889Y-52361107D01*
X204863893Y-52177544D01*
X204851777Y-51993679D01*
X204837237Y-51807997D01*
X204821183Y-51618982D01*
X204806189Y-51444507D01*
X205080775Y-51444507D01*
X205080775Y-52908158D01*
X205244346Y-52936026D01*
X205400646Y-52944507D01*
X205546951Y-52933905D01*
X205583844Y-52925121D01*
X207545234Y-52925121D01*
X208487884Y-52925121D01*
X208606624Y-52925121D01*
X208916801Y-52925121D01*
X208984653Y-52578595D01*
X209384491Y-52578595D01*
X209454766Y-52925121D01*
X209774637Y-52925121D01*
X209734653Y-52755057D01*
X209694184Y-52589935D01*
X209653231Y-52429758D01*
X209611793Y-52274523D01*
X209569871Y-52124233D01*
X209517089Y-51941958D01*
X209464156Y-51764681D01*
X209435688Y-51672294D01*
X209857027Y-51672294D01*
X210252019Y-51672294D01*
X210252019Y-52925121D01*
X210552504Y-52925121D01*
X210552504Y-52173910D01*
X211073506Y-52173910D01*
X211083956Y-52350959D01*
X211115307Y-52506502D01*
X211167559Y-52640539D01*
X211240711Y-52753069D01*
X211368875Y-52866155D01*
X211530425Y-52934006D01*
X211725363Y-52956624D01*
X211857734Y-52948445D01*
X211968022Y-52925121D01*
X212328756Y-52925121D01*
X212626817Y-52925121D01*
X212626817Y-52263570D01*
X213024233Y-52263570D01*
X213024233Y-52925121D01*
X213322294Y-52925121D01*
X213322294Y-51425121D01*
X213024233Y-51425121D01*
X213024233Y-52016397D01*
X212626817Y-52016397D01*
X212626817Y-51425121D01*
X212328756Y-51425121D01*
X212328756Y-52925121D01*
X211968022Y-52925121D01*
X211973748Y-52923910D01*
X212144588Y-52852423D01*
X212069467Y-52617367D01*
X211947092Y-52670679D01*
X211754443Y-52697334D01*
X211581482Y-52663106D01*
X211464863Y-52560420D01*
X211415724Y-52455816D01*
X211386241Y-52324556D01*
X211376414Y-52166640D01*
X211384592Y-52030937D01*
X211409128Y-51919467D01*
X211493942Y-51760743D01*
X211612682Y-51675929D01*
X211749596Y-51650485D01*
X211930129Y-51675929D01*
X212064620Y-51737722D01*
X212142165Y-51500242D01*
X212092488Y-51471163D01*
X212011309Y-51434814D01*
X211898627Y-51404523D01*
X211754443Y-51391195D01*
X211612379Y-51404221D01*
X211481826Y-51443296D01*
X211365509Y-51507512D01*
X211266155Y-51595961D01*
X211185279Y-51707734D01*
X211124394Y-51841922D01*
X211086228Y-51997617D01*
X211073506Y-52173910D01*
X210552504Y-52173910D01*
X210552504Y-51672294D01*
X210947496Y-51672294D01*
X210947496Y-51425121D01*
X209857027Y-51425121D01*
X209857027Y-51672294D01*
X209435688Y-51672294D01*
X209411071Y-51592402D01*
X209357835Y-51425121D01*
X209033118Y-51425121D01*
X208981775Y-51591039D01*
X208929523Y-51761652D01*
X208876363Y-51936960D01*
X208822294Y-52116963D01*
X208778772Y-52265994D01*
X208735444Y-52421325D01*
X208692310Y-52582956D01*
X208649370Y-52750889D01*
X208606624Y-52925121D01*
X208487884Y-52925121D01*
X208487884Y-52677948D01*
X207845719Y-52677948D01*
X207845719Y-51425121D01*
X207545234Y-51425121D01*
X207545234Y-52925121D01*
X205583844Y-52925121D01*
X205680533Y-52902100D01*
X205798970Y-52847274D01*
X205899838Y-52767609D01*
X205981926Y-52661894D01*
X206044023Y-52528918D01*
X206083098Y-52366862D01*
X206096123Y-52173910D01*
X206084309Y-51985198D01*
X206048869Y-51826171D01*
X205992225Y-51694709D01*
X205916801Y-51588691D01*
X205822597Y-51507815D01*
X205709612Y-51451777D01*
X205580876Y-51419063D01*
X205439418Y-51408158D01*
X205272213Y-51415428D01*
X205080775Y-51444507D01*
X204806189Y-51444507D01*
X204804523Y-51425121D01*
X204557351Y-51425121D01*
X204513732Y-51553554D01*
X204460420Y-51719548D01*
X204399838Y-51903716D01*
X204339257Y-52089095D01*
X204283522Y-51914620D01*
X204225363Y-51728029D01*
X204170840Y-51555977D01*
X204128433Y-51425121D01*
X203881260Y-51425121D01*
X203865206Y-51589297D01*
X203850969Y-51766801D01*
X203838550Y-51953998D01*
X203827948Y-52147254D01*
X203818558Y-52344144D01*
X203809774Y-52542246D01*
X203801595Y-52737318D01*
X203794023Y-52925121D01*
X203609855Y-52925121D01*
X203609855Y-52677948D01*
X203285137Y-52677948D01*
X203285137Y-51672294D01*
X203609855Y-51672294D01*
X203609855Y-51425121D01*
X202657512Y-51425121D01*
X202657512Y-51672294D01*
X198763328Y-51672294D01*
X198763328Y-51425121D01*
X197810985Y-51425121D01*
X197810985Y-51672294D01*
X197551696Y-51672294D01*
X197551696Y-51425121D01*
X196599354Y-51425121D01*
X196599354Y-51672294D01*
X196385668Y-51672294D01*
X196407007Y-51578998D01*
X196439418Y-51425121D01*
X196126817Y-51425121D01*
X196105008Y-51551131D01*
X196078352Y-51696527D01*
X196048061Y-51853736D01*
X196015347Y-52015186D01*
X195980210Y-52177544D01*
X195942649Y-52337480D01*
X195903877Y-52487419D01*
X195865105Y-52619790D01*
X195826030Y-52485602D01*
X195786349Y-52335057D01*
X195747577Y-52175121D01*
X195711228Y-52012763D01*
X195677605Y-51851616D01*
X195647011Y-51695315D01*
X195621567Y-51550828D01*
X195603393Y-51425121D01*
X195288368Y-51425121D01*
X193286753Y-51425121D01*
X193286753Y-51243376D01*
X192986268Y-51294265D01*
X191177787Y-51294265D01*
X191374798Y-50637561D01*
X191677706Y-50637561D01*
X213322294Y-50637561D01*
X213625202Y-50637561D01*
X214502666Y-50637561D01*
X213625202Y-53562439D01*
G37*
D14*
X220477500Y-59737258D02*
X220477500Y-59262742D01*
X221522500Y-59737258D02*
X221522500Y-59262742D01*
X225477500Y-59737258D02*
X225477500Y-59262742D01*
X226522500Y-59737258D02*
X226522500Y-59262742D01*
X238762742Y-72977500D02*
X239237258Y-72977500D01*
X238762742Y-74022500D02*
X239237258Y-74022500D01*
X197800000Y-55250000D02*
X197800000Y-57250000D01*
X197800000Y-55250000D02*
X201700000Y-55250000D01*
X197800000Y-57250000D02*
X201700000Y-57250000D01*
%LPC*%
D17*
X218500000Y-60275000D03*
X218500000Y-58725000D03*
D18*
X235500000Y-78000000D03*
D19*
X209900000Y-60600000D03*
X209900000Y-58700000D03*
X207800000Y-59650000D03*
D20*
X217250000Y-71150000D03*
X217250000Y-71800000D03*
X217250000Y-72450000D03*
X219150000Y-72450000D03*
X219150000Y-71150000D03*
D18*
X241000000Y-78000000D03*
D21*
X220600000Y-71050000D03*
X220600000Y-72600000D03*
D22*
X212850000Y-73000000D03*
X214500000Y-73000000D03*
D23*
X241000000Y-57500000D03*
X238900000Y-57500000D03*
D22*
X234675000Y-70500000D03*
X236325000Y-70500000D03*
X212850000Y-70500000D03*
X214500000Y-70500000D03*
D18*
X224500000Y-78000000D03*
D24*
X223500000Y-60325000D03*
X223500000Y-58675000D03*
D25*
X196200000Y-59625000D03*
X196200000Y-69785000D03*
X196200000Y-77405000D03*
X203820000Y-59625000D03*
D23*
X241000000Y-53500000D03*
X238900000Y-53500000D03*
D22*
X238350000Y-70500000D03*
X240000000Y-70500000D03*
D18*
X230000000Y-78000000D03*
D23*
X244950000Y-53500000D03*
X247050000Y-53500000D03*
D26*
X185000000Y-55000000D03*
X185000000Y-56000000D03*
X185000000Y-57000000D03*
X185000000Y-58000000D03*
X185000000Y-59000000D03*
X185000000Y-60000000D03*
X185000000Y-61000000D03*
X185000000Y-62000000D03*
X185000000Y-63000000D03*
X185000000Y-64000000D03*
X185000000Y-65000000D03*
X185000000Y-68000000D03*
X185000000Y-69000000D03*
X185000000Y-70000000D03*
X185000000Y-71000000D03*
X185000000Y-72000000D03*
D27*
X185550000Y-73000000D03*
D26*
X185000000Y-74000000D03*
D23*
X209800000Y-73850000D03*
X207700000Y-73850000D03*
D28*
X218555000Y-68712000D03*
X219825000Y-68712000D03*
X221095000Y-68712000D03*
X222365000Y-68712000D03*
X223635000Y-68712000D03*
X224905000Y-68712000D03*
X226175000Y-68712000D03*
X227445000Y-68712000D03*
X227445000Y-63288000D03*
X226175000Y-63288000D03*
X224905000Y-63288000D03*
X223635000Y-63288000D03*
X222365000Y-63288000D03*
X221095000Y-63288000D03*
X219825000Y-63288000D03*
X218555000Y-63288000D03*
D22*
X207975000Y-72000000D03*
X209625000Y-72000000D03*
D29*
X239825000Y-68000000D03*
X238175000Y-68000000D03*
D18*
X219000000Y-78000000D03*
D29*
X232825000Y-70500000D03*
X231175000Y-70500000D03*
D23*
X244950000Y-57500000D03*
X247050000Y-57500000D03*
D30*
X229700000Y-59475000D03*
X229700000Y-62425000D03*
D29*
X243325000Y-73500000D03*
X241675000Y-73500000D03*
X214500000Y-75500000D03*
X212850000Y-75500000D03*
X243325000Y-70500000D03*
X241675000Y-70500000D03*
D18*
X240000000Y-61150000D03*
D29*
X214500000Y-68000000D03*
X212850000Y-68000000D03*
D31*
X233500000Y-62550000D03*
X231950000Y-62550000D03*
D29*
X236325000Y-73500000D03*
X234675000Y-73500000D03*
D22*
X212850000Y-78000000D03*
X214500000Y-78000000D03*
D18*
X246500000Y-78000000D03*
D32*
X233150000Y-59050000D03*
X232500000Y-59050000D03*
X231850000Y-59050000D03*
X231850000Y-60950000D03*
X233150000Y-60950000D03*
D33*
X250000000Y-66000000D03*
D24*
X221000000Y-60325000D03*
X221000000Y-58675000D03*
X226000000Y-60325000D03*
X226000000Y-58675000D03*
D22*
X238175000Y-73500000D03*
X239825000Y-73500000D03*
D34*
X198400000Y-56250000D03*
X201700000Y-56250000D03*
%LPD*%
M02*
