G04 #@! TF.GenerationSoftware,KiCad,Pcbnew,5.0.2-bee76a0~70~ubuntu16.04.1*
G04 #@! TF.CreationDate,2019-11-05T16:08:15-05:00*
G04 #@! TF.ProjectId,DA_Board_2,44415f42-6f61-4726-945f-322e6b696361,rev?*
G04 #@! TF.SameCoordinates,Original*
G04 #@! TF.FileFunction,Paste,Top*
G04 #@! TF.FilePolarity,Positive*
%FSLAX46Y46*%
G04 Gerber Fmt 4.6, Leading zero omitted, Abs format (unit mm)*
G04 Created by KiCad (PCBNEW 5.0.2-bee76a0~70~ubuntu16.04.1) date Tue 05 Nov 2019 04:08:15 PM EST*
%MOMM*%
%LPD*%
G01*
G04 APERTURE LIST*
%ADD10R,1.200000X1.200000*%
%ADD11R,3.500000X1.780000*%
%ADD12R,1.650000X3.810000*%
%ADD13R,7.870000X8.510000*%
%ADD14R,1.300000X0.700000*%
%ADD15R,1.500000X4.000000*%
%ADD16R,0.900000X0.800000*%
%ADD17R,5.000000X8.000000*%
G04 APERTURE END LIST*
D10*
G04 #@! TO.C,D1*
X303631600Y-125798400D03*
X303631600Y-127998400D03*
G04 #@! TD*
G04 #@! TO.C,D3*
X259029200Y-128143000D03*
X259029200Y-125943000D03*
G04 #@! TD*
G04 #@! TO.C,D5*
X214960200Y-125519000D03*
X214960200Y-127719000D03*
G04 #@! TD*
G04 #@! TO.C,D7*
X171627800Y-125823800D03*
X171627800Y-128023800D03*
G04 #@! TD*
G04 #@! TO.C,D9*
X128117600Y-127693600D03*
X128117600Y-125493600D03*
G04 #@! TD*
G04 #@! TO.C,D11*
X84785200Y-127388800D03*
X84785200Y-125188800D03*
G04 #@! TD*
G04 #@! TO.C,D13*
X40614600Y-127617400D03*
X40614600Y-125417400D03*
G04 #@! TD*
G04 #@! TO.C,D15*
X-2997200Y-125689000D03*
X-2997200Y-127889000D03*
G04 #@! TD*
D11*
G04 #@! TO.C,F1*
X302641000Y-131626000D03*
X302641000Y-136906000D03*
G04 #@! TD*
G04 #@! TO.C,F3*
X258064000Y-136550400D03*
X258064000Y-131270400D03*
G04 #@! TD*
G04 #@! TO.C,F5*
X214096600Y-130914800D03*
X214096600Y-136194800D03*
G04 #@! TD*
G04 #@! TO.C,F7*
X170205400Y-136372600D03*
X170205400Y-131092600D03*
G04 #@! TD*
G04 #@! TO.C,F9*
X126644400Y-130762400D03*
X126644400Y-136042400D03*
G04 #@! TD*
G04 #@! TO.C,F11*
X83489800Y-135763000D03*
X83489800Y-130483000D03*
G04 #@! TD*
G04 #@! TO.C,F13*
X39293800Y-130711600D03*
X39293800Y-135991600D03*
G04 #@! TD*
G04 #@! TO.C,F15*
X-4343400Y-136296400D03*
X-4343400Y-131016400D03*
G04 #@! TD*
D12*
G04 #@! TO.C,R1*
X292811200Y-126293800D03*
X297891200Y-126293800D03*
D13*
X295351200Y-118668800D03*
G04 #@! TD*
G04 #@! TO.C,R3*
X251231400Y-118770400D03*
D12*
X253771400Y-126395400D03*
X248691400Y-126395400D03*
G04 #@! TD*
G04 #@! TO.C,R5*
X204470000Y-125989000D03*
X209550000Y-125989000D03*
D13*
X207010000Y-118364000D03*
G04 #@! TD*
G04 #@! TO.C,R7*
X163779200Y-118643400D03*
D12*
X166319200Y-126268400D03*
X161239200Y-126268400D03*
G04 #@! TD*
G04 #@! TO.C,R9*
X117703600Y-125938200D03*
X122783600Y-125938200D03*
D13*
X120243600Y-118313200D03*
G04 #@! TD*
D12*
G04 #@! TO.C,R11*
X74523600Y-125608000D03*
X79603600Y-125608000D03*
D13*
X77063600Y-117983000D03*
G04 #@! TD*
G04 #@! TO.C,R13*
X32766000Y-118287800D03*
D12*
X35306000Y-125912800D03*
X30226000Y-125912800D03*
G04 #@! TD*
D13*
G04 #@! TO.C,R15*
X-10845800Y-118465600D03*
D12*
X-8305800Y-126090600D03*
X-13385800Y-126090600D03*
G04 #@! TD*
D14*
G04 #@! TO.C,R31*
X301193200Y-128280200D03*
X301193200Y-126380200D03*
G04 #@! TD*
G04 #@! TO.C,R33*
X257048000Y-126481800D03*
X257048000Y-128381800D03*
G04 #@! TD*
G04 #@! TO.C,R35*
X212953600Y-126050000D03*
X212953600Y-127950000D03*
G04 #@! TD*
G04 #@! TO.C,R37*
X169672000Y-128280200D03*
X169672000Y-126380200D03*
G04 #@! TD*
G04 #@! TO.C,R39*
X126136400Y-126034800D03*
X126136400Y-127934800D03*
G04 #@! TD*
G04 #@! TO.C,R41*
X82854800Y-127630000D03*
X82854800Y-125730000D03*
G04 #@! TD*
G04 #@! TO.C,R43*
X38608000Y-125973800D03*
X38608000Y-127873800D03*
G04 #@! TD*
G04 #@! TO.C,R45*
X-5003800Y-128127800D03*
X-5003800Y-126227800D03*
G04 #@! TD*
D15*
G04 #@! TO.C,RT31*
X273738600Y-138150600D03*
X270738600Y-138150600D03*
G04 #@! TD*
G04 #@! TO.C,RT32*
X276425400Y-138226800D03*
X279425400Y-138226800D03*
G04 #@! TD*
G04 #@! TO.C,RT33*
X285268800Y-138303000D03*
X282268800Y-138303000D03*
G04 #@! TD*
G04 #@! TO.C,RT71*
X182575200Y-137706100D03*
X185575200Y-137706100D03*
G04 #@! TD*
G04 #@! TO.C,RT72*
X191511000Y-137782300D03*
X188511000Y-137782300D03*
G04 #@! TD*
G04 #@! TO.C,RT73*
X194513200Y-137833100D03*
X197513200Y-137833100D03*
G04 #@! TD*
G04 #@! TO.C,RT111*
X98464500Y-137883900D03*
X95464500Y-137883900D03*
G04 #@! TD*
G04 #@! TO.C,RT112*
X101003100Y-137909300D03*
X104003100Y-137909300D03*
G04 #@! TD*
G04 #@! TO.C,RT113*
X109616500Y-137960100D03*
X106616500Y-137960100D03*
G04 #@! TD*
G04 #@! TO.C,RT151*
X7515600Y-137769600D03*
X10515600Y-137769600D03*
G04 #@! TD*
G04 #@! TO.C,RT152*
X16484600Y-137795000D03*
X13484600Y-137795000D03*
G04 #@! TD*
G04 #@! TO.C,RT153*
X19404200Y-137820400D03*
X22404200Y-137820400D03*
G04 #@! TD*
D16*
G04 #@! TO.C,Q1*
X296316400Y-131597400D03*
X298316400Y-132647400D03*
X298316400Y-130547400D03*
G04 #@! TD*
G04 #@! TO.C,Q3*
X254095000Y-130420400D03*
X254095000Y-132520400D03*
X252095000Y-131470400D03*
G04 #@! TD*
G04 #@! TO.C,Q5*
X208159600Y-131123400D03*
X210159600Y-132173400D03*
X210159600Y-130073400D03*
G04 #@! TD*
G04 #@! TO.C,Q7*
X164338000Y-131318000D03*
X166338000Y-132368000D03*
X166338000Y-130268000D03*
G04 #@! TD*
G04 #@! TO.C,Q9*
X122751600Y-129937800D03*
X122751600Y-132037800D03*
X120751600Y-130987800D03*
G04 #@! TD*
G04 #@! TO.C,Q11*
X79495400Y-129760000D03*
X79495400Y-131860000D03*
X77495400Y-130810000D03*
G04 #@! TD*
G04 #@! TO.C,Q13*
X35324800Y-129988600D03*
X35324800Y-132088600D03*
X33324800Y-131038600D03*
G04 #@! TD*
G04 #@! TO.C,Q15*
X-10185400Y-131013200D03*
X-8185400Y-132063200D03*
X-8185400Y-129963200D03*
G04 #@! TD*
D17*
G04 #@! TO.C,T1*
X290601400Y-136525000D03*
G04 #@! TD*
G04 #@! TO.C,T3*
X246913400Y-136499600D03*
G04 #@! TD*
G04 #@! TO.C,T5*
X203200000Y-136499600D03*
G04 #@! TD*
G04 #@! TO.C,T7*
X159537400Y-136474200D03*
G04 #@! TD*
G04 #@! TO.C,T9*
X115849400Y-136474200D03*
G04 #@! TD*
G04 #@! TO.C,T11*
X72161400Y-136398000D03*
G04 #@! TD*
G04 #@! TO.C,T13*
X28473400Y-136448800D03*
G04 #@! TD*
G04 #@! TO.C,T15*
X-15214600Y-136372600D03*
G04 #@! TD*
M02*
