G04 #@! TF.GenerationSoftware,KiCad,Pcbnew,5.0.2-bee76a0~70~ubuntu16.04.1*
G04 #@! TF.CreationDate,2019-11-05T16:08:15-05:00*
G04 #@! TF.ProjectId,DA_Board_2,44415f42-6f61-4726-945f-322e6b696361,rev?*
G04 #@! TF.SameCoordinates,Original*
G04 #@! TF.FileFunction,Soldermask,Top*
G04 #@! TF.FilePolarity,Negative*
%FSLAX46Y46*%
G04 Gerber Fmt 4.6, Leading zero omitted, Abs format (unit mm)*
G04 Created by KiCad (PCBNEW 5.0.2-bee76a0~70~ubuntu16.04.1) date Tue 05 Nov 2019 04:08:15 PM EST*
%MOMM*%
%LPD*%
G01*
G04 APERTURE LIST*
%ADD10C,0.100000*%
G04 APERTURE END LIST*
D10*
G36*
X293101400Y-140525000D02*
X288101400Y-140525000D01*
X288101400Y-132525000D01*
X293101400Y-132525000D01*
X293101400Y-140525000D01*
X293101400Y-140525000D01*
G37*
G36*
X249413400Y-140499600D02*
X244413400Y-140499600D01*
X244413400Y-132499600D01*
X249413400Y-132499600D01*
X249413400Y-140499600D01*
X249413400Y-140499600D01*
G37*
G36*
X205700000Y-140499600D02*
X200700000Y-140499600D01*
X200700000Y-132499600D01*
X205700000Y-132499600D01*
X205700000Y-140499600D01*
X205700000Y-140499600D01*
G37*
G36*
X162037400Y-140474200D02*
X157037400Y-140474200D01*
X157037400Y-132474200D01*
X162037400Y-132474200D01*
X162037400Y-140474200D01*
X162037400Y-140474200D01*
G37*
G36*
X118349400Y-140474200D02*
X113349400Y-140474200D01*
X113349400Y-132474200D01*
X118349400Y-132474200D01*
X118349400Y-140474200D01*
X118349400Y-140474200D01*
G37*
G36*
X30973400Y-140448800D02*
X25973400Y-140448800D01*
X25973400Y-132448800D01*
X30973400Y-132448800D01*
X30973400Y-140448800D01*
X30973400Y-140448800D01*
G37*
G36*
X74661400Y-140398000D02*
X69661400Y-140398000D01*
X69661400Y-132398000D01*
X74661400Y-132398000D01*
X74661400Y-140398000D01*
X74661400Y-140398000D01*
G37*
G36*
X-12714600Y-140372600D02*
X-17714600Y-140372600D01*
X-17714600Y-132372600D01*
X-12714600Y-132372600D01*
X-12714600Y-140372600D01*
X-12714600Y-140372600D01*
G37*
G36*
X286018800Y-140303000D02*
X284518800Y-140303000D01*
X284518800Y-136303000D01*
X286018800Y-136303000D01*
X286018800Y-140303000D01*
X286018800Y-140303000D01*
G37*
G36*
X283018800Y-140303000D02*
X281518800Y-140303000D01*
X281518800Y-136303000D01*
X283018800Y-136303000D01*
X283018800Y-140303000D01*
X283018800Y-140303000D01*
G37*
G36*
X280175400Y-140226800D02*
X278675400Y-140226800D01*
X278675400Y-136226800D01*
X280175400Y-136226800D01*
X280175400Y-140226800D01*
X280175400Y-140226800D01*
G37*
G36*
X277175400Y-140226800D02*
X275675400Y-140226800D01*
X275675400Y-136226800D01*
X277175400Y-136226800D01*
X277175400Y-140226800D01*
X277175400Y-140226800D01*
G37*
G36*
X274488600Y-140150600D02*
X272988600Y-140150600D01*
X272988600Y-136150600D01*
X274488600Y-136150600D01*
X274488600Y-140150600D01*
X274488600Y-140150600D01*
G37*
G36*
X271488600Y-140150600D02*
X269988600Y-140150600D01*
X269988600Y-136150600D01*
X271488600Y-136150600D01*
X271488600Y-140150600D01*
X271488600Y-140150600D01*
G37*
G36*
X110366500Y-139960100D02*
X108866500Y-139960100D01*
X108866500Y-135960100D01*
X110366500Y-135960100D01*
X110366500Y-139960100D01*
X110366500Y-139960100D01*
G37*
G36*
X107366500Y-139960100D02*
X105866500Y-139960100D01*
X105866500Y-135960100D01*
X107366500Y-135960100D01*
X107366500Y-139960100D01*
X107366500Y-139960100D01*
G37*
G36*
X101753100Y-139909300D02*
X100253100Y-139909300D01*
X100253100Y-135909300D01*
X101753100Y-135909300D01*
X101753100Y-139909300D01*
X101753100Y-139909300D01*
G37*
G36*
X104753100Y-139909300D02*
X103253100Y-139909300D01*
X103253100Y-135909300D01*
X104753100Y-135909300D01*
X104753100Y-139909300D01*
X104753100Y-139909300D01*
G37*
G36*
X99214500Y-139883900D02*
X97714500Y-139883900D01*
X97714500Y-135883900D01*
X99214500Y-135883900D01*
X99214500Y-139883900D01*
X99214500Y-139883900D01*
G37*
G36*
X96214500Y-139883900D02*
X94714500Y-139883900D01*
X94714500Y-135883900D01*
X96214500Y-135883900D01*
X96214500Y-139883900D01*
X96214500Y-139883900D01*
G37*
G36*
X198263200Y-139833100D02*
X196763200Y-139833100D01*
X196763200Y-135833100D01*
X198263200Y-135833100D01*
X198263200Y-139833100D01*
X198263200Y-139833100D01*
G37*
G36*
X195263200Y-139833100D02*
X193763200Y-139833100D01*
X193763200Y-135833100D01*
X195263200Y-135833100D01*
X195263200Y-139833100D01*
X195263200Y-139833100D01*
G37*
G36*
X23154200Y-139820400D02*
X21654200Y-139820400D01*
X21654200Y-135820400D01*
X23154200Y-135820400D01*
X23154200Y-139820400D01*
X23154200Y-139820400D01*
G37*
G36*
X20154200Y-139820400D02*
X18654200Y-139820400D01*
X18654200Y-135820400D01*
X20154200Y-135820400D01*
X20154200Y-139820400D01*
X20154200Y-139820400D01*
G37*
G36*
X17234600Y-139795000D02*
X15734600Y-139795000D01*
X15734600Y-135795000D01*
X17234600Y-135795000D01*
X17234600Y-139795000D01*
X17234600Y-139795000D01*
G37*
G36*
X14234600Y-139795000D02*
X12734600Y-139795000D01*
X12734600Y-135795000D01*
X14234600Y-135795000D01*
X14234600Y-139795000D01*
X14234600Y-139795000D01*
G37*
G36*
X192261000Y-139782300D02*
X190761000Y-139782300D01*
X190761000Y-135782300D01*
X192261000Y-135782300D01*
X192261000Y-139782300D01*
X192261000Y-139782300D01*
G37*
G36*
X189261000Y-139782300D02*
X187761000Y-139782300D01*
X187761000Y-135782300D01*
X189261000Y-135782300D01*
X189261000Y-139782300D01*
X189261000Y-139782300D01*
G37*
G36*
X8265600Y-139769600D02*
X6765600Y-139769600D01*
X6765600Y-135769600D01*
X8265600Y-135769600D01*
X8265600Y-139769600D01*
X8265600Y-139769600D01*
G37*
G36*
X11265600Y-139769600D02*
X9765600Y-139769600D01*
X9765600Y-135769600D01*
X11265600Y-135769600D01*
X11265600Y-139769600D01*
X11265600Y-139769600D01*
G37*
G36*
X186325200Y-139706100D02*
X184825200Y-139706100D01*
X184825200Y-135706100D01*
X186325200Y-135706100D01*
X186325200Y-139706100D01*
X186325200Y-139706100D01*
G37*
G36*
X183325200Y-139706100D02*
X181825200Y-139706100D01*
X181825200Y-135706100D01*
X183325200Y-135706100D01*
X183325200Y-139706100D01*
X183325200Y-139706100D01*
G37*
G36*
X304391000Y-137796000D02*
X300891000Y-137796000D01*
X300891000Y-136016000D01*
X304391000Y-136016000D01*
X304391000Y-137796000D01*
X304391000Y-137796000D01*
G37*
G36*
X259814000Y-137440400D02*
X256314000Y-137440400D01*
X256314000Y-135660400D01*
X259814000Y-135660400D01*
X259814000Y-137440400D01*
X259814000Y-137440400D01*
G37*
G36*
X171955400Y-137262600D02*
X168455400Y-137262600D01*
X168455400Y-135482600D01*
X171955400Y-135482600D01*
X171955400Y-137262600D01*
X171955400Y-137262600D01*
G37*
G36*
X-2593400Y-137186400D02*
X-6093400Y-137186400D01*
X-6093400Y-135406400D01*
X-2593400Y-135406400D01*
X-2593400Y-137186400D01*
X-2593400Y-137186400D01*
G37*
G36*
X215846600Y-137084800D02*
X212346600Y-137084800D01*
X212346600Y-135304800D01*
X215846600Y-135304800D01*
X215846600Y-137084800D01*
X215846600Y-137084800D01*
G37*
G36*
X128394400Y-136932400D02*
X124894400Y-136932400D01*
X124894400Y-135152400D01*
X128394400Y-135152400D01*
X128394400Y-136932400D01*
X128394400Y-136932400D01*
G37*
G36*
X41043800Y-136881600D02*
X37543800Y-136881600D01*
X37543800Y-135101600D01*
X41043800Y-135101600D01*
X41043800Y-136881600D01*
X41043800Y-136881600D01*
G37*
G36*
X85239800Y-136653000D02*
X81739800Y-136653000D01*
X81739800Y-134873000D01*
X85239800Y-134873000D01*
X85239800Y-136653000D01*
X85239800Y-136653000D01*
G37*
G36*
X298766400Y-133047400D02*
X297866400Y-133047400D01*
X297866400Y-132247400D01*
X298766400Y-132247400D01*
X298766400Y-133047400D01*
X298766400Y-133047400D01*
G37*
G36*
X254545000Y-132920400D02*
X253645000Y-132920400D01*
X253645000Y-132120400D01*
X254545000Y-132120400D01*
X254545000Y-132920400D01*
X254545000Y-132920400D01*
G37*
G36*
X166788000Y-132768000D02*
X165888000Y-132768000D01*
X165888000Y-131968000D01*
X166788000Y-131968000D01*
X166788000Y-132768000D01*
X166788000Y-132768000D01*
G37*
G36*
X210609600Y-132573400D02*
X209709600Y-132573400D01*
X209709600Y-131773400D01*
X210609600Y-131773400D01*
X210609600Y-132573400D01*
X210609600Y-132573400D01*
G37*
G36*
X304391000Y-132516000D02*
X300891000Y-132516000D01*
X300891000Y-130736000D01*
X304391000Y-130736000D01*
X304391000Y-132516000D01*
X304391000Y-132516000D01*
G37*
G36*
X35774800Y-132488600D02*
X34874800Y-132488600D01*
X34874800Y-131688600D01*
X35774800Y-131688600D01*
X35774800Y-132488600D01*
X35774800Y-132488600D01*
G37*
G36*
X-7735400Y-132463200D02*
X-8635400Y-132463200D01*
X-8635400Y-131663200D01*
X-7735400Y-131663200D01*
X-7735400Y-132463200D01*
X-7735400Y-132463200D01*
G37*
G36*
X123201600Y-132437800D02*
X122301600Y-132437800D01*
X122301600Y-131637800D01*
X123201600Y-131637800D01*
X123201600Y-132437800D01*
X123201600Y-132437800D01*
G37*
G36*
X79945400Y-132260000D02*
X79045400Y-132260000D01*
X79045400Y-131460000D01*
X79945400Y-131460000D01*
X79945400Y-132260000D01*
X79945400Y-132260000D01*
G37*
G36*
X259814000Y-132160400D02*
X256314000Y-132160400D01*
X256314000Y-130380400D01*
X259814000Y-130380400D01*
X259814000Y-132160400D01*
X259814000Y-132160400D01*
G37*
G36*
X296766400Y-131997400D02*
X295866400Y-131997400D01*
X295866400Y-131197400D01*
X296766400Y-131197400D01*
X296766400Y-131997400D01*
X296766400Y-131997400D01*
G37*
G36*
X171955400Y-131982600D02*
X168455400Y-131982600D01*
X168455400Y-130202600D01*
X171955400Y-130202600D01*
X171955400Y-131982600D01*
X171955400Y-131982600D01*
G37*
G36*
X-2593400Y-131906400D02*
X-6093400Y-131906400D01*
X-6093400Y-130126400D01*
X-2593400Y-130126400D01*
X-2593400Y-131906400D01*
X-2593400Y-131906400D01*
G37*
G36*
X252545000Y-131870400D02*
X251645000Y-131870400D01*
X251645000Y-131070400D01*
X252545000Y-131070400D01*
X252545000Y-131870400D01*
X252545000Y-131870400D01*
G37*
G36*
X215846600Y-131804800D02*
X212346600Y-131804800D01*
X212346600Y-130024800D01*
X215846600Y-130024800D01*
X215846600Y-131804800D01*
X215846600Y-131804800D01*
G37*
G36*
X164788000Y-131718000D02*
X163888000Y-131718000D01*
X163888000Y-130918000D01*
X164788000Y-130918000D01*
X164788000Y-131718000D01*
X164788000Y-131718000D01*
G37*
G36*
X128394400Y-131652400D02*
X124894400Y-131652400D01*
X124894400Y-129872400D01*
X128394400Y-129872400D01*
X128394400Y-131652400D01*
X128394400Y-131652400D01*
G37*
G36*
X41043800Y-131601600D02*
X37543800Y-131601600D01*
X37543800Y-129821600D01*
X41043800Y-129821600D01*
X41043800Y-131601600D01*
X41043800Y-131601600D01*
G37*
G36*
X208609600Y-131523400D02*
X207709600Y-131523400D01*
X207709600Y-130723400D01*
X208609600Y-130723400D01*
X208609600Y-131523400D01*
X208609600Y-131523400D01*
G37*
G36*
X33774800Y-131438600D02*
X32874800Y-131438600D01*
X32874800Y-130638600D01*
X33774800Y-130638600D01*
X33774800Y-131438600D01*
X33774800Y-131438600D01*
G37*
G36*
X-9735400Y-131413200D02*
X-10635400Y-131413200D01*
X-10635400Y-130613200D01*
X-9735400Y-130613200D01*
X-9735400Y-131413200D01*
X-9735400Y-131413200D01*
G37*
G36*
X121201600Y-131387800D02*
X120301600Y-131387800D01*
X120301600Y-130587800D01*
X121201600Y-130587800D01*
X121201600Y-131387800D01*
X121201600Y-131387800D01*
G37*
G36*
X85239800Y-131373000D02*
X81739800Y-131373000D01*
X81739800Y-129593000D01*
X85239800Y-129593000D01*
X85239800Y-131373000D01*
X85239800Y-131373000D01*
G37*
G36*
X77945400Y-131210000D02*
X77045400Y-131210000D01*
X77045400Y-130410000D01*
X77945400Y-130410000D01*
X77945400Y-131210000D01*
X77945400Y-131210000D01*
G37*
G36*
X298766400Y-130947400D02*
X297866400Y-130947400D01*
X297866400Y-130147400D01*
X298766400Y-130147400D01*
X298766400Y-130947400D01*
X298766400Y-130947400D01*
G37*
G36*
X254545000Y-130820400D02*
X253645000Y-130820400D01*
X253645000Y-130020400D01*
X254545000Y-130020400D01*
X254545000Y-130820400D01*
X254545000Y-130820400D01*
G37*
G36*
X166788000Y-130668000D02*
X165888000Y-130668000D01*
X165888000Y-129868000D01*
X166788000Y-129868000D01*
X166788000Y-130668000D01*
X166788000Y-130668000D01*
G37*
G36*
X210609600Y-130473400D02*
X209709600Y-130473400D01*
X209709600Y-129673400D01*
X210609600Y-129673400D01*
X210609600Y-130473400D01*
X210609600Y-130473400D01*
G37*
G36*
X35774800Y-130388600D02*
X34874800Y-130388600D01*
X34874800Y-129588600D01*
X35774800Y-129588600D01*
X35774800Y-130388600D01*
X35774800Y-130388600D01*
G37*
G36*
X-7735400Y-130363200D02*
X-8635400Y-130363200D01*
X-8635400Y-129563200D01*
X-7735400Y-129563200D01*
X-7735400Y-130363200D01*
X-7735400Y-130363200D01*
G37*
G36*
X123201600Y-130337800D02*
X122301600Y-130337800D01*
X122301600Y-129537800D01*
X123201600Y-129537800D01*
X123201600Y-130337800D01*
X123201600Y-130337800D01*
G37*
G36*
X79945400Y-130160000D02*
X79045400Y-130160000D01*
X79045400Y-129360000D01*
X79945400Y-129360000D01*
X79945400Y-130160000D01*
X79945400Y-130160000D01*
G37*
G36*
X259629200Y-128743000D02*
X258429200Y-128743000D01*
X258429200Y-127543000D01*
X259629200Y-127543000D01*
X259629200Y-128743000D01*
X259629200Y-128743000D01*
G37*
G36*
X257698000Y-128731800D02*
X256398000Y-128731800D01*
X256398000Y-128031800D01*
X257698000Y-128031800D01*
X257698000Y-128731800D01*
X257698000Y-128731800D01*
G37*
G36*
X170322000Y-128630200D02*
X169022000Y-128630200D01*
X169022000Y-127930200D01*
X170322000Y-127930200D01*
X170322000Y-128630200D01*
X170322000Y-128630200D01*
G37*
G36*
X301843200Y-128630200D02*
X300543200Y-128630200D01*
X300543200Y-127930200D01*
X301843200Y-127930200D01*
X301843200Y-128630200D01*
X301843200Y-128630200D01*
G37*
G36*
X172227800Y-128623800D02*
X171027800Y-128623800D01*
X171027800Y-127423800D01*
X172227800Y-127423800D01*
X172227800Y-128623800D01*
X172227800Y-128623800D01*
G37*
G36*
X304231600Y-128598400D02*
X303031600Y-128598400D01*
X303031600Y-127398400D01*
X304231600Y-127398400D01*
X304231600Y-128598400D01*
X304231600Y-128598400D01*
G37*
G36*
X-2397200Y-128489000D02*
X-3597200Y-128489000D01*
X-3597200Y-127289000D01*
X-2397200Y-127289000D01*
X-2397200Y-128489000D01*
X-2397200Y-128489000D01*
G37*
G36*
X-4353800Y-128477800D02*
X-5653800Y-128477800D01*
X-5653800Y-127777800D01*
X-4353800Y-127777800D01*
X-4353800Y-128477800D01*
X-4353800Y-128477800D01*
G37*
G36*
X215560200Y-128319000D02*
X214360200Y-128319000D01*
X214360200Y-127119000D01*
X215560200Y-127119000D01*
X215560200Y-128319000D01*
X215560200Y-128319000D01*
G37*
G36*
X249516400Y-128300400D02*
X247866400Y-128300400D01*
X247866400Y-124490400D01*
X249516400Y-124490400D01*
X249516400Y-128300400D01*
X249516400Y-128300400D01*
G37*
G36*
X254596400Y-128300400D02*
X252946400Y-128300400D01*
X252946400Y-124490400D01*
X254596400Y-124490400D01*
X254596400Y-128300400D01*
X254596400Y-128300400D01*
G37*
G36*
X213603600Y-128300000D02*
X212303600Y-128300000D01*
X212303600Y-127600000D01*
X213603600Y-127600000D01*
X213603600Y-128300000D01*
X213603600Y-128300000D01*
G37*
G36*
X128717600Y-128293600D02*
X127517600Y-128293600D01*
X127517600Y-127093600D01*
X128717600Y-127093600D01*
X128717600Y-128293600D01*
X128717600Y-128293600D01*
G37*
G36*
X126786400Y-128284800D02*
X125486400Y-128284800D01*
X125486400Y-127584800D01*
X126786400Y-127584800D01*
X126786400Y-128284800D01*
X126786400Y-128284800D01*
G37*
G36*
X39258000Y-128223800D02*
X37958000Y-128223800D01*
X37958000Y-127523800D01*
X39258000Y-127523800D01*
X39258000Y-128223800D01*
X39258000Y-128223800D01*
G37*
G36*
X41214600Y-128217400D02*
X40014600Y-128217400D01*
X40014600Y-127017400D01*
X41214600Y-127017400D01*
X41214600Y-128217400D01*
X41214600Y-128217400D01*
G37*
G36*
X298716200Y-128198800D02*
X297066200Y-128198800D01*
X297066200Y-124388800D01*
X298716200Y-124388800D01*
X298716200Y-128198800D01*
X298716200Y-128198800D01*
G37*
G36*
X293636200Y-128198800D02*
X291986200Y-128198800D01*
X291986200Y-124388800D01*
X293636200Y-124388800D01*
X293636200Y-128198800D01*
X293636200Y-128198800D01*
G37*
G36*
X162064200Y-128173400D02*
X160414200Y-128173400D01*
X160414200Y-124363400D01*
X162064200Y-124363400D01*
X162064200Y-128173400D01*
X162064200Y-128173400D01*
G37*
G36*
X167144200Y-128173400D02*
X165494200Y-128173400D01*
X165494200Y-124363400D01*
X167144200Y-124363400D01*
X167144200Y-128173400D01*
X167144200Y-128173400D01*
G37*
G36*
X-7480800Y-127995600D02*
X-9130800Y-127995600D01*
X-9130800Y-124185600D01*
X-7480800Y-124185600D01*
X-7480800Y-127995600D01*
X-7480800Y-127995600D01*
G37*
G36*
X-12560800Y-127995600D02*
X-14210800Y-127995600D01*
X-14210800Y-124185600D01*
X-12560800Y-124185600D01*
X-12560800Y-127995600D01*
X-12560800Y-127995600D01*
G37*
G36*
X85385200Y-127988800D02*
X84185200Y-127988800D01*
X84185200Y-126788800D01*
X85385200Y-126788800D01*
X85385200Y-127988800D01*
X85385200Y-127988800D01*
G37*
G36*
X83504800Y-127980000D02*
X82204800Y-127980000D01*
X82204800Y-127280000D01*
X83504800Y-127280000D01*
X83504800Y-127980000D01*
X83504800Y-127980000D01*
G37*
G36*
X205295000Y-127894000D02*
X203645000Y-127894000D01*
X203645000Y-124084000D01*
X205295000Y-124084000D01*
X205295000Y-127894000D01*
X205295000Y-127894000D01*
G37*
G36*
X210375000Y-127894000D02*
X208725000Y-127894000D01*
X208725000Y-124084000D01*
X210375000Y-124084000D01*
X210375000Y-127894000D01*
X210375000Y-127894000D01*
G37*
G36*
X123608600Y-127843200D02*
X121958600Y-127843200D01*
X121958600Y-124033200D01*
X123608600Y-124033200D01*
X123608600Y-127843200D01*
X123608600Y-127843200D01*
G37*
G36*
X118528600Y-127843200D02*
X116878600Y-127843200D01*
X116878600Y-124033200D01*
X118528600Y-124033200D01*
X118528600Y-127843200D01*
X118528600Y-127843200D01*
G37*
G36*
X36131000Y-127817800D02*
X34481000Y-127817800D01*
X34481000Y-124007800D01*
X36131000Y-124007800D01*
X36131000Y-127817800D01*
X36131000Y-127817800D01*
G37*
G36*
X31051000Y-127817800D02*
X29401000Y-127817800D01*
X29401000Y-124007800D01*
X31051000Y-124007800D01*
X31051000Y-127817800D01*
X31051000Y-127817800D01*
G37*
G36*
X75348600Y-127513000D02*
X73698600Y-127513000D01*
X73698600Y-123703000D01*
X75348600Y-123703000D01*
X75348600Y-127513000D01*
X75348600Y-127513000D01*
G37*
G36*
X80428600Y-127513000D02*
X78778600Y-127513000D01*
X78778600Y-123703000D01*
X80428600Y-123703000D01*
X80428600Y-127513000D01*
X80428600Y-127513000D01*
G37*
G36*
X257698000Y-126831800D02*
X256398000Y-126831800D01*
X256398000Y-126131800D01*
X257698000Y-126131800D01*
X257698000Y-126831800D01*
X257698000Y-126831800D01*
G37*
G36*
X301843200Y-126730200D02*
X300543200Y-126730200D01*
X300543200Y-126030200D01*
X301843200Y-126030200D01*
X301843200Y-126730200D01*
X301843200Y-126730200D01*
G37*
G36*
X170322000Y-126730200D02*
X169022000Y-126730200D01*
X169022000Y-126030200D01*
X170322000Y-126030200D01*
X170322000Y-126730200D01*
X170322000Y-126730200D01*
G37*
G36*
X-4353800Y-126577800D02*
X-5653800Y-126577800D01*
X-5653800Y-125877800D01*
X-4353800Y-125877800D01*
X-4353800Y-126577800D01*
X-4353800Y-126577800D01*
G37*
G36*
X259629200Y-126543000D02*
X258429200Y-126543000D01*
X258429200Y-125343000D01*
X259629200Y-125343000D01*
X259629200Y-126543000D01*
X259629200Y-126543000D01*
G37*
G36*
X172227800Y-126423800D02*
X171027800Y-126423800D01*
X171027800Y-125223800D01*
X172227800Y-125223800D01*
X172227800Y-126423800D01*
X172227800Y-126423800D01*
G37*
G36*
X213603600Y-126400000D02*
X212303600Y-126400000D01*
X212303600Y-125700000D01*
X213603600Y-125700000D01*
X213603600Y-126400000D01*
X213603600Y-126400000D01*
G37*
G36*
X304231600Y-126398400D02*
X303031600Y-126398400D01*
X303031600Y-125198400D01*
X304231600Y-125198400D01*
X304231600Y-126398400D01*
X304231600Y-126398400D01*
G37*
G36*
X126786400Y-126384800D02*
X125486400Y-126384800D01*
X125486400Y-125684800D01*
X126786400Y-125684800D01*
X126786400Y-126384800D01*
X126786400Y-126384800D01*
G37*
G36*
X39258000Y-126323800D02*
X37958000Y-126323800D01*
X37958000Y-125623800D01*
X39258000Y-125623800D01*
X39258000Y-126323800D01*
X39258000Y-126323800D01*
G37*
G36*
X-2397200Y-126289000D02*
X-3597200Y-126289000D01*
X-3597200Y-125089000D01*
X-2397200Y-125089000D01*
X-2397200Y-126289000D01*
X-2397200Y-126289000D01*
G37*
G36*
X215560200Y-126119000D02*
X214360200Y-126119000D01*
X214360200Y-124919000D01*
X215560200Y-124919000D01*
X215560200Y-126119000D01*
X215560200Y-126119000D01*
G37*
G36*
X128717600Y-126093600D02*
X127517600Y-126093600D01*
X127517600Y-124893600D01*
X128717600Y-124893600D01*
X128717600Y-126093600D01*
X128717600Y-126093600D01*
G37*
G36*
X83504800Y-126080000D02*
X82204800Y-126080000D01*
X82204800Y-125380000D01*
X83504800Y-125380000D01*
X83504800Y-126080000D01*
X83504800Y-126080000D01*
G37*
G36*
X41214600Y-126017400D02*
X40014600Y-126017400D01*
X40014600Y-124817400D01*
X41214600Y-124817400D01*
X41214600Y-126017400D01*
X41214600Y-126017400D01*
G37*
G36*
X85385200Y-125788800D02*
X84185200Y-125788800D01*
X84185200Y-124588800D01*
X85385200Y-124588800D01*
X85385200Y-125788800D01*
X85385200Y-125788800D01*
G37*
G36*
X255166400Y-123025400D02*
X247296400Y-123025400D01*
X247296400Y-114515400D01*
X255166400Y-114515400D01*
X255166400Y-123025400D01*
X255166400Y-123025400D01*
G37*
G36*
X299286200Y-122923800D02*
X291416200Y-122923800D01*
X291416200Y-114413800D01*
X299286200Y-114413800D01*
X299286200Y-122923800D01*
X299286200Y-122923800D01*
G37*
G36*
X167714200Y-122898400D02*
X159844200Y-122898400D01*
X159844200Y-114388400D01*
X167714200Y-114388400D01*
X167714200Y-122898400D01*
X167714200Y-122898400D01*
G37*
G36*
X-6910800Y-122720600D02*
X-14780800Y-122720600D01*
X-14780800Y-114210600D01*
X-6910800Y-114210600D01*
X-6910800Y-122720600D01*
X-6910800Y-122720600D01*
G37*
G36*
X210945000Y-122619000D02*
X203075000Y-122619000D01*
X203075000Y-114109000D01*
X210945000Y-114109000D01*
X210945000Y-122619000D01*
X210945000Y-122619000D01*
G37*
G36*
X124178600Y-122568200D02*
X116308600Y-122568200D01*
X116308600Y-114058200D01*
X124178600Y-114058200D01*
X124178600Y-122568200D01*
X124178600Y-122568200D01*
G37*
G36*
X36701000Y-122542800D02*
X28831000Y-122542800D01*
X28831000Y-114032800D01*
X36701000Y-114032800D01*
X36701000Y-122542800D01*
X36701000Y-122542800D01*
G37*
G36*
X80998600Y-122238000D02*
X73128600Y-122238000D01*
X73128600Y-113728000D01*
X80998600Y-113728000D01*
X80998600Y-122238000D01*
X80998600Y-122238000D01*
G37*
G36*
X19134238Y-109539153D02*
X19176098Y-109547479D01*
X19202410Y-109558378D01*
X19294390Y-109596477D01*
X19400854Y-109667614D01*
X19491386Y-109758146D01*
X19562523Y-109864610D01*
X19611521Y-109982903D01*
X19636500Y-110108479D01*
X19636500Y-110236521D01*
X19611521Y-110362097D01*
X19562523Y-110480390D01*
X19491386Y-110586854D01*
X19400854Y-110677386D01*
X19294390Y-110748523D01*
X19210745Y-110783170D01*
X19176098Y-110797521D01*
X19134238Y-110805847D01*
X19050521Y-110822500D01*
X18922479Y-110822500D01*
X18838762Y-110805847D01*
X18796902Y-110797521D01*
X18762255Y-110783170D01*
X18678610Y-110748523D01*
X18572146Y-110677386D01*
X18481614Y-110586854D01*
X18410477Y-110480390D01*
X18361479Y-110362097D01*
X18336500Y-110236521D01*
X18336500Y-110108479D01*
X18361479Y-109982903D01*
X18410477Y-109864610D01*
X18481614Y-109758146D01*
X18572146Y-109667614D01*
X18678610Y-109596477D01*
X18770590Y-109558378D01*
X18796902Y-109547479D01*
X18838762Y-109539153D01*
X18922479Y-109522500D01*
X19050521Y-109522500D01*
X19134238Y-109539153D01*
X19134238Y-109539153D01*
G37*
G36*
X1214538Y-109501053D02*
X1256398Y-109509379D01*
X1288074Y-109522500D01*
X1374690Y-109558377D01*
X1481154Y-109629514D01*
X1571686Y-109720046D01*
X1642823Y-109826510D01*
X1691821Y-109944803D01*
X1716800Y-110070379D01*
X1716800Y-110198421D01*
X1691821Y-110323997D01*
X1642823Y-110442290D01*
X1571686Y-110548754D01*
X1481154Y-110639286D01*
X1374690Y-110710423D01*
X1291045Y-110745070D01*
X1256398Y-110759421D01*
X1214538Y-110767747D01*
X1130821Y-110784400D01*
X1002779Y-110784400D01*
X919062Y-110767747D01*
X877202Y-110759421D01*
X842555Y-110745070D01*
X758910Y-110710423D01*
X652446Y-110639286D01*
X561914Y-110548754D01*
X490777Y-110442290D01*
X441779Y-110323997D01*
X416800Y-110198421D01*
X416800Y-110070379D01*
X441779Y-109944803D01*
X490777Y-109826510D01*
X561914Y-109720046D01*
X652446Y-109629514D01*
X758910Y-109558377D01*
X845526Y-109522500D01*
X877202Y-109509379D01*
X919062Y-109501053D01*
X1002779Y-109484400D01*
X1130821Y-109484400D01*
X1214538Y-109501053D01*
X1214538Y-109501053D01*
G37*
G36*
X10478367Y-109484400D02*
X10540098Y-109496679D01*
X10570758Y-109509379D01*
X10658390Y-109545677D01*
X10764854Y-109616814D01*
X10855386Y-109707346D01*
X10926523Y-109813810D01*
X10975521Y-109932103D01*
X11000500Y-110057679D01*
X11000500Y-110185721D01*
X10975521Y-110311297D01*
X10926523Y-110429590D01*
X10855386Y-110536054D01*
X10764854Y-110626586D01*
X10658390Y-110697723D01*
X10574745Y-110732370D01*
X10540098Y-110746721D01*
X10498238Y-110755047D01*
X10414521Y-110771700D01*
X10286479Y-110771700D01*
X10202762Y-110755047D01*
X10160902Y-110746721D01*
X10126255Y-110732370D01*
X10042610Y-110697723D01*
X9936146Y-110626586D01*
X9845614Y-110536054D01*
X9774477Y-110429590D01*
X9725479Y-110311297D01*
X9700500Y-110185721D01*
X9700500Y-110057679D01*
X9725479Y-109932103D01*
X9774477Y-109813810D01*
X9845614Y-109707346D01*
X9936146Y-109616814D01*
X10042610Y-109545677D01*
X10130242Y-109509379D01*
X10160902Y-109496679D01*
X10222633Y-109484400D01*
X10286479Y-109471700D01*
X10414521Y-109471700D01*
X10478367Y-109484400D01*
X10478367Y-109484400D01*
G37*
G36*
X16594238Y-108269153D02*
X16636098Y-108277479D01*
X16662410Y-108288378D01*
X16754390Y-108326477D01*
X16860854Y-108397614D01*
X16951386Y-108488146D01*
X17022523Y-108594610D01*
X17071521Y-108712903D01*
X17096500Y-108838479D01*
X17096500Y-108966521D01*
X17071521Y-109092097D01*
X17022523Y-109210390D01*
X16951386Y-109316854D01*
X16860854Y-109407386D01*
X16754390Y-109478523D01*
X16679896Y-109509379D01*
X16636098Y-109527521D01*
X16594238Y-109535847D01*
X16510521Y-109552500D01*
X16382479Y-109552500D01*
X16298762Y-109535847D01*
X16256902Y-109527521D01*
X16213104Y-109509379D01*
X16138610Y-109478523D01*
X16032146Y-109407386D01*
X15941614Y-109316854D01*
X15870477Y-109210390D01*
X15821479Y-109092097D01*
X15796500Y-108966521D01*
X15796500Y-108838479D01*
X15821479Y-108712903D01*
X15870477Y-108594610D01*
X15941614Y-108488146D01*
X16032146Y-108397614D01*
X16138610Y-108326477D01*
X16230590Y-108288378D01*
X16256902Y-108277479D01*
X16298762Y-108269153D01*
X16382479Y-108252500D01*
X16510521Y-108252500D01*
X16594238Y-108269153D01*
X16594238Y-108269153D01*
G37*
G36*
X-1325462Y-108231053D02*
X-1283602Y-108239379D01*
X-1251926Y-108252500D01*
X-1165310Y-108288377D01*
X-1058846Y-108359514D01*
X-968314Y-108450046D01*
X-897177Y-108556510D01*
X-848179Y-108674803D01*
X-823200Y-108800379D01*
X-823200Y-108928421D01*
X-848179Y-109053997D01*
X-897177Y-109172290D01*
X-968314Y-109278754D01*
X-1058846Y-109369286D01*
X-1165310Y-109440423D01*
X-1240820Y-109471700D01*
X-1283602Y-109489421D01*
X-1320091Y-109496679D01*
X-1409179Y-109514400D01*
X-1537221Y-109514400D01*
X-1626309Y-109496679D01*
X-1662798Y-109489421D01*
X-1705580Y-109471700D01*
X-1781090Y-109440423D01*
X-1887554Y-109369286D01*
X-1978086Y-109278754D01*
X-2049223Y-109172290D01*
X-2098221Y-109053997D01*
X-2123200Y-108928421D01*
X-2123200Y-108800379D01*
X-2098221Y-108674803D01*
X-2049223Y-108556510D01*
X-1978086Y-108450046D01*
X-1887554Y-108359514D01*
X-1781090Y-108288377D01*
X-1694474Y-108252500D01*
X-1662798Y-108239379D01*
X-1620938Y-108231053D01*
X-1537221Y-108214400D01*
X-1409179Y-108214400D01*
X-1325462Y-108231053D01*
X-1325462Y-108231053D01*
G37*
G36*
X7938367Y-108214400D02*
X8000098Y-108226679D01*
X8030758Y-108239379D01*
X8118390Y-108275677D01*
X8224854Y-108346814D01*
X8315386Y-108437346D01*
X8386523Y-108543810D01*
X8435521Y-108662103D01*
X8460500Y-108787679D01*
X8460500Y-108915721D01*
X8435521Y-109041297D01*
X8386523Y-109159590D01*
X8315386Y-109266054D01*
X8224854Y-109356586D01*
X8118390Y-109427723D01*
X8034745Y-109462370D01*
X8000098Y-109476721D01*
X7961493Y-109484400D01*
X7874521Y-109501700D01*
X7746479Y-109501700D01*
X7659507Y-109484400D01*
X7620902Y-109476721D01*
X7586255Y-109462370D01*
X7502610Y-109427723D01*
X7396146Y-109356586D01*
X7305614Y-109266054D01*
X7234477Y-109159590D01*
X7185479Y-109041297D01*
X7160500Y-108915721D01*
X7160500Y-108787679D01*
X7185479Y-108662103D01*
X7234477Y-108543810D01*
X7305614Y-108437346D01*
X7396146Y-108346814D01*
X7502610Y-108275677D01*
X7590242Y-108239379D01*
X7620902Y-108226679D01*
X7682633Y-108214400D01*
X7746479Y-108201700D01*
X7874521Y-108201700D01*
X7938367Y-108214400D01*
X7938367Y-108214400D01*
G37*
G36*
X19134238Y-106999153D02*
X19176098Y-107007479D01*
X19202410Y-107018378D01*
X19294390Y-107056477D01*
X19400854Y-107127614D01*
X19491386Y-107218146D01*
X19562523Y-107324610D01*
X19611521Y-107442903D01*
X19636500Y-107568479D01*
X19636500Y-107696521D01*
X19611521Y-107822097D01*
X19562523Y-107940390D01*
X19491386Y-108046854D01*
X19400854Y-108137386D01*
X19294390Y-108208523D01*
X19219896Y-108239379D01*
X19176098Y-108257521D01*
X19134238Y-108265847D01*
X19050521Y-108282500D01*
X18922479Y-108282500D01*
X18838762Y-108265847D01*
X18796902Y-108257521D01*
X18753104Y-108239379D01*
X18678610Y-108208523D01*
X18572146Y-108137386D01*
X18481614Y-108046854D01*
X18410477Y-107940390D01*
X18361479Y-107822097D01*
X18336500Y-107696521D01*
X18336500Y-107568479D01*
X18361479Y-107442903D01*
X18410477Y-107324610D01*
X18481614Y-107218146D01*
X18572146Y-107127614D01*
X18678610Y-107056477D01*
X18770590Y-107018378D01*
X18796902Y-107007479D01*
X18838762Y-106999153D01*
X18922479Y-106982500D01*
X19050521Y-106982500D01*
X19134238Y-106999153D01*
X19134238Y-106999153D01*
G37*
G36*
X-7720733Y-106982500D02*
X-7659002Y-106994779D01*
X-7632690Y-107005678D01*
X-7540710Y-107043777D01*
X-7434246Y-107114914D01*
X-7343714Y-107205446D01*
X-7272577Y-107311910D01*
X-7223579Y-107430203D01*
X-7198600Y-107555779D01*
X-7198600Y-107683821D01*
X-7215253Y-107767538D01*
X-7218526Y-107783997D01*
X-7223579Y-107809397D01*
X-7272577Y-107927690D01*
X-7343714Y-108034154D01*
X-7434246Y-108124686D01*
X-7540710Y-108195823D01*
X-7615204Y-108226679D01*
X-7659002Y-108244821D01*
X-7697607Y-108252500D01*
X-7784579Y-108269800D01*
X-7912621Y-108269800D01*
X-7999593Y-108252500D01*
X-8038198Y-108244821D01*
X-8081996Y-108226679D01*
X-8156490Y-108195823D01*
X-8262954Y-108124686D01*
X-8353486Y-108034154D01*
X-8424623Y-107927690D01*
X-8473621Y-107809397D01*
X-8478673Y-107783997D01*
X-8481947Y-107767538D01*
X-8498600Y-107683821D01*
X-8498600Y-107555779D01*
X-8473621Y-107430203D01*
X-8424623Y-107311910D01*
X-8353486Y-107205446D01*
X-8262954Y-107114914D01*
X-8156490Y-107043777D01*
X-8064510Y-107005678D01*
X-8038198Y-106994779D01*
X-7976467Y-106982500D01*
X-7912621Y-106969800D01*
X-7784579Y-106969800D01*
X-7720733Y-106982500D01*
X-7720733Y-106982500D01*
G37*
G36*
X1214538Y-106961053D02*
X1256398Y-106969379D01*
X1288074Y-106982500D01*
X1374690Y-107018377D01*
X1481154Y-107089514D01*
X1571686Y-107180046D01*
X1642823Y-107286510D01*
X1658604Y-107324610D01*
X1691821Y-107404802D01*
X1699399Y-107442902D01*
X1716800Y-107530379D01*
X1716800Y-107658421D01*
X1691821Y-107783997D01*
X1642823Y-107902290D01*
X1571686Y-108008754D01*
X1481154Y-108099286D01*
X1374690Y-108170423D01*
X1313368Y-108195823D01*
X1256398Y-108219421D01*
X1219909Y-108226679D01*
X1130821Y-108244400D01*
X1002779Y-108244400D01*
X913691Y-108226679D01*
X877202Y-108219421D01*
X820232Y-108195823D01*
X758910Y-108170423D01*
X652446Y-108099286D01*
X561914Y-108008754D01*
X490777Y-107902290D01*
X441779Y-107783997D01*
X416800Y-107658421D01*
X416800Y-107530379D01*
X434201Y-107442902D01*
X441779Y-107404802D01*
X474996Y-107324610D01*
X490777Y-107286510D01*
X561914Y-107180046D01*
X652446Y-107089514D01*
X758910Y-107018377D01*
X845526Y-106982500D01*
X877202Y-106969379D01*
X919062Y-106961053D01*
X1002779Y-106944400D01*
X1130821Y-106944400D01*
X1214538Y-106961053D01*
X1214538Y-106961053D01*
G37*
G36*
X10478367Y-106944400D02*
X10540098Y-106956679D01*
X10570758Y-106969379D01*
X10658390Y-107005677D01*
X10764854Y-107076814D01*
X10855386Y-107167346D01*
X10926523Y-107273810D01*
X10975521Y-107392103D01*
X11000500Y-107517679D01*
X11000500Y-107645721D01*
X10975521Y-107771297D01*
X10926523Y-107889590D01*
X10855386Y-107996054D01*
X10764854Y-108086586D01*
X10658390Y-108157723D01*
X10574745Y-108192370D01*
X10540098Y-108206721D01*
X10501493Y-108214400D01*
X10414521Y-108231700D01*
X10286479Y-108231700D01*
X10199507Y-108214400D01*
X10160902Y-108206721D01*
X10126255Y-108192370D01*
X10042610Y-108157723D01*
X9936146Y-108086586D01*
X9845614Y-107996054D01*
X9774477Y-107889590D01*
X9725479Y-107771297D01*
X9700500Y-107645721D01*
X9700500Y-107517679D01*
X9725479Y-107392103D01*
X9774477Y-107273810D01*
X9845614Y-107167346D01*
X9936146Y-107076814D01*
X10042610Y-107005677D01*
X10130242Y-106969379D01*
X10160902Y-106956679D01*
X10222633Y-106944400D01*
X10286479Y-106931700D01*
X10414521Y-106931700D01*
X10478367Y-106944400D01*
X10478367Y-106944400D01*
G37*
G36*
X16594238Y-105729153D02*
X16636098Y-105737479D01*
X16662410Y-105748378D01*
X16754390Y-105786477D01*
X16860854Y-105857614D01*
X16951386Y-105948146D01*
X17022523Y-106054610D01*
X17071521Y-106172903D01*
X17096500Y-106298479D01*
X17096500Y-106426521D01*
X17071521Y-106552097D01*
X17022523Y-106670390D01*
X16951386Y-106776854D01*
X16860854Y-106867386D01*
X16754390Y-106938523D01*
X16679896Y-106969379D01*
X16636098Y-106987521D01*
X16599609Y-106994779D01*
X16510521Y-107012500D01*
X16382479Y-107012500D01*
X16293391Y-106994779D01*
X16256902Y-106987521D01*
X16213104Y-106969379D01*
X16138610Y-106938523D01*
X16032146Y-106867386D01*
X15941614Y-106776854D01*
X15870477Y-106670390D01*
X15821479Y-106552097D01*
X15796500Y-106426521D01*
X15796500Y-106298479D01*
X15821479Y-106172903D01*
X15870477Y-106054610D01*
X15941614Y-105948146D01*
X16032146Y-105857614D01*
X16138610Y-105786477D01*
X16230590Y-105748378D01*
X16256902Y-105737479D01*
X16298762Y-105729153D01*
X16382479Y-105712500D01*
X16510521Y-105712500D01*
X16594238Y-105729153D01*
X16594238Y-105729153D01*
G37*
G36*
X-10260733Y-105712500D02*
X-10199002Y-105724779D01*
X-10172690Y-105735678D01*
X-10080710Y-105773777D01*
X-9974246Y-105844914D01*
X-9883714Y-105935446D01*
X-9812577Y-106041910D01*
X-9763579Y-106160203D01*
X-9738600Y-106285779D01*
X-9738600Y-106413821D01*
X-9755253Y-106497538D01*
X-9758526Y-106513997D01*
X-9763579Y-106539397D01*
X-9812577Y-106657690D01*
X-9883714Y-106764154D01*
X-9974246Y-106854686D01*
X-10080710Y-106925823D01*
X-10155204Y-106956679D01*
X-10199002Y-106974821D01*
X-10237607Y-106982500D01*
X-10324579Y-106999800D01*
X-10452621Y-106999800D01*
X-10539593Y-106982500D01*
X-10578198Y-106974821D01*
X-10621996Y-106956679D01*
X-10696490Y-106925823D01*
X-10802954Y-106854686D01*
X-10893486Y-106764154D01*
X-10964623Y-106657690D01*
X-11013621Y-106539397D01*
X-11018673Y-106513997D01*
X-11021947Y-106497538D01*
X-11038600Y-106413821D01*
X-11038600Y-106285779D01*
X-11013621Y-106160203D01*
X-10964623Y-106041910D01*
X-10893486Y-105935446D01*
X-10802954Y-105844914D01*
X-10696490Y-105773777D01*
X-10604510Y-105735678D01*
X-10578198Y-105724779D01*
X-10516467Y-105712500D01*
X-10452621Y-105699800D01*
X-10324579Y-105699800D01*
X-10260733Y-105712500D01*
X-10260733Y-105712500D01*
G37*
G36*
X-1325462Y-105691053D02*
X-1283602Y-105699379D01*
X-1251926Y-105712500D01*
X-1165310Y-105748377D01*
X-1058846Y-105819514D01*
X-968314Y-105910046D01*
X-897177Y-106016510D01*
X-881396Y-106054610D01*
X-848179Y-106134802D01*
X-840601Y-106172902D01*
X-823200Y-106260379D01*
X-823200Y-106388421D01*
X-848179Y-106513997D01*
X-897177Y-106632290D01*
X-968314Y-106738754D01*
X-1058846Y-106829286D01*
X-1165310Y-106900423D01*
X-1226632Y-106925823D01*
X-1283602Y-106949421D01*
X-1320091Y-106956679D01*
X-1409179Y-106974400D01*
X-1537221Y-106974400D01*
X-1626309Y-106956679D01*
X-1662798Y-106949421D01*
X-1719768Y-106925823D01*
X-1781090Y-106900423D01*
X-1887554Y-106829286D01*
X-1978086Y-106738754D01*
X-2049223Y-106632290D01*
X-2098221Y-106513997D01*
X-2123200Y-106388421D01*
X-2123200Y-106260379D01*
X-2105799Y-106172902D01*
X-2098221Y-106134802D01*
X-2065004Y-106054610D01*
X-2049223Y-106016510D01*
X-1978086Y-105910046D01*
X-1887554Y-105819514D01*
X-1781090Y-105748377D01*
X-1694474Y-105712500D01*
X-1662798Y-105699379D01*
X-1620938Y-105691053D01*
X-1537221Y-105674400D01*
X-1409179Y-105674400D01*
X-1325462Y-105691053D01*
X-1325462Y-105691053D01*
G37*
G36*
X7938367Y-105674400D02*
X8000098Y-105686679D01*
X8030758Y-105699379D01*
X8118390Y-105735677D01*
X8224854Y-105806814D01*
X8315386Y-105897346D01*
X8386523Y-106003810D01*
X8435521Y-106122103D01*
X8460500Y-106247679D01*
X8460500Y-106375721D01*
X8435521Y-106501297D01*
X8386523Y-106619590D01*
X8315386Y-106726054D01*
X8224854Y-106816586D01*
X8118390Y-106887723D01*
X8034745Y-106922370D01*
X8000098Y-106936721D01*
X7961493Y-106944400D01*
X7874521Y-106961700D01*
X7746479Y-106961700D01*
X7659507Y-106944400D01*
X7620902Y-106936721D01*
X7586255Y-106922370D01*
X7502610Y-106887723D01*
X7396146Y-106816586D01*
X7305614Y-106726054D01*
X7234477Y-106619590D01*
X7185479Y-106501297D01*
X7160500Y-106375721D01*
X7160500Y-106247679D01*
X7185479Y-106122103D01*
X7234477Y-106003810D01*
X7305614Y-105897346D01*
X7396146Y-105806814D01*
X7502610Y-105735677D01*
X7590242Y-105699379D01*
X7620902Y-105686679D01*
X7682633Y-105674400D01*
X7746479Y-105661700D01*
X7874521Y-105661700D01*
X7938367Y-105674400D01*
X7938367Y-105674400D01*
G37*
G36*
X19134238Y-104459153D02*
X19176098Y-104467479D01*
X19202410Y-104478378D01*
X19294390Y-104516477D01*
X19400854Y-104587614D01*
X19491386Y-104678146D01*
X19562523Y-104784610D01*
X19611521Y-104902903D01*
X19636500Y-105028479D01*
X19636500Y-105156521D01*
X19611521Y-105282097D01*
X19562523Y-105400390D01*
X19491386Y-105506854D01*
X19400854Y-105597386D01*
X19294390Y-105668523D01*
X19219896Y-105699379D01*
X19176098Y-105717521D01*
X19139609Y-105724779D01*
X19050521Y-105742500D01*
X18922479Y-105742500D01*
X18833391Y-105724779D01*
X18796902Y-105717521D01*
X18753104Y-105699379D01*
X18678610Y-105668523D01*
X18572146Y-105597386D01*
X18481614Y-105506854D01*
X18410477Y-105400390D01*
X18361479Y-105282097D01*
X18336500Y-105156521D01*
X18336500Y-105028479D01*
X18361479Y-104902903D01*
X18410477Y-104784610D01*
X18481614Y-104678146D01*
X18572146Y-104587614D01*
X18678610Y-104516477D01*
X18770590Y-104478378D01*
X18796902Y-104467479D01*
X18838762Y-104459153D01*
X18922479Y-104442500D01*
X19050521Y-104442500D01*
X19134238Y-104459153D01*
X19134238Y-104459153D01*
G37*
G36*
X-7720733Y-104442500D02*
X-7659002Y-104454779D01*
X-7632690Y-104465678D01*
X-7540710Y-104503777D01*
X-7434246Y-104574914D01*
X-7343714Y-104665446D01*
X-7272577Y-104771910D01*
X-7223579Y-104890203D01*
X-7198600Y-105015779D01*
X-7198600Y-105143821D01*
X-7215253Y-105227538D01*
X-7218526Y-105243997D01*
X-7223579Y-105269397D01*
X-7272577Y-105387690D01*
X-7343714Y-105494154D01*
X-7434246Y-105584686D01*
X-7540710Y-105655823D01*
X-7615204Y-105686679D01*
X-7659002Y-105704821D01*
X-7697607Y-105712500D01*
X-7784579Y-105729800D01*
X-7912621Y-105729800D01*
X-7999593Y-105712500D01*
X-8038198Y-105704821D01*
X-8081996Y-105686679D01*
X-8156490Y-105655823D01*
X-8262954Y-105584686D01*
X-8353486Y-105494154D01*
X-8424623Y-105387690D01*
X-8473621Y-105269397D01*
X-8478673Y-105243997D01*
X-8481947Y-105227538D01*
X-8498600Y-105143821D01*
X-8498600Y-105015779D01*
X-8473621Y-104890203D01*
X-8424623Y-104771910D01*
X-8353486Y-104665446D01*
X-8262954Y-104574914D01*
X-8156490Y-104503777D01*
X-8064510Y-104465678D01*
X-8038198Y-104454779D01*
X-7976467Y-104442500D01*
X-7912621Y-104429800D01*
X-7784579Y-104429800D01*
X-7720733Y-104442500D01*
X-7720733Y-104442500D01*
G37*
G36*
X1214538Y-104421053D02*
X1256398Y-104429379D01*
X1288074Y-104442500D01*
X1374690Y-104478377D01*
X1481154Y-104549514D01*
X1571686Y-104640046D01*
X1642823Y-104746510D01*
X1658604Y-104784610D01*
X1691821Y-104864802D01*
X1699399Y-104902902D01*
X1716800Y-104990379D01*
X1716800Y-105118421D01*
X1691821Y-105243997D01*
X1642823Y-105362290D01*
X1571686Y-105468754D01*
X1481154Y-105559286D01*
X1374690Y-105630423D01*
X1313368Y-105655823D01*
X1256398Y-105679421D01*
X1219909Y-105686679D01*
X1130821Y-105704400D01*
X1002779Y-105704400D01*
X913691Y-105686679D01*
X877202Y-105679421D01*
X820232Y-105655823D01*
X758910Y-105630423D01*
X652446Y-105559286D01*
X561914Y-105468754D01*
X490777Y-105362290D01*
X441779Y-105243997D01*
X416800Y-105118421D01*
X416800Y-104990379D01*
X434201Y-104902902D01*
X441779Y-104864802D01*
X474996Y-104784610D01*
X490777Y-104746510D01*
X561914Y-104640046D01*
X652446Y-104549514D01*
X758910Y-104478377D01*
X845526Y-104442500D01*
X877202Y-104429379D01*
X919062Y-104421053D01*
X1002779Y-104404400D01*
X1130821Y-104404400D01*
X1214538Y-104421053D01*
X1214538Y-104421053D01*
G37*
G36*
X10478367Y-104404400D02*
X10540098Y-104416679D01*
X10570758Y-104429379D01*
X10658390Y-104465677D01*
X10764854Y-104536814D01*
X10855386Y-104627346D01*
X10926523Y-104733810D01*
X10975521Y-104852103D01*
X11000500Y-104977679D01*
X11000500Y-105105721D01*
X10975521Y-105231297D01*
X10926523Y-105349590D01*
X10855386Y-105456054D01*
X10764854Y-105546586D01*
X10658390Y-105617723D01*
X10574745Y-105652370D01*
X10540098Y-105666721D01*
X10501493Y-105674400D01*
X10414521Y-105691700D01*
X10286479Y-105691700D01*
X10199507Y-105674400D01*
X10160902Y-105666721D01*
X10126255Y-105652370D01*
X10042610Y-105617723D01*
X9936146Y-105546586D01*
X9845614Y-105456054D01*
X9774477Y-105349590D01*
X9725479Y-105231297D01*
X9700500Y-105105721D01*
X9700500Y-104977679D01*
X9725479Y-104852103D01*
X9774477Y-104733810D01*
X9845614Y-104627346D01*
X9936146Y-104536814D01*
X10042610Y-104465677D01*
X10130242Y-104429379D01*
X10160902Y-104416679D01*
X10222633Y-104404400D01*
X10286479Y-104391700D01*
X10414521Y-104391700D01*
X10478367Y-104404400D01*
X10478367Y-104404400D01*
G37*
G36*
X16594238Y-103189153D02*
X16636098Y-103197479D01*
X16662410Y-103208378D01*
X16754390Y-103246477D01*
X16860854Y-103317614D01*
X16951386Y-103408146D01*
X17022523Y-103514610D01*
X17071521Y-103632903D01*
X17096500Y-103758479D01*
X17096500Y-103886521D01*
X17071521Y-104012097D01*
X17022523Y-104130390D01*
X16951386Y-104236854D01*
X16860854Y-104327386D01*
X16754390Y-104398523D01*
X16679896Y-104429379D01*
X16636098Y-104447521D01*
X16599609Y-104454779D01*
X16510521Y-104472500D01*
X16382479Y-104472500D01*
X16293391Y-104454779D01*
X16256902Y-104447521D01*
X16213104Y-104429379D01*
X16138610Y-104398523D01*
X16032146Y-104327386D01*
X15941614Y-104236854D01*
X15870477Y-104130390D01*
X15821479Y-104012097D01*
X15796500Y-103886521D01*
X15796500Y-103758479D01*
X15821479Y-103632903D01*
X15870477Y-103514610D01*
X15941614Y-103408146D01*
X16032146Y-103317614D01*
X16138610Y-103246477D01*
X16230590Y-103208378D01*
X16256902Y-103197479D01*
X16298762Y-103189153D01*
X16382479Y-103172500D01*
X16510521Y-103172500D01*
X16594238Y-103189153D01*
X16594238Y-103189153D01*
G37*
G36*
X-10260733Y-103172500D02*
X-10199002Y-103184779D01*
X-10172690Y-103195678D01*
X-10080710Y-103233777D01*
X-9974246Y-103304914D01*
X-9883714Y-103395446D01*
X-9812577Y-103501910D01*
X-9763579Y-103620203D01*
X-9738600Y-103745779D01*
X-9738600Y-103873821D01*
X-9755253Y-103957538D01*
X-9758526Y-103973997D01*
X-9763579Y-103999397D01*
X-9812577Y-104117690D01*
X-9883714Y-104224154D01*
X-9974246Y-104314686D01*
X-10080710Y-104385823D01*
X-10155204Y-104416679D01*
X-10199002Y-104434821D01*
X-10237607Y-104442500D01*
X-10324579Y-104459800D01*
X-10452621Y-104459800D01*
X-10539593Y-104442500D01*
X-10578198Y-104434821D01*
X-10621996Y-104416679D01*
X-10696490Y-104385823D01*
X-10802954Y-104314686D01*
X-10893486Y-104224154D01*
X-10964623Y-104117690D01*
X-11013621Y-103999397D01*
X-11018673Y-103973997D01*
X-11021947Y-103957538D01*
X-11038600Y-103873821D01*
X-11038600Y-103745779D01*
X-11013621Y-103620203D01*
X-10964623Y-103501910D01*
X-10893486Y-103395446D01*
X-10802954Y-103304914D01*
X-10696490Y-103233777D01*
X-10604510Y-103195678D01*
X-10578198Y-103184779D01*
X-10516467Y-103172500D01*
X-10452621Y-103159800D01*
X-10324579Y-103159800D01*
X-10260733Y-103172500D01*
X-10260733Y-103172500D01*
G37*
G36*
X-1325462Y-103151053D02*
X-1283602Y-103159379D01*
X-1251926Y-103172500D01*
X-1165310Y-103208377D01*
X-1058846Y-103279514D01*
X-968314Y-103370046D01*
X-897177Y-103476510D01*
X-881396Y-103514610D01*
X-848179Y-103594802D01*
X-840601Y-103632902D01*
X-823200Y-103720379D01*
X-823200Y-103848421D01*
X-848179Y-103973997D01*
X-897177Y-104092290D01*
X-968314Y-104198754D01*
X-1058846Y-104289286D01*
X-1165310Y-104360423D01*
X-1226632Y-104385823D01*
X-1283602Y-104409421D01*
X-1320091Y-104416679D01*
X-1409179Y-104434400D01*
X-1537221Y-104434400D01*
X-1626309Y-104416679D01*
X-1662798Y-104409421D01*
X-1719768Y-104385823D01*
X-1781090Y-104360423D01*
X-1887554Y-104289286D01*
X-1978086Y-104198754D01*
X-2049223Y-104092290D01*
X-2098221Y-103973997D01*
X-2123200Y-103848421D01*
X-2123200Y-103720379D01*
X-2105799Y-103632902D01*
X-2098221Y-103594802D01*
X-2065004Y-103514610D01*
X-2049223Y-103476510D01*
X-1978086Y-103370046D01*
X-1887554Y-103279514D01*
X-1781090Y-103208377D01*
X-1694474Y-103172500D01*
X-1662798Y-103159379D01*
X-1620938Y-103151053D01*
X-1537221Y-103134400D01*
X-1409179Y-103134400D01*
X-1325462Y-103151053D01*
X-1325462Y-103151053D01*
G37*
G36*
X7938367Y-103134400D02*
X8000098Y-103146679D01*
X8030758Y-103159379D01*
X8118390Y-103195677D01*
X8224854Y-103266814D01*
X8315386Y-103357346D01*
X8386523Y-103463810D01*
X8435521Y-103582103D01*
X8460500Y-103707679D01*
X8460500Y-103835721D01*
X8435521Y-103961297D01*
X8386523Y-104079590D01*
X8315386Y-104186054D01*
X8224854Y-104276586D01*
X8118390Y-104347723D01*
X8034745Y-104382370D01*
X8000098Y-104396721D01*
X7961493Y-104404400D01*
X7874521Y-104421700D01*
X7746479Y-104421700D01*
X7659507Y-104404400D01*
X7620902Y-104396721D01*
X7586255Y-104382370D01*
X7502610Y-104347723D01*
X7396146Y-104276586D01*
X7305614Y-104186054D01*
X7234477Y-104079590D01*
X7185479Y-103961297D01*
X7160500Y-103835721D01*
X7160500Y-103707679D01*
X7185479Y-103582103D01*
X7234477Y-103463810D01*
X7305614Y-103357346D01*
X7396146Y-103266814D01*
X7502610Y-103195677D01*
X7590242Y-103159379D01*
X7620902Y-103146679D01*
X7682633Y-103134400D01*
X7746479Y-103121700D01*
X7874521Y-103121700D01*
X7938367Y-103134400D01*
X7938367Y-103134400D01*
G37*
G36*
X19134238Y-101919153D02*
X19176098Y-101927479D01*
X19202410Y-101938378D01*
X19294390Y-101976477D01*
X19400854Y-102047614D01*
X19491386Y-102138146D01*
X19562523Y-102244610D01*
X19611521Y-102362903D01*
X19636500Y-102488479D01*
X19636500Y-102616521D01*
X19611521Y-102742097D01*
X19562523Y-102860390D01*
X19491386Y-102966854D01*
X19400854Y-103057386D01*
X19294390Y-103128523D01*
X19219896Y-103159379D01*
X19176098Y-103177521D01*
X19139609Y-103184779D01*
X19050521Y-103202500D01*
X18922479Y-103202500D01*
X18833391Y-103184779D01*
X18796902Y-103177521D01*
X18753104Y-103159379D01*
X18678610Y-103128523D01*
X18572146Y-103057386D01*
X18481614Y-102966854D01*
X18410477Y-102860390D01*
X18361479Y-102742097D01*
X18336500Y-102616521D01*
X18336500Y-102488479D01*
X18361479Y-102362903D01*
X18410477Y-102244610D01*
X18481614Y-102138146D01*
X18572146Y-102047614D01*
X18678610Y-101976477D01*
X18770590Y-101938378D01*
X18796902Y-101927479D01*
X18838762Y-101919153D01*
X18922479Y-101902500D01*
X19050521Y-101902500D01*
X19134238Y-101919153D01*
X19134238Y-101919153D01*
G37*
G36*
X-7720733Y-101902500D02*
X-7659002Y-101914779D01*
X-7632690Y-101925678D01*
X-7540710Y-101963777D01*
X-7434246Y-102034914D01*
X-7343714Y-102125446D01*
X-7272577Y-102231910D01*
X-7223579Y-102350203D01*
X-7198600Y-102475779D01*
X-7198600Y-102603821D01*
X-7215253Y-102687538D01*
X-7218526Y-102703997D01*
X-7223579Y-102729397D01*
X-7272577Y-102847690D01*
X-7343714Y-102954154D01*
X-7434246Y-103044686D01*
X-7540710Y-103115823D01*
X-7615204Y-103146679D01*
X-7659002Y-103164821D01*
X-7697607Y-103172500D01*
X-7784579Y-103189800D01*
X-7912621Y-103189800D01*
X-7999593Y-103172500D01*
X-8038198Y-103164821D01*
X-8081996Y-103146679D01*
X-8156490Y-103115823D01*
X-8262954Y-103044686D01*
X-8353486Y-102954154D01*
X-8424623Y-102847690D01*
X-8473621Y-102729397D01*
X-8478673Y-102703997D01*
X-8481947Y-102687538D01*
X-8498600Y-102603821D01*
X-8498600Y-102475779D01*
X-8473621Y-102350203D01*
X-8424623Y-102231910D01*
X-8353486Y-102125446D01*
X-8262954Y-102034914D01*
X-8156490Y-101963777D01*
X-8064510Y-101925678D01*
X-8038198Y-101914779D01*
X-7976467Y-101902500D01*
X-7912621Y-101889800D01*
X-7784579Y-101889800D01*
X-7720733Y-101902500D01*
X-7720733Y-101902500D01*
G37*
G36*
X1214538Y-101881053D02*
X1256398Y-101889379D01*
X1288074Y-101902500D01*
X1374690Y-101938377D01*
X1481154Y-102009514D01*
X1571686Y-102100046D01*
X1642823Y-102206510D01*
X1658604Y-102244610D01*
X1691821Y-102324802D01*
X1699399Y-102362902D01*
X1716800Y-102450379D01*
X1716800Y-102578421D01*
X1691821Y-102703997D01*
X1642823Y-102822290D01*
X1571686Y-102928754D01*
X1481154Y-103019286D01*
X1374690Y-103090423D01*
X1313368Y-103115823D01*
X1256398Y-103139421D01*
X1219909Y-103146679D01*
X1130821Y-103164400D01*
X1002779Y-103164400D01*
X913691Y-103146679D01*
X877202Y-103139421D01*
X820232Y-103115823D01*
X758910Y-103090423D01*
X652446Y-103019286D01*
X561914Y-102928754D01*
X490777Y-102822290D01*
X441779Y-102703997D01*
X416800Y-102578421D01*
X416800Y-102450379D01*
X434201Y-102362902D01*
X441779Y-102324802D01*
X474996Y-102244610D01*
X490777Y-102206510D01*
X561914Y-102100046D01*
X652446Y-102009514D01*
X758910Y-101938377D01*
X845526Y-101902500D01*
X877202Y-101889379D01*
X919062Y-101881053D01*
X1002779Y-101864400D01*
X1130821Y-101864400D01*
X1214538Y-101881053D01*
X1214538Y-101881053D01*
G37*
G36*
X10478367Y-101864400D02*
X10540098Y-101876679D01*
X10570758Y-101889379D01*
X10658390Y-101925677D01*
X10764854Y-101996814D01*
X10855386Y-102087346D01*
X10926523Y-102193810D01*
X10975521Y-102312103D01*
X11000500Y-102437679D01*
X11000500Y-102565721D01*
X10975521Y-102691297D01*
X10926523Y-102809590D01*
X10855386Y-102916054D01*
X10764854Y-103006586D01*
X10658390Y-103077723D01*
X10574745Y-103112370D01*
X10540098Y-103126721D01*
X10501493Y-103134400D01*
X10414521Y-103151700D01*
X10286479Y-103151700D01*
X10199507Y-103134400D01*
X10160902Y-103126721D01*
X10126255Y-103112370D01*
X10042610Y-103077723D01*
X9936146Y-103006586D01*
X9845614Y-102916054D01*
X9774477Y-102809590D01*
X9725479Y-102691297D01*
X9700500Y-102565721D01*
X9700500Y-102437679D01*
X9725479Y-102312103D01*
X9774477Y-102193810D01*
X9845614Y-102087346D01*
X9936146Y-101996814D01*
X10042610Y-101925677D01*
X10130242Y-101889379D01*
X10160902Y-101876679D01*
X10222633Y-101864400D01*
X10286479Y-101851700D01*
X10414521Y-101851700D01*
X10478367Y-101864400D01*
X10478367Y-101864400D01*
G37*
G36*
X16594238Y-100649153D02*
X16636098Y-100657479D01*
X16662410Y-100668378D01*
X16754390Y-100706477D01*
X16860854Y-100777614D01*
X16951386Y-100868146D01*
X17022523Y-100974610D01*
X17071521Y-101092903D01*
X17096500Y-101218479D01*
X17096500Y-101346521D01*
X17071521Y-101472097D01*
X17022523Y-101590390D01*
X16951386Y-101696854D01*
X16860854Y-101787386D01*
X16754390Y-101858523D01*
X16679896Y-101889379D01*
X16636098Y-101907521D01*
X16599609Y-101914779D01*
X16510521Y-101932500D01*
X16382479Y-101932500D01*
X16293391Y-101914779D01*
X16256902Y-101907521D01*
X16213104Y-101889379D01*
X16138610Y-101858523D01*
X16032146Y-101787386D01*
X15941614Y-101696854D01*
X15870477Y-101590390D01*
X15821479Y-101472097D01*
X15796500Y-101346521D01*
X15796500Y-101218479D01*
X15821479Y-101092903D01*
X15870477Y-100974610D01*
X15941614Y-100868146D01*
X16032146Y-100777614D01*
X16138610Y-100706477D01*
X16230590Y-100668378D01*
X16256902Y-100657479D01*
X16298762Y-100649153D01*
X16382479Y-100632500D01*
X16510521Y-100632500D01*
X16594238Y-100649153D01*
X16594238Y-100649153D01*
G37*
G36*
X-10260733Y-100632500D02*
X-10199002Y-100644779D01*
X-10172690Y-100655678D01*
X-10080710Y-100693777D01*
X-9974246Y-100764914D01*
X-9883714Y-100855446D01*
X-9812577Y-100961910D01*
X-9763579Y-101080203D01*
X-9738600Y-101205779D01*
X-9738600Y-101333821D01*
X-9755253Y-101417538D01*
X-9758526Y-101433997D01*
X-9763579Y-101459397D01*
X-9812577Y-101577690D01*
X-9883714Y-101684154D01*
X-9974246Y-101774686D01*
X-10080710Y-101845823D01*
X-10155204Y-101876679D01*
X-10199002Y-101894821D01*
X-10237607Y-101902500D01*
X-10324579Y-101919800D01*
X-10452621Y-101919800D01*
X-10539593Y-101902500D01*
X-10578198Y-101894821D01*
X-10621996Y-101876679D01*
X-10696490Y-101845823D01*
X-10802954Y-101774686D01*
X-10893486Y-101684154D01*
X-10964623Y-101577690D01*
X-11013621Y-101459397D01*
X-11018673Y-101433997D01*
X-11021947Y-101417538D01*
X-11038600Y-101333821D01*
X-11038600Y-101205779D01*
X-11013621Y-101080203D01*
X-10964623Y-100961910D01*
X-10893486Y-100855446D01*
X-10802954Y-100764914D01*
X-10696490Y-100693777D01*
X-10604510Y-100655678D01*
X-10578198Y-100644779D01*
X-10516467Y-100632500D01*
X-10452621Y-100619800D01*
X-10324579Y-100619800D01*
X-10260733Y-100632500D01*
X-10260733Y-100632500D01*
G37*
G36*
X-1325462Y-100611053D02*
X-1283602Y-100619379D01*
X-1251926Y-100632500D01*
X-1165310Y-100668377D01*
X-1058846Y-100739514D01*
X-968314Y-100830046D01*
X-897177Y-100936510D01*
X-881396Y-100974610D01*
X-848179Y-101054802D01*
X-840601Y-101092902D01*
X-823200Y-101180379D01*
X-823200Y-101308421D01*
X-848179Y-101433997D01*
X-897177Y-101552290D01*
X-968314Y-101658754D01*
X-1058846Y-101749286D01*
X-1165310Y-101820423D01*
X-1226632Y-101845823D01*
X-1283602Y-101869421D01*
X-1320091Y-101876679D01*
X-1409179Y-101894400D01*
X-1537221Y-101894400D01*
X-1626309Y-101876679D01*
X-1662798Y-101869421D01*
X-1719768Y-101845823D01*
X-1781090Y-101820423D01*
X-1887554Y-101749286D01*
X-1978086Y-101658754D01*
X-2049223Y-101552290D01*
X-2098221Y-101433997D01*
X-2123200Y-101308421D01*
X-2123200Y-101180379D01*
X-2105799Y-101092902D01*
X-2098221Y-101054802D01*
X-2065004Y-100974610D01*
X-2049223Y-100936510D01*
X-1978086Y-100830046D01*
X-1887554Y-100739514D01*
X-1781090Y-100668377D01*
X-1694474Y-100632500D01*
X-1662798Y-100619379D01*
X-1620938Y-100611053D01*
X-1537221Y-100594400D01*
X-1409179Y-100594400D01*
X-1325462Y-100611053D01*
X-1325462Y-100611053D01*
G37*
G36*
X7938367Y-100594400D02*
X8000098Y-100606679D01*
X8030758Y-100619379D01*
X8118390Y-100655677D01*
X8224854Y-100726814D01*
X8315386Y-100817346D01*
X8386523Y-100923810D01*
X8435521Y-101042103D01*
X8460500Y-101167679D01*
X8460500Y-101295721D01*
X8435521Y-101421297D01*
X8386523Y-101539590D01*
X8315386Y-101646054D01*
X8224854Y-101736586D01*
X8118390Y-101807723D01*
X8034745Y-101842370D01*
X8000098Y-101856721D01*
X7961493Y-101864400D01*
X7874521Y-101881700D01*
X7746479Y-101881700D01*
X7659507Y-101864400D01*
X7620902Y-101856721D01*
X7586255Y-101842370D01*
X7502610Y-101807723D01*
X7396146Y-101736586D01*
X7305614Y-101646054D01*
X7234477Y-101539590D01*
X7185479Y-101421297D01*
X7160500Y-101295721D01*
X7160500Y-101167679D01*
X7185479Y-101042103D01*
X7234477Y-100923810D01*
X7305614Y-100817346D01*
X7396146Y-100726814D01*
X7502610Y-100655677D01*
X7590242Y-100619379D01*
X7620902Y-100606679D01*
X7682633Y-100594400D01*
X7746479Y-100581700D01*
X7874521Y-100581700D01*
X7938367Y-100594400D01*
X7938367Y-100594400D01*
G37*
G36*
X19134238Y-99379153D02*
X19176098Y-99387479D01*
X19202410Y-99398378D01*
X19294390Y-99436477D01*
X19400854Y-99507614D01*
X19491386Y-99598146D01*
X19562523Y-99704610D01*
X19611521Y-99822903D01*
X19636500Y-99948479D01*
X19636500Y-100076521D01*
X19611521Y-100202097D01*
X19562523Y-100320390D01*
X19491386Y-100426854D01*
X19400854Y-100517386D01*
X19294390Y-100588523D01*
X19219896Y-100619379D01*
X19176098Y-100637521D01*
X19139609Y-100644779D01*
X19050521Y-100662500D01*
X18922479Y-100662500D01*
X18833391Y-100644779D01*
X18796902Y-100637521D01*
X18753104Y-100619379D01*
X18678610Y-100588523D01*
X18572146Y-100517386D01*
X18481614Y-100426854D01*
X18410477Y-100320390D01*
X18361479Y-100202097D01*
X18336500Y-100076521D01*
X18336500Y-99948479D01*
X18361479Y-99822903D01*
X18410477Y-99704610D01*
X18481614Y-99598146D01*
X18572146Y-99507614D01*
X18678610Y-99436477D01*
X18770590Y-99398378D01*
X18796902Y-99387479D01*
X18838762Y-99379153D01*
X18922479Y-99362500D01*
X19050521Y-99362500D01*
X19134238Y-99379153D01*
X19134238Y-99379153D01*
G37*
G36*
X-7720733Y-99362500D02*
X-7659002Y-99374779D01*
X-7632690Y-99385678D01*
X-7540710Y-99423777D01*
X-7434246Y-99494914D01*
X-7343714Y-99585446D01*
X-7272577Y-99691910D01*
X-7223579Y-99810203D01*
X-7198600Y-99935779D01*
X-7198600Y-100063821D01*
X-7215253Y-100147538D01*
X-7218526Y-100163997D01*
X-7223579Y-100189397D01*
X-7272577Y-100307690D01*
X-7343714Y-100414154D01*
X-7434246Y-100504686D01*
X-7540710Y-100575823D01*
X-7615204Y-100606679D01*
X-7659002Y-100624821D01*
X-7697607Y-100632500D01*
X-7784579Y-100649800D01*
X-7912621Y-100649800D01*
X-7999593Y-100632500D01*
X-8038198Y-100624821D01*
X-8081996Y-100606679D01*
X-8156490Y-100575823D01*
X-8262954Y-100504686D01*
X-8353486Y-100414154D01*
X-8424623Y-100307690D01*
X-8473621Y-100189397D01*
X-8478673Y-100163997D01*
X-8481947Y-100147538D01*
X-8498600Y-100063821D01*
X-8498600Y-99935779D01*
X-8473621Y-99810203D01*
X-8424623Y-99691910D01*
X-8353486Y-99585446D01*
X-8262954Y-99494914D01*
X-8156490Y-99423777D01*
X-8064510Y-99385678D01*
X-8038198Y-99374779D01*
X-7976467Y-99362500D01*
X-7912621Y-99349800D01*
X-7784579Y-99349800D01*
X-7720733Y-99362500D01*
X-7720733Y-99362500D01*
G37*
G36*
X1214538Y-99341053D02*
X1256398Y-99349379D01*
X1288074Y-99362500D01*
X1374690Y-99398377D01*
X1481154Y-99469514D01*
X1571686Y-99560046D01*
X1642823Y-99666510D01*
X1658604Y-99704610D01*
X1691821Y-99784802D01*
X1699399Y-99822902D01*
X1716800Y-99910379D01*
X1716800Y-100038421D01*
X1691821Y-100163997D01*
X1642823Y-100282290D01*
X1571686Y-100388754D01*
X1481154Y-100479286D01*
X1374690Y-100550423D01*
X1313368Y-100575823D01*
X1256398Y-100599421D01*
X1219909Y-100606679D01*
X1130821Y-100624400D01*
X1002779Y-100624400D01*
X913691Y-100606679D01*
X877202Y-100599421D01*
X820232Y-100575823D01*
X758910Y-100550423D01*
X652446Y-100479286D01*
X561914Y-100388754D01*
X490777Y-100282290D01*
X441779Y-100163997D01*
X416800Y-100038421D01*
X416800Y-99910379D01*
X434201Y-99822902D01*
X441779Y-99784802D01*
X474996Y-99704610D01*
X490777Y-99666510D01*
X561914Y-99560046D01*
X652446Y-99469514D01*
X758910Y-99398377D01*
X845526Y-99362500D01*
X877202Y-99349379D01*
X919062Y-99341053D01*
X1002779Y-99324400D01*
X1130821Y-99324400D01*
X1214538Y-99341053D01*
X1214538Y-99341053D01*
G37*
G36*
X10478367Y-99324400D02*
X10540098Y-99336679D01*
X10570758Y-99349379D01*
X10658390Y-99385677D01*
X10764854Y-99456814D01*
X10855386Y-99547346D01*
X10926523Y-99653810D01*
X10975521Y-99772103D01*
X11000500Y-99897679D01*
X11000500Y-100025721D01*
X10975521Y-100151297D01*
X10926523Y-100269590D01*
X10855386Y-100376054D01*
X10764854Y-100466586D01*
X10658390Y-100537723D01*
X10574745Y-100572370D01*
X10540098Y-100586721D01*
X10501493Y-100594400D01*
X10414521Y-100611700D01*
X10286479Y-100611700D01*
X10199507Y-100594400D01*
X10160902Y-100586721D01*
X10126255Y-100572370D01*
X10042610Y-100537723D01*
X9936146Y-100466586D01*
X9845614Y-100376054D01*
X9774477Y-100269590D01*
X9725479Y-100151297D01*
X9700500Y-100025721D01*
X9700500Y-99897679D01*
X9725479Y-99772103D01*
X9774477Y-99653810D01*
X9845614Y-99547346D01*
X9936146Y-99456814D01*
X10042610Y-99385677D01*
X10130242Y-99349379D01*
X10160902Y-99336679D01*
X10222633Y-99324400D01*
X10286479Y-99311700D01*
X10414521Y-99311700D01*
X10478367Y-99324400D01*
X10478367Y-99324400D01*
G37*
G36*
X16594238Y-98109153D02*
X16636098Y-98117479D01*
X16662410Y-98128378D01*
X16754390Y-98166477D01*
X16860854Y-98237614D01*
X16951386Y-98328146D01*
X17022523Y-98434610D01*
X17071521Y-98552903D01*
X17096500Y-98678479D01*
X17096500Y-98806521D01*
X17071521Y-98932097D01*
X17022523Y-99050390D01*
X16951386Y-99156854D01*
X16860854Y-99247386D01*
X16754390Y-99318523D01*
X16679896Y-99349379D01*
X16636098Y-99367521D01*
X16599609Y-99374779D01*
X16510521Y-99392500D01*
X16382479Y-99392500D01*
X16293391Y-99374779D01*
X16256902Y-99367521D01*
X16213104Y-99349379D01*
X16138610Y-99318523D01*
X16032146Y-99247386D01*
X15941614Y-99156854D01*
X15870477Y-99050390D01*
X15821479Y-98932097D01*
X15796500Y-98806521D01*
X15796500Y-98678479D01*
X15821479Y-98552903D01*
X15870477Y-98434610D01*
X15941614Y-98328146D01*
X16032146Y-98237614D01*
X16138610Y-98166477D01*
X16230590Y-98128378D01*
X16256902Y-98117479D01*
X16298762Y-98109153D01*
X16382479Y-98092500D01*
X16510521Y-98092500D01*
X16594238Y-98109153D01*
X16594238Y-98109153D01*
G37*
G36*
X-10260733Y-98092500D02*
X-10199002Y-98104779D01*
X-10172690Y-98115678D01*
X-10080710Y-98153777D01*
X-9974246Y-98224914D01*
X-9883714Y-98315446D01*
X-9812577Y-98421910D01*
X-9763579Y-98540203D01*
X-9738600Y-98665779D01*
X-9738600Y-98793821D01*
X-9755253Y-98877538D01*
X-9758526Y-98893997D01*
X-9763579Y-98919397D01*
X-9812577Y-99037690D01*
X-9883714Y-99144154D01*
X-9974246Y-99234686D01*
X-10080710Y-99305823D01*
X-10155204Y-99336679D01*
X-10199002Y-99354821D01*
X-10237607Y-99362500D01*
X-10324579Y-99379800D01*
X-10452621Y-99379800D01*
X-10539593Y-99362500D01*
X-10578198Y-99354821D01*
X-10621996Y-99336679D01*
X-10696490Y-99305823D01*
X-10802954Y-99234686D01*
X-10893486Y-99144154D01*
X-10964623Y-99037690D01*
X-11013621Y-98919397D01*
X-11018673Y-98893997D01*
X-11021947Y-98877538D01*
X-11038600Y-98793821D01*
X-11038600Y-98665779D01*
X-11013621Y-98540203D01*
X-10964623Y-98421910D01*
X-10893486Y-98315446D01*
X-10802954Y-98224914D01*
X-10696490Y-98153777D01*
X-10604510Y-98115678D01*
X-10578198Y-98104779D01*
X-10516467Y-98092500D01*
X-10452621Y-98079800D01*
X-10324579Y-98079800D01*
X-10260733Y-98092500D01*
X-10260733Y-98092500D01*
G37*
G36*
X-1325462Y-98071053D02*
X-1283602Y-98079379D01*
X-1251926Y-98092500D01*
X-1165310Y-98128377D01*
X-1058846Y-98199514D01*
X-968314Y-98290046D01*
X-897177Y-98396510D01*
X-881396Y-98434610D01*
X-848179Y-98514802D01*
X-840601Y-98552902D01*
X-823200Y-98640379D01*
X-823200Y-98768421D01*
X-848179Y-98893997D01*
X-897177Y-99012290D01*
X-968314Y-99118754D01*
X-1058846Y-99209286D01*
X-1165310Y-99280423D01*
X-1226632Y-99305823D01*
X-1283602Y-99329421D01*
X-1320091Y-99336679D01*
X-1409179Y-99354400D01*
X-1537221Y-99354400D01*
X-1626309Y-99336679D01*
X-1662798Y-99329421D01*
X-1719768Y-99305823D01*
X-1781090Y-99280423D01*
X-1887554Y-99209286D01*
X-1978086Y-99118754D01*
X-2049223Y-99012290D01*
X-2098221Y-98893997D01*
X-2123200Y-98768421D01*
X-2123200Y-98640379D01*
X-2105799Y-98552902D01*
X-2098221Y-98514802D01*
X-2065004Y-98434610D01*
X-2049223Y-98396510D01*
X-1978086Y-98290046D01*
X-1887554Y-98199514D01*
X-1781090Y-98128377D01*
X-1694474Y-98092500D01*
X-1662798Y-98079379D01*
X-1620938Y-98071053D01*
X-1537221Y-98054400D01*
X-1409179Y-98054400D01*
X-1325462Y-98071053D01*
X-1325462Y-98071053D01*
G37*
G36*
X7938367Y-98054400D02*
X8000098Y-98066679D01*
X8030758Y-98079379D01*
X8118390Y-98115677D01*
X8224854Y-98186814D01*
X8315386Y-98277346D01*
X8386523Y-98383810D01*
X8435521Y-98502103D01*
X8460500Y-98627679D01*
X8460500Y-98755721D01*
X8435521Y-98881297D01*
X8386523Y-98999590D01*
X8315386Y-99106054D01*
X8224854Y-99196586D01*
X8118390Y-99267723D01*
X8034745Y-99302370D01*
X8000098Y-99316721D01*
X7961493Y-99324400D01*
X7874521Y-99341700D01*
X7746479Y-99341700D01*
X7659507Y-99324400D01*
X7620902Y-99316721D01*
X7586255Y-99302370D01*
X7502610Y-99267723D01*
X7396146Y-99196586D01*
X7305614Y-99106054D01*
X7234477Y-98999590D01*
X7185479Y-98881297D01*
X7160500Y-98755721D01*
X7160500Y-98627679D01*
X7185479Y-98502103D01*
X7234477Y-98383810D01*
X7305614Y-98277346D01*
X7396146Y-98186814D01*
X7502610Y-98115677D01*
X7590242Y-98079379D01*
X7620902Y-98066679D01*
X7682633Y-98054400D01*
X7746479Y-98041700D01*
X7874521Y-98041700D01*
X7938367Y-98054400D01*
X7938367Y-98054400D01*
G37*
G36*
X19134238Y-96839153D02*
X19176098Y-96847479D01*
X19202410Y-96858378D01*
X19294390Y-96896477D01*
X19400854Y-96967614D01*
X19491386Y-97058146D01*
X19562523Y-97164610D01*
X19611521Y-97282903D01*
X19636500Y-97408479D01*
X19636500Y-97536521D01*
X19611521Y-97662097D01*
X19562523Y-97780390D01*
X19491386Y-97886854D01*
X19400854Y-97977386D01*
X19294390Y-98048523D01*
X19219896Y-98079379D01*
X19176098Y-98097521D01*
X19139609Y-98104779D01*
X19050521Y-98122500D01*
X18922479Y-98122500D01*
X18833391Y-98104779D01*
X18796902Y-98097521D01*
X18753104Y-98079379D01*
X18678610Y-98048523D01*
X18572146Y-97977386D01*
X18481614Y-97886854D01*
X18410477Y-97780390D01*
X18361479Y-97662097D01*
X18336500Y-97536521D01*
X18336500Y-97408479D01*
X18361479Y-97282903D01*
X18410477Y-97164610D01*
X18481614Y-97058146D01*
X18572146Y-96967614D01*
X18678610Y-96896477D01*
X18770590Y-96858378D01*
X18796902Y-96847479D01*
X18838762Y-96839153D01*
X18922479Y-96822500D01*
X19050521Y-96822500D01*
X19134238Y-96839153D01*
X19134238Y-96839153D01*
G37*
G36*
X-7720733Y-96822500D02*
X-7659002Y-96834779D01*
X-7632690Y-96845678D01*
X-7540710Y-96883777D01*
X-7434246Y-96954914D01*
X-7343714Y-97045446D01*
X-7272577Y-97151910D01*
X-7223579Y-97270203D01*
X-7198600Y-97395779D01*
X-7198600Y-97523821D01*
X-7215253Y-97607538D01*
X-7218526Y-97623997D01*
X-7223579Y-97649397D01*
X-7272577Y-97767690D01*
X-7343714Y-97874154D01*
X-7434246Y-97964686D01*
X-7540710Y-98035823D01*
X-7615204Y-98066679D01*
X-7659002Y-98084821D01*
X-7697607Y-98092500D01*
X-7784579Y-98109800D01*
X-7912621Y-98109800D01*
X-7999593Y-98092500D01*
X-8038198Y-98084821D01*
X-8081996Y-98066679D01*
X-8156490Y-98035823D01*
X-8262954Y-97964686D01*
X-8353486Y-97874154D01*
X-8424623Y-97767690D01*
X-8473621Y-97649397D01*
X-8478673Y-97623997D01*
X-8481947Y-97607538D01*
X-8498600Y-97523821D01*
X-8498600Y-97395779D01*
X-8473621Y-97270203D01*
X-8424623Y-97151910D01*
X-8353486Y-97045446D01*
X-8262954Y-96954914D01*
X-8156490Y-96883777D01*
X-8064510Y-96845678D01*
X-8038198Y-96834779D01*
X-7976467Y-96822500D01*
X-7912621Y-96809800D01*
X-7784579Y-96809800D01*
X-7720733Y-96822500D01*
X-7720733Y-96822500D01*
G37*
G36*
X1214538Y-96801053D02*
X1256398Y-96809379D01*
X1288074Y-96822500D01*
X1374690Y-96858377D01*
X1481154Y-96929514D01*
X1571686Y-97020046D01*
X1642823Y-97126510D01*
X1658604Y-97164610D01*
X1691821Y-97244802D01*
X1699399Y-97282902D01*
X1716800Y-97370379D01*
X1716800Y-97498421D01*
X1691821Y-97623997D01*
X1642823Y-97742290D01*
X1571686Y-97848754D01*
X1481154Y-97939286D01*
X1374690Y-98010423D01*
X1313368Y-98035823D01*
X1256398Y-98059421D01*
X1219909Y-98066679D01*
X1130821Y-98084400D01*
X1002779Y-98084400D01*
X913691Y-98066679D01*
X877202Y-98059421D01*
X820232Y-98035823D01*
X758910Y-98010423D01*
X652446Y-97939286D01*
X561914Y-97848754D01*
X490777Y-97742290D01*
X441779Y-97623997D01*
X416800Y-97498421D01*
X416800Y-97370379D01*
X434201Y-97282902D01*
X441779Y-97244802D01*
X474996Y-97164610D01*
X490777Y-97126510D01*
X561914Y-97020046D01*
X652446Y-96929514D01*
X758910Y-96858377D01*
X845526Y-96822500D01*
X877202Y-96809379D01*
X919062Y-96801053D01*
X1002779Y-96784400D01*
X1130821Y-96784400D01*
X1214538Y-96801053D01*
X1214538Y-96801053D01*
G37*
G36*
X10478367Y-96784400D02*
X10540098Y-96796679D01*
X10570758Y-96809379D01*
X10658390Y-96845677D01*
X10764854Y-96916814D01*
X10855386Y-97007346D01*
X10926523Y-97113810D01*
X10975521Y-97232103D01*
X11000500Y-97357679D01*
X11000500Y-97485721D01*
X10975521Y-97611297D01*
X10926523Y-97729590D01*
X10855386Y-97836054D01*
X10764854Y-97926586D01*
X10658390Y-97997723D01*
X10574745Y-98032370D01*
X10540098Y-98046721D01*
X10501493Y-98054400D01*
X10414521Y-98071700D01*
X10286479Y-98071700D01*
X10199507Y-98054400D01*
X10160902Y-98046721D01*
X10126255Y-98032370D01*
X10042610Y-97997723D01*
X9936146Y-97926586D01*
X9845614Y-97836054D01*
X9774477Y-97729590D01*
X9725479Y-97611297D01*
X9700500Y-97485721D01*
X9700500Y-97357679D01*
X9725479Y-97232103D01*
X9774477Y-97113810D01*
X9845614Y-97007346D01*
X9936146Y-96916814D01*
X10042610Y-96845677D01*
X10130242Y-96809379D01*
X10160902Y-96796679D01*
X10222633Y-96784400D01*
X10286479Y-96771700D01*
X10414521Y-96771700D01*
X10478367Y-96784400D01*
X10478367Y-96784400D01*
G37*
G36*
X16581139Y-95566547D02*
X16636098Y-95577479D01*
X16662410Y-95588378D01*
X16754390Y-95626477D01*
X16860854Y-95697614D01*
X16951386Y-95788146D01*
X17022523Y-95894610D01*
X17071521Y-96012903D01*
X17096500Y-96138479D01*
X17096500Y-96266521D01*
X17071521Y-96392097D01*
X17022523Y-96510390D01*
X16951386Y-96616854D01*
X16860854Y-96707386D01*
X16754390Y-96778523D01*
X16679896Y-96809379D01*
X16636098Y-96827521D01*
X16599609Y-96834779D01*
X16510521Y-96852500D01*
X16382479Y-96852500D01*
X16293391Y-96834779D01*
X16256902Y-96827521D01*
X16213104Y-96809379D01*
X16138610Y-96778523D01*
X16032146Y-96707386D01*
X15941614Y-96616854D01*
X15870477Y-96510390D01*
X15821479Y-96392097D01*
X15796500Y-96266521D01*
X15796500Y-96138479D01*
X15821479Y-96012903D01*
X15870477Y-95894610D01*
X15941614Y-95788146D01*
X16032146Y-95697614D01*
X16138610Y-95626477D01*
X16230590Y-95588378D01*
X16256902Y-95577479D01*
X16311861Y-95566547D01*
X16382479Y-95552500D01*
X16510521Y-95552500D01*
X16581139Y-95566547D01*
X16581139Y-95566547D01*
G37*
G36*
X-10260733Y-95552500D02*
X-10199002Y-95564779D01*
X-10172690Y-95575678D01*
X-10080710Y-95613777D01*
X-9974246Y-95684914D01*
X-9883714Y-95775446D01*
X-9812577Y-95881910D01*
X-9763579Y-96000203D01*
X-9738600Y-96125779D01*
X-9738600Y-96253821D01*
X-9755253Y-96337538D01*
X-9758526Y-96353997D01*
X-9763579Y-96379397D01*
X-9812577Y-96497690D01*
X-9883714Y-96604154D01*
X-9974246Y-96694686D01*
X-10080710Y-96765823D01*
X-10155204Y-96796679D01*
X-10199002Y-96814821D01*
X-10237607Y-96822500D01*
X-10324579Y-96839800D01*
X-10452621Y-96839800D01*
X-10539593Y-96822500D01*
X-10578198Y-96814821D01*
X-10621996Y-96796679D01*
X-10696490Y-96765823D01*
X-10802954Y-96694686D01*
X-10893486Y-96604154D01*
X-10964623Y-96497690D01*
X-11013621Y-96379397D01*
X-11018673Y-96353997D01*
X-11021947Y-96337538D01*
X-11038600Y-96253821D01*
X-11038600Y-96125779D01*
X-11013621Y-96000203D01*
X-10964623Y-95881910D01*
X-10893486Y-95775446D01*
X-10802954Y-95684914D01*
X-10696490Y-95613777D01*
X-10604510Y-95575678D01*
X-10578198Y-95564779D01*
X-10516467Y-95552500D01*
X-10452621Y-95539800D01*
X-10324579Y-95539800D01*
X-10260733Y-95552500D01*
X-10260733Y-95552500D01*
G37*
G36*
X-1338561Y-95528447D02*
X-1283602Y-95539379D01*
X-1251926Y-95552500D01*
X-1165310Y-95588377D01*
X-1058846Y-95659514D01*
X-968314Y-95750046D01*
X-897177Y-95856510D01*
X-881396Y-95894610D01*
X-848179Y-95974802D01*
X-840601Y-96012902D01*
X-823200Y-96100379D01*
X-823200Y-96228421D01*
X-848179Y-96353997D01*
X-897177Y-96472290D01*
X-968314Y-96578754D01*
X-1058846Y-96669286D01*
X-1165310Y-96740423D01*
X-1226632Y-96765823D01*
X-1283602Y-96789421D01*
X-1320091Y-96796679D01*
X-1409179Y-96814400D01*
X-1537221Y-96814400D01*
X-1626309Y-96796679D01*
X-1662798Y-96789421D01*
X-1719768Y-96765823D01*
X-1781090Y-96740423D01*
X-1887554Y-96669286D01*
X-1978086Y-96578754D01*
X-2049223Y-96472290D01*
X-2098221Y-96353997D01*
X-2123200Y-96228421D01*
X-2123200Y-96100379D01*
X-2105799Y-96012902D01*
X-2098221Y-95974802D01*
X-2065004Y-95894610D01*
X-2049223Y-95856510D01*
X-1978086Y-95750046D01*
X-1887554Y-95659514D01*
X-1781090Y-95588377D01*
X-1694474Y-95552500D01*
X-1662798Y-95539379D01*
X-1607839Y-95528447D01*
X-1537221Y-95514400D01*
X-1409179Y-95514400D01*
X-1338561Y-95528447D01*
X-1338561Y-95528447D01*
G37*
G36*
X7938367Y-95514400D02*
X8000098Y-95526679D01*
X8030758Y-95539379D01*
X8118390Y-95575677D01*
X8224854Y-95646814D01*
X8315386Y-95737346D01*
X8386523Y-95843810D01*
X8435521Y-95962103D01*
X8460500Y-96087679D01*
X8460500Y-96215721D01*
X8435521Y-96341297D01*
X8386523Y-96459590D01*
X8315386Y-96566054D01*
X8224854Y-96656586D01*
X8118390Y-96727723D01*
X8034745Y-96762370D01*
X8000098Y-96776721D01*
X7961493Y-96784400D01*
X7874521Y-96801700D01*
X7746479Y-96801700D01*
X7659507Y-96784400D01*
X7620902Y-96776721D01*
X7586255Y-96762370D01*
X7502610Y-96727723D01*
X7396146Y-96656586D01*
X7305614Y-96566054D01*
X7234477Y-96459590D01*
X7185479Y-96341297D01*
X7160500Y-96215721D01*
X7160500Y-96087679D01*
X7185479Y-95962103D01*
X7234477Y-95843810D01*
X7305614Y-95737346D01*
X7396146Y-95646814D01*
X7502610Y-95575677D01*
X7590242Y-95539379D01*
X7620902Y-95526679D01*
X7682633Y-95514400D01*
X7746479Y-95501700D01*
X7874521Y-95501700D01*
X7938367Y-95514400D01*
X7938367Y-95514400D01*
G37*
G36*
X18422270Y-93817872D02*
X18538189Y-93840929D01*
X18720178Y-93916311D01*
X18883963Y-94025749D01*
X19023251Y-94165037D01*
X19132689Y-94328822D01*
X19208071Y-94510811D01*
X19231128Y-94626730D01*
X19243974Y-94691307D01*
X19246500Y-94704009D01*
X19246500Y-94900991D01*
X19208071Y-95094189D01*
X19132689Y-95276178D01*
X19023251Y-95439963D01*
X18883963Y-95579251D01*
X18720178Y-95688689D01*
X18538189Y-95764071D01*
X18422270Y-95787128D01*
X18344993Y-95802500D01*
X18148007Y-95802500D01*
X18070730Y-95787128D01*
X17954811Y-95764071D01*
X17772822Y-95688689D01*
X17609037Y-95579251D01*
X17469749Y-95439963D01*
X17360311Y-95276178D01*
X17284929Y-95094189D01*
X17246500Y-94900991D01*
X17246500Y-94704009D01*
X17249027Y-94691307D01*
X17261872Y-94626730D01*
X17284929Y-94510811D01*
X17360311Y-94328822D01*
X17469749Y-94165037D01*
X17609037Y-94025749D01*
X17772822Y-93916311D01*
X17954811Y-93840929D01*
X18070730Y-93817872D01*
X18148007Y-93802500D01*
X18344993Y-93802500D01*
X18422270Y-93817872D01*
X18422270Y-93817872D01*
G37*
G36*
X-8426261Y-93802500D02*
X-8296911Y-93828229D01*
X-8114922Y-93903611D01*
X-7951137Y-94013049D01*
X-7811849Y-94152337D01*
X-7702411Y-94316122D01*
X-7627029Y-94498111D01*
X-7603972Y-94614030D01*
X-7588600Y-94691307D01*
X-7588600Y-94888293D01*
X-7603972Y-94965570D01*
X-7627029Y-95081489D01*
X-7702411Y-95263478D01*
X-7811849Y-95427263D01*
X-7951137Y-95566551D01*
X-8114922Y-95675989D01*
X-8296911Y-95751371D01*
X-8412830Y-95774428D01*
X-8490107Y-95789800D01*
X-8687093Y-95789800D01*
X-8764370Y-95774428D01*
X-8880289Y-95751371D01*
X-9062278Y-95675989D01*
X-9226063Y-95566551D01*
X-9365351Y-95427263D01*
X-9474789Y-95263478D01*
X-9550171Y-95081489D01*
X-9573228Y-94965570D01*
X-9588600Y-94888293D01*
X-9588600Y-94691307D01*
X-9573228Y-94614030D01*
X-9550171Y-94498111D01*
X-9474789Y-94316122D01*
X-9365351Y-94152337D01*
X-9226063Y-94013049D01*
X-9062278Y-93903611D01*
X-8880289Y-93828229D01*
X-8750939Y-93802500D01*
X-8687093Y-93789800D01*
X-8490107Y-93789800D01*
X-8426261Y-93802500D01*
X-8426261Y-93802500D01*
G37*
G36*
X502570Y-93779772D02*
X618489Y-93802829D01*
X800478Y-93878211D01*
X964263Y-93987649D01*
X1103551Y-94126937D01*
X1212989Y-94290722D01*
X1288371Y-94472711D01*
X1295949Y-94510811D01*
X1326800Y-94665907D01*
X1326800Y-94862893D01*
X1319222Y-94900991D01*
X1288371Y-95056089D01*
X1212989Y-95238078D01*
X1103551Y-95401863D01*
X964263Y-95541151D01*
X800478Y-95650589D01*
X618489Y-95725971D01*
X502570Y-95749028D01*
X425293Y-95764400D01*
X228307Y-95764400D01*
X151030Y-95749028D01*
X35111Y-95725971D01*
X-146878Y-95650589D01*
X-310663Y-95541151D01*
X-449951Y-95401863D01*
X-559389Y-95238078D01*
X-634771Y-95056089D01*
X-665622Y-94900991D01*
X-673200Y-94862893D01*
X-673200Y-94665907D01*
X-642349Y-94510811D01*
X-634771Y-94472711D01*
X-559389Y-94290722D01*
X-449951Y-94126937D01*
X-310663Y-93987649D01*
X-146878Y-93878211D01*
X35111Y-93802829D01*
X151030Y-93779772D01*
X228307Y-93764400D01*
X425293Y-93764400D01*
X502570Y-93779772D01*
X502570Y-93779772D01*
G37*
G36*
X9772839Y-93764400D02*
X9902189Y-93790129D01*
X10084178Y-93865511D01*
X10247963Y-93974949D01*
X10387251Y-94114237D01*
X10496689Y-94278022D01*
X10572071Y-94460011D01*
X10582176Y-94510814D01*
X10610500Y-94653207D01*
X10610500Y-94850193D01*
X10600395Y-94900993D01*
X10572071Y-95043389D01*
X10496689Y-95225378D01*
X10387251Y-95389163D01*
X10247963Y-95528451D01*
X10084178Y-95637889D01*
X9902189Y-95713271D01*
X9786270Y-95736328D01*
X9708993Y-95751700D01*
X9512007Y-95751700D01*
X9434730Y-95736328D01*
X9318811Y-95713271D01*
X9136822Y-95637889D01*
X8973037Y-95528451D01*
X8833749Y-95389163D01*
X8724311Y-95225378D01*
X8648929Y-95043389D01*
X8620605Y-94900993D01*
X8610500Y-94850193D01*
X8610500Y-94653207D01*
X8638824Y-94510814D01*
X8648929Y-94460011D01*
X8724311Y-94278022D01*
X8833749Y-94114237D01*
X8973037Y-93974949D01*
X9136822Y-93865511D01*
X9318811Y-93790129D01*
X9448161Y-93764400D01*
X9512007Y-93751700D01*
X9708993Y-93751700D01*
X9772839Y-93764400D01*
X9772839Y-93764400D01*
G37*
M02*
