G04 #@! TF.GenerationSoftware,KiCad,Pcbnew,5.1.10*
G04 #@! TF.CreationDate,2022-03-08T21:35:18-05:00*
G04 #@! TF.ProjectId,throttle,7468726f-7474-46c6-952e-6b696361645f,Rev 2*
G04 #@! TF.SameCoordinates,Original*
G04 #@! TF.FileFunction,Legend,Bot*
G04 #@! TF.FilePolarity,Positive*
%FSLAX46Y46*%
G04 Gerber Fmt 4.6, Leading zero omitted, Abs format (unit mm)*
G04 Created by KiCad (PCBNEW 5.1.10) date 2022-03-08 21:35:18*
%MOMM*%
%LPD*%
G01*
G04 APERTURE LIST*
%ADD10C,0.150000*%
%ADD11C,0.010000*%
G04 APERTURE END LIST*
D10*
X205232000Y-98044000D02*
X191897000Y-98044000D01*
X191897000Y-98171000D02*
X191897000Y-98044000D01*
X191897000Y-98425000D02*
X191897000Y-98171000D01*
X191897000Y-106934000D02*
X191897000Y-98425000D01*
X196850000Y-106934000D02*
X191897000Y-106934000D01*
X205232000Y-106934000D02*
X196850000Y-106934000D01*
X205232000Y-98044000D02*
X205232000Y-106934000D01*
X203991595Y-98816000D02*
X204086833Y-98768380D01*
X204229690Y-98768380D01*
X204372547Y-98816000D01*
X204467785Y-98911238D01*
X204515404Y-99006476D01*
X204563023Y-99196952D01*
X204563023Y-99339809D01*
X204515404Y-99530285D01*
X204467785Y-99625523D01*
X204372547Y-99720761D01*
X204229690Y-99768380D01*
X204134452Y-99768380D01*
X203991595Y-99720761D01*
X203943976Y-99673142D01*
X203943976Y-99339809D01*
X204134452Y-99339809D01*
X203372547Y-99768380D02*
X203467785Y-99720761D01*
X203515404Y-99673142D01*
X203563023Y-99577904D01*
X203563023Y-99292190D01*
X203515404Y-99196952D01*
X203467785Y-99149333D01*
X203372547Y-99101714D01*
X203229690Y-99101714D01*
X203134452Y-99149333D01*
X203086833Y-99196952D01*
X203039214Y-99292190D01*
X203039214Y-99577904D01*
X203086833Y-99673142D01*
X203134452Y-99720761D01*
X203229690Y-99768380D01*
X203372547Y-99768380D01*
X201848738Y-99768380D02*
X201848738Y-98768380D01*
X201277309Y-99768380D02*
X201705880Y-99196952D01*
X201277309Y-98768380D02*
X201848738Y-99339809D01*
X200420166Y-99768380D02*
X200420166Y-99244571D01*
X200467785Y-99149333D01*
X200563023Y-99101714D01*
X200753500Y-99101714D01*
X200848738Y-99149333D01*
X200420166Y-99720761D02*
X200515404Y-99768380D01*
X200753500Y-99768380D01*
X200848738Y-99720761D01*
X200896357Y-99625523D01*
X200896357Y-99530285D01*
X200848738Y-99435047D01*
X200753500Y-99387428D01*
X200515404Y-99387428D01*
X200420166Y-99339809D01*
X199943976Y-99768380D02*
X199943976Y-99101714D01*
X199943976Y-99292190D02*
X199896357Y-99196952D01*
X199848738Y-99149333D01*
X199753500Y-99101714D01*
X199658261Y-99101714D01*
X199467785Y-99101714D02*
X199086833Y-99101714D01*
X199324928Y-98768380D02*
X199324928Y-99625523D01*
X199277309Y-99720761D01*
X199182071Y-99768380D01*
X199086833Y-99768380D01*
X198134452Y-98768380D02*
X197563023Y-98768380D01*
X197848738Y-99768380D02*
X197848738Y-98768380D01*
X197229690Y-99768380D02*
X197229690Y-98768380D01*
X196801119Y-99768380D02*
X196801119Y-99244571D01*
X196848738Y-99149333D01*
X196943976Y-99101714D01*
X197086833Y-99101714D01*
X197182071Y-99149333D01*
X197229690Y-99196952D01*
X196324928Y-99768380D02*
X196324928Y-99101714D01*
X196324928Y-99292190D02*
X196277309Y-99196952D01*
X196229690Y-99149333D01*
X196134452Y-99101714D01*
X196039214Y-99101714D01*
X195563023Y-99768380D02*
X195658261Y-99720761D01*
X195705880Y-99673142D01*
X195753500Y-99577904D01*
X195753500Y-99292190D01*
X195705880Y-99196952D01*
X195658261Y-99149333D01*
X195563023Y-99101714D01*
X195420166Y-99101714D01*
X195324928Y-99149333D01*
X195277309Y-99196952D01*
X195229690Y-99292190D01*
X195229690Y-99577904D01*
X195277309Y-99673142D01*
X195324928Y-99720761D01*
X195420166Y-99768380D01*
X195563023Y-99768380D01*
X194943976Y-99101714D02*
X194563023Y-99101714D01*
X194801119Y-98768380D02*
X194801119Y-99625523D01*
X194753500Y-99720761D01*
X194658261Y-99768380D01*
X194563023Y-99768380D01*
X194372547Y-99101714D02*
X193991595Y-99101714D01*
X194229690Y-98768380D02*
X194229690Y-99625523D01*
X194182071Y-99720761D01*
X194086833Y-99768380D01*
X193991595Y-99768380D01*
X193515404Y-99768380D02*
X193610642Y-99720761D01*
X193658261Y-99625523D01*
X193658261Y-98768380D01*
X192753500Y-99720761D02*
X192848738Y-99768380D01*
X193039214Y-99768380D01*
X193134452Y-99720761D01*
X193182071Y-99625523D01*
X193182071Y-99244571D01*
X193134452Y-99149333D01*
X193039214Y-99101714D01*
X192848738Y-99101714D01*
X192753500Y-99149333D01*
X192705880Y-99244571D01*
X192705880Y-99339809D01*
X193182071Y-99435047D01*
X204563023Y-101132666D02*
X204086833Y-101132666D01*
X204658261Y-101418380D02*
X204324928Y-100418380D01*
X203991595Y-101418380D01*
X203658261Y-101418380D02*
X203658261Y-100751714D01*
X203658261Y-100846952D02*
X203610642Y-100799333D01*
X203515404Y-100751714D01*
X203372547Y-100751714D01*
X203277309Y-100799333D01*
X203229690Y-100894571D01*
X203229690Y-101418380D01*
X203229690Y-100894571D02*
X203182071Y-100799333D01*
X203086833Y-100751714D01*
X202943976Y-100751714D01*
X202848738Y-100799333D01*
X202801119Y-100894571D01*
X202801119Y-101418380D01*
X202324928Y-101418380D02*
X202324928Y-100751714D01*
X202324928Y-100418380D02*
X202372547Y-100466000D01*
X202324928Y-100513619D01*
X202277309Y-100466000D01*
X202324928Y-100418380D01*
X202324928Y-100513619D01*
X201991595Y-100751714D02*
X201610642Y-100751714D01*
X201848738Y-100418380D02*
X201848738Y-101275523D01*
X201801119Y-101370761D01*
X201705880Y-101418380D01*
X201610642Y-101418380D01*
X200515404Y-101418380D02*
X200515404Y-100418380D01*
X199943976Y-101418380D02*
X200372547Y-100846952D01*
X199943976Y-100418380D02*
X200515404Y-100989809D01*
X199086833Y-100751714D02*
X199086833Y-101418380D01*
X199515404Y-100751714D02*
X199515404Y-101275523D01*
X199467785Y-101370761D01*
X199372547Y-101418380D01*
X199229690Y-101418380D01*
X199134452Y-101370761D01*
X199086833Y-101323142D01*
X198610642Y-101418380D02*
X198610642Y-100751714D01*
X198610642Y-100846952D02*
X198563023Y-100799333D01*
X198467785Y-100751714D01*
X198324928Y-100751714D01*
X198229690Y-100799333D01*
X198182071Y-100894571D01*
X198182071Y-101418380D01*
X198182071Y-100894571D02*
X198134452Y-100799333D01*
X198039214Y-100751714D01*
X197896357Y-100751714D01*
X197801119Y-100799333D01*
X197753500Y-100894571D01*
X197753500Y-101418380D01*
X196848738Y-101418380D02*
X196848738Y-100894571D01*
X196896357Y-100799333D01*
X196991595Y-100751714D01*
X197182071Y-100751714D01*
X197277309Y-100799333D01*
X196848738Y-101370761D02*
X196943976Y-101418380D01*
X197182071Y-101418380D01*
X197277309Y-101370761D01*
X197324928Y-101275523D01*
X197324928Y-101180285D01*
X197277309Y-101085047D01*
X197182071Y-101037428D01*
X196943976Y-101037428D01*
X196848738Y-100989809D01*
X196372547Y-101418380D02*
X196372547Y-100751714D01*
X196372547Y-100942190D02*
X196324928Y-100846952D01*
X196277309Y-100799333D01*
X196182071Y-100751714D01*
X196086833Y-100751714D01*
X204324928Y-102068380D02*
X204134452Y-102068380D01*
X204039214Y-102116000D01*
X203943976Y-102211238D01*
X203896357Y-102401714D01*
X203896357Y-102735047D01*
X203943976Y-102925523D01*
X204039214Y-103020761D01*
X204134452Y-103068380D01*
X204324928Y-103068380D01*
X204420166Y-103020761D01*
X204515404Y-102925523D01*
X204563023Y-102735047D01*
X204563023Y-102401714D01*
X204515404Y-102211238D01*
X204420166Y-102116000D01*
X204324928Y-102068380D01*
X203467785Y-102544571D02*
X203134452Y-102544571D01*
X202991595Y-103068380D02*
X203467785Y-103068380D01*
X203467785Y-102068380D01*
X202991595Y-102068380D01*
X202563023Y-103068380D02*
X202563023Y-102068380D01*
X202229690Y-102782666D01*
X201896357Y-102068380D01*
X201896357Y-103068380D01*
X204563023Y-103813619D02*
X204515404Y-103766000D01*
X204420166Y-103718380D01*
X204182071Y-103718380D01*
X204086833Y-103766000D01*
X204039214Y-103813619D01*
X203991595Y-103908857D01*
X203991595Y-104004095D01*
X204039214Y-104146952D01*
X204610642Y-104718380D01*
X203991595Y-104718380D01*
X203563023Y-104623142D02*
X203515404Y-104670761D01*
X203563023Y-104718380D01*
X203610642Y-104670761D01*
X203563023Y-104623142D01*
X203563023Y-104718380D01*
X203134452Y-103813619D02*
X203086833Y-103766000D01*
X202991595Y-103718380D01*
X202753500Y-103718380D01*
X202658261Y-103766000D01*
X202610642Y-103813619D01*
X202563023Y-103908857D01*
X202563023Y-104004095D01*
X202610642Y-104146952D01*
X203182071Y-104718380D01*
X202563023Y-104718380D01*
X201991595Y-104146952D02*
X202086833Y-104099333D01*
X202134452Y-104051714D01*
X202182071Y-103956476D01*
X202182071Y-103908857D01*
X202134452Y-103813619D01*
X202086833Y-103766000D01*
X201991595Y-103718380D01*
X201801119Y-103718380D01*
X201705880Y-103766000D01*
X201658261Y-103813619D01*
X201610642Y-103908857D01*
X201610642Y-103956476D01*
X201658261Y-104051714D01*
X201705880Y-104099333D01*
X201801119Y-104146952D01*
X201991595Y-104146952D01*
X202086833Y-104194571D01*
X202134452Y-104242190D01*
X202182071Y-104337428D01*
X202182071Y-104527904D01*
X202134452Y-104623142D01*
X202086833Y-104670761D01*
X201991595Y-104718380D01*
X201801119Y-104718380D01*
X201705880Y-104670761D01*
X201658261Y-104623142D01*
X201610642Y-104527904D01*
X201610642Y-104337428D01*
X201658261Y-104242190D01*
X201705880Y-104194571D01*
X201801119Y-104146952D01*
X201182071Y-104623142D02*
X201134452Y-104670761D01*
X201182071Y-104718380D01*
X201229690Y-104670761D01*
X201182071Y-104623142D01*
X201182071Y-104718380D01*
X200753500Y-103813619D02*
X200705880Y-103766000D01*
X200610642Y-103718380D01*
X200372547Y-103718380D01*
X200277309Y-103766000D01*
X200229690Y-103813619D01*
X200182071Y-103908857D01*
X200182071Y-104004095D01*
X200229690Y-104146952D01*
X200801119Y-104718380D01*
X200182071Y-104718380D01*
X199563023Y-103718380D02*
X199467785Y-103718380D01*
X199372547Y-103766000D01*
X199324928Y-103813619D01*
X199277309Y-103908857D01*
X199229690Y-104099333D01*
X199229690Y-104337428D01*
X199277309Y-104527904D01*
X199324928Y-104623142D01*
X199372547Y-104670761D01*
X199467785Y-104718380D01*
X199563023Y-104718380D01*
X199658261Y-104670761D01*
X199705880Y-104623142D01*
X199753500Y-104527904D01*
X199801119Y-104337428D01*
X199801119Y-104099333D01*
X199753500Y-103908857D01*
X199705880Y-103813619D01*
X199658261Y-103766000D01*
X199563023Y-103718380D01*
X198848738Y-103813619D02*
X198801119Y-103766000D01*
X198705880Y-103718380D01*
X198467785Y-103718380D01*
X198372547Y-103766000D01*
X198324928Y-103813619D01*
X198277309Y-103908857D01*
X198277309Y-104004095D01*
X198324928Y-104146952D01*
X198896357Y-104718380D01*
X198277309Y-104718380D01*
X197896357Y-103813619D02*
X197848738Y-103766000D01*
X197753500Y-103718380D01*
X197515404Y-103718380D01*
X197420166Y-103766000D01*
X197372547Y-103813619D01*
X197324928Y-103908857D01*
X197324928Y-104004095D01*
X197372547Y-104146952D01*
X197943976Y-104718380D01*
X197324928Y-104718380D01*
X203943976Y-106368380D02*
X204277309Y-105892190D01*
X204515404Y-106368380D02*
X204515404Y-105368380D01*
X204134452Y-105368380D01*
X204039214Y-105416000D01*
X203991595Y-105463619D01*
X203943976Y-105558857D01*
X203943976Y-105701714D01*
X203991595Y-105796952D01*
X204039214Y-105844571D01*
X204134452Y-105892190D01*
X204515404Y-105892190D01*
X203134452Y-106320761D02*
X203229690Y-106368380D01*
X203420166Y-106368380D01*
X203515404Y-106320761D01*
X203563023Y-106225523D01*
X203563023Y-105844571D01*
X203515404Y-105749333D01*
X203420166Y-105701714D01*
X203229690Y-105701714D01*
X203134452Y-105749333D01*
X203086833Y-105844571D01*
X203086833Y-105939809D01*
X203563023Y-106035047D01*
X202753500Y-105701714D02*
X202515404Y-106368380D01*
X202277309Y-105701714D01*
X200610642Y-106368380D02*
X201182071Y-106368380D01*
X200896357Y-106368380D02*
X200896357Y-105368380D01*
X200991595Y-105511238D01*
X201086833Y-105606476D01*
X201182071Y-105654095D01*
D11*
G36*
X182306268Y-106092434D02*
G01*
X181960491Y-106206567D01*
X181707191Y-106425587D01*
X181577836Y-106717944D01*
X181567667Y-106832888D01*
X181567667Y-107082167D01*
X182287333Y-107082167D01*
X182683430Y-107093817D01*
X182922924Y-107134879D01*
X183017329Y-107214513D01*
X182978161Y-107341884D01*
X182829548Y-107513619D01*
X182597996Y-107635388D01*
X182281919Y-107655831D01*
X181934058Y-107572776D01*
X181885167Y-107552477D01*
X181763856Y-107537626D01*
X181737000Y-107619462D01*
X181815680Y-107734292D01*
X182028107Y-107832056D01*
X182054500Y-107839715D01*
X182314626Y-107905632D01*
X182485504Y-107915717D01*
X182640124Y-107862636D01*
X182811097Y-107763714D01*
X183089345Y-107536392D01*
X183229488Y-107255659D01*
X183261000Y-106952266D01*
X183233316Y-106756622D01*
X183007000Y-106756622D01*
X182988339Y-106836863D01*
X182909339Y-106883969D01*
X182735475Y-106906435D01*
X182432224Y-106912753D01*
X182372000Y-106912833D01*
X182068450Y-106908137D01*
X181843910Y-106895714D01*
X181739767Y-106878065D01*
X181737000Y-106874484D01*
X181768381Y-106777683D01*
X181836182Y-106618454D01*
X181997529Y-106427576D01*
X182233485Y-106328774D01*
X182498223Y-106316639D01*
X182745917Y-106385764D01*
X182930739Y-106530741D01*
X183006864Y-106746161D01*
X183007000Y-106756622D01*
X183233316Y-106756622D01*
X183226925Y-106711462D01*
X183102207Y-106496235D01*
X182962303Y-106343202D01*
X182765969Y-106163698D01*
X182607056Y-106085171D01*
X182412968Y-106079871D01*
X182306268Y-106092434D01*
G37*
X182306268Y-106092434D02*
X181960491Y-106206567D01*
X181707191Y-106425587D01*
X181577836Y-106717944D01*
X181567667Y-106832888D01*
X181567667Y-107082167D01*
X182287333Y-107082167D01*
X182683430Y-107093817D01*
X182922924Y-107134879D01*
X183017329Y-107214513D01*
X182978161Y-107341884D01*
X182829548Y-107513619D01*
X182597996Y-107635388D01*
X182281919Y-107655831D01*
X181934058Y-107572776D01*
X181885167Y-107552477D01*
X181763856Y-107537626D01*
X181737000Y-107619462D01*
X181815680Y-107734292D01*
X182028107Y-107832056D01*
X182054500Y-107839715D01*
X182314626Y-107905632D01*
X182485504Y-107915717D01*
X182640124Y-107862636D01*
X182811097Y-107763714D01*
X183089345Y-107536392D01*
X183229488Y-107255659D01*
X183261000Y-106952266D01*
X183233316Y-106756622D01*
X183007000Y-106756622D01*
X182988339Y-106836863D01*
X182909339Y-106883969D01*
X182735475Y-106906435D01*
X182432224Y-106912753D01*
X182372000Y-106912833D01*
X182068450Y-106908137D01*
X181843910Y-106895714D01*
X181739767Y-106878065D01*
X181737000Y-106874484D01*
X181768381Y-106777683D01*
X181836182Y-106618454D01*
X181997529Y-106427576D01*
X182233485Y-106328774D01*
X182498223Y-106316639D01*
X182745917Y-106385764D01*
X182930739Y-106530741D01*
X183006864Y-106746161D01*
X183007000Y-106756622D01*
X183233316Y-106756622D01*
X183226925Y-106711462D01*
X183102207Y-106496235D01*
X182962303Y-106343202D01*
X182765969Y-106163698D01*
X182607056Y-106085171D01*
X182412968Y-106079871D01*
X182306268Y-106092434D01*
G36*
X179351538Y-106135688D02*
G01*
X179103661Y-106311253D01*
X178897323Y-106544249D01*
X178782776Y-106785744D01*
X178773667Y-106862033D01*
X178773667Y-107082167D01*
X179535667Y-107082167D01*
X179922186Y-107091609D01*
X180181344Y-107118477D01*
X180294284Y-107160579D01*
X180297667Y-107170682D01*
X180242598Y-107285611D01*
X180108180Y-107448340D01*
X180089849Y-107467015D01*
X179812472Y-107634531D01*
X179485651Y-107670431D01*
X179172376Y-107569721D01*
X179131172Y-107543032D01*
X178995319Y-107458674D01*
X178947838Y-107479557D01*
X178943000Y-107547352D01*
X179014868Y-107658065D01*
X179190582Y-107779642D01*
X179410309Y-107879564D01*
X179614212Y-107925310D01*
X179638781Y-107925519D01*
X179785648Y-107891327D01*
X180000023Y-107812237D01*
X180025669Y-107801274D01*
X180305636Y-107603525D01*
X180464364Y-107331879D01*
X180510552Y-107021020D01*
X180471327Y-106806448D01*
X180292505Y-106806448D01*
X180181612Y-106876450D01*
X179923912Y-106907819D01*
X179662667Y-106912833D01*
X179336488Y-106908242D01*
X179144999Y-106888808D01*
X179053675Y-106846038D01*
X179027992Y-106771437D01*
X179027667Y-106756622D01*
X179099692Y-106537672D01*
X179284875Y-106386201D01*
X179536876Y-106312814D01*
X179809357Y-106328117D01*
X180055978Y-106442717D01*
X180125035Y-106505465D01*
X180269382Y-106686543D01*
X180292505Y-106806448D01*
X180471327Y-106806448D01*
X180452897Y-106705637D01*
X180300095Y-106420416D01*
X180060845Y-106200044D01*
X179743842Y-106079208D01*
X179590700Y-106066483D01*
X179351538Y-106135688D01*
G37*
X179351538Y-106135688D02*
X179103661Y-106311253D01*
X178897323Y-106544249D01*
X178782776Y-106785744D01*
X178773667Y-106862033D01*
X178773667Y-107082167D01*
X179535667Y-107082167D01*
X179922186Y-107091609D01*
X180181344Y-107118477D01*
X180294284Y-107160579D01*
X180297667Y-107170682D01*
X180242598Y-107285611D01*
X180108180Y-107448340D01*
X180089849Y-107467015D01*
X179812472Y-107634531D01*
X179485651Y-107670431D01*
X179172376Y-107569721D01*
X179131172Y-107543032D01*
X178995319Y-107458674D01*
X178947838Y-107479557D01*
X178943000Y-107547352D01*
X179014868Y-107658065D01*
X179190582Y-107779642D01*
X179410309Y-107879564D01*
X179614212Y-107925310D01*
X179638781Y-107925519D01*
X179785648Y-107891327D01*
X180000023Y-107812237D01*
X180025669Y-107801274D01*
X180305636Y-107603525D01*
X180464364Y-107331879D01*
X180510552Y-107021020D01*
X180471327Y-106806448D01*
X180292505Y-106806448D01*
X180181612Y-106876450D01*
X179923912Y-106907819D01*
X179662667Y-106912833D01*
X179336488Y-106908242D01*
X179144999Y-106888808D01*
X179053675Y-106846038D01*
X179027992Y-106771437D01*
X179027667Y-106756622D01*
X179099692Y-106537672D01*
X179284875Y-106386201D01*
X179536876Y-106312814D01*
X179809357Y-106328117D01*
X180055978Y-106442717D01*
X180125035Y-106505465D01*
X180269382Y-106686543D01*
X180292505Y-106806448D01*
X180471327Y-106806448D01*
X180452897Y-106705637D01*
X180300095Y-106420416D01*
X180060845Y-106200044D01*
X179743842Y-106079208D01*
X179590700Y-106066483D01*
X179351538Y-106135688D01*
G36*
X177325528Y-106121603D02*
G01*
X177285521Y-106138380D01*
X177113314Y-106242877D01*
X177100121Y-106317315D01*
X177236774Y-106351354D01*
X177464895Y-106340687D01*
X177831527Y-106360598D01*
X178092850Y-106508194D01*
X178238287Y-106774685D01*
X178265667Y-107006113D01*
X178192769Y-107312094D01*
X178000952Y-107537538D01*
X177730530Y-107659515D01*
X177421818Y-107655093D01*
X177244101Y-107587188D01*
X177116415Y-107543352D01*
X177080411Y-107616969D01*
X177080333Y-107624524D01*
X177103306Y-107737808D01*
X177201237Y-107808619D01*
X177417648Y-107865485D01*
X177461333Y-107874244D01*
X177731989Y-107874301D01*
X177979637Y-107808188D01*
X178298957Y-107587309D01*
X178479542Y-107271145D01*
X178519667Y-106985157D01*
X178446281Y-106647058D01*
X178251745Y-106365286D01*
X177974488Y-106166207D01*
X177652939Y-106076190D01*
X177325528Y-106121603D01*
G37*
X177325528Y-106121603D02*
X177285521Y-106138380D01*
X177113314Y-106242877D01*
X177100121Y-106317315D01*
X177236774Y-106351354D01*
X177464895Y-106340687D01*
X177831527Y-106360598D01*
X178092850Y-106508194D01*
X178238287Y-106774685D01*
X178265667Y-107006113D01*
X178192769Y-107312094D01*
X178000952Y-107537538D01*
X177730530Y-107659515D01*
X177421818Y-107655093D01*
X177244101Y-107587188D01*
X177116415Y-107543352D01*
X177080411Y-107616969D01*
X177080333Y-107624524D01*
X177103306Y-107737808D01*
X177201237Y-107808619D01*
X177417648Y-107865485D01*
X177461333Y-107874244D01*
X177731989Y-107874301D01*
X177979637Y-107808188D01*
X178298957Y-107587309D01*
X178479542Y-107271145D01*
X178519667Y-106985157D01*
X178446281Y-106647058D01*
X178251745Y-106365286D01*
X177974488Y-106166207D01*
X177652939Y-106076190D01*
X177325528Y-106121603D01*
G36*
X172642258Y-106117558D02*
G01*
X172525496Y-106221636D01*
X172508333Y-106284775D01*
X172561485Y-106360998D01*
X172738204Y-106354469D01*
X172759219Y-106350423D01*
X173130753Y-106338426D01*
X173413454Y-106465116D01*
X173566923Y-106659329D01*
X173653248Y-106982063D01*
X173571673Y-107287373D01*
X173393533Y-107509070D01*
X173215782Y-107634475D01*
X173008882Y-107666597D01*
X172850363Y-107652155D01*
X172614474Y-107643923D01*
X172516271Y-107688318D01*
X172566997Y-107767861D01*
X172725512Y-107846262D01*
X172904328Y-107907692D01*
X173035623Y-107913997D01*
X173199999Y-107859905D01*
X173322971Y-107807174D01*
X173641082Y-107588662D01*
X173821017Y-107273009D01*
X173863000Y-106970194D01*
X173787344Y-106627559D01*
X173586383Y-106344552D01*
X173299124Y-106148419D01*
X172964578Y-106066407D01*
X172642258Y-106117558D01*
G37*
X172642258Y-106117558D02*
X172525496Y-106221636D01*
X172508333Y-106284775D01*
X172561485Y-106360998D01*
X172738204Y-106354469D01*
X172759219Y-106350423D01*
X173130753Y-106338426D01*
X173413454Y-106465116D01*
X173566923Y-106659329D01*
X173653248Y-106982063D01*
X173571673Y-107287373D01*
X173393533Y-107509070D01*
X173215782Y-107634475D01*
X173008882Y-107666597D01*
X172850363Y-107652155D01*
X172614474Y-107643923D01*
X172516271Y-107688318D01*
X172566997Y-107767861D01*
X172725512Y-107846262D01*
X172904328Y-107907692D01*
X173035623Y-107913997D01*
X173199999Y-107859905D01*
X173322971Y-107807174D01*
X173641082Y-107588662D01*
X173821017Y-107273009D01*
X173863000Y-106970194D01*
X173787344Y-106627559D01*
X173586383Y-106344552D01*
X173299124Y-106148419D01*
X172964578Y-106066407D01*
X172642258Y-106117558D01*
G36*
X181024760Y-105470896D02*
G01*
X180998321Y-105706991D01*
X180981394Y-106081984D01*
X180975024Y-106580735D01*
X180975000Y-106616500D01*
X180980660Y-107122654D01*
X180996942Y-107506016D01*
X181022804Y-107751451D01*
X181057200Y-107843821D01*
X181059667Y-107844167D01*
X181094574Y-107762104D01*
X181121013Y-107526008D01*
X181137939Y-107151016D01*
X181144310Y-106652264D01*
X181144333Y-106616500D01*
X181138674Y-106110346D01*
X181122392Y-105726983D01*
X181096530Y-105481548D01*
X181062133Y-105389179D01*
X181059667Y-105388833D01*
X181024760Y-105470896D01*
G37*
X181024760Y-105470896D02*
X180998321Y-105706991D01*
X180981394Y-106081984D01*
X180975024Y-106580735D01*
X180975000Y-106616500D01*
X180980660Y-107122654D01*
X180996942Y-107506016D01*
X181022804Y-107751451D01*
X181057200Y-107843821D01*
X181059667Y-107844167D01*
X181094574Y-107762104D01*
X181121013Y-107526008D01*
X181137939Y-107151016D01*
X181144310Y-106652264D01*
X181144333Y-106616500D01*
X181138674Y-106110346D01*
X181122392Y-105726983D01*
X181096530Y-105481548D01*
X181062133Y-105389179D01*
X181059667Y-105388833D01*
X181024760Y-105470896D01*
G36*
X176344507Y-105718561D02*
G01*
X176318333Y-105896833D01*
X176291723Y-106082753D01*
X176192712Y-106148213D01*
X176149000Y-106150833D01*
X176011420Y-106186289D01*
X175979667Y-106235500D01*
X176050579Y-106304290D01*
X176149000Y-106320167D01*
X176229452Y-106332899D01*
X176279444Y-106392582D01*
X176306137Y-106531446D01*
X176316694Y-106781719D01*
X176318333Y-107082167D01*
X176323283Y-107453916D01*
X176341346Y-107685474D01*
X176377345Y-107805778D01*
X176436104Y-107843765D01*
X176445333Y-107844167D01*
X176507292Y-107814471D01*
X176545885Y-107706094D01*
X176565935Y-107490097D01*
X176572267Y-107137541D01*
X176572333Y-107082167D01*
X176575163Y-106720132D01*
X176588426Y-106495169D01*
X176619285Y-106375050D01*
X176674901Y-106327546D01*
X176741667Y-106320167D01*
X176879247Y-106284710D01*
X176911000Y-106235500D01*
X176840088Y-106166710D01*
X176741667Y-106150833D01*
X176617720Y-106110917D01*
X176574080Y-105962400D01*
X176572333Y-105896833D01*
X176534469Y-105695181D01*
X176445333Y-105642833D01*
X176344507Y-105718561D01*
G37*
X176344507Y-105718561D02*
X176318333Y-105896833D01*
X176291723Y-106082753D01*
X176192712Y-106148213D01*
X176149000Y-106150833D01*
X176011420Y-106186289D01*
X175979667Y-106235500D01*
X176050579Y-106304290D01*
X176149000Y-106320167D01*
X176229452Y-106332899D01*
X176279444Y-106392582D01*
X176306137Y-106531446D01*
X176316694Y-106781719D01*
X176318333Y-107082167D01*
X176323283Y-107453916D01*
X176341346Y-107685474D01*
X176377345Y-107805778D01*
X176436104Y-107843765D01*
X176445333Y-107844167D01*
X176507292Y-107814471D01*
X176545885Y-107706094D01*
X176565935Y-107490097D01*
X176572267Y-107137541D01*
X176572333Y-107082167D01*
X176575163Y-106720132D01*
X176588426Y-106495169D01*
X176619285Y-106375050D01*
X176674901Y-106327546D01*
X176741667Y-106320167D01*
X176879247Y-106284710D01*
X176911000Y-106235500D01*
X176840088Y-106166710D01*
X176741667Y-106150833D01*
X176617720Y-106110917D01*
X176574080Y-105962400D01*
X176572333Y-105896833D01*
X176534469Y-105695181D01*
X176445333Y-105642833D01*
X176344507Y-105718561D01*
G36*
X174883814Y-106155012D02*
G01*
X174879000Y-106193167D01*
X174952438Y-106295409D01*
X175087688Y-106320167D01*
X175265200Y-106363350D01*
X175382517Y-106506882D01*
X175448338Y-106771737D01*
X175471363Y-107178887D01*
X175471667Y-107245934D01*
X175482759Y-107552081D01*
X175512531Y-107763873D01*
X175555723Y-107844153D01*
X175556333Y-107844167D01*
X175595665Y-107763671D01*
X175624102Y-107538450D01*
X175639203Y-107192897D01*
X175641000Y-106997500D01*
X175632951Y-106604180D01*
X175610428Y-106319816D01*
X175575873Y-106168805D01*
X175556333Y-106150833D01*
X175476276Y-106216869D01*
X175471667Y-106248622D01*
X175422759Y-106278890D01*
X175316833Y-106206289D01*
X175133633Y-106093187D01*
X174972325Y-106075586D01*
X174883814Y-106155012D01*
G37*
X174883814Y-106155012D02*
X174879000Y-106193167D01*
X174952438Y-106295409D01*
X175087688Y-106320167D01*
X175265200Y-106363350D01*
X175382517Y-106506882D01*
X175448338Y-106771737D01*
X175471363Y-107178887D01*
X175471667Y-107245934D01*
X175482759Y-107552081D01*
X175512531Y-107763873D01*
X175555723Y-107844153D01*
X175556333Y-107844167D01*
X175595665Y-107763671D01*
X175624102Y-107538450D01*
X175639203Y-107192897D01*
X175641000Y-106997500D01*
X175632951Y-106604180D01*
X175610428Y-106319816D01*
X175575873Y-106168805D01*
X175556333Y-106150833D01*
X175476276Y-106216869D01*
X175471667Y-106248622D01*
X175422759Y-106278890D01*
X175316833Y-106206289D01*
X175133633Y-106093187D01*
X174972325Y-106075586D01*
X174883814Y-106155012D01*
G36*
X174354111Y-106178811D02*
G01*
X174316089Y-106281314D01*
X174295089Y-106486193D01*
X174286935Y-106821301D01*
X174286333Y-106997500D01*
X174290530Y-107392318D01*
X174305906Y-107645800D01*
X174336638Y-107785796D01*
X174386904Y-107840160D01*
X174413333Y-107844167D01*
X174472556Y-107816188D01*
X174510578Y-107713685D01*
X174531578Y-107508806D01*
X174539732Y-107173699D01*
X174540333Y-106997500D01*
X174536137Y-106602682D01*
X174520761Y-106349200D01*
X174490029Y-106209203D01*
X174439763Y-106154840D01*
X174413333Y-106150833D01*
X174354111Y-106178811D01*
G37*
X174354111Y-106178811D02*
X174316089Y-106281314D01*
X174295089Y-106486193D01*
X174286935Y-106821301D01*
X174286333Y-106997500D01*
X174290530Y-107392318D01*
X174305906Y-107645800D01*
X174336638Y-107785796D01*
X174386904Y-107840160D01*
X174413333Y-107844167D01*
X174472556Y-107816188D01*
X174510578Y-107713685D01*
X174531578Y-107508806D01*
X174539732Y-107173699D01*
X174540333Y-106997500D01*
X174536137Y-106602682D01*
X174520761Y-106349200D01*
X174490029Y-106209203D01*
X174439763Y-106154840D01*
X174413333Y-106150833D01*
X174354111Y-106178811D01*
G36*
X174301027Y-105454045D02*
G01*
X174286333Y-105510836D01*
X174333205Y-105649419D01*
X174433233Y-105696524D01*
X174486191Y-105668754D01*
X174541223Y-105534150D01*
X174490620Y-105416501D01*
X174413333Y-105388833D01*
X174301027Y-105454045D01*
G37*
X174301027Y-105454045D02*
X174286333Y-105510836D01*
X174333205Y-105649419D01*
X174433233Y-105696524D01*
X174486191Y-105668754D01*
X174541223Y-105534150D01*
X174490620Y-105416501D01*
X174413333Y-105388833D01*
X174301027Y-105454045D01*
G36*
X181360187Y-101628408D02*
G01*
X180887972Y-101845996D01*
X180509455Y-102184477D01*
X180244400Y-102624081D01*
X180112573Y-103145035D01*
X180101520Y-103356833D01*
X180177867Y-103896742D01*
X180391977Y-104364249D01*
X180721452Y-104741931D01*
X181143895Y-105012363D01*
X181636908Y-105158122D01*
X182178095Y-105161784D01*
X182375740Y-105126043D01*
X182842536Y-104936367D01*
X183224322Y-104616239D01*
X183502315Y-104191055D01*
X183657732Y-103686208D01*
X183679284Y-103419342D01*
X182794176Y-103419342D01*
X182700483Y-103762087D01*
X182495007Y-104045302D01*
X182202996Y-104232104D01*
X181906333Y-104287534D01*
X181689321Y-104243410D01*
X181446773Y-104136081D01*
X181428229Y-104125069D01*
X181171506Y-103884375D01*
X181041894Y-103581649D01*
X181029028Y-103253723D01*
X181122543Y-102937429D01*
X181312073Y-102669600D01*
X181587254Y-102487067D01*
X181906333Y-102426133D01*
X182226377Y-102502151D01*
X182517608Y-102701005D01*
X182721112Y-102978896D01*
X182750838Y-103053947D01*
X182794176Y-103419342D01*
X183679284Y-103419342D01*
X183684333Y-103356833D01*
X183610566Y-102795354D01*
X183399879Y-102318824D01*
X183068192Y-101943412D01*
X182631430Y-101685283D01*
X182105512Y-101560605D01*
X181906333Y-101551485D01*
X181360187Y-101628408D01*
G37*
X181360187Y-101628408D02*
X180887972Y-101845996D01*
X180509455Y-102184477D01*
X180244400Y-102624081D01*
X180112573Y-103145035D01*
X180101520Y-103356833D01*
X180177867Y-103896742D01*
X180391977Y-104364249D01*
X180721452Y-104741931D01*
X181143895Y-105012363D01*
X181636908Y-105158122D01*
X182178095Y-105161784D01*
X182375740Y-105126043D01*
X182842536Y-104936367D01*
X183224322Y-104616239D01*
X183502315Y-104191055D01*
X183657732Y-103686208D01*
X183679284Y-103419342D01*
X182794176Y-103419342D01*
X182700483Y-103762087D01*
X182495007Y-104045302D01*
X182202996Y-104232104D01*
X181906333Y-104287534D01*
X181689321Y-104243410D01*
X181446773Y-104136081D01*
X181428229Y-104125069D01*
X181171506Y-103884375D01*
X181041894Y-103581649D01*
X181029028Y-103253723D01*
X181122543Y-102937429D01*
X181312073Y-102669600D01*
X181587254Y-102487067D01*
X181906333Y-102426133D01*
X182226377Y-102502151D01*
X182517608Y-102701005D01*
X182721112Y-102978896D01*
X182750838Y-103053947D01*
X182794176Y-103419342D01*
X183679284Y-103419342D01*
X183684333Y-103356833D01*
X183610566Y-102795354D01*
X183399879Y-102318824D01*
X183068192Y-101943412D01*
X182631430Y-101685283D01*
X182105512Y-101560605D01*
X181906333Y-101551485D01*
X181360187Y-101628408D01*
G36*
X178689000Y-104288167D02*
G01*
X177503667Y-104288167D01*
X177503667Y-105134833D01*
X179620333Y-105134833D01*
X179620333Y-101578833D01*
X178689000Y-101578833D01*
X178689000Y-104288167D01*
G37*
X178689000Y-104288167D02*
X177503667Y-104288167D01*
X177503667Y-105134833D01*
X179620333Y-105134833D01*
X179620333Y-101578833D01*
X178689000Y-101578833D01*
X178689000Y-104288167D01*
G36*
X176233667Y-105134833D02*
G01*
X177080333Y-105134833D01*
X177080333Y-101578833D01*
X176233667Y-101578833D01*
X176233667Y-105134833D01*
G37*
X176233667Y-105134833D02*
X177080333Y-105134833D01*
X177080333Y-101578833D01*
X176233667Y-101578833D01*
X176233667Y-105134833D01*
G36*
X172508333Y-105134833D02*
G01*
X173397333Y-105132027D01*
X173947667Y-104288167D01*
X174166765Y-103959810D01*
X174355643Y-103690882D01*
X174494042Y-103509280D01*
X174561500Y-103442903D01*
X174588151Y-103520968D01*
X174609295Y-103732585D01*
X174622245Y-104041994D01*
X174625000Y-104288167D01*
X174625000Y-105134833D01*
X175471667Y-105134833D01*
X175471667Y-103584682D01*
X175474395Y-103003805D01*
X175483677Y-102569507D01*
X175501157Y-102259106D01*
X175528479Y-102049921D01*
X175567288Y-101919267D01*
X175595974Y-101870182D01*
X175692563Y-101722117D01*
X175690410Y-101634703D01*
X175568171Y-101592399D01*
X175304506Y-101579663D01*
X175196500Y-101579283D01*
X174667333Y-101579733D01*
X173397333Y-103557239D01*
X173373480Y-102568036D01*
X173349626Y-101578833D01*
X172508333Y-101578833D01*
X172508333Y-105134833D01*
G37*
X172508333Y-105134833D02*
X173397333Y-105132027D01*
X173947667Y-104288167D01*
X174166765Y-103959810D01*
X174355643Y-103690882D01*
X174494042Y-103509280D01*
X174561500Y-103442903D01*
X174588151Y-103520968D01*
X174609295Y-103732585D01*
X174622245Y-104041994D01*
X174625000Y-104288167D01*
X174625000Y-105134833D01*
X175471667Y-105134833D01*
X175471667Y-103584682D01*
X175474395Y-103003805D01*
X175483677Y-102569507D01*
X175501157Y-102259106D01*
X175528479Y-102049921D01*
X175567288Y-101919267D01*
X175595974Y-101870182D01*
X175692563Y-101722117D01*
X175690410Y-101634703D01*
X175568171Y-101592399D01*
X175304506Y-101579663D01*
X175196500Y-101579283D01*
X174667333Y-101579733D01*
X173397333Y-103557239D01*
X173373480Y-102568036D01*
X173349626Y-101578833D01*
X172508333Y-101578833D01*
X172508333Y-105134833D01*
G36*
X169886401Y-96467877D02*
G01*
X169909895Y-96538004D01*
X169974894Y-96585488D01*
X170139551Y-96694147D01*
X170404135Y-96887240D01*
X170738302Y-97141020D01*
X171111709Y-97431736D01*
X171494012Y-97735642D01*
X171854868Y-98028989D01*
X172163933Y-98288028D01*
X172287664Y-98395582D01*
X172748263Y-98831621D01*
X173228426Y-99335578D01*
X173688745Y-99862607D01*
X174089815Y-100367860D01*
X174357818Y-100751576D01*
X174527090Y-101008449D01*
X174653281Y-101153684D01*
X174782949Y-101219301D01*
X174962654Y-101237324D01*
X175065664Y-101238409D01*
X175308483Y-101232037D01*
X175433419Y-101188542D01*
X175491851Y-101075575D01*
X175517713Y-100953820D01*
X175604313Y-100668138D01*
X175724652Y-100415523D01*
X175794877Y-100308528D01*
X175873218Y-100235108D01*
X175992377Y-100186417D01*
X176185060Y-100153612D01*
X176483968Y-100127848D01*
X176881269Y-100102740D01*
X177356510Y-100066468D01*
X177844927Y-100016720D01*
X178279228Y-99960938D01*
X178517905Y-99921737D01*
X178924908Y-99837843D01*
X179309464Y-99746821D01*
X179640124Y-99657525D01*
X179885436Y-99578811D01*
X180013951Y-99519532D01*
X180023026Y-99497970D01*
X179935101Y-99480293D01*
X179704588Y-99445657D01*
X179357027Y-99397297D01*
X178917957Y-99338449D01*
X178412914Y-99272348D01*
X177867439Y-99202229D01*
X177307068Y-99131327D01*
X176757340Y-99062876D01*
X176243794Y-99000113D01*
X175791968Y-98946273D01*
X175427401Y-98904590D01*
X175175630Y-98878299D01*
X175069500Y-98870472D01*
X174975810Y-98937723D01*
X174963667Y-98996500D01*
X174904381Y-99100440D01*
X174737426Y-99096971D01*
X174479161Y-98993970D01*
X174145941Y-98799319D01*
X173754122Y-98520896D01*
X173422304Y-98253979D01*
X173138724Y-97985276D01*
X172991237Y-97753098D01*
X172965315Y-97516597D01*
X173046428Y-97234928D01*
X173053618Y-97217525D01*
X173128572Y-97008728D01*
X173153840Y-96874686D01*
X173148325Y-96856603D01*
X173052409Y-96831073D01*
X172821227Y-96792381D01*
X172486566Y-96744316D01*
X172080217Y-96690665D01*
X171633967Y-96635218D01*
X171179607Y-96581763D01*
X170748924Y-96534087D01*
X170373708Y-96495980D01*
X170085747Y-96471229D01*
X169916831Y-96463622D01*
X169886401Y-96467877D01*
G37*
X169886401Y-96467877D02*
X169909895Y-96538004D01*
X169974894Y-96585488D01*
X170139551Y-96694147D01*
X170404135Y-96887240D01*
X170738302Y-97141020D01*
X171111709Y-97431736D01*
X171494012Y-97735642D01*
X171854868Y-98028989D01*
X172163933Y-98288028D01*
X172287664Y-98395582D01*
X172748263Y-98831621D01*
X173228426Y-99335578D01*
X173688745Y-99862607D01*
X174089815Y-100367860D01*
X174357818Y-100751576D01*
X174527090Y-101008449D01*
X174653281Y-101153684D01*
X174782949Y-101219301D01*
X174962654Y-101237324D01*
X175065664Y-101238409D01*
X175308483Y-101232037D01*
X175433419Y-101188542D01*
X175491851Y-101075575D01*
X175517713Y-100953820D01*
X175604313Y-100668138D01*
X175724652Y-100415523D01*
X175794877Y-100308528D01*
X175873218Y-100235108D01*
X175992377Y-100186417D01*
X176185060Y-100153612D01*
X176483968Y-100127848D01*
X176881269Y-100102740D01*
X177356510Y-100066468D01*
X177844927Y-100016720D01*
X178279228Y-99960938D01*
X178517905Y-99921737D01*
X178924908Y-99837843D01*
X179309464Y-99746821D01*
X179640124Y-99657525D01*
X179885436Y-99578811D01*
X180013951Y-99519532D01*
X180023026Y-99497970D01*
X179935101Y-99480293D01*
X179704588Y-99445657D01*
X179357027Y-99397297D01*
X178917957Y-99338449D01*
X178412914Y-99272348D01*
X177867439Y-99202229D01*
X177307068Y-99131327D01*
X176757340Y-99062876D01*
X176243794Y-99000113D01*
X175791968Y-98946273D01*
X175427401Y-98904590D01*
X175175630Y-98878299D01*
X175069500Y-98870472D01*
X174975810Y-98937723D01*
X174963667Y-98996500D01*
X174904381Y-99100440D01*
X174737426Y-99096971D01*
X174479161Y-98993970D01*
X174145941Y-98799319D01*
X173754122Y-98520896D01*
X173422304Y-98253979D01*
X173138724Y-97985276D01*
X172991237Y-97753098D01*
X172965315Y-97516597D01*
X173046428Y-97234928D01*
X173053618Y-97217525D01*
X173128572Y-97008728D01*
X173153840Y-96874686D01*
X173148325Y-96856603D01*
X173052409Y-96831073D01*
X172821227Y-96792381D01*
X172486566Y-96744316D01*
X172080217Y-96690665D01*
X171633967Y-96635218D01*
X171179607Y-96581763D01*
X170748924Y-96534087D01*
X170373708Y-96495980D01*
X170085747Y-96471229D01*
X169916831Y-96463622D01*
X169886401Y-96467877D01*
G36*
X175690198Y-97145413D02*
G01*
X175607861Y-97250566D01*
X175511580Y-97462368D01*
X175424121Y-97682428D01*
X175317588Y-97972395D01*
X175248703Y-98196723D01*
X175229948Y-98313782D01*
X175232872Y-98320261D01*
X175331329Y-98346506D01*
X175573705Y-98386756D01*
X175935424Y-98438192D01*
X176391910Y-98498000D01*
X176918587Y-98563362D01*
X177490878Y-98631461D01*
X178084207Y-98699482D01*
X178673998Y-98764607D01*
X179235675Y-98824021D01*
X179744661Y-98874905D01*
X180176380Y-98914445D01*
X180506255Y-98939823D01*
X180709711Y-98948222D01*
X180712029Y-98948201D01*
X181060355Y-98927083D01*
X181389647Y-98878476D01*
X181582597Y-98827792D01*
X181824193Y-98720187D01*
X182105339Y-98567675D01*
X182386520Y-98395568D01*
X182628219Y-98229176D01*
X182790919Y-98093812D01*
X182837667Y-98023885D01*
X182768916Y-97948297D01*
X182707909Y-97938167D01*
X182594876Y-97928365D01*
X182336160Y-97900734D01*
X181954169Y-97857935D01*
X181471310Y-97802630D01*
X180909990Y-97737479D01*
X180292616Y-97665143D01*
X179641594Y-97588284D01*
X178979333Y-97509564D01*
X178328238Y-97431642D01*
X177710716Y-97357181D01*
X177149175Y-97288842D01*
X176666022Y-97229285D01*
X176283663Y-97181173D01*
X176024506Y-97147165D01*
X175924538Y-97132529D01*
X175786466Y-97116277D01*
X175690198Y-97145413D01*
G37*
X175690198Y-97145413D02*
X175607861Y-97250566D01*
X175511580Y-97462368D01*
X175424121Y-97682428D01*
X175317588Y-97972395D01*
X175248703Y-98196723D01*
X175229948Y-98313782D01*
X175232872Y-98320261D01*
X175331329Y-98346506D01*
X175573705Y-98386756D01*
X175935424Y-98438192D01*
X176391910Y-98498000D01*
X176918587Y-98563362D01*
X177490878Y-98631461D01*
X178084207Y-98699482D01*
X178673998Y-98764607D01*
X179235675Y-98824021D01*
X179744661Y-98874905D01*
X180176380Y-98914445D01*
X180506255Y-98939823D01*
X180709711Y-98948222D01*
X180712029Y-98948201D01*
X181060355Y-98927083D01*
X181389647Y-98878476D01*
X181582597Y-98827792D01*
X181824193Y-98720187D01*
X182105339Y-98567675D01*
X182386520Y-98395568D01*
X182628219Y-98229176D01*
X182790919Y-98093812D01*
X182837667Y-98023885D01*
X182768916Y-97948297D01*
X182707909Y-97938167D01*
X182594876Y-97928365D01*
X182336160Y-97900734D01*
X181954169Y-97857935D01*
X181471310Y-97802630D01*
X180909990Y-97737479D01*
X180292616Y-97665143D01*
X179641594Y-97588284D01*
X178979333Y-97509564D01*
X178328238Y-97431642D01*
X177710716Y-97357181D01*
X177149175Y-97288842D01*
X176666022Y-97229285D01*
X176283663Y-97181173D01*
X176024506Y-97147165D01*
X175924538Y-97132529D01*
X175786466Y-97116277D01*
X175690198Y-97145413D01*
G36*
X177161286Y-95064152D02*
G01*
X177131109Y-95072259D01*
X176999082Y-95178147D01*
X176805374Y-95385619D01*
X176581761Y-95655052D01*
X176360022Y-95946821D01*
X176171932Y-96221304D01*
X176070894Y-96394256D01*
X176015122Y-96547110D01*
X176066400Y-96616295D01*
X176081849Y-96621985D01*
X176193939Y-96641395D01*
X176451978Y-96677063D01*
X176833640Y-96726365D01*
X177316598Y-96786678D01*
X177878524Y-96855377D01*
X178497091Y-96929840D01*
X179149972Y-97007441D01*
X179814839Y-97085558D01*
X180469365Y-97161567D01*
X181091224Y-97232843D01*
X181658086Y-97296764D01*
X182147626Y-97350704D01*
X182537516Y-97392042D01*
X182805429Y-97418152D01*
X182927546Y-97426450D01*
X183146914Y-97395149D01*
X183410812Y-97323494D01*
X183442847Y-97312402D01*
X183717295Y-97187740D01*
X183963692Y-97035115D01*
X183976442Y-97025283D01*
X184128678Y-96884420D01*
X184318804Y-96680111D01*
X184516942Y-96448734D01*
X184693217Y-96226668D01*
X184817751Y-96050293D01*
X184860667Y-95955988D01*
X184858416Y-95951360D01*
X184770454Y-95934724D01*
X184531419Y-95899811D01*
X184158327Y-95848851D01*
X183668192Y-95784070D01*
X183078029Y-95707700D01*
X182404853Y-95621968D01*
X181665680Y-95529102D01*
X181067760Y-95454819D01*
X180068333Y-95332928D01*
X179228839Y-95234309D01*
X178541590Y-95158215D01*
X177998898Y-95103900D01*
X177593075Y-95070615D01*
X177316434Y-95057615D01*
X177161286Y-95064152D01*
G37*
X177161286Y-95064152D02*
X177131109Y-95072259D01*
X176999082Y-95178147D01*
X176805374Y-95385619D01*
X176581761Y-95655052D01*
X176360022Y-95946821D01*
X176171932Y-96221304D01*
X176070894Y-96394256D01*
X176015122Y-96547110D01*
X176066400Y-96616295D01*
X176081849Y-96621985D01*
X176193939Y-96641395D01*
X176451978Y-96677063D01*
X176833640Y-96726365D01*
X177316598Y-96786678D01*
X177878524Y-96855377D01*
X178497091Y-96929840D01*
X179149972Y-97007441D01*
X179814839Y-97085558D01*
X180469365Y-97161567D01*
X181091224Y-97232843D01*
X181658086Y-97296764D01*
X182147626Y-97350704D01*
X182537516Y-97392042D01*
X182805429Y-97418152D01*
X182927546Y-97426450D01*
X183146914Y-97395149D01*
X183410812Y-97323494D01*
X183442847Y-97312402D01*
X183717295Y-97187740D01*
X183963692Y-97035115D01*
X183976442Y-97025283D01*
X184128678Y-96884420D01*
X184318804Y-96680111D01*
X184516942Y-96448734D01*
X184693217Y-96226668D01*
X184817751Y-96050293D01*
X184860667Y-95955988D01*
X184858416Y-95951360D01*
X184770454Y-95934724D01*
X184531419Y-95899811D01*
X184158327Y-95848851D01*
X183668192Y-95784070D01*
X183078029Y-95707700D01*
X182404853Y-95621968D01*
X181665680Y-95529102D01*
X181067760Y-95454819D01*
X180068333Y-95332928D01*
X179228839Y-95234309D01*
X178541590Y-95158215D01*
X177998898Y-95103900D01*
X177593075Y-95070615D01*
X177316434Y-95057615D01*
X177161286Y-95064152D01*
M02*
