G04 #@! TF.GenerationSoftware,KiCad,Pcbnew,5.1.4-e60b266~84~ubuntu18.04.1*
G04 #@! TF.CreationDate,2019-12-14T18:52:15-05:00*
G04 #@! TF.ProjectId,dashboard_MKV_ewan,64617368-626f-4617-9264-5f4d4b565f65,rev?*
G04 #@! TF.SameCoordinates,Original*
G04 #@! TF.FileFunction,Legend,Bot*
G04 #@! TF.FilePolarity,Positive*
%FSLAX46Y46*%
G04 Gerber Fmt 4.6, Leading zero omitted, Abs format (unit mm)*
G04 Created by KiCad (PCBNEW 5.1.4-e60b266~84~ubuntu18.04.1) date 2019-12-14 18:52:15*
%MOMM*%
%LPD*%
G04 APERTURE LIST*
%ADD10C,0.300000*%
%ADD11C,0.150000*%
%ADD12C,0.120000*%
%ADD13C,0.100000*%
G04 APERTURE END LIST*
D10*
X174883857Y-72295428D02*
X174883857Y-72795428D01*
X175669571Y-73009714D02*
X175669571Y-72295428D01*
X174169571Y-72295428D01*
X174169571Y-73009714D01*
X175669571Y-73652571D02*
X174669571Y-73652571D01*
X174812428Y-73652571D02*
X174741000Y-73724000D01*
X174669571Y-73866857D01*
X174669571Y-74081142D01*
X174741000Y-74224000D01*
X174883857Y-74295428D01*
X175669571Y-74295428D01*
X174883857Y-74295428D02*
X174741000Y-74366857D01*
X174669571Y-74509714D01*
X174669571Y-74724000D01*
X174741000Y-74866857D01*
X174883857Y-74938285D01*
X175669571Y-74938285D01*
X175669571Y-75652571D02*
X174669571Y-75652571D01*
X174169571Y-75652571D02*
X174241000Y-75581142D01*
X174312428Y-75652571D01*
X174241000Y-75724000D01*
X174169571Y-75652571D01*
X174312428Y-75652571D01*
X175669571Y-76581142D02*
X175598142Y-76438285D01*
X175455285Y-76366857D01*
X174169571Y-76366857D01*
X174669571Y-77009714D02*
X175669571Y-77366857D01*
X174669571Y-77724000D02*
X175669571Y-77366857D01*
X176026714Y-77224000D01*
X176098142Y-77152571D01*
X176169571Y-77009714D01*
X174169571Y-79295428D02*
X175669571Y-79652571D01*
X174598142Y-79938285D01*
X175669571Y-80224000D01*
X174169571Y-80581142D01*
X175669571Y-81795428D02*
X174883857Y-81795428D01*
X174741000Y-81724000D01*
X174669571Y-81581142D01*
X174669571Y-81295428D01*
X174741000Y-81152571D01*
X175598142Y-81795428D02*
X175669571Y-81652571D01*
X175669571Y-81295428D01*
X175598142Y-81152571D01*
X175455285Y-81081142D01*
X175312428Y-81081142D01*
X175169571Y-81152571D01*
X175098142Y-81295428D01*
X175098142Y-81652571D01*
X175026714Y-81795428D01*
X174669571Y-82509714D02*
X175669571Y-82509714D01*
X174812428Y-82509714D02*
X174741000Y-82581142D01*
X174669571Y-82724000D01*
X174669571Y-82938285D01*
X174741000Y-83081142D01*
X174883857Y-83152571D01*
X175669571Y-83152571D01*
X178219571Y-75831142D02*
X176719571Y-75831142D01*
X176719571Y-76188285D01*
X176791000Y-76402571D01*
X176933857Y-76545428D01*
X177076714Y-76616857D01*
X177362428Y-76688285D01*
X177576714Y-76688285D01*
X177862428Y-76616857D01*
X178005285Y-76545428D01*
X178148142Y-76402571D01*
X178219571Y-76188285D01*
X178219571Y-75831142D01*
X176719571Y-77331142D02*
X177933857Y-77331142D01*
X178076714Y-77402571D01*
X178148142Y-77474000D01*
X178219571Y-77616857D01*
X178219571Y-77902571D01*
X178148142Y-78045428D01*
X178076714Y-78116857D01*
X177933857Y-78188285D01*
X176719571Y-78188285D01*
X176719571Y-78759714D02*
X178219571Y-79759714D01*
X176719571Y-79759714D02*
X178219571Y-78759714D01*
X180769571Y-66902571D02*
X180055285Y-66402571D01*
X180769571Y-66045428D02*
X179269571Y-66045428D01*
X179269571Y-66616857D01*
X179341000Y-66759714D01*
X179412428Y-66831142D01*
X179555285Y-66902571D01*
X179769571Y-66902571D01*
X179912428Y-66831142D01*
X179983857Y-66759714D01*
X180055285Y-66616857D01*
X180055285Y-66045428D01*
X180698142Y-68116857D02*
X180769571Y-67974000D01*
X180769571Y-67688285D01*
X180698142Y-67545428D01*
X180555285Y-67474000D01*
X179983857Y-67474000D01*
X179841000Y-67545428D01*
X179769571Y-67688285D01*
X179769571Y-67974000D01*
X179841000Y-68116857D01*
X179983857Y-68188285D01*
X180126714Y-68188285D01*
X180269571Y-67474000D01*
X179769571Y-68688285D02*
X180769571Y-69045428D01*
X179769571Y-69402571D01*
X180769571Y-71902571D02*
X180769571Y-71045428D01*
X180769571Y-71474000D02*
X179269571Y-71474000D01*
X179483857Y-71331142D01*
X179626714Y-71188285D01*
X179698142Y-71045428D01*
X180626714Y-72545428D02*
X180698142Y-72616857D01*
X180769571Y-72545428D01*
X180698142Y-72474000D01*
X180626714Y-72545428D01*
X180769571Y-72545428D01*
X179412428Y-73188285D02*
X179341000Y-73259714D01*
X179269571Y-73402571D01*
X179269571Y-73759714D01*
X179341000Y-73902571D01*
X179412428Y-73974000D01*
X179555285Y-74045428D01*
X179698142Y-74045428D01*
X179912428Y-73974000D01*
X180769571Y-73116857D01*
X180769571Y-74045428D01*
X181269571Y-76188285D02*
X179126714Y-76188285D01*
X180769571Y-79188285D02*
X180769571Y-78331142D01*
X180769571Y-78759714D02*
X179269571Y-78759714D01*
X179483857Y-78616857D01*
X179626714Y-78474000D01*
X179698142Y-78331142D01*
X179412428Y-79759714D02*
X179341000Y-79831142D01*
X179269571Y-79974000D01*
X179269571Y-80331142D01*
X179341000Y-80474000D01*
X179412428Y-80545428D01*
X179555285Y-80616857D01*
X179698142Y-80616857D01*
X179912428Y-80545428D01*
X180769571Y-79688285D01*
X180769571Y-80616857D01*
X179198142Y-82331142D02*
X181126714Y-81045428D01*
X180769571Y-83616857D02*
X180769571Y-82759714D01*
X180769571Y-83188285D02*
X179269571Y-83188285D01*
X179483857Y-83045428D01*
X179626714Y-82902571D01*
X179698142Y-82759714D01*
X179769571Y-84902571D02*
X180769571Y-84902571D01*
X179198142Y-84545428D02*
X180269571Y-84188285D01*
X180269571Y-85116857D01*
X179198142Y-86759714D02*
X181126714Y-85474000D01*
X180769571Y-88045428D02*
X180769571Y-87188285D01*
X180769571Y-87616857D02*
X179269571Y-87616857D01*
X179483857Y-87474000D01*
X179626714Y-87331142D01*
X179698142Y-87188285D01*
X180769571Y-88759714D02*
X180769571Y-89045428D01*
X180698142Y-89188285D01*
X180626714Y-89259714D01*
X180412428Y-89402571D01*
X180126714Y-89474000D01*
X179555285Y-89474000D01*
X179412428Y-89402571D01*
X179341000Y-89331142D01*
X179269571Y-89188285D01*
X179269571Y-88902571D01*
X179341000Y-88759714D01*
X179412428Y-88688285D01*
X179555285Y-88616857D01*
X179912428Y-88616857D01*
X180055285Y-88688285D01*
X180126714Y-88759714D01*
X180198142Y-88902571D01*
X180198142Y-89188285D01*
X180126714Y-89331142D01*
X180055285Y-89402571D01*
X179912428Y-89474000D01*
X181819571Y-72866857D02*
X181819571Y-73152571D01*
X181891000Y-73295428D01*
X182033857Y-73438285D01*
X182319571Y-73509714D01*
X182819571Y-73509714D01*
X183105285Y-73438285D01*
X183248142Y-73295428D01*
X183319571Y-73152571D01*
X183319571Y-72866857D01*
X183248142Y-72724000D01*
X183105285Y-72581142D01*
X182819571Y-72509714D01*
X182319571Y-72509714D01*
X182033857Y-72581142D01*
X181891000Y-72724000D01*
X181819571Y-72866857D01*
X182533857Y-74152571D02*
X182533857Y-74652571D01*
X183319571Y-74866857D02*
X183319571Y-74152571D01*
X181819571Y-74152571D01*
X181819571Y-74866857D01*
X183319571Y-75509714D02*
X181819571Y-75509714D01*
X182891000Y-76009714D01*
X181819571Y-76509714D01*
X183319571Y-76509714D01*
X182748142Y-77224000D02*
X182748142Y-78366857D01*
X183319571Y-79081142D02*
X181819571Y-79081142D01*
X182891000Y-79581142D01*
X181819571Y-80081142D01*
X183319571Y-80081142D01*
X183319571Y-80795428D02*
X181819571Y-80795428D01*
X183319571Y-81652571D02*
X182462428Y-81009714D01*
X181819571Y-81652571D02*
X182676714Y-80795428D01*
X181819571Y-82081142D02*
X183319571Y-82581142D01*
X181819571Y-83081142D01*
D11*
X235178380Y-86240571D02*
X235178380Y-86812000D01*
X235178380Y-86526285D02*
X234178380Y-86526285D01*
X234321238Y-86621523D01*
X234416476Y-86716761D01*
X234464095Y-86812000D01*
X235083142Y-85812000D02*
X235130761Y-85764380D01*
X235178380Y-85812000D01*
X235130761Y-85859619D01*
X235083142Y-85812000D01*
X235178380Y-85812000D01*
X234178380Y-85145333D02*
X234178380Y-85050095D01*
X234226000Y-84954857D01*
X234273619Y-84907238D01*
X234368857Y-84859619D01*
X234559333Y-84812000D01*
X234797428Y-84812000D01*
X234987904Y-84859619D01*
X235083142Y-84907238D01*
X235130761Y-84954857D01*
X235178380Y-85050095D01*
X235178380Y-85145333D01*
X235130761Y-85240571D01*
X235083142Y-85288190D01*
X234987904Y-85335809D01*
X234797428Y-85383428D01*
X234559333Y-85383428D01*
X234368857Y-85335809D01*
X234273619Y-85288190D01*
X234226000Y-85240571D01*
X234178380Y-85145333D01*
X234273619Y-84431047D02*
X234226000Y-84383428D01*
X234178380Y-84288190D01*
X234178380Y-84050095D01*
X234226000Y-83954857D01*
X234273619Y-83907238D01*
X234368857Y-83859619D01*
X234464095Y-83859619D01*
X234606952Y-83907238D01*
X235178380Y-84478666D01*
X235178380Y-83859619D01*
X234178380Y-83240571D02*
X234178380Y-83145333D01*
X234226000Y-83050095D01*
X234273619Y-83002476D01*
X234368857Y-82954857D01*
X234559333Y-82907238D01*
X234797428Y-82907238D01*
X234987904Y-82954857D01*
X235083142Y-83002476D01*
X235130761Y-83050095D01*
X235178380Y-83145333D01*
X235178380Y-83240571D01*
X235130761Y-83335809D01*
X235083142Y-83383428D01*
X234987904Y-83431047D01*
X234797428Y-83478666D01*
X234559333Y-83478666D01*
X234368857Y-83431047D01*
X234273619Y-83383428D01*
X234226000Y-83335809D01*
X234178380Y-83240571D01*
X234178380Y-82288190D02*
X234178380Y-82192952D01*
X234226000Y-82097714D01*
X234273619Y-82050095D01*
X234368857Y-82002476D01*
X234559333Y-81954857D01*
X234797428Y-81954857D01*
X234987904Y-82002476D01*
X235083142Y-82050095D01*
X235130761Y-82097714D01*
X235178380Y-82192952D01*
X235178380Y-82288190D01*
X235130761Y-82383428D01*
X235083142Y-82431047D01*
X234987904Y-82478666D01*
X234797428Y-82526285D01*
X234559333Y-82526285D01*
X234368857Y-82478666D01*
X234273619Y-82431047D01*
X234226000Y-82383428D01*
X234178380Y-82288190D01*
X235178380Y-80764380D02*
X234511714Y-80764380D01*
X234178380Y-80764380D02*
X234226000Y-80812000D01*
X234273619Y-80764380D01*
X234226000Y-80716761D01*
X234178380Y-80764380D01*
X234273619Y-80764380D01*
X234511714Y-80288190D02*
X235178380Y-80288190D01*
X234606952Y-80288190D02*
X234559333Y-80240571D01*
X234511714Y-80145333D01*
X234511714Y-80002476D01*
X234559333Y-79907238D01*
X234654571Y-79859619D01*
X235178380Y-79859619D01*
X233426000Y-96266000D02*
X233426000Y-70358000D01*
X226568000Y-96266000D02*
X234012421Y-96266000D01*
X226568000Y-70358000D02*
X234012421Y-70358000D01*
X233426000Y-70358000D02*
X234012421Y-71484504D01*
X233426000Y-70358000D02*
X232839579Y-71484504D01*
X233426000Y-96266000D02*
X234012421Y-95139496D01*
X233426000Y-96266000D02*
X232839579Y-95139496D01*
X187777200Y-62944600D02*
X193077200Y-62944600D01*
X187777200Y-92954600D02*
X193077200Y-92954600D01*
X187777200Y-62944600D02*
X187777200Y-92954600D01*
X193077200Y-62944600D02*
X193077200Y-92954600D01*
X206168400Y-87975800D02*
X206168400Y-93275800D01*
X196478400Y-87975800D02*
X196478400Y-93275800D01*
X206168400Y-87975800D02*
X196478400Y-87975800D01*
X206168400Y-93275800D02*
X196478400Y-93275800D01*
D12*
X207102000Y-72653000D02*
X205902000Y-72653000D01*
X205902000Y-74413000D02*
X207102000Y-74413000D01*
X217793200Y-74007600D02*
X217793200Y-73007600D01*
X219493200Y-73007600D02*
X219493200Y-74007600D01*
X221115000Y-71921000D02*
X222115000Y-71921000D01*
X222115000Y-73621000D02*
X221115000Y-73621000D01*
X225513000Y-74938000D02*
X225513000Y-75938000D01*
X223813000Y-75938000D02*
X223813000Y-74938000D01*
X200765000Y-71693000D02*
X203565000Y-71693000D01*
X200765000Y-70293000D02*
X203565000Y-70293000D01*
X200765000Y-71693000D02*
X200765000Y-70293000D01*
D13*
X202365000Y-70993000D02*
X202665000Y-71293000D01*
X202665000Y-71293000D02*
X202715000Y-71343000D01*
X202715000Y-71343000D02*
X202715000Y-70693000D01*
X202715000Y-70643000D02*
X202715000Y-70693000D01*
X202715000Y-70693000D02*
X202715000Y-70643000D01*
X202715000Y-70643000D02*
X202365000Y-70993000D01*
X202365000Y-70993000D02*
X202365000Y-71343000D01*
X202365000Y-70643000D02*
X202365000Y-70993000D01*
X202322000Y-68230000D02*
X202322000Y-68580000D01*
X202322000Y-68580000D02*
X202322000Y-68930000D01*
X202672000Y-68230000D02*
X202322000Y-68580000D01*
X202672000Y-68280000D02*
X202672000Y-68230000D01*
X202672000Y-68230000D02*
X202672000Y-68280000D01*
X202672000Y-68930000D02*
X202672000Y-68280000D01*
X202622000Y-68880000D02*
X202672000Y-68930000D01*
X202322000Y-68580000D02*
X202622000Y-68880000D01*
D12*
X200722000Y-69280000D02*
X200722000Y-67880000D01*
X200722000Y-67880000D02*
X203522000Y-67880000D01*
X200722000Y-69280000D02*
X203522000Y-69280000D01*
D11*
X208362600Y-94750400D02*
X208362600Y-89450400D01*
X225672600Y-94750400D02*
X225672600Y-89450400D01*
X208362600Y-94750400D02*
X225672600Y-94750400D01*
X208362600Y-89450400D02*
X225672600Y-89450400D01*
D12*
X207102000Y-70113000D02*
X205902000Y-70113000D01*
X205902000Y-71873000D02*
X207102000Y-71873000D01*
X205902000Y-69460000D02*
X207102000Y-69460000D01*
X207102000Y-67700000D02*
X205902000Y-67700000D01*
X219574000Y-85182000D02*
X219574000Y-83982000D01*
X217814000Y-83982000D02*
X217814000Y-85182000D01*
X219846000Y-83982000D02*
X219846000Y-85182000D01*
X221606000Y-85182000D02*
X221606000Y-83982000D01*
D11*
X213995000Y-73994476D02*
X214154099Y-74153575D01*
X208868476Y-79121000D02*
X209098286Y-79350810D01*
X213995000Y-84247524D02*
X213765190Y-84017714D01*
X219121524Y-79121000D02*
X218891714Y-78891190D01*
X213995000Y-73994476D02*
X213765190Y-74224286D01*
X219121524Y-79121000D02*
X218891714Y-79350810D01*
X213995000Y-84247524D02*
X214224810Y-84017714D01*
X208868476Y-79121000D02*
X209098286Y-78891190D01*
X214154099Y-74153575D02*
X215161726Y-73145948D01*
D13*
X219615000Y-77038000D02*
X221615000Y-77038000D01*
X219615000Y-77038000D02*
X219615000Y-75438000D01*
D11*
X188982533Y-61526980D02*
X188982533Y-62241266D01*
X189030152Y-62384123D01*
X189125390Y-62479361D01*
X189268247Y-62526980D01*
X189363485Y-62526980D01*
X188553961Y-61622219D02*
X188506342Y-61574600D01*
X188411104Y-61526980D01*
X188173009Y-61526980D01*
X188077771Y-61574600D01*
X188030152Y-61622219D01*
X187982533Y-61717457D01*
X187982533Y-61812695D01*
X188030152Y-61955552D01*
X188601580Y-62526980D01*
X187982533Y-62526980D01*
X192459104Y-61622219D02*
X192411485Y-61574600D01*
X192316247Y-61526980D01*
X192078152Y-61526980D01*
X191982914Y-61574600D01*
X191935295Y-61622219D01*
X191887676Y-61717457D01*
X191887676Y-61812695D01*
X191935295Y-61955552D01*
X192506723Y-62526980D01*
X191887676Y-62526980D01*
X191268628Y-61526980D02*
X191173390Y-61526980D01*
X191078152Y-61574600D01*
X191030533Y-61622219D01*
X190982914Y-61717457D01*
X190935295Y-61907933D01*
X190935295Y-62146028D01*
X190982914Y-62336504D01*
X191030533Y-62431742D01*
X191078152Y-62479361D01*
X191173390Y-62526980D01*
X191268628Y-62526980D01*
X191363866Y-62479361D01*
X191411485Y-62431742D01*
X191459104Y-62336504D01*
X191506723Y-62146028D01*
X191506723Y-61907933D01*
X191459104Y-61717457D01*
X191411485Y-61622219D01*
X191363866Y-61574600D01*
X191268628Y-61526980D01*
X188871485Y-94276980D02*
X189442914Y-94276980D01*
X189157200Y-94276980D02*
X189157200Y-93276980D01*
X189252438Y-93419838D01*
X189347676Y-93515076D01*
X189442914Y-93562695D01*
X203307733Y-93888180D02*
X203307733Y-94602466D01*
X203355352Y-94745323D01*
X203450590Y-94840561D01*
X203593447Y-94888180D01*
X203688685Y-94888180D01*
X202926780Y-93888180D02*
X202307733Y-93888180D01*
X202641066Y-94269133D01*
X202498209Y-94269133D01*
X202402971Y-94316752D01*
X202355352Y-94364371D01*
X202307733Y-94459609D01*
X202307733Y-94697704D01*
X202355352Y-94792942D01*
X202402971Y-94840561D01*
X202498209Y-94888180D01*
X202783923Y-94888180D01*
X202879161Y-94840561D01*
X202926780Y-94792942D01*
X206824114Y-92086276D02*
X207490780Y-92086276D01*
X206443161Y-91848180D02*
X207157447Y-91610085D01*
X207157447Y-92229133D01*
X196060780Y-89641514D02*
X196060780Y-89070085D01*
X196060780Y-89355800D02*
X195060780Y-89355800D01*
X195203638Y-89260561D01*
X195298876Y-89165323D01*
X195346495Y-89070085D01*
X203969857Y-73985380D02*
X204303190Y-73509190D01*
X204541285Y-73985380D02*
X204541285Y-72985380D01*
X204160333Y-72985380D01*
X204065095Y-73033000D01*
X204017476Y-73080619D01*
X203969857Y-73175857D01*
X203969857Y-73318714D01*
X204017476Y-73413952D01*
X204065095Y-73461571D01*
X204160333Y-73509190D01*
X204541285Y-73509190D01*
X203588904Y-73080619D02*
X203541285Y-73033000D01*
X203446047Y-72985380D01*
X203207952Y-72985380D01*
X203112714Y-73033000D01*
X203065095Y-73080619D01*
X203017476Y-73175857D01*
X203017476Y-73271095D01*
X203065095Y-73413952D01*
X203636523Y-73985380D01*
X203017476Y-73985380D01*
X202398428Y-72985380D02*
X202303190Y-72985380D01*
X202207952Y-73033000D01*
X202160333Y-73080619D01*
X202112714Y-73175857D01*
X202065095Y-73366333D01*
X202065095Y-73604428D01*
X202112714Y-73794904D01*
X202160333Y-73890142D01*
X202207952Y-73937761D01*
X202303190Y-73985380D01*
X202398428Y-73985380D01*
X202493666Y-73937761D01*
X202541285Y-73890142D01*
X202588904Y-73794904D01*
X202636523Y-73604428D01*
X202636523Y-73366333D01*
X202588904Y-73175857D01*
X202541285Y-73080619D01*
X202493666Y-73033000D01*
X202398428Y-72985380D01*
X218809866Y-71324742D02*
X218857485Y-71372361D01*
X219000342Y-71419980D01*
X219095580Y-71419980D01*
X219238438Y-71372361D01*
X219333676Y-71277123D01*
X219381295Y-71181885D01*
X219428914Y-70991409D01*
X219428914Y-70848552D01*
X219381295Y-70658076D01*
X219333676Y-70562838D01*
X219238438Y-70467600D01*
X219095580Y-70419980D01*
X219000342Y-70419980D01*
X218857485Y-70467600D01*
X218809866Y-70515219D01*
X217952723Y-70753314D02*
X217952723Y-71419980D01*
X218190819Y-70372361D02*
X218428914Y-71086647D01*
X217809866Y-71086647D01*
X224575666Y-73128142D02*
X224623285Y-73175761D01*
X224766142Y-73223380D01*
X224861380Y-73223380D01*
X225004238Y-73175761D01*
X225099476Y-73080523D01*
X225147095Y-72985285D01*
X225194714Y-72794809D01*
X225194714Y-72651952D01*
X225147095Y-72461476D01*
X225099476Y-72366238D01*
X225004238Y-72271000D01*
X224861380Y-72223380D01*
X224766142Y-72223380D01*
X224623285Y-72271000D01*
X224575666Y-72318619D01*
X224099476Y-73223380D02*
X223909000Y-73223380D01*
X223813761Y-73175761D01*
X223766142Y-73128142D01*
X223670904Y-72985285D01*
X223623285Y-72794809D01*
X223623285Y-72413857D01*
X223670904Y-72318619D01*
X223718523Y-72271000D01*
X223813761Y-72223380D01*
X224004238Y-72223380D01*
X224099476Y-72271000D01*
X224147095Y-72318619D01*
X224194714Y-72413857D01*
X224194714Y-72651952D01*
X224147095Y-72747190D01*
X224099476Y-72794809D01*
X224004238Y-72842428D01*
X223813761Y-72842428D01*
X223718523Y-72794809D01*
X223670904Y-72747190D01*
X223623285Y-72651952D01*
X200374095Y-71445380D02*
X200374095Y-70445380D01*
X199993142Y-70445380D01*
X199897904Y-70493000D01*
X199850285Y-70540619D01*
X199802666Y-70635857D01*
X199802666Y-70778714D01*
X199850285Y-70873952D01*
X199897904Y-70921571D01*
X199993142Y-70969190D01*
X200374095Y-70969190D01*
X199374095Y-71445380D02*
X199374095Y-70445380D01*
X199136000Y-70445380D01*
X198993142Y-70493000D01*
X198897904Y-70588238D01*
X198850285Y-70683476D01*
X198802666Y-70873952D01*
X198802666Y-71016809D01*
X198850285Y-71207285D01*
X198897904Y-71302523D01*
X198993142Y-71397761D01*
X199136000Y-71445380D01*
X199374095Y-71445380D01*
X197850285Y-71445380D02*
X198421714Y-71445380D01*
X198136000Y-71445380D02*
X198136000Y-70445380D01*
X198231238Y-70588238D01*
X198326476Y-70683476D01*
X198421714Y-70731095D01*
X200374095Y-69032380D02*
X200374095Y-68032380D01*
X199993142Y-68032380D01*
X199897904Y-68080000D01*
X199850285Y-68127619D01*
X199802666Y-68222857D01*
X199802666Y-68365714D01*
X199850285Y-68460952D01*
X199897904Y-68508571D01*
X199993142Y-68556190D01*
X200374095Y-68556190D01*
X199374095Y-69032380D02*
X199374095Y-68032380D01*
X199136000Y-68032380D01*
X198993142Y-68080000D01*
X198897904Y-68175238D01*
X198850285Y-68270476D01*
X198802666Y-68460952D01*
X198802666Y-68603809D01*
X198850285Y-68794285D01*
X198897904Y-68889523D01*
X198993142Y-68984761D01*
X199136000Y-69032380D01*
X199374095Y-69032380D01*
X198421714Y-68127619D02*
X198374095Y-68080000D01*
X198278857Y-68032380D01*
X198040761Y-68032380D01*
X197945523Y-68080000D01*
X197897904Y-68127619D01*
X197850285Y-68222857D01*
X197850285Y-68318095D01*
X197897904Y-68460952D01*
X198469333Y-69032380D01*
X197850285Y-69032380D01*
X212024980Y-87957066D02*
X212739266Y-87957066D01*
X212882123Y-87909447D01*
X212977361Y-87814209D01*
X213024980Y-87671352D01*
X213024980Y-87576114D01*
X213024980Y-88957066D02*
X213024980Y-88385638D01*
X213024980Y-88671352D02*
X212024980Y-88671352D01*
X212167838Y-88576114D01*
X212263076Y-88480876D01*
X212310695Y-88385638D01*
X207944980Y-90639923D02*
X207944980Y-90068495D01*
X207944980Y-90354209D02*
X206944980Y-90354209D01*
X207087838Y-90258971D01*
X207183076Y-90163733D01*
X207230695Y-90068495D01*
X206944980Y-91258971D02*
X206944980Y-91354209D01*
X206992600Y-91449447D01*
X207040219Y-91497066D01*
X207135457Y-91544685D01*
X207325933Y-91592304D01*
X207564028Y-91592304D01*
X207754504Y-91544685D01*
X207849742Y-91497066D01*
X207897361Y-91449447D01*
X207944980Y-91354209D01*
X207944980Y-91258971D01*
X207897361Y-91163733D01*
X207849742Y-91116114D01*
X207754504Y-91068495D01*
X207564028Y-91020876D01*
X207325933Y-91020876D01*
X207135457Y-91068495D01*
X207040219Y-91116114D01*
X206992600Y-91163733D01*
X206944980Y-91258971D01*
X226994980Y-93656114D02*
X226994980Y-93084685D01*
X226994980Y-93370400D02*
X225994980Y-93370400D01*
X226137838Y-93275161D01*
X226233076Y-93179923D01*
X226280695Y-93084685D01*
X209335666Y-71445380D02*
X209669000Y-70969190D01*
X209907095Y-71445380D02*
X209907095Y-70445380D01*
X209526142Y-70445380D01*
X209430904Y-70493000D01*
X209383285Y-70540619D01*
X209335666Y-70635857D01*
X209335666Y-70778714D01*
X209383285Y-70873952D01*
X209430904Y-70921571D01*
X209526142Y-70969190D01*
X209907095Y-70969190D01*
X208764238Y-70873952D02*
X208859476Y-70826333D01*
X208907095Y-70778714D01*
X208954714Y-70683476D01*
X208954714Y-70635857D01*
X208907095Y-70540619D01*
X208859476Y-70493000D01*
X208764238Y-70445380D01*
X208573761Y-70445380D01*
X208478523Y-70493000D01*
X208430904Y-70540619D01*
X208383285Y-70635857D01*
X208383285Y-70683476D01*
X208430904Y-70778714D01*
X208478523Y-70826333D01*
X208573761Y-70873952D01*
X208764238Y-70873952D01*
X208859476Y-70921571D01*
X208907095Y-70969190D01*
X208954714Y-71064428D01*
X208954714Y-71254904D01*
X208907095Y-71350142D01*
X208859476Y-71397761D01*
X208764238Y-71445380D01*
X208573761Y-71445380D01*
X208478523Y-71397761D01*
X208430904Y-71350142D01*
X208383285Y-71254904D01*
X208383285Y-71064428D01*
X208430904Y-70969190D01*
X208478523Y-70921571D01*
X208573761Y-70873952D01*
X210319857Y-69032380D02*
X210653190Y-68556190D01*
X210891285Y-69032380D02*
X210891285Y-68032380D01*
X210510333Y-68032380D01*
X210415095Y-68080000D01*
X210367476Y-68127619D01*
X210319857Y-68222857D01*
X210319857Y-68365714D01*
X210367476Y-68460952D01*
X210415095Y-68508571D01*
X210510333Y-68556190D01*
X210891285Y-68556190D01*
X209367476Y-69032380D02*
X209938904Y-69032380D01*
X209653190Y-69032380D02*
X209653190Y-68032380D01*
X209748428Y-68175238D01*
X209843666Y-68270476D01*
X209938904Y-68318095D01*
X208415095Y-69032380D02*
X208986523Y-69032380D01*
X208700809Y-69032380D02*
X208700809Y-68032380D01*
X208796047Y-68175238D01*
X208891285Y-68270476D01*
X208986523Y-68318095D01*
X218701857Y-87574380D02*
X219035190Y-87098190D01*
X219273285Y-87574380D02*
X219273285Y-86574380D01*
X218892333Y-86574380D01*
X218797095Y-86622000D01*
X218749476Y-86669619D01*
X218701857Y-86764857D01*
X218701857Y-86907714D01*
X218749476Y-87002952D01*
X218797095Y-87050571D01*
X218892333Y-87098190D01*
X219273285Y-87098190D01*
X217844714Y-86907714D02*
X217844714Y-87574380D01*
X218082809Y-86526761D02*
X218320904Y-87241047D01*
X217701857Y-87241047D01*
X217416142Y-86574380D02*
X216797095Y-86574380D01*
X217130428Y-86955333D01*
X216987571Y-86955333D01*
X216892333Y-87002952D01*
X216844714Y-87050571D01*
X216797095Y-87145809D01*
X216797095Y-87383904D01*
X216844714Y-87479142D01*
X216892333Y-87526761D01*
X216987571Y-87574380D01*
X217273285Y-87574380D01*
X217368523Y-87526761D01*
X217416142Y-87479142D01*
X222003857Y-87574380D02*
X222337190Y-87098190D01*
X222575285Y-87574380D02*
X222575285Y-86574380D01*
X222194333Y-86574380D01*
X222099095Y-86622000D01*
X222051476Y-86669619D01*
X222003857Y-86764857D01*
X222003857Y-86907714D01*
X222051476Y-87002952D01*
X222099095Y-87050571D01*
X222194333Y-87098190D01*
X222575285Y-87098190D01*
X221146714Y-86907714D02*
X221146714Y-87574380D01*
X221384809Y-86526761D02*
X221622904Y-87241047D01*
X221003857Y-87241047D01*
X220194333Y-86907714D02*
X220194333Y-87574380D01*
X220432428Y-86526761D02*
X220670523Y-87241047D01*
X220051476Y-87241047D01*
X208039948Y-78195026D02*
X208612368Y-78767446D01*
X208646040Y-78868461D01*
X208646040Y-78935805D01*
X208612368Y-79036820D01*
X208477681Y-79171507D01*
X208376666Y-79205179D01*
X208309322Y-79205179D01*
X208208307Y-79171507D01*
X207635887Y-78599087D01*
X207366513Y-78868461D02*
X206928781Y-79306194D01*
X207433857Y-79339866D01*
X207332842Y-79440881D01*
X207299170Y-79541896D01*
X207299170Y-79609240D01*
X207332842Y-79710255D01*
X207501200Y-79878614D01*
X207602216Y-79912286D01*
X207669559Y-79912286D01*
X207770574Y-79878614D01*
X207972605Y-79676583D01*
X208006277Y-79575568D01*
X208006277Y-79508225D01*
X222091190Y-77954190D02*
X222091190Y-78430380D01*
X222424523Y-77430380D02*
X222091190Y-77954190D01*
X221757857Y-77430380D01*
X220900714Y-78430380D02*
X221472142Y-78430380D01*
X221186428Y-78430380D02*
X221186428Y-77430380D01*
X221281666Y-77573238D01*
X221376904Y-77668476D01*
X221472142Y-77716095D01*
M02*
