G04 #@! TF.GenerationSoftware,KiCad,Pcbnew,5.1.4-e60b266~84~ubuntu18.04.1*
G04 #@! TF.CreationDate,2019-12-14T18:51:20-05:00*
G04 #@! TF.ProjectId,dashboard_MKV_ewan,64617368-626f-4617-9264-5f4d4b565f65,rev?*
G04 #@! TF.SameCoordinates,Original*
G04 #@! TF.FileFunction,Soldermask,Bot*
G04 #@! TF.FilePolarity,Negative*
%FSLAX46Y46*%
G04 Gerber Fmt 4.6, Leading zero omitted, Abs format (unit mm)*
G04 Created by KiCad (PCBNEW 5.1.4-e60b266~84~ubuntu18.04.1) date 2019-12-14 18:51:20*
%MOMM*%
%LPD*%
G04 APERTURE LIST*
%ADD10C,0.100000*%
G04 APERTURE END LIST*
D10*
G36*
X222937073Y-92696338D02*
G01*
X223064649Y-92749182D01*
X223179459Y-92825895D01*
X223277105Y-92923541D01*
X223353818Y-93038351D01*
X223406662Y-93165927D01*
X223433600Y-93301356D01*
X223433600Y-93439444D01*
X223406662Y-93574873D01*
X223353818Y-93702449D01*
X223277105Y-93817259D01*
X223179459Y-93914905D01*
X223064649Y-93991618D01*
X222937073Y-94044462D01*
X222801644Y-94071400D01*
X222663556Y-94071400D01*
X222528127Y-94044462D01*
X222400551Y-93991618D01*
X222285741Y-93914905D01*
X222188095Y-93817259D01*
X222111382Y-93702449D01*
X222058538Y-93574873D01*
X222031600Y-93439444D01*
X222031600Y-93301356D01*
X222058538Y-93165927D01*
X222111382Y-93038351D01*
X222188095Y-92923541D01*
X222285741Y-92825895D01*
X222400551Y-92749182D01*
X222528127Y-92696338D01*
X222663556Y-92669400D01*
X222801644Y-92669400D01*
X222937073Y-92696338D01*
X222937073Y-92696338D01*
G37*
G36*
X212777073Y-92696338D02*
G01*
X212904649Y-92749182D01*
X213019459Y-92825895D01*
X213117105Y-92923541D01*
X213193818Y-93038351D01*
X213246662Y-93165927D01*
X213273600Y-93301356D01*
X213273600Y-93439444D01*
X213246662Y-93574873D01*
X213193818Y-93702449D01*
X213117105Y-93817259D01*
X213019459Y-93914905D01*
X212904649Y-93991618D01*
X212777073Y-94044462D01*
X212641644Y-94071400D01*
X212503556Y-94071400D01*
X212368127Y-94044462D01*
X212240551Y-93991618D01*
X212125741Y-93914905D01*
X212028095Y-93817259D01*
X211951382Y-93702449D01*
X211898538Y-93574873D01*
X211871600Y-93439444D01*
X211871600Y-93301356D01*
X211898538Y-93165927D01*
X211951382Y-93038351D01*
X212028095Y-92923541D01*
X212125741Y-92825895D01*
X212240551Y-92749182D01*
X212368127Y-92696338D01*
X212503556Y-92669400D01*
X212641644Y-92669400D01*
X212777073Y-92696338D01*
X212777073Y-92696338D01*
G37*
G36*
X217857073Y-92696338D02*
G01*
X217984649Y-92749182D01*
X218099459Y-92825895D01*
X218197105Y-92923541D01*
X218273818Y-93038351D01*
X218326662Y-93165927D01*
X218353600Y-93301356D01*
X218353600Y-93439444D01*
X218326662Y-93574873D01*
X218273818Y-93702449D01*
X218197105Y-93817259D01*
X218099459Y-93914905D01*
X217984649Y-93991618D01*
X217857073Y-94044462D01*
X217721644Y-94071400D01*
X217583556Y-94071400D01*
X217448127Y-94044462D01*
X217320551Y-93991618D01*
X217205741Y-93914905D01*
X217108095Y-93817259D01*
X217031382Y-93702449D01*
X216978538Y-93574873D01*
X216951600Y-93439444D01*
X216951600Y-93301356D01*
X216978538Y-93165927D01*
X217031382Y-93038351D01*
X217108095Y-92923541D01*
X217205741Y-92825895D01*
X217320551Y-92749182D01*
X217448127Y-92696338D01*
X217583556Y-92669400D01*
X217721644Y-92669400D01*
X217857073Y-92696338D01*
X217857073Y-92696338D01*
G37*
G36*
X215317073Y-92696338D02*
G01*
X215444649Y-92749182D01*
X215559459Y-92825895D01*
X215657105Y-92923541D01*
X215733818Y-93038351D01*
X215786662Y-93165927D01*
X215813600Y-93301356D01*
X215813600Y-93439444D01*
X215786662Y-93574873D01*
X215733818Y-93702449D01*
X215657105Y-93817259D01*
X215559459Y-93914905D01*
X215444649Y-93991618D01*
X215317073Y-94044462D01*
X215181644Y-94071400D01*
X215043556Y-94071400D01*
X214908127Y-94044462D01*
X214780551Y-93991618D01*
X214665741Y-93914905D01*
X214568095Y-93817259D01*
X214491382Y-93702449D01*
X214438538Y-93574873D01*
X214411600Y-93439444D01*
X214411600Y-93301356D01*
X214438538Y-93165927D01*
X214491382Y-93038351D01*
X214568095Y-92923541D01*
X214665741Y-92825895D01*
X214780551Y-92749182D01*
X214908127Y-92696338D01*
X215043556Y-92669400D01*
X215181644Y-92669400D01*
X215317073Y-92696338D01*
X215317073Y-92696338D01*
G37*
G36*
X220397073Y-92696338D02*
G01*
X220524649Y-92749182D01*
X220639459Y-92825895D01*
X220737105Y-92923541D01*
X220813818Y-93038351D01*
X220866662Y-93165927D01*
X220893600Y-93301356D01*
X220893600Y-93439444D01*
X220866662Y-93574873D01*
X220813818Y-93702449D01*
X220737105Y-93817259D01*
X220639459Y-93914905D01*
X220524649Y-93991618D01*
X220397073Y-94044462D01*
X220261644Y-94071400D01*
X220123556Y-94071400D01*
X219988127Y-94044462D01*
X219860551Y-93991618D01*
X219745741Y-93914905D01*
X219648095Y-93817259D01*
X219571382Y-93702449D01*
X219518538Y-93574873D01*
X219491600Y-93439444D01*
X219491600Y-93301356D01*
X219518538Y-93165927D01*
X219571382Y-93038351D01*
X219648095Y-92923541D01*
X219745741Y-92825895D01*
X219860551Y-92749182D01*
X219988127Y-92696338D01*
X220123556Y-92669400D01*
X220261644Y-92669400D01*
X220397073Y-92696338D01*
X220397073Y-92696338D01*
G37*
G36*
X224439164Y-90559789D02*
G01*
X224630433Y-90639015D01*
X224630435Y-90639016D01*
X224802573Y-90754035D01*
X224948965Y-90900427D01*
X225038800Y-91034874D01*
X225063985Y-91072567D01*
X225143211Y-91263836D01*
X225183600Y-91466884D01*
X225183600Y-91673916D01*
X225143211Y-91876964D01*
X225106810Y-91964844D01*
X225063984Y-92068235D01*
X224948965Y-92240373D01*
X224802573Y-92386765D01*
X224630435Y-92501784D01*
X224630434Y-92501785D01*
X224630433Y-92501785D01*
X224439164Y-92581011D01*
X224236116Y-92621400D01*
X224029084Y-92621400D01*
X223826036Y-92581011D01*
X223634767Y-92501785D01*
X223634766Y-92501785D01*
X223634765Y-92501784D01*
X223462627Y-92386765D01*
X223316235Y-92240373D01*
X223201216Y-92068235D01*
X223158390Y-91964844D01*
X223121989Y-91876964D01*
X223081600Y-91673916D01*
X223081600Y-91466884D01*
X223121989Y-91263836D01*
X223201215Y-91072567D01*
X223226401Y-91034874D01*
X223316235Y-90900427D01*
X223462627Y-90754035D01*
X223634765Y-90639016D01*
X223634767Y-90639015D01*
X223826036Y-90559789D01*
X224029084Y-90519400D01*
X224236116Y-90519400D01*
X224439164Y-90559789D01*
X224439164Y-90559789D01*
G37*
G36*
X200892873Y-91221738D02*
G01*
X201020449Y-91274582D01*
X201135259Y-91351295D01*
X201232905Y-91448941D01*
X201309618Y-91563751D01*
X201362462Y-91691327D01*
X201389400Y-91826756D01*
X201389400Y-91964844D01*
X201362462Y-92100273D01*
X201309618Y-92227849D01*
X201232905Y-92342659D01*
X201135259Y-92440305D01*
X201020449Y-92517018D01*
X200892873Y-92569862D01*
X200757444Y-92596800D01*
X200619356Y-92596800D01*
X200483927Y-92569862D01*
X200356351Y-92517018D01*
X200241541Y-92440305D01*
X200143895Y-92342659D01*
X200067182Y-92227849D01*
X200014338Y-92100273D01*
X199987400Y-91964844D01*
X199987400Y-91826756D01*
X200014338Y-91691327D01*
X200067182Y-91563751D01*
X200143895Y-91448941D01*
X200241541Y-91351295D01*
X200356351Y-91274582D01*
X200483927Y-91221738D01*
X200619356Y-91194800D01*
X200757444Y-91194800D01*
X200892873Y-91221738D01*
X200892873Y-91221738D01*
G37*
G36*
X203432873Y-91221738D02*
G01*
X203560449Y-91274582D01*
X203675259Y-91351295D01*
X203772905Y-91448941D01*
X203849618Y-91563751D01*
X203902462Y-91691327D01*
X203929400Y-91826756D01*
X203929400Y-91964844D01*
X203902462Y-92100273D01*
X203849618Y-92227849D01*
X203772905Y-92342659D01*
X203675259Y-92440305D01*
X203560449Y-92517018D01*
X203432873Y-92569862D01*
X203297444Y-92596800D01*
X203159356Y-92596800D01*
X203023927Y-92569862D01*
X202896351Y-92517018D01*
X202781541Y-92440305D01*
X202683895Y-92342659D01*
X202607182Y-92227849D01*
X202554338Y-92100273D01*
X202527400Y-91964844D01*
X202527400Y-91826756D01*
X202554338Y-91691327D01*
X202607182Y-91563751D01*
X202683895Y-91448941D01*
X202781541Y-91351295D01*
X202896351Y-91274582D01*
X203023927Y-91221738D01*
X203159356Y-91194800D01*
X203297444Y-91194800D01*
X203432873Y-91221738D01*
X203432873Y-91221738D01*
G37*
G36*
X191263764Y-90403989D02*
G01*
X191402509Y-90461459D01*
X191455035Y-90483216D01*
X191569636Y-90559790D01*
X191627173Y-90598235D01*
X191773565Y-90744627D01*
X191888585Y-90916767D01*
X191967811Y-91108036D01*
X192008200Y-91311084D01*
X192008200Y-91518116D01*
X191967811Y-91721164D01*
X191903276Y-91876965D01*
X191888584Y-91912435D01*
X191773565Y-92084573D01*
X191627173Y-92230965D01*
X191455035Y-92345984D01*
X191455034Y-92345985D01*
X191455033Y-92345985D01*
X191263764Y-92425211D01*
X191060716Y-92465600D01*
X190853684Y-92465600D01*
X190650636Y-92425211D01*
X190459367Y-92345985D01*
X190459366Y-92345985D01*
X190459365Y-92345984D01*
X190287227Y-92230965D01*
X190140835Y-92084573D01*
X190025816Y-91912435D01*
X190011124Y-91876965D01*
X189946589Y-91721164D01*
X189906200Y-91518116D01*
X189906200Y-91311084D01*
X189946589Y-91108036D01*
X190025815Y-90916767D01*
X190140835Y-90744627D01*
X190287227Y-90598235D01*
X190344764Y-90559790D01*
X190459365Y-90483216D01*
X190511891Y-90461459D01*
X190650636Y-90403989D01*
X190853684Y-90363600D01*
X191060716Y-90363600D01*
X191263764Y-90403989D01*
X191263764Y-90403989D01*
G37*
G36*
X198324964Y-89845189D02*
G01*
X198516233Y-89924415D01*
X198516235Y-89924416D01*
X198674046Y-90029862D01*
X198688373Y-90039435D01*
X198834765Y-90185827D01*
X198949785Y-90357967D01*
X199029011Y-90549236D01*
X199069400Y-90752284D01*
X199069400Y-90959316D01*
X199029011Y-91162364D01*
X198967409Y-91311084D01*
X198949784Y-91353635D01*
X198834765Y-91525773D01*
X198688373Y-91672165D01*
X198516235Y-91787184D01*
X198516234Y-91787185D01*
X198516233Y-91787185D01*
X198324964Y-91866411D01*
X198121916Y-91906800D01*
X197914884Y-91906800D01*
X197711836Y-91866411D01*
X197520567Y-91787185D01*
X197520566Y-91787185D01*
X197520565Y-91787184D01*
X197348427Y-91672165D01*
X197202035Y-91525773D01*
X197087016Y-91353635D01*
X197069391Y-91311084D01*
X197007789Y-91162364D01*
X196967400Y-90959316D01*
X196967400Y-90752284D01*
X197007789Y-90549236D01*
X197087015Y-90357967D01*
X197202035Y-90185827D01*
X197348427Y-90039435D01*
X197362754Y-90029862D01*
X197520565Y-89924416D01*
X197520567Y-89924415D01*
X197711836Y-89845189D01*
X197914884Y-89804800D01*
X198121916Y-89804800D01*
X198324964Y-89845189D01*
X198324964Y-89845189D01*
G37*
G36*
X214047073Y-90156338D02*
G01*
X214174649Y-90209182D01*
X214289459Y-90285895D01*
X214387105Y-90383541D01*
X214463818Y-90498351D01*
X214516662Y-90625927D01*
X214543600Y-90761356D01*
X214543600Y-90899444D01*
X214516662Y-91034873D01*
X214463818Y-91162449D01*
X214387105Y-91277259D01*
X214289459Y-91374905D01*
X214174649Y-91451618D01*
X214047073Y-91504462D01*
X213911644Y-91531400D01*
X213773556Y-91531400D01*
X213638127Y-91504462D01*
X213510551Y-91451618D01*
X213395741Y-91374905D01*
X213298095Y-91277259D01*
X213221382Y-91162449D01*
X213168538Y-91034873D01*
X213141600Y-90899444D01*
X213141600Y-90761356D01*
X213168538Y-90625927D01*
X213221382Y-90498351D01*
X213298095Y-90383541D01*
X213395741Y-90285895D01*
X213510551Y-90209182D01*
X213638127Y-90156338D01*
X213773556Y-90129400D01*
X213911644Y-90129400D01*
X214047073Y-90156338D01*
X214047073Y-90156338D01*
G37*
G36*
X221667073Y-90156338D02*
G01*
X221794649Y-90209182D01*
X221909459Y-90285895D01*
X222007105Y-90383541D01*
X222083818Y-90498351D01*
X222136662Y-90625927D01*
X222163600Y-90761356D01*
X222163600Y-90899444D01*
X222136662Y-91034873D01*
X222083818Y-91162449D01*
X222007105Y-91277259D01*
X221909459Y-91374905D01*
X221794649Y-91451618D01*
X221667073Y-91504462D01*
X221531644Y-91531400D01*
X221393556Y-91531400D01*
X221258127Y-91504462D01*
X221130551Y-91451618D01*
X221015741Y-91374905D01*
X220918095Y-91277259D01*
X220841382Y-91162449D01*
X220788538Y-91034873D01*
X220761600Y-90899444D01*
X220761600Y-90761356D01*
X220788538Y-90625927D01*
X220841382Y-90498351D01*
X220918095Y-90383541D01*
X221015741Y-90285895D01*
X221130551Y-90209182D01*
X221258127Y-90156338D01*
X221393556Y-90129400D01*
X221531644Y-90129400D01*
X221667073Y-90156338D01*
X221667073Y-90156338D01*
G37*
G36*
X211507073Y-90156338D02*
G01*
X211634649Y-90209182D01*
X211749459Y-90285895D01*
X211847105Y-90383541D01*
X211923818Y-90498351D01*
X211976662Y-90625927D01*
X212003600Y-90761356D01*
X212003600Y-90899444D01*
X211976662Y-91034873D01*
X211923818Y-91162449D01*
X211847105Y-91277259D01*
X211749459Y-91374905D01*
X211634649Y-91451618D01*
X211507073Y-91504462D01*
X211371644Y-91531400D01*
X211233556Y-91531400D01*
X211098127Y-91504462D01*
X210970551Y-91451618D01*
X210855741Y-91374905D01*
X210758095Y-91277259D01*
X210681382Y-91162449D01*
X210628538Y-91034873D01*
X210601600Y-90899444D01*
X210601600Y-90761356D01*
X210628538Y-90625927D01*
X210681382Y-90498351D01*
X210758095Y-90383541D01*
X210855741Y-90285895D01*
X210970551Y-90209182D01*
X211098127Y-90156338D01*
X211233556Y-90129400D01*
X211371644Y-90129400D01*
X211507073Y-90156338D01*
X211507073Y-90156338D01*
G37*
G36*
X219127073Y-90156338D02*
G01*
X219254649Y-90209182D01*
X219369459Y-90285895D01*
X219467105Y-90383541D01*
X219543818Y-90498351D01*
X219596662Y-90625927D01*
X219623600Y-90761356D01*
X219623600Y-90899444D01*
X219596662Y-91034873D01*
X219543818Y-91162449D01*
X219467105Y-91277259D01*
X219369459Y-91374905D01*
X219254649Y-91451618D01*
X219127073Y-91504462D01*
X218991644Y-91531400D01*
X218853556Y-91531400D01*
X218718127Y-91504462D01*
X218590551Y-91451618D01*
X218475741Y-91374905D01*
X218378095Y-91277259D01*
X218301382Y-91162449D01*
X218248538Y-91034873D01*
X218221600Y-90899444D01*
X218221600Y-90761356D01*
X218248538Y-90625927D01*
X218301382Y-90498351D01*
X218378095Y-90383541D01*
X218475741Y-90285895D01*
X218590551Y-90209182D01*
X218718127Y-90156338D01*
X218853556Y-90129400D01*
X218991644Y-90129400D01*
X219127073Y-90156338D01*
X219127073Y-90156338D01*
G37*
G36*
X216587073Y-90156338D02*
G01*
X216714649Y-90209182D01*
X216829459Y-90285895D01*
X216927105Y-90383541D01*
X217003818Y-90498351D01*
X217056662Y-90625927D01*
X217083600Y-90761356D01*
X217083600Y-90899444D01*
X217056662Y-91034873D01*
X217003818Y-91162449D01*
X216927105Y-91277259D01*
X216829459Y-91374905D01*
X216714649Y-91451618D01*
X216587073Y-91504462D01*
X216451644Y-91531400D01*
X216313556Y-91531400D01*
X216178127Y-91504462D01*
X216050551Y-91451618D01*
X215935741Y-91374905D01*
X215838095Y-91277259D01*
X215761382Y-91162449D01*
X215708538Y-91034873D01*
X215681600Y-90899444D01*
X215681600Y-90761356D01*
X215708538Y-90625927D01*
X215761382Y-90498351D01*
X215838095Y-90383541D01*
X215935741Y-90285895D01*
X216050551Y-90209182D01*
X216178127Y-90156338D01*
X216313556Y-90129400D01*
X216451644Y-90129400D01*
X216587073Y-90156338D01*
X216587073Y-90156338D01*
G37*
G36*
X189361673Y-89340538D02*
G01*
X189489249Y-89393382D01*
X189604059Y-89470095D01*
X189701705Y-89567741D01*
X189778418Y-89682551D01*
X189831262Y-89810127D01*
X189858200Y-89945556D01*
X189858200Y-90083644D01*
X189831262Y-90219073D01*
X189778418Y-90346649D01*
X189701705Y-90461459D01*
X189604059Y-90559105D01*
X189489249Y-90635818D01*
X189361673Y-90688662D01*
X189226244Y-90715600D01*
X189088156Y-90715600D01*
X188952727Y-90688662D01*
X188825151Y-90635818D01*
X188710341Y-90559105D01*
X188612695Y-90461459D01*
X188535982Y-90346649D01*
X188483138Y-90219073D01*
X188456200Y-90083644D01*
X188456200Y-89945556D01*
X188483138Y-89810127D01*
X188535982Y-89682551D01*
X188612695Y-89567741D01*
X188710341Y-89470095D01*
X188825151Y-89393382D01*
X188952727Y-89340538D01*
X189088156Y-89313600D01*
X189226244Y-89313600D01*
X189361673Y-89340538D01*
X189361673Y-89340538D01*
G37*
G36*
X199622873Y-88681738D02*
G01*
X199750449Y-88734582D01*
X199865259Y-88811295D01*
X199962905Y-88908941D01*
X200039618Y-89023751D01*
X200092462Y-89151327D01*
X200119400Y-89286756D01*
X200119400Y-89424844D01*
X200092462Y-89560273D01*
X200039618Y-89687849D01*
X199962905Y-89802659D01*
X199865259Y-89900305D01*
X199750449Y-89977018D01*
X199622873Y-90029862D01*
X199487444Y-90056800D01*
X199349356Y-90056800D01*
X199213927Y-90029862D01*
X199086351Y-89977018D01*
X198971541Y-89900305D01*
X198873895Y-89802659D01*
X198797182Y-89687849D01*
X198744338Y-89560273D01*
X198717400Y-89424844D01*
X198717400Y-89286756D01*
X198744338Y-89151327D01*
X198797182Y-89023751D01*
X198873895Y-88908941D01*
X198971541Y-88811295D01*
X199086351Y-88734582D01*
X199213927Y-88681738D01*
X199349356Y-88654800D01*
X199487444Y-88654800D01*
X199622873Y-88681738D01*
X199622873Y-88681738D01*
G37*
G36*
X202162873Y-88681738D02*
G01*
X202290449Y-88734582D01*
X202405259Y-88811295D01*
X202502905Y-88908941D01*
X202579618Y-89023751D01*
X202632462Y-89151327D01*
X202659400Y-89286756D01*
X202659400Y-89424844D01*
X202632462Y-89560273D01*
X202579618Y-89687849D01*
X202502905Y-89802659D01*
X202405259Y-89900305D01*
X202290449Y-89977018D01*
X202162873Y-90029862D01*
X202027444Y-90056800D01*
X201889356Y-90056800D01*
X201753927Y-90029862D01*
X201626351Y-89977018D01*
X201511541Y-89900305D01*
X201413895Y-89802659D01*
X201337182Y-89687849D01*
X201284338Y-89560273D01*
X201257400Y-89424844D01*
X201257400Y-89286756D01*
X201284338Y-89151327D01*
X201337182Y-89023751D01*
X201413895Y-88908941D01*
X201511541Y-88811295D01*
X201626351Y-88734582D01*
X201753927Y-88681738D01*
X201889356Y-88654800D01*
X202027444Y-88654800D01*
X202162873Y-88681738D01*
X202162873Y-88681738D01*
G37*
G36*
X191901673Y-88070538D02*
G01*
X192029249Y-88123382D01*
X192144059Y-88200095D01*
X192241705Y-88297741D01*
X192318418Y-88412551D01*
X192371262Y-88540127D01*
X192398200Y-88675556D01*
X192398200Y-88813644D01*
X192371262Y-88949073D01*
X192318418Y-89076649D01*
X192241705Y-89191459D01*
X192144059Y-89289105D01*
X192029249Y-89365818D01*
X191901673Y-89418662D01*
X191766244Y-89445600D01*
X191628156Y-89445600D01*
X191492727Y-89418662D01*
X191365151Y-89365818D01*
X191250341Y-89289105D01*
X191152695Y-89191459D01*
X191075982Y-89076649D01*
X191023138Y-88949073D01*
X190996200Y-88813644D01*
X190996200Y-88675556D01*
X191023138Y-88540127D01*
X191075982Y-88412551D01*
X191152695Y-88297741D01*
X191250341Y-88200095D01*
X191365151Y-88123382D01*
X191492727Y-88070538D01*
X191628156Y-88043600D01*
X191766244Y-88043600D01*
X191901673Y-88070538D01*
X191901673Y-88070538D01*
G37*
G36*
X189361673Y-86800538D02*
G01*
X189489249Y-86853382D01*
X189604059Y-86930095D01*
X189701705Y-87027741D01*
X189778418Y-87142551D01*
X189831262Y-87270127D01*
X189858200Y-87405556D01*
X189858200Y-87543644D01*
X189831262Y-87679073D01*
X189778418Y-87806649D01*
X189701705Y-87921459D01*
X189604059Y-88019105D01*
X189489249Y-88095818D01*
X189361673Y-88148662D01*
X189226244Y-88175600D01*
X189088156Y-88175600D01*
X188952727Y-88148662D01*
X188825151Y-88095818D01*
X188710341Y-88019105D01*
X188612695Y-87921459D01*
X188535982Y-87806649D01*
X188483138Y-87679073D01*
X188456200Y-87543644D01*
X188456200Y-87405556D01*
X188483138Y-87270127D01*
X188535982Y-87142551D01*
X188612695Y-87027741D01*
X188710341Y-86930095D01*
X188825151Y-86853382D01*
X188952727Y-86800538D01*
X189088156Y-86773600D01*
X189226244Y-86773600D01*
X189361673Y-86800538D01*
X189361673Y-86800538D01*
G37*
G36*
X191901673Y-85530538D02*
G01*
X192029249Y-85583382D01*
X192144059Y-85660095D01*
X192241705Y-85757741D01*
X192318418Y-85872551D01*
X192371262Y-86000127D01*
X192398200Y-86135556D01*
X192398200Y-86273644D01*
X192371262Y-86409073D01*
X192318418Y-86536649D01*
X192241705Y-86651459D01*
X192144059Y-86749105D01*
X192029249Y-86825818D01*
X191901673Y-86878662D01*
X191766244Y-86905600D01*
X191628156Y-86905600D01*
X191492727Y-86878662D01*
X191365151Y-86825818D01*
X191250341Y-86749105D01*
X191152695Y-86651459D01*
X191075982Y-86536649D01*
X191023138Y-86409073D01*
X190996200Y-86273644D01*
X190996200Y-86135556D01*
X191023138Y-86000127D01*
X191075982Y-85872551D01*
X191152695Y-85757741D01*
X191250341Y-85660095D01*
X191365151Y-85583382D01*
X191492727Y-85530538D01*
X191628156Y-85503600D01*
X191766244Y-85503600D01*
X191901673Y-85530538D01*
X191901673Y-85530538D01*
G37*
G36*
X201641059Y-84875860D02*
G01*
X201777732Y-84932472D01*
X201900735Y-85014660D01*
X202005340Y-85119265D01*
X202005341Y-85119267D01*
X202087529Y-85242270D01*
X202144140Y-85378941D01*
X202173000Y-85524032D01*
X202173000Y-85671968D01*
X202155939Y-85757741D01*
X202144140Y-85817059D01*
X202087528Y-85953732D01*
X202005340Y-86076735D01*
X201900735Y-86181340D01*
X201777732Y-86263528D01*
X201777731Y-86263529D01*
X201777730Y-86263529D01*
X201641059Y-86320140D01*
X201495968Y-86349000D01*
X201348032Y-86349000D01*
X201202941Y-86320140D01*
X201066270Y-86263529D01*
X201066269Y-86263529D01*
X201066268Y-86263528D01*
X200943265Y-86181340D01*
X200838660Y-86076735D01*
X200756472Y-85953732D01*
X200699860Y-85817059D01*
X200688061Y-85757741D01*
X200671000Y-85671968D01*
X200671000Y-85524032D01*
X200699860Y-85378941D01*
X200756471Y-85242270D01*
X200838659Y-85119267D01*
X200838660Y-85119265D01*
X200943265Y-85014660D01*
X201066268Y-84932472D01*
X201202941Y-84875860D01*
X201348032Y-84847000D01*
X201495968Y-84847000D01*
X201641059Y-84875860D01*
X201641059Y-84875860D01*
G37*
G36*
X195545059Y-84875860D02*
G01*
X195681732Y-84932472D01*
X195804735Y-85014660D01*
X195909340Y-85119265D01*
X195909341Y-85119267D01*
X195991529Y-85242270D01*
X196048140Y-85378941D01*
X196077000Y-85524032D01*
X196077000Y-85671968D01*
X196059939Y-85757741D01*
X196048140Y-85817059D01*
X195991528Y-85953732D01*
X195909340Y-86076735D01*
X195804735Y-86181340D01*
X195681732Y-86263528D01*
X195681731Y-86263529D01*
X195681730Y-86263529D01*
X195545059Y-86320140D01*
X195399968Y-86349000D01*
X195252032Y-86349000D01*
X195106941Y-86320140D01*
X194970270Y-86263529D01*
X194970269Y-86263529D01*
X194970268Y-86263528D01*
X194847265Y-86181340D01*
X194742660Y-86076735D01*
X194660472Y-85953732D01*
X194603860Y-85817059D01*
X194592061Y-85757741D01*
X194575000Y-85671968D01*
X194575000Y-85524032D01*
X194603860Y-85378941D01*
X194660471Y-85242270D01*
X194742659Y-85119267D01*
X194742660Y-85119265D01*
X194847265Y-85014660D01*
X194970268Y-84932472D01*
X195106941Y-84875860D01*
X195252032Y-84847000D01*
X195399968Y-84847000D01*
X195545059Y-84875860D01*
X195545059Y-84875860D01*
G37*
G36*
X204713000Y-86349000D02*
G01*
X203211000Y-86349000D01*
X203211000Y-84847000D01*
X204713000Y-84847000D01*
X204713000Y-86349000D01*
X204713000Y-86349000D01*
G37*
G36*
X198617000Y-86349000D02*
G01*
X197115000Y-86349000D01*
X197115000Y-84847000D01*
X198617000Y-84847000D01*
X198617000Y-86349000D01*
X198617000Y-86349000D01*
G37*
G36*
X219395000Y-85933000D02*
G01*
X217993000Y-85933000D01*
X217993000Y-85131000D01*
X219395000Y-85131000D01*
X219395000Y-85933000D01*
X219395000Y-85933000D01*
G37*
G36*
X221427000Y-85933000D02*
G01*
X220025000Y-85933000D01*
X220025000Y-85131000D01*
X221427000Y-85131000D01*
X221427000Y-85933000D01*
X221427000Y-85933000D01*
G37*
G36*
X189361673Y-84260538D02*
G01*
X189489249Y-84313382D01*
X189604059Y-84390095D01*
X189701705Y-84487741D01*
X189778418Y-84602551D01*
X189831262Y-84730127D01*
X189858200Y-84865556D01*
X189858200Y-85003644D01*
X189831262Y-85139073D01*
X189778418Y-85266649D01*
X189701705Y-85381459D01*
X189604059Y-85479105D01*
X189489249Y-85555818D01*
X189361673Y-85608662D01*
X189226244Y-85635600D01*
X189088156Y-85635600D01*
X188952727Y-85608662D01*
X188825151Y-85555818D01*
X188710341Y-85479105D01*
X188612695Y-85381459D01*
X188535982Y-85266649D01*
X188483138Y-85139073D01*
X188456200Y-85003644D01*
X188456200Y-84865556D01*
X188483138Y-84730127D01*
X188535982Y-84602551D01*
X188612695Y-84487741D01*
X188710341Y-84390095D01*
X188825151Y-84313382D01*
X188952727Y-84260538D01*
X189088156Y-84233600D01*
X189226244Y-84233600D01*
X189361673Y-84260538D01*
X189361673Y-84260538D01*
G37*
G36*
X209842162Y-79775074D02*
G01*
X209842162Y-79775075D01*
X209858426Y-79791339D01*
X209858432Y-79791344D01*
X209946814Y-79879726D01*
X209946814Y-79879725D01*
X210407848Y-80340759D01*
X210407848Y-80340760D01*
X210496230Y-80429142D01*
X210496235Y-80429148D01*
X210512499Y-80445412D01*
X210512499Y-80445411D01*
X210973533Y-80906445D01*
X210973533Y-80906446D01*
X211078184Y-81011097D01*
X211078184Y-81011096D01*
X211539218Y-81472130D01*
X211539218Y-81472131D01*
X211643870Y-81576783D01*
X211643870Y-81576782D01*
X212104904Y-82037816D01*
X212104904Y-82037817D01*
X212209555Y-82142468D01*
X212209555Y-82142467D01*
X212670589Y-82603501D01*
X212670589Y-82603502D01*
X212686853Y-82619766D01*
X212686859Y-82619771D01*
X212775241Y-82708153D01*
X212775241Y-82708152D01*
X213236275Y-83169186D01*
X213236275Y-83169187D01*
X213324657Y-83257569D01*
X213324662Y-83257575D01*
X213340926Y-83273839D01*
X213340926Y-83273838D01*
X213801960Y-83734872D01*
X212598464Y-84938368D01*
X212137430Y-84477334D01*
X212137431Y-84477334D01*
X212049049Y-84388952D01*
X212049044Y-84388946D01*
X212032780Y-84372682D01*
X212032779Y-84372682D01*
X211571745Y-83911648D01*
X211571746Y-83911648D01*
X211555482Y-83895384D01*
X211555476Y-83895379D01*
X211467094Y-83806997D01*
X211467093Y-83806997D01*
X211006059Y-83345963D01*
X211006060Y-83345963D01*
X210901409Y-83241312D01*
X210901408Y-83241312D01*
X210440374Y-82780278D01*
X210440375Y-82780278D01*
X210335723Y-82675626D01*
X210335722Y-82675626D01*
X209874688Y-82214592D01*
X209874689Y-82214592D01*
X209770038Y-82109941D01*
X209770037Y-82109941D01*
X209309003Y-81648907D01*
X209309004Y-81648907D01*
X209220622Y-81560525D01*
X209220617Y-81560519D01*
X209204353Y-81544255D01*
X209204352Y-81544255D01*
X208743318Y-81083221D01*
X208743319Y-81083221D01*
X208727055Y-81066957D01*
X208727049Y-81066952D01*
X208638667Y-80978570D01*
X208638666Y-80978570D01*
X208177632Y-80517536D01*
X209381128Y-79314040D01*
X209842162Y-79775074D01*
X209842162Y-79775074D01*
G37*
G36*
X219812368Y-80517536D02*
G01*
X219351334Y-80978570D01*
X219246682Y-81083221D01*
X218785648Y-81544255D01*
X218680997Y-81648907D01*
X216522907Y-83806997D01*
X216418255Y-83911648D01*
X215957221Y-84372682D01*
X215852570Y-84477334D01*
X215391536Y-84938368D01*
X214188040Y-83734872D01*
X214649074Y-83273838D01*
X214649075Y-83273839D01*
X214665339Y-83257575D01*
X214665348Y-83257564D01*
X214753726Y-83169187D01*
X214753725Y-83169186D01*
X215214759Y-82708152D01*
X215214760Y-82708153D01*
X215303137Y-82619775D01*
X215303148Y-82619766D01*
X215319412Y-82603502D01*
X215319411Y-82603501D01*
X215780445Y-82142467D01*
X215780446Y-82142468D01*
X215868833Y-82054080D01*
X215885097Y-82037817D01*
X215885096Y-82037816D01*
X216346130Y-81576782D01*
X216346131Y-81576783D01*
X216450783Y-81472131D01*
X216450782Y-81472130D01*
X216911816Y-81011096D01*
X216911817Y-81011097D01*
X217000204Y-80922709D01*
X217016468Y-80906446D01*
X217016467Y-80906445D01*
X217477501Y-80445411D01*
X217477502Y-80445412D01*
X217493766Y-80429148D01*
X217493775Y-80429137D01*
X217582153Y-80340760D01*
X217582152Y-80340759D01*
X218043186Y-79879725D01*
X218043187Y-79879726D01*
X218131564Y-79791348D01*
X218131575Y-79791339D01*
X218147839Y-79775075D01*
X218147838Y-79775074D01*
X218608872Y-79314040D01*
X219812368Y-80517536D01*
X219812368Y-80517536D01*
G37*
G36*
X191901673Y-82990538D02*
G01*
X192029249Y-83043382D01*
X192144059Y-83120095D01*
X192241705Y-83217741D01*
X192318418Y-83332551D01*
X192371262Y-83460127D01*
X192398200Y-83595556D01*
X192398200Y-83733644D01*
X192371262Y-83869073D01*
X192318418Y-83996649D01*
X192241705Y-84111459D01*
X192144059Y-84209105D01*
X192029249Y-84285818D01*
X191901673Y-84338662D01*
X191766244Y-84365600D01*
X191628156Y-84365600D01*
X191492727Y-84338662D01*
X191365151Y-84285818D01*
X191250341Y-84209105D01*
X191152695Y-84111459D01*
X191075982Y-83996649D01*
X191023138Y-83869073D01*
X190996200Y-83733644D01*
X190996200Y-83595556D01*
X191023138Y-83460127D01*
X191075982Y-83332551D01*
X191152695Y-83217741D01*
X191250341Y-83120095D01*
X191365151Y-83043382D01*
X191492727Y-82990538D01*
X191628156Y-82963600D01*
X191766244Y-82963600D01*
X191901673Y-82990538D01*
X191901673Y-82990538D01*
G37*
G36*
X219395000Y-84033000D02*
G01*
X217993000Y-84033000D01*
X217993000Y-83231000D01*
X219395000Y-83231000D01*
X219395000Y-84033000D01*
X219395000Y-84033000D01*
G37*
G36*
X221427000Y-84033000D02*
G01*
X220025000Y-84033000D01*
X220025000Y-83231000D01*
X221427000Y-83231000D01*
X221427000Y-84033000D01*
X221427000Y-84033000D01*
G37*
G36*
X195545059Y-82335860D02*
G01*
X195681732Y-82392472D01*
X195804735Y-82474660D01*
X195909340Y-82579265D01*
X195909341Y-82579267D01*
X195991529Y-82702270D01*
X196048140Y-82838941D01*
X196077000Y-82984032D01*
X196077000Y-83131968D01*
X196059939Y-83217741D01*
X196048140Y-83277059D01*
X195991528Y-83413732D01*
X195909340Y-83536735D01*
X195804735Y-83641340D01*
X195681732Y-83723528D01*
X195681731Y-83723529D01*
X195681730Y-83723529D01*
X195545059Y-83780140D01*
X195399968Y-83809000D01*
X195252032Y-83809000D01*
X195106941Y-83780140D01*
X194970270Y-83723529D01*
X194970269Y-83723529D01*
X194970268Y-83723528D01*
X194847265Y-83641340D01*
X194742660Y-83536735D01*
X194660472Y-83413732D01*
X194603860Y-83277059D01*
X194592061Y-83217741D01*
X194575000Y-83131968D01*
X194575000Y-82984032D01*
X194603860Y-82838941D01*
X194660471Y-82702270D01*
X194742659Y-82579267D01*
X194742660Y-82579265D01*
X194847265Y-82474660D01*
X194970268Y-82392472D01*
X195106941Y-82335860D01*
X195252032Y-82307000D01*
X195399968Y-82307000D01*
X195545059Y-82335860D01*
X195545059Y-82335860D01*
G37*
G36*
X198085059Y-82335860D02*
G01*
X198221732Y-82392472D01*
X198344735Y-82474660D01*
X198449340Y-82579265D01*
X198449341Y-82579267D01*
X198531529Y-82702270D01*
X198588140Y-82838941D01*
X198617000Y-82984032D01*
X198617000Y-83131968D01*
X198599939Y-83217741D01*
X198588140Y-83277059D01*
X198531528Y-83413732D01*
X198449340Y-83536735D01*
X198344735Y-83641340D01*
X198221732Y-83723528D01*
X198221731Y-83723529D01*
X198221730Y-83723529D01*
X198085059Y-83780140D01*
X197939968Y-83809000D01*
X197792032Y-83809000D01*
X197646941Y-83780140D01*
X197510270Y-83723529D01*
X197510269Y-83723529D01*
X197510268Y-83723528D01*
X197387265Y-83641340D01*
X197282660Y-83536735D01*
X197200472Y-83413732D01*
X197143860Y-83277059D01*
X197132061Y-83217741D01*
X197115000Y-83131968D01*
X197115000Y-82984032D01*
X197143860Y-82838941D01*
X197200471Y-82702270D01*
X197282659Y-82579267D01*
X197282660Y-82579265D01*
X197387265Y-82474660D01*
X197510268Y-82392472D01*
X197646941Y-82335860D01*
X197792032Y-82307000D01*
X197939968Y-82307000D01*
X198085059Y-82335860D01*
X198085059Y-82335860D01*
G37*
G36*
X204181059Y-82335860D02*
G01*
X204317732Y-82392472D01*
X204440735Y-82474660D01*
X204545340Y-82579265D01*
X204545341Y-82579267D01*
X204627529Y-82702270D01*
X204684140Y-82838941D01*
X204713000Y-82984032D01*
X204713000Y-83131968D01*
X204695939Y-83217741D01*
X204684140Y-83277059D01*
X204627528Y-83413732D01*
X204545340Y-83536735D01*
X204440735Y-83641340D01*
X204317732Y-83723528D01*
X204317731Y-83723529D01*
X204317730Y-83723529D01*
X204181059Y-83780140D01*
X204035968Y-83809000D01*
X203888032Y-83809000D01*
X203742941Y-83780140D01*
X203606270Y-83723529D01*
X203606269Y-83723529D01*
X203606268Y-83723528D01*
X203483265Y-83641340D01*
X203378660Y-83536735D01*
X203296472Y-83413732D01*
X203239860Y-83277059D01*
X203228061Y-83217741D01*
X203211000Y-83131968D01*
X203211000Y-82984032D01*
X203239860Y-82838941D01*
X203296471Y-82702270D01*
X203378659Y-82579267D01*
X203378660Y-82579265D01*
X203483265Y-82474660D01*
X203606268Y-82392472D01*
X203742941Y-82335860D01*
X203888032Y-82307000D01*
X204035968Y-82307000D01*
X204181059Y-82335860D01*
X204181059Y-82335860D01*
G37*
G36*
X201641059Y-82335860D02*
G01*
X201777732Y-82392472D01*
X201900735Y-82474660D01*
X202005340Y-82579265D01*
X202005341Y-82579267D01*
X202087529Y-82702270D01*
X202144140Y-82838941D01*
X202173000Y-82984032D01*
X202173000Y-83131968D01*
X202155939Y-83217741D01*
X202144140Y-83277059D01*
X202087528Y-83413732D01*
X202005340Y-83536735D01*
X201900735Y-83641340D01*
X201777732Y-83723528D01*
X201777731Y-83723529D01*
X201777730Y-83723529D01*
X201641059Y-83780140D01*
X201495968Y-83809000D01*
X201348032Y-83809000D01*
X201202941Y-83780140D01*
X201066270Y-83723529D01*
X201066269Y-83723529D01*
X201066268Y-83723528D01*
X200943265Y-83641340D01*
X200838660Y-83536735D01*
X200756472Y-83413732D01*
X200699860Y-83277059D01*
X200688061Y-83217741D01*
X200671000Y-83131968D01*
X200671000Y-82984032D01*
X200699860Y-82838941D01*
X200756471Y-82702270D01*
X200838659Y-82579267D01*
X200838660Y-82579265D01*
X200943265Y-82474660D01*
X201066268Y-82392472D01*
X201202941Y-82335860D01*
X201348032Y-82307000D01*
X201495968Y-82307000D01*
X201641059Y-82335860D01*
X201641059Y-82335860D01*
G37*
G36*
X189361673Y-81720538D02*
G01*
X189489249Y-81773382D01*
X189604059Y-81850095D01*
X189701705Y-81947741D01*
X189778418Y-82062551D01*
X189831262Y-82190127D01*
X189858200Y-82325556D01*
X189858200Y-82463644D01*
X189831262Y-82599073D01*
X189778418Y-82726649D01*
X189701705Y-82841459D01*
X189604059Y-82939105D01*
X189489249Y-83015818D01*
X189361673Y-83068662D01*
X189226244Y-83095600D01*
X189088156Y-83095600D01*
X188952727Y-83068662D01*
X188825151Y-83015818D01*
X188710341Y-82939105D01*
X188612695Y-82841459D01*
X188535982Y-82726649D01*
X188483138Y-82599073D01*
X188456200Y-82463644D01*
X188456200Y-82325556D01*
X188483138Y-82190127D01*
X188535982Y-82062551D01*
X188612695Y-81947741D01*
X188710341Y-81850095D01*
X188825151Y-81773382D01*
X188952727Y-81720538D01*
X189088156Y-81693600D01*
X189226244Y-81693600D01*
X189361673Y-81720538D01*
X189361673Y-81720538D01*
G37*
G36*
X191901673Y-80450538D02*
G01*
X192029249Y-80503382D01*
X192144059Y-80580095D01*
X192241705Y-80677741D01*
X192318418Y-80792551D01*
X192371262Y-80920127D01*
X192398200Y-81055556D01*
X192398200Y-81193644D01*
X192371262Y-81329073D01*
X192318418Y-81456649D01*
X192241705Y-81571459D01*
X192144059Y-81669105D01*
X192029249Y-81745818D01*
X191901673Y-81798662D01*
X191766244Y-81825600D01*
X191628156Y-81825600D01*
X191492727Y-81798662D01*
X191365151Y-81745818D01*
X191250341Y-81669105D01*
X191152695Y-81571459D01*
X191075982Y-81456649D01*
X191023138Y-81329073D01*
X190996200Y-81193644D01*
X190996200Y-81055556D01*
X191023138Y-80920127D01*
X191075982Y-80792551D01*
X191152695Y-80677741D01*
X191250341Y-80580095D01*
X191365151Y-80503382D01*
X191492727Y-80450538D01*
X191628156Y-80423600D01*
X191766244Y-80423600D01*
X191901673Y-80450538D01*
X191901673Y-80450538D01*
G37*
G36*
X204158330Y-79791339D02*
G01*
X204181059Y-79795860D01*
X204317732Y-79852472D01*
X204440735Y-79934660D01*
X204545340Y-80039265D01*
X204545341Y-80039267D01*
X204627529Y-80162270D01*
X204684140Y-80298941D01*
X204713000Y-80444032D01*
X204713000Y-80591968D01*
X204695939Y-80677741D01*
X204684140Y-80737059D01*
X204627528Y-80873732D01*
X204545340Y-80996735D01*
X204440735Y-81101340D01*
X204317732Y-81183528D01*
X204317731Y-81183529D01*
X204317730Y-81183529D01*
X204181059Y-81240140D01*
X204035968Y-81269000D01*
X203888032Y-81269000D01*
X203742941Y-81240140D01*
X203606270Y-81183529D01*
X203606269Y-81183529D01*
X203606268Y-81183528D01*
X203483265Y-81101340D01*
X203378660Y-80996735D01*
X203296472Y-80873732D01*
X203239860Y-80737059D01*
X203228061Y-80677741D01*
X203211000Y-80591968D01*
X203211000Y-80444032D01*
X203239860Y-80298941D01*
X203296471Y-80162270D01*
X203378659Y-80039267D01*
X203378660Y-80039265D01*
X203483265Y-79934660D01*
X203606268Y-79852472D01*
X203742941Y-79795860D01*
X203765670Y-79791339D01*
X203888032Y-79767000D01*
X204035968Y-79767000D01*
X204158330Y-79791339D01*
X204158330Y-79791339D01*
G37*
G36*
X198062330Y-79791339D02*
G01*
X198085059Y-79795860D01*
X198221732Y-79852472D01*
X198344735Y-79934660D01*
X198449340Y-80039265D01*
X198449341Y-80039267D01*
X198531529Y-80162270D01*
X198588140Y-80298941D01*
X198617000Y-80444032D01*
X198617000Y-80591968D01*
X198599939Y-80677741D01*
X198588140Y-80737059D01*
X198531528Y-80873732D01*
X198449340Y-80996735D01*
X198344735Y-81101340D01*
X198221732Y-81183528D01*
X198221731Y-81183529D01*
X198221730Y-81183529D01*
X198085059Y-81240140D01*
X197939968Y-81269000D01*
X197792032Y-81269000D01*
X197646941Y-81240140D01*
X197510270Y-81183529D01*
X197510269Y-81183529D01*
X197510268Y-81183528D01*
X197387265Y-81101340D01*
X197282660Y-80996735D01*
X197200472Y-80873732D01*
X197143860Y-80737059D01*
X197132061Y-80677741D01*
X197115000Y-80591968D01*
X197115000Y-80444032D01*
X197143860Y-80298941D01*
X197200471Y-80162270D01*
X197282659Y-80039267D01*
X197282660Y-80039265D01*
X197387265Y-79934660D01*
X197510268Y-79852472D01*
X197646941Y-79795860D01*
X197669670Y-79791339D01*
X197792032Y-79767000D01*
X197939968Y-79767000D01*
X198062330Y-79791339D01*
X198062330Y-79791339D01*
G37*
G36*
X195522330Y-79791339D02*
G01*
X195545059Y-79795860D01*
X195681732Y-79852472D01*
X195804735Y-79934660D01*
X195909340Y-80039265D01*
X195909341Y-80039267D01*
X195991529Y-80162270D01*
X196048140Y-80298941D01*
X196077000Y-80444032D01*
X196077000Y-80591968D01*
X196059939Y-80677741D01*
X196048140Y-80737059D01*
X195991528Y-80873732D01*
X195909340Y-80996735D01*
X195804735Y-81101340D01*
X195681732Y-81183528D01*
X195681731Y-81183529D01*
X195681730Y-81183529D01*
X195545059Y-81240140D01*
X195399968Y-81269000D01*
X195252032Y-81269000D01*
X195106941Y-81240140D01*
X194970270Y-81183529D01*
X194970269Y-81183529D01*
X194970268Y-81183528D01*
X194847265Y-81101340D01*
X194742660Y-80996735D01*
X194660472Y-80873732D01*
X194603860Y-80737059D01*
X194592061Y-80677741D01*
X194575000Y-80591968D01*
X194575000Y-80444032D01*
X194603860Y-80298941D01*
X194660471Y-80162270D01*
X194742659Y-80039267D01*
X194742660Y-80039265D01*
X194847265Y-79934660D01*
X194970268Y-79852472D01*
X195106941Y-79795860D01*
X195129670Y-79791339D01*
X195252032Y-79767000D01*
X195399968Y-79767000D01*
X195522330Y-79791339D01*
X195522330Y-79791339D01*
G37*
G36*
X201618330Y-79791339D02*
G01*
X201641059Y-79795860D01*
X201777732Y-79852472D01*
X201900735Y-79934660D01*
X202005340Y-80039265D01*
X202005341Y-80039267D01*
X202087529Y-80162270D01*
X202144140Y-80298941D01*
X202173000Y-80444032D01*
X202173000Y-80591968D01*
X202155939Y-80677741D01*
X202144140Y-80737059D01*
X202087528Y-80873732D01*
X202005340Y-80996735D01*
X201900735Y-81101340D01*
X201777732Y-81183528D01*
X201777731Y-81183529D01*
X201777730Y-81183529D01*
X201641059Y-81240140D01*
X201495968Y-81269000D01*
X201348032Y-81269000D01*
X201202941Y-81240140D01*
X201066270Y-81183529D01*
X201066269Y-81183529D01*
X201066268Y-81183528D01*
X200943265Y-81101340D01*
X200838660Y-80996735D01*
X200756472Y-80873732D01*
X200699860Y-80737059D01*
X200688061Y-80677741D01*
X200671000Y-80591968D01*
X200671000Y-80444032D01*
X200699860Y-80298941D01*
X200756471Y-80162270D01*
X200838659Y-80039267D01*
X200838660Y-80039265D01*
X200943265Y-79934660D01*
X201066268Y-79852472D01*
X201202941Y-79795860D01*
X201225670Y-79791339D01*
X201348032Y-79767000D01*
X201495968Y-79767000D01*
X201618330Y-79791339D01*
X201618330Y-79791339D01*
G37*
G36*
X189361673Y-79180538D02*
G01*
X189489249Y-79233382D01*
X189604059Y-79310095D01*
X189701705Y-79407741D01*
X189778418Y-79522551D01*
X189831262Y-79650127D01*
X189858200Y-79785556D01*
X189858200Y-79923644D01*
X189831262Y-80059073D01*
X189778418Y-80186649D01*
X189701705Y-80301459D01*
X189604059Y-80399105D01*
X189489249Y-80475818D01*
X189361673Y-80528662D01*
X189226244Y-80555600D01*
X189088156Y-80555600D01*
X188952727Y-80528662D01*
X188825151Y-80475818D01*
X188710341Y-80399105D01*
X188612695Y-80301459D01*
X188535982Y-80186649D01*
X188483138Y-80059073D01*
X188456200Y-79923644D01*
X188456200Y-79785556D01*
X188483138Y-79650127D01*
X188535982Y-79522551D01*
X188612695Y-79407741D01*
X188710341Y-79310095D01*
X188825151Y-79233382D01*
X188952727Y-79180538D01*
X189088156Y-79153600D01*
X189226244Y-79153600D01*
X189361673Y-79180538D01*
X189361673Y-79180538D01*
G37*
G36*
X191901673Y-77910538D02*
G01*
X192029249Y-77963382D01*
X192144059Y-78040095D01*
X192241705Y-78137741D01*
X192318418Y-78252551D01*
X192371262Y-78380127D01*
X192398200Y-78515556D01*
X192398200Y-78653644D01*
X192371262Y-78789073D01*
X192318418Y-78916649D01*
X192241705Y-79031459D01*
X192144059Y-79129105D01*
X192029249Y-79205818D01*
X191901673Y-79258662D01*
X191766244Y-79285600D01*
X191628156Y-79285600D01*
X191492727Y-79258662D01*
X191365151Y-79205818D01*
X191250341Y-79129105D01*
X191152695Y-79031459D01*
X191075982Y-78916649D01*
X191023138Y-78789073D01*
X190996200Y-78653644D01*
X190996200Y-78515556D01*
X191023138Y-78380127D01*
X191075982Y-78252551D01*
X191152695Y-78137741D01*
X191250341Y-78040095D01*
X191365151Y-77963382D01*
X191492727Y-77910538D01*
X191628156Y-77883600D01*
X191766244Y-77883600D01*
X191901673Y-77910538D01*
X191901673Y-77910538D01*
G37*
G36*
X213801960Y-74507128D02*
G01*
X213324662Y-74984426D01*
X213236275Y-75072814D01*
X212775241Y-75533848D01*
X212686853Y-75622235D01*
X212209555Y-76099533D01*
X212121167Y-76187920D01*
X212104904Y-76204184D01*
X211078184Y-77230904D01*
X210989796Y-77319291D01*
X210973533Y-77335555D01*
X210496235Y-77812853D01*
X210407848Y-77901241D01*
X209946814Y-78362275D01*
X209858426Y-78450662D01*
X209381128Y-78927960D01*
X208177632Y-77724464D01*
X208638666Y-77263430D01*
X208638667Y-77263431D01*
X208727044Y-77175053D01*
X208727055Y-77175044D01*
X208743319Y-77158780D01*
X208743318Y-77158779D01*
X209204352Y-76697745D01*
X209204353Y-76697746D01*
X209220617Y-76681482D01*
X209220626Y-76681471D01*
X209309004Y-76593094D01*
X209309003Y-76593093D01*
X209770037Y-76132059D01*
X209770038Y-76132060D01*
X209874689Y-76027409D01*
X209874688Y-76027408D01*
X210335722Y-75566374D01*
X210335723Y-75566375D01*
X210440375Y-75461723D01*
X210440374Y-75461722D01*
X210901408Y-75000688D01*
X210901409Y-75000689D01*
X211006060Y-74896038D01*
X211006059Y-74896037D01*
X211467093Y-74435003D01*
X211467094Y-74435004D01*
X211555471Y-74346626D01*
X211555482Y-74346617D01*
X211571746Y-74330353D01*
X211571745Y-74330352D01*
X212032779Y-73869318D01*
X212032780Y-73869319D01*
X212049044Y-73853055D01*
X212049053Y-73853044D01*
X212137431Y-73764667D01*
X212137430Y-73764666D01*
X212598464Y-73303632D01*
X213801960Y-74507128D01*
X213801960Y-74507128D01*
G37*
G36*
X215852570Y-73764666D02*
G01*
X215852570Y-73764667D01*
X215940952Y-73853049D01*
X215940957Y-73853055D01*
X215957221Y-73869319D01*
X215957221Y-73869318D01*
X216418255Y-74330352D01*
X216418255Y-74330353D01*
X216434519Y-74346617D01*
X216434525Y-74346622D01*
X216522907Y-74435004D01*
X216522907Y-74435003D01*
X216983941Y-74896037D01*
X216983941Y-74896038D01*
X217088592Y-75000689D01*
X217088592Y-75000688D01*
X217549626Y-75461722D01*
X217549626Y-75461723D01*
X217654278Y-75566375D01*
X217654278Y-75566374D01*
X218115312Y-76027408D01*
X218115312Y-76027409D01*
X218219963Y-76132060D01*
X218219963Y-76132059D01*
X218680997Y-76593093D01*
X218680997Y-76593094D01*
X218769379Y-76681476D01*
X218769384Y-76681482D01*
X218785648Y-76697746D01*
X218785648Y-76697745D01*
X219246682Y-77158779D01*
X219246682Y-77158780D01*
X219262946Y-77175044D01*
X219262952Y-77175049D01*
X219351334Y-77263431D01*
X219351334Y-77263430D01*
X219812368Y-77724464D01*
X218608872Y-78927960D01*
X218147838Y-78466926D01*
X218147839Y-78466926D01*
X218131575Y-78450662D01*
X218131569Y-78450657D01*
X218043187Y-78362275D01*
X218043186Y-78362275D01*
X217582152Y-77901241D01*
X217582153Y-77901241D01*
X217493771Y-77812859D01*
X217493766Y-77812853D01*
X217477502Y-77796589D01*
X217477501Y-77796589D01*
X217016467Y-77335555D01*
X217016468Y-77335555D01*
X216911817Y-77230904D01*
X216911816Y-77230904D01*
X216450782Y-76769870D01*
X216450783Y-76769870D01*
X216346131Y-76665218D01*
X216346130Y-76665218D01*
X215885096Y-76204184D01*
X215885097Y-76204184D01*
X215780446Y-76099533D01*
X215780445Y-76099533D01*
X215319411Y-75638499D01*
X215319412Y-75638499D01*
X215303148Y-75622235D01*
X215303142Y-75622230D01*
X215214760Y-75533848D01*
X215214759Y-75533848D01*
X214753725Y-75072814D01*
X214753726Y-75072814D01*
X214665344Y-74984432D01*
X214665339Y-74984426D01*
X214649075Y-74968162D01*
X214649074Y-74968162D01*
X214188040Y-74507128D01*
X215391536Y-73303632D01*
X215852570Y-73764666D01*
X215852570Y-73764666D01*
G37*
G36*
X189361673Y-76640538D02*
G01*
X189489249Y-76693382D01*
X189604059Y-76770095D01*
X189701705Y-76867741D01*
X189778418Y-76982551D01*
X189831262Y-77110127D01*
X189858200Y-77245556D01*
X189858200Y-77383644D01*
X189831262Y-77519073D01*
X189778418Y-77646649D01*
X189701705Y-77761459D01*
X189604059Y-77859105D01*
X189489249Y-77935818D01*
X189361673Y-77988662D01*
X189226244Y-78015600D01*
X189088156Y-78015600D01*
X188952727Y-77988662D01*
X188825151Y-77935818D01*
X188710341Y-77859105D01*
X188612695Y-77761459D01*
X188535982Y-77646649D01*
X188483138Y-77519073D01*
X188456200Y-77383644D01*
X188456200Y-77245556D01*
X188483138Y-77110127D01*
X188535982Y-76982551D01*
X188612695Y-76867741D01*
X188710341Y-76770095D01*
X188825151Y-76693382D01*
X188952727Y-76640538D01*
X189088156Y-76613600D01*
X189226244Y-76613600D01*
X189361673Y-76640538D01*
X189361673Y-76640538D01*
G37*
G36*
X225339000Y-76989000D02*
G01*
X223987000Y-76989000D01*
X223987000Y-75887000D01*
X225339000Y-75887000D01*
X225339000Y-76989000D01*
X225339000Y-76989000D01*
G37*
G36*
X221266000Y-76889000D02*
G01*
X219764000Y-76889000D01*
X219764000Y-75587000D01*
X221266000Y-75587000D01*
X221266000Y-76889000D01*
X221266000Y-76889000D01*
G37*
G36*
X223466000Y-76889000D02*
G01*
X221964000Y-76889000D01*
X221964000Y-75587000D01*
X223466000Y-75587000D01*
X223466000Y-76889000D01*
X223466000Y-76889000D01*
G37*
G36*
X191901673Y-75370538D02*
G01*
X192029249Y-75423382D01*
X192144059Y-75500095D01*
X192241705Y-75597741D01*
X192318418Y-75712551D01*
X192371262Y-75840127D01*
X192398200Y-75975556D01*
X192398200Y-76113644D01*
X192371262Y-76249073D01*
X192318418Y-76376649D01*
X192241705Y-76491459D01*
X192144059Y-76589105D01*
X192029249Y-76665818D01*
X191901673Y-76718662D01*
X191766244Y-76745600D01*
X191628156Y-76745600D01*
X191492727Y-76718662D01*
X191365151Y-76665818D01*
X191250341Y-76589105D01*
X191152695Y-76491459D01*
X191075982Y-76376649D01*
X191023138Y-76249073D01*
X190996200Y-76113644D01*
X190996200Y-75975556D01*
X191023138Y-75840127D01*
X191075982Y-75712551D01*
X191152695Y-75597741D01*
X191250341Y-75500095D01*
X191365151Y-75423382D01*
X191492727Y-75370538D01*
X191628156Y-75343600D01*
X191766244Y-75343600D01*
X191901673Y-75370538D01*
X191901673Y-75370538D01*
G37*
G36*
X189361673Y-74100538D02*
G01*
X189489249Y-74153382D01*
X189604059Y-74230095D01*
X189701705Y-74327741D01*
X189778418Y-74442551D01*
X189831262Y-74570127D01*
X189858200Y-74705556D01*
X189858200Y-74843644D01*
X189831262Y-74979073D01*
X189778418Y-75106649D01*
X189701705Y-75221459D01*
X189604059Y-75319105D01*
X189489249Y-75395818D01*
X189361673Y-75448662D01*
X189226244Y-75475600D01*
X189088156Y-75475600D01*
X188952727Y-75448662D01*
X188825151Y-75395818D01*
X188710341Y-75319105D01*
X188612695Y-75221459D01*
X188535982Y-75106649D01*
X188483138Y-74979073D01*
X188456200Y-74843644D01*
X188456200Y-74705556D01*
X188483138Y-74570127D01*
X188535982Y-74442551D01*
X188612695Y-74327741D01*
X188710341Y-74230095D01*
X188825151Y-74153382D01*
X188952727Y-74100538D01*
X189088156Y-74073600D01*
X189226244Y-74073600D01*
X189361673Y-74100538D01*
X189361673Y-74100538D01*
G37*
G36*
X223466000Y-75289000D02*
G01*
X221964000Y-75289000D01*
X221964000Y-73987000D01*
X223466000Y-73987000D01*
X223466000Y-75289000D01*
X223466000Y-75289000D01*
G37*
G36*
X221266000Y-75289000D02*
G01*
X219764000Y-75289000D01*
X219764000Y-73987000D01*
X221266000Y-73987000D01*
X221266000Y-75289000D01*
X221266000Y-75289000D01*
G37*
G36*
X219319200Y-75058600D02*
G01*
X217967200Y-75058600D01*
X217967200Y-73956600D01*
X219319200Y-73956600D01*
X219319200Y-75058600D01*
X219319200Y-75058600D01*
G37*
G36*
X225339000Y-74989000D02*
G01*
X223987000Y-74989000D01*
X223987000Y-73887000D01*
X225339000Y-73887000D01*
X225339000Y-74989000D01*
X225339000Y-74989000D01*
G37*
G36*
X205953000Y-74234000D02*
G01*
X205151000Y-74234000D01*
X205151000Y-72832000D01*
X205953000Y-72832000D01*
X205953000Y-74234000D01*
X205953000Y-74234000D01*
G37*
G36*
X207853000Y-74234000D02*
G01*
X207051000Y-74234000D01*
X207051000Y-72832000D01*
X207853000Y-72832000D01*
X207853000Y-74234000D01*
X207853000Y-74234000D01*
G37*
G36*
X191901673Y-72830538D02*
G01*
X192029249Y-72883382D01*
X192144059Y-72960095D01*
X192241705Y-73057741D01*
X192318418Y-73172551D01*
X192371262Y-73300127D01*
X192398200Y-73435556D01*
X192398200Y-73573644D01*
X192371262Y-73709073D01*
X192318418Y-73836649D01*
X192241705Y-73951459D01*
X192144059Y-74049105D01*
X192029249Y-74125818D01*
X191901673Y-74178662D01*
X191766244Y-74205600D01*
X191628156Y-74205600D01*
X191492727Y-74178662D01*
X191365151Y-74125818D01*
X191250341Y-74049105D01*
X191152695Y-73951459D01*
X191075982Y-73836649D01*
X191023138Y-73709073D01*
X190996200Y-73573644D01*
X190996200Y-73435556D01*
X191023138Y-73300127D01*
X191075982Y-73172551D01*
X191152695Y-73057741D01*
X191250341Y-72960095D01*
X191365151Y-72883382D01*
X191492727Y-72830538D01*
X191628156Y-72803600D01*
X191766244Y-72803600D01*
X191901673Y-72830538D01*
X191901673Y-72830538D01*
G37*
G36*
X221166000Y-73447000D02*
G01*
X220064000Y-73447000D01*
X220064000Y-72095000D01*
X221166000Y-72095000D01*
X221166000Y-73447000D01*
X221166000Y-73447000D01*
G37*
G36*
X223166000Y-73447000D02*
G01*
X222064000Y-73447000D01*
X222064000Y-72095000D01*
X223166000Y-72095000D01*
X223166000Y-73447000D01*
X223166000Y-73447000D01*
G37*
G36*
X219319200Y-73058600D02*
G01*
X217967200Y-73058600D01*
X217967200Y-71956600D01*
X219319200Y-71956600D01*
X219319200Y-73058600D01*
X219319200Y-73058600D01*
G37*
G36*
X189361673Y-71560538D02*
G01*
X189489249Y-71613382D01*
X189604059Y-71690095D01*
X189701705Y-71787741D01*
X189778418Y-71902551D01*
X189831262Y-72030127D01*
X189858200Y-72165556D01*
X189858200Y-72303644D01*
X189831262Y-72439073D01*
X189778418Y-72566649D01*
X189701705Y-72681459D01*
X189604059Y-72779105D01*
X189489249Y-72855818D01*
X189361673Y-72908662D01*
X189226244Y-72935600D01*
X189088156Y-72935600D01*
X188952727Y-72908662D01*
X188825151Y-72855818D01*
X188710341Y-72779105D01*
X188612695Y-72681459D01*
X188535982Y-72566649D01*
X188483138Y-72439073D01*
X188456200Y-72303644D01*
X188456200Y-72165556D01*
X188483138Y-72030127D01*
X188535982Y-71902551D01*
X188612695Y-71787741D01*
X188710341Y-71690095D01*
X188825151Y-71613382D01*
X188952727Y-71560538D01*
X189088156Y-71533600D01*
X189226244Y-71533600D01*
X189361673Y-71560538D01*
X189361673Y-71560538D01*
G37*
G36*
X207853000Y-71694000D02*
G01*
X207051000Y-71694000D01*
X207051000Y-70292000D01*
X207853000Y-70292000D01*
X207853000Y-71694000D01*
X207853000Y-71694000D01*
G37*
G36*
X205953000Y-71694000D02*
G01*
X205151000Y-71694000D01*
X205151000Y-70292000D01*
X205953000Y-70292000D01*
X205953000Y-71694000D01*
X205953000Y-71694000D01*
G37*
G36*
X191901673Y-70290538D02*
G01*
X192029249Y-70343382D01*
X192144059Y-70420095D01*
X192241705Y-70517741D01*
X192318418Y-70632551D01*
X192371262Y-70760127D01*
X192398200Y-70895556D01*
X192398200Y-71033644D01*
X192371262Y-71169073D01*
X192318418Y-71296649D01*
X192241705Y-71411459D01*
X192144059Y-71509105D01*
X192029249Y-71585818D01*
X191901673Y-71638662D01*
X191766244Y-71665600D01*
X191628156Y-71665600D01*
X191492727Y-71638662D01*
X191365151Y-71585818D01*
X191250341Y-71509105D01*
X191152695Y-71411459D01*
X191075982Y-71296649D01*
X191023138Y-71169073D01*
X190996200Y-71033644D01*
X190996200Y-70895556D01*
X191023138Y-70760127D01*
X191075982Y-70632551D01*
X191152695Y-70517741D01*
X191250341Y-70420095D01*
X191365151Y-70343382D01*
X191492727Y-70290538D01*
X191628156Y-70263600D01*
X191766244Y-70263600D01*
X191901673Y-70290538D01*
X191901673Y-70290538D01*
G37*
G36*
X204316000Y-71644000D02*
G01*
X203014000Y-71644000D01*
X203014000Y-70342000D01*
X204316000Y-70342000D01*
X204316000Y-71644000D01*
X204316000Y-71644000D01*
G37*
G36*
X202116000Y-71644000D02*
G01*
X200814000Y-71644000D01*
X200814000Y-70342000D01*
X202116000Y-70342000D01*
X202116000Y-71644000D01*
X202116000Y-71644000D01*
G37*
G36*
X189361673Y-69020538D02*
G01*
X189489249Y-69073382D01*
X189604059Y-69150095D01*
X189701705Y-69247741D01*
X189778418Y-69362551D01*
X189831262Y-69490127D01*
X189858200Y-69625556D01*
X189858200Y-69763644D01*
X189831262Y-69899073D01*
X189778418Y-70026649D01*
X189701705Y-70141459D01*
X189604059Y-70239105D01*
X189489249Y-70315818D01*
X189361673Y-70368662D01*
X189226244Y-70395600D01*
X189088156Y-70395600D01*
X188952727Y-70368662D01*
X188825151Y-70315818D01*
X188710341Y-70239105D01*
X188612695Y-70141459D01*
X188535982Y-70026649D01*
X188483138Y-69899073D01*
X188456200Y-69763644D01*
X188456200Y-69625556D01*
X188483138Y-69490127D01*
X188535982Y-69362551D01*
X188612695Y-69247741D01*
X188710341Y-69150095D01*
X188825151Y-69073382D01*
X188952727Y-69020538D01*
X189088156Y-68993600D01*
X189226244Y-68993600D01*
X189361673Y-69020538D01*
X189361673Y-69020538D01*
G37*
G36*
X207853000Y-69281000D02*
G01*
X207051000Y-69281000D01*
X207051000Y-67879000D01*
X207853000Y-67879000D01*
X207853000Y-69281000D01*
X207853000Y-69281000D01*
G37*
G36*
X205953000Y-69281000D02*
G01*
X205151000Y-69281000D01*
X205151000Y-67879000D01*
X205953000Y-67879000D01*
X205953000Y-69281000D01*
X205953000Y-69281000D01*
G37*
G36*
X202073000Y-69231000D02*
G01*
X200771000Y-69231000D01*
X200771000Y-67929000D01*
X202073000Y-67929000D01*
X202073000Y-69231000D01*
X202073000Y-69231000D01*
G37*
G36*
X204273000Y-69231000D02*
G01*
X202971000Y-69231000D01*
X202971000Y-67929000D01*
X204273000Y-67929000D01*
X204273000Y-69231000D01*
X204273000Y-69231000D01*
G37*
G36*
X191901673Y-67750538D02*
G01*
X192029249Y-67803382D01*
X192144059Y-67880095D01*
X192241705Y-67977741D01*
X192318418Y-68092551D01*
X192371262Y-68220127D01*
X192398200Y-68355556D01*
X192398200Y-68493644D01*
X192371262Y-68629073D01*
X192318418Y-68756649D01*
X192241705Y-68871459D01*
X192144059Y-68969105D01*
X192029249Y-69045818D01*
X191901673Y-69098662D01*
X191766244Y-69125600D01*
X191628156Y-69125600D01*
X191492727Y-69098662D01*
X191365151Y-69045818D01*
X191250341Y-68969105D01*
X191152695Y-68871459D01*
X191075982Y-68756649D01*
X191023138Y-68629073D01*
X190996200Y-68493644D01*
X190996200Y-68355556D01*
X191023138Y-68220127D01*
X191075982Y-68092551D01*
X191152695Y-67977741D01*
X191250341Y-67880095D01*
X191365151Y-67803382D01*
X191492727Y-67750538D01*
X191628156Y-67723600D01*
X191766244Y-67723600D01*
X191901673Y-67750538D01*
X191901673Y-67750538D01*
G37*
G36*
X189361673Y-66480538D02*
G01*
X189489249Y-66533382D01*
X189604059Y-66610095D01*
X189701705Y-66707741D01*
X189778418Y-66822551D01*
X189831262Y-66950127D01*
X189858200Y-67085556D01*
X189858200Y-67223644D01*
X189831262Y-67359073D01*
X189778418Y-67486649D01*
X189701705Y-67601459D01*
X189604059Y-67699105D01*
X189489249Y-67775818D01*
X189361673Y-67828662D01*
X189226244Y-67855600D01*
X189088156Y-67855600D01*
X188952727Y-67828662D01*
X188825151Y-67775818D01*
X188710341Y-67699105D01*
X188612695Y-67601459D01*
X188535982Y-67486649D01*
X188483138Y-67359073D01*
X188456200Y-67223644D01*
X188456200Y-67085556D01*
X188483138Y-66950127D01*
X188535982Y-66822551D01*
X188612695Y-66707741D01*
X188710341Y-66610095D01*
X188825151Y-66533382D01*
X188952727Y-66480538D01*
X189088156Y-66453600D01*
X189226244Y-66453600D01*
X189361673Y-66480538D01*
X189361673Y-66480538D01*
G37*
G36*
X191901673Y-65210538D02*
G01*
X192029249Y-65263382D01*
X192144059Y-65340095D01*
X192241705Y-65437741D01*
X192318418Y-65552551D01*
X192371262Y-65680127D01*
X192398200Y-65815556D01*
X192398200Y-65953644D01*
X192371262Y-66089073D01*
X192318418Y-66216649D01*
X192241705Y-66331459D01*
X192144059Y-66429105D01*
X192029249Y-66505818D01*
X191901673Y-66558662D01*
X191766244Y-66585600D01*
X191628156Y-66585600D01*
X191492727Y-66558662D01*
X191365151Y-66505818D01*
X191250341Y-66429105D01*
X191152695Y-66331459D01*
X191075982Y-66216649D01*
X191023138Y-66089073D01*
X190996200Y-65953644D01*
X190996200Y-65815556D01*
X191023138Y-65680127D01*
X191075982Y-65552551D01*
X191152695Y-65437741D01*
X191250341Y-65340095D01*
X191365151Y-65263382D01*
X191492727Y-65210538D01*
X191628156Y-65183600D01*
X191766244Y-65183600D01*
X191901673Y-65210538D01*
X191901673Y-65210538D01*
G37*
M02*
