G04 #@! TF.GenerationSoftware,KiCad,Pcbnew,5.1.4-e60b266~84~ubuntu18.04.1*
G04 #@! TF.CreationDate,2019-12-14T18:51:20-05:00*
G04 #@! TF.ProjectId,dashboard_MKV_ewan,64617368-626f-4617-9264-5f4d4b565f65,rev?*
G04 #@! TF.SameCoordinates,Original*
G04 #@! TF.FileFunction,Paste,Top*
G04 #@! TF.FilePolarity,Positive*
%FSLAX46Y46*%
G04 Gerber Fmt 4.6, Leading zero omitted, Abs format (unit mm)*
G04 Created by KiCad (PCBNEW 5.1.4-e60b266~84~ubuntu18.04.1) date 2019-12-14 18:51:20*
%MOMM*%
%LPD*%
G04 APERTURE LIST*
%ADD10R,1.550000X0.600000*%
%ADD11R,1.300000X0.700000*%
%ADD12C,0.550000*%
%ADD13C,0.100000*%
%ADD14R,3.500000X1.780000*%
%ADD15R,1.000000X1.250000*%
%ADD16R,2.500000X0.900000*%
%ADD17R,2.000000X1.200000*%
%ADD18R,3.200000X1.000000*%
%ADD19R,1.060000X0.650000*%
%ADD20R,1.600000X1.000000*%
%ADD21R,1.250000X1.000000*%
%ADD22R,1.778000X2.159000*%
%ADD23R,1.200000X1.200000*%
%ADD24C,0.875000*%
%ADD25R,0.900000X0.800000*%
%ADD26R,0.700000X1.300000*%
G04 APERTURE END LIST*
D10*
X202344000Y-77724000D03*
X202344000Y-76454000D03*
X202344000Y-75184000D03*
X202344000Y-73914000D03*
X196944000Y-73914000D03*
X196944000Y-75184000D03*
X196944000Y-76454000D03*
X196944000Y-77724000D03*
D11*
X194564000Y-76012000D03*
X194564000Y-77912000D03*
D12*
X212334695Y-72230897D03*
D13*
G36*
X211574555Y-71859666D02*
G01*
X211963464Y-71470757D01*
X213094835Y-72602128D01*
X212705926Y-72991037D01*
X211574555Y-71859666D01*
X211574555Y-71859666D01*
G37*
D12*
X211769010Y-72796583D03*
D13*
G36*
X211008870Y-72425352D02*
G01*
X211397779Y-72036443D01*
X212529150Y-73167814D01*
X212140241Y-73556723D01*
X211008870Y-72425352D01*
X211008870Y-72425352D01*
G37*
D12*
X211203324Y-73362268D03*
D13*
G36*
X210443184Y-72991037D02*
G01*
X210832093Y-72602128D01*
X211963464Y-73733499D01*
X211574555Y-74122408D01*
X210443184Y-72991037D01*
X210443184Y-72991037D01*
G37*
D12*
X210637639Y-73927953D03*
D13*
G36*
X209877499Y-73556722D02*
G01*
X210266408Y-73167813D01*
X211397779Y-74299184D01*
X211008870Y-74688093D01*
X209877499Y-73556722D01*
X209877499Y-73556722D01*
G37*
D12*
X210071953Y-74493639D03*
D13*
G36*
X209311813Y-74122408D02*
G01*
X209700722Y-73733499D01*
X210832093Y-74864870D01*
X210443184Y-75253779D01*
X209311813Y-74122408D01*
X209311813Y-74122408D01*
G37*
D12*
X209506268Y-75059324D03*
D13*
G36*
X208746128Y-74688093D02*
G01*
X209135037Y-74299184D01*
X210266408Y-75430555D01*
X209877499Y-75819464D01*
X208746128Y-74688093D01*
X208746128Y-74688093D01*
G37*
D12*
X208940583Y-75625010D03*
D13*
G36*
X208180443Y-75253779D02*
G01*
X208569352Y-74864870D01*
X209700723Y-75996241D01*
X209311814Y-76385150D01*
X208180443Y-75253779D01*
X208180443Y-75253779D01*
G37*
D12*
X208374897Y-76190695D03*
D13*
G36*
X207614757Y-75819464D02*
G01*
X208003666Y-75430555D01*
X209135037Y-76561926D01*
X208746128Y-76950835D01*
X207614757Y-75819464D01*
X207614757Y-75819464D01*
G37*
D12*
X208374897Y-78241305D03*
D13*
G36*
X208003666Y-79001445D02*
G01*
X207614757Y-78612536D01*
X208746128Y-77481165D01*
X209135037Y-77870074D01*
X208003666Y-79001445D01*
X208003666Y-79001445D01*
G37*
D12*
X208940583Y-78806990D03*
D13*
G36*
X208569352Y-79567130D02*
G01*
X208180443Y-79178221D01*
X209311814Y-78046850D01*
X209700723Y-78435759D01*
X208569352Y-79567130D01*
X208569352Y-79567130D01*
G37*
D12*
X209506268Y-79372676D03*
D13*
G36*
X209135037Y-80132816D02*
G01*
X208746128Y-79743907D01*
X209877499Y-78612536D01*
X210266408Y-79001445D01*
X209135037Y-80132816D01*
X209135037Y-80132816D01*
G37*
D12*
X210071953Y-79938361D03*
D13*
G36*
X209700722Y-80698501D02*
G01*
X209311813Y-80309592D01*
X210443184Y-79178221D01*
X210832093Y-79567130D01*
X209700722Y-80698501D01*
X209700722Y-80698501D01*
G37*
D12*
X210637639Y-80504047D03*
D13*
G36*
X210266408Y-81264187D02*
G01*
X209877499Y-80875278D01*
X211008870Y-79743907D01*
X211397779Y-80132816D01*
X210266408Y-81264187D01*
X210266408Y-81264187D01*
G37*
D12*
X211203324Y-81069732D03*
D13*
G36*
X210832093Y-81829872D02*
G01*
X210443184Y-81440963D01*
X211574555Y-80309592D01*
X211963464Y-80698501D01*
X210832093Y-81829872D01*
X210832093Y-81829872D01*
G37*
D12*
X211769010Y-81635417D03*
D13*
G36*
X211397779Y-82395557D02*
G01*
X211008870Y-82006648D01*
X212140241Y-80875277D01*
X212529150Y-81264186D01*
X211397779Y-82395557D01*
X211397779Y-82395557D01*
G37*
D12*
X212334695Y-82201103D03*
D13*
G36*
X211963464Y-82961243D02*
G01*
X211574555Y-82572334D01*
X212705926Y-81440963D01*
X213094835Y-81829872D01*
X211963464Y-82961243D01*
X211963464Y-82961243D01*
G37*
D12*
X214385305Y-82201103D03*
D13*
G36*
X213625165Y-81829872D02*
G01*
X214014074Y-81440963D01*
X215145445Y-82572334D01*
X214756536Y-82961243D01*
X213625165Y-81829872D01*
X213625165Y-81829872D01*
G37*
D12*
X214950990Y-81635417D03*
D13*
G36*
X214190850Y-81264186D02*
G01*
X214579759Y-80875277D01*
X215711130Y-82006648D01*
X215322221Y-82395557D01*
X214190850Y-81264186D01*
X214190850Y-81264186D01*
G37*
D12*
X215516676Y-81069732D03*
D13*
G36*
X214756536Y-80698501D02*
G01*
X215145445Y-80309592D01*
X216276816Y-81440963D01*
X215887907Y-81829872D01*
X214756536Y-80698501D01*
X214756536Y-80698501D01*
G37*
D12*
X216082361Y-80504047D03*
D13*
G36*
X215322221Y-80132816D02*
G01*
X215711130Y-79743907D01*
X216842501Y-80875278D01*
X216453592Y-81264187D01*
X215322221Y-80132816D01*
X215322221Y-80132816D01*
G37*
D12*
X216648047Y-79938361D03*
D13*
G36*
X215887907Y-79567130D02*
G01*
X216276816Y-79178221D01*
X217408187Y-80309592D01*
X217019278Y-80698501D01*
X215887907Y-79567130D01*
X215887907Y-79567130D01*
G37*
D12*
X217213732Y-79372676D03*
D13*
G36*
X216453592Y-79001445D02*
G01*
X216842501Y-78612536D01*
X217973872Y-79743907D01*
X217584963Y-80132816D01*
X216453592Y-79001445D01*
X216453592Y-79001445D01*
G37*
D12*
X217779417Y-78806990D03*
D13*
G36*
X217019277Y-78435759D02*
G01*
X217408186Y-78046850D01*
X218539557Y-79178221D01*
X218150648Y-79567130D01*
X217019277Y-78435759D01*
X217019277Y-78435759D01*
G37*
D12*
X218345103Y-78241305D03*
D13*
G36*
X217584963Y-77870074D02*
G01*
X217973872Y-77481165D01*
X219105243Y-78612536D01*
X218716334Y-79001445D01*
X217584963Y-77870074D01*
X217584963Y-77870074D01*
G37*
D12*
X218345103Y-76190695D03*
D13*
G36*
X217973872Y-76950835D02*
G01*
X217584963Y-76561926D01*
X218716334Y-75430555D01*
X219105243Y-75819464D01*
X217973872Y-76950835D01*
X217973872Y-76950835D01*
G37*
D12*
X217779417Y-75625010D03*
D13*
G36*
X217408186Y-76385150D02*
G01*
X217019277Y-75996241D01*
X218150648Y-74864870D01*
X218539557Y-75253779D01*
X217408186Y-76385150D01*
X217408186Y-76385150D01*
G37*
D12*
X217213732Y-75059324D03*
D13*
G36*
X216842501Y-75819464D02*
G01*
X216453592Y-75430555D01*
X217584963Y-74299184D01*
X217973872Y-74688093D01*
X216842501Y-75819464D01*
X216842501Y-75819464D01*
G37*
D12*
X216648047Y-74493639D03*
D13*
G36*
X216276816Y-75253779D02*
G01*
X215887907Y-74864870D01*
X217019278Y-73733499D01*
X217408187Y-74122408D01*
X216276816Y-75253779D01*
X216276816Y-75253779D01*
G37*
D12*
X216082361Y-73927953D03*
D13*
G36*
X215711130Y-74688093D02*
G01*
X215322221Y-74299184D01*
X216453592Y-73167813D01*
X216842501Y-73556722D01*
X215711130Y-74688093D01*
X215711130Y-74688093D01*
G37*
D12*
X215516676Y-73362268D03*
D13*
G36*
X215145445Y-74122408D02*
G01*
X214756536Y-73733499D01*
X215887907Y-72602128D01*
X216276816Y-72991037D01*
X215145445Y-74122408D01*
X215145445Y-74122408D01*
G37*
D12*
X214950990Y-72796583D03*
D13*
G36*
X214579759Y-73556723D02*
G01*
X214190850Y-73167814D01*
X215322221Y-72036443D01*
X215711130Y-72425352D01*
X214579759Y-73556723D01*
X214579759Y-73556723D01*
G37*
D12*
X214385305Y-72230897D03*
D13*
G36*
X214014074Y-72991037D02*
G01*
X213625165Y-72602128D01*
X214756536Y-71470757D01*
X215145445Y-71859666D01*
X214014074Y-72991037D01*
X214014074Y-72991037D01*
G37*
D11*
X217881200Y-72451000D03*
X217881200Y-70551000D03*
D14*
X183057800Y-73672700D03*
X183057800Y-68392700D03*
D15*
X176437800Y-76530200D03*
X174437800Y-76530200D03*
D16*
X179184300Y-85981200D03*
X179184300Y-83081200D03*
D17*
X179123340Y-78625300D03*
X179123340Y-75425300D03*
D11*
X172435520Y-76207580D03*
X172435520Y-78107580D03*
X172420280Y-81993780D03*
X172420280Y-80093780D03*
X186161200Y-82291000D03*
X186161200Y-80391000D03*
D18*
X183062880Y-76273800D03*
X183062880Y-82473800D03*
D19*
X174322600Y-78874400D03*
X174322600Y-79824400D03*
X174322600Y-80774400D03*
X176522600Y-80774400D03*
X176522600Y-78874400D03*
X176522600Y-79824400D03*
D20*
X176707800Y-74053700D03*
X176707800Y-71053700D03*
D21*
X179057300Y-73529700D03*
X179057300Y-71529700D03*
D22*
X175120300Y-89547700D03*
X179184300Y-89547700D03*
D23*
X186161200Y-78641000D03*
X186161200Y-76441000D03*
X175953600Y-94030800D03*
X173753600Y-94030800D03*
D11*
X178079400Y-92725200D03*
X178079400Y-94625200D03*
D15*
X174326800Y-84749640D03*
X176326800Y-84749640D03*
D13*
G36*
X176544991Y-82469753D02*
G01*
X176566226Y-82472903D01*
X176587050Y-82478119D01*
X176607262Y-82485351D01*
X176626668Y-82494530D01*
X176645081Y-82505566D01*
X176662324Y-82518354D01*
X176678230Y-82532770D01*
X176692646Y-82548676D01*
X176705434Y-82565919D01*
X176716470Y-82584332D01*
X176725649Y-82603738D01*
X176732881Y-82623950D01*
X176738097Y-82644774D01*
X176741247Y-82666009D01*
X176742300Y-82687450D01*
X176742300Y-83199950D01*
X176741247Y-83221391D01*
X176738097Y-83242626D01*
X176732881Y-83263450D01*
X176725649Y-83283662D01*
X176716470Y-83303068D01*
X176705434Y-83321481D01*
X176692646Y-83338724D01*
X176678230Y-83354630D01*
X176662324Y-83369046D01*
X176645081Y-83381834D01*
X176626668Y-83392870D01*
X176607262Y-83402049D01*
X176587050Y-83409281D01*
X176566226Y-83414497D01*
X176544991Y-83417647D01*
X176523550Y-83418700D01*
X176086050Y-83418700D01*
X176064609Y-83417647D01*
X176043374Y-83414497D01*
X176022550Y-83409281D01*
X176002338Y-83402049D01*
X175982932Y-83392870D01*
X175964519Y-83381834D01*
X175947276Y-83369046D01*
X175931370Y-83354630D01*
X175916954Y-83338724D01*
X175904166Y-83321481D01*
X175893130Y-83303068D01*
X175883951Y-83283662D01*
X175876719Y-83263450D01*
X175871503Y-83242626D01*
X175868353Y-83221391D01*
X175867300Y-83199950D01*
X175867300Y-82687450D01*
X175868353Y-82666009D01*
X175871503Y-82644774D01*
X175876719Y-82623950D01*
X175883951Y-82603738D01*
X175893130Y-82584332D01*
X175904166Y-82565919D01*
X175916954Y-82548676D01*
X175931370Y-82532770D01*
X175947276Y-82518354D01*
X175964519Y-82505566D01*
X175982932Y-82494530D01*
X176002338Y-82485351D01*
X176022550Y-82478119D01*
X176043374Y-82472903D01*
X176064609Y-82469753D01*
X176086050Y-82468700D01*
X176523550Y-82468700D01*
X176544991Y-82469753D01*
X176544991Y-82469753D01*
G37*
D24*
X176304800Y-82943700D03*
D13*
G36*
X174969991Y-82469753D02*
G01*
X174991226Y-82472903D01*
X175012050Y-82478119D01*
X175032262Y-82485351D01*
X175051668Y-82494530D01*
X175070081Y-82505566D01*
X175087324Y-82518354D01*
X175103230Y-82532770D01*
X175117646Y-82548676D01*
X175130434Y-82565919D01*
X175141470Y-82584332D01*
X175150649Y-82603738D01*
X175157881Y-82623950D01*
X175163097Y-82644774D01*
X175166247Y-82666009D01*
X175167300Y-82687450D01*
X175167300Y-83199950D01*
X175166247Y-83221391D01*
X175163097Y-83242626D01*
X175157881Y-83263450D01*
X175150649Y-83283662D01*
X175141470Y-83303068D01*
X175130434Y-83321481D01*
X175117646Y-83338724D01*
X175103230Y-83354630D01*
X175087324Y-83369046D01*
X175070081Y-83381834D01*
X175051668Y-83392870D01*
X175032262Y-83402049D01*
X175012050Y-83409281D01*
X174991226Y-83414497D01*
X174969991Y-83417647D01*
X174948550Y-83418700D01*
X174511050Y-83418700D01*
X174489609Y-83417647D01*
X174468374Y-83414497D01*
X174447550Y-83409281D01*
X174427338Y-83402049D01*
X174407932Y-83392870D01*
X174389519Y-83381834D01*
X174372276Y-83369046D01*
X174356370Y-83354630D01*
X174341954Y-83338724D01*
X174329166Y-83321481D01*
X174318130Y-83303068D01*
X174308951Y-83283662D01*
X174301719Y-83263450D01*
X174296503Y-83242626D01*
X174293353Y-83221391D01*
X174292300Y-83199950D01*
X174292300Y-82687450D01*
X174293353Y-82666009D01*
X174296503Y-82644774D01*
X174301719Y-82623950D01*
X174308951Y-82603738D01*
X174318130Y-82584332D01*
X174329166Y-82565919D01*
X174341954Y-82548676D01*
X174356370Y-82532770D01*
X174372276Y-82518354D01*
X174389519Y-82505566D01*
X174407932Y-82494530D01*
X174427338Y-82485351D01*
X174447550Y-82478119D01*
X174468374Y-82472903D01*
X174489609Y-82469753D01*
X174511050Y-82468700D01*
X174948550Y-82468700D01*
X174969991Y-82469753D01*
X174969991Y-82469753D01*
G37*
D24*
X174729800Y-82943700D03*
D21*
X220980000Y-81296000D03*
X220980000Y-83296000D03*
X223012000Y-81296000D03*
X223012000Y-83296000D03*
X207060800Y-90103200D03*
X207060800Y-88103200D03*
X212090000Y-88376000D03*
X212090000Y-86376000D03*
X204470000Y-74311000D03*
X204470000Y-76311000D03*
D23*
X197696000Y-68326000D03*
X195496000Y-68326000D03*
X195496000Y-70485000D03*
X197696000Y-70485000D03*
X195496000Y-66167000D03*
X197696000Y-66167000D03*
X224917000Y-73068000D03*
X224917000Y-75268000D03*
D25*
X222724000Y-86426000D03*
X222724000Y-88326000D03*
X224824000Y-87376000D03*
D26*
X208214000Y-68199000D03*
X206314000Y-68199000D03*
X206314000Y-72009000D03*
X208214000Y-72009000D03*
X221300000Y-79502000D03*
X223200000Y-79502000D03*
D11*
X222885000Y-73345000D03*
X222885000Y-75245000D03*
X220853000Y-73345000D03*
X220853000Y-75245000D03*
D26*
X201991000Y-68326000D03*
X200091000Y-68326000D03*
X200091000Y-70485000D03*
X201991000Y-70485000D03*
X200091000Y-66167000D03*
X201991000Y-66167000D03*
X208214000Y-70104000D03*
X206314000Y-70104000D03*
D11*
X224917000Y-79949000D03*
X224917000Y-81849000D03*
X220980000Y-88453000D03*
X220980000Y-86553000D03*
X218186000Y-86553000D03*
X218186000Y-88453000D03*
X214122000Y-86553000D03*
X214122000Y-88453000D03*
X216154000Y-86553000D03*
X216154000Y-88453000D03*
M02*
