G04 #@! TF.GenerationSoftware,KiCad,Pcbnew,(5.1.10-1-10_14)*
G04 #@! TF.CreationDate,2021-10-01T00:48:21-04:00*
G04 #@! TF.ProjectId,dashboard,64617368-626f-4617-9264-2e6b69636164,rev?*
G04 #@! TF.SameCoordinates,Original*
G04 #@! TF.FileFunction,Paste,Bot*
G04 #@! TF.FilePolarity,Positive*
%FSLAX46Y46*%
G04 Gerber Fmt 4.6, Leading zero omitted, Abs format (unit mm)*
G04 Created by KiCad (PCBNEW (5.1.10-1-10_14)) date 2021-10-01 00:48:21*
%MOMM*%
%LPD*%
G01*
G04 APERTURE LIST*
%ADD10R,1.600000X0.550000*%
%ADD11R,0.550000X1.600000*%
%ADD12R,1.300000X0.700000*%
%ADD13R,1.250000X1.000000*%
%ADD14R,0.700000X1.300000*%
%ADD15R,1.000000X1.250000*%
G04 APERTURE END LIST*
D10*
X70521140Y-45571760D03*
X70521140Y-46371760D03*
X70521140Y-47171760D03*
X70521140Y-47971760D03*
X70521140Y-48771760D03*
X70521140Y-49571760D03*
X70521140Y-50371760D03*
X70521140Y-51171760D03*
D11*
X69071140Y-52621760D03*
X68271140Y-52621760D03*
X67471140Y-52621760D03*
X66671140Y-52621760D03*
X65871140Y-52621760D03*
X65071140Y-52621760D03*
X64271140Y-52621760D03*
X63471140Y-52621760D03*
D10*
X62021140Y-51171760D03*
X62021140Y-50371760D03*
X62021140Y-49571760D03*
X62021140Y-48771760D03*
X62021140Y-47971760D03*
X62021140Y-47171760D03*
X62021140Y-46371760D03*
X62021140Y-45571760D03*
D11*
X63471140Y-44121760D03*
X64271140Y-44121760D03*
X65071140Y-44121760D03*
X65871140Y-44121760D03*
X66671140Y-44121760D03*
X67471140Y-44121760D03*
X68271140Y-44121760D03*
X69071140Y-44121760D03*
D12*
X65775840Y-40385960D03*
X65775840Y-42285960D03*
D13*
X57393840Y-46457360D03*
X57393840Y-48457360D03*
D12*
X72113140Y-55105260D03*
X72113140Y-57005260D03*
X79174340Y-55435460D03*
X79174340Y-57335460D03*
D14*
X52379840Y-42783760D03*
X54279840Y-42783760D03*
D13*
X72824340Y-45542960D03*
X72824340Y-47542960D03*
X76075540Y-51352960D03*
X76075540Y-49352960D03*
D15*
X72649840Y-53400960D03*
X74649840Y-53400960D03*
D14*
X54241740Y-40815260D03*
X52341740Y-40815260D03*
X58331140Y-42783760D03*
X56431140Y-42783760D03*
D12*
X74018140Y-55105260D03*
X74018140Y-57005260D03*
X70208140Y-55105260D03*
X70208140Y-57005260D03*
X66017140Y-54597260D03*
X66017140Y-56497260D03*
X67985640Y-56497260D03*
X67985640Y-54597260D03*
M02*
