G04 #@! TF.GenerationSoftware,KiCad,Pcbnew,5.0.2-bee76a0~70~ubuntu18.04.1*
G04 #@! TF.CreationDate,2020-02-05T16:33:54-05:00*
G04 #@! TF.ProjectId,LV Interface,4c562049-6e74-4657-9266-6163652e6b69,rev?*
G04 #@! TF.SameCoordinates,Original*
G04 #@! TF.FileFunction,Legend,Top*
G04 #@! TF.FilePolarity,Positive*
%FSLAX46Y46*%
G04 Gerber Fmt 4.6, Leading zero omitted, Abs format (unit mm)*
G04 Created by KiCad (PCBNEW 5.0.2-bee76a0~70~ubuntu18.04.1) date Wed 05 Feb 2020 04:33:54 PM EST*
%MOMM*%
%LPD*%
G01*
G04 APERTURE LIST*
%ADD10C,0.300000*%
%ADD11C,0.100000*%
%ADD12C,0.120000*%
%ADD13C,0.150000*%
%ADD14C,0.200000*%
G04 APERTURE END LIST*
D10*
X81942928Y-120193191D02*
X81228642Y-120193191D01*
X81228642Y-118693191D01*
X82728642Y-118693191D02*
X83014357Y-118693191D01*
X83157214Y-118764620D01*
X83300071Y-118907477D01*
X83371500Y-119193191D01*
X83371500Y-119693191D01*
X83300071Y-119978905D01*
X83157214Y-120121762D01*
X83014357Y-120193191D01*
X82728642Y-120193191D01*
X82585785Y-120121762D01*
X82442928Y-119978905D01*
X82371500Y-119693191D01*
X82371500Y-119193191D01*
X82442928Y-118907477D01*
X82585785Y-118764620D01*
X82728642Y-118693191D01*
X83871500Y-118693191D02*
X84228642Y-120193191D01*
X84514357Y-119121762D01*
X84800071Y-120193191D01*
X85157214Y-118693191D01*
X68867151Y-120023011D02*
X68867151Y-118523011D01*
X68867151Y-119237297D02*
X69724294Y-119237297D01*
X69724294Y-120023011D02*
X69724294Y-118523011D01*
X70438580Y-120023011D02*
X70438580Y-118523011D01*
X71938580Y-118594440D02*
X71795722Y-118523011D01*
X71581437Y-118523011D01*
X71367151Y-118594440D01*
X71224294Y-118737297D01*
X71152865Y-118880154D01*
X71081437Y-119165868D01*
X71081437Y-119380154D01*
X71152865Y-119665868D01*
X71224294Y-119808725D01*
X71367151Y-119951582D01*
X71581437Y-120023011D01*
X71724294Y-120023011D01*
X71938580Y-119951582D01*
X72010008Y-119880154D01*
X72010008Y-119380154D01*
X71724294Y-119380154D01*
X72652865Y-120023011D02*
X72652865Y-118523011D01*
X72652865Y-119237297D02*
X73510008Y-119237297D01*
X73510008Y-120023011D02*
X73510008Y-118523011D01*
X81854182Y-104840340D02*
X81711325Y-104768911D01*
X81497040Y-104768911D01*
X81282754Y-104840340D01*
X81139897Y-104983197D01*
X81068468Y-105126054D01*
X80997040Y-105411768D01*
X80997040Y-105626054D01*
X81068468Y-105911768D01*
X81139897Y-106054625D01*
X81282754Y-106197482D01*
X81497040Y-106268911D01*
X81639897Y-106268911D01*
X81854182Y-106197482D01*
X81925611Y-106126054D01*
X81925611Y-105626054D01*
X81639897Y-105626054D01*
X82568468Y-106268911D02*
X82568468Y-104768911D01*
X83425611Y-106268911D01*
X83425611Y-104768911D01*
X84139897Y-106268911D02*
X84139897Y-104768911D01*
X84497040Y-104768911D01*
X84711325Y-104840340D01*
X84854182Y-104983197D01*
X84925611Y-105126054D01*
X84997040Y-105411768D01*
X84997040Y-105626054D01*
X84925611Y-105911768D01*
X84854182Y-106054625D01*
X84711325Y-106197482D01*
X84497040Y-106268911D01*
X84139897Y-106268911D01*
X70681648Y-106055551D02*
X69824505Y-106055551D01*
X70253077Y-106055551D02*
X70253077Y-104555551D01*
X70110220Y-104769837D01*
X69967362Y-104912694D01*
X69824505Y-104984122D01*
X71253077Y-104698408D02*
X71324505Y-104626980D01*
X71467362Y-104555551D01*
X71824505Y-104555551D01*
X71967362Y-104626980D01*
X72038791Y-104698408D01*
X72110220Y-104841265D01*
X72110220Y-104984122D01*
X72038791Y-105198408D01*
X71181648Y-106055551D01*
X72110220Y-106055551D01*
X72538791Y-104555551D02*
X73038791Y-106055551D01*
X73538791Y-104555551D01*
X136071408Y-34277691D02*
X135214265Y-34277691D01*
X135642837Y-34277691D02*
X135642837Y-32777691D01*
X135499980Y-32991977D01*
X135357122Y-33134834D01*
X135214265Y-33206262D01*
X136642837Y-32920548D02*
X136714265Y-32849120D01*
X136857122Y-32777691D01*
X137214265Y-32777691D01*
X137357122Y-32849120D01*
X137428551Y-32920548D01*
X137499980Y-33063405D01*
X137499980Y-33206262D01*
X137428551Y-33420548D01*
X136571408Y-34277691D01*
X137499980Y-34277691D01*
X137928551Y-32777691D02*
X138428551Y-34277691D01*
X138928551Y-32777691D01*
D11*
G04 #@! TO.C,D1*
X95477000Y-40831900D02*
X95877000Y-40831900D01*
X95177000Y-40831900D02*
X95477000Y-40631900D01*
X95477000Y-40631900D02*
X95477000Y-41031900D01*
X95477000Y-41031900D02*
X95177000Y-40831900D01*
X94777000Y-40831900D02*
X95177000Y-40831900D01*
X95177000Y-40831900D02*
X95177000Y-40581900D01*
X95177000Y-40581900D02*
X95177000Y-41081900D01*
D12*
X93177000Y-38331900D02*
X93177000Y-40331900D01*
X93177000Y-40331900D02*
X97027000Y-40331900D01*
X93177000Y-38331900D02*
X97027000Y-38331900D01*
G04 #@! TO.C,J3*
X114890900Y-116452380D02*
X114890900Y-116762380D01*
X114890900Y-116762380D02*
X124760900Y-116762380D01*
X124760900Y-116762380D02*
X124760900Y-116452380D01*
X114890900Y-114932380D02*
X114890900Y-109172380D01*
X114890900Y-109172380D02*
X116310900Y-109172380D01*
X116310900Y-109172380D02*
X116310900Y-109672380D01*
X116310900Y-109672380D02*
X123340900Y-109672380D01*
X123340900Y-109672380D02*
X123340900Y-109172380D01*
X123340900Y-109172380D02*
X124760900Y-109172380D01*
X124760900Y-109172380D02*
X124760900Y-114932380D01*
D13*
G04 #@! TO.C,J4*
X94999860Y-71570360D02*
X125009860Y-71570360D01*
X94999860Y-66270360D02*
X125009860Y-66270360D01*
X125009860Y-66270360D02*
X125009860Y-71570360D01*
X94999860Y-66270360D02*
X94999860Y-71570360D01*
G04 #@! TO.C,J5*
X94987160Y-76420200D02*
X94987160Y-81720200D01*
X124997160Y-76420200D02*
X124997160Y-81720200D01*
X94987160Y-76420200D02*
X124997160Y-76420200D01*
X94987160Y-81720200D02*
X124997160Y-81720200D01*
G04 #@! TO.C,J6*
X94997320Y-56092580D02*
X94997320Y-61392580D01*
X125007320Y-56092580D02*
X125007320Y-61392580D01*
X94997320Y-56092580D02*
X125007320Y-56092580D01*
X94997320Y-61392580D02*
X125007320Y-61392580D01*
G04 #@! TO.C,J7*
X94994780Y-45940200D02*
X94994780Y-51240200D01*
X125004780Y-45940200D02*
X125004780Y-51240200D01*
X94994780Y-45940200D02*
X125004780Y-45940200D01*
X94994780Y-51240200D02*
X125004780Y-51240200D01*
G04 #@! TO.C,J8*
X134529940Y-24012540D02*
X134529940Y-27322540D01*
X134529940Y-27322540D02*
X142329940Y-27322540D01*
X142329940Y-27322540D02*
X142329940Y-24012540D01*
X142329940Y-24012540D02*
X142329940Y-18290540D01*
X134529940Y-24012540D02*
X134529940Y-18290540D01*
X142329940Y-24012540D02*
X134529940Y-24012540D01*
X142329940Y-18290540D02*
X134529940Y-18290540D01*
G04 #@! TO.C,J9*
X94999860Y-96752900D02*
X94999860Y-102052900D01*
X125009860Y-96752900D02*
X125009860Y-102052900D01*
X94999860Y-96752900D02*
X125009860Y-96752900D01*
X94999860Y-102052900D02*
X125009860Y-102052900D01*
D12*
G04 #@! TO.C,J11*
X103554440Y-109159680D02*
X103554440Y-114919680D01*
X102134440Y-109159680D02*
X103554440Y-109159680D01*
X102134440Y-109659680D02*
X102134440Y-109159680D01*
X95104440Y-109659680D02*
X102134440Y-109659680D01*
X95104440Y-109159680D02*
X95104440Y-109659680D01*
X93684440Y-109159680D02*
X95104440Y-109159680D01*
X93684440Y-114919680D02*
X93684440Y-109159680D01*
X103554440Y-116749680D02*
X103554440Y-116439680D01*
X93684440Y-116749680D02*
X103554440Y-116749680D01*
X93684440Y-116439680D02*
X93684440Y-116749680D01*
D13*
G04 #@! TO.C,J12*
X94987160Y-91895440D02*
X124997160Y-91895440D01*
X94987160Y-86595440D02*
X124997160Y-86595440D01*
X124997160Y-86595440D02*
X124997160Y-91895440D01*
X94987160Y-86595440D02*
X94987160Y-91895440D01*
D12*
G04 #@! TO.C,K1*
X100966420Y-38010140D02*
X100966420Y-17570140D01*
X100966420Y-17570140D02*
X90666420Y-17570140D01*
X100966420Y-38010140D02*
X90666420Y-38010140D01*
X90666420Y-38010140D02*
X90666420Y-17570140D01*
D13*
G04 #@! TO.C,U2*
X123258580Y-27483300D02*
X113258580Y-27483300D01*
X113258580Y-27483300D02*
X113258580Y-35483300D01*
X113258580Y-35483300D02*
X133258580Y-35483300D01*
X133258580Y-35483300D02*
X133258580Y-27483300D01*
X133258580Y-27483300D02*
X124258580Y-27483300D01*
X124258580Y-27483300D02*
X123258580Y-27483300D01*
G04 #@! TO.C,U3*
X124159520Y-17363940D02*
X123159520Y-17363940D01*
X133159520Y-17363940D02*
X124159520Y-17363940D01*
X133159520Y-25363940D02*
X133159520Y-17363940D01*
X113159520Y-25363940D02*
X133159520Y-25363940D01*
X113159520Y-17363940D02*
X113159520Y-25363940D01*
X123159520Y-17363940D02*
X113159520Y-17363940D01*
G04 #@! TO.C,U5*
X104576320Y-37677440D02*
X110551320Y-37677440D01*
X106151320Y-43202440D02*
X110551320Y-43202440D01*
D12*
G04 #@! TO.C,C1*
X114339740Y-42614980D02*
X114339740Y-41614980D01*
X112639740Y-41614980D02*
X112639740Y-42614980D01*
D11*
G04 #@! TO.C,D3*
X141460740Y-33401660D02*
X141810740Y-33401660D01*
X141810740Y-33401660D02*
X142160740Y-33401660D01*
X141460740Y-33751660D02*
X141810740Y-33401660D01*
X141510740Y-33751660D02*
X141460740Y-33751660D01*
X141460740Y-33751660D02*
X141510740Y-33751660D01*
X142160740Y-33751660D02*
X141510740Y-33751660D01*
X142110740Y-33701660D02*
X142160740Y-33751660D01*
X141810740Y-33401660D02*
X142110740Y-33701660D01*
D12*
X142510740Y-31801660D02*
X141110740Y-31801660D01*
X141110740Y-31801660D02*
X141110740Y-34601660D01*
X142510740Y-31801660D02*
X142510740Y-34601660D01*
G04 #@! TO.C,R1*
X142645020Y-36986920D02*
X142645020Y-38186920D01*
X140885020Y-38186920D02*
X140885020Y-36986920D01*
G04 #@! TO.C,R2*
X89375540Y-70435360D02*
X88175540Y-70435360D01*
X88175540Y-68675360D02*
X89375540Y-68675360D01*
G04 #@! TO.C,R3*
X89380620Y-72350520D02*
X88180620Y-72350520D01*
X88180620Y-70590520D02*
X89380620Y-70590520D01*
G04 #@! TO.C,R4*
X89413640Y-74440940D02*
X88213640Y-74440940D01*
X88213640Y-72680940D02*
X89413640Y-72680940D01*
D14*
G04 #@! TO.C,D2*
X108886700Y-29284420D02*
X109986700Y-30184420D01*
X108886700Y-30984420D02*
X108886700Y-29284420D01*
X109986700Y-30184420D02*
X108886700Y-30984420D01*
X109986700Y-30984420D02*
X109986700Y-29284420D01*
D12*
X112661700Y-31617920D02*
X112661700Y-28950920D01*
X112661700Y-28950920D02*
X109486700Y-28950920D01*
X112661700Y-31617920D02*
X109486700Y-31617920D01*
G04 #@! TO.C,D4*
X112793780Y-21414740D02*
X109618780Y-21414740D01*
X112793780Y-18747740D02*
X109618780Y-18747740D01*
X112793780Y-21414740D02*
X112793780Y-18747740D01*
D14*
X110118780Y-20781240D02*
X110118780Y-19081240D01*
X110118780Y-19981240D02*
X109018780Y-20781240D01*
X109018780Y-20781240D02*
X109018780Y-19081240D01*
X109018780Y-19081240D02*
X110118780Y-19981240D01*
G04 #@! TO.C,D1*
D13*
X98217764Y-39807140D02*
X98217764Y-38807140D01*
X98455860Y-38807140D01*
X98598717Y-38854760D01*
X98693955Y-38949998D01*
X98741574Y-39045236D01*
X98789193Y-39235712D01*
X98789193Y-39378569D01*
X98741574Y-39569045D01*
X98693955Y-39664283D01*
X98598717Y-39759521D01*
X98455860Y-39807140D01*
X98217764Y-39807140D01*
X99741574Y-39807140D02*
X99170145Y-39807140D01*
X99455860Y-39807140D02*
X99455860Y-38807140D01*
X99360621Y-38949998D01*
X99265383Y-39045236D01*
X99170145Y-39092855D01*
G04 #@! TO.C,J3*
X119492566Y-107534760D02*
X119492566Y-108249046D01*
X119444947Y-108391903D01*
X119349709Y-108487141D01*
X119206852Y-108534760D01*
X119111614Y-108534760D01*
X119873519Y-107534760D02*
X120492566Y-107534760D01*
X120159233Y-107915713D01*
X120302090Y-107915713D01*
X120397328Y-107963332D01*
X120444947Y-108010951D01*
X120492566Y-108106189D01*
X120492566Y-108344284D01*
X120444947Y-108439522D01*
X120397328Y-108487141D01*
X120302090Y-108534760D01*
X120016376Y-108534760D01*
X119921138Y-108487141D01*
X119873519Y-108439522D01*
G04 #@! TO.C,J4*
X111362240Y-73063693D02*
X112076526Y-73063693D01*
X112219383Y-73111312D01*
X112314621Y-73206550D01*
X112362240Y-73349407D01*
X112362240Y-73444645D01*
X111695574Y-72158931D02*
X112362240Y-72158931D01*
X111314621Y-72397026D02*
X112028907Y-72635121D01*
X112028907Y-72016074D01*
X126332240Y-67364645D02*
X126332240Y-67936074D01*
X126332240Y-67650360D02*
X125332240Y-67650360D01*
X125475098Y-67745598D01*
X125570336Y-67840836D01*
X125617955Y-67936074D01*
X93677479Y-70952264D02*
X93629860Y-70904645D01*
X93582240Y-70809407D01*
X93582240Y-70571312D01*
X93629860Y-70476074D01*
X93677479Y-70428455D01*
X93772717Y-70380836D01*
X93867955Y-70380836D01*
X94010812Y-70428455D01*
X94582240Y-70999883D01*
X94582240Y-70380836D01*
X93582240Y-69761788D02*
X93582240Y-69666550D01*
X93629860Y-69571312D01*
X93677479Y-69523693D01*
X93772717Y-69476074D01*
X93963193Y-69428455D01*
X94201288Y-69428455D01*
X94391764Y-69476074D01*
X94487002Y-69523693D01*
X94534621Y-69571312D01*
X94582240Y-69666550D01*
X94582240Y-69761788D01*
X94534621Y-69857026D01*
X94487002Y-69904645D01*
X94391764Y-69952264D01*
X94201288Y-69999883D01*
X93963193Y-69999883D01*
X93772717Y-69952264D01*
X93677479Y-69904645D01*
X93629860Y-69857026D01*
X93582240Y-69761788D01*
G04 #@! TO.C,J5*
X111349540Y-83213533D02*
X112063826Y-83213533D01*
X112206683Y-83261152D01*
X112301921Y-83356390D01*
X112349540Y-83499247D01*
X112349540Y-83594485D01*
X111349540Y-82261152D02*
X111349540Y-82737342D01*
X111825731Y-82784961D01*
X111778112Y-82737342D01*
X111730493Y-82642104D01*
X111730493Y-82404009D01*
X111778112Y-82308771D01*
X111825731Y-82261152D01*
X111920969Y-82213533D01*
X112159064Y-82213533D01*
X112254302Y-82261152D01*
X112301921Y-82308771D01*
X112349540Y-82404009D01*
X112349540Y-82642104D01*
X112301921Y-82737342D01*
X112254302Y-82784961D01*
X93664779Y-81102104D02*
X93617160Y-81054485D01*
X93569540Y-80959247D01*
X93569540Y-80721152D01*
X93617160Y-80625914D01*
X93664779Y-80578295D01*
X93760017Y-80530676D01*
X93855255Y-80530676D01*
X93998112Y-80578295D01*
X94569540Y-81149723D01*
X94569540Y-80530676D01*
X93569540Y-79911628D02*
X93569540Y-79816390D01*
X93617160Y-79721152D01*
X93664779Y-79673533D01*
X93760017Y-79625914D01*
X93950493Y-79578295D01*
X94188588Y-79578295D01*
X94379064Y-79625914D01*
X94474302Y-79673533D01*
X94521921Y-79721152D01*
X94569540Y-79816390D01*
X94569540Y-79911628D01*
X94521921Y-80006866D01*
X94474302Y-80054485D01*
X94379064Y-80102104D01*
X94188588Y-80149723D01*
X93950493Y-80149723D01*
X93760017Y-80102104D01*
X93664779Y-80054485D01*
X93617160Y-80006866D01*
X93569540Y-79911628D01*
X126319540Y-77514485D02*
X126319540Y-78085914D01*
X126319540Y-77800200D02*
X125319540Y-77800200D01*
X125462398Y-77895438D01*
X125557636Y-77990676D01*
X125605255Y-78085914D01*
G04 #@! TO.C,J6*
X111359700Y-62885913D02*
X112073986Y-62885913D01*
X112216843Y-62933532D01*
X112312081Y-63028770D01*
X112359700Y-63171627D01*
X112359700Y-63266865D01*
X111359700Y-61981151D02*
X111359700Y-62171627D01*
X111407320Y-62266865D01*
X111454939Y-62314484D01*
X111597796Y-62409722D01*
X111788272Y-62457341D01*
X112169224Y-62457341D01*
X112264462Y-62409722D01*
X112312081Y-62362103D01*
X112359700Y-62266865D01*
X112359700Y-62076389D01*
X112312081Y-61981151D01*
X112264462Y-61933532D01*
X112169224Y-61885913D01*
X111931129Y-61885913D01*
X111835891Y-61933532D01*
X111788272Y-61981151D01*
X111740653Y-62076389D01*
X111740653Y-62266865D01*
X111788272Y-62362103D01*
X111835891Y-62409722D01*
X111931129Y-62457341D01*
X93674939Y-60774484D02*
X93627320Y-60726865D01*
X93579700Y-60631627D01*
X93579700Y-60393532D01*
X93627320Y-60298294D01*
X93674939Y-60250675D01*
X93770177Y-60203056D01*
X93865415Y-60203056D01*
X94008272Y-60250675D01*
X94579700Y-60822103D01*
X94579700Y-60203056D01*
X93579700Y-59584008D02*
X93579700Y-59488770D01*
X93627320Y-59393532D01*
X93674939Y-59345913D01*
X93770177Y-59298294D01*
X93960653Y-59250675D01*
X94198748Y-59250675D01*
X94389224Y-59298294D01*
X94484462Y-59345913D01*
X94532081Y-59393532D01*
X94579700Y-59488770D01*
X94579700Y-59584008D01*
X94532081Y-59679246D01*
X94484462Y-59726865D01*
X94389224Y-59774484D01*
X94198748Y-59822103D01*
X93960653Y-59822103D01*
X93770177Y-59774484D01*
X93674939Y-59726865D01*
X93627320Y-59679246D01*
X93579700Y-59584008D01*
X126329700Y-57186865D02*
X126329700Y-57758294D01*
X126329700Y-57472580D02*
X125329700Y-57472580D01*
X125472558Y-57567818D01*
X125567796Y-57663056D01*
X125615415Y-57758294D01*
G04 #@! TO.C,J7*
X111357160Y-52733533D02*
X112071446Y-52733533D01*
X112214303Y-52781152D01*
X112309541Y-52876390D01*
X112357160Y-53019247D01*
X112357160Y-53114485D01*
X111357160Y-52352580D02*
X111357160Y-51685914D01*
X112357160Y-52114485D01*
X93672399Y-50622104D02*
X93624780Y-50574485D01*
X93577160Y-50479247D01*
X93577160Y-50241152D01*
X93624780Y-50145914D01*
X93672399Y-50098295D01*
X93767637Y-50050676D01*
X93862875Y-50050676D01*
X94005732Y-50098295D01*
X94577160Y-50669723D01*
X94577160Y-50050676D01*
X93577160Y-49431628D02*
X93577160Y-49336390D01*
X93624780Y-49241152D01*
X93672399Y-49193533D01*
X93767637Y-49145914D01*
X93958113Y-49098295D01*
X94196208Y-49098295D01*
X94386684Y-49145914D01*
X94481922Y-49193533D01*
X94529541Y-49241152D01*
X94577160Y-49336390D01*
X94577160Y-49431628D01*
X94529541Y-49526866D01*
X94481922Y-49574485D01*
X94386684Y-49622104D01*
X94196208Y-49669723D01*
X93958113Y-49669723D01*
X93767637Y-49622104D01*
X93672399Y-49574485D01*
X93624780Y-49526866D01*
X93577160Y-49431628D01*
X126327160Y-47034485D02*
X126327160Y-47605914D01*
X126327160Y-47320200D02*
X125327160Y-47320200D01*
X125470018Y-47415438D01*
X125565256Y-47510676D01*
X125612875Y-47605914D01*
G04 #@! TO.C,J8*
X143374786Y-18403320D02*
X143374786Y-19117606D01*
X143327167Y-19260463D01*
X143231929Y-19355701D01*
X143089072Y-19403320D01*
X142993834Y-19403320D01*
X143993834Y-18831892D02*
X143898596Y-18784273D01*
X143850977Y-18736654D01*
X143803358Y-18641416D01*
X143803358Y-18593797D01*
X143850977Y-18498559D01*
X143898596Y-18450940D01*
X143993834Y-18403320D01*
X144184310Y-18403320D01*
X144279548Y-18450940D01*
X144327167Y-18498559D01*
X144374786Y-18593797D01*
X144374786Y-18641416D01*
X144327167Y-18736654D01*
X144279548Y-18784273D01*
X144184310Y-18831892D01*
X143993834Y-18831892D01*
X143898596Y-18879511D01*
X143850977Y-18927130D01*
X143803358Y-19022368D01*
X143803358Y-19212844D01*
X143850977Y-19308082D01*
X143898596Y-19355701D01*
X143993834Y-19403320D01*
X144184310Y-19403320D01*
X144279548Y-19355701D01*
X144327167Y-19308082D01*
X144374786Y-19212844D01*
X144374786Y-19022368D01*
X144327167Y-18927130D01*
X144279548Y-18879511D01*
X144184310Y-18831892D01*
G04 #@! TO.C,J9*
X111362240Y-103546233D02*
X112076526Y-103546233D01*
X112219383Y-103593852D01*
X112314621Y-103689090D01*
X112362240Y-103831947D01*
X112362240Y-103927185D01*
X112362240Y-103022423D02*
X112362240Y-102831947D01*
X112314621Y-102736709D01*
X112267002Y-102689090D01*
X112124145Y-102593852D01*
X111933669Y-102546233D01*
X111552717Y-102546233D01*
X111457479Y-102593852D01*
X111409860Y-102641471D01*
X111362240Y-102736709D01*
X111362240Y-102927185D01*
X111409860Y-103022423D01*
X111457479Y-103070042D01*
X111552717Y-103117661D01*
X111790812Y-103117661D01*
X111886050Y-103070042D01*
X111933669Y-103022423D01*
X111981288Y-102927185D01*
X111981288Y-102736709D01*
X111933669Y-102641471D01*
X111886050Y-102593852D01*
X111790812Y-102546233D01*
X93677479Y-101434804D02*
X93629860Y-101387185D01*
X93582240Y-101291947D01*
X93582240Y-101053852D01*
X93629860Y-100958614D01*
X93677479Y-100910995D01*
X93772717Y-100863376D01*
X93867955Y-100863376D01*
X94010812Y-100910995D01*
X94582240Y-101482423D01*
X94582240Y-100863376D01*
X93582240Y-100244328D02*
X93582240Y-100149090D01*
X93629860Y-100053852D01*
X93677479Y-100006233D01*
X93772717Y-99958614D01*
X93963193Y-99910995D01*
X94201288Y-99910995D01*
X94391764Y-99958614D01*
X94487002Y-100006233D01*
X94534621Y-100053852D01*
X94582240Y-100149090D01*
X94582240Y-100244328D01*
X94534621Y-100339566D01*
X94487002Y-100387185D01*
X94391764Y-100434804D01*
X94201288Y-100482423D01*
X93963193Y-100482423D01*
X93772717Y-100434804D01*
X93677479Y-100387185D01*
X93629860Y-100339566D01*
X93582240Y-100244328D01*
X126332240Y-97847185D02*
X126332240Y-98418614D01*
X126332240Y-98132900D02*
X125332240Y-98132900D01*
X125475098Y-98228138D01*
X125570336Y-98323376D01*
X125617955Y-98418614D01*
G04 #@! TO.C,J11*
X97809916Y-107522060D02*
X97809916Y-108236346D01*
X97762297Y-108379203D01*
X97667059Y-108474441D01*
X97524201Y-108522060D01*
X97428963Y-108522060D01*
X98809916Y-108522060D02*
X98238487Y-108522060D01*
X98524201Y-108522060D02*
X98524201Y-107522060D01*
X98428963Y-107664918D01*
X98333725Y-107760156D01*
X98238487Y-107807775D01*
X99762297Y-108522060D02*
X99190868Y-108522060D01*
X99476582Y-108522060D02*
X99476582Y-107522060D01*
X99381344Y-107664918D01*
X99286106Y-107760156D01*
X99190868Y-107807775D01*
G04 #@! TO.C,J12*
X111349540Y-93864963D02*
X112063826Y-93864963D01*
X112206683Y-93912582D01*
X112301921Y-94007820D01*
X112349540Y-94150678D01*
X112349540Y-94245916D01*
X112349540Y-92864963D02*
X112349540Y-93436392D01*
X112349540Y-93150678D02*
X111349540Y-93150678D01*
X111492398Y-93245916D01*
X111587636Y-93341154D01*
X111635255Y-93436392D01*
X111444779Y-92484011D02*
X111397160Y-92436392D01*
X111349540Y-92341154D01*
X111349540Y-92103059D01*
X111397160Y-92007820D01*
X111444779Y-91960201D01*
X111540017Y-91912582D01*
X111635255Y-91912582D01*
X111778112Y-91960201D01*
X112349540Y-92531630D01*
X112349540Y-91912582D01*
X126319540Y-87689725D02*
X126319540Y-88261154D01*
X126319540Y-87975440D02*
X125319540Y-87975440D01*
X125462398Y-88070678D01*
X125557636Y-88165916D01*
X125605255Y-88261154D01*
X93664779Y-91277344D02*
X93617160Y-91229725D01*
X93569540Y-91134487D01*
X93569540Y-90896392D01*
X93617160Y-90801154D01*
X93664779Y-90753535D01*
X93760017Y-90705916D01*
X93855255Y-90705916D01*
X93998112Y-90753535D01*
X94569540Y-91324963D01*
X94569540Y-90705916D01*
X93569540Y-90086868D02*
X93569540Y-89991630D01*
X93617160Y-89896392D01*
X93664779Y-89848773D01*
X93760017Y-89801154D01*
X93950493Y-89753535D01*
X94188588Y-89753535D01*
X94379064Y-89801154D01*
X94474302Y-89848773D01*
X94521921Y-89896392D01*
X94569540Y-89991630D01*
X94569540Y-90086868D01*
X94521921Y-90182106D01*
X94474302Y-90229725D01*
X94379064Y-90277344D01*
X94188588Y-90324963D01*
X93950493Y-90324963D01*
X93760017Y-90277344D01*
X93664779Y-90229725D01*
X93617160Y-90182106D01*
X93569540Y-90086868D01*
G04 #@! TO.C,K1*
X89578800Y-27918235D02*
X88578800Y-27918235D01*
X89578800Y-27346806D02*
X89007372Y-27775378D01*
X88578800Y-27346806D02*
X89150229Y-27918235D01*
X89578800Y-26394425D02*
X89578800Y-26965854D01*
X89578800Y-26680140D02*
X88578800Y-26680140D01*
X88721658Y-26775378D01*
X88816896Y-26870616D01*
X88864515Y-26965854D01*
G04 #@! TO.C,U2*
X122496675Y-25935680D02*
X122496675Y-26745204D01*
X122544294Y-26840442D01*
X122591913Y-26888061D01*
X122687151Y-26935680D01*
X122877627Y-26935680D01*
X122972865Y-26888061D01*
X123020484Y-26840442D01*
X123068103Y-26745204D01*
X123068103Y-25935680D01*
X123496675Y-26030919D02*
X123544294Y-25983300D01*
X123639532Y-25935680D01*
X123877627Y-25935680D01*
X123972865Y-25983300D01*
X124020484Y-26030919D01*
X124068103Y-26126157D01*
X124068103Y-26221395D01*
X124020484Y-26364252D01*
X123449056Y-26935680D01*
X124068103Y-26935680D01*
G04 #@! TO.C,U3*
X122397615Y-15816320D02*
X122397615Y-16625844D01*
X122445234Y-16721082D01*
X122492853Y-16768701D01*
X122588091Y-16816320D01*
X122778567Y-16816320D01*
X122873805Y-16768701D01*
X122921424Y-16721082D01*
X122969043Y-16625844D01*
X122969043Y-15816320D01*
X123349996Y-15816320D02*
X123969043Y-15816320D01*
X123635710Y-16197273D01*
X123778567Y-16197273D01*
X123873805Y-16244892D01*
X123921424Y-16292511D01*
X123969043Y-16387749D01*
X123969043Y-16625844D01*
X123921424Y-16721082D01*
X123873805Y-16768701D01*
X123778567Y-16816320D01*
X123492853Y-16816320D01*
X123397615Y-16768701D01*
X123349996Y-16721082D01*
G04 #@! TO.C,U5*
X112684655Y-38464240D02*
X112684655Y-39273764D01*
X112732274Y-39369002D01*
X112779893Y-39416621D01*
X112875131Y-39464240D01*
X113065607Y-39464240D01*
X113160845Y-39416621D01*
X113208464Y-39369002D01*
X113256083Y-39273764D01*
X113256083Y-38464240D01*
X114208464Y-38464240D02*
X113732274Y-38464240D01*
X113684655Y-38940431D01*
X113732274Y-38892812D01*
X113827512Y-38845193D01*
X114065607Y-38845193D01*
X114160845Y-38892812D01*
X114208464Y-38940431D01*
X114256083Y-39035669D01*
X114256083Y-39273764D01*
X114208464Y-39369002D01*
X114160845Y-39416621D01*
X114065607Y-39464240D01*
X113827512Y-39464240D01*
X113732274Y-39416621D01*
X113684655Y-39369002D01*
G04 #@! TO.C,C1*
X115668062Y-42099526D02*
X115715681Y-42147145D01*
X115763300Y-42290002D01*
X115763300Y-42385240D01*
X115715681Y-42528098D01*
X115620443Y-42623336D01*
X115525205Y-42670955D01*
X115334729Y-42718574D01*
X115191872Y-42718574D01*
X115001396Y-42670955D01*
X114906158Y-42623336D01*
X114810920Y-42528098D01*
X114763300Y-42385240D01*
X114763300Y-42290002D01*
X114810920Y-42147145D01*
X114858539Y-42099526D01*
X115763300Y-41147145D02*
X115763300Y-41718574D01*
X115763300Y-41432860D02*
X114763300Y-41432860D01*
X114906158Y-41528098D01*
X115001396Y-41623336D01*
X115049015Y-41718574D01*
G04 #@! TO.C,D3*
X140579100Y-34372775D02*
X139579100Y-34372775D01*
X139579100Y-34134680D01*
X139626720Y-33991822D01*
X139721958Y-33896584D01*
X139817196Y-33848965D01*
X140007672Y-33801346D01*
X140150529Y-33801346D01*
X140341005Y-33848965D01*
X140436243Y-33896584D01*
X140531481Y-33991822D01*
X140579100Y-34134680D01*
X140579100Y-34372775D01*
X139579100Y-33468013D02*
X139579100Y-32848965D01*
X139960053Y-33182299D01*
X139960053Y-33039441D01*
X140007672Y-32944203D01*
X140055291Y-32896584D01*
X140150529Y-32848965D01*
X140388624Y-32848965D01*
X140483862Y-32896584D01*
X140531481Y-32944203D01*
X140579100Y-33039441D01*
X140579100Y-33325156D01*
X140531481Y-33420394D01*
X140483862Y-33468013D01*
G04 #@! TO.C,R1*
X140567400Y-37753586D02*
X140091210Y-38086920D01*
X140567400Y-38325015D02*
X139567400Y-38325015D01*
X139567400Y-37944062D01*
X139615020Y-37848824D01*
X139662639Y-37801205D01*
X139757877Y-37753586D01*
X139900734Y-37753586D01*
X139995972Y-37801205D01*
X140043591Y-37848824D01*
X140091210Y-37944062D01*
X140091210Y-38325015D01*
X140567400Y-36801205D02*
X140567400Y-37372634D01*
X140567400Y-37086920D02*
X139567400Y-37086920D01*
X139710258Y-37182158D01*
X139805496Y-37277396D01*
X139853115Y-37372634D01*
G04 #@! TO.C,R2*
X84692193Y-71783200D02*
X84358860Y-71307010D01*
X84120764Y-71783200D02*
X84120764Y-70783200D01*
X84501717Y-70783200D01*
X84596955Y-70830820D01*
X84644574Y-70878439D01*
X84692193Y-70973677D01*
X84692193Y-71116534D01*
X84644574Y-71211772D01*
X84596955Y-71259391D01*
X84501717Y-71307010D01*
X84120764Y-71307010D01*
X85073145Y-70878439D02*
X85120764Y-70830820D01*
X85216002Y-70783200D01*
X85454098Y-70783200D01*
X85549336Y-70830820D01*
X85596955Y-70878439D01*
X85644574Y-70973677D01*
X85644574Y-71068915D01*
X85596955Y-71211772D01*
X85025526Y-71783200D01*
X85644574Y-71783200D01*
G04 #@! TO.C,R3*
X84692193Y-69766440D02*
X84358860Y-69290250D01*
X84120764Y-69766440D02*
X84120764Y-68766440D01*
X84501717Y-68766440D01*
X84596955Y-68814060D01*
X84644574Y-68861679D01*
X84692193Y-68956917D01*
X84692193Y-69099774D01*
X84644574Y-69195012D01*
X84596955Y-69242631D01*
X84501717Y-69290250D01*
X84120764Y-69290250D01*
X85025526Y-68766440D02*
X85644574Y-68766440D01*
X85311240Y-69147393D01*
X85454098Y-69147393D01*
X85549336Y-69195012D01*
X85596955Y-69242631D01*
X85644574Y-69337869D01*
X85644574Y-69575964D01*
X85596955Y-69671202D01*
X85549336Y-69718821D01*
X85454098Y-69766440D01*
X85168383Y-69766440D01*
X85073145Y-69718821D01*
X85025526Y-69671202D01*
G04 #@! TO.C,R4*
X84748073Y-74048880D02*
X84414740Y-73572690D01*
X84176644Y-74048880D02*
X84176644Y-73048880D01*
X84557597Y-73048880D01*
X84652835Y-73096500D01*
X84700454Y-73144119D01*
X84748073Y-73239357D01*
X84748073Y-73382214D01*
X84700454Y-73477452D01*
X84652835Y-73525071D01*
X84557597Y-73572690D01*
X84176644Y-73572690D01*
X85605216Y-73382214D02*
X85605216Y-74048880D01*
X85367120Y-73001261D02*
X85129025Y-73715547D01*
X85748073Y-73715547D01*
G04 #@! TO.C,D2*
X108448604Y-32986800D02*
X108448604Y-31986800D01*
X108686700Y-31986800D01*
X108829557Y-32034420D01*
X108924795Y-32129658D01*
X108972414Y-32224896D01*
X109020033Y-32415372D01*
X109020033Y-32558229D01*
X108972414Y-32748705D01*
X108924795Y-32843943D01*
X108829557Y-32939181D01*
X108686700Y-32986800D01*
X108448604Y-32986800D01*
X109400985Y-32082039D02*
X109448604Y-32034420D01*
X109543842Y-31986800D01*
X109781938Y-31986800D01*
X109877176Y-32034420D01*
X109924795Y-32082039D01*
X109972414Y-32177277D01*
X109972414Y-32272515D01*
X109924795Y-32415372D01*
X109353366Y-32986800D01*
X109972414Y-32986800D01*
G04 #@! TO.C,D4*
X108580684Y-22783620D02*
X108580684Y-21783620D01*
X108818780Y-21783620D01*
X108961637Y-21831240D01*
X109056875Y-21926478D01*
X109104494Y-22021716D01*
X109152113Y-22212192D01*
X109152113Y-22355049D01*
X109104494Y-22545525D01*
X109056875Y-22640763D01*
X108961637Y-22736001D01*
X108818780Y-22783620D01*
X108580684Y-22783620D01*
X110009256Y-22116954D02*
X110009256Y-22783620D01*
X109771160Y-21736001D02*
X109533065Y-22450287D01*
X110152113Y-22450287D01*
G04 #@! TO.C,TP1*
X81735135Y-98326960D02*
X82306563Y-98326960D01*
X82020849Y-99326960D02*
X82020849Y-98326960D01*
X82639897Y-99326960D02*
X82639897Y-98326960D01*
X83020849Y-98326960D01*
X83116087Y-98374580D01*
X83163706Y-98422199D01*
X83211325Y-98517437D01*
X83211325Y-98660294D01*
X83163706Y-98755532D01*
X83116087Y-98803151D01*
X83020849Y-98850770D01*
X82639897Y-98850770D01*
X84163706Y-99326960D02*
X83592278Y-99326960D01*
X83877992Y-99326960D02*
X83877992Y-98326960D01*
X83782754Y-98469818D01*
X83687516Y-98565056D01*
X83592278Y-98612675D01*
G04 #@! TO.C,TP2*
X70231475Y-98677480D02*
X70802903Y-98677480D01*
X70517189Y-99677480D02*
X70517189Y-98677480D01*
X71136237Y-99677480D02*
X71136237Y-98677480D01*
X71517189Y-98677480D01*
X71612427Y-98725100D01*
X71660046Y-98772719D01*
X71707665Y-98867957D01*
X71707665Y-99010814D01*
X71660046Y-99106052D01*
X71612427Y-99153671D01*
X71517189Y-99201290D01*
X71136237Y-99201290D01*
X72088618Y-98772719D02*
X72136237Y-98725100D01*
X72231475Y-98677480D01*
X72469570Y-98677480D01*
X72564808Y-98725100D01*
X72612427Y-98772719D01*
X72660046Y-98867957D01*
X72660046Y-98963195D01*
X72612427Y-99106052D01*
X72040999Y-99677480D01*
X72660046Y-99677480D01*
G04 #@! TO.C,TP3*
X70048595Y-112040420D02*
X70620023Y-112040420D01*
X70334309Y-113040420D02*
X70334309Y-112040420D01*
X70953357Y-113040420D02*
X70953357Y-112040420D01*
X71334309Y-112040420D01*
X71429547Y-112088040D01*
X71477166Y-112135659D01*
X71524785Y-112230897D01*
X71524785Y-112373754D01*
X71477166Y-112468992D01*
X71429547Y-112516611D01*
X71334309Y-112564230D01*
X70953357Y-112564230D01*
X71858119Y-112040420D02*
X72477166Y-112040420D01*
X72143833Y-112421373D01*
X72286690Y-112421373D01*
X72381928Y-112468992D01*
X72429547Y-112516611D01*
X72477166Y-112611849D01*
X72477166Y-112849944D01*
X72429547Y-112945182D01*
X72381928Y-112992801D01*
X72286690Y-113040420D01*
X72000976Y-113040420D01*
X71905738Y-112992801D01*
X71858119Y-112945182D01*
G04 #@! TO.C,TP4*
X81552255Y-112398560D02*
X82123683Y-112398560D01*
X81837969Y-113398560D02*
X81837969Y-112398560D01*
X82457017Y-113398560D02*
X82457017Y-112398560D01*
X82837969Y-112398560D01*
X82933207Y-112446180D01*
X82980826Y-112493799D01*
X83028445Y-112589037D01*
X83028445Y-112731894D01*
X82980826Y-112827132D01*
X82933207Y-112874751D01*
X82837969Y-112922370D01*
X82457017Y-112922370D01*
X83885588Y-112731894D02*
X83885588Y-113398560D01*
X83647493Y-112350941D02*
X83409398Y-113065227D01*
X84028445Y-113065227D01*
G04 #@! TD*
M02*
