M48
INCH,TZ
T1C0.0120
T2C0.0157
T3C0.0315
T4C0.0374
T5C0.0394
T6C0.0402
T7C0.0512
T8C0.0630
T9C0.0630
T10C0.0689
T11C0.0858
T12C0.0394
T13C0.0787
T14C0.1122
%
G90
G05
T1
X31362Y-40237
X33777Y-40232
X40348Y-7608
X40375Y-8318
X40375Y-9047
X40538Y-12345
X40578Y-13302
X40640Y-14208
X40848Y-7892
X40888Y-8689
X40929Y-9527
X40978Y-11882
X41067Y-12782
X41067Y-13729
X41436Y-8270
X41449Y-7615
X41474Y-12375
X41490Y-9034
X41586Y-13261
X42091Y-9581
X42645Y-9101
T2
X34273Y-26813
X34666Y-26798
X34668Y-29499
X35059Y-26832
X35340Y-29535
X35467Y-26806
X35734Y-28343
X35752Y-27617
X40278Y-17666
X40829Y-15839
X40833Y-16309
X41483Y-17522
X41806Y-17271
X42063Y-16167
X42228Y-17519
X55290Y-12544
T3
X38554Y-31630
X39054Y-30630
X39554Y-31630
X40054Y-30630
X40554Y-31630
X41054Y-30630
X41554Y-31630
X42054Y-30630
X42554Y-31630
X43054Y-30630
X43554Y-31630
X44054Y-30630
X44554Y-31630
X45054Y-30630
X45554Y-31630
X46054Y-30630
X46554Y-31630
X47054Y-30630
X47554Y-31630
X48054Y-30630
X38557Y-19630
X39057Y-18630
X39557Y-19630
X40057Y-18630
X40557Y-19630
X41057Y-18630
X41557Y-19630
X42057Y-18630
X42557Y-19630
X43057Y-18630
X43557Y-19630
X44057Y-18630
X44557Y-19630
X45057Y-18630
X45557Y-19630
X46057Y-18630
X46557Y-19630
X47057Y-18630
X47557Y-19630
X48057Y-18630
X38559Y-39635
X39059Y-38635
X39559Y-39635
X40059Y-38635
X40559Y-39635
X41059Y-38635
X41559Y-39635
X42059Y-38635
X42559Y-39635
X43059Y-38635
X43559Y-39635
X44059Y-38635
X44559Y-39635
X45059Y-38635
X45559Y-39635
X46059Y-38635
X46559Y-39635
X47059Y-38635
X47559Y-39635
X48059Y-38635
X38558Y-23627
X39058Y-22627
X39558Y-23627
X40058Y-22627
X40558Y-23627
X41058Y-22627
X41558Y-23627
X42058Y-22627
X42558Y-23627
X43058Y-22627
X43558Y-23627
X44058Y-22627
X44558Y-23627
X45058Y-22627
X45558Y-23627
X46058Y-22627
X46558Y-23627
X47058Y-22627
X47558Y-23627
X48058Y-22627
X38559Y-27634
X39059Y-26634
X39559Y-27634
X40059Y-26634
X40559Y-27634
X41059Y-26634
X41559Y-27634
X42059Y-26634
X42559Y-27634
X43059Y-26634
X43559Y-27634
X44059Y-26634
X44559Y-27634
X45059Y-26634
X45559Y-27634
X46059Y-26634
X46559Y-27634
X47059Y-26634
X47559Y-27634
X48059Y-26634
X38554Y-35636
X39054Y-34636
X39554Y-35636
X40054Y-34636
X40554Y-35636
X41054Y-34636
X41554Y-35636
X42054Y-34636
X42554Y-35636
X43054Y-34636
X43554Y-35636
X44054Y-34636
X44554Y-35636
X45054Y-34636
X45554Y-35636
X46054Y-34636
X46554Y-35636
X47054Y-34636
X47554Y-35636
X48054Y-34636
T4
X18177Y-42663
X19007Y-39053
X19177Y-42663
X19507Y-40053
X20007Y-39053
X20507Y-40053
X21007Y-39053
X21507Y-40053
X22007Y-39053
X22334Y-42663
X22507Y-40053
X23334Y-42663
T5
X46585Y-43997
X46585Y-45178
X47766Y-43997
X47766Y-45178
X38236Y-43992
X38236Y-45173
X39417Y-43992
X39417Y-45173
T6
X53811Y-8501
X55189Y-8501
T7
X36223Y-14441
X39223Y-7441
X39223Y-10441
X39223Y-14441
T8
X54500Y-7623
T9
X45870Y-11726
X45870Y-13064
X51184Y-11726
X51184Y-13064
X45831Y-7742
X45831Y-9080
X51145Y-7742
X51145Y-9080
T10
X17402Y-25201
X17402Y-28351
X18189Y-26776
X18977Y-25201
X18977Y-28351
X19764Y-26776
X20552Y-25201
X20552Y-28351
X21339Y-26776
X22126Y-25201
X22126Y-28351
X22914Y-26776
X23701Y-25201
X23701Y-28351
X12618Y-10228
X12618Y-13378
X13406Y-11803
X14193Y-10228
X14193Y-13378
X14980Y-11803
X15768Y-10228
X15768Y-13378
X16555Y-11803
X17343Y-10228
X17343Y-13378
X18130Y-11803
X18917Y-10228
X18917Y-13378
X19705Y-11803
X20492Y-10228
X20492Y-13378
X21280Y-11803
X22067Y-10228
X22067Y-13378
X22854Y-11803
X23642Y-10228
X23642Y-13378
X24429Y-11803
X25217Y-10228
X25217Y-13378
X26004Y-11803
X26791Y-10228
X26791Y-13378
X27579Y-11803
X28366Y-10228
X28366Y-13378
X29154Y-11803
X29941Y-10228
X29941Y-13378
T11
X18019Y-40793
X23491Y-40793
T12
X45404Y-45548
X48947Y-45548
X37055Y-45543
X40598Y-45543
T13
X12993Y-23902
X13583Y-31028
X27520Y-31028
X28111Y-23902
X8209Y-14677
X8799Y-7551
X33760Y-7551
X34350Y-14677
T14
X14843Y-26579
X26241Y-26579
X10059Y-12000
X32500Y-12000
T0
M30
