G04 #@! TF.GenerationSoftware,KiCad,Pcbnew,8.0.6*
G04 #@! TF.CreationDate,2024-11-19T22:41:57-05:00*
G04 #@! TF.ProjectId,brakes,6272616b-6573-42e6-9b69-6361645f7063,2*
G04 #@! TF.SameCoordinates,Original*
G04 #@! TF.FileFunction,Legend,Top*
G04 #@! TF.FilePolarity,Positive*
%FSLAX46Y46*%
G04 Gerber Fmt 4.6, Leading zero omitted, Abs format (unit mm)*
G04 Created by KiCad (PCBNEW 8.0.6) date 2024-11-19 22:41:57*
%MOMM*%
%LPD*%
G01*
G04 APERTURE LIST*
G04 Aperture macros list*
%AMRoundRect*
0 Rectangle with rounded corners*
0 $1 Rounding radius*
0 $2 $3 $4 $5 $6 $7 $8 $9 X,Y pos of 4 corners*
0 Add a 4 corners polygon primitive as box body*
4,1,4,$2,$3,$4,$5,$6,$7,$8,$9,$2,$3,0*
0 Add four circle primitives for the rounded corners*
1,1,$1+$1,$2,$3*
1,1,$1+$1,$4,$5*
1,1,$1+$1,$6,$7*
1,1,$1+$1,$8,$9*
0 Add four rect primitives between the rounded corners*
20,1,$1+$1,$2,$3,$4,$5,0*
20,1,$1+$1,$4,$5,$6,$7,0*
20,1,$1+$1,$6,$7,$8,$9,0*
20,1,$1+$1,$8,$9,$2,$3,0*%
G04 Aperture macros list end*
%ADD10C,0.150000*%
%ADD11C,0.100000*%
%ADD12C,0.200000*%
%ADD13C,0.187500*%
%ADD14C,0.120000*%
%ADD15C,0.500000*%
%ADD16R,0.650000X1.060000*%
%ADD17RoundRect,0.200000X0.275000X-0.200000X0.275000X0.200000X-0.275000X0.200000X-0.275000X-0.200000X0*%
%ADD18R,1.200000X1.200000*%
%ADD19R,0.900000X0.800000*%
%ADD20RoundRect,0.200000X-0.275000X0.200000X-0.275000X-0.200000X0.275000X-0.200000X0.275000X0.200000X0*%
%ADD21RoundRect,0.225000X-0.250000X0.225000X-0.250000X-0.225000X0.250000X-0.225000X0.250000X0.225000X0*%
%ADD22RoundRect,0.225000X0.225000X0.250000X-0.225000X0.250000X-0.225000X-0.250000X0.225000X-0.250000X0*%
%ADD23R,4.500000X3.000000*%
%ADD24R,0.800000X0.900000*%
%ADD25RoundRect,0.225000X0.250000X-0.225000X0.250000X0.225000X-0.250000X0.225000X-0.250000X-0.225000X0*%
%ADD26RoundRect,0.200000X0.200000X0.275000X-0.200000X0.275000X-0.200000X-0.275000X0.200000X-0.275000X0*%
%ADD27R,0.550000X1.600000*%
%ADD28R,1.600000X0.550000*%
%ADD29C,5.703199*%
%ADD30R,0.800000X1.700000*%
%ADD31RoundRect,0.225000X-0.225000X-0.250000X0.225000X-0.250000X0.225000X0.250000X-0.225000X0.250000X0*%
%ADD32R,1.200000X1.400000*%
%ADD33R,1.778000X2.159000*%
%ADD34R,0.600000X1.550000*%
%ADD35RoundRect,0.100000X0.100000X-0.225000X0.100000X0.225000X-0.100000X0.225000X-0.100000X-0.225000X0*%
%ADD36R,2.500000X0.900000*%
%ADD37R,1.700000X1.700000*%
%ADD38O,1.700000X1.700000*%
%ADD39RoundRect,0.200000X-0.200000X-0.275000X0.200000X-0.275000X0.200000X0.275000X-0.200000X0.275000X0*%
%ADD40C,1.800000*%
%ADD41RoundRect,0.100000X0.225000X0.100000X-0.225000X0.100000X-0.225000X-0.100000X0.225000X-0.100000X0*%
%ADD42O,0.700000X4.300000*%
%ADD43O,0.700000X3.200000*%
G04 APERTURE END LIST*
D10*
X151650000Y-99000000D02*
X151650000Y-102640000D01*
X151140000Y-87290000D02*
X151140000Y-92140000D01*
D11*
X138700000Y-56250000D02*
X137960000Y-56250000D01*
X138700000Y-80250000D02*
X137970000Y-80250000D01*
D10*
X146710000Y-103140000D02*
X146660000Y-103140000D01*
D11*
X138890000Y-88300000D02*
X137970000Y-88300000D01*
X138950000Y-60250000D02*
X137990000Y-60250000D01*
D10*
X151980000Y-87290000D02*
X151140000Y-87290000D01*
X155965001Y-62625000D02*
X157044860Y-62625000D01*
X157044860Y-50610000D02*
X157044860Y-58625000D01*
X151140000Y-98490000D02*
X151650000Y-99000000D01*
X142000000Y-123500000D02*
X142000000Y-130870224D01*
X157044860Y-59960010D02*
X157044860Y-62625000D01*
X138000000Y-130870224D02*
X142000000Y-130870224D01*
X151140000Y-94690000D02*
X151140000Y-95300000D01*
X137950000Y-52250000D02*
X143950000Y-52250000D01*
X147450000Y-84250000D02*
X148650000Y-84250000D01*
X146000000Y-103140000D02*
X146660000Y-103140000D01*
X152645000Y-75465000D02*
X152720000Y-75540000D01*
X151140000Y-95300000D02*
X151140000Y-98270000D01*
X151900000Y-58625000D02*
X155954860Y-58625000D01*
X151900000Y-71640000D02*
X152040000Y-71780000D01*
X153014939Y-81175061D02*
X153014939Y-83110006D01*
X149000000Y-114800000D02*
X147010000Y-116790000D01*
X137950000Y-48250000D02*
X143950000Y-48250000D01*
D11*
X138700000Y-72250000D02*
X148650000Y-72250000D01*
D10*
X151140000Y-92140000D02*
X151140000Y-94690000D01*
X166930000Y-104310008D02*
X166930000Y-130720000D01*
D11*
X152814860Y-54650000D02*
X157070000Y-54650000D01*
D10*
X152365000Y-76590000D02*
X152725000Y-76230000D01*
X151650000Y-102640000D02*
X156110000Y-107100000D01*
D11*
X146040000Y-88300000D02*
X139240000Y-88300000D01*
D10*
X156940000Y-58625000D02*
X157044860Y-58625000D01*
X143950000Y-84250000D02*
X147450000Y-84250000D01*
X137950000Y-76250000D02*
X143950000Y-76250000D01*
X149200000Y-48250000D02*
X166930000Y-48250000D01*
X137950000Y-122870224D02*
X137950000Y-130870224D01*
X152150000Y-71890000D02*
X152290000Y-72030000D01*
X152366247Y-78976247D02*
X152833753Y-79443753D01*
D11*
X138700000Y-80250000D02*
X148650000Y-80250000D01*
X138700000Y-72250000D02*
X137980000Y-72250000D01*
D10*
X153014939Y-83420000D02*
X152367710Y-84067229D01*
D11*
X138700000Y-68250000D02*
X137970000Y-68250000D01*
D10*
X141950000Y-84250000D02*
X142950000Y-84250000D01*
X137950000Y-64250000D02*
X143950000Y-64250000D01*
X151140000Y-98270000D02*
X151140000Y-98490000D01*
X152725000Y-75545000D02*
X152725000Y-76230000D01*
X142720000Y-123500000D02*
X146860000Y-119360000D01*
X153220000Y-80150000D02*
X153220000Y-80500000D01*
X143950000Y-76250000D02*
X148650000Y-76250000D01*
X153220000Y-80507469D02*
X153014939Y-80712530D01*
X137950000Y-84250000D02*
X137950000Y-74250000D01*
X141600000Y-92070000D02*
X141600000Y-99160000D01*
X166930000Y-130720000D02*
X166930000Y-130870000D01*
X147450000Y-48250000D02*
X143950000Y-48250000D01*
X152833753Y-79443753D02*
X153010000Y-79620000D01*
X137950000Y-122870224D02*
X137950000Y-84250000D01*
X146015000Y-92070000D02*
X146015000Y-84259986D01*
D11*
X138700000Y-68250000D02*
X148650000Y-68250000D01*
D10*
X142000000Y-123500000D02*
X142720000Y-123500000D01*
X152290000Y-73100000D02*
X152290000Y-75110000D01*
X153010000Y-79940000D02*
X153220000Y-80150000D01*
X162850000Y-129650000D02*
X156110000Y-129650000D01*
X149200000Y-48250000D02*
X147450000Y-48250000D01*
X156110000Y-129650000D02*
X156110000Y-108889988D01*
X152367710Y-84067229D02*
X152367710Y-87290001D01*
X137950000Y-48250000D02*
X137950000Y-57250000D01*
X151980000Y-87290000D02*
X166930000Y-87290000D01*
X146000000Y-99169986D02*
X146660000Y-99169987D01*
X146710000Y-99169987D02*
X146660000Y-99169987D01*
X162850000Y-129650000D02*
X166900000Y-129650000D01*
X147010000Y-116790000D02*
X146860000Y-116940000D01*
X166930000Y-130870000D02*
X166860000Y-130870000D01*
X146000000Y-99169986D02*
X137990000Y-99169999D01*
X152290000Y-72030000D02*
X152290000Y-73100000D01*
X153014939Y-80712530D02*
X153014939Y-81175061D01*
X137950000Y-74250000D02*
X137950000Y-73250000D01*
X143950000Y-52250000D02*
X148650000Y-52250000D01*
X156110000Y-108889988D02*
X156110000Y-107639988D01*
X153010000Y-79620000D02*
X153010000Y-79940000D01*
X141950000Y-84250000D02*
X137950000Y-84250000D01*
X143950000Y-84250000D02*
X142950000Y-84250000D01*
D11*
X152814860Y-54650000D02*
X151920000Y-54650000D01*
D10*
X166930000Y-48250000D02*
X166930000Y-104310008D01*
X153014939Y-83110006D02*
X153014939Y-83420000D01*
X137980000Y-103140000D02*
X146000000Y-103140000D01*
X152295000Y-75115000D02*
X152645000Y-75465000D01*
X146860000Y-119360000D02*
X146860000Y-116940000D01*
X146710000Y-103140000D02*
X146710000Y-99169987D01*
X157044860Y-50610000D02*
X157044860Y-48289867D01*
X151900000Y-62625000D02*
X155965001Y-62625000D01*
X157044860Y-58625000D02*
X157044860Y-59960010D01*
X152040000Y-71780000D02*
X152150000Y-71890000D01*
X151900000Y-48250000D02*
X151900000Y-69260000D01*
X151900000Y-69260000D02*
X151900000Y-69495000D01*
X137950000Y-104125000D02*
X149000000Y-104125000D01*
X142000000Y-130870224D02*
X166900008Y-130870224D01*
D11*
X138950000Y-60250000D02*
X148650000Y-60250000D01*
D10*
X155954860Y-58625000D02*
X156940000Y-58625000D01*
X149000000Y-114550000D02*
X149000000Y-114800000D01*
X137965000Y-92070000D02*
X146015000Y-92070000D01*
X152366247Y-78976247D02*
X152365000Y-76590000D01*
X151900000Y-69495000D02*
X151900000Y-71640000D01*
X137950000Y-73250000D02*
X137950000Y-57250000D01*
D11*
X139240000Y-88300000D02*
X138890000Y-88300000D01*
X138700000Y-56250000D02*
X148650000Y-56250000D01*
D10*
X156110000Y-107100000D02*
X156110000Y-107639988D01*
X143950000Y-64250000D02*
X148650000Y-64250000D01*
X148650000Y-84250000D02*
X148650000Y-48250000D01*
X137950000Y-123500000D02*
X142000000Y-123500000D01*
X149000000Y-114550000D02*
X149000000Y-104125000D01*
D12*
X144577219Y-86968096D02*
X144577219Y-87444286D01*
X144577219Y-87444286D02*
X145053409Y-87491905D01*
X145053409Y-87491905D02*
X145005790Y-87444286D01*
X145005790Y-87444286D02*
X144958171Y-87349048D01*
X144958171Y-87349048D02*
X144958171Y-87110953D01*
X144958171Y-87110953D02*
X145005790Y-87015715D01*
X145005790Y-87015715D02*
X145053409Y-86968096D01*
X145053409Y-86968096D02*
X145148647Y-86920477D01*
X145148647Y-86920477D02*
X145386742Y-86920477D01*
X145386742Y-86920477D02*
X145481980Y-86968096D01*
X145481980Y-86968096D02*
X145529600Y-87015715D01*
X145529600Y-87015715D02*
X145577219Y-87110953D01*
X145577219Y-87110953D02*
X145577219Y-87349048D01*
X145577219Y-87349048D02*
X145529600Y-87444286D01*
X145529600Y-87444286D02*
X145481980Y-87491905D01*
X145577219Y-86491905D02*
X144577219Y-86491905D01*
X145196266Y-86396667D02*
X145577219Y-86110953D01*
X144910552Y-86110953D02*
X145291504Y-86491905D01*
X144577219Y-85777619D02*
X145577219Y-85539524D01*
X145577219Y-85539524D02*
X144862933Y-85349048D01*
X144862933Y-85349048D02*
X145577219Y-85158572D01*
X145577219Y-85158572D02*
X144577219Y-84920477D01*
X166637219Y-86850326D02*
X165637219Y-86850326D01*
X165637219Y-86850326D02*
X166351504Y-86516993D01*
X166351504Y-86516993D02*
X165637219Y-86183660D01*
X165637219Y-86183660D02*
X166637219Y-86183660D01*
X166637219Y-85707469D02*
X165970552Y-85707469D01*
X165637219Y-85707469D02*
X165684838Y-85755088D01*
X165684838Y-85755088D02*
X165732457Y-85707469D01*
X165732457Y-85707469D02*
X165684838Y-85659850D01*
X165684838Y-85659850D02*
X165637219Y-85707469D01*
X165637219Y-85707469D02*
X165732457Y-85707469D01*
X166589600Y-84802708D02*
X166637219Y-84897946D01*
X166637219Y-84897946D02*
X166637219Y-85088422D01*
X166637219Y-85088422D02*
X166589600Y-85183660D01*
X166589600Y-85183660D02*
X166541980Y-85231279D01*
X166541980Y-85231279D02*
X166446742Y-85278898D01*
X166446742Y-85278898D02*
X166161028Y-85278898D01*
X166161028Y-85278898D02*
X166065790Y-85231279D01*
X166065790Y-85231279D02*
X166018171Y-85183660D01*
X166018171Y-85183660D02*
X165970552Y-85088422D01*
X165970552Y-85088422D02*
X165970552Y-84897946D01*
X165970552Y-84897946D02*
X166018171Y-84802708D01*
X166637219Y-84374136D02*
X165970552Y-84374136D01*
X166161028Y-84374136D02*
X166065790Y-84326517D01*
X166065790Y-84326517D02*
X166018171Y-84278898D01*
X166018171Y-84278898D02*
X165970552Y-84183660D01*
X165970552Y-84183660D02*
X165970552Y-84088422D01*
X166637219Y-83612231D02*
X166589600Y-83707469D01*
X166589600Y-83707469D02*
X166541980Y-83755088D01*
X166541980Y-83755088D02*
X166446742Y-83802707D01*
X166446742Y-83802707D02*
X166161028Y-83802707D01*
X166161028Y-83802707D02*
X166065790Y-83755088D01*
X166065790Y-83755088D02*
X166018171Y-83707469D01*
X166018171Y-83707469D02*
X165970552Y-83612231D01*
X165970552Y-83612231D02*
X165970552Y-83469374D01*
X165970552Y-83469374D02*
X166018171Y-83374136D01*
X166018171Y-83374136D02*
X166065790Y-83326517D01*
X166065790Y-83326517D02*
X166161028Y-83278898D01*
X166161028Y-83278898D02*
X166446742Y-83278898D01*
X166446742Y-83278898D02*
X166541980Y-83326517D01*
X166541980Y-83326517D02*
X166589600Y-83374136D01*
X166589600Y-83374136D02*
X166637219Y-83469374D01*
X166637219Y-83469374D02*
X166637219Y-83612231D01*
X166589600Y-82421755D02*
X166637219Y-82516993D01*
X166637219Y-82516993D02*
X166637219Y-82707469D01*
X166637219Y-82707469D02*
X166589600Y-82802707D01*
X166589600Y-82802707D02*
X166541980Y-82850326D01*
X166541980Y-82850326D02*
X166446742Y-82897945D01*
X166446742Y-82897945D02*
X166161028Y-82897945D01*
X166161028Y-82897945D02*
X166065790Y-82850326D01*
X166065790Y-82850326D02*
X166018171Y-82802707D01*
X166018171Y-82802707D02*
X165970552Y-82707469D01*
X165970552Y-82707469D02*
X165970552Y-82516993D01*
X165970552Y-82516993D02*
X166018171Y-82421755D01*
X166637219Y-81850326D02*
X166589600Y-81945564D01*
X166589600Y-81945564D02*
X166541980Y-81993183D01*
X166541980Y-81993183D02*
X166446742Y-82040802D01*
X166446742Y-82040802D02*
X166161028Y-82040802D01*
X166161028Y-82040802D02*
X166065790Y-81993183D01*
X166065790Y-81993183D02*
X166018171Y-81945564D01*
X166018171Y-81945564D02*
X165970552Y-81850326D01*
X165970552Y-81850326D02*
X165970552Y-81707469D01*
X165970552Y-81707469D02*
X166018171Y-81612231D01*
X166018171Y-81612231D02*
X166065790Y-81564612D01*
X166065790Y-81564612D02*
X166161028Y-81516993D01*
X166161028Y-81516993D02*
X166446742Y-81516993D01*
X166446742Y-81516993D02*
X166541980Y-81564612D01*
X166541980Y-81564612D02*
X166589600Y-81612231D01*
X166589600Y-81612231D02*
X166637219Y-81707469D01*
X166637219Y-81707469D02*
X166637219Y-81850326D01*
X165970552Y-81088421D02*
X166637219Y-81088421D01*
X166065790Y-81088421D02*
X166018171Y-81040802D01*
X166018171Y-81040802D02*
X165970552Y-80945564D01*
X165970552Y-80945564D02*
X165970552Y-80802707D01*
X165970552Y-80802707D02*
X166018171Y-80707469D01*
X166018171Y-80707469D02*
X166113409Y-80659850D01*
X166113409Y-80659850D02*
X166637219Y-80659850D01*
X165970552Y-80326516D02*
X165970552Y-79945564D01*
X165637219Y-80183659D02*
X166494361Y-80183659D01*
X166494361Y-80183659D02*
X166589600Y-80136040D01*
X166589600Y-80136040D02*
X166637219Y-80040802D01*
X166637219Y-80040802D02*
X166637219Y-79945564D01*
X166637219Y-79612230D02*
X165970552Y-79612230D01*
X166161028Y-79612230D02*
X166065790Y-79564611D01*
X166065790Y-79564611D02*
X166018171Y-79516992D01*
X166018171Y-79516992D02*
X165970552Y-79421754D01*
X165970552Y-79421754D02*
X165970552Y-79326516D01*
X166637219Y-78850325D02*
X166589600Y-78945563D01*
X166589600Y-78945563D02*
X166541980Y-78993182D01*
X166541980Y-78993182D02*
X166446742Y-79040801D01*
X166446742Y-79040801D02*
X166161028Y-79040801D01*
X166161028Y-79040801D02*
X166065790Y-78993182D01*
X166065790Y-78993182D02*
X166018171Y-78945563D01*
X166018171Y-78945563D02*
X165970552Y-78850325D01*
X165970552Y-78850325D02*
X165970552Y-78707468D01*
X165970552Y-78707468D02*
X166018171Y-78612230D01*
X166018171Y-78612230D02*
X166065790Y-78564611D01*
X166065790Y-78564611D02*
X166161028Y-78516992D01*
X166161028Y-78516992D02*
X166446742Y-78516992D01*
X166446742Y-78516992D02*
X166541980Y-78564611D01*
X166541980Y-78564611D02*
X166589600Y-78612230D01*
X166589600Y-78612230D02*
X166637219Y-78707468D01*
X166637219Y-78707468D02*
X166637219Y-78850325D01*
X166637219Y-77945563D02*
X166589600Y-78040801D01*
X166589600Y-78040801D02*
X166494361Y-78088420D01*
X166494361Y-78088420D02*
X165637219Y-78088420D01*
X166637219Y-77421753D02*
X166589600Y-77516991D01*
X166589600Y-77516991D02*
X166494361Y-77564610D01*
X166494361Y-77564610D02*
X165637219Y-77564610D01*
X166589600Y-76659848D02*
X166637219Y-76755086D01*
X166637219Y-76755086D02*
X166637219Y-76945562D01*
X166637219Y-76945562D02*
X166589600Y-77040800D01*
X166589600Y-77040800D02*
X166494361Y-77088419D01*
X166494361Y-77088419D02*
X166113409Y-77088419D01*
X166113409Y-77088419D02*
X166018171Y-77040800D01*
X166018171Y-77040800D02*
X165970552Y-76945562D01*
X165970552Y-76945562D02*
X165970552Y-76755086D01*
X165970552Y-76755086D02*
X166018171Y-76659848D01*
X166018171Y-76659848D02*
X166113409Y-76612229D01*
X166113409Y-76612229D02*
X166208647Y-76612229D01*
X166208647Y-76612229D02*
X166303885Y-77088419D01*
X166637219Y-76183657D02*
X165970552Y-76183657D01*
X166161028Y-76183657D02*
X166065790Y-76136038D01*
X166065790Y-76136038D02*
X166018171Y-76088419D01*
X166018171Y-76088419D02*
X165970552Y-75993181D01*
X165970552Y-75993181D02*
X165970552Y-75897943D01*
D10*
X148173200Y-51762983D02*
X148211295Y-51648697D01*
X148211295Y-51648697D02*
X148211295Y-51458221D01*
X148211295Y-51458221D02*
X148173200Y-51382030D01*
X148173200Y-51382030D02*
X148135104Y-51343935D01*
X148135104Y-51343935D02*
X148058914Y-51305840D01*
X148058914Y-51305840D02*
X147982723Y-51305840D01*
X147982723Y-51305840D02*
X147906533Y-51343935D01*
X147906533Y-51343935D02*
X147868438Y-51382030D01*
X147868438Y-51382030D02*
X147830342Y-51458221D01*
X147830342Y-51458221D02*
X147792247Y-51610602D01*
X147792247Y-51610602D02*
X147754152Y-51686792D01*
X147754152Y-51686792D02*
X147716057Y-51724887D01*
X147716057Y-51724887D02*
X147639866Y-51762983D01*
X147639866Y-51762983D02*
X147563676Y-51762983D01*
X147563676Y-51762983D02*
X147487485Y-51724887D01*
X147487485Y-51724887D02*
X147449390Y-51686792D01*
X147449390Y-51686792D02*
X147411295Y-51610602D01*
X147411295Y-51610602D02*
X147411295Y-51420125D01*
X147411295Y-51420125D02*
X147449390Y-51305840D01*
X148211295Y-50962982D02*
X147411295Y-50962982D01*
X147792247Y-50962982D02*
X147792247Y-50505839D01*
X148211295Y-50505839D02*
X147411295Y-50505839D01*
X148211295Y-50124887D02*
X147411295Y-50124887D01*
X147411295Y-50124887D02*
X147411295Y-49934411D01*
X147411295Y-49934411D02*
X147449390Y-49820125D01*
X147449390Y-49820125D02*
X147525580Y-49743935D01*
X147525580Y-49743935D02*
X147601771Y-49705840D01*
X147601771Y-49705840D02*
X147754152Y-49667744D01*
X147754152Y-49667744D02*
X147868438Y-49667744D01*
X147868438Y-49667744D02*
X148020819Y-49705840D01*
X148020819Y-49705840D02*
X148097009Y-49743935D01*
X148097009Y-49743935D02*
X148173200Y-49820125D01*
X148173200Y-49820125D02*
X148211295Y-49934411D01*
X148211295Y-49934411D02*
X148211295Y-50124887D01*
X148211295Y-49324887D02*
X147411295Y-49324887D01*
X147411295Y-49324887D02*
X148211295Y-48867744D01*
X148211295Y-48867744D02*
X147411295Y-48867744D01*
X147269819Y-82466792D02*
X147269819Y-82942982D01*
X147269819Y-82942982D02*
X147746009Y-82990601D01*
X147746009Y-82990601D02*
X147698390Y-82942982D01*
X147698390Y-82942982D02*
X147650771Y-82847744D01*
X147650771Y-82847744D02*
X147650771Y-82609649D01*
X147650771Y-82609649D02*
X147698390Y-82514411D01*
X147698390Y-82514411D02*
X147746009Y-82466792D01*
X147746009Y-82466792D02*
X147841247Y-82419173D01*
X147841247Y-82419173D02*
X148079342Y-82419173D01*
X148079342Y-82419173D02*
X148174580Y-82466792D01*
X148174580Y-82466792D02*
X148222200Y-82514411D01*
X148222200Y-82514411D02*
X148269819Y-82609649D01*
X148269819Y-82609649D02*
X148269819Y-82847744D01*
X148269819Y-82847744D02*
X148222200Y-82942982D01*
X148222200Y-82942982D02*
X148174580Y-82990601D01*
X147269819Y-82133458D02*
X148269819Y-81800125D01*
X148269819Y-81800125D02*
X147269819Y-81466792D01*
D12*
X157728006Y-106418409D02*
X157870863Y-106466028D01*
X157870863Y-106466028D02*
X157918482Y-106513647D01*
X157918482Y-106513647D02*
X157966101Y-106608885D01*
X157966101Y-106608885D02*
X157966101Y-106751742D01*
X157966101Y-106751742D02*
X157918482Y-106846980D01*
X157918482Y-106846980D02*
X157870863Y-106894600D01*
X157870863Y-106894600D02*
X157775625Y-106942219D01*
X157775625Y-106942219D02*
X157394673Y-106942219D01*
X157394673Y-106942219D02*
X157394673Y-105942219D01*
X157394673Y-105942219D02*
X157728006Y-105942219D01*
X157728006Y-105942219D02*
X157823244Y-105989838D01*
X157823244Y-105989838D02*
X157870863Y-106037457D01*
X157870863Y-106037457D02*
X157918482Y-106132695D01*
X157918482Y-106132695D02*
X157918482Y-106227933D01*
X157918482Y-106227933D02*
X157870863Y-106323171D01*
X157870863Y-106323171D02*
X157823244Y-106370790D01*
X157823244Y-106370790D02*
X157728006Y-106418409D01*
X157728006Y-106418409D02*
X157394673Y-106418409D01*
X158347054Y-106894600D02*
X158489911Y-106942219D01*
X158489911Y-106942219D02*
X158728006Y-106942219D01*
X158728006Y-106942219D02*
X158823244Y-106894600D01*
X158823244Y-106894600D02*
X158870863Y-106846980D01*
X158870863Y-106846980D02*
X158918482Y-106751742D01*
X158918482Y-106751742D02*
X158918482Y-106656504D01*
X158918482Y-106656504D02*
X158870863Y-106561266D01*
X158870863Y-106561266D02*
X158823244Y-106513647D01*
X158823244Y-106513647D02*
X158728006Y-106466028D01*
X158728006Y-106466028D02*
X158537530Y-106418409D01*
X158537530Y-106418409D02*
X158442292Y-106370790D01*
X158442292Y-106370790D02*
X158394673Y-106323171D01*
X158394673Y-106323171D02*
X158347054Y-106227933D01*
X158347054Y-106227933D02*
X158347054Y-106132695D01*
X158347054Y-106132695D02*
X158394673Y-106037457D01*
X158394673Y-106037457D02*
X158442292Y-105989838D01*
X158442292Y-105989838D02*
X158537530Y-105942219D01*
X158537530Y-105942219D02*
X158775625Y-105942219D01*
X158775625Y-105942219D02*
X158918482Y-105989838D01*
X159347054Y-106942219D02*
X159347054Y-105942219D01*
X159347054Y-105942219D02*
X159728006Y-105942219D01*
X159728006Y-105942219D02*
X159823244Y-105989838D01*
X159823244Y-105989838D02*
X159870863Y-106037457D01*
X159870863Y-106037457D02*
X159918482Y-106132695D01*
X159918482Y-106132695D02*
X159918482Y-106275552D01*
X159918482Y-106275552D02*
X159870863Y-106370790D01*
X159870863Y-106370790D02*
X159823244Y-106418409D01*
X159823244Y-106418409D02*
X159728006Y-106466028D01*
X159728006Y-106466028D02*
X159347054Y-106466028D01*
X160347054Y-106942219D02*
X160347054Y-105942219D01*
X160347054Y-105942219D02*
X160585149Y-105942219D01*
X160585149Y-105942219D02*
X160728006Y-105989838D01*
X160728006Y-105989838D02*
X160823244Y-106085076D01*
X160823244Y-106085076D02*
X160870863Y-106180314D01*
X160870863Y-106180314D02*
X160918482Y-106370790D01*
X160918482Y-106370790D02*
X160918482Y-106513647D01*
X160918482Y-106513647D02*
X160870863Y-106704123D01*
X160870863Y-106704123D02*
X160823244Y-106799361D01*
X160823244Y-106799361D02*
X160728006Y-106894600D01*
X160728006Y-106894600D02*
X160585149Y-106942219D01*
X160585149Y-106942219D02*
X160347054Y-106942219D01*
X162585149Y-106942219D02*
X162108959Y-106942219D01*
X162108959Y-106942219D02*
X162108959Y-105942219D01*
X163061340Y-106942219D02*
X162966102Y-106894600D01*
X162966102Y-106894600D02*
X162918483Y-106846980D01*
X162918483Y-106846980D02*
X162870864Y-106751742D01*
X162870864Y-106751742D02*
X162870864Y-106466028D01*
X162870864Y-106466028D02*
X162918483Y-106370790D01*
X162918483Y-106370790D02*
X162966102Y-106323171D01*
X162966102Y-106323171D02*
X163061340Y-106275552D01*
X163061340Y-106275552D02*
X163204197Y-106275552D01*
X163204197Y-106275552D02*
X163299435Y-106323171D01*
X163299435Y-106323171D02*
X163347054Y-106370790D01*
X163347054Y-106370790D02*
X163394673Y-106466028D01*
X163394673Y-106466028D02*
X163394673Y-106751742D01*
X163394673Y-106751742D02*
X163347054Y-106846980D01*
X163347054Y-106846980D02*
X163299435Y-106894600D01*
X163299435Y-106894600D02*
X163204197Y-106942219D01*
X163204197Y-106942219D02*
X163061340Y-106942219D01*
X164251816Y-106275552D02*
X164251816Y-107085076D01*
X164251816Y-107085076D02*
X164204197Y-107180314D01*
X164204197Y-107180314D02*
X164156578Y-107227933D01*
X164156578Y-107227933D02*
X164061340Y-107275552D01*
X164061340Y-107275552D02*
X163918483Y-107275552D01*
X163918483Y-107275552D02*
X163823245Y-107227933D01*
X164251816Y-106894600D02*
X164156578Y-106942219D01*
X164156578Y-106942219D02*
X163966102Y-106942219D01*
X163966102Y-106942219D02*
X163870864Y-106894600D01*
X163870864Y-106894600D02*
X163823245Y-106846980D01*
X163823245Y-106846980D02*
X163775626Y-106751742D01*
X163775626Y-106751742D02*
X163775626Y-106466028D01*
X163775626Y-106466028D02*
X163823245Y-106370790D01*
X163823245Y-106370790D02*
X163870864Y-106323171D01*
X163870864Y-106323171D02*
X163966102Y-106275552D01*
X163966102Y-106275552D02*
X164156578Y-106275552D01*
X164156578Y-106275552D02*
X164251816Y-106323171D01*
X164728007Y-106942219D02*
X164728007Y-106275552D01*
X164728007Y-105942219D02*
X164680388Y-105989838D01*
X164680388Y-105989838D02*
X164728007Y-106037457D01*
X164728007Y-106037457D02*
X164775626Y-105989838D01*
X164775626Y-105989838D02*
X164728007Y-105942219D01*
X164728007Y-105942219D02*
X164728007Y-106037457D01*
X165632768Y-106894600D02*
X165537530Y-106942219D01*
X165537530Y-106942219D02*
X165347054Y-106942219D01*
X165347054Y-106942219D02*
X165251816Y-106894600D01*
X165251816Y-106894600D02*
X165204197Y-106846980D01*
X165204197Y-106846980D02*
X165156578Y-106751742D01*
X165156578Y-106751742D02*
X165156578Y-106466028D01*
X165156578Y-106466028D02*
X165204197Y-106370790D01*
X165204197Y-106370790D02*
X165251816Y-106323171D01*
X165251816Y-106323171D02*
X165347054Y-106275552D01*
X165347054Y-106275552D02*
X165537530Y-106275552D01*
X165537530Y-106275552D02*
X165632768Y-106323171D01*
D10*
X147269819Y-75014411D02*
X147269819Y-75490601D01*
X147269819Y-75490601D02*
X147746009Y-75538220D01*
X147746009Y-75538220D02*
X147698390Y-75490601D01*
X147698390Y-75490601D02*
X147650771Y-75395363D01*
X147650771Y-75395363D02*
X147650771Y-75157268D01*
X147650771Y-75157268D02*
X147698390Y-75062030D01*
X147698390Y-75062030D02*
X147746009Y-75014411D01*
X147746009Y-75014411D02*
X147841247Y-74966792D01*
X147841247Y-74966792D02*
X148079342Y-74966792D01*
X148079342Y-74966792D02*
X148174580Y-75014411D01*
X148174580Y-75014411D02*
X148222200Y-75062030D01*
X148222200Y-75062030D02*
X148269819Y-75157268D01*
X148269819Y-75157268D02*
X148269819Y-75395363D01*
X148269819Y-75395363D02*
X148222200Y-75490601D01*
X148222200Y-75490601D02*
X148174580Y-75538220D01*
X148269819Y-74538220D02*
X147269819Y-74538220D01*
X147888866Y-74442982D02*
X148269819Y-74157268D01*
X147603152Y-74157268D02*
X147984104Y-74538220D01*
X147269819Y-73823934D02*
X148269819Y-73585839D01*
X148269819Y-73585839D02*
X147555533Y-73395363D01*
X147555533Y-73395363D02*
X148269819Y-73204887D01*
X148269819Y-73204887D02*
X147269819Y-72966792D01*
X147792247Y-59267745D02*
X147830342Y-59153459D01*
X147830342Y-59153459D02*
X147868438Y-59115364D01*
X147868438Y-59115364D02*
X147944628Y-59077268D01*
X147944628Y-59077268D02*
X148058914Y-59077268D01*
X148058914Y-59077268D02*
X148135104Y-59115364D01*
X148135104Y-59115364D02*
X148173200Y-59153459D01*
X148173200Y-59153459D02*
X148211295Y-59229649D01*
X148211295Y-59229649D02*
X148211295Y-59534411D01*
X148211295Y-59534411D02*
X147411295Y-59534411D01*
X147411295Y-59534411D02*
X147411295Y-59267745D01*
X147411295Y-59267745D02*
X147449390Y-59191554D01*
X147449390Y-59191554D02*
X147487485Y-59153459D01*
X147487485Y-59153459D02*
X147563676Y-59115364D01*
X147563676Y-59115364D02*
X147639866Y-59115364D01*
X147639866Y-59115364D02*
X147716057Y-59153459D01*
X147716057Y-59153459D02*
X147754152Y-59191554D01*
X147754152Y-59191554D02*
X147792247Y-59267745D01*
X147792247Y-59267745D02*
X147792247Y-59534411D01*
X148287485Y-58924888D02*
X148287485Y-58315364D01*
X147411295Y-57972506D02*
X147411295Y-57820125D01*
X147411295Y-57820125D02*
X147449390Y-57743935D01*
X147449390Y-57743935D02*
X147525580Y-57667744D01*
X147525580Y-57667744D02*
X147677961Y-57629649D01*
X147677961Y-57629649D02*
X147944628Y-57629649D01*
X147944628Y-57629649D02*
X148097009Y-57667744D01*
X148097009Y-57667744D02*
X148173200Y-57743935D01*
X148173200Y-57743935D02*
X148211295Y-57820125D01*
X148211295Y-57820125D02*
X148211295Y-57972506D01*
X148211295Y-57972506D02*
X148173200Y-58048697D01*
X148173200Y-58048697D02*
X148097009Y-58124887D01*
X148097009Y-58124887D02*
X147944628Y-58162983D01*
X147944628Y-58162983D02*
X147677961Y-58162983D01*
X147677961Y-58162983D02*
X147525580Y-58124887D01*
X147525580Y-58124887D02*
X147449390Y-58048697D01*
X147449390Y-58048697D02*
X147411295Y-57972506D01*
X147411295Y-57401078D02*
X147411295Y-56943935D01*
X148211295Y-57172507D02*
X147411295Y-57172507D01*
X147317438Y-79038221D02*
X147269819Y-79133459D01*
X147269819Y-79133459D02*
X147269819Y-79276316D01*
X147269819Y-79276316D02*
X147317438Y-79419173D01*
X147317438Y-79419173D02*
X147412676Y-79514411D01*
X147412676Y-79514411D02*
X147507914Y-79562030D01*
X147507914Y-79562030D02*
X147698390Y-79609649D01*
X147698390Y-79609649D02*
X147841247Y-79609649D01*
X147841247Y-79609649D02*
X148031723Y-79562030D01*
X148031723Y-79562030D02*
X148126961Y-79514411D01*
X148126961Y-79514411D02*
X148222200Y-79419173D01*
X148222200Y-79419173D02*
X148269819Y-79276316D01*
X148269819Y-79276316D02*
X148269819Y-79181078D01*
X148269819Y-79181078D02*
X148222200Y-79038221D01*
X148222200Y-79038221D02*
X148174580Y-78990602D01*
X148174580Y-78990602D02*
X147841247Y-78990602D01*
X147841247Y-78990602D02*
X147841247Y-79181078D01*
X148269819Y-78562030D02*
X147269819Y-78562030D01*
X147269819Y-78562030D02*
X148269819Y-77990602D01*
X148269819Y-77990602D02*
X147269819Y-77990602D01*
X148269819Y-77514411D02*
X147269819Y-77514411D01*
X147269819Y-77514411D02*
X147269819Y-77276316D01*
X147269819Y-77276316D02*
X147317438Y-77133459D01*
X147317438Y-77133459D02*
X147412676Y-77038221D01*
X147412676Y-77038221D02*
X147507914Y-76990602D01*
X147507914Y-76990602D02*
X147698390Y-76942983D01*
X147698390Y-76942983D02*
X147841247Y-76942983D01*
X147841247Y-76942983D02*
X148031723Y-76990602D01*
X148031723Y-76990602D02*
X148126961Y-77038221D01*
X148126961Y-77038221D02*
X148222200Y-77133459D01*
X148222200Y-77133459D02*
X148269819Y-77276316D01*
X148269819Y-77276316D02*
X148269819Y-77514411D01*
X156599819Y-58197744D02*
X155599819Y-58197744D01*
X155599819Y-58197744D02*
X156314104Y-57864411D01*
X156314104Y-57864411D02*
X155599819Y-57531078D01*
X155599819Y-57531078D02*
X156599819Y-57531078D01*
X156599819Y-57054887D02*
X155599819Y-57054887D01*
X156552200Y-56626316D02*
X156599819Y-56483459D01*
X156599819Y-56483459D02*
X156599819Y-56245364D01*
X156599819Y-56245364D02*
X156552200Y-56150126D01*
X156552200Y-56150126D02*
X156504580Y-56102507D01*
X156504580Y-56102507D02*
X156409342Y-56054888D01*
X156409342Y-56054888D02*
X156314104Y-56054888D01*
X156314104Y-56054888D02*
X156218866Y-56102507D01*
X156218866Y-56102507D02*
X156171247Y-56150126D01*
X156171247Y-56150126D02*
X156123628Y-56245364D01*
X156123628Y-56245364D02*
X156076009Y-56435840D01*
X156076009Y-56435840D02*
X156028390Y-56531078D01*
X156028390Y-56531078D02*
X155980771Y-56578697D01*
X155980771Y-56578697D02*
X155885533Y-56626316D01*
X155885533Y-56626316D02*
X155790295Y-56626316D01*
X155790295Y-56626316D02*
X155695057Y-56578697D01*
X155695057Y-56578697D02*
X155647438Y-56531078D01*
X155647438Y-56531078D02*
X155599819Y-56435840D01*
X155599819Y-56435840D02*
X155599819Y-56197745D01*
X155599819Y-56197745D02*
X155647438Y-56054888D01*
X155599819Y-55435840D02*
X155599819Y-55245364D01*
X155599819Y-55245364D02*
X155647438Y-55150126D01*
X155647438Y-55150126D02*
X155742676Y-55054888D01*
X155742676Y-55054888D02*
X155933152Y-55007269D01*
X155933152Y-55007269D02*
X156266485Y-55007269D01*
X156266485Y-55007269D02*
X156456961Y-55054888D01*
X156456961Y-55054888D02*
X156552200Y-55150126D01*
X156552200Y-55150126D02*
X156599819Y-55245364D01*
X156599819Y-55245364D02*
X156599819Y-55435840D01*
X156599819Y-55435840D02*
X156552200Y-55531078D01*
X156552200Y-55531078D02*
X156456961Y-55626316D01*
X156456961Y-55626316D02*
X156266485Y-55673935D01*
X156266485Y-55673935D02*
X155933152Y-55673935D01*
X155933152Y-55673935D02*
X155742676Y-55626316D01*
X155742676Y-55626316D02*
X155647438Y-55531078D01*
X155647438Y-55531078D02*
X155599819Y-55435840D01*
X148211295Y-54905840D02*
X148211295Y-55286792D01*
X148211295Y-55286792D02*
X147411295Y-55286792D01*
X148211295Y-54639173D02*
X147411295Y-54639173D01*
X147411295Y-54372507D02*
X147411295Y-53915364D01*
X148211295Y-54143936D02*
X147411295Y-54143936D01*
X147792247Y-53648697D02*
X147792247Y-53382031D01*
X148211295Y-53267745D02*
X148211295Y-53648697D01*
X148211295Y-53648697D02*
X147411295Y-53648697D01*
X147411295Y-53648697D02*
X147411295Y-53267745D01*
D12*
X139344600Y-97752945D02*
X139392219Y-97610088D01*
X139392219Y-97610088D02*
X139392219Y-97371993D01*
X139392219Y-97371993D02*
X139344600Y-97276755D01*
X139344600Y-97276755D02*
X139296980Y-97229136D01*
X139296980Y-97229136D02*
X139201742Y-97181517D01*
X139201742Y-97181517D02*
X139106504Y-97181517D01*
X139106504Y-97181517D02*
X139011266Y-97229136D01*
X139011266Y-97229136D02*
X138963647Y-97276755D01*
X138963647Y-97276755D02*
X138916028Y-97371993D01*
X138916028Y-97371993D02*
X138868409Y-97562469D01*
X138868409Y-97562469D02*
X138820790Y-97657707D01*
X138820790Y-97657707D02*
X138773171Y-97705326D01*
X138773171Y-97705326D02*
X138677933Y-97752945D01*
X138677933Y-97752945D02*
X138582695Y-97752945D01*
X138582695Y-97752945D02*
X138487457Y-97705326D01*
X138487457Y-97705326D02*
X138439838Y-97657707D01*
X138439838Y-97657707D02*
X138392219Y-97562469D01*
X138392219Y-97562469D02*
X138392219Y-97324374D01*
X138392219Y-97324374D02*
X138439838Y-97181517D01*
X138725552Y-96895802D02*
X138725552Y-96514850D01*
X138392219Y-96752945D02*
X139249361Y-96752945D01*
X139249361Y-96752945D02*
X139344600Y-96705326D01*
X139344600Y-96705326D02*
X139392219Y-96610088D01*
X139392219Y-96610088D02*
X139392219Y-96514850D01*
X139392219Y-95752945D02*
X138868409Y-95752945D01*
X138868409Y-95752945D02*
X138773171Y-95800564D01*
X138773171Y-95800564D02*
X138725552Y-95895802D01*
X138725552Y-95895802D02*
X138725552Y-96086278D01*
X138725552Y-96086278D02*
X138773171Y-96181516D01*
X139344600Y-95752945D02*
X139392219Y-95848183D01*
X139392219Y-95848183D02*
X139392219Y-96086278D01*
X139392219Y-96086278D02*
X139344600Y-96181516D01*
X139344600Y-96181516D02*
X139249361Y-96229135D01*
X139249361Y-96229135D02*
X139154123Y-96229135D01*
X139154123Y-96229135D02*
X139058885Y-96181516D01*
X139058885Y-96181516D02*
X139011266Y-96086278D01*
X139011266Y-96086278D02*
X139011266Y-95848183D01*
X139011266Y-95848183D02*
X138963647Y-95752945D01*
X138725552Y-95419611D02*
X138725552Y-95038659D01*
X138392219Y-95276754D02*
X139249361Y-95276754D01*
X139249361Y-95276754D02*
X139344600Y-95229135D01*
X139344600Y-95229135D02*
X139392219Y-95133897D01*
X139392219Y-95133897D02*
X139392219Y-95038659D01*
X138725552Y-94276754D02*
X139392219Y-94276754D01*
X138725552Y-94705325D02*
X139249361Y-94705325D01*
X139249361Y-94705325D02*
X139344600Y-94657706D01*
X139344600Y-94657706D02*
X139392219Y-94562468D01*
X139392219Y-94562468D02*
X139392219Y-94419611D01*
X139392219Y-94419611D02*
X139344600Y-94324373D01*
X139344600Y-94324373D02*
X139296980Y-94276754D01*
X139344600Y-93848182D02*
X139392219Y-93752944D01*
X139392219Y-93752944D02*
X139392219Y-93562468D01*
X139392219Y-93562468D02*
X139344600Y-93467230D01*
X139344600Y-93467230D02*
X139249361Y-93419611D01*
X139249361Y-93419611D02*
X139201742Y-93419611D01*
X139201742Y-93419611D02*
X139106504Y-93467230D01*
X139106504Y-93467230D02*
X139058885Y-93562468D01*
X139058885Y-93562468D02*
X139058885Y-93705325D01*
X139058885Y-93705325D02*
X139011266Y-93800563D01*
X139011266Y-93800563D02*
X138916028Y-93848182D01*
X138916028Y-93848182D02*
X138868409Y-93848182D01*
X138868409Y-93848182D02*
X138773171Y-93800563D01*
X138773171Y-93800563D02*
X138725552Y-93705325D01*
X138725552Y-93705325D02*
X138725552Y-93562468D01*
X138725552Y-93562468D02*
X138773171Y-93467230D01*
D13*
X155931202Y-60803133D02*
X156216916Y-61565037D01*
X156216916Y-61565037D02*
X156502630Y-60803133D01*
X155597869Y-60422180D02*
X155597869Y-59803133D01*
X155597869Y-59803133D02*
X155978821Y-60136466D01*
X155978821Y-60136466D02*
X155978821Y-59993609D01*
X155978821Y-59993609D02*
X156026440Y-59898371D01*
X156026440Y-59898371D02*
X156074059Y-59850752D01*
X156074059Y-59850752D02*
X156169297Y-59803133D01*
X156169297Y-59803133D02*
X156407392Y-59803133D01*
X156407392Y-59803133D02*
X156502630Y-59850752D01*
X156502630Y-59850752D02*
X156550250Y-59898371D01*
X156550250Y-59898371D02*
X156597869Y-59993609D01*
X156597869Y-59993609D02*
X156597869Y-60279323D01*
X156597869Y-60279323D02*
X156550250Y-60374561D01*
X156550250Y-60374561D02*
X156502630Y-60422180D01*
D12*
X138887795Y-122864136D02*
X138933985Y-122725564D01*
X138933985Y-122725564D02*
X138980176Y-122679374D01*
X138980176Y-122679374D02*
X139072557Y-122633183D01*
X139072557Y-122633183D02*
X139211128Y-122633183D01*
X139211128Y-122633183D02*
X139303509Y-122679374D01*
X139303509Y-122679374D02*
X139349700Y-122725564D01*
X139349700Y-122725564D02*
X139395890Y-122817945D01*
X139395890Y-122817945D02*
X139395890Y-123187469D01*
X139395890Y-123187469D02*
X138425890Y-123187469D01*
X138425890Y-123187469D02*
X138425890Y-122864136D01*
X138425890Y-122864136D02*
X138472080Y-122771755D01*
X138472080Y-122771755D02*
X138518271Y-122725564D01*
X138518271Y-122725564D02*
X138610652Y-122679374D01*
X138610652Y-122679374D02*
X138703033Y-122679374D01*
X138703033Y-122679374D02*
X138795414Y-122725564D01*
X138795414Y-122725564D02*
X138841604Y-122771755D01*
X138841604Y-122771755D02*
X138887795Y-122864136D01*
X138887795Y-122864136D02*
X138887795Y-123187469D01*
X139395890Y-122217469D02*
X138749223Y-122217469D01*
X138933985Y-122217469D02*
X138841604Y-122171279D01*
X138841604Y-122171279D02*
X138795414Y-122125088D01*
X138795414Y-122125088D02*
X138749223Y-122032707D01*
X138749223Y-122032707D02*
X138749223Y-121940326D01*
X139395890Y-121201279D02*
X138887795Y-121201279D01*
X138887795Y-121201279D02*
X138795414Y-121247469D01*
X138795414Y-121247469D02*
X138749223Y-121339850D01*
X138749223Y-121339850D02*
X138749223Y-121524612D01*
X138749223Y-121524612D02*
X138795414Y-121616993D01*
X139349700Y-121201279D02*
X139395890Y-121293660D01*
X139395890Y-121293660D02*
X139395890Y-121524612D01*
X139395890Y-121524612D02*
X139349700Y-121616993D01*
X139349700Y-121616993D02*
X139257319Y-121663184D01*
X139257319Y-121663184D02*
X139164938Y-121663184D01*
X139164938Y-121663184D02*
X139072557Y-121616993D01*
X139072557Y-121616993D02*
X139026366Y-121524612D01*
X139026366Y-121524612D02*
X139026366Y-121293660D01*
X139026366Y-121293660D02*
X138980176Y-121201279D01*
X139395890Y-120739374D02*
X138425890Y-120739374D01*
X139026366Y-120646993D02*
X139395890Y-120369850D01*
X138749223Y-120369850D02*
X139118747Y-120739374D01*
X139349700Y-119584612D02*
X139395890Y-119676993D01*
X139395890Y-119676993D02*
X139395890Y-119861755D01*
X139395890Y-119861755D02*
X139349700Y-119954136D01*
X139349700Y-119954136D02*
X139257319Y-120000327D01*
X139257319Y-120000327D02*
X138887795Y-120000327D01*
X138887795Y-120000327D02*
X138795414Y-119954136D01*
X138795414Y-119954136D02*
X138749223Y-119861755D01*
X138749223Y-119861755D02*
X138749223Y-119676993D01*
X138749223Y-119676993D02*
X138795414Y-119584612D01*
X138795414Y-119584612D02*
X138887795Y-119538422D01*
X138887795Y-119538422D02*
X138980176Y-119538422D01*
X138980176Y-119538422D02*
X139072557Y-120000327D01*
X139395890Y-118984136D02*
X139349700Y-119076517D01*
X139349700Y-119076517D02*
X139257319Y-119122707D01*
X139257319Y-119122707D02*
X138425890Y-119122707D01*
X139395890Y-118614612D02*
X138749223Y-118614612D01*
X138425890Y-118614612D02*
X138472080Y-118660803D01*
X138472080Y-118660803D02*
X138518271Y-118614612D01*
X138518271Y-118614612D02*
X138472080Y-118568422D01*
X138472080Y-118568422D02*
X138425890Y-118614612D01*
X138425890Y-118614612D02*
X138518271Y-118614612D01*
X138749223Y-117736993D02*
X139534461Y-117736993D01*
X139534461Y-117736993D02*
X139626842Y-117783183D01*
X139626842Y-117783183D02*
X139673033Y-117829374D01*
X139673033Y-117829374D02*
X139719223Y-117921755D01*
X139719223Y-117921755D02*
X139719223Y-118060326D01*
X139719223Y-118060326D02*
X139673033Y-118152707D01*
X139349700Y-117736993D02*
X139395890Y-117829374D01*
X139395890Y-117829374D02*
X139395890Y-118014136D01*
X139395890Y-118014136D02*
X139349700Y-118106517D01*
X139349700Y-118106517D02*
X139303509Y-118152707D01*
X139303509Y-118152707D02*
X139211128Y-118198898D01*
X139211128Y-118198898D02*
X138933985Y-118198898D01*
X138933985Y-118198898D02*
X138841604Y-118152707D01*
X138841604Y-118152707D02*
X138795414Y-118106517D01*
X138795414Y-118106517D02*
X138749223Y-118014136D01*
X138749223Y-118014136D02*
X138749223Y-117829374D01*
X138749223Y-117829374D02*
X138795414Y-117736993D01*
X139395890Y-117275088D02*
X138425890Y-117275088D01*
X139395890Y-116859374D02*
X138887795Y-116859374D01*
X138887795Y-116859374D02*
X138795414Y-116905564D01*
X138795414Y-116905564D02*
X138749223Y-116997945D01*
X138749223Y-116997945D02*
X138749223Y-117136517D01*
X138749223Y-117136517D02*
X138795414Y-117228898D01*
X138795414Y-117228898D02*
X138841604Y-117275088D01*
X138749223Y-116536041D02*
X138749223Y-116166517D01*
X138425890Y-116397469D02*
X139257319Y-116397469D01*
X139257319Y-116397469D02*
X139349700Y-116351279D01*
X139349700Y-116351279D02*
X139395890Y-116258898D01*
X139395890Y-116258898D02*
X139395890Y-116166517D01*
X145053409Y-90792858D02*
X145101028Y-90650001D01*
X145101028Y-90650001D02*
X145148647Y-90602382D01*
X145148647Y-90602382D02*
X145243885Y-90554763D01*
X145243885Y-90554763D02*
X145386742Y-90554763D01*
X145386742Y-90554763D02*
X145481980Y-90602382D01*
X145481980Y-90602382D02*
X145529600Y-90650001D01*
X145529600Y-90650001D02*
X145577219Y-90745239D01*
X145577219Y-90745239D02*
X145577219Y-91126191D01*
X145577219Y-91126191D02*
X144577219Y-91126191D01*
X144577219Y-91126191D02*
X144577219Y-90792858D01*
X144577219Y-90792858D02*
X144624838Y-90697620D01*
X144624838Y-90697620D02*
X144672457Y-90650001D01*
X144672457Y-90650001D02*
X144767695Y-90602382D01*
X144767695Y-90602382D02*
X144862933Y-90602382D01*
X144862933Y-90602382D02*
X144958171Y-90650001D01*
X144958171Y-90650001D02*
X145005790Y-90697620D01*
X145005790Y-90697620D02*
X145053409Y-90792858D01*
X145053409Y-90792858D02*
X145053409Y-91126191D01*
X145577219Y-90126191D02*
X144910552Y-90126191D01*
X145101028Y-90126191D02*
X145005790Y-90078572D01*
X145005790Y-90078572D02*
X144958171Y-90030953D01*
X144958171Y-90030953D02*
X144910552Y-89935715D01*
X144910552Y-89935715D02*
X144910552Y-89840477D01*
X145577219Y-89507143D02*
X144577219Y-89507143D01*
X145196266Y-89411905D02*
X145577219Y-89126191D01*
X144910552Y-89126191D02*
X145291504Y-89507143D01*
D10*
X147792247Y-63153459D02*
X147830342Y-63039173D01*
X147830342Y-63039173D02*
X147868438Y-63001078D01*
X147868438Y-63001078D02*
X147944628Y-62962982D01*
X147944628Y-62962982D02*
X148058914Y-62962982D01*
X148058914Y-62962982D02*
X148135104Y-63001078D01*
X148135104Y-63001078D02*
X148173200Y-63039173D01*
X148173200Y-63039173D02*
X148211295Y-63115363D01*
X148211295Y-63115363D02*
X148211295Y-63420125D01*
X148211295Y-63420125D02*
X147411295Y-63420125D01*
X147411295Y-63420125D02*
X147411295Y-63153459D01*
X147411295Y-63153459D02*
X147449390Y-63077268D01*
X147449390Y-63077268D02*
X147487485Y-63039173D01*
X147487485Y-63039173D02*
X147563676Y-63001078D01*
X147563676Y-63001078D02*
X147639866Y-63001078D01*
X147639866Y-63001078D02*
X147716057Y-63039173D01*
X147716057Y-63039173D02*
X147754152Y-63077268D01*
X147754152Y-63077268D02*
X147792247Y-63153459D01*
X147792247Y-63153459D02*
X147792247Y-63420125D01*
X148287485Y-62810602D02*
X148287485Y-62201078D01*
X148211295Y-62010601D02*
X147411295Y-62010601D01*
X148211295Y-61629649D02*
X147411295Y-61629649D01*
X147411295Y-61629649D02*
X148211295Y-61172506D01*
X148211295Y-61172506D02*
X147411295Y-61172506D01*
X156599819Y-54222744D02*
X155599819Y-54222744D01*
X155599819Y-54222744D02*
X156314104Y-53889411D01*
X156314104Y-53889411D02*
X155599819Y-53556078D01*
X155599819Y-53556078D02*
X156599819Y-53556078D01*
X155599819Y-52889411D02*
X155599819Y-52698935D01*
X155599819Y-52698935D02*
X155647438Y-52603697D01*
X155647438Y-52603697D02*
X155742676Y-52508459D01*
X155742676Y-52508459D02*
X155933152Y-52460840D01*
X155933152Y-52460840D02*
X156266485Y-52460840D01*
X156266485Y-52460840D02*
X156456961Y-52508459D01*
X156456961Y-52508459D02*
X156552200Y-52603697D01*
X156552200Y-52603697D02*
X156599819Y-52698935D01*
X156599819Y-52698935D02*
X156599819Y-52889411D01*
X156599819Y-52889411D02*
X156552200Y-52984649D01*
X156552200Y-52984649D02*
X156456961Y-53079887D01*
X156456961Y-53079887D02*
X156266485Y-53127506D01*
X156266485Y-53127506D02*
X155933152Y-53127506D01*
X155933152Y-53127506D02*
X155742676Y-53079887D01*
X155742676Y-53079887D02*
X155647438Y-52984649D01*
X155647438Y-52984649D02*
X155599819Y-52889411D01*
X156552200Y-52079887D02*
X156599819Y-51937030D01*
X156599819Y-51937030D02*
X156599819Y-51698935D01*
X156599819Y-51698935D02*
X156552200Y-51603697D01*
X156552200Y-51603697D02*
X156504580Y-51556078D01*
X156504580Y-51556078D02*
X156409342Y-51508459D01*
X156409342Y-51508459D02*
X156314104Y-51508459D01*
X156314104Y-51508459D02*
X156218866Y-51556078D01*
X156218866Y-51556078D02*
X156171247Y-51603697D01*
X156171247Y-51603697D02*
X156123628Y-51698935D01*
X156123628Y-51698935D02*
X156076009Y-51889411D01*
X156076009Y-51889411D02*
X156028390Y-51984649D01*
X156028390Y-51984649D02*
X155980771Y-52032268D01*
X155980771Y-52032268D02*
X155885533Y-52079887D01*
X155885533Y-52079887D02*
X155790295Y-52079887D01*
X155790295Y-52079887D02*
X155695057Y-52032268D01*
X155695057Y-52032268D02*
X155647438Y-51984649D01*
X155647438Y-51984649D02*
X155599819Y-51889411D01*
X155599819Y-51889411D02*
X155599819Y-51651316D01*
X155599819Y-51651316D02*
X155647438Y-51508459D01*
X156599819Y-51079887D02*
X155599819Y-51079887D01*
X147792247Y-67420126D02*
X147830342Y-67305840D01*
X147830342Y-67305840D02*
X147868438Y-67267745D01*
X147868438Y-67267745D02*
X147944628Y-67229649D01*
X147944628Y-67229649D02*
X148058914Y-67229649D01*
X148058914Y-67229649D02*
X148135104Y-67267745D01*
X148135104Y-67267745D02*
X148173200Y-67305840D01*
X148173200Y-67305840D02*
X148211295Y-67382030D01*
X148211295Y-67382030D02*
X148211295Y-67686792D01*
X148211295Y-67686792D02*
X147411295Y-67686792D01*
X147411295Y-67686792D02*
X147411295Y-67420126D01*
X147411295Y-67420126D02*
X147449390Y-67343935D01*
X147449390Y-67343935D02*
X147487485Y-67305840D01*
X147487485Y-67305840D02*
X147563676Y-67267745D01*
X147563676Y-67267745D02*
X147639866Y-67267745D01*
X147639866Y-67267745D02*
X147716057Y-67305840D01*
X147716057Y-67305840D02*
X147754152Y-67343935D01*
X147754152Y-67343935D02*
X147792247Y-67420126D01*
X147792247Y-67420126D02*
X147792247Y-67686792D01*
X148173200Y-66924888D02*
X148211295Y-66810602D01*
X148211295Y-66810602D02*
X148211295Y-66620126D01*
X148211295Y-66620126D02*
X148173200Y-66543935D01*
X148173200Y-66543935D02*
X148135104Y-66505840D01*
X148135104Y-66505840D02*
X148058914Y-66467745D01*
X148058914Y-66467745D02*
X147982723Y-66467745D01*
X147982723Y-66467745D02*
X147906533Y-66505840D01*
X147906533Y-66505840D02*
X147868438Y-66543935D01*
X147868438Y-66543935D02*
X147830342Y-66620126D01*
X147830342Y-66620126D02*
X147792247Y-66772507D01*
X147792247Y-66772507D02*
X147754152Y-66848697D01*
X147754152Y-66848697D02*
X147716057Y-66886792D01*
X147716057Y-66886792D02*
X147639866Y-66924888D01*
X147639866Y-66924888D02*
X147563676Y-66924888D01*
X147563676Y-66924888D02*
X147487485Y-66886792D01*
X147487485Y-66886792D02*
X147449390Y-66848697D01*
X147449390Y-66848697D02*
X147411295Y-66772507D01*
X147411295Y-66772507D02*
X147411295Y-66582030D01*
X147411295Y-66582030D02*
X147449390Y-66467745D01*
X148211295Y-66124887D02*
X147411295Y-66124887D01*
X147411295Y-66124887D02*
X147411295Y-65820125D01*
X147411295Y-65820125D02*
X147449390Y-65743935D01*
X147449390Y-65743935D02*
X147487485Y-65705840D01*
X147487485Y-65705840D02*
X147563676Y-65667744D01*
X147563676Y-65667744D02*
X147677961Y-65667744D01*
X147677961Y-65667744D02*
X147754152Y-65705840D01*
X147754152Y-65705840D02*
X147792247Y-65743935D01*
X147792247Y-65743935D02*
X147830342Y-65820125D01*
X147830342Y-65820125D02*
X147830342Y-66124887D01*
X148211295Y-65324887D02*
X147411295Y-65324887D01*
X147411295Y-65324887D02*
X147411295Y-65134411D01*
X147411295Y-65134411D02*
X147449390Y-65020125D01*
X147449390Y-65020125D02*
X147525580Y-64943935D01*
X147525580Y-64943935D02*
X147601771Y-64905840D01*
X147601771Y-64905840D02*
X147754152Y-64867744D01*
X147754152Y-64867744D02*
X147868438Y-64867744D01*
X147868438Y-64867744D02*
X148020819Y-64905840D01*
X148020819Y-64905840D02*
X148097009Y-64943935D01*
X148097009Y-64943935D02*
X148173200Y-65020125D01*
X148173200Y-65020125D02*
X148211295Y-65134411D01*
X148211295Y-65134411D02*
X148211295Y-65324887D01*
X147984104Y-71538220D02*
X147984104Y-71062030D01*
X148269819Y-71633458D02*
X147269819Y-71300125D01*
X147269819Y-71300125D02*
X148269819Y-70966792D01*
X148269819Y-70633458D02*
X147269819Y-70633458D01*
X147269819Y-70633458D02*
X148269819Y-70062030D01*
X148269819Y-70062030D02*
X147269819Y-70062030D01*
X148269819Y-69585839D02*
X147269819Y-69585839D01*
X147269819Y-69585839D02*
X147269819Y-69347744D01*
X147269819Y-69347744D02*
X147317438Y-69204887D01*
X147317438Y-69204887D02*
X147412676Y-69109649D01*
X147412676Y-69109649D02*
X147507914Y-69062030D01*
X147507914Y-69062030D02*
X147698390Y-69014411D01*
X147698390Y-69014411D02*
X147841247Y-69014411D01*
X147841247Y-69014411D02*
X148031723Y-69062030D01*
X148031723Y-69062030D02*
X148126961Y-69109649D01*
X148126961Y-69109649D02*
X148222200Y-69204887D01*
X148222200Y-69204887D02*
X148269819Y-69347744D01*
X148269819Y-69347744D02*
X148269819Y-69585839D01*
D14*
X160750000Y-88950000D02*
X160750000Y-90750000D01*
X163970000Y-90750000D02*
X163970000Y-88300000D01*
X165027500Y-97842258D02*
X165027500Y-97367742D01*
X166072500Y-97842258D02*
X166072500Y-97367742D01*
X139997500Y-109627258D02*
X139997500Y-109152742D01*
X141042500Y-109627258D02*
X141042500Y-109152742D01*
X152200000Y-50875000D02*
X152200000Y-53625000D01*
X153600000Y-50875000D02*
X152200000Y-50875000D01*
X153600000Y-50875000D02*
X153600000Y-53625000D01*
X143450000Y-99660000D02*
X141290000Y-99660000D01*
X143450000Y-99660000D02*
X143450000Y-100590000D01*
X143450000Y-102820000D02*
X141990000Y-102820000D01*
X143450000Y-102820000D02*
X143450000Y-101890000D01*
X147587500Y-113032742D02*
X147587500Y-113507258D01*
X148632500Y-113032742D02*
X148632500Y-113507258D01*
X151567500Y-92817742D02*
X151567500Y-93292258D01*
X152612500Y-92817742D02*
X152612500Y-93292258D01*
X144000000Y-68000000D02*
X144000000Y-65250000D01*
X144000000Y-68000000D02*
X145400000Y-68000000D01*
X145400000Y-68000000D02*
X145400000Y-65250000D01*
X154500000Y-92914420D02*
X154500000Y-93195580D01*
X155520000Y-92914420D02*
X155520000Y-93195580D01*
X163158912Y-82800000D02*
X162877752Y-82800000D01*
X163158912Y-83820000D02*
X162877752Y-83820000D01*
X157187500Y-97112742D02*
X157187500Y-97587258D01*
X158232500Y-97112742D02*
X158232500Y-97587258D01*
X138537500Y-114992258D02*
X138537500Y-114517742D01*
X139582500Y-114992258D02*
X139582500Y-114517742D01*
X154620000Y-96629420D02*
X154620000Y-96910580D01*
X155640000Y-96629420D02*
X155640000Y-96910580D01*
X153027500Y-89667258D02*
X153027500Y-89192742D01*
X154072500Y-89667258D02*
X154072500Y-89192742D01*
X156570000Y-88890000D02*
X156570000Y-91050000D01*
X156570000Y-88890000D02*
X157500000Y-88890000D01*
X159730000Y-88890000D02*
X158800000Y-88890000D01*
X159730000Y-88890000D02*
X159730000Y-90350000D01*
X144667500Y-109152742D02*
X144667500Y-109627258D01*
X145712500Y-109152742D02*
X145712500Y-109627258D01*
X147600000Y-110445580D02*
X147600000Y-110164420D01*
X148620000Y-110445580D02*
X148620000Y-110164420D01*
X152175000Y-58900000D02*
X152175000Y-61650000D01*
X153575000Y-58900000D02*
X152175000Y-58900000D01*
X153575000Y-58900000D02*
X153575000Y-61650000D01*
X157393924Y-84477500D02*
X156919408Y-84477500D01*
X157393924Y-85522500D02*
X156919408Y-85522500D01*
X141457500Y-109152742D02*
X141457500Y-109627258D01*
X142502500Y-109152742D02*
X142502500Y-109627258D01*
X153027500Y-92817742D02*
X153027500Y-93292258D01*
X154072500Y-92817742D02*
X154072500Y-93292258D01*
X160750000Y-93500000D02*
X160750000Y-95950000D01*
X163970000Y-95300000D02*
X163970000Y-93500000D01*
D10*
X155775000Y-65515000D02*
X155775000Y-65840000D01*
X155775000Y-65515000D02*
X156100000Y-65515000D01*
X155775000Y-72765000D02*
X155775000Y-72440000D01*
X155775000Y-72765000D02*
X156000000Y-72765000D01*
X156000000Y-72765000D02*
X156000000Y-74190000D01*
X163025000Y-65515000D02*
X162700000Y-65515000D01*
X163025000Y-65515000D02*
X163025000Y-65840000D01*
X163025000Y-72765000D02*
X162700000Y-72765000D01*
X163025000Y-72765000D02*
X163025000Y-72440000D01*
D15*
X155056600Y-73356400D02*
G75*
G02*
X154955000Y-73356400I-50800J0D01*
G01*
X154955000Y-73356400D02*
G75*
G02*
X155056600Y-73356400I50800J0D01*
G01*
X156809200Y-71807000D02*
G75*
G02*
X156707600Y-71807000I-50800J0D01*
G01*
X156707600Y-71807000D02*
G75*
G02*
X156809200Y-71807000I50800J0D01*
G01*
D14*
X141490000Y-116400000D02*
X141490000Y-118200000D01*
X144710000Y-118200000D02*
X144710000Y-115750000D01*
X147437500Y-106007258D02*
X147437500Y-105532742D01*
X148482500Y-106007258D02*
X148482500Y-105532742D01*
X145460000Y-117885580D02*
X145460000Y-117604420D01*
X146480000Y-117885580D02*
X146480000Y-117604420D01*
X162877752Y-76365000D02*
X163158912Y-76365000D01*
X162877752Y-77385000D02*
X163158912Y-77385000D01*
X144000000Y-72500000D02*
X144000000Y-75250000D01*
X145400000Y-72500000D02*
X144000000Y-72500000D01*
X145400000Y-72500000D02*
X145400000Y-75250000D01*
X139997500Y-117517742D02*
X139997500Y-117992258D01*
X141042500Y-117517742D02*
X141042500Y-117992258D01*
D11*
X161493332Y-82095000D02*
X161493332Y-80095000D01*
X161493332Y-82095000D02*
X163093332Y-82095000D01*
D14*
X144000000Y-80500000D02*
X144000000Y-83250000D01*
X145400000Y-80500000D02*
X144000000Y-80500000D01*
X145400000Y-80500000D02*
X145400000Y-83250000D01*
X139859420Y-123979776D02*
X140140580Y-123979776D01*
X139859420Y-124999776D02*
X140140580Y-124999776D01*
X143220000Y-109249420D02*
X143220000Y-109530580D01*
X144240000Y-109249420D02*
X144240000Y-109530580D01*
D12*
X162350000Y-102000000D02*
X163450000Y-102900000D01*
X162350000Y-103700000D02*
X162350000Y-102000000D01*
X163450000Y-102900000D02*
X162350000Y-103700000D01*
X163450000Y-103700000D02*
X163450000Y-102000000D01*
D14*
X166125000Y-101666500D02*
X162950000Y-101666500D01*
X166125000Y-104333500D02*
X162950000Y-104333500D01*
X166125000Y-104333500D02*
X166125000Y-101666500D01*
X151700000Y-96910580D02*
X151700000Y-96629420D01*
X152720000Y-96910580D02*
X152720000Y-96629420D01*
X146127500Y-109152742D02*
X146127500Y-109627258D01*
X147172500Y-109152742D02*
X147172500Y-109627258D01*
X158660000Y-97209420D02*
X158660000Y-97490580D01*
X159680000Y-97209420D02*
X159680000Y-97490580D01*
X144000000Y-72000000D02*
X144000000Y-69250000D01*
X144000000Y-72000000D02*
X145400000Y-72000000D01*
X145400000Y-72000000D02*
X145400000Y-69250000D01*
X140127500Y-93912258D02*
X140127500Y-93437742D01*
X141172500Y-93912258D02*
X141172500Y-93437742D01*
X153957500Y-60887258D02*
X153957500Y-60412742D01*
X155002500Y-60887258D02*
X155002500Y-60412742D01*
D10*
X154581666Y-77800000D02*
X154581666Y-81950000D01*
X154581666Y-77800000D02*
X154726666Y-77800000D01*
X154581666Y-81950000D02*
X154726666Y-81950000D01*
X159681666Y-77800000D02*
X159681666Y-76400000D01*
X159731666Y-77800000D02*
X159681666Y-77800000D01*
X159731666Y-77800000D02*
X159731666Y-81950000D01*
X159731666Y-81950000D02*
X159586666Y-81950000D01*
D14*
X153957500Y-52437742D02*
X153957500Y-52912258D01*
X155002500Y-52437742D02*
X155002500Y-52912258D01*
X140690000Y-113860000D02*
X140690000Y-112450000D01*
X143010000Y-113850000D02*
X143010000Y-112450000D01*
X140740000Y-114230000D02*
X140410000Y-114470000D01*
X140410000Y-113990000D01*
X140740000Y-114230000D01*
G36*
X140740000Y-114230000D02*
G01*
X140410000Y-114470000D01*
X140410000Y-113990000D01*
X140740000Y-114230000D01*
G37*
X145757500Y-70487258D02*
X145757500Y-70012742D01*
X146802500Y-70487258D02*
X146802500Y-70012742D01*
X153477500Y-101207258D02*
X153477500Y-100732742D01*
X154522500Y-101207258D02*
X154522500Y-100732742D01*
X145757500Y-74437258D02*
X145757500Y-73962742D01*
X146802500Y-74437258D02*
X146802500Y-73962742D01*
X138545000Y-129380000D02*
X138545000Y-127380000D01*
X141505000Y-127380000D02*
X141505000Y-129380000D01*
X158590000Y-48860000D02*
X158590000Y-54060000D01*
X163730000Y-48860000D02*
X158590000Y-48860000D01*
X163730000Y-48860000D02*
X163730000Y-51460000D01*
X163730000Y-51460000D02*
X166330000Y-51460000D01*
X165000000Y-48860000D02*
X166330000Y-48860000D01*
X166330000Y-48860000D02*
X166330000Y-50190000D01*
X166330000Y-51460000D02*
X166330000Y-54060000D01*
X166330000Y-54060000D02*
X158590000Y-54060000D01*
X152017500Y-100732742D02*
X152017500Y-101207258D01*
X153062500Y-100732742D02*
X153062500Y-101207258D01*
X157340000Y-94320000D02*
X157340000Y-92910000D01*
X159660000Y-94310000D02*
X159660000Y-92910000D01*
X157390000Y-94690000D02*
X157060000Y-94930000D01*
X157060000Y-94450000D01*
X157390000Y-94690000D01*
G36*
X157390000Y-94690000D02*
G01*
X157060000Y-94930000D01*
X157060000Y-94450000D01*
X157390000Y-94690000D01*
G37*
X144000000Y-52050000D02*
X144000000Y-49300000D01*
X144000000Y-52050000D02*
X145400000Y-52050000D01*
X145400000Y-52050000D02*
X145400000Y-49300000D01*
X145257500Y-101477258D02*
X145257500Y-101002742D01*
X146302500Y-101477258D02*
X146302500Y-101002742D01*
X152200000Y-58350000D02*
X152200000Y-55600000D01*
X152200000Y-58350000D02*
X153600000Y-58350000D01*
X153600000Y-58350000D02*
X153600000Y-55600000D01*
X155580000Y-100490000D02*
X155580000Y-102940000D01*
X158800000Y-102290000D02*
X158800000Y-100490000D01*
X162782742Y-85707500D02*
X163257258Y-85707500D01*
X162782742Y-86752500D02*
X163257258Y-86752500D01*
X159489420Y-56760000D02*
X159770580Y-56760000D01*
X159489420Y-57780000D02*
X159770580Y-57780000D01*
X144020000Y-60010000D02*
X144020000Y-57260000D01*
X144020000Y-60010000D02*
X145420000Y-60010000D01*
X145420000Y-60010000D02*
X145420000Y-57260000D01*
X153147500Y-96532742D02*
X153147500Y-97007258D01*
X154192500Y-96532742D02*
X154192500Y-97007258D01*
X145757500Y-66487258D02*
X145757500Y-66012742D01*
X146802500Y-66487258D02*
X146802500Y-66012742D01*
X156360000Y-108990000D02*
X156360000Y-129430000D01*
X156360000Y-108990000D02*
X166660000Y-108990000D01*
X156360000Y-129430000D02*
X166660000Y-129430000D01*
X166660000Y-108990000D02*
X166660000Y-129430000D01*
X162879420Y-84260000D02*
X163160580Y-84260000D01*
X162879420Y-85280000D02*
X163160580Y-85280000D01*
X154487500Y-89192742D02*
X154487500Y-89667258D01*
X155532500Y-89192742D02*
X155532500Y-89667258D01*
X159489420Y-59680000D02*
X159770580Y-59680000D01*
X159489420Y-60700000D02*
X159770580Y-60700000D01*
X151580000Y-89570580D02*
X151580000Y-89289420D01*
X152600000Y-89570580D02*
X152600000Y-89289420D01*
X159392742Y-58207500D02*
X159867258Y-58207500D01*
X159392742Y-59252500D02*
X159867258Y-59252500D01*
X139950000Y-98855000D02*
X139950000Y-96105000D01*
X139950000Y-98855000D02*
X141350000Y-98855000D01*
X141350000Y-98855000D02*
X141350000Y-96105000D01*
X145990000Y-105629420D02*
X145990000Y-105910580D01*
X147010000Y-105629420D02*
X147010000Y-105910580D01*
X145757500Y-49987742D02*
X145757500Y-50462258D01*
X146802500Y-49987742D02*
X146802500Y-50462258D01*
X142750000Y-104690000D02*
X141350000Y-104690000D01*
X142760000Y-107010000D02*
X141350000Y-107010000D01*
X143370000Y-107290000D02*
X142890000Y-107290000D01*
X143130000Y-106960000D01*
X143370000Y-107290000D01*
G36*
X143370000Y-107290000D02*
G01*
X142890000Y-107290000D01*
X143130000Y-106960000D01*
X143370000Y-107290000D01*
G37*
X139067500Y-101002742D02*
X139067500Y-101477258D01*
X140112500Y-101002742D02*
X140112500Y-101477258D01*
X165040000Y-93839420D02*
X165040000Y-94120580D01*
X166060000Y-93839420D02*
X166060000Y-94120580D01*
X138550000Y-106005580D02*
X138550000Y-105724420D01*
X139570000Y-106005580D02*
X139570000Y-105724420D01*
X153957500Y-56837258D02*
X153957500Y-56362742D01*
X155002500Y-56837258D02*
X155002500Y-56362742D01*
X138550000Y-111930580D02*
X138550000Y-111649420D01*
X139570000Y-111930580D02*
X139570000Y-111649420D01*
X140170000Y-122360000D02*
X140170000Y-120900000D01*
X140170000Y-122360000D02*
X141100000Y-122360000D01*
X143330000Y-122360000D02*
X142400000Y-122360000D01*
X143330000Y-122360000D02*
X143330000Y-120200000D01*
X160830000Y-99420000D02*
X160830000Y-97960000D01*
X160830000Y-99420000D02*
X161760000Y-99420000D01*
X163990000Y-99420000D02*
X163060000Y-99420000D01*
X163990000Y-99420000D02*
X163990000Y-97260000D01*
X138550000Y-108684420D02*
X138550000Y-108965580D01*
X139570000Y-108684420D02*
X139570000Y-108965580D01*
X144517500Y-106007258D02*
X144517500Y-105532742D01*
X145562500Y-106007258D02*
X145562500Y-105532742D01*
X145757500Y-82512258D02*
X145757500Y-82037742D01*
X146802500Y-82512258D02*
X146802500Y-82037742D01*
X165040000Y-90410580D02*
X165040000Y-90129420D01*
X166060000Y-90410580D02*
X166060000Y-90129420D01*
X144160000Y-113860000D02*
X144160000Y-112450000D01*
X146480000Y-113850000D02*
X146480000Y-112450000D01*
X144210000Y-114230000D02*
X143880000Y-114470000D01*
X143880000Y-113990000D01*
X144210000Y-114230000D01*
G36*
X144210000Y-114230000D02*
G01*
X143880000Y-114470000D01*
X143880000Y-113990000D01*
X144210000Y-114230000D01*
G37*
X145777500Y-58187742D02*
X145777500Y-58662258D01*
X146822500Y-58187742D02*
X146822500Y-58662258D01*
%LPC*%
D16*
X163310000Y-88750000D03*
X162360000Y-88750000D03*
X161410000Y-88750000D03*
X161410000Y-90950000D03*
X163310000Y-90950000D03*
D17*
X165550000Y-98430000D03*
X165550000Y-96780000D03*
X140520000Y-110215000D03*
X140520000Y-108565000D03*
D18*
X152900000Y-51575000D03*
X152900000Y-53675000D03*
D19*
X141640000Y-100290000D03*
X141640000Y-102190000D03*
X143740000Y-101240000D03*
D20*
X148110000Y-112445000D03*
X148110000Y-114095000D03*
X152090000Y-92230000D03*
X152090000Y-93880000D03*
D18*
X144700000Y-67300000D03*
X144700000Y-65200000D03*
D21*
X155010000Y-92280000D03*
X155010000Y-93830000D03*
D22*
X163793332Y-83310000D03*
X162243332Y-83310000D03*
D20*
X157710000Y-96525000D03*
X157710000Y-98175000D03*
D23*
X140950000Y-58250000D03*
D17*
X139060000Y-115580000D03*
X139060000Y-113930000D03*
D21*
X155130000Y-95995000D03*
X155130000Y-97545000D03*
D17*
X153550000Y-90255000D03*
X153550000Y-88605000D03*
D24*
X157200000Y-90700000D03*
X159100000Y-90700000D03*
X158150000Y-88600000D03*
D20*
X145190000Y-108565000D03*
X145190000Y-110215000D03*
D25*
X148110000Y-111080000D03*
X148110000Y-109530000D03*
D18*
X152875000Y-59600000D03*
X152875000Y-61700000D03*
D26*
X157981666Y-85000000D03*
X156331666Y-85000000D03*
D20*
X141980000Y-108565000D03*
X141980000Y-110215000D03*
X153550000Y-92230000D03*
X153550000Y-93880000D03*
D16*
X161410000Y-95500000D03*
X162360000Y-95500000D03*
X163310000Y-95500000D03*
X163310000Y-93300000D03*
X161410000Y-93300000D03*
D27*
X156600000Y-73390000D03*
X157400000Y-73390000D03*
X158200000Y-73390000D03*
X159000000Y-73390000D03*
X159800000Y-73390000D03*
X160600000Y-73390000D03*
X161400000Y-73390000D03*
X162200000Y-73390000D03*
D28*
X163650000Y-71940000D03*
X163650000Y-71140000D03*
X163650000Y-70340000D03*
X163650000Y-69540000D03*
X163650000Y-68740000D03*
X163650000Y-67940000D03*
X163650000Y-67140000D03*
X163650000Y-66340000D03*
D27*
X162200000Y-64890000D03*
X161400000Y-64890000D03*
X160600000Y-64890000D03*
X159800000Y-64890000D03*
X159000000Y-64890000D03*
X158200000Y-64890000D03*
X157400000Y-64890000D03*
X156600000Y-64890000D03*
D28*
X155150000Y-66340000D03*
X155150000Y-67140000D03*
X155150000Y-67940000D03*
X155150000Y-68740000D03*
X155150000Y-69540000D03*
X155150000Y-70340000D03*
X155150000Y-71140000D03*
X155150000Y-71940000D03*
D29*
X152500000Y-47725000D03*
D30*
X139890000Y-86230000D03*
X143290000Y-86230000D03*
D16*
X144050000Y-116200000D03*
X143100000Y-116200000D03*
X142150000Y-116200000D03*
X142150000Y-118400000D03*
X144050000Y-118400000D03*
D23*
X140950000Y-82250000D03*
X140950000Y-66250000D03*
D17*
X147960000Y-106595000D03*
X147960000Y-104945000D03*
D25*
X145970000Y-118520000D03*
X145970000Y-116970000D03*
D23*
X140950000Y-74250000D03*
D31*
X162243332Y-76875000D03*
X163793332Y-76875000D03*
D18*
X144700000Y-73200000D03*
X144700000Y-75300000D03*
D20*
X140520000Y-116930000D03*
X140520000Y-118580000D03*
D32*
X163943332Y-81195000D03*
X163943332Y-78995000D03*
X162243332Y-78995000D03*
X162243332Y-81195000D03*
D18*
X144700000Y-81200000D03*
X144700000Y-83300000D03*
D31*
X139225000Y-124489776D03*
X140775000Y-124489776D03*
D21*
X143730000Y-108615000D03*
X143730000Y-110165000D03*
D33*
X164982000Y-103000000D03*
X160918000Y-103000000D03*
D25*
X152210000Y-97545000D03*
X152210000Y-95995000D03*
D20*
X146650000Y-108565000D03*
X146650000Y-110215000D03*
D21*
X159170000Y-96575000D03*
X159170000Y-98125000D03*
D18*
X144700000Y-71300000D03*
X144700000Y-69200000D03*
D17*
X140650000Y-94500000D03*
X140650000Y-92850000D03*
D23*
X140950000Y-54250000D03*
D17*
X154480000Y-61475000D03*
X154480000Y-59825000D03*
D34*
X159061666Y-77175000D03*
X157791666Y-77175000D03*
X156521666Y-77175000D03*
X155251666Y-77175000D03*
X155251666Y-82575000D03*
X156521666Y-82575000D03*
X157791666Y-82575000D03*
X159061666Y-82575000D03*
D20*
X154480000Y-51850000D03*
X154480000Y-53500000D03*
D35*
X141200000Y-114100000D03*
X141850000Y-114100000D03*
X142500000Y-114100000D03*
X142500000Y-112200000D03*
X141200000Y-112200000D03*
D17*
X146280000Y-71075000D03*
X146280000Y-69425000D03*
X154000000Y-101795000D03*
X154000000Y-100145000D03*
X146280000Y-75025000D03*
X146280000Y-73375000D03*
D36*
X140025000Y-126930000D03*
X140025000Y-129830000D03*
D37*
X165000000Y-50190000D03*
D38*
X165000000Y-52730000D03*
X162460000Y-50190000D03*
X162460000Y-52730000D03*
X159920000Y-50190000D03*
X159920000Y-52730000D03*
D23*
X140950000Y-62250000D03*
D20*
X152540000Y-100145000D03*
X152540000Y-101795000D03*
D35*
X157850000Y-94560000D03*
X158500000Y-94560000D03*
X159150000Y-94560000D03*
X159150000Y-92660000D03*
X157850000Y-92660000D03*
D18*
X144700000Y-51350000D03*
X144700000Y-49250000D03*
D17*
X145780000Y-102065000D03*
X145780000Y-100415000D03*
D18*
X152900000Y-57650000D03*
X152900000Y-55550000D03*
D16*
X156240000Y-102490000D03*
X157190000Y-102490000D03*
X158140000Y-102490000D03*
X158140000Y-100290000D03*
X156240000Y-100290000D03*
D39*
X162195000Y-86230000D03*
X163845000Y-86230000D03*
D31*
X158855000Y-57270000D03*
X160405000Y-57270000D03*
D23*
X140950000Y-50250000D03*
D18*
X144720000Y-59310000D03*
X144720000Y-57210000D03*
D20*
X153670000Y-95945000D03*
X153670000Y-97595000D03*
D17*
X146280000Y-67075000D03*
X146280000Y-65425000D03*
D40*
X157700000Y-110320000D03*
X157700000Y-120480000D03*
X157700000Y-128100000D03*
X165320000Y-110320000D03*
D31*
X162245000Y-84770000D03*
X163795000Y-84770000D03*
D20*
X155010000Y-88605000D03*
X155010000Y-90255000D03*
D23*
X140950000Y-78250000D03*
D31*
X158855000Y-60190000D03*
X160405000Y-60190000D03*
D25*
X152090000Y-90205000D03*
X152090000Y-88655000D03*
D39*
X158805000Y-58730000D03*
X160455000Y-58730000D03*
D30*
X139890000Y-90150000D03*
X143290000Y-90150000D03*
D18*
X140650000Y-98155000D03*
X140650000Y-96055000D03*
D21*
X146500000Y-104995000D03*
X146500000Y-106545000D03*
D20*
X146280000Y-49400000D03*
X146280000Y-51050000D03*
D23*
X140950000Y-70250000D03*
D41*
X143000000Y-106500000D03*
X143000000Y-105850000D03*
X143000000Y-105200000D03*
X141100000Y-105200000D03*
X141100000Y-106500000D03*
D20*
X139590000Y-100415000D03*
X139590000Y-102065000D03*
D21*
X165550000Y-93205000D03*
X165550000Y-94755000D03*
D25*
X139060000Y-106640000D03*
X139060000Y-105090000D03*
D17*
X154480000Y-57425000D03*
X154480000Y-55775000D03*
D25*
X139060000Y-112565000D03*
X139060000Y-111015000D03*
D24*
X142700000Y-120550000D03*
X140800000Y-120550000D03*
X141750000Y-122650000D03*
D42*
X143000000Y-136250000D03*
X144000000Y-136250000D03*
X145000000Y-136250000D03*
X146000000Y-136250000D03*
X147000000Y-136250000D03*
X148000000Y-136250000D03*
X149000000Y-136250000D03*
X150000000Y-136250000D03*
X151000000Y-136250000D03*
X152000000Y-136250000D03*
X153000000Y-136250000D03*
X156000000Y-136250000D03*
X157000000Y-136250000D03*
X158000000Y-136250000D03*
X159000000Y-136250000D03*
X160000000Y-136250000D03*
D43*
X161000000Y-135700000D03*
D42*
X162000000Y-136250000D03*
D24*
X163360000Y-97610000D03*
X161460000Y-97610000D03*
X162410000Y-99710000D03*
D21*
X139060000Y-108050000D03*
X139060000Y-109600000D03*
D17*
X145040000Y-106595000D03*
X145040000Y-104945000D03*
X146280000Y-83100000D03*
X146280000Y-81450000D03*
D25*
X165550000Y-91045000D03*
X165550000Y-89495000D03*
D35*
X144670000Y-114100000D03*
X145320000Y-114100000D03*
X145970000Y-114100000D03*
X145970000Y-112200000D03*
X144670000Y-112200000D03*
D20*
X146300000Y-57600000D03*
X146300000Y-59250000D03*
%LPD*%
M02*
