G04 #@! TF.GenerationSoftware,KiCad,Pcbnew,8.0.6*
G04 #@! TF.CreationDate,2024-11-19T22:41:57-05:00*
G04 #@! TF.ProjectId,brakes,6272616b-6573-42e6-9b69-6361645f7063,2*
G04 #@! TF.SameCoordinates,Original*
G04 #@! TF.FileFunction,Copper,L1,Top*
G04 #@! TF.FilePolarity,Positive*
%FSLAX46Y46*%
G04 Gerber Fmt 4.6, Leading zero omitted, Abs format (unit mm)*
G04 Created by KiCad (PCBNEW 8.0.6) date 2024-11-19 22:41:57*
%MOMM*%
%LPD*%
G01*
G04 APERTURE LIST*
G04 Aperture macros list*
%AMRoundRect*
0 Rectangle with rounded corners*
0 $1 Rounding radius*
0 $2 $3 $4 $5 $6 $7 $8 $9 X,Y pos of 4 corners*
0 Add a 4 corners polygon primitive as box body*
4,1,4,$2,$3,$4,$5,$6,$7,$8,$9,$2,$3,0*
0 Add four circle primitives for the rounded corners*
1,1,$1+$1,$2,$3*
1,1,$1+$1,$4,$5*
1,1,$1+$1,$6,$7*
1,1,$1+$1,$8,$9*
0 Add four rect primitives between the rounded corners*
20,1,$1+$1,$2,$3,$4,$5,0*
20,1,$1+$1,$4,$5,$6,$7,0*
20,1,$1+$1,$6,$7,$8,$9,0*
20,1,$1+$1,$8,$9,$2,$3,0*%
G04 Aperture macros list end*
G04 #@! TA.AperFunction,SMDPad,CuDef*
%ADD10R,0.650000X1.060000*%
G04 #@! TD*
G04 #@! TA.AperFunction,SMDPad,CuDef*
%ADD11RoundRect,0.200000X0.275000X-0.200000X0.275000X0.200000X-0.275000X0.200000X-0.275000X-0.200000X0*%
G04 #@! TD*
G04 #@! TA.AperFunction,SMDPad,CuDef*
%ADD12R,1.200000X1.200000*%
G04 #@! TD*
G04 #@! TA.AperFunction,SMDPad,CuDef*
%ADD13R,0.900000X0.800000*%
G04 #@! TD*
G04 #@! TA.AperFunction,SMDPad,CuDef*
%ADD14RoundRect,0.200000X-0.275000X0.200000X-0.275000X-0.200000X0.275000X-0.200000X0.275000X0.200000X0*%
G04 #@! TD*
G04 #@! TA.AperFunction,SMDPad,CuDef*
%ADD15RoundRect,0.225000X-0.250000X0.225000X-0.250000X-0.225000X0.250000X-0.225000X0.250000X0.225000X0*%
G04 #@! TD*
G04 #@! TA.AperFunction,SMDPad,CuDef*
%ADD16RoundRect,0.225000X0.225000X0.250000X-0.225000X0.250000X-0.225000X-0.250000X0.225000X-0.250000X0*%
G04 #@! TD*
G04 #@! TA.AperFunction,SMDPad,CuDef*
%ADD17R,4.500000X3.000000*%
G04 #@! TD*
G04 #@! TA.AperFunction,SMDPad,CuDef*
%ADD18R,0.800000X0.900000*%
G04 #@! TD*
G04 #@! TA.AperFunction,SMDPad,CuDef*
%ADD19RoundRect,0.225000X0.250000X-0.225000X0.250000X0.225000X-0.250000X0.225000X-0.250000X-0.225000X0*%
G04 #@! TD*
G04 #@! TA.AperFunction,SMDPad,CuDef*
%ADD20RoundRect,0.200000X0.200000X0.275000X-0.200000X0.275000X-0.200000X-0.275000X0.200000X-0.275000X0*%
G04 #@! TD*
G04 #@! TA.AperFunction,SMDPad,CuDef*
%ADD21R,0.550000X1.600000*%
G04 #@! TD*
G04 #@! TA.AperFunction,SMDPad,CuDef*
%ADD22R,1.600000X0.550000*%
G04 #@! TD*
G04 #@! TA.AperFunction,ComponentPad*
%ADD23C,5.499999*%
G04 #@! TD*
G04 #@! TA.AperFunction,SMDPad,CuDef*
%ADD24R,0.800000X1.700000*%
G04 #@! TD*
G04 #@! TA.AperFunction,SMDPad,CuDef*
%ADD25RoundRect,0.225000X-0.225000X-0.250000X0.225000X-0.250000X0.225000X0.250000X-0.225000X0.250000X0*%
G04 #@! TD*
G04 #@! TA.AperFunction,SMDPad,CuDef*
%ADD26R,1.200000X1.400000*%
G04 #@! TD*
G04 #@! TA.AperFunction,SMDPad,CuDef*
%ADD27R,1.778000X2.159000*%
G04 #@! TD*
G04 #@! TA.AperFunction,SMDPad,CuDef*
%ADD28R,0.600000X1.550000*%
G04 #@! TD*
G04 #@! TA.AperFunction,SMDPad,CuDef*
%ADD29RoundRect,0.100000X0.100000X-0.225000X0.100000X0.225000X-0.100000X0.225000X-0.100000X-0.225000X0*%
G04 #@! TD*
G04 #@! TA.AperFunction,SMDPad,CuDef*
%ADD30R,2.500000X0.900000*%
G04 #@! TD*
G04 #@! TA.AperFunction,ComponentPad*
%ADD31R,1.700000X1.700000*%
G04 #@! TD*
G04 #@! TA.AperFunction,ComponentPad*
%ADD32O,1.700000X1.700000*%
G04 #@! TD*
G04 #@! TA.AperFunction,SMDPad,CuDef*
%ADD33RoundRect,0.200000X-0.200000X-0.275000X0.200000X-0.275000X0.200000X0.275000X-0.200000X0.275000X0*%
G04 #@! TD*
G04 #@! TA.AperFunction,ComponentPad*
%ADD34C,1.800000*%
G04 #@! TD*
G04 #@! TA.AperFunction,SMDPad,CuDef*
%ADD35RoundRect,0.100000X0.225000X0.100000X-0.225000X0.100000X-0.225000X-0.100000X0.225000X-0.100000X0*%
G04 #@! TD*
G04 #@! TA.AperFunction,ConnectorPad*
%ADD36O,0.700000X4.300000*%
G04 #@! TD*
G04 #@! TA.AperFunction,ConnectorPad*
%ADD37O,0.700000X3.200000*%
G04 #@! TD*
G04 #@! TA.AperFunction,ViaPad*
%ADD38C,0.609600*%
G04 #@! TD*
G04 #@! TA.AperFunction,Conductor*
%ADD39C,0.254000*%
G04 #@! TD*
G04 #@! TA.AperFunction,Conductor*
%ADD40C,0.152400*%
G04 #@! TD*
G04 #@! TA.AperFunction,Conductor*
%ADD41C,0.300000*%
G04 #@! TD*
G04 #@! TA.AperFunction,Conductor*
%ADD42C,0.150000*%
G04 #@! TD*
G04 #@! TA.AperFunction,Conductor*
%ADD43C,0.406400*%
G04 #@! TD*
G04 #@! TA.AperFunction,Conductor*
%ADD44C,0.635000*%
G04 #@! TD*
G04 APERTURE END LIST*
D10*
X163310000Y-88750000D03*
X162360000Y-88750000D03*
X161410000Y-88750000D03*
X161410000Y-90950000D03*
X163310000Y-90950000D03*
D11*
X165550000Y-98430000D03*
X165550000Y-96780000D03*
X140520000Y-110215000D03*
X140520000Y-108565000D03*
D12*
X152900000Y-51575000D03*
X152900000Y-53675000D03*
D13*
X141640000Y-100290000D03*
X141640000Y-102190000D03*
X143740000Y-101240000D03*
D14*
X148110000Y-112445000D03*
X148110000Y-114095000D03*
X152090000Y-92230000D03*
X152090000Y-93880000D03*
D12*
X144700000Y-67300000D03*
X144700000Y-65200000D03*
D15*
X155010000Y-92280000D03*
X155010000Y-93830000D03*
D16*
X163793332Y-83310000D03*
X162243332Y-83310000D03*
D14*
X157710000Y-96525000D03*
X157710000Y-98175000D03*
D17*
X140950000Y-58250000D03*
D11*
X139060000Y-115580000D03*
X139060000Y-113930000D03*
D15*
X155130000Y-95995000D03*
X155130000Y-97545000D03*
D11*
X153550000Y-90255000D03*
X153550000Y-88605000D03*
D18*
X157200000Y-90700000D03*
X159100000Y-90700000D03*
X158150000Y-88600000D03*
D14*
X145190000Y-108565000D03*
X145190000Y-110215000D03*
D19*
X148110000Y-111080000D03*
X148110000Y-109530000D03*
D12*
X152875000Y-59600000D03*
X152875000Y-61700000D03*
D20*
X157981666Y-85000000D03*
X156331666Y-85000000D03*
D14*
X141980000Y-108565000D03*
X141980000Y-110215000D03*
X153550000Y-92230000D03*
X153550000Y-93880000D03*
D10*
X161410000Y-95500000D03*
X162360000Y-95500000D03*
X163310000Y-95500000D03*
X163310000Y-93300000D03*
X161410000Y-93300000D03*
D21*
X156600000Y-73390000D03*
X157400000Y-73390000D03*
X158200000Y-73390000D03*
X159000000Y-73390000D03*
X159800000Y-73390000D03*
X160600000Y-73390000D03*
X161400000Y-73390000D03*
X162200000Y-73390000D03*
D22*
X163650000Y-71940000D03*
X163650000Y-71140000D03*
X163650000Y-70340000D03*
X163650000Y-69540000D03*
X163650000Y-68740000D03*
X163650000Y-67940000D03*
X163650000Y-67140000D03*
X163650000Y-66340000D03*
D21*
X162200000Y-64890000D03*
X161400000Y-64890000D03*
X160600000Y-64890000D03*
X159800000Y-64890000D03*
X159000000Y-64890000D03*
X158200000Y-64890000D03*
X157400000Y-64890000D03*
X156600000Y-64890000D03*
D22*
X155150000Y-66340000D03*
X155150000Y-67140000D03*
X155150000Y-67940000D03*
X155150000Y-68740000D03*
X155150000Y-69540000D03*
X155150000Y-70340000D03*
X155150000Y-71140000D03*
X155150000Y-71940000D03*
D23*
X152500000Y-47725000D03*
D24*
X139890000Y-86230000D03*
X143290000Y-86230000D03*
D10*
X144050000Y-116200000D03*
X143100000Y-116200000D03*
X142150000Y-116200000D03*
X142150000Y-118400000D03*
X144050000Y-118400000D03*
D17*
X140950000Y-82250000D03*
X140950000Y-66250000D03*
D11*
X147960000Y-106595000D03*
X147960000Y-104945000D03*
D19*
X145970000Y-118520000D03*
X145970000Y-116970000D03*
D17*
X140950000Y-74250000D03*
D25*
X162243332Y-76875000D03*
X163793332Y-76875000D03*
D12*
X144700000Y-73200000D03*
X144700000Y-75300000D03*
D14*
X140520000Y-116930000D03*
X140520000Y-118580000D03*
D26*
X163943332Y-81195000D03*
X163943332Y-78995000D03*
X162243332Y-78995000D03*
X162243332Y-81195000D03*
D12*
X144700000Y-81200000D03*
X144700000Y-83300000D03*
D25*
X139225000Y-124489776D03*
X140775000Y-124489776D03*
D15*
X143730000Y-108615000D03*
X143730000Y-110165000D03*
D27*
X164982000Y-103000000D03*
X160918000Y-103000000D03*
D19*
X152210000Y-97545000D03*
X152210000Y-95995000D03*
D14*
X146650000Y-108565000D03*
X146650000Y-110215000D03*
D15*
X159170000Y-96575000D03*
X159170000Y-98125000D03*
D12*
X144700000Y-71300000D03*
X144700000Y-69200000D03*
D11*
X140650000Y-94500000D03*
X140650000Y-92850000D03*
D17*
X140950000Y-54250000D03*
D11*
X154480000Y-61475000D03*
X154480000Y-59825000D03*
D28*
X159061666Y-77175000D03*
X157791666Y-77175000D03*
X156521666Y-77175000D03*
X155251666Y-77175000D03*
X155251666Y-82575000D03*
X156521666Y-82575000D03*
X157791666Y-82575000D03*
X159061666Y-82575000D03*
D14*
X154480000Y-51850000D03*
X154480000Y-53500000D03*
D29*
X141200000Y-114100000D03*
X141850000Y-114100000D03*
X142500000Y-114100000D03*
X142500000Y-112200000D03*
X141200000Y-112200000D03*
D11*
X146280000Y-71075000D03*
X146280000Y-69425000D03*
X154000000Y-101795000D03*
X154000000Y-100145000D03*
X146280000Y-75025000D03*
X146280000Y-73375000D03*
D30*
X140025000Y-126930000D03*
X140025000Y-129830000D03*
D31*
X165000000Y-50190000D03*
D32*
X165000000Y-52730000D03*
X162460000Y-50190000D03*
X162460000Y-52730000D03*
X159920000Y-50190000D03*
X159920000Y-52730000D03*
D17*
X140950000Y-62250000D03*
D14*
X152540000Y-100145000D03*
X152540000Y-101795000D03*
D29*
X157850000Y-94560000D03*
X158500000Y-94560000D03*
X159150000Y-94560000D03*
X159150000Y-92660000D03*
X157850000Y-92660000D03*
D12*
X144700000Y-51350000D03*
X144700000Y-49250000D03*
D11*
X145780000Y-102065000D03*
X145780000Y-100415000D03*
D12*
X152900000Y-57650000D03*
X152900000Y-55550000D03*
D10*
X156240000Y-102490000D03*
X157190000Y-102490000D03*
X158140000Y-102490000D03*
X158140000Y-100290000D03*
X156240000Y-100290000D03*
D33*
X162195000Y-86230000D03*
X163845000Y-86230000D03*
D25*
X158855000Y-57270000D03*
X160405000Y-57270000D03*
D17*
X140950000Y-50250000D03*
D12*
X144720000Y-59310000D03*
X144720000Y-57210000D03*
D14*
X153670000Y-95945000D03*
X153670000Y-97595000D03*
D11*
X146280000Y-67075000D03*
X146280000Y-65425000D03*
D34*
X157700000Y-110320000D03*
X157700000Y-120480000D03*
X157700000Y-128100000D03*
X165320000Y-110320000D03*
D25*
X162245000Y-84770000D03*
X163795000Y-84770000D03*
D14*
X155010000Y-88605000D03*
X155010000Y-90255000D03*
D17*
X140950000Y-78250000D03*
D25*
X158855000Y-60190000D03*
X160405000Y-60190000D03*
D19*
X152090000Y-90205000D03*
X152090000Y-88655000D03*
D33*
X158805000Y-58730000D03*
X160455000Y-58730000D03*
D24*
X139890000Y-90150000D03*
X143290000Y-90150000D03*
D12*
X140650000Y-98155000D03*
X140650000Y-96055000D03*
D15*
X146500000Y-104995000D03*
X146500000Y-106545000D03*
D14*
X146280000Y-49400000D03*
X146280000Y-51050000D03*
D17*
X140950000Y-70250000D03*
D35*
X143000000Y-106500000D03*
X143000000Y-105850000D03*
X143000000Y-105200000D03*
X141100000Y-105200000D03*
X141100000Y-106500000D03*
D14*
X139590000Y-100415000D03*
X139590000Y-102065000D03*
D15*
X165550000Y-93205000D03*
X165550000Y-94755000D03*
D19*
X139060000Y-106640000D03*
X139060000Y-105090000D03*
D11*
X154480000Y-57425000D03*
X154480000Y-55775000D03*
D19*
X139060000Y-112565000D03*
X139060000Y-111015000D03*
D18*
X142700000Y-120550000D03*
X140800000Y-120550000D03*
X141750000Y-122650000D03*
D36*
X143000000Y-136250000D03*
X144000000Y-136250000D03*
X145000000Y-136250000D03*
X146000000Y-136250000D03*
X147000000Y-136250000D03*
X148000000Y-136250000D03*
X149000000Y-136250000D03*
X150000000Y-136250000D03*
X151000000Y-136250000D03*
X152000000Y-136250000D03*
X153000000Y-136250000D03*
X156000000Y-136250000D03*
X157000000Y-136250000D03*
X158000000Y-136250000D03*
X159000000Y-136250000D03*
X160000000Y-136250000D03*
D37*
X161000000Y-135700000D03*
D36*
X162000000Y-136250000D03*
D18*
X163360000Y-97610000D03*
X161460000Y-97610000D03*
X162410000Y-99710000D03*
D15*
X139060000Y-108050000D03*
X139060000Y-109600000D03*
D11*
X145040000Y-106595000D03*
X145040000Y-104945000D03*
X146280000Y-83100000D03*
X146280000Y-81450000D03*
D19*
X165550000Y-91045000D03*
X165550000Y-89495000D03*
D29*
X144670000Y-114100000D03*
X145320000Y-114100000D03*
X145970000Y-114100000D03*
X145970000Y-112200000D03*
X144670000Y-112200000D03*
D14*
X146300000Y-57600000D03*
X146300000Y-59250000D03*
D38*
X161440000Y-61172159D03*
X164771400Y-61170000D03*
X157810000Y-57990000D03*
X149008840Y-82235041D03*
X162891000Y-92126741D03*
X163106800Y-61172148D03*
X152655800Y-80350000D03*
X164759063Y-82295380D03*
X139545369Y-105957136D03*
X140625000Y-105950000D03*
X150650000Y-96325000D03*
X165833400Y-61170000D03*
X161170000Y-84440000D03*
X152602251Y-70369851D03*
X145939052Y-96585948D03*
X161829000Y-92125474D03*
X145705594Y-121120200D03*
X142990000Y-123826300D03*
X146500000Y-107575000D03*
X154260000Y-94900000D03*
X140125374Y-111704626D03*
X157430000Y-58930000D03*
X139890000Y-84870000D03*
X161440000Y-60229603D03*
X140650000Y-98155000D03*
X147230253Y-94096705D03*
X144000000Y-130250000D03*
X151233200Y-121248892D03*
X159060000Y-84613400D03*
X157760000Y-52970000D03*
X160220000Y-89650000D03*
X145320000Y-115090000D03*
X144300000Y-78250000D03*
X148270000Y-60610000D03*
X163310000Y-96630000D03*
X139060000Y-103730000D03*
X150230800Y-115958279D03*
X165550000Y-95790000D03*
X156190000Y-97550000D03*
X159903901Y-130246099D03*
X148100000Y-108475000D03*
X152000000Y-130250000D03*
X163940000Y-77940000D03*
X157790000Y-75800000D03*
X143580000Y-115060000D03*
X145200000Y-111200000D03*
X155714626Y-117745374D03*
X143975000Y-105850000D03*
X140305000Y-125569776D03*
X148695168Y-94099907D03*
X150000000Y-130250000D03*
X165550000Y-88450000D03*
X159798695Y-74768753D03*
X153030000Y-98950000D03*
X155720374Y-119249626D03*
X142150000Y-116200000D03*
X163050000Y-130200000D03*
X159800000Y-63500000D03*
X140800000Y-120550000D03*
X158150000Y-103620000D03*
X148270000Y-68610000D03*
X160410000Y-56190000D03*
X148270000Y-52630000D03*
X143740000Y-111200000D03*
X158500000Y-95540000D03*
X164840000Y-84770000D03*
X148270000Y-72610000D03*
X160270000Y-98120000D03*
X150760000Y-90129397D03*
X144910000Y-116970000D03*
X144700000Y-81225000D03*
X140120000Y-107580000D03*
X161048874Y-82020180D03*
X157430000Y-50100000D03*
X140660000Y-102170000D03*
X150082200Y-62650000D03*
X152300000Y-65490397D03*
X150082200Y-64930000D03*
X147958904Y-103206651D03*
X145873006Y-95829222D03*
X146650000Y-62250000D03*
X143975000Y-104875000D03*
X146049723Y-98899000D03*
X142875000Y-107600000D03*
X149755533Y-95884479D03*
X163612000Y-59590474D03*
X163509297Y-63178600D03*
X161440000Y-59470000D03*
X163880000Y-60641343D03*
X142825474Y-95681000D03*
X160200000Y-78631000D03*
X154870000Y-83960000D03*
X152750000Y-84520995D03*
X145141725Y-92607326D03*
X150750000Y-94850000D03*
X160262974Y-80662026D03*
X162825800Y-63510000D03*
X155400359Y-75800359D03*
X149050000Y-73490397D03*
X161164400Y-75220000D03*
X159044830Y-74861939D03*
X152521600Y-73657454D03*
X165050000Y-68740000D03*
X150456503Y-61025577D03*
X164771400Y-62650000D03*
X165809029Y-63028972D03*
X158145523Y-62266371D03*
X162224869Y-62050000D03*
X157730000Y-50949000D03*
X155990000Y-74790000D03*
X157730000Y-52011000D03*
X161690634Y-54870237D03*
X162984472Y-62050000D03*
X156749603Y-74790000D03*
X162825000Y-55575000D03*
X149587556Y-59321374D03*
X149529800Y-55300000D03*
X149529800Y-57100000D03*
X149050000Y-54250000D03*
X150711395Y-124088605D03*
X153664400Y-67940000D03*
X151992800Y-106240798D03*
X148772000Y-104525000D03*
X149047855Y-125752145D03*
X145850855Y-92325855D03*
X152740000Y-78510000D03*
X145625000Y-104069800D03*
X144245200Y-96912587D03*
X151993483Y-103526517D03*
X153219610Y-83761464D03*
X161000000Y-130250000D03*
X152521459Y-104072627D03*
X142589788Y-94414789D03*
X151248515Y-124625725D03*
X149434000Y-90379702D03*
X149584975Y-126289265D03*
X149050000Y-74250000D03*
X149000000Y-130250000D03*
X143604577Y-97345848D03*
X151896200Y-79826146D03*
X153362000Y-67140000D03*
X146400000Y-86230000D03*
X151893433Y-75888498D03*
X155340000Y-85715199D03*
X147200000Y-130025000D03*
X151626420Y-86851220D03*
X148400000Y-93400000D03*
X149353915Y-122703915D03*
X155340000Y-86774799D03*
X146917863Y-123826300D03*
X143729577Y-98721740D03*
X153067009Y-104601183D03*
X149045956Y-59853977D03*
X149050000Y-57719000D03*
X146070200Y-123826300D03*
X145950000Y-129700000D03*
X147545700Y-93405700D03*
X148746085Y-122096085D03*
X152163540Y-86314099D03*
X153761656Y-71140000D03*
X165833400Y-57230000D03*
X161465266Y-62050000D03*
X164469000Y-57229526D03*
X149434000Y-91139305D03*
X151069000Y-68200000D03*
X152131000Y-68975000D03*
X144265501Y-98183427D03*
X150766600Y-67311481D03*
X150760000Y-90889000D03*
X149434000Y-91898908D03*
X153760000Y-63912200D03*
X164490000Y-90463200D03*
X158090000Y-63500000D03*
X149050000Y-66250000D03*
X164491105Y-92968895D03*
X161020842Y-92110842D03*
X153059581Y-65496158D03*
X156069526Y-90320474D03*
X156077855Y-89097800D03*
X152310000Y-63461000D03*
X147947944Y-119544442D03*
X147934526Y-84634526D03*
X146120000Y-119550000D03*
X148995180Y-95775800D03*
X154277974Y-102769000D03*
X146630800Y-95775800D03*
X150683400Y-81086930D03*
X150766600Y-61719000D03*
X151119526Y-99640474D03*
X153600354Y-105142052D03*
X144189874Y-95395399D03*
X145174423Y-98772952D03*
X145249474Y-95395400D03*
X162223692Y-75643692D03*
X160859000Y-75964447D03*
X162175000Y-66775000D03*
X152596023Y-85673376D03*
X144375000Y-92475000D03*
X160793973Y-79289486D03*
X154922262Y-84717803D03*
X160798288Y-81200946D03*
X155750000Y-98801200D03*
X144245200Y-96152984D03*
X165775332Y-72285616D03*
X165030000Y-70340000D03*
X165030000Y-72471000D03*
X165030000Y-71140000D03*
X160409321Y-62737783D03*
X157430000Y-61480000D03*
X158870602Y-62039973D03*
X161159000Y-63490000D03*
D39*
X139060000Y-106442505D02*
X139545369Y-105957136D01*
D40*
X147233400Y-86086600D02*
X147233400Y-86575206D01*
X157580000Y-62520000D02*
X157580000Y-62080948D01*
D41*
X166580000Y-92080000D02*
X166580000Y-93180000D01*
D42*
X138360000Y-110017630D02*
X138360000Y-108750000D01*
D40*
X152090000Y-91420000D02*
X154150000Y-91420000D01*
D39*
X166505000Y-91045000D02*
X165550000Y-91045000D01*
D40*
X144431458Y-91226200D02*
X140966200Y-91226200D01*
X155179770Y-75270000D02*
X154560000Y-75270000D01*
X147233400Y-86575206D02*
X146619052Y-87189554D01*
D43*
X145939052Y-96585948D02*
X145939052Y-97799052D01*
D40*
X152090000Y-91420000D02*
X150262000Y-91420000D01*
X151600000Y-63420000D02*
X152090000Y-62930000D01*
X150885000Y-95995000D02*
X150710000Y-95820000D01*
X148950000Y-82293881D02*
X148950000Y-84370000D01*
X152540000Y-100145000D02*
X152195000Y-100145000D01*
X165350000Y-78210000D02*
X165350000Y-81840000D01*
X146280000Y-81660000D02*
X146870000Y-82250000D01*
D41*
X153630000Y-87500000D02*
X153625400Y-87504600D01*
D40*
X152375000Y-100145000D02*
X152540000Y-100145000D01*
D43*
X149430000Y-114980000D02*
X149430000Y-107230000D01*
D39*
X144114945Y-103488000D02*
X146852000Y-103488000D01*
X146650000Y-108565000D02*
X146510000Y-108425000D01*
D43*
X149400000Y-107525000D02*
X149430000Y-107495000D01*
D40*
X163106800Y-61172148D02*
X163081000Y-61146348D01*
X161170000Y-85670000D02*
X161730000Y-86230000D01*
X157440551Y-74850000D02*
X156969551Y-75321000D01*
X165000000Y-57450000D02*
X163081000Y-59369000D01*
D43*
X139225000Y-126110000D02*
X139225000Y-124489776D01*
X150092000Y-89866844D02*
X150092000Y-95202000D01*
X147140000Y-101450000D02*
X147430000Y-101740000D01*
D39*
X166580000Y-93180000D02*
X166555000Y-93205000D01*
X142660000Y-106980000D02*
X143110000Y-106980000D01*
X139618605Y-107258605D02*
X140075000Y-106802210D01*
D40*
X150650000Y-98420000D02*
X152375000Y-100145000D01*
D43*
X145705594Y-121120200D02*
X147290000Y-119535794D01*
D40*
X157810000Y-57270000D02*
X158855000Y-57270000D01*
X152424433Y-76108446D02*
X152424433Y-75664433D01*
X161440000Y-61172159D02*
X161437841Y-61170000D01*
D43*
X150710000Y-96265000D02*
X150710000Y-95820000D01*
D40*
X152210000Y-95995000D02*
X152968800Y-96753800D01*
D42*
X145970000Y-118520000D02*
X143830000Y-118520000D01*
D39*
X166580000Y-91120000D02*
X166505000Y-91045000D01*
D42*
X147210000Y-117600000D02*
X147290000Y-117520000D01*
D43*
X139225000Y-126110000D02*
X140035000Y-126920000D01*
D40*
X158805000Y-57990000D02*
X158805000Y-57320000D01*
D39*
X150710000Y-86944849D02*
X152015200Y-85639649D01*
X143730000Y-107550000D02*
X145652210Y-107550000D01*
D40*
X157580000Y-62080948D02*
X157961000Y-61699948D01*
D39*
X140625000Y-106025000D02*
X141100000Y-106500000D01*
X139618605Y-107258605D02*
X139060000Y-107817210D01*
X146510000Y-108425000D02*
X146510000Y-108156800D01*
D43*
X150710000Y-89248844D02*
X150092000Y-89866844D01*
X149430000Y-107495000D02*
X149430000Y-107230000D01*
D42*
X144470000Y-112000000D02*
X144470000Y-109355000D01*
D43*
X147290000Y-119535794D02*
X147290000Y-117520000D01*
D40*
X166340600Y-61398600D02*
X166340600Y-77219400D01*
X157470000Y-92280000D02*
X157850000Y-92660000D01*
D39*
X152015200Y-77370000D02*
X152015200Y-78010000D01*
D40*
X160360000Y-81510000D02*
X156521666Y-77671666D01*
X149008840Y-82235041D02*
X146884959Y-82235041D01*
X157580000Y-60879052D02*
X157580000Y-59530948D01*
D43*
X147970000Y-102280000D02*
X147430000Y-101740000D01*
D39*
X152015200Y-83931558D02*
X152660000Y-83286758D01*
X152015200Y-78010000D02*
X152015200Y-79125200D01*
D40*
X146884959Y-82235041D02*
X146870000Y-82250000D01*
D42*
X139444999Y-110275000D02*
X138617370Y-110275000D01*
D41*
X166580000Y-88230000D02*
X166580000Y-91120000D01*
D40*
X161730000Y-86230000D02*
X162195000Y-86230000D01*
X164769252Y-61172148D02*
X164771400Y-61170000D01*
X146619052Y-89038606D02*
X144431458Y-91226200D01*
D39*
X152660000Y-83286758D02*
X152660000Y-80354200D01*
X164982000Y-109982000D02*
X165320000Y-110320000D01*
D42*
X144670000Y-112200000D02*
X144470000Y-112000000D01*
D43*
X140025000Y-126930000D02*
X142075000Y-124880000D01*
D39*
X161410000Y-92544474D02*
X161829000Y-92125474D01*
X166555000Y-93205000D02*
X165550000Y-93205000D01*
D42*
X145970000Y-118520000D02*
X146890000Y-117600000D01*
D41*
X166580000Y-91120000D02*
X166580000Y-92080000D01*
D39*
X150720000Y-87640000D02*
X150710000Y-87630000D01*
D40*
X157961000Y-61260052D02*
X157580000Y-60879052D01*
D41*
X166580000Y-101020000D02*
X164982000Y-102618000D01*
D39*
X139618605Y-107198605D02*
X139618605Y-107258605D01*
D40*
X154560000Y-75270000D02*
X153660000Y-74370000D01*
D41*
X150855400Y-87504600D02*
X150720000Y-87640000D01*
D40*
X165000000Y-52730000D02*
X165000000Y-57450000D01*
X164894620Y-82295380D02*
X164759063Y-82295380D01*
D42*
X143830000Y-118520000D02*
X143730000Y-118420000D01*
D41*
X153625400Y-87504600D02*
X150855400Y-87504600D01*
D42*
X144470000Y-109355000D02*
X143730000Y-108615000D01*
D43*
X142075000Y-124755000D02*
X142990000Y-123840000D01*
D40*
X147095000Y-102065000D02*
X147420000Y-101740000D01*
D39*
X139060000Y-106640000D02*
X139060000Y-106442505D01*
D40*
X157961000Y-59149948D02*
X157961000Y-58710052D01*
X157961000Y-61470000D02*
X157961000Y-61260052D01*
X140950000Y-82250000D02*
X146870000Y-82250000D01*
D39*
X139060000Y-107817210D02*
X139060000Y-108050000D01*
X147960000Y-106595000D02*
X147960000Y-107515000D01*
D40*
X146619052Y-87189554D02*
X146619052Y-89038606D01*
D42*
X141200000Y-112030001D02*
X139444999Y-110275000D01*
D40*
X155281720Y-100290000D02*
X156240000Y-100290000D01*
D39*
X165550000Y-91045000D02*
X163405000Y-91045000D01*
X140075000Y-104500000D02*
X140805000Y-103770000D01*
D40*
X166112000Y-61170000D02*
X166340600Y-61398600D01*
X151990600Y-72156960D02*
X151600000Y-71766360D01*
X152968800Y-97977080D02*
X155281720Y-100290000D01*
D43*
X150092000Y-95202000D02*
X150710000Y-95820000D01*
D39*
X152015200Y-76674800D02*
X152015200Y-77370000D01*
D40*
X155180411Y-75269359D02*
X155179770Y-75270000D01*
D39*
X146510000Y-108156800D02*
X146788200Y-108156800D01*
D40*
X166340600Y-77219400D02*
X165350000Y-78210000D01*
D39*
X139060000Y-106640000D02*
X139618605Y-107198605D01*
D43*
X140035000Y-126920000D02*
X139835000Y-126920000D01*
D40*
X161500000Y-84770000D02*
X161170000Y-84440000D01*
D39*
X147420000Y-107525000D02*
X149400000Y-107525000D01*
X145652210Y-107550000D02*
X146259010Y-108156800D01*
X143680000Y-107550000D02*
X143730000Y-107550000D01*
D40*
X152210000Y-95995000D02*
X150885000Y-95995000D01*
D39*
X155010000Y-87680000D02*
X155010000Y-88605000D01*
D40*
X163081000Y-61146348D02*
X163081000Y-59369000D01*
D39*
X159875000Y-87500000D02*
X155190000Y-87500000D01*
D40*
X165833400Y-61170000D02*
X166112000Y-61170000D01*
X152110502Y-76419498D02*
X152113381Y-76419498D01*
D43*
X147290000Y-117520000D02*
X147290000Y-117120000D01*
D39*
X146852000Y-103488000D02*
X147970000Y-102370000D01*
D40*
X147420000Y-101740000D02*
X147430000Y-101740000D01*
D43*
X149430000Y-103740000D02*
X147970000Y-102280000D01*
X149430000Y-107230000D02*
X149430000Y-103740000D01*
D40*
X158190000Y-74850000D02*
X157440551Y-74850000D01*
D39*
X146788200Y-108156800D02*
X147420000Y-107525000D01*
X141980000Y-107660000D02*
X142660000Y-106980000D01*
D40*
X148950000Y-84370000D02*
X147233400Y-86086600D01*
X145780000Y-102065000D02*
X147095000Y-102065000D01*
D43*
X147290000Y-117120000D02*
X149430000Y-114980000D01*
D39*
X140075000Y-106802210D02*
X140075000Y-104500000D01*
D40*
X159000000Y-73390000D02*
X159000000Y-74040000D01*
X150650000Y-96325000D02*
X150650000Y-98420000D01*
X160360000Y-82885000D02*
X160360000Y-81510000D01*
D43*
X147140000Y-99000000D02*
X147140000Y-101450000D01*
D41*
X165850000Y-87500000D02*
X166580000Y-88230000D01*
D40*
X152090000Y-62930000D02*
X157170000Y-62930000D01*
D39*
X146259010Y-108156800D02*
X146510000Y-108156800D01*
D42*
X141200000Y-112200000D02*
X141200000Y-112030001D01*
D39*
X143730000Y-108615000D02*
X143730000Y-107550000D01*
D40*
X161437841Y-61170000D02*
X158261000Y-61170000D01*
X158805000Y-57990000D02*
X157810000Y-57990000D01*
X155010000Y-92280000D02*
X157470000Y-92280000D01*
X149008840Y-82235041D02*
X148950000Y-82293881D01*
D39*
X143832945Y-103770000D02*
X144114945Y-103488000D01*
D40*
X153660000Y-72840000D02*
X152602251Y-71782251D01*
X146280000Y-81450000D02*
X146280000Y-81660000D01*
X156521666Y-77671666D02*
X156521666Y-77175000D01*
X140966200Y-91226200D02*
X139890000Y-90150000D01*
X157350000Y-57730000D02*
X157810000Y-57270000D01*
X151990600Y-75230600D02*
X151990600Y-72156960D01*
X162245000Y-84770000D02*
X161500000Y-84770000D01*
D42*
X138617370Y-110275000D02*
X138360000Y-110017630D01*
D39*
X152134346Y-79244346D02*
X152137190Y-79244346D01*
D40*
X150262000Y-91420000D02*
X150092000Y-91250000D01*
D39*
X143110000Y-106980000D02*
X143680000Y-107550000D01*
D40*
X152424433Y-75664433D02*
X151990600Y-75230600D01*
X152015200Y-76514800D02*
X152110502Y-76419498D01*
X152015200Y-76674800D02*
X152015200Y-76514800D01*
D39*
X150710000Y-87630000D02*
X150710000Y-86944849D01*
X164982000Y-102618000D02*
X164982000Y-103000000D01*
D40*
X155770052Y-75321000D02*
X155718411Y-75269359D01*
D39*
X153630000Y-87500000D02*
X153550000Y-87580000D01*
D43*
X150710000Y-87630000D02*
X150710000Y-89248844D01*
D41*
X159875000Y-87500000D02*
X165850000Y-87500000D01*
D40*
X165350000Y-81840000D02*
X164894620Y-82295380D01*
D39*
X147970000Y-102370000D02*
X147970000Y-102280000D01*
D40*
X157961000Y-58710052D02*
X157350000Y-58099052D01*
D42*
X141200000Y-112030000D02*
X141200000Y-112200000D01*
D40*
X152602251Y-71782251D02*
X152602251Y-70369851D01*
X158261000Y-61170000D02*
X157961000Y-61470000D01*
D39*
X155190000Y-87500000D02*
X155010000Y-87680000D01*
X152660000Y-80345800D02*
X152655800Y-80350000D01*
X149400000Y-107525000D02*
X149450000Y-107525000D01*
D42*
X146890000Y-117600000D02*
X147210000Y-117600000D01*
D40*
X151600000Y-71766360D02*
X151600000Y-63420000D01*
D39*
X141980000Y-108565000D02*
X141980000Y-107660000D01*
D40*
X153660000Y-74370000D02*
X153660000Y-72840000D01*
X154150000Y-91420000D02*
X155010000Y-92280000D01*
D43*
X145939052Y-97799052D02*
X147140000Y-99000000D01*
D41*
X166580000Y-93180000D02*
X166580000Y-101020000D01*
D40*
X152113381Y-76419498D02*
X152424433Y-76108446D01*
X156969551Y-75321000D02*
X155770052Y-75321000D01*
D41*
X153630000Y-87500000D02*
X159875000Y-87500000D01*
D42*
X138360000Y-108750000D02*
X139060000Y-108050000D01*
D40*
X161170000Y-84440000D02*
X161170000Y-85670000D01*
D43*
X142990000Y-123840000D02*
X142990000Y-123826300D01*
D40*
X159000000Y-74040000D02*
X158190000Y-74850000D01*
X163106800Y-61172148D02*
X164769252Y-61172148D01*
X157170000Y-62930000D02*
X157580000Y-62520000D01*
D39*
X152137190Y-79244346D02*
X152660000Y-79767156D01*
X164471741Y-92126741D02*
X162891000Y-92126741D01*
X153550000Y-87580000D02*
X153550000Y-88605000D01*
X152660000Y-79767156D02*
X152660000Y-80345800D01*
D40*
X155718411Y-75269359D02*
X155180411Y-75269359D01*
D41*
X164982000Y-103000000D02*
X164982000Y-109982000D01*
D39*
X152015200Y-79125200D02*
X152134346Y-79244346D01*
X163405000Y-91045000D02*
X163310000Y-90950000D01*
X161410000Y-93300000D02*
X161410000Y-92544474D01*
D40*
X157350000Y-58099052D02*
X157350000Y-57730000D01*
X158805000Y-58730000D02*
X158805000Y-57990000D01*
D39*
X152015200Y-85639649D02*
X152015200Y-83931558D01*
D40*
X157961000Y-61699948D02*
X157961000Y-61470000D01*
X158805000Y-57320000D02*
X158855000Y-57270000D01*
X152968800Y-96753800D02*
X152968800Y-97977080D01*
D43*
X150650000Y-96325000D02*
X150710000Y-96265000D01*
D42*
X140625000Y-105950000D02*
X140625000Y-106025000D01*
D40*
X157580000Y-59530948D02*
X157961000Y-59149948D01*
D43*
X142075000Y-124880000D02*
X142075000Y-124755000D01*
D39*
X165550000Y-93205000D02*
X164471741Y-92126741D01*
D40*
X152090000Y-92230000D02*
X152090000Y-91420000D01*
X162245000Y-84770000D02*
X160360000Y-82885000D01*
D39*
X152660000Y-80354200D02*
X152655800Y-80350000D01*
X140805000Y-103770000D02*
X143832945Y-103770000D01*
D40*
X152900000Y-51575000D02*
X153624860Y-51575000D01*
X160405000Y-60190000D02*
X161400397Y-60190000D01*
X140950000Y-78250000D02*
X144300000Y-78250000D01*
D42*
X163280000Y-95502000D02*
X163280000Y-95762000D01*
D39*
X158704625Y-128795375D02*
X159903901Y-129994651D01*
D42*
X141545000Y-116805000D02*
X142150000Y-116200000D01*
D40*
X163795000Y-84770000D02*
X164840000Y-84770000D01*
X151461800Y-108960000D02*
X151461800Y-110690000D01*
X153030000Y-98950000D02*
X152210000Y-98130000D01*
X162243332Y-83214638D02*
X161048874Y-82020180D01*
X163310000Y-95500000D02*
X163310000Y-96630000D01*
X160265000Y-98125000D02*
X160270000Y-98120000D01*
D39*
X158129250Y-121750000D02*
X161405500Y-125026250D01*
D40*
X148695168Y-94099907D02*
X148464180Y-94330895D01*
D42*
X148100000Y-108475000D02*
X148110000Y-108485000D01*
X139760000Y-107940000D02*
X139760000Y-108900000D01*
D40*
X144720000Y-59310000D02*
X146020000Y-60610000D01*
X151461800Y-120697004D02*
X151461800Y-121020292D01*
X148169400Y-101023608D02*
X150429400Y-103283608D01*
X165550000Y-96780000D02*
X165550000Y-95790000D01*
D42*
X141850000Y-114237390D02*
X141850000Y-114100000D01*
D40*
X150429400Y-103283608D02*
X150459400Y-103313608D01*
X153030000Y-99175000D02*
X154000000Y-100145000D01*
X153030000Y-98950000D02*
X153030000Y-99175000D01*
X140775000Y-125099776D02*
X140305000Y-125569776D01*
X159800000Y-74770209D02*
X159800000Y-74780000D01*
X144700000Y-67300000D02*
X146010000Y-68610000D01*
X163943332Y-77943332D02*
X163940000Y-77940000D01*
D39*
X158770030Y-127505500D02*
X158187530Y-126923000D01*
D42*
X139590000Y-102065000D02*
X140555000Y-102065000D01*
D39*
X158184530Y-119300000D02*
X159000000Y-120115470D01*
X147363000Y-123244500D02*
X150405500Y-126287000D01*
D40*
X148464200Y-97450799D02*
X148464200Y-94330895D01*
X163793332Y-77793332D02*
X163940000Y-77940000D01*
X151461800Y-102898399D02*
X151461800Y-104610000D01*
X161400397Y-60190000D02*
X161440000Y-60229603D01*
D39*
X151000000Y-136250000D02*
X151000000Y-131250000D01*
X150405500Y-126287000D02*
X150405500Y-130095948D01*
X155720374Y-119249626D02*
X156523000Y-120052252D01*
D42*
X141480000Y-116870000D02*
X141545000Y-116805000D01*
X142672610Y-115060000D02*
X141850000Y-114237390D01*
D39*
X151594500Y-129844500D02*
X152000000Y-130250000D01*
X156523000Y-121173000D02*
X157100000Y-121750000D01*
D40*
X158140000Y-103610000D02*
X158150000Y-103620000D01*
D41*
X161460000Y-97610000D02*
X160780000Y-97610000D01*
D39*
X158187530Y-126923000D02*
X157212470Y-126923000D01*
D40*
X148169400Y-98573608D02*
X148169400Y-101023608D01*
D39*
X161400000Y-129809250D02*
X159096250Y-127505500D01*
X150251448Y-130250000D02*
X150000000Y-130250000D01*
D40*
X163793332Y-76875000D02*
X163793332Y-77793332D01*
D39*
X157212470Y-126923000D02*
X156523000Y-127612470D01*
X147363000Y-123244500D02*
X143860200Y-123244500D01*
D42*
X140520000Y-107980000D02*
X140520000Y-108565000D01*
D39*
X161405500Y-127169500D02*
X161400000Y-127175000D01*
D40*
X152210000Y-98130000D02*
X152210000Y-97545000D01*
X150459400Y-115729679D02*
X150230800Y-115958279D01*
X151461800Y-110690000D02*
X151461800Y-116620000D01*
D39*
X162594500Y-129744500D02*
X163050000Y-130200000D01*
D40*
X146010000Y-68610000D02*
X148270000Y-68610000D01*
X152090000Y-90205000D02*
X150835603Y-90205000D01*
X141420000Y-116930000D02*
X141545000Y-116805000D01*
D39*
X147855500Y-122055500D02*
X151594500Y-125794500D01*
D40*
X140775000Y-124489776D02*
X140775000Y-125099776D01*
X161410000Y-88750000D02*
X161120000Y-88750000D01*
X163943332Y-78995000D02*
X163943332Y-77943332D01*
X158500000Y-94560000D02*
X158500000Y-95540000D01*
D42*
X140120000Y-107580000D02*
X139760000Y-107940000D01*
D40*
X150835603Y-90205000D02*
X150760000Y-90129397D01*
D42*
X139060000Y-111015000D02*
X139435748Y-111015000D01*
X145970000Y-116970000D02*
X144910000Y-116970000D01*
D40*
X139890000Y-86230000D02*
X139890000Y-84870000D01*
D42*
X139435748Y-111015000D02*
X140125374Y-111704626D01*
D40*
X146020000Y-60610000D02*
X148270000Y-60610000D01*
D39*
X146310000Y-122055500D02*
X142427000Y-122055500D01*
X146000000Y-132250000D02*
X144000000Y-130250000D01*
D40*
X153570000Y-58930000D02*
X157430000Y-58930000D01*
X151461800Y-105650000D02*
X151461800Y-106630000D01*
X161120000Y-88750000D02*
X160220000Y-89650000D01*
D39*
X159096250Y-127505500D02*
X158770030Y-127505500D01*
X159903901Y-129994651D02*
X159903901Y-130246099D01*
D40*
X160150000Y-89650000D02*
X160220000Y-89650000D01*
X155010000Y-93830000D02*
X155010000Y-94150000D01*
X147230253Y-94096705D02*
X147461800Y-94328252D01*
D39*
X158223000Y-129277000D02*
X158704625Y-128795375D01*
D40*
X151431800Y-102868399D02*
X151461800Y-102898399D01*
D41*
X160780000Y-97610000D02*
X160270000Y-98120000D01*
D40*
X147459400Y-97863608D02*
X148169400Y-98573608D01*
D39*
X147855500Y-122055500D02*
X146310000Y-122055500D01*
X157212470Y-129277000D02*
X158223000Y-129277000D01*
X151000000Y-131250000D02*
X152000000Y-130250000D01*
D42*
X143000000Y-105850000D02*
X143975000Y-105850000D01*
D40*
X145320000Y-114100000D02*
X145320000Y-115090000D01*
D39*
X149000000Y-131250000D02*
X149000000Y-136250000D01*
D40*
X155010000Y-94150000D02*
X154260000Y-94900000D01*
X162243332Y-81195000D02*
X161874054Y-81195000D01*
D39*
X156523000Y-120052252D02*
X156523000Y-121173000D01*
D40*
X152900000Y-57650000D02*
X152900000Y-58260000D01*
X158140000Y-102490000D02*
X158140000Y-103610000D01*
X165550000Y-94755000D02*
X165550000Y-95790000D01*
D42*
X140555000Y-102065000D02*
X140660000Y-102170000D01*
D40*
X157791666Y-75801666D02*
X157790000Y-75800000D01*
X147461800Y-97861208D02*
X147459400Y-97863608D01*
X150459400Y-110250000D02*
X150459400Y-115040000D01*
X147461800Y-94328252D02*
X147461800Y-97861208D01*
X161874054Y-81195000D02*
X161048874Y-82020180D01*
X159798695Y-74768753D02*
X159798695Y-74768904D01*
X140520000Y-116930000D02*
X141420000Y-116930000D01*
X149171800Y-98158399D02*
X148464200Y-97450799D01*
X159800000Y-64890000D02*
X159800000Y-63500000D01*
D42*
X145190000Y-110215000D02*
X145190000Y-111190000D01*
D40*
X144700000Y-81225000D02*
X144700000Y-81200000D01*
X160405000Y-57270000D02*
X160405000Y-56195000D01*
X144700000Y-51350000D02*
X145980000Y-52630000D01*
D42*
X143730000Y-111190000D02*
X143740000Y-111200000D01*
D39*
X156185000Y-97545000D02*
X156190000Y-97550000D01*
D42*
X143730000Y-110165000D02*
X143730000Y-111190000D01*
D40*
X151431800Y-102868399D02*
X149171800Y-100608399D01*
X145290000Y-72610000D02*
X148270000Y-72610000D01*
X153550000Y-94190000D02*
X154260000Y-94900000D01*
X160405000Y-56195000D02*
X160410000Y-56190000D01*
X162243332Y-83310000D02*
X162243332Y-83214638D01*
X144700000Y-71300000D02*
X144700000Y-72020000D01*
X159100000Y-90700000D02*
X160150000Y-89650000D01*
D39*
X146000000Y-136250000D02*
X146000000Y-132250000D01*
D40*
X149171800Y-100608399D02*
X149171800Y-98158399D01*
X157791666Y-77175000D02*
X157791666Y-75801666D01*
X144700000Y-72020000D02*
X145290000Y-72610000D01*
D39*
X161405500Y-125026250D02*
X161405500Y-127169500D01*
D42*
X145190000Y-111190000D02*
X145200000Y-111200000D01*
D40*
X139060000Y-105090000D02*
X139060000Y-103730000D01*
D42*
X143580000Y-115060000D02*
X142672610Y-115060000D01*
D40*
X159798695Y-74768904D02*
X159800000Y-74770209D01*
X151461800Y-121020292D02*
X151233200Y-121248892D01*
D42*
X140660000Y-102170000D02*
X140680000Y-102190000D01*
D39*
X150000000Y-130250000D02*
X149000000Y-131250000D01*
D40*
X160455000Y-60140000D02*
X160405000Y-60190000D01*
D39*
X155130000Y-97545000D02*
X156185000Y-97545000D01*
D40*
X151461800Y-116620000D02*
X151461800Y-120697004D01*
X155099860Y-50100000D02*
X157430000Y-50100000D01*
D39*
X159000000Y-120925000D02*
X162594500Y-124519500D01*
X143860200Y-123244500D02*
X142680500Y-123244500D01*
D40*
X145980000Y-52630000D02*
X148270000Y-52630000D01*
X159061666Y-84611734D02*
X159060000Y-84613400D01*
X150459400Y-103563132D02*
X150459400Y-110250000D01*
D39*
X155714626Y-117839626D02*
X157175000Y-119300000D01*
D40*
X152900000Y-59600000D02*
X153570000Y-58930000D01*
X150459400Y-115040000D02*
X150459400Y-115729679D01*
D42*
X146500000Y-106545000D02*
X146500000Y-107575000D01*
D39*
X150405500Y-130095948D02*
X150251448Y-130250000D01*
D40*
X153550000Y-93880000D02*
X153550000Y-94190000D01*
D39*
X159000000Y-120115470D02*
X159000000Y-120925000D01*
X157175000Y-119300000D02*
X158184530Y-119300000D01*
D40*
X159800000Y-74780000D02*
X159800000Y-73390000D01*
X165550000Y-89495000D02*
X165550000Y-88450000D01*
X150459400Y-103313608D02*
X150459400Y-103563132D01*
D39*
X162594500Y-124519500D02*
X162594500Y-129744500D01*
D42*
X139760000Y-108900000D02*
X139060000Y-109600000D01*
D40*
X151461800Y-104610000D02*
X151461800Y-105650000D01*
D39*
X156523000Y-128587530D02*
X157212470Y-129277000D01*
D40*
X159170000Y-98125000D02*
X160265000Y-98125000D01*
X159061666Y-82575000D02*
X159061666Y-84611734D01*
X151461800Y-106630000D02*
X151461800Y-108960000D01*
D42*
X148110000Y-108485000D02*
X148110000Y-109530000D01*
D40*
X152900000Y-58260000D02*
X153570000Y-58930000D01*
X159920000Y-52730000D02*
X158000000Y-52730000D01*
D39*
X155714626Y-117745374D02*
X155714626Y-117839626D01*
D40*
X153624860Y-51575000D02*
X155099860Y-50100000D01*
D39*
X161400000Y-127175000D02*
X161400000Y-129809250D01*
X151594500Y-125794500D02*
X151594500Y-129844500D01*
X156523000Y-127612470D02*
X156523000Y-128587530D01*
D40*
X163310000Y-95760000D02*
X163310000Y-95500000D01*
D39*
X157100000Y-121750000D02*
X158129250Y-121750000D01*
D40*
X144700000Y-73200000D02*
X145290000Y-72610000D01*
D42*
X140120000Y-107580000D02*
X140520000Y-107980000D01*
X140680000Y-102190000D02*
X141640000Y-102190000D01*
X139175000Y-115465000D02*
X141285000Y-115465000D01*
X138360000Y-114880000D02*
X139060000Y-115580000D01*
X143100000Y-115750000D02*
X143100000Y-116200000D01*
X141285000Y-115465000D02*
X141305000Y-115445000D01*
X142795000Y-115445000D02*
X143100000Y-115750000D01*
X139060000Y-112565000D02*
X138360000Y-113265000D01*
X139060000Y-115580000D02*
X139175000Y-115465000D01*
X138360000Y-113265000D02*
X138360000Y-114880000D01*
X141305000Y-115445000D02*
X142795000Y-115445000D01*
D40*
X157710000Y-98035000D02*
X157710000Y-98175000D01*
X159170000Y-96575000D02*
X157710000Y-98035000D01*
X160335000Y-96575000D02*
X161410000Y-95500000D01*
X159170000Y-96575000D02*
X160335000Y-96575000D01*
X152090000Y-88795000D02*
X153550000Y-90255000D01*
X156128800Y-89628800D02*
X157200000Y-90700000D01*
X154176200Y-89628800D02*
X156128800Y-89628800D01*
X153550000Y-90255000D02*
X154176200Y-89628800D01*
X152090000Y-88655000D02*
X152090000Y-88795000D01*
X145408052Y-96366000D02*
X145408052Y-96805896D01*
X150103600Y-68625716D02*
X150695200Y-69217316D01*
X146650000Y-62250000D02*
X140950000Y-62250000D01*
X150757200Y-85118568D02*
X149040600Y-86835168D01*
D42*
X142500000Y-114100000D02*
X143050000Y-113550000D01*
X146500000Y-104995000D02*
X147222813Y-104272187D01*
D40*
X149040600Y-86835168D02*
X149040600Y-87323774D01*
X148117200Y-90096224D02*
X148117200Y-91767200D01*
X150757200Y-75421858D02*
X150757200Y-80410000D01*
X150103600Y-67223535D02*
X150103600Y-68625716D01*
X145509652Y-96907496D02*
X145509652Y-96970348D01*
X151059600Y-81630000D02*
X151059600Y-83093258D01*
D42*
X143570000Y-111840000D02*
X142860000Y-111130000D01*
D40*
X150695200Y-69217316D02*
X150695200Y-72141142D01*
X145873006Y-95829222D02*
X145575000Y-96127228D01*
X152831000Y-66021397D02*
X152300000Y-65490397D01*
X150757418Y-80410000D02*
X151214400Y-80866982D01*
X150082200Y-64930000D02*
X150082200Y-65255065D01*
X152831000Y-67857548D02*
X153713452Y-68740000D01*
X150483400Y-65656265D02*
X150483400Y-66843735D01*
D42*
X145040000Y-104945000D02*
X146450000Y-104945000D01*
X143570000Y-113550000D02*
X143570000Y-111840000D01*
X145510852Y-98360129D02*
X145510852Y-96969148D01*
D40*
X151214400Y-81475200D02*
X151059600Y-81630000D01*
X150757200Y-83395658D02*
X150757200Y-85118568D01*
D42*
X147222813Y-104272187D02*
X147639855Y-104272187D01*
D40*
X153713452Y-68740000D02*
X155150000Y-68740000D01*
X149040600Y-87323774D02*
X148426252Y-87938122D01*
D42*
X146450000Y-104945000D02*
X146500000Y-104995000D01*
X146049723Y-98899000D02*
X145510852Y-98360129D01*
D40*
X152831000Y-66920052D02*
X152831000Y-66021397D01*
D42*
X147639855Y-104272187D02*
X147958904Y-103953138D01*
X143050000Y-113550000D02*
X143570000Y-113550000D01*
X144045000Y-104945000D02*
X145040000Y-104945000D01*
D40*
X145408052Y-96805896D02*
X145509652Y-96907496D01*
X150082200Y-65255065D02*
X150483400Y-65656265D01*
X149853600Y-62696400D02*
X149900000Y-62650000D01*
X151214400Y-80866982D02*
X151214400Y-81475200D01*
X145575000Y-96199052D02*
X145408052Y-96366000D01*
X150483400Y-66843735D02*
X150103600Y-67223535D01*
X149528568Y-95657514D02*
X149755533Y-95884479D01*
X149853600Y-64701400D02*
X149853600Y-62696400D01*
D42*
X142875000Y-107835000D02*
X142875000Y-107600000D01*
D40*
X148426252Y-89787172D02*
X148117200Y-90096224D01*
X150757200Y-80410000D02*
X150757418Y-80410000D01*
X145575000Y-96127228D02*
X145575000Y-96199052D01*
X151085800Y-75093258D02*
X150757200Y-75421858D01*
X149900000Y-62650000D02*
X150082200Y-62650000D01*
X150695200Y-72141142D02*
X151085800Y-72531742D01*
X149528568Y-93178568D02*
X149528568Y-95657514D01*
X148117200Y-91767200D02*
X149528568Y-93178568D01*
X151085800Y-72531742D02*
X151085800Y-75093258D01*
D42*
X143975000Y-104875000D02*
X144045000Y-104945000D01*
X142860000Y-111130000D02*
X142860000Y-107850000D01*
D40*
X152831000Y-66920052D02*
X152831000Y-67857548D01*
D42*
X143570000Y-113550000D02*
X144620000Y-113550000D01*
X144620000Y-113550000D02*
X145970000Y-112200000D01*
D40*
X151059600Y-83093258D02*
X150757200Y-83395658D01*
D42*
X147958904Y-103953138D02*
X147958904Y-103206651D01*
D40*
X148426252Y-87938122D02*
X148426252Y-89787172D01*
D42*
X142860000Y-107850000D02*
X142875000Y-107835000D01*
D40*
X150082200Y-64930000D02*
X149853600Y-64701400D01*
D42*
X147066582Y-116220000D02*
X147046582Y-116200000D01*
X148810000Y-113145000D02*
X148110000Y-112445000D01*
X147066582Y-116220000D02*
X148810000Y-114476582D01*
X148110000Y-112445000D02*
X148110000Y-111080000D01*
X148810000Y-114476582D02*
X148810000Y-113145000D01*
X147046582Y-116200000D02*
X144050000Y-116200000D01*
D40*
X159717500Y-59467500D02*
X160455000Y-58730000D01*
X163509297Y-63178600D02*
X163509297Y-63039297D01*
X163420000Y-62950000D02*
X160948052Y-62950000D01*
X163612000Y-59590474D02*
X163880000Y-59858474D01*
X163880000Y-59858474D02*
X163880000Y-60641343D01*
X160600000Y-63298052D02*
X160600000Y-64890000D01*
X160948052Y-62950000D02*
X160600000Y-63298052D01*
X158855000Y-60190000D02*
X158995000Y-60190000D01*
X158995000Y-60190000D02*
X159717500Y-59467500D01*
X159720000Y-59470000D02*
X159717500Y-59467500D01*
X163509297Y-63039297D02*
X163420000Y-62950000D01*
X161440000Y-59470000D02*
X159720000Y-59470000D01*
X154309005Y-84520995D02*
X152750000Y-84520995D01*
X159150000Y-94235001D02*
X158814999Y-93900000D01*
X150790000Y-94890000D02*
X150750000Y-94850000D01*
X153720000Y-95995000D02*
X153670000Y-95945000D01*
X153670000Y-95945000D02*
X152615000Y-94890000D01*
X155130000Y-95995000D02*
X153720000Y-95995000D01*
X142825474Y-95681000D02*
X142825474Y-95153535D01*
X154870000Y-83960000D02*
X154309005Y-84520995D01*
X143283874Y-94695135D02*
X143283874Y-93940584D01*
X152615000Y-94890000D02*
X150790000Y-94890000D01*
X142825474Y-95153535D02*
X143283874Y-94695135D01*
X145141725Y-92930617D02*
X145141725Y-92607326D01*
X144974742Y-93097600D02*
X145141725Y-92930617D01*
X143283874Y-93940584D02*
X144126858Y-93097600D01*
X159150000Y-94560000D02*
X159150000Y-94235001D01*
X157225000Y-93900000D02*
X155130000Y-95995000D01*
X160200000Y-78631000D02*
X160262974Y-78693974D01*
X144126858Y-93097600D02*
X144974742Y-93097600D01*
X160262974Y-78693974D02*
X160262974Y-80662026D01*
X153710000Y-95995000D02*
X153660000Y-95945000D01*
X158814999Y-93900000D02*
X157225000Y-93900000D01*
X162200000Y-64135800D02*
X162825800Y-63510000D01*
X162200000Y-64890000D02*
X162200000Y-64135800D01*
X144925000Y-65425000D02*
X144700000Y-65200000D01*
X146280000Y-65425000D02*
X144925000Y-65425000D01*
X146280000Y-83100000D02*
X144900000Y-83100000D01*
X144900000Y-83100000D02*
X144700000Y-83300000D01*
D41*
X160918000Y-103000000D02*
X160918000Y-101202000D01*
D42*
X162380000Y-99920000D02*
X162380000Y-99712000D01*
D41*
X160918000Y-101202000D02*
X161418000Y-100702000D01*
X161418000Y-100702000D02*
X162410000Y-99710000D01*
X160918000Y-107102000D02*
X157700000Y-110320000D01*
X160918000Y-103000000D02*
X160918000Y-107102000D01*
D40*
X146280000Y-69425000D02*
X144925000Y-69425000D01*
X144925000Y-69425000D02*
X144700000Y-69200000D01*
X159044830Y-74861939D02*
X159493891Y-75311000D01*
X153357600Y-74493454D02*
X153357600Y-74495258D01*
X163650000Y-68740000D02*
X165050000Y-68740000D01*
X152521600Y-73657454D02*
X153357600Y-74493454D01*
X153357600Y-74495258D02*
X154662701Y-75800359D01*
X159493891Y-75311000D02*
X161073400Y-75311000D01*
X154662701Y-75800359D02*
X155400359Y-75800359D01*
X148934603Y-73375000D02*
X149050000Y-73490397D01*
X146280000Y-73375000D02*
X148934603Y-73375000D01*
X161073400Y-75311000D02*
X161164400Y-75220000D01*
X154480000Y-57425000D02*
X154480000Y-57130000D01*
X154480000Y-57130000D02*
X152900000Y-55550000D01*
X144975000Y-75025000D02*
X144700000Y-75300000D01*
X146280000Y-75025000D02*
X144975000Y-75025000D01*
X166038200Y-71281800D02*
X166038200Y-63258143D01*
X163650000Y-71940000D02*
X165370000Y-71940000D01*
D42*
X146300000Y-59250000D02*
X146758426Y-58791574D01*
X159318653Y-61738773D02*
X159836273Y-61738773D01*
X159090053Y-61510173D02*
X159318653Y-61738773D01*
X158651151Y-61510173D02*
X159090053Y-61510173D01*
D40*
X165893400Y-71426600D02*
X166038200Y-71281800D01*
D42*
X161069589Y-62648800D02*
X164770200Y-62648800D01*
X160628772Y-62207983D02*
X161069589Y-62648800D01*
D40*
X165370000Y-71940000D02*
X165883400Y-71426600D01*
D42*
X158145523Y-62266371D02*
X158145523Y-62015801D01*
X146758426Y-58791574D02*
X150441574Y-58791574D01*
X150441574Y-58791574D02*
X150694000Y-59044000D01*
D40*
X165883400Y-71426600D02*
X165893400Y-71426600D01*
D42*
X150694000Y-60788080D02*
X150456503Y-61025577D01*
D40*
X166038200Y-63258143D02*
X165809029Y-63028972D01*
D42*
X150694000Y-59044000D02*
X150694000Y-60788080D01*
X160305483Y-62207983D02*
X160628772Y-62207983D01*
X164770200Y-62648800D02*
X164771400Y-62650000D01*
X158145523Y-62015801D02*
X158651151Y-61510173D01*
X159836273Y-61738773D02*
X160305483Y-62207983D01*
D40*
X146280000Y-49400000D02*
X144850000Y-49400000D01*
X144850000Y-49400000D02*
X144700000Y-49250000D01*
X155990000Y-74790000D02*
X156600000Y-74180000D01*
X163923800Y-49113800D02*
X165000000Y-50190000D01*
X156305860Y-53673192D02*
X156305860Y-54984140D01*
X156305860Y-54984140D02*
X155515000Y-55775000D01*
X154480000Y-55775000D02*
X155515000Y-55775000D01*
X162273400Y-62001469D02*
X162273400Y-59124794D01*
X159474223Y-49113800D02*
X163923800Y-49113800D01*
X161992400Y-55172003D02*
X161690634Y-54870237D01*
X156600000Y-74180000D02*
X156600000Y-73390000D01*
X162224869Y-62050000D02*
X162273400Y-62001469D01*
X157730000Y-52249052D02*
X156305860Y-53673192D01*
X161992400Y-58843794D02*
X161992400Y-55172003D01*
X157730000Y-52011000D02*
X157730000Y-52249052D01*
X157730000Y-50858023D02*
X159474223Y-49113800D01*
X162273400Y-59124794D02*
X161992400Y-58843794D01*
X154480000Y-53500000D02*
X155490052Y-53500000D01*
X157400000Y-74139603D02*
X157400000Y-73390000D01*
X162575800Y-61641328D02*
X162984472Y-62050000D01*
X162575800Y-58999536D02*
X162575800Y-61641328D01*
X162825000Y-55575000D02*
X162294800Y-56105200D01*
X162294800Y-56105200D02*
X162294800Y-58718536D01*
X162460000Y-52730000D02*
X161210000Y-51480000D01*
X161210000Y-51480000D02*
X157510052Y-51480000D01*
X156749603Y-74790000D02*
X157400000Y-74139603D01*
X162294800Y-58718536D02*
X162575800Y-58999536D01*
X157510052Y-51480000D02*
X155490052Y-53500000D01*
D43*
X144342000Y-129592000D02*
X143727447Y-129592000D01*
X143489447Y-129830000D02*
X140025000Y-129830000D01*
X147000000Y-132250000D02*
X144342000Y-129592000D01*
X147000000Y-136250000D02*
X147000000Y-132250000D01*
X143727447Y-129592000D02*
X143489447Y-129830000D01*
D44*
X151000000Y-130342198D02*
X151000000Y-126040750D01*
D42*
X148437000Y-86585148D02*
X148437000Y-87073754D01*
X147822652Y-89537152D02*
X147513600Y-89846204D01*
X148437000Y-87073754D02*
X147822652Y-87688102D01*
X150158200Y-115281630D02*
X148477744Y-116962086D01*
X150153600Y-83145638D02*
X150153600Y-84868548D01*
D44*
X151000000Y-126040750D02*
X147609250Y-122650000D01*
D42*
X149587556Y-61886482D02*
X149250000Y-62224038D01*
X147868200Y-101148370D02*
X150158200Y-103438370D01*
X147158200Y-97988370D02*
X147868200Y-98698370D01*
X148200000Y-54250000D02*
X149050000Y-54250000D01*
X146700453Y-94320453D02*
X147160600Y-94780600D01*
X148200000Y-54250000D02*
X140950000Y-54250000D01*
X149587556Y-59321374D02*
X149587556Y-61886482D01*
X150153600Y-81354363D02*
X150456000Y-81656763D01*
D44*
X150000000Y-136250000D02*
X150000000Y-131342198D01*
D42*
X150091600Y-72391162D02*
X150482200Y-72781762D01*
D44*
X150000000Y-131342198D02*
X151000000Y-130342198D01*
D42*
X146700453Y-93501695D02*
X146700453Y-94320453D01*
X149879800Y-66593715D02*
X149500000Y-66973515D01*
X147158200Y-97441200D02*
X147158200Y-97988370D01*
X141750000Y-122234697D02*
X141750000Y-122650000D01*
X149879800Y-65906285D02*
X149879800Y-66593715D01*
X150482200Y-72781762D02*
X150482200Y-74843238D01*
X150456000Y-81656763D02*
X150456000Y-82843238D01*
X150153600Y-75171838D02*
X150153600Y-81354363D01*
X148477744Y-116962086D02*
X148477744Y-119763893D01*
X142334697Y-121650000D02*
X141750000Y-122234697D01*
X149500000Y-68875736D02*
X150091600Y-69467336D01*
X150091600Y-69467336D02*
X150091600Y-72391162D01*
X147160600Y-97438800D02*
X147158200Y-97441200D01*
X149250000Y-62224038D02*
X149250000Y-65276485D01*
X150158200Y-103438370D02*
X150158200Y-115281630D01*
X149250000Y-65276485D02*
X149879800Y-65906285D01*
X147160600Y-94780600D02*
X147160600Y-97438800D01*
X149500000Y-66973515D02*
X149500000Y-68875736D01*
X149529800Y-57100000D02*
X149529800Y-55300000D01*
X150153600Y-84868548D02*
X148437000Y-86585148D01*
X148477744Y-119763893D02*
X146670818Y-121570818D01*
X147513600Y-92688548D02*
X146700453Y-93501695D01*
X150482200Y-74843238D02*
X150153600Y-75171838D01*
X147868200Y-98698370D02*
X147868200Y-101148370D01*
X147822652Y-87688102D02*
X147822652Y-89537152D01*
X146670818Y-121570818D02*
X146591636Y-121650000D01*
X146670818Y-121570818D02*
X146591637Y-121650000D01*
X146591636Y-121650000D02*
X142334697Y-121650000D01*
X150456000Y-82843238D02*
X150153600Y-83145638D01*
X147513600Y-89846204D02*
X147513600Y-92688548D01*
D44*
X147609250Y-122650000D02*
X141750000Y-122650000D01*
D40*
X145850855Y-92649145D02*
X145850855Y-92325855D01*
D42*
X148000000Y-136250000D02*
X148000000Y-128250000D01*
X151992800Y-106657200D02*
X151992800Y-106240798D01*
D40*
X153664400Y-67940000D02*
X155150000Y-67940000D01*
D42*
X151763000Y-106887000D02*
X151992800Y-106657200D01*
D40*
X143586274Y-94065842D02*
X144252116Y-93400000D01*
X153520000Y-80640000D02*
X153320000Y-80840000D01*
X144245200Y-96912587D02*
X144212587Y-96912587D01*
D42*
X144260749Y-103840000D02*
X143000000Y-105100749D01*
D40*
X148772000Y-104525000D02*
X148380000Y-104525000D01*
X152740000Y-78930000D02*
X153520000Y-79710000D01*
X143356474Y-96056474D02*
X143356474Y-95050193D01*
X152740000Y-78510000D02*
X152740000Y-78930000D01*
X143356474Y-95050193D02*
X143586274Y-94820393D01*
D42*
X150711395Y-124088605D02*
X151763000Y-123037000D01*
D40*
X148380000Y-104525000D02*
X147960000Y-104945000D01*
D42*
X145395200Y-103840000D02*
X144260749Y-103840000D01*
X151992800Y-105862800D02*
X151992800Y-106240798D01*
X151993483Y-103526517D02*
X151763000Y-103757000D01*
D40*
X153520000Y-79710000D02*
X153520000Y-80640000D01*
D42*
X143000000Y-105100749D02*
X143000000Y-105200000D01*
X148000000Y-128168757D02*
X148000000Y-126800000D01*
D40*
X153320000Y-83661074D02*
X153219610Y-83761464D01*
D42*
X148000000Y-126800000D02*
X149047855Y-125752145D01*
D40*
X145100000Y-93400000D02*
X145850855Y-92649145D01*
D42*
X151763000Y-123037000D02*
X151763000Y-106887000D01*
D40*
X144212587Y-96912587D02*
X143356474Y-96056474D01*
X152740000Y-78510000D02*
X152670000Y-78580000D01*
D42*
X151763000Y-103757000D02*
X151763000Y-105633000D01*
D40*
X144252116Y-93400000D02*
X145100000Y-93400000D01*
X153320000Y-80840000D02*
X153320000Y-83661074D01*
D42*
X145625000Y-104069800D02*
X145395200Y-103840000D01*
X151763000Y-105633000D02*
X151992800Y-105862800D01*
X148000000Y-128250000D02*
X148000000Y-128168757D01*
D40*
X143586274Y-94820393D02*
X143586274Y-94065842D01*
D44*
X158850000Y-128100000D02*
X157700000Y-128100000D01*
X161000000Y-130250000D02*
X158850000Y-128100000D01*
D40*
X151662000Y-85493349D02*
X149945400Y-87209949D01*
X152521459Y-104072627D02*
X153294086Y-103300000D01*
D42*
X152290000Y-105788747D02*
X152522600Y-106021347D01*
D40*
X152124800Y-81844381D02*
X151964400Y-82004781D01*
X142589788Y-94414789D02*
X142250000Y-94754577D01*
X149945400Y-87209949D02*
X149945400Y-87698555D01*
X143290000Y-86230000D02*
X146400000Y-86230000D01*
X151964400Y-83482858D02*
X151662000Y-83785258D01*
X149945400Y-87698555D02*
X149434000Y-88209955D01*
D42*
X152522600Y-106551664D02*
X152063000Y-107011264D01*
D40*
X154045000Y-103300000D02*
X153752500Y-103007500D01*
X153294086Y-103300000D02*
X154045000Y-103300000D01*
X151964400Y-82004781D02*
X151964400Y-83482858D01*
X157062400Y-103300000D02*
X154045000Y-103300000D01*
X153362000Y-67140000D02*
X155150000Y-67140000D01*
D42*
X152521459Y-104072627D02*
X152290000Y-104304086D01*
X152063000Y-123811240D02*
X151248515Y-124625725D01*
D40*
X149434000Y-88209955D02*
X149434000Y-90379702D01*
X149050000Y-74250000D02*
X140950000Y-74250000D01*
D42*
X152290000Y-104304086D02*
X152290000Y-105788747D01*
D40*
X153752500Y-103007500D02*
X152540000Y-101795000D01*
D42*
X152063000Y-107011264D02*
X152063000Y-123811240D01*
X152522600Y-106021347D02*
X152522600Y-106551664D01*
D40*
X151662000Y-83785258D02*
X151662000Y-85493349D01*
X151662000Y-76119931D02*
X151893433Y-75888498D01*
D42*
X149000000Y-130250000D02*
X149000000Y-126874240D01*
D40*
X151662000Y-79591946D02*
X151662000Y-76119931D01*
X151896200Y-79826146D02*
X151662000Y-79591946D01*
X152124800Y-80054746D02*
X152124800Y-81844381D01*
X157190000Y-102490000D02*
X157190000Y-103172400D01*
X157190000Y-103172400D02*
X157062400Y-103300000D01*
X151896200Y-79826146D02*
X152124800Y-80054746D01*
X142250000Y-95991271D02*
X143604577Y-97345848D01*
X142250000Y-94754577D02*
X142250000Y-95991271D01*
D42*
X149000000Y-126874240D02*
X149584975Y-126289265D01*
X148400000Y-93400000D02*
X148162980Y-93637020D01*
X155139799Y-86975000D02*
X155340000Y-86774799D01*
X146700000Y-124044163D02*
X146917863Y-123826300D01*
X148163000Y-97575560D02*
X148870600Y-98283160D01*
X148163000Y-93637040D02*
X148163000Y-97575560D01*
X156331666Y-85000000D02*
X156055199Y-85000000D01*
X146700000Y-129525000D02*
X146700000Y-124044163D01*
X148870600Y-98283160D02*
X148870600Y-100733160D01*
X151626420Y-86851220D02*
X151750200Y-86975000D01*
X156521666Y-84810000D02*
X156331666Y-85000000D01*
X151160600Y-120572243D02*
X149353915Y-122378928D01*
X148162980Y-93637020D02*
X148163000Y-93637040D01*
X147200000Y-130025000D02*
X146700000Y-129525000D01*
X151160600Y-103023160D02*
X151160600Y-120572243D01*
X151750200Y-86975000D02*
X155139799Y-86975000D01*
X156521666Y-82575000D02*
X156521666Y-84810000D01*
X156055199Y-85000000D02*
X155340000Y-85715199D01*
X148870600Y-100733160D02*
X151160600Y-103023160D01*
X149353915Y-122378928D02*
X149353915Y-122703915D01*
X148000000Y-51050000D02*
X146280000Y-51050000D01*
X139715000Y-100290000D02*
X139590000Y-100415000D01*
X148137000Y-86460884D02*
X149853600Y-84744284D01*
X143729577Y-98721740D02*
X142777441Y-98721740D01*
X144719674Y-95614851D02*
X144719674Y-95058210D01*
X144046050Y-97653627D02*
X144421373Y-97653627D01*
X149200000Y-69000000D02*
X149200000Y-66849251D01*
D44*
X162000000Y-134700000D02*
X161000000Y-135700000D01*
D42*
X150182200Y-72906026D02*
X149791600Y-72515426D01*
X149853600Y-83021374D02*
X150156000Y-82718974D01*
X149000000Y-55050000D02*
X149579800Y-54470200D01*
X150156000Y-81781027D02*
X149853600Y-81478627D01*
X150156000Y-82718974D02*
X150156000Y-81781027D01*
X143735701Y-98721740D02*
X143735701Y-97963976D01*
X149853600Y-75047574D02*
X150182200Y-74718974D01*
D44*
X162000000Y-134100000D02*
X162000000Y-134700000D01*
X162000000Y-136250000D02*
X162000000Y-134100000D01*
D42*
X152822600Y-106675928D02*
X152822600Y-104845592D01*
X149000000Y-57669000D02*
X149000000Y-55050000D01*
X149050000Y-57719000D02*
X149000000Y-57669000D01*
X148950000Y-59949933D02*
X149045956Y-59853977D01*
X157700000Y-120480000D02*
X157205598Y-119985598D01*
X148950000Y-65400749D02*
X148950000Y-59949933D01*
X150182200Y-74718974D02*
X150182200Y-72906026D01*
D44*
X162000000Y-124780000D02*
X157700000Y-120480000D01*
D42*
X142777441Y-98721740D02*
X141590000Y-99909181D01*
X149791600Y-69591600D02*
X149200000Y-69000000D01*
X149791600Y-72515426D02*
X149791600Y-69591600D01*
X152822600Y-104845592D02*
X153067009Y-104601183D01*
X141640000Y-100290000D02*
X141640000Y-99909181D01*
X147213600Y-89721941D02*
X147522652Y-89412889D01*
X149200000Y-66849251D02*
X149579800Y-66469451D01*
X149579800Y-54470200D02*
X149579800Y-52629800D01*
D44*
X162000000Y-134100000D02*
X162000000Y-124780000D01*
D42*
X149579800Y-52629800D02*
X148000000Y-51050000D01*
X143729577Y-98721740D02*
X143735701Y-98721740D01*
X157310000Y-120090000D02*
X152363000Y-115143000D01*
X149853600Y-84744284D02*
X149853600Y-83021374D01*
X149579800Y-66469451D02*
X149579800Y-66030549D01*
X147522652Y-89412889D02*
X147522652Y-87563838D01*
X144421373Y-97653627D02*
X144775000Y-97300000D01*
X149579800Y-66030549D02*
X148950000Y-65400749D01*
X147522652Y-87563838D02*
X148137000Y-86949490D01*
X144775000Y-95670177D02*
X144719674Y-95614851D01*
X143735701Y-97963976D02*
X144046050Y-97653627D01*
X144775000Y-97300000D02*
X144775000Y-95670177D01*
X144719674Y-95058210D02*
X147213600Y-92564284D01*
X149853600Y-81478627D02*
X149853600Y-75047574D01*
X148137000Y-86949490D02*
X148137000Y-86460884D01*
X147213600Y-92564284D02*
X147213600Y-89721941D01*
X152363000Y-107135528D02*
X152822600Y-106675928D01*
X141640000Y-100290000D02*
X139715000Y-100290000D01*
X152363000Y-115143000D02*
X152363000Y-107135528D01*
X147763000Y-97741248D02*
X148470600Y-98448848D01*
X157791666Y-82575000D02*
X157791666Y-84810000D01*
X157290000Y-86244999D02*
X157981666Y-85553333D01*
X146300000Y-124056100D02*
X146070200Y-123826300D01*
X152163540Y-86314099D02*
X152232640Y-86244999D01*
X146300000Y-129350000D02*
X146300000Y-124056100D01*
X157791666Y-84810000D02*
X157981666Y-85000000D01*
X152232640Y-86244999D02*
X157290000Y-86244999D01*
X149071072Y-122096085D02*
X148746085Y-122096085D01*
X150760600Y-103188848D02*
X150760600Y-120406557D01*
X148470600Y-100898848D02*
X150760600Y-103188848D01*
X148470600Y-98448848D02*
X148470600Y-100898848D01*
X147763000Y-93623000D02*
X147763000Y-97741248D01*
X157981666Y-85553333D02*
X157981666Y-85000000D01*
X147545700Y-93405700D02*
X147763000Y-93623000D01*
X145950000Y-129700000D02*
X146300000Y-129350000D01*
X150760600Y-120406557D02*
X149071072Y-122096085D01*
D40*
X166640000Y-55672452D02*
X166640000Y-52650000D01*
X165050000Y-69540000D02*
X165735800Y-68854200D01*
X165735800Y-63706691D02*
X165278029Y-63248920D01*
X165278029Y-62894319D02*
X165302400Y-62869948D01*
X165278029Y-63248920D02*
X165278029Y-62894319D01*
X165735800Y-68854200D02*
X165735800Y-63706691D01*
X165450000Y-51460000D02*
X163730000Y-51460000D01*
X165302400Y-57010052D02*
X166640000Y-55672452D01*
X165302400Y-62869948D02*
X165302400Y-57010052D01*
X163730000Y-51460000D02*
X162460000Y-50190000D01*
X166640000Y-52650000D02*
X165450000Y-51460000D01*
X163650000Y-69540000D02*
X165050000Y-69540000D01*
X161690000Y-55620551D02*
X161159634Y-55090185D01*
X165833400Y-57230000D02*
X165833400Y-57344348D01*
X162751977Y-51500000D02*
X162248023Y-51500000D01*
X165833400Y-57344348D02*
X166643000Y-58153948D01*
X163536200Y-52284223D02*
X162751977Y-51500000D01*
X162248023Y-51500000D02*
X160938023Y-50190000D01*
X161690000Y-58969052D02*
X161690000Y-55620551D01*
X161465266Y-62050000D02*
X161971000Y-61544266D01*
X161159634Y-55090185D02*
X161159634Y-54600366D01*
X163536200Y-56296726D02*
X164469000Y-57229526D01*
X163536200Y-53175777D02*
X163536200Y-52284223D01*
X163536200Y-53175777D02*
X163536200Y-56296726D01*
X161971000Y-59250052D02*
X161690000Y-58969052D01*
X153761656Y-71140000D02*
X155150000Y-71140000D01*
X161953800Y-53806200D02*
X162905777Y-53806200D01*
X161159634Y-54600366D02*
X161953800Y-53806200D01*
X161971000Y-61544266D02*
X161971000Y-59250052D01*
X165652400Y-84822600D02*
X164245000Y-86230000D01*
X165652400Y-78335258D02*
X165652400Y-84822600D01*
X166643000Y-58153948D02*
X166643000Y-77344658D01*
X162905777Y-53806200D02*
X163536200Y-53175777D01*
X160938023Y-50190000D02*
X159920000Y-50190000D01*
X166643000Y-77344658D02*
X165652400Y-78335258D01*
X164245000Y-86230000D02*
X163845000Y-86230000D01*
X149434000Y-91139305D02*
X149309305Y-91139305D01*
X151297600Y-52307600D02*
X151297600Y-63650000D01*
X154251398Y-70340000D02*
X155150000Y-70340000D01*
X151359600Y-85368092D02*
X151359600Y-83660000D01*
D42*
X144265501Y-99184499D02*
X143690000Y-99760000D01*
X145780000Y-100400000D02*
X145780000Y-100415000D01*
D40*
X149309305Y-91139305D02*
X148719600Y-90549600D01*
D42*
X144660000Y-101240000D02*
X144760000Y-101240000D01*
D40*
X148719600Y-90549600D02*
X148719600Y-90345747D01*
X149028652Y-90036695D02*
X149028652Y-88187646D01*
X152886398Y-68975000D02*
X154251398Y-70340000D01*
X151297600Y-67971400D02*
X151069000Y-68200000D01*
X151359600Y-80160258D02*
X151359600Y-75671382D01*
D42*
X144955000Y-101240000D02*
X145780000Y-100415000D01*
D40*
X151297600Y-63650000D02*
X151297600Y-67971400D01*
X152131000Y-68975000D02*
X152886398Y-68975000D01*
X151359600Y-83660000D02*
X151662000Y-83357600D01*
X151662000Y-83357600D02*
X151662000Y-81879523D01*
X149643000Y-87573297D02*
X149643000Y-87084692D01*
X149643000Y-87084692D02*
X150057691Y-86670000D01*
X151688200Y-72282218D02*
X151297600Y-71891618D01*
D42*
X144760000Y-101240000D02*
X144955000Y-101240000D01*
D40*
X148719600Y-90345747D02*
X149028652Y-90036695D01*
X149193149Y-88023148D02*
X149643000Y-87573297D01*
X150057691Y-86670000D02*
X151183161Y-85544530D01*
D42*
X143690000Y-99760000D02*
X143690000Y-101240000D01*
D40*
X149028652Y-88187646D02*
X149193149Y-88023148D01*
X140950000Y-50250000D02*
X149240000Y-50250000D01*
X149240000Y-50250000D02*
X151297600Y-52307600D01*
X151662000Y-81879523D02*
X151816800Y-81724723D01*
X151183161Y-85544530D02*
X151359600Y-85368092D01*
X151688200Y-75342782D02*
X151688200Y-72282218D01*
D42*
X143740000Y-101240000D02*
X144660000Y-101240000D01*
D40*
X151816800Y-80617458D02*
X151359600Y-80160258D01*
D42*
X144265501Y-98183427D02*
X144265501Y-99184499D01*
D40*
X151816800Y-81724723D02*
X151816800Y-80617458D01*
X151297600Y-71891618D02*
X151297600Y-68428600D01*
X151297600Y-68428600D02*
X151069000Y-68200000D01*
X151359600Y-75671382D02*
X151688200Y-75342782D01*
D42*
X150996400Y-69092554D02*
X150404800Y-68500954D01*
X149341800Y-86959930D02*
X151058400Y-85243330D01*
D40*
X153059581Y-64700419D02*
X153059581Y-64612619D01*
D42*
X151360800Y-83218020D02*
X151360800Y-81754762D01*
X151058400Y-85243330D02*
X151058400Y-83520420D01*
D40*
X163861200Y-97108800D02*
X163360000Y-97610000D01*
X160010000Y-91680000D02*
X156280000Y-91680000D01*
D42*
X150404800Y-67673281D02*
X150766600Y-67311481D01*
D40*
X155717600Y-91117600D02*
X151257600Y-91117600D01*
D42*
X151058400Y-83520420D02*
X151360800Y-83218020D01*
X151515600Y-81599962D02*
X151515600Y-80742220D01*
X151387000Y-72406980D02*
X150996400Y-72016380D01*
X140950000Y-66250000D02*
X148150000Y-66250000D01*
X151058400Y-75546620D02*
X151387000Y-75218020D01*
X148418400Y-90220985D02*
X148727452Y-89911933D01*
D40*
X161020842Y-92110842D02*
X160440842Y-92110842D01*
X153059581Y-64612619D02*
X153760000Y-63912200D01*
X164160000Y-93300000D02*
X164491105Y-92968895D01*
D42*
X151360800Y-81754762D02*
X151515600Y-81599962D01*
D40*
X164490000Y-90463200D02*
X164490000Y-89930000D01*
X156280000Y-91680000D02*
X155717600Y-91117600D01*
D42*
X148150000Y-66250000D02*
X149050000Y-66250000D01*
X148727452Y-88062884D02*
X149341800Y-87448536D01*
D40*
X153059581Y-64700419D02*
X153059581Y-65496158D01*
D42*
X150996400Y-72016380D02*
X150996400Y-69092554D01*
X151387000Y-75218020D02*
X151387000Y-72406980D01*
D40*
X160440842Y-92110842D02*
X160010000Y-91680000D01*
X151257600Y-91117600D02*
X150988600Y-91117600D01*
X163310000Y-93300000D02*
X163861200Y-93851200D01*
D42*
X151058400Y-80285020D02*
X151058400Y-75546620D01*
D40*
X163861200Y-93851200D02*
X163861200Y-97108800D01*
X157400000Y-64190000D02*
X157400000Y-64890000D01*
D42*
X150404800Y-68500954D02*
X150404800Y-67673281D01*
X149341800Y-87448536D02*
X149341800Y-86959930D01*
D40*
X163310000Y-93300000D02*
X164160000Y-93300000D01*
X158090000Y-63500000D02*
X157400000Y-64190000D01*
D42*
X149434000Y-91898908D02*
X148418400Y-90883308D01*
D40*
X150988600Y-91117600D02*
X150760000Y-90889000D01*
D42*
X148727452Y-89911933D02*
X148727452Y-88062884D01*
X148418400Y-90883308D02*
X148418400Y-90220985D01*
D40*
X164490000Y-89930000D02*
X163310000Y-88750000D01*
D42*
X151515600Y-80742220D02*
X151058400Y-80285020D01*
D40*
X156575655Y-88600000D02*
X158150000Y-88600000D01*
X156004052Y-90255000D02*
X156069526Y-90320474D01*
X156077855Y-89097800D02*
X156575655Y-88600000D01*
X158145000Y-88605000D02*
X158150000Y-88600000D01*
X162360000Y-88067600D02*
X162286200Y-87993800D01*
X162360000Y-88750000D02*
X162360000Y-88067600D01*
X158120000Y-88630000D02*
X158150000Y-88600000D01*
X155010000Y-90255000D02*
X156004052Y-90255000D01*
X162286200Y-87993800D02*
X158756200Y-87993800D01*
X158756200Y-87993800D02*
X158150000Y-88600000D01*
D42*
X147568200Y-98822634D02*
X147568200Y-101272634D01*
D40*
X150995200Y-61490400D02*
X150995200Y-58647600D01*
D42*
X142150000Y-118935000D02*
X142150000Y-118400000D01*
D40*
X149551200Y-65151723D02*
X149551200Y-62348800D01*
D42*
X140380000Y-118420000D02*
X140200000Y-118600000D01*
D40*
X150757200Y-81160730D02*
X150683400Y-81086930D01*
X150181000Y-66718477D02*
X150181000Y-65781523D01*
X150783400Y-72657000D02*
X150392800Y-72266400D01*
D42*
X145930000Y-119550000D02*
X146120000Y-119550000D01*
D40*
X143290000Y-90150000D02*
X145080000Y-90150000D01*
X149226168Y-95544812D02*
X149226168Y-93316168D01*
X145080000Y-90150000D02*
X146316652Y-88913348D01*
X150454800Y-83270400D02*
X150757200Y-82968000D01*
X149551200Y-62348800D02*
X150181000Y-61719000D01*
X148766600Y-97325541D02*
X148766600Y-96403400D01*
X149226168Y-93316168D02*
X147814800Y-91904800D01*
X150454800Y-84993310D02*
X150454800Y-83270400D01*
X150757200Y-82968000D02*
X150757200Y-81160730D01*
X154556974Y-102490000D02*
X154277974Y-102769000D01*
X148738200Y-86709910D02*
X150454800Y-84993310D01*
X151081533Y-99640474D02*
X148766600Y-97325541D01*
X142700000Y-119650000D02*
X142800000Y-119550000D01*
X148123852Y-89661914D02*
X148123852Y-87812864D01*
D42*
X142800000Y-119550000D02*
X145930000Y-119550000D01*
D40*
X150454800Y-80858330D02*
X150454800Y-75296600D01*
D42*
X149858200Y-103562634D02*
X149858200Y-115157366D01*
X146858200Y-98112634D02*
X147568200Y-98822634D01*
D40*
X146310000Y-87070000D02*
X146390000Y-86990000D01*
X149801200Y-67098277D02*
X150181000Y-66718477D01*
X156600000Y-64890000D02*
X154942400Y-63232400D01*
X146931000Y-85961342D02*
X147934526Y-84957816D01*
X150181000Y-65781523D02*
X149551200Y-65151723D01*
D42*
X142030000Y-118520000D02*
X142150000Y-118400000D01*
D40*
X148995180Y-96174820D02*
X148995180Y-95775800D01*
X150783400Y-74968000D02*
X150783400Y-72657000D01*
X154695000Y-102490000D02*
X154556974Y-102490000D01*
X148995180Y-95775800D02*
X149226168Y-95544812D01*
D42*
X147568200Y-101272634D02*
X149858200Y-103562634D01*
D40*
X151119526Y-99640474D02*
X151081533Y-99640474D01*
D42*
X149858200Y-115157366D02*
X147947944Y-117067622D01*
D40*
X147934526Y-84957816D02*
X147934526Y-84634526D01*
X150766600Y-61719000D02*
X150995200Y-61490400D01*
D42*
X142150000Y-118400000D02*
X140700000Y-118400000D01*
D40*
X149801200Y-68750974D02*
X149801200Y-67098277D01*
X146316652Y-87076652D02*
X146310000Y-87070000D01*
X146390000Y-86990000D02*
X146390948Y-86990000D01*
X147814800Y-91904800D02*
X147814800Y-89970966D01*
X154942400Y-63232400D02*
X152538600Y-63232400D01*
X148766600Y-96403400D02*
X148995180Y-96174820D01*
X152538600Y-63232400D02*
X152310000Y-63461000D01*
X150181000Y-61719000D02*
X150766600Y-61719000D01*
X146316652Y-88913348D02*
X146316652Y-87076652D01*
X146390948Y-86990000D02*
X146931000Y-86449948D01*
X150995200Y-58647600D02*
X150597600Y-58250000D01*
X154695000Y-102490000D02*
X154000000Y-101795000D01*
X147814800Y-89970966D02*
X148123852Y-89661914D01*
D42*
X142745000Y-119530000D02*
X142150000Y-118935000D01*
D40*
X150392800Y-69342574D02*
X149801200Y-68750974D01*
D42*
X147947944Y-117067622D02*
X147947944Y-119544442D01*
D40*
X148123852Y-87812864D02*
X148738200Y-87198516D01*
X156240000Y-102490000D02*
X154695000Y-102490000D01*
D42*
X146630800Y-97098149D02*
X146858200Y-97325549D01*
X146858200Y-97325549D02*
X146858200Y-98112634D01*
D40*
X146931000Y-86449948D02*
X146931000Y-85961342D01*
D42*
X146630800Y-95775800D02*
X146630800Y-97098149D01*
D40*
X150597600Y-58250000D02*
X140950000Y-58250000D01*
X150392800Y-72266400D02*
X150392800Y-69342574D01*
X150454800Y-75296600D02*
X150783400Y-74968000D01*
X148738200Y-87198516D02*
X148738200Y-86709910D01*
X142700000Y-120550000D02*
X142700000Y-119650000D01*
X150683400Y-81086930D02*
X150454800Y-80858330D01*
D42*
X140520000Y-110215000D02*
X141250000Y-110215000D01*
X141250000Y-110215000D02*
X141980000Y-110215000D01*
X142500000Y-111810000D02*
X142500000Y-112200000D01*
X141250000Y-110560000D02*
X142500000Y-111810000D01*
X141250000Y-110215000D02*
X141250000Y-110560000D01*
D40*
X145100052Y-115621000D02*
X146584000Y-115621000D01*
X144670000Y-115190948D02*
X145100052Y-115621000D01*
X144670000Y-114100000D02*
X144670000Y-115190948D01*
X146584000Y-115621000D02*
X148110000Y-114095000D01*
D42*
X141200000Y-114100000D02*
X139230000Y-114100000D01*
X139230000Y-114100000D02*
X139060000Y-113930000D01*
D40*
X153550000Y-92230000D02*
X154473800Y-93153800D01*
X158570000Y-93240000D02*
X159150000Y-92660000D01*
X154473800Y-93153800D02*
X157343800Y-93153800D01*
X152090000Y-93880000D02*
X153550000Y-92420000D01*
X153550000Y-92420000D02*
X153550000Y-92230000D01*
X157430000Y-93240000D02*
X158570000Y-93240000D01*
X157343800Y-93153800D02*
X157430000Y-93240000D01*
D42*
X149882200Y-74594710D02*
X149763455Y-74713455D01*
X146913600Y-89597677D02*
X147222652Y-89288625D01*
X144189874Y-94315862D02*
X144502136Y-94003600D01*
X149491600Y-72639690D02*
X149882200Y-73030290D01*
X149856000Y-81905291D02*
X149553600Y-81602891D01*
X145106852Y-95538022D02*
X145106852Y-98705381D01*
X148900000Y-68200000D02*
X148900000Y-69124264D01*
D40*
X159350000Y-103290000D02*
X159350000Y-101340000D01*
X153600354Y-105142052D02*
X154432406Y-104310000D01*
D42*
X147837000Y-86336620D02*
X149553600Y-84620020D01*
X149882200Y-73030290D02*
X149882200Y-73840000D01*
D40*
X154432406Y-104310000D02*
X158330000Y-104310000D01*
D42*
X148900000Y-69124264D02*
X149491600Y-69715864D01*
X149856000Y-82594710D02*
X149856000Y-81905291D01*
X147222652Y-87439574D02*
X147837000Y-86825226D01*
D40*
X146280000Y-67075000D02*
X147775000Y-67075000D01*
D42*
X149553600Y-84620020D02*
X149553600Y-82897110D01*
X145106852Y-98705381D02*
X145174423Y-98772952D01*
D40*
X158330000Y-104310000D02*
X159350000Y-103290000D01*
D42*
X147837000Y-86825226D02*
X147837000Y-86336620D01*
D40*
X159395000Y-101295000D02*
X162568800Y-98121200D01*
D42*
X149553600Y-74923310D02*
X149763455Y-74713455D01*
X149553600Y-82897110D02*
X149856000Y-82594710D01*
D40*
X162360000Y-95500000D02*
X162360000Y-97912400D01*
D42*
X146913600Y-92440020D02*
X146913600Y-89597677D01*
X149705761Y-74771148D02*
X149553600Y-74923309D01*
X147775000Y-67075000D02*
X148900000Y-68200000D01*
X149763455Y-74713455D02*
X149705761Y-74771148D01*
D40*
X159350000Y-101340000D02*
X159395000Y-101295000D01*
X162360000Y-91900000D02*
X162360000Y-95500000D01*
X162877600Y-98430000D02*
X165550000Y-98430000D01*
D42*
X149491600Y-69715864D02*
X149491600Y-72639690D01*
X149882200Y-73840000D02*
X149882200Y-74594710D01*
D40*
X162360000Y-97912400D02*
X162568800Y-98121200D01*
D42*
X144502136Y-94003600D02*
X145350020Y-94003600D01*
X145249474Y-95395400D02*
X145106852Y-95538022D01*
D40*
X162568800Y-98121200D02*
X162877600Y-98430000D01*
D42*
X144189874Y-95395399D02*
X144189874Y-94315862D01*
D40*
X161410000Y-90950000D02*
X162360000Y-91900000D01*
D42*
X145350020Y-94003600D02*
X146913600Y-92440020D01*
X149553600Y-81602891D02*
X149553600Y-74923310D01*
X147222652Y-89288625D02*
X147222652Y-87439574D01*
X143000000Y-106500000D02*
X144945000Y-106500000D01*
X141100000Y-105200000D02*
X142400000Y-106500000D01*
X144945000Y-106500000D02*
X145040000Y-106595000D01*
X142400000Y-106500000D02*
X143000000Y-106500000D01*
X145930000Y-110460000D02*
X146395000Y-110925000D01*
X146395000Y-110925000D02*
X146395000Y-113675000D01*
X145955000Y-109520000D02*
X146650000Y-110215000D01*
X146395000Y-113675000D02*
X145970000Y-114100000D01*
X145930000Y-110460000D02*
X145930000Y-109545000D01*
X145190000Y-108755000D02*
X145955000Y-109520000D01*
X145190000Y-108565000D02*
X145190000Y-108755000D01*
X145930000Y-109545000D02*
X145955000Y-109520000D01*
D40*
X157850000Y-94560000D02*
X157850000Y-96385000D01*
X157850000Y-96385000D02*
X157710000Y-96525000D01*
X161695400Y-75421036D02*
X161692692Y-75423744D01*
X160000200Y-76599800D02*
X160000200Y-76800200D01*
X161075000Y-76500000D02*
X160100000Y-76500000D01*
X160999800Y-78800000D02*
X160899800Y-78700000D01*
X160000000Y-77400000D02*
X160000000Y-77600400D01*
X159061666Y-77261666D02*
X159061666Y-77175000D01*
X160899800Y-78700000D02*
X160899800Y-78199800D01*
X161300000Y-78700200D02*
X161300000Y-77799800D01*
X161200200Y-77700000D02*
X161300000Y-77799800D01*
X161300000Y-76999800D02*
X161300000Y-77200200D01*
X161692692Y-75423744D02*
X161692692Y-75657308D01*
X160899800Y-78199800D02*
X160800000Y-78100000D01*
X159900000Y-78100000D02*
X159061666Y-77261666D01*
X161390000Y-75960000D02*
X161390000Y-76185000D01*
X160099800Y-77700200D02*
X161200000Y-77700200D01*
X161695400Y-75000052D02*
X161695400Y-75421036D01*
X160000200Y-76800200D02*
X160100000Y-76900000D01*
X161200000Y-77700200D02*
X161200200Y-77700000D01*
X160100000Y-77300000D02*
X160000000Y-77400000D01*
X161200200Y-76900000D02*
X161300000Y-76999800D01*
X161384348Y-74689000D02*
X161695400Y-75000052D01*
X160100000Y-76900000D02*
X161200200Y-76900000D01*
X160633400Y-74373400D02*
X160949000Y-74689000D01*
X161200200Y-78800000D02*
X160999800Y-78800000D01*
X160633400Y-73423400D02*
X160633400Y-74373400D01*
X160800000Y-78100000D02*
X159900000Y-78100000D01*
X161692692Y-75657308D02*
X161390000Y-75960000D01*
X161300000Y-77200200D02*
X161200200Y-77300000D01*
X160100000Y-76500000D02*
X160000200Y-76599800D01*
X160600000Y-73390000D02*
X160633400Y-73423400D01*
X161390000Y-76185000D02*
X161075000Y-76500000D01*
X160000000Y-77600400D02*
X160099800Y-77700200D01*
X161300000Y-78700200D02*
X161200200Y-78800000D01*
X160949000Y-74689000D02*
X161384348Y-74689000D01*
X161200200Y-77300000D02*
X160100000Y-77300000D01*
X157094809Y-75623400D02*
X156328266Y-75623400D01*
X160859000Y-75964447D02*
X160507953Y-75613400D01*
X161997800Y-75125310D02*
X161997800Y-74874794D01*
X161997800Y-74874794D02*
X161400000Y-74276994D01*
X157893348Y-75152400D02*
X157565809Y-75152400D01*
X157565809Y-75152400D02*
X157094809Y-75623400D01*
X161400000Y-74276994D02*
X161400000Y-73390000D01*
X158320474Y-75579526D02*
X157893348Y-75152400D01*
X158354348Y-75613400D02*
X158320474Y-75579526D01*
X156328266Y-75623400D02*
X155251666Y-76700000D01*
X162223692Y-75643692D02*
X162223692Y-75351202D01*
X160507953Y-75613400D02*
X158354348Y-75613400D01*
X162223692Y-75351202D02*
X161997800Y-75125310D01*
X155251666Y-76700000D02*
X155251666Y-77175000D01*
X140650000Y-92850000D02*
X141025000Y-92475000D01*
X163650000Y-66340000D02*
X162610000Y-66340000D01*
X141025000Y-92475000D02*
X144375000Y-92475000D01*
X152596023Y-85673376D02*
X153966689Y-85673376D01*
X160930474Y-81068760D02*
X160798288Y-81200946D01*
X162610000Y-66340000D02*
X162175000Y-66775000D01*
X160798288Y-79293801D02*
X160798288Y-81200946D01*
X160793973Y-79289486D02*
X160798288Y-79293801D01*
X153966689Y-85673376D02*
X154922262Y-84717803D01*
X143658874Y-95175451D02*
X143888674Y-94945651D01*
X149554800Y-82469948D02*
X149554800Y-82030052D01*
X149554800Y-82030052D02*
X149252400Y-81727652D01*
X144245200Y-96152984D02*
X144245200Y-95926399D01*
X145225258Y-93702400D02*
X146612400Y-92315258D01*
X148950000Y-72200000D02*
X147825000Y-71075000D01*
X143888674Y-94191100D02*
X144377374Y-93702400D01*
X146612400Y-89472916D02*
X146921452Y-89163864D01*
X140950000Y-70250000D02*
X145455000Y-70250000D01*
X149252400Y-81727652D02*
X149252400Y-74798548D01*
X144245200Y-96152984D02*
X144092416Y-96000200D01*
X156651200Y-98801200D02*
X158140000Y-100290000D01*
X146921452Y-87314812D02*
X147535800Y-86700464D01*
X149581000Y-74469948D02*
X149581000Y-73155052D01*
X143658874Y-95615347D02*
X143658874Y-95175451D01*
X144377374Y-93702400D02*
X145225258Y-93702400D01*
X147535800Y-86700464D02*
X147535800Y-86211858D01*
X145455000Y-70250000D02*
X146280000Y-71075000D01*
X149252400Y-74798548D02*
X149581000Y-74469948D01*
X143888674Y-94945651D02*
X143888674Y-94191100D01*
X155750000Y-98801200D02*
X156651200Y-98801200D01*
X149581000Y-73155052D02*
X148950000Y-72524052D01*
X149252400Y-82772348D02*
X149554800Y-82469948D01*
X143969926Y-95926399D02*
X143658874Y-95615347D01*
X148950000Y-72524052D02*
X148950000Y-72200000D01*
X146612400Y-92315258D02*
X146612400Y-89472916D01*
X147535800Y-86211858D02*
X149252400Y-84495258D01*
X146921452Y-89163864D02*
X146921452Y-87314812D01*
X147825000Y-71075000D02*
X146280000Y-71075000D01*
X153670000Y-97595000D02*
X154876200Y-98801200D01*
X144245200Y-95926399D02*
X143969926Y-95926399D01*
X149252400Y-84495258D02*
X149252400Y-82772348D01*
X154876200Y-98801200D02*
X155750000Y-98801200D01*
X163943332Y-81195000D02*
X163943332Y-83160000D01*
X165775332Y-72285616D02*
X165775332Y-77357010D01*
X163943332Y-83160000D02*
X163793332Y-83310000D01*
X165047600Y-78084742D02*
X165047600Y-79590732D01*
X165047600Y-79590732D02*
X163943332Y-80695000D01*
X163650000Y-70340000D02*
X165030000Y-70340000D01*
X165775332Y-77357010D02*
X165047600Y-78084742D01*
X165240634Y-76399366D02*
X165240634Y-75299800D01*
X164839800Y-75739800D02*
X164839800Y-76400200D01*
X162740834Y-75200000D02*
X162641034Y-75100200D01*
X165240634Y-75299800D02*
X165140834Y-75200000D01*
X162243332Y-76875000D02*
X163518332Y-75600000D01*
X164700000Y-75600000D02*
X164839800Y-75739800D01*
X165140000Y-76500000D02*
X165240634Y-76399366D01*
X162243332Y-78995000D02*
X162243332Y-76875000D01*
X162641034Y-75100200D02*
X162641034Y-74899800D01*
X162641034Y-74899800D02*
X162740834Y-74800000D01*
X165030000Y-74570000D02*
X165030000Y-72471000D01*
X164939600Y-76500000D02*
X165140000Y-76500000D01*
X163518332Y-75600000D02*
X164700000Y-75600000D01*
X165140834Y-75200000D02*
X162740834Y-75200000D01*
X164800000Y-74800000D02*
X165030000Y-74570000D01*
X162740834Y-74800000D02*
X164800000Y-74800000D01*
X164839800Y-76400200D02*
X164939600Y-76500000D01*
X163650000Y-71140000D02*
X165030000Y-71140000D01*
X140650000Y-96055000D02*
X140650000Y-94500000D01*
X152900000Y-61405000D02*
X154480000Y-59825000D01*
X152900000Y-61700000D02*
X152900000Y-61405000D01*
X144720000Y-57210000D02*
X145910000Y-57210000D01*
X145910000Y-57210000D02*
X146300000Y-57600000D01*
X152900000Y-53430000D02*
X154480000Y-51850000D01*
X152900000Y-53675000D02*
X152900000Y-53430000D01*
X159610000Y-62040000D02*
X159609973Y-62039973D01*
X161400000Y-64890000D02*
X161400000Y-63731000D01*
X161400000Y-63731000D02*
X161159000Y-63490000D01*
X159610000Y-62040000D02*
X159711538Y-62040000D01*
X157430000Y-61480000D02*
X157425000Y-61475000D01*
X157425000Y-61475000D02*
X154480000Y-61475000D01*
X159609973Y-62039973D02*
X158870602Y-62039973D01*
X159711538Y-62040000D02*
X160409321Y-62737783D01*
M02*
