%TF.GenerationSoftware,KiCad,Pcbnew,8.0.6*%
%TF.CreationDate,2024-11-19T22:42:01-05:00*%
%TF.ProjectId,brakes,6272616b-6573-42e6-9b69-6361645f7063,2*%
%TF.SameCoordinates,Original*%
%TF.FileFunction,Drillmap*%
%TF.FilePolarity,Positive*%
%FSLAX45Y45*%
G04 Gerber Fmt 4.5, Leading zero omitted, Abs format (unit mm)*
G04 Created by KiCad (PCBNEW 8.0.6) date 2024-11-19 22:42:01*
%MOMM*%
%LPD*%
G01*
G04 APERTURE LIST*
%ADD10C,0.200000*%
%ADD11C,0.100000*%
%ADD12C,0.130000*%
%ADD13C,0.350000*%
G04 APERTURE END LIST*
D10*
X13750000Y-4780000D02*
X16750000Y-4780000D01*
X14235000Y-13130000D02*
X13750000Y-13130000D01*
X16265000Y-13130000D02*
X16750000Y-13130000D01*
X13750000Y-13130000D02*
X13750000Y-4780000D01*
X16750000Y-4780000D02*
X16750000Y-13130000D01*
D11*
X14235000Y-13130000D02*
X14235000Y-13920000D01*
X14235000Y-13920000D02*
X14285000Y-13970000D01*
X14285000Y-13970000D02*
X15305000Y-13970000D01*
X15355000Y-13225000D02*
X15355000Y-13920000D01*
X15355000Y-13920000D02*
X15305000Y-13970000D01*
X15545000Y-13225000D02*
X15545000Y-13920000D01*
X15545000Y-13920000D02*
X15595000Y-13970000D01*
X15595000Y-13970000D02*
X16215000Y-13970000D01*
X16265000Y-13130000D02*
X16265000Y-13920000D01*
X16265000Y-13920000D02*
X16215000Y-13970000D01*
X15355000Y-13225000D02*
G75*
G02*
X15545000Y-13225000I95000J0D01*
G01*
D10*
D11*
X13890760Y-10357760D02*
X13921240Y-10388240D01*
X13921240Y-10357760D02*
X13890760Y-10388240D01*
X13939297Y-10580474D02*
X13969777Y-10610954D01*
X13969777Y-10580474D02*
X13939297Y-10610954D01*
X13973760Y-8471760D02*
X14004240Y-8502240D01*
X14004240Y-8471760D02*
X13973760Y-8502240D01*
X13996760Y-10742760D02*
X14027240Y-10773240D01*
X14027240Y-10742760D02*
X13996760Y-10773240D01*
X13997297Y-11155223D02*
X14027777Y-11185703D01*
X14027777Y-11155223D02*
X13997297Y-11185703D01*
X14015260Y-12541738D02*
X14045740Y-12572218D01*
X14045740Y-12541738D02*
X14015260Y-12572218D01*
X14047260Y-10579760D02*
X14077740Y-10610240D01*
X14077740Y-10579760D02*
X14047260Y-10610240D01*
X14049760Y-9800260D02*
X14080240Y-9830740D01*
X14080240Y-9800260D02*
X14049760Y-9830740D01*
X14050760Y-10201760D02*
X14081240Y-10232240D01*
X14081240Y-10201760D02*
X14050760Y-10232240D01*
X14064760Y-12039760D02*
X14095240Y-12070240D01*
X14095240Y-12039760D02*
X14064760Y-12070240D01*
X14199760Y-11604760D02*
X14230240Y-11635240D01*
X14230240Y-11604760D02*
X14199760Y-11635240D01*
X14243739Y-9426239D02*
X14274219Y-9456719D01*
X14274219Y-9426239D02*
X14243739Y-9456719D01*
X14267307Y-9552860D02*
X14297787Y-9583340D01*
X14297787Y-9552860D02*
X14267307Y-9583340D01*
X14272260Y-10744760D02*
X14302740Y-10775240D01*
X14302740Y-10744760D02*
X14272260Y-10775240D01*
X14283760Y-12367390D02*
X14314240Y-12397870D01*
X14314240Y-12367390D02*
X14283760Y-12397870D01*
X14342760Y-11490760D02*
X14373240Y-11521240D01*
X14373240Y-11490760D02*
X14342760Y-11521240D01*
X14345218Y-9719345D02*
X14375698Y-9749825D01*
X14375698Y-9719345D02*
X14345218Y-9749825D01*
X14357718Y-9856934D02*
X14388198Y-9887414D01*
X14388198Y-9856934D02*
X14357718Y-9887414D01*
X14358760Y-11104760D02*
X14389240Y-11135240D01*
X14389240Y-11104760D02*
X14358760Y-11135240D01*
X14382260Y-10472260D02*
X14412740Y-10502740D01*
X14412740Y-10472260D02*
X14382260Y-10502740D01*
X14382260Y-10569760D02*
X14412740Y-10600240D01*
X14412740Y-10569760D02*
X14382260Y-10600240D01*
X14384760Y-13009760D02*
X14415240Y-13040240D01*
X14415240Y-13009760D02*
X14384760Y-13040240D01*
X14403747Y-9524300D02*
X14434227Y-9554780D01*
X14434227Y-9524300D02*
X14403747Y-9554780D01*
X14409280Y-9600058D02*
X14439760Y-9630538D01*
X14439760Y-9600058D02*
X14409280Y-9630538D01*
X14409280Y-9676019D02*
X14439760Y-9706499D01*
X14439760Y-9676019D02*
X14409280Y-9706499D01*
X14411310Y-9803103D02*
X14441790Y-9833583D01*
X14441790Y-9803103D02*
X14411310Y-9833583D01*
X14414760Y-7809760D02*
X14445240Y-7840240D01*
X14445240Y-7809760D02*
X14414760Y-7840240D01*
X14422260Y-9232260D02*
X14452740Y-9262740D01*
X14452740Y-9232260D02*
X14422260Y-9262740D01*
X14454760Y-8107260D02*
X14485240Y-8137740D01*
X14485240Y-8107260D02*
X14454760Y-8137740D01*
X14475760Y-11681760D02*
X14506240Y-11712240D01*
X14506240Y-11681760D02*
X14475760Y-11712240D01*
X14498932Y-9245493D02*
X14529412Y-9275973D01*
X14529412Y-9245493D02*
X14498932Y-9275973D01*
X14502202Y-9862055D02*
X14532682Y-9892535D01*
X14532682Y-9862055D02*
X14502202Y-9892535D01*
X14504760Y-11104760D02*
X14535240Y-11135240D01*
X14535240Y-11104760D02*
X14504760Y-11135240D01*
X14509707Y-9524300D02*
X14540187Y-9554780D01*
X14540187Y-9524300D02*
X14509707Y-9554780D01*
X14516760Y-11493760D02*
X14547240Y-11524240D01*
X14547240Y-11493760D02*
X14516760Y-11524240D01*
X14547260Y-10391740D02*
X14577740Y-10422220D01*
X14577740Y-10391740D02*
X14547260Y-10422220D01*
X14555319Y-12096780D02*
X14585799Y-12127260D01*
X14585799Y-12096780D02*
X14555319Y-12127260D01*
X14569845Y-9217346D02*
X14600325Y-9247826D01*
X14600325Y-9217346D02*
X14569845Y-9247826D01*
X14572061Y-9567682D02*
X14602541Y-9598162D01*
X14602541Y-9567682D02*
X14572061Y-9598162D01*
X14578665Y-9643355D02*
X14609145Y-9673835D01*
X14609145Y-9643355D02*
X14578665Y-9673835D01*
X14579760Y-12954760D02*
X14610240Y-12985240D01*
X14610240Y-12954760D02*
X14579760Y-12985240D01*
X14589732Y-9874660D02*
X14620212Y-9905140D01*
X14620212Y-9874660D02*
X14589732Y-9905140D01*
X14591780Y-12367390D02*
X14622260Y-12397870D01*
X14622260Y-12367390D02*
X14591780Y-12397870D01*
X14596760Y-11939760D02*
X14627240Y-11970240D01*
X14627240Y-11939760D02*
X14596760Y-11970240D01*
X14624760Y-8607760D02*
X14655240Y-8638240D01*
X14655240Y-8607760D02*
X14624760Y-8638240D01*
X14634760Y-10742260D02*
X14665240Y-10772740D01*
X14665240Y-10742260D02*
X14634760Y-10772740D01*
X14647840Y-9562340D02*
X14678320Y-9592820D01*
X14678320Y-9562340D02*
X14647840Y-9592820D01*
X14649760Y-6209760D02*
X14680240Y-6240240D01*
X14680240Y-6209760D02*
X14649760Y-6240240D01*
X14676546Y-12367390D02*
X14707026Y-12397870D01*
X14707026Y-12367390D02*
X14676546Y-12397870D01*
X14704760Y-12987260D02*
X14735240Y-13017740D01*
X14735240Y-12987260D02*
X14704760Y-13017740D01*
X14707785Y-9394431D02*
X14738265Y-9424911D01*
X14738265Y-9394431D02*
X14707785Y-9424911D01*
X14739330Y-9325330D02*
X14769810Y-9355810D01*
X14769810Y-9325330D02*
X14739330Y-9355810D01*
X14778213Y-8448213D02*
X14808693Y-8478693D01*
X14808693Y-8448213D02*
X14778213Y-8478693D01*
X14779554Y-11939204D02*
X14810034Y-11969684D01*
X14810034Y-11939204D02*
X14779554Y-11969684D01*
X14780650Y-10305425D02*
X14811130Y-10335905D01*
X14811130Y-10305425D02*
X14780650Y-10335905D01*
X14794760Y-10832260D02*
X14825240Y-10862740D01*
X14825240Y-10832260D02*
X14794760Y-10862740D01*
X14811760Y-5247760D02*
X14842240Y-5278240D01*
X14842240Y-5247760D02*
X14811760Y-5278240D01*
X14811760Y-6045760D02*
X14842240Y-6076240D01*
X14842240Y-6045760D02*
X14811760Y-6076240D01*
X14811760Y-6845760D02*
X14842240Y-6876240D01*
X14842240Y-6845760D02*
X14811760Y-6876240D01*
X14811760Y-7245760D02*
X14842240Y-7276240D01*
X14842240Y-7245760D02*
X14811760Y-7276240D01*
X14824760Y-9324760D02*
X14855240Y-9355240D01*
X14855240Y-9324760D02*
X14824760Y-9355240D01*
X14854277Y-9394751D02*
X14884757Y-9425231D01*
X14884757Y-9394751D02*
X14854277Y-9425231D01*
X14859368Y-12194368D02*
X14889848Y-12224848D01*
X14889848Y-12194368D02*
X14859368Y-12224848D01*
X14861960Y-10437260D02*
X14892440Y-10467740D01*
X14892440Y-10437260D02*
X14861960Y-10467740D01*
X14884278Y-9562340D02*
X14914758Y-9592820D01*
X14914758Y-9562340D02*
X14884278Y-9592820D01*
X14884760Y-13009760D02*
X14915240Y-13040240D01*
X14915240Y-13009760D02*
X14884760Y-13040240D01*
X14885644Y-8208264D02*
X14916124Y-8238744D01*
X14916124Y-8208264D02*
X14885644Y-8238744D01*
X14889356Y-5970158D02*
X14919836Y-6000638D01*
X14919836Y-5970158D02*
X14889356Y-6000638D01*
X14889545Y-12559974D02*
X14920025Y-12590454D01*
X14920025Y-12559974D02*
X14889545Y-12590454D01*
X14889760Y-5409760D02*
X14920240Y-5440240D01*
X14920240Y-5409760D02*
X14889760Y-5440240D01*
X14889760Y-5756660D02*
X14920240Y-5787140D01*
X14920240Y-5756660D02*
X14889760Y-5787140D01*
X14889760Y-6609760D02*
X14920240Y-6640240D01*
X14920240Y-6609760D02*
X14889760Y-6640240D01*
X14889760Y-7333800D02*
X14920240Y-7364280D01*
X14920240Y-7333800D02*
X14889760Y-7364280D01*
X14889760Y-7409760D02*
X14920240Y-7440240D01*
X14920240Y-7409760D02*
X14889760Y-7440240D01*
X14920151Y-12255151D02*
X14950631Y-12285631D01*
X14950631Y-12255151D02*
X14920151Y-12285631D01*
X14928160Y-9022730D02*
X14958640Y-9053210D01*
X14958640Y-9022730D02*
X14928160Y-9053210D01*
X14928160Y-9098691D02*
X14958640Y-9129171D01*
X14958640Y-9098691D02*
X14928160Y-9129171D01*
X14928160Y-9174651D02*
X14958640Y-9205131D01*
X14958640Y-9174651D02*
X14928160Y-9205131D01*
X14937740Y-5514760D02*
X14968220Y-5545240D01*
X14968220Y-5514760D02*
X14937740Y-5545240D01*
X14937740Y-5694760D02*
X14968220Y-5725240D01*
X14968220Y-5694760D02*
X14937740Y-5725240D01*
X14943257Y-12613686D02*
X14973737Y-12644166D01*
X14973737Y-12613686D02*
X14943257Y-12644166D01*
X14943516Y-5916897D02*
X14973996Y-5947377D01*
X14973996Y-5916897D02*
X14943516Y-5947377D01*
X14960313Y-9573208D02*
X14990793Y-9603688D01*
X14990793Y-9573208D02*
X14960313Y-9603688D01*
X14984760Y-13009760D02*
X15015240Y-13040240D01*
X15015240Y-13009760D02*
X14984760Y-13040240D01*
X14992980Y-6249760D02*
X15023460Y-6280240D01*
X15023460Y-6249760D02*
X14992980Y-6280240D01*
X14992980Y-6477760D02*
X15023460Y-6508240D01*
X15023460Y-6477760D02*
X14992980Y-6508240D01*
X15007840Y-11580588D02*
X15038320Y-11611068D01*
X15038320Y-11580588D02*
X15007840Y-11611068D01*
X15030410Y-6087318D02*
X15060890Y-6117798D01*
X15060890Y-6087318D02*
X15030410Y-6117798D01*
X15049760Y-9617260D02*
X15080240Y-9647740D01*
X15080240Y-9617260D02*
X15049760Y-9647740D01*
X15053100Y-8093453D02*
X15083580Y-8123933D01*
X15083580Y-8093453D02*
X15053100Y-8123933D01*
X15055899Y-12393620D02*
X15086379Y-12424100D01*
X15086379Y-12393620D02*
X15055899Y-12424100D01*
X15059760Y-9469760D02*
X15090240Y-9500240D01*
X15090240Y-9469760D02*
X15059760Y-9500240D01*
X15060760Y-8997700D02*
X15091240Y-9028180D01*
X15091240Y-8997700D02*
X15060760Y-9028180D01*
X15060760Y-9073660D02*
X15091240Y-9104140D01*
X15091240Y-9073660D02*
X15060760Y-9104140D01*
X15061420Y-6156660D02*
X15091900Y-6187140D01*
X15091900Y-6156660D02*
X15061420Y-6187140D01*
X15061420Y-6715908D02*
X15091900Y-6746388D01*
X15091900Y-6715908D02*
X15061420Y-6746388D01*
X15091660Y-6804760D02*
X15122140Y-6835240D01*
X15122140Y-6804760D02*
X15091660Y-6835240D01*
X15096713Y-9948807D02*
X15127193Y-9979287D01*
X15127193Y-9948807D02*
X15096713Y-9979287D01*
X15108080Y-12109649D02*
X15138560Y-12140129D01*
X15138560Y-12109649D02*
X15108080Y-12140129D01*
X15109611Y-12447332D02*
X15140091Y-12477812D01*
X15140091Y-12447332D02*
X15109611Y-12477812D01*
X15147402Y-8669882D02*
X15177882Y-8700362D01*
X15177882Y-8669882D02*
X15147402Y-8700362D01*
X15174103Y-7573610D02*
X15204583Y-7604090D01*
X15204583Y-7573610D02*
X15174103Y-7604090D01*
X15174380Y-7967375D02*
X15204860Y-7997855D01*
X15204860Y-7967375D02*
X15174380Y-7997855D01*
X15184040Y-10608840D02*
X15214520Y-10639320D01*
X15214520Y-10608840D02*
X15184040Y-10639320D01*
X15184108Y-10337412D02*
X15214588Y-10367892D01*
X15214588Y-10337412D02*
X15184108Y-10367892D01*
X15184760Y-13009760D02*
X15215240Y-13040240D01*
X15215240Y-13009760D02*
X15184760Y-13040240D01*
X15197860Y-6882260D02*
X15228340Y-6912740D01*
X15228340Y-6882260D02*
X15197860Y-6912740D01*
X15201114Y-8616170D02*
X15231594Y-8646650D01*
X15231594Y-8616170D02*
X15201114Y-8646650D01*
X15214760Y-6533800D02*
X15245240Y-6564280D01*
X15245240Y-6533800D02*
X15214760Y-6564280D01*
X15215760Y-6330860D02*
X15246240Y-6361340D01*
X15246240Y-6330860D02*
X15215760Y-6361340D01*
X15236906Y-10392023D02*
X15267386Y-10422503D01*
X15267386Y-10392023D02*
X15236906Y-10422503D01*
X15236920Y-7350505D02*
X15267400Y-7380985D01*
X15267400Y-7350505D02*
X15236920Y-7380985D01*
X15244362Y-8552098D02*
X15274842Y-8582578D01*
X15274842Y-8552098D02*
X15244362Y-8582578D01*
X15244985Y-7021745D02*
X15275465Y-7052225D01*
X15275465Y-7021745D02*
X15244985Y-7052225D01*
X15250340Y-8019760D02*
X15280820Y-8050240D01*
X15280820Y-8019760D02*
X15250340Y-8050240D01*
X15258760Y-7835760D02*
X15289240Y-7866240D01*
X15289240Y-7835760D02*
X15258760Y-7866240D01*
X15259760Y-8436860D02*
X15290240Y-8467340D01*
X15290240Y-8436860D02*
X15259760Y-8467340D01*
X15287760Y-9879760D02*
X15318240Y-9910240D01*
X15318240Y-9879760D02*
X15287760Y-9910240D01*
X15290718Y-6534376D02*
X15321198Y-6564856D01*
X15321198Y-6534376D02*
X15290718Y-6564856D01*
X15291461Y-10444878D02*
X15321941Y-10475358D01*
X15321941Y-10444878D02*
X15291461Y-10475358D01*
X15306721Y-8360906D02*
X15337201Y-8391386D01*
X15337201Y-8360906D02*
X15306721Y-8391386D01*
X15320960Y-6698760D02*
X15351440Y-6729240D01*
X15351440Y-6698760D02*
X15320960Y-6729240D01*
X15344795Y-10498965D02*
X15375275Y-10529445D01*
X15375275Y-10498965D02*
X15344795Y-10529445D01*
X15351200Y-6778760D02*
X15381680Y-6809240D01*
X15381680Y-6778760D02*
X15351200Y-6809240D01*
X15360760Y-6375980D02*
X15391240Y-6406460D01*
X15391240Y-6375980D02*
X15360760Y-6406460D01*
X15360926Y-7098760D02*
X15391406Y-7129240D01*
X15391406Y-7098760D02*
X15360926Y-7129240D01*
X15410760Y-9474760D02*
X15441240Y-9505240D01*
X15441240Y-9474760D02*
X15410760Y-9505240D01*
X15412557Y-10261660D02*
X15443037Y-10292140D01*
X15443037Y-10261660D02*
X15412557Y-10292140D01*
X15471760Y-8380760D02*
X15502240Y-8411240D01*
X15502240Y-8380760D02*
X15471760Y-8411240D01*
X15476986Y-8456540D02*
X15507466Y-8487020D01*
X15507466Y-8456540D02*
X15476986Y-8487020D01*
X15518760Y-8556280D02*
X15549240Y-8586760D01*
X15549240Y-8556280D02*
X15518760Y-8586760D01*
X15518760Y-8662240D02*
X15549240Y-8692720D01*
X15549240Y-8662240D02*
X15518760Y-8692720D01*
X15524796Y-7564796D02*
X15555276Y-7595276D01*
X15555276Y-7564796D02*
X15524796Y-7595276D01*
X15556223Y-11759297D02*
X15586703Y-11789777D01*
X15586703Y-11759297D02*
X15556223Y-11789777D01*
X15556797Y-11909723D02*
X15587277Y-11940203D01*
X15587277Y-11909723D02*
X15556797Y-11940203D01*
X15559760Y-9864880D02*
X15590240Y-9895360D01*
X15590240Y-9864880D02*
X15559760Y-9895360D01*
X15583760Y-7463760D02*
X15614240Y-7494240D01*
X15614240Y-7463760D02*
X15583760Y-7494240D01*
X15591713Y-9016807D02*
X15622193Y-9047287D01*
X15622193Y-9016807D02*
X15591713Y-9047287D01*
X15592545Y-8894540D02*
X15623025Y-8925020D01*
X15623025Y-8894540D02*
X15592545Y-8925020D01*
X15603760Y-9739760D02*
X15634240Y-9770240D01*
X15634240Y-9739760D02*
X15603760Y-9770240D01*
X15659720Y-7463760D02*
X15690200Y-7494240D01*
X15690200Y-7463760D02*
X15659720Y-7494240D01*
X15727760Y-4994760D02*
X15758240Y-5025240D01*
X15758240Y-4994760D02*
X15727760Y-5025240D01*
X15727760Y-5877760D02*
X15758240Y-5908240D01*
X15758240Y-5877760D02*
X15727760Y-5908240D01*
X15727760Y-6132760D02*
X15758240Y-6163240D01*
X15758240Y-6132760D02*
X15727760Y-6163240D01*
X15757760Y-5079660D02*
X15788240Y-5110140D01*
X15788240Y-5079660D02*
X15757760Y-5110140D01*
X15757760Y-5185860D02*
X15788240Y-5216340D01*
X15788240Y-5185860D02*
X15757760Y-5216340D01*
X15760760Y-5281760D02*
X15791240Y-5312240D01*
X15791240Y-5281760D02*
X15760760Y-5312240D01*
X15763760Y-7564760D02*
X15794240Y-7595240D01*
X15794240Y-7564760D02*
X15763760Y-7595240D01*
X15765760Y-5783760D02*
X15796240Y-5814240D01*
X15796240Y-5783760D02*
X15765760Y-5814240D01*
X15793760Y-6334760D02*
X15824240Y-6365240D01*
X15824240Y-6334760D02*
X15793760Y-6365240D01*
X15799312Y-6211397D02*
X15829792Y-6241877D01*
X15829792Y-6211397D02*
X15799312Y-6241877D01*
X15799760Y-10346760D02*
X15830240Y-10377240D01*
X15830240Y-10346760D02*
X15799760Y-10377240D01*
X15834760Y-9538760D02*
X15865240Y-9569240D01*
X15865240Y-9538760D02*
X15834760Y-9569240D01*
X15871820Y-6188757D02*
X15902300Y-6219237D01*
X15902300Y-6188757D02*
X15871820Y-6219237D01*
X15889243Y-7470954D02*
X15919723Y-7501434D01*
X15919723Y-7470954D02*
X15889243Y-7501434D01*
X15890760Y-8446100D02*
X15921240Y-8476580D01*
X15921240Y-8446100D02*
X15890760Y-8476580D01*
X15964629Y-7461635D02*
X15995109Y-7492115D01*
X15995109Y-7461635D02*
X15964629Y-7492115D01*
X15964760Y-6334760D02*
X15995240Y-6365240D01*
X15995240Y-6334760D02*
X15964760Y-6365240D01*
X15975150Y-13009370D02*
X16005630Y-13039850D01*
X16005630Y-13009370D02*
X15975150Y-13039850D01*
X16004760Y-7847860D02*
X16035240Y-7878340D01*
X16035240Y-7847860D02*
X16004760Y-7878340D01*
X16006760Y-8949760D02*
X16037240Y-8980240D01*
X16037240Y-8949760D02*
X16006760Y-8980240D01*
X16011057Y-8050963D02*
X16041537Y-8081443D01*
X16041537Y-8050963D02*
X16011057Y-8081443D01*
X16011760Y-9796760D02*
X16042240Y-9827240D01*
X16042240Y-9796760D02*
X16011760Y-9827240D01*
X16025692Y-6258538D02*
X16056172Y-6289018D01*
X16056172Y-6258538D02*
X16025692Y-6289018D01*
X16025760Y-5603760D02*
X16056240Y-5634240D01*
X16056240Y-5603760D02*
X16025760Y-5634240D01*
X16064157Y-7913709D02*
X16094637Y-7944189D01*
X16094637Y-7913709D02*
X16064157Y-7944189D01*
X16064589Y-8104855D02*
X16095069Y-8135335D01*
X16095069Y-8104855D02*
X16064589Y-8135335D01*
X16070660Y-7581205D02*
X16101140Y-7611685D01*
X16101140Y-7581205D02*
X16070660Y-7611685D01*
X16084760Y-13009760D02*
X16115240Y-13040240D01*
X16115240Y-13009760D02*
X16084760Y-13040240D01*
X16086844Y-9195844D02*
X16117324Y-9226324D01*
X16117324Y-9195844D02*
X16086844Y-9226324D01*
X16089647Y-8186778D02*
X16120127Y-8217258D01*
X16120127Y-8186778D02*
X16089647Y-8217258D01*
X16100660Y-6333760D02*
X16131140Y-6364240D01*
X16131140Y-6333760D02*
X16100660Y-6364240D01*
X16101200Y-7506760D02*
X16131680Y-7537240D01*
X16131680Y-7506760D02*
X16101200Y-7537240D01*
X16101760Y-8428760D02*
X16132240Y-8459240D01*
X16132240Y-8428760D02*
X16101760Y-8459240D01*
X16128760Y-5931760D02*
X16159240Y-5962240D01*
X16159240Y-5931760D02*
X16128760Y-5962240D01*
X16128760Y-6007720D02*
X16159240Y-6038200D01*
X16159240Y-6007720D02*
X16128760Y-6038200D01*
X16128760Y-6101976D02*
X16159240Y-6132456D01*
X16159240Y-6101976D02*
X16128760Y-6132456D01*
X16131287Y-6189760D02*
X16161767Y-6220240D01*
X16161767Y-6189760D02*
X16131287Y-6220240D01*
X16153823Y-5471784D02*
X16184303Y-5502264D01*
X16184303Y-5471784D02*
X16153823Y-5502264D01*
X16167660Y-9197307D02*
X16198140Y-9227787D01*
X16198140Y-9197307D02*
X16167660Y-9227787D01*
X16202260Y-6662260D02*
X16232740Y-6692740D01*
X16232740Y-6662260D02*
X16202260Y-6692740D01*
X16207129Y-7549129D02*
X16237609Y-7579609D01*
X16237609Y-7549129D02*
X16207129Y-7579609D01*
X16207247Y-6189760D02*
X16237727Y-6220240D01*
X16237727Y-6189760D02*
X16207247Y-6220240D01*
X16267260Y-5542260D02*
X16297740Y-5572740D01*
X16297740Y-5542260D02*
X16267260Y-5572740D01*
X16267340Y-6335760D02*
X16297820Y-6366240D01*
X16297820Y-6335760D02*
X16267340Y-6366240D01*
X16273860Y-9197434D02*
X16304340Y-9227914D01*
X16304340Y-9197434D02*
X16273860Y-9227914D01*
X16283207Y-6189760D02*
X16313687Y-6220240D01*
X16313687Y-6189760D02*
X16283207Y-6220240D01*
X16289760Y-13004760D02*
X16320240Y-13035240D01*
X16320240Y-13004760D02*
X16289760Y-13035240D01*
X16295440Y-6101975D02*
X16325920Y-6132455D01*
X16325920Y-6101975D02*
X16295440Y-6132455D01*
X16315760Y-9647760D02*
X16346240Y-9678240D01*
X16346240Y-9647760D02*
X16315760Y-9678240D01*
X16335690Y-6302620D02*
X16366170Y-6333100D01*
X16366170Y-6302620D02*
X16335690Y-6333100D01*
X16345960Y-5943807D02*
X16376440Y-5974287D01*
X16376440Y-5943807D02*
X16345960Y-5974287D01*
X16372760Y-6048894D02*
X16403240Y-6079374D01*
X16403240Y-6048894D02*
X16372760Y-6079374D01*
X16378760Y-7778760D02*
X16409240Y-7809240D01*
X16409240Y-7778760D02*
X16378760Y-7809240D01*
X16431660Y-5707713D02*
X16462140Y-5738193D01*
X16462140Y-5707713D02*
X16431660Y-5738193D01*
X16433760Y-9031080D02*
X16464240Y-9061560D01*
X16464240Y-9031080D02*
X16433760Y-9061560D01*
X16433870Y-9281650D02*
X16464350Y-9312130D01*
X16464350Y-9281650D02*
X16433870Y-9312130D01*
X16460666Y-8214298D02*
X16491146Y-8244778D01*
X16491146Y-8214298D02*
X16460666Y-8244778D01*
X16461900Y-6101760D02*
X16492380Y-6132240D01*
X16492380Y-6101760D02*
X16461900Y-6132240D01*
X16461900Y-6249760D02*
X16492380Y-6280240D01*
X16492380Y-6249760D02*
X16461900Y-6280240D01*
X16468760Y-8461760D02*
X16499240Y-8492240D01*
X16499240Y-8461760D02*
X16468760Y-8492240D01*
X16487760Y-7018760D02*
X16518240Y-7049240D01*
X16518240Y-7018760D02*
X16487760Y-7049240D01*
X16487760Y-7098760D02*
X16518240Y-7129240D01*
X16518240Y-7098760D02*
X16487760Y-7129240D01*
X16487760Y-7231860D02*
X16518240Y-7262340D01*
X16518240Y-7231860D02*
X16487760Y-7262340D01*
X16489760Y-6858760D02*
X16520240Y-6889240D01*
X16520240Y-6858760D02*
X16489760Y-6889240D01*
X16539760Y-8829760D02*
X16570240Y-8860240D01*
X16570240Y-8829760D02*
X16539760Y-8860240D01*
X16539760Y-9563760D02*
X16570240Y-9594240D01*
X16570240Y-9563760D02*
X16539760Y-9594240D01*
X16562293Y-7213322D02*
X16592773Y-7243802D01*
X16592773Y-7213322D02*
X16562293Y-7243802D01*
X16565663Y-6287657D02*
X16596143Y-6318137D01*
X16596143Y-6287657D02*
X16565663Y-6318137D01*
X16568100Y-5707760D02*
X16598580Y-5738240D01*
X16598580Y-5707760D02*
X16568100Y-5738240D01*
X16568100Y-6101760D02*
X16598580Y-6132240D01*
X16598580Y-6101760D02*
X16568100Y-6132240D01*
X16042000Y-5019000D02*
G75*
G02*
X15942000Y-5019000I-50000J0D01*
G01*
X15942000Y-5019000D02*
G75*
G02*
X16042000Y-5019000I50000J0D01*
G01*
X16042000Y-5273000D02*
G75*
G02*
X15942000Y-5273000I-50000J0D01*
G01*
X15942000Y-5273000D02*
G75*
G02*
X16042000Y-5273000I50000J0D01*
G01*
X16296000Y-5019000D02*
G75*
G02*
X16196000Y-5019000I-50000J0D01*
G01*
X16196000Y-5019000D02*
G75*
G02*
X16296000Y-5019000I50000J0D01*
G01*
X16296000Y-5273000D02*
G75*
G02*
X16196000Y-5273000I-50000J0D01*
G01*
X16196000Y-5273000D02*
G75*
G02*
X16296000Y-5273000I50000J0D01*
G01*
X16550000Y-5019000D02*
G75*
G02*
X16450000Y-5019000I-50000J0D01*
G01*
X16450000Y-5019000D02*
G75*
G02*
X16550000Y-5019000I50000J0D01*
G01*
X16550000Y-5273000D02*
G75*
G02*
X16450000Y-5273000I-50000J0D01*
G01*
X16450000Y-5273000D02*
G75*
G02*
X16550000Y-5273000I50000J0D01*
G01*
D12*
X15770000Y-10967000D02*
X15770000Y-11097000D01*
X15705000Y-11032000D02*
X15835000Y-11032000D01*
X15770000Y-11983000D02*
X15770000Y-12113000D01*
X15705000Y-12048000D02*
X15835000Y-12048000D01*
X15770000Y-12745000D02*
X15770000Y-12875000D01*
X15705000Y-12810000D02*
X15835000Y-12810000D01*
X16532000Y-10967000D02*
X16532000Y-11097000D01*
X16467000Y-11032000D02*
X16597000Y-11032000D01*
D13*
X15373745Y-4896245D02*
X15373745Y-4648755D01*
X15126255Y-4648755D01*
X15126255Y-4896245D01*
X15373745Y-4896245D01*
D10*
X14000777Y-14286484D02*
X14000777Y-14086484D01*
X14000777Y-14086484D02*
X14048396Y-14086484D01*
X14048396Y-14086484D02*
X14076967Y-14096008D01*
X14076967Y-14096008D02*
X14096015Y-14115055D01*
X14096015Y-14115055D02*
X14105539Y-14134103D01*
X14105539Y-14134103D02*
X14115062Y-14172198D01*
X14115062Y-14172198D02*
X14115062Y-14200769D01*
X14115062Y-14200769D02*
X14105539Y-14238865D01*
X14105539Y-14238865D02*
X14096015Y-14257912D01*
X14096015Y-14257912D02*
X14076967Y-14276960D01*
X14076967Y-14276960D02*
X14048396Y-14286484D01*
X14048396Y-14286484D02*
X14000777Y-14286484D01*
X14200777Y-14286484D02*
X14200777Y-14153150D01*
X14200777Y-14191246D02*
X14210301Y-14172198D01*
X14210301Y-14172198D02*
X14219824Y-14162674D01*
X14219824Y-14162674D02*
X14238872Y-14153150D01*
X14238872Y-14153150D02*
X14257920Y-14153150D01*
X14324586Y-14286484D02*
X14324586Y-14153150D01*
X14324586Y-14086484D02*
X14315062Y-14096008D01*
X14315062Y-14096008D02*
X14324586Y-14105531D01*
X14324586Y-14105531D02*
X14334110Y-14096008D01*
X14334110Y-14096008D02*
X14324586Y-14086484D01*
X14324586Y-14086484D02*
X14324586Y-14105531D01*
X14448396Y-14286484D02*
X14429348Y-14276960D01*
X14429348Y-14276960D02*
X14419824Y-14257912D01*
X14419824Y-14257912D02*
X14419824Y-14086484D01*
X14553158Y-14286484D02*
X14534110Y-14276960D01*
X14534110Y-14276960D02*
X14524586Y-14257912D01*
X14524586Y-14257912D02*
X14524586Y-14086484D01*
X14781729Y-14286484D02*
X14781729Y-14086484D01*
X14781729Y-14086484D02*
X14848396Y-14229341D01*
X14848396Y-14229341D02*
X14915062Y-14086484D01*
X14915062Y-14086484D02*
X14915062Y-14286484D01*
X15096015Y-14286484D02*
X15096015Y-14181722D01*
X15096015Y-14181722D02*
X15086491Y-14162674D01*
X15086491Y-14162674D02*
X15067443Y-14153150D01*
X15067443Y-14153150D02*
X15029348Y-14153150D01*
X15029348Y-14153150D02*
X15010301Y-14162674D01*
X15096015Y-14276960D02*
X15076967Y-14286484D01*
X15076967Y-14286484D02*
X15029348Y-14286484D01*
X15029348Y-14286484D02*
X15010301Y-14276960D01*
X15010301Y-14276960D02*
X15000777Y-14257912D01*
X15000777Y-14257912D02*
X15000777Y-14238865D01*
X15000777Y-14238865D02*
X15010301Y-14219817D01*
X15010301Y-14219817D02*
X15029348Y-14210293D01*
X15029348Y-14210293D02*
X15076967Y-14210293D01*
X15076967Y-14210293D02*
X15096015Y-14200769D01*
X15191253Y-14153150D02*
X15191253Y-14353150D01*
X15191253Y-14162674D02*
X15210301Y-14153150D01*
X15210301Y-14153150D02*
X15248396Y-14153150D01*
X15248396Y-14153150D02*
X15267443Y-14162674D01*
X15267443Y-14162674D02*
X15276967Y-14172198D01*
X15276967Y-14172198D02*
X15286491Y-14191246D01*
X15286491Y-14191246D02*
X15286491Y-14248388D01*
X15286491Y-14248388D02*
X15276967Y-14267436D01*
X15276967Y-14267436D02*
X15267443Y-14276960D01*
X15267443Y-14276960D02*
X15248396Y-14286484D01*
X15248396Y-14286484D02*
X15210301Y-14286484D01*
X15210301Y-14286484D02*
X15191253Y-14276960D01*
X15372205Y-14267436D02*
X15381729Y-14276960D01*
X15381729Y-14276960D02*
X15372205Y-14286484D01*
X15372205Y-14286484D02*
X15362682Y-14276960D01*
X15362682Y-14276960D02*
X15372205Y-14267436D01*
X15372205Y-14267436D02*
X15372205Y-14286484D01*
X15372205Y-14162674D02*
X15381729Y-14172198D01*
X15381729Y-14172198D02*
X15372205Y-14181722D01*
X15372205Y-14181722D02*
X15362682Y-14172198D01*
X15362682Y-14172198D02*
X15372205Y-14162674D01*
X15372205Y-14162674D02*
X15372205Y-14181722D01*
D11*
X13709520Y-14599760D02*
X13740000Y-14630240D01*
X13740000Y-14599760D02*
X13709520Y-14630240D01*
D10*
X14038872Y-14506484D02*
X14057920Y-14506484D01*
X14057920Y-14506484D02*
X14076967Y-14516008D01*
X14076967Y-14516008D02*
X14086491Y-14525531D01*
X14086491Y-14525531D02*
X14096015Y-14544579D01*
X14096015Y-14544579D02*
X14105539Y-14582674D01*
X14105539Y-14582674D02*
X14105539Y-14630293D01*
X14105539Y-14630293D02*
X14096015Y-14668388D01*
X14096015Y-14668388D02*
X14086491Y-14687436D01*
X14086491Y-14687436D02*
X14076967Y-14696960D01*
X14076967Y-14696960D02*
X14057920Y-14706484D01*
X14057920Y-14706484D02*
X14038872Y-14706484D01*
X14038872Y-14706484D02*
X14019824Y-14696960D01*
X14019824Y-14696960D02*
X14010301Y-14687436D01*
X14010301Y-14687436D02*
X14000777Y-14668388D01*
X14000777Y-14668388D02*
X13991253Y-14630293D01*
X13991253Y-14630293D02*
X13991253Y-14582674D01*
X13991253Y-14582674D02*
X14000777Y-14544579D01*
X14000777Y-14544579D02*
X14010301Y-14525531D01*
X14010301Y-14525531D02*
X14019824Y-14516008D01*
X14019824Y-14516008D02*
X14038872Y-14506484D01*
X14191253Y-14687436D02*
X14200777Y-14696960D01*
X14200777Y-14696960D02*
X14191253Y-14706484D01*
X14191253Y-14706484D02*
X14181729Y-14696960D01*
X14181729Y-14696960D02*
X14191253Y-14687436D01*
X14191253Y-14687436D02*
X14191253Y-14706484D01*
X14267443Y-14506484D02*
X14391253Y-14506484D01*
X14391253Y-14506484D02*
X14324586Y-14582674D01*
X14324586Y-14582674D02*
X14353158Y-14582674D01*
X14353158Y-14582674D02*
X14372205Y-14592198D01*
X14372205Y-14592198D02*
X14381729Y-14601722D01*
X14381729Y-14601722D02*
X14391253Y-14620769D01*
X14391253Y-14620769D02*
X14391253Y-14668388D01*
X14391253Y-14668388D02*
X14381729Y-14687436D01*
X14381729Y-14687436D02*
X14372205Y-14696960D01*
X14372205Y-14696960D02*
X14353158Y-14706484D01*
X14353158Y-14706484D02*
X14296015Y-14706484D01*
X14296015Y-14706484D02*
X14276967Y-14696960D01*
X14276967Y-14696960D02*
X14267443Y-14687436D01*
X14515062Y-14506484D02*
X14534110Y-14506484D01*
X14534110Y-14506484D02*
X14553158Y-14516008D01*
X14553158Y-14516008D02*
X14562682Y-14525531D01*
X14562682Y-14525531D02*
X14572205Y-14544579D01*
X14572205Y-14544579D02*
X14581729Y-14582674D01*
X14581729Y-14582674D02*
X14581729Y-14630293D01*
X14581729Y-14630293D02*
X14572205Y-14668388D01*
X14572205Y-14668388D02*
X14562682Y-14687436D01*
X14562682Y-14687436D02*
X14553158Y-14696960D01*
X14553158Y-14696960D02*
X14534110Y-14706484D01*
X14534110Y-14706484D02*
X14515062Y-14706484D01*
X14515062Y-14706484D02*
X14496015Y-14696960D01*
X14496015Y-14696960D02*
X14486491Y-14687436D01*
X14486491Y-14687436D02*
X14476967Y-14668388D01*
X14476967Y-14668388D02*
X14467443Y-14630293D01*
X14467443Y-14630293D02*
X14467443Y-14582674D01*
X14467443Y-14582674D02*
X14476967Y-14544579D01*
X14476967Y-14544579D02*
X14486491Y-14525531D01*
X14486491Y-14525531D02*
X14496015Y-14516008D01*
X14496015Y-14516008D02*
X14515062Y-14506484D01*
X14762682Y-14506484D02*
X14667443Y-14506484D01*
X14667443Y-14506484D02*
X14657920Y-14601722D01*
X14657920Y-14601722D02*
X14667443Y-14592198D01*
X14667443Y-14592198D02*
X14686491Y-14582674D01*
X14686491Y-14582674D02*
X14734110Y-14582674D01*
X14734110Y-14582674D02*
X14753158Y-14592198D01*
X14753158Y-14592198D02*
X14762682Y-14601722D01*
X14762682Y-14601722D02*
X14772205Y-14620769D01*
X14772205Y-14620769D02*
X14772205Y-14668388D01*
X14772205Y-14668388D02*
X14762682Y-14687436D01*
X14762682Y-14687436D02*
X14753158Y-14696960D01*
X14753158Y-14696960D02*
X14734110Y-14706484D01*
X14734110Y-14706484D02*
X14686491Y-14706484D01*
X14686491Y-14706484D02*
X14667443Y-14696960D01*
X14667443Y-14696960D02*
X14657920Y-14687436D01*
X14857920Y-14706484D02*
X14857920Y-14573150D01*
X14857920Y-14592198D02*
X14867443Y-14582674D01*
X14867443Y-14582674D02*
X14886491Y-14573150D01*
X14886491Y-14573150D02*
X14915063Y-14573150D01*
X14915063Y-14573150D02*
X14934110Y-14582674D01*
X14934110Y-14582674D02*
X14943634Y-14601722D01*
X14943634Y-14601722D02*
X14943634Y-14706484D01*
X14943634Y-14601722D02*
X14953158Y-14582674D01*
X14953158Y-14582674D02*
X14972205Y-14573150D01*
X14972205Y-14573150D02*
X15000777Y-14573150D01*
X15000777Y-14573150D02*
X15019824Y-14582674D01*
X15019824Y-14582674D02*
X15029348Y-14601722D01*
X15029348Y-14601722D02*
X15029348Y-14706484D01*
X15124586Y-14706484D02*
X15124586Y-14573150D01*
X15124586Y-14592198D02*
X15134110Y-14582674D01*
X15134110Y-14582674D02*
X15153158Y-14573150D01*
X15153158Y-14573150D02*
X15181729Y-14573150D01*
X15181729Y-14573150D02*
X15200777Y-14582674D01*
X15200777Y-14582674D02*
X15210301Y-14601722D01*
X15210301Y-14601722D02*
X15210301Y-14706484D01*
X15210301Y-14601722D02*
X15219824Y-14582674D01*
X15219824Y-14582674D02*
X15238872Y-14573150D01*
X15238872Y-14573150D02*
X15267443Y-14573150D01*
X15267443Y-14573150D02*
X15286491Y-14582674D01*
X15286491Y-14582674D02*
X15296015Y-14601722D01*
X15296015Y-14601722D02*
X15296015Y-14706484D01*
X15686491Y-14496960D02*
X15515063Y-14754103D01*
X15943634Y-14506484D02*
X15962682Y-14506484D01*
X15962682Y-14506484D02*
X15981729Y-14516008D01*
X15981729Y-14516008D02*
X15991253Y-14525531D01*
X15991253Y-14525531D02*
X16000777Y-14544579D01*
X16000777Y-14544579D02*
X16010301Y-14582674D01*
X16010301Y-14582674D02*
X16010301Y-14630293D01*
X16010301Y-14630293D02*
X16000777Y-14668388D01*
X16000777Y-14668388D02*
X15991253Y-14687436D01*
X15991253Y-14687436D02*
X15981729Y-14696960D01*
X15981729Y-14696960D02*
X15962682Y-14706484D01*
X15962682Y-14706484D02*
X15943634Y-14706484D01*
X15943634Y-14706484D02*
X15924586Y-14696960D01*
X15924586Y-14696960D02*
X15915063Y-14687436D01*
X15915063Y-14687436D02*
X15905539Y-14668388D01*
X15905539Y-14668388D02*
X15896015Y-14630293D01*
X15896015Y-14630293D02*
X15896015Y-14582674D01*
X15896015Y-14582674D02*
X15905539Y-14544579D01*
X15905539Y-14544579D02*
X15915063Y-14525531D01*
X15915063Y-14525531D02*
X15924586Y-14516008D01*
X15924586Y-14516008D02*
X15943634Y-14506484D01*
X16096015Y-14687436D02*
X16105539Y-14696960D01*
X16105539Y-14696960D02*
X16096015Y-14706484D01*
X16096015Y-14706484D02*
X16086491Y-14696960D01*
X16086491Y-14696960D02*
X16096015Y-14687436D01*
X16096015Y-14687436D02*
X16096015Y-14706484D01*
X16229348Y-14506484D02*
X16248396Y-14506484D01*
X16248396Y-14506484D02*
X16267444Y-14516008D01*
X16267444Y-14516008D02*
X16276967Y-14525531D01*
X16276967Y-14525531D02*
X16286491Y-14544579D01*
X16286491Y-14544579D02*
X16296015Y-14582674D01*
X16296015Y-14582674D02*
X16296015Y-14630293D01*
X16296015Y-14630293D02*
X16286491Y-14668388D01*
X16286491Y-14668388D02*
X16276967Y-14687436D01*
X16276967Y-14687436D02*
X16267444Y-14696960D01*
X16267444Y-14696960D02*
X16248396Y-14706484D01*
X16248396Y-14706484D02*
X16229348Y-14706484D01*
X16229348Y-14706484D02*
X16210301Y-14696960D01*
X16210301Y-14696960D02*
X16200777Y-14687436D01*
X16200777Y-14687436D02*
X16191253Y-14668388D01*
X16191253Y-14668388D02*
X16181729Y-14630293D01*
X16181729Y-14630293D02*
X16181729Y-14582674D01*
X16181729Y-14582674D02*
X16191253Y-14544579D01*
X16191253Y-14544579D02*
X16200777Y-14525531D01*
X16200777Y-14525531D02*
X16210301Y-14516008D01*
X16210301Y-14516008D02*
X16229348Y-14506484D01*
X16486491Y-14706484D02*
X16372206Y-14706484D01*
X16429348Y-14706484D02*
X16429348Y-14506484D01*
X16429348Y-14506484D02*
X16410301Y-14535055D01*
X16410301Y-14535055D02*
X16391253Y-14554103D01*
X16391253Y-14554103D02*
X16372206Y-14563627D01*
X16562682Y-14525531D02*
X16572206Y-14516008D01*
X16572206Y-14516008D02*
X16591253Y-14506484D01*
X16591253Y-14506484D02*
X16638872Y-14506484D01*
X16638872Y-14506484D02*
X16657920Y-14516008D01*
X16657920Y-14516008D02*
X16667444Y-14525531D01*
X16667444Y-14525531D02*
X16676967Y-14544579D01*
X16676967Y-14544579D02*
X16676967Y-14563627D01*
X16676967Y-14563627D02*
X16667444Y-14592198D01*
X16667444Y-14592198D02*
X16553158Y-14706484D01*
X16553158Y-14706484D02*
X16676967Y-14706484D01*
X16800777Y-14506484D02*
X16819825Y-14506484D01*
X16819825Y-14506484D02*
X16838872Y-14516008D01*
X16838872Y-14516008D02*
X16848396Y-14525531D01*
X16848396Y-14525531D02*
X16857920Y-14544579D01*
X16857920Y-14544579D02*
X16867444Y-14582674D01*
X16867444Y-14582674D02*
X16867444Y-14630293D01*
X16867444Y-14630293D02*
X16857920Y-14668388D01*
X16857920Y-14668388D02*
X16848396Y-14687436D01*
X16848396Y-14687436D02*
X16838872Y-14696960D01*
X16838872Y-14696960D02*
X16819825Y-14706484D01*
X16819825Y-14706484D02*
X16800777Y-14706484D01*
X16800777Y-14706484D02*
X16781729Y-14696960D01*
X16781729Y-14696960D02*
X16772206Y-14687436D01*
X16772206Y-14687436D02*
X16762682Y-14668388D01*
X16762682Y-14668388D02*
X16753158Y-14630293D01*
X16753158Y-14630293D02*
X16753158Y-14582674D01*
X16753158Y-14582674D02*
X16762682Y-14544579D01*
X16762682Y-14544579D02*
X16772206Y-14525531D01*
X16772206Y-14525531D02*
X16781729Y-14516008D01*
X16781729Y-14516008D02*
X16800777Y-14506484D01*
X16943634Y-14506484D02*
X16943634Y-14544579D01*
X17019825Y-14506484D02*
X17019825Y-14544579D01*
X17315063Y-14782674D02*
X17305539Y-14773150D01*
X17305539Y-14773150D02*
X17286491Y-14744579D01*
X17286491Y-14744579D02*
X17276968Y-14725531D01*
X17276968Y-14725531D02*
X17267444Y-14696960D01*
X17267444Y-14696960D02*
X17257920Y-14649341D01*
X17257920Y-14649341D02*
X17257920Y-14611246D01*
X17257920Y-14611246D02*
X17267444Y-14563627D01*
X17267444Y-14563627D02*
X17276968Y-14535055D01*
X17276968Y-14535055D02*
X17286491Y-14516008D01*
X17286491Y-14516008D02*
X17305539Y-14487436D01*
X17305539Y-14487436D02*
X17315063Y-14477912D01*
X17381730Y-14525531D02*
X17391253Y-14516008D01*
X17391253Y-14516008D02*
X17410301Y-14506484D01*
X17410301Y-14506484D02*
X17457920Y-14506484D01*
X17457920Y-14506484D02*
X17476968Y-14516008D01*
X17476968Y-14516008D02*
X17486491Y-14525531D01*
X17486491Y-14525531D02*
X17496015Y-14544579D01*
X17496015Y-14544579D02*
X17496015Y-14563627D01*
X17496015Y-14563627D02*
X17486491Y-14592198D01*
X17486491Y-14592198D02*
X17372206Y-14706484D01*
X17372206Y-14706484D02*
X17496015Y-14706484D01*
X17686491Y-14706484D02*
X17572206Y-14706484D01*
X17629349Y-14706484D02*
X17629349Y-14506484D01*
X17629349Y-14506484D02*
X17610301Y-14535055D01*
X17610301Y-14535055D02*
X17591253Y-14554103D01*
X17591253Y-14554103D02*
X17572206Y-14563627D01*
X17876968Y-14706484D02*
X17762682Y-14706484D01*
X17819825Y-14706484D02*
X17819825Y-14506484D01*
X17819825Y-14506484D02*
X17800777Y-14535055D01*
X17800777Y-14535055D02*
X17781730Y-14554103D01*
X17781730Y-14554103D02*
X17762682Y-14563627D01*
X18115063Y-14706484D02*
X18115063Y-14506484D01*
X18200777Y-14706484D02*
X18200777Y-14601722D01*
X18200777Y-14601722D02*
X18191253Y-14582674D01*
X18191253Y-14582674D02*
X18172206Y-14573150D01*
X18172206Y-14573150D02*
X18143634Y-14573150D01*
X18143634Y-14573150D02*
X18124587Y-14582674D01*
X18124587Y-14582674D02*
X18115063Y-14592198D01*
X18324587Y-14706484D02*
X18305539Y-14696960D01*
X18305539Y-14696960D02*
X18296015Y-14687436D01*
X18296015Y-14687436D02*
X18286492Y-14668388D01*
X18286492Y-14668388D02*
X18286492Y-14611246D01*
X18286492Y-14611246D02*
X18296015Y-14592198D01*
X18296015Y-14592198D02*
X18305539Y-14582674D01*
X18305539Y-14582674D02*
X18324587Y-14573150D01*
X18324587Y-14573150D02*
X18353158Y-14573150D01*
X18353158Y-14573150D02*
X18372206Y-14582674D01*
X18372206Y-14582674D02*
X18381730Y-14592198D01*
X18381730Y-14592198D02*
X18391253Y-14611246D01*
X18391253Y-14611246D02*
X18391253Y-14668388D01*
X18391253Y-14668388D02*
X18381730Y-14687436D01*
X18381730Y-14687436D02*
X18372206Y-14696960D01*
X18372206Y-14696960D02*
X18353158Y-14706484D01*
X18353158Y-14706484D02*
X18324587Y-14706484D01*
X18505539Y-14706484D02*
X18486492Y-14696960D01*
X18486492Y-14696960D02*
X18476968Y-14677912D01*
X18476968Y-14677912D02*
X18476968Y-14506484D01*
X18657920Y-14696960D02*
X18638873Y-14706484D01*
X18638873Y-14706484D02*
X18600777Y-14706484D01*
X18600777Y-14706484D02*
X18581730Y-14696960D01*
X18581730Y-14696960D02*
X18572206Y-14677912D01*
X18572206Y-14677912D02*
X18572206Y-14601722D01*
X18572206Y-14601722D02*
X18581730Y-14582674D01*
X18581730Y-14582674D02*
X18600777Y-14573150D01*
X18600777Y-14573150D02*
X18638873Y-14573150D01*
X18638873Y-14573150D02*
X18657920Y-14582674D01*
X18657920Y-14582674D02*
X18667444Y-14601722D01*
X18667444Y-14601722D02*
X18667444Y-14620769D01*
X18667444Y-14620769D02*
X18572206Y-14639817D01*
X18743634Y-14696960D02*
X18762682Y-14706484D01*
X18762682Y-14706484D02*
X18800777Y-14706484D01*
X18800777Y-14706484D02*
X18819825Y-14696960D01*
X18819825Y-14696960D02*
X18829349Y-14677912D01*
X18829349Y-14677912D02*
X18829349Y-14668388D01*
X18829349Y-14668388D02*
X18819825Y-14649341D01*
X18819825Y-14649341D02*
X18800777Y-14639817D01*
X18800777Y-14639817D02*
X18772206Y-14639817D01*
X18772206Y-14639817D02*
X18753158Y-14630293D01*
X18753158Y-14630293D02*
X18743634Y-14611246D01*
X18743634Y-14611246D02*
X18743634Y-14601722D01*
X18743634Y-14601722D02*
X18753158Y-14582674D01*
X18753158Y-14582674D02*
X18772206Y-14573150D01*
X18772206Y-14573150D02*
X18800777Y-14573150D01*
X18800777Y-14573150D02*
X18819825Y-14582674D01*
X18896015Y-14782674D02*
X18905539Y-14773150D01*
X18905539Y-14773150D02*
X18924587Y-14744579D01*
X18924587Y-14744579D02*
X18934111Y-14725531D01*
X18934111Y-14725531D02*
X18943634Y-14696960D01*
X18943634Y-14696960D02*
X18953158Y-14649341D01*
X18953158Y-14649341D02*
X18953158Y-14611246D01*
X18953158Y-14611246D02*
X18943634Y-14563627D01*
X18943634Y-14563627D02*
X18934111Y-14535055D01*
X18934111Y-14535055D02*
X18924587Y-14516008D01*
X18924587Y-14516008D02*
X18905539Y-14487436D01*
X18905539Y-14487436D02*
X18896015Y-14477912D01*
D11*
X13740000Y-14879000D02*
G75*
G02*
X13640000Y-14879000I-50000J0D01*
G01*
X13640000Y-14879000D02*
G75*
G02*
X13740000Y-14879000I50000J0D01*
G01*
D10*
X14105539Y-14970484D02*
X13991253Y-14970484D01*
X14048396Y-14970484D02*
X14048396Y-14770484D01*
X14048396Y-14770484D02*
X14029348Y-14799055D01*
X14029348Y-14799055D02*
X14010301Y-14818103D01*
X14010301Y-14818103D02*
X13991253Y-14827627D01*
X14191253Y-14951436D02*
X14200777Y-14960960D01*
X14200777Y-14960960D02*
X14191253Y-14970484D01*
X14191253Y-14970484D02*
X14181729Y-14960960D01*
X14181729Y-14960960D02*
X14191253Y-14951436D01*
X14191253Y-14951436D02*
X14191253Y-14970484D01*
X14324586Y-14770484D02*
X14343634Y-14770484D01*
X14343634Y-14770484D02*
X14362682Y-14780008D01*
X14362682Y-14780008D02*
X14372205Y-14789531D01*
X14372205Y-14789531D02*
X14381729Y-14808579D01*
X14381729Y-14808579D02*
X14391253Y-14846674D01*
X14391253Y-14846674D02*
X14391253Y-14894293D01*
X14391253Y-14894293D02*
X14381729Y-14932388D01*
X14381729Y-14932388D02*
X14372205Y-14951436D01*
X14372205Y-14951436D02*
X14362682Y-14960960D01*
X14362682Y-14960960D02*
X14343634Y-14970484D01*
X14343634Y-14970484D02*
X14324586Y-14970484D01*
X14324586Y-14970484D02*
X14305539Y-14960960D01*
X14305539Y-14960960D02*
X14296015Y-14951436D01*
X14296015Y-14951436D02*
X14286491Y-14932388D01*
X14286491Y-14932388D02*
X14276967Y-14894293D01*
X14276967Y-14894293D02*
X14276967Y-14846674D01*
X14276967Y-14846674D02*
X14286491Y-14808579D01*
X14286491Y-14808579D02*
X14296015Y-14789531D01*
X14296015Y-14789531D02*
X14305539Y-14780008D01*
X14305539Y-14780008D02*
X14324586Y-14770484D01*
X14515062Y-14770484D02*
X14534110Y-14770484D01*
X14534110Y-14770484D02*
X14553158Y-14780008D01*
X14553158Y-14780008D02*
X14562682Y-14789531D01*
X14562682Y-14789531D02*
X14572205Y-14808579D01*
X14572205Y-14808579D02*
X14581729Y-14846674D01*
X14581729Y-14846674D02*
X14581729Y-14894293D01*
X14581729Y-14894293D02*
X14572205Y-14932388D01*
X14572205Y-14932388D02*
X14562682Y-14951436D01*
X14562682Y-14951436D02*
X14553158Y-14960960D01*
X14553158Y-14960960D02*
X14534110Y-14970484D01*
X14534110Y-14970484D02*
X14515062Y-14970484D01*
X14515062Y-14970484D02*
X14496015Y-14960960D01*
X14496015Y-14960960D02*
X14486491Y-14951436D01*
X14486491Y-14951436D02*
X14476967Y-14932388D01*
X14476967Y-14932388D02*
X14467443Y-14894293D01*
X14467443Y-14894293D02*
X14467443Y-14846674D01*
X14467443Y-14846674D02*
X14476967Y-14808579D01*
X14476967Y-14808579D02*
X14486491Y-14789531D01*
X14486491Y-14789531D02*
X14496015Y-14780008D01*
X14496015Y-14780008D02*
X14515062Y-14770484D01*
X14705539Y-14770484D02*
X14724586Y-14770484D01*
X14724586Y-14770484D02*
X14743634Y-14780008D01*
X14743634Y-14780008D02*
X14753158Y-14789531D01*
X14753158Y-14789531D02*
X14762682Y-14808579D01*
X14762682Y-14808579D02*
X14772205Y-14846674D01*
X14772205Y-14846674D02*
X14772205Y-14894293D01*
X14772205Y-14894293D02*
X14762682Y-14932388D01*
X14762682Y-14932388D02*
X14753158Y-14951436D01*
X14753158Y-14951436D02*
X14743634Y-14960960D01*
X14743634Y-14960960D02*
X14724586Y-14970484D01*
X14724586Y-14970484D02*
X14705539Y-14970484D01*
X14705539Y-14970484D02*
X14686491Y-14960960D01*
X14686491Y-14960960D02*
X14676967Y-14951436D01*
X14676967Y-14951436D02*
X14667443Y-14932388D01*
X14667443Y-14932388D02*
X14657920Y-14894293D01*
X14657920Y-14894293D02*
X14657920Y-14846674D01*
X14657920Y-14846674D02*
X14667443Y-14808579D01*
X14667443Y-14808579D02*
X14676967Y-14789531D01*
X14676967Y-14789531D02*
X14686491Y-14780008D01*
X14686491Y-14780008D02*
X14705539Y-14770484D01*
X14857920Y-14970484D02*
X14857920Y-14837150D01*
X14857920Y-14856198D02*
X14867443Y-14846674D01*
X14867443Y-14846674D02*
X14886491Y-14837150D01*
X14886491Y-14837150D02*
X14915063Y-14837150D01*
X14915063Y-14837150D02*
X14934110Y-14846674D01*
X14934110Y-14846674D02*
X14943634Y-14865722D01*
X14943634Y-14865722D02*
X14943634Y-14970484D01*
X14943634Y-14865722D02*
X14953158Y-14846674D01*
X14953158Y-14846674D02*
X14972205Y-14837150D01*
X14972205Y-14837150D02*
X15000777Y-14837150D01*
X15000777Y-14837150D02*
X15019824Y-14846674D01*
X15019824Y-14846674D02*
X15029348Y-14865722D01*
X15029348Y-14865722D02*
X15029348Y-14970484D01*
X15124586Y-14970484D02*
X15124586Y-14837150D01*
X15124586Y-14856198D02*
X15134110Y-14846674D01*
X15134110Y-14846674D02*
X15153158Y-14837150D01*
X15153158Y-14837150D02*
X15181729Y-14837150D01*
X15181729Y-14837150D02*
X15200777Y-14846674D01*
X15200777Y-14846674D02*
X15210301Y-14865722D01*
X15210301Y-14865722D02*
X15210301Y-14970484D01*
X15210301Y-14865722D02*
X15219824Y-14846674D01*
X15219824Y-14846674D02*
X15238872Y-14837150D01*
X15238872Y-14837150D02*
X15267443Y-14837150D01*
X15267443Y-14837150D02*
X15286491Y-14846674D01*
X15286491Y-14846674D02*
X15296015Y-14865722D01*
X15296015Y-14865722D02*
X15296015Y-14970484D01*
X15686491Y-14760960D02*
X15515063Y-15018103D01*
X15943634Y-14770484D02*
X15962682Y-14770484D01*
X15962682Y-14770484D02*
X15981729Y-14780008D01*
X15981729Y-14780008D02*
X15991253Y-14789531D01*
X15991253Y-14789531D02*
X16000777Y-14808579D01*
X16000777Y-14808579D02*
X16010301Y-14846674D01*
X16010301Y-14846674D02*
X16010301Y-14894293D01*
X16010301Y-14894293D02*
X16000777Y-14932388D01*
X16000777Y-14932388D02*
X15991253Y-14951436D01*
X15991253Y-14951436D02*
X15981729Y-14960960D01*
X15981729Y-14960960D02*
X15962682Y-14970484D01*
X15962682Y-14970484D02*
X15943634Y-14970484D01*
X15943634Y-14970484D02*
X15924586Y-14960960D01*
X15924586Y-14960960D02*
X15915063Y-14951436D01*
X15915063Y-14951436D02*
X15905539Y-14932388D01*
X15905539Y-14932388D02*
X15896015Y-14894293D01*
X15896015Y-14894293D02*
X15896015Y-14846674D01*
X15896015Y-14846674D02*
X15905539Y-14808579D01*
X15905539Y-14808579D02*
X15915063Y-14789531D01*
X15915063Y-14789531D02*
X15924586Y-14780008D01*
X15924586Y-14780008D02*
X15943634Y-14770484D01*
X16096015Y-14951436D02*
X16105539Y-14960960D01*
X16105539Y-14960960D02*
X16096015Y-14970484D01*
X16096015Y-14970484D02*
X16086491Y-14960960D01*
X16086491Y-14960960D02*
X16096015Y-14951436D01*
X16096015Y-14951436D02*
X16096015Y-14970484D01*
X16229348Y-14770484D02*
X16248396Y-14770484D01*
X16248396Y-14770484D02*
X16267444Y-14780008D01*
X16267444Y-14780008D02*
X16276967Y-14789531D01*
X16276967Y-14789531D02*
X16286491Y-14808579D01*
X16286491Y-14808579D02*
X16296015Y-14846674D01*
X16296015Y-14846674D02*
X16296015Y-14894293D01*
X16296015Y-14894293D02*
X16286491Y-14932388D01*
X16286491Y-14932388D02*
X16276967Y-14951436D01*
X16276967Y-14951436D02*
X16267444Y-14960960D01*
X16267444Y-14960960D02*
X16248396Y-14970484D01*
X16248396Y-14970484D02*
X16229348Y-14970484D01*
X16229348Y-14970484D02*
X16210301Y-14960960D01*
X16210301Y-14960960D02*
X16200777Y-14951436D01*
X16200777Y-14951436D02*
X16191253Y-14932388D01*
X16191253Y-14932388D02*
X16181729Y-14894293D01*
X16181729Y-14894293D02*
X16181729Y-14846674D01*
X16181729Y-14846674D02*
X16191253Y-14808579D01*
X16191253Y-14808579D02*
X16200777Y-14789531D01*
X16200777Y-14789531D02*
X16210301Y-14780008D01*
X16210301Y-14780008D02*
X16229348Y-14770484D01*
X16362682Y-14770484D02*
X16486491Y-14770484D01*
X16486491Y-14770484D02*
X16419825Y-14846674D01*
X16419825Y-14846674D02*
X16448396Y-14846674D01*
X16448396Y-14846674D02*
X16467444Y-14856198D01*
X16467444Y-14856198D02*
X16476967Y-14865722D01*
X16476967Y-14865722D02*
X16486491Y-14884769D01*
X16486491Y-14884769D02*
X16486491Y-14932388D01*
X16486491Y-14932388D02*
X16476967Y-14951436D01*
X16476967Y-14951436D02*
X16467444Y-14960960D01*
X16467444Y-14960960D02*
X16448396Y-14970484D01*
X16448396Y-14970484D02*
X16391253Y-14970484D01*
X16391253Y-14970484D02*
X16372206Y-14960960D01*
X16372206Y-14960960D02*
X16362682Y-14951436D01*
X16581729Y-14970484D02*
X16619825Y-14970484D01*
X16619825Y-14970484D02*
X16638872Y-14960960D01*
X16638872Y-14960960D02*
X16648396Y-14951436D01*
X16648396Y-14951436D02*
X16667444Y-14922865D01*
X16667444Y-14922865D02*
X16676967Y-14884769D01*
X16676967Y-14884769D02*
X16676967Y-14808579D01*
X16676967Y-14808579D02*
X16667444Y-14789531D01*
X16667444Y-14789531D02*
X16657920Y-14780008D01*
X16657920Y-14780008D02*
X16638872Y-14770484D01*
X16638872Y-14770484D02*
X16600777Y-14770484D01*
X16600777Y-14770484D02*
X16581729Y-14780008D01*
X16581729Y-14780008D02*
X16572206Y-14789531D01*
X16572206Y-14789531D02*
X16562682Y-14808579D01*
X16562682Y-14808579D02*
X16562682Y-14856198D01*
X16562682Y-14856198D02*
X16572206Y-14875246D01*
X16572206Y-14875246D02*
X16581729Y-14884769D01*
X16581729Y-14884769D02*
X16600777Y-14894293D01*
X16600777Y-14894293D02*
X16638872Y-14894293D01*
X16638872Y-14894293D02*
X16657920Y-14884769D01*
X16657920Y-14884769D02*
X16667444Y-14875246D01*
X16667444Y-14875246D02*
X16676967Y-14856198D01*
X16848396Y-14837150D02*
X16848396Y-14970484D01*
X16800777Y-14760960D02*
X16753158Y-14903817D01*
X16753158Y-14903817D02*
X16876968Y-14903817D01*
X16943634Y-14770484D02*
X16943634Y-14808579D01*
X17019825Y-14770484D02*
X17019825Y-14808579D01*
X17315063Y-15046674D02*
X17305539Y-15037150D01*
X17305539Y-15037150D02*
X17286491Y-15008579D01*
X17286491Y-15008579D02*
X17276968Y-14989531D01*
X17276968Y-14989531D02*
X17267444Y-14960960D01*
X17267444Y-14960960D02*
X17257920Y-14913341D01*
X17257920Y-14913341D02*
X17257920Y-14875246D01*
X17257920Y-14875246D02*
X17267444Y-14827627D01*
X17267444Y-14827627D02*
X17276968Y-14799055D01*
X17276968Y-14799055D02*
X17286491Y-14780008D01*
X17286491Y-14780008D02*
X17305539Y-14751436D01*
X17305539Y-14751436D02*
X17315063Y-14741912D01*
X17476968Y-14770484D02*
X17438872Y-14770484D01*
X17438872Y-14770484D02*
X17419825Y-14780008D01*
X17419825Y-14780008D02*
X17410301Y-14789531D01*
X17410301Y-14789531D02*
X17391253Y-14818103D01*
X17391253Y-14818103D02*
X17381730Y-14856198D01*
X17381730Y-14856198D02*
X17381730Y-14932388D01*
X17381730Y-14932388D02*
X17391253Y-14951436D01*
X17391253Y-14951436D02*
X17400777Y-14960960D01*
X17400777Y-14960960D02*
X17419825Y-14970484D01*
X17419825Y-14970484D02*
X17457920Y-14970484D01*
X17457920Y-14970484D02*
X17476968Y-14960960D01*
X17476968Y-14960960D02*
X17486491Y-14951436D01*
X17486491Y-14951436D02*
X17496015Y-14932388D01*
X17496015Y-14932388D02*
X17496015Y-14884769D01*
X17496015Y-14884769D02*
X17486491Y-14865722D01*
X17486491Y-14865722D02*
X17476968Y-14856198D01*
X17476968Y-14856198D02*
X17457920Y-14846674D01*
X17457920Y-14846674D02*
X17419825Y-14846674D01*
X17419825Y-14846674D02*
X17400777Y-14856198D01*
X17400777Y-14856198D02*
X17391253Y-14865722D01*
X17391253Y-14865722D02*
X17381730Y-14884769D01*
X17734111Y-14970484D02*
X17734111Y-14770484D01*
X17819825Y-14970484D02*
X17819825Y-14865722D01*
X17819825Y-14865722D02*
X17810301Y-14846674D01*
X17810301Y-14846674D02*
X17791253Y-14837150D01*
X17791253Y-14837150D02*
X17762682Y-14837150D01*
X17762682Y-14837150D02*
X17743634Y-14846674D01*
X17743634Y-14846674D02*
X17734111Y-14856198D01*
X17943634Y-14970484D02*
X17924587Y-14960960D01*
X17924587Y-14960960D02*
X17915063Y-14951436D01*
X17915063Y-14951436D02*
X17905539Y-14932388D01*
X17905539Y-14932388D02*
X17905539Y-14875246D01*
X17905539Y-14875246D02*
X17915063Y-14856198D01*
X17915063Y-14856198D02*
X17924587Y-14846674D01*
X17924587Y-14846674D02*
X17943634Y-14837150D01*
X17943634Y-14837150D02*
X17972206Y-14837150D01*
X17972206Y-14837150D02*
X17991253Y-14846674D01*
X17991253Y-14846674D02*
X18000777Y-14856198D01*
X18000777Y-14856198D02*
X18010301Y-14875246D01*
X18010301Y-14875246D02*
X18010301Y-14932388D01*
X18010301Y-14932388D02*
X18000777Y-14951436D01*
X18000777Y-14951436D02*
X17991253Y-14960960D01*
X17991253Y-14960960D02*
X17972206Y-14970484D01*
X17972206Y-14970484D02*
X17943634Y-14970484D01*
X18124587Y-14970484D02*
X18105539Y-14960960D01*
X18105539Y-14960960D02*
X18096015Y-14941912D01*
X18096015Y-14941912D02*
X18096015Y-14770484D01*
X18276968Y-14960960D02*
X18257920Y-14970484D01*
X18257920Y-14970484D02*
X18219825Y-14970484D01*
X18219825Y-14970484D02*
X18200777Y-14960960D01*
X18200777Y-14960960D02*
X18191253Y-14941912D01*
X18191253Y-14941912D02*
X18191253Y-14865722D01*
X18191253Y-14865722D02*
X18200777Y-14846674D01*
X18200777Y-14846674D02*
X18219825Y-14837150D01*
X18219825Y-14837150D02*
X18257920Y-14837150D01*
X18257920Y-14837150D02*
X18276968Y-14846674D01*
X18276968Y-14846674D02*
X18286492Y-14865722D01*
X18286492Y-14865722D02*
X18286492Y-14884769D01*
X18286492Y-14884769D02*
X18191253Y-14903817D01*
X18362682Y-14960960D02*
X18381730Y-14970484D01*
X18381730Y-14970484D02*
X18419825Y-14970484D01*
X18419825Y-14970484D02*
X18438873Y-14960960D01*
X18438873Y-14960960D02*
X18448396Y-14941912D01*
X18448396Y-14941912D02*
X18448396Y-14932388D01*
X18448396Y-14932388D02*
X18438873Y-14913341D01*
X18438873Y-14913341D02*
X18419825Y-14903817D01*
X18419825Y-14903817D02*
X18391253Y-14903817D01*
X18391253Y-14903817D02*
X18372206Y-14894293D01*
X18372206Y-14894293D02*
X18362682Y-14875246D01*
X18362682Y-14875246D02*
X18362682Y-14865722D01*
X18362682Y-14865722D02*
X18372206Y-14846674D01*
X18372206Y-14846674D02*
X18391253Y-14837150D01*
X18391253Y-14837150D02*
X18419825Y-14837150D01*
X18419825Y-14837150D02*
X18438873Y-14846674D01*
X18515063Y-15046674D02*
X18524587Y-15037150D01*
X18524587Y-15037150D02*
X18543634Y-15008579D01*
X18543634Y-15008579D02*
X18553158Y-14989531D01*
X18553158Y-14989531D02*
X18562682Y-14960960D01*
X18562682Y-14960960D02*
X18572206Y-14913341D01*
X18572206Y-14913341D02*
X18572206Y-14875246D01*
X18572206Y-14875246D02*
X18562682Y-14827627D01*
X18562682Y-14827627D02*
X18553158Y-14799055D01*
X18553158Y-14799055D02*
X18543634Y-14780008D01*
X18543634Y-14780008D02*
X18524587Y-14751436D01*
X18524587Y-14751436D02*
X18515063Y-14741912D01*
D12*
X13675000Y-15078000D02*
X13675000Y-15208000D01*
X13610000Y-15143000D02*
X13740000Y-15143000D01*
D10*
X14105539Y-15234484D02*
X13991253Y-15234484D01*
X14048396Y-15234484D02*
X14048396Y-15034484D01*
X14048396Y-15034484D02*
X14029348Y-15063055D01*
X14029348Y-15063055D02*
X14010301Y-15082103D01*
X14010301Y-15082103D02*
X13991253Y-15091627D01*
X14191253Y-15215436D02*
X14200777Y-15224960D01*
X14200777Y-15224960D02*
X14191253Y-15234484D01*
X14191253Y-15234484D02*
X14181729Y-15224960D01*
X14181729Y-15224960D02*
X14191253Y-15215436D01*
X14191253Y-15215436D02*
X14191253Y-15234484D01*
X14267443Y-15034484D02*
X14391253Y-15034484D01*
X14391253Y-15034484D02*
X14324586Y-15110674D01*
X14324586Y-15110674D02*
X14353158Y-15110674D01*
X14353158Y-15110674D02*
X14372205Y-15120198D01*
X14372205Y-15120198D02*
X14381729Y-15129722D01*
X14381729Y-15129722D02*
X14391253Y-15148769D01*
X14391253Y-15148769D02*
X14391253Y-15196388D01*
X14391253Y-15196388D02*
X14381729Y-15215436D01*
X14381729Y-15215436D02*
X14372205Y-15224960D01*
X14372205Y-15224960D02*
X14353158Y-15234484D01*
X14353158Y-15234484D02*
X14296015Y-15234484D01*
X14296015Y-15234484D02*
X14276967Y-15224960D01*
X14276967Y-15224960D02*
X14267443Y-15215436D01*
X14515062Y-15034484D02*
X14534110Y-15034484D01*
X14534110Y-15034484D02*
X14553158Y-15044008D01*
X14553158Y-15044008D02*
X14562682Y-15053531D01*
X14562682Y-15053531D02*
X14572205Y-15072579D01*
X14572205Y-15072579D02*
X14581729Y-15110674D01*
X14581729Y-15110674D02*
X14581729Y-15158293D01*
X14581729Y-15158293D02*
X14572205Y-15196388D01*
X14572205Y-15196388D02*
X14562682Y-15215436D01*
X14562682Y-15215436D02*
X14553158Y-15224960D01*
X14553158Y-15224960D02*
X14534110Y-15234484D01*
X14534110Y-15234484D02*
X14515062Y-15234484D01*
X14515062Y-15234484D02*
X14496015Y-15224960D01*
X14496015Y-15224960D02*
X14486491Y-15215436D01*
X14486491Y-15215436D02*
X14476967Y-15196388D01*
X14476967Y-15196388D02*
X14467443Y-15158293D01*
X14467443Y-15158293D02*
X14467443Y-15110674D01*
X14467443Y-15110674D02*
X14476967Y-15072579D01*
X14476967Y-15072579D02*
X14486491Y-15053531D01*
X14486491Y-15053531D02*
X14496015Y-15044008D01*
X14496015Y-15044008D02*
X14515062Y-15034484D01*
X14705539Y-15034484D02*
X14724586Y-15034484D01*
X14724586Y-15034484D02*
X14743634Y-15044008D01*
X14743634Y-15044008D02*
X14753158Y-15053531D01*
X14753158Y-15053531D02*
X14762682Y-15072579D01*
X14762682Y-15072579D02*
X14772205Y-15110674D01*
X14772205Y-15110674D02*
X14772205Y-15158293D01*
X14772205Y-15158293D02*
X14762682Y-15196388D01*
X14762682Y-15196388D02*
X14753158Y-15215436D01*
X14753158Y-15215436D02*
X14743634Y-15224960D01*
X14743634Y-15224960D02*
X14724586Y-15234484D01*
X14724586Y-15234484D02*
X14705539Y-15234484D01*
X14705539Y-15234484D02*
X14686491Y-15224960D01*
X14686491Y-15224960D02*
X14676967Y-15215436D01*
X14676967Y-15215436D02*
X14667443Y-15196388D01*
X14667443Y-15196388D02*
X14657920Y-15158293D01*
X14657920Y-15158293D02*
X14657920Y-15110674D01*
X14657920Y-15110674D02*
X14667443Y-15072579D01*
X14667443Y-15072579D02*
X14676967Y-15053531D01*
X14676967Y-15053531D02*
X14686491Y-15044008D01*
X14686491Y-15044008D02*
X14705539Y-15034484D01*
X14857920Y-15234484D02*
X14857920Y-15101150D01*
X14857920Y-15120198D02*
X14867443Y-15110674D01*
X14867443Y-15110674D02*
X14886491Y-15101150D01*
X14886491Y-15101150D02*
X14915063Y-15101150D01*
X14915063Y-15101150D02*
X14934110Y-15110674D01*
X14934110Y-15110674D02*
X14943634Y-15129722D01*
X14943634Y-15129722D02*
X14943634Y-15234484D01*
X14943634Y-15129722D02*
X14953158Y-15110674D01*
X14953158Y-15110674D02*
X14972205Y-15101150D01*
X14972205Y-15101150D02*
X15000777Y-15101150D01*
X15000777Y-15101150D02*
X15019824Y-15110674D01*
X15019824Y-15110674D02*
X15029348Y-15129722D01*
X15029348Y-15129722D02*
X15029348Y-15234484D01*
X15124586Y-15234484D02*
X15124586Y-15101150D01*
X15124586Y-15120198D02*
X15134110Y-15110674D01*
X15134110Y-15110674D02*
X15153158Y-15101150D01*
X15153158Y-15101150D02*
X15181729Y-15101150D01*
X15181729Y-15101150D02*
X15200777Y-15110674D01*
X15200777Y-15110674D02*
X15210301Y-15129722D01*
X15210301Y-15129722D02*
X15210301Y-15234484D01*
X15210301Y-15129722D02*
X15219824Y-15110674D01*
X15219824Y-15110674D02*
X15238872Y-15101150D01*
X15238872Y-15101150D02*
X15267443Y-15101150D01*
X15267443Y-15101150D02*
X15286491Y-15110674D01*
X15286491Y-15110674D02*
X15296015Y-15129722D01*
X15296015Y-15129722D02*
X15296015Y-15234484D01*
X15686491Y-15024960D02*
X15515063Y-15282103D01*
X15943634Y-15034484D02*
X15962682Y-15034484D01*
X15962682Y-15034484D02*
X15981729Y-15044008D01*
X15981729Y-15044008D02*
X15991253Y-15053531D01*
X15991253Y-15053531D02*
X16000777Y-15072579D01*
X16000777Y-15072579D02*
X16010301Y-15110674D01*
X16010301Y-15110674D02*
X16010301Y-15158293D01*
X16010301Y-15158293D02*
X16000777Y-15196388D01*
X16000777Y-15196388D02*
X15991253Y-15215436D01*
X15991253Y-15215436D02*
X15981729Y-15224960D01*
X15981729Y-15224960D02*
X15962682Y-15234484D01*
X15962682Y-15234484D02*
X15943634Y-15234484D01*
X15943634Y-15234484D02*
X15924586Y-15224960D01*
X15924586Y-15224960D02*
X15915063Y-15215436D01*
X15915063Y-15215436D02*
X15905539Y-15196388D01*
X15905539Y-15196388D02*
X15896015Y-15158293D01*
X15896015Y-15158293D02*
X15896015Y-15110674D01*
X15896015Y-15110674D02*
X15905539Y-15072579D01*
X15905539Y-15072579D02*
X15915063Y-15053531D01*
X15915063Y-15053531D02*
X15924586Y-15044008D01*
X15924586Y-15044008D02*
X15943634Y-15034484D01*
X16096015Y-15215436D02*
X16105539Y-15224960D01*
X16105539Y-15224960D02*
X16096015Y-15234484D01*
X16096015Y-15234484D02*
X16086491Y-15224960D01*
X16086491Y-15224960D02*
X16096015Y-15215436D01*
X16096015Y-15215436D02*
X16096015Y-15234484D01*
X16229348Y-15034484D02*
X16248396Y-15034484D01*
X16248396Y-15034484D02*
X16267444Y-15044008D01*
X16267444Y-15044008D02*
X16276967Y-15053531D01*
X16276967Y-15053531D02*
X16286491Y-15072579D01*
X16286491Y-15072579D02*
X16296015Y-15110674D01*
X16296015Y-15110674D02*
X16296015Y-15158293D01*
X16296015Y-15158293D02*
X16286491Y-15196388D01*
X16286491Y-15196388D02*
X16276967Y-15215436D01*
X16276967Y-15215436D02*
X16267444Y-15224960D01*
X16267444Y-15224960D02*
X16248396Y-15234484D01*
X16248396Y-15234484D02*
X16229348Y-15234484D01*
X16229348Y-15234484D02*
X16210301Y-15224960D01*
X16210301Y-15224960D02*
X16200777Y-15215436D01*
X16200777Y-15215436D02*
X16191253Y-15196388D01*
X16191253Y-15196388D02*
X16181729Y-15158293D01*
X16181729Y-15158293D02*
X16181729Y-15110674D01*
X16181729Y-15110674D02*
X16191253Y-15072579D01*
X16191253Y-15072579D02*
X16200777Y-15053531D01*
X16200777Y-15053531D02*
X16210301Y-15044008D01*
X16210301Y-15044008D02*
X16229348Y-15034484D01*
X16476967Y-15034484D02*
X16381729Y-15034484D01*
X16381729Y-15034484D02*
X16372206Y-15129722D01*
X16372206Y-15129722D02*
X16381729Y-15120198D01*
X16381729Y-15120198D02*
X16400777Y-15110674D01*
X16400777Y-15110674D02*
X16448396Y-15110674D01*
X16448396Y-15110674D02*
X16467444Y-15120198D01*
X16467444Y-15120198D02*
X16476967Y-15129722D01*
X16476967Y-15129722D02*
X16486491Y-15148769D01*
X16486491Y-15148769D02*
X16486491Y-15196388D01*
X16486491Y-15196388D02*
X16476967Y-15215436D01*
X16476967Y-15215436D02*
X16467444Y-15224960D01*
X16467444Y-15224960D02*
X16448396Y-15234484D01*
X16448396Y-15234484D02*
X16400777Y-15234484D01*
X16400777Y-15234484D02*
X16381729Y-15224960D01*
X16381729Y-15224960D02*
X16372206Y-15215436D01*
X16676967Y-15234484D02*
X16562682Y-15234484D01*
X16619825Y-15234484D02*
X16619825Y-15034484D01*
X16619825Y-15034484D02*
X16600777Y-15063055D01*
X16600777Y-15063055D02*
X16581729Y-15082103D01*
X16581729Y-15082103D02*
X16562682Y-15091627D01*
X16753158Y-15053531D02*
X16762682Y-15044008D01*
X16762682Y-15044008D02*
X16781729Y-15034484D01*
X16781729Y-15034484D02*
X16829349Y-15034484D01*
X16829349Y-15034484D02*
X16848396Y-15044008D01*
X16848396Y-15044008D02*
X16857920Y-15053531D01*
X16857920Y-15053531D02*
X16867444Y-15072579D01*
X16867444Y-15072579D02*
X16867444Y-15091627D01*
X16867444Y-15091627D02*
X16857920Y-15120198D01*
X16857920Y-15120198D02*
X16743634Y-15234484D01*
X16743634Y-15234484D02*
X16867444Y-15234484D01*
X16943634Y-15034484D02*
X16943634Y-15072579D01*
X17019825Y-15034484D02*
X17019825Y-15072579D01*
X17315063Y-15310674D02*
X17305539Y-15301150D01*
X17305539Y-15301150D02*
X17286491Y-15272579D01*
X17286491Y-15272579D02*
X17276968Y-15253531D01*
X17276968Y-15253531D02*
X17267444Y-15224960D01*
X17267444Y-15224960D02*
X17257920Y-15177341D01*
X17257920Y-15177341D02*
X17257920Y-15139246D01*
X17257920Y-15139246D02*
X17267444Y-15091627D01*
X17267444Y-15091627D02*
X17276968Y-15063055D01*
X17276968Y-15063055D02*
X17286491Y-15044008D01*
X17286491Y-15044008D02*
X17305539Y-15015436D01*
X17305539Y-15015436D02*
X17315063Y-15005912D01*
X17476968Y-15101150D02*
X17476968Y-15234484D01*
X17429349Y-15024960D02*
X17381730Y-15167817D01*
X17381730Y-15167817D02*
X17505539Y-15167817D01*
X17734111Y-15234484D02*
X17734111Y-15034484D01*
X17819825Y-15234484D02*
X17819825Y-15129722D01*
X17819825Y-15129722D02*
X17810301Y-15110674D01*
X17810301Y-15110674D02*
X17791253Y-15101150D01*
X17791253Y-15101150D02*
X17762682Y-15101150D01*
X17762682Y-15101150D02*
X17743634Y-15110674D01*
X17743634Y-15110674D02*
X17734111Y-15120198D01*
X17943634Y-15234484D02*
X17924587Y-15224960D01*
X17924587Y-15224960D02*
X17915063Y-15215436D01*
X17915063Y-15215436D02*
X17905539Y-15196388D01*
X17905539Y-15196388D02*
X17905539Y-15139246D01*
X17905539Y-15139246D02*
X17915063Y-15120198D01*
X17915063Y-15120198D02*
X17924587Y-15110674D01*
X17924587Y-15110674D02*
X17943634Y-15101150D01*
X17943634Y-15101150D02*
X17972206Y-15101150D01*
X17972206Y-15101150D02*
X17991253Y-15110674D01*
X17991253Y-15110674D02*
X18000777Y-15120198D01*
X18000777Y-15120198D02*
X18010301Y-15139246D01*
X18010301Y-15139246D02*
X18010301Y-15196388D01*
X18010301Y-15196388D02*
X18000777Y-15215436D01*
X18000777Y-15215436D02*
X17991253Y-15224960D01*
X17991253Y-15224960D02*
X17972206Y-15234484D01*
X17972206Y-15234484D02*
X17943634Y-15234484D01*
X18124587Y-15234484D02*
X18105539Y-15224960D01*
X18105539Y-15224960D02*
X18096015Y-15205912D01*
X18096015Y-15205912D02*
X18096015Y-15034484D01*
X18276968Y-15224960D02*
X18257920Y-15234484D01*
X18257920Y-15234484D02*
X18219825Y-15234484D01*
X18219825Y-15234484D02*
X18200777Y-15224960D01*
X18200777Y-15224960D02*
X18191253Y-15205912D01*
X18191253Y-15205912D02*
X18191253Y-15129722D01*
X18191253Y-15129722D02*
X18200777Y-15110674D01*
X18200777Y-15110674D02*
X18219825Y-15101150D01*
X18219825Y-15101150D02*
X18257920Y-15101150D01*
X18257920Y-15101150D02*
X18276968Y-15110674D01*
X18276968Y-15110674D02*
X18286492Y-15129722D01*
X18286492Y-15129722D02*
X18286492Y-15148769D01*
X18286492Y-15148769D02*
X18191253Y-15167817D01*
X18362682Y-15224960D02*
X18381730Y-15234484D01*
X18381730Y-15234484D02*
X18419825Y-15234484D01*
X18419825Y-15234484D02*
X18438873Y-15224960D01*
X18438873Y-15224960D02*
X18448396Y-15205912D01*
X18448396Y-15205912D02*
X18448396Y-15196388D01*
X18448396Y-15196388D02*
X18438873Y-15177341D01*
X18438873Y-15177341D02*
X18419825Y-15167817D01*
X18419825Y-15167817D02*
X18391253Y-15167817D01*
X18391253Y-15167817D02*
X18372206Y-15158293D01*
X18372206Y-15158293D02*
X18362682Y-15139246D01*
X18362682Y-15139246D02*
X18362682Y-15129722D01*
X18362682Y-15129722D02*
X18372206Y-15110674D01*
X18372206Y-15110674D02*
X18391253Y-15101150D01*
X18391253Y-15101150D02*
X18419825Y-15101150D01*
X18419825Y-15101150D02*
X18438873Y-15110674D01*
X18515063Y-15310674D02*
X18524587Y-15301150D01*
X18524587Y-15301150D02*
X18543634Y-15272579D01*
X18543634Y-15272579D02*
X18553158Y-15253531D01*
X18553158Y-15253531D02*
X18562682Y-15224960D01*
X18562682Y-15224960D02*
X18572206Y-15177341D01*
X18572206Y-15177341D02*
X18572206Y-15139246D01*
X18572206Y-15139246D02*
X18562682Y-15091627D01*
X18562682Y-15091627D02*
X18553158Y-15063055D01*
X18553158Y-15063055D02*
X18543634Y-15044008D01*
X18543634Y-15044008D02*
X18524587Y-15015436D01*
X18524587Y-15015436D02*
X18515063Y-15005912D01*
X13710711Y-15477711D02*
X13710711Y-15336289D01*
X13569289Y-15336289D01*
X13569289Y-15477711D01*
X13710711Y-15477711D01*
X13981729Y-15298484D02*
X14105539Y-15298484D01*
X14105539Y-15298484D02*
X14038872Y-15374674D01*
X14038872Y-15374674D02*
X14067443Y-15374674D01*
X14067443Y-15374674D02*
X14086491Y-15384198D01*
X14086491Y-15384198D02*
X14096015Y-15393722D01*
X14096015Y-15393722D02*
X14105539Y-15412769D01*
X14105539Y-15412769D02*
X14105539Y-15460388D01*
X14105539Y-15460388D02*
X14096015Y-15479436D01*
X14096015Y-15479436D02*
X14086491Y-15488960D01*
X14086491Y-15488960D02*
X14067443Y-15498484D01*
X14067443Y-15498484D02*
X14010301Y-15498484D01*
X14010301Y-15498484D02*
X13991253Y-15488960D01*
X13991253Y-15488960D02*
X13981729Y-15479436D01*
X14191253Y-15479436D02*
X14200777Y-15488960D01*
X14200777Y-15488960D02*
X14191253Y-15498484D01*
X14191253Y-15498484D02*
X14181729Y-15488960D01*
X14181729Y-15488960D02*
X14191253Y-15479436D01*
X14191253Y-15479436D02*
X14191253Y-15498484D01*
X14381729Y-15298484D02*
X14286491Y-15298484D01*
X14286491Y-15298484D02*
X14276967Y-15393722D01*
X14276967Y-15393722D02*
X14286491Y-15384198D01*
X14286491Y-15384198D02*
X14305539Y-15374674D01*
X14305539Y-15374674D02*
X14353158Y-15374674D01*
X14353158Y-15374674D02*
X14372205Y-15384198D01*
X14372205Y-15384198D02*
X14381729Y-15393722D01*
X14381729Y-15393722D02*
X14391253Y-15412769D01*
X14391253Y-15412769D02*
X14391253Y-15460388D01*
X14391253Y-15460388D02*
X14381729Y-15479436D01*
X14381729Y-15479436D02*
X14372205Y-15488960D01*
X14372205Y-15488960D02*
X14353158Y-15498484D01*
X14353158Y-15498484D02*
X14305539Y-15498484D01*
X14305539Y-15498484D02*
X14286491Y-15488960D01*
X14286491Y-15488960D02*
X14276967Y-15479436D01*
X14515062Y-15298484D02*
X14534110Y-15298484D01*
X14534110Y-15298484D02*
X14553158Y-15308008D01*
X14553158Y-15308008D02*
X14562682Y-15317531D01*
X14562682Y-15317531D02*
X14572205Y-15336579D01*
X14572205Y-15336579D02*
X14581729Y-15374674D01*
X14581729Y-15374674D02*
X14581729Y-15422293D01*
X14581729Y-15422293D02*
X14572205Y-15460388D01*
X14572205Y-15460388D02*
X14562682Y-15479436D01*
X14562682Y-15479436D02*
X14553158Y-15488960D01*
X14553158Y-15488960D02*
X14534110Y-15498484D01*
X14534110Y-15498484D02*
X14515062Y-15498484D01*
X14515062Y-15498484D02*
X14496015Y-15488960D01*
X14496015Y-15488960D02*
X14486491Y-15479436D01*
X14486491Y-15479436D02*
X14476967Y-15460388D01*
X14476967Y-15460388D02*
X14467443Y-15422293D01*
X14467443Y-15422293D02*
X14467443Y-15374674D01*
X14467443Y-15374674D02*
X14476967Y-15336579D01*
X14476967Y-15336579D02*
X14486491Y-15317531D01*
X14486491Y-15317531D02*
X14496015Y-15308008D01*
X14496015Y-15308008D02*
X14515062Y-15298484D01*
X14705539Y-15298484D02*
X14724586Y-15298484D01*
X14724586Y-15298484D02*
X14743634Y-15308008D01*
X14743634Y-15308008D02*
X14753158Y-15317531D01*
X14753158Y-15317531D02*
X14762682Y-15336579D01*
X14762682Y-15336579D02*
X14772205Y-15374674D01*
X14772205Y-15374674D02*
X14772205Y-15422293D01*
X14772205Y-15422293D02*
X14762682Y-15460388D01*
X14762682Y-15460388D02*
X14753158Y-15479436D01*
X14753158Y-15479436D02*
X14743634Y-15488960D01*
X14743634Y-15488960D02*
X14724586Y-15498484D01*
X14724586Y-15498484D02*
X14705539Y-15498484D01*
X14705539Y-15498484D02*
X14686491Y-15488960D01*
X14686491Y-15488960D02*
X14676967Y-15479436D01*
X14676967Y-15479436D02*
X14667443Y-15460388D01*
X14667443Y-15460388D02*
X14657920Y-15422293D01*
X14657920Y-15422293D02*
X14657920Y-15374674D01*
X14657920Y-15374674D02*
X14667443Y-15336579D01*
X14667443Y-15336579D02*
X14676967Y-15317531D01*
X14676967Y-15317531D02*
X14686491Y-15308008D01*
X14686491Y-15308008D02*
X14705539Y-15298484D01*
X14857920Y-15498484D02*
X14857920Y-15365150D01*
X14857920Y-15384198D02*
X14867443Y-15374674D01*
X14867443Y-15374674D02*
X14886491Y-15365150D01*
X14886491Y-15365150D02*
X14915063Y-15365150D01*
X14915063Y-15365150D02*
X14934110Y-15374674D01*
X14934110Y-15374674D02*
X14943634Y-15393722D01*
X14943634Y-15393722D02*
X14943634Y-15498484D01*
X14943634Y-15393722D02*
X14953158Y-15374674D01*
X14953158Y-15374674D02*
X14972205Y-15365150D01*
X14972205Y-15365150D02*
X15000777Y-15365150D01*
X15000777Y-15365150D02*
X15019824Y-15374674D01*
X15019824Y-15374674D02*
X15029348Y-15393722D01*
X15029348Y-15393722D02*
X15029348Y-15498484D01*
X15124586Y-15498484D02*
X15124586Y-15365150D01*
X15124586Y-15384198D02*
X15134110Y-15374674D01*
X15134110Y-15374674D02*
X15153158Y-15365150D01*
X15153158Y-15365150D02*
X15181729Y-15365150D01*
X15181729Y-15365150D02*
X15200777Y-15374674D01*
X15200777Y-15374674D02*
X15210301Y-15393722D01*
X15210301Y-15393722D02*
X15210301Y-15498484D01*
X15210301Y-15393722D02*
X15219824Y-15374674D01*
X15219824Y-15374674D02*
X15238872Y-15365150D01*
X15238872Y-15365150D02*
X15267443Y-15365150D01*
X15267443Y-15365150D02*
X15286491Y-15374674D01*
X15286491Y-15374674D02*
X15296015Y-15393722D01*
X15296015Y-15393722D02*
X15296015Y-15498484D01*
X15686491Y-15288960D02*
X15515063Y-15546103D01*
X15943634Y-15298484D02*
X15962682Y-15298484D01*
X15962682Y-15298484D02*
X15981729Y-15308008D01*
X15981729Y-15308008D02*
X15991253Y-15317531D01*
X15991253Y-15317531D02*
X16000777Y-15336579D01*
X16000777Y-15336579D02*
X16010301Y-15374674D01*
X16010301Y-15374674D02*
X16010301Y-15422293D01*
X16010301Y-15422293D02*
X16000777Y-15460388D01*
X16000777Y-15460388D02*
X15991253Y-15479436D01*
X15991253Y-15479436D02*
X15981729Y-15488960D01*
X15981729Y-15488960D02*
X15962682Y-15498484D01*
X15962682Y-15498484D02*
X15943634Y-15498484D01*
X15943634Y-15498484D02*
X15924586Y-15488960D01*
X15924586Y-15488960D02*
X15915063Y-15479436D01*
X15915063Y-15479436D02*
X15905539Y-15460388D01*
X15905539Y-15460388D02*
X15896015Y-15422293D01*
X15896015Y-15422293D02*
X15896015Y-15374674D01*
X15896015Y-15374674D02*
X15905539Y-15336579D01*
X15905539Y-15336579D02*
X15915063Y-15317531D01*
X15915063Y-15317531D02*
X15924586Y-15308008D01*
X15924586Y-15308008D02*
X15943634Y-15298484D01*
X16096015Y-15479436D02*
X16105539Y-15488960D01*
X16105539Y-15488960D02*
X16096015Y-15498484D01*
X16096015Y-15498484D02*
X16086491Y-15488960D01*
X16086491Y-15488960D02*
X16096015Y-15479436D01*
X16096015Y-15479436D02*
X16096015Y-15498484D01*
X16296015Y-15498484D02*
X16181729Y-15498484D01*
X16238872Y-15498484D02*
X16238872Y-15298484D01*
X16238872Y-15298484D02*
X16219825Y-15327055D01*
X16219825Y-15327055D02*
X16200777Y-15346103D01*
X16200777Y-15346103D02*
X16181729Y-15355627D01*
X16362682Y-15298484D02*
X16486491Y-15298484D01*
X16486491Y-15298484D02*
X16419825Y-15374674D01*
X16419825Y-15374674D02*
X16448396Y-15374674D01*
X16448396Y-15374674D02*
X16467444Y-15384198D01*
X16467444Y-15384198D02*
X16476967Y-15393722D01*
X16476967Y-15393722D02*
X16486491Y-15412769D01*
X16486491Y-15412769D02*
X16486491Y-15460388D01*
X16486491Y-15460388D02*
X16476967Y-15479436D01*
X16476967Y-15479436D02*
X16467444Y-15488960D01*
X16467444Y-15488960D02*
X16448396Y-15498484D01*
X16448396Y-15498484D02*
X16391253Y-15498484D01*
X16391253Y-15498484D02*
X16372206Y-15488960D01*
X16372206Y-15488960D02*
X16362682Y-15479436D01*
X16553158Y-15298484D02*
X16686491Y-15298484D01*
X16686491Y-15298484D02*
X16600777Y-15498484D01*
X16791253Y-15384198D02*
X16772206Y-15374674D01*
X16772206Y-15374674D02*
X16762682Y-15365150D01*
X16762682Y-15365150D02*
X16753158Y-15346103D01*
X16753158Y-15346103D02*
X16753158Y-15336579D01*
X16753158Y-15336579D02*
X16762682Y-15317531D01*
X16762682Y-15317531D02*
X16772206Y-15308008D01*
X16772206Y-15308008D02*
X16791253Y-15298484D01*
X16791253Y-15298484D02*
X16829349Y-15298484D01*
X16829349Y-15298484D02*
X16848396Y-15308008D01*
X16848396Y-15308008D02*
X16857920Y-15317531D01*
X16857920Y-15317531D02*
X16867444Y-15336579D01*
X16867444Y-15336579D02*
X16867444Y-15346103D01*
X16867444Y-15346103D02*
X16857920Y-15365150D01*
X16857920Y-15365150D02*
X16848396Y-15374674D01*
X16848396Y-15374674D02*
X16829349Y-15384198D01*
X16829349Y-15384198D02*
X16791253Y-15384198D01*
X16791253Y-15384198D02*
X16772206Y-15393722D01*
X16772206Y-15393722D02*
X16762682Y-15403246D01*
X16762682Y-15403246D02*
X16753158Y-15422293D01*
X16753158Y-15422293D02*
X16753158Y-15460388D01*
X16753158Y-15460388D02*
X16762682Y-15479436D01*
X16762682Y-15479436D02*
X16772206Y-15488960D01*
X16772206Y-15488960D02*
X16791253Y-15498484D01*
X16791253Y-15498484D02*
X16829349Y-15498484D01*
X16829349Y-15498484D02*
X16848396Y-15488960D01*
X16848396Y-15488960D02*
X16857920Y-15479436D01*
X16857920Y-15479436D02*
X16867444Y-15460388D01*
X16867444Y-15460388D02*
X16867444Y-15422293D01*
X16867444Y-15422293D02*
X16857920Y-15403246D01*
X16857920Y-15403246D02*
X16848396Y-15393722D01*
X16848396Y-15393722D02*
X16829349Y-15384198D01*
X16943634Y-15298484D02*
X16943634Y-15336579D01*
X17019825Y-15298484D02*
X17019825Y-15336579D01*
X17315063Y-15574674D02*
X17305539Y-15565150D01*
X17305539Y-15565150D02*
X17286491Y-15536579D01*
X17286491Y-15536579D02*
X17276968Y-15517531D01*
X17276968Y-15517531D02*
X17267444Y-15488960D01*
X17267444Y-15488960D02*
X17257920Y-15441341D01*
X17257920Y-15441341D02*
X17257920Y-15403246D01*
X17257920Y-15403246D02*
X17267444Y-15355627D01*
X17267444Y-15355627D02*
X17276968Y-15327055D01*
X17276968Y-15327055D02*
X17286491Y-15308008D01*
X17286491Y-15308008D02*
X17305539Y-15279436D01*
X17305539Y-15279436D02*
X17315063Y-15269912D01*
X17496015Y-15498484D02*
X17381730Y-15498484D01*
X17438872Y-15498484D02*
X17438872Y-15298484D01*
X17438872Y-15298484D02*
X17419825Y-15327055D01*
X17419825Y-15327055D02*
X17400777Y-15346103D01*
X17400777Y-15346103D02*
X17381730Y-15355627D01*
X17734111Y-15498484D02*
X17734111Y-15298484D01*
X17819825Y-15498484D02*
X17819825Y-15393722D01*
X17819825Y-15393722D02*
X17810301Y-15374674D01*
X17810301Y-15374674D02*
X17791253Y-15365150D01*
X17791253Y-15365150D02*
X17762682Y-15365150D01*
X17762682Y-15365150D02*
X17743634Y-15374674D01*
X17743634Y-15374674D02*
X17734111Y-15384198D01*
X17943634Y-15498484D02*
X17924587Y-15488960D01*
X17924587Y-15488960D02*
X17915063Y-15479436D01*
X17915063Y-15479436D02*
X17905539Y-15460388D01*
X17905539Y-15460388D02*
X17905539Y-15403246D01*
X17905539Y-15403246D02*
X17915063Y-15384198D01*
X17915063Y-15384198D02*
X17924587Y-15374674D01*
X17924587Y-15374674D02*
X17943634Y-15365150D01*
X17943634Y-15365150D02*
X17972206Y-15365150D01*
X17972206Y-15365150D02*
X17991253Y-15374674D01*
X17991253Y-15374674D02*
X18000777Y-15384198D01*
X18000777Y-15384198D02*
X18010301Y-15403246D01*
X18010301Y-15403246D02*
X18010301Y-15460388D01*
X18010301Y-15460388D02*
X18000777Y-15479436D01*
X18000777Y-15479436D02*
X17991253Y-15488960D01*
X17991253Y-15488960D02*
X17972206Y-15498484D01*
X17972206Y-15498484D02*
X17943634Y-15498484D01*
X18124587Y-15498484D02*
X18105539Y-15488960D01*
X18105539Y-15488960D02*
X18096015Y-15469912D01*
X18096015Y-15469912D02*
X18096015Y-15298484D01*
X18276968Y-15488960D02*
X18257920Y-15498484D01*
X18257920Y-15498484D02*
X18219825Y-15498484D01*
X18219825Y-15498484D02*
X18200777Y-15488960D01*
X18200777Y-15488960D02*
X18191253Y-15469912D01*
X18191253Y-15469912D02*
X18191253Y-15393722D01*
X18191253Y-15393722D02*
X18200777Y-15374674D01*
X18200777Y-15374674D02*
X18219825Y-15365150D01*
X18219825Y-15365150D02*
X18257920Y-15365150D01*
X18257920Y-15365150D02*
X18276968Y-15374674D01*
X18276968Y-15374674D02*
X18286492Y-15393722D01*
X18286492Y-15393722D02*
X18286492Y-15412769D01*
X18286492Y-15412769D02*
X18191253Y-15431817D01*
X18353158Y-15574674D02*
X18362682Y-15565150D01*
X18362682Y-15565150D02*
X18381730Y-15536579D01*
X18381730Y-15536579D02*
X18391253Y-15517531D01*
X18391253Y-15517531D02*
X18400777Y-15488960D01*
X18400777Y-15488960D02*
X18410301Y-15441341D01*
X18410301Y-15441341D02*
X18410301Y-15403246D01*
X18410301Y-15403246D02*
X18400777Y-15355627D01*
X18400777Y-15355627D02*
X18391253Y-15327055D01*
X18391253Y-15327055D02*
X18381730Y-15308008D01*
X18381730Y-15308008D02*
X18362682Y-15279436D01*
X18362682Y-15279436D02*
X18353158Y-15269912D01*
M02*
