M48
; DRILL file {KiCad 8.0.6} date 2024-11-19T22:42:02-0500
; FORMAT={-:-/ absolute / metric / decimal}
; #@! TF.CreationDate,2024-11-19T22:42:02-05:00
; #@! TF.GenerationSoftware,Kicad,Pcbnew,8.0.6
; #@! TF.FileFunction,Plated,1,2,PTH
FMAT,2
METRIC
; #@! TA.AperFunction,Plated,PTH,ViaDrill
T1C0.305
; #@! TA.AperFunction,Plated,PTH,ComponentDrill
T2C1.000
; #@! TA.AperFunction,Plated,PTH,ComponentDrill
T3C1.300
; #@! TA.AperFunction,Plated,PTH,ComponentDrill
T4C3.500
%
G90
G05
T1
X139.06Y-103.73
X139.545Y-105.957
X139.89Y-84.87
X140.12Y-107.58
X140.125Y-111.705
X140.305Y-125.57
X140.625Y-105.95
X140.65Y-98.155
X140.66Y-102.17
X140.8Y-120.55
X142.15Y-116.2
X142.59Y-94.415
X142.825Y-95.681
X142.875Y-107.6
X142.99Y-123.826
X143.58Y-115.06
X143.605Y-97.346
X143.73Y-98.722
X143.74Y-111.2
X143.975Y-104.875
X143.975Y-105.85
X144.0Y-130.25
X144.19Y-95.395
X144.245Y-96.153
X144.245Y-96.913
X144.266Y-98.183
X144.3Y-78.25
X144.375Y-92.475
X144.7Y-81.225
X144.91Y-116.97
X145.142Y-92.607
X145.174Y-98.773
X145.2Y-111.2
X145.249Y-95.395
X145.32Y-115.09
X145.625Y-104.07
X145.706Y-121.12
X145.851Y-92.326
X145.873Y-95.829
X145.939Y-96.586
X145.95Y-129.7
X146.05Y-98.899
X146.07Y-123.826
X146.12Y-119.55
X146.4Y-86.23
X146.5Y-107.575
X146.631Y-95.776
X146.65Y-62.25
X146.918Y-123.826
X147.2Y-130.025
X147.23Y-94.097
X147.546Y-93.406
X147.935Y-84.635
X147.948Y-119.544
X147.959Y-103.207
X148.1Y-108.475
X148.27Y-52.63
X148.27Y-60.61
X148.27Y-68.61
X148.27Y-72.61
X148.4Y-93.4
X148.695Y-94.1
X148.746Y-122.096
X148.772Y-104.525
X148.995Y-95.776
X149.0Y-130.25
X149.009Y-82.235
X149.046Y-59.854
X149.048Y-125.752
X149.05Y-54.25
X149.05Y-57.719
X149.05Y-66.25
X149.05Y-73.49
X149.05Y-74.25
X149.354Y-122.704
X149.434Y-90.38
X149.434Y-91.139
X149.434Y-91.899
X149.53Y-55.3
X149.53Y-57.1
X149.585Y-126.289
X149.588Y-59.321
X149.756Y-95.884
X150.0Y-130.25
X150.082Y-62.65
X150.082Y-64.93
X150.231Y-115.958
X150.457Y-61.026
X150.65Y-96.325
X150.683Y-81.087
X150.711Y-124.089
X150.75Y-94.85
X150.76Y-90.129
X150.76Y-90.889
X150.767Y-61.719
X150.767Y-67.311
X151.069Y-68.2
X151.12Y-99.64
X151.233Y-121.249
X151.249Y-124.626
X151.626Y-86.851
X151.893Y-75.888
X151.896Y-79.826
X151.993Y-106.241
X151.993Y-103.527
X152.0Y-130.25
X152.131Y-68.975
X152.164Y-86.314
X152.3Y-65.49
X152.31Y-63.461
X152.521Y-104.073
X152.522Y-73.657
X152.596Y-85.673
X152.602Y-70.37
X152.656Y-80.35
X152.74Y-78.51
X152.75Y-84.521
X153.03Y-98.95
X153.06Y-65.496
X153.067Y-104.601
X153.22Y-83.761
X153.362Y-67.14
X153.6Y-105.142
X153.664Y-67.94
X153.76Y-63.912
X153.762Y-71.14
X154.26Y-94.9
X154.278Y-102.769
X154.87Y-83.96
X154.922Y-84.718
X155.34Y-85.715
X155.34Y-86.775
X155.4Y-75.8
X155.715Y-117.745
X155.72Y-119.25
X155.75Y-98.801
X155.99Y-74.79
X156.07Y-90.32
X156.078Y-89.098
X156.19Y-97.55
X156.75Y-74.79
X157.43Y-50.1
X157.43Y-58.93
X157.43Y-61.48
X157.73Y-50.949
X157.73Y-52.011
X157.76Y-52.97
X157.79Y-75.8
X157.81Y-57.99
X158.09Y-63.5
X158.146Y-62.266
X158.15Y-103.62
X158.5Y-95.54
X158.871Y-62.04
X159.045Y-74.862
X159.06Y-84.613
X159.799Y-74.769
X159.8Y-63.5
X159.904Y-130.246
X160.2Y-78.631
X160.22Y-89.65
X160.263Y-80.662
X160.27Y-98.12
X160.409Y-62.738
X160.41Y-56.19
X160.794Y-79.289
X160.798Y-81.201
X160.859Y-75.964
X161.0Y-130.25
X161.021Y-92.111
X161.049Y-82.02
X161.159Y-63.49
X161.164Y-75.22
X161.17Y-84.44
X161.44Y-59.47
X161.44Y-60.23
X161.44Y-61.172
X161.465Y-62.05
X161.691Y-54.87
X161.829Y-92.125
X162.175Y-66.775
X162.224Y-75.644
X162.225Y-62.05
X162.825Y-55.575
X162.826Y-63.51
X162.891Y-92.127
X162.984Y-62.05
X163.05Y-130.2
X163.107Y-61.172
X163.31Y-96.63
X163.509Y-63.179
X163.612Y-59.59
X163.88Y-60.641
X163.94Y-77.94
X164.469Y-57.23
X164.49Y-90.463
X164.491Y-92.969
X164.759Y-82.295
X164.771Y-61.17
X164.771Y-62.65
X164.84Y-84.77
X165.03Y-70.34
X165.03Y-71.14
X165.03Y-72.471
X165.05Y-68.74
X165.55Y-88.45
X165.55Y-95.79
X165.775Y-72.286
X165.809Y-63.029
X165.833Y-57.23
X165.833Y-61.17
T2
X159.92Y-50.19
X159.92Y-52.73
X162.46Y-50.19
X162.46Y-52.73
X165.0Y-50.19
X165.0Y-52.73
T3
X157.7Y-110.32
X157.7Y-120.48
X157.7Y-128.1
X165.32Y-110.32
T4
X152.5Y-47.725
M30
