G04 #@! TF.GenerationSoftware,KiCad,Pcbnew,8.0.6*
G04 #@! TF.CreationDate,2024-11-19T22:41:57-05:00*
G04 #@! TF.ProjectId,brakes,6272616b-6573-42e6-9b69-6361645f7063,2*
G04 #@! TF.SameCoordinates,Original*
G04 #@! TF.FileFunction,Soldermask,Bot*
G04 #@! TF.FilePolarity,Negative*
%FSLAX46Y46*%
G04 Gerber Fmt 4.6, Leading zero omitted, Abs format (unit mm)*
G04 Created by KiCad (PCBNEW 8.0.6) date 2024-11-19 22:41:57*
%MOMM*%
%LPD*%
G01*
G04 APERTURE LIST*
%ADD10C,0.000000*%
%ADD11C,5.703199*%
%ADD12C,7.453198*%
%ADD13R,1.700000X1.700000*%
%ADD14O,1.700000X1.700000*%
%ADD15C,1.800000*%
%ADD16O,0.700000X3.200000*%
%ADD17O,0.700000X4.300000*%
G04 APERTURE END LIST*
D10*
G36*
X141631751Y-48700000D02*
G01*
X142361352Y-48700000D01*
X142890070Y-48700000D01*
X146398176Y-48700000D01*
X146398176Y-56700058D01*
X138400000Y-56700058D01*
X138400000Y-55348474D01*
X141797548Y-55348474D01*
X141797560Y-55349942D01*
X141797705Y-55351356D01*
X141797976Y-55352713D01*
X141798368Y-55354011D01*
X141798872Y-55355246D01*
X141799483Y-55356416D01*
X141800193Y-55357516D01*
X141800995Y-55358545D01*
X141801883Y-55359498D01*
X141802849Y-55360373D01*
X141803887Y-55361167D01*
X141804990Y-55361877D01*
X141806150Y-55362499D01*
X141807362Y-55363030D01*
X141808617Y-55363468D01*
X141809910Y-55363809D01*
X141811233Y-55364050D01*
X141812580Y-55364188D01*
X141813943Y-55364219D01*
X141815316Y-55364142D01*
X141816691Y-55363952D01*
X141818063Y-55363647D01*
X141819423Y-55363224D01*
X141820765Y-55362679D01*
X141822083Y-55362009D01*
X141823369Y-55361211D01*
X141824616Y-55360283D01*
X141825818Y-55359220D01*
X141826968Y-55358020D01*
X141828058Y-55356680D01*
X141828058Y-55358562D01*
X141916907Y-55230845D01*
X142049191Y-55049440D01*
X142220369Y-54829097D01*
X142319124Y-54708934D01*
X142425899Y-54584567D01*
X142540126Y-54457841D01*
X142661238Y-54330600D01*
X142788667Y-54204688D01*
X142921845Y-54081947D01*
X143060205Y-53964223D01*
X143203178Y-53853358D01*
X143276217Y-53801075D01*
X143350197Y-53751197D01*
X143425047Y-53703957D01*
X143500695Y-53659584D01*
X143501730Y-53658878D01*
X143502719Y-53658166D01*
X143503659Y-53657443D01*
X143504546Y-53656703D01*
X143505378Y-53655942D01*
X143506152Y-53655152D01*
X143506865Y-53654330D01*
X143507198Y-53653905D01*
X143507515Y-53653469D01*
X143507815Y-53653023D01*
X143508099Y-53652564D01*
X143508365Y-53652094D01*
X143508614Y-53651610D01*
X143508844Y-53651112D01*
X143509057Y-53650600D01*
X143509251Y-53650073D01*
X143509426Y-53649530D01*
X143509581Y-53648970D01*
X143509717Y-53648394D01*
X143509833Y-53647799D01*
X143509929Y-53647186D01*
X143510004Y-53646553D01*
X143510058Y-53645900D01*
X143510091Y-53645227D01*
X143510102Y-53644533D01*
X143510102Y-53390532D01*
X143509760Y-53389805D01*
X143508779Y-53387887D01*
X143508069Y-53386605D01*
X143507225Y-53385175D01*
X143506253Y-53383645D01*
X143505163Y-53382066D01*
X143503963Y-53380487D01*
X143502660Y-53378957D01*
X143501974Y-53378226D01*
X143501265Y-53377527D01*
X143500534Y-53376864D01*
X143499783Y-53376245D01*
X143499013Y-53375676D01*
X143498225Y-53375162D01*
X143497419Y-53374710D01*
X143496597Y-53374327D01*
X143495760Y-53374018D01*
X143494909Y-53373789D01*
X143494045Y-53373648D01*
X143493169Y-53373599D01*
X143458659Y-53370110D01*
X143425053Y-53364739D01*
X143392462Y-53357720D01*
X143360995Y-53349287D01*
X143330762Y-53339674D01*
X143301875Y-53329116D01*
X143274443Y-53317847D01*
X143248576Y-53306101D01*
X143224385Y-53294112D01*
X143201980Y-53282116D01*
X143162969Y-53259035D01*
X143132424Y-53238732D01*
X143111228Y-53223081D01*
X143109861Y-53222000D01*
X143108582Y-53220872D01*
X143107391Y-53219695D01*
X143106289Y-53218465D01*
X143105275Y-53217180D01*
X143104801Y-53216516D01*
X143104349Y-53215838D01*
X143103919Y-53215144D01*
X143103511Y-53214434D01*
X143103125Y-53213709D01*
X143102761Y-53212968D01*
X143102419Y-53212210D01*
X143102100Y-53211435D01*
X143101802Y-53210643D01*
X143101526Y-53209833D01*
X143101041Y-53208160D01*
X143100644Y-53206412D01*
X143100336Y-53204587D01*
X143100115Y-53202682D01*
X143099983Y-53200695D01*
X143099939Y-53198622D01*
X143102641Y-53095146D01*
X143103033Y-52993558D01*
X143101187Y-52893851D01*
X143097175Y-52796014D01*
X143091069Y-52700041D01*
X143082939Y-52605922D01*
X143072859Y-52513650D01*
X143060898Y-52423216D01*
X143031625Y-52247830D01*
X142995693Y-52079699D01*
X142953676Y-51918755D01*
X142906146Y-51764933D01*
X142905563Y-51763235D01*
X142904878Y-51761667D01*
X142904097Y-51760227D01*
X142903228Y-51758914D01*
X142902280Y-51757724D01*
X142901260Y-51756656D01*
X142900174Y-51755709D01*
X142899032Y-51754879D01*
X142897840Y-51754165D01*
X142896606Y-51753564D01*
X142895337Y-51753075D01*
X142894042Y-51752696D01*
X142892727Y-51752424D01*
X142891400Y-51752258D01*
X142890070Y-51752195D01*
X142888743Y-51752233D01*
X142887426Y-51752370D01*
X142886129Y-51752605D01*
X142884858Y-51752935D01*
X142883620Y-51753357D01*
X142882424Y-51753871D01*
X142881276Y-51754474D01*
X142880186Y-51755163D01*
X142879159Y-51755937D01*
X142878204Y-51756794D01*
X142877328Y-51757731D01*
X142876539Y-51758747D01*
X142875844Y-51759840D01*
X142875251Y-51761006D01*
X142874768Y-51762246D01*
X142874402Y-51763555D01*
X142874161Y-51764933D01*
X142663435Y-53524118D01*
X142663446Y-53524526D01*
X142663523Y-53525617D01*
X142663607Y-53526357D01*
X142663733Y-53527193D01*
X142663908Y-53528102D01*
X142664141Y-53529057D01*
X142664440Y-53530034D01*
X142664617Y-53530523D01*
X142664813Y-53531008D01*
X142665030Y-53531486D01*
X142665269Y-53531955D01*
X142665531Y-53532410D01*
X142665816Y-53532849D01*
X142666127Y-53533269D01*
X142666463Y-53533666D01*
X142666826Y-53534038D01*
X142667217Y-53534381D01*
X142667636Y-53534693D01*
X142668086Y-53534970D01*
X142668567Y-53535209D01*
X142669080Y-53535406D01*
X142734931Y-53552340D01*
X142746683Y-53560402D01*
X142754908Y-53571064D01*
X142759805Y-53584147D01*
X142761574Y-53599473D01*
X142760412Y-53616863D01*
X142756520Y-53636138D01*
X142750096Y-53657122D01*
X142741340Y-53679634D01*
X142717628Y-53728531D01*
X142686976Y-53781403D01*
X142650977Y-53836821D01*
X142611224Y-53893358D01*
X142569311Y-53949587D01*
X142526830Y-54004079D01*
X142446536Y-54102144D01*
X142349228Y-54214621D01*
X142343370Y-54221101D01*
X142337447Y-54227141D01*
X142331468Y-54232758D01*
X142325445Y-54237963D01*
X142319389Y-54242772D01*
X142313311Y-54247198D01*
X142307222Y-54251255D01*
X142301133Y-54254956D01*
X142295055Y-54258315D01*
X142288999Y-54261346D01*
X142276997Y-54266480D01*
X142265216Y-54270467D01*
X142253743Y-54273418D01*
X142242667Y-54275442D01*
X142232077Y-54276651D01*
X142222059Y-54277155D01*
X142212703Y-54277063D01*
X142204097Y-54276486D01*
X142196328Y-54275534D01*
X142189486Y-54274318D01*
X142183658Y-54272947D01*
X142162091Y-54267533D01*
X142141828Y-54261912D01*
X142122849Y-54256142D01*
X142105136Y-54250281D01*
X142088668Y-54244387D01*
X142073426Y-54238518D01*
X142046545Y-54227086D01*
X142024338Y-54216447D01*
X142006652Y-54207066D01*
X141984221Y-54193925D01*
X141982259Y-54192735D01*
X141980260Y-54191638D01*
X141978228Y-54190638D01*
X141976169Y-54189739D01*
X141974090Y-54188947D01*
X141971996Y-54188265D01*
X141969893Y-54187699D01*
X141967787Y-54187252D01*
X141965684Y-54186928D01*
X141963589Y-54186734D01*
X141961509Y-54186672D01*
X141959449Y-54186748D01*
X141957416Y-54186966D01*
X141955414Y-54187330D01*
X141953450Y-54187845D01*
X141951530Y-54188516D01*
X141949660Y-54189346D01*
X141947845Y-54190341D01*
X141946091Y-54191504D01*
X141944405Y-54192841D01*
X141942791Y-54194355D01*
X141941257Y-54196052D01*
X141939807Y-54197936D01*
X141938448Y-54200010D01*
X141937185Y-54202281D01*
X141936025Y-54204751D01*
X141934973Y-54207426D01*
X141934035Y-54210311D01*
X141933216Y-54213409D01*
X141932524Y-54216725D01*
X141931963Y-54220263D01*
X141931539Y-54224029D01*
X141797954Y-55345391D01*
X141797678Y-55346956D01*
X141797548Y-55348474D01*
X138400000Y-55348474D01*
X138400000Y-53290814D01*
X142040665Y-53290814D01*
X142040673Y-53291141D01*
X142040724Y-53292019D01*
X142040780Y-53292617D01*
X142040864Y-53293294D01*
X142040981Y-53294032D01*
X142041136Y-53294812D01*
X142041335Y-53295614D01*
X142041584Y-53296418D01*
X142041729Y-53296815D01*
X142041888Y-53297206D01*
X142042063Y-53297587D01*
X142042253Y-53297958D01*
X142042460Y-53298314D01*
X142042684Y-53298654D01*
X142042926Y-53298976D01*
X142043186Y-53299277D01*
X142043466Y-53299554D01*
X142043766Y-53299805D01*
X142044087Y-53300029D01*
X142044429Y-53300221D01*
X142094876Y-53324019D01*
X142146028Y-53347376D01*
X142197887Y-53370203D01*
X142250451Y-53392414D01*
X142303720Y-53413918D01*
X142357695Y-53434629D01*
X142412376Y-53454458D01*
X142467762Y-53473317D01*
X142468819Y-53473626D01*
X142469868Y-53473847D01*
X142470900Y-53473979D01*
X142471907Y-53474023D01*
X142472881Y-53473979D01*
X142473353Y-53473924D01*
X142473814Y-53473847D01*
X142474263Y-53473747D01*
X142474698Y-53473626D01*
X142475118Y-53473483D01*
X142475523Y-53473317D01*
X142475911Y-53473130D01*
X142476282Y-53472921D01*
X142476635Y-53472689D01*
X142476967Y-53472435D01*
X142477279Y-53472160D01*
X142477569Y-53471862D01*
X142477837Y-53471542D01*
X142478081Y-53471201D01*
X142478300Y-53470837D01*
X142478493Y-53470451D01*
X142478659Y-53470043D01*
X142478797Y-53469613D01*
X142478907Y-53469161D01*
X142478986Y-53468687D01*
X142479034Y-53468191D01*
X142479051Y-53467673D01*
X142697303Y-51644518D01*
X142701361Y-51603208D01*
X142703667Y-51561868D01*
X142704231Y-51520556D01*
X142703064Y-51479329D01*
X142700178Y-51438246D01*
X142695583Y-51397364D01*
X142689290Y-51356741D01*
X142681310Y-51316434D01*
X142671654Y-51276503D01*
X142660334Y-51237004D01*
X142647361Y-51197996D01*
X142632744Y-51159537D01*
X142616496Y-51121683D01*
X142598628Y-51084494D01*
X142579150Y-51048027D01*
X142558073Y-51012340D01*
X142536028Y-50976085D01*
X142513652Y-50940668D01*
X142490968Y-50906044D01*
X142467997Y-50872170D01*
X142444762Y-50839001D01*
X142421284Y-50806494D01*
X142397585Y-50774605D01*
X142373688Y-50743288D01*
X142372945Y-50742279D01*
X142372130Y-50741368D01*
X142371250Y-50740554D01*
X142370311Y-50739834D01*
X142369317Y-50739208D01*
X142368276Y-50738675D01*
X142367193Y-50738232D01*
X142366074Y-50737879D01*
X142364924Y-50737614D01*
X142363750Y-50737436D01*
X142362557Y-50737344D01*
X142361352Y-50737335D01*
X142360139Y-50737409D01*
X142358926Y-50737565D01*
X142357717Y-50737800D01*
X142356519Y-50738114D01*
X142355338Y-50738505D01*
X142354179Y-50738972D01*
X142353048Y-50739514D01*
X142351952Y-50740128D01*
X142350895Y-50740814D01*
X142349884Y-50741570D01*
X142348925Y-50742396D01*
X142348023Y-50743288D01*
X142347185Y-50744247D01*
X142346416Y-50745271D01*
X142345722Y-50746358D01*
X142345109Y-50747507D01*
X142344583Y-50748717D01*
X142344150Y-50749986D01*
X142343815Y-50751313D01*
X142343584Y-50752696D01*
X142040665Y-53290814D01*
X138400000Y-53290814D01*
X138400000Y-52692848D01*
X141288709Y-52692848D01*
X141289256Y-52706056D01*
X141290572Y-52719138D01*
X141292649Y-52732064D01*
X141295478Y-52744809D01*
X141299051Y-52757345D01*
X141303360Y-52769644D01*
X141308397Y-52781677D01*
X141314153Y-52793419D01*
X141320620Y-52804841D01*
X141327790Y-52815916D01*
X141335655Y-52826616D01*
X141344205Y-52836914D01*
X141353434Y-52846782D01*
X141363333Y-52856192D01*
X141414283Y-52900535D01*
X141468255Y-52944592D01*
X141525092Y-52988252D01*
X141584642Y-53031405D01*
X141646749Y-53073940D01*
X141711260Y-53115748D01*
X141778019Y-53156718D01*
X141846873Y-53196740D01*
X141847408Y-53197071D01*
X141847952Y-53197358D01*
X141848503Y-53197604D01*
X141849060Y-53197809D01*
X141849621Y-53197974D01*
X141850185Y-53198100D01*
X141850749Y-53198188D01*
X141851312Y-53198239D01*
X141851873Y-53198254D01*
X141852429Y-53198235D01*
X141852979Y-53198182D01*
X141853521Y-53198096D01*
X141854053Y-53197978D01*
X141854574Y-53197830D01*
X141855082Y-53197652D01*
X141855575Y-53197445D01*
X141856052Y-53197211D01*
X141856510Y-53196951D01*
X141856948Y-53196664D01*
X141857365Y-53196354D01*
X141857758Y-53196020D01*
X141858126Y-53195663D01*
X141858467Y-53195286D01*
X141858779Y-53194888D01*
X141859062Y-53194470D01*
X141859312Y-53194035D01*
X141859528Y-53193582D01*
X141859709Y-53193113D01*
X141859853Y-53192629D01*
X141859958Y-53192130D01*
X141860022Y-53191619D01*
X141860043Y-53191095D01*
X142142266Y-50841125D01*
X142145910Y-50799164D01*
X142146992Y-50757315D01*
X142145548Y-50715692D01*
X142141619Y-50674408D01*
X142135242Y-50633577D01*
X142126457Y-50593310D01*
X142115301Y-50553721D01*
X142101814Y-50514923D01*
X142086034Y-50477030D01*
X142067999Y-50440153D01*
X142047748Y-50404406D01*
X142025320Y-50369903D01*
X142000753Y-50336755D01*
X141974087Y-50305076D01*
X141945358Y-50274979D01*
X141914607Y-50246577D01*
X141867386Y-50205729D01*
X141823296Y-50169201D01*
X141782646Y-50136908D01*
X141745744Y-50108759D01*
X141712899Y-50084667D01*
X141684419Y-50064544D01*
X141641792Y-50035851D01*
X141641792Y-50035852D01*
X141640723Y-50035190D01*
X141639635Y-50034615D01*
X141638532Y-50034124D01*
X141637415Y-50033717D01*
X141636289Y-50033390D01*
X141635157Y-50033144D01*
X141634021Y-50032975D01*
X141632884Y-50032882D01*
X141631751Y-50032864D01*
X141630623Y-50032919D01*
X141629504Y-50033044D01*
X141628397Y-50033239D01*
X141627306Y-50033501D01*
X141626233Y-50033829D01*
X141625181Y-50034221D01*
X141624153Y-50034676D01*
X141623153Y-50035191D01*
X141622184Y-50035765D01*
X141621248Y-50036396D01*
X141620350Y-50037083D01*
X141619491Y-50037823D01*
X141618675Y-50038615D01*
X141617906Y-50039458D01*
X141617186Y-50040349D01*
X141616518Y-50041288D01*
X141615905Y-50042271D01*
X141615352Y-50043298D01*
X141614860Y-50044366D01*
X141614432Y-50045474D01*
X141614073Y-50046621D01*
X141613784Y-50047804D01*
X141613570Y-50049022D01*
X141289955Y-52666162D01*
X141288939Y-52679541D01*
X141288709Y-52692848D01*
X138400000Y-52692848D01*
X138400000Y-48700000D01*
X141631751Y-48700000D01*
G37*
D11*
X152500000Y-47725000D03*
D12*
X152500000Y-48725000D03*
D13*
X165000000Y-50190000D03*
D14*
X165000000Y-52730000D03*
X162460000Y-50190000D03*
X162460000Y-52730000D03*
X159920000Y-50190000D03*
X159920000Y-52730000D03*
D15*
X157700000Y-110320000D03*
X157700000Y-120480000D03*
X157700000Y-128100000D03*
X165320000Y-110320000D03*
D16*
X143000000Y-135700000D03*
D17*
X144000000Y-136250000D03*
X145000000Y-136250000D03*
X146000000Y-136250000D03*
X147000000Y-136250000D03*
X148000000Y-136250000D03*
X149000000Y-136250000D03*
X150000000Y-136250000D03*
X151000000Y-136250000D03*
X152000000Y-136250000D03*
X153000000Y-136250000D03*
X156000000Y-136250000D03*
X157000000Y-136250000D03*
X158000000Y-136250000D03*
X159000000Y-136250000D03*
X160000000Y-136250000D03*
X161000000Y-136250000D03*
X162000000Y-136250000D03*
M02*
