G04 #@! TF.GenerationSoftware,KiCad,Pcbnew,5.1.4-e60b266~84~ubuntu18.04.1*
G04 #@! TF.CreationDate,2019-11-21T00:50:37-05:00*
G04 #@! TF.ProjectId,sensing_module_interface,73656e73-696e-4675-9f6d-6f64756c655f,rev?*
G04 #@! TF.SameCoordinates,Original*
G04 #@! TF.FileFunction,Legend,Bot*
G04 #@! TF.FilePolarity,Positive*
%FSLAX46Y46*%
G04 Gerber Fmt 4.6, Leading zero omitted, Abs format (unit mm)*
G04 Created by KiCad (PCBNEW 5.1.4-e60b266~84~ubuntu18.04.1) date 2019-11-21 00:50:37*
%MOMM*%
%LPD*%
G04 APERTURE LIST*
%ADD10C,0.150000*%
G04 APERTURE END LIST*
D10*
X90678000Y-127508000D02*
X90678000Y-135636000D01*
X90678000Y-135636000D02*
X98298000Y-135636000D01*
X98298000Y-135636000D02*
X98298000Y-127508000D01*
X98298000Y-127508000D02*
X90678000Y-127508000D01*
X108204000Y-61976000D02*
X100076000Y-61976000D01*
X100076000Y-61976000D02*
X100076000Y-69596000D01*
X100076000Y-69596000D02*
X108204000Y-69596000D01*
X108204000Y-69596000D02*
X108204000Y-61976000D01*
X115920000Y-84120000D02*
X168920000Y-84120000D01*
X168920000Y-84120000D02*
X168920000Y-62120000D01*
X168920000Y-62120000D02*
X115920000Y-62120000D01*
X115920000Y-62120000D02*
X115920000Y-84120000D01*
X98298000Y-61468000D02*
X90678000Y-61468000D01*
X98298000Y-69596000D02*
X98298000Y-61468000D01*
X90678000Y-69596000D02*
X98298000Y-69596000D01*
X90678000Y-61468000D02*
X90678000Y-69596000D01*
X108204000Y-82804000D02*
X108204000Y-75184000D01*
X100076000Y-82804000D02*
X108204000Y-82804000D01*
X100076000Y-75184000D02*
X100076000Y-82804000D01*
X108204000Y-75184000D02*
X100076000Y-75184000D01*
X90678000Y-74676000D02*
X90678000Y-82804000D01*
X90678000Y-82804000D02*
X98298000Y-82804000D01*
X98298000Y-82804000D02*
X98298000Y-74676000D01*
X98298000Y-74676000D02*
X90678000Y-74676000D01*
X107696000Y-96012000D02*
X107696000Y-87884000D01*
X107696000Y-87884000D02*
X100076000Y-87884000D01*
X100076000Y-87884000D02*
X100076000Y-96012000D01*
X100076000Y-96012000D02*
X107696000Y-96012000D01*
X98272600Y-87884000D02*
X90652600Y-87884000D01*
X98272600Y-96012000D02*
X98272600Y-87884000D01*
X90652600Y-96012000D02*
X98272600Y-96012000D01*
X90652600Y-87884000D02*
X90652600Y-96012000D01*
X100076000Y-109220000D02*
X107696000Y-109220000D01*
X100076000Y-101092000D02*
X100076000Y-109220000D01*
X107696000Y-101092000D02*
X100076000Y-101092000D01*
X107696000Y-109220000D02*
X107696000Y-101092000D01*
X90678000Y-101092000D02*
X90678000Y-109220000D01*
X90678000Y-109220000D02*
X98298000Y-109220000D01*
X98298000Y-109220000D02*
X98298000Y-101092000D01*
X98298000Y-101092000D02*
X90678000Y-101092000D01*
X100076000Y-122428000D02*
X107696000Y-122428000D01*
X100076000Y-114300000D02*
X100076000Y-122428000D01*
X107696000Y-114300000D02*
X100076000Y-114300000D01*
X107696000Y-122428000D02*
X107696000Y-114300000D01*
X90678000Y-114300000D02*
X90678000Y-122428000D01*
X90678000Y-122428000D02*
X98298000Y-122428000D01*
X98298000Y-122428000D02*
X98298000Y-114300000D01*
X98298000Y-114300000D02*
X90678000Y-114300000D01*
X100076000Y-135636000D02*
X107696000Y-135636000D01*
X100076000Y-127508000D02*
X100076000Y-135636000D01*
X107696000Y-127508000D02*
X100076000Y-127508000D01*
X107696000Y-135636000D02*
X107696000Y-127508000D01*
X89114380Y-128730476D02*
X89828666Y-128730476D01*
X89971523Y-128682857D01*
X90066761Y-128587619D01*
X90114380Y-128444761D01*
X90114380Y-128349523D01*
X90114380Y-129730476D02*
X90114380Y-129159047D01*
X90114380Y-129444761D02*
X89114380Y-129444761D01*
X89257238Y-129349523D01*
X89352476Y-129254285D01*
X89400095Y-129159047D01*
X89114380Y-130063809D02*
X89114380Y-130682857D01*
X89495333Y-130349523D01*
X89495333Y-130492380D01*
X89542952Y-130587619D01*
X89590571Y-130635238D01*
X89685809Y-130682857D01*
X89923904Y-130682857D01*
X90019142Y-130635238D01*
X90066761Y-130587619D01*
X90114380Y-130492380D01*
X90114380Y-130206666D01*
X90066761Y-130111428D01*
X90019142Y-130063809D01*
X106505333Y-60412380D02*
X106505333Y-61126666D01*
X106552952Y-61269523D01*
X106648190Y-61364761D01*
X106791047Y-61412380D01*
X106886285Y-61412380D01*
X106076761Y-60507619D02*
X106029142Y-60460000D01*
X105933904Y-60412380D01*
X105695809Y-60412380D01*
X105600571Y-60460000D01*
X105552952Y-60507619D01*
X105505333Y-60602857D01*
X105505333Y-60698095D01*
X105552952Y-60840952D01*
X106124380Y-61412380D01*
X105505333Y-61412380D01*
X118443333Y-60412380D02*
X118443333Y-61126666D01*
X118490952Y-61269523D01*
X118586190Y-61364761D01*
X118729047Y-61412380D01*
X118824285Y-61412380D01*
X117443333Y-61412380D02*
X118014761Y-61412380D01*
X117729047Y-61412380D02*
X117729047Y-60412380D01*
X117824285Y-60555238D01*
X117919523Y-60650476D01*
X118014761Y-60698095D01*
X89114380Y-63166666D02*
X89828666Y-63166666D01*
X89971523Y-63119047D01*
X90066761Y-63023809D01*
X90114380Y-62880952D01*
X90114380Y-62785714D01*
X89114380Y-63547619D02*
X89114380Y-64166666D01*
X89495333Y-63833333D01*
X89495333Y-63976190D01*
X89542952Y-64071428D01*
X89590571Y-64119047D01*
X89685809Y-64166666D01*
X89923904Y-64166666D01*
X90019142Y-64119047D01*
X90066761Y-64071428D01*
X90114380Y-63976190D01*
X90114380Y-63690476D01*
X90066761Y-63595238D01*
X90019142Y-63547619D01*
X106505333Y-73620380D02*
X106505333Y-74334666D01*
X106552952Y-74477523D01*
X106648190Y-74572761D01*
X106791047Y-74620380D01*
X106886285Y-74620380D01*
X105600571Y-73953714D02*
X105600571Y-74620380D01*
X105838666Y-73572761D02*
X106076761Y-74287047D01*
X105457714Y-74287047D01*
X89114380Y-76374666D02*
X89828666Y-76374666D01*
X89971523Y-76327047D01*
X90066761Y-76231809D01*
X90114380Y-76088952D01*
X90114380Y-75993714D01*
X89114380Y-77327047D02*
X89114380Y-76850857D01*
X89590571Y-76803238D01*
X89542952Y-76850857D01*
X89495333Y-76946095D01*
X89495333Y-77184190D01*
X89542952Y-77279428D01*
X89590571Y-77327047D01*
X89685809Y-77374666D01*
X89923904Y-77374666D01*
X90019142Y-77327047D01*
X90066761Y-77279428D01*
X90114380Y-77184190D01*
X90114380Y-76946095D01*
X90066761Y-76850857D01*
X90019142Y-76803238D01*
X108164380Y-93646666D02*
X108878666Y-93646666D01*
X109021523Y-93599047D01*
X109116761Y-93503809D01*
X109164380Y-93360952D01*
X109164380Y-93265714D01*
X108164380Y-94551428D02*
X108164380Y-94360952D01*
X108212000Y-94265714D01*
X108259619Y-94218095D01*
X108402476Y-94122857D01*
X108592952Y-94075238D01*
X108973904Y-94075238D01*
X109069142Y-94122857D01*
X109116761Y-94170476D01*
X109164380Y-94265714D01*
X109164380Y-94456190D01*
X109116761Y-94551428D01*
X109069142Y-94599047D01*
X108973904Y-94646666D01*
X108735809Y-94646666D01*
X108640571Y-94599047D01*
X108592952Y-94551428D01*
X108545333Y-94456190D01*
X108545333Y-94265714D01*
X108592952Y-94170476D01*
X108640571Y-94122857D01*
X108735809Y-94075238D01*
X89088980Y-89582666D02*
X89803266Y-89582666D01*
X89946123Y-89535047D01*
X90041361Y-89439809D01*
X90088980Y-89296952D01*
X90088980Y-89201714D01*
X89088980Y-89963619D02*
X89088980Y-90630285D01*
X90088980Y-90201714D01*
X108164380Y-106854666D02*
X108878666Y-106854666D01*
X109021523Y-106807047D01*
X109116761Y-106711809D01*
X109164380Y-106568952D01*
X109164380Y-106473714D01*
X108592952Y-107473714D02*
X108545333Y-107378476D01*
X108497714Y-107330857D01*
X108402476Y-107283238D01*
X108354857Y-107283238D01*
X108259619Y-107330857D01*
X108212000Y-107378476D01*
X108164380Y-107473714D01*
X108164380Y-107664190D01*
X108212000Y-107759428D01*
X108259619Y-107807047D01*
X108354857Y-107854666D01*
X108402476Y-107854666D01*
X108497714Y-107807047D01*
X108545333Y-107759428D01*
X108592952Y-107664190D01*
X108592952Y-107473714D01*
X108640571Y-107378476D01*
X108688190Y-107330857D01*
X108783428Y-107283238D01*
X108973904Y-107283238D01*
X109069142Y-107330857D01*
X109116761Y-107378476D01*
X109164380Y-107473714D01*
X109164380Y-107664190D01*
X109116761Y-107759428D01*
X109069142Y-107807047D01*
X108973904Y-107854666D01*
X108783428Y-107854666D01*
X108688190Y-107807047D01*
X108640571Y-107759428D01*
X108592952Y-107664190D01*
X89114380Y-102790666D02*
X89828666Y-102790666D01*
X89971523Y-102743047D01*
X90066761Y-102647809D01*
X90114380Y-102504952D01*
X90114380Y-102409714D01*
X90114380Y-103314476D02*
X90114380Y-103504952D01*
X90066761Y-103600190D01*
X90019142Y-103647809D01*
X89876285Y-103743047D01*
X89685809Y-103790666D01*
X89304857Y-103790666D01*
X89209619Y-103743047D01*
X89162000Y-103695428D01*
X89114380Y-103600190D01*
X89114380Y-103409714D01*
X89162000Y-103314476D01*
X89209619Y-103266857D01*
X89304857Y-103219238D01*
X89542952Y-103219238D01*
X89638190Y-103266857D01*
X89685809Y-103314476D01*
X89733428Y-103409714D01*
X89733428Y-103600190D01*
X89685809Y-103695428D01*
X89638190Y-103743047D01*
X89542952Y-103790666D01*
X108164380Y-119586476D02*
X108878666Y-119586476D01*
X109021523Y-119538857D01*
X109116761Y-119443619D01*
X109164380Y-119300761D01*
X109164380Y-119205523D01*
X109164380Y-120586476D02*
X109164380Y-120015047D01*
X109164380Y-120300761D02*
X108164380Y-120300761D01*
X108307238Y-120205523D01*
X108402476Y-120110285D01*
X108450095Y-120015047D01*
X108164380Y-121205523D02*
X108164380Y-121300761D01*
X108212000Y-121396000D01*
X108259619Y-121443619D01*
X108354857Y-121491238D01*
X108545333Y-121538857D01*
X108783428Y-121538857D01*
X108973904Y-121491238D01*
X109069142Y-121443619D01*
X109116761Y-121396000D01*
X109164380Y-121300761D01*
X109164380Y-121205523D01*
X109116761Y-121110285D01*
X109069142Y-121062666D01*
X108973904Y-121015047D01*
X108783428Y-120967428D01*
X108545333Y-120967428D01*
X108354857Y-121015047D01*
X108259619Y-121062666D01*
X108212000Y-121110285D01*
X108164380Y-121205523D01*
X89114380Y-115522476D02*
X89828666Y-115522476D01*
X89971523Y-115474857D01*
X90066761Y-115379619D01*
X90114380Y-115236761D01*
X90114380Y-115141523D01*
X90114380Y-116522476D02*
X90114380Y-115951047D01*
X90114380Y-116236761D02*
X89114380Y-116236761D01*
X89257238Y-116141523D01*
X89352476Y-116046285D01*
X89400095Y-115951047D01*
X90114380Y-117474857D02*
X90114380Y-116903428D01*
X90114380Y-117189142D02*
X89114380Y-117189142D01*
X89257238Y-117093904D01*
X89352476Y-116998666D01*
X89400095Y-116903428D01*
X108164380Y-132794476D02*
X108878666Y-132794476D01*
X109021523Y-132746857D01*
X109116761Y-132651619D01*
X109164380Y-132508761D01*
X109164380Y-132413523D01*
X109164380Y-133794476D02*
X109164380Y-133223047D01*
X109164380Y-133508761D02*
X108164380Y-133508761D01*
X108307238Y-133413523D01*
X108402476Y-133318285D01*
X108450095Y-133223047D01*
X108259619Y-134175428D02*
X108212000Y-134223047D01*
X108164380Y-134318285D01*
X108164380Y-134556380D01*
X108212000Y-134651619D01*
X108259619Y-134699238D01*
X108354857Y-134746857D01*
X108450095Y-134746857D01*
X108592952Y-134699238D01*
X109164380Y-134127809D01*
X109164380Y-134746857D01*
M02*
