<?xml version="1.0" standalone="no"?>
 <!DOCTYPE svg PUBLIC "-//W3C//DTD SVG 1.1//EN" 
 "http://www.w3.org/Graphics/SVG/1.1/DTD/svg11.dtd"> 
<svg
  xmlns:svg="http://www.w3.org/2000/svg"
  xmlns="http://www.w3.org/2000/svg"
  xmlns:xlink="http://www.w3.org/1999/xlink"
  version="1.1"
  width="14.952980cm" height="8.928100cm" viewBox="0 0 149529800 89281000">
<title>SVG Picture created as m.2_daughter-Edge_Cuts.svg date 2022/10/14 23:56:09 </title>
  <desc>Picture generated by PCBNEW </desc>
<g style="fill:#000000; fill-opacity:1.000000;stroke:#000000; stroke-opacity:1.000000;
stroke-linecap:round; stroke-linejoin:round;"
 transform="translate(0 0) scale(1 1)">
</g>
<g style="fill:#000000; fill-opacity:0.0; 
stroke:#000000; stroke-width:0.000000; stroke-opacity:1; 
stroke-linecap:round; stroke-linejoin:round;">
</g>
<g style="fill:#D0D2CD; fill-opacity:0.0; 
stroke:#D0D2CD; stroke-width:0.000000; stroke-opacity:1; 
stroke-linecap:round; stroke-linejoin:round;">
</g>
<g style="fill:#D0D2CD; fill-opacity:0.0; 
stroke:#D0D2CD; stroke-width:50000.000000; stroke-opacity:1; 
stroke-linecap:round; stroke-linejoin:round;">
<path d="M1147762.000000 64467500.000000 A300000.000000 300000.000000 0.0 0 0 1447762.000000 64767500.000000" />
<path d="M1147762 11867500
L1147762 64467500
" />
<path d="M31147762.000000 11867500.000000 A300000.000000 300000.000000 0.0 0 0 30847762.000000 11567500.000000" />
<path d="M1447762.000000 11567500.000000 A300000.000000 300000.000000 0.0 0 0 1147762.000000 11867500.000000" />
<path d="M31147762 11867500
L31147762 64467500
" />
<path d="M28997762 11567500
L30847762 11567500
" />
<path d="M3297762.000000 11567500.000000 A300000.000000 300000.000000 0.0 0 0 3597762.000000 11267500.000000" />
<path d="M1447762 64767500
L30847762 64767500
" />
<path d="M3297762 11567500
L1447762 11567500
" />
<path d="M28697762.000000 11267500.000000 A300000.000000 300000.000000 0.0 0 0 28997762.000000 11567500.000000" />
<path d="M30847762.000000 64767500.000000 A300000.000000 300000.000000 0.0 0 0 31147762.000000 64467500.000000" />
<path d="M28697762 4767500
L28697762 11267500
" />
<path d="M3597762 4767500
L3597762 11267500
" />
<path d="M3597762 4767500
L9922762 4767500
" />
<path d="M9922762 7667500
L9922762 4767500
" />
<path d="M11122762 7667500
L11122762 4767500
" />
<path d="M11122762 4767500
L28697762 4767500
" />
<path d="M9922762.000000 7667500.000000 A600000.000000 600000.000000 0.0 0 0 11122762.000000 7667500.000000" />
<g >
</g>
<g >
</g>
<g >
</g>
<g >
</g>
<g >
</g>
<g >
</g>
<g >
</g>
<g >
</g>
<g >
</g>
<g >
</g>
<g >
</g>
<g >
</g>
<g >
</g>
<g >
</g>
<g >
</g>
<g >
</g>
<g >
</g>
<g >
</g>
<g >
</g>
<g >
</g>
<g >
</g>
<g >
</g>
<g >
</g>
<g >
</g>
<g >
</g>
<g >
</g>
<g >
</g>
<g >
</g>
<g >
</g>
<g >
</g>
<g >
</g>
<g >
</g>
<g >
</g>
<g >
</g>
<g >
</g>
<g >
</g>
<g >
</g>
<g >
</g>
<g >
</g>
<g >
</g>
<g >
</g>
</g> 
</svg>
