G04 #@! TF.GenerationSoftware,KiCad,Pcbnew,5.1.5-52549c5~84~ubuntu18.04.1*
G04 #@! TF.CreationDate,2020-01-28T21:19:39-05:00*
G04 #@! TF.ProjectId,Internal_Acc_Interface,496e7465-726e-4616-9c5f-4163635f496e,rev?*
G04 #@! TF.SameCoordinates,Original*
G04 #@! TF.FileFunction,Legend,Top*
G04 #@! TF.FilePolarity,Positive*
%FSLAX46Y46*%
G04 Gerber Fmt 4.6, Leading zero omitted, Abs format (unit mm)*
G04 Created by KiCad (PCBNEW 5.1.5-52549c5~84~ubuntu18.04.1) date 2020-01-28 21:19:39*
%MOMM*%
%LPD*%
G04 APERTURE LIST*
%ADD10C,0.150000*%
%ADD11C,0.120000*%
G04 APERTURE END LIST*
D10*
X202153648Y-117724404D02*
X202153648Y-117629166D01*
X202201268Y-117533928D01*
X202248887Y-117486309D01*
X202344125Y-117438690D01*
X202534601Y-117391071D01*
X202772696Y-117391071D01*
X202963172Y-117438690D01*
X203058410Y-117486309D01*
X203106029Y-117533928D01*
X203153648Y-117629166D01*
X203153648Y-117724404D01*
X203106029Y-117819642D01*
X203058410Y-117867261D01*
X202963172Y-117914880D01*
X202772696Y-117962500D01*
X202534601Y-117962500D01*
X202344125Y-117914880D01*
X202248887Y-117867261D01*
X202201268Y-117819642D01*
X202153648Y-117724404D01*
X203058410Y-116962500D02*
X203106029Y-116914880D01*
X203153648Y-116962500D01*
X203106029Y-117010119D01*
X203058410Y-116962500D01*
X203153648Y-116962500D01*
X202153648Y-116010119D02*
X202153648Y-116486309D01*
X202629839Y-116533928D01*
X202582220Y-116486309D01*
X202534601Y-116391071D01*
X202534601Y-116152976D01*
X202582220Y-116057738D01*
X202629839Y-116010119D01*
X202725077Y-115962500D01*
X202963172Y-115962500D01*
X203058410Y-116010119D01*
X203106029Y-116057738D01*
X203153648Y-116152976D01*
X203153648Y-116391071D01*
X203106029Y-116486309D01*
X203058410Y-116533928D01*
X202153648Y-115105357D02*
X202153648Y-115295833D01*
X202201268Y-115391071D01*
X202248887Y-115438690D01*
X202391744Y-115533928D01*
X202582220Y-115581547D01*
X202963172Y-115581547D01*
X203058410Y-115533928D01*
X203106029Y-115486309D01*
X203153648Y-115391071D01*
X203153648Y-115200595D01*
X203106029Y-115105357D01*
X203058410Y-115057738D01*
X202963172Y-115010119D01*
X202725077Y-115010119D01*
X202629839Y-115057738D01*
X202582220Y-115105357D01*
X202534601Y-115200595D01*
X202534601Y-115391071D01*
X202582220Y-115486309D01*
X202629839Y-115533928D01*
X202725077Y-115581547D01*
X202153648Y-114105357D02*
X202153648Y-114581547D01*
X202629839Y-114629166D01*
X202582220Y-114581547D01*
X202534601Y-114486309D01*
X202534601Y-114248214D01*
X202582220Y-114152976D01*
X202629839Y-114105357D01*
X202725077Y-114057738D01*
X202963172Y-114057738D01*
X203058410Y-114105357D01*
X203106029Y-114152976D01*
X203153648Y-114248214D01*
X203153648Y-114486309D01*
X203106029Y-114581547D01*
X203058410Y-114629166D01*
X203153648Y-113581547D02*
X203153648Y-113391071D01*
X203106029Y-113295833D01*
X203058410Y-113248214D01*
X202915553Y-113152976D01*
X202725077Y-113105357D01*
X202344125Y-113105357D01*
X202248887Y-113152976D01*
X202201268Y-113200595D01*
X202153648Y-113295833D01*
X202153648Y-113486309D01*
X202201268Y-113581547D01*
X202248887Y-113629166D01*
X202344125Y-113676785D01*
X202582220Y-113676785D01*
X202677458Y-113629166D01*
X202725077Y-113581547D01*
X202772696Y-113486309D01*
X202772696Y-113295833D01*
X202725077Y-113200595D01*
X202677458Y-113152976D01*
X202582220Y-113105357D01*
X203153648Y-111914880D02*
X202486982Y-111914880D01*
X202153648Y-111914880D02*
X202201268Y-111962500D01*
X202248887Y-111914880D01*
X202201268Y-111867261D01*
X202153648Y-111914880D01*
X202248887Y-111914880D01*
X202486982Y-111438690D02*
X203153648Y-111438690D01*
X202582220Y-111438690D02*
X202534601Y-111391071D01*
X202486982Y-111295833D01*
X202486982Y-111152976D01*
X202534601Y-111057738D01*
X202629839Y-111010119D01*
X203153648Y-111010119D01*
D11*
X201431268Y-121650000D02*
X201431268Y-107275000D01*
X81725000Y-121650000D02*
X202017689Y-121650000D01*
X81725000Y-107275000D02*
X202017689Y-107275000D01*
X201431268Y-107275000D02*
X202017689Y-108401504D01*
X201431268Y-107275000D02*
X200844847Y-108401504D01*
X201431268Y-121650000D02*
X202017689Y-120523496D01*
X201431268Y-121650000D02*
X200844847Y-120523496D01*
D10*
X179440877Y-127051521D02*
X179441798Y-126956288D01*
X179490335Y-126861514D01*
X179538411Y-126814357D01*
X179634105Y-126767661D01*
X179825033Y-126721884D01*
X180063117Y-126724184D01*
X180253124Y-126773641D01*
X180347898Y-126822178D01*
X180395054Y-126870255D01*
X180441751Y-126965949D01*
X180440831Y-127061183D01*
X180392294Y-127155956D01*
X180344217Y-127203113D01*
X180248523Y-127249810D01*
X180057596Y-127295586D01*
X179819512Y-127293286D01*
X179629505Y-127243829D01*
X179534731Y-127195292D01*
X179487574Y-127147215D01*
X179440877Y-127051521D01*
X180352958Y-126298393D02*
X180401035Y-126251237D01*
X180448192Y-126299313D01*
X180400115Y-126346470D01*
X180352958Y-126298393D01*
X180448192Y-126299313D01*
X179547613Y-125862021D02*
X179500456Y-125813944D01*
X179453759Y-125718250D01*
X179456060Y-125480166D01*
X179504597Y-125385392D01*
X179552674Y-125338236D01*
X179648367Y-125291539D01*
X179743601Y-125292459D01*
X179885991Y-125341456D01*
X180451872Y-125918379D01*
X180457853Y-125299360D01*
X179463881Y-124670680D02*
X179464801Y-124575446D01*
X179513338Y-124480673D01*
X179561415Y-124433516D01*
X179657108Y-124386819D01*
X179848036Y-124341043D01*
X180086120Y-124343343D01*
X180276127Y-124392800D01*
X180370901Y-124441337D01*
X180418058Y-124489414D01*
X180464754Y-124585108D01*
X180463834Y-124680341D01*
X180415297Y-124775115D01*
X180367220Y-124822272D01*
X180271527Y-124868968D01*
X180080599Y-124914745D01*
X179842515Y-124912445D01*
X179652508Y-124862988D01*
X179557734Y-124814451D01*
X179510577Y-124766374D01*
X179463881Y-124670680D01*
X179470322Y-124004044D02*
X179476303Y-123385026D01*
X179854017Y-123722024D01*
X179855397Y-123579174D01*
X179903934Y-123484400D01*
X179952011Y-123437243D01*
X180047704Y-123390547D01*
X180285789Y-123392847D01*
X180380562Y-123441384D01*
X180427719Y-123489461D01*
X180474416Y-123585154D01*
X180471655Y-123870855D01*
X180423118Y-123965629D01*
X180375041Y-124012786D01*
X179479523Y-123051708D02*
X179485964Y-122385072D01*
X180481777Y-122823285D01*
X180496959Y-121251930D02*
X179830323Y-121245489D01*
X179497006Y-121242269D02*
X179544162Y-121290345D01*
X179592239Y-121243189D01*
X179545082Y-121195112D01*
X179497006Y-121242269D01*
X179592239Y-121243189D01*
X179834924Y-120769321D02*
X180501560Y-120775762D01*
X179930158Y-120770241D02*
X179883001Y-120722164D01*
X179836304Y-120626470D01*
X179837684Y-120483620D01*
X179886221Y-120388846D01*
X179981915Y-120342150D01*
X180505700Y-120347210D01*
D11*
X178775045Y-121195290D02*
X178725045Y-126370290D01*
X176675000Y-121175000D02*
X179361438Y-121200956D01*
X176625000Y-126350000D02*
X179311438Y-126375956D01*
X178725045Y-126370290D02*
X178149535Y-125238173D01*
X178725045Y-126370290D02*
X179322322Y-125249504D01*
X178775045Y-121195290D02*
X178177768Y-122316076D01*
X178775045Y-121195290D02*
X179350555Y-122327407D01*
D10*
X91001000Y-116368000D02*
X91001000Y-120432000D01*
X91001000Y-120432000D02*
X157549000Y-120432000D01*
X157549000Y-116368000D02*
X91001000Y-116368000D01*
X157549000Y-116368000D02*
X157549000Y-120432000D01*
X112726000Y-63768000D02*
X112726000Y-67832000D01*
X112726000Y-67832000D02*
X179274000Y-67832000D01*
X179274000Y-63768000D02*
X112726000Y-63768000D01*
X179274000Y-63768000D02*
X179274000Y-67832000D01*
X110479666Y-114804380D02*
X110479666Y-115518666D01*
X110432047Y-115661523D01*
X110336809Y-115756761D01*
X110193952Y-115804380D01*
X110098714Y-115804380D01*
X110908238Y-114899619D02*
X110955857Y-114852000D01*
X111051095Y-114804380D01*
X111289190Y-114804380D01*
X111384428Y-114852000D01*
X111432047Y-114899619D01*
X111479666Y-114994857D01*
X111479666Y-115090095D01*
X111432047Y-115232952D01*
X110860619Y-115804380D01*
X111479666Y-115804380D01*
X132204666Y-62204380D02*
X132204666Y-62918666D01*
X132157047Y-63061523D01*
X132061809Y-63156761D01*
X131918952Y-63204380D01*
X131823714Y-63204380D01*
X132585619Y-62204380D02*
X133204666Y-62204380D01*
X132871333Y-62585333D01*
X133014190Y-62585333D01*
X133109428Y-62632952D01*
X133157047Y-62680571D01*
X133204666Y-62775809D01*
X133204666Y-63013904D01*
X133157047Y-63109142D01*
X133109428Y-63156761D01*
X133014190Y-63204380D01*
X132728476Y-63204380D01*
X132633238Y-63156761D01*
X132585619Y-63109142D01*
M02*
