M48
INCH,TZ
T1C0.0295
T2C0.0394
T3C0.0402
T4C0.0630
T5C0.0638
T6C0.0945
T7C0.3858
T8C0.0394
%
G90
G05
T1
X52936Y-37619
X52936Y-39588
X54905Y-33682
X54905Y-43525
T2
X31934Y-31170
X31934Y-32351
X33115Y-31170
X33115Y-32351
X34296Y-31170
X34296Y-32351
X16074Y-32940
X16074Y-34121
X17255Y-32940
X17255Y-34121
T3
X43555Y-31238
X43555Y-32616
X43555Y-33994
X43555Y-35372
T4
X31090Y-42190
X31090Y-47190
X32090Y-42190
X32090Y-47190
X33090Y-42190
X33090Y-47190
X34090Y-42190
X34090Y-47190
X35090Y-42190
X35090Y-47190
X36090Y-42190
X36090Y-47190
X41595Y-42220
X41595Y-47220
X44433Y-34683
X42595Y-42220
X42595Y-47220
X43595Y-42220
X43595Y-47220
X44595Y-42220
X44595Y-47220
X45595Y-42220
X45595Y-47220
X46595Y-42220
X46595Y-47220
T5
X23995Y-39595
X23995Y-43886
T6
X25046Y-36645
X25046Y-46645
T7
X33590Y-44690
X44095Y-44720
T8
X30753Y-30800
X35477Y-30800
X15704Y-31759
X15704Y-35302
T0
M30
