G04 #@! TF.GenerationSoftware,KiCad,Pcbnew,(5.1.4-0-10_14)*
G04 #@! TF.CreationDate,2020-01-14T22:28:18-05:00*
G04 #@! TF.ProjectId,throttle,7468726f-7474-46c6-952e-6b696361645f,rev?*
G04 #@! TF.SameCoordinates,Original*
G04 #@! TF.FileFunction,Paste,Top*
G04 #@! TF.FilePolarity,Positive*
%FSLAX46Y46*%
G04 Gerber Fmt 4.6, Leading zero omitted, Abs format (unit mm)*
G04 Created by KiCad (PCBNEW (5.1.4-0-10_14)) date 2020-01-14 22:28:18*
%MOMM*%
%LPD*%
G04 APERTURE LIST*
%ADD10R,0.700000X1.300000*%
%ADD11R,1.250000X1.000000*%
%ADD12R,1.000000X1.250000*%
%ADD13R,1.200000X1.200000*%
%ADD14C,0.550000*%
%ADD15C,0.100000*%
%ADD16R,0.900000X0.800000*%
%ADD17R,0.800000X0.900000*%
%ADD18R,1.300000X0.700000*%
%ADD19C,0.875000*%
%ADD20R,0.650000X1.060000*%
%ADD21C,0.600000*%
G04 APERTURE END LIST*
D10*
X115382000Y-70104000D03*
X117282000Y-70104000D03*
X99068000Y-89716000D03*
X97168000Y-89716000D03*
X106239000Y-89606000D03*
X104339000Y-89606000D03*
D11*
X86244800Y-82994800D03*
X86244800Y-84994800D03*
D12*
X118904000Y-59944000D03*
X120904000Y-59944000D03*
X76758800Y-75341800D03*
X78758800Y-75341800D03*
X77150000Y-73175000D03*
X79150000Y-73175000D03*
D11*
X103682800Y-74603100D03*
X103682800Y-76603100D03*
D12*
X101685600Y-78981300D03*
X99685600Y-78981300D03*
X83675000Y-70400000D03*
X81675000Y-70400000D03*
D13*
X104675000Y-69475000D03*
X106875000Y-69475000D03*
X104650000Y-67075000D03*
X106850000Y-67075000D03*
X106850000Y-64650000D03*
X104650000Y-64650000D03*
X102509000Y-87436000D03*
X102509000Y-89636000D03*
X95318000Y-87571000D03*
X95318000Y-89771000D03*
X87875000Y-89825000D03*
X87875000Y-87625000D03*
D14*
X87978897Y-74074629D03*
D15*
G36*
X87607666Y-74834769D02*
G01*
X87218757Y-74445860D01*
X88350128Y-73314489D01*
X88739037Y-73703398D01*
X87607666Y-74834769D01*
X87607666Y-74834769D01*
G37*
D14*
X88544583Y-74640314D03*
D15*
G36*
X88173352Y-75400454D02*
G01*
X87784443Y-75011545D01*
X88915814Y-73880174D01*
X89304723Y-74269083D01*
X88173352Y-75400454D01*
X88173352Y-75400454D01*
G37*
D14*
X89110268Y-75206000D03*
D15*
G36*
X88739037Y-75966140D02*
G01*
X88350128Y-75577231D01*
X89481499Y-74445860D01*
X89870408Y-74834769D01*
X88739037Y-75966140D01*
X88739037Y-75966140D01*
G37*
D14*
X89675953Y-75771685D03*
D15*
G36*
X89304722Y-76531825D02*
G01*
X88915813Y-76142916D01*
X90047184Y-75011545D01*
X90436093Y-75400454D01*
X89304722Y-76531825D01*
X89304722Y-76531825D01*
G37*
D14*
X90241639Y-76337371D03*
D15*
G36*
X89870408Y-77097511D02*
G01*
X89481499Y-76708602D01*
X90612870Y-75577231D01*
X91001779Y-75966140D01*
X89870408Y-77097511D01*
X89870408Y-77097511D01*
G37*
D14*
X90807324Y-76903056D03*
D15*
G36*
X90436093Y-77663196D02*
G01*
X90047184Y-77274287D01*
X91178555Y-76142916D01*
X91567464Y-76531825D01*
X90436093Y-77663196D01*
X90436093Y-77663196D01*
G37*
D14*
X91373010Y-77468741D03*
D15*
G36*
X91001779Y-78228881D02*
G01*
X90612870Y-77839972D01*
X91744241Y-76708601D01*
X92133150Y-77097510D01*
X91001779Y-78228881D01*
X91001779Y-78228881D01*
G37*
D14*
X91938695Y-78034427D03*
D15*
G36*
X91567464Y-78794567D02*
G01*
X91178555Y-78405658D01*
X92309926Y-77274287D01*
X92698835Y-77663196D01*
X91567464Y-78794567D01*
X91567464Y-78794567D01*
G37*
D14*
X93989305Y-78034427D03*
D15*
G36*
X94749445Y-78405658D02*
G01*
X94360536Y-78794567D01*
X93229165Y-77663196D01*
X93618074Y-77274287D01*
X94749445Y-78405658D01*
X94749445Y-78405658D01*
G37*
D14*
X94554990Y-77468741D03*
D15*
G36*
X95315130Y-77839972D02*
G01*
X94926221Y-78228881D01*
X93794850Y-77097510D01*
X94183759Y-76708601D01*
X95315130Y-77839972D01*
X95315130Y-77839972D01*
G37*
D14*
X95120676Y-76903056D03*
D15*
G36*
X95880816Y-77274287D02*
G01*
X95491907Y-77663196D01*
X94360536Y-76531825D01*
X94749445Y-76142916D01*
X95880816Y-77274287D01*
X95880816Y-77274287D01*
G37*
D14*
X95686361Y-76337371D03*
D15*
G36*
X96446501Y-76708602D02*
G01*
X96057592Y-77097511D01*
X94926221Y-75966140D01*
X95315130Y-75577231D01*
X96446501Y-76708602D01*
X96446501Y-76708602D01*
G37*
D14*
X96252047Y-75771685D03*
D15*
G36*
X97012187Y-76142916D02*
G01*
X96623278Y-76531825D01*
X95491907Y-75400454D01*
X95880816Y-75011545D01*
X97012187Y-76142916D01*
X97012187Y-76142916D01*
G37*
D14*
X96817732Y-75206000D03*
D15*
G36*
X97577872Y-75577231D02*
G01*
X97188963Y-75966140D01*
X96057592Y-74834769D01*
X96446501Y-74445860D01*
X97577872Y-75577231D01*
X97577872Y-75577231D01*
G37*
D14*
X97383417Y-74640314D03*
D15*
G36*
X98143557Y-75011545D02*
G01*
X97754648Y-75400454D01*
X96623277Y-74269083D01*
X97012186Y-73880174D01*
X98143557Y-75011545D01*
X98143557Y-75011545D01*
G37*
D14*
X97949103Y-74074629D03*
D15*
G36*
X98709243Y-74445860D02*
G01*
X98320334Y-74834769D01*
X97188963Y-73703398D01*
X97577872Y-73314489D01*
X98709243Y-74445860D01*
X98709243Y-74445860D01*
G37*
D14*
X97949103Y-72024019D03*
D15*
G36*
X97577872Y-72784159D02*
G01*
X97188963Y-72395250D01*
X98320334Y-71263879D01*
X98709243Y-71652788D01*
X97577872Y-72784159D01*
X97577872Y-72784159D01*
G37*
D14*
X97383417Y-71458334D03*
D15*
G36*
X97012186Y-72218474D02*
G01*
X96623277Y-71829565D01*
X97754648Y-70698194D01*
X98143557Y-71087103D01*
X97012186Y-72218474D01*
X97012186Y-72218474D01*
G37*
D14*
X96817732Y-70892648D03*
D15*
G36*
X96446501Y-71652788D02*
G01*
X96057592Y-71263879D01*
X97188963Y-70132508D01*
X97577872Y-70521417D01*
X96446501Y-71652788D01*
X96446501Y-71652788D01*
G37*
D14*
X96252047Y-70326963D03*
D15*
G36*
X95880816Y-71087103D02*
G01*
X95491907Y-70698194D01*
X96623278Y-69566823D01*
X97012187Y-69955732D01*
X95880816Y-71087103D01*
X95880816Y-71087103D01*
G37*
D14*
X95686361Y-69761277D03*
D15*
G36*
X95315130Y-70521417D02*
G01*
X94926221Y-70132508D01*
X96057592Y-69001137D01*
X96446501Y-69390046D01*
X95315130Y-70521417D01*
X95315130Y-70521417D01*
G37*
D14*
X95120676Y-69195592D03*
D15*
G36*
X94749445Y-69955732D02*
G01*
X94360536Y-69566823D01*
X95491907Y-68435452D01*
X95880816Y-68824361D01*
X94749445Y-69955732D01*
X94749445Y-69955732D01*
G37*
D14*
X94554990Y-68629907D03*
D15*
G36*
X94183759Y-69390047D02*
G01*
X93794850Y-69001138D01*
X94926221Y-67869767D01*
X95315130Y-68258676D01*
X94183759Y-69390047D01*
X94183759Y-69390047D01*
G37*
D14*
X93989305Y-68064221D03*
D15*
G36*
X93618074Y-68824361D02*
G01*
X93229165Y-68435452D01*
X94360536Y-67304081D01*
X94749445Y-67692990D01*
X93618074Y-68824361D01*
X93618074Y-68824361D01*
G37*
D14*
X91938695Y-68064221D03*
D15*
G36*
X92698835Y-68435452D02*
G01*
X92309926Y-68824361D01*
X91178555Y-67692990D01*
X91567464Y-67304081D01*
X92698835Y-68435452D01*
X92698835Y-68435452D01*
G37*
D14*
X91373010Y-68629907D03*
D15*
G36*
X92133150Y-69001138D02*
G01*
X91744241Y-69390047D01*
X90612870Y-68258676D01*
X91001779Y-67869767D01*
X92133150Y-69001138D01*
X92133150Y-69001138D01*
G37*
D14*
X90807324Y-69195592D03*
D15*
G36*
X91567464Y-69566823D02*
G01*
X91178555Y-69955732D01*
X90047184Y-68824361D01*
X90436093Y-68435452D01*
X91567464Y-69566823D01*
X91567464Y-69566823D01*
G37*
D14*
X90241639Y-69761277D03*
D15*
G36*
X91001779Y-70132508D02*
G01*
X90612870Y-70521417D01*
X89481499Y-69390046D01*
X89870408Y-69001137D01*
X91001779Y-70132508D01*
X91001779Y-70132508D01*
G37*
D14*
X89675953Y-70326963D03*
D15*
G36*
X90436093Y-70698194D02*
G01*
X90047184Y-71087103D01*
X88915813Y-69955732D01*
X89304722Y-69566823D01*
X90436093Y-70698194D01*
X90436093Y-70698194D01*
G37*
D14*
X89110268Y-70892648D03*
D15*
G36*
X89870408Y-71263879D02*
G01*
X89481499Y-71652788D01*
X88350128Y-70521417D01*
X88739037Y-70132508D01*
X89870408Y-71263879D01*
X89870408Y-71263879D01*
G37*
D14*
X88544583Y-71458334D03*
D15*
G36*
X89304723Y-71829565D02*
G01*
X88915814Y-72218474D01*
X87784443Y-71087103D01*
X88173352Y-70698194D01*
X89304723Y-71829565D01*
X89304723Y-71829565D01*
G37*
D14*
X87978897Y-72024019D03*
D15*
G36*
X88739037Y-72395250D02*
G01*
X88350128Y-72784159D01*
X87218757Y-71652788D01*
X87607666Y-71263879D01*
X88739037Y-72395250D01*
X88739037Y-72395250D01*
G37*
D16*
X102264000Y-92606000D03*
X104364000Y-91656000D03*
X104364000Y-93556000D03*
D17*
X96068000Y-91691000D03*
X97018000Y-93791000D03*
X95118000Y-93791000D03*
X87714000Y-93686000D03*
X89614000Y-93686000D03*
X88664000Y-91586000D03*
D18*
X92800000Y-83100000D03*
X92800000Y-85000000D03*
D15*
G36*
X106727691Y-77601053D02*
G01*
X106748926Y-77604203D01*
X106769750Y-77609419D01*
X106789962Y-77616651D01*
X106809368Y-77625830D01*
X106827781Y-77636866D01*
X106845024Y-77649654D01*
X106860930Y-77664070D01*
X106875346Y-77679976D01*
X106888134Y-77697219D01*
X106899170Y-77715632D01*
X106908349Y-77735038D01*
X106915581Y-77755250D01*
X106920797Y-77776074D01*
X106923947Y-77797309D01*
X106925000Y-77818750D01*
X106925000Y-78331250D01*
X106923947Y-78352691D01*
X106920797Y-78373926D01*
X106915581Y-78394750D01*
X106908349Y-78414962D01*
X106899170Y-78434368D01*
X106888134Y-78452781D01*
X106875346Y-78470024D01*
X106860930Y-78485930D01*
X106845024Y-78500346D01*
X106827781Y-78513134D01*
X106809368Y-78524170D01*
X106789962Y-78533349D01*
X106769750Y-78540581D01*
X106748926Y-78545797D01*
X106727691Y-78548947D01*
X106706250Y-78550000D01*
X106268750Y-78550000D01*
X106247309Y-78548947D01*
X106226074Y-78545797D01*
X106205250Y-78540581D01*
X106185038Y-78533349D01*
X106165632Y-78524170D01*
X106147219Y-78513134D01*
X106129976Y-78500346D01*
X106114070Y-78485930D01*
X106099654Y-78470024D01*
X106086866Y-78452781D01*
X106075830Y-78434368D01*
X106066651Y-78414962D01*
X106059419Y-78394750D01*
X106054203Y-78373926D01*
X106051053Y-78352691D01*
X106050000Y-78331250D01*
X106050000Y-77818750D01*
X106051053Y-77797309D01*
X106054203Y-77776074D01*
X106059419Y-77755250D01*
X106066651Y-77735038D01*
X106075830Y-77715632D01*
X106086866Y-77697219D01*
X106099654Y-77679976D01*
X106114070Y-77664070D01*
X106129976Y-77649654D01*
X106147219Y-77636866D01*
X106165632Y-77625830D01*
X106185038Y-77616651D01*
X106205250Y-77609419D01*
X106226074Y-77604203D01*
X106247309Y-77601053D01*
X106268750Y-77600000D01*
X106706250Y-77600000D01*
X106727691Y-77601053D01*
X106727691Y-77601053D01*
G37*
D19*
X106487500Y-78075000D03*
D15*
G36*
X108302691Y-77601053D02*
G01*
X108323926Y-77604203D01*
X108344750Y-77609419D01*
X108364962Y-77616651D01*
X108384368Y-77625830D01*
X108402781Y-77636866D01*
X108420024Y-77649654D01*
X108435930Y-77664070D01*
X108450346Y-77679976D01*
X108463134Y-77697219D01*
X108474170Y-77715632D01*
X108483349Y-77735038D01*
X108490581Y-77755250D01*
X108495797Y-77776074D01*
X108498947Y-77797309D01*
X108500000Y-77818750D01*
X108500000Y-78331250D01*
X108498947Y-78352691D01*
X108495797Y-78373926D01*
X108490581Y-78394750D01*
X108483349Y-78414962D01*
X108474170Y-78434368D01*
X108463134Y-78452781D01*
X108450346Y-78470024D01*
X108435930Y-78485930D01*
X108420024Y-78500346D01*
X108402781Y-78513134D01*
X108384368Y-78524170D01*
X108364962Y-78533349D01*
X108344750Y-78540581D01*
X108323926Y-78545797D01*
X108302691Y-78548947D01*
X108281250Y-78550000D01*
X107843750Y-78550000D01*
X107822309Y-78548947D01*
X107801074Y-78545797D01*
X107780250Y-78540581D01*
X107760038Y-78533349D01*
X107740632Y-78524170D01*
X107722219Y-78513134D01*
X107704976Y-78500346D01*
X107689070Y-78485930D01*
X107674654Y-78470024D01*
X107661866Y-78452781D01*
X107650830Y-78434368D01*
X107641651Y-78414962D01*
X107634419Y-78394750D01*
X107629203Y-78373926D01*
X107626053Y-78352691D01*
X107625000Y-78331250D01*
X107625000Y-77818750D01*
X107626053Y-77797309D01*
X107629203Y-77776074D01*
X107634419Y-77755250D01*
X107641651Y-77735038D01*
X107650830Y-77715632D01*
X107661866Y-77697219D01*
X107674654Y-77679976D01*
X107689070Y-77664070D01*
X107704976Y-77649654D01*
X107722219Y-77636866D01*
X107740632Y-77625830D01*
X107760038Y-77616651D01*
X107780250Y-77609419D01*
X107801074Y-77604203D01*
X107822309Y-77601053D01*
X107843750Y-77600000D01*
X108281250Y-77600000D01*
X108302691Y-77601053D01*
X108302691Y-77601053D01*
G37*
D19*
X108062500Y-78075000D03*
D15*
G36*
X107783191Y-73667953D02*
G01*
X107804426Y-73671103D01*
X107825250Y-73676319D01*
X107845462Y-73683551D01*
X107864868Y-73692730D01*
X107883281Y-73703766D01*
X107900524Y-73716554D01*
X107916430Y-73730970D01*
X107930846Y-73746876D01*
X107943634Y-73764119D01*
X107954670Y-73782532D01*
X107963849Y-73801938D01*
X107971081Y-73822150D01*
X107976297Y-73842974D01*
X107979447Y-73864209D01*
X107980500Y-73885650D01*
X107980500Y-74323150D01*
X107979447Y-74344591D01*
X107976297Y-74365826D01*
X107971081Y-74386650D01*
X107963849Y-74406862D01*
X107954670Y-74426268D01*
X107943634Y-74444681D01*
X107930846Y-74461924D01*
X107916430Y-74477830D01*
X107900524Y-74492246D01*
X107883281Y-74505034D01*
X107864868Y-74516070D01*
X107845462Y-74525249D01*
X107825250Y-74532481D01*
X107804426Y-74537697D01*
X107783191Y-74540847D01*
X107761750Y-74541900D01*
X107249250Y-74541900D01*
X107227809Y-74540847D01*
X107206574Y-74537697D01*
X107185750Y-74532481D01*
X107165538Y-74525249D01*
X107146132Y-74516070D01*
X107127719Y-74505034D01*
X107110476Y-74492246D01*
X107094570Y-74477830D01*
X107080154Y-74461924D01*
X107067366Y-74444681D01*
X107056330Y-74426268D01*
X107047151Y-74406862D01*
X107039919Y-74386650D01*
X107034703Y-74365826D01*
X107031553Y-74344591D01*
X107030500Y-74323150D01*
X107030500Y-73885650D01*
X107031553Y-73864209D01*
X107034703Y-73842974D01*
X107039919Y-73822150D01*
X107047151Y-73801938D01*
X107056330Y-73782532D01*
X107067366Y-73764119D01*
X107080154Y-73746876D01*
X107094570Y-73730970D01*
X107110476Y-73716554D01*
X107127719Y-73703766D01*
X107146132Y-73692730D01*
X107165538Y-73683551D01*
X107185750Y-73676319D01*
X107206574Y-73671103D01*
X107227809Y-73667953D01*
X107249250Y-73666900D01*
X107761750Y-73666900D01*
X107783191Y-73667953D01*
X107783191Y-73667953D01*
G37*
D19*
X107505500Y-74104400D03*
D15*
G36*
X107783191Y-75242953D02*
G01*
X107804426Y-75246103D01*
X107825250Y-75251319D01*
X107845462Y-75258551D01*
X107864868Y-75267730D01*
X107883281Y-75278766D01*
X107900524Y-75291554D01*
X107916430Y-75305970D01*
X107930846Y-75321876D01*
X107943634Y-75339119D01*
X107954670Y-75357532D01*
X107963849Y-75376938D01*
X107971081Y-75397150D01*
X107976297Y-75417974D01*
X107979447Y-75439209D01*
X107980500Y-75460650D01*
X107980500Y-75898150D01*
X107979447Y-75919591D01*
X107976297Y-75940826D01*
X107971081Y-75961650D01*
X107963849Y-75981862D01*
X107954670Y-76001268D01*
X107943634Y-76019681D01*
X107930846Y-76036924D01*
X107916430Y-76052830D01*
X107900524Y-76067246D01*
X107883281Y-76080034D01*
X107864868Y-76091070D01*
X107845462Y-76100249D01*
X107825250Y-76107481D01*
X107804426Y-76112697D01*
X107783191Y-76115847D01*
X107761750Y-76116900D01*
X107249250Y-76116900D01*
X107227809Y-76115847D01*
X107206574Y-76112697D01*
X107185750Y-76107481D01*
X107165538Y-76100249D01*
X107146132Y-76091070D01*
X107127719Y-76080034D01*
X107110476Y-76067246D01*
X107094570Y-76052830D01*
X107080154Y-76036924D01*
X107067366Y-76019681D01*
X107056330Y-76001268D01*
X107047151Y-75981862D01*
X107039919Y-75961650D01*
X107034703Y-75940826D01*
X107031553Y-75919591D01*
X107030500Y-75898150D01*
X107030500Y-75460650D01*
X107031553Y-75439209D01*
X107034703Y-75417974D01*
X107039919Y-75397150D01*
X107047151Y-75376938D01*
X107056330Y-75357532D01*
X107067366Y-75339119D01*
X107080154Y-75321876D01*
X107094570Y-75305970D01*
X107110476Y-75291554D01*
X107127719Y-75278766D01*
X107146132Y-75267730D01*
X107165538Y-75258551D01*
X107185750Y-75251319D01*
X107206574Y-75246103D01*
X107227809Y-75242953D01*
X107249250Y-75241900D01*
X107761750Y-75241900D01*
X107783191Y-75242953D01*
X107783191Y-75242953D01*
G37*
D19*
X107505500Y-75679400D03*
D15*
G36*
X95765191Y-84601053D02*
G01*
X95786426Y-84604203D01*
X95807250Y-84609419D01*
X95827462Y-84616651D01*
X95846868Y-84625830D01*
X95865281Y-84636866D01*
X95882524Y-84649654D01*
X95898430Y-84664070D01*
X95912846Y-84679976D01*
X95925634Y-84697219D01*
X95936670Y-84715632D01*
X95945849Y-84735038D01*
X95953081Y-84755250D01*
X95958297Y-84776074D01*
X95961447Y-84797309D01*
X95962500Y-84818750D01*
X95962500Y-85331250D01*
X95961447Y-85352691D01*
X95958297Y-85373926D01*
X95953081Y-85394750D01*
X95945849Y-85414962D01*
X95936670Y-85434368D01*
X95925634Y-85452781D01*
X95912846Y-85470024D01*
X95898430Y-85485930D01*
X95882524Y-85500346D01*
X95865281Y-85513134D01*
X95846868Y-85524170D01*
X95827462Y-85533349D01*
X95807250Y-85540581D01*
X95786426Y-85545797D01*
X95765191Y-85548947D01*
X95743750Y-85550000D01*
X95306250Y-85550000D01*
X95284809Y-85548947D01*
X95263574Y-85545797D01*
X95242750Y-85540581D01*
X95222538Y-85533349D01*
X95203132Y-85524170D01*
X95184719Y-85513134D01*
X95167476Y-85500346D01*
X95151570Y-85485930D01*
X95137154Y-85470024D01*
X95124366Y-85452781D01*
X95113330Y-85434368D01*
X95104151Y-85414962D01*
X95096919Y-85394750D01*
X95091703Y-85373926D01*
X95088553Y-85352691D01*
X95087500Y-85331250D01*
X95087500Y-84818750D01*
X95088553Y-84797309D01*
X95091703Y-84776074D01*
X95096919Y-84755250D01*
X95104151Y-84735038D01*
X95113330Y-84715632D01*
X95124366Y-84697219D01*
X95137154Y-84679976D01*
X95151570Y-84664070D01*
X95167476Y-84649654D01*
X95184719Y-84636866D01*
X95203132Y-84625830D01*
X95222538Y-84616651D01*
X95242750Y-84609419D01*
X95263574Y-84604203D01*
X95284809Y-84601053D01*
X95306250Y-84600000D01*
X95743750Y-84600000D01*
X95765191Y-84601053D01*
X95765191Y-84601053D01*
G37*
D19*
X95525000Y-85075000D03*
D15*
G36*
X97340191Y-84601053D02*
G01*
X97361426Y-84604203D01*
X97382250Y-84609419D01*
X97402462Y-84616651D01*
X97421868Y-84625830D01*
X97440281Y-84636866D01*
X97457524Y-84649654D01*
X97473430Y-84664070D01*
X97487846Y-84679976D01*
X97500634Y-84697219D01*
X97511670Y-84715632D01*
X97520849Y-84735038D01*
X97528081Y-84755250D01*
X97533297Y-84776074D01*
X97536447Y-84797309D01*
X97537500Y-84818750D01*
X97537500Y-85331250D01*
X97536447Y-85352691D01*
X97533297Y-85373926D01*
X97528081Y-85394750D01*
X97520849Y-85414962D01*
X97511670Y-85434368D01*
X97500634Y-85452781D01*
X97487846Y-85470024D01*
X97473430Y-85485930D01*
X97457524Y-85500346D01*
X97440281Y-85513134D01*
X97421868Y-85524170D01*
X97402462Y-85533349D01*
X97382250Y-85540581D01*
X97361426Y-85545797D01*
X97340191Y-85548947D01*
X97318750Y-85550000D01*
X96881250Y-85550000D01*
X96859809Y-85548947D01*
X96838574Y-85545797D01*
X96817750Y-85540581D01*
X96797538Y-85533349D01*
X96778132Y-85524170D01*
X96759719Y-85513134D01*
X96742476Y-85500346D01*
X96726570Y-85485930D01*
X96712154Y-85470024D01*
X96699366Y-85452781D01*
X96688330Y-85434368D01*
X96679151Y-85414962D01*
X96671919Y-85394750D01*
X96666703Y-85373926D01*
X96663553Y-85352691D01*
X96662500Y-85331250D01*
X96662500Y-84818750D01*
X96663553Y-84797309D01*
X96666703Y-84776074D01*
X96671919Y-84755250D01*
X96679151Y-84735038D01*
X96688330Y-84715632D01*
X96699366Y-84697219D01*
X96712154Y-84679976D01*
X96726570Y-84664070D01*
X96742476Y-84649654D01*
X96759719Y-84636866D01*
X96778132Y-84625830D01*
X96797538Y-84616651D01*
X96817750Y-84609419D01*
X96838574Y-84604203D01*
X96859809Y-84601053D01*
X96881250Y-84600000D01*
X97318750Y-84600000D01*
X97340191Y-84601053D01*
X97340191Y-84601053D01*
G37*
D19*
X97100000Y-85075000D03*
D10*
X95400000Y-82900000D03*
X97300000Y-82900000D03*
X102909000Y-69446000D03*
X101009000Y-69446000D03*
X100975000Y-67025000D03*
X102875000Y-67025000D03*
X102850000Y-64675000D03*
X100950000Y-64675000D03*
D15*
G36*
X117334191Y-67852053D02*
G01*
X117355426Y-67855203D01*
X117376250Y-67860419D01*
X117396462Y-67867651D01*
X117415868Y-67876830D01*
X117434281Y-67887866D01*
X117451524Y-67900654D01*
X117467430Y-67915070D01*
X117481846Y-67930976D01*
X117494634Y-67948219D01*
X117505670Y-67966632D01*
X117514849Y-67986038D01*
X117522081Y-68006250D01*
X117527297Y-68027074D01*
X117530447Y-68048309D01*
X117531500Y-68069750D01*
X117531500Y-68582250D01*
X117530447Y-68603691D01*
X117527297Y-68624926D01*
X117522081Y-68645750D01*
X117514849Y-68665962D01*
X117505670Y-68685368D01*
X117494634Y-68703781D01*
X117481846Y-68721024D01*
X117467430Y-68736930D01*
X117451524Y-68751346D01*
X117434281Y-68764134D01*
X117415868Y-68775170D01*
X117396462Y-68784349D01*
X117376250Y-68791581D01*
X117355426Y-68796797D01*
X117334191Y-68799947D01*
X117312750Y-68801000D01*
X116875250Y-68801000D01*
X116853809Y-68799947D01*
X116832574Y-68796797D01*
X116811750Y-68791581D01*
X116791538Y-68784349D01*
X116772132Y-68775170D01*
X116753719Y-68764134D01*
X116736476Y-68751346D01*
X116720570Y-68736930D01*
X116706154Y-68721024D01*
X116693366Y-68703781D01*
X116682330Y-68685368D01*
X116673151Y-68665962D01*
X116665919Y-68645750D01*
X116660703Y-68624926D01*
X116657553Y-68603691D01*
X116656500Y-68582250D01*
X116656500Y-68069750D01*
X116657553Y-68048309D01*
X116660703Y-68027074D01*
X116665919Y-68006250D01*
X116673151Y-67986038D01*
X116682330Y-67966632D01*
X116693366Y-67948219D01*
X116706154Y-67930976D01*
X116720570Y-67915070D01*
X116736476Y-67900654D01*
X116753719Y-67887866D01*
X116772132Y-67876830D01*
X116791538Y-67867651D01*
X116811750Y-67860419D01*
X116832574Y-67855203D01*
X116853809Y-67852053D01*
X116875250Y-67851000D01*
X117312750Y-67851000D01*
X117334191Y-67852053D01*
X117334191Y-67852053D01*
G37*
D19*
X117094000Y-68326000D03*
D15*
G36*
X115759191Y-67852053D02*
G01*
X115780426Y-67855203D01*
X115801250Y-67860419D01*
X115821462Y-67867651D01*
X115840868Y-67876830D01*
X115859281Y-67887866D01*
X115876524Y-67900654D01*
X115892430Y-67915070D01*
X115906846Y-67930976D01*
X115919634Y-67948219D01*
X115930670Y-67966632D01*
X115939849Y-67986038D01*
X115947081Y-68006250D01*
X115952297Y-68027074D01*
X115955447Y-68048309D01*
X115956500Y-68069750D01*
X115956500Y-68582250D01*
X115955447Y-68603691D01*
X115952297Y-68624926D01*
X115947081Y-68645750D01*
X115939849Y-68665962D01*
X115930670Y-68685368D01*
X115919634Y-68703781D01*
X115906846Y-68721024D01*
X115892430Y-68736930D01*
X115876524Y-68751346D01*
X115859281Y-68764134D01*
X115840868Y-68775170D01*
X115821462Y-68784349D01*
X115801250Y-68791581D01*
X115780426Y-68796797D01*
X115759191Y-68799947D01*
X115737750Y-68801000D01*
X115300250Y-68801000D01*
X115278809Y-68799947D01*
X115257574Y-68796797D01*
X115236750Y-68791581D01*
X115216538Y-68784349D01*
X115197132Y-68775170D01*
X115178719Y-68764134D01*
X115161476Y-68751346D01*
X115145570Y-68736930D01*
X115131154Y-68721024D01*
X115118366Y-68703781D01*
X115107330Y-68685368D01*
X115098151Y-68665962D01*
X115090919Y-68645750D01*
X115085703Y-68624926D01*
X115082553Y-68603691D01*
X115081500Y-68582250D01*
X115081500Y-68069750D01*
X115082553Y-68048309D01*
X115085703Y-68027074D01*
X115090919Y-68006250D01*
X115098151Y-67986038D01*
X115107330Y-67966632D01*
X115118366Y-67948219D01*
X115131154Y-67930976D01*
X115145570Y-67915070D01*
X115161476Y-67900654D01*
X115178719Y-67887866D01*
X115197132Y-67876830D01*
X115216538Y-67867651D01*
X115236750Y-67860419D01*
X115257574Y-67855203D01*
X115278809Y-67852053D01*
X115300250Y-67851000D01*
X115737750Y-67851000D01*
X115759191Y-67852053D01*
X115759191Y-67852053D01*
G37*
D19*
X115519000Y-68326000D03*
D10*
X115382000Y-66548000D03*
X117282000Y-66548000D03*
X104364000Y-87431000D03*
X106264000Y-87431000D03*
D18*
X106414000Y-91656000D03*
X106414000Y-93556000D03*
D10*
X99068000Y-87566000D03*
X97168000Y-87566000D03*
D18*
X99068000Y-91666000D03*
X99068000Y-93566000D03*
D10*
X91575000Y-87675000D03*
X89675000Y-87675000D03*
X89664000Y-89686000D03*
X91564000Y-89686000D03*
D18*
X91614000Y-91661000D03*
X91614000Y-93561000D03*
X78740000Y-78044000D03*
X78740000Y-79944000D03*
X76708000Y-77978000D03*
X76708000Y-79878000D03*
X81300000Y-81250000D03*
X81300000Y-79350000D03*
D10*
X104800000Y-72100000D03*
X106700000Y-72100000D03*
X103025000Y-72100000D03*
X101125000Y-72100000D03*
D20*
X88458000Y-82890000D03*
X90358000Y-82890000D03*
X90358000Y-85090000D03*
X89408000Y-85090000D03*
X88458000Y-85090000D03*
X115194000Y-63160000D03*
X116144000Y-63160000D03*
X117094000Y-63160000D03*
X117094000Y-60960000D03*
X115194000Y-60960000D03*
D21*
X84762150Y-79956227D03*
D15*
G36*
X85522290Y-80292103D02*
G01*
X85098026Y-80716367D01*
X84002010Y-79620351D01*
X84426274Y-79196087D01*
X85522290Y-80292103D01*
X85522290Y-80292103D01*
G37*
D21*
X85660176Y-79058201D03*
D15*
G36*
X86420316Y-79394077D02*
G01*
X85996052Y-79818341D01*
X84900036Y-78722325D01*
X85324300Y-78298061D01*
X86420316Y-79394077D01*
X86420316Y-79394077D01*
G37*
D21*
X86558201Y-78160176D03*
D15*
G36*
X87318341Y-78496052D02*
G01*
X86894077Y-78920316D01*
X85798061Y-77824300D01*
X86222325Y-77400036D01*
X87318341Y-78496052D01*
X87318341Y-78496052D01*
G37*
D21*
X87456227Y-77262150D03*
D15*
G36*
X88216367Y-77598026D02*
G01*
X87792103Y-78022290D01*
X86696087Y-76926274D01*
X87120351Y-76502010D01*
X88216367Y-77598026D01*
X88216367Y-77598026D01*
G37*
D21*
X83637850Y-73443773D03*
D15*
G36*
X84397990Y-73779649D02*
G01*
X83973726Y-74203913D01*
X82877710Y-73107897D01*
X83301974Y-72683633D01*
X84397990Y-73779649D01*
X84397990Y-73779649D01*
G37*
D21*
X82739824Y-74341799D03*
D15*
G36*
X83499964Y-74677675D02*
G01*
X83075700Y-75101939D01*
X81979684Y-74005923D01*
X82403948Y-73581659D01*
X83499964Y-74677675D01*
X83499964Y-74677675D01*
G37*
D21*
X81841799Y-75239824D03*
D15*
G36*
X82601939Y-75575700D02*
G01*
X82177675Y-75999964D01*
X81081659Y-74903948D01*
X81505923Y-74479684D01*
X82601939Y-75575700D01*
X82601939Y-75575700D01*
G37*
D21*
X80943773Y-76137850D03*
D15*
G36*
X81703913Y-76473726D02*
G01*
X81279649Y-76897990D01*
X80183633Y-75801974D01*
X80607897Y-75377710D01*
X81703913Y-76473726D01*
X81703913Y-76473726D01*
G37*
M02*
