G04 #@! TF.GenerationSoftware,KiCad,Pcbnew,(5.1.4-0-10_14)*
G04 #@! TF.CreationDate,2020-01-14T22:28:18-05:00*
G04 #@! TF.ProjectId,throttle,7468726f-7474-46c6-952e-6b696361645f,rev?*
G04 #@! TF.SameCoordinates,Original*
G04 #@! TF.FileFunction,Copper,L1,Top*
G04 #@! TF.FilePolarity,Positive*
%FSLAX46Y46*%
G04 Gerber Fmt 4.6, Leading zero omitted, Abs format (unit mm)*
G04 Created by KiCad (PCBNEW (5.1.4-0-10_14)) date 2020-01-14 22:28:18*
%MOMM*%
%LPD*%
G04 APERTURE LIST*
%ADD10R,0.700000X1.300000*%
%ADD11R,1.250000X1.000000*%
%ADD12R,1.000000X1.250000*%
%ADD13R,1.200000X1.200000*%
%ADD14C,0.550000*%
%ADD15C,0.100000*%
%ADD16C,1.300000*%
%ADD17C,2.000000*%
%ADD18C,1.400000*%
%ADD19R,1.400000X1.400000*%
%ADD20R,0.900000X0.800000*%
%ADD21R,0.800000X0.900000*%
%ADD22R,1.300000X0.700000*%
%ADD23C,0.875000*%
%ADD24R,0.650000X1.060000*%
%ADD25C,0.600000*%
%ADD26R,1.200000X1.400000*%
%ADD27C,0.800000*%
%ADD28C,0.609600*%
%ADD29C,0.254000*%
%ADD30C,0.152400*%
G04 APERTURE END LIST*
D10*
X115382000Y-70104000D03*
X117282000Y-70104000D03*
X99068000Y-89716000D03*
X97168000Y-89716000D03*
X106239000Y-89606000D03*
X104339000Y-89606000D03*
D11*
X86244800Y-82994800D03*
X86244800Y-84994800D03*
D12*
X118904000Y-59944000D03*
X120904000Y-59944000D03*
X76758800Y-75341800D03*
X78758800Y-75341800D03*
X77150000Y-73175000D03*
X79150000Y-73175000D03*
D11*
X103682800Y-74603100D03*
X103682800Y-76603100D03*
D12*
X101685600Y-78981300D03*
X99685600Y-78981300D03*
X83675000Y-70400000D03*
X81675000Y-70400000D03*
D13*
X104675000Y-69475000D03*
X106875000Y-69475000D03*
X104650000Y-67075000D03*
X106850000Y-67075000D03*
X106850000Y-64650000D03*
X104650000Y-64650000D03*
X102509000Y-87436000D03*
X102509000Y-89636000D03*
X95318000Y-87571000D03*
X95318000Y-89771000D03*
X87875000Y-89825000D03*
X87875000Y-87625000D03*
D14*
X87978897Y-74074629D03*
D15*
G36*
X87607666Y-74834769D02*
G01*
X87218757Y-74445860D01*
X88350128Y-73314489D01*
X88739037Y-73703398D01*
X87607666Y-74834769D01*
X87607666Y-74834769D01*
G37*
D14*
X88544583Y-74640314D03*
D15*
G36*
X88173352Y-75400454D02*
G01*
X87784443Y-75011545D01*
X88915814Y-73880174D01*
X89304723Y-74269083D01*
X88173352Y-75400454D01*
X88173352Y-75400454D01*
G37*
D14*
X89110268Y-75206000D03*
D15*
G36*
X88739037Y-75966140D02*
G01*
X88350128Y-75577231D01*
X89481499Y-74445860D01*
X89870408Y-74834769D01*
X88739037Y-75966140D01*
X88739037Y-75966140D01*
G37*
D14*
X89675953Y-75771685D03*
D15*
G36*
X89304722Y-76531825D02*
G01*
X88915813Y-76142916D01*
X90047184Y-75011545D01*
X90436093Y-75400454D01*
X89304722Y-76531825D01*
X89304722Y-76531825D01*
G37*
D14*
X90241639Y-76337371D03*
D15*
G36*
X89870408Y-77097511D02*
G01*
X89481499Y-76708602D01*
X90612870Y-75577231D01*
X91001779Y-75966140D01*
X89870408Y-77097511D01*
X89870408Y-77097511D01*
G37*
D14*
X90807324Y-76903056D03*
D15*
G36*
X90436093Y-77663196D02*
G01*
X90047184Y-77274287D01*
X91178555Y-76142916D01*
X91567464Y-76531825D01*
X90436093Y-77663196D01*
X90436093Y-77663196D01*
G37*
D14*
X91373010Y-77468741D03*
D15*
G36*
X91001779Y-78228881D02*
G01*
X90612870Y-77839972D01*
X91744241Y-76708601D01*
X92133150Y-77097510D01*
X91001779Y-78228881D01*
X91001779Y-78228881D01*
G37*
D14*
X91938695Y-78034427D03*
D15*
G36*
X91567464Y-78794567D02*
G01*
X91178555Y-78405658D01*
X92309926Y-77274287D01*
X92698835Y-77663196D01*
X91567464Y-78794567D01*
X91567464Y-78794567D01*
G37*
D14*
X93989305Y-78034427D03*
D15*
G36*
X94749445Y-78405658D02*
G01*
X94360536Y-78794567D01*
X93229165Y-77663196D01*
X93618074Y-77274287D01*
X94749445Y-78405658D01*
X94749445Y-78405658D01*
G37*
D14*
X94554990Y-77468741D03*
D15*
G36*
X95315130Y-77839972D02*
G01*
X94926221Y-78228881D01*
X93794850Y-77097510D01*
X94183759Y-76708601D01*
X95315130Y-77839972D01*
X95315130Y-77839972D01*
G37*
D14*
X95120676Y-76903056D03*
D15*
G36*
X95880816Y-77274287D02*
G01*
X95491907Y-77663196D01*
X94360536Y-76531825D01*
X94749445Y-76142916D01*
X95880816Y-77274287D01*
X95880816Y-77274287D01*
G37*
D14*
X95686361Y-76337371D03*
D15*
G36*
X96446501Y-76708602D02*
G01*
X96057592Y-77097511D01*
X94926221Y-75966140D01*
X95315130Y-75577231D01*
X96446501Y-76708602D01*
X96446501Y-76708602D01*
G37*
D14*
X96252047Y-75771685D03*
D15*
G36*
X97012187Y-76142916D02*
G01*
X96623278Y-76531825D01*
X95491907Y-75400454D01*
X95880816Y-75011545D01*
X97012187Y-76142916D01*
X97012187Y-76142916D01*
G37*
D14*
X96817732Y-75206000D03*
D15*
G36*
X97577872Y-75577231D02*
G01*
X97188963Y-75966140D01*
X96057592Y-74834769D01*
X96446501Y-74445860D01*
X97577872Y-75577231D01*
X97577872Y-75577231D01*
G37*
D14*
X97383417Y-74640314D03*
D15*
G36*
X98143557Y-75011545D02*
G01*
X97754648Y-75400454D01*
X96623277Y-74269083D01*
X97012186Y-73880174D01*
X98143557Y-75011545D01*
X98143557Y-75011545D01*
G37*
D14*
X97949103Y-74074629D03*
D15*
G36*
X98709243Y-74445860D02*
G01*
X98320334Y-74834769D01*
X97188963Y-73703398D01*
X97577872Y-73314489D01*
X98709243Y-74445860D01*
X98709243Y-74445860D01*
G37*
D14*
X97949103Y-72024019D03*
D15*
G36*
X97577872Y-72784159D02*
G01*
X97188963Y-72395250D01*
X98320334Y-71263879D01*
X98709243Y-71652788D01*
X97577872Y-72784159D01*
X97577872Y-72784159D01*
G37*
D14*
X97383417Y-71458334D03*
D15*
G36*
X97012186Y-72218474D02*
G01*
X96623277Y-71829565D01*
X97754648Y-70698194D01*
X98143557Y-71087103D01*
X97012186Y-72218474D01*
X97012186Y-72218474D01*
G37*
D14*
X96817732Y-70892648D03*
D15*
G36*
X96446501Y-71652788D02*
G01*
X96057592Y-71263879D01*
X97188963Y-70132508D01*
X97577872Y-70521417D01*
X96446501Y-71652788D01*
X96446501Y-71652788D01*
G37*
D14*
X96252047Y-70326963D03*
D15*
G36*
X95880816Y-71087103D02*
G01*
X95491907Y-70698194D01*
X96623278Y-69566823D01*
X97012187Y-69955732D01*
X95880816Y-71087103D01*
X95880816Y-71087103D01*
G37*
D14*
X95686361Y-69761277D03*
D15*
G36*
X95315130Y-70521417D02*
G01*
X94926221Y-70132508D01*
X96057592Y-69001137D01*
X96446501Y-69390046D01*
X95315130Y-70521417D01*
X95315130Y-70521417D01*
G37*
D14*
X95120676Y-69195592D03*
D15*
G36*
X94749445Y-69955732D02*
G01*
X94360536Y-69566823D01*
X95491907Y-68435452D01*
X95880816Y-68824361D01*
X94749445Y-69955732D01*
X94749445Y-69955732D01*
G37*
D14*
X94554990Y-68629907D03*
D15*
G36*
X94183759Y-69390047D02*
G01*
X93794850Y-69001138D01*
X94926221Y-67869767D01*
X95315130Y-68258676D01*
X94183759Y-69390047D01*
X94183759Y-69390047D01*
G37*
D14*
X93989305Y-68064221D03*
D15*
G36*
X93618074Y-68824361D02*
G01*
X93229165Y-68435452D01*
X94360536Y-67304081D01*
X94749445Y-67692990D01*
X93618074Y-68824361D01*
X93618074Y-68824361D01*
G37*
D14*
X91938695Y-68064221D03*
D15*
G36*
X92698835Y-68435452D02*
G01*
X92309926Y-68824361D01*
X91178555Y-67692990D01*
X91567464Y-67304081D01*
X92698835Y-68435452D01*
X92698835Y-68435452D01*
G37*
D14*
X91373010Y-68629907D03*
D15*
G36*
X92133150Y-69001138D02*
G01*
X91744241Y-69390047D01*
X90612870Y-68258676D01*
X91001779Y-67869767D01*
X92133150Y-69001138D01*
X92133150Y-69001138D01*
G37*
D14*
X90807324Y-69195592D03*
D15*
G36*
X91567464Y-69566823D02*
G01*
X91178555Y-69955732D01*
X90047184Y-68824361D01*
X90436093Y-68435452D01*
X91567464Y-69566823D01*
X91567464Y-69566823D01*
G37*
D14*
X90241639Y-69761277D03*
D15*
G36*
X91001779Y-70132508D02*
G01*
X90612870Y-70521417D01*
X89481499Y-69390046D01*
X89870408Y-69001137D01*
X91001779Y-70132508D01*
X91001779Y-70132508D01*
G37*
D14*
X89675953Y-70326963D03*
D15*
G36*
X90436093Y-70698194D02*
G01*
X90047184Y-71087103D01*
X88915813Y-69955732D01*
X89304722Y-69566823D01*
X90436093Y-70698194D01*
X90436093Y-70698194D01*
G37*
D14*
X89110268Y-70892648D03*
D15*
G36*
X89870408Y-71263879D02*
G01*
X89481499Y-71652788D01*
X88350128Y-70521417D01*
X88739037Y-70132508D01*
X89870408Y-71263879D01*
X89870408Y-71263879D01*
G37*
D14*
X88544583Y-71458334D03*
D15*
G36*
X89304723Y-71829565D02*
G01*
X88915814Y-72218474D01*
X87784443Y-71087103D01*
X88173352Y-70698194D01*
X89304723Y-71829565D01*
X89304723Y-71829565D01*
G37*
D14*
X87978897Y-72024019D03*
D15*
G36*
X88739037Y-72395250D02*
G01*
X88350128Y-72784159D01*
X87218757Y-71652788D01*
X87607666Y-71263879D01*
X88739037Y-72395250D01*
X88739037Y-72395250D01*
G37*
D16*
X81965800Y-91490800D03*
X79425800Y-91490800D03*
X80695800Y-94030800D03*
X83235800Y-94030800D03*
D17*
X78025800Y-92990800D03*
X112150000Y-92100000D03*
D16*
X112890000Y-66570000D03*
X110350000Y-67840000D03*
X112890000Y-69110000D03*
X110350000Y-70380000D03*
X112890000Y-71650000D03*
X110350000Y-72920000D03*
X112890000Y-74190000D03*
X110350000Y-75460000D03*
X112890000Y-76730000D03*
X110350000Y-78000000D03*
X112890000Y-79270000D03*
X110350000Y-80540000D03*
X112890000Y-81810000D03*
X112890000Y-84350000D03*
X112890000Y-86890000D03*
X112890000Y-89430000D03*
X110350000Y-83080000D03*
X110350000Y-90700000D03*
X110350000Y-88160000D03*
X110350000Y-85620000D03*
D18*
X83058000Y-85090000D03*
X83058000Y-87630000D03*
X80518000Y-85090000D03*
X80518000Y-87630000D03*
X77978000Y-85090000D03*
D19*
X77978000Y-87630000D03*
D20*
X102264000Y-92606000D03*
X104364000Y-91656000D03*
X104364000Y-93556000D03*
D21*
X96068000Y-91691000D03*
X97018000Y-93791000D03*
X95118000Y-93791000D03*
X87714000Y-93686000D03*
X89614000Y-93686000D03*
X88664000Y-91586000D03*
D22*
X92800000Y-83100000D03*
X92800000Y-85000000D03*
D15*
G36*
X106727691Y-77601053D02*
G01*
X106748926Y-77604203D01*
X106769750Y-77609419D01*
X106789962Y-77616651D01*
X106809368Y-77625830D01*
X106827781Y-77636866D01*
X106845024Y-77649654D01*
X106860930Y-77664070D01*
X106875346Y-77679976D01*
X106888134Y-77697219D01*
X106899170Y-77715632D01*
X106908349Y-77735038D01*
X106915581Y-77755250D01*
X106920797Y-77776074D01*
X106923947Y-77797309D01*
X106925000Y-77818750D01*
X106925000Y-78331250D01*
X106923947Y-78352691D01*
X106920797Y-78373926D01*
X106915581Y-78394750D01*
X106908349Y-78414962D01*
X106899170Y-78434368D01*
X106888134Y-78452781D01*
X106875346Y-78470024D01*
X106860930Y-78485930D01*
X106845024Y-78500346D01*
X106827781Y-78513134D01*
X106809368Y-78524170D01*
X106789962Y-78533349D01*
X106769750Y-78540581D01*
X106748926Y-78545797D01*
X106727691Y-78548947D01*
X106706250Y-78550000D01*
X106268750Y-78550000D01*
X106247309Y-78548947D01*
X106226074Y-78545797D01*
X106205250Y-78540581D01*
X106185038Y-78533349D01*
X106165632Y-78524170D01*
X106147219Y-78513134D01*
X106129976Y-78500346D01*
X106114070Y-78485930D01*
X106099654Y-78470024D01*
X106086866Y-78452781D01*
X106075830Y-78434368D01*
X106066651Y-78414962D01*
X106059419Y-78394750D01*
X106054203Y-78373926D01*
X106051053Y-78352691D01*
X106050000Y-78331250D01*
X106050000Y-77818750D01*
X106051053Y-77797309D01*
X106054203Y-77776074D01*
X106059419Y-77755250D01*
X106066651Y-77735038D01*
X106075830Y-77715632D01*
X106086866Y-77697219D01*
X106099654Y-77679976D01*
X106114070Y-77664070D01*
X106129976Y-77649654D01*
X106147219Y-77636866D01*
X106165632Y-77625830D01*
X106185038Y-77616651D01*
X106205250Y-77609419D01*
X106226074Y-77604203D01*
X106247309Y-77601053D01*
X106268750Y-77600000D01*
X106706250Y-77600000D01*
X106727691Y-77601053D01*
X106727691Y-77601053D01*
G37*
D23*
X106487500Y-78075000D03*
D15*
G36*
X108302691Y-77601053D02*
G01*
X108323926Y-77604203D01*
X108344750Y-77609419D01*
X108364962Y-77616651D01*
X108384368Y-77625830D01*
X108402781Y-77636866D01*
X108420024Y-77649654D01*
X108435930Y-77664070D01*
X108450346Y-77679976D01*
X108463134Y-77697219D01*
X108474170Y-77715632D01*
X108483349Y-77735038D01*
X108490581Y-77755250D01*
X108495797Y-77776074D01*
X108498947Y-77797309D01*
X108500000Y-77818750D01*
X108500000Y-78331250D01*
X108498947Y-78352691D01*
X108495797Y-78373926D01*
X108490581Y-78394750D01*
X108483349Y-78414962D01*
X108474170Y-78434368D01*
X108463134Y-78452781D01*
X108450346Y-78470024D01*
X108435930Y-78485930D01*
X108420024Y-78500346D01*
X108402781Y-78513134D01*
X108384368Y-78524170D01*
X108364962Y-78533349D01*
X108344750Y-78540581D01*
X108323926Y-78545797D01*
X108302691Y-78548947D01*
X108281250Y-78550000D01*
X107843750Y-78550000D01*
X107822309Y-78548947D01*
X107801074Y-78545797D01*
X107780250Y-78540581D01*
X107760038Y-78533349D01*
X107740632Y-78524170D01*
X107722219Y-78513134D01*
X107704976Y-78500346D01*
X107689070Y-78485930D01*
X107674654Y-78470024D01*
X107661866Y-78452781D01*
X107650830Y-78434368D01*
X107641651Y-78414962D01*
X107634419Y-78394750D01*
X107629203Y-78373926D01*
X107626053Y-78352691D01*
X107625000Y-78331250D01*
X107625000Y-77818750D01*
X107626053Y-77797309D01*
X107629203Y-77776074D01*
X107634419Y-77755250D01*
X107641651Y-77735038D01*
X107650830Y-77715632D01*
X107661866Y-77697219D01*
X107674654Y-77679976D01*
X107689070Y-77664070D01*
X107704976Y-77649654D01*
X107722219Y-77636866D01*
X107740632Y-77625830D01*
X107760038Y-77616651D01*
X107780250Y-77609419D01*
X107801074Y-77604203D01*
X107822309Y-77601053D01*
X107843750Y-77600000D01*
X108281250Y-77600000D01*
X108302691Y-77601053D01*
X108302691Y-77601053D01*
G37*
D23*
X108062500Y-78075000D03*
D15*
G36*
X107783191Y-73667953D02*
G01*
X107804426Y-73671103D01*
X107825250Y-73676319D01*
X107845462Y-73683551D01*
X107864868Y-73692730D01*
X107883281Y-73703766D01*
X107900524Y-73716554D01*
X107916430Y-73730970D01*
X107930846Y-73746876D01*
X107943634Y-73764119D01*
X107954670Y-73782532D01*
X107963849Y-73801938D01*
X107971081Y-73822150D01*
X107976297Y-73842974D01*
X107979447Y-73864209D01*
X107980500Y-73885650D01*
X107980500Y-74323150D01*
X107979447Y-74344591D01*
X107976297Y-74365826D01*
X107971081Y-74386650D01*
X107963849Y-74406862D01*
X107954670Y-74426268D01*
X107943634Y-74444681D01*
X107930846Y-74461924D01*
X107916430Y-74477830D01*
X107900524Y-74492246D01*
X107883281Y-74505034D01*
X107864868Y-74516070D01*
X107845462Y-74525249D01*
X107825250Y-74532481D01*
X107804426Y-74537697D01*
X107783191Y-74540847D01*
X107761750Y-74541900D01*
X107249250Y-74541900D01*
X107227809Y-74540847D01*
X107206574Y-74537697D01*
X107185750Y-74532481D01*
X107165538Y-74525249D01*
X107146132Y-74516070D01*
X107127719Y-74505034D01*
X107110476Y-74492246D01*
X107094570Y-74477830D01*
X107080154Y-74461924D01*
X107067366Y-74444681D01*
X107056330Y-74426268D01*
X107047151Y-74406862D01*
X107039919Y-74386650D01*
X107034703Y-74365826D01*
X107031553Y-74344591D01*
X107030500Y-74323150D01*
X107030500Y-73885650D01*
X107031553Y-73864209D01*
X107034703Y-73842974D01*
X107039919Y-73822150D01*
X107047151Y-73801938D01*
X107056330Y-73782532D01*
X107067366Y-73764119D01*
X107080154Y-73746876D01*
X107094570Y-73730970D01*
X107110476Y-73716554D01*
X107127719Y-73703766D01*
X107146132Y-73692730D01*
X107165538Y-73683551D01*
X107185750Y-73676319D01*
X107206574Y-73671103D01*
X107227809Y-73667953D01*
X107249250Y-73666900D01*
X107761750Y-73666900D01*
X107783191Y-73667953D01*
X107783191Y-73667953D01*
G37*
D23*
X107505500Y-74104400D03*
D15*
G36*
X107783191Y-75242953D02*
G01*
X107804426Y-75246103D01*
X107825250Y-75251319D01*
X107845462Y-75258551D01*
X107864868Y-75267730D01*
X107883281Y-75278766D01*
X107900524Y-75291554D01*
X107916430Y-75305970D01*
X107930846Y-75321876D01*
X107943634Y-75339119D01*
X107954670Y-75357532D01*
X107963849Y-75376938D01*
X107971081Y-75397150D01*
X107976297Y-75417974D01*
X107979447Y-75439209D01*
X107980500Y-75460650D01*
X107980500Y-75898150D01*
X107979447Y-75919591D01*
X107976297Y-75940826D01*
X107971081Y-75961650D01*
X107963849Y-75981862D01*
X107954670Y-76001268D01*
X107943634Y-76019681D01*
X107930846Y-76036924D01*
X107916430Y-76052830D01*
X107900524Y-76067246D01*
X107883281Y-76080034D01*
X107864868Y-76091070D01*
X107845462Y-76100249D01*
X107825250Y-76107481D01*
X107804426Y-76112697D01*
X107783191Y-76115847D01*
X107761750Y-76116900D01*
X107249250Y-76116900D01*
X107227809Y-76115847D01*
X107206574Y-76112697D01*
X107185750Y-76107481D01*
X107165538Y-76100249D01*
X107146132Y-76091070D01*
X107127719Y-76080034D01*
X107110476Y-76067246D01*
X107094570Y-76052830D01*
X107080154Y-76036924D01*
X107067366Y-76019681D01*
X107056330Y-76001268D01*
X107047151Y-75981862D01*
X107039919Y-75961650D01*
X107034703Y-75940826D01*
X107031553Y-75919591D01*
X107030500Y-75898150D01*
X107030500Y-75460650D01*
X107031553Y-75439209D01*
X107034703Y-75417974D01*
X107039919Y-75397150D01*
X107047151Y-75376938D01*
X107056330Y-75357532D01*
X107067366Y-75339119D01*
X107080154Y-75321876D01*
X107094570Y-75305970D01*
X107110476Y-75291554D01*
X107127719Y-75278766D01*
X107146132Y-75267730D01*
X107165538Y-75258551D01*
X107185750Y-75251319D01*
X107206574Y-75246103D01*
X107227809Y-75242953D01*
X107249250Y-75241900D01*
X107761750Y-75241900D01*
X107783191Y-75242953D01*
X107783191Y-75242953D01*
G37*
D23*
X107505500Y-75679400D03*
D15*
G36*
X95765191Y-84601053D02*
G01*
X95786426Y-84604203D01*
X95807250Y-84609419D01*
X95827462Y-84616651D01*
X95846868Y-84625830D01*
X95865281Y-84636866D01*
X95882524Y-84649654D01*
X95898430Y-84664070D01*
X95912846Y-84679976D01*
X95925634Y-84697219D01*
X95936670Y-84715632D01*
X95945849Y-84735038D01*
X95953081Y-84755250D01*
X95958297Y-84776074D01*
X95961447Y-84797309D01*
X95962500Y-84818750D01*
X95962500Y-85331250D01*
X95961447Y-85352691D01*
X95958297Y-85373926D01*
X95953081Y-85394750D01*
X95945849Y-85414962D01*
X95936670Y-85434368D01*
X95925634Y-85452781D01*
X95912846Y-85470024D01*
X95898430Y-85485930D01*
X95882524Y-85500346D01*
X95865281Y-85513134D01*
X95846868Y-85524170D01*
X95827462Y-85533349D01*
X95807250Y-85540581D01*
X95786426Y-85545797D01*
X95765191Y-85548947D01*
X95743750Y-85550000D01*
X95306250Y-85550000D01*
X95284809Y-85548947D01*
X95263574Y-85545797D01*
X95242750Y-85540581D01*
X95222538Y-85533349D01*
X95203132Y-85524170D01*
X95184719Y-85513134D01*
X95167476Y-85500346D01*
X95151570Y-85485930D01*
X95137154Y-85470024D01*
X95124366Y-85452781D01*
X95113330Y-85434368D01*
X95104151Y-85414962D01*
X95096919Y-85394750D01*
X95091703Y-85373926D01*
X95088553Y-85352691D01*
X95087500Y-85331250D01*
X95087500Y-84818750D01*
X95088553Y-84797309D01*
X95091703Y-84776074D01*
X95096919Y-84755250D01*
X95104151Y-84735038D01*
X95113330Y-84715632D01*
X95124366Y-84697219D01*
X95137154Y-84679976D01*
X95151570Y-84664070D01*
X95167476Y-84649654D01*
X95184719Y-84636866D01*
X95203132Y-84625830D01*
X95222538Y-84616651D01*
X95242750Y-84609419D01*
X95263574Y-84604203D01*
X95284809Y-84601053D01*
X95306250Y-84600000D01*
X95743750Y-84600000D01*
X95765191Y-84601053D01*
X95765191Y-84601053D01*
G37*
D23*
X95525000Y-85075000D03*
D15*
G36*
X97340191Y-84601053D02*
G01*
X97361426Y-84604203D01*
X97382250Y-84609419D01*
X97402462Y-84616651D01*
X97421868Y-84625830D01*
X97440281Y-84636866D01*
X97457524Y-84649654D01*
X97473430Y-84664070D01*
X97487846Y-84679976D01*
X97500634Y-84697219D01*
X97511670Y-84715632D01*
X97520849Y-84735038D01*
X97528081Y-84755250D01*
X97533297Y-84776074D01*
X97536447Y-84797309D01*
X97537500Y-84818750D01*
X97537500Y-85331250D01*
X97536447Y-85352691D01*
X97533297Y-85373926D01*
X97528081Y-85394750D01*
X97520849Y-85414962D01*
X97511670Y-85434368D01*
X97500634Y-85452781D01*
X97487846Y-85470024D01*
X97473430Y-85485930D01*
X97457524Y-85500346D01*
X97440281Y-85513134D01*
X97421868Y-85524170D01*
X97402462Y-85533349D01*
X97382250Y-85540581D01*
X97361426Y-85545797D01*
X97340191Y-85548947D01*
X97318750Y-85550000D01*
X96881250Y-85550000D01*
X96859809Y-85548947D01*
X96838574Y-85545797D01*
X96817750Y-85540581D01*
X96797538Y-85533349D01*
X96778132Y-85524170D01*
X96759719Y-85513134D01*
X96742476Y-85500346D01*
X96726570Y-85485930D01*
X96712154Y-85470024D01*
X96699366Y-85452781D01*
X96688330Y-85434368D01*
X96679151Y-85414962D01*
X96671919Y-85394750D01*
X96666703Y-85373926D01*
X96663553Y-85352691D01*
X96662500Y-85331250D01*
X96662500Y-84818750D01*
X96663553Y-84797309D01*
X96666703Y-84776074D01*
X96671919Y-84755250D01*
X96679151Y-84735038D01*
X96688330Y-84715632D01*
X96699366Y-84697219D01*
X96712154Y-84679976D01*
X96726570Y-84664070D01*
X96742476Y-84649654D01*
X96759719Y-84636866D01*
X96778132Y-84625830D01*
X96797538Y-84616651D01*
X96817750Y-84609419D01*
X96838574Y-84604203D01*
X96859809Y-84601053D01*
X96881250Y-84600000D01*
X97318750Y-84600000D01*
X97340191Y-84601053D01*
X97340191Y-84601053D01*
G37*
D23*
X97100000Y-85075000D03*
D10*
X95400000Y-82900000D03*
X97300000Y-82900000D03*
X102909000Y-69446000D03*
X101009000Y-69446000D03*
X100975000Y-67025000D03*
X102875000Y-67025000D03*
X102850000Y-64675000D03*
X100950000Y-64675000D03*
D15*
G36*
X117334191Y-67852053D02*
G01*
X117355426Y-67855203D01*
X117376250Y-67860419D01*
X117396462Y-67867651D01*
X117415868Y-67876830D01*
X117434281Y-67887866D01*
X117451524Y-67900654D01*
X117467430Y-67915070D01*
X117481846Y-67930976D01*
X117494634Y-67948219D01*
X117505670Y-67966632D01*
X117514849Y-67986038D01*
X117522081Y-68006250D01*
X117527297Y-68027074D01*
X117530447Y-68048309D01*
X117531500Y-68069750D01*
X117531500Y-68582250D01*
X117530447Y-68603691D01*
X117527297Y-68624926D01*
X117522081Y-68645750D01*
X117514849Y-68665962D01*
X117505670Y-68685368D01*
X117494634Y-68703781D01*
X117481846Y-68721024D01*
X117467430Y-68736930D01*
X117451524Y-68751346D01*
X117434281Y-68764134D01*
X117415868Y-68775170D01*
X117396462Y-68784349D01*
X117376250Y-68791581D01*
X117355426Y-68796797D01*
X117334191Y-68799947D01*
X117312750Y-68801000D01*
X116875250Y-68801000D01*
X116853809Y-68799947D01*
X116832574Y-68796797D01*
X116811750Y-68791581D01*
X116791538Y-68784349D01*
X116772132Y-68775170D01*
X116753719Y-68764134D01*
X116736476Y-68751346D01*
X116720570Y-68736930D01*
X116706154Y-68721024D01*
X116693366Y-68703781D01*
X116682330Y-68685368D01*
X116673151Y-68665962D01*
X116665919Y-68645750D01*
X116660703Y-68624926D01*
X116657553Y-68603691D01*
X116656500Y-68582250D01*
X116656500Y-68069750D01*
X116657553Y-68048309D01*
X116660703Y-68027074D01*
X116665919Y-68006250D01*
X116673151Y-67986038D01*
X116682330Y-67966632D01*
X116693366Y-67948219D01*
X116706154Y-67930976D01*
X116720570Y-67915070D01*
X116736476Y-67900654D01*
X116753719Y-67887866D01*
X116772132Y-67876830D01*
X116791538Y-67867651D01*
X116811750Y-67860419D01*
X116832574Y-67855203D01*
X116853809Y-67852053D01*
X116875250Y-67851000D01*
X117312750Y-67851000D01*
X117334191Y-67852053D01*
X117334191Y-67852053D01*
G37*
D23*
X117094000Y-68326000D03*
D15*
G36*
X115759191Y-67852053D02*
G01*
X115780426Y-67855203D01*
X115801250Y-67860419D01*
X115821462Y-67867651D01*
X115840868Y-67876830D01*
X115859281Y-67887866D01*
X115876524Y-67900654D01*
X115892430Y-67915070D01*
X115906846Y-67930976D01*
X115919634Y-67948219D01*
X115930670Y-67966632D01*
X115939849Y-67986038D01*
X115947081Y-68006250D01*
X115952297Y-68027074D01*
X115955447Y-68048309D01*
X115956500Y-68069750D01*
X115956500Y-68582250D01*
X115955447Y-68603691D01*
X115952297Y-68624926D01*
X115947081Y-68645750D01*
X115939849Y-68665962D01*
X115930670Y-68685368D01*
X115919634Y-68703781D01*
X115906846Y-68721024D01*
X115892430Y-68736930D01*
X115876524Y-68751346D01*
X115859281Y-68764134D01*
X115840868Y-68775170D01*
X115821462Y-68784349D01*
X115801250Y-68791581D01*
X115780426Y-68796797D01*
X115759191Y-68799947D01*
X115737750Y-68801000D01*
X115300250Y-68801000D01*
X115278809Y-68799947D01*
X115257574Y-68796797D01*
X115236750Y-68791581D01*
X115216538Y-68784349D01*
X115197132Y-68775170D01*
X115178719Y-68764134D01*
X115161476Y-68751346D01*
X115145570Y-68736930D01*
X115131154Y-68721024D01*
X115118366Y-68703781D01*
X115107330Y-68685368D01*
X115098151Y-68665962D01*
X115090919Y-68645750D01*
X115085703Y-68624926D01*
X115082553Y-68603691D01*
X115081500Y-68582250D01*
X115081500Y-68069750D01*
X115082553Y-68048309D01*
X115085703Y-68027074D01*
X115090919Y-68006250D01*
X115098151Y-67986038D01*
X115107330Y-67966632D01*
X115118366Y-67948219D01*
X115131154Y-67930976D01*
X115145570Y-67915070D01*
X115161476Y-67900654D01*
X115178719Y-67887866D01*
X115197132Y-67876830D01*
X115216538Y-67867651D01*
X115236750Y-67860419D01*
X115257574Y-67855203D01*
X115278809Y-67852053D01*
X115300250Y-67851000D01*
X115737750Y-67851000D01*
X115759191Y-67852053D01*
X115759191Y-67852053D01*
G37*
D23*
X115519000Y-68326000D03*
D10*
X115382000Y-66548000D03*
X117282000Y-66548000D03*
X104364000Y-87431000D03*
X106264000Y-87431000D03*
D22*
X106414000Y-91656000D03*
X106414000Y-93556000D03*
D10*
X99068000Y-87566000D03*
X97168000Y-87566000D03*
D22*
X99068000Y-91666000D03*
X99068000Y-93566000D03*
D10*
X91575000Y-87675000D03*
X89675000Y-87675000D03*
X89664000Y-89686000D03*
X91564000Y-89686000D03*
D22*
X91614000Y-91661000D03*
X91614000Y-93561000D03*
X78740000Y-78044000D03*
X78740000Y-79944000D03*
X76708000Y-77978000D03*
X76708000Y-79878000D03*
X81300000Y-81250000D03*
X81300000Y-79350000D03*
D10*
X104800000Y-72100000D03*
X106700000Y-72100000D03*
X103025000Y-72100000D03*
X101125000Y-72100000D03*
D24*
X88458000Y-82890000D03*
X90358000Y-82890000D03*
X90358000Y-85090000D03*
X89408000Y-85090000D03*
X88458000Y-85090000D03*
X115194000Y-63160000D03*
X116144000Y-63160000D03*
X117094000Y-63160000D03*
X117094000Y-60960000D03*
X115194000Y-60960000D03*
D25*
X84762150Y-79956227D03*
D15*
G36*
X85522290Y-80292103D02*
G01*
X85098026Y-80716367D01*
X84002010Y-79620351D01*
X84426274Y-79196087D01*
X85522290Y-80292103D01*
X85522290Y-80292103D01*
G37*
D25*
X85660176Y-79058201D03*
D15*
G36*
X86420316Y-79394077D02*
G01*
X85996052Y-79818341D01*
X84900036Y-78722325D01*
X85324300Y-78298061D01*
X86420316Y-79394077D01*
X86420316Y-79394077D01*
G37*
D25*
X86558201Y-78160176D03*
D15*
G36*
X87318341Y-78496052D02*
G01*
X86894077Y-78920316D01*
X85798061Y-77824300D01*
X86222325Y-77400036D01*
X87318341Y-78496052D01*
X87318341Y-78496052D01*
G37*
D25*
X87456227Y-77262150D03*
D15*
G36*
X88216367Y-77598026D02*
G01*
X87792103Y-78022290D01*
X86696087Y-76926274D01*
X87120351Y-76502010D01*
X88216367Y-77598026D01*
X88216367Y-77598026D01*
G37*
D25*
X83637850Y-73443773D03*
D15*
G36*
X84397990Y-73779649D02*
G01*
X83973726Y-74203913D01*
X82877710Y-73107897D01*
X83301974Y-72683633D01*
X84397990Y-73779649D01*
X84397990Y-73779649D01*
G37*
D25*
X82739824Y-74341799D03*
D15*
G36*
X83499964Y-74677675D02*
G01*
X83075700Y-75101939D01*
X81979684Y-74005923D01*
X82403948Y-73581659D01*
X83499964Y-74677675D01*
X83499964Y-74677675D01*
G37*
D25*
X81841799Y-75239824D03*
D15*
G36*
X82601939Y-75575700D02*
G01*
X82177675Y-75999964D01*
X81081659Y-74903948D01*
X81505923Y-74479684D01*
X82601939Y-75575700D01*
X82601939Y-75575700D01*
G37*
D25*
X80943773Y-76137850D03*
D15*
G36*
X81703913Y-76473726D02*
G01*
X81279649Y-76897990D01*
X80183633Y-75801974D01*
X80607897Y-75377710D01*
X81703913Y-76473726D01*
X81703913Y-76473726D01*
G37*
D26*
X100152300Y-74909500D03*
X100152300Y-77109500D03*
X101752300Y-77109500D03*
X101752300Y-74909500D03*
D27*
X128625600Y-82778600D03*
X128905000Y-85242400D03*
X129120900Y-87744300D03*
X125575680Y-90678000D03*
D28*
X97028000Y-94706000D03*
X124637800Y-79286100D03*
X124637800Y-84112100D03*
D27*
X130254360Y-91117980D03*
D28*
X126238000Y-69342000D03*
X118122700Y-90982800D03*
X126250700Y-67119500D03*
X123952000Y-68326000D03*
X99900000Y-64800000D03*
X112776000Y-65278000D03*
X78740000Y-76708000D03*
X86625000Y-89675000D03*
D27*
X128456040Y-91181480D03*
D28*
X122025000Y-59925000D03*
X86900000Y-80250000D03*
X92575000Y-89650000D03*
X115550000Y-65225000D03*
X107350000Y-89850000D03*
X99925000Y-67000000D03*
X85100000Y-69975000D03*
X80550000Y-77850000D03*
X89275000Y-77550000D03*
X99682300Y-82575400D03*
X105130600Y-76085700D03*
X99682300Y-82575400D03*
X98234500Y-79044800D03*
X78725000Y-71900000D03*
X98100000Y-69500000D03*
X86325000Y-70875000D03*
X85500000Y-71850000D03*
X97904300Y-76517500D03*
X82675000Y-82800000D03*
X115550000Y-64375000D03*
X99350000Y-70700000D03*
X95475000Y-86100000D03*
X88650000Y-86075000D03*
X98875000Y-69925000D03*
X94275000Y-82925000D03*
X89675000Y-67675000D03*
X101092000Y-92710000D03*
X88675000Y-68475000D03*
X89916000Y-90906600D03*
X87625000Y-69325000D03*
X87425000Y-67875000D03*
X93980000Y-93726000D03*
X96378875Y-90021231D03*
X107325000Y-88775000D03*
X104375000Y-94625000D03*
X92456000Y-86533410D03*
X108050000Y-72150000D03*
X91500000Y-84025000D03*
X96000000Y-84025000D03*
X117327201Y-65278000D03*
X118250000Y-61250000D03*
D29*
X100904000Y-67011000D02*
X100024000Y-67011000D01*
X97018000Y-93791000D02*
X97018000Y-94696000D01*
D30*
X97018000Y-94696000D02*
X97028000Y-94706000D01*
X95988315Y-70326963D02*
X96283037Y-70326963D01*
X89977907Y-76337371D02*
X89992629Y-76337371D01*
X89977907Y-76337371D02*
X89977907Y-76392093D01*
D29*
X78758800Y-75216800D02*
X76948000Y-73406000D01*
D30*
X76948000Y-73406000D02*
X76718800Y-73406000D01*
X78758800Y-75341800D02*
X78758800Y-75216800D01*
X115382000Y-66548000D02*
X115382000Y-66248000D01*
X120904000Y-59944000D02*
X120904000Y-60069000D01*
D29*
X100884000Y-64826000D02*
X99982000Y-64826000D01*
D30*
X100132000Y-64826000D02*
X100076000Y-64770000D01*
X112890000Y-65392000D02*
X112776000Y-65278000D01*
X112890000Y-66570000D02*
X112890000Y-65392000D01*
D29*
X78758800Y-75341800D02*
X78758800Y-76435200D01*
D30*
X78758800Y-76435200D02*
X78740000Y-76454000D01*
D29*
X87894000Y-89666000D02*
X86872000Y-89666000D01*
D30*
X86872000Y-89666000D02*
X86868000Y-89662000D01*
D29*
X84074000Y-85090000D02*
X83058000Y-85090000D01*
D30*
X86244800Y-84994800D02*
X86149600Y-85090000D01*
D29*
X86149600Y-85090000D02*
X84074000Y-85090000D01*
X120904000Y-59944000D02*
X121920000Y-59944000D01*
X89448000Y-93686000D02*
X89614000Y-93686000D01*
X88392000Y-94742000D02*
X89448000Y-93686000D01*
X84866238Y-94742000D02*
X88392000Y-94742000D01*
X83235800Y-94030800D02*
X84155038Y-94030800D01*
X84155038Y-94030800D02*
X84866238Y-94742000D01*
X87943000Y-84074000D02*
X87022200Y-84994800D01*
X87022200Y-84994800D02*
X86244800Y-84994800D01*
X89408000Y-84328000D02*
X89154000Y-84074000D01*
X89154000Y-84074000D02*
X87943000Y-84074000D01*
D30*
X89408000Y-84407600D02*
X89408000Y-84328000D01*
D29*
X89408000Y-85090000D02*
X89408000Y-84407600D01*
X104425000Y-91595000D02*
X104425000Y-90775000D01*
X104364000Y-91656000D02*
X104425000Y-91595000D01*
X102509000Y-90490000D02*
X102794000Y-90775000D01*
X102509000Y-89636000D02*
X102509000Y-90490000D01*
X102794000Y-90775000D02*
X104425000Y-90775000D01*
X105974000Y-90775000D02*
X106239000Y-90510000D01*
X104425000Y-90775000D02*
X105974000Y-90775000D01*
X106239000Y-90510000D02*
X106239000Y-89606000D01*
X91564000Y-89686000D02*
X92597800Y-89686000D01*
D30*
X92597800Y-89686000D02*
X92633800Y-89650000D01*
D29*
X116325000Y-63341000D02*
X116144000Y-63160000D01*
X116325000Y-65700000D02*
X116325000Y-63341000D01*
X115382000Y-66248000D02*
X115777000Y-66248000D01*
X115777000Y-66248000D02*
X116325000Y-65700000D01*
X115382000Y-65318000D02*
X115550000Y-65150000D01*
X115382000Y-66548000D02*
X115382000Y-65318000D01*
X99068000Y-90016000D02*
X99068000Y-89716000D01*
X95338401Y-90645401D02*
X98438599Y-90645401D01*
X95318000Y-90625000D02*
X95338401Y-90645401D01*
X98438599Y-90645401D02*
X99068000Y-90016000D01*
X95318000Y-89771000D02*
X95318000Y-90625000D01*
X102429000Y-89716000D02*
X102509000Y-89636000D01*
X99068000Y-89716000D02*
X102429000Y-89716000D01*
X106239000Y-89606000D02*
X107156000Y-89606000D01*
X107156000Y-89606000D02*
X107400000Y-89850000D01*
X101009000Y-69446000D02*
X101009000Y-69146000D01*
X100975000Y-69412000D02*
X101009000Y-69446000D01*
X100975000Y-67025000D02*
X100975000Y-69412000D01*
X97550000Y-67000000D02*
X99925000Y-67000000D01*
X96775000Y-67775000D02*
X97550000Y-67000000D01*
X96252047Y-70326963D02*
X96775000Y-69804010D01*
X96775000Y-69804010D02*
X96775000Y-67775000D01*
X83675000Y-70400000D02*
X84700000Y-70400000D01*
X84700000Y-70400000D02*
X85075000Y-70025000D01*
X80625000Y-77775000D02*
X80550000Y-77850000D01*
X80625000Y-76236349D02*
X80625000Y-77775000D01*
X85708201Y-79058201D02*
X86900000Y-80250000D01*
X85660176Y-79058201D02*
X85708201Y-79058201D01*
X90241639Y-76337371D02*
X89200000Y-77379010D01*
X96095245Y-81953155D02*
X97984595Y-81953155D01*
X99251248Y-82575400D02*
X99682300Y-82575400D01*
X97984595Y-81953155D02*
X98606840Y-82575400D01*
X95244400Y-82804000D02*
X96095245Y-81953155D01*
X98606840Y-82575400D02*
X99251248Y-82575400D01*
D30*
X100152300Y-78514600D02*
X99685600Y-78981300D01*
X100152300Y-77109500D02*
X100152300Y-78514600D01*
X100152300Y-76609500D02*
X101752300Y-75009500D01*
X100152300Y-77109500D02*
X100152300Y-76609500D01*
X103345900Y-76603100D02*
X103682800Y-76603100D01*
X101752300Y-75009500D02*
X103345900Y-76603100D01*
X101752300Y-74909500D02*
X101752300Y-75009500D01*
X103807800Y-76603100D02*
X104325200Y-76085700D01*
X104325200Y-76085700D02*
X105130600Y-76085700D01*
X103682800Y-76603100D02*
X103807800Y-76603100D01*
X98298000Y-78981300D02*
X98234500Y-79044800D01*
X99685600Y-78981300D02*
X98298000Y-78981300D01*
X110380000Y-88130000D02*
X110350000Y-88160000D01*
D29*
X106854000Y-91656000D02*
X106414000Y-91656000D01*
X110604000Y-87906000D02*
X106854000Y-91656000D01*
D30*
X112890000Y-69110000D02*
X113008000Y-69110000D01*
D29*
X113884000Y-70104000D02*
X112890000Y-69110000D01*
X115382000Y-70104000D02*
X113884000Y-70104000D01*
X116005000Y-59944000D02*
X115194000Y-60755000D01*
X115194000Y-60755000D02*
X115194000Y-60960000D01*
X118904000Y-59944000D02*
X116005000Y-59944000D01*
D30*
X91914000Y-91661000D02*
X91614000Y-91661000D01*
D29*
X93040209Y-90534791D02*
X91914000Y-91661000D01*
X93040209Y-90534791D02*
X93074791Y-90534791D01*
X88353200Y-82994800D02*
X88458000Y-82890000D01*
X86244800Y-82994800D02*
X88353200Y-82994800D01*
X78191600Y-79944000D02*
X78994000Y-79944000D01*
D30*
X78171600Y-79944000D02*
X78191600Y-79944000D01*
D29*
X76708000Y-78480400D02*
X78171600Y-79944000D01*
X76708000Y-77978000D02*
X76708000Y-78480400D01*
X76708000Y-75392600D02*
X76758800Y-75341800D01*
X76708000Y-77978000D02*
X76708000Y-75392600D01*
D30*
X76758800Y-75341800D02*
X76758800Y-75216800D01*
D29*
X78740000Y-84328000D02*
X77978000Y-85090000D01*
X78740000Y-79944000D02*
X78740000Y-84328000D01*
D30*
X89412221Y-75771685D02*
X90048616Y-75135290D01*
D29*
X93218000Y-90357000D02*
X93040209Y-90534791D01*
X99068000Y-92168400D02*
X99068000Y-91666000D01*
X100076000Y-93176400D02*
X99068000Y-92168400D01*
X100076000Y-94234000D02*
X100076000Y-93176400D01*
X98324518Y-94234000D02*
X98552000Y-94234000D01*
X98552000Y-94234000D02*
X100076000Y-94234000D01*
X98179119Y-94234000D02*
X98552000Y-94234000D01*
X93218000Y-90424000D02*
X95855599Y-93061599D01*
X95855599Y-93061599D02*
X97887599Y-93061599D01*
X97887599Y-93061599D02*
X98044000Y-93218000D01*
X93218000Y-90357000D02*
X93218000Y-90424000D01*
X98044000Y-93218000D02*
X98044000Y-94098881D01*
X98044000Y-94098881D02*
X98179119Y-94234000D01*
X106114000Y-91656000D02*
X106414000Y-91656000D01*
X103257401Y-92335401D02*
X105434599Y-92335401D01*
X102616000Y-91694000D02*
X103257401Y-92335401D01*
X99068000Y-91666000D02*
X99096000Y-91694000D01*
X105434599Y-92335401D02*
X106114000Y-91656000D01*
X99096000Y-91694000D02*
X102616000Y-91694000D01*
X83480200Y-82994800D02*
X81900000Y-84575000D01*
X81900000Y-84575000D02*
X81900000Y-88280000D01*
X86244800Y-82994800D02*
X83480200Y-82994800D01*
X81900000Y-88280000D02*
X81570599Y-88609401D01*
X81570599Y-88609401D02*
X79502000Y-88609401D01*
X79502000Y-86614000D02*
X77978000Y-85090000D01*
X79502000Y-88609401D02*
X79502000Y-86614000D01*
X114447788Y-68981788D02*
X115382000Y-69916000D01*
X114447788Y-62388612D02*
X114447788Y-68981788D01*
X115194000Y-60960000D02*
X115194000Y-61642400D01*
X115382000Y-69916000D02*
X115382000Y-70104000D01*
X115194000Y-61642400D02*
X114447788Y-62388612D01*
X93850000Y-83802000D02*
X93850000Y-89725000D01*
X93850000Y-89725000D02*
X93218000Y-90357000D01*
X93106000Y-83058000D02*
X93850000Y-83802000D01*
X92325000Y-81950000D02*
X92800000Y-82425000D01*
X92800000Y-82425000D02*
X92800000Y-83100000D01*
X89875400Y-81950000D02*
X92325000Y-81950000D01*
X88458000Y-82890000D02*
X88935400Y-82890000D01*
X88935400Y-82890000D02*
X89875400Y-81950000D01*
X81321000Y-70625000D02*
X81580000Y-70884000D01*
X77775000Y-70625000D02*
X81321000Y-70625000D01*
X76200000Y-72200000D02*
X77775000Y-70625000D01*
X76758800Y-75216800D02*
X76200000Y-74658000D01*
X76200000Y-74658000D02*
X76200000Y-72200000D01*
X89039558Y-76408080D02*
X89675953Y-75771685D01*
X88158080Y-76408080D02*
X89039558Y-76408080D01*
X81775000Y-70400000D02*
X82150000Y-70400000D01*
X82150000Y-70400000D02*
X88158080Y-76408080D01*
X111525000Y-75800000D02*
X111525000Y-71100000D01*
X112890000Y-69735000D02*
X112890000Y-69110000D01*
X109071600Y-76450000D02*
X110875000Y-76450000D01*
X108396600Y-77125000D02*
X109071600Y-76450000D01*
X111525000Y-71100000D02*
X112890000Y-69735000D01*
X110875000Y-76450000D02*
X111525000Y-75800000D01*
X108062500Y-77500000D02*
X108396600Y-77165900D01*
X108396600Y-77165900D02*
X108396600Y-77125000D01*
X108062500Y-78075000D02*
X108062500Y-77500000D01*
X107505500Y-77025500D02*
X107505500Y-75679400D01*
X107406000Y-77125000D02*
X107505500Y-77025500D01*
X107406000Y-77125000D02*
X108396600Y-77125000D01*
X106099686Y-77320590D02*
X106295276Y-77125000D01*
X105575000Y-79148000D02*
X105575000Y-77845276D01*
X106295276Y-77125000D02*
X107406000Y-77125000D01*
X105575000Y-77845276D02*
X105770590Y-77649686D01*
X105770590Y-77649686D02*
X105770590Y-77612404D01*
X105770590Y-77612404D02*
X106062404Y-77320590D01*
X106062404Y-77320590D02*
X106099686Y-77320590D01*
X111900000Y-80450000D02*
X113225000Y-80450000D01*
X113365000Y-88160000D02*
X111269238Y-88160000D01*
X89273025Y-80875000D02*
X102545275Y-80875000D01*
X104172275Y-79248000D02*
X110698000Y-79248000D01*
X113975000Y-87550000D02*
X113365000Y-88160000D01*
X113975000Y-81200000D02*
X113975000Y-87550000D01*
X113225000Y-80450000D02*
X113975000Y-81200000D01*
X110698000Y-79248000D02*
X111900000Y-80450000D01*
X86558201Y-78160176D02*
X89273025Y-80875000D01*
X102545275Y-80875000D02*
X104172275Y-79248000D01*
X111269238Y-88160000D02*
X110350000Y-88160000D01*
D30*
X78718800Y-72936800D02*
X78718800Y-73061800D01*
X96554000Y-70892648D02*
X96707352Y-70892648D01*
X96707352Y-70892648D02*
X97850000Y-69750000D01*
X97850000Y-69750000D02*
X98100000Y-69500000D01*
X78718800Y-72157200D02*
X78718800Y-73531000D01*
X79487401Y-76149681D02*
X79470189Y-76166893D01*
X79487401Y-74299601D02*
X79487401Y-76149681D01*
X79470189Y-76166893D02*
X79470189Y-77567811D01*
X78718800Y-73531000D02*
X79487401Y-74299601D01*
X79470189Y-77567811D02*
X78994000Y-78044000D01*
X95120676Y-76903056D02*
X95128056Y-76903056D01*
X102935599Y-73980899D02*
X100980901Y-73980899D01*
X100152300Y-74809500D02*
X100152300Y-74909500D01*
X103557800Y-74603100D02*
X102935599Y-73980899D01*
X100980901Y-73980899D02*
X100152300Y-74809500D01*
X103682800Y-74603100D02*
X103557800Y-74603100D01*
X95757071Y-77539451D02*
X95120676Y-76903056D01*
X97671783Y-77539451D02*
X95757071Y-77539451D01*
X100152300Y-75058934D02*
X97671783Y-77539451D01*
X100152300Y-74909500D02*
X100152300Y-75058934D01*
X94291258Y-77468741D02*
X94291258Y-77527258D01*
X94554990Y-77468741D02*
X94554990Y-77536990D01*
X94554990Y-77468741D02*
X94996000Y-77909751D01*
X101561310Y-79882990D02*
X96969239Y-79882990D01*
X95191385Y-78105136D02*
X94554990Y-77468741D01*
X101685600Y-79758700D02*
X101561310Y-79882990D01*
X96969239Y-79882990D02*
X95191385Y-78105136D01*
X101685600Y-78981300D02*
X101685600Y-79758700D01*
X101752300Y-78914600D02*
X101685600Y-78981300D01*
X101752300Y-77109500D02*
X101752300Y-78914600D01*
X103408601Y-68646399D02*
X106873799Y-68646399D01*
X102909000Y-69446000D02*
X102909000Y-69146000D01*
X106875000Y-68647600D02*
X106875000Y-69400000D01*
X106873799Y-68646399D02*
X106875000Y-68647600D01*
X102909000Y-69146000D02*
X103408601Y-68646399D01*
X103654811Y-70420189D02*
X104675000Y-69400000D01*
X94856944Y-69195592D02*
X94220549Y-69831987D01*
X94220549Y-70013873D02*
X97292555Y-73085879D01*
X97292555Y-73085879D02*
X97764121Y-73085879D01*
X94220549Y-69831987D02*
X94220549Y-70013873D01*
X97764121Y-73085879D02*
X100429811Y-70420189D01*
X100429811Y-70420189D02*
X103654811Y-70420189D01*
X103025000Y-66975000D02*
X103025000Y-66675000D01*
X102875000Y-67025000D02*
X103653600Y-66246400D01*
X105532837Y-66246400D02*
X106361437Y-67075000D01*
X103653600Y-66246400D02*
X105532837Y-66246400D01*
X106361437Y-67075000D02*
X106850000Y-67075000D01*
X94927653Y-67993512D02*
X94291258Y-68629907D01*
X95050000Y-67170860D02*
X96266050Y-65954810D01*
X94554990Y-68629907D02*
X95050000Y-68134897D01*
X95050000Y-68134897D02*
X95050000Y-67170860D01*
X96283411Y-65941589D02*
X105659092Y-65941589D01*
X96275000Y-65950000D02*
X96283411Y-65941589D01*
X107591589Y-65941589D02*
X105667503Y-65941589D01*
X104650000Y-67827400D02*
X104822600Y-68000000D01*
X104650000Y-67075000D02*
X104650000Y-67827400D01*
X107536482Y-68000000D02*
X107750000Y-67786482D01*
X104822600Y-68000000D02*
X107536482Y-68000000D01*
X107750000Y-67786482D02*
X107750000Y-66100000D01*
X107750000Y-66100000D02*
X107591589Y-65941589D01*
X93725573Y-68064221D02*
X96153016Y-65636778D01*
X104415622Y-65636778D02*
X104650000Y-65402400D01*
X104650000Y-65402400D02*
X104650000Y-64650000D01*
X96153016Y-65636778D02*
X104415622Y-65636778D01*
X102934000Y-64826000D02*
X102934000Y-64266000D01*
X106850000Y-63897600D02*
X106850000Y-64650000D01*
X106773799Y-63821399D02*
X106850000Y-63897600D01*
X103403601Y-63821399D02*
X106773799Y-63821399D01*
X102850000Y-64375000D02*
X103403601Y-63821399D01*
X102850000Y-64675000D02*
X102850000Y-64375000D01*
X106264000Y-86628600D02*
X106264000Y-87431000D01*
X106187799Y-86552399D02*
X106264000Y-86628600D01*
X102640201Y-86552399D02*
X106187799Y-86552399D01*
X102509000Y-86683600D02*
X102640201Y-86552399D01*
X102509000Y-87436000D02*
X102509000Y-86683600D01*
X95318000Y-86818600D02*
X95318000Y-87571000D01*
X95449201Y-86687399D02*
X95318000Y-86818600D01*
X97686999Y-86687399D02*
X95449201Y-86687399D01*
X98565600Y-87566000D02*
X97686999Y-86687399D01*
X99068000Y-87566000D02*
X98565600Y-87566000D01*
X91575000Y-87675000D02*
X91547600Y-87647600D01*
X91547600Y-87647600D02*
X91547600Y-86675000D01*
X91547600Y-86675000D02*
X87932600Y-86675000D01*
X87925000Y-86682600D02*
X87925000Y-87427400D01*
X87932600Y-86675000D02*
X87925000Y-86682600D01*
X87715165Y-74074629D02*
X87723371Y-74074629D01*
X87978897Y-74074629D02*
X87978897Y-74073103D01*
X87978897Y-74074629D02*
X87978897Y-74246103D01*
X86325000Y-71175000D02*
X86325000Y-70875000D01*
X87978897Y-74074629D02*
X87978897Y-72828897D01*
X87978897Y-72828897D02*
X86325000Y-71175000D01*
X88544583Y-74640314D02*
X88544583Y-74930417D01*
X87908188Y-75276709D02*
X87626709Y-75276709D01*
X85500000Y-73150000D02*
X85500000Y-72281052D01*
X85500000Y-72281052D02*
X85500000Y-71850000D01*
X88544583Y-74640314D02*
X87908188Y-75276709D01*
X87626709Y-75276709D02*
X85500000Y-73150000D01*
X90807324Y-77267676D02*
X90807324Y-76903056D01*
X89925000Y-78150000D02*
X90807324Y-77267676D01*
X84143432Y-79337509D02*
X84143432Y-79055625D01*
X84762150Y-79956227D02*
X84143432Y-79337509D01*
X84143432Y-79055625D02*
X86936074Y-76262982D01*
X87204629Y-76262982D02*
X89091647Y-78150000D01*
X86936074Y-76262982D02*
X87204629Y-76262982D01*
X89091647Y-78150000D02*
X89925000Y-78150000D01*
X87456227Y-77262150D02*
X88648888Y-78454811D01*
X90736615Y-78105136D02*
X91373010Y-77468741D01*
X90386940Y-78454811D02*
X90736615Y-78105136D01*
X88648888Y-78454811D02*
X90386940Y-78454811D01*
X91610677Y-78587622D02*
X91674963Y-78523336D01*
X91674963Y-78523336D02*
X91674963Y-78034427D01*
X105302400Y-72100000D02*
X104800000Y-72100000D01*
X102399367Y-80518000D02*
X105414979Y-77502388D01*
X105414979Y-77502388D02*
X105414979Y-77465106D01*
X106514900Y-73312500D02*
X105302400Y-72100000D01*
X105414979Y-77465106D02*
X106514900Y-76365185D01*
X106514900Y-76365185D02*
X106514900Y-73312500D01*
X91938695Y-78034427D02*
X94422268Y-80518000D01*
X94422268Y-80518000D02*
X102399367Y-80518000D01*
X102730200Y-73202800D02*
X105943400Y-73202800D01*
X95362800Y-80187800D02*
X93725573Y-78550573D01*
X106146600Y-73406000D02*
X106146600Y-76302418D01*
X106146600Y-76302418D02*
X105110168Y-77338850D01*
X105943400Y-73202800D02*
X106146600Y-73406000D01*
X101125000Y-72100000D02*
X101627400Y-72100000D01*
X101627400Y-72100000D02*
X102730200Y-73202800D01*
X105110168Y-77338850D02*
X105110168Y-77376132D01*
X102298500Y-80187800D02*
X95362800Y-80187800D01*
X93725573Y-78550573D02*
X93725573Y-78034427D01*
X105110168Y-77376132D02*
X102298500Y-80187800D01*
X95686361Y-76337371D02*
X95686361Y-76382361D01*
X81884000Y-83566000D02*
X82575000Y-82875000D01*
X80518000Y-87630000D02*
X81534000Y-86614000D01*
X81877000Y-83566000D02*
X81534000Y-83909000D01*
X81884000Y-83566000D02*
X81877000Y-83566000D01*
X81534000Y-86614000D02*
X81534000Y-83909000D01*
X97675700Y-76746100D02*
X97904300Y-76517500D01*
X96717973Y-76760435D02*
X96732308Y-76746100D01*
X96528583Y-76760435D02*
X96717973Y-76760435D01*
X96514248Y-76746100D02*
X96528583Y-76760435D01*
X95895371Y-76337371D02*
X96304100Y-76746100D01*
X96732308Y-76746100D02*
X97675700Y-76746100D01*
X96304100Y-76746100D02*
X96514248Y-76746100D01*
X95686361Y-76337371D02*
X95895371Y-76337371D01*
X107465000Y-70725000D02*
X110350000Y-67840000D01*
X100556066Y-70725000D02*
X107465000Y-70725000D01*
X97241920Y-76408080D02*
X98937853Y-74712147D01*
X98937853Y-74712147D02*
X98937853Y-74262853D01*
X96624710Y-76408080D02*
X97241920Y-76408080D01*
X98100000Y-73181066D02*
X100556066Y-70725000D01*
X98937853Y-74262853D02*
X98100000Y-73425000D01*
X98100000Y-73425000D02*
X98100000Y-73181066D01*
X95988315Y-75771685D02*
X96624710Y-76408080D01*
X115194000Y-63842400D02*
X115194000Y-63160000D01*
X115194000Y-63842400D02*
X115194000Y-63886000D01*
X115194000Y-64019000D02*
X115550000Y-64375000D01*
X115194000Y-63842400D02*
X115194000Y-64019000D01*
X115194000Y-63981000D02*
X115194000Y-63842400D01*
X114803399Y-67380881D02*
X114803399Y-64371601D01*
X114803399Y-64371601D02*
X115194000Y-63981000D01*
X115057388Y-67634870D02*
X114803399Y-67380881D01*
X115519000Y-68326000D02*
X115057388Y-67864388D01*
X115057388Y-67864388D02*
X115057388Y-67634870D01*
X99122281Y-70850841D02*
X99153501Y-70850841D01*
X97949103Y-72024019D02*
X99122281Y-70850841D01*
X97119685Y-71458334D02*
X97305451Y-71458334D01*
X88458000Y-85090000D02*
X88458000Y-85835999D01*
X88458000Y-85835999D02*
X88646000Y-86023999D01*
X95525000Y-85075000D02*
X95525000Y-86100000D01*
X98402178Y-70397822D02*
X98875000Y-69925000D01*
X97383417Y-71458334D02*
X97383417Y-71416583D01*
X97383417Y-71416583D02*
X98402178Y-70397822D01*
X96620400Y-91691000D02*
X96068000Y-91691000D01*
X97695400Y-91691000D02*
X96620400Y-91691000D01*
X99068000Y-93063600D02*
X97695400Y-91691000D01*
X99068000Y-93566000D02*
X99068000Y-93063600D01*
X91109278Y-68629907D02*
X91297555Y-68629907D01*
X94275000Y-83780216D02*
X94275000Y-82925000D01*
X94275000Y-90719000D02*
X94275000Y-83780216D01*
X96068000Y-91691000D02*
X95247000Y-91691000D01*
X95247000Y-91691000D02*
X94275000Y-90719000D01*
X90418103Y-67675000D02*
X89675000Y-67675000D01*
X91373010Y-68629907D02*
X90418103Y-67675000D01*
X102160000Y-92710000D02*
X102264000Y-92606000D01*
X101092000Y-92710000D02*
X102160000Y-92710000D01*
X102349012Y-92691012D02*
X102264000Y-92606000D01*
X104975000Y-95200000D02*
X106414000Y-93761000D01*
X102800000Y-95200000D02*
X104975000Y-95200000D01*
X106414000Y-93761000D02*
X106414000Y-93556000D01*
X102264000Y-92606000D02*
X102264000Y-94664000D01*
X102264000Y-94664000D02*
X102800000Y-95200000D01*
X90807324Y-69195592D02*
X90470592Y-69195592D01*
X89750000Y-68475000D02*
X88675000Y-68475000D01*
X90470592Y-69195592D02*
X89750000Y-68475000D01*
X88664000Y-91536000D02*
X88664000Y-91586000D01*
X91314000Y-93561000D02*
X91614000Y-93561000D01*
X89916000Y-92163000D02*
X91314000Y-93561000D01*
X89916000Y-90906600D02*
X89916000Y-92163000D01*
X89339000Y-91586000D02*
X89916000Y-92163000D01*
X88664000Y-91586000D02*
X89339000Y-91586000D01*
X89805362Y-69325000D02*
X90241639Y-69761277D01*
X87625000Y-69325000D02*
X89805362Y-69325000D01*
X76708000Y-80380400D02*
X75741159Y-81347241D01*
X76708000Y-79878000D02*
X76708000Y-80380400D01*
X75741159Y-81347241D02*
X75741159Y-89203159D01*
X75741159Y-89203159D02*
X76200000Y-89662000D01*
X81026000Y-89662000D02*
X83058000Y-87630000D01*
X76200000Y-89662000D02*
X81026000Y-89662000D01*
X88544583Y-71458334D02*
X88544583Y-71526583D01*
X88544583Y-71458334D02*
X88730334Y-71458334D01*
X87250000Y-67875000D02*
X87425000Y-67875000D01*
X76708000Y-79375600D02*
X76708000Y-79878000D01*
X75829399Y-78496999D02*
X76708000Y-79375600D01*
X75829399Y-72067692D02*
X75829399Y-78496999D01*
X88208334Y-71458334D02*
X86025000Y-69275000D01*
X88544583Y-71458334D02*
X88208334Y-71458334D01*
X79938833Y-69432846D02*
X77875028Y-70022063D01*
X80491712Y-69275000D02*
X79938833Y-69432846D01*
X86025000Y-69275000D02*
X80491712Y-69275000D01*
X77875028Y-70022063D02*
X75829399Y-72067692D01*
X86025000Y-69275000D02*
X87425000Y-67875000D01*
X97168000Y-89716000D02*
X97168000Y-87566000D01*
X95118000Y-93791000D02*
X94045000Y-93791000D01*
X96665600Y-89716000D02*
X96378875Y-90002725D01*
X97168000Y-89716000D02*
X96665600Y-89716000D01*
X96378875Y-90002725D02*
X96378875Y-90021231D01*
X89664000Y-87461000D02*
X89689000Y-87436000D01*
X89664000Y-89686000D02*
X89664000Y-87461000D01*
X80075799Y-90840801D02*
X79425800Y-91490800D01*
X80304401Y-90612199D02*
X80075799Y-90840801D01*
X82387529Y-90612199D02*
X80304401Y-90612199D01*
X87714000Y-93686000D02*
X85461330Y-93686000D01*
X85461330Y-93686000D02*
X82387529Y-90612199D01*
X89664000Y-89986000D02*
X89664000Y-89686000D01*
X88800000Y-90850000D02*
X89664000Y-89986000D01*
X88010000Y-90850000D02*
X88800000Y-90850000D01*
X87714000Y-93686000D02*
X87714000Y-91146000D01*
X87714000Y-91146000D02*
X88010000Y-90850000D01*
X104339000Y-89906000D02*
X104339000Y-89606000D01*
X104339000Y-87456000D02*
X104364000Y-87431000D01*
X104339000Y-89606000D02*
X104339000Y-87456000D01*
X107200000Y-88650000D02*
X107325000Y-88775000D01*
X104492600Y-88650000D02*
X107200000Y-88650000D01*
X104339000Y-89606000D02*
X104339000Y-88803600D01*
X104339000Y-88803600D02*
X104492600Y-88650000D01*
X104364000Y-94564000D02*
X104400000Y-94600000D01*
X104364000Y-93556000D02*
X104364000Y-94564000D01*
X79792212Y-75842212D02*
X79792212Y-75720091D01*
X79792212Y-76275937D02*
X79792212Y-75842212D01*
X79792212Y-79642212D02*
X79792212Y-76275937D01*
X81300000Y-81250000D02*
X81300000Y-81150000D01*
X81300000Y-81150000D02*
X79792212Y-79642212D01*
X79792212Y-75617010D02*
X80890183Y-74519039D01*
X79792212Y-75842212D02*
X79792212Y-75617010D01*
X81257224Y-74519039D02*
X81878035Y-75139850D01*
X80890183Y-74519039D02*
X81257224Y-74519039D01*
X82102400Y-81250000D02*
X81300000Y-81250000D01*
X82407211Y-81554811D02*
X82102400Y-81250000D01*
X109829811Y-81554811D02*
X82407211Y-81554811D01*
X110085000Y-81810000D02*
X109829811Y-81554811D01*
X112890000Y-81810000D02*
X110085000Y-81810000D01*
X81300000Y-79350000D02*
X81300000Y-77325000D01*
X83325000Y-74797598D02*
X82850912Y-74323510D01*
X81300000Y-77325000D02*
X83325000Y-75300000D01*
X83325000Y-75300000D02*
X83325000Y-74797598D01*
X109659389Y-81230611D02*
X88552702Y-81230611D01*
X110350000Y-80540000D02*
X109659389Y-81230611D01*
X83977400Y-81225000D02*
X82102400Y-79350000D01*
X82102400Y-79350000D02*
X81300000Y-79350000D01*
X88552702Y-81230611D02*
X88547091Y-81225000D01*
X88547091Y-81225000D02*
X83977400Y-81225000D01*
X113144000Y-79016000D02*
X113020389Y-78892389D01*
X112512390Y-78892390D02*
X112890000Y-79270000D01*
X106579000Y-78046000D02*
X107425390Y-78892390D01*
X107425390Y-78892390D02*
X112512390Y-78892390D01*
X92208410Y-86533410D02*
X92456000Y-86533410D01*
X90358000Y-85090000D02*
X90765000Y-85090000D01*
X90765000Y-85090000D02*
X92208410Y-86533410D01*
X90490000Y-84958000D02*
X90358000Y-85090000D01*
X92710000Y-85090000D02*
X92800000Y-85000000D01*
X90358000Y-85090000D02*
X92710000Y-85090000D01*
X108994400Y-74104400D02*
X110350000Y-75460000D01*
X107505500Y-74104400D02*
X108994400Y-74104400D01*
X117282000Y-70104000D02*
X117282000Y-70404000D01*
X117094000Y-63500000D02*
X117094000Y-63160000D01*
X117282000Y-69804000D02*
X117860601Y-69225399D01*
X117282000Y-70104000D02*
X117282000Y-69804000D01*
X117860601Y-64609001D02*
X117860601Y-69225399D01*
X117094000Y-63842400D02*
X117860601Y-64609001D01*
X117094000Y-63160000D02*
X117094000Y-63842400D01*
X116976000Y-70104000D02*
X117282000Y-70104000D01*
X112890000Y-74190000D02*
X116976000Y-70104000D01*
X106700000Y-72100000D02*
X108000000Y-72100000D01*
X108000000Y-72100000D02*
X108050000Y-72150000D01*
X109680000Y-71050000D02*
X109700001Y-71029999D01*
X109700001Y-71029999D02*
X110350000Y-70380000D01*
X103775000Y-71050000D02*
X109680000Y-71050000D01*
X103025000Y-72100000D02*
X103025000Y-71800000D01*
X103025000Y-71800000D02*
X103775000Y-71050000D01*
X90358000Y-82890000D02*
X90358000Y-82992000D01*
X97200000Y-82825000D02*
X97250000Y-82825000D01*
X96000000Y-84025000D02*
X97200000Y-82825000D01*
X97100000Y-84908000D02*
X97100000Y-85075000D01*
X96012000Y-83820000D02*
X97100000Y-84908000D01*
X91288000Y-84025000D02*
X91500000Y-84025000D01*
X90358000Y-83095000D02*
X91288000Y-84025000D01*
X90358000Y-82890000D02*
X90358000Y-83095000D01*
X117094000Y-66736000D02*
X117282000Y-66548000D01*
X117094000Y-68326000D02*
X117094000Y-66736000D01*
X117282000Y-66548000D02*
X117282000Y-65323201D01*
X117282000Y-65323201D02*
X117327201Y-65278000D01*
X117960000Y-60960000D02*
X118250000Y-61250000D01*
X117094000Y-60960000D02*
X117960000Y-60960000D01*
M02*
