G04 #@! TF.GenerationSoftware,KiCad,Pcbnew,(5.1.4-0-10_14)*
G04 #@! TF.CreationDate,2020-01-14T22:28:18-05:00*
G04 #@! TF.ProjectId,throttle,7468726f-7474-46c6-952e-6b696361645f,rev?*
G04 #@! TF.SameCoordinates,Original*
G04 #@! TF.FileFunction,Copper,L2,Inr*
G04 #@! TF.FilePolarity,Positive*
%FSLAX46Y46*%
G04 Gerber Fmt 4.6, Leading zero omitted, Abs format (unit mm)*
G04 Created by KiCad (PCBNEW (5.1.4-0-10_14)) date 2020-01-14 22:28:18*
%MOMM*%
%LPD*%
G04 APERTURE LIST*
%ADD10C,1.300000*%
%ADD11C,2.000000*%
%ADD12C,1.400000*%
%ADD13R,1.400000X1.400000*%
%ADD14C,0.800000*%
%ADD15C,0.609600*%
%ADD16C,0.152400*%
G04 APERTURE END LIST*
D10*
X81965800Y-91490800D03*
X79425800Y-91490800D03*
X80695800Y-94030800D03*
X83235800Y-94030800D03*
D11*
X78025800Y-92990800D03*
X112150000Y-92100000D03*
D10*
X112890000Y-66570000D03*
X110350000Y-67840000D03*
X112890000Y-69110000D03*
X110350000Y-70380000D03*
X112890000Y-71650000D03*
X110350000Y-72920000D03*
X112890000Y-74190000D03*
X110350000Y-75460000D03*
X112890000Y-76730000D03*
X110350000Y-78000000D03*
X112890000Y-79270000D03*
X110350000Y-80540000D03*
X112890000Y-81810000D03*
X112890000Y-84350000D03*
X112890000Y-86890000D03*
X112890000Y-89430000D03*
X110350000Y-83080000D03*
X110350000Y-90700000D03*
X110350000Y-88160000D03*
X110350000Y-85620000D03*
D12*
X83058000Y-85090000D03*
X83058000Y-87630000D03*
X80518000Y-85090000D03*
X80518000Y-87630000D03*
X77978000Y-85090000D03*
D13*
X77978000Y-87630000D03*
D14*
X128625600Y-82778600D03*
X128905000Y-85242400D03*
X129120900Y-87744300D03*
X125575680Y-90678000D03*
D15*
X97028000Y-94706000D03*
X124637800Y-79286100D03*
X124637800Y-84112100D03*
D14*
X130254360Y-91117980D03*
D15*
X126238000Y-69342000D03*
X118122700Y-90982800D03*
X126250700Y-67119500D03*
X123952000Y-68326000D03*
X99900000Y-64800000D03*
X112776000Y-65278000D03*
X78740000Y-76708000D03*
X86625000Y-89675000D03*
D14*
X128456040Y-91181480D03*
D15*
X122025000Y-59925000D03*
X86900000Y-80250000D03*
X92575000Y-89650000D03*
X115550000Y-65225000D03*
X107350000Y-89850000D03*
X99925000Y-67000000D03*
X85100000Y-69975000D03*
X80550000Y-77850000D03*
X89275000Y-77550000D03*
X99682300Y-82575400D03*
X105130600Y-76085700D03*
X99682300Y-82575400D03*
X98234500Y-79044800D03*
X78725000Y-71900000D03*
X98100000Y-69500000D03*
X86325000Y-70875000D03*
X85500000Y-71850000D03*
X97904300Y-76517500D03*
X82675000Y-82800000D03*
X115550000Y-64375000D03*
X99350000Y-70700000D03*
X95475000Y-86100000D03*
X88650000Y-86075000D03*
X98875000Y-69925000D03*
X94275000Y-82925000D03*
X89675000Y-67675000D03*
X101092000Y-92710000D03*
X88675000Y-68475000D03*
X89916000Y-90906600D03*
X87625000Y-69325000D03*
X87425000Y-67875000D03*
X93980000Y-93726000D03*
X96378875Y-90021231D03*
X107325000Y-88775000D03*
X104375000Y-94625000D03*
X92456000Y-86533410D03*
X108050000Y-72150000D03*
X91500000Y-84025000D03*
X96000000Y-84025000D03*
X117327201Y-65278000D03*
X118250000Y-61250000D03*
D16*
X91075000Y-70875000D02*
X86325000Y-70875000D01*
X93650000Y-68300000D02*
X91075000Y-70875000D01*
X111704811Y-85704811D02*
X111704811Y-69873744D01*
X111704811Y-69873744D02*
X110549668Y-68718601D01*
X112890000Y-86890000D02*
X111704811Y-85704811D01*
X110549668Y-68718601D02*
X109928271Y-68718601D01*
X109928271Y-68718601D02*
X109509670Y-68300000D01*
X109509670Y-68300000D02*
X93650000Y-68300000D01*
X85931052Y-71850000D02*
X85500000Y-71850000D01*
X90531066Y-71850000D02*
X85931052Y-71850000D01*
X110350000Y-85620000D02*
X111400000Y-84570000D01*
X111400000Y-84570000D02*
X111400000Y-70000000D01*
X111400000Y-70000000D02*
X110423412Y-69023412D01*
X110423412Y-69023412D02*
X109802015Y-69023412D01*
X109802015Y-69023412D02*
X109393025Y-68614421D01*
X93766645Y-68614421D02*
X90531066Y-71850000D01*
X109393025Y-68614421D02*
X93766645Y-68614421D01*
X97904300Y-76847700D02*
X97904300Y-76517500D01*
X97764600Y-76987400D02*
X97904300Y-76847700D01*
X82675000Y-82800000D02*
X83775000Y-81700000D01*
X96562600Y-76987400D02*
X97764600Y-76987400D01*
X83775000Y-81700000D02*
X91850000Y-81700000D01*
X91850000Y-81700000D02*
X96562600Y-76987400D01*
X88646000Y-86023999D02*
X88669999Y-86000000D01*
X88669999Y-86000000D02*
X95325000Y-86000000D01*
X98800000Y-70000000D02*
X98875000Y-69925000D01*
X98800000Y-84450000D02*
X98800000Y-70000000D01*
X95475000Y-86150000D02*
X95625000Y-86000000D01*
X97250000Y-86000000D02*
X98800000Y-84450000D01*
X95625000Y-86000000D02*
X97250000Y-86000000D01*
X82981600Y-90906600D02*
X89916000Y-90906600D01*
X81700000Y-74400000D02*
X81700000Y-89625000D01*
X87625000Y-69325000D02*
X86775000Y-69325000D01*
X81700000Y-89625000D02*
X82981600Y-90906600D01*
X86775000Y-69325000D02*
X81700000Y-74400000D01*
X92760799Y-86838209D02*
X92456000Y-86533410D01*
X97036791Y-86838209D02*
X92760799Y-86838209D01*
X106371500Y-81978500D02*
X101896500Y-81978500D01*
X101896500Y-81978500D02*
X97036791Y-86838209D01*
X110350000Y-78000000D02*
X106371500Y-81978500D01*
X96012000Y-83820000D02*
X95782000Y-84050000D01*
X95782000Y-84050000D02*
X91416000Y-84050000D01*
M02*
