G04 #@! TF.GenerationSoftware,KiCad,Pcbnew,(5.1.4-0-10_14)*
G04 #@! TF.CreationDate,2020-01-14T22:28:18-05:00*
G04 #@! TF.ProjectId,throttle,7468726f-7474-46c6-952e-6b696361645f,rev?*
G04 #@! TF.SameCoordinates,Original*
G04 #@! TF.FileFunction,Soldermask,Bot*
G04 #@! TF.FilePolarity,Negative*
%FSLAX46Y46*%
G04 Gerber Fmt 4.6, Leading zero omitted, Abs format (unit mm)*
G04 Created by KiCad (PCBNEW (5.1.4-0-10_14)) date 2020-01-14 22:28:18*
%MOMM*%
%LPD*%
G04 APERTURE LIST*
%ADD10C,0.100000*%
G04 APERTURE END LIST*
D10*
G36*
X83440273Y-93356738D02*
G01*
X83567849Y-93409582D01*
X83682659Y-93486295D01*
X83780305Y-93583941D01*
X83857018Y-93698751D01*
X83909862Y-93826327D01*
X83936800Y-93961756D01*
X83936800Y-94099844D01*
X83909862Y-94235273D01*
X83857018Y-94362849D01*
X83780305Y-94477659D01*
X83682659Y-94575305D01*
X83567849Y-94652018D01*
X83440273Y-94704862D01*
X83304844Y-94731800D01*
X83166756Y-94731800D01*
X83031327Y-94704862D01*
X82903751Y-94652018D01*
X82788941Y-94575305D01*
X82691295Y-94477659D01*
X82614582Y-94362849D01*
X82561738Y-94235273D01*
X82534800Y-94099844D01*
X82534800Y-93961756D01*
X82561738Y-93826327D01*
X82614582Y-93698751D01*
X82691295Y-93583941D01*
X82788941Y-93486295D01*
X82903751Y-93409582D01*
X83031327Y-93356738D01*
X83166756Y-93329800D01*
X83304844Y-93329800D01*
X83440273Y-93356738D01*
X83440273Y-93356738D01*
G37*
G36*
X80900273Y-93356738D02*
G01*
X81027849Y-93409582D01*
X81142659Y-93486295D01*
X81240305Y-93583941D01*
X81317018Y-93698751D01*
X81369862Y-93826327D01*
X81396800Y-93961756D01*
X81396800Y-94099844D01*
X81369862Y-94235273D01*
X81317018Y-94362849D01*
X81240305Y-94477659D01*
X81142659Y-94575305D01*
X81027849Y-94652018D01*
X80900273Y-94704862D01*
X80764844Y-94731800D01*
X80626756Y-94731800D01*
X80491327Y-94704862D01*
X80363751Y-94652018D01*
X80248941Y-94575305D01*
X80151295Y-94477659D01*
X80074582Y-94362849D01*
X80021738Y-94235273D01*
X79994800Y-94099844D01*
X79994800Y-93961756D01*
X80021738Y-93826327D01*
X80074582Y-93698751D01*
X80151295Y-93583941D01*
X80248941Y-93486295D01*
X80363751Y-93409582D01*
X80491327Y-93356738D01*
X80626756Y-93329800D01*
X80764844Y-93329800D01*
X80900273Y-93356738D01*
X80900273Y-93356738D01*
G37*
G36*
X126747200Y-94302800D02*
G01*
X125945200Y-94302800D01*
X125945200Y-92900800D01*
X126747200Y-92900800D01*
X126747200Y-94302800D01*
X126747200Y-94302800D01*
G37*
G36*
X124847200Y-94302800D02*
G01*
X124045200Y-94302800D01*
X124045200Y-92900800D01*
X124847200Y-92900800D01*
X124847200Y-94302800D01*
X124847200Y-94302800D01*
G37*
G36*
X130947200Y-94252800D02*
G01*
X129645200Y-94252800D01*
X129645200Y-92950800D01*
X130947200Y-92950800D01*
X130947200Y-94252800D01*
X130947200Y-94252800D01*
G37*
G36*
X128747200Y-94252800D02*
G01*
X127445200Y-94252800D01*
X127445200Y-92950800D01*
X128747200Y-92950800D01*
X128747200Y-94252800D01*
X128747200Y-94252800D01*
G37*
G36*
X78332364Y-91980189D02*
G01*
X78523633Y-92059415D01*
X78523635Y-92059416D01*
X78695773Y-92174435D01*
X78842165Y-92320827D01*
X78899453Y-92406564D01*
X78957185Y-92492967D01*
X79036411Y-92684236D01*
X79076800Y-92887284D01*
X79076800Y-93094316D01*
X79036411Y-93297364D01*
X79011817Y-93356739D01*
X78957184Y-93488635D01*
X78842165Y-93660773D01*
X78695773Y-93807165D01*
X78523635Y-93922184D01*
X78523634Y-93922185D01*
X78523633Y-93922185D01*
X78332364Y-94001411D01*
X78129316Y-94041800D01*
X77922284Y-94041800D01*
X77719236Y-94001411D01*
X77527967Y-93922185D01*
X77527966Y-93922185D01*
X77527965Y-93922184D01*
X77355827Y-93807165D01*
X77209435Y-93660773D01*
X77094416Y-93488635D01*
X77039783Y-93356739D01*
X77015189Y-93297364D01*
X76974800Y-93094316D01*
X76974800Y-92887284D01*
X77015189Y-92684236D01*
X77094415Y-92492967D01*
X77152148Y-92406564D01*
X77209435Y-92320827D01*
X77355827Y-92174435D01*
X77527965Y-92059416D01*
X77527967Y-92059415D01*
X77719236Y-91980189D01*
X77922284Y-91939800D01*
X78129316Y-91939800D01*
X78332364Y-91980189D01*
X78332364Y-91980189D01*
G37*
G36*
X112456564Y-91089389D02*
G01*
X112647833Y-91168615D01*
X112647835Y-91168616D01*
X112819973Y-91283635D01*
X112966365Y-91430027D01*
X113053105Y-91559842D01*
X113081385Y-91602167D01*
X113160611Y-91793436D01*
X113201000Y-91996484D01*
X113201000Y-92203516D01*
X113160611Y-92406564D01*
X113081385Y-92597833D01*
X113081384Y-92597835D01*
X112966365Y-92769973D01*
X112819973Y-92916365D01*
X112647835Y-93031384D01*
X112647834Y-93031385D01*
X112647833Y-93031385D01*
X112456564Y-93110611D01*
X112253516Y-93151000D01*
X112046484Y-93151000D01*
X111843436Y-93110611D01*
X111652167Y-93031385D01*
X111652166Y-93031385D01*
X111652165Y-93031384D01*
X111480027Y-92916365D01*
X111333635Y-92769973D01*
X111218616Y-92597835D01*
X111218615Y-92597833D01*
X111139389Y-92406564D01*
X111099000Y-92203516D01*
X111099000Y-91996484D01*
X111139389Y-91793436D01*
X111218615Y-91602167D01*
X111246896Y-91559842D01*
X111333635Y-91430027D01*
X111480027Y-91283635D01*
X111652165Y-91168616D01*
X111652167Y-91168615D01*
X111843436Y-91089389D01*
X112046484Y-91049000D01*
X112253516Y-91049000D01*
X112456564Y-91089389D01*
X112456564Y-91089389D01*
G37*
G36*
X82170273Y-90816738D02*
G01*
X82297849Y-90869582D01*
X82412659Y-90946295D01*
X82510305Y-91043941D01*
X82587018Y-91158751D01*
X82639862Y-91286327D01*
X82666800Y-91421756D01*
X82666800Y-91559844D01*
X82639862Y-91695273D01*
X82587018Y-91822849D01*
X82510305Y-91937659D01*
X82412659Y-92035305D01*
X82297849Y-92112018D01*
X82170273Y-92164862D01*
X82034844Y-92191800D01*
X81896756Y-92191800D01*
X81761327Y-92164862D01*
X81633751Y-92112018D01*
X81518941Y-92035305D01*
X81421295Y-91937659D01*
X81344582Y-91822849D01*
X81291738Y-91695273D01*
X81264800Y-91559844D01*
X81264800Y-91421756D01*
X81291738Y-91286327D01*
X81344582Y-91158751D01*
X81421295Y-91043941D01*
X81518941Y-90946295D01*
X81633751Y-90869582D01*
X81761327Y-90816738D01*
X81896756Y-90789800D01*
X82034844Y-90789800D01*
X82170273Y-90816738D01*
X82170273Y-90816738D01*
G37*
G36*
X79630273Y-90816738D02*
G01*
X79757849Y-90869582D01*
X79872659Y-90946295D01*
X79970305Y-91043941D01*
X80047018Y-91158751D01*
X80099862Y-91286327D01*
X80126800Y-91421756D01*
X80126800Y-91559844D01*
X80099862Y-91695273D01*
X80047018Y-91822849D01*
X79970305Y-91937659D01*
X79872659Y-92035305D01*
X79757849Y-92112018D01*
X79630273Y-92164862D01*
X79494844Y-92191800D01*
X79356756Y-92191800D01*
X79221327Y-92164862D01*
X79093751Y-92112018D01*
X78978941Y-92035305D01*
X78881295Y-91937659D01*
X78804582Y-91822849D01*
X78751738Y-91695273D01*
X78724800Y-91559844D01*
X78724800Y-91421756D01*
X78751738Y-91286327D01*
X78804582Y-91158751D01*
X78881295Y-91043941D01*
X78978941Y-90946295D01*
X79093751Y-90869582D01*
X79221327Y-90816738D01*
X79356756Y-90789800D01*
X79494844Y-90789800D01*
X79630273Y-90816738D01*
X79630273Y-90816738D01*
G37*
G36*
X110554473Y-90025938D02*
G01*
X110682049Y-90078782D01*
X110796859Y-90155495D01*
X110894505Y-90253141D01*
X110971218Y-90367951D01*
X111024062Y-90495527D01*
X111051000Y-90630956D01*
X111051000Y-90769044D01*
X111024062Y-90904473D01*
X110971218Y-91032049D01*
X110894505Y-91146859D01*
X110796859Y-91244505D01*
X110682049Y-91321218D01*
X110554473Y-91374062D01*
X110419044Y-91401000D01*
X110280956Y-91401000D01*
X110145527Y-91374062D01*
X110017951Y-91321218D01*
X109903141Y-91244505D01*
X109805495Y-91146859D01*
X109728782Y-91032049D01*
X109675938Y-90904473D01*
X109649000Y-90769044D01*
X109649000Y-90630956D01*
X109675938Y-90495527D01*
X109728782Y-90367951D01*
X109805495Y-90253141D01*
X109903141Y-90155495D01*
X110017951Y-90078782D01*
X110145527Y-90025938D01*
X110280956Y-89999000D01*
X110419044Y-89999000D01*
X110554473Y-90025938D01*
X110554473Y-90025938D01*
G37*
G36*
X113094473Y-88755938D02*
G01*
X113222049Y-88808782D01*
X113336859Y-88885495D01*
X113434505Y-88983141D01*
X113511218Y-89097951D01*
X113564062Y-89225527D01*
X113591000Y-89360956D01*
X113591000Y-89499044D01*
X113564062Y-89634473D01*
X113511218Y-89762049D01*
X113434505Y-89876859D01*
X113336859Y-89974505D01*
X113222049Y-90051218D01*
X113094473Y-90104062D01*
X112959044Y-90131000D01*
X112820956Y-90131000D01*
X112685527Y-90104062D01*
X112557951Y-90051218D01*
X112443141Y-89974505D01*
X112345495Y-89876859D01*
X112268782Y-89762049D01*
X112215938Y-89634473D01*
X112189000Y-89499044D01*
X112189000Y-89360956D01*
X112215938Y-89225527D01*
X112268782Y-89097951D01*
X112345495Y-88983141D01*
X112443141Y-88885495D01*
X112557951Y-88808782D01*
X112685527Y-88755938D01*
X112820956Y-88729000D01*
X112959044Y-88729000D01*
X113094473Y-88755938D01*
X113094473Y-88755938D01*
G37*
G36*
X121697300Y-90046300D02*
G01*
X119817300Y-90046300D01*
X119817300Y-87785300D01*
X121697300Y-87785300D01*
X121697300Y-90046300D01*
X121697300Y-90046300D01*
G37*
G36*
X125761300Y-90046300D02*
G01*
X123881300Y-90046300D01*
X123881300Y-87785300D01*
X125761300Y-87785300D01*
X125761300Y-90046300D01*
X125761300Y-90046300D01*
G37*
G36*
X118811800Y-89965200D02*
G01*
X117509800Y-89965200D01*
X117509800Y-88663200D01*
X118811800Y-88663200D01*
X118811800Y-89965200D01*
X118811800Y-89965200D01*
G37*
G36*
X110554473Y-87485938D02*
G01*
X110682049Y-87538782D01*
X110796859Y-87615495D01*
X110894505Y-87713141D01*
X110971218Y-87827951D01*
X111024062Y-87955527D01*
X111051000Y-88090956D01*
X111051000Y-88229044D01*
X111024062Y-88364473D01*
X110971218Y-88492049D01*
X110894505Y-88606859D01*
X110796859Y-88704505D01*
X110682049Y-88781218D01*
X110554473Y-88834062D01*
X110419044Y-88861000D01*
X110280956Y-88861000D01*
X110145527Y-88834062D01*
X110017951Y-88781218D01*
X109903141Y-88704505D01*
X109805495Y-88606859D01*
X109728782Y-88492049D01*
X109675938Y-88364473D01*
X109649000Y-88229044D01*
X109649000Y-88090956D01*
X109675938Y-87955527D01*
X109728782Y-87827951D01*
X109805495Y-87713141D01*
X109903141Y-87615495D01*
X110017951Y-87538782D01*
X110145527Y-87485938D01*
X110280956Y-87459000D01*
X110419044Y-87459000D01*
X110554473Y-87485938D01*
X110554473Y-87485938D01*
G37*
G36*
X83277059Y-86907860D02*
G01*
X83413732Y-86964472D01*
X83536735Y-87046660D01*
X83641340Y-87151265D01*
X83688636Y-87222049D01*
X83723529Y-87274270D01*
X83780140Y-87410941D01*
X83784827Y-87434502D01*
X83809000Y-87556033D01*
X83809000Y-87703967D01*
X83780140Y-87849059D01*
X83723528Y-87985732D01*
X83641340Y-88108735D01*
X83536735Y-88213340D01*
X83413732Y-88295528D01*
X83413731Y-88295529D01*
X83413730Y-88295529D01*
X83277059Y-88352140D01*
X83131968Y-88381000D01*
X82984032Y-88381000D01*
X82838941Y-88352140D01*
X82702270Y-88295529D01*
X82702269Y-88295529D01*
X82702268Y-88295528D01*
X82579265Y-88213340D01*
X82474660Y-88108735D01*
X82392472Y-87985732D01*
X82335860Y-87849059D01*
X82307000Y-87703967D01*
X82307000Y-87556033D01*
X82331174Y-87434502D01*
X82335860Y-87410941D01*
X82392471Y-87274270D01*
X82427364Y-87222049D01*
X82474660Y-87151265D01*
X82579265Y-87046660D01*
X82702268Y-86964472D01*
X82838941Y-86907860D01*
X82984032Y-86879000D01*
X83131968Y-86879000D01*
X83277059Y-86907860D01*
X83277059Y-86907860D01*
G37*
G36*
X80737059Y-86907860D02*
G01*
X80873732Y-86964472D01*
X80996735Y-87046660D01*
X81101340Y-87151265D01*
X81148636Y-87222049D01*
X81183529Y-87274270D01*
X81240140Y-87410941D01*
X81244827Y-87434502D01*
X81269000Y-87556033D01*
X81269000Y-87703967D01*
X81240140Y-87849059D01*
X81183528Y-87985732D01*
X81101340Y-88108735D01*
X80996735Y-88213340D01*
X80873732Y-88295528D01*
X80873731Y-88295529D01*
X80873730Y-88295529D01*
X80737059Y-88352140D01*
X80591968Y-88381000D01*
X80444032Y-88381000D01*
X80298941Y-88352140D01*
X80162270Y-88295529D01*
X80162269Y-88295529D01*
X80162268Y-88295528D01*
X80039265Y-88213340D01*
X79934660Y-88108735D01*
X79852472Y-87985732D01*
X79795860Y-87849059D01*
X79767000Y-87703967D01*
X79767000Y-87556033D01*
X79791174Y-87434502D01*
X79795860Y-87410941D01*
X79852471Y-87274270D01*
X79887364Y-87222049D01*
X79934660Y-87151265D01*
X80039265Y-87046660D01*
X80162268Y-86964472D01*
X80298941Y-86907860D01*
X80444032Y-86879000D01*
X80591968Y-86879000D01*
X80737059Y-86907860D01*
X80737059Y-86907860D01*
G37*
G36*
X78729000Y-88381000D02*
G01*
X77227000Y-88381000D01*
X77227000Y-86879000D01*
X78729000Y-86879000D01*
X78729000Y-88381000D01*
X78729000Y-88381000D01*
G37*
G36*
X118811800Y-87765200D02*
G01*
X117509800Y-87765200D01*
X117509800Y-86463200D01*
X118811800Y-86463200D01*
X118811800Y-87765200D01*
X118811800Y-87765200D01*
G37*
G36*
X113094473Y-86215938D02*
G01*
X113222049Y-86268782D01*
X113336859Y-86345495D01*
X113434505Y-86443141D01*
X113511218Y-86557951D01*
X113564062Y-86685527D01*
X113591000Y-86820956D01*
X113591000Y-86959044D01*
X113564062Y-87094473D01*
X113511218Y-87222049D01*
X113434505Y-87336859D01*
X113336859Y-87434505D01*
X113222049Y-87511218D01*
X113094473Y-87564062D01*
X112959044Y-87591000D01*
X112820956Y-87591000D01*
X112685527Y-87564062D01*
X112557951Y-87511218D01*
X112443141Y-87434505D01*
X112345495Y-87336859D01*
X112268782Y-87222049D01*
X112215938Y-87094473D01*
X112189000Y-86959044D01*
X112189000Y-86820956D01*
X112215938Y-86685527D01*
X112268782Y-86557951D01*
X112345495Y-86443141D01*
X112443141Y-86345495D01*
X112557951Y-86268782D01*
X112685527Y-86215938D01*
X112820956Y-86189000D01*
X112959044Y-86189000D01*
X113094473Y-86215938D01*
X113094473Y-86215938D01*
G37*
G36*
X110554473Y-84945938D02*
G01*
X110682049Y-84998782D01*
X110796859Y-85075495D01*
X110894505Y-85173141D01*
X110971218Y-85287951D01*
X111024062Y-85415527D01*
X111051000Y-85550956D01*
X111051000Y-85689044D01*
X111024062Y-85824473D01*
X110971218Y-85952049D01*
X110894505Y-86066859D01*
X110796859Y-86164505D01*
X110682049Y-86241218D01*
X110554473Y-86294062D01*
X110419044Y-86321000D01*
X110280956Y-86321000D01*
X110145527Y-86294062D01*
X110017951Y-86241218D01*
X109903141Y-86164505D01*
X109805495Y-86066859D01*
X109728782Y-85952049D01*
X109675938Y-85824473D01*
X109649000Y-85689044D01*
X109649000Y-85550956D01*
X109675938Y-85415527D01*
X109728782Y-85287951D01*
X109805495Y-85173141D01*
X109903141Y-85075495D01*
X110017951Y-84998782D01*
X110145527Y-84945938D01*
X110280956Y-84919000D01*
X110419044Y-84919000D01*
X110554473Y-84945938D01*
X110554473Y-84945938D01*
G37*
G36*
X118887200Y-85968600D02*
G01*
X117485200Y-85968600D01*
X117485200Y-85166600D01*
X118887200Y-85166600D01*
X118887200Y-85968600D01*
X118887200Y-85968600D01*
G37*
G36*
X122058300Y-85850300D02*
G01*
X119456300Y-85850300D01*
X119456300Y-84848300D01*
X122058300Y-84848300D01*
X122058300Y-85850300D01*
X122058300Y-85850300D01*
G37*
G36*
X83277059Y-84367860D02*
G01*
X83353421Y-84399490D01*
X83413732Y-84424472D01*
X83536735Y-84506660D01*
X83641340Y-84611265D01*
X83688636Y-84682049D01*
X83723529Y-84734270D01*
X83780140Y-84870941D01*
X83784827Y-84894502D01*
X83809000Y-85016033D01*
X83809000Y-85163967D01*
X83780140Y-85309059D01*
X83723528Y-85445732D01*
X83641340Y-85568735D01*
X83536735Y-85673340D01*
X83413732Y-85755528D01*
X83413731Y-85755529D01*
X83413730Y-85755529D01*
X83277059Y-85812140D01*
X83131968Y-85841000D01*
X82984032Y-85841000D01*
X82838941Y-85812140D01*
X82702270Y-85755529D01*
X82702269Y-85755529D01*
X82702268Y-85755528D01*
X82579265Y-85673340D01*
X82474660Y-85568735D01*
X82392472Y-85445732D01*
X82335860Y-85309059D01*
X82307000Y-85163967D01*
X82307000Y-85016033D01*
X82331174Y-84894502D01*
X82335860Y-84870941D01*
X82392471Y-84734270D01*
X82427364Y-84682049D01*
X82474660Y-84611265D01*
X82579265Y-84506660D01*
X82702268Y-84424472D01*
X82762580Y-84399490D01*
X82838941Y-84367860D01*
X82984032Y-84339000D01*
X83131968Y-84339000D01*
X83277059Y-84367860D01*
X83277059Y-84367860D01*
G37*
G36*
X80737059Y-84367860D02*
G01*
X80813421Y-84399490D01*
X80873732Y-84424472D01*
X80996735Y-84506660D01*
X81101340Y-84611265D01*
X81148636Y-84682049D01*
X81183529Y-84734270D01*
X81240140Y-84870941D01*
X81244827Y-84894502D01*
X81269000Y-85016033D01*
X81269000Y-85163967D01*
X81240140Y-85309059D01*
X81183528Y-85445732D01*
X81101340Y-85568735D01*
X80996735Y-85673340D01*
X80873732Y-85755528D01*
X80873731Y-85755529D01*
X80873730Y-85755529D01*
X80737059Y-85812140D01*
X80591968Y-85841000D01*
X80444032Y-85841000D01*
X80298941Y-85812140D01*
X80162270Y-85755529D01*
X80162269Y-85755529D01*
X80162268Y-85755528D01*
X80039265Y-85673340D01*
X79934660Y-85568735D01*
X79852472Y-85445732D01*
X79795860Y-85309059D01*
X79767000Y-85163967D01*
X79767000Y-85016033D01*
X79791174Y-84894502D01*
X79795860Y-84870941D01*
X79852471Y-84734270D01*
X79887364Y-84682049D01*
X79934660Y-84611265D01*
X80039265Y-84506660D01*
X80162268Y-84424472D01*
X80222580Y-84399490D01*
X80298941Y-84367860D01*
X80444032Y-84339000D01*
X80591968Y-84339000D01*
X80737059Y-84367860D01*
X80737059Y-84367860D01*
G37*
G36*
X78197059Y-84367860D02*
G01*
X78273421Y-84399490D01*
X78333732Y-84424472D01*
X78456735Y-84506660D01*
X78561340Y-84611265D01*
X78608636Y-84682049D01*
X78643529Y-84734270D01*
X78700140Y-84870941D01*
X78704827Y-84894502D01*
X78729000Y-85016033D01*
X78729000Y-85163967D01*
X78700140Y-85309059D01*
X78643528Y-85445732D01*
X78561340Y-85568735D01*
X78456735Y-85673340D01*
X78333732Y-85755528D01*
X78333731Y-85755529D01*
X78333730Y-85755529D01*
X78197059Y-85812140D01*
X78051968Y-85841000D01*
X77904032Y-85841000D01*
X77758941Y-85812140D01*
X77622270Y-85755529D01*
X77622269Y-85755529D01*
X77622268Y-85755528D01*
X77499265Y-85673340D01*
X77394660Y-85568735D01*
X77312472Y-85445732D01*
X77255860Y-85309059D01*
X77227000Y-85163967D01*
X77227000Y-85016033D01*
X77251174Y-84894502D01*
X77255860Y-84870941D01*
X77312471Y-84734270D01*
X77347364Y-84682049D01*
X77394660Y-84611265D01*
X77499265Y-84506660D01*
X77622268Y-84424472D01*
X77682580Y-84399490D01*
X77758941Y-84367860D01*
X77904032Y-84339000D01*
X78051968Y-84339000D01*
X78197059Y-84367860D01*
X78197059Y-84367860D01*
G37*
G36*
X113094473Y-83675938D02*
G01*
X113222049Y-83728782D01*
X113336859Y-83805495D01*
X113434505Y-83903141D01*
X113511218Y-84017951D01*
X113564062Y-84145527D01*
X113591000Y-84280956D01*
X113591000Y-84419044D01*
X113564062Y-84554473D01*
X113511218Y-84682049D01*
X113434505Y-84796859D01*
X113336859Y-84894505D01*
X113222049Y-84971218D01*
X113094473Y-85024062D01*
X112959044Y-85051000D01*
X112820956Y-85051000D01*
X112685527Y-85024062D01*
X112557951Y-84971218D01*
X112443141Y-84894505D01*
X112345495Y-84796859D01*
X112268782Y-84682049D01*
X112215938Y-84554473D01*
X112189000Y-84419044D01*
X112189000Y-84280956D01*
X112215938Y-84145527D01*
X112268782Y-84017951D01*
X112345495Y-83903141D01*
X112443141Y-83805495D01*
X112557951Y-83728782D01*
X112685527Y-83675938D01*
X112820956Y-83649000D01*
X112959044Y-83649000D01*
X113094473Y-83675938D01*
X113094473Y-83675938D01*
G37*
G36*
X123888211Y-83595825D02*
G01*
X123922189Y-83606133D01*
X123953510Y-83622874D01*
X123980959Y-83645401D01*
X124003486Y-83672850D01*
X124020227Y-83704171D01*
X124030535Y-83738149D01*
X124034620Y-83779630D01*
X124034620Y-84455850D01*
X124030535Y-84497331D01*
X124020227Y-84531309D01*
X124003486Y-84562630D01*
X123980959Y-84590079D01*
X123953510Y-84612606D01*
X123922189Y-84629347D01*
X123888211Y-84639655D01*
X123846730Y-84643740D01*
X123245510Y-84643740D01*
X123204029Y-84639655D01*
X123170051Y-84629347D01*
X123138730Y-84612606D01*
X123111281Y-84590079D01*
X123088754Y-84562630D01*
X123072013Y-84531309D01*
X123061705Y-84497331D01*
X123057620Y-84455850D01*
X123057620Y-83779630D01*
X123061705Y-83738149D01*
X123072013Y-83704171D01*
X123088754Y-83672850D01*
X123111281Y-83645401D01*
X123138730Y-83622874D01*
X123170051Y-83606133D01*
X123204029Y-83595825D01*
X123245510Y-83591740D01*
X123846730Y-83591740D01*
X123888211Y-83595825D01*
X123888211Y-83595825D01*
G37*
G36*
X125463211Y-83595825D02*
G01*
X125497189Y-83606133D01*
X125528510Y-83622874D01*
X125555959Y-83645401D01*
X125578486Y-83672850D01*
X125595227Y-83704171D01*
X125605535Y-83738149D01*
X125609620Y-83779630D01*
X125609620Y-84455850D01*
X125605535Y-84497331D01*
X125595227Y-84531309D01*
X125578486Y-84562630D01*
X125555959Y-84590079D01*
X125528510Y-84612606D01*
X125497189Y-84629347D01*
X125463211Y-84639655D01*
X125421730Y-84643740D01*
X124820510Y-84643740D01*
X124779029Y-84639655D01*
X124745051Y-84629347D01*
X124713730Y-84612606D01*
X124686281Y-84590079D01*
X124663754Y-84562630D01*
X124647013Y-84531309D01*
X124636705Y-84497331D01*
X124632620Y-84455850D01*
X124632620Y-83779630D01*
X124636705Y-83738149D01*
X124647013Y-83704171D01*
X124663754Y-83672850D01*
X124686281Y-83645401D01*
X124713730Y-83622874D01*
X124745051Y-83606133D01*
X124779029Y-83595825D01*
X124820510Y-83591740D01*
X125421730Y-83591740D01*
X125463211Y-83595825D01*
X125463211Y-83595825D01*
G37*
G36*
X118887200Y-84068600D02*
G01*
X117485200Y-84068600D01*
X117485200Y-83266600D01*
X118887200Y-83266600D01*
X118887200Y-84068600D01*
X118887200Y-84068600D01*
G37*
G36*
X110554473Y-82405938D02*
G01*
X110682049Y-82458782D01*
X110796859Y-82535495D01*
X110894505Y-82633141D01*
X110971218Y-82747951D01*
X111024062Y-82875527D01*
X111051000Y-83010956D01*
X111051000Y-83149044D01*
X111024062Y-83284473D01*
X110971218Y-83412049D01*
X110894505Y-83526859D01*
X110796859Y-83624505D01*
X110682049Y-83701218D01*
X110554473Y-83754062D01*
X110419044Y-83781000D01*
X110280956Y-83781000D01*
X110145527Y-83754062D01*
X110017951Y-83701218D01*
X109903141Y-83624505D01*
X109805495Y-83526859D01*
X109728782Y-83412049D01*
X109675938Y-83284473D01*
X109649000Y-83149044D01*
X109649000Y-83010956D01*
X109675938Y-82875527D01*
X109728782Y-82747951D01*
X109805495Y-82633141D01*
X109903141Y-82535495D01*
X110017951Y-82458782D01*
X110145527Y-82405938D01*
X110280956Y-82379000D01*
X110419044Y-82379000D01*
X110554473Y-82405938D01*
X110554473Y-82405938D01*
G37*
G36*
X125975300Y-82987800D02*
G01*
X124873300Y-82987800D01*
X124873300Y-81635800D01*
X125975300Y-81635800D01*
X125975300Y-82987800D01*
X125975300Y-82987800D01*
G37*
G36*
X123975300Y-82987800D02*
G01*
X122873300Y-82987800D01*
X122873300Y-81635800D01*
X123975300Y-81635800D01*
X123975300Y-82987800D01*
X123975300Y-82987800D01*
G37*
G36*
X122058300Y-82950300D02*
G01*
X119456300Y-82950300D01*
X119456300Y-81948300D01*
X122058300Y-81948300D01*
X122058300Y-82950300D01*
X122058300Y-82950300D01*
G37*
G36*
X113094473Y-81135938D02*
G01*
X113222049Y-81188782D01*
X113336859Y-81265495D01*
X113434505Y-81363141D01*
X113511218Y-81477951D01*
X113564062Y-81605527D01*
X113591000Y-81740956D01*
X113591000Y-81879044D01*
X113564062Y-82014473D01*
X113511218Y-82142049D01*
X113434505Y-82256859D01*
X113336859Y-82354505D01*
X113222049Y-82431218D01*
X113094473Y-82484062D01*
X112959044Y-82511000D01*
X112820956Y-82511000D01*
X112685527Y-82484062D01*
X112557951Y-82431218D01*
X112443141Y-82354505D01*
X112345495Y-82256859D01*
X112268782Y-82142049D01*
X112215938Y-82014473D01*
X112189000Y-81879044D01*
X112189000Y-81740956D01*
X112215938Y-81605527D01*
X112268782Y-81477951D01*
X112345495Y-81363141D01*
X112443141Y-81265495D01*
X112557951Y-81188782D01*
X112685527Y-81135938D01*
X112820956Y-81109000D01*
X112959044Y-81109000D01*
X113094473Y-81135938D01*
X113094473Y-81135938D01*
G37*
G36*
X118897400Y-82391000D02*
G01*
X115595400Y-82391000D01*
X115595400Y-81289000D01*
X118897400Y-81289000D01*
X118897400Y-82391000D01*
X118897400Y-82391000D01*
G37*
G36*
X128222320Y-81762880D02*
G01*
X126820320Y-81762880D01*
X126820320Y-80960880D01*
X128222320Y-80960880D01*
X128222320Y-81762880D01*
X128222320Y-81762880D01*
G37*
G36*
X110554473Y-79865938D02*
G01*
X110682049Y-79918782D01*
X110796859Y-79995495D01*
X110894505Y-80093141D01*
X110971218Y-80207951D01*
X111024062Y-80335527D01*
X111051000Y-80470956D01*
X111051000Y-80609044D01*
X111024062Y-80744473D01*
X110971218Y-80872049D01*
X110894505Y-80986859D01*
X110796859Y-81084505D01*
X110682049Y-81161218D01*
X110554473Y-81214062D01*
X110419044Y-81241000D01*
X110280956Y-81241000D01*
X110145527Y-81214062D01*
X110017951Y-81161218D01*
X109903141Y-81084505D01*
X109805495Y-80986859D01*
X109728782Y-80872049D01*
X109675938Y-80744473D01*
X109649000Y-80609044D01*
X109649000Y-80470956D01*
X109675938Y-80335527D01*
X109728782Y-80207951D01*
X109805495Y-80093141D01*
X109903141Y-79995495D01*
X110017951Y-79918782D01*
X110145527Y-79865938D01*
X110280956Y-79839000D01*
X110419044Y-79839000D01*
X110554473Y-79865938D01*
X110554473Y-79865938D01*
G37*
G36*
X124000000Y-80518500D02*
G01*
X122838000Y-80518500D01*
X122838000Y-77866500D01*
X124000000Y-77866500D01*
X124000000Y-80518500D01*
X124000000Y-80518500D01*
G37*
G36*
X126200000Y-80518500D02*
G01*
X125038000Y-80518500D01*
X125038000Y-77866500D01*
X126200000Y-77866500D01*
X126200000Y-80518500D01*
X126200000Y-80518500D01*
G37*
G36*
X113094473Y-78595938D02*
G01*
X113222049Y-78648782D01*
X113336859Y-78725495D01*
X113434505Y-78823141D01*
X113511218Y-78937951D01*
X113564062Y-79065527D01*
X113591000Y-79200956D01*
X113591000Y-79339044D01*
X113564062Y-79474473D01*
X113511218Y-79602049D01*
X113434505Y-79716859D01*
X113336859Y-79814505D01*
X113222049Y-79891218D01*
X113094473Y-79944062D01*
X112959044Y-79971000D01*
X112820956Y-79971000D01*
X112685527Y-79944062D01*
X112557951Y-79891218D01*
X112443141Y-79814505D01*
X112345495Y-79716859D01*
X112268782Y-79602049D01*
X112215938Y-79474473D01*
X112189000Y-79339044D01*
X112189000Y-79200956D01*
X112215938Y-79065527D01*
X112268782Y-78937951D01*
X112345495Y-78823141D01*
X112443141Y-78725495D01*
X112557951Y-78648782D01*
X112685527Y-78595938D01*
X112820956Y-78569000D01*
X112959044Y-78569000D01*
X113094473Y-78595938D01*
X113094473Y-78595938D01*
G37*
G36*
X128222320Y-79862880D02*
G01*
X126820320Y-79862880D01*
X126820320Y-79060880D01*
X128222320Y-79060880D01*
X128222320Y-79862880D01*
X128222320Y-79862880D01*
G37*
G36*
X110554473Y-77325938D02*
G01*
X110682049Y-77378782D01*
X110796859Y-77455495D01*
X110894505Y-77553141D01*
X110971218Y-77667951D01*
X111024062Y-77795527D01*
X111051000Y-77930956D01*
X111051000Y-78069044D01*
X111024062Y-78204473D01*
X110971218Y-78332049D01*
X110894505Y-78446859D01*
X110796859Y-78544505D01*
X110682049Y-78621218D01*
X110554473Y-78674062D01*
X110419044Y-78701000D01*
X110280956Y-78701000D01*
X110145527Y-78674062D01*
X110017951Y-78621218D01*
X109903141Y-78544505D01*
X109805495Y-78446859D01*
X109728782Y-78332049D01*
X109675938Y-78204473D01*
X109649000Y-78069044D01*
X109649000Y-77930956D01*
X109675938Y-77795527D01*
X109728782Y-77667951D01*
X109805495Y-77553141D01*
X109903141Y-77455495D01*
X110017951Y-77378782D01*
X110145527Y-77325938D01*
X110280956Y-77299000D01*
X110419044Y-77299000D01*
X110554473Y-77325938D01*
X110554473Y-77325938D01*
G37*
G36*
X121869260Y-78644400D02*
G01*
X119767260Y-78644400D01*
X119767260Y-77342400D01*
X121869260Y-77342400D01*
X121869260Y-78644400D01*
X121869260Y-78644400D01*
G37*
G36*
X128209000Y-78429800D02*
G01*
X126807000Y-78429800D01*
X126807000Y-77627800D01*
X128209000Y-77627800D01*
X128209000Y-78429800D01*
X128209000Y-78429800D01*
G37*
G36*
X113094473Y-76055938D02*
G01*
X113222049Y-76108782D01*
X113336859Y-76185495D01*
X113434505Y-76283141D01*
X113511218Y-76397951D01*
X113564062Y-76525527D01*
X113591000Y-76660956D01*
X113591000Y-76799044D01*
X113564062Y-76934473D01*
X113511218Y-77062049D01*
X113434505Y-77176859D01*
X113336859Y-77274505D01*
X113222049Y-77351218D01*
X113094473Y-77404062D01*
X112959044Y-77431000D01*
X112820956Y-77431000D01*
X112685527Y-77404062D01*
X112557951Y-77351218D01*
X112443141Y-77274505D01*
X112345495Y-77176859D01*
X112268782Y-77062049D01*
X112215938Y-76934473D01*
X112189000Y-76799044D01*
X112189000Y-76660956D01*
X112215938Y-76525527D01*
X112268782Y-76397951D01*
X112345495Y-76283141D01*
X112443141Y-76185495D01*
X112557951Y-76108782D01*
X112685527Y-76055938D01*
X112820956Y-76029000D01*
X112959044Y-76029000D01*
X113094473Y-76055938D01*
X113094473Y-76055938D01*
G37*
G36*
X124054800Y-76574300D02*
G01*
X122952800Y-76574300D01*
X122952800Y-75222300D01*
X124054800Y-75222300D01*
X124054800Y-76574300D01*
X124054800Y-76574300D01*
G37*
G36*
X126054800Y-76574300D02*
G01*
X124952800Y-76574300D01*
X124952800Y-75222300D01*
X126054800Y-75222300D01*
X126054800Y-76574300D01*
X126054800Y-76574300D01*
G37*
G36*
X128209000Y-76529800D02*
G01*
X126807000Y-76529800D01*
X126807000Y-75727800D01*
X128209000Y-75727800D01*
X128209000Y-76529800D01*
X128209000Y-76529800D01*
G37*
G36*
X118897400Y-76191000D02*
G01*
X115595400Y-76191000D01*
X115595400Y-75089000D01*
X118897400Y-75089000D01*
X118897400Y-76191000D01*
X118897400Y-76191000D01*
G37*
G36*
X110554473Y-74785938D02*
G01*
X110682049Y-74838782D01*
X110796859Y-74915495D01*
X110894505Y-75013141D01*
X110971218Y-75127951D01*
X111024062Y-75255527D01*
X111051000Y-75390956D01*
X111051000Y-75529044D01*
X111024062Y-75664473D01*
X110971218Y-75792049D01*
X110894505Y-75906859D01*
X110796859Y-76004505D01*
X110682049Y-76081218D01*
X110554473Y-76134062D01*
X110419044Y-76161000D01*
X110280956Y-76161000D01*
X110145527Y-76134062D01*
X110017951Y-76081218D01*
X109903141Y-76004505D01*
X109805495Y-75906859D01*
X109728782Y-75792049D01*
X109675938Y-75664473D01*
X109649000Y-75529044D01*
X109649000Y-75390956D01*
X109675938Y-75255527D01*
X109728782Y-75127951D01*
X109805495Y-75013141D01*
X109903141Y-74915495D01*
X110017951Y-74838782D01*
X110145527Y-74785938D01*
X110280956Y-74759000D01*
X110419044Y-74759000D01*
X110554473Y-74785938D01*
X110554473Y-74785938D01*
G37*
G36*
X121869260Y-75444400D02*
G01*
X119767260Y-75444400D01*
X119767260Y-74142400D01*
X121869260Y-74142400D01*
X121869260Y-75444400D01*
X121869260Y-75444400D01*
G37*
G36*
X113094473Y-73515938D02*
G01*
X113222049Y-73568782D01*
X113336859Y-73645495D01*
X113434505Y-73743141D01*
X113511218Y-73857951D01*
X113564062Y-73985527D01*
X113591000Y-74120956D01*
X113591000Y-74259044D01*
X113564062Y-74394473D01*
X113511218Y-74522049D01*
X113434505Y-74636859D01*
X113336859Y-74734505D01*
X113222049Y-74811218D01*
X113094473Y-74864062D01*
X112959044Y-74891000D01*
X112820956Y-74891000D01*
X112685527Y-74864062D01*
X112557951Y-74811218D01*
X112443141Y-74734505D01*
X112345495Y-74636859D01*
X112268782Y-74522049D01*
X112215938Y-74394473D01*
X112189000Y-74259044D01*
X112189000Y-74120956D01*
X112215938Y-73985527D01*
X112268782Y-73857951D01*
X112345495Y-73743141D01*
X112443141Y-73645495D01*
X112557951Y-73568782D01*
X112685527Y-73515938D01*
X112820956Y-73489000D01*
X112959044Y-73489000D01*
X113094473Y-73515938D01*
X113094473Y-73515938D01*
G37*
G36*
X126073000Y-74163000D02*
G01*
X124371000Y-74163000D01*
X124371000Y-73061000D01*
X126073000Y-73061000D01*
X126073000Y-74163000D01*
X126073000Y-74163000D01*
G37*
G36*
X110554473Y-72245938D02*
G01*
X110682049Y-72298782D01*
X110796859Y-72375495D01*
X110894505Y-72473141D01*
X110971218Y-72587951D01*
X111024062Y-72715527D01*
X111051000Y-72850956D01*
X111051000Y-72989044D01*
X111024062Y-73124473D01*
X110971218Y-73252049D01*
X110894505Y-73366859D01*
X110796859Y-73464505D01*
X110682049Y-73541218D01*
X110554473Y-73594062D01*
X110419044Y-73621000D01*
X110280956Y-73621000D01*
X110145527Y-73594062D01*
X110017951Y-73541218D01*
X109903141Y-73464505D01*
X109805495Y-73366859D01*
X109728782Y-73252049D01*
X109675938Y-73124473D01*
X109649000Y-72989044D01*
X109649000Y-72850956D01*
X109675938Y-72715527D01*
X109728782Y-72587951D01*
X109805495Y-72473141D01*
X109903141Y-72375495D01*
X110017951Y-72298782D01*
X110145527Y-72245938D01*
X110280956Y-72219000D01*
X110419044Y-72219000D01*
X110554473Y-72245938D01*
X110554473Y-72245938D01*
G37*
G36*
X123358000Y-73417000D02*
G01*
X122006000Y-73417000D01*
X122006000Y-72315000D01*
X123358000Y-72315000D01*
X123358000Y-73417000D01*
X123358000Y-73417000D01*
G37*
G36*
X113094473Y-70975938D02*
G01*
X113222049Y-71028782D01*
X113336859Y-71105495D01*
X113434505Y-71203141D01*
X113511218Y-71317951D01*
X113564062Y-71445527D01*
X113591000Y-71580956D01*
X113591000Y-71719044D01*
X113564062Y-71854473D01*
X113511218Y-71982049D01*
X113434505Y-72096859D01*
X113336859Y-72194505D01*
X113222049Y-72271218D01*
X113094473Y-72324062D01*
X112959044Y-72351000D01*
X112820956Y-72351000D01*
X112685527Y-72324062D01*
X112557951Y-72271218D01*
X112443141Y-72194505D01*
X112345495Y-72096859D01*
X112268782Y-71982049D01*
X112215938Y-71854473D01*
X112189000Y-71719044D01*
X112189000Y-71580956D01*
X112215938Y-71445527D01*
X112268782Y-71317951D01*
X112345495Y-71203141D01*
X112443141Y-71105495D01*
X112557951Y-71028782D01*
X112685527Y-70975938D01*
X112820956Y-70949000D01*
X112959044Y-70949000D01*
X113094473Y-70975938D01*
X113094473Y-70975938D01*
G37*
G36*
X123358000Y-71417000D02*
G01*
X122006000Y-71417000D01*
X122006000Y-70315000D01*
X123358000Y-70315000D01*
X123358000Y-71417000D01*
X123358000Y-71417000D01*
G37*
G36*
X126073000Y-71163000D02*
G01*
X124371000Y-71163000D01*
X124371000Y-70061000D01*
X126073000Y-70061000D01*
X126073000Y-71163000D01*
X126073000Y-71163000D01*
G37*
G36*
X110554473Y-69705938D02*
G01*
X110682049Y-69758782D01*
X110796859Y-69835495D01*
X110894505Y-69933141D01*
X110971218Y-70047951D01*
X111024062Y-70175527D01*
X111051000Y-70310956D01*
X111051000Y-70449044D01*
X111024062Y-70584473D01*
X110971218Y-70712049D01*
X110894505Y-70826859D01*
X110796859Y-70924505D01*
X110682049Y-71001218D01*
X110554473Y-71054062D01*
X110419044Y-71081000D01*
X110280956Y-71081000D01*
X110145527Y-71054062D01*
X110017951Y-71001218D01*
X109903141Y-70924505D01*
X109805495Y-70826859D01*
X109728782Y-70712049D01*
X109675938Y-70584473D01*
X109649000Y-70449044D01*
X109649000Y-70310956D01*
X109675938Y-70175527D01*
X109728782Y-70047951D01*
X109805495Y-69933141D01*
X109903141Y-69835495D01*
X110017951Y-69758782D01*
X110145527Y-69705938D01*
X110280956Y-69679000D01*
X110419044Y-69679000D01*
X110554473Y-69705938D01*
X110554473Y-69705938D01*
G37*
G36*
X113094473Y-68435938D02*
G01*
X113222049Y-68488782D01*
X113336859Y-68565495D01*
X113434505Y-68663141D01*
X113511218Y-68777951D01*
X113564062Y-68905527D01*
X113591000Y-69040956D01*
X113591000Y-69179044D01*
X113564062Y-69314473D01*
X113511218Y-69442049D01*
X113434505Y-69556859D01*
X113336859Y-69654505D01*
X113222049Y-69731218D01*
X113094473Y-69784062D01*
X112959044Y-69811000D01*
X112820956Y-69811000D01*
X112685527Y-69784062D01*
X112557951Y-69731218D01*
X112443141Y-69654505D01*
X112345495Y-69556859D01*
X112268782Y-69442049D01*
X112215938Y-69314473D01*
X112189000Y-69179044D01*
X112189000Y-69040956D01*
X112215938Y-68905527D01*
X112268782Y-68777951D01*
X112345495Y-68663141D01*
X112443141Y-68565495D01*
X112557951Y-68488782D01*
X112685527Y-68435938D01*
X112820956Y-68409000D01*
X112959044Y-68409000D01*
X113094473Y-68435938D01*
X113094473Y-68435938D01*
G37*
G36*
X110554473Y-67165938D02*
G01*
X110682049Y-67218782D01*
X110796859Y-67295495D01*
X110894505Y-67393141D01*
X110971218Y-67507951D01*
X111024062Y-67635527D01*
X111051000Y-67770956D01*
X111051000Y-67909044D01*
X111024062Y-68044473D01*
X110971218Y-68172049D01*
X110894505Y-68286859D01*
X110796859Y-68384505D01*
X110682049Y-68461218D01*
X110554473Y-68514062D01*
X110419044Y-68541000D01*
X110280956Y-68541000D01*
X110145527Y-68514062D01*
X110017951Y-68461218D01*
X109903141Y-68384505D01*
X109805495Y-68286859D01*
X109728782Y-68172049D01*
X109675938Y-68044473D01*
X109649000Y-67909044D01*
X109649000Y-67770956D01*
X109675938Y-67635527D01*
X109728782Y-67507951D01*
X109805495Y-67393141D01*
X109903141Y-67295495D01*
X110017951Y-67218782D01*
X110145527Y-67165938D01*
X110280956Y-67139000D01*
X110419044Y-67139000D01*
X110554473Y-67165938D01*
X110554473Y-67165938D01*
G37*
G36*
X113094473Y-65895938D02*
G01*
X113222049Y-65948782D01*
X113336859Y-66025495D01*
X113434505Y-66123141D01*
X113511218Y-66237951D01*
X113564062Y-66365527D01*
X113591000Y-66500956D01*
X113591000Y-66639044D01*
X113564062Y-66774473D01*
X113511218Y-66902049D01*
X113434505Y-67016859D01*
X113336859Y-67114505D01*
X113222049Y-67191218D01*
X113094473Y-67244062D01*
X112959044Y-67271000D01*
X112820956Y-67271000D01*
X112685527Y-67244062D01*
X112557951Y-67191218D01*
X112443141Y-67114505D01*
X112345495Y-67016859D01*
X112268782Y-66902049D01*
X112215938Y-66774473D01*
X112189000Y-66639044D01*
X112189000Y-66500956D01*
X112215938Y-66365527D01*
X112268782Y-66237951D01*
X112345495Y-66123141D01*
X112443141Y-66025495D01*
X112557951Y-65948782D01*
X112685527Y-65895938D01*
X112820956Y-65869000D01*
X112959044Y-65869000D01*
X113094473Y-65895938D01*
X113094473Y-65895938D01*
G37*
G36*
X120629000Y-65986800D02*
G01*
X118747000Y-65986800D01*
X118747000Y-62384800D01*
X120629000Y-62384800D01*
X120629000Y-65986800D01*
X120629000Y-65986800D01*
G37*
G36*
X125909000Y-65986800D02*
G01*
X124027000Y-65986800D01*
X124027000Y-62384800D01*
X125909000Y-62384800D01*
X125909000Y-65986800D01*
X125909000Y-65986800D01*
G37*
M02*
