G04 #@! TF.GenerationSoftware,KiCad,Pcbnew,(5.1.4-0-10_14)*
G04 #@! TF.CreationDate,2020-01-14T22:28:18-05:00*
G04 #@! TF.ProjectId,throttle,7468726f-7474-46c6-952e-6b696361645f,rev?*
G04 #@! TF.SameCoordinates,Original*
G04 #@! TF.FileFunction,Copper,L3,Inr*
G04 #@! TF.FilePolarity,Positive*
%FSLAX46Y46*%
G04 Gerber Fmt 4.6, Leading zero omitted, Abs format (unit mm)*
G04 Created by KiCad (PCBNEW (5.1.4-0-10_14)) date 2020-01-14 22:28:18*
%MOMM*%
%LPD*%
G04 APERTURE LIST*
%ADD10C,1.300000*%
%ADD11C,2.000000*%
%ADD12C,1.400000*%
%ADD13R,1.400000X1.400000*%
%ADD14C,0.800000*%
%ADD15C,0.609600*%
%ADD16C,0.254000*%
G04 APERTURE END LIST*
D10*
X81965800Y-91490800D03*
X79425800Y-91490800D03*
X80695800Y-94030800D03*
X83235800Y-94030800D03*
D11*
X78025800Y-92990800D03*
X112150000Y-92100000D03*
D10*
X112890000Y-66570000D03*
X110350000Y-67840000D03*
X112890000Y-69110000D03*
X110350000Y-70380000D03*
X112890000Y-71650000D03*
X110350000Y-72920000D03*
X112890000Y-74190000D03*
X110350000Y-75460000D03*
X112890000Y-76730000D03*
X110350000Y-78000000D03*
X112890000Y-79270000D03*
X110350000Y-80540000D03*
X112890000Y-81810000D03*
X112890000Y-84350000D03*
X112890000Y-86890000D03*
X112890000Y-89430000D03*
X110350000Y-83080000D03*
X110350000Y-90700000D03*
X110350000Y-88160000D03*
X110350000Y-85620000D03*
D12*
X83058000Y-85090000D03*
X83058000Y-87630000D03*
X80518000Y-85090000D03*
X80518000Y-87630000D03*
X77978000Y-85090000D03*
D13*
X77978000Y-87630000D03*
D14*
X128625600Y-82778600D03*
X128905000Y-85242400D03*
X129120900Y-87744300D03*
X125575680Y-90678000D03*
D15*
X97028000Y-94706000D03*
X124637800Y-79286100D03*
X124637800Y-84112100D03*
D14*
X130254360Y-91117980D03*
D15*
X126238000Y-69342000D03*
X118122700Y-90982800D03*
X126250700Y-67119500D03*
X123952000Y-68326000D03*
X99900000Y-64800000D03*
X112776000Y-65278000D03*
X78740000Y-76708000D03*
X86625000Y-89675000D03*
D14*
X128456040Y-91181480D03*
D15*
X122025000Y-59925000D03*
X86900000Y-80250000D03*
X92575000Y-89650000D03*
X115550000Y-65225000D03*
X107350000Y-89850000D03*
X99925000Y-67000000D03*
X85100000Y-69975000D03*
X80550000Y-77850000D03*
X89275000Y-77550000D03*
X99682300Y-82575400D03*
X105130600Y-76085700D03*
X99682300Y-82575400D03*
X98234500Y-79044800D03*
X78725000Y-71900000D03*
X98100000Y-69500000D03*
X86325000Y-70875000D03*
X85500000Y-71850000D03*
X97904300Y-76517500D03*
X82675000Y-82800000D03*
X115550000Y-64375000D03*
X99350000Y-70700000D03*
X95475000Y-86100000D03*
X88650000Y-86075000D03*
X98875000Y-69925000D03*
X94275000Y-82925000D03*
X89675000Y-67675000D03*
X101092000Y-92710000D03*
X88675000Y-68475000D03*
X89916000Y-90906600D03*
X87625000Y-69325000D03*
X87425000Y-67875000D03*
X93980000Y-93726000D03*
X96378875Y-90021231D03*
X107325000Y-88775000D03*
X104375000Y-94625000D03*
X92456000Y-86533410D03*
X108050000Y-72150000D03*
X91500000Y-84025000D03*
X96000000Y-84025000D03*
X117327201Y-65278000D03*
X118250000Y-61250000D03*
D16*
G36*
X133374876Y-95835851D02*
G01*
X75791949Y-95835851D01*
X75791949Y-92864790D01*
X76746400Y-92864790D01*
X76746400Y-93116810D01*
X76795567Y-93363987D01*
X76892011Y-93596823D01*
X77032025Y-93806370D01*
X77210230Y-93984575D01*
X77419777Y-94124589D01*
X77652613Y-94221033D01*
X77899790Y-94270200D01*
X78151810Y-94270200D01*
X78398987Y-94221033D01*
X78631823Y-94124589D01*
X78841370Y-93984575D01*
X78886683Y-93939262D01*
X79766400Y-93939262D01*
X79766400Y-94122338D01*
X79802116Y-94301896D01*
X79872176Y-94471036D01*
X79973888Y-94623258D01*
X80103342Y-94752712D01*
X80255564Y-94854424D01*
X80424704Y-94924484D01*
X80604262Y-94960200D01*
X80787338Y-94960200D01*
X80966896Y-94924484D01*
X80986588Y-94916327D01*
X82529878Y-94916327D01*
X82583266Y-95145001D01*
X82813174Y-95250895D01*
X83059324Y-95309902D01*
X83312255Y-95319752D01*
X83562249Y-95280070D01*
X83799696Y-95192378D01*
X83888334Y-95145001D01*
X83941722Y-94916327D01*
X83235800Y-94210405D01*
X82529878Y-94916327D01*
X80986588Y-94916327D01*
X81136036Y-94854424D01*
X81288258Y-94752712D01*
X81417712Y-94623258D01*
X81519424Y-94471036D01*
X81589484Y-94301896D01*
X81625200Y-94122338D01*
X81625200Y-94107255D01*
X81946848Y-94107255D01*
X81986530Y-94357249D01*
X82074222Y-94594696D01*
X82121599Y-94683334D01*
X82350273Y-94736722D01*
X83056195Y-94030800D01*
X83415405Y-94030800D01*
X84121327Y-94736722D01*
X84350001Y-94683334D01*
X84403371Y-94567461D01*
X103790800Y-94567461D01*
X103790800Y-94682539D01*
X103813250Y-94795405D01*
X103857288Y-94901723D01*
X103921222Y-94997406D01*
X104002594Y-95078778D01*
X104098277Y-95142712D01*
X104204595Y-95186750D01*
X104317461Y-95209200D01*
X104432539Y-95209200D01*
X104545405Y-95186750D01*
X104651723Y-95142712D01*
X104747406Y-95078778D01*
X104828778Y-94997406D01*
X104892712Y-94901723D01*
X104936750Y-94795405D01*
X104959200Y-94682539D01*
X104959200Y-94567461D01*
X104936750Y-94454595D01*
X104892712Y-94348277D01*
X104828778Y-94252594D01*
X104747406Y-94171222D01*
X104651723Y-94107288D01*
X104545405Y-94063250D01*
X104432539Y-94040800D01*
X104317461Y-94040800D01*
X104204595Y-94063250D01*
X104098277Y-94107288D01*
X104002594Y-94171222D01*
X103921222Y-94252594D01*
X103857288Y-94348277D01*
X103813250Y-94454595D01*
X103790800Y-94567461D01*
X84403371Y-94567461D01*
X84455895Y-94453426D01*
X84514902Y-94207276D01*
X84524752Y-93954345D01*
X84485070Y-93704351D01*
X84471816Y-93668461D01*
X93395800Y-93668461D01*
X93395800Y-93783539D01*
X93418250Y-93896405D01*
X93462288Y-94002723D01*
X93526222Y-94098406D01*
X93607594Y-94179778D01*
X93703277Y-94243712D01*
X93809595Y-94287750D01*
X93922461Y-94310200D01*
X94037539Y-94310200D01*
X94150405Y-94287750D01*
X94256723Y-94243712D01*
X94352406Y-94179778D01*
X94433778Y-94098406D01*
X94497712Y-94002723D01*
X94541750Y-93896405D01*
X94564200Y-93783539D01*
X94564200Y-93668461D01*
X94541750Y-93555595D01*
X94497712Y-93449277D01*
X94433778Y-93353594D01*
X94352406Y-93272222D01*
X94256723Y-93208288D01*
X94150405Y-93164250D01*
X94037539Y-93141800D01*
X93922461Y-93141800D01*
X93809595Y-93164250D01*
X93703277Y-93208288D01*
X93607594Y-93272222D01*
X93526222Y-93353594D01*
X93462288Y-93449277D01*
X93418250Y-93555595D01*
X93395800Y-93668461D01*
X84471816Y-93668461D01*
X84397378Y-93466904D01*
X84350001Y-93378266D01*
X84121327Y-93324878D01*
X83415405Y-94030800D01*
X83056195Y-94030800D01*
X82350273Y-93324878D01*
X82121599Y-93378266D01*
X82015705Y-93608174D01*
X81956698Y-93854324D01*
X81946848Y-94107255D01*
X81625200Y-94107255D01*
X81625200Y-93939262D01*
X81589484Y-93759704D01*
X81519424Y-93590564D01*
X81417712Y-93438342D01*
X81288258Y-93308888D01*
X81136036Y-93207176D01*
X80986589Y-93145273D01*
X82529878Y-93145273D01*
X83235800Y-93851195D01*
X83941722Y-93145273D01*
X83888334Y-92916599D01*
X83658426Y-92810705D01*
X83412276Y-92751698D01*
X83159345Y-92741848D01*
X82909351Y-92781530D01*
X82671904Y-92869222D01*
X82583266Y-92916599D01*
X82529878Y-93145273D01*
X80986589Y-93145273D01*
X80966896Y-93137116D01*
X80787338Y-93101400D01*
X80604262Y-93101400D01*
X80424704Y-93137116D01*
X80255564Y-93207176D01*
X80103342Y-93308888D01*
X79973888Y-93438342D01*
X79872176Y-93590564D01*
X79802116Y-93759704D01*
X79766400Y-93939262D01*
X78886683Y-93939262D01*
X79019575Y-93806370D01*
X79159589Y-93596823D01*
X79256033Y-93363987D01*
X79305200Y-93116810D01*
X79305200Y-92864790D01*
X79262965Y-92652461D01*
X100507800Y-92652461D01*
X100507800Y-92767539D01*
X100530250Y-92880405D01*
X100574288Y-92986723D01*
X100638222Y-93082406D01*
X100719594Y-93163778D01*
X100815277Y-93227712D01*
X100921595Y-93271750D01*
X101034461Y-93294200D01*
X101149539Y-93294200D01*
X101262405Y-93271750D01*
X101368723Y-93227712D01*
X101464406Y-93163778D01*
X101545778Y-93082406D01*
X101609712Y-92986723D01*
X101653750Y-92880405D01*
X101676200Y-92767539D01*
X101676200Y-92652461D01*
X101653750Y-92539595D01*
X101609712Y-92433277D01*
X101545778Y-92337594D01*
X101464406Y-92256222D01*
X101368723Y-92192288D01*
X101262405Y-92148250D01*
X101149539Y-92125800D01*
X101034461Y-92125800D01*
X100921595Y-92148250D01*
X100815277Y-92192288D01*
X100719594Y-92256222D01*
X100638222Y-92337594D01*
X100574288Y-92433277D01*
X100530250Y-92539595D01*
X100507800Y-92652461D01*
X79262965Y-92652461D01*
X79256033Y-92617613D01*
X79159895Y-92385517D01*
X79334262Y-92420200D01*
X79517338Y-92420200D01*
X79696896Y-92384484D01*
X79866036Y-92314424D01*
X80018258Y-92212712D01*
X80147712Y-92083258D01*
X80249424Y-91931036D01*
X80319484Y-91761896D01*
X80355200Y-91582338D01*
X80355200Y-91399262D01*
X81036400Y-91399262D01*
X81036400Y-91582338D01*
X81072116Y-91761896D01*
X81142176Y-91931036D01*
X81243888Y-92083258D01*
X81373342Y-92212712D01*
X81525564Y-92314424D01*
X81694704Y-92384484D01*
X81874262Y-92420200D01*
X82057338Y-92420200D01*
X82236896Y-92384484D01*
X82406036Y-92314424D01*
X82558258Y-92212712D01*
X82687712Y-92083258D01*
X82789424Y-91931036D01*
X82859484Y-91761896D01*
X82894565Y-91585527D01*
X109644078Y-91585527D01*
X109697466Y-91814201D01*
X109927374Y-91920095D01*
X110173524Y-91979102D01*
X110426455Y-91988952D01*
X110676449Y-91949270D01*
X110891300Y-91869923D01*
X110870600Y-91973990D01*
X110870600Y-92226010D01*
X110919767Y-92473187D01*
X111016211Y-92706023D01*
X111156225Y-92915570D01*
X111334430Y-93093775D01*
X111543977Y-93233789D01*
X111776813Y-93330233D01*
X112023990Y-93379400D01*
X112276010Y-93379400D01*
X112523187Y-93330233D01*
X112756023Y-93233789D01*
X112965570Y-93093775D01*
X113143775Y-92915570D01*
X113283789Y-92706023D01*
X113380233Y-92473187D01*
X113429400Y-92226010D01*
X113429400Y-91973990D01*
X113380233Y-91726813D01*
X113283789Y-91493977D01*
X113143775Y-91284430D01*
X112965570Y-91106225D01*
X112756023Y-90966211D01*
X112523187Y-90869767D01*
X112276010Y-90820600D01*
X112023990Y-90820600D01*
X111776813Y-90869767D01*
X111614604Y-90936956D01*
X111629102Y-90876476D01*
X111638952Y-90623545D01*
X111599270Y-90373551D01*
X111511578Y-90136104D01*
X111464201Y-90047466D01*
X111235527Y-89994078D01*
X110529605Y-90700000D01*
X110543748Y-90714143D01*
X110364143Y-90893748D01*
X110350000Y-90879605D01*
X109644078Y-91585527D01*
X82894565Y-91585527D01*
X82895200Y-91582338D01*
X82895200Y-91399262D01*
X82859484Y-91219704D01*
X82789424Y-91050564D01*
X82687712Y-90898342D01*
X82638431Y-90849061D01*
X89331800Y-90849061D01*
X89331800Y-90964139D01*
X89354250Y-91077005D01*
X89398288Y-91183323D01*
X89462222Y-91279006D01*
X89543594Y-91360378D01*
X89639277Y-91424312D01*
X89745595Y-91468350D01*
X89858461Y-91490800D01*
X89973539Y-91490800D01*
X90086405Y-91468350D01*
X90192723Y-91424312D01*
X90288406Y-91360378D01*
X90369778Y-91279006D01*
X90433712Y-91183323D01*
X90477750Y-91077005D01*
X90500200Y-90964139D01*
X90500200Y-90849061D01*
X90485759Y-90776455D01*
X109061048Y-90776455D01*
X109100730Y-91026449D01*
X109188422Y-91263896D01*
X109235799Y-91352534D01*
X109464473Y-91405922D01*
X110170395Y-90700000D01*
X109464473Y-89994078D01*
X109235799Y-90047466D01*
X109129905Y-90277374D01*
X109070898Y-90523524D01*
X109061048Y-90776455D01*
X90485759Y-90776455D01*
X90477750Y-90736195D01*
X90433712Y-90629877D01*
X90369778Y-90534194D01*
X90288406Y-90452822D01*
X90192723Y-90388888D01*
X90086405Y-90344850D01*
X89973539Y-90322400D01*
X89858461Y-90322400D01*
X89745595Y-90344850D01*
X89639277Y-90388888D01*
X89543594Y-90452822D01*
X89462222Y-90534194D01*
X89398288Y-90629877D01*
X89354250Y-90736195D01*
X89331800Y-90849061D01*
X82638431Y-90849061D01*
X82558258Y-90768888D01*
X82406036Y-90667176D01*
X82236896Y-90597116D01*
X82057338Y-90561400D01*
X81874262Y-90561400D01*
X81694704Y-90597116D01*
X81525564Y-90667176D01*
X81373342Y-90768888D01*
X81243888Y-90898342D01*
X81142176Y-91050564D01*
X81072116Y-91219704D01*
X81036400Y-91399262D01*
X80355200Y-91399262D01*
X80319484Y-91219704D01*
X80249424Y-91050564D01*
X80147712Y-90898342D01*
X80018258Y-90768888D01*
X79866036Y-90667176D01*
X79696896Y-90597116D01*
X79517338Y-90561400D01*
X79334262Y-90561400D01*
X79154704Y-90597116D01*
X78985564Y-90667176D01*
X78833342Y-90768888D01*
X78703888Y-90898342D01*
X78602176Y-91050564D01*
X78532116Y-91219704D01*
X78496400Y-91399262D01*
X78496400Y-91582338D01*
X78532116Y-91761896D01*
X78559023Y-91826856D01*
X78398987Y-91760567D01*
X78151810Y-91711400D01*
X77899790Y-91711400D01*
X77652613Y-91760567D01*
X77419777Y-91857011D01*
X77210230Y-91997025D01*
X77032025Y-92175230D01*
X76892011Y-92384777D01*
X76795567Y-92617613D01*
X76746400Y-92864790D01*
X75791949Y-92864790D01*
X75791949Y-89963692D01*
X95794675Y-89963692D01*
X95794675Y-90078770D01*
X95817125Y-90191636D01*
X95861163Y-90297954D01*
X95925097Y-90393637D01*
X96006469Y-90475009D01*
X96102152Y-90538943D01*
X96208470Y-90582981D01*
X96321336Y-90605431D01*
X96436414Y-90605431D01*
X96549280Y-90582981D01*
X96655598Y-90538943D01*
X96751281Y-90475009D01*
X96832653Y-90393637D01*
X96896587Y-90297954D01*
X96940625Y-90191636D01*
X96963075Y-90078770D01*
X96963075Y-89963692D01*
X96940625Y-89850826D01*
X96925568Y-89814473D01*
X109644078Y-89814473D01*
X110350000Y-90520395D01*
X111055922Y-89814473D01*
X111002534Y-89585799D01*
X110772626Y-89479905D01*
X110526476Y-89420898D01*
X110273545Y-89411048D01*
X110023551Y-89450730D01*
X109786104Y-89538422D01*
X109697466Y-89585799D01*
X109644078Y-89814473D01*
X96925568Y-89814473D01*
X96896587Y-89744508D01*
X96832653Y-89648825D01*
X96751281Y-89567453D01*
X96655598Y-89503519D01*
X96549280Y-89459481D01*
X96436414Y-89437031D01*
X96321336Y-89437031D01*
X96208470Y-89459481D01*
X96102152Y-89503519D01*
X96006469Y-89567453D01*
X95925097Y-89648825D01*
X95861163Y-89744508D01*
X95817125Y-89850826D01*
X95794675Y-89963692D01*
X75791949Y-89963692D01*
X75791949Y-88717461D01*
X106740800Y-88717461D01*
X106740800Y-88832539D01*
X106763250Y-88945405D01*
X106807288Y-89051723D01*
X106871222Y-89147406D01*
X106952594Y-89228778D01*
X107048277Y-89292712D01*
X107154595Y-89336750D01*
X107267461Y-89359200D01*
X107382539Y-89359200D01*
X107486798Y-89338462D01*
X111960600Y-89338462D01*
X111960600Y-89521538D01*
X111996316Y-89701096D01*
X112066376Y-89870236D01*
X112168088Y-90022458D01*
X112297542Y-90151912D01*
X112449764Y-90253624D01*
X112618904Y-90323684D01*
X112798462Y-90359400D01*
X112981538Y-90359400D01*
X113161096Y-90323684D01*
X113330236Y-90253624D01*
X113482458Y-90151912D01*
X113611912Y-90022458D01*
X113713624Y-89870236D01*
X113783684Y-89701096D01*
X113819400Y-89521538D01*
X113819400Y-89338462D01*
X113783684Y-89158904D01*
X113713624Y-88989764D01*
X113611912Y-88837542D01*
X113482458Y-88708088D01*
X113330236Y-88606376D01*
X113161096Y-88536316D01*
X112981538Y-88500600D01*
X112798462Y-88500600D01*
X112618904Y-88536316D01*
X112449764Y-88606376D01*
X112297542Y-88708088D01*
X112168088Y-88837542D01*
X112066376Y-88989764D01*
X111996316Y-89158904D01*
X111960600Y-89338462D01*
X107486798Y-89338462D01*
X107495405Y-89336750D01*
X107601723Y-89292712D01*
X107697406Y-89228778D01*
X107778778Y-89147406D01*
X107842712Y-89051723D01*
X107886750Y-88945405D01*
X107909200Y-88832539D01*
X107909200Y-88717461D01*
X107886750Y-88604595D01*
X107842712Y-88498277D01*
X107778778Y-88402594D01*
X107697406Y-88321222D01*
X107601723Y-88257288D01*
X107495405Y-88213250D01*
X107382539Y-88190800D01*
X107267461Y-88190800D01*
X107154595Y-88213250D01*
X107048277Y-88257288D01*
X106952594Y-88321222D01*
X106871222Y-88402594D01*
X106807288Y-88498277D01*
X106763250Y-88604595D01*
X106740800Y-88717461D01*
X75791949Y-88717461D01*
X75791949Y-86930000D01*
X76997249Y-86930000D01*
X76997249Y-88330000D01*
X77002644Y-88384772D01*
X77018620Y-88437439D01*
X77044564Y-88485977D01*
X77079479Y-88528521D01*
X77122023Y-88563436D01*
X77170561Y-88589380D01*
X77223228Y-88605356D01*
X77278000Y-88610751D01*
X78678000Y-88610751D01*
X78732772Y-88605356D01*
X78785439Y-88589380D01*
X78833977Y-88563436D01*
X78876521Y-88528521D01*
X78911436Y-88485977D01*
X78937380Y-88437439D01*
X78953356Y-88384772D01*
X78958751Y-88330000D01*
X78958751Y-87533538D01*
X79538600Y-87533538D01*
X79538600Y-87726462D01*
X79576238Y-87915680D01*
X79650067Y-88093920D01*
X79757250Y-88254331D01*
X79893669Y-88390750D01*
X80054080Y-88497933D01*
X80232320Y-88571762D01*
X80421538Y-88609400D01*
X80614462Y-88609400D01*
X80803680Y-88571762D01*
X80981920Y-88497933D01*
X81142331Y-88390750D01*
X81278750Y-88254331D01*
X81385933Y-88093920D01*
X81459762Y-87915680D01*
X81497400Y-87726462D01*
X81497400Y-87533538D01*
X82078600Y-87533538D01*
X82078600Y-87726462D01*
X82116238Y-87915680D01*
X82190067Y-88093920D01*
X82297250Y-88254331D01*
X82433669Y-88390750D01*
X82594080Y-88497933D01*
X82772320Y-88571762D01*
X82961538Y-88609400D01*
X83154462Y-88609400D01*
X83343680Y-88571762D01*
X83521920Y-88497933D01*
X83682331Y-88390750D01*
X83818750Y-88254331D01*
X83925933Y-88093920D01*
X83936477Y-88068462D01*
X109420600Y-88068462D01*
X109420600Y-88251538D01*
X109456316Y-88431096D01*
X109526376Y-88600236D01*
X109628088Y-88752458D01*
X109757542Y-88881912D01*
X109909764Y-88983624D01*
X110078904Y-89053684D01*
X110258462Y-89089400D01*
X110441538Y-89089400D01*
X110621096Y-89053684D01*
X110790236Y-88983624D01*
X110942458Y-88881912D01*
X111071912Y-88752458D01*
X111173624Y-88600236D01*
X111243684Y-88431096D01*
X111279400Y-88251538D01*
X111279400Y-88068462D01*
X111243684Y-87888904D01*
X111173624Y-87719764D01*
X111071912Y-87567542D01*
X110942458Y-87438088D01*
X110790236Y-87336376D01*
X110621096Y-87266316D01*
X110441538Y-87230600D01*
X110258462Y-87230600D01*
X110078904Y-87266316D01*
X109909764Y-87336376D01*
X109757542Y-87438088D01*
X109628088Y-87567542D01*
X109526376Y-87719764D01*
X109456316Y-87888904D01*
X109420600Y-88068462D01*
X83936477Y-88068462D01*
X83999762Y-87915680D01*
X84037400Y-87726462D01*
X84037400Y-87533538D01*
X83999762Y-87344320D01*
X83925933Y-87166080D01*
X83818750Y-87005669D01*
X83682331Y-86869250D01*
X83521920Y-86762067D01*
X83343680Y-86688238D01*
X83154462Y-86650600D01*
X82961538Y-86650600D01*
X82772320Y-86688238D01*
X82594080Y-86762067D01*
X82433669Y-86869250D01*
X82297250Y-87005669D01*
X82190067Y-87166080D01*
X82116238Y-87344320D01*
X82078600Y-87533538D01*
X81497400Y-87533538D01*
X81459762Y-87344320D01*
X81385933Y-87166080D01*
X81278750Y-87005669D01*
X81142331Y-86869250D01*
X80981920Y-86762067D01*
X80803680Y-86688238D01*
X80614462Y-86650600D01*
X80421538Y-86650600D01*
X80232320Y-86688238D01*
X80054080Y-86762067D01*
X79893669Y-86869250D01*
X79757250Y-87005669D01*
X79650067Y-87166080D01*
X79576238Y-87344320D01*
X79538600Y-87533538D01*
X78958751Y-87533538D01*
X78958751Y-86930000D01*
X78953356Y-86875228D01*
X78937380Y-86822561D01*
X78911436Y-86774023D01*
X78876521Y-86731479D01*
X78833977Y-86696564D01*
X78785439Y-86670620D01*
X78732772Y-86654644D01*
X78678000Y-86649249D01*
X77278000Y-86649249D01*
X77223228Y-86654644D01*
X77170561Y-86670620D01*
X77122023Y-86696564D01*
X77079479Y-86731479D01*
X77044564Y-86774023D01*
X77018620Y-86822561D01*
X77002644Y-86875228D01*
X76997249Y-86930000D01*
X75791949Y-86930000D01*
X75791949Y-84993538D01*
X76998600Y-84993538D01*
X76998600Y-85186462D01*
X77036238Y-85375680D01*
X77110067Y-85553920D01*
X77217250Y-85714331D01*
X77353669Y-85850750D01*
X77514080Y-85957933D01*
X77692320Y-86031762D01*
X77881538Y-86069400D01*
X78074462Y-86069400D01*
X78263680Y-86031762D01*
X78441920Y-85957933D01*
X78602331Y-85850750D01*
X78738750Y-85714331D01*
X78845933Y-85553920D01*
X78919762Y-85375680D01*
X78957400Y-85186462D01*
X78957400Y-84993538D01*
X79538600Y-84993538D01*
X79538600Y-85186462D01*
X79576238Y-85375680D01*
X79650067Y-85553920D01*
X79757250Y-85714331D01*
X79893669Y-85850750D01*
X80054080Y-85957933D01*
X80232320Y-86031762D01*
X80421538Y-86069400D01*
X80614462Y-86069400D01*
X80803680Y-86031762D01*
X80853154Y-86011269D01*
X82316336Y-86011269D01*
X82375797Y-86245037D01*
X82614242Y-86355934D01*
X82869740Y-86418183D01*
X83132473Y-86429390D01*
X83392344Y-86389125D01*
X83639366Y-86298935D01*
X83740203Y-86245037D01*
X83798089Y-86017461D01*
X88065800Y-86017461D01*
X88065800Y-86132539D01*
X88088250Y-86245405D01*
X88132288Y-86351723D01*
X88196222Y-86447406D01*
X88277594Y-86528778D01*
X88373277Y-86592712D01*
X88479595Y-86636750D01*
X88592461Y-86659200D01*
X88707539Y-86659200D01*
X88820405Y-86636750D01*
X88926723Y-86592712D01*
X89022406Y-86528778D01*
X89075313Y-86475871D01*
X91871800Y-86475871D01*
X91871800Y-86590949D01*
X91894250Y-86703815D01*
X91938288Y-86810133D01*
X92002222Y-86905816D01*
X92083594Y-86987188D01*
X92179277Y-87051122D01*
X92285595Y-87095160D01*
X92398461Y-87117610D01*
X92513539Y-87117610D01*
X92626405Y-87095160D01*
X92732723Y-87051122D01*
X92828406Y-86987188D01*
X92909778Y-86905816D01*
X92973712Y-86810133D01*
X92978546Y-86798462D01*
X111960600Y-86798462D01*
X111960600Y-86981538D01*
X111996316Y-87161096D01*
X112066376Y-87330236D01*
X112168088Y-87482458D01*
X112297542Y-87611912D01*
X112449764Y-87713624D01*
X112618904Y-87783684D01*
X112798462Y-87819400D01*
X112981538Y-87819400D01*
X113161096Y-87783684D01*
X113330236Y-87713624D01*
X113482458Y-87611912D01*
X113611912Y-87482458D01*
X113713624Y-87330236D01*
X113783684Y-87161096D01*
X113819400Y-86981538D01*
X113819400Y-86798462D01*
X113783684Y-86618904D01*
X113713624Y-86449764D01*
X113611912Y-86297542D01*
X113482458Y-86168088D01*
X113330236Y-86066376D01*
X113161096Y-85996316D01*
X112981538Y-85960600D01*
X112798462Y-85960600D01*
X112618904Y-85996316D01*
X112449764Y-86066376D01*
X112297542Y-86168088D01*
X112168088Y-86297542D01*
X112066376Y-86449764D01*
X111996316Y-86618904D01*
X111960600Y-86798462D01*
X92978546Y-86798462D01*
X93017750Y-86703815D01*
X93040200Y-86590949D01*
X93040200Y-86475871D01*
X93017750Y-86363005D01*
X92973712Y-86256687D01*
X92909778Y-86161004D01*
X92828406Y-86079632D01*
X92772777Y-86042461D01*
X94890800Y-86042461D01*
X94890800Y-86157539D01*
X94913250Y-86270405D01*
X94957288Y-86376723D01*
X95021222Y-86472406D01*
X95102594Y-86553778D01*
X95198277Y-86617712D01*
X95304595Y-86661750D01*
X95417461Y-86684200D01*
X95532539Y-86684200D01*
X95645405Y-86661750D01*
X95751723Y-86617712D01*
X95847406Y-86553778D01*
X95928778Y-86472406D01*
X95992712Y-86376723D01*
X96036750Y-86270405D01*
X96059200Y-86157539D01*
X96059200Y-86042461D01*
X96036750Y-85929595D01*
X95992712Y-85823277D01*
X95928778Y-85727594D01*
X95847406Y-85646222D01*
X95751723Y-85582288D01*
X95645405Y-85538250D01*
X95596197Y-85528462D01*
X109420600Y-85528462D01*
X109420600Y-85711538D01*
X109456316Y-85891096D01*
X109526376Y-86060236D01*
X109628088Y-86212458D01*
X109757542Y-86341912D01*
X109909764Y-86443624D01*
X110078904Y-86513684D01*
X110258462Y-86549400D01*
X110441538Y-86549400D01*
X110621096Y-86513684D01*
X110790236Y-86443624D01*
X110942458Y-86341912D01*
X111071912Y-86212458D01*
X111173624Y-86060236D01*
X111243684Y-85891096D01*
X111279400Y-85711538D01*
X111279400Y-85528462D01*
X111243684Y-85348904D01*
X111173624Y-85179764D01*
X111071912Y-85027542D01*
X110942458Y-84898088D01*
X110790236Y-84796376D01*
X110621096Y-84726316D01*
X110441538Y-84690600D01*
X110258462Y-84690600D01*
X110078904Y-84726316D01*
X109909764Y-84796376D01*
X109757542Y-84898088D01*
X109628088Y-85027542D01*
X109526376Y-85179764D01*
X109456316Y-85348904D01*
X109420600Y-85528462D01*
X95596197Y-85528462D01*
X95532539Y-85515800D01*
X95417461Y-85515800D01*
X95304595Y-85538250D01*
X95198277Y-85582288D01*
X95102594Y-85646222D01*
X95021222Y-85727594D01*
X94957288Y-85823277D01*
X94913250Y-85929595D01*
X94890800Y-86042461D01*
X92772777Y-86042461D01*
X92732723Y-86015698D01*
X92626405Y-85971660D01*
X92513539Y-85949210D01*
X92398461Y-85949210D01*
X92285595Y-85971660D01*
X92179277Y-86015698D01*
X92083594Y-86079632D01*
X92002222Y-86161004D01*
X91938288Y-86256687D01*
X91894250Y-86363005D01*
X91871800Y-86475871D01*
X89075313Y-86475871D01*
X89103778Y-86447406D01*
X89167712Y-86351723D01*
X89211750Y-86245405D01*
X89234200Y-86132539D01*
X89234200Y-86017461D01*
X89211750Y-85904595D01*
X89167712Y-85798277D01*
X89103778Y-85702594D01*
X89022406Y-85621222D01*
X88926723Y-85557288D01*
X88820405Y-85513250D01*
X88707539Y-85490800D01*
X88592461Y-85490800D01*
X88479595Y-85513250D01*
X88373277Y-85557288D01*
X88277594Y-85621222D01*
X88196222Y-85702594D01*
X88132288Y-85798277D01*
X88088250Y-85904595D01*
X88065800Y-86017461D01*
X83798089Y-86017461D01*
X83799664Y-86011269D01*
X83058000Y-85269605D01*
X82316336Y-86011269D01*
X80853154Y-86011269D01*
X80981920Y-85957933D01*
X81142331Y-85850750D01*
X81278750Y-85714331D01*
X81385933Y-85553920D01*
X81459762Y-85375680D01*
X81497400Y-85186462D01*
X81497400Y-85164473D01*
X81718610Y-85164473D01*
X81758875Y-85424344D01*
X81849065Y-85671366D01*
X81902963Y-85772203D01*
X82136731Y-85831664D01*
X82878395Y-85090000D01*
X83237605Y-85090000D01*
X83979269Y-85831664D01*
X84213037Y-85772203D01*
X84323934Y-85533758D01*
X84386183Y-85278260D01*
X84397390Y-85015527D01*
X84357125Y-84755656D01*
X84266935Y-84508634D01*
X84213037Y-84407797D01*
X83979269Y-84348336D01*
X83237605Y-85090000D01*
X82878395Y-85090000D01*
X82136731Y-84348336D01*
X81902963Y-84407797D01*
X81792066Y-84646242D01*
X81729817Y-84901740D01*
X81718610Y-85164473D01*
X81497400Y-85164473D01*
X81497400Y-84993538D01*
X81459762Y-84804320D01*
X81385933Y-84626080D01*
X81278750Y-84465669D01*
X81142331Y-84329250D01*
X80981920Y-84222067D01*
X80853155Y-84168731D01*
X82316336Y-84168731D01*
X83058000Y-84910395D01*
X83799664Y-84168731D01*
X83748470Y-83967461D01*
X90915800Y-83967461D01*
X90915800Y-84082539D01*
X90938250Y-84195405D01*
X90982288Y-84301723D01*
X91046222Y-84397406D01*
X91127594Y-84478778D01*
X91223277Y-84542712D01*
X91329595Y-84586750D01*
X91442461Y-84609200D01*
X91557539Y-84609200D01*
X91670405Y-84586750D01*
X91776723Y-84542712D01*
X91872406Y-84478778D01*
X91953778Y-84397406D01*
X92017712Y-84301723D01*
X92061750Y-84195405D01*
X92084200Y-84082539D01*
X92084200Y-83967461D01*
X95415800Y-83967461D01*
X95415800Y-84082539D01*
X95438250Y-84195405D01*
X95482288Y-84301723D01*
X95546222Y-84397406D01*
X95627594Y-84478778D01*
X95723277Y-84542712D01*
X95829595Y-84586750D01*
X95942461Y-84609200D01*
X96057539Y-84609200D01*
X96170405Y-84586750D01*
X96276723Y-84542712D01*
X96372406Y-84478778D01*
X96453778Y-84397406D01*
X96517712Y-84301723D01*
X96535631Y-84258462D01*
X111960600Y-84258462D01*
X111960600Y-84441538D01*
X111996316Y-84621096D01*
X112066376Y-84790236D01*
X112168088Y-84942458D01*
X112297542Y-85071912D01*
X112449764Y-85173624D01*
X112618904Y-85243684D01*
X112798462Y-85279400D01*
X112981538Y-85279400D01*
X113161096Y-85243684D01*
X113330236Y-85173624D01*
X113482458Y-85071912D01*
X113611912Y-84942458D01*
X113713624Y-84790236D01*
X113783684Y-84621096D01*
X113819400Y-84441538D01*
X113819400Y-84258462D01*
X113783684Y-84078904D01*
X113713624Y-83909764D01*
X113611912Y-83757542D01*
X113482458Y-83628088D01*
X113330236Y-83526376D01*
X113161096Y-83456316D01*
X112981538Y-83420600D01*
X112798462Y-83420600D01*
X112618904Y-83456316D01*
X112449764Y-83526376D01*
X112297542Y-83628088D01*
X112168088Y-83757542D01*
X112066376Y-83909764D01*
X111996316Y-84078904D01*
X111960600Y-84258462D01*
X96535631Y-84258462D01*
X96561750Y-84195405D01*
X96584200Y-84082539D01*
X96584200Y-83967461D01*
X96561750Y-83854595D01*
X96517712Y-83748277D01*
X96453778Y-83652594D01*
X96372406Y-83571222D01*
X96276723Y-83507288D01*
X96170405Y-83463250D01*
X96057539Y-83440800D01*
X95942461Y-83440800D01*
X95829595Y-83463250D01*
X95723277Y-83507288D01*
X95627594Y-83571222D01*
X95546222Y-83652594D01*
X95482288Y-83748277D01*
X95438250Y-83854595D01*
X95415800Y-83967461D01*
X92084200Y-83967461D01*
X92061750Y-83854595D01*
X92017712Y-83748277D01*
X91953778Y-83652594D01*
X91872406Y-83571222D01*
X91776723Y-83507288D01*
X91670405Y-83463250D01*
X91557539Y-83440800D01*
X91442461Y-83440800D01*
X91329595Y-83463250D01*
X91223277Y-83507288D01*
X91127594Y-83571222D01*
X91046222Y-83652594D01*
X90982288Y-83748277D01*
X90938250Y-83854595D01*
X90915800Y-83967461D01*
X83748470Y-83967461D01*
X83740203Y-83934963D01*
X83501758Y-83824066D01*
X83246260Y-83761817D01*
X82983527Y-83750610D01*
X82723656Y-83790875D01*
X82476634Y-83881065D01*
X82375797Y-83934963D01*
X82316336Y-84168731D01*
X80853155Y-84168731D01*
X80803680Y-84148238D01*
X80614462Y-84110600D01*
X80421538Y-84110600D01*
X80232320Y-84148238D01*
X80054080Y-84222067D01*
X79893669Y-84329250D01*
X79757250Y-84465669D01*
X79650067Y-84626080D01*
X79576238Y-84804320D01*
X79538600Y-84993538D01*
X78957400Y-84993538D01*
X78919762Y-84804320D01*
X78845933Y-84626080D01*
X78738750Y-84465669D01*
X78602331Y-84329250D01*
X78441920Y-84222067D01*
X78263680Y-84148238D01*
X78074462Y-84110600D01*
X77881538Y-84110600D01*
X77692320Y-84148238D01*
X77514080Y-84222067D01*
X77353669Y-84329250D01*
X77217250Y-84465669D01*
X77110067Y-84626080D01*
X77036238Y-84804320D01*
X76998600Y-84993538D01*
X75791949Y-84993538D01*
X75791949Y-82742461D01*
X82090800Y-82742461D01*
X82090800Y-82857539D01*
X82113250Y-82970405D01*
X82157288Y-83076723D01*
X82221222Y-83172406D01*
X82302594Y-83253778D01*
X82398277Y-83317712D01*
X82504595Y-83361750D01*
X82617461Y-83384200D01*
X82732539Y-83384200D01*
X82845405Y-83361750D01*
X82951723Y-83317712D01*
X83047406Y-83253778D01*
X83128778Y-83172406D01*
X83192712Y-83076723D01*
X83236750Y-82970405D01*
X83257226Y-82867461D01*
X93690800Y-82867461D01*
X93690800Y-82982539D01*
X93713250Y-83095405D01*
X93757288Y-83201723D01*
X93821222Y-83297406D01*
X93902594Y-83378778D01*
X93998277Y-83442712D01*
X94104595Y-83486750D01*
X94217461Y-83509200D01*
X94332539Y-83509200D01*
X94445405Y-83486750D01*
X94551723Y-83442712D01*
X94647406Y-83378778D01*
X94728778Y-83297406D01*
X94792712Y-83201723D01*
X94836750Y-83095405D01*
X94858021Y-82988462D01*
X109420600Y-82988462D01*
X109420600Y-83171538D01*
X109456316Y-83351096D01*
X109526376Y-83520236D01*
X109628088Y-83672458D01*
X109757542Y-83801912D01*
X109909764Y-83903624D01*
X110078904Y-83973684D01*
X110258462Y-84009400D01*
X110441538Y-84009400D01*
X110621096Y-83973684D01*
X110790236Y-83903624D01*
X110942458Y-83801912D01*
X111071912Y-83672458D01*
X111173624Y-83520236D01*
X111243684Y-83351096D01*
X111279400Y-83171538D01*
X111279400Y-82988462D01*
X111243684Y-82808904D01*
X111173624Y-82639764D01*
X111071912Y-82487542D01*
X110942458Y-82358088D01*
X110790236Y-82256376D01*
X110621096Y-82186316D01*
X110441538Y-82150600D01*
X110258462Y-82150600D01*
X110078904Y-82186316D01*
X109909764Y-82256376D01*
X109757542Y-82358088D01*
X109628088Y-82487542D01*
X109526376Y-82639764D01*
X109456316Y-82808904D01*
X109420600Y-82988462D01*
X94858021Y-82988462D01*
X94859200Y-82982539D01*
X94859200Y-82867461D01*
X94836750Y-82754595D01*
X94792712Y-82648277D01*
X94728778Y-82552594D01*
X94647406Y-82471222D01*
X94551723Y-82407288D01*
X94445405Y-82363250D01*
X94332539Y-82340800D01*
X94217461Y-82340800D01*
X94104595Y-82363250D01*
X93998277Y-82407288D01*
X93902594Y-82471222D01*
X93821222Y-82552594D01*
X93757288Y-82648277D01*
X93713250Y-82754595D01*
X93690800Y-82867461D01*
X83257226Y-82867461D01*
X83259200Y-82857539D01*
X83259200Y-82742461D01*
X83236750Y-82629595D01*
X83192712Y-82523277D01*
X83128778Y-82427594D01*
X83047406Y-82346222D01*
X82951723Y-82282288D01*
X82845405Y-82238250D01*
X82732539Y-82215800D01*
X82617461Y-82215800D01*
X82504595Y-82238250D01*
X82398277Y-82282288D01*
X82302594Y-82346222D01*
X82221222Y-82427594D01*
X82157288Y-82523277D01*
X82113250Y-82629595D01*
X82090800Y-82742461D01*
X75791949Y-82742461D01*
X75791949Y-81718462D01*
X111960600Y-81718462D01*
X111960600Y-81901538D01*
X111996316Y-82081096D01*
X112066376Y-82250236D01*
X112168088Y-82402458D01*
X112297542Y-82531912D01*
X112449764Y-82633624D01*
X112618904Y-82703684D01*
X112798462Y-82739400D01*
X112981538Y-82739400D01*
X113161096Y-82703684D01*
X113330236Y-82633624D01*
X113482458Y-82531912D01*
X113611912Y-82402458D01*
X113713624Y-82250236D01*
X113783684Y-82081096D01*
X113819400Y-81901538D01*
X113819400Y-81718462D01*
X113783684Y-81538904D01*
X113713624Y-81369764D01*
X113611912Y-81217542D01*
X113482458Y-81088088D01*
X113330236Y-80986376D01*
X113161096Y-80916316D01*
X112981538Y-80880600D01*
X112798462Y-80880600D01*
X112618904Y-80916316D01*
X112449764Y-80986376D01*
X112297542Y-81088088D01*
X112168088Y-81217542D01*
X112066376Y-81369764D01*
X111996316Y-81538904D01*
X111960600Y-81718462D01*
X75791949Y-81718462D01*
X75791949Y-80448462D01*
X109420600Y-80448462D01*
X109420600Y-80631538D01*
X109456316Y-80811096D01*
X109526376Y-80980236D01*
X109628088Y-81132458D01*
X109757542Y-81261912D01*
X109909764Y-81363624D01*
X110078904Y-81433684D01*
X110258462Y-81469400D01*
X110441538Y-81469400D01*
X110621096Y-81433684D01*
X110790236Y-81363624D01*
X110942458Y-81261912D01*
X111071912Y-81132458D01*
X111173624Y-80980236D01*
X111243684Y-80811096D01*
X111279400Y-80631538D01*
X111279400Y-80448462D01*
X111243684Y-80268904D01*
X111173624Y-80099764D01*
X111071912Y-79947542D01*
X110942458Y-79818088D01*
X110790236Y-79716376D01*
X110621096Y-79646316D01*
X110441538Y-79610600D01*
X110258462Y-79610600D01*
X110078904Y-79646316D01*
X109909764Y-79716376D01*
X109757542Y-79818088D01*
X109628088Y-79947542D01*
X109526376Y-80099764D01*
X109456316Y-80268904D01*
X109420600Y-80448462D01*
X75791949Y-80448462D01*
X75791949Y-79178462D01*
X111960600Y-79178462D01*
X111960600Y-79361538D01*
X111996316Y-79541096D01*
X112066376Y-79710236D01*
X112168088Y-79862458D01*
X112297542Y-79991912D01*
X112449764Y-80093624D01*
X112618904Y-80163684D01*
X112798462Y-80199400D01*
X112981538Y-80199400D01*
X113161096Y-80163684D01*
X113330236Y-80093624D01*
X113482458Y-79991912D01*
X113611912Y-79862458D01*
X113713624Y-79710236D01*
X113783684Y-79541096D01*
X113819400Y-79361538D01*
X113819400Y-79178462D01*
X113783684Y-78998904D01*
X113713624Y-78829764D01*
X113611912Y-78677542D01*
X113482458Y-78548088D01*
X113330236Y-78446376D01*
X113161096Y-78376316D01*
X112981538Y-78340600D01*
X112798462Y-78340600D01*
X112618904Y-78376316D01*
X112449764Y-78446376D01*
X112297542Y-78548088D01*
X112168088Y-78677542D01*
X112066376Y-78829764D01*
X111996316Y-78998904D01*
X111960600Y-79178462D01*
X75791949Y-79178462D01*
X75791949Y-77908462D01*
X109420600Y-77908462D01*
X109420600Y-78091538D01*
X109456316Y-78271096D01*
X109526376Y-78440236D01*
X109628088Y-78592458D01*
X109757542Y-78721912D01*
X109909764Y-78823624D01*
X110078904Y-78893684D01*
X110258462Y-78929400D01*
X110441538Y-78929400D01*
X110621096Y-78893684D01*
X110790236Y-78823624D01*
X110942458Y-78721912D01*
X111071912Y-78592458D01*
X111173624Y-78440236D01*
X111243684Y-78271096D01*
X111279400Y-78091538D01*
X111279400Y-77908462D01*
X111243684Y-77728904D01*
X111196722Y-77615527D01*
X112184078Y-77615527D01*
X112237466Y-77844201D01*
X112467374Y-77950095D01*
X112713524Y-78009102D01*
X112966455Y-78018952D01*
X113216449Y-77979270D01*
X113453896Y-77891578D01*
X113542534Y-77844201D01*
X113595922Y-77615527D01*
X112890000Y-76909605D01*
X112184078Y-77615527D01*
X111196722Y-77615527D01*
X111173624Y-77559764D01*
X111071912Y-77407542D01*
X110942458Y-77278088D01*
X110790236Y-77176376D01*
X110621096Y-77106316D01*
X110441538Y-77070600D01*
X110258462Y-77070600D01*
X110078904Y-77106316D01*
X109909764Y-77176376D01*
X109757542Y-77278088D01*
X109628088Y-77407542D01*
X109526376Y-77559764D01*
X109456316Y-77728904D01*
X109420600Y-77908462D01*
X75791949Y-77908462D01*
X75791949Y-76459961D01*
X97320100Y-76459961D01*
X97320100Y-76575039D01*
X97342550Y-76687905D01*
X97386588Y-76794223D01*
X97450522Y-76889906D01*
X97531894Y-76971278D01*
X97627577Y-77035212D01*
X97733895Y-77079250D01*
X97846761Y-77101700D01*
X97961839Y-77101700D01*
X98074705Y-77079250D01*
X98181023Y-77035212D01*
X98276706Y-76971278D01*
X98358078Y-76889906D01*
X98413838Y-76806455D01*
X111601048Y-76806455D01*
X111640730Y-77056449D01*
X111728422Y-77293896D01*
X111775799Y-77382534D01*
X112004473Y-77435922D01*
X112710395Y-76730000D01*
X113069605Y-76730000D01*
X113775527Y-77435922D01*
X114004201Y-77382534D01*
X114110095Y-77152626D01*
X114169102Y-76906476D01*
X114178952Y-76653545D01*
X114139270Y-76403551D01*
X114051578Y-76166104D01*
X114004201Y-76077466D01*
X113775527Y-76024078D01*
X113069605Y-76730000D01*
X112710395Y-76730000D01*
X112004473Y-76024078D01*
X111775799Y-76077466D01*
X111669905Y-76307374D01*
X111610898Y-76553524D01*
X111601048Y-76806455D01*
X98413838Y-76806455D01*
X98422012Y-76794223D01*
X98466050Y-76687905D01*
X98488500Y-76575039D01*
X98488500Y-76459961D01*
X98466050Y-76347095D01*
X98422012Y-76240777D01*
X98358078Y-76145094D01*
X98276706Y-76063722D01*
X98181023Y-75999788D01*
X98074705Y-75955750D01*
X97961839Y-75933300D01*
X97846761Y-75933300D01*
X97733895Y-75955750D01*
X97627577Y-75999788D01*
X97531894Y-76063722D01*
X97450522Y-76145094D01*
X97386588Y-76240777D01*
X97342550Y-76347095D01*
X97320100Y-76459961D01*
X75791949Y-76459961D01*
X75791949Y-75368462D01*
X109420600Y-75368462D01*
X109420600Y-75551538D01*
X109456316Y-75731096D01*
X109526376Y-75900236D01*
X109628088Y-76052458D01*
X109757542Y-76181912D01*
X109909764Y-76283624D01*
X110078904Y-76353684D01*
X110258462Y-76389400D01*
X110441538Y-76389400D01*
X110621096Y-76353684D01*
X110790236Y-76283624D01*
X110942458Y-76181912D01*
X111071912Y-76052458D01*
X111173624Y-75900236D01*
X111196721Y-75844473D01*
X112184078Y-75844473D01*
X112890000Y-76550395D01*
X113595922Y-75844473D01*
X113542534Y-75615799D01*
X113312626Y-75509905D01*
X113066476Y-75450898D01*
X112813545Y-75441048D01*
X112563551Y-75480730D01*
X112326104Y-75568422D01*
X112237466Y-75615799D01*
X112184078Y-75844473D01*
X111196721Y-75844473D01*
X111243684Y-75731096D01*
X111279400Y-75551538D01*
X111279400Y-75368462D01*
X111243684Y-75188904D01*
X111173624Y-75019764D01*
X111071912Y-74867542D01*
X110942458Y-74738088D01*
X110790236Y-74636376D01*
X110621096Y-74566316D01*
X110441538Y-74530600D01*
X110258462Y-74530600D01*
X110078904Y-74566316D01*
X109909764Y-74636376D01*
X109757542Y-74738088D01*
X109628088Y-74867542D01*
X109526376Y-75019764D01*
X109456316Y-75188904D01*
X109420600Y-75368462D01*
X75791949Y-75368462D01*
X75791949Y-73805527D01*
X109644078Y-73805527D01*
X109697466Y-74034201D01*
X109927374Y-74140095D01*
X110173524Y-74199102D01*
X110426455Y-74208952D01*
X110676449Y-74169270D01*
X110868178Y-74098462D01*
X111960600Y-74098462D01*
X111960600Y-74281538D01*
X111996316Y-74461096D01*
X112066376Y-74630236D01*
X112168088Y-74782458D01*
X112297542Y-74911912D01*
X112449764Y-75013624D01*
X112618904Y-75083684D01*
X112798462Y-75119400D01*
X112981538Y-75119400D01*
X113161096Y-75083684D01*
X113330236Y-75013624D01*
X113482458Y-74911912D01*
X113611912Y-74782458D01*
X113713624Y-74630236D01*
X113783684Y-74461096D01*
X113819400Y-74281538D01*
X113819400Y-74098462D01*
X113783684Y-73918904D01*
X113713624Y-73749764D01*
X113611912Y-73597542D01*
X113482458Y-73468088D01*
X113330236Y-73366376D01*
X113161096Y-73296316D01*
X112981538Y-73260600D01*
X112798462Y-73260600D01*
X112618904Y-73296316D01*
X112449764Y-73366376D01*
X112297542Y-73468088D01*
X112168088Y-73597542D01*
X112066376Y-73749764D01*
X111996316Y-73918904D01*
X111960600Y-74098462D01*
X110868178Y-74098462D01*
X110913896Y-74081578D01*
X111002534Y-74034201D01*
X111055922Y-73805527D01*
X110350000Y-73099605D01*
X109644078Y-73805527D01*
X75791949Y-73805527D01*
X75791949Y-72996455D01*
X109061048Y-72996455D01*
X109100730Y-73246449D01*
X109188422Y-73483896D01*
X109235799Y-73572534D01*
X109464473Y-73625922D01*
X110170395Y-72920000D01*
X110529605Y-72920000D01*
X111235527Y-73625922D01*
X111464201Y-73572534D01*
X111570095Y-73342626D01*
X111629102Y-73096476D01*
X111638952Y-72843545D01*
X111599270Y-72593551D01*
X111511578Y-72356104D01*
X111464201Y-72267466D01*
X111235527Y-72214078D01*
X110529605Y-72920000D01*
X110170395Y-72920000D01*
X109464473Y-72214078D01*
X109235799Y-72267466D01*
X109129905Y-72497374D01*
X109070898Y-72743524D01*
X109061048Y-72996455D01*
X75791949Y-72996455D01*
X75791949Y-71842461D01*
X78140800Y-71842461D01*
X78140800Y-71957539D01*
X78163250Y-72070405D01*
X78207288Y-72176723D01*
X78271222Y-72272406D01*
X78352594Y-72353778D01*
X78448277Y-72417712D01*
X78554595Y-72461750D01*
X78667461Y-72484200D01*
X78782539Y-72484200D01*
X78895405Y-72461750D01*
X79001723Y-72417712D01*
X79097406Y-72353778D01*
X79178778Y-72272406D01*
X79242712Y-72176723D01*
X79286750Y-72070405D01*
X79309200Y-71957539D01*
X79309200Y-71842461D01*
X79299255Y-71792461D01*
X84915800Y-71792461D01*
X84915800Y-71907539D01*
X84938250Y-72020405D01*
X84982288Y-72126723D01*
X85046222Y-72222406D01*
X85127594Y-72303778D01*
X85223277Y-72367712D01*
X85329595Y-72411750D01*
X85442461Y-72434200D01*
X85557539Y-72434200D01*
X85670405Y-72411750D01*
X85776723Y-72367712D01*
X85872406Y-72303778D01*
X85953778Y-72222406D01*
X86017712Y-72126723D01*
X86031903Y-72092461D01*
X107465800Y-72092461D01*
X107465800Y-72207539D01*
X107488250Y-72320405D01*
X107532288Y-72426723D01*
X107596222Y-72522406D01*
X107677594Y-72603778D01*
X107773277Y-72667712D01*
X107879595Y-72711750D01*
X107992461Y-72734200D01*
X108107539Y-72734200D01*
X108220405Y-72711750D01*
X108326723Y-72667712D01*
X108422406Y-72603778D01*
X108503778Y-72522406D01*
X108567712Y-72426723D01*
X108611750Y-72320405D01*
X108634200Y-72207539D01*
X108634200Y-72092461D01*
X108622666Y-72034473D01*
X109644078Y-72034473D01*
X110350000Y-72740395D01*
X111055922Y-72034473D01*
X111002534Y-71805799D01*
X110772626Y-71699905D01*
X110526476Y-71640898D01*
X110273545Y-71631048D01*
X110023551Y-71670730D01*
X109786104Y-71758422D01*
X109697466Y-71805799D01*
X109644078Y-72034473D01*
X108622666Y-72034473D01*
X108611750Y-71979595D01*
X108567712Y-71873277D01*
X108503778Y-71777594D01*
X108422406Y-71696222D01*
X108326723Y-71632288D01*
X108220405Y-71588250D01*
X108107539Y-71565800D01*
X107992461Y-71565800D01*
X107879595Y-71588250D01*
X107773277Y-71632288D01*
X107677594Y-71696222D01*
X107596222Y-71777594D01*
X107532288Y-71873277D01*
X107488250Y-71979595D01*
X107465800Y-72092461D01*
X86031903Y-72092461D01*
X86061750Y-72020405D01*
X86084200Y-71907539D01*
X86084200Y-71792461D01*
X86061750Y-71679595D01*
X86017712Y-71573277D01*
X86007813Y-71558462D01*
X111960600Y-71558462D01*
X111960600Y-71741538D01*
X111996316Y-71921096D01*
X112066376Y-72090236D01*
X112168088Y-72242458D01*
X112297542Y-72371912D01*
X112449764Y-72473624D01*
X112618904Y-72543684D01*
X112798462Y-72579400D01*
X112981538Y-72579400D01*
X113161096Y-72543684D01*
X113330236Y-72473624D01*
X113482458Y-72371912D01*
X113611912Y-72242458D01*
X113713624Y-72090236D01*
X113783684Y-71921096D01*
X113819400Y-71741538D01*
X113819400Y-71558462D01*
X113783684Y-71378904D01*
X113713624Y-71209764D01*
X113611912Y-71057542D01*
X113482458Y-70928088D01*
X113330236Y-70826376D01*
X113161096Y-70756316D01*
X112981538Y-70720600D01*
X112798462Y-70720600D01*
X112618904Y-70756316D01*
X112449764Y-70826376D01*
X112297542Y-70928088D01*
X112168088Y-71057542D01*
X112066376Y-71209764D01*
X111996316Y-71378904D01*
X111960600Y-71558462D01*
X86007813Y-71558462D01*
X85953778Y-71477594D01*
X85872406Y-71396222D01*
X85776723Y-71332288D01*
X85670405Y-71288250D01*
X85557539Y-71265800D01*
X85442461Y-71265800D01*
X85329595Y-71288250D01*
X85223277Y-71332288D01*
X85127594Y-71396222D01*
X85046222Y-71477594D01*
X84982288Y-71573277D01*
X84938250Y-71679595D01*
X84915800Y-71792461D01*
X79299255Y-71792461D01*
X79286750Y-71729595D01*
X79242712Y-71623277D01*
X79178778Y-71527594D01*
X79097406Y-71446222D01*
X79001723Y-71382288D01*
X78895405Y-71338250D01*
X78782539Y-71315800D01*
X78667461Y-71315800D01*
X78554595Y-71338250D01*
X78448277Y-71382288D01*
X78352594Y-71446222D01*
X78271222Y-71527594D01*
X78207288Y-71623277D01*
X78163250Y-71729595D01*
X78140800Y-71842461D01*
X75791949Y-71842461D01*
X75791949Y-70817461D01*
X85740800Y-70817461D01*
X85740800Y-70932539D01*
X85763250Y-71045405D01*
X85807288Y-71151723D01*
X85871222Y-71247406D01*
X85952594Y-71328778D01*
X86048277Y-71392712D01*
X86154595Y-71436750D01*
X86267461Y-71459200D01*
X86382539Y-71459200D01*
X86495405Y-71436750D01*
X86601723Y-71392712D01*
X86697406Y-71328778D01*
X86778778Y-71247406D01*
X86842712Y-71151723D01*
X86886750Y-71045405D01*
X86909200Y-70932539D01*
X86909200Y-70817461D01*
X86886750Y-70704595D01*
X86842712Y-70598277D01*
X86778778Y-70502594D01*
X86697406Y-70421222D01*
X86601723Y-70357288D01*
X86495405Y-70313250D01*
X86382539Y-70290800D01*
X86267461Y-70290800D01*
X86154595Y-70313250D01*
X86048277Y-70357288D01*
X85952594Y-70421222D01*
X85871222Y-70502594D01*
X85807288Y-70598277D01*
X85763250Y-70704595D01*
X85740800Y-70817461D01*
X75791949Y-70817461D01*
X75791949Y-70669601D01*
X80703123Y-69267461D01*
X87040800Y-69267461D01*
X87040800Y-69382539D01*
X87063250Y-69495405D01*
X87107288Y-69601723D01*
X87171222Y-69697406D01*
X87252594Y-69778778D01*
X87348277Y-69842712D01*
X87454595Y-69886750D01*
X87567461Y-69909200D01*
X87682539Y-69909200D01*
X87795405Y-69886750D01*
X87901723Y-69842712D01*
X87997406Y-69778778D01*
X88078778Y-69697406D01*
X88142712Y-69601723D01*
X88186750Y-69495405D01*
X88197281Y-69442461D01*
X97515800Y-69442461D01*
X97515800Y-69557539D01*
X97538250Y-69670405D01*
X97582288Y-69776723D01*
X97646222Y-69872406D01*
X97727594Y-69953778D01*
X97823277Y-70017712D01*
X97929595Y-70061750D01*
X98042461Y-70084200D01*
X98157539Y-70084200D01*
X98270405Y-70061750D01*
X98303804Y-70047916D01*
X98313250Y-70095405D01*
X98357288Y-70201723D01*
X98421222Y-70297406D01*
X98502594Y-70378778D01*
X98598277Y-70442712D01*
X98704595Y-70486750D01*
X98798278Y-70505384D01*
X98788250Y-70529595D01*
X98765800Y-70642461D01*
X98765800Y-70757539D01*
X98788250Y-70870405D01*
X98832288Y-70976723D01*
X98896222Y-71072406D01*
X98977594Y-71153778D01*
X99073277Y-71217712D01*
X99179595Y-71261750D01*
X99292461Y-71284200D01*
X99407539Y-71284200D01*
X99520405Y-71261750D01*
X99626723Y-71217712D01*
X99722406Y-71153778D01*
X99803778Y-71072406D01*
X99867712Y-70976723D01*
X99911750Y-70870405D01*
X99934200Y-70757539D01*
X99934200Y-70642461D01*
X99911750Y-70529595D01*
X99867712Y-70423277D01*
X99803778Y-70327594D01*
X99764646Y-70288462D01*
X109420600Y-70288462D01*
X109420600Y-70471538D01*
X109456316Y-70651096D01*
X109526376Y-70820236D01*
X109628088Y-70972458D01*
X109757542Y-71101912D01*
X109909764Y-71203624D01*
X110078904Y-71273684D01*
X110258462Y-71309400D01*
X110441538Y-71309400D01*
X110621096Y-71273684D01*
X110790236Y-71203624D01*
X110942458Y-71101912D01*
X111071912Y-70972458D01*
X111173624Y-70820236D01*
X111243684Y-70651096D01*
X111279400Y-70471538D01*
X111279400Y-70288462D01*
X111243684Y-70108904D01*
X111173624Y-69939764D01*
X111071912Y-69787542D01*
X110942458Y-69658088D01*
X110790236Y-69556376D01*
X110621096Y-69486316D01*
X110441538Y-69450600D01*
X110258462Y-69450600D01*
X110078904Y-69486316D01*
X109909764Y-69556376D01*
X109757542Y-69658088D01*
X109628088Y-69787542D01*
X109526376Y-69939764D01*
X109456316Y-70108904D01*
X109420600Y-70288462D01*
X99764646Y-70288462D01*
X99722406Y-70246222D01*
X99626723Y-70182288D01*
X99520405Y-70138250D01*
X99426722Y-70119616D01*
X99436750Y-70095405D01*
X99459200Y-69982539D01*
X99459200Y-69867461D01*
X99436750Y-69754595D01*
X99392712Y-69648277D01*
X99328778Y-69552594D01*
X99247406Y-69471222D01*
X99151723Y-69407288D01*
X99045405Y-69363250D01*
X98932539Y-69340800D01*
X98817461Y-69340800D01*
X98704595Y-69363250D01*
X98671196Y-69377084D01*
X98661750Y-69329595D01*
X98617712Y-69223277D01*
X98553778Y-69127594D01*
X98472406Y-69046222D01*
X98430861Y-69018462D01*
X111960600Y-69018462D01*
X111960600Y-69201538D01*
X111996316Y-69381096D01*
X112066376Y-69550236D01*
X112168088Y-69702458D01*
X112297542Y-69831912D01*
X112449764Y-69933624D01*
X112618904Y-70003684D01*
X112798462Y-70039400D01*
X112981538Y-70039400D01*
X113161096Y-70003684D01*
X113330236Y-69933624D01*
X113482458Y-69831912D01*
X113611912Y-69702458D01*
X113713624Y-69550236D01*
X113783684Y-69381096D01*
X113819400Y-69201538D01*
X113819400Y-69018462D01*
X113783684Y-68838904D01*
X113713624Y-68669764D01*
X113611912Y-68517542D01*
X113482458Y-68388088D01*
X113330236Y-68286376D01*
X113161096Y-68216316D01*
X112981538Y-68180600D01*
X112798462Y-68180600D01*
X112618904Y-68216316D01*
X112449764Y-68286376D01*
X112297542Y-68388088D01*
X112168088Y-68517542D01*
X112066376Y-68669764D01*
X111996316Y-68838904D01*
X111960600Y-69018462D01*
X98430861Y-69018462D01*
X98376723Y-68982288D01*
X98270405Y-68938250D01*
X98157539Y-68915800D01*
X98042461Y-68915800D01*
X97929595Y-68938250D01*
X97823277Y-68982288D01*
X97727594Y-69046222D01*
X97646222Y-69127594D01*
X97582288Y-69223277D01*
X97538250Y-69329595D01*
X97515800Y-69442461D01*
X88197281Y-69442461D01*
X88209200Y-69382539D01*
X88209200Y-69267461D01*
X88186750Y-69154595D01*
X88142712Y-69048277D01*
X88078778Y-68952594D01*
X87997406Y-68871222D01*
X87901723Y-68807288D01*
X87795405Y-68763250D01*
X87682539Y-68740800D01*
X87567461Y-68740800D01*
X87454595Y-68763250D01*
X87348277Y-68807288D01*
X87252594Y-68871222D01*
X87171222Y-68952594D01*
X87107288Y-69048277D01*
X87063250Y-69154595D01*
X87040800Y-69267461D01*
X80703123Y-69267461D01*
X87005756Y-67468060D01*
X86971222Y-67502594D01*
X86907288Y-67598277D01*
X86863250Y-67704595D01*
X86840800Y-67817461D01*
X86840800Y-67932539D01*
X86863250Y-68045405D01*
X86907288Y-68151723D01*
X86971222Y-68247406D01*
X87052594Y-68328778D01*
X87148277Y-68392712D01*
X87254595Y-68436750D01*
X87367461Y-68459200D01*
X87482539Y-68459200D01*
X87595405Y-68436750D01*
X87641973Y-68417461D01*
X88090800Y-68417461D01*
X88090800Y-68532539D01*
X88113250Y-68645405D01*
X88157288Y-68751723D01*
X88221222Y-68847406D01*
X88302594Y-68928778D01*
X88398277Y-68992712D01*
X88504595Y-69036750D01*
X88617461Y-69059200D01*
X88732539Y-69059200D01*
X88845405Y-69036750D01*
X88951723Y-68992712D01*
X89047406Y-68928778D01*
X89128778Y-68847406D01*
X89192712Y-68751723D01*
X89236750Y-68645405D01*
X89259200Y-68532539D01*
X89259200Y-68417461D01*
X89236750Y-68304595D01*
X89192712Y-68198277D01*
X89128778Y-68102594D01*
X89047406Y-68021222D01*
X88951723Y-67957288D01*
X88845405Y-67913250D01*
X88732539Y-67890800D01*
X88617461Y-67890800D01*
X88504595Y-67913250D01*
X88398277Y-67957288D01*
X88302594Y-68021222D01*
X88221222Y-68102594D01*
X88157288Y-68198277D01*
X88113250Y-68304595D01*
X88090800Y-68417461D01*
X87641973Y-68417461D01*
X87701723Y-68392712D01*
X87797406Y-68328778D01*
X87878778Y-68247406D01*
X87942712Y-68151723D01*
X87986750Y-68045405D01*
X88009200Y-67932539D01*
X88009200Y-67817461D01*
X87986750Y-67704595D01*
X87950659Y-67617461D01*
X89090800Y-67617461D01*
X89090800Y-67732539D01*
X89113250Y-67845405D01*
X89157288Y-67951723D01*
X89221222Y-68047406D01*
X89302594Y-68128778D01*
X89398277Y-68192712D01*
X89504595Y-68236750D01*
X89617461Y-68259200D01*
X89732539Y-68259200D01*
X89845405Y-68236750D01*
X89951723Y-68192712D01*
X90047406Y-68128778D01*
X90128778Y-68047406D01*
X90192712Y-67951723D01*
X90236750Y-67845405D01*
X90256032Y-67748462D01*
X109420600Y-67748462D01*
X109420600Y-67931538D01*
X109456316Y-68111096D01*
X109526376Y-68280236D01*
X109628088Y-68432458D01*
X109757542Y-68561912D01*
X109909764Y-68663624D01*
X110078904Y-68733684D01*
X110258462Y-68769400D01*
X110441538Y-68769400D01*
X110621096Y-68733684D01*
X110790236Y-68663624D01*
X110942458Y-68561912D01*
X111071912Y-68432458D01*
X111173624Y-68280236D01*
X111243684Y-68111096D01*
X111279400Y-67931538D01*
X111279400Y-67748462D01*
X111243684Y-67568904D01*
X111196722Y-67455527D01*
X112184078Y-67455527D01*
X112237466Y-67684201D01*
X112467374Y-67790095D01*
X112713524Y-67849102D01*
X112966455Y-67858952D01*
X113216449Y-67819270D01*
X113453896Y-67731578D01*
X113542534Y-67684201D01*
X113595922Y-67455527D01*
X112890000Y-66749605D01*
X112184078Y-67455527D01*
X111196722Y-67455527D01*
X111173624Y-67399764D01*
X111071912Y-67247542D01*
X110942458Y-67118088D01*
X110790236Y-67016376D01*
X110621096Y-66946316D01*
X110441538Y-66910600D01*
X110258462Y-66910600D01*
X110078904Y-66946316D01*
X109909764Y-67016376D01*
X109757542Y-67118088D01*
X109628088Y-67247542D01*
X109526376Y-67399764D01*
X109456316Y-67568904D01*
X109420600Y-67748462D01*
X90256032Y-67748462D01*
X90259200Y-67732539D01*
X90259200Y-67617461D01*
X90236750Y-67504595D01*
X90192712Y-67398277D01*
X90128778Y-67302594D01*
X90047406Y-67221222D01*
X89951723Y-67157288D01*
X89845405Y-67113250D01*
X89732539Y-67090800D01*
X89617461Y-67090800D01*
X89504595Y-67113250D01*
X89398277Y-67157288D01*
X89302594Y-67221222D01*
X89221222Y-67302594D01*
X89157288Y-67398277D01*
X89113250Y-67504595D01*
X89090800Y-67617461D01*
X87950659Y-67617461D01*
X87942712Y-67598277D01*
X87878778Y-67502594D01*
X87797406Y-67421222D01*
X87701723Y-67357288D01*
X87595405Y-67313250D01*
X87567464Y-67307692D01*
X89883530Y-66646455D01*
X111601048Y-66646455D01*
X111640730Y-66896449D01*
X111728422Y-67133896D01*
X111775799Y-67222534D01*
X112004473Y-67275922D01*
X112710395Y-66570000D01*
X113069605Y-66570000D01*
X113775527Y-67275922D01*
X114004201Y-67222534D01*
X114110095Y-66992626D01*
X114169102Y-66746476D01*
X114178952Y-66493545D01*
X114139270Y-66243551D01*
X114051578Y-66006104D01*
X114004201Y-65917466D01*
X113775527Y-65864078D01*
X113069605Y-66570000D01*
X112710395Y-66570000D01*
X112004473Y-65864078D01*
X111775799Y-65917466D01*
X111669905Y-66147374D01*
X111610898Y-66393524D01*
X111601048Y-66646455D01*
X89883530Y-66646455D01*
X93252994Y-65684473D01*
X112184078Y-65684473D01*
X112890000Y-66390395D01*
X113595922Y-65684473D01*
X113542534Y-65455799D01*
X113312626Y-65349905D01*
X113066476Y-65290898D01*
X112813545Y-65281048D01*
X112563551Y-65320730D01*
X112326104Y-65408422D01*
X112237466Y-65455799D01*
X112184078Y-65684473D01*
X93252994Y-65684473D01*
X94878254Y-65220461D01*
X116743001Y-65220461D01*
X116743001Y-65335539D01*
X116765451Y-65448405D01*
X116809489Y-65554723D01*
X116873423Y-65650406D01*
X116954795Y-65731778D01*
X117050478Y-65795712D01*
X117156796Y-65839750D01*
X117269662Y-65862200D01*
X117384740Y-65862200D01*
X117497606Y-65839750D01*
X117603924Y-65795712D01*
X117699607Y-65731778D01*
X117780979Y-65650406D01*
X117844913Y-65554723D01*
X117888951Y-65448405D01*
X117911401Y-65335539D01*
X117911401Y-65220461D01*
X117888951Y-65107595D01*
X117844913Y-65001277D01*
X117780979Y-64905594D01*
X117699607Y-64824222D01*
X117603924Y-64760288D01*
X117497606Y-64716250D01*
X117384740Y-64693800D01*
X117269662Y-64693800D01*
X117156796Y-64716250D01*
X117050478Y-64760288D01*
X116954795Y-64824222D01*
X116873423Y-64905594D01*
X116809489Y-65001277D01*
X116765451Y-65107595D01*
X116743001Y-65220461D01*
X94878254Y-65220461D01*
X98041127Y-64317461D01*
X114965800Y-64317461D01*
X114965800Y-64432539D01*
X114988250Y-64545405D01*
X115032288Y-64651723D01*
X115096222Y-64747406D01*
X115177594Y-64828778D01*
X115273277Y-64892712D01*
X115379595Y-64936750D01*
X115492461Y-64959200D01*
X115607539Y-64959200D01*
X115720405Y-64936750D01*
X115826723Y-64892712D01*
X115922406Y-64828778D01*
X116003778Y-64747406D01*
X116067712Y-64651723D01*
X116111750Y-64545405D01*
X116134200Y-64432539D01*
X116134200Y-64317461D01*
X116111750Y-64204595D01*
X116067712Y-64098277D01*
X116003778Y-64002594D01*
X115922406Y-63921222D01*
X115826723Y-63857288D01*
X115720405Y-63813250D01*
X115607539Y-63790800D01*
X115492461Y-63790800D01*
X115379595Y-63813250D01*
X115273277Y-63857288D01*
X115177594Y-63921222D01*
X115096222Y-64002594D01*
X115032288Y-64098277D01*
X114988250Y-64204595D01*
X114965800Y-64317461D01*
X98041127Y-64317461D01*
X108986838Y-61192461D01*
X117665800Y-61192461D01*
X117665800Y-61307539D01*
X117688250Y-61420405D01*
X117732288Y-61526723D01*
X117796222Y-61622406D01*
X117877594Y-61703778D01*
X117973277Y-61767712D01*
X118079595Y-61811750D01*
X118192461Y-61834200D01*
X118307539Y-61834200D01*
X118420405Y-61811750D01*
X118526723Y-61767712D01*
X118622406Y-61703778D01*
X118703778Y-61622406D01*
X118767712Y-61526723D01*
X118811750Y-61420405D01*
X118834200Y-61307539D01*
X118834200Y-61192461D01*
X118811750Y-61079595D01*
X118767712Y-60973277D01*
X118703778Y-60877594D01*
X118622406Y-60796222D01*
X118526723Y-60732288D01*
X118420405Y-60688250D01*
X118307539Y-60665800D01*
X118192461Y-60665800D01*
X118079595Y-60688250D01*
X117973277Y-60732288D01*
X117877594Y-60796222D01*
X117796222Y-60877594D01*
X117732288Y-60973277D01*
X117688250Y-61079595D01*
X117665800Y-61192461D01*
X108986838Y-61192461D01*
X125917013Y-56358897D01*
X133374876Y-95835851D01*
X133374876Y-95835851D01*
G37*
X133374876Y-95835851D02*
X75791949Y-95835851D01*
X75791949Y-92864790D01*
X76746400Y-92864790D01*
X76746400Y-93116810D01*
X76795567Y-93363987D01*
X76892011Y-93596823D01*
X77032025Y-93806370D01*
X77210230Y-93984575D01*
X77419777Y-94124589D01*
X77652613Y-94221033D01*
X77899790Y-94270200D01*
X78151810Y-94270200D01*
X78398987Y-94221033D01*
X78631823Y-94124589D01*
X78841370Y-93984575D01*
X78886683Y-93939262D01*
X79766400Y-93939262D01*
X79766400Y-94122338D01*
X79802116Y-94301896D01*
X79872176Y-94471036D01*
X79973888Y-94623258D01*
X80103342Y-94752712D01*
X80255564Y-94854424D01*
X80424704Y-94924484D01*
X80604262Y-94960200D01*
X80787338Y-94960200D01*
X80966896Y-94924484D01*
X80986588Y-94916327D01*
X82529878Y-94916327D01*
X82583266Y-95145001D01*
X82813174Y-95250895D01*
X83059324Y-95309902D01*
X83312255Y-95319752D01*
X83562249Y-95280070D01*
X83799696Y-95192378D01*
X83888334Y-95145001D01*
X83941722Y-94916327D01*
X83235800Y-94210405D01*
X82529878Y-94916327D01*
X80986588Y-94916327D01*
X81136036Y-94854424D01*
X81288258Y-94752712D01*
X81417712Y-94623258D01*
X81519424Y-94471036D01*
X81589484Y-94301896D01*
X81625200Y-94122338D01*
X81625200Y-94107255D01*
X81946848Y-94107255D01*
X81986530Y-94357249D01*
X82074222Y-94594696D01*
X82121599Y-94683334D01*
X82350273Y-94736722D01*
X83056195Y-94030800D01*
X83415405Y-94030800D01*
X84121327Y-94736722D01*
X84350001Y-94683334D01*
X84403371Y-94567461D01*
X103790800Y-94567461D01*
X103790800Y-94682539D01*
X103813250Y-94795405D01*
X103857288Y-94901723D01*
X103921222Y-94997406D01*
X104002594Y-95078778D01*
X104098277Y-95142712D01*
X104204595Y-95186750D01*
X104317461Y-95209200D01*
X104432539Y-95209200D01*
X104545405Y-95186750D01*
X104651723Y-95142712D01*
X104747406Y-95078778D01*
X104828778Y-94997406D01*
X104892712Y-94901723D01*
X104936750Y-94795405D01*
X104959200Y-94682539D01*
X104959200Y-94567461D01*
X104936750Y-94454595D01*
X104892712Y-94348277D01*
X104828778Y-94252594D01*
X104747406Y-94171222D01*
X104651723Y-94107288D01*
X104545405Y-94063250D01*
X104432539Y-94040800D01*
X104317461Y-94040800D01*
X104204595Y-94063250D01*
X104098277Y-94107288D01*
X104002594Y-94171222D01*
X103921222Y-94252594D01*
X103857288Y-94348277D01*
X103813250Y-94454595D01*
X103790800Y-94567461D01*
X84403371Y-94567461D01*
X84455895Y-94453426D01*
X84514902Y-94207276D01*
X84524752Y-93954345D01*
X84485070Y-93704351D01*
X84471816Y-93668461D01*
X93395800Y-93668461D01*
X93395800Y-93783539D01*
X93418250Y-93896405D01*
X93462288Y-94002723D01*
X93526222Y-94098406D01*
X93607594Y-94179778D01*
X93703277Y-94243712D01*
X93809595Y-94287750D01*
X93922461Y-94310200D01*
X94037539Y-94310200D01*
X94150405Y-94287750D01*
X94256723Y-94243712D01*
X94352406Y-94179778D01*
X94433778Y-94098406D01*
X94497712Y-94002723D01*
X94541750Y-93896405D01*
X94564200Y-93783539D01*
X94564200Y-93668461D01*
X94541750Y-93555595D01*
X94497712Y-93449277D01*
X94433778Y-93353594D01*
X94352406Y-93272222D01*
X94256723Y-93208288D01*
X94150405Y-93164250D01*
X94037539Y-93141800D01*
X93922461Y-93141800D01*
X93809595Y-93164250D01*
X93703277Y-93208288D01*
X93607594Y-93272222D01*
X93526222Y-93353594D01*
X93462288Y-93449277D01*
X93418250Y-93555595D01*
X93395800Y-93668461D01*
X84471816Y-93668461D01*
X84397378Y-93466904D01*
X84350001Y-93378266D01*
X84121327Y-93324878D01*
X83415405Y-94030800D01*
X83056195Y-94030800D01*
X82350273Y-93324878D01*
X82121599Y-93378266D01*
X82015705Y-93608174D01*
X81956698Y-93854324D01*
X81946848Y-94107255D01*
X81625200Y-94107255D01*
X81625200Y-93939262D01*
X81589484Y-93759704D01*
X81519424Y-93590564D01*
X81417712Y-93438342D01*
X81288258Y-93308888D01*
X81136036Y-93207176D01*
X80986589Y-93145273D01*
X82529878Y-93145273D01*
X83235800Y-93851195D01*
X83941722Y-93145273D01*
X83888334Y-92916599D01*
X83658426Y-92810705D01*
X83412276Y-92751698D01*
X83159345Y-92741848D01*
X82909351Y-92781530D01*
X82671904Y-92869222D01*
X82583266Y-92916599D01*
X82529878Y-93145273D01*
X80986589Y-93145273D01*
X80966896Y-93137116D01*
X80787338Y-93101400D01*
X80604262Y-93101400D01*
X80424704Y-93137116D01*
X80255564Y-93207176D01*
X80103342Y-93308888D01*
X79973888Y-93438342D01*
X79872176Y-93590564D01*
X79802116Y-93759704D01*
X79766400Y-93939262D01*
X78886683Y-93939262D01*
X79019575Y-93806370D01*
X79159589Y-93596823D01*
X79256033Y-93363987D01*
X79305200Y-93116810D01*
X79305200Y-92864790D01*
X79262965Y-92652461D01*
X100507800Y-92652461D01*
X100507800Y-92767539D01*
X100530250Y-92880405D01*
X100574288Y-92986723D01*
X100638222Y-93082406D01*
X100719594Y-93163778D01*
X100815277Y-93227712D01*
X100921595Y-93271750D01*
X101034461Y-93294200D01*
X101149539Y-93294200D01*
X101262405Y-93271750D01*
X101368723Y-93227712D01*
X101464406Y-93163778D01*
X101545778Y-93082406D01*
X101609712Y-92986723D01*
X101653750Y-92880405D01*
X101676200Y-92767539D01*
X101676200Y-92652461D01*
X101653750Y-92539595D01*
X101609712Y-92433277D01*
X101545778Y-92337594D01*
X101464406Y-92256222D01*
X101368723Y-92192288D01*
X101262405Y-92148250D01*
X101149539Y-92125800D01*
X101034461Y-92125800D01*
X100921595Y-92148250D01*
X100815277Y-92192288D01*
X100719594Y-92256222D01*
X100638222Y-92337594D01*
X100574288Y-92433277D01*
X100530250Y-92539595D01*
X100507800Y-92652461D01*
X79262965Y-92652461D01*
X79256033Y-92617613D01*
X79159895Y-92385517D01*
X79334262Y-92420200D01*
X79517338Y-92420200D01*
X79696896Y-92384484D01*
X79866036Y-92314424D01*
X80018258Y-92212712D01*
X80147712Y-92083258D01*
X80249424Y-91931036D01*
X80319484Y-91761896D01*
X80355200Y-91582338D01*
X80355200Y-91399262D01*
X81036400Y-91399262D01*
X81036400Y-91582338D01*
X81072116Y-91761896D01*
X81142176Y-91931036D01*
X81243888Y-92083258D01*
X81373342Y-92212712D01*
X81525564Y-92314424D01*
X81694704Y-92384484D01*
X81874262Y-92420200D01*
X82057338Y-92420200D01*
X82236896Y-92384484D01*
X82406036Y-92314424D01*
X82558258Y-92212712D01*
X82687712Y-92083258D01*
X82789424Y-91931036D01*
X82859484Y-91761896D01*
X82894565Y-91585527D01*
X109644078Y-91585527D01*
X109697466Y-91814201D01*
X109927374Y-91920095D01*
X110173524Y-91979102D01*
X110426455Y-91988952D01*
X110676449Y-91949270D01*
X110891300Y-91869923D01*
X110870600Y-91973990D01*
X110870600Y-92226010D01*
X110919767Y-92473187D01*
X111016211Y-92706023D01*
X111156225Y-92915570D01*
X111334430Y-93093775D01*
X111543977Y-93233789D01*
X111776813Y-93330233D01*
X112023990Y-93379400D01*
X112276010Y-93379400D01*
X112523187Y-93330233D01*
X112756023Y-93233789D01*
X112965570Y-93093775D01*
X113143775Y-92915570D01*
X113283789Y-92706023D01*
X113380233Y-92473187D01*
X113429400Y-92226010D01*
X113429400Y-91973990D01*
X113380233Y-91726813D01*
X113283789Y-91493977D01*
X113143775Y-91284430D01*
X112965570Y-91106225D01*
X112756023Y-90966211D01*
X112523187Y-90869767D01*
X112276010Y-90820600D01*
X112023990Y-90820600D01*
X111776813Y-90869767D01*
X111614604Y-90936956D01*
X111629102Y-90876476D01*
X111638952Y-90623545D01*
X111599270Y-90373551D01*
X111511578Y-90136104D01*
X111464201Y-90047466D01*
X111235527Y-89994078D01*
X110529605Y-90700000D01*
X110543748Y-90714143D01*
X110364143Y-90893748D01*
X110350000Y-90879605D01*
X109644078Y-91585527D01*
X82894565Y-91585527D01*
X82895200Y-91582338D01*
X82895200Y-91399262D01*
X82859484Y-91219704D01*
X82789424Y-91050564D01*
X82687712Y-90898342D01*
X82638431Y-90849061D01*
X89331800Y-90849061D01*
X89331800Y-90964139D01*
X89354250Y-91077005D01*
X89398288Y-91183323D01*
X89462222Y-91279006D01*
X89543594Y-91360378D01*
X89639277Y-91424312D01*
X89745595Y-91468350D01*
X89858461Y-91490800D01*
X89973539Y-91490800D01*
X90086405Y-91468350D01*
X90192723Y-91424312D01*
X90288406Y-91360378D01*
X90369778Y-91279006D01*
X90433712Y-91183323D01*
X90477750Y-91077005D01*
X90500200Y-90964139D01*
X90500200Y-90849061D01*
X90485759Y-90776455D01*
X109061048Y-90776455D01*
X109100730Y-91026449D01*
X109188422Y-91263896D01*
X109235799Y-91352534D01*
X109464473Y-91405922D01*
X110170395Y-90700000D01*
X109464473Y-89994078D01*
X109235799Y-90047466D01*
X109129905Y-90277374D01*
X109070898Y-90523524D01*
X109061048Y-90776455D01*
X90485759Y-90776455D01*
X90477750Y-90736195D01*
X90433712Y-90629877D01*
X90369778Y-90534194D01*
X90288406Y-90452822D01*
X90192723Y-90388888D01*
X90086405Y-90344850D01*
X89973539Y-90322400D01*
X89858461Y-90322400D01*
X89745595Y-90344850D01*
X89639277Y-90388888D01*
X89543594Y-90452822D01*
X89462222Y-90534194D01*
X89398288Y-90629877D01*
X89354250Y-90736195D01*
X89331800Y-90849061D01*
X82638431Y-90849061D01*
X82558258Y-90768888D01*
X82406036Y-90667176D01*
X82236896Y-90597116D01*
X82057338Y-90561400D01*
X81874262Y-90561400D01*
X81694704Y-90597116D01*
X81525564Y-90667176D01*
X81373342Y-90768888D01*
X81243888Y-90898342D01*
X81142176Y-91050564D01*
X81072116Y-91219704D01*
X81036400Y-91399262D01*
X80355200Y-91399262D01*
X80319484Y-91219704D01*
X80249424Y-91050564D01*
X80147712Y-90898342D01*
X80018258Y-90768888D01*
X79866036Y-90667176D01*
X79696896Y-90597116D01*
X79517338Y-90561400D01*
X79334262Y-90561400D01*
X79154704Y-90597116D01*
X78985564Y-90667176D01*
X78833342Y-90768888D01*
X78703888Y-90898342D01*
X78602176Y-91050564D01*
X78532116Y-91219704D01*
X78496400Y-91399262D01*
X78496400Y-91582338D01*
X78532116Y-91761896D01*
X78559023Y-91826856D01*
X78398987Y-91760567D01*
X78151810Y-91711400D01*
X77899790Y-91711400D01*
X77652613Y-91760567D01*
X77419777Y-91857011D01*
X77210230Y-91997025D01*
X77032025Y-92175230D01*
X76892011Y-92384777D01*
X76795567Y-92617613D01*
X76746400Y-92864790D01*
X75791949Y-92864790D01*
X75791949Y-89963692D01*
X95794675Y-89963692D01*
X95794675Y-90078770D01*
X95817125Y-90191636D01*
X95861163Y-90297954D01*
X95925097Y-90393637D01*
X96006469Y-90475009D01*
X96102152Y-90538943D01*
X96208470Y-90582981D01*
X96321336Y-90605431D01*
X96436414Y-90605431D01*
X96549280Y-90582981D01*
X96655598Y-90538943D01*
X96751281Y-90475009D01*
X96832653Y-90393637D01*
X96896587Y-90297954D01*
X96940625Y-90191636D01*
X96963075Y-90078770D01*
X96963075Y-89963692D01*
X96940625Y-89850826D01*
X96925568Y-89814473D01*
X109644078Y-89814473D01*
X110350000Y-90520395D01*
X111055922Y-89814473D01*
X111002534Y-89585799D01*
X110772626Y-89479905D01*
X110526476Y-89420898D01*
X110273545Y-89411048D01*
X110023551Y-89450730D01*
X109786104Y-89538422D01*
X109697466Y-89585799D01*
X109644078Y-89814473D01*
X96925568Y-89814473D01*
X96896587Y-89744508D01*
X96832653Y-89648825D01*
X96751281Y-89567453D01*
X96655598Y-89503519D01*
X96549280Y-89459481D01*
X96436414Y-89437031D01*
X96321336Y-89437031D01*
X96208470Y-89459481D01*
X96102152Y-89503519D01*
X96006469Y-89567453D01*
X95925097Y-89648825D01*
X95861163Y-89744508D01*
X95817125Y-89850826D01*
X95794675Y-89963692D01*
X75791949Y-89963692D01*
X75791949Y-88717461D01*
X106740800Y-88717461D01*
X106740800Y-88832539D01*
X106763250Y-88945405D01*
X106807288Y-89051723D01*
X106871222Y-89147406D01*
X106952594Y-89228778D01*
X107048277Y-89292712D01*
X107154595Y-89336750D01*
X107267461Y-89359200D01*
X107382539Y-89359200D01*
X107486798Y-89338462D01*
X111960600Y-89338462D01*
X111960600Y-89521538D01*
X111996316Y-89701096D01*
X112066376Y-89870236D01*
X112168088Y-90022458D01*
X112297542Y-90151912D01*
X112449764Y-90253624D01*
X112618904Y-90323684D01*
X112798462Y-90359400D01*
X112981538Y-90359400D01*
X113161096Y-90323684D01*
X113330236Y-90253624D01*
X113482458Y-90151912D01*
X113611912Y-90022458D01*
X113713624Y-89870236D01*
X113783684Y-89701096D01*
X113819400Y-89521538D01*
X113819400Y-89338462D01*
X113783684Y-89158904D01*
X113713624Y-88989764D01*
X113611912Y-88837542D01*
X113482458Y-88708088D01*
X113330236Y-88606376D01*
X113161096Y-88536316D01*
X112981538Y-88500600D01*
X112798462Y-88500600D01*
X112618904Y-88536316D01*
X112449764Y-88606376D01*
X112297542Y-88708088D01*
X112168088Y-88837542D01*
X112066376Y-88989764D01*
X111996316Y-89158904D01*
X111960600Y-89338462D01*
X107486798Y-89338462D01*
X107495405Y-89336750D01*
X107601723Y-89292712D01*
X107697406Y-89228778D01*
X107778778Y-89147406D01*
X107842712Y-89051723D01*
X107886750Y-88945405D01*
X107909200Y-88832539D01*
X107909200Y-88717461D01*
X107886750Y-88604595D01*
X107842712Y-88498277D01*
X107778778Y-88402594D01*
X107697406Y-88321222D01*
X107601723Y-88257288D01*
X107495405Y-88213250D01*
X107382539Y-88190800D01*
X107267461Y-88190800D01*
X107154595Y-88213250D01*
X107048277Y-88257288D01*
X106952594Y-88321222D01*
X106871222Y-88402594D01*
X106807288Y-88498277D01*
X106763250Y-88604595D01*
X106740800Y-88717461D01*
X75791949Y-88717461D01*
X75791949Y-86930000D01*
X76997249Y-86930000D01*
X76997249Y-88330000D01*
X77002644Y-88384772D01*
X77018620Y-88437439D01*
X77044564Y-88485977D01*
X77079479Y-88528521D01*
X77122023Y-88563436D01*
X77170561Y-88589380D01*
X77223228Y-88605356D01*
X77278000Y-88610751D01*
X78678000Y-88610751D01*
X78732772Y-88605356D01*
X78785439Y-88589380D01*
X78833977Y-88563436D01*
X78876521Y-88528521D01*
X78911436Y-88485977D01*
X78937380Y-88437439D01*
X78953356Y-88384772D01*
X78958751Y-88330000D01*
X78958751Y-87533538D01*
X79538600Y-87533538D01*
X79538600Y-87726462D01*
X79576238Y-87915680D01*
X79650067Y-88093920D01*
X79757250Y-88254331D01*
X79893669Y-88390750D01*
X80054080Y-88497933D01*
X80232320Y-88571762D01*
X80421538Y-88609400D01*
X80614462Y-88609400D01*
X80803680Y-88571762D01*
X80981920Y-88497933D01*
X81142331Y-88390750D01*
X81278750Y-88254331D01*
X81385933Y-88093920D01*
X81459762Y-87915680D01*
X81497400Y-87726462D01*
X81497400Y-87533538D01*
X82078600Y-87533538D01*
X82078600Y-87726462D01*
X82116238Y-87915680D01*
X82190067Y-88093920D01*
X82297250Y-88254331D01*
X82433669Y-88390750D01*
X82594080Y-88497933D01*
X82772320Y-88571762D01*
X82961538Y-88609400D01*
X83154462Y-88609400D01*
X83343680Y-88571762D01*
X83521920Y-88497933D01*
X83682331Y-88390750D01*
X83818750Y-88254331D01*
X83925933Y-88093920D01*
X83936477Y-88068462D01*
X109420600Y-88068462D01*
X109420600Y-88251538D01*
X109456316Y-88431096D01*
X109526376Y-88600236D01*
X109628088Y-88752458D01*
X109757542Y-88881912D01*
X109909764Y-88983624D01*
X110078904Y-89053684D01*
X110258462Y-89089400D01*
X110441538Y-89089400D01*
X110621096Y-89053684D01*
X110790236Y-88983624D01*
X110942458Y-88881912D01*
X111071912Y-88752458D01*
X111173624Y-88600236D01*
X111243684Y-88431096D01*
X111279400Y-88251538D01*
X111279400Y-88068462D01*
X111243684Y-87888904D01*
X111173624Y-87719764D01*
X111071912Y-87567542D01*
X110942458Y-87438088D01*
X110790236Y-87336376D01*
X110621096Y-87266316D01*
X110441538Y-87230600D01*
X110258462Y-87230600D01*
X110078904Y-87266316D01*
X109909764Y-87336376D01*
X109757542Y-87438088D01*
X109628088Y-87567542D01*
X109526376Y-87719764D01*
X109456316Y-87888904D01*
X109420600Y-88068462D01*
X83936477Y-88068462D01*
X83999762Y-87915680D01*
X84037400Y-87726462D01*
X84037400Y-87533538D01*
X83999762Y-87344320D01*
X83925933Y-87166080D01*
X83818750Y-87005669D01*
X83682331Y-86869250D01*
X83521920Y-86762067D01*
X83343680Y-86688238D01*
X83154462Y-86650600D01*
X82961538Y-86650600D01*
X82772320Y-86688238D01*
X82594080Y-86762067D01*
X82433669Y-86869250D01*
X82297250Y-87005669D01*
X82190067Y-87166080D01*
X82116238Y-87344320D01*
X82078600Y-87533538D01*
X81497400Y-87533538D01*
X81459762Y-87344320D01*
X81385933Y-87166080D01*
X81278750Y-87005669D01*
X81142331Y-86869250D01*
X80981920Y-86762067D01*
X80803680Y-86688238D01*
X80614462Y-86650600D01*
X80421538Y-86650600D01*
X80232320Y-86688238D01*
X80054080Y-86762067D01*
X79893669Y-86869250D01*
X79757250Y-87005669D01*
X79650067Y-87166080D01*
X79576238Y-87344320D01*
X79538600Y-87533538D01*
X78958751Y-87533538D01*
X78958751Y-86930000D01*
X78953356Y-86875228D01*
X78937380Y-86822561D01*
X78911436Y-86774023D01*
X78876521Y-86731479D01*
X78833977Y-86696564D01*
X78785439Y-86670620D01*
X78732772Y-86654644D01*
X78678000Y-86649249D01*
X77278000Y-86649249D01*
X77223228Y-86654644D01*
X77170561Y-86670620D01*
X77122023Y-86696564D01*
X77079479Y-86731479D01*
X77044564Y-86774023D01*
X77018620Y-86822561D01*
X77002644Y-86875228D01*
X76997249Y-86930000D01*
X75791949Y-86930000D01*
X75791949Y-84993538D01*
X76998600Y-84993538D01*
X76998600Y-85186462D01*
X77036238Y-85375680D01*
X77110067Y-85553920D01*
X77217250Y-85714331D01*
X77353669Y-85850750D01*
X77514080Y-85957933D01*
X77692320Y-86031762D01*
X77881538Y-86069400D01*
X78074462Y-86069400D01*
X78263680Y-86031762D01*
X78441920Y-85957933D01*
X78602331Y-85850750D01*
X78738750Y-85714331D01*
X78845933Y-85553920D01*
X78919762Y-85375680D01*
X78957400Y-85186462D01*
X78957400Y-84993538D01*
X79538600Y-84993538D01*
X79538600Y-85186462D01*
X79576238Y-85375680D01*
X79650067Y-85553920D01*
X79757250Y-85714331D01*
X79893669Y-85850750D01*
X80054080Y-85957933D01*
X80232320Y-86031762D01*
X80421538Y-86069400D01*
X80614462Y-86069400D01*
X80803680Y-86031762D01*
X80853154Y-86011269D01*
X82316336Y-86011269D01*
X82375797Y-86245037D01*
X82614242Y-86355934D01*
X82869740Y-86418183D01*
X83132473Y-86429390D01*
X83392344Y-86389125D01*
X83639366Y-86298935D01*
X83740203Y-86245037D01*
X83798089Y-86017461D01*
X88065800Y-86017461D01*
X88065800Y-86132539D01*
X88088250Y-86245405D01*
X88132288Y-86351723D01*
X88196222Y-86447406D01*
X88277594Y-86528778D01*
X88373277Y-86592712D01*
X88479595Y-86636750D01*
X88592461Y-86659200D01*
X88707539Y-86659200D01*
X88820405Y-86636750D01*
X88926723Y-86592712D01*
X89022406Y-86528778D01*
X89075313Y-86475871D01*
X91871800Y-86475871D01*
X91871800Y-86590949D01*
X91894250Y-86703815D01*
X91938288Y-86810133D01*
X92002222Y-86905816D01*
X92083594Y-86987188D01*
X92179277Y-87051122D01*
X92285595Y-87095160D01*
X92398461Y-87117610D01*
X92513539Y-87117610D01*
X92626405Y-87095160D01*
X92732723Y-87051122D01*
X92828406Y-86987188D01*
X92909778Y-86905816D01*
X92973712Y-86810133D01*
X92978546Y-86798462D01*
X111960600Y-86798462D01*
X111960600Y-86981538D01*
X111996316Y-87161096D01*
X112066376Y-87330236D01*
X112168088Y-87482458D01*
X112297542Y-87611912D01*
X112449764Y-87713624D01*
X112618904Y-87783684D01*
X112798462Y-87819400D01*
X112981538Y-87819400D01*
X113161096Y-87783684D01*
X113330236Y-87713624D01*
X113482458Y-87611912D01*
X113611912Y-87482458D01*
X113713624Y-87330236D01*
X113783684Y-87161096D01*
X113819400Y-86981538D01*
X113819400Y-86798462D01*
X113783684Y-86618904D01*
X113713624Y-86449764D01*
X113611912Y-86297542D01*
X113482458Y-86168088D01*
X113330236Y-86066376D01*
X113161096Y-85996316D01*
X112981538Y-85960600D01*
X112798462Y-85960600D01*
X112618904Y-85996316D01*
X112449764Y-86066376D01*
X112297542Y-86168088D01*
X112168088Y-86297542D01*
X112066376Y-86449764D01*
X111996316Y-86618904D01*
X111960600Y-86798462D01*
X92978546Y-86798462D01*
X93017750Y-86703815D01*
X93040200Y-86590949D01*
X93040200Y-86475871D01*
X93017750Y-86363005D01*
X92973712Y-86256687D01*
X92909778Y-86161004D01*
X92828406Y-86079632D01*
X92772777Y-86042461D01*
X94890800Y-86042461D01*
X94890800Y-86157539D01*
X94913250Y-86270405D01*
X94957288Y-86376723D01*
X95021222Y-86472406D01*
X95102594Y-86553778D01*
X95198277Y-86617712D01*
X95304595Y-86661750D01*
X95417461Y-86684200D01*
X95532539Y-86684200D01*
X95645405Y-86661750D01*
X95751723Y-86617712D01*
X95847406Y-86553778D01*
X95928778Y-86472406D01*
X95992712Y-86376723D01*
X96036750Y-86270405D01*
X96059200Y-86157539D01*
X96059200Y-86042461D01*
X96036750Y-85929595D01*
X95992712Y-85823277D01*
X95928778Y-85727594D01*
X95847406Y-85646222D01*
X95751723Y-85582288D01*
X95645405Y-85538250D01*
X95596197Y-85528462D01*
X109420600Y-85528462D01*
X109420600Y-85711538D01*
X109456316Y-85891096D01*
X109526376Y-86060236D01*
X109628088Y-86212458D01*
X109757542Y-86341912D01*
X109909764Y-86443624D01*
X110078904Y-86513684D01*
X110258462Y-86549400D01*
X110441538Y-86549400D01*
X110621096Y-86513684D01*
X110790236Y-86443624D01*
X110942458Y-86341912D01*
X111071912Y-86212458D01*
X111173624Y-86060236D01*
X111243684Y-85891096D01*
X111279400Y-85711538D01*
X111279400Y-85528462D01*
X111243684Y-85348904D01*
X111173624Y-85179764D01*
X111071912Y-85027542D01*
X110942458Y-84898088D01*
X110790236Y-84796376D01*
X110621096Y-84726316D01*
X110441538Y-84690600D01*
X110258462Y-84690600D01*
X110078904Y-84726316D01*
X109909764Y-84796376D01*
X109757542Y-84898088D01*
X109628088Y-85027542D01*
X109526376Y-85179764D01*
X109456316Y-85348904D01*
X109420600Y-85528462D01*
X95596197Y-85528462D01*
X95532539Y-85515800D01*
X95417461Y-85515800D01*
X95304595Y-85538250D01*
X95198277Y-85582288D01*
X95102594Y-85646222D01*
X95021222Y-85727594D01*
X94957288Y-85823277D01*
X94913250Y-85929595D01*
X94890800Y-86042461D01*
X92772777Y-86042461D01*
X92732723Y-86015698D01*
X92626405Y-85971660D01*
X92513539Y-85949210D01*
X92398461Y-85949210D01*
X92285595Y-85971660D01*
X92179277Y-86015698D01*
X92083594Y-86079632D01*
X92002222Y-86161004D01*
X91938288Y-86256687D01*
X91894250Y-86363005D01*
X91871800Y-86475871D01*
X89075313Y-86475871D01*
X89103778Y-86447406D01*
X89167712Y-86351723D01*
X89211750Y-86245405D01*
X89234200Y-86132539D01*
X89234200Y-86017461D01*
X89211750Y-85904595D01*
X89167712Y-85798277D01*
X89103778Y-85702594D01*
X89022406Y-85621222D01*
X88926723Y-85557288D01*
X88820405Y-85513250D01*
X88707539Y-85490800D01*
X88592461Y-85490800D01*
X88479595Y-85513250D01*
X88373277Y-85557288D01*
X88277594Y-85621222D01*
X88196222Y-85702594D01*
X88132288Y-85798277D01*
X88088250Y-85904595D01*
X88065800Y-86017461D01*
X83798089Y-86017461D01*
X83799664Y-86011269D01*
X83058000Y-85269605D01*
X82316336Y-86011269D01*
X80853154Y-86011269D01*
X80981920Y-85957933D01*
X81142331Y-85850750D01*
X81278750Y-85714331D01*
X81385933Y-85553920D01*
X81459762Y-85375680D01*
X81497400Y-85186462D01*
X81497400Y-85164473D01*
X81718610Y-85164473D01*
X81758875Y-85424344D01*
X81849065Y-85671366D01*
X81902963Y-85772203D01*
X82136731Y-85831664D01*
X82878395Y-85090000D01*
X83237605Y-85090000D01*
X83979269Y-85831664D01*
X84213037Y-85772203D01*
X84323934Y-85533758D01*
X84386183Y-85278260D01*
X84397390Y-85015527D01*
X84357125Y-84755656D01*
X84266935Y-84508634D01*
X84213037Y-84407797D01*
X83979269Y-84348336D01*
X83237605Y-85090000D01*
X82878395Y-85090000D01*
X82136731Y-84348336D01*
X81902963Y-84407797D01*
X81792066Y-84646242D01*
X81729817Y-84901740D01*
X81718610Y-85164473D01*
X81497400Y-85164473D01*
X81497400Y-84993538D01*
X81459762Y-84804320D01*
X81385933Y-84626080D01*
X81278750Y-84465669D01*
X81142331Y-84329250D01*
X80981920Y-84222067D01*
X80853155Y-84168731D01*
X82316336Y-84168731D01*
X83058000Y-84910395D01*
X83799664Y-84168731D01*
X83748470Y-83967461D01*
X90915800Y-83967461D01*
X90915800Y-84082539D01*
X90938250Y-84195405D01*
X90982288Y-84301723D01*
X91046222Y-84397406D01*
X91127594Y-84478778D01*
X91223277Y-84542712D01*
X91329595Y-84586750D01*
X91442461Y-84609200D01*
X91557539Y-84609200D01*
X91670405Y-84586750D01*
X91776723Y-84542712D01*
X91872406Y-84478778D01*
X91953778Y-84397406D01*
X92017712Y-84301723D01*
X92061750Y-84195405D01*
X92084200Y-84082539D01*
X92084200Y-83967461D01*
X95415800Y-83967461D01*
X95415800Y-84082539D01*
X95438250Y-84195405D01*
X95482288Y-84301723D01*
X95546222Y-84397406D01*
X95627594Y-84478778D01*
X95723277Y-84542712D01*
X95829595Y-84586750D01*
X95942461Y-84609200D01*
X96057539Y-84609200D01*
X96170405Y-84586750D01*
X96276723Y-84542712D01*
X96372406Y-84478778D01*
X96453778Y-84397406D01*
X96517712Y-84301723D01*
X96535631Y-84258462D01*
X111960600Y-84258462D01*
X111960600Y-84441538D01*
X111996316Y-84621096D01*
X112066376Y-84790236D01*
X112168088Y-84942458D01*
X112297542Y-85071912D01*
X112449764Y-85173624D01*
X112618904Y-85243684D01*
X112798462Y-85279400D01*
X112981538Y-85279400D01*
X113161096Y-85243684D01*
X113330236Y-85173624D01*
X113482458Y-85071912D01*
X113611912Y-84942458D01*
X113713624Y-84790236D01*
X113783684Y-84621096D01*
X113819400Y-84441538D01*
X113819400Y-84258462D01*
X113783684Y-84078904D01*
X113713624Y-83909764D01*
X113611912Y-83757542D01*
X113482458Y-83628088D01*
X113330236Y-83526376D01*
X113161096Y-83456316D01*
X112981538Y-83420600D01*
X112798462Y-83420600D01*
X112618904Y-83456316D01*
X112449764Y-83526376D01*
X112297542Y-83628088D01*
X112168088Y-83757542D01*
X112066376Y-83909764D01*
X111996316Y-84078904D01*
X111960600Y-84258462D01*
X96535631Y-84258462D01*
X96561750Y-84195405D01*
X96584200Y-84082539D01*
X96584200Y-83967461D01*
X96561750Y-83854595D01*
X96517712Y-83748277D01*
X96453778Y-83652594D01*
X96372406Y-83571222D01*
X96276723Y-83507288D01*
X96170405Y-83463250D01*
X96057539Y-83440800D01*
X95942461Y-83440800D01*
X95829595Y-83463250D01*
X95723277Y-83507288D01*
X95627594Y-83571222D01*
X95546222Y-83652594D01*
X95482288Y-83748277D01*
X95438250Y-83854595D01*
X95415800Y-83967461D01*
X92084200Y-83967461D01*
X92061750Y-83854595D01*
X92017712Y-83748277D01*
X91953778Y-83652594D01*
X91872406Y-83571222D01*
X91776723Y-83507288D01*
X91670405Y-83463250D01*
X91557539Y-83440800D01*
X91442461Y-83440800D01*
X91329595Y-83463250D01*
X91223277Y-83507288D01*
X91127594Y-83571222D01*
X91046222Y-83652594D01*
X90982288Y-83748277D01*
X90938250Y-83854595D01*
X90915800Y-83967461D01*
X83748470Y-83967461D01*
X83740203Y-83934963D01*
X83501758Y-83824066D01*
X83246260Y-83761817D01*
X82983527Y-83750610D01*
X82723656Y-83790875D01*
X82476634Y-83881065D01*
X82375797Y-83934963D01*
X82316336Y-84168731D01*
X80853155Y-84168731D01*
X80803680Y-84148238D01*
X80614462Y-84110600D01*
X80421538Y-84110600D01*
X80232320Y-84148238D01*
X80054080Y-84222067D01*
X79893669Y-84329250D01*
X79757250Y-84465669D01*
X79650067Y-84626080D01*
X79576238Y-84804320D01*
X79538600Y-84993538D01*
X78957400Y-84993538D01*
X78919762Y-84804320D01*
X78845933Y-84626080D01*
X78738750Y-84465669D01*
X78602331Y-84329250D01*
X78441920Y-84222067D01*
X78263680Y-84148238D01*
X78074462Y-84110600D01*
X77881538Y-84110600D01*
X77692320Y-84148238D01*
X77514080Y-84222067D01*
X77353669Y-84329250D01*
X77217250Y-84465669D01*
X77110067Y-84626080D01*
X77036238Y-84804320D01*
X76998600Y-84993538D01*
X75791949Y-84993538D01*
X75791949Y-82742461D01*
X82090800Y-82742461D01*
X82090800Y-82857539D01*
X82113250Y-82970405D01*
X82157288Y-83076723D01*
X82221222Y-83172406D01*
X82302594Y-83253778D01*
X82398277Y-83317712D01*
X82504595Y-83361750D01*
X82617461Y-83384200D01*
X82732539Y-83384200D01*
X82845405Y-83361750D01*
X82951723Y-83317712D01*
X83047406Y-83253778D01*
X83128778Y-83172406D01*
X83192712Y-83076723D01*
X83236750Y-82970405D01*
X83257226Y-82867461D01*
X93690800Y-82867461D01*
X93690800Y-82982539D01*
X93713250Y-83095405D01*
X93757288Y-83201723D01*
X93821222Y-83297406D01*
X93902594Y-83378778D01*
X93998277Y-83442712D01*
X94104595Y-83486750D01*
X94217461Y-83509200D01*
X94332539Y-83509200D01*
X94445405Y-83486750D01*
X94551723Y-83442712D01*
X94647406Y-83378778D01*
X94728778Y-83297406D01*
X94792712Y-83201723D01*
X94836750Y-83095405D01*
X94858021Y-82988462D01*
X109420600Y-82988462D01*
X109420600Y-83171538D01*
X109456316Y-83351096D01*
X109526376Y-83520236D01*
X109628088Y-83672458D01*
X109757542Y-83801912D01*
X109909764Y-83903624D01*
X110078904Y-83973684D01*
X110258462Y-84009400D01*
X110441538Y-84009400D01*
X110621096Y-83973684D01*
X110790236Y-83903624D01*
X110942458Y-83801912D01*
X111071912Y-83672458D01*
X111173624Y-83520236D01*
X111243684Y-83351096D01*
X111279400Y-83171538D01*
X111279400Y-82988462D01*
X111243684Y-82808904D01*
X111173624Y-82639764D01*
X111071912Y-82487542D01*
X110942458Y-82358088D01*
X110790236Y-82256376D01*
X110621096Y-82186316D01*
X110441538Y-82150600D01*
X110258462Y-82150600D01*
X110078904Y-82186316D01*
X109909764Y-82256376D01*
X109757542Y-82358088D01*
X109628088Y-82487542D01*
X109526376Y-82639764D01*
X109456316Y-82808904D01*
X109420600Y-82988462D01*
X94858021Y-82988462D01*
X94859200Y-82982539D01*
X94859200Y-82867461D01*
X94836750Y-82754595D01*
X94792712Y-82648277D01*
X94728778Y-82552594D01*
X94647406Y-82471222D01*
X94551723Y-82407288D01*
X94445405Y-82363250D01*
X94332539Y-82340800D01*
X94217461Y-82340800D01*
X94104595Y-82363250D01*
X93998277Y-82407288D01*
X93902594Y-82471222D01*
X93821222Y-82552594D01*
X93757288Y-82648277D01*
X93713250Y-82754595D01*
X93690800Y-82867461D01*
X83257226Y-82867461D01*
X83259200Y-82857539D01*
X83259200Y-82742461D01*
X83236750Y-82629595D01*
X83192712Y-82523277D01*
X83128778Y-82427594D01*
X83047406Y-82346222D01*
X82951723Y-82282288D01*
X82845405Y-82238250D01*
X82732539Y-82215800D01*
X82617461Y-82215800D01*
X82504595Y-82238250D01*
X82398277Y-82282288D01*
X82302594Y-82346222D01*
X82221222Y-82427594D01*
X82157288Y-82523277D01*
X82113250Y-82629595D01*
X82090800Y-82742461D01*
X75791949Y-82742461D01*
X75791949Y-81718462D01*
X111960600Y-81718462D01*
X111960600Y-81901538D01*
X111996316Y-82081096D01*
X112066376Y-82250236D01*
X112168088Y-82402458D01*
X112297542Y-82531912D01*
X112449764Y-82633624D01*
X112618904Y-82703684D01*
X112798462Y-82739400D01*
X112981538Y-82739400D01*
X113161096Y-82703684D01*
X113330236Y-82633624D01*
X113482458Y-82531912D01*
X113611912Y-82402458D01*
X113713624Y-82250236D01*
X113783684Y-82081096D01*
X113819400Y-81901538D01*
X113819400Y-81718462D01*
X113783684Y-81538904D01*
X113713624Y-81369764D01*
X113611912Y-81217542D01*
X113482458Y-81088088D01*
X113330236Y-80986376D01*
X113161096Y-80916316D01*
X112981538Y-80880600D01*
X112798462Y-80880600D01*
X112618904Y-80916316D01*
X112449764Y-80986376D01*
X112297542Y-81088088D01*
X112168088Y-81217542D01*
X112066376Y-81369764D01*
X111996316Y-81538904D01*
X111960600Y-81718462D01*
X75791949Y-81718462D01*
X75791949Y-80448462D01*
X109420600Y-80448462D01*
X109420600Y-80631538D01*
X109456316Y-80811096D01*
X109526376Y-80980236D01*
X109628088Y-81132458D01*
X109757542Y-81261912D01*
X109909764Y-81363624D01*
X110078904Y-81433684D01*
X110258462Y-81469400D01*
X110441538Y-81469400D01*
X110621096Y-81433684D01*
X110790236Y-81363624D01*
X110942458Y-81261912D01*
X111071912Y-81132458D01*
X111173624Y-80980236D01*
X111243684Y-80811096D01*
X111279400Y-80631538D01*
X111279400Y-80448462D01*
X111243684Y-80268904D01*
X111173624Y-80099764D01*
X111071912Y-79947542D01*
X110942458Y-79818088D01*
X110790236Y-79716376D01*
X110621096Y-79646316D01*
X110441538Y-79610600D01*
X110258462Y-79610600D01*
X110078904Y-79646316D01*
X109909764Y-79716376D01*
X109757542Y-79818088D01*
X109628088Y-79947542D01*
X109526376Y-80099764D01*
X109456316Y-80268904D01*
X109420600Y-80448462D01*
X75791949Y-80448462D01*
X75791949Y-79178462D01*
X111960600Y-79178462D01*
X111960600Y-79361538D01*
X111996316Y-79541096D01*
X112066376Y-79710236D01*
X112168088Y-79862458D01*
X112297542Y-79991912D01*
X112449764Y-80093624D01*
X112618904Y-80163684D01*
X112798462Y-80199400D01*
X112981538Y-80199400D01*
X113161096Y-80163684D01*
X113330236Y-80093624D01*
X113482458Y-79991912D01*
X113611912Y-79862458D01*
X113713624Y-79710236D01*
X113783684Y-79541096D01*
X113819400Y-79361538D01*
X113819400Y-79178462D01*
X113783684Y-78998904D01*
X113713624Y-78829764D01*
X113611912Y-78677542D01*
X113482458Y-78548088D01*
X113330236Y-78446376D01*
X113161096Y-78376316D01*
X112981538Y-78340600D01*
X112798462Y-78340600D01*
X112618904Y-78376316D01*
X112449764Y-78446376D01*
X112297542Y-78548088D01*
X112168088Y-78677542D01*
X112066376Y-78829764D01*
X111996316Y-78998904D01*
X111960600Y-79178462D01*
X75791949Y-79178462D01*
X75791949Y-77908462D01*
X109420600Y-77908462D01*
X109420600Y-78091538D01*
X109456316Y-78271096D01*
X109526376Y-78440236D01*
X109628088Y-78592458D01*
X109757542Y-78721912D01*
X109909764Y-78823624D01*
X110078904Y-78893684D01*
X110258462Y-78929400D01*
X110441538Y-78929400D01*
X110621096Y-78893684D01*
X110790236Y-78823624D01*
X110942458Y-78721912D01*
X111071912Y-78592458D01*
X111173624Y-78440236D01*
X111243684Y-78271096D01*
X111279400Y-78091538D01*
X111279400Y-77908462D01*
X111243684Y-77728904D01*
X111196722Y-77615527D01*
X112184078Y-77615527D01*
X112237466Y-77844201D01*
X112467374Y-77950095D01*
X112713524Y-78009102D01*
X112966455Y-78018952D01*
X113216449Y-77979270D01*
X113453896Y-77891578D01*
X113542534Y-77844201D01*
X113595922Y-77615527D01*
X112890000Y-76909605D01*
X112184078Y-77615527D01*
X111196722Y-77615527D01*
X111173624Y-77559764D01*
X111071912Y-77407542D01*
X110942458Y-77278088D01*
X110790236Y-77176376D01*
X110621096Y-77106316D01*
X110441538Y-77070600D01*
X110258462Y-77070600D01*
X110078904Y-77106316D01*
X109909764Y-77176376D01*
X109757542Y-77278088D01*
X109628088Y-77407542D01*
X109526376Y-77559764D01*
X109456316Y-77728904D01*
X109420600Y-77908462D01*
X75791949Y-77908462D01*
X75791949Y-76459961D01*
X97320100Y-76459961D01*
X97320100Y-76575039D01*
X97342550Y-76687905D01*
X97386588Y-76794223D01*
X97450522Y-76889906D01*
X97531894Y-76971278D01*
X97627577Y-77035212D01*
X97733895Y-77079250D01*
X97846761Y-77101700D01*
X97961839Y-77101700D01*
X98074705Y-77079250D01*
X98181023Y-77035212D01*
X98276706Y-76971278D01*
X98358078Y-76889906D01*
X98413838Y-76806455D01*
X111601048Y-76806455D01*
X111640730Y-77056449D01*
X111728422Y-77293896D01*
X111775799Y-77382534D01*
X112004473Y-77435922D01*
X112710395Y-76730000D01*
X113069605Y-76730000D01*
X113775527Y-77435922D01*
X114004201Y-77382534D01*
X114110095Y-77152626D01*
X114169102Y-76906476D01*
X114178952Y-76653545D01*
X114139270Y-76403551D01*
X114051578Y-76166104D01*
X114004201Y-76077466D01*
X113775527Y-76024078D01*
X113069605Y-76730000D01*
X112710395Y-76730000D01*
X112004473Y-76024078D01*
X111775799Y-76077466D01*
X111669905Y-76307374D01*
X111610898Y-76553524D01*
X111601048Y-76806455D01*
X98413838Y-76806455D01*
X98422012Y-76794223D01*
X98466050Y-76687905D01*
X98488500Y-76575039D01*
X98488500Y-76459961D01*
X98466050Y-76347095D01*
X98422012Y-76240777D01*
X98358078Y-76145094D01*
X98276706Y-76063722D01*
X98181023Y-75999788D01*
X98074705Y-75955750D01*
X97961839Y-75933300D01*
X97846761Y-75933300D01*
X97733895Y-75955750D01*
X97627577Y-75999788D01*
X97531894Y-76063722D01*
X97450522Y-76145094D01*
X97386588Y-76240777D01*
X97342550Y-76347095D01*
X97320100Y-76459961D01*
X75791949Y-76459961D01*
X75791949Y-75368462D01*
X109420600Y-75368462D01*
X109420600Y-75551538D01*
X109456316Y-75731096D01*
X109526376Y-75900236D01*
X109628088Y-76052458D01*
X109757542Y-76181912D01*
X109909764Y-76283624D01*
X110078904Y-76353684D01*
X110258462Y-76389400D01*
X110441538Y-76389400D01*
X110621096Y-76353684D01*
X110790236Y-76283624D01*
X110942458Y-76181912D01*
X111071912Y-76052458D01*
X111173624Y-75900236D01*
X111196721Y-75844473D01*
X112184078Y-75844473D01*
X112890000Y-76550395D01*
X113595922Y-75844473D01*
X113542534Y-75615799D01*
X113312626Y-75509905D01*
X113066476Y-75450898D01*
X112813545Y-75441048D01*
X112563551Y-75480730D01*
X112326104Y-75568422D01*
X112237466Y-75615799D01*
X112184078Y-75844473D01*
X111196721Y-75844473D01*
X111243684Y-75731096D01*
X111279400Y-75551538D01*
X111279400Y-75368462D01*
X111243684Y-75188904D01*
X111173624Y-75019764D01*
X111071912Y-74867542D01*
X110942458Y-74738088D01*
X110790236Y-74636376D01*
X110621096Y-74566316D01*
X110441538Y-74530600D01*
X110258462Y-74530600D01*
X110078904Y-74566316D01*
X109909764Y-74636376D01*
X109757542Y-74738088D01*
X109628088Y-74867542D01*
X109526376Y-75019764D01*
X109456316Y-75188904D01*
X109420600Y-75368462D01*
X75791949Y-75368462D01*
X75791949Y-73805527D01*
X109644078Y-73805527D01*
X109697466Y-74034201D01*
X109927374Y-74140095D01*
X110173524Y-74199102D01*
X110426455Y-74208952D01*
X110676449Y-74169270D01*
X110868178Y-74098462D01*
X111960600Y-74098462D01*
X111960600Y-74281538D01*
X111996316Y-74461096D01*
X112066376Y-74630236D01*
X112168088Y-74782458D01*
X112297542Y-74911912D01*
X112449764Y-75013624D01*
X112618904Y-75083684D01*
X112798462Y-75119400D01*
X112981538Y-75119400D01*
X113161096Y-75083684D01*
X113330236Y-75013624D01*
X113482458Y-74911912D01*
X113611912Y-74782458D01*
X113713624Y-74630236D01*
X113783684Y-74461096D01*
X113819400Y-74281538D01*
X113819400Y-74098462D01*
X113783684Y-73918904D01*
X113713624Y-73749764D01*
X113611912Y-73597542D01*
X113482458Y-73468088D01*
X113330236Y-73366376D01*
X113161096Y-73296316D01*
X112981538Y-73260600D01*
X112798462Y-73260600D01*
X112618904Y-73296316D01*
X112449764Y-73366376D01*
X112297542Y-73468088D01*
X112168088Y-73597542D01*
X112066376Y-73749764D01*
X111996316Y-73918904D01*
X111960600Y-74098462D01*
X110868178Y-74098462D01*
X110913896Y-74081578D01*
X111002534Y-74034201D01*
X111055922Y-73805527D01*
X110350000Y-73099605D01*
X109644078Y-73805527D01*
X75791949Y-73805527D01*
X75791949Y-72996455D01*
X109061048Y-72996455D01*
X109100730Y-73246449D01*
X109188422Y-73483896D01*
X109235799Y-73572534D01*
X109464473Y-73625922D01*
X110170395Y-72920000D01*
X110529605Y-72920000D01*
X111235527Y-73625922D01*
X111464201Y-73572534D01*
X111570095Y-73342626D01*
X111629102Y-73096476D01*
X111638952Y-72843545D01*
X111599270Y-72593551D01*
X111511578Y-72356104D01*
X111464201Y-72267466D01*
X111235527Y-72214078D01*
X110529605Y-72920000D01*
X110170395Y-72920000D01*
X109464473Y-72214078D01*
X109235799Y-72267466D01*
X109129905Y-72497374D01*
X109070898Y-72743524D01*
X109061048Y-72996455D01*
X75791949Y-72996455D01*
X75791949Y-71842461D01*
X78140800Y-71842461D01*
X78140800Y-71957539D01*
X78163250Y-72070405D01*
X78207288Y-72176723D01*
X78271222Y-72272406D01*
X78352594Y-72353778D01*
X78448277Y-72417712D01*
X78554595Y-72461750D01*
X78667461Y-72484200D01*
X78782539Y-72484200D01*
X78895405Y-72461750D01*
X79001723Y-72417712D01*
X79097406Y-72353778D01*
X79178778Y-72272406D01*
X79242712Y-72176723D01*
X79286750Y-72070405D01*
X79309200Y-71957539D01*
X79309200Y-71842461D01*
X79299255Y-71792461D01*
X84915800Y-71792461D01*
X84915800Y-71907539D01*
X84938250Y-72020405D01*
X84982288Y-72126723D01*
X85046222Y-72222406D01*
X85127594Y-72303778D01*
X85223277Y-72367712D01*
X85329595Y-72411750D01*
X85442461Y-72434200D01*
X85557539Y-72434200D01*
X85670405Y-72411750D01*
X85776723Y-72367712D01*
X85872406Y-72303778D01*
X85953778Y-72222406D01*
X86017712Y-72126723D01*
X86031903Y-72092461D01*
X107465800Y-72092461D01*
X107465800Y-72207539D01*
X107488250Y-72320405D01*
X107532288Y-72426723D01*
X107596222Y-72522406D01*
X107677594Y-72603778D01*
X107773277Y-72667712D01*
X107879595Y-72711750D01*
X107992461Y-72734200D01*
X108107539Y-72734200D01*
X108220405Y-72711750D01*
X108326723Y-72667712D01*
X108422406Y-72603778D01*
X108503778Y-72522406D01*
X108567712Y-72426723D01*
X108611750Y-72320405D01*
X108634200Y-72207539D01*
X108634200Y-72092461D01*
X108622666Y-72034473D01*
X109644078Y-72034473D01*
X110350000Y-72740395D01*
X111055922Y-72034473D01*
X111002534Y-71805799D01*
X110772626Y-71699905D01*
X110526476Y-71640898D01*
X110273545Y-71631048D01*
X110023551Y-71670730D01*
X109786104Y-71758422D01*
X109697466Y-71805799D01*
X109644078Y-72034473D01*
X108622666Y-72034473D01*
X108611750Y-71979595D01*
X108567712Y-71873277D01*
X108503778Y-71777594D01*
X108422406Y-71696222D01*
X108326723Y-71632288D01*
X108220405Y-71588250D01*
X108107539Y-71565800D01*
X107992461Y-71565800D01*
X107879595Y-71588250D01*
X107773277Y-71632288D01*
X107677594Y-71696222D01*
X107596222Y-71777594D01*
X107532288Y-71873277D01*
X107488250Y-71979595D01*
X107465800Y-72092461D01*
X86031903Y-72092461D01*
X86061750Y-72020405D01*
X86084200Y-71907539D01*
X86084200Y-71792461D01*
X86061750Y-71679595D01*
X86017712Y-71573277D01*
X86007813Y-71558462D01*
X111960600Y-71558462D01*
X111960600Y-71741538D01*
X111996316Y-71921096D01*
X112066376Y-72090236D01*
X112168088Y-72242458D01*
X112297542Y-72371912D01*
X112449764Y-72473624D01*
X112618904Y-72543684D01*
X112798462Y-72579400D01*
X112981538Y-72579400D01*
X113161096Y-72543684D01*
X113330236Y-72473624D01*
X113482458Y-72371912D01*
X113611912Y-72242458D01*
X113713624Y-72090236D01*
X113783684Y-71921096D01*
X113819400Y-71741538D01*
X113819400Y-71558462D01*
X113783684Y-71378904D01*
X113713624Y-71209764D01*
X113611912Y-71057542D01*
X113482458Y-70928088D01*
X113330236Y-70826376D01*
X113161096Y-70756316D01*
X112981538Y-70720600D01*
X112798462Y-70720600D01*
X112618904Y-70756316D01*
X112449764Y-70826376D01*
X112297542Y-70928088D01*
X112168088Y-71057542D01*
X112066376Y-71209764D01*
X111996316Y-71378904D01*
X111960600Y-71558462D01*
X86007813Y-71558462D01*
X85953778Y-71477594D01*
X85872406Y-71396222D01*
X85776723Y-71332288D01*
X85670405Y-71288250D01*
X85557539Y-71265800D01*
X85442461Y-71265800D01*
X85329595Y-71288250D01*
X85223277Y-71332288D01*
X85127594Y-71396222D01*
X85046222Y-71477594D01*
X84982288Y-71573277D01*
X84938250Y-71679595D01*
X84915800Y-71792461D01*
X79299255Y-71792461D01*
X79286750Y-71729595D01*
X79242712Y-71623277D01*
X79178778Y-71527594D01*
X79097406Y-71446222D01*
X79001723Y-71382288D01*
X78895405Y-71338250D01*
X78782539Y-71315800D01*
X78667461Y-71315800D01*
X78554595Y-71338250D01*
X78448277Y-71382288D01*
X78352594Y-71446222D01*
X78271222Y-71527594D01*
X78207288Y-71623277D01*
X78163250Y-71729595D01*
X78140800Y-71842461D01*
X75791949Y-71842461D01*
X75791949Y-70817461D01*
X85740800Y-70817461D01*
X85740800Y-70932539D01*
X85763250Y-71045405D01*
X85807288Y-71151723D01*
X85871222Y-71247406D01*
X85952594Y-71328778D01*
X86048277Y-71392712D01*
X86154595Y-71436750D01*
X86267461Y-71459200D01*
X86382539Y-71459200D01*
X86495405Y-71436750D01*
X86601723Y-71392712D01*
X86697406Y-71328778D01*
X86778778Y-71247406D01*
X86842712Y-71151723D01*
X86886750Y-71045405D01*
X86909200Y-70932539D01*
X86909200Y-70817461D01*
X86886750Y-70704595D01*
X86842712Y-70598277D01*
X86778778Y-70502594D01*
X86697406Y-70421222D01*
X86601723Y-70357288D01*
X86495405Y-70313250D01*
X86382539Y-70290800D01*
X86267461Y-70290800D01*
X86154595Y-70313250D01*
X86048277Y-70357288D01*
X85952594Y-70421222D01*
X85871222Y-70502594D01*
X85807288Y-70598277D01*
X85763250Y-70704595D01*
X85740800Y-70817461D01*
X75791949Y-70817461D01*
X75791949Y-70669601D01*
X80703123Y-69267461D01*
X87040800Y-69267461D01*
X87040800Y-69382539D01*
X87063250Y-69495405D01*
X87107288Y-69601723D01*
X87171222Y-69697406D01*
X87252594Y-69778778D01*
X87348277Y-69842712D01*
X87454595Y-69886750D01*
X87567461Y-69909200D01*
X87682539Y-69909200D01*
X87795405Y-69886750D01*
X87901723Y-69842712D01*
X87997406Y-69778778D01*
X88078778Y-69697406D01*
X88142712Y-69601723D01*
X88186750Y-69495405D01*
X88197281Y-69442461D01*
X97515800Y-69442461D01*
X97515800Y-69557539D01*
X97538250Y-69670405D01*
X97582288Y-69776723D01*
X97646222Y-69872406D01*
X97727594Y-69953778D01*
X97823277Y-70017712D01*
X97929595Y-70061750D01*
X98042461Y-70084200D01*
X98157539Y-70084200D01*
X98270405Y-70061750D01*
X98303804Y-70047916D01*
X98313250Y-70095405D01*
X98357288Y-70201723D01*
X98421222Y-70297406D01*
X98502594Y-70378778D01*
X98598277Y-70442712D01*
X98704595Y-70486750D01*
X98798278Y-70505384D01*
X98788250Y-70529595D01*
X98765800Y-70642461D01*
X98765800Y-70757539D01*
X98788250Y-70870405D01*
X98832288Y-70976723D01*
X98896222Y-71072406D01*
X98977594Y-71153778D01*
X99073277Y-71217712D01*
X99179595Y-71261750D01*
X99292461Y-71284200D01*
X99407539Y-71284200D01*
X99520405Y-71261750D01*
X99626723Y-71217712D01*
X99722406Y-71153778D01*
X99803778Y-71072406D01*
X99867712Y-70976723D01*
X99911750Y-70870405D01*
X99934200Y-70757539D01*
X99934200Y-70642461D01*
X99911750Y-70529595D01*
X99867712Y-70423277D01*
X99803778Y-70327594D01*
X99764646Y-70288462D01*
X109420600Y-70288462D01*
X109420600Y-70471538D01*
X109456316Y-70651096D01*
X109526376Y-70820236D01*
X109628088Y-70972458D01*
X109757542Y-71101912D01*
X109909764Y-71203624D01*
X110078904Y-71273684D01*
X110258462Y-71309400D01*
X110441538Y-71309400D01*
X110621096Y-71273684D01*
X110790236Y-71203624D01*
X110942458Y-71101912D01*
X111071912Y-70972458D01*
X111173624Y-70820236D01*
X111243684Y-70651096D01*
X111279400Y-70471538D01*
X111279400Y-70288462D01*
X111243684Y-70108904D01*
X111173624Y-69939764D01*
X111071912Y-69787542D01*
X110942458Y-69658088D01*
X110790236Y-69556376D01*
X110621096Y-69486316D01*
X110441538Y-69450600D01*
X110258462Y-69450600D01*
X110078904Y-69486316D01*
X109909764Y-69556376D01*
X109757542Y-69658088D01*
X109628088Y-69787542D01*
X109526376Y-69939764D01*
X109456316Y-70108904D01*
X109420600Y-70288462D01*
X99764646Y-70288462D01*
X99722406Y-70246222D01*
X99626723Y-70182288D01*
X99520405Y-70138250D01*
X99426722Y-70119616D01*
X99436750Y-70095405D01*
X99459200Y-69982539D01*
X99459200Y-69867461D01*
X99436750Y-69754595D01*
X99392712Y-69648277D01*
X99328778Y-69552594D01*
X99247406Y-69471222D01*
X99151723Y-69407288D01*
X99045405Y-69363250D01*
X98932539Y-69340800D01*
X98817461Y-69340800D01*
X98704595Y-69363250D01*
X98671196Y-69377084D01*
X98661750Y-69329595D01*
X98617712Y-69223277D01*
X98553778Y-69127594D01*
X98472406Y-69046222D01*
X98430861Y-69018462D01*
X111960600Y-69018462D01*
X111960600Y-69201538D01*
X111996316Y-69381096D01*
X112066376Y-69550236D01*
X112168088Y-69702458D01*
X112297542Y-69831912D01*
X112449764Y-69933624D01*
X112618904Y-70003684D01*
X112798462Y-70039400D01*
X112981538Y-70039400D01*
X113161096Y-70003684D01*
X113330236Y-69933624D01*
X113482458Y-69831912D01*
X113611912Y-69702458D01*
X113713624Y-69550236D01*
X113783684Y-69381096D01*
X113819400Y-69201538D01*
X113819400Y-69018462D01*
X113783684Y-68838904D01*
X113713624Y-68669764D01*
X113611912Y-68517542D01*
X113482458Y-68388088D01*
X113330236Y-68286376D01*
X113161096Y-68216316D01*
X112981538Y-68180600D01*
X112798462Y-68180600D01*
X112618904Y-68216316D01*
X112449764Y-68286376D01*
X112297542Y-68388088D01*
X112168088Y-68517542D01*
X112066376Y-68669764D01*
X111996316Y-68838904D01*
X111960600Y-69018462D01*
X98430861Y-69018462D01*
X98376723Y-68982288D01*
X98270405Y-68938250D01*
X98157539Y-68915800D01*
X98042461Y-68915800D01*
X97929595Y-68938250D01*
X97823277Y-68982288D01*
X97727594Y-69046222D01*
X97646222Y-69127594D01*
X97582288Y-69223277D01*
X97538250Y-69329595D01*
X97515800Y-69442461D01*
X88197281Y-69442461D01*
X88209200Y-69382539D01*
X88209200Y-69267461D01*
X88186750Y-69154595D01*
X88142712Y-69048277D01*
X88078778Y-68952594D01*
X87997406Y-68871222D01*
X87901723Y-68807288D01*
X87795405Y-68763250D01*
X87682539Y-68740800D01*
X87567461Y-68740800D01*
X87454595Y-68763250D01*
X87348277Y-68807288D01*
X87252594Y-68871222D01*
X87171222Y-68952594D01*
X87107288Y-69048277D01*
X87063250Y-69154595D01*
X87040800Y-69267461D01*
X80703123Y-69267461D01*
X87005756Y-67468060D01*
X86971222Y-67502594D01*
X86907288Y-67598277D01*
X86863250Y-67704595D01*
X86840800Y-67817461D01*
X86840800Y-67932539D01*
X86863250Y-68045405D01*
X86907288Y-68151723D01*
X86971222Y-68247406D01*
X87052594Y-68328778D01*
X87148277Y-68392712D01*
X87254595Y-68436750D01*
X87367461Y-68459200D01*
X87482539Y-68459200D01*
X87595405Y-68436750D01*
X87641973Y-68417461D01*
X88090800Y-68417461D01*
X88090800Y-68532539D01*
X88113250Y-68645405D01*
X88157288Y-68751723D01*
X88221222Y-68847406D01*
X88302594Y-68928778D01*
X88398277Y-68992712D01*
X88504595Y-69036750D01*
X88617461Y-69059200D01*
X88732539Y-69059200D01*
X88845405Y-69036750D01*
X88951723Y-68992712D01*
X89047406Y-68928778D01*
X89128778Y-68847406D01*
X89192712Y-68751723D01*
X89236750Y-68645405D01*
X89259200Y-68532539D01*
X89259200Y-68417461D01*
X89236750Y-68304595D01*
X89192712Y-68198277D01*
X89128778Y-68102594D01*
X89047406Y-68021222D01*
X88951723Y-67957288D01*
X88845405Y-67913250D01*
X88732539Y-67890800D01*
X88617461Y-67890800D01*
X88504595Y-67913250D01*
X88398277Y-67957288D01*
X88302594Y-68021222D01*
X88221222Y-68102594D01*
X88157288Y-68198277D01*
X88113250Y-68304595D01*
X88090800Y-68417461D01*
X87641973Y-68417461D01*
X87701723Y-68392712D01*
X87797406Y-68328778D01*
X87878778Y-68247406D01*
X87942712Y-68151723D01*
X87986750Y-68045405D01*
X88009200Y-67932539D01*
X88009200Y-67817461D01*
X87986750Y-67704595D01*
X87950659Y-67617461D01*
X89090800Y-67617461D01*
X89090800Y-67732539D01*
X89113250Y-67845405D01*
X89157288Y-67951723D01*
X89221222Y-68047406D01*
X89302594Y-68128778D01*
X89398277Y-68192712D01*
X89504595Y-68236750D01*
X89617461Y-68259200D01*
X89732539Y-68259200D01*
X89845405Y-68236750D01*
X89951723Y-68192712D01*
X90047406Y-68128778D01*
X90128778Y-68047406D01*
X90192712Y-67951723D01*
X90236750Y-67845405D01*
X90256032Y-67748462D01*
X109420600Y-67748462D01*
X109420600Y-67931538D01*
X109456316Y-68111096D01*
X109526376Y-68280236D01*
X109628088Y-68432458D01*
X109757542Y-68561912D01*
X109909764Y-68663624D01*
X110078904Y-68733684D01*
X110258462Y-68769400D01*
X110441538Y-68769400D01*
X110621096Y-68733684D01*
X110790236Y-68663624D01*
X110942458Y-68561912D01*
X111071912Y-68432458D01*
X111173624Y-68280236D01*
X111243684Y-68111096D01*
X111279400Y-67931538D01*
X111279400Y-67748462D01*
X111243684Y-67568904D01*
X111196722Y-67455527D01*
X112184078Y-67455527D01*
X112237466Y-67684201D01*
X112467374Y-67790095D01*
X112713524Y-67849102D01*
X112966455Y-67858952D01*
X113216449Y-67819270D01*
X113453896Y-67731578D01*
X113542534Y-67684201D01*
X113595922Y-67455527D01*
X112890000Y-66749605D01*
X112184078Y-67455527D01*
X111196722Y-67455527D01*
X111173624Y-67399764D01*
X111071912Y-67247542D01*
X110942458Y-67118088D01*
X110790236Y-67016376D01*
X110621096Y-66946316D01*
X110441538Y-66910600D01*
X110258462Y-66910600D01*
X110078904Y-66946316D01*
X109909764Y-67016376D01*
X109757542Y-67118088D01*
X109628088Y-67247542D01*
X109526376Y-67399764D01*
X109456316Y-67568904D01*
X109420600Y-67748462D01*
X90256032Y-67748462D01*
X90259200Y-67732539D01*
X90259200Y-67617461D01*
X90236750Y-67504595D01*
X90192712Y-67398277D01*
X90128778Y-67302594D01*
X90047406Y-67221222D01*
X89951723Y-67157288D01*
X89845405Y-67113250D01*
X89732539Y-67090800D01*
X89617461Y-67090800D01*
X89504595Y-67113250D01*
X89398277Y-67157288D01*
X89302594Y-67221222D01*
X89221222Y-67302594D01*
X89157288Y-67398277D01*
X89113250Y-67504595D01*
X89090800Y-67617461D01*
X87950659Y-67617461D01*
X87942712Y-67598277D01*
X87878778Y-67502594D01*
X87797406Y-67421222D01*
X87701723Y-67357288D01*
X87595405Y-67313250D01*
X87567464Y-67307692D01*
X89883530Y-66646455D01*
X111601048Y-66646455D01*
X111640730Y-66896449D01*
X111728422Y-67133896D01*
X111775799Y-67222534D01*
X112004473Y-67275922D01*
X112710395Y-66570000D01*
X113069605Y-66570000D01*
X113775527Y-67275922D01*
X114004201Y-67222534D01*
X114110095Y-66992626D01*
X114169102Y-66746476D01*
X114178952Y-66493545D01*
X114139270Y-66243551D01*
X114051578Y-66006104D01*
X114004201Y-65917466D01*
X113775527Y-65864078D01*
X113069605Y-66570000D01*
X112710395Y-66570000D01*
X112004473Y-65864078D01*
X111775799Y-65917466D01*
X111669905Y-66147374D01*
X111610898Y-66393524D01*
X111601048Y-66646455D01*
X89883530Y-66646455D01*
X93252994Y-65684473D01*
X112184078Y-65684473D01*
X112890000Y-66390395D01*
X113595922Y-65684473D01*
X113542534Y-65455799D01*
X113312626Y-65349905D01*
X113066476Y-65290898D01*
X112813545Y-65281048D01*
X112563551Y-65320730D01*
X112326104Y-65408422D01*
X112237466Y-65455799D01*
X112184078Y-65684473D01*
X93252994Y-65684473D01*
X94878254Y-65220461D01*
X116743001Y-65220461D01*
X116743001Y-65335539D01*
X116765451Y-65448405D01*
X116809489Y-65554723D01*
X116873423Y-65650406D01*
X116954795Y-65731778D01*
X117050478Y-65795712D01*
X117156796Y-65839750D01*
X117269662Y-65862200D01*
X117384740Y-65862200D01*
X117497606Y-65839750D01*
X117603924Y-65795712D01*
X117699607Y-65731778D01*
X117780979Y-65650406D01*
X117844913Y-65554723D01*
X117888951Y-65448405D01*
X117911401Y-65335539D01*
X117911401Y-65220461D01*
X117888951Y-65107595D01*
X117844913Y-65001277D01*
X117780979Y-64905594D01*
X117699607Y-64824222D01*
X117603924Y-64760288D01*
X117497606Y-64716250D01*
X117384740Y-64693800D01*
X117269662Y-64693800D01*
X117156796Y-64716250D01*
X117050478Y-64760288D01*
X116954795Y-64824222D01*
X116873423Y-64905594D01*
X116809489Y-65001277D01*
X116765451Y-65107595D01*
X116743001Y-65220461D01*
X94878254Y-65220461D01*
X98041127Y-64317461D01*
X114965800Y-64317461D01*
X114965800Y-64432539D01*
X114988250Y-64545405D01*
X115032288Y-64651723D01*
X115096222Y-64747406D01*
X115177594Y-64828778D01*
X115273277Y-64892712D01*
X115379595Y-64936750D01*
X115492461Y-64959200D01*
X115607539Y-64959200D01*
X115720405Y-64936750D01*
X115826723Y-64892712D01*
X115922406Y-64828778D01*
X116003778Y-64747406D01*
X116067712Y-64651723D01*
X116111750Y-64545405D01*
X116134200Y-64432539D01*
X116134200Y-64317461D01*
X116111750Y-64204595D01*
X116067712Y-64098277D01*
X116003778Y-64002594D01*
X115922406Y-63921222D01*
X115826723Y-63857288D01*
X115720405Y-63813250D01*
X115607539Y-63790800D01*
X115492461Y-63790800D01*
X115379595Y-63813250D01*
X115273277Y-63857288D01*
X115177594Y-63921222D01*
X115096222Y-64002594D01*
X115032288Y-64098277D01*
X114988250Y-64204595D01*
X114965800Y-64317461D01*
X98041127Y-64317461D01*
X108986838Y-61192461D01*
X117665800Y-61192461D01*
X117665800Y-61307539D01*
X117688250Y-61420405D01*
X117732288Y-61526723D01*
X117796222Y-61622406D01*
X117877594Y-61703778D01*
X117973277Y-61767712D01*
X118079595Y-61811750D01*
X118192461Y-61834200D01*
X118307539Y-61834200D01*
X118420405Y-61811750D01*
X118526723Y-61767712D01*
X118622406Y-61703778D01*
X118703778Y-61622406D01*
X118767712Y-61526723D01*
X118811750Y-61420405D01*
X118834200Y-61307539D01*
X118834200Y-61192461D01*
X118811750Y-61079595D01*
X118767712Y-60973277D01*
X118703778Y-60877594D01*
X118622406Y-60796222D01*
X118526723Y-60732288D01*
X118420405Y-60688250D01*
X118307539Y-60665800D01*
X118192461Y-60665800D01*
X118079595Y-60688250D01*
X117973277Y-60732288D01*
X117877594Y-60796222D01*
X117796222Y-60877594D01*
X117732288Y-60973277D01*
X117688250Y-61079595D01*
X117665800Y-61192461D01*
X108986838Y-61192461D01*
X125917013Y-56358897D01*
X133374876Y-95835851D01*
M02*
