G04 #@! TF.GenerationSoftware,KiCad,Pcbnew,(5.1.4-0-10_14)*
G04 #@! TF.CreationDate,2020-01-14T22:28:18-05:00*
G04 #@! TF.ProjectId,throttle,7468726f-7474-46c6-952e-6b696361645f,rev?*
G04 #@! TF.SameCoordinates,Original*
G04 #@! TF.FileFunction,Legend,Top*
G04 #@! TF.FilePolarity,Positive*
%FSLAX46Y46*%
G04 Gerber Fmt 4.6, Leading zero omitted, Abs format (unit mm)*
G04 Created by KiCad (PCBNEW (5.1.4-0-10_14)) date 2020-01-14 22:28:18*
%MOMM*%
%LPD*%
G04 APERTURE LIST*
%ADD10C,0.150000*%
%ADD11C,0.120000*%
%ADD12C,0.100000*%
%ADD13C,0.500000*%
G04 APERTURE END LIST*
D10*
X116636661Y-92802600D02*
X116684280Y-92659742D01*
X116684280Y-92421647D01*
X116636661Y-92326409D01*
X116589042Y-92278790D01*
X116493804Y-92231171D01*
X116398566Y-92231171D01*
X116303328Y-92278790D01*
X116255709Y-92326409D01*
X116208090Y-92421647D01*
X116160471Y-92612123D01*
X116112852Y-92707361D01*
X116065233Y-92754980D01*
X115969995Y-92802600D01*
X115874757Y-92802600D01*
X115779519Y-92754980D01*
X115731900Y-92707361D01*
X115684280Y-92612123D01*
X115684280Y-92374028D01*
X115731900Y-92231171D01*
X116684280Y-91802600D02*
X116017614Y-91802600D01*
X116208090Y-91802600D02*
X116112852Y-91754980D01*
X116065233Y-91707361D01*
X116017614Y-91612123D01*
X116017614Y-91516885D01*
X116636661Y-90802600D02*
X116684280Y-90897838D01*
X116684280Y-91088314D01*
X116636661Y-91183552D01*
X116541423Y-91231171D01*
X116160471Y-91231171D01*
X116065233Y-91183552D01*
X116017614Y-91088314D01*
X116017614Y-90897838D01*
X116065233Y-90802600D01*
X116160471Y-90754980D01*
X116255709Y-90754980D01*
X116350947Y-91231171D01*
X116636661Y-89945457D02*
X116684280Y-90040695D01*
X116684280Y-90231171D01*
X116636661Y-90326409D01*
X116541423Y-90374028D01*
X116160471Y-90374028D01*
X116065233Y-90326409D01*
X116017614Y-90231171D01*
X116017614Y-90040695D01*
X116065233Y-89945457D01*
X116160471Y-89897838D01*
X116255709Y-89897838D01*
X116350947Y-90374028D01*
X116017614Y-89469266D02*
X116684280Y-89469266D01*
X116112852Y-89469266D02*
X116065233Y-89421647D01*
X116017614Y-89326409D01*
X116017614Y-89183552D01*
X116065233Y-89088314D01*
X116160471Y-89040695D01*
X116684280Y-89040695D01*
X116684280Y-88564504D02*
X116017614Y-88564504D01*
X115684280Y-88564504D02*
X115731900Y-88612123D01*
X115779519Y-88564504D01*
X115731900Y-88516885D01*
X115684280Y-88564504D01*
X115779519Y-88564504D01*
X116684280Y-87659742D02*
X115684280Y-87659742D01*
X116636661Y-87659742D02*
X116684280Y-87754980D01*
X116684280Y-87945457D01*
X116636661Y-88040695D01*
X116589042Y-88088314D01*
X116493804Y-88135933D01*
X116208090Y-88135933D01*
X116112852Y-88088314D01*
X116065233Y-88040695D01*
X116017614Y-87945457D01*
X116017614Y-87754980D01*
X116065233Y-87659742D01*
X116684280Y-87183552D02*
X115684280Y-87183552D01*
X116684280Y-86754980D02*
X116160471Y-86754980D01*
X116065233Y-86802600D01*
X116017614Y-86897838D01*
X116017614Y-87040695D01*
X116065233Y-87135933D01*
X116112852Y-87183552D01*
X116684280Y-86278790D02*
X116017614Y-86278790D01*
X115684280Y-86278790D02*
X115731900Y-86326409D01*
X115779519Y-86278790D01*
X115731900Y-86231171D01*
X115684280Y-86278790D01*
X115779519Y-86278790D01*
X116589042Y-84469266D02*
X116636661Y-84516885D01*
X116684280Y-84659742D01*
X116684280Y-84754980D01*
X116636661Y-84897838D01*
X116541423Y-84993076D01*
X116446185Y-85040695D01*
X116255709Y-85088314D01*
X116112852Y-85088314D01*
X115922376Y-85040695D01*
X115827138Y-84993076D01*
X115731900Y-84897838D01*
X115684280Y-84754980D01*
X115684280Y-84659742D01*
X115731900Y-84516885D01*
X115779519Y-84469266D01*
X116684280Y-84040695D02*
X115684280Y-84040695D01*
X116684280Y-83612123D02*
X116160471Y-83612123D01*
X116065233Y-83659742D01*
X116017614Y-83754980D01*
X116017614Y-83897838D01*
X116065233Y-83993076D01*
X116112852Y-84040695D01*
X116684280Y-82707361D02*
X116160471Y-82707361D01*
X116065233Y-82754980D01*
X116017614Y-82850219D01*
X116017614Y-83040695D01*
X116065233Y-83135933D01*
X116636661Y-82707361D02*
X116684280Y-82802600D01*
X116684280Y-83040695D01*
X116636661Y-83135933D01*
X116541423Y-83183552D01*
X116446185Y-83183552D01*
X116350947Y-83135933D01*
X116303328Y-83040695D01*
X116303328Y-82802600D01*
X116255709Y-82707361D01*
X116684280Y-82088314D02*
X116636661Y-82183552D01*
X116541423Y-82231171D01*
X115684280Y-82231171D01*
X116684280Y-81707361D02*
X116017614Y-81707361D01*
X115684280Y-81707361D02*
X115731900Y-81754980D01*
X115779519Y-81707361D01*
X115731900Y-81659742D01*
X115684280Y-81707361D01*
X115779519Y-81707361D01*
X116684280Y-81231171D02*
X116017614Y-81231171D01*
X116112852Y-81231171D02*
X116065233Y-81183552D01*
X116017614Y-81088314D01*
X116017614Y-80945457D01*
X116065233Y-80850219D01*
X116160471Y-80802600D01*
X116684280Y-80802600D01*
X116160471Y-80802600D02*
X116065233Y-80754980D01*
X116017614Y-80659742D01*
X116017614Y-80516885D01*
X116065233Y-80421647D01*
X116160471Y-80374028D01*
X116684280Y-80374028D01*
X116684280Y-79469266D02*
X116160471Y-79469266D01*
X116065233Y-79516885D01*
X116017614Y-79612123D01*
X116017614Y-79802600D01*
X116065233Y-79897838D01*
X116636661Y-79469266D02*
X116684280Y-79564504D01*
X116684280Y-79802600D01*
X116636661Y-79897838D01*
X116541423Y-79945457D01*
X116446185Y-79945457D01*
X116350947Y-79897838D01*
X116303328Y-79802600D01*
X116303328Y-79564504D01*
X116255709Y-79469266D01*
X116684280Y-78564504D02*
X115684280Y-78564504D01*
X116636661Y-78564504D02*
X116684280Y-78659742D01*
X116684280Y-78850219D01*
X116636661Y-78945457D01*
X116589042Y-78993076D01*
X116493804Y-79040695D01*
X116208090Y-79040695D01*
X116112852Y-78993076D01*
X116065233Y-78945457D01*
X116017614Y-78850219D01*
X116017614Y-78659742D01*
X116065233Y-78564504D01*
X116017614Y-77659742D02*
X116684280Y-77659742D01*
X116017614Y-78088314D02*
X116541423Y-78088314D01*
X116636661Y-78040695D01*
X116684280Y-77945457D01*
X116684280Y-77802600D01*
X116636661Y-77707361D01*
X116589042Y-77659742D01*
X116017614Y-76754980D02*
X116827138Y-76754980D01*
X116922376Y-76802600D01*
X116969995Y-76850219D01*
X117017614Y-76945457D01*
X117017614Y-77088314D01*
X116969995Y-77183552D01*
X116636661Y-76754980D02*
X116684280Y-76850219D01*
X116684280Y-77040695D01*
X116636661Y-77135933D01*
X116589042Y-77183552D01*
X116493804Y-77231171D01*
X116208090Y-77231171D01*
X116112852Y-77183552D01*
X116065233Y-77135933D01*
X116017614Y-77040695D01*
X116017614Y-76850219D01*
X116065233Y-76754980D01*
X116017614Y-75850219D02*
X116684280Y-75850219D01*
X116017614Y-76278790D02*
X116541423Y-76278790D01*
X116636661Y-76231171D01*
X116684280Y-76135933D01*
X116684280Y-75993076D01*
X116636661Y-75897838D01*
X116589042Y-75850219D01*
X117334280Y-91159742D02*
X117334280Y-90588314D01*
X118334280Y-90874028D02*
X117334280Y-90874028D01*
X118334280Y-90254980D02*
X117334280Y-90254980D01*
X118334280Y-89826409D02*
X117810471Y-89826409D01*
X117715233Y-89874028D01*
X117667614Y-89969266D01*
X117667614Y-90112123D01*
X117715233Y-90207361D01*
X117762852Y-90254980D01*
X118334280Y-89350219D02*
X117667614Y-89350219D01*
X117858090Y-89350219D02*
X117762852Y-89302600D01*
X117715233Y-89254980D01*
X117667614Y-89159742D01*
X117667614Y-89064504D01*
X118334280Y-88588314D02*
X118286661Y-88683552D01*
X118239042Y-88731171D01*
X118143804Y-88778790D01*
X117858090Y-88778790D01*
X117762852Y-88731171D01*
X117715233Y-88683552D01*
X117667614Y-88588314D01*
X117667614Y-88445457D01*
X117715233Y-88350219D01*
X117762852Y-88302600D01*
X117858090Y-88254980D01*
X118143804Y-88254980D01*
X118239042Y-88302600D01*
X118286661Y-88350219D01*
X118334280Y-88445457D01*
X118334280Y-88588314D01*
X117667614Y-87969266D02*
X117667614Y-87588314D01*
X117334280Y-87826409D02*
X118191423Y-87826409D01*
X118286661Y-87778790D01*
X118334280Y-87683552D01*
X118334280Y-87588314D01*
X117667614Y-87397838D02*
X117667614Y-87016885D01*
X117334280Y-87254980D02*
X118191423Y-87254980D01*
X118286661Y-87207361D01*
X118334280Y-87112123D01*
X118334280Y-87016885D01*
X118334280Y-86540695D02*
X118286661Y-86635933D01*
X118191423Y-86683552D01*
X117334280Y-86683552D01*
X118286661Y-85778790D02*
X118334280Y-85874028D01*
X118334280Y-86064504D01*
X118286661Y-86159742D01*
X118191423Y-86207361D01*
X117810471Y-86207361D01*
X117715233Y-86159742D01*
X117667614Y-86064504D01*
X117667614Y-85874028D01*
X117715233Y-85778790D01*
X117810471Y-85731171D01*
X117905709Y-85731171D01*
X118000947Y-86207361D01*
X118239042Y-83969266D02*
X118286661Y-84016885D01*
X118334280Y-84159742D01*
X118334280Y-84254980D01*
X118286661Y-84397838D01*
X118191423Y-84493076D01*
X118096185Y-84540695D01*
X117905709Y-84588314D01*
X117762852Y-84588314D01*
X117572376Y-84540695D01*
X117477138Y-84493076D01*
X117381900Y-84397838D01*
X117334280Y-84254980D01*
X117334280Y-84159742D01*
X117381900Y-84016885D01*
X117429519Y-83969266D01*
X118334280Y-83397838D02*
X118286661Y-83493076D01*
X118239042Y-83540695D01*
X118143804Y-83588314D01*
X117858090Y-83588314D01*
X117762852Y-83540695D01*
X117715233Y-83493076D01*
X117667614Y-83397838D01*
X117667614Y-83254980D01*
X117715233Y-83159742D01*
X117762852Y-83112123D01*
X117858090Y-83064504D01*
X118143804Y-83064504D01*
X118239042Y-83112123D01*
X118286661Y-83159742D01*
X118334280Y-83254980D01*
X118334280Y-83397838D01*
X117667614Y-82635933D02*
X118334280Y-82635933D01*
X117762852Y-82635933D02*
X117715233Y-82588314D01*
X117667614Y-82493076D01*
X117667614Y-82350219D01*
X117715233Y-82254980D01*
X117810471Y-82207361D01*
X118334280Y-82207361D01*
X117667614Y-81874028D02*
X117667614Y-81493076D01*
X117334280Y-81731171D02*
X118191423Y-81731171D01*
X118286661Y-81683552D01*
X118334280Y-81588314D01*
X118334280Y-81493076D01*
X118334280Y-81159742D02*
X117667614Y-81159742D01*
X117858090Y-81159742D02*
X117762852Y-81112123D01*
X117715233Y-81064504D01*
X117667614Y-80969266D01*
X117667614Y-80874028D01*
X118334280Y-80397838D02*
X118286661Y-80493076D01*
X118239042Y-80540695D01*
X118143804Y-80588314D01*
X117858090Y-80588314D01*
X117762852Y-80540695D01*
X117715233Y-80493076D01*
X117667614Y-80397838D01*
X117667614Y-80254980D01*
X117715233Y-80159742D01*
X117762852Y-80112123D01*
X117858090Y-80064504D01*
X118143804Y-80064504D01*
X118239042Y-80112123D01*
X118286661Y-80159742D01*
X118334280Y-80254980D01*
X118334280Y-80397838D01*
X118334280Y-79493076D02*
X118286661Y-79588314D01*
X118191423Y-79635933D01*
X117334280Y-79635933D01*
X118334280Y-78969266D02*
X118286661Y-79064504D01*
X118191423Y-79112123D01*
X117334280Y-79112123D01*
X118286661Y-78207361D02*
X118334280Y-78302600D01*
X118334280Y-78493076D01*
X118286661Y-78588314D01*
X118191423Y-78635933D01*
X117810471Y-78635933D01*
X117715233Y-78588314D01*
X117667614Y-78493076D01*
X117667614Y-78302600D01*
X117715233Y-78207361D01*
X117810471Y-78159742D01*
X117905709Y-78159742D01*
X118000947Y-78635933D01*
X118334280Y-77731171D02*
X117667614Y-77731171D01*
X117858090Y-77731171D02*
X117762852Y-77683552D01*
X117715233Y-77635933D01*
X117667614Y-77540695D01*
X117667614Y-77445457D01*
X119984280Y-89278790D02*
X119508090Y-89612123D01*
X119984280Y-89850219D02*
X118984280Y-89850219D01*
X118984280Y-89469266D01*
X119031900Y-89374028D01*
X119079519Y-89326409D01*
X119174757Y-89278790D01*
X119317614Y-89278790D01*
X119412852Y-89326409D01*
X119460471Y-89374028D01*
X119508090Y-89469266D01*
X119508090Y-89850219D01*
X119936661Y-88469266D02*
X119984280Y-88564504D01*
X119984280Y-88754980D01*
X119936661Y-88850219D01*
X119841423Y-88897838D01*
X119460471Y-88897838D01*
X119365233Y-88850219D01*
X119317614Y-88754980D01*
X119317614Y-88564504D01*
X119365233Y-88469266D01*
X119460471Y-88421647D01*
X119555709Y-88421647D01*
X119650947Y-88897838D01*
X119317614Y-88088314D02*
X119984280Y-87850219D01*
X119317614Y-87612123D01*
X119984280Y-85945457D02*
X119984280Y-86516885D01*
X119984280Y-86231171D02*
X118984280Y-86231171D01*
X119127138Y-86326409D01*
X119222376Y-86421647D01*
X119269995Y-86516885D01*
X120317614Y-84516885D02*
X118889042Y-84516885D01*
X119984280Y-82516885D02*
X119984280Y-83088314D01*
X119984280Y-82802600D02*
X118984280Y-82802600D01*
X119127138Y-82897838D01*
X119222376Y-82993076D01*
X119269995Y-83088314D01*
X119889042Y-82088314D02*
X119936661Y-82040695D01*
X119984280Y-82088314D01*
X119936661Y-82135933D01*
X119889042Y-82088314D01*
X119984280Y-82088314D01*
X119317614Y-81183552D02*
X119984280Y-81183552D01*
X118936661Y-81421647D02*
X119650947Y-81659742D01*
X119650947Y-81040695D01*
X119889042Y-80659742D02*
X119936661Y-80612123D01*
X119984280Y-80659742D01*
X119936661Y-80707361D01*
X119889042Y-80659742D01*
X119984280Y-80659742D01*
X119079519Y-80231171D02*
X119031900Y-80183552D01*
X118984280Y-80088314D01*
X118984280Y-79850219D01*
X119031900Y-79754980D01*
X119079519Y-79707361D01*
X119174757Y-79659742D01*
X119269995Y-79659742D01*
X119412852Y-79707361D01*
X119984280Y-80278790D01*
X119984280Y-79659742D01*
X118984280Y-79040695D02*
X118984280Y-78945457D01*
X119031900Y-78850219D01*
X119079519Y-78802600D01*
X119174757Y-78754980D01*
X119365233Y-78707361D01*
X119603328Y-78707361D01*
X119793804Y-78754980D01*
X119889042Y-78802600D01*
X119936661Y-78850219D01*
X119984280Y-78945457D01*
X119984280Y-79040695D01*
X119936661Y-79135933D01*
X119889042Y-79183552D01*
X119793804Y-79231171D01*
X119603328Y-79278790D01*
X119365233Y-79278790D01*
X119174757Y-79231171D01*
X119079519Y-79183552D01*
X119031900Y-79135933D01*
X118984280Y-79040695D01*
X120634280Y-88302600D02*
X120634280Y-88112123D01*
X120681900Y-88016885D01*
X120777138Y-87921647D01*
X120967614Y-87874028D01*
X121300947Y-87874028D01*
X121491423Y-87921647D01*
X121586661Y-88016885D01*
X121634280Y-88112123D01*
X121634280Y-88302600D01*
X121586661Y-88397838D01*
X121491423Y-88493076D01*
X121300947Y-88540695D01*
X120967614Y-88540695D01*
X120777138Y-88493076D01*
X120681900Y-88397838D01*
X120634280Y-88302600D01*
X121110471Y-87445457D02*
X121110471Y-87112123D01*
X121634280Y-86969266D02*
X121634280Y-87445457D01*
X120634280Y-87445457D01*
X120634280Y-86969266D01*
X121634280Y-86540695D02*
X120634280Y-86540695D01*
X121348566Y-86207361D01*
X120634280Y-85874028D01*
X121634280Y-85874028D01*
X121253328Y-84635933D02*
X121253328Y-83874028D01*
X121634280Y-82635933D02*
X120634280Y-82635933D01*
X121348566Y-82302600D01*
X120634280Y-81969266D01*
X121634280Y-81969266D01*
X121634280Y-81493076D02*
X120634280Y-81493076D01*
X121634280Y-80921647D02*
X121062852Y-81350219D01*
X120634280Y-80921647D02*
X121205709Y-81493076D01*
X120634280Y-80635933D02*
X121634280Y-80302600D01*
X120634280Y-79969266D01*
D11*
X116932000Y-70984000D02*
X115732000Y-70984000D01*
X115732000Y-69224000D02*
X116932000Y-69224000D01*
X97518000Y-88836000D02*
X98718000Y-88836000D01*
X98718000Y-90596000D02*
X97518000Y-90596000D01*
X104689000Y-88726000D02*
X105889000Y-88726000D01*
X105889000Y-90486000D02*
X104689000Y-90486000D01*
X87094800Y-84494800D02*
X87094800Y-83494800D01*
X85394800Y-83494800D02*
X85394800Y-84494800D01*
X120404000Y-59094000D02*
X119404000Y-59094000D01*
X119404000Y-60794000D02*
X120404000Y-60794000D01*
X78258800Y-74491800D02*
X77258800Y-74491800D01*
X77258800Y-76191800D02*
X78258800Y-76191800D01*
X78650000Y-72325000D02*
X77650000Y-72325000D01*
X77650000Y-74025000D02*
X78650000Y-74025000D01*
X104532800Y-76103100D02*
X104532800Y-75103100D01*
X102832800Y-75103100D02*
X102832800Y-76103100D01*
X100185600Y-79831300D02*
X101185600Y-79831300D01*
X101185600Y-78131300D02*
X100185600Y-78131300D01*
X82175000Y-71250000D02*
X83175000Y-71250000D01*
X83175000Y-69550000D02*
X82175000Y-69550000D01*
D12*
X105975000Y-69125000D02*
X105975000Y-69475000D01*
X105975000Y-69475000D02*
X105975000Y-69825000D01*
X105625000Y-69125000D02*
X105975000Y-69475000D01*
X105625000Y-69175000D02*
X105625000Y-69125000D01*
X105625000Y-69125000D02*
X105625000Y-69175000D01*
X105625000Y-69825000D02*
X105625000Y-69175000D01*
X105675000Y-69775000D02*
X105625000Y-69825000D01*
X105975000Y-69475000D02*
X105675000Y-69775000D01*
D11*
X107575000Y-70175000D02*
X107575000Y-68775000D01*
X107575000Y-68775000D02*
X104775000Y-68775000D01*
X107575000Y-70175000D02*
X104775000Y-70175000D01*
D12*
X105950000Y-66725000D02*
X105950000Y-67075000D01*
X105950000Y-67075000D02*
X105950000Y-67425000D01*
X105600000Y-66725000D02*
X105950000Y-67075000D01*
X105600000Y-66775000D02*
X105600000Y-66725000D01*
X105600000Y-66725000D02*
X105600000Y-66775000D01*
X105600000Y-67425000D02*
X105600000Y-66775000D01*
X105650000Y-67375000D02*
X105600000Y-67425000D01*
X105950000Y-67075000D02*
X105650000Y-67375000D01*
D11*
X107550000Y-67775000D02*
X107550000Y-66375000D01*
X107550000Y-66375000D02*
X104750000Y-66375000D01*
X107550000Y-67775000D02*
X104750000Y-67775000D01*
X107550000Y-65350000D02*
X104750000Y-65350000D01*
X107550000Y-63950000D02*
X104750000Y-63950000D01*
X107550000Y-65350000D02*
X107550000Y-63950000D01*
D12*
X105950000Y-64650000D02*
X105650000Y-64950000D01*
X105650000Y-64950000D02*
X105600000Y-65000000D01*
X105600000Y-65000000D02*
X105600000Y-64350000D01*
X105600000Y-64300000D02*
X105600000Y-64350000D01*
X105600000Y-64350000D02*
X105600000Y-64300000D01*
X105600000Y-64300000D02*
X105950000Y-64650000D01*
X105950000Y-64650000D02*
X105950000Y-65000000D01*
X105950000Y-64300000D02*
X105950000Y-64650000D01*
X102859000Y-88736000D02*
X102509000Y-88736000D01*
X102509000Y-88736000D02*
X102159000Y-88736000D01*
X102859000Y-88386000D02*
X102509000Y-88736000D01*
X102809000Y-88386000D02*
X102859000Y-88386000D01*
X102859000Y-88386000D02*
X102809000Y-88386000D01*
X102159000Y-88386000D02*
X102809000Y-88386000D01*
X102209000Y-88436000D02*
X102159000Y-88386000D01*
X102509000Y-88736000D02*
X102209000Y-88436000D01*
D11*
X101809000Y-90336000D02*
X103209000Y-90336000D01*
X103209000Y-90336000D02*
X103209000Y-87536000D01*
X101809000Y-90336000D02*
X101809000Y-87536000D01*
D12*
X95668000Y-88871000D02*
X95318000Y-88871000D01*
X95318000Y-88871000D02*
X94968000Y-88871000D01*
X95668000Y-88521000D02*
X95318000Y-88871000D01*
X95618000Y-88521000D02*
X95668000Y-88521000D01*
X95668000Y-88521000D02*
X95618000Y-88521000D01*
X94968000Y-88521000D02*
X95618000Y-88521000D01*
X95018000Y-88571000D02*
X94968000Y-88521000D01*
X95318000Y-88871000D02*
X95018000Y-88571000D01*
D11*
X94618000Y-90471000D02*
X96018000Y-90471000D01*
X96018000Y-90471000D02*
X96018000Y-87671000D01*
X94618000Y-90471000D02*
X94618000Y-87671000D01*
X87175000Y-90525000D02*
X87175000Y-87725000D01*
X88575000Y-90525000D02*
X88575000Y-87725000D01*
X87175000Y-90525000D02*
X88575000Y-90525000D01*
D12*
X87875000Y-88925000D02*
X87575000Y-88625000D01*
X87575000Y-88625000D02*
X87525000Y-88575000D01*
X87525000Y-88575000D02*
X88175000Y-88575000D01*
X88225000Y-88575000D02*
X88175000Y-88575000D01*
X88175000Y-88575000D02*
X88225000Y-88575000D01*
X88225000Y-88575000D02*
X87875000Y-88925000D01*
X87875000Y-88925000D02*
X87525000Y-88925000D01*
X88225000Y-88925000D02*
X87875000Y-88925000D01*
D13*
X89261054Y-73067285D02*
G75*
G03X89261054Y-73067285I-50801J0D01*
G01*
X86926186Y-72923600D02*
G75*
G03X86926186Y-72923600I-50800J0D01*
G01*
D10*
X87837476Y-73049324D02*
X87996575Y-73208423D01*
X92964000Y-67922800D02*
X93193810Y-68152610D01*
X98090524Y-73049324D02*
X97860714Y-72819514D01*
X92964000Y-78175848D02*
X92734190Y-77946038D01*
X87837476Y-73049324D02*
X88067286Y-72819514D01*
X92964000Y-78175848D02*
X93193810Y-77946038D01*
X98090524Y-73049324D02*
X97860714Y-73279134D01*
X92964000Y-67922800D02*
X92734190Y-68152610D01*
X87996575Y-73208423D02*
X86988948Y-74216050D01*
X79248000Y-83820000D02*
X76708000Y-83820000D01*
X76708000Y-83820000D02*
X76708000Y-86360000D01*
X76428000Y-89180000D02*
X77978000Y-89180000D01*
X84328000Y-83820000D02*
X79248000Y-83820000D01*
X84328000Y-88900000D02*
X84328000Y-83820000D01*
X79248000Y-86360000D02*
X79248000Y-88900000D01*
X76708000Y-86360000D02*
X79248000Y-86360000D01*
X76428000Y-89180000D02*
X76428000Y-87630000D01*
X79248000Y-88900000D02*
X84328000Y-88900000D01*
D11*
X102554000Y-91026000D02*
X104014000Y-91026000D01*
X102554000Y-94186000D02*
X104714000Y-94186000D01*
X102554000Y-94186000D02*
X102554000Y-93256000D01*
X102554000Y-91026000D02*
X102554000Y-91956000D01*
X97648000Y-91981000D02*
X97648000Y-93441000D01*
X94488000Y-91981000D02*
X94488000Y-94141000D01*
X94488000Y-91981000D02*
X95418000Y-91981000D01*
X97648000Y-91981000D02*
X96718000Y-91981000D01*
X90244000Y-91876000D02*
X89314000Y-91876000D01*
X87084000Y-91876000D02*
X88014000Y-91876000D01*
X87084000Y-91876000D02*
X87084000Y-94036000D01*
X90244000Y-91876000D02*
X90244000Y-93336000D01*
X91920000Y-84650000D02*
X91920000Y-83450000D01*
X93680000Y-83450000D02*
X93680000Y-84650000D01*
X107112221Y-77565000D02*
X107437779Y-77565000D01*
X107112221Y-78585000D02*
X107437779Y-78585000D01*
X108015500Y-75054679D02*
X108015500Y-74729121D01*
X106995500Y-75054679D02*
X106995500Y-74729121D01*
X96149721Y-84565000D02*
X96475279Y-84565000D01*
X96149721Y-85585000D02*
X96475279Y-85585000D01*
X96950000Y-83780000D02*
X95750000Y-83780000D01*
X95750000Y-82020000D02*
X96950000Y-82020000D01*
X101359000Y-68566000D02*
X102559000Y-68566000D01*
X102559000Y-70326000D02*
X101359000Y-70326000D01*
X102525000Y-67905000D02*
X101325000Y-67905000D01*
X101325000Y-66145000D02*
X102525000Y-66145000D01*
X101300000Y-63795000D02*
X102500000Y-63795000D01*
X102500000Y-65555000D02*
X101300000Y-65555000D01*
X116143721Y-68836000D02*
X116469279Y-68836000D01*
X116143721Y-67816000D02*
X116469279Y-67816000D01*
X116932000Y-67428000D02*
X115732000Y-67428000D01*
X115732000Y-65668000D02*
X116932000Y-65668000D01*
X105914000Y-88311000D02*
X104714000Y-88311000D01*
X104714000Y-86551000D02*
X105914000Y-86551000D01*
X105534000Y-93206000D02*
X105534000Y-92006000D01*
X107294000Y-92006000D02*
X107294000Y-93206000D01*
X97518000Y-86686000D02*
X98718000Y-86686000D01*
X98718000Y-88446000D02*
X97518000Y-88446000D01*
X98188000Y-93216000D02*
X98188000Y-92016000D01*
X99948000Y-92016000D02*
X99948000Y-93216000D01*
X90025000Y-86795000D02*
X91225000Y-86795000D01*
X91225000Y-88555000D02*
X90025000Y-88555000D01*
X91214000Y-90566000D02*
X90014000Y-90566000D01*
X90014000Y-88806000D02*
X91214000Y-88806000D01*
X90734000Y-93211000D02*
X90734000Y-92011000D01*
X92494000Y-92011000D02*
X92494000Y-93211000D01*
X77860000Y-79594000D02*
X77860000Y-78394000D01*
X79620000Y-78394000D02*
X79620000Y-79594000D01*
X75828000Y-79528000D02*
X75828000Y-78328000D01*
X77588000Y-78328000D02*
X77588000Y-79528000D01*
X82180000Y-79700000D02*
X82180000Y-80900000D01*
X80420000Y-80900000D02*
X80420000Y-79700000D01*
X106350000Y-72980000D02*
X105150000Y-72980000D01*
X105150000Y-71220000D02*
X106350000Y-71220000D01*
X101475000Y-71220000D02*
X102675000Y-71220000D01*
X102675000Y-72980000D02*
X101475000Y-72980000D01*
X87798000Y-83090000D02*
X87798000Y-85540000D01*
X91018000Y-84890000D02*
X91018000Y-83090000D01*
X117754000Y-62960000D02*
X117754000Y-61160000D01*
X114534000Y-61160000D02*
X114534000Y-63610000D01*
D10*
X83846447Y-79988047D02*
X83881802Y-79952691D01*
X80911953Y-77053553D02*
X81014484Y-76951023D01*
X84553553Y-73411953D02*
X84451023Y-73514484D01*
X87488047Y-76346447D02*
X87385516Y-76448977D01*
X83846447Y-79988047D02*
X80911953Y-77053553D01*
X87488047Y-76346447D02*
X84553553Y-73411953D01*
X83881802Y-79952691D02*
X84871751Y-80942641D01*
D12*
X102552300Y-74009500D02*
X102552300Y-76009500D01*
X102552300Y-74009500D02*
X100952300Y-74009500D01*
D10*
X116165333Y-72080380D02*
X115832000Y-71604190D01*
X115593904Y-72080380D02*
X115593904Y-71080380D01*
X115974857Y-71080380D01*
X116070095Y-71128000D01*
X116117714Y-71175619D01*
X116165333Y-71270857D01*
X116165333Y-71413714D01*
X116117714Y-71508952D01*
X116070095Y-71556571D01*
X115974857Y-71604190D01*
X115593904Y-71604190D01*
X116641523Y-72080380D02*
X116832000Y-72080380D01*
X116927238Y-72032761D01*
X116974857Y-71985142D01*
X117070095Y-71842285D01*
X117117714Y-71651809D01*
X117117714Y-71270857D01*
X117070095Y-71175619D01*
X117022476Y-71128000D01*
X116927238Y-71080380D01*
X116736761Y-71080380D01*
X116641523Y-71128000D01*
X116593904Y-71175619D01*
X116546285Y-71270857D01*
X116546285Y-71508952D01*
X116593904Y-71604190D01*
X116641523Y-71651809D01*
X116736761Y-71699428D01*
X116927238Y-71699428D01*
X117022476Y-71651809D01*
X117070095Y-71604190D01*
X117117714Y-71508952D01*
X100977380Y-90442857D02*
X100501190Y-90776190D01*
X100977380Y-91014285D02*
X99977380Y-91014285D01*
X99977380Y-90633333D01*
X100025000Y-90538095D01*
X100072619Y-90490476D01*
X100167857Y-90442857D01*
X100310714Y-90442857D01*
X100405952Y-90490476D01*
X100453571Y-90538095D01*
X100501190Y-90633333D01*
X100501190Y-91014285D01*
X100977380Y-89490476D02*
X100977380Y-90061904D01*
X100977380Y-89776190D02*
X99977380Y-89776190D01*
X100120238Y-89871428D01*
X100215476Y-89966666D01*
X100263095Y-90061904D01*
X100977380Y-89014285D02*
X100977380Y-88823809D01*
X100929761Y-88728571D01*
X100882142Y-88680952D01*
X100739285Y-88585714D01*
X100548809Y-88538095D01*
X100167857Y-88538095D01*
X100072619Y-88585714D01*
X100025000Y-88633333D01*
X99977380Y-88728571D01*
X99977380Y-88919047D01*
X100025000Y-89014285D01*
X100072619Y-89061904D01*
X100167857Y-89109523D01*
X100405952Y-89109523D01*
X100501190Y-89061904D01*
X100548809Y-89014285D01*
X100596428Y-88919047D01*
X100596428Y-88728571D01*
X100548809Y-88633333D01*
X100501190Y-88585714D01*
X100405952Y-88538095D01*
X108281380Y-90248857D02*
X107805190Y-90582190D01*
X108281380Y-90820285D02*
X107281380Y-90820285D01*
X107281380Y-90439333D01*
X107329000Y-90344095D01*
X107376619Y-90296476D01*
X107471857Y-90248857D01*
X107614714Y-90248857D01*
X107709952Y-90296476D01*
X107757571Y-90344095D01*
X107805190Y-90439333D01*
X107805190Y-90820285D01*
X108281380Y-89296476D02*
X108281380Y-89867904D01*
X108281380Y-89582190D02*
X107281380Y-89582190D01*
X107424238Y-89677428D01*
X107519476Y-89772666D01*
X107567095Y-89867904D01*
X107281380Y-88391714D02*
X107281380Y-88867904D01*
X107757571Y-88915523D01*
X107709952Y-88867904D01*
X107662333Y-88772666D01*
X107662333Y-88534571D01*
X107709952Y-88439333D01*
X107757571Y-88391714D01*
X107852809Y-88344095D01*
X108090904Y-88344095D01*
X108186142Y-88391714D01*
X108233761Y-88439333D01*
X108281380Y-88534571D01*
X108281380Y-88772666D01*
X108233761Y-88867904D01*
X108186142Y-88915523D01*
X85948133Y-81926942D02*
X85900514Y-81974561D01*
X85757657Y-82022180D01*
X85662419Y-82022180D01*
X85519561Y-81974561D01*
X85424323Y-81879323D01*
X85376704Y-81784085D01*
X85329085Y-81593609D01*
X85329085Y-81450752D01*
X85376704Y-81260276D01*
X85424323Y-81165038D01*
X85519561Y-81069800D01*
X85662419Y-81022180D01*
X85757657Y-81022180D01*
X85900514Y-81069800D01*
X85948133Y-81117419D01*
X86900514Y-82022180D02*
X86329085Y-82022180D01*
X86614800Y-82022180D02*
X86614800Y-81022180D01*
X86519561Y-81165038D01*
X86424323Y-81260276D01*
X86329085Y-81307895D01*
X120229333Y-58777142D02*
X120181714Y-58824761D01*
X120038857Y-58872380D01*
X119943619Y-58872380D01*
X119800761Y-58824761D01*
X119705523Y-58729523D01*
X119657904Y-58634285D01*
X119610285Y-58443809D01*
X119610285Y-58300952D01*
X119657904Y-58110476D01*
X119705523Y-58015238D01*
X119800761Y-57920000D01*
X119943619Y-57872380D01*
X120038857Y-57872380D01*
X120181714Y-57920000D01*
X120229333Y-57967619D01*
X120610285Y-57967619D02*
X120657904Y-57920000D01*
X120753142Y-57872380D01*
X120991238Y-57872380D01*
X121086476Y-57920000D01*
X121134095Y-57967619D01*
X121181714Y-58062857D01*
X121181714Y-58158095D01*
X121134095Y-58300952D01*
X120562666Y-58872380D01*
X121181714Y-58872380D01*
X77612133Y-77065142D02*
X77564514Y-77112761D01*
X77421657Y-77160380D01*
X77326419Y-77160380D01*
X77183561Y-77112761D01*
X77088323Y-77017523D01*
X77040704Y-76922285D01*
X76993085Y-76731809D01*
X76993085Y-76588952D01*
X77040704Y-76398476D01*
X77088323Y-76303238D01*
X77183561Y-76208000D01*
X77326419Y-76160380D01*
X77421657Y-76160380D01*
X77564514Y-76208000D01*
X77612133Y-76255619D01*
X78469276Y-76160380D02*
X78278800Y-76160380D01*
X78183561Y-76208000D01*
X78135942Y-76255619D01*
X78040704Y-76398476D01*
X77993085Y-76588952D01*
X77993085Y-76969904D01*
X78040704Y-77065142D01*
X78088323Y-77112761D01*
X78183561Y-77160380D01*
X78374038Y-77160380D01*
X78469276Y-77112761D01*
X78516895Y-77065142D01*
X78564514Y-76969904D01*
X78564514Y-76731809D01*
X78516895Y-76636571D01*
X78469276Y-76588952D01*
X78374038Y-76541333D01*
X78183561Y-76541333D01*
X78088323Y-76588952D01*
X78040704Y-76636571D01*
X77993085Y-76731809D01*
X77853333Y-71902142D02*
X77805714Y-71949761D01*
X77662857Y-71997380D01*
X77567619Y-71997380D01*
X77424761Y-71949761D01*
X77329523Y-71854523D01*
X77281904Y-71759285D01*
X77234285Y-71568809D01*
X77234285Y-71425952D01*
X77281904Y-71235476D01*
X77329523Y-71140238D01*
X77424761Y-71045000D01*
X77567619Y-70997380D01*
X77662857Y-70997380D01*
X77805714Y-71045000D01*
X77853333Y-71092619D01*
X78186666Y-70997380D02*
X78853333Y-70997380D01*
X78424761Y-71997380D01*
X103566933Y-78462142D02*
X103519314Y-78509761D01*
X103376457Y-78557380D01*
X103281219Y-78557380D01*
X103138361Y-78509761D01*
X103043123Y-78414523D01*
X102995504Y-78319285D01*
X102947885Y-78128809D01*
X102947885Y-77985952D01*
X102995504Y-77795476D01*
X103043123Y-77700238D01*
X103138361Y-77605000D01*
X103281219Y-77557380D01*
X103376457Y-77557380D01*
X103519314Y-77605000D01*
X103566933Y-77652619D01*
X104138361Y-77985952D02*
X104043123Y-77938333D01*
X103995504Y-77890714D01*
X103947885Y-77795476D01*
X103947885Y-77747857D01*
X103995504Y-77652619D01*
X104043123Y-77605000D01*
X104138361Y-77557380D01*
X104328838Y-77557380D01*
X104424076Y-77605000D01*
X104471695Y-77652619D01*
X104519314Y-77747857D01*
X104519314Y-77795476D01*
X104471695Y-77890714D01*
X104424076Y-77938333D01*
X104328838Y-77985952D01*
X104138361Y-77985952D01*
X104043123Y-78033571D01*
X103995504Y-78081190D01*
X103947885Y-78176428D01*
X103947885Y-78366904D01*
X103995504Y-78462142D01*
X104043123Y-78509761D01*
X104138361Y-78557380D01*
X104328838Y-78557380D01*
X104424076Y-78509761D01*
X104471695Y-78462142D01*
X104519314Y-78366904D01*
X104519314Y-78176428D01*
X104471695Y-78081190D01*
X104424076Y-78033571D01*
X104328838Y-77985952D01*
X103605033Y-79782942D02*
X103557414Y-79830561D01*
X103414557Y-79878180D01*
X103319319Y-79878180D01*
X103176461Y-79830561D01*
X103081223Y-79735323D01*
X103033604Y-79640085D01*
X102985985Y-79449609D01*
X102985985Y-79306752D01*
X103033604Y-79116276D01*
X103081223Y-79021038D01*
X103176461Y-78925800D01*
X103319319Y-78878180D01*
X103414557Y-78878180D01*
X103557414Y-78925800D01*
X103605033Y-78973419D01*
X104081223Y-79878180D02*
X104271700Y-79878180D01*
X104366938Y-79830561D01*
X104414557Y-79782942D01*
X104509795Y-79640085D01*
X104557414Y-79449609D01*
X104557414Y-79068657D01*
X104509795Y-78973419D01*
X104462176Y-78925800D01*
X104366938Y-78878180D01*
X104176461Y-78878180D01*
X104081223Y-78925800D01*
X104033604Y-78973419D01*
X103985985Y-79068657D01*
X103985985Y-79306752D01*
X104033604Y-79401990D01*
X104081223Y-79449609D01*
X104176461Y-79497228D01*
X104366938Y-79497228D01*
X104462176Y-79449609D01*
X104509795Y-79401990D01*
X104557414Y-79306752D01*
X80632142Y-71317857D02*
X80679761Y-71365476D01*
X80727380Y-71508333D01*
X80727380Y-71603571D01*
X80679761Y-71746428D01*
X80584523Y-71841666D01*
X80489285Y-71889285D01*
X80298809Y-71936904D01*
X80155952Y-71936904D01*
X79965476Y-71889285D01*
X79870238Y-71841666D01*
X79775000Y-71746428D01*
X79727380Y-71603571D01*
X79727380Y-71508333D01*
X79775000Y-71365476D01*
X79822619Y-71317857D01*
X80727380Y-70365476D02*
X80727380Y-70936904D01*
X80727380Y-70651190D02*
X79727380Y-70651190D01*
X79870238Y-70746428D01*
X79965476Y-70841666D01*
X80013095Y-70936904D01*
X79727380Y-69746428D02*
X79727380Y-69651190D01*
X79775000Y-69555952D01*
X79822619Y-69508333D01*
X79917857Y-69460714D01*
X80108333Y-69413095D01*
X80346428Y-69413095D01*
X80536904Y-69460714D01*
X80632142Y-69508333D01*
X80679761Y-69555952D01*
X80727380Y-69651190D01*
X80727380Y-69746428D01*
X80679761Y-69841666D01*
X80632142Y-69889285D01*
X80536904Y-69936904D01*
X80346428Y-69984523D01*
X80108333Y-69984523D01*
X79917857Y-69936904D01*
X79822619Y-69889285D01*
X79775000Y-69841666D01*
X79727380Y-69746428D01*
X107961904Y-69977380D02*
X107961904Y-68977380D01*
X108200000Y-68977380D01*
X108342857Y-69025000D01*
X108438095Y-69120238D01*
X108485714Y-69215476D01*
X108533333Y-69405952D01*
X108533333Y-69548809D01*
X108485714Y-69739285D01*
X108438095Y-69834523D01*
X108342857Y-69929761D01*
X108200000Y-69977380D01*
X107961904Y-69977380D01*
X109485714Y-69977380D02*
X108914285Y-69977380D01*
X109200000Y-69977380D02*
X109200000Y-68977380D01*
X109104761Y-69120238D01*
X109009523Y-69215476D01*
X108914285Y-69263095D01*
X107961904Y-67577380D02*
X107961904Y-66577380D01*
X108200000Y-66577380D01*
X108342857Y-66625000D01*
X108438095Y-66720238D01*
X108485714Y-66815476D01*
X108533333Y-67005952D01*
X108533333Y-67148809D01*
X108485714Y-67339285D01*
X108438095Y-67434523D01*
X108342857Y-67529761D01*
X108200000Y-67577380D01*
X107961904Y-67577380D01*
X108914285Y-66672619D02*
X108961904Y-66625000D01*
X109057142Y-66577380D01*
X109295238Y-66577380D01*
X109390476Y-66625000D01*
X109438095Y-66672619D01*
X109485714Y-66767857D01*
X109485714Y-66863095D01*
X109438095Y-67005952D01*
X108866666Y-67577380D01*
X109485714Y-67577380D01*
X107936904Y-65252380D02*
X107936904Y-64252380D01*
X108175000Y-64252380D01*
X108317857Y-64300000D01*
X108413095Y-64395238D01*
X108460714Y-64490476D01*
X108508333Y-64680952D01*
X108508333Y-64823809D01*
X108460714Y-65014285D01*
X108413095Y-65109523D01*
X108317857Y-65204761D01*
X108175000Y-65252380D01*
X107936904Y-65252380D01*
X108841666Y-64252380D02*
X109460714Y-64252380D01*
X109127380Y-64633333D01*
X109270238Y-64633333D01*
X109365476Y-64680952D01*
X109413095Y-64728571D01*
X109460714Y-64823809D01*
X109460714Y-65061904D01*
X109413095Y-65157142D01*
X109365476Y-65204761D01*
X109270238Y-65252380D01*
X108984523Y-65252380D01*
X108889285Y-65204761D01*
X108841666Y-65157142D01*
X101750904Y-86558380D02*
X101750904Y-85558380D01*
X101989000Y-85558380D01*
X102131857Y-85606000D01*
X102227095Y-85701238D01*
X102274714Y-85796476D01*
X102322333Y-85986952D01*
X102322333Y-86129809D01*
X102274714Y-86320285D01*
X102227095Y-86415523D01*
X102131857Y-86510761D01*
X101989000Y-86558380D01*
X101750904Y-86558380D01*
X103179476Y-85891714D02*
X103179476Y-86558380D01*
X102941380Y-85510761D02*
X102703285Y-86225047D01*
X103322333Y-86225047D01*
X94511904Y-86558380D02*
X94511904Y-85558380D01*
X94750000Y-85558380D01*
X94892857Y-85606000D01*
X94988095Y-85701238D01*
X95035714Y-85796476D01*
X95083333Y-85986952D01*
X95083333Y-86129809D01*
X95035714Y-86320285D01*
X94988095Y-86415523D01*
X94892857Y-86510761D01*
X94750000Y-86558380D01*
X94511904Y-86558380D01*
X95940476Y-85558380D02*
X95750000Y-85558380D01*
X95654761Y-85606000D01*
X95607142Y-85653619D01*
X95511904Y-85796476D01*
X95464285Y-85986952D01*
X95464285Y-86367904D01*
X95511904Y-86463142D01*
X95559523Y-86510761D01*
X95654761Y-86558380D01*
X95845238Y-86558380D01*
X95940476Y-86510761D01*
X95988095Y-86463142D01*
X96035714Y-86367904D01*
X96035714Y-86129809D01*
X95988095Y-86034571D01*
X95940476Y-85986952D01*
X95845238Y-85939333D01*
X95654761Y-85939333D01*
X95559523Y-85986952D01*
X95511904Y-86034571D01*
X95464285Y-86129809D01*
X87126904Y-86717380D02*
X87126904Y-85717380D01*
X87365000Y-85717380D01*
X87507857Y-85765000D01*
X87603095Y-85860238D01*
X87650714Y-85955476D01*
X87698333Y-86145952D01*
X87698333Y-86288809D01*
X87650714Y-86479285D01*
X87603095Y-86574523D01*
X87507857Y-86669761D01*
X87365000Y-86717380D01*
X87126904Y-86717380D01*
X88269761Y-86145952D02*
X88174523Y-86098333D01*
X88126904Y-86050714D01*
X88079285Y-85955476D01*
X88079285Y-85907857D01*
X88126904Y-85812619D01*
X88174523Y-85765000D01*
X88269761Y-85717380D01*
X88460238Y-85717380D01*
X88555476Y-85765000D01*
X88603095Y-85812619D01*
X88650714Y-85907857D01*
X88650714Y-85955476D01*
X88603095Y-86050714D01*
X88555476Y-86098333D01*
X88460238Y-86145952D01*
X88269761Y-86145952D01*
X88174523Y-86193571D01*
X88126904Y-86241190D01*
X88079285Y-86336428D01*
X88079285Y-86526904D01*
X88126904Y-86622142D01*
X88174523Y-86669761D01*
X88269761Y-86717380D01*
X88460238Y-86717380D01*
X88555476Y-86669761D01*
X88603095Y-86622142D01*
X88650714Y-86526904D01*
X88650714Y-86336428D01*
X88603095Y-86241190D01*
X88555476Y-86193571D01*
X88460238Y-86145952D01*
X88315614Y-69781480D02*
X87608507Y-69074373D01*
X88989049Y-68973358D02*
X88989049Y-69040702D01*
X88921706Y-69175389D01*
X88854362Y-69242732D01*
X88719675Y-69310076D01*
X88584988Y-69310076D01*
X88483973Y-69276404D01*
X88315614Y-69175389D01*
X88214599Y-69074373D01*
X88113584Y-68906015D01*
X88079912Y-68804999D01*
X88079912Y-68670312D01*
X88147255Y-68535625D01*
X88214599Y-68468282D01*
X88349286Y-68400938D01*
X88416629Y-68400938D01*
X89729828Y-68367266D02*
X89325767Y-68771328D01*
X89527797Y-68569297D02*
X88820691Y-67862190D01*
X88854362Y-68030549D01*
X88854362Y-68165236D01*
X88820691Y-68266251D01*
X77898666Y-82256380D02*
X77898666Y-82970666D01*
X77851047Y-83113523D01*
X77755809Y-83208761D01*
X77612952Y-83256380D01*
X77517714Y-83256380D01*
X78279619Y-82256380D02*
X78898666Y-82256380D01*
X78565333Y-82637333D01*
X78708190Y-82637333D01*
X78803428Y-82684952D01*
X78851047Y-82732571D01*
X78898666Y-82827809D01*
X78898666Y-83065904D01*
X78851047Y-83161142D01*
X78803428Y-83208761D01*
X78708190Y-83256380D01*
X78422476Y-83256380D01*
X78327238Y-83208761D01*
X78279619Y-83161142D01*
X103536761Y-95797619D02*
X103441523Y-95750000D01*
X103346285Y-95654761D01*
X103203428Y-95511904D01*
X103108190Y-95464285D01*
X103012952Y-95464285D01*
X103060571Y-95702380D02*
X102965333Y-95654761D01*
X102870095Y-95559523D01*
X102822476Y-95369047D01*
X102822476Y-95035714D01*
X102870095Y-94845238D01*
X102965333Y-94750000D01*
X103060571Y-94702380D01*
X103251047Y-94702380D01*
X103346285Y-94750000D01*
X103441523Y-94845238D01*
X103489142Y-95035714D01*
X103489142Y-95369047D01*
X103441523Y-95559523D01*
X103346285Y-95654761D01*
X103251047Y-95702380D01*
X103060571Y-95702380D01*
X104441523Y-95702380D02*
X103870095Y-95702380D01*
X104155809Y-95702380D02*
X104155809Y-94702380D01*
X104060571Y-94845238D01*
X103965333Y-94940476D01*
X103870095Y-94988095D01*
X95972761Y-95828619D02*
X95877523Y-95781000D01*
X95782285Y-95685761D01*
X95639428Y-95542904D01*
X95544190Y-95495285D01*
X95448952Y-95495285D01*
X95496571Y-95733380D02*
X95401333Y-95685761D01*
X95306095Y-95590523D01*
X95258476Y-95400047D01*
X95258476Y-95066714D01*
X95306095Y-94876238D01*
X95401333Y-94781000D01*
X95496571Y-94733380D01*
X95687047Y-94733380D01*
X95782285Y-94781000D01*
X95877523Y-94876238D01*
X95925142Y-95066714D01*
X95925142Y-95400047D01*
X95877523Y-95590523D01*
X95782285Y-95685761D01*
X95687047Y-95733380D01*
X95496571Y-95733380D01*
X96306095Y-94828619D02*
X96353714Y-94781000D01*
X96448952Y-94733380D01*
X96687047Y-94733380D01*
X96782285Y-94781000D01*
X96829904Y-94828619D01*
X96877523Y-94923857D01*
X96877523Y-95019095D01*
X96829904Y-95161952D01*
X96258476Y-95733380D01*
X96877523Y-95733380D01*
X88568761Y-95723619D02*
X88473523Y-95676000D01*
X88378285Y-95580761D01*
X88235428Y-95437904D01*
X88140190Y-95390285D01*
X88044952Y-95390285D01*
X88092571Y-95628380D02*
X87997333Y-95580761D01*
X87902095Y-95485523D01*
X87854476Y-95295047D01*
X87854476Y-94961714D01*
X87902095Y-94771238D01*
X87997333Y-94676000D01*
X88092571Y-94628380D01*
X88283047Y-94628380D01*
X88378285Y-94676000D01*
X88473523Y-94771238D01*
X88521142Y-94961714D01*
X88521142Y-95295047D01*
X88473523Y-95485523D01*
X88378285Y-95580761D01*
X88283047Y-95628380D01*
X88092571Y-95628380D01*
X88854476Y-94628380D02*
X89473523Y-94628380D01*
X89140190Y-95009333D01*
X89283047Y-95009333D01*
X89378285Y-95056952D01*
X89425904Y-95104571D01*
X89473523Y-95199809D01*
X89473523Y-95437904D01*
X89425904Y-95533142D01*
X89378285Y-95580761D01*
X89283047Y-95628380D01*
X88997333Y-95628380D01*
X88902095Y-95580761D01*
X88854476Y-95533142D01*
X92633333Y-82162380D02*
X92300000Y-81686190D01*
X92061904Y-82162380D02*
X92061904Y-81162380D01*
X92442857Y-81162380D01*
X92538095Y-81210000D01*
X92585714Y-81257619D01*
X92633333Y-81352857D01*
X92633333Y-81495714D01*
X92585714Y-81590952D01*
X92538095Y-81638571D01*
X92442857Y-81686190D01*
X92061904Y-81686190D01*
X93585714Y-82162380D02*
X93014285Y-82162380D01*
X93300000Y-82162380D02*
X93300000Y-81162380D01*
X93204761Y-81305238D01*
X93109523Y-81400476D01*
X93014285Y-81448095D01*
X107186433Y-79979780D02*
X106853100Y-79503590D01*
X106615004Y-79979780D02*
X106615004Y-78979780D01*
X106995957Y-78979780D01*
X107091195Y-79027400D01*
X107138814Y-79075019D01*
X107186433Y-79170257D01*
X107186433Y-79313114D01*
X107138814Y-79408352D01*
X107091195Y-79455971D01*
X106995957Y-79503590D01*
X106615004Y-79503590D01*
X107567385Y-79075019D02*
X107615004Y-79027400D01*
X107710242Y-78979780D01*
X107948338Y-78979780D01*
X108043576Y-79027400D01*
X108091195Y-79075019D01*
X108138814Y-79170257D01*
X108138814Y-79265495D01*
X108091195Y-79408352D01*
X107519766Y-79979780D01*
X108138814Y-79979780D01*
X106611680Y-75096666D02*
X106135490Y-75430000D01*
X106611680Y-75668095D02*
X105611680Y-75668095D01*
X105611680Y-75287142D01*
X105659300Y-75191904D01*
X105706919Y-75144285D01*
X105802157Y-75096666D01*
X105945014Y-75096666D01*
X106040252Y-75144285D01*
X106087871Y-75191904D01*
X106135490Y-75287142D01*
X106135490Y-75668095D01*
X105611680Y-74763333D02*
X105611680Y-74144285D01*
X105992633Y-74477619D01*
X105992633Y-74334761D01*
X106040252Y-74239523D01*
X106087871Y-74191904D01*
X106183109Y-74144285D01*
X106421204Y-74144285D01*
X106516442Y-74191904D01*
X106564061Y-74239523D01*
X106611680Y-74334761D01*
X106611680Y-74620476D01*
X106564061Y-74715714D01*
X106516442Y-74763333D01*
X98685833Y-85781380D02*
X98352500Y-85305190D01*
X98114404Y-85781380D02*
X98114404Y-84781380D01*
X98495357Y-84781380D01*
X98590595Y-84829000D01*
X98638214Y-84876619D01*
X98685833Y-84971857D01*
X98685833Y-85114714D01*
X98638214Y-85209952D01*
X98590595Y-85257571D01*
X98495357Y-85305190D01*
X98114404Y-85305190D01*
X99542976Y-85114714D02*
X99542976Y-85781380D01*
X99304880Y-84733761D02*
X99066785Y-85448047D01*
X99685833Y-85448047D01*
X95995333Y-81828380D02*
X95662000Y-81352190D01*
X95423904Y-81828380D02*
X95423904Y-80828380D01*
X95804857Y-80828380D01*
X95900095Y-80876000D01*
X95947714Y-80923619D01*
X95995333Y-81018857D01*
X95995333Y-81161714D01*
X95947714Y-81256952D01*
X95900095Y-81304571D01*
X95804857Y-81352190D01*
X95423904Y-81352190D01*
X96900095Y-80828380D02*
X96423904Y-80828380D01*
X96376285Y-81304571D01*
X96423904Y-81256952D01*
X96519142Y-81209333D01*
X96757238Y-81209333D01*
X96852476Y-81256952D01*
X96900095Y-81304571D01*
X96947714Y-81399809D01*
X96947714Y-81637904D01*
X96900095Y-81733142D01*
X96852476Y-81780761D01*
X96757238Y-81828380D01*
X96519142Y-81828380D01*
X96423904Y-81780761D01*
X96376285Y-81733142D01*
X99158333Y-69752380D02*
X98825000Y-69276190D01*
X98586904Y-69752380D02*
X98586904Y-68752380D01*
X98967857Y-68752380D01*
X99063095Y-68800000D01*
X99110714Y-68847619D01*
X99158333Y-68942857D01*
X99158333Y-69085714D01*
X99110714Y-69180952D01*
X99063095Y-69228571D01*
X98967857Y-69276190D01*
X98586904Y-69276190D01*
X100015476Y-68752380D02*
X99825000Y-68752380D01*
X99729761Y-68800000D01*
X99682142Y-68847619D01*
X99586904Y-68990476D01*
X99539285Y-69180952D01*
X99539285Y-69561904D01*
X99586904Y-69657142D01*
X99634523Y-69704761D01*
X99729761Y-69752380D01*
X99920238Y-69752380D01*
X100015476Y-69704761D01*
X100063095Y-69657142D01*
X100110714Y-69561904D01*
X100110714Y-69323809D01*
X100063095Y-69228571D01*
X100015476Y-69180952D01*
X99920238Y-69133333D01*
X99729761Y-69133333D01*
X99634523Y-69180952D01*
X99586904Y-69228571D01*
X99539285Y-69323809D01*
X99083333Y-67477380D02*
X98750000Y-67001190D01*
X98511904Y-67477380D02*
X98511904Y-66477380D01*
X98892857Y-66477380D01*
X98988095Y-66525000D01*
X99035714Y-66572619D01*
X99083333Y-66667857D01*
X99083333Y-66810714D01*
X99035714Y-66905952D01*
X98988095Y-66953571D01*
X98892857Y-67001190D01*
X98511904Y-67001190D01*
X99416666Y-66477380D02*
X100083333Y-66477380D01*
X99654761Y-67477380D01*
X99083333Y-65277380D02*
X98750000Y-64801190D01*
X98511904Y-65277380D02*
X98511904Y-64277380D01*
X98892857Y-64277380D01*
X98988095Y-64325000D01*
X99035714Y-64372619D01*
X99083333Y-64467857D01*
X99083333Y-64610714D01*
X99035714Y-64705952D01*
X98988095Y-64753571D01*
X98892857Y-64801190D01*
X98511904Y-64801190D01*
X99654761Y-64705952D02*
X99559523Y-64658333D01*
X99511904Y-64610714D01*
X99464285Y-64515476D01*
X99464285Y-64467857D01*
X99511904Y-64372619D01*
X99559523Y-64325000D01*
X99654761Y-64277380D01*
X99845238Y-64277380D01*
X99940476Y-64325000D01*
X99988095Y-64372619D01*
X100035714Y-64467857D01*
X100035714Y-64515476D01*
X99988095Y-64610714D01*
X99940476Y-64658333D01*
X99845238Y-64705952D01*
X99654761Y-64705952D01*
X99559523Y-64753571D01*
X99511904Y-64801190D01*
X99464285Y-64896428D01*
X99464285Y-65086904D01*
X99511904Y-65182142D01*
X99559523Y-65229761D01*
X99654761Y-65277380D01*
X99845238Y-65277380D01*
X99940476Y-65229761D01*
X99988095Y-65182142D01*
X100035714Y-65086904D01*
X100035714Y-64896428D01*
X99988095Y-64801190D01*
X99940476Y-64753571D01*
X99845238Y-64705952D01*
X118483142Y-69286380D02*
X118149809Y-68810190D01*
X117911714Y-69286380D02*
X117911714Y-68286380D01*
X118292666Y-68286380D01*
X118387904Y-68334000D01*
X118435523Y-68381619D01*
X118483142Y-68476857D01*
X118483142Y-68619714D01*
X118435523Y-68714952D01*
X118387904Y-68762571D01*
X118292666Y-68810190D01*
X117911714Y-68810190D01*
X119435523Y-69286380D02*
X118864095Y-69286380D01*
X119149809Y-69286380D02*
X119149809Y-68286380D01*
X119054571Y-68429238D01*
X118959333Y-68524476D01*
X118864095Y-68572095D01*
X120054571Y-68286380D02*
X120149809Y-68286380D01*
X120245047Y-68334000D01*
X120292666Y-68381619D01*
X120340285Y-68476857D01*
X120387904Y-68667333D01*
X120387904Y-68905428D01*
X120340285Y-69095904D01*
X120292666Y-69191142D01*
X120245047Y-69238761D01*
X120149809Y-69286380D01*
X120054571Y-69286380D01*
X119959333Y-69238761D01*
X119911714Y-69191142D01*
X119864095Y-69095904D01*
X119816476Y-68905428D01*
X119816476Y-68667333D01*
X119864095Y-68476857D01*
X119911714Y-68381619D01*
X119959333Y-68334000D01*
X120054571Y-68286380D01*
X115689142Y-65476380D02*
X115355809Y-65000190D01*
X115117714Y-65476380D02*
X115117714Y-64476380D01*
X115498666Y-64476380D01*
X115593904Y-64524000D01*
X115641523Y-64571619D01*
X115689142Y-64666857D01*
X115689142Y-64809714D01*
X115641523Y-64904952D01*
X115593904Y-64952571D01*
X115498666Y-65000190D01*
X115117714Y-65000190D01*
X116641523Y-65476380D02*
X116070095Y-65476380D01*
X116355809Y-65476380D02*
X116355809Y-64476380D01*
X116260571Y-64619238D01*
X116165333Y-64714476D01*
X116070095Y-64762095D01*
X117593904Y-65476380D02*
X117022476Y-65476380D01*
X117308190Y-65476380D02*
X117308190Y-64476380D01*
X117212952Y-64619238D01*
X117117714Y-64714476D01*
X117022476Y-64762095D01*
X104546142Y-86558380D02*
X104212809Y-86082190D01*
X103974714Y-86558380D02*
X103974714Y-85558380D01*
X104355666Y-85558380D01*
X104450904Y-85606000D01*
X104498523Y-85653619D01*
X104546142Y-85748857D01*
X104546142Y-85891714D01*
X104498523Y-85986952D01*
X104450904Y-86034571D01*
X104355666Y-86082190D01*
X103974714Y-86082190D01*
X105498523Y-86558380D02*
X104927095Y-86558380D01*
X105212809Y-86558380D02*
X105212809Y-85558380D01*
X105117571Y-85701238D01*
X105022333Y-85796476D01*
X104927095Y-85844095D01*
X106355666Y-85891714D02*
X106355666Y-86558380D01*
X106117571Y-85510761D02*
X105879476Y-86225047D01*
X106498523Y-86225047D01*
X105771142Y-95598380D02*
X105437809Y-95122190D01*
X105199714Y-95598380D02*
X105199714Y-94598380D01*
X105580666Y-94598380D01*
X105675904Y-94646000D01*
X105723523Y-94693619D01*
X105771142Y-94788857D01*
X105771142Y-94931714D01*
X105723523Y-95026952D01*
X105675904Y-95074571D01*
X105580666Y-95122190D01*
X105199714Y-95122190D01*
X106723523Y-95598380D02*
X106152095Y-95598380D01*
X106437809Y-95598380D02*
X106437809Y-94598380D01*
X106342571Y-94741238D01*
X106247333Y-94836476D01*
X106152095Y-94884095D01*
X107580666Y-94598380D02*
X107390190Y-94598380D01*
X107294952Y-94646000D01*
X107247333Y-94693619D01*
X107152095Y-94836476D01*
X107104476Y-95026952D01*
X107104476Y-95407904D01*
X107152095Y-95503142D01*
X107199714Y-95550761D01*
X107294952Y-95598380D01*
X107485428Y-95598380D01*
X107580666Y-95550761D01*
X107628285Y-95503142D01*
X107675904Y-95407904D01*
X107675904Y-95169809D01*
X107628285Y-95074571D01*
X107580666Y-95026952D01*
X107485428Y-94979333D01*
X107294952Y-94979333D01*
X107199714Y-95026952D01*
X107152095Y-95074571D01*
X107104476Y-95169809D01*
X100902380Y-87742857D02*
X100426190Y-88076190D01*
X100902380Y-88314285D02*
X99902380Y-88314285D01*
X99902380Y-87933333D01*
X99950000Y-87838095D01*
X99997619Y-87790476D01*
X100092857Y-87742857D01*
X100235714Y-87742857D01*
X100330952Y-87790476D01*
X100378571Y-87838095D01*
X100426190Y-87933333D01*
X100426190Y-88314285D01*
X100902380Y-86790476D02*
X100902380Y-87361904D01*
X100902380Y-87076190D02*
X99902380Y-87076190D01*
X100045238Y-87171428D01*
X100140476Y-87266666D01*
X100188095Y-87361904D01*
X99902380Y-86457142D02*
X99902380Y-85790476D01*
X100902380Y-86219047D01*
X98425142Y-95608380D02*
X98091809Y-95132190D01*
X97853714Y-95608380D02*
X97853714Y-94608380D01*
X98234666Y-94608380D01*
X98329904Y-94656000D01*
X98377523Y-94703619D01*
X98425142Y-94798857D01*
X98425142Y-94941714D01*
X98377523Y-95036952D01*
X98329904Y-95084571D01*
X98234666Y-95132190D01*
X97853714Y-95132190D01*
X98806095Y-94703619D02*
X98853714Y-94656000D01*
X98948952Y-94608380D01*
X99187047Y-94608380D01*
X99282285Y-94656000D01*
X99329904Y-94703619D01*
X99377523Y-94798857D01*
X99377523Y-94894095D01*
X99329904Y-95036952D01*
X98758476Y-95608380D01*
X99377523Y-95608380D01*
X99996571Y-94608380D02*
X100091809Y-94608380D01*
X100187047Y-94656000D01*
X100234666Y-94703619D01*
X100282285Y-94798857D01*
X100329904Y-94989333D01*
X100329904Y-95227428D01*
X100282285Y-95417904D01*
X100234666Y-95513142D01*
X100187047Y-95560761D01*
X100091809Y-95608380D01*
X99996571Y-95608380D01*
X99901333Y-95560761D01*
X99853714Y-95513142D01*
X99806095Y-95417904D01*
X99758476Y-95227428D01*
X99758476Y-94989333D01*
X99806095Y-94798857D01*
X99853714Y-94703619D01*
X99901333Y-94656000D01*
X99996571Y-94608380D01*
X90021142Y-86797380D02*
X89687809Y-86321190D01*
X89449714Y-86797380D02*
X89449714Y-85797380D01*
X89830666Y-85797380D01*
X89925904Y-85845000D01*
X89973523Y-85892619D01*
X90021142Y-85987857D01*
X90021142Y-86130714D01*
X89973523Y-86225952D01*
X89925904Y-86273571D01*
X89830666Y-86321190D01*
X89449714Y-86321190D01*
X90402095Y-85892619D02*
X90449714Y-85845000D01*
X90544952Y-85797380D01*
X90783047Y-85797380D01*
X90878285Y-85845000D01*
X90925904Y-85892619D01*
X90973523Y-85987857D01*
X90973523Y-86083095D01*
X90925904Y-86225952D01*
X90354476Y-86797380D01*
X90973523Y-86797380D01*
X91925904Y-86797380D02*
X91354476Y-86797380D01*
X91640190Y-86797380D02*
X91640190Y-85797380D01*
X91544952Y-85940238D01*
X91449714Y-86035476D01*
X91354476Y-86083095D01*
X93606380Y-90328857D02*
X93130190Y-90662190D01*
X93606380Y-90900285D02*
X92606380Y-90900285D01*
X92606380Y-90519333D01*
X92654000Y-90424095D01*
X92701619Y-90376476D01*
X92796857Y-90328857D01*
X92939714Y-90328857D01*
X93034952Y-90376476D01*
X93082571Y-90424095D01*
X93130190Y-90519333D01*
X93130190Y-90900285D01*
X92701619Y-89947904D02*
X92654000Y-89900285D01*
X92606380Y-89805047D01*
X92606380Y-89566952D01*
X92654000Y-89471714D01*
X92701619Y-89424095D01*
X92796857Y-89376476D01*
X92892095Y-89376476D01*
X93034952Y-89424095D01*
X93606380Y-89995523D01*
X93606380Y-89376476D01*
X92701619Y-88995523D02*
X92654000Y-88947904D01*
X92606380Y-88852666D01*
X92606380Y-88614571D01*
X92654000Y-88519333D01*
X92701619Y-88471714D01*
X92796857Y-88424095D01*
X92892095Y-88424095D01*
X93034952Y-88471714D01*
X93606380Y-89043142D01*
X93606380Y-88424095D01*
X90971142Y-95603380D02*
X90637809Y-95127190D01*
X90399714Y-95603380D02*
X90399714Y-94603380D01*
X90780666Y-94603380D01*
X90875904Y-94651000D01*
X90923523Y-94698619D01*
X90971142Y-94793857D01*
X90971142Y-94936714D01*
X90923523Y-95031952D01*
X90875904Y-95079571D01*
X90780666Y-95127190D01*
X90399714Y-95127190D01*
X91352095Y-94698619D02*
X91399714Y-94651000D01*
X91494952Y-94603380D01*
X91733047Y-94603380D01*
X91828285Y-94651000D01*
X91875904Y-94698619D01*
X91923523Y-94793857D01*
X91923523Y-94889095D01*
X91875904Y-95031952D01*
X91304476Y-95603380D01*
X91923523Y-95603380D01*
X92256857Y-94603380D02*
X92875904Y-94603380D01*
X92542571Y-94984333D01*
X92685428Y-94984333D01*
X92780666Y-95031952D01*
X92828285Y-95079571D01*
X92875904Y-95174809D01*
X92875904Y-95412904D01*
X92828285Y-95508142D01*
X92780666Y-95555761D01*
X92685428Y-95603380D01*
X92399714Y-95603380D01*
X92304476Y-95555761D01*
X92256857Y-95508142D01*
X78605142Y-81732380D02*
X78271809Y-81256190D01*
X78033714Y-81732380D02*
X78033714Y-80732380D01*
X78414666Y-80732380D01*
X78509904Y-80780000D01*
X78557523Y-80827619D01*
X78605142Y-80922857D01*
X78605142Y-81065714D01*
X78557523Y-81160952D01*
X78509904Y-81208571D01*
X78414666Y-81256190D01*
X78033714Y-81256190D01*
X78986095Y-80827619D02*
X79033714Y-80780000D01*
X79128952Y-80732380D01*
X79367047Y-80732380D01*
X79462285Y-80780000D01*
X79509904Y-80827619D01*
X79557523Y-80922857D01*
X79557523Y-81018095D01*
X79509904Y-81160952D01*
X78938476Y-81732380D01*
X79557523Y-81732380D01*
X80414666Y-80732380D02*
X80224190Y-80732380D01*
X80128952Y-80780000D01*
X80081333Y-80827619D01*
X79986095Y-80970476D01*
X79938476Y-81160952D01*
X79938476Y-81541904D01*
X79986095Y-81637142D01*
X80033714Y-81684761D01*
X80128952Y-81732380D01*
X80319428Y-81732380D01*
X80414666Y-81684761D01*
X80462285Y-81637142D01*
X80509904Y-81541904D01*
X80509904Y-81303809D01*
X80462285Y-81208571D01*
X80414666Y-81160952D01*
X80319428Y-81113333D01*
X80128952Y-81113333D01*
X80033714Y-81160952D01*
X79986095Y-81208571D01*
X79938476Y-81303809D01*
X76065142Y-81732380D02*
X75731809Y-81256190D01*
X75493714Y-81732380D02*
X75493714Y-80732380D01*
X75874666Y-80732380D01*
X75969904Y-80780000D01*
X76017523Y-80827619D01*
X76065142Y-80922857D01*
X76065142Y-81065714D01*
X76017523Y-81160952D01*
X75969904Y-81208571D01*
X75874666Y-81256190D01*
X75493714Y-81256190D01*
X76446095Y-80827619D02*
X76493714Y-80780000D01*
X76588952Y-80732380D01*
X76827047Y-80732380D01*
X76922285Y-80780000D01*
X76969904Y-80827619D01*
X77017523Y-80922857D01*
X77017523Y-81018095D01*
X76969904Y-81160952D01*
X76398476Y-81732380D01*
X77017523Y-81732380D01*
X77493714Y-81732380D02*
X77684190Y-81732380D01*
X77779428Y-81684761D01*
X77827047Y-81637142D01*
X77922285Y-81494285D01*
X77969904Y-81303809D01*
X77969904Y-80922857D01*
X77922285Y-80827619D01*
X77874666Y-80780000D01*
X77779428Y-80732380D01*
X77588952Y-80732380D01*
X77493714Y-80780000D01*
X77446095Y-80827619D01*
X77398476Y-80922857D01*
X77398476Y-81160952D01*
X77446095Y-81256190D01*
X77493714Y-81303809D01*
X77588952Y-81351428D01*
X77779428Y-81351428D01*
X77874666Y-81303809D01*
X77922285Y-81256190D01*
X77969904Y-81160952D01*
X80632142Y-82702380D02*
X80298809Y-82226190D01*
X80060714Y-82702380D02*
X80060714Y-81702380D01*
X80441666Y-81702380D01*
X80536904Y-81750000D01*
X80584523Y-81797619D01*
X80632142Y-81892857D01*
X80632142Y-82035714D01*
X80584523Y-82130952D01*
X80536904Y-82178571D01*
X80441666Y-82226190D01*
X80060714Y-82226190D01*
X80965476Y-81702380D02*
X81584523Y-81702380D01*
X81251190Y-82083333D01*
X81394047Y-82083333D01*
X81489285Y-82130952D01*
X81536904Y-82178571D01*
X81584523Y-82273809D01*
X81584523Y-82511904D01*
X81536904Y-82607142D01*
X81489285Y-82654761D01*
X81394047Y-82702380D01*
X81108333Y-82702380D01*
X81013095Y-82654761D01*
X80965476Y-82607142D01*
X82203571Y-81702380D02*
X82298809Y-81702380D01*
X82394047Y-81750000D01*
X82441666Y-81797619D01*
X82489285Y-81892857D01*
X82536904Y-82083333D01*
X82536904Y-82321428D01*
X82489285Y-82511904D01*
X82441666Y-82607142D01*
X82394047Y-82654761D01*
X82298809Y-82702380D01*
X82203571Y-82702380D01*
X82108333Y-82654761D01*
X82060714Y-82607142D01*
X82013095Y-82511904D01*
X81965476Y-82321428D01*
X81965476Y-82083333D01*
X82013095Y-81892857D01*
X82060714Y-81797619D01*
X82108333Y-81750000D01*
X82203571Y-81702380D01*
X108427380Y-72447619D02*
X107951190Y-72780952D01*
X108427380Y-73019047D02*
X107427380Y-73019047D01*
X107427380Y-72638095D01*
X107475000Y-72542857D01*
X107522619Y-72495238D01*
X107617857Y-72447619D01*
X107760714Y-72447619D01*
X107855952Y-72495238D01*
X107903571Y-72542857D01*
X107951190Y-72638095D01*
X107951190Y-73019047D01*
X108522619Y-72257142D02*
X108522619Y-71495238D01*
X108427380Y-70733333D02*
X108427380Y-71304761D01*
X108427380Y-71019047D02*
X107427380Y-71019047D01*
X107570238Y-71114285D01*
X107665476Y-71209523D01*
X107713095Y-71304761D01*
X100277380Y-72472619D02*
X99801190Y-72805952D01*
X100277380Y-73044047D02*
X99277380Y-73044047D01*
X99277380Y-72663095D01*
X99325000Y-72567857D01*
X99372619Y-72520238D01*
X99467857Y-72472619D01*
X99610714Y-72472619D01*
X99705952Y-72520238D01*
X99753571Y-72567857D01*
X99801190Y-72663095D01*
X99801190Y-73044047D01*
X100372619Y-72282142D02*
X100372619Y-71520238D01*
X99372619Y-71329761D02*
X99325000Y-71282142D01*
X99277380Y-71186904D01*
X99277380Y-70948809D01*
X99325000Y-70853571D01*
X99372619Y-70805952D01*
X99467857Y-70758333D01*
X99563095Y-70758333D01*
X99705952Y-70805952D01*
X100277380Y-71377380D01*
X100277380Y-70758333D01*
X88826095Y-80832380D02*
X88826095Y-81641904D01*
X88873714Y-81737142D01*
X88921333Y-81784761D01*
X89016571Y-81832380D01*
X89207047Y-81832380D01*
X89302285Y-81784761D01*
X89349904Y-81737142D01*
X89397523Y-81641904D01*
X89397523Y-80832380D01*
X90397523Y-81832380D02*
X89826095Y-81832380D01*
X90111809Y-81832380D02*
X90111809Y-80832380D01*
X90016571Y-80975238D01*
X89921333Y-81070476D01*
X89826095Y-81118095D01*
X115824095Y-59142380D02*
X115824095Y-59951904D01*
X115871714Y-60047142D01*
X115919333Y-60094761D01*
X116014571Y-60142380D01*
X116205047Y-60142380D01*
X116300285Y-60094761D01*
X116347904Y-60047142D01*
X116395523Y-59951904D01*
X116395523Y-59142380D01*
X116824095Y-59237619D02*
X116871714Y-59190000D01*
X116966952Y-59142380D01*
X117205047Y-59142380D01*
X117300285Y-59190000D01*
X117347904Y-59237619D01*
X117395523Y-59332857D01*
X117395523Y-59428095D01*
X117347904Y-59570952D01*
X116776476Y-60142380D01*
X117395523Y-60142380D01*
X84207576Y-75933125D02*
X83635156Y-76505545D01*
X83601484Y-76606560D01*
X83601484Y-76673904D01*
X83635156Y-76774919D01*
X83769843Y-76909606D01*
X83870858Y-76943278D01*
X83938202Y-76943278D01*
X84039217Y-76909606D01*
X84611637Y-76337186D01*
X85015698Y-77212652D02*
X84544293Y-77684056D01*
X85116713Y-76774919D02*
X84443278Y-77111637D01*
X84881011Y-77549369D01*
X98215509Y-77090590D02*
X98215509Y-77566780D01*
X97882176Y-76566780D02*
X98215509Y-77090590D01*
X98548842Y-76566780D01*
X99405985Y-77566780D02*
X98834557Y-77566780D01*
X99120271Y-77566780D02*
X99120271Y-76566780D01*
X99025033Y-76709638D01*
X98929795Y-76804876D01*
X98834557Y-76852495D01*
M02*
