M48
; DRILL file {KiCad 8.0.6} date 2024-11-27T23:52:01-0600
; FORMAT={-:-/ absolute / metric / decimal}
; #@! TF.CreationDate,2024-11-27T23:52:01-06:00
; #@! TF.GenerationSoftware,Kicad,Pcbnew,8.0.6
; #@! TF.FileFunction,Plated,1,2,PTH
FMAT,2
METRIC
; #@! TA.AperFunction,Plated,PTH,ViaDrill
T1C0.300
; #@! TA.AperFunction,Plated,PTH,ComponentDrill
T2C0.750
; #@! TA.AperFunction,Plated,PTH,ComponentDrill
T3C0.810
; #@! TA.AperFunction,Plated,PTH,ComponentDrill
T4C0.813
; #@! TA.AperFunction,Plated,PTH,ComponentDrill
T5C3.500
%
G90
G05
T1
X109.11Y-112.99
X109.11Y-121.99
X119.1Y-121.2
X119.11Y-112.99
X129.1Y-120.65
X129.11Y-112.99
X139.11Y-112.8
X139.125Y-120.175
X149.1Y-112.4
X149.1Y-119.6
X159.1Y-112.0
X159.125Y-119.025
X169.1Y-111.6
X169.1Y-118.4
X179.1Y-111.2
X179.15Y-117.8
X189.1Y-110.8
X189.55Y-116.525
X211.061Y-117.757
X211.671Y-117.24
X212.271Y-116.693
X212.913Y-116.216
X214.022Y-115.816
X214.75Y-115.416
X215.875Y-115.6
X216.674Y-115.645
X217.075Y-113.8
X217.887Y-113.8
X218.625Y-113.4
X219.738Y-113.124
X222.115Y-113.269
X223.7Y-113.1
X226.1Y-112.9
X227.7Y-112.2
X230.1Y-113.0
X238.12Y-111.79
X240.98Y-108.95
X241.72Y-115.69
X243.397Y-89.13
X243.41Y-106.44
X243.997Y-88.13
X244.58Y-112.85
X244.597Y-87.24
X245.197Y-83.99
X245.797Y-83.11
X246.02Y-103.87
X247.01Y-110.34
X248.38Y-101.57
X249.62Y-107.77
X250.64Y-99.34
X251.98Y-105.47
X254.24Y-103.24
X257.55Y-99.425
X257.612Y-106.788
X258.7Y-94.45
X258.875Y-95.282
X263.583Y-115.674
X264.758Y-113.021
X267.462Y-116.332
X268.224Y-117.348
X268.856Y-118.218
X269.621Y-117.983
X270.764Y-118.11
X272.034Y-118.11
X272.114Y-99.469
X272.764Y-98.819
X273.844Y-82.08
X273.844Y-85.08
X273.844Y-107.08
X274.352Y-96.266
X285.086Y-121.982
X286.686Y-121.418
X286.701Y-122.281
X286.766Y-118.618
X294.25Y-116.375
X297.688Y-98.806
X298.704Y-99.568
X300.228Y-101.092
X300.99Y-102.108
X302.25Y-103.1
X302.77Y-104.05
X303.89Y-105.04
X304.64Y-105.92
X305.23Y-106.9
X306.324Y-98.806
X306.832Y-99.568
X307.34Y-100.33
X308.102Y-101.092
X311.47Y-103.1
X311.82Y-104.02
X312.58Y-105.01
X313.19Y-105.92
X313.88Y-106.9
X333.248Y-101.092
X334.264Y-101.092
X335.788Y-101.6
X337.312Y-102.108
X338.836Y-115.316
X339.979Y-106.045
X341.122Y-106.172
X345.694Y-115.062
X354.33Y-115.062
T2
X247.5Y-78.13
X247.5Y-80.13
X247.5Y-82.13
X247.5Y-84.13
X247.5Y-88.13
X247.5Y-90.13
X247.5Y-92.13
X247.5Y-94.13
X247.5Y-96.13
X249.5Y-79.13
X249.5Y-81.13
X249.5Y-83.13
X249.5Y-87.13
X249.5Y-89.13
X249.5Y-91.13
X249.5Y-93.13
X249.5Y-95.13
X249.5Y-97.13
X252.0Y-79.13
X252.0Y-81.13
X252.0Y-83.13
X252.0Y-87.13
X252.0Y-89.13
X252.0Y-91.13
X252.0Y-93.13
X252.0Y-95.13
X252.0Y-97.13
X254.0Y-78.13
X254.0Y-80.13
X254.0Y-82.13
X254.0Y-84.13
X254.0Y-88.13
X254.0Y-90.13
X254.0Y-92.13
X254.0Y-94.13
X254.0Y-96.13
T3
X263.8Y-79.08
X263.8Y-81.08
X263.8Y-83.08
X263.8Y-85.08
X263.8Y-87.08
X263.8Y-91.08
X263.8Y-93.08
X263.8Y-95.08
X263.8Y-97.08
X263.8Y-99.08
X263.8Y-101.08
X263.8Y-103.08
X263.8Y-105.08
X263.8Y-107.08
X263.8Y-109.08
X263.8Y-111.08
X265.8Y-78.08
X265.8Y-80.08
X265.8Y-82.08
X265.8Y-84.08
X265.8Y-86.08
X265.8Y-88.08
X265.8Y-92.08
X265.8Y-94.08
X265.8Y-96.08
X265.8Y-98.08
X265.8Y-100.08
X265.8Y-102.08
X265.8Y-104.08
X265.8Y-106.08
X265.8Y-108.08
X265.8Y-110.08
X268.3Y-78.08
X268.3Y-80.08
X268.3Y-82.08
X268.3Y-84.08
X268.3Y-86.08
X268.3Y-88.08
X268.3Y-92.08
X268.3Y-94.08
X268.3Y-96.08
X268.3Y-98.08
X268.3Y-100.08
X268.3Y-102.08
X268.3Y-104.08
X268.3Y-106.08
X268.3Y-108.08
X268.3Y-110.08
X270.3Y-79.08
X270.3Y-81.08
X270.3Y-83.08
X270.3Y-85.08
X270.3Y-87.08
X270.3Y-91.08
X270.3Y-93.08
X270.3Y-95.08
X270.3Y-97.08
X270.3Y-99.08
X270.3Y-101.08
X270.3Y-103.08
X270.3Y-105.08
X270.3Y-107.08
X270.3Y-109.08
X270.3Y-111.08
T4
X215.19Y-119.79
X218.115Y-118.79
X218.115Y-120.79
X220.115Y-118.79
X220.115Y-120.79
X222.115Y-118.79
X222.115Y-120.79
X224.115Y-118.79
X224.115Y-120.79
X226.115Y-118.79
X226.115Y-120.79
X228.115Y-118.79
X228.115Y-120.79
X230.115Y-118.79
X230.115Y-120.79
X232.115Y-118.79
X232.115Y-120.79
X234.115Y-118.79
X234.115Y-120.79
X236.115Y-118.79
X236.115Y-120.79
X239.04Y-119.79
X289.535Y-119.8
X292.46Y-118.8
X292.46Y-120.8
X294.46Y-118.8
X294.46Y-120.8
X296.46Y-118.8
X296.46Y-120.8
X298.46Y-118.8
X298.46Y-120.8
X300.46Y-118.8
X300.46Y-120.8
X302.46Y-118.8
X302.46Y-120.8
X304.46Y-118.8
X304.46Y-120.8
X306.46Y-118.8
X306.46Y-120.8
X308.46Y-118.8
X308.46Y-120.8
X310.46Y-118.8
X310.46Y-120.8
X313.385Y-119.8
X335.18Y-119.83
X338.105Y-118.83
X338.105Y-120.83
X340.105Y-118.83
X340.105Y-120.83
X342.105Y-118.83
X342.105Y-120.83
X344.105Y-118.83
X344.105Y-120.83
X346.105Y-118.83
X346.105Y-120.83
X348.105Y-118.83
X348.105Y-120.83
X350.105Y-118.83
X350.105Y-120.83
X352.105Y-118.83
X352.105Y-120.83
X354.105Y-118.83
X354.105Y-120.83
X356.105Y-118.83
X356.105Y-120.83
X359.03Y-119.83
T5
X59.281Y-88.779
X360.659Y-94.725
M30
