%TF.GenerationSoftware,KiCad,Pcbnew,7.0.8*%
%TF.CreationDate,2024-09-16T14:36:25-04:00*%
%TF.ProjectId,breakout_pcie,62726561-6b6f-4757-945f-706369652e6b,rev?*%
%TF.SameCoordinates,Original*%
%TF.FileFunction,Copper,L1,Top*%
%TF.FilePolarity,Positive*%
%FSLAX46Y46*%
G04 Gerber Fmt 4.6, Leading zero omitted, Abs format (unit mm)*
G04 Created by KiCad (PCBNEW 7.0.8) date 2024-09-16 14:36:25*
%MOMM*%
%LPD*%
G01*
G04 APERTURE LIST*
G04 Aperture macros list*
%AMRoundRect*
0 Rectangle with rounded corners*
0 $1 Rounding radius*
0 $2 $3 $4 $5 $6 $7 $8 $9 X,Y pos of 4 corners*
0 Add a 4 corners polygon primitive as box body*
4,1,4,$2,$3,$4,$5,$6,$7,$8,$9,$2,$3,0*
0 Add four circle primitives for the rounded corners*
1,1,$1+$1,$2,$3*
1,1,$1+$1,$4,$5*
1,1,$1+$1,$6,$7*
1,1,$1+$1,$8,$9*
0 Add four rect primitives between the rounded corners*
20,1,$1+$1,$2,$3,$4,$5,0*
20,1,$1+$1,$4,$5,$6,$7,0*
20,1,$1+$1,$6,$7,$8,$9,0*
20,1,$1+$1,$8,$9,$2,$3,0*%
G04 Aperture macros list end*
%TA.AperFunction,SMDPad,CuDef*%
%ADD10R,3.000000X4.500000*%
%TD*%
%TA.AperFunction,ComponentPad*%
%ADD11R,1.700000X1.700000*%
%TD*%
%TA.AperFunction,ComponentPad*%
%ADD12O,1.700000X1.700000*%
%TD*%
%TA.AperFunction,ComponentPad*%
%ADD13C,1.200000*%
%TD*%
%TA.AperFunction,SMDPad,CuDef*%
%ADD14RoundRect,0.200000X0.275000X-0.200000X0.275000X0.200000X-0.275000X0.200000X-0.275000X-0.200000X0*%
%TD*%
%TA.AperFunction,ComponentPad*%
%ADD15C,1.316000*%
%TD*%
%TA.AperFunction,ViaPad*%
%ADD16C,0.800000*%
%TD*%
%TA.AperFunction,Conductor*%
%ADD17C,0.500000*%
%TD*%
%TA.AperFunction,Conductor*%
%ADD18C,0.250000*%
%TD*%
G04 APERTURE END LIST*
D10*
%TO.P,TP25,1*%
%TO.N,/B7*%
X111000000Y-101819975D03*
%TD*%
%TO.P,TP10,1*%
%TO.N,/A10*%
X123000000Y-90500000D03*
%TD*%
D11*
%TO.P,J5,1,Pin_1*%
%TO.N,/A19*%
X172400000Y-80319975D03*
D12*
%TO.P,J5,2,Pin_2*%
%TO.N,/A20*%
X174940000Y-80319975D03*
%TO.P,J5,3,Pin_3*%
%TO.N,/A21*%
X177480000Y-80319975D03*
%TO.P,J5,4,Pin_4*%
%TO.N,/A22*%
X180020000Y-80319975D03*
%TO.P,J5,5,Pin_5*%
%TO.N,/A23*%
X182560000Y-80319975D03*
%TO.P,J5,6,Pin_6*%
%TO.N,/A24*%
X185100000Y-80319975D03*
%TO.P,J5,7,Pin_7*%
%TO.N,/A25*%
X187640000Y-80319975D03*
%TO.P,J5,8,Pin_8*%
%TO.N,/A26*%
X190180000Y-80319975D03*
%TO.P,J5,9,Pin_9*%
%TO.N,/A27*%
X192720000Y-80319975D03*
%TO.P,J5,10,Pin_10*%
%TO.N,/A28*%
X195260000Y-80319975D03*
%TO.P,J5,11,Pin_11*%
%TO.N,/A29*%
X197800000Y-80319975D03*
%TO.P,J5,12,Pin_12*%
%TO.N,/A30*%
X200340000Y-80319975D03*
%TO.P,J5,13,Pin_13*%
%TO.N,/A31*%
X202880000Y-80319975D03*
%TO.P,J5,14,Pin_14*%
%TO.N,/A32*%
X205420000Y-80319975D03*
%TD*%
D11*
%TO.P,J9,1,Pin_1*%
%TO.N,/A13*%
X144000000Y-70719975D03*
D12*
%TO.P,J9,2,Pin_2*%
%TO.N,/A14*%
X146540000Y-70719975D03*
%TO.P,J9,3,Pin_3*%
%TO.N,/A15*%
X149080000Y-70719975D03*
%TO.P,J9,4,Pin_4*%
%TO.N,/A16*%
X151620000Y-70719975D03*
%TO.P,J9,5,Pin_5*%
%TO.N,/A17*%
X154160000Y-70719975D03*
%TO.P,J9,6,Pin_6*%
%TO.N,/A18*%
X156700000Y-70719975D03*
%TO.P,J9,7,Pin_7*%
%TO.N,/A19*%
X159240000Y-70719975D03*
%TO.P,J9,8,Pin_8*%
%TO.N,/A20*%
X161780000Y-70719975D03*
%TO.P,J9,9,Pin_9*%
%TO.N,/A21*%
X164320000Y-70719975D03*
%TO.P,J9,10,Pin_10*%
%TO.N,/A22*%
X166860000Y-70719975D03*
%TO.P,J9,11,Pin_11*%
%TO.N,/A23*%
X169400000Y-70719975D03*
%TO.P,J9,12,Pin_12*%
%TO.N,/A24*%
X171940000Y-70719975D03*
%TD*%
D11*
%TO.P,J4,1,Pin_1*%
%TO.N,/B1*%
X99600000Y-112019975D03*
D12*
%TO.P,J4,2,Pin_2*%
%TO.N,/B2*%
X102140000Y-112019975D03*
%TO.P,J4,3,Pin_3*%
%TO.N,/B3*%
X104680000Y-112019975D03*
%TO.P,J4,4,Pin_4*%
%TO.N,/B4*%
X107220000Y-112019975D03*
%TO.P,J4,5,Pin_5*%
%TO.N,/B5*%
X109760000Y-112019975D03*
%TO.P,J4,6,Pin_6*%
%TO.N,/B6*%
X112300000Y-112019975D03*
%TO.P,J4,7,Pin_7*%
%TO.N,/B7*%
X114840000Y-112019975D03*
%TO.P,J4,8,Pin_8*%
%TO.N,/B8*%
X117380000Y-112019975D03*
%TO.P,J4,9,Pin_9*%
%TO.N,/B9*%
X119920000Y-112019975D03*
%TO.P,J4,10,Pin_10*%
%TO.N,/B10*%
X122460000Y-112019975D03*
%TO.P,J4,11,Pin_11*%
%TO.N,/B11*%
X125000000Y-112019975D03*
%TO.P,J4,12,Pin_12*%
%TO.N,/B12*%
X127540000Y-112019975D03*
%TO.P,J4,13,Pin_13*%
%TO.N,/B13*%
X130080000Y-112019975D03*
%TO.P,J4,14,Pin_14*%
%TO.N,/B14*%
X132620000Y-112019975D03*
%TO.P,J4,15,Pin_15*%
%TO.N,/B15*%
X135160000Y-112019975D03*
%TO.P,J4,16,Pin_16*%
%TO.N,/B16*%
X137700000Y-112019975D03*
%TO.P,J4,17,Pin_17*%
%TO.N,/B17*%
X140240000Y-112019975D03*
%TO.P,J4,18,Pin_18*%
%TO.N,/B18*%
X142780000Y-112019975D03*
%TD*%
D10*
%TO.P,TP17,1*%
%TO.N,/A17*%
X151000000Y-90519975D03*
%TD*%
%TO.P,TP2,1*%
%TO.N,/A2*%
X91000000Y-90519975D03*
%TD*%
D11*
%TO.P,J16,1,Pin_1*%
%TO.N,/B13*%
X144000000Y-121619975D03*
D12*
%TO.P,J16,2,Pin_2*%
%TO.N,/B14*%
X146540000Y-121619975D03*
%TO.P,J16,3,Pin_3*%
%TO.N,/B15*%
X149080000Y-121619975D03*
%TO.P,J16,4,Pin_4*%
%TO.N,/B16*%
X151620000Y-121619975D03*
%TO.P,J16,5,Pin_5*%
%TO.N,/B17*%
X154160000Y-121619975D03*
%TO.P,J16,6,Pin_6*%
%TO.N,/B18*%
X156700000Y-121619975D03*
%TO.P,J16,7,Pin_7*%
%TO.N,/B19*%
X159240000Y-121619975D03*
%TO.P,J16,8,Pin_8*%
%TO.N,/B20*%
X161780000Y-121619975D03*
%TO.P,J16,9,Pin_9*%
%TO.N,/B21*%
X164320000Y-121619975D03*
%TO.P,J16,10,Pin_10*%
%TO.N,/B22*%
X166860000Y-121619975D03*
%TO.P,J16,11,Pin_11*%
%TO.N,/B23*%
X169400000Y-121619975D03*
%TO.P,J16,12,Pin_12*%
%TO.N,/B24*%
X171940000Y-121619975D03*
%TD*%
D10*
%TO.P,TP32,1*%
%TO.N,/B14*%
X139000000Y-101819975D03*
%TD*%
D11*
%TO.P,J12,1,Pin_1*%
%TO.N,/B25*%
X187750000Y-126619975D03*
D12*
%TO.P,J12,2,Pin_2*%
%TO.N,/B26*%
X190290000Y-126619975D03*
%TO.P,J12,3,Pin_3*%
%TO.N,/B27*%
X192830000Y-126619975D03*
%TO.P,J12,4,Pin_4*%
%TO.N,/B28*%
X195370000Y-126619975D03*
%TO.P,J12,5,Pin_5*%
%TO.N,/B29*%
X197910000Y-126619975D03*
%TO.P,J12,6,Pin_6*%
%TO.N,/B30*%
X200450000Y-126619975D03*
%TO.P,J12,7,Pin_7*%
%TO.N,/B31*%
X202990000Y-126619975D03*
%TO.P,J12,8,Pin_8*%
%TO.N,/B32*%
X205530000Y-126619975D03*
%TD*%
D10*
%TO.P,TP64,1*%
%TO.N,/B32*%
X215000000Y-101819975D03*
%TD*%
D11*
%TO.P,J17,1,Pin_1*%
%TO.N,/A25*%
X187600000Y-65564975D03*
D12*
%TO.P,J17,2,Pin_2*%
%TO.N,/A26*%
X190140000Y-65564975D03*
%TO.P,J17,3,Pin_3*%
%TO.N,/A27*%
X192680000Y-65564975D03*
%TO.P,J17,4,Pin_4*%
%TO.N,/A28*%
X195220000Y-65564975D03*
%TO.P,J17,5,Pin_5*%
%TO.N,/A29*%
X197760000Y-65564975D03*
%TO.P,J17,6,Pin_6*%
%TO.N,/A30*%
X200300000Y-65564975D03*
%TO.P,J17,7,Pin_7*%
%TO.N,/A31*%
X202840000Y-65564975D03*
%TO.P,J17,8,Pin_8*%
%TO.N,/A32*%
X205380000Y-65564975D03*
%TD*%
D11*
%TO.P,J23,1,Pin_1*%
%TO.N,/A1*%
X81785000Y-117865000D03*
D12*
%TO.P,J23,2,Pin_2*%
%TO.N,+12V*%
X81785000Y-120405000D03*
%TO.P,J23,3,Pin_3*%
%TO.N,/B5*%
X79245000Y-117865000D03*
%TO.P,J23,4,Pin_4*%
%TO.N,+5V*%
X79245000Y-120405000D03*
%TO.P,J23,5,Pin_5*%
%TO.N,/A4*%
X76705000Y-117865000D03*
%TO.P,J23,6,Pin_6*%
%TO.N,/CAN+*%
X76705000Y-120405000D03*
%TO.P,J23,7,Pin_7*%
%TO.N,/A5*%
X74165000Y-117865000D03*
%TO.P,J23,8,Pin_8*%
%TO.N,/CAN-*%
X74165000Y-120405000D03*
%TO.P,J23,9,Pin_9*%
%TO.N,/A3*%
X71625000Y-117865000D03*
%TO.P,J23,10,Pin_10*%
%TO.N,GND*%
X71625000Y-120405000D03*
%TD*%
D10*
%TO.P,TP1,1*%
%TO.N,/A1*%
X87000000Y-90519975D03*
%TD*%
%TO.P,TP40,1*%
%TO.N,/A22*%
X175000000Y-90519975D03*
%TD*%
%TO.P,TP55,1*%
%TO.N,/B23*%
X179000000Y-101819975D03*
%TD*%
%TO.P,TP50,1*%
%TO.N,/A32*%
X215000000Y-90519975D03*
%TD*%
%TO.P,TP19,1*%
%TO.N,/B1*%
X87000000Y-101800000D03*
%TD*%
%TO.P,TP65,1*%
%TO.N,GND*%
X76000000Y-85000000D03*
%TD*%
%TO.P,TP9,1*%
%TO.N,/A9*%
X119000000Y-90500000D03*
%TD*%
D11*
%TO.P,J8,1,Pin_1*%
%TO.N,/B1*%
X99700000Y-126699975D03*
D12*
%TO.P,J8,2,Pin_2*%
%TO.N,/B2*%
X102240000Y-126699975D03*
%TO.P,J8,3,Pin_3*%
%TO.N,/B3*%
X104780000Y-126699975D03*
%TO.P,J8,4,Pin_4*%
%TO.N,/B4*%
X107320000Y-126699975D03*
%TO.P,J8,5,Pin_5*%
%TO.N,/B5*%
X109860000Y-126699975D03*
%TO.P,J8,6,Pin_6*%
%TO.N,/B6*%
X112400000Y-126699975D03*
%TO.P,J8,7,Pin_7*%
%TO.N,/B7*%
X114940000Y-126699975D03*
%TO.P,J8,8,Pin_8*%
%TO.N,/B8*%
X117480000Y-126699975D03*
%TO.P,J8,9,Pin_9*%
%TO.N,/B9*%
X120020000Y-126699975D03*
%TO.P,J8,10,Pin_10*%
%TO.N,/B10*%
X122560000Y-126699975D03*
%TO.P,J8,11,Pin_11*%
%TO.N,/B11*%
X125100000Y-126699975D03*
%TO.P,J8,12,Pin_12*%
%TO.N,/B12*%
X127640000Y-126699975D03*
%TD*%
D10*
%TO.P,TP33,1*%
%TO.N,/B15*%
X143000000Y-101819975D03*
%TD*%
%TO.P,TP18,1*%
%TO.N,/A18*%
X155000000Y-90519975D03*
%TD*%
D11*
%TO.P,J3,1,Pin_1*%
%TO.N,/A1*%
X99600000Y-80319975D03*
D12*
%TO.P,J3,2,Pin_2*%
%TO.N,/A2*%
X102140000Y-80319975D03*
%TO.P,J3,3,Pin_3*%
%TO.N,/A3*%
X104680000Y-80319975D03*
%TO.P,J3,4,Pin_4*%
%TO.N,/A4*%
X107220000Y-80319975D03*
%TO.P,J3,5,Pin_5*%
%TO.N,/A5*%
X109760000Y-80319975D03*
%TO.P,J3,6,Pin_6*%
%TO.N,/A6*%
X112300000Y-80319975D03*
%TO.P,J3,7,Pin_7*%
%TO.N,/A7*%
X114840000Y-80319975D03*
%TO.P,J3,8,Pin_8*%
%TO.N,/A8*%
X117380000Y-80319975D03*
%TO.P,J3,9,Pin_9*%
%TO.N,/A9*%
X119920000Y-80319975D03*
%TO.P,J3,10,Pin_10*%
%TO.N,/A10*%
X122460000Y-80319975D03*
%TO.P,J3,11,Pin_11*%
%TO.N,/A11*%
X125000000Y-80319975D03*
%TO.P,J3,12,Pin_12*%
%TO.N,/A12*%
X127540000Y-80319975D03*
%TO.P,J3,13,Pin_13*%
%TO.N,/A13*%
X130080000Y-80319975D03*
%TO.P,J3,14,Pin_14*%
%TO.N,/A14*%
X132620000Y-80319975D03*
%TO.P,J3,15,Pin_15*%
%TO.N,/A15*%
X135160000Y-80319975D03*
%TO.P,J3,16,Pin_16*%
%TO.N,/A16*%
X137700000Y-80319975D03*
%TO.P,J3,17,Pin_17*%
%TO.N,/A17*%
X140240000Y-80319975D03*
%TO.P,J3,18,Pin_18*%
%TO.N,/A18*%
X142780000Y-80319975D03*
%TD*%
D10*
%TO.P,TP15,1*%
%TO.N,/A15*%
X143000000Y-90519975D03*
%TD*%
%TO.P,TP27,1*%
%TO.N,/B9*%
X119000000Y-101819975D03*
%TD*%
%TO.P,TP36,1*%
%TO.N,/B18*%
X155000000Y-101819975D03*
%TD*%
D11*
%TO.P,J20,1,Pin_1*%
%TO.N,/B2*%
X76640000Y-97800000D03*
D12*
%TO.P,J20,2,Pin_2*%
%TO.N,+5V*%
X76640000Y-100340000D03*
%TO.P,J20,3,Pin_3*%
%TO.N,/B3*%
X74100000Y-97800000D03*
%TO.P,J20,4,Pin_4*%
%TO.N,+3V0*%
X74100000Y-100340000D03*
%TO.P,J20,5,Pin_5*%
%TO.N,/A5*%
X71560000Y-97800000D03*
%TO.P,J20,6,Pin_6*%
%TO.N,GND*%
X71560000Y-100340000D03*
%TD*%
D10*
%TO.P,TP28,1*%
%TO.N,/B10*%
X123000000Y-101819975D03*
%TD*%
%TO.P,TP12,1*%
%TO.N,/A12*%
X131000000Y-90519975D03*
%TD*%
%TO.P,TP16,1*%
%TO.N,/A16*%
X147000000Y-90519975D03*
%TD*%
D11*
%TO.P,J13,1,Pin_1*%
%TO.N,/A1*%
X99600000Y-65639975D03*
D12*
%TO.P,J13,2,Pin_2*%
%TO.N,/A2*%
X102140000Y-65639975D03*
%TO.P,J13,3,Pin_3*%
%TO.N,/A3*%
X104680000Y-65639975D03*
%TO.P,J13,4,Pin_4*%
%TO.N,/A4*%
X107220000Y-65639975D03*
%TO.P,J13,5,Pin_5*%
%TO.N,/A5*%
X109760000Y-65639975D03*
%TO.P,J13,6,Pin_6*%
%TO.N,/A6*%
X112300000Y-65639975D03*
%TO.P,J13,7,Pin_7*%
%TO.N,/A7*%
X114840000Y-65639975D03*
%TO.P,J13,8,Pin_8*%
%TO.N,/A8*%
X117380000Y-65639975D03*
%TO.P,J13,9,Pin_9*%
%TO.N,/A9*%
X119920000Y-65639975D03*
%TO.P,J13,10,Pin_10*%
%TO.N,/A10*%
X122460000Y-65639975D03*
%TO.P,J13,11,Pin_11*%
%TO.N,/A11*%
X125000000Y-65639975D03*
%TO.P,J13,12,Pin_12*%
%TO.N,/A12*%
X127540000Y-65639975D03*
%TD*%
D10*
%TO.P,TP62,1*%
%TO.N,/B30*%
X207000000Y-101819975D03*
%TD*%
%TO.P,TP23,1*%
%TO.N,/B5*%
X103000000Y-101819975D03*
%TD*%
%TO.P,TP66,1*%
%TO.N,/CAN+*%
X80000000Y-58800000D03*
%TD*%
%TO.P,TP11,1*%
%TO.N,/A11*%
X127000000Y-90500000D03*
%TD*%
%TO.P,TP29,1*%
%TO.N,/B11*%
X127000000Y-101819975D03*
%TD*%
%TO.P,TP22,1*%
%TO.N,/B4*%
X99000000Y-101800000D03*
%TD*%
D11*
%TO.P,J11,1,Pin_1*%
%TO.N,/A25*%
X187600000Y-70644975D03*
D12*
%TO.P,J11,2,Pin_2*%
%TO.N,/A26*%
X190140000Y-70644975D03*
%TO.P,J11,3,Pin_3*%
%TO.N,/A27*%
X192680000Y-70644975D03*
%TO.P,J11,4,Pin_4*%
%TO.N,/A28*%
X195220000Y-70644975D03*
%TO.P,J11,5,Pin_5*%
%TO.N,/A29*%
X197760000Y-70644975D03*
%TO.P,J11,6,Pin_6*%
%TO.N,/A30*%
X200300000Y-70644975D03*
%TO.P,J11,7,Pin_7*%
%TO.N,/A31*%
X202840000Y-70644975D03*
%TO.P,J11,8,Pin_8*%
%TO.N,/A32*%
X205380000Y-70644975D03*
%TD*%
D10*
%TO.P,TP58,1*%
%TO.N,/B26*%
X191000000Y-101819975D03*
%TD*%
%TO.P,TP49,1*%
%TO.N,/A31*%
X211000000Y-90519975D03*
%TD*%
%TO.P,TP14,1*%
%TO.N,/A14*%
X139000000Y-90519975D03*
%TD*%
%TO.P,TP20,1*%
%TO.N,/B2*%
X91000000Y-101800000D03*
%TD*%
%TO.P,TP47,1*%
%TO.N,/A29*%
X203000000Y-90519975D03*
%TD*%
%TO.P,TP35,1*%
%TO.N,/B17*%
X151000000Y-101819975D03*
%TD*%
%TO.P,TP52,1*%
%TO.N,/B20*%
X167000000Y-101819975D03*
%TD*%
%TO.P,TP31,1*%
%TO.N,/B13*%
X135000000Y-101819975D03*
%TD*%
%TO.P,TP53,1*%
%TO.N,/B21*%
X171000000Y-101819975D03*
%TD*%
D11*
%TO.P,J21,1,Pin_1*%
%TO.N,Net-(J21-Pin_1)*%
X77125000Y-54100000D03*
D12*
%TO.P,J21,2,Pin_2*%
%TO.N,/CAN-*%
X74585000Y-54100000D03*
%TO.P,J21,3,Pin_3*%
%TO.N,unconnected-(J21-Pin_3-Pad3)*%
X72045000Y-54100000D03*
%TD*%
D13*
%TO.P,J1,A1,12V/3.3V*%
%TO.N,/A1*%
X234900000Y-57200000D03*
%TO.P,J1,A2,12V/3.3V*%
%TO.N,/A2*%
X236900000Y-58200000D03*
%TO.P,J1,A3,GND*%
%TO.N,/A3*%
X234900000Y-59200000D03*
%TO.P,J1,A4,CAN+*%
%TO.N,/A4*%
X236900000Y-60200000D03*
%TO.P,J1,A5,CAN-*%
%TO.N,/A5*%
X234900000Y-61200000D03*
%TO.P,J1,A6,io_0*%
%TO.N,/A6*%
X236900000Y-62200000D03*
%TO.P,J1,A7,io_2*%
%TO.N,/A7*%
X234900000Y-63200000D03*
%TO.P,J1,A8,io_4*%
%TO.N,/A8*%
X236900000Y-64200000D03*
%TO.P,J1,A9,io_6*%
%TO.N,/A9*%
X234900000Y-65200000D03*
%TO.P,J1,A10,io_8*%
%TO.N,/A10*%
X236900000Y-66200000D03*
%TO.P,J1,A11,io_10*%
%TO.N,/A11*%
X234900000Y-67200000D03*
%TO.P,J1,A12,io_12*%
%TO.N,/A12*%
X236900000Y-70200000D03*
%TO.P,J1,A13,io_14*%
%TO.N,/A13*%
X234900000Y-71200000D03*
%TO.P,J1,A14,io_16*%
%TO.N,/A14*%
X236900000Y-72200000D03*
%TO.P,J1,A15,io_18*%
%TO.N,/A15*%
X234900000Y-73200000D03*
%TO.P,J1,A16,io_20*%
%TO.N,/A16*%
X236900000Y-74200000D03*
%TO.P,J1,A17,SHDN_IN*%
%TO.N,/A17*%
X234900000Y-75200000D03*
%TO.P,J1,A18,SHDN_IN*%
%TO.N,/A18*%
X236900000Y-76200000D03*
%TO.P,J1,B1,SCL/SCK*%
%TO.N,/B1*%
X232400000Y-57200000D03*
%TO.P,J1,B2,SDA/MISO/RX*%
%TO.N,/B2*%
X230400000Y-58200000D03*
%TO.P,J1,B3,MOSI/TX*%
%TO.N,/B3*%
X232400000Y-59200000D03*
%TO.P,J1,B4,GND*%
%TO.N,/B4*%
X230400000Y-60200000D03*
%TO.P,J1,B5,5V/Vref_2(3V)*%
%TO.N,/B5*%
X232400000Y-61200000D03*
%TO.P,J1,B6,io_1*%
%TO.N,/B6*%
X230400000Y-62200000D03*
%TO.P,J1,B7,io_3*%
%TO.N,/B7*%
X232400000Y-63200000D03*
%TO.P,J1,B8,io_5*%
%TO.N,/B8*%
X230400000Y-64200000D03*
%TO.P,J1,B9,io_7*%
%TO.N,/B9*%
X232400000Y-65200000D03*
%TO.P,J1,B10,io_9*%
%TO.N,/B10*%
X230400000Y-66200000D03*
%TO.P,J1,B11,io_11*%
%TO.N,/B11*%
X232400000Y-67200000D03*
%TO.P,J1,B12,io_13*%
%TO.N,/B12*%
X230400000Y-70200000D03*
%TO.P,J1,B13,io_15*%
%TO.N,/B13*%
X232400000Y-71200000D03*
%TO.P,J1,B14,io_17*%
%TO.N,/B14*%
X230400000Y-72200000D03*
%TO.P,J1,B15,io_19*%
%TO.N,/B15*%
X232400000Y-73200000D03*
%TO.P,J1,B16,io_21*%
%TO.N,/B16*%
X230400000Y-74200000D03*
%TO.P,J1,B17,SHDN_OUT*%
%TO.N,/B17*%
X232400000Y-75200000D03*
%TO.P,J1,B18,SHDN_OUT*%
%TO.N,/B18*%
X230400000Y-76200000D03*
%TD*%
D11*
%TO.P,J6,1,Pin_1*%
%TO.N,/B19*%
X172450000Y-111994975D03*
D12*
%TO.P,J6,2,Pin_2*%
%TO.N,/B20*%
X174990000Y-111994975D03*
%TO.P,J6,3,Pin_3*%
%TO.N,/B21*%
X177530000Y-111994975D03*
%TO.P,J6,4,Pin_4*%
%TO.N,/B22*%
X180070000Y-111994975D03*
%TO.P,J6,5,Pin_5*%
%TO.N,/B23*%
X182610000Y-111994975D03*
%TO.P,J6,6,Pin_6*%
%TO.N,/B24*%
X185150000Y-111994975D03*
%TO.P,J6,7,Pin_7*%
%TO.N,/B25*%
X187690000Y-111994975D03*
%TO.P,J6,8,Pin_8*%
%TO.N,/B26*%
X190230000Y-111994975D03*
%TO.P,J6,9,Pin_9*%
%TO.N,/B27*%
X192770000Y-111994975D03*
%TO.P,J6,10,Pin_10*%
%TO.N,/B28*%
X195310000Y-111994975D03*
%TO.P,J6,11,Pin_11*%
%TO.N,/B29*%
X197850000Y-111994975D03*
%TO.P,J6,12,Pin_12*%
%TO.N,/B30*%
X200390000Y-111994975D03*
%TO.P,J6,13,Pin_13*%
%TO.N,/B31*%
X202930000Y-111994975D03*
%TO.P,J6,14,Pin_14*%
%TO.N,/B32*%
X205470000Y-111994975D03*
%TD*%
D10*
%TO.P,TP56,1*%
%TO.N,/B24*%
X183000000Y-101819975D03*
%TD*%
%TO.P,TP46,1*%
%TO.N,/A28*%
X199000000Y-90519975D03*
%TD*%
D14*
%TO.P,R1,1*%
%TO.N,/CAN+*%
X79745000Y-54925000D03*
%TO.P,R1,2*%
%TO.N,Net-(J21-Pin_1)*%
X79745000Y-53275000D03*
%TD*%
D10*
%TO.P,TP71,1*%
%TO.N,+3V0*%
X73000000Y-75800000D03*
%TD*%
%TO.P,TP72,1*%
%TO.N,+BATT*%
X80000000Y-75800000D03*
%TD*%
%TO.P,TP61,1*%
%TO.N,/B29*%
X203000000Y-101819975D03*
%TD*%
D11*
%TO.P,J15,1,Pin_1*%
%TO.N,/A13*%
X144000000Y-65639975D03*
D12*
%TO.P,J15,2,Pin_2*%
%TO.N,/A14*%
X146540000Y-65639975D03*
%TO.P,J15,3,Pin_3*%
%TO.N,/A15*%
X149080000Y-65639975D03*
%TO.P,J15,4,Pin_4*%
%TO.N,/A16*%
X151620000Y-65639975D03*
%TO.P,J15,5,Pin_5*%
%TO.N,/A17*%
X154160000Y-65639975D03*
%TO.P,J15,6,Pin_6*%
%TO.N,/A18*%
X156700000Y-65639975D03*
%TO.P,J15,7,Pin_7*%
%TO.N,/A19*%
X159240000Y-65639975D03*
%TO.P,J15,8,Pin_8*%
%TO.N,/A20*%
X161780000Y-65639975D03*
%TO.P,J15,9,Pin_9*%
%TO.N,/A21*%
X164320000Y-65639975D03*
%TO.P,J15,10,Pin_10*%
%TO.N,/A22*%
X166860000Y-65639975D03*
%TO.P,J15,11,Pin_11*%
%TO.N,/A23*%
X169400000Y-65639975D03*
%TO.P,J15,12,Pin_12*%
%TO.N,/A24*%
X171940000Y-65639975D03*
%TD*%
D10*
%TO.P,TP60,1*%
%TO.N,/B28*%
X199000000Y-101819975D03*
%TD*%
%TO.P,TP41,1*%
%TO.N,/A23*%
X179000000Y-90519975D03*
%TD*%
%TO.P,TP3,1*%
%TO.N,/A3*%
X95000000Y-90519975D03*
%TD*%
%TO.P,TP51,1*%
%TO.N,/B19*%
X163000000Y-101819975D03*
%TD*%
%TO.P,TP48,1*%
%TO.N,/A30*%
X207000000Y-90519975D03*
%TD*%
%TO.P,TP67,1*%
%TO.N,/CAN-*%
X73000000Y-58800000D03*
%TD*%
D11*
%TO.P,J7,1,Pin_1*%
%TO.N,/A1*%
X99600000Y-70719975D03*
D12*
%TO.P,J7,2,Pin_2*%
%TO.N,/A2*%
X102140000Y-70719975D03*
%TO.P,J7,3,Pin_3*%
%TO.N,/A3*%
X104680000Y-70719975D03*
%TO.P,J7,4,Pin_4*%
%TO.N,/A4*%
X107220000Y-70719975D03*
%TO.P,J7,5,Pin_5*%
%TO.N,/A5*%
X109760000Y-70719975D03*
%TO.P,J7,6,Pin_6*%
%TO.N,/A6*%
X112300000Y-70719975D03*
%TO.P,J7,7,Pin_7*%
%TO.N,/A7*%
X114840000Y-70719975D03*
%TO.P,J7,8,Pin_8*%
%TO.N,/A8*%
X117380000Y-70719975D03*
%TO.P,J7,9,Pin_9*%
%TO.N,/A9*%
X119920000Y-70719975D03*
%TO.P,J7,10,Pin_10*%
%TO.N,/A10*%
X122460000Y-70719975D03*
%TO.P,J7,11,Pin_11*%
%TO.N,/A11*%
X125000000Y-70719975D03*
%TO.P,J7,12,Pin_12*%
%TO.N,/A12*%
X127540000Y-70719975D03*
%TD*%
D10*
%TO.P,TP13,1*%
%TO.N,/A13*%
X135000000Y-90519975D03*
%TD*%
%TO.P,TP59,1*%
%TO.N,/B27*%
X195000000Y-101819975D03*
%TD*%
%TO.P,TP45,1*%
%TO.N,/A27*%
X195000000Y-90519975D03*
%TD*%
%TO.P,TP5,1*%
%TO.N,/A5*%
X103000000Y-90519975D03*
%TD*%
D11*
%TO.P,J19,1,Pin_1*%
%TO.N,/B18*%
X74200000Y-107800000D03*
D12*
%TO.P,J19,2,Pin_2*%
%TO.N,+BATT*%
X74200000Y-110340000D03*
%TO.P,J19,3,Pin_3*%
%TO.N,/A3*%
X71660000Y-107800000D03*
%TO.P,J19,4,Pin_4*%
%TO.N,GND*%
X71660000Y-110340000D03*
%TD*%
D10*
%TO.P,TP42,1*%
%TO.N,/A24*%
X183000000Y-90519975D03*
%TD*%
%TO.P,TP34,1*%
%TO.N,/B16*%
X147000000Y-101819975D03*
%TD*%
%TO.P,TP8,1*%
%TO.N,/A8*%
X115000000Y-90500000D03*
%TD*%
%TO.P,TP7,1*%
%TO.N,/A7*%
X111000000Y-90500000D03*
%TD*%
D11*
%TO.P,J18,1,Pin_1*%
%TO.N,/B25*%
X187750000Y-121619975D03*
D12*
%TO.P,J18,2,Pin_2*%
%TO.N,/B26*%
X190290000Y-121619975D03*
%TO.P,J18,3,Pin_3*%
%TO.N,/B27*%
X192850000Y-121619975D03*
%TO.P,J18,4,Pin_4*%
%TO.N,/B28*%
X195370000Y-121619975D03*
%TO.P,J18,5,Pin_5*%
%TO.N,/B29*%
X197910000Y-121619975D03*
%TO.P,J18,6,Pin_6*%
%TO.N,/B30*%
X200450000Y-121619975D03*
%TO.P,J18,7,Pin_7*%
%TO.N,/B31*%
X202990000Y-121619975D03*
%TO.P,J18,8,Pin_8*%
%TO.N,/B32*%
X205530000Y-121619975D03*
%TD*%
D10*
%TO.P,TP69,1*%
%TO.N,+5V*%
X73000000Y-68000000D03*
%TD*%
%TO.P,TP30,1*%
%TO.N,/B12*%
X131000000Y-101819975D03*
%TD*%
%TO.P,TP57,1*%
%TO.N,/B25*%
X187000000Y-101819975D03*
%TD*%
%TO.P,TP24,1*%
%TO.N,/B6*%
X107000000Y-101819975D03*
%TD*%
%TO.P,TP44,1*%
%TO.N,/A26*%
X191000000Y-90519975D03*
%TD*%
%TO.P,TP4,1*%
%TO.N,/A4*%
X99000000Y-90519975D03*
%TD*%
%TO.P,TP68,1*%
%TO.N,+12V*%
X80000000Y-68000000D03*
%TD*%
D11*
%TO.P,J10,1,Pin_1*%
%TO.N,/B13*%
X144000000Y-126699975D03*
D12*
%TO.P,J10,2,Pin_2*%
%TO.N,/B14*%
X146540000Y-126699975D03*
%TO.P,J10,3,Pin_3*%
%TO.N,/B15*%
X149080000Y-126699975D03*
%TO.P,J10,4,Pin_4*%
%TO.N,/B16*%
X151620000Y-126699975D03*
%TO.P,J10,5,Pin_5*%
%TO.N,/B17*%
X154160000Y-126699975D03*
%TO.P,J10,6,Pin_6*%
%TO.N,/B18*%
X156700000Y-126699975D03*
%TO.P,J10,7,Pin_7*%
%TO.N,/B19*%
X159240000Y-126699975D03*
%TO.P,J10,8,Pin_8*%
%TO.N,/B20*%
X161780000Y-126699975D03*
%TO.P,J10,9,Pin_9*%
%TO.N,/B21*%
X164320000Y-126699975D03*
%TO.P,J10,10,Pin_10*%
%TO.N,/B22*%
X166860000Y-126699975D03*
%TO.P,J10,11,Pin_11*%
%TO.N,/B23*%
X169400000Y-126699975D03*
%TO.P,J10,12,Pin_12*%
%TO.N,/B24*%
X171940000Y-126699975D03*
%TD*%
D10*
%TO.P,TP63,1*%
%TO.N,/B31*%
X211000000Y-101819975D03*
%TD*%
%TO.P,TP38,1*%
%TO.N,/A20*%
X167000000Y-90519975D03*
%TD*%
%TO.P,TP26,1*%
%TO.N,/B8*%
X115000000Y-101819975D03*
%TD*%
%TO.P,TP6,1*%
%TO.N,/A6*%
X107000000Y-90500000D03*
%TD*%
%TO.P,TP54,1*%
%TO.N,/B22*%
X175000000Y-101819975D03*
%TD*%
%TO.P,TP37,1*%
%TO.N,/A19*%
X163000000Y-90519975D03*
%TD*%
%TO.P,TP39,1*%
%TO.N,/A21*%
X171000000Y-90519975D03*
%TD*%
D11*
%TO.P,J14,1,Pin_1*%
%TO.N,/B1*%
X99700000Y-121619975D03*
D12*
%TO.P,J14,2,Pin_2*%
%TO.N,/B2*%
X102240000Y-121619975D03*
%TO.P,J14,3,Pin_3*%
%TO.N,/B3*%
X104780000Y-121619975D03*
%TO.P,J14,4,Pin_4*%
%TO.N,/B4*%
X107320000Y-121619975D03*
%TO.P,J14,5,Pin_5*%
%TO.N,/B5*%
X109860000Y-121619975D03*
%TO.P,J14,6,Pin_6*%
%TO.N,/B6*%
X112400000Y-121619975D03*
%TO.P,J14,7,Pin_7*%
%TO.N,/B7*%
X114940000Y-121619975D03*
%TO.P,J14,8,Pin_8*%
%TO.N,/B8*%
X117480000Y-121619975D03*
%TO.P,J14,9,Pin_9*%
%TO.N,/B9*%
X120020000Y-121619975D03*
%TO.P,J14,10,Pin_10*%
%TO.N,/B10*%
X122560000Y-121619975D03*
%TO.P,J14,11,Pin_11*%
%TO.N,/B11*%
X125100000Y-121619975D03*
%TO.P,J14,12,Pin_12*%
%TO.N,/B12*%
X127640000Y-121619975D03*
%TD*%
D15*
%TO.P,J2,A1,Aout_0*%
%TO.N,/A1*%
X234900000Y-103100000D03*
%TO.P,J2,A2,Aout_1*%
%TO.N,/A2*%
X236900000Y-104100000D03*
%TO.P,J2,A3,Aout_3*%
%TO.N,/A3*%
X234900000Y-105100000D03*
%TO.P,J2,A4,Aout_4*%
%TO.N,/A4*%
X236900000Y-106100000D03*
%TO.P,J2,A5,GND*%
%TO.N,/A5*%
X234900000Y-107100000D03*
%TO.P,J2,A6,AUX1*%
%TO.N,/A6*%
X236900000Y-108100000D03*
%TO.P,J2,A7,AUX2*%
%TO.N,/A7*%
X234900000Y-109100000D03*
%TO.P,J2,A8,GND*%
%TO.N,/A8*%
X236900000Y-110100000D03*
%TO.P,J2,A9,Ain_0*%
%TO.N,/A9*%
X234900000Y-111100000D03*
%TO.P,J2,A10,Ain_2*%
%TO.N,/A10*%
X236900000Y-112100000D03*
%TO.P,J2,A11,Ain_4*%
%TO.N,/A11*%
X234900000Y-113100000D03*
%TO.P,J2,A12,Ain_6*%
%TO.N,/A12*%
X236900000Y-116100000D03*
%TO.P,J2,A13,GND*%
%TO.N,/A13*%
X234900000Y-117100000D03*
%TO.P,J2,A14,Ain_8*%
%TO.N,/A14*%
X236900000Y-118100000D03*
%TO.P,J2,A15,Ain_10*%
%TO.N,/A15*%
X234900000Y-119100000D03*
%TO.P,J2,A16,Ain_12*%
%TO.N,/A16*%
X236900000Y-120100000D03*
%TO.P,J2,A17,Ain_14*%
%TO.N,/A17*%
X234900000Y-121100000D03*
%TO.P,J2,A18,GND*%
%TO.N,/A18*%
X236900000Y-122100000D03*
%TO.P,J2,A19,Ain_16*%
%TO.N,/A19*%
X234900000Y-123100000D03*
%TO.P,J2,A20,Ain_18*%
%TO.N,/A20*%
X236900000Y-124100000D03*
%TO.P,J2,A21,Ain_20*%
%TO.N,/A21*%
X234900000Y-125100000D03*
%TO.P,J2,A22,Ain_22*%
%TO.N,/A22*%
X236900000Y-126100000D03*
%TO.P,J2,A23,GND*%
%TO.N,/A23*%
X234900000Y-127100000D03*
%TO.P,J2,A24,Ain_24*%
%TO.N,/A24*%
X236900000Y-128100000D03*
%TO.P,J2,A25,Ain_26*%
%TO.N,/A25*%
X234900000Y-129100000D03*
%TO.P,J2,A26,Ain_28*%
%TO.N,/A26*%
X236900000Y-130100000D03*
%TO.P,J2,A27,Ain_30*%
%TO.N,/A27*%
X234900000Y-131100000D03*
%TO.P,J2,A28,GND*%
%TO.N,/A28*%
X236900000Y-132100000D03*
%TO.P,J2,A29,Ain_32*%
%TO.N,/A29*%
X234900000Y-133100000D03*
%TO.P,J2,A30,Ain_34*%
%TO.N,/A30*%
X236900000Y-134100000D03*
%TO.P,J2,A31,Ain_36*%
%TO.N,/A31*%
X234900000Y-135100000D03*
%TO.P,J2,A32,Ain_38*%
%TO.N,/A32*%
X236900000Y-136100000D03*
%TO.P,J2,B1,GND*%
%TO.N,/B1*%
X232400000Y-103100000D03*
%TO.P,J2,B2,3.3V*%
%TO.N,/B2*%
X230400000Y-104100000D03*
%TO.P,J2,B3,Vref_2(3V)*%
%TO.N,/B3*%
X232400000Y-105100000D03*
%TO.P,J2,B4,GND*%
%TO.N,/B4*%
X230400000Y-106100000D03*
%TO.P,J2,B5,SCL*%
%TO.N,/B5*%
X232400000Y-107100000D03*
%TO.P,J2,B6,SDA*%
%TO.N,/B6*%
X230400000Y-108100000D03*
%TO.P,J2,B7,AUX3*%
%TO.N,/B7*%
X232400000Y-109100000D03*
%TO.P,J2,B8,GND*%
%TO.N,/B8*%
X230400000Y-110100000D03*
%TO.P,J2,B9,Ain_1*%
%TO.N,/B9*%
X232400000Y-111100000D03*
%TO.P,J2,B10,Ain_3*%
%TO.N,/B10*%
X230400000Y-112100000D03*
%TO.P,J2,B11,Ain_5*%
%TO.N,/B11*%
X232400000Y-113100000D03*
%TO.P,J2,B12,Ain_7*%
%TO.N,/B12*%
X230400000Y-116100000D03*
%TO.P,J2,B13,GND*%
%TO.N,/B13*%
X232400000Y-117100000D03*
%TO.P,J2,B14,Ain_9*%
%TO.N,/B14*%
X230400000Y-118100000D03*
%TO.P,J2,B15,Ain_11*%
%TO.N,/B15*%
X232400000Y-119100000D03*
%TO.P,J2,B16,Ain_13*%
%TO.N,/B16*%
X230400000Y-120100000D03*
%TO.P,J2,B17,Ain_15*%
%TO.N,/B17*%
X232400000Y-121100000D03*
%TO.P,J2,B18,GND*%
%TO.N,/B18*%
X230400000Y-122100000D03*
%TO.P,J2,B19,Ain_17*%
%TO.N,/B19*%
X232400000Y-123100000D03*
%TO.P,J2,B20,Ain_19*%
%TO.N,/B20*%
X230400000Y-124100000D03*
%TO.P,J2,B21,Ain_21*%
%TO.N,/B21*%
X232400000Y-125100000D03*
%TO.P,J2,B22,Ain_23*%
%TO.N,/B22*%
X230400000Y-126100000D03*
%TO.P,J2,B23,GND*%
%TO.N,/B23*%
X232400000Y-127100000D03*
%TO.P,J2,B24,Ain_25*%
%TO.N,/B24*%
X230400000Y-128100000D03*
%TO.P,J2,B25,Ain_27*%
%TO.N,/B25*%
X232400000Y-129100000D03*
%TO.P,J2,B26,Ain_29*%
%TO.N,/B26*%
X230400000Y-130100000D03*
%TO.P,J2,B27,Ain_31*%
%TO.N,/B27*%
X232400000Y-131100000D03*
%TO.P,J2,B28,GND*%
%TO.N,/B28*%
X230400000Y-132100000D03*
%TO.P,J2,B29,Ain_33*%
%TO.N,/B29*%
X232400000Y-133100000D03*
%TO.P,J2,B30,Ain_35*%
%TO.N,/B30*%
X230400000Y-134100000D03*
%TO.P,J2,B31,Ain_37*%
%TO.N,/B31*%
X232400000Y-135100000D03*
%TO.P,J2,B32,Ain_39*%
%TO.N,/B32*%
X230400000Y-136100000D03*
%TD*%
D10*
%TO.P,TP21,1*%
%TO.N,/B3*%
X95000000Y-101800000D03*
%TD*%
D11*
%TO.P,J22,1,Pin_1*%
%TO.N,unconnected-(J22-Pin_1-Pad1)*%
X81785000Y-132000000D03*
D12*
%TO.P,J22,2,Pin_2*%
%TO.N,unconnected-(J22-Pin_2-Pad2)*%
X81785000Y-134540000D03*
%TO.P,J22,3,Pin_3*%
%TO.N,unconnected-(J22-Pin_3-Pad3)*%
X79245000Y-132000000D03*
%TO.P,J22,4,Pin_4*%
%TO.N,unconnected-(J22-Pin_4-Pad4)*%
X79245000Y-134540000D03*
%TO.P,J22,5,Pin_5*%
%TO.N,unconnected-(J22-Pin_5-Pad5)*%
X76705000Y-132000000D03*
%TO.P,J22,6,Pin_6*%
%TO.N,unconnected-(J22-Pin_6-Pad6)*%
X76705000Y-134540000D03*
%TO.P,J22,7,Pin_7*%
%TO.N,unconnected-(J22-Pin_7-Pad7)*%
X74165000Y-132000000D03*
%TO.P,J22,8,Pin_8*%
%TO.N,unconnected-(J22-Pin_8-Pad8)*%
X74165000Y-134540000D03*
%TO.P,J22,9,Pin_9*%
%TO.N,unconnected-(J22-Pin_9-Pad9)*%
X71625000Y-132000000D03*
%TO.P,J22,10,Pin_10*%
%TO.N,unconnected-(J22-Pin_10-Pad10)*%
X71625000Y-134540000D03*
%TD*%
D10*
%TO.P,TP43,1*%
%TO.N,/A25*%
X187000000Y-90519975D03*
%TD*%
D16*
%TO.N,/A1*%
X87350000Y-93250000D03*
X238116652Y-57132345D03*
%TO.N,/A5*%
X103200000Y-92870475D03*
X85150688Y-96050688D03*
X244545836Y-58818298D03*
X84609299Y-91709300D03*
%TO.N,/A8*%
X114950500Y-90770475D03*
X247356193Y-59950000D03*
%TO.N,/B2*%
X91200000Y-99100000D03*
X228300000Y-57600000D03*
%TO.N,/B3*%
X85600688Y-97899312D03*
X95200000Y-99100000D03*
X84900000Y-99700000D03*
X227386643Y-58005937D03*
%TO.N,/A2*%
X239000000Y-57600000D03*
X91150500Y-93200000D03*
%TO.N,/A3*%
X239913357Y-58005937D03*
X84800000Y-105250500D03*
X78894438Y-106706938D03*
X95150500Y-93200000D03*
%TO.N,/A4*%
X243638341Y-58399420D03*
X99150500Y-93100000D03*
X85600000Y-109100000D03*
%TO.N,/A6*%
X106950500Y-92170475D03*
X245484942Y-59160475D03*
%TO.N,/A7*%
X110950500Y-91470475D03*
X246406193Y-59550000D03*
%TO.N,/A9*%
X248269550Y-60355937D03*
X118950500Y-90070475D03*
%TO.N,/A10*%
X122950500Y-89370475D03*
X249256193Y-60750000D03*
%TO.N,/A11*%
X250168504Y-61158281D03*
X127012834Y-88670475D03*
%TO.N,/A12*%
X249000000Y-70200000D03*
X130950500Y-87970475D03*
%TO.N,/A13*%
X249950000Y-70600000D03*
X244650000Y-109469975D03*
%TO.N,/A14*%
X250863357Y-71005937D03*
%TO.N,/A15*%
X251782148Y-71399420D03*
%TO.N,/A16*%
X252689643Y-71818298D03*
%TO.N,/A17*%
X253628749Y-72160475D03*
%TO.N,/A18*%
X254550000Y-72550000D03*
%TO.N,/B1*%
X229250000Y-57200000D03*
X87200000Y-99100000D03*
%TO.N,/B4*%
X99200000Y-99200000D03*
X226467852Y-58399420D03*
%TO.N,/B5*%
X225560357Y-58818298D03*
X83700000Y-107550500D03*
X103000000Y-99519975D03*
%TO.N,/B6*%
X224621251Y-59160475D03*
X107000000Y-100219975D03*
%TO.N,/B7*%
X223700000Y-59550000D03*
X111000000Y-100919975D03*
%TO.N,/B8*%
X222750000Y-59950000D03*
X115000000Y-101619975D03*
%TO.N,/B9*%
X119000000Y-102319975D03*
X221836643Y-60355937D03*
%TO.N,/B10*%
X220850000Y-60750000D03*
X123000000Y-103019975D03*
%TO.N,/B11*%
X219918459Y-61112266D03*
X127000000Y-103719975D03*
%TO.N,/B12*%
X131000000Y-104419975D03*
X221150000Y-69020975D03*
%TO.N,/B13*%
X220200000Y-69469975D03*
%TO.N,/B14*%
X219286643Y-69875912D03*
%TO.N,/B15*%
X218367852Y-70269395D03*
%TO.N,/B16*%
X217460357Y-70688273D03*
%TO.N,/B17*%
X216521251Y-71030450D03*
%TO.N,/B18*%
X215600000Y-71419975D03*
%TO.N,+3V0*%
X73000000Y-75900000D03*
%TO.N,+12V*%
X80000000Y-68000000D03*
%TO.N,+5V*%
X73000000Y-68000000D03*
%TO.N,/CAN+*%
X80000000Y-58800000D03*
X67900000Y-61900000D03*
%TD*%
D17*
%TO.N,/A1*%
X95655000Y-84319975D02*
X91150000Y-84319975D01*
X99600000Y-80319975D02*
X99600000Y-70719975D01*
X238116652Y-57132345D02*
X238150000Y-57165693D01*
X82600000Y-94919975D02*
X87000000Y-90519975D01*
X99540000Y-70639975D02*
X99540000Y-65559975D01*
X91150000Y-84319975D02*
X87200000Y-88269975D01*
X84750000Y-111950000D02*
X84750000Y-106442031D01*
X238150000Y-57165693D02*
X238150000Y-103000000D01*
X87200000Y-93100000D02*
X87200000Y-90519975D01*
X84750000Y-106442031D02*
X82600000Y-104292031D01*
D18*
X87200000Y-88269975D02*
X87200000Y-90519975D01*
D17*
X81785000Y-114915000D02*
X84750000Y-111950000D01*
D18*
X238150000Y-103100000D02*
X234850000Y-103100000D01*
D17*
X82600000Y-104292031D02*
X82600000Y-94919975D01*
X234967655Y-57132345D02*
X234900000Y-57200000D01*
D18*
X99450000Y-70729975D02*
X99540000Y-70639975D01*
D17*
X99680000Y-80294975D02*
X95655000Y-84319975D01*
X87350000Y-93250000D02*
X87200000Y-93100000D01*
X81785000Y-117865000D02*
X81785000Y-114915000D01*
X238150000Y-103000000D02*
X238250000Y-103100000D01*
%TO.N,/A5*%
X82000500Y-106800500D02*
X82000500Y-110029500D01*
X109760000Y-80319975D02*
X109760000Y-70719975D01*
X85300000Y-95900000D02*
X100170475Y-95900000D01*
X243856193Y-101493807D02*
X243856193Y-100750000D01*
X103000000Y-90319975D02*
X103200000Y-90519975D01*
X103000000Y-87134975D02*
X103000000Y-90319975D01*
X243856193Y-59507941D02*
X243856193Y-100750000D01*
X103200000Y-90519975D02*
X103200000Y-92870475D01*
D18*
X109930000Y-80204975D02*
X109840000Y-80294975D01*
D17*
X244545836Y-58818298D02*
X243856193Y-59507941D01*
X100170475Y-95900000D02*
X103200000Y-92870475D01*
X109840000Y-80294975D02*
X103000000Y-87134975D01*
X81900000Y-94418599D02*
X81900000Y-106700000D01*
X109700000Y-65559975D02*
X109700000Y-70639975D01*
X82000500Y-110029500D02*
X74165000Y-117865000D01*
D18*
X238150000Y-107100000D02*
X234850000Y-107100000D01*
D17*
X81900000Y-106700000D02*
X82000500Y-106800500D01*
X84609299Y-91709300D02*
X81900000Y-94418599D01*
X238250000Y-107100000D02*
X243856193Y-101493807D01*
D18*
%TO.N,/A8*%
X117550000Y-80204975D02*
X117460000Y-80294975D01*
D17*
X117380000Y-80319975D02*
X117380000Y-70719975D01*
X117320000Y-65559975D02*
X117320000Y-70639975D01*
X238239950Y-110100000D02*
X245956193Y-102383756D01*
X245956193Y-61350000D02*
X245956193Y-102150000D01*
X115000000Y-90319975D02*
X115200000Y-90519975D01*
X115000000Y-82754975D02*
X115000000Y-90319975D01*
X245956193Y-102383756D02*
X245956193Y-102150000D01*
X236900000Y-110100000D02*
X238239950Y-110100000D01*
X117460000Y-80294975D02*
X115000000Y-82754975D01*
X247356193Y-59950000D02*
X245956193Y-61350000D01*
%TO.N,/B2*%
X230400000Y-104100000D02*
X229060051Y-104100000D01*
X93150000Y-106019975D02*
X91200000Y-104069975D01*
X95940000Y-106019975D02*
X93150000Y-106019975D01*
X229060051Y-104100000D02*
X228350000Y-103389949D01*
X228350000Y-57650000D02*
X228300000Y-57600000D01*
D18*
X91200000Y-104069975D02*
X91200000Y-101819975D01*
D17*
X228350000Y-103389949D02*
X228350000Y-57650000D01*
X101940000Y-112019975D02*
X95940000Y-106019975D01*
X91200000Y-99100000D02*
X91200000Y-101819975D01*
X102240000Y-121619975D02*
X102240000Y-112019975D01*
X102240000Y-126699975D02*
X102240000Y-121619975D01*
%TO.N,/B3*%
X85600688Y-97899312D02*
X84900000Y-98600000D01*
D18*
X232350000Y-105100000D02*
X229050000Y-105100000D01*
D17*
X104480000Y-112019975D02*
X95200000Y-102739975D01*
X227650000Y-103700000D02*
X227650000Y-58269294D01*
X104780000Y-121619975D02*
X104780000Y-112019975D01*
X227650000Y-58269294D02*
X227386643Y-58005937D01*
X95200000Y-99100000D02*
X95200000Y-101819975D01*
D18*
X95200000Y-102739975D02*
X95200000Y-101819975D01*
D17*
X104780000Y-126699975D02*
X104780000Y-121619975D01*
X84900000Y-98600000D02*
X84900000Y-99700000D01*
X229050000Y-105100000D02*
X227650000Y-103700000D01*
%TO.N,/A2*%
X91150500Y-93200000D02*
X91150500Y-90569475D01*
X102080000Y-70639975D02*
X102080000Y-65559975D01*
X96195000Y-86319975D02*
X93000000Y-86319975D01*
X236900000Y-104100000D02*
X238239949Y-104100000D01*
X238950000Y-57650000D02*
X239000000Y-57600000D01*
X238239949Y-104100000D02*
X238950000Y-103389949D01*
X91150500Y-90569475D02*
X91200000Y-90519975D01*
D18*
X101990000Y-70729975D02*
X102080000Y-70639975D01*
D17*
X238950000Y-103389949D02*
X238950000Y-57650000D01*
D18*
X91200000Y-88119975D02*
X91000000Y-88319975D01*
X91000000Y-88319975D02*
X91000000Y-90319975D01*
X91000000Y-90319975D02*
X91200000Y-90519975D01*
D17*
X102220000Y-80294975D02*
X96195000Y-86319975D01*
X93000000Y-86319975D02*
X91200000Y-88119975D01*
X102140000Y-80319975D02*
X102140000Y-70719975D01*
%TO.N,/A3*%
X83300000Y-104002082D02*
X83300000Y-95500000D01*
X78650485Y-111949515D02*
X74600000Y-116000000D01*
X104620000Y-65559975D02*
X104620000Y-70639975D01*
X78650485Y-106950891D02*
X78650485Y-111949515D01*
X104760000Y-80294975D02*
X95200000Y-89854975D01*
X104680000Y-80319975D02*
X104680000Y-70719975D01*
X239650000Y-58269294D02*
X239913357Y-58005937D01*
X74600000Y-116000000D02*
X73490000Y-116000000D01*
X94250500Y-94100000D02*
X95150500Y-93200000D01*
X95150500Y-93200000D02*
X95150500Y-90569475D01*
X83300000Y-95500000D02*
X84700000Y-94100000D01*
X73490000Y-116000000D02*
X71625000Y-117865000D01*
D18*
X95200000Y-89854975D02*
X95200000Y-90519975D01*
X104850000Y-80204975D02*
X104760000Y-80294975D01*
D17*
X84800000Y-105250500D02*
X84548418Y-105250500D01*
X95150500Y-90569475D02*
X95200000Y-90519975D01*
X84700000Y-94100000D02*
X94250500Y-94100000D01*
X238250000Y-105100000D02*
X239650000Y-103700000D01*
X239650000Y-103700000D02*
X239650000Y-58269294D01*
X84548418Y-105250500D02*
X83300000Y-104002082D01*
D18*
X238250000Y-105100000D02*
X234950000Y-105100000D01*
D17*
X78894438Y-106706938D02*
X78650485Y-106950891D01*
%TO.N,/A4*%
X84000000Y-96000000D02*
X85000000Y-95000000D01*
X99150500Y-93100000D02*
X99150500Y-90569475D01*
X85000000Y-95000000D02*
X97250500Y-95000000D01*
D18*
X107070000Y-70729975D02*
X107160000Y-70639975D01*
D17*
X107300000Y-80294975D02*
X99200000Y-88394975D01*
X84000000Y-103248418D02*
X84000000Y-96000000D01*
X243156193Y-58881568D02*
X243638341Y-58399420D01*
X97250500Y-95000000D02*
X99150500Y-93100000D01*
X99150500Y-90569475D02*
X99200000Y-90519975D01*
X236900000Y-106100000D02*
X238239949Y-106100000D01*
X85600000Y-109100000D02*
X85650000Y-109050000D01*
X107160000Y-70639975D02*
X107160000Y-65559975D01*
D18*
X99200000Y-88394975D02*
X99200000Y-90519975D01*
D17*
X238239949Y-106100000D02*
X243156193Y-101183756D01*
X107220000Y-80319975D02*
X107220000Y-70719975D01*
X243156193Y-101183756D02*
X243156193Y-59650000D01*
X85650000Y-104898418D02*
X84000000Y-103248418D01*
X243156193Y-59600000D02*
X243156193Y-58881568D01*
X85650000Y-109050000D02*
X85650000Y-104898418D01*
%TO.N,/A6*%
X106800000Y-90119975D02*
X107200000Y-90519975D01*
D18*
X112150000Y-70729975D02*
X112240000Y-70639975D01*
D17*
X244556193Y-60089224D02*
X244556193Y-101700000D01*
X236900000Y-108100000D02*
X238239950Y-108100000D01*
X238239950Y-108100000D02*
X244556193Y-101783757D01*
X112380000Y-80294975D02*
X106800000Y-85874975D01*
X112240000Y-70639975D02*
X112240000Y-65559975D01*
X244556193Y-101783757D02*
X244556193Y-101700000D01*
X112300000Y-80319975D02*
X112300000Y-70719975D01*
X106800000Y-85874975D02*
X106800000Y-90119975D01*
X245484942Y-59160475D02*
X244556193Y-60089224D01*
%TO.N,/A7*%
X114780000Y-70639975D02*
X114780000Y-65559975D01*
D18*
X114690000Y-70729975D02*
X114780000Y-70639975D01*
D17*
X111000000Y-84214975D02*
X111000000Y-90319975D01*
X114840000Y-80319975D02*
X114840000Y-70719975D01*
X245256193Y-60700000D02*
X245256193Y-101950000D01*
X238250000Y-109100000D02*
X245256193Y-102093807D01*
X114920000Y-80294975D02*
X111000000Y-84214975D01*
X245256193Y-102093807D02*
X245256193Y-101950000D01*
D18*
X238150000Y-109100000D02*
X234850000Y-109100000D01*
D17*
X111000000Y-90319975D02*
X111200000Y-90519975D01*
X246406193Y-59550000D02*
X245256193Y-60700000D01*
%TO.N,/A9*%
X119000000Y-81294975D02*
X119000000Y-90319975D01*
D18*
X119770000Y-70729975D02*
X119860000Y-70639975D01*
D17*
X246656193Y-61975000D02*
X246656193Y-102673705D01*
X248269550Y-60361643D02*
X246656193Y-61975000D01*
X119000000Y-90319975D02*
X119200000Y-90519975D01*
X246656193Y-102673705D02*
X238250000Y-111079900D01*
X120000000Y-80294975D02*
X119000000Y-81294975D01*
D18*
X238150000Y-111100000D02*
X234850000Y-111100000D01*
D17*
X119860000Y-70639975D02*
X119860000Y-65559975D01*
X248269550Y-60355937D02*
X248269550Y-60361643D01*
X238250000Y-111079900D02*
X238250000Y-111100000D01*
X119920000Y-80319975D02*
X119920000Y-70719975D01*
%TO.N,/A10*%
X123000000Y-90319975D02*
X123200000Y-90519975D01*
X243459924Y-106880025D02*
X243459924Y-106859924D01*
X122460000Y-80319975D02*
X122460000Y-70719975D01*
D18*
X122460000Y-80319975D02*
X122515000Y-80319975D01*
D17*
X236900000Y-112100000D02*
X238239949Y-112100000D01*
X243459924Y-106859924D02*
X247356193Y-102963655D01*
X247356193Y-102963655D02*
X247356193Y-62650000D01*
X122460000Y-80319975D02*
X123000000Y-80859975D01*
D18*
X122515000Y-80319975D02*
X122630000Y-80204975D01*
D17*
X123000000Y-80859975D02*
X123000000Y-90319975D01*
X122400000Y-65559975D02*
X122400000Y-70639975D01*
X238239949Y-112100000D02*
X243459924Y-106880025D01*
X247356193Y-62650000D02*
X249256193Y-60750000D01*
%TO.N,/A11*%
X250168504Y-61158281D02*
X250168504Y-61039771D01*
X125080000Y-80294975D02*
X127000000Y-82214975D01*
X124940000Y-65559975D02*
X124940000Y-70639975D01*
D18*
X124850000Y-70729975D02*
X124940000Y-70639975D01*
X234900000Y-113100000D02*
X238250000Y-113100000D01*
D17*
X248056193Y-103293807D02*
X238250000Y-113100000D01*
X127000000Y-90319975D02*
X127200000Y-90519975D01*
X250168504Y-61158281D02*
X248056193Y-63270592D01*
X248056193Y-63270592D02*
X248056193Y-103293807D01*
X127000000Y-82214975D02*
X127000000Y-90319975D01*
X125000000Y-80319975D02*
X125000000Y-70719975D01*
%TO.N,/A12*%
X236900000Y-115500000D02*
X244100000Y-108300000D01*
X236900000Y-116100000D02*
X236900000Y-115500000D01*
X127480000Y-70639975D02*
X127480000Y-65559975D01*
X244100000Y-108300000D02*
X244100000Y-108239950D01*
X244100000Y-108239950D02*
X248800000Y-103539950D01*
X127620000Y-80294975D02*
X131000000Y-83674975D01*
D18*
X127710000Y-80204975D02*
X127620000Y-80294975D01*
D17*
X131000000Y-83674975D02*
X131000000Y-90519975D01*
X248800000Y-70400000D02*
X249000000Y-70200000D01*
X248800000Y-103539950D02*
X248800000Y-70400000D01*
X127540000Y-80319975D02*
X127540000Y-70719975D01*
%TO.N,/A13*%
X249500000Y-103889950D02*
X249500000Y-71050000D01*
X243594975Y-109794975D02*
X249500000Y-103889950D01*
X135000000Y-85134975D02*
X135000000Y-90519975D01*
X136280000Y-74119975D02*
X141000000Y-74119975D01*
X144000000Y-65719975D02*
X144000000Y-70799975D01*
X244650000Y-109469975D02*
X243919975Y-109469975D01*
X238150000Y-117100000D02*
X238150000Y-115239950D01*
D18*
X238250000Y-117100000D02*
X234950000Y-117100000D01*
D17*
X130080000Y-80319975D02*
X136280000Y-74119975D01*
X141000000Y-74119975D02*
X144000000Y-71119975D01*
X238150000Y-115239950D02*
X243594975Y-109794975D01*
X249500000Y-71050000D02*
X249950000Y-70600000D01*
X243919975Y-109469975D02*
X243594975Y-109794975D01*
D18*
X144000000Y-71119975D02*
X144000000Y-70719975D01*
D17*
X130160000Y-80294975D02*
X135000000Y-85134975D01*
%TO.N,/A14*%
X132620000Y-80319975D02*
X137820000Y-75119975D01*
X250200000Y-109340200D02*
X250200000Y-71669294D01*
X142140000Y-75119975D02*
X146540000Y-70719975D01*
X241440200Y-118100000D02*
X250200000Y-109340200D01*
X250200000Y-71669294D02*
X250863357Y-71005937D01*
X139000000Y-86594975D02*
X139000000Y-90519975D01*
X132700000Y-80294975D02*
X139000000Y-86594975D01*
X137820000Y-75119975D02*
X142140000Y-75119975D01*
X236900000Y-118100000D02*
X241440200Y-118100000D01*
X146540000Y-70719975D02*
X146540000Y-65639975D01*
%TO.N,/A15*%
X143680000Y-76119975D02*
X139360000Y-76119975D01*
X139360000Y-76119975D02*
X135160000Y-80319975D01*
X238150000Y-119100000D02*
X241430150Y-119100000D01*
D18*
X143000000Y-88054975D02*
X143000000Y-90519975D01*
D17*
X250900000Y-72281568D02*
X251782148Y-71399420D01*
X250900000Y-109630150D02*
X250900000Y-72281568D01*
X135240000Y-80294975D02*
X143000000Y-88054975D01*
X241430150Y-119100000D02*
X250900000Y-109630150D01*
X149080000Y-70719975D02*
X143680000Y-76119975D01*
D18*
X238250000Y-119100000D02*
X234950000Y-119100000D01*
D17*
X149080000Y-70719975D02*
X149080000Y-65639975D01*
D18*
%TO.N,/A16*%
X147000000Y-89514975D02*
X147000000Y-90519975D01*
D17*
X140900000Y-77119975D02*
X137700000Y-80319975D01*
X251600000Y-109920100D02*
X251600000Y-72907941D01*
X151620000Y-70719975D02*
X151620000Y-65639975D01*
X251600000Y-72907941D02*
X252689643Y-71818298D01*
X241420100Y-120100000D02*
X251600000Y-109920100D01*
X151620000Y-70719975D02*
X145220000Y-77119975D01*
X145220000Y-77119975D02*
X140900000Y-77119975D01*
X236900000Y-120100000D02*
X241420100Y-120100000D01*
X137780000Y-80294975D02*
X147000000Y-89514975D01*
%TO.N,/A17*%
X238200000Y-121100000D02*
X241410050Y-121100000D01*
X149000000Y-86319975D02*
X151000000Y-88319975D01*
D18*
X238250000Y-121100000D02*
X234950000Y-121100000D01*
D17*
X252300000Y-110210050D02*
X252300000Y-73489224D01*
X142400000Y-78159975D02*
X140240000Y-80319975D01*
X241410050Y-121100000D02*
X252300000Y-110210050D01*
X154160000Y-70719975D02*
X154160000Y-65639975D01*
X140320000Y-80294975D02*
X146345000Y-86319975D01*
X146760000Y-78119975D02*
X142400000Y-78119975D01*
X154160000Y-70719975D02*
X146760000Y-78119975D01*
X146345000Y-86319975D02*
X149000000Y-86319975D01*
D18*
X151000000Y-88319975D02*
X151000000Y-90519975D01*
D17*
X252300000Y-73489224D02*
X253628749Y-72160475D01*
D18*
X142400000Y-78119975D02*
X142400000Y-78159975D01*
D17*
%TO.N,/A18*%
X156700000Y-70719975D02*
X148300000Y-79119975D01*
X146885000Y-84319975D02*
X151050000Y-84319975D01*
X253000000Y-110500000D02*
X253000000Y-74100000D01*
X156700000Y-65639975D02*
X156700000Y-70719975D01*
X148300000Y-79119975D02*
X143980000Y-79119975D01*
X142860000Y-80294975D02*
X146885000Y-84319975D01*
X143980000Y-79119975D02*
X142780000Y-80319975D01*
X253000000Y-74100000D02*
X254550000Y-72550000D01*
X241400000Y-122100000D02*
X253000000Y-110500000D01*
X151050000Y-84319975D02*
X155000000Y-88269975D01*
X236900000Y-122100000D02*
X241400000Y-122100000D01*
D18*
X155000000Y-88269975D02*
X155000000Y-90519975D01*
D17*
%TO.N,/B1*%
X99400000Y-112019975D02*
X95600000Y-108219975D01*
D18*
X232350000Y-103100000D02*
X229050000Y-103100000D01*
X87200000Y-101819975D02*
X87200000Y-101419975D01*
D17*
X232350000Y-57150000D02*
X232400000Y-57200000D01*
X229200000Y-57250000D02*
X229250000Y-57200000D01*
X91350000Y-108219975D02*
X87200000Y-104069975D01*
D18*
X87200000Y-101819975D02*
X87200000Y-101619975D01*
X87200000Y-104069975D02*
X87200000Y-101819975D01*
D17*
X99700000Y-121619975D02*
X99700000Y-126699975D01*
X99700000Y-112019975D02*
X99700000Y-121619975D01*
X229200000Y-102950000D02*
X229200000Y-57250000D01*
X95600000Y-108219975D02*
X91350000Y-108219975D01*
X87200000Y-99100000D02*
X87200000Y-101819975D01*
X229050000Y-103100000D02*
X229200000Y-102950000D01*
%TO.N,/B4*%
X107320000Y-126699975D02*
X107320000Y-121619975D01*
X226950000Y-91900000D02*
X226950000Y-59650000D01*
X107020000Y-112019975D02*
X99200000Y-104199975D01*
X99200000Y-101819975D02*
X99200000Y-102069475D01*
X226950000Y-103989949D02*
X226950000Y-91900000D01*
X226950000Y-59650000D02*
X226950000Y-59600000D01*
X226950000Y-59600000D02*
X226950000Y-58881568D01*
X99200000Y-99200000D02*
X99200000Y-101819975D01*
X107320000Y-112019975D02*
X107320000Y-121619975D01*
X226950000Y-58881568D02*
X226467852Y-58399420D01*
X99200000Y-104199975D02*
X99200000Y-101819975D01*
X230400000Y-106100000D02*
X229060051Y-106100000D01*
X229060051Y-106100000D02*
X226950000Y-103989949D01*
%TO.N,/B5*%
X83700000Y-107550500D02*
X83700000Y-111800000D01*
X103000000Y-99519975D02*
X103000000Y-101819975D01*
X103000000Y-105459975D02*
X103000000Y-101819975D01*
X83700000Y-111800000D02*
X80900000Y-114600000D01*
X103000000Y-101819975D02*
X103000000Y-102769475D01*
X226250000Y-104300000D02*
X229050000Y-107100000D01*
X226250000Y-59507941D02*
X226250000Y-104300000D01*
X80900000Y-116210000D02*
X79245000Y-117865000D01*
D18*
X232350000Y-107100000D02*
X229050000Y-107100000D01*
D17*
X109860000Y-121619975D02*
X109860000Y-126699975D01*
X109860000Y-112019975D02*
X109860000Y-121619975D01*
X80900000Y-114600000D02*
X80900000Y-116210000D01*
X225560357Y-58818298D02*
X226250000Y-59507941D01*
X109560000Y-112019975D02*
X103000000Y-105459975D01*
%TO.N,/B6*%
X107000000Y-106919975D02*
X107000000Y-101819975D01*
X229060050Y-108100000D02*
X230400000Y-108100000D01*
X112100000Y-112019975D02*
X107000000Y-106919975D01*
X225550000Y-104589950D02*
X229060050Y-108100000D01*
X224621251Y-59160475D02*
X225550000Y-60089224D01*
X225550000Y-60089224D02*
X225550000Y-104589950D01*
X107000000Y-101819975D02*
X107000000Y-103469475D01*
X112400000Y-121619975D02*
X112400000Y-112019975D01*
X112400000Y-126699975D02*
X112400000Y-121619975D01*
%TO.N,/B7*%
X111000000Y-101819975D02*
X111000000Y-104169475D01*
X114940000Y-126699975D02*
X114940000Y-121619975D01*
X224850000Y-60700000D02*
X224850000Y-104900000D01*
X223700000Y-59550000D02*
X224850000Y-60700000D01*
X224850000Y-104900000D02*
X229050000Y-109100000D01*
X114640000Y-112019975D02*
X111000000Y-108379975D01*
D18*
X232350000Y-109100000D02*
X229050000Y-109100000D01*
D17*
X111000000Y-108379975D02*
X111000000Y-101819975D01*
X114940000Y-112019975D02*
X114940000Y-121619975D01*
%TO.N,/B8*%
X117180000Y-112019975D02*
X115000000Y-109839975D01*
X224150000Y-61350000D02*
X224150000Y-105189949D01*
X229060050Y-110100000D02*
X230400000Y-110100000D01*
X117480000Y-121619975D02*
X117480000Y-112019975D01*
X115000000Y-109839975D02*
X115000000Y-101819975D01*
X224150000Y-105189949D02*
X229060050Y-110100000D01*
X117480000Y-126699975D02*
X117480000Y-121619975D01*
X222750000Y-59950000D02*
X224150000Y-61350000D01*
%TO.N,/B9*%
X229050000Y-111079900D02*
X229050000Y-111100000D01*
X120020000Y-121619975D02*
X120020000Y-126699975D01*
X120020000Y-112019975D02*
X120020000Y-121619975D01*
X223450000Y-61975000D02*
X223450000Y-105479898D01*
X221836643Y-60361643D02*
X223450000Y-61975000D01*
X221836643Y-60355937D02*
X221836643Y-60361643D01*
D18*
X232350000Y-111100000D02*
X229050000Y-111100000D01*
D17*
X119000000Y-101819975D02*
X119000000Y-111299975D01*
X223450000Y-105479898D02*
X229050000Y-111079900D01*
D18*
X119720000Y-112019975D02*
X119000000Y-111299975D01*
D17*
%TO.N,/B10*%
X123000000Y-106269475D02*
X123000000Y-101819975D01*
X222750000Y-105769848D02*
X223840076Y-106859924D01*
X220850000Y-60750000D02*
X222750000Y-62650000D01*
X123000000Y-111279975D02*
X123000000Y-106269475D01*
X229060051Y-112100000D02*
X230400000Y-112100000D01*
D18*
X122260000Y-112019975D02*
X123000000Y-111279975D01*
D17*
X122560000Y-126699975D02*
X122560000Y-121619975D01*
X122560000Y-121619975D02*
X122560000Y-112019975D01*
X223840076Y-106880025D02*
X229060051Y-112100000D01*
X222750000Y-62650000D02*
X222750000Y-105769848D01*
X223840076Y-106859924D02*
X223840076Y-106880025D01*
%TO.N,/B11*%
X222050000Y-63243807D02*
X219918459Y-61112266D01*
D18*
X232350000Y-113100000D02*
X229050000Y-113100000D01*
D17*
X229050000Y-113100000D02*
X222050000Y-106100000D01*
X125100000Y-121619975D02*
X125100000Y-112019975D01*
X127000000Y-109819975D02*
X127000000Y-101819975D01*
X124800000Y-112019975D02*
X127000000Y-109819975D01*
X125100000Y-126699975D02*
X125100000Y-121619975D01*
X222050000Y-106100000D02*
X222050000Y-63243807D01*
%TO.N,/B12*%
X221350000Y-108310050D02*
X221350000Y-69220975D01*
X127640000Y-121619975D02*
X127640000Y-112019975D01*
X230400000Y-116100000D02*
X229139950Y-116100000D01*
X229139950Y-116100000D02*
X221350000Y-108310050D01*
X131000000Y-108359975D02*
X131000000Y-101819975D01*
X221350000Y-69220975D02*
X221150000Y-69020975D01*
X127640000Y-121619975D02*
X127640000Y-126699975D01*
X127340000Y-112019975D02*
X131000000Y-108359975D01*
%TO.N,/B13*%
X220650000Y-108600000D02*
X220650000Y-69919975D01*
X130180000Y-112019975D02*
X136780000Y-118619975D01*
X229150000Y-117100000D02*
X220650000Y-108600000D01*
X136780000Y-118619975D02*
X141060000Y-118619975D01*
X144060000Y-121619975D02*
X144060000Y-126699975D01*
X135000000Y-106899975D02*
X135000000Y-101819975D01*
X220650000Y-69919975D02*
X220200000Y-69469975D01*
X129880000Y-112019975D02*
X135000000Y-106899975D01*
D18*
X232450000Y-117100000D02*
X229150000Y-117100000D01*
D17*
X141060000Y-118619975D02*
X144060000Y-121619975D01*
%TO.N,/B14*%
X139000000Y-105439975D02*
X139000000Y-101819975D01*
X219950000Y-70539269D02*
X219286643Y-69875912D01*
X142600000Y-117619975D02*
X146600000Y-121619975D01*
X132720000Y-112019975D02*
X138320000Y-117619975D01*
X146600000Y-126699975D02*
X146600000Y-121619975D01*
X132420000Y-112019975D02*
X139000000Y-105439975D01*
X219950000Y-108889950D02*
X219950000Y-70539269D01*
X138320000Y-117619975D02*
X142600000Y-117619975D01*
X229160050Y-118100000D02*
X219950000Y-108889950D01*
X230400000Y-118100000D02*
X229160050Y-118100000D01*
%TO.N,/B15*%
X229150000Y-119100000D02*
X219250000Y-109200000D01*
D18*
X143000000Y-103979975D02*
X143000000Y-101819975D01*
D17*
X149140000Y-121619975D02*
X144140000Y-116619975D01*
X139860000Y-116619975D02*
X144140000Y-116619975D01*
X149140000Y-121619975D02*
X149140000Y-126699975D01*
X219250000Y-71151543D02*
X218367852Y-70269395D01*
D18*
X232450000Y-119100000D02*
X229150000Y-119100000D01*
D17*
X139860000Y-116619975D02*
X135260000Y-112019975D01*
X134960000Y-112019975D02*
X143000000Y-103979975D01*
X219250000Y-109200000D02*
X219250000Y-71151543D01*
%TO.N,/B16*%
X151680000Y-121619975D02*
X145680000Y-115619975D01*
X141400000Y-115619975D02*
X137800000Y-112019975D01*
X218550000Y-109489949D02*
X218550000Y-71777916D01*
X218550000Y-71777916D02*
X217460357Y-70688273D01*
X151680000Y-126699975D02*
X151680000Y-121619975D01*
X230400000Y-120100000D02*
X229160050Y-120100000D01*
X141400000Y-115619975D02*
X145680000Y-115619975D01*
X229160050Y-120100000D02*
X218550000Y-109489949D01*
X137500000Y-112019975D02*
X147000000Y-102519975D01*
D18*
X147000000Y-102519975D02*
X147000000Y-101819975D01*
D17*
%TO.N,/B17*%
X142940000Y-114619975D02*
X147220000Y-114619975D01*
X147220000Y-114619975D02*
X154220000Y-121619975D01*
D18*
X232400000Y-121100000D02*
X229100000Y-121100000D01*
D17*
X229100000Y-121100000D02*
X217850000Y-109850000D01*
D18*
X151000000Y-104069975D02*
X151000000Y-101819975D01*
D17*
X140040000Y-112019975D02*
X146240000Y-105819975D01*
X140340000Y-112019975D02*
X142940000Y-114619975D01*
X217850000Y-72359199D02*
X216521251Y-71030450D01*
X149250000Y-105819975D02*
X151000000Y-104069975D01*
X217850000Y-109850000D02*
X217850000Y-72359199D01*
X154220000Y-121619975D02*
X154220000Y-126699975D01*
X146240000Y-105819975D02*
X149250000Y-105819975D01*
%TO.N,/B18*%
X230400000Y-122100000D02*
X229110051Y-122100000D01*
X151450000Y-107619975D02*
X155000000Y-104069975D01*
D18*
X155000000Y-104069975D02*
X155000000Y-101819975D01*
D17*
X229110051Y-122100000D02*
X217150000Y-110139949D01*
X146980000Y-107619975D02*
X151450000Y-107619975D01*
X142580000Y-112019975D02*
X146980000Y-107619975D01*
X144480000Y-113619975D02*
X148760000Y-113619975D01*
X217150000Y-110139949D02*
X217150000Y-72969975D01*
X217150000Y-72969975D02*
X215600000Y-71419975D01*
X156760000Y-126699975D02*
X156760000Y-121619975D01*
X156760000Y-121619975D02*
X148760000Y-113619975D01*
X144480000Y-113619975D02*
X142880000Y-112019975D01*
D18*
%TO.N,/A19*%
X163000000Y-89659975D02*
X163000000Y-90519975D01*
D17*
X159240000Y-70719975D02*
X159240000Y-65639975D01*
X171200000Y-79119975D02*
X167640000Y-79119975D01*
X172340000Y-80319975D02*
X163000000Y-89659975D01*
X172400000Y-80319975D02*
X171200000Y-79119975D01*
X167640000Y-79119975D02*
X159240000Y-70719975D01*
D18*
%TO.N,/A20*%
X167000000Y-88199975D02*
X167000000Y-90519975D01*
D17*
X172740000Y-78119975D02*
X174940000Y-80319975D01*
X169180000Y-78119975D02*
X172740000Y-78119975D01*
X161780000Y-70719975D02*
X169180000Y-78119975D01*
X174880000Y-80319975D02*
X167000000Y-88199975D01*
X161780000Y-65639975D02*
X161780000Y-70719975D01*
%TO.N,/A21*%
X177420000Y-80319975D02*
X171000000Y-86739975D01*
X174280000Y-77119975D02*
X177480000Y-80319975D01*
X170720000Y-77119975D02*
X174280000Y-77119975D01*
X164320000Y-70719975D02*
X170720000Y-77119975D01*
X164320000Y-70719975D02*
X164320000Y-65639975D01*
X171000000Y-86739975D02*
X171000000Y-90519975D01*
%TO.N,/A22*%
X166860000Y-65639975D02*
X166860000Y-70719975D01*
X172260000Y-76119975D02*
X166860000Y-70719975D01*
X175820000Y-76119975D02*
X172260000Y-76119975D01*
X179960000Y-80319975D02*
X175000000Y-85279975D01*
X180020000Y-80319975D02*
X175820000Y-76119975D01*
X175000000Y-85279975D02*
X175000000Y-90519975D01*
%TO.N,/A23*%
X169400000Y-70719975D02*
X169400000Y-65639975D01*
X173800000Y-75119975D02*
X177360000Y-75119975D01*
X179000000Y-83819975D02*
X179000000Y-90519975D01*
X182500000Y-80319975D02*
X179000000Y-83819975D01*
X177360000Y-75119975D02*
X182560000Y-80319975D01*
X169400000Y-70719975D02*
X173800000Y-75119975D01*
%TO.N,/A24*%
X185040000Y-80319975D02*
X183000000Y-82359975D01*
X185100000Y-80319975D02*
X178900000Y-74119975D01*
X183000000Y-82359975D02*
X183000000Y-90519975D01*
X178900000Y-74119975D02*
X175340000Y-74119975D01*
X171940000Y-65639975D02*
X171940000Y-70719975D01*
X175340000Y-74119975D02*
X171940000Y-70719975D01*
%TO.N,/A25*%
X187000000Y-90519975D02*
X187000000Y-80899975D01*
D18*
X187600000Y-80279975D02*
X187640000Y-80319975D01*
D17*
X187600000Y-70644975D02*
X187600000Y-80279975D01*
X187600000Y-70644975D02*
X187600000Y-65564975D01*
D18*
X187000000Y-80899975D02*
X187580000Y-80319975D01*
D17*
%TO.N,/A26*%
X190180000Y-80319975D02*
X190180000Y-70684975D01*
X190140000Y-70644975D02*
X190140000Y-65564975D01*
D18*
X190180000Y-70684975D02*
X190140000Y-70644975D01*
D17*
X191000000Y-81199975D02*
X191000000Y-90519975D01*
X190120000Y-80319975D02*
X191000000Y-81199975D01*
%TO.N,/A27*%
X192660000Y-80319975D02*
X194800000Y-82459975D01*
X192680000Y-65564975D02*
X192680000Y-70644975D01*
X192680000Y-70644975D02*
X192680000Y-80279975D01*
D18*
X192680000Y-80279975D02*
X192720000Y-80319975D01*
D17*
X194800000Y-82459975D02*
X194800000Y-90519975D01*
%TO.N,/A28*%
X195200000Y-80319975D02*
X198800000Y-83919975D01*
X198800000Y-83919975D02*
X198800000Y-90519975D01*
X195260000Y-80319975D02*
X195260000Y-70684975D01*
X195220000Y-70644975D02*
X195220000Y-65564975D01*
D18*
X195260000Y-70684975D02*
X195220000Y-70644975D01*
%TO.N,/A29*%
X197760000Y-80279975D02*
X197800000Y-80319975D01*
D17*
X197760000Y-65564975D02*
X197760000Y-70644975D01*
X197760000Y-70644975D02*
X197760000Y-80279975D01*
X202800000Y-85379975D02*
X202800000Y-90519975D01*
X197740000Y-80319975D02*
X202800000Y-85379975D01*
D18*
%TO.N,/A30*%
X200340000Y-70684975D02*
X200300000Y-70644975D01*
D17*
X200300000Y-70644975D02*
X200300000Y-65564975D01*
X206800000Y-86839975D02*
X206800000Y-90519975D01*
X200340000Y-80319975D02*
X200340000Y-70684975D01*
X200280000Y-80319975D02*
X206800000Y-86839975D01*
%TO.N,/A31*%
X202840000Y-70644975D02*
X202840000Y-80279975D01*
D18*
X210800000Y-88299975D02*
X210800000Y-90519975D01*
D17*
X202820000Y-80319975D02*
X210800000Y-88299975D01*
X202840000Y-65564975D02*
X202840000Y-70644975D01*
D18*
X202840000Y-80279975D02*
X202880000Y-80319975D01*
D17*
%TO.N,/A32*%
X205420000Y-80319975D02*
X205420000Y-70684975D01*
X205380000Y-70644975D02*
X205380000Y-65564975D01*
D18*
X214800000Y-89759975D02*
X214800000Y-90519975D01*
D17*
X205360000Y-80319975D02*
X214800000Y-89759975D01*
D18*
X205420000Y-70684975D02*
X205380000Y-70644975D01*
D17*
%TO.N,/B19*%
X163000000Y-103300000D02*
X163000000Y-102294975D01*
D18*
X163000000Y-102294975D02*
X163000000Y-101819975D01*
D17*
X159300000Y-121619975D02*
X167300000Y-113619975D01*
X171375000Y-113619975D02*
X167300000Y-113619975D01*
X159300000Y-121619975D02*
X159300000Y-126699975D01*
X171375000Y-113619975D02*
X173000000Y-111994975D01*
X172700000Y-111994975D02*
X171694975Y-111994975D01*
X171694975Y-111994975D02*
X163000000Y-103300000D01*
D18*
%TO.N,/B20*%
X161840000Y-121619975D02*
X161840000Y-121439975D01*
D17*
X161840000Y-121619975D02*
X168840000Y-114619975D01*
X161840000Y-126699975D02*
X161840000Y-121619975D01*
X172565000Y-114619975D02*
X168840000Y-114619975D01*
D18*
X167000000Y-103754975D02*
X167000000Y-101819975D01*
D17*
X174890000Y-111994975D02*
X166650000Y-103754975D01*
X172565000Y-114619975D02*
X175190000Y-111994975D01*
%TO.N,/B21*%
X171000000Y-105214975D02*
X171000000Y-101819975D01*
X174105000Y-115619975D02*
X177730000Y-111994975D01*
X177430000Y-111994975D02*
X170650000Y-105214975D01*
X164380000Y-121619975D02*
X164380000Y-126699975D01*
X174105000Y-115619975D02*
X170380000Y-115619975D01*
X164380000Y-121619975D02*
X170380000Y-115619975D01*
%TO.N,/B22*%
X175645000Y-116619975D02*
X171920000Y-116619975D01*
X175645000Y-116619975D02*
X180270000Y-111994975D01*
X166920000Y-121619975D02*
X166920000Y-126699975D01*
X175000000Y-106674975D02*
X175000000Y-101819975D01*
X179970000Y-111994975D02*
X174650000Y-106674975D01*
X166920000Y-121619975D02*
X171920000Y-116619975D01*
%TO.N,/B23*%
X177185000Y-117619975D02*
X182810000Y-111994975D01*
X169460000Y-126699975D02*
X169460000Y-121619975D01*
X177185000Y-117619975D02*
X173460000Y-117619975D01*
X169460000Y-121619975D02*
X173460000Y-117619975D01*
X179000000Y-108134975D02*
X179000000Y-101819975D01*
X182510000Y-111994975D02*
X178650000Y-108134975D01*
%TO.N,/B24*%
X178725000Y-118619975D02*
X185350000Y-111994975D01*
X174650000Y-118619975D02*
X178725000Y-118619975D01*
X171650000Y-121619975D02*
X174650000Y-118619975D01*
X182850000Y-109794975D02*
X182850000Y-101919975D01*
X172000000Y-121619975D02*
X172000000Y-126699975D01*
X185050000Y-111994975D02*
X182850000Y-109794975D01*
%TO.N,/B25*%
X186850000Y-111254975D02*
X186850000Y-101919975D01*
X186850000Y-111254975D02*
X186870000Y-111254975D01*
D18*
X187750000Y-112134975D02*
X187890000Y-111994975D01*
D17*
X187750000Y-126619975D02*
X187750000Y-121619975D01*
X187750000Y-121619975D02*
X187750000Y-112134975D01*
X186870000Y-111254975D02*
X187750000Y-112134975D01*
%TO.N,/B26*%
X190850000Y-101919975D02*
X190850000Y-111374975D01*
X190290000Y-121619975D02*
X190290000Y-112134975D01*
D18*
X190290000Y-112134975D02*
X190430000Y-111994975D01*
D17*
X190850000Y-111374975D02*
X190230000Y-111994975D01*
X190290000Y-121619975D02*
X190290000Y-126619975D01*
%TO.N,/B27*%
X192830000Y-126619975D02*
X192830000Y-121619975D01*
D18*
X192830000Y-112134975D02*
X192970000Y-111994975D01*
D17*
X192830000Y-121619975D02*
X192830000Y-112134975D01*
X194850000Y-109814975D02*
X194850000Y-101919975D01*
X192670000Y-111994975D02*
X194850000Y-109814975D01*
%TO.N,/B28*%
X195210000Y-111994975D02*
X199000000Y-108204975D01*
X195370000Y-121619975D02*
X195370000Y-126619975D01*
D18*
X195370000Y-112134975D02*
X195510000Y-111994975D01*
D17*
X195370000Y-121619975D02*
X195370000Y-112134975D01*
X199000000Y-108204975D02*
X199000000Y-101819975D01*
D18*
%TO.N,/B29*%
X197910000Y-112134975D02*
X198050000Y-111994975D01*
D17*
X197750000Y-111994975D02*
X203000000Y-106744975D01*
X197910000Y-126619975D02*
X197910000Y-121619975D01*
X203000000Y-106744975D02*
X203000000Y-101819975D01*
X197910000Y-121619975D02*
X197910000Y-112134975D01*
%TO.N,/B30*%
X200450000Y-121619975D02*
X200450000Y-126619975D01*
X200450000Y-121619975D02*
X200450000Y-112134975D01*
X200290000Y-111994975D02*
X206850000Y-105434975D01*
D18*
X200450000Y-112134975D02*
X200590000Y-111994975D01*
D17*
X207200000Y-105434975D02*
X207200000Y-101919975D01*
D18*
%TO.N,/B31*%
X211200000Y-103974975D02*
X211200000Y-101919975D01*
D17*
X203130000Y-111994975D02*
X203130000Y-121479975D01*
X202990000Y-126619975D02*
X202990000Y-121619975D01*
X202830000Y-111994975D02*
X210850000Y-103974975D01*
D18*
X203130000Y-121479975D02*
X202990000Y-121619975D01*
%TO.N,/B32*%
X205530000Y-112134975D02*
X205670000Y-111994975D01*
D17*
X205530000Y-121619975D02*
X205530000Y-112134975D01*
X205530000Y-121619975D02*
X205530000Y-126619975D01*
X205370000Y-111994975D02*
X214850000Y-102514975D01*
D18*
X215200000Y-102514975D02*
X215200000Y-101919975D01*
D17*
%TO.N,GND*%
X70405000Y-120405000D02*
X71625000Y-120405000D01*
X69500000Y-102400000D02*
X69500000Y-92300000D01*
X69500000Y-102400000D02*
X69500000Y-109400000D01*
X71560000Y-110405000D02*
X70505000Y-110405000D01*
X69500000Y-109400000D02*
X69500000Y-119500000D01*
X71560000Y-100340000D02*
X69500000Y-102400000D01*
X69500000Y-92300000D02*
X76800000Y-85000000D01*
X70505000Y-110405000D02*
X69500000Y-109400000D01*
X69500000Y-119500000D02*
X70405000Y-120405000D01*
%TO.N,/CAN+*%
X76705000Y-120405000D02*
X74410000Y-122700000D01*
X67900000Y-61900000D02*
X67900000Y-120200000D01*
X70400000Y-122700000D02*
X67900000Y-120200000D01*
X81200000Y-57600000D02*
X80000000Y-58800000D01*
X74410000Y-122700000D02*
X70400000Y-122700000D01*
X79745000Y-58545000D02*
X80000000Y-58800000D01*
X79745000Y-54925000D02*
X79745000Y-58545000D01*
%TO.N,/CAN-*%
X68800000Y-119789950D02*
X68800000Y-63000000D01*
X73000000Y-55685000D02*
X74585000Y-54100000D01*
X73000000Y-58800000D02*
X73000000Y-55685000D01*
X70810050Y-121800000D02*
X68800000Y-119789950D01*
X74165000Y-120405000D02*
X72770000Y-121800000D01*
X68800000Y-63000000D02*
X73000000Y-58800000D01*
X72770000Y-121800000D02*
X70810050Y-121800000D01*
%TO.N,+BATT*%
X74100000Y-110405000D02*
X74100000Y-110300000D01*
X80000000Y-104400000D02*
X80000000Y-75800000D01*
X74100000Y-110300000D02*
X80000000Y-104400000D01*
%TO.N,Net-(J21-Pin_1)*%
X77125000Y-54100000D02*
X77125000Y-54020000D01*
X77870000Y-53275000D02*
X79745000Y-53275000D01*
X77125000Y-54020000D02*
X77870000Y-53275000D01*
%TD*%
%TA.AperFunction,NonConductor*%
G36*
X94643039Y-55019685D02*
G01*
X94688794Y-55072489D01*
X94700000Y-55124000D01*
X94700000Y-62876000D01*
X94680315Y-62943039D01*
X94627511Y-62988794D01*
X94576000Y-63000000D01*
X86824000Y-63000000D01*
X86756961Y-62980315D01*
X86711206Y-62927511D01*
X86700000Y-62876000D01*
X86700000Y-55124000D01*
X86719685Y-55056961D01*
X86772489Y-55011206D01*
X86824000Y-55000000D01*
X94576000Y-55000000D01*
X94643039Y-55019685D01*
G37*
%TD.AperFunction*%
%TA.AperFunction,NonConductor*%
G36*
X94643039Y-120519685D02*
G01*
X94688794Y-120572489D01*
X94700000Y-120624000D01*
X94700000Y-128376000D01*
X94680315Y-128443039D01*
X94627511Y-128488794D01*
X94576000Y-128500000D01*
X93224000Y-128500000D01*
X93156961Y-128480315D01*
X93111206Y-128427511D01*
X93100000Y-128376000D01*
X93100000Y-120624000D01*
X93119685Y-120556961D01*
X93172489Y-120511206D01*
X93224000Y-120500000D01*
X94576000Y-120500000D01*
X94643039Y-120519685D01*
G37*
%TD.AperFunction*%
%TA.AperFunction,NonConductor*%
G36*
X88243039Y-120519685D02*
G01*
X88288794Y-120572489D01*
X88300000Y-120624000D01*
X88300000Y-128376000D01*
X88280315Y-128443039D01*
X88227511Y-128488794D01*
X88176000Y-128500000D01*
X86824000Y-128500000D01*
X86756961Y-128480315D01*
X86711206Y-128427511D01*
X86700000Y-128376000D01*
X86700000Y-120624000D01*
X86719685Y-120556961D01*
X86772489Y-120511206D01*
X86824000Y-120500000D01*
X88176000Y-120500000D01*
X88243039Y-120519685D01*
G37*
%TD.AperFunction*%
%TA.AperFunction,NonConductor*%
G36*
X91443039Y-122119685D02*
G01*
X91488794Y-122172489D01*
X91500000Y-122224000D01*
X91500000Y-126776000D01*
X91480315Y-126843039D01*
X91427511Y-126888794D01*
X91376000Y-126900000D01*
X90024000Y-126900000D01*
X89956961Y-126880315D01*
X89911206Y-126827511D01*
X89900000Y-126776000D01*
X89900000Y-122224000D01*
X89919685Y-122156961D01*
X89972489Y-122111206D01*
X90024000Y-122100000D01*
X91376000Y-122100000D01*
X91443039Y-122119685D01*
G37*
%TD.AperFunction*%
M02*
