%TF.GenerationSoftware,KiCad,Pcbnew,7.0.8*%
%TF.CreationDate,2024-09-16T14:36:25-04:00*%
%TF.ProjectId,breakout_pcie,62726561-6b6f-4757-945f-706369652e6b,rev?*%
%TF.SameCoordinates,Original*%
%TF.FileFunction,Soldermask,Top*%
%TF.FilePolarity,Negative*%
%FSLAX46Y46*%
G04 Gerber Fmt 4.6, Leading zero omitted, Abs format (unit mm)*
G04 Created by KiCad (PCBNEW 7.0.8) date 2024-09-16 14:36:25*
%MOMM*%
%LPD*%
G01*
G04 APERTURE LIST*
G04 Aperture macros list*
%AMRoundRect*
0 Rectangle with rounded corners*
0 $1 Rounding radius*
0 $2 $3 $4 $5 $6 $7 $8 $9 X,Y pos of 4 corners*
0 Add a 4 corners polygon primitive as box body*
4,1,4,$2,$3,$4,$5,$6,$7,$8,$9,$2,$3,0*
0 Add four circle primitives for the rounded corners*
1,1,$1+$1,$2,$3*
1,1,$1+$1,$4,$5*
1,1,$1+$1,$6,$7*
1,1,$1+$1,$8,$9*
0 Add four rect primitives between the rounded corners*
20,1,$1+$1,$2,$3,$4,$5,0*
20,1,$1+$1,$4,$5,$6,$7,0*
20,1,$1+$1,$6,$7,$8,$9,0*
20,1,$1+$1,$8,$9,$2,$3,0*%
G04 Aperture macros list end*
%ADD10R,3.000000X4.500000*%
%ADD11R,1.700000X1.700000*%
%ADD12O,1.700000X1.700000*%
%ADD13C,2.400000*%
%ADD14C,1.200000*%
%ADD15RoundRect,0.200000X0.275000X-0.200000X0.275000X0.200000X-0.275000X0.200000X-0.275000X-0.200000X0*%
%ADD16C,1.316000*%
G04 APERTURE END LIST*
G36*
X86700000Y-120500000D02*
G01*
X88300000Y-120500000D01*
X88300000Y-128500000D01*
X86700000Y-128500000D01*
X86700000Y-120500000D01*
G37*
G36*
X89900000Y-122100000D02*
G01*
X91500000Y-122100000D01*
X91500000Y-126900000D01*
X89900000Y-126900000D01*
X89900000Y-122100000D01*
G37*
G36*
X93100000Y-120500000D02*
G01*
X94700000Y-120500000D01*
X94700000Y-128500000D01*
X93100000Y-128500000D01*
X93100000Y-120500000D01*
G37*
%TO.C,REF\u002A\u002A*%
G36*
X90209930Y-55000000D02*
G01*
X90738648Y-55000000D01*
X91468249Y-55000000D01*
X94700000Y-55000000D01*
X94700000Y-63000058D01*
X86701824Y-63000058D01*
X86701824Y-59944533D01*
X89589898Y-59944533D01*
X89589909Y-59945227D01*
X89589942Y-59945900D01*
X89589996Y-59946553D01*
X89590071Y-59947186D01*
X89590167Y-59947799D01*
X89590283Y-59948394D01*
X89590419Y-59948970D01*
X89590574Y-59949530D01*
X89590749Y-59950073D01*
X89590943Y-59950600D01*
X89591156Y-59951112D01*
X89591386Y-59951610D01*
X89591635Y-59952094D01*
X89591901Y-59952564D01*
X89592185Y-59953023D01*
X89592485Y-59953469D01*
X89592802Y-59953905D01*
X89593135Y-59954330D01*
X89593848Y-59955152D01*
X89594622Y-59955942D01*
X89595454Y-59956703D01*
X89596341Y-59957443D01*
X89597281Y-59958166D01*
X89598270Y-59958878D01*
X89599305Y-59959584D01*
X89674953Y-60003957D01*
X89749803Y-60051197D01*
X89823783Y-60101075D01*
X89896822Y-60153358D01*
X90039795Y-60264223D01*
X90178155Y-60381947D01*
X90311333Y-60504688D01*
X90438762Y-60630600D01*
X90559874Y-60757841D01*
X90674101Y-60884567D01*
X90780876Y-61008934D01*
X90879631Y-61129097D01*
X91050809Y-61349440D01*
X91183093Y-61530845D01*
X91271942Y-61658562D01*
X91271942Y-61656680D01*
X91273032Y-61658020D01*
X91274182Y-61659220D01*
X91275384Y-61660283D01*
X91276631Y-61661211D01*
X91277917Y-61662009D01*
X91279235Y-61662679D01*
X91280577Y-61663224D01*
X91281937Y-61663647D01*
X91283309Y-61663952D01*
X91284684Y-61664142D01*
X91286057Y-61664219D01*
X91287420Y-61664188D01*
X91288767Y-61664050D01*
X91290090Y-61663809D01*
X91291383Y-61663468D01*
X91292638Y-61663030D01*
X91293850Y-61662499D01*
X91295010Y-61661877D01*
X91296113Y-61661167D01*
X91297151Y-61660373D01*
X91298117Y-61659498D01*
X91299005Y-61658545D01*
X91299807Y-61657516D01*
X91300517Y-61656416D01*
X91301128Y-61655246D01*
X91301632Y-61654011D01*
X91302024Y-61652713D01*
X91302295Y-61651356D01*
X91302440Y-61649942D01*
X91302452Y-61648474D01*
X91302322Y-61646956D01*
X91302046Y-61645391D01*
X91168461Y-60524029D01*
X91168037Y-60520263D01*
X91167476Y-60516725D01*
X91166784Y-60513409D01*
X91165965Y-60510311D01*
X91165027Y-60507426D01*
X91163975Y-60504751D01*
X91162815Y-60502281D01*
X91161552Y-60500010D01*
X91160193Y-60497936D01*
X91158743Y-60496052D01*
X91157209Y-60494355D01*
X91155595Y-60492841D01*
X91153909Y-60491504D01*
X91152155Y-60490341D01*
X91150340Y-60489346D01*
X91148470Y-60488516D01*
X91146550Y-60487845D01*
X91144586Y-60487330D01*
X91142584Y-60486966D01*
X91140551Y-60486748D01*
X91138491Y-60486672D01*
X91136411Y-60486734D01*
X91134316Y-60486928D01*
X91132213Y-60487252D01*
X91130107Y-60487699D01*
X91128004Y-60488265D01*
X91125910Y-60488947D01*
X91123831Y-60489739D01*
X91121772Y-60490638D01*
X91119740Y-60491638D01*
X91117741Y-60492735D01*
X91115779Y-60493925D01*
X91093348Y-60507066D01*
X91075662Y-60516447D01*
X91053455Y-60527086D01*
X91026574Y-60538518D01*
X91011332Y-60544387D01*
X90994864Y-60550281D01*
X90977151Y-60556142D01*
X90958172Y-60561912D01*
X90937909Y-60567533D01*
X90916342Y-60572947D01*
X90910514Y-60574318D01*
X90903672Y-60575534D01*
X90895903Y-60576486D01*
X90887297Y-60577063D01*
X90877941Y-60577155D01*
X90867923Y-60576651D01*
X90857333Y-60575442D01*
X90846257Y-60573418D01*
X90834784Y-60570467D01*
X90823003Y-60566480D01*
X90811001Y-60561346D01*
X90804945Y-60558315D01*
X90798867Y-60554956D01*
X90792778Y-60551255D01*
X90786689Y-60547198D01*
X90780611Y-60542772D01*
X90774555Y-60537963D01*
X90768532Y-60532758D01*
X90762553Y-60527141D01*
X90756630Y-60521101D01*
X90750772Y-60514621D01*
X90653464Y-60402144D01*
X90573170Y-60304079D01*
X90530689Y-60249587D01*
X90488776Y-60193358D01*
X90449023Y-60136821D01*
X90413024Y-60081403D01*
X90382372Y-60028531D01*
X90358660Y-59979634D01*
X90349904Y-59957122D01*
X90343480Y-59936138D01*
X90339588Y-59916863D01*
X90338426Y-59899473D01*
X90340195Y-59884147D01*
X90345092Y-59871064D01*
X90353317Y-59860402D01*
X90365069Y-59852340D01*
X90430920Y-59835406D01*
X90431433Y-59835209D01*
X90431914Y-59834970D01*
X90432364Y-59834693D01*
X90432783Y-59834381D01*
X90433174Y-59834038D01*
X90433537Y-59833666D01*
X90433873Y-59833269D01*
X90434184Y-59832849D01*
X90434469Y-59832410D01*
X90434731Y-59831955D01*
X90434970Y-59831486D01*
X90435187Y-59831008D01*
X90435383Y-59830523D01*
X90435560Y-59830034D01*
X90435859Y-59829057D01*
X90436092Y-59828102D01*
X90436267Y-59827193D01*
X90436393Y-59826357D01*
X90436477Y-59825617D01*
X90436554Y-59824526D01*
X90436565Y-59824118D01*
X90225839Y-58064933D01*
X90225598Y-58063555D01*
X90225232Y-58062246D01*
X90224749Y-58061006D01*
X90224156Y-58059840D01*
X90223461Y-58058747D01*
X90222672Y-58057731D01*
X90221796Y-58056794D01*
X90220841Y-58055937D01*
X90219814Y-58055163D01*
X90218724Y-58054474D01*
X90217576Y-58053871D01*
X90216380Y-58053357D01*
X90215142Y-58052935D01*
X90213871Y-58052605D01*
X90212574Y-58052370D01*
X90211257Y-58052233D01*
X90209930Y-58052195D01*
X90208600Y-58052258D01*
X90207273Y-58052424D01*
X90205958Y-58052696D01*
X90204663Y-58053075D01*
X90203394Y-58053564D01*
X90202160Y-58054165D01*
X90200968Y-58054879D01*
X90199826Y-58055709D01*
X90198740Y-58056656D01*
X90197720Y-58057724D01*
X90196772Y-58058914D01*
X90195903Y-58060227D01*
X90195122Y-58061667D01*
X90194437Y-58063235D01*
X90193854Y-58064933D01*
X90146324Y-58218755D01*
X90104307Y-58379699D01*
X90068375Y-58547830D01*
X90039102Y-58723216D01*
X90027141Y-58813650D01*
X90017061Y-58905922D01*
X90008931Y-59000041D01*
X90002825Y-59096014D01*
X89998813Y-59193851D01*
X89996967Y-59293558D01*
X89997359Y-59395146D01*
X90000061Y-59498622D01*
X90000017Y-59500695D01*
X89999885Y-59502682D01*
X89999664Y-59504587D01*
X89999356Y-59506412D01*
X89998959Y-59508160D01*
X89998474Y-59509833D01*
X89998198Y-59510643D01*
X89997900Y-59511435D01*
X89997581Y-59512210D01*
X89997239Y-59512968D01*
X89996875Y-59513709D01*
X89996489Y-59514434D01*
X89996081Y-59515144D01*
X89995651Y-59515838D01*
X89995199Y-59516516D01*
X89994725Y-59517180D01*
X89993711Y-59518465D01*
X89992609Y-59519695D01*
X89991418Y-59520872D01*
X89990139Y-59522000D01*
X89988772Y-59523081D01*
X89967576Y-59538732D01*
X89937031Y-59559035D01*
X89898020Y-59582116D01*
X89875615Y-59594112D01*
X89851424Y-59606101D01*
X89825557Y-59617847D01*
X89798125Y-59629116D01*
X89769238Y-59639674D01*
X89739005Y-59649287D01*
X89707538Y-59657720D01*
X89674947Y-59664739D01*
X89641341Y-59670110D01*
X89606831Y-59673599D01*
X89605955Y-59673648D01*
X89605091Y-59673789D01*
X89604240Y-59674018D01*
X89603403Y-59674327D01*
X89602581Y-59674710D01*
X89601775Y-59675162D01*
X89600987Y-59675676D01*
X89600217Y-59676245D01*
X89599466Y-59676864D01*
X89598735Y-59677527D01*
X89598026Y-59678226D01*
X89597340Y-59678957D01*
X89596037Y-59680487D01*
X89594837Y-59682066D01*
X89593747Y-59683645D01*
X89592775Y-59685175D01*
X89591931Y-59686605D01*
X89591221Y-59687887D01*
X89590240Y-59689805D01*
X89589898Y-59690532D01*
X89589898Y-59944533D01*
X86701824Y-59944533D01*
X86701824Y-57820556D01*
X90395769Y-57820556D01*
X90396333Y-57861868D01*
X90398639Y-57903208D01*
X90402697Y-57944518D01*
X90620949Y-59767673D01*
X90620966Y-59768191D01*
X90621014Y-59768687D01*
X90621093Y-59769161D01*
X90621203Y-59769613D01*
X90621341Y-59770043D01*
X90621507Y-59770451D01*
X90621700Y-59770837D01*
X90621919Y-59771201D01*
X90622163Y-59771542D01*
X90622431Y-59771862D01*
X90622721Y-59772160D01*
X90623033Y-59772435D01*
X90623365Y-59772689D01*
X90623718Y-59772921D01*
X90624089Y-59773130D01*
X90624477Y-59773317D01*
X90624882Y-59773483D01*
X90625302Y-59773626D01*
X90625737Y-59773747D01*
X90626186Y-59773847D01*
X90626647Y-59773924D01*
X90627119Y-59773979D01*
X90628093Y-59774023D01*
X90629100Y-59773979D01*
X90630132Y-59773847D01*
X90631181Y-59773626D01*
X90632238Y-59773317D01*
X90687624Y-59754458D01*
X90742305Y-59734629D01*
X90796280Y-59713918D01*
X90849549Y-59692414D01*
X90902113Y-59670203D01*
X90953972Y-59647376D01*
X91005124Y-59624019D01*
X91055571Y-59600221D01*
X91055913Y-59600029D01*
X91056234Y-59599805D01*
X91056534Y-59599554D01*
X91056814Y-59599277D01*
X91057074Y-59598976D01*
X91057316Y-59598654D01*
X91057540Y-59598314D01*
X91057747Y-59597958D01*
X91057937Y-59597587D01*
X91058112Y-59597206D01*
X91058271Y-59596815D01*
X91058416Y-59596418D01*
X91058665Y-59595614D01*
X91058864Y-59594812D01*
X91059019Y-59594032D01*
X91059136Y-59593294D01*
X91059220Y-59592617D01*
X91059276Y-59592019D01*
X91059327Y-59591141D01*
X91059335Y-59590814D01*
X90756967Y-57057315D01*
X90953008Y-57057315D01*
X90954090Y-57099164D01*
X90957734Y-57141125D01*
X91239957Y-59491095D01*
X91239978Y-59491619D01*
X91240042Y-59492130D01*
X91240147Y-59492629D01*
X91240291Y-59493113D01*
X91240472Y-59493582D01*
X91240688Y-59494035D01*
X91240938Y-59494470D01*
X91241221Y-59494888D01*
X91241533Y-59495286D01*
X91241874Y-59495663D01*
X91242242Y-59496020D01*
X91242635Y-59496354D01*
X91243052Y-59496664D01*
X91243490Y-59496951D01*
X91243948Y-59497211D01*
X91244425Y-59497445D01*
X91244918Y-59497652D01*
X91245426Y-59497830D01*
X91245947Y-59497978D01*
X91246479Y-59498096D01*
X91247021Y-59498182D01*
X91247571Y-59498235D01*
X91248127Y-59498254D01*
X91248688Y-59498239D01*
X91249251Y-59498188D01*
X91249815Y-59498100D01*
X91250379Y-59497974D01*
X91250940Y-59497809D01*
X91251497Y-59497604D01*
X91252048Y-59497358D01*
X91252592Y-59497071D01*
X91253127Y-59496740D01*
X91321981Y-59456718D01*
X91388740Y-59415748D01*
X91453251Y-59373940D01*
X91515358Y-59331405D01*
X91574908Y-59288252D01*
X91631745Y-59244592D01*
X91685717Y-59200535D01*
X91736667Y-59156192D01*
X91746566Y-59146782D01*
X91755795Y-59136914D01*
X91764345Y-59126616D01*
X91772210Y-59115916D01*
X91779380Y-59104841D01*
X91785847Y-59093419D01*
X91791603Y-59081677D01*
X91796640Y-59069644D01*
X91800949Y-59057345D01*
X91804522Y-59044809D01*
X91807351Y-59032064D01*
X91809428Y-59019138D01*
X91810744Y-59006056D01*
X91811291Y-58992848D01*
X91811061Y-58979541D01*
X91810045Y-58966162D01*
X91486430Y-56349022D01*
X91486216Y-56347804D01*
X91485927Y-56346621D01*
X91485568Y-56345474D01*
X91485140Y-56344366D01*
X91484648Y-56343298D01*
X91484095Y-56342271D01*
X91483482Y-56341288D01*
X91482814Y-56340349D01*
X91482094Y-56339458D01*
X91481325Y-56338615D01*
X91480509Y-56337823D01*
X91479650Y-56337083D01*
X91478752Y-56336396D01*
X91477816Y-56335765D01*
X91476847Y-56335191D01*
X91475847Y-56334676D01*
X91474819Y-56334221D01*
X91473767Y-56333829D01*
X91472694Y-56333501D01*
X91471603Y-56333239D01*
X91470496Y-56333044D01*
X91469377Y-56332919D01*
X91468249Y-56332864D01*
X91467116Y-56332882D01*
X91465979Y-56332975D01*
X91464843Y-56333144D01*
X91463711Y-56333390D01*
X91462585Y-56333717D01*
X91461468Y-56334124D01*
X91460365Y-56334615D01*
X91459277Y-56335190D01*
X91458208Y-56335852D01*
X91458208Y-56335851D01*
X91415581Y-56364544D01*
X91387101Y-56384667D01*
X91354256Y-56408759D01*
X91317354Y-56436908D01*
X91276704Y-56469201D01*
X91232614Y-56505729D01*
X91185393Y-56546577D01*
X91154642Y-56574979D01*
X91125913Y-56605076D01*
X91099247Y-56636755D01*
X91074680Y-56669903D01*
X91052252Y-56704406D01*
X91032001Y-56740153D01*
X91013966Y-56777030D01*
X90998186Y-56814923D01*
X90984699Y-56853721D01*
X90973543Y-56893310D01*
X90964758Y-56933577D01*
X90958381Y-56974408D01*
X90954452Y-57015692D01*
X90953008Y-57057315D01*
X90756967Y-57057315D01*
X90756416Y-57052696D01*
X90756185Y-57051313D01*
X90755850Y-57049986D01*
X90755417Y-57048717D01*
X90754891Y-57047507D01*
X90754278Y-57046358D01*
X90753584Y-57045271D01*
X90752815Y-57044247D01*
X90751977Y-57043288D01*
X90751075Y-57042396D01*
X90750116Y-57041570D01*
X90749105Y-57040814D01*
X90748048Y-57040128D01*
X90746952Y-57039514D01*
X90745821Y-57038972D01*
X90744662Y-57038505D01*
X90743481Y-57038114D01*
X90742283Y-57037800D01*
X90741074Y-57037565D01*
X90739861Y-57037409D01*
X90738648Y-57037335D01*
X90737443Y-57037344D01*
X90736250Y-57037436D01*
X90735076Y-57037614D01*
X90733926Y-57037879D01*
X90732807Y-57038232D01*
X90731724Y-57038675D01*
X90730683Y-57039208D01*
X90729689Y-57039834D01*
X90728750Y-57040554D01*
X90727870Y-57041368D01*
X90727055Y-57042279D01*
X90726312Y-57043288D01*
X90702415Y-57074605D01*
X90678716Y-57106494D01*
X90655238Y-57139001D01*
X90632003Y-57172170D01*
X90609032Y-57206044D01*
X90586348Y-57240668D01*
X90563972Y-57276085D01*
X90541927Y-57312340D01*
X90520850Y-57348027D01*
X90501372Y-57384494D01*
X90483504Y-57421683D01*
X90467256Y-57459537D01*
X90452639Y-57497996D01*
X90439666Y-57537004D01*
X90428346Y-57576503D01*
X90418690Y-57616434D01*
X90410710Y-57656741D01*
X90404417Y-57697364D01*
X90399822Y-57738246D01*
X90396936Y-57779329D01*
X90395769Y-57820556D01*
X86701824Y-57820556D01*
X86701824Y-55000000D01*
X90209930Y-55000000D01*
G37*
%TD*%
D10*
%TO.C,TP25*%
X111000000Y-101819975D03*
%TD*%
%TO.C,TP10*%
X123000000Y-90500000D03*
%TD*%
D11*
%TO.C,J5*%
X172400000Y-80319975D03*
D12*
X174940000Y-80319975D03*
X177480000Y-80319975D03*
X180020000Y-80319975D03*
X182560000Y-80319975D03*
X185100000Y-80319975D03*
X187640000Y-80319975D03*
X190180000Y-80319975D03*
X192720000Y-80319975D03*
X195260000Y-80319975D03*
X197800000Y-80319975D03*
X200340000Y-80319975D03*
X202880000Y-80319975D03*
X205420000Y-80319975D03*
%TD*%
D11*
%TO.C,J9*%
X144000000Y-70719975D03*
D12*
X146540000Y-70719975D03*
X149080000Y-70719975D03*
X151620000Y-70719975D03*
X154160000Y-70719975D03*
X156700000Y-70719975D03*
X159240000Y-70719975D03*
X161780000Y-70719975D03*
X164320000Y-70719975D03*
X166860000Y-70719975D03*
X169400000Y-70719975D03*
X171940000Y-70719975D03*
%TD*%
D11*
%TO.C,J4*%
X99600000Y-112019975D03*
D12*
X102140000Y-112019975D03*
X104680000Y-112019975D03*
X107220000Y-112019975D03*
X109760000Y-112019975D03*
X112300000Y-112019975D03*
X114840000Y-112019975D03*
X117380000Y-112019975D03*
X119920000Y-112019975D03*
X122460000Y-112019975D03*
X125000000Y-112019975D03*
X127540000Y-112019975D03*
X130080000Y-112019975D03*
X132620000Y-112019975D03*
X135160000Y-112019975D03*
X137700000Y-112019975D03*
X140240000Y-112019975D03*
X142780000Y-112019975D03*
%TD*%
D10*
%TO.C,TP17*%
X151000000Y-90519975D03*
%TD*%
%TO.C,TP2*%
X91000000Y-90519975D03*
%TD*%
D11*
%TO.C,J16*%
X144000000Y-121619975D03*
D12*
X146540000Y-121619975D03*
X149080000Y-121619975D03*
X151620000Y-121619975D03*
X154160000Y-121619975D03*
X156700000Y-121619975D03*
X159240000Y-121619975D03*
X161780000Y-121619975D03*
X164320000Y-121619975D03*
X166860000Y-121619975D03*
X169400000Y-121619975D03*
X171940000Y-121619975D03*
%TD*%
D10*
%TO.C,TP32*%
X139000000Y-101819975D03*
%TD*%
D11*
%TO.C,J12*%
X187750000Y-126619975D03*
D12*
X190290000Y-126619975D03*
X192830000Y-126619975D03*
X195370000Y-126619975D03*
X197910000Y-126619975D03*
X200450000Y-126619975D03*
X202990000Y-126619975D03*
X205530000Y-126619975D03*
%TD*%
D10*
%TO.C,TP64*%
X215000000Y-101819975D03*
%TD*%
D11*
%TO.C,J17*%
X187600000Y-65564975D03*
D12*
X190140000Y-65564975D03*
X192680000Y-65564975D03*
X195220000Y-65564975D03*
X197760000Y-65564975D03*
X200300000Y-65564975D03*
X202840000Y-65564975D03*
X205380000Y-65564975D03*
%TD*%
D11*
%TO.C,J23*%
X81785000Y-117865000D03*
D12*
X81785000Y-120405000D03*
X79245000Y-117865000D03*
X79245000Y-120405000D03*
X76705000Y-117865000D03*
X76705000Y-120405000D03*
X74165000Y-117865000D03*
X74165000Y-120405000D03*
X71625000Y-117865000D03*
X71625000Y-120405000D03*
%TD*%
D10*
%TO.C,TP1*%
X87000000Y-90519975D03*
%TD*%
%TO.C,TP40*%
X175000000Y-90519975D03*
%TD*%
%TO.C,TP55*%
X179000000Y-101819975D03*
%TD*%
%TO.C,TP50*%
X215000000Y-90519975D03*
%TD*%
%TO.C,TP19*%
X87000000Y-101800000D03*
%TD*%
%TO.C,TP65*%
X76000000Y-85000000D03*
%TD*%
%TO.C,TP9*%
X119000000Y-90500000D03*
%TD*%
D11*
%TO.C,J8*%
X99700000Y-126699975D03*
D12*
X102240000Y-126699975D03*
X104780000Y-126699975D03*
X107320000Y-126699975D03*
X109860000Y-126699975D03*
X112400000Y-126699975D03*
X114940000Y-126699975D03*
X117480000Y-126699975D03*
X120020000Y-126699975D03*
X122560000Y-126699975D03*
X125100000Y-126699975D03*
X127640000Y-126699975D03*
%TD*%
D10*
%TO.C,TP33*%
X143000000Y-101819975D03*
%TD*%
%TO.C,TP18*%
X155000000Y-90519975D03*
%TD*%
D11*
%TO.C,J3*%
X99600000Y-80319975D03*
D12*
X102140000Y-80319975D03*
X104680000Y-80319975D03*
X107220000Y-80319975D03*
X109760000Y-80319975D03*
X112300000Y-80319975D03*
X114840000Y-80319975D03*
X117380000Y-80319975D03*
X119920000Y-80319975D03*
X122460000Y-80319975D03*
X125000000Y-80319975D03*
X127540000Y-80319975D03*
X130080000Y-80319975D03*
X132620000Y-80319975D03*
X135160000Y-80319975D03*
X137700000Y-80319975D03*
X140240000Y-80319975D03*
X142780000Y-80319975D03*
%TD*%
D10*
%TO.C,TP15*%
X143000000Y-90519975D03*
%TD*%
%TO.C,TP27*%
X119000000Y-101819975D03*
%TD*%
%TO.C,TP36*%
X155000000Y-101819975D03*
%TD*%
D11*
%TO.C,J20*%
X76640000Y-97800000D03*
D12*
X76640000Y-100340000D03*
X74100000Y-97800000D03*
X74100000Y-100340000D03*
X71560000Y-97800000D03*
X71560000Y-100340000D03*
%TD*%
D10*
%TO.C,TP28*%
X123000000Y-101819975D03*
%TD*%
%TO.C,TP12*%
X131000000Y-90519975D03*
%TD*%
%TO.C,TP16*%
X147000000Y-90519975D03*
%TD*%
D11*
%TO.C,J13*%
X99600000Y-65639975D03*
D12*
X102140000Y-65639975D03*
X104680000Y-65639975D03*
X107220000Y-65639975D03*
X109760000Y-65639975D03*
X112300000Y-65639975D03*
X114840000Y-65639975D03*
X117380000Y-65639975D03*
X119920000Y-65639975D03*
X122460000Y-65639975D03*
X125000000Y-65639975D03*
X127540000Y-65639975D03*
%TD*%
D10*
%TO.C,TP62*%
X207000000Y-101819975D03*
%TD*%
%TO.C,TP23*%
X103000000Y-101819975D03*
%TD*%
%TO.C,TP66*%
X80000000Y-58800000D03*
%TD*%
%TO.C,TP11*%
X127000000Y-90500000D03*
%TD*%
%TO.C,TP29*%
X127000000Y-101819975D03*
%TD*%
%TO.C,TP22*%
X99000000Y-101800000D03*
%TD*%
D11*
%TO.C,J11*%
X187600000Y-70644975D03*
D12*
X190140000Y-70644975D03*
X192680000Y-70644975D03*
X195220000Y-70644975D03*
X197760000Y-70644975D03*
X200300000Y-70644975D03*
X202840000Y-70644975D03*
X205380000Y-70644975D03*
%TD*%
D10*
%TO.C,TP58*%
X191000000Y-101819975D03*
%TD*%
%TO.C,TP49*%
X211000000Y-90519975D03*
%TD*%
%TO.C,TP14*%
X139000000Y-90519975D03*
%TD*%
%TO.C,TP20*%
X91000000Y-101800000D03*
%TD*%
%TO.C,TP47*%
X203000000Y-90519975D03*
%TD*%
%TO.C,TP35*%
X151000000Y-101819975D03*
%TD*%
%TO.C,TP52*%
X167000000Y-101819975D03*
%TD*%
%TO.C,TP31*%
X135000000Y-101819975D03*
%TD*%
%TO.C,TP53*%
X171000000Y-101819975D03*
%TD*%
D11*
%TO.C,J21*%
X77125000Y-54100000D03*
D12*
X74585000Y-54100000D03*
X72045000Y-54100000D03*
%TD*%
D13*
%TO.C,J1*%
X241400000Y-78000000D03*
X241400000Y-68850000D03*
D14*
X234900000Y-57200000D03*
X236900000Y-58200000D03*
X234900000Y-59200000D03*
X236900000Y-60200000D03*
X234900000Y-61200000D03*
X236900000Y-62200000D03*
X234900000Y-63200000D03*
X236900000Y-64200000D03*
X234900000Y-65200000D03*
X236900000Y-66200000D03*
X234900000Y-67200000D03*
X236900000Y-70200000D03*
X234900000Y-71200000D03*
X236900000Y-72200000D03*
X234900000Y-73200000D03*
X236900000Y-74200000D03*
X234900000Y-75200000D03*
X236900000Y-76200000D03*
X232400000Y-57200000D03*
X230400000Y-58200000D03*
X232400000Y-59200000D03*
X230400000Y-60200000D03*
X232400000Y-61200000D03*
X230400000Y-62200000D03*
X232400000Y-63200000D03*
X230400000Y-64200000D03*
X232400000Y-65200000D03*
X230400000Y-66200000D03*
X232400000Y-67200000D03*
X230400000Y-70200000D03*
X232400000Y-71200000D03*
X230400000Y-72200000D03*
X232400000Y-73200000D03*
X230400000Y-74200000D03*
X232400000Y-75200000D03*
X230400000Y-76200000D03*
%TD*%
D11*
%TO.C,J6*%
X172450000Y-111994975D03*
D12*
X174990000Y-111994975D03*
X177530000Y-111994975D03*
X180070000Y-111994975D03*
X182610000Y-111994975D03*
X185150000Y-111994975D03*
X187690000Y-111994975D03*
X190230000Y-111994975D03*
X192770000Y-111994975D03*
X195310000Y-111994975D03*
X197850000Y-111994975D03*
X200390000Y-111994975D03*
X202930000Y-111994975D03*
X205470000Y-111994975D03*
%TD*%
D10*
%TO.C,TP56*%
X183000000Y-101819975D03*
%TD*%
%TO.C,TP46*%
X199000000Y-90519975D03*
%TD*%
D15*
%TO.C,R1*%
X79745000Y-54925000D03*
X79745000Y-53275000D03*
%TD*%
D10*
%TO.C,TP71*%
X73000000Y-75800000D03*
%TD*%
%TO.C,TP72*%
X80000000Y-75800000D03*
%TD*%
%TO.C,TP61*%
X203000000Y-101819975D03*
%TD*%
D11*
%TO.C,J15*%
X144000000Y-65639975D03*
D12*
X146540000Y-65639975D03*
X149080000Y-65639975D03*
X151620000Y-65639975D03*
X154160000Y-65639975D03*
X156700000Y-65639975D03*
X159240000Y-65639975D03*
X161780000Y-65639975D03*
X164320000Y-65639975D03*
X166860000Y-65639975D03*
X169400000Y-65639975D03*
X171940000Y-65639975D03*
%TD*%
D10*
%TO.C,TP60*%
X199000000Y-101819975D03*
%TD*%
%TO.C,TP41*%
X179000000Y-90519975D03*
%TD*%
%TO.C,TP3*%
X95000000Y-90519975D03*
%TD*%
%TO.C,TP51*%
X163000000Y-101819975D03*
%TD*%
%TO.C,TP48*%
X207000000Y-90519975D03*
%TD*%
%TO.C,TP67*%
X73000000Y-58800000D03*
%TD*%
D11*
%TO.C,J7*%
X99600000Y-70719975D03*
D12*
X102140000Y-70719975D03*
X104680000Y-70719975D03*
X107220000Y-70719975D03*
X109760000Y-70719975D03*
X112300000Y-70719975D03*
X114840000Y-70719975D03*
X117380000Y-70719975D03*
X119920000Y-70719975D03*
X122460000Y-70719975D03*
X125000000Y-70719975D03*
X127540000Y-70719975D03*
%TD*%
D10*
%TO.C,TP13*%
X135000000Y-90519975D03*
%TD*%
%TO.C,TP59*%
X195000000Y-101819975D03*
%TD*%
%TO.C,TP45*%
X195000000Y-90519975D03*
%TD*%
%TO.C,TP5*%
X103000000Y-90519975D03*
%TD*%
D11*
%TO.C,J19*%
X74200000Y-107800000D03*
D12*
X74200000Y-110340000D03*
X71660000Y-107800000D03*
X71660000Y-110340000D03*
%TD*%
D10*
%TO.C,TP42*%
X183000000Y-90519975D03*
%TD*%
%TO.C,TP34*%
X147000000Y-101819975D03*
%TD*%
%TO.C,TP8*%
X115000000Y-90500000D03*
%TD*%
%TO.C,TP7*%
X111000000Y-90500000D03*
%TD*%
D11*
%TO.C,J18*%
X187750000Y-121619975D03*
D12*
X190290000Y-121619975D03*
X192850000Y-121619975D03*
X195370000Y-121619975D03*
X197910000Y-121619975D03*
X200450000Y-121619975D03*
X202990000Y-121619975D03*
X205530000Y-121619975D03*
%TD*%
D10*
%TO.C,TP69*%
X73000000Y-68000000D03*
%TD*%
%TO.C,TP30*%
X131000000Y-101819975D03*
%TD*%
%TO.C,TP57*%
X187000000Y-101819975D03*
%TD*%
%TO.C,TP24*%
X107000000Y-101819975D03*
%TD*%
%TO.C,TP44*%
X191000000Y-90519975D03*
%TD*%
%TO.C,TP4*%
X99000000Y-90519975D03*
%TD*%
%TO.C,TP68*%
X80000000Y-68000000D03*
%TD*%
D11*
%TO.C,J10*%
X144000000Y-126699975D03*
D12*
X146540000Y-126699975D03*
X149080000Y-126699975D03*
X151620000Y-126699975D03*
X154160000Y-126699975D03*
X156700000Y-126699975D03*
X159240000Y-126699975D03*
X161780000Y-126699975D03*
X164320000Y-126699975D03*
X166860000Y-126699975D03*
X169400000Y-126699975D03*
X171940000Y-126699975D03*
%TD*%
D10*
%TO.C,TP63*%
X211000000Y-101819975D03*
%TD*%
%TO.C,TP38*%
X167000000Y-90519975D03*
%TD*%
%TO.C,TP26*%
X115000000Y-101819975D03*
%TD*%
%TO.C,TP6*%
X107000000Y-90500000D03*
%TD*%
%TO.C,TP54*%
X175000000Y-101819975D03*
%TD*%
%TO.C,TP37*%
X163000000Y-90519975D03*
%TD*%
%TO.C,TP39*%
X171000000Y-90519975D03*
%TD*%
D11*
%TO.C,J14*%
X99700000Y-121619975D03*
D12*
X102240000Y-121619975D03*
X104780000Y-121619975D03*
X107320000Y-121619975D03*
X109860000Y-121619975D03*
X112400000Y-121619975D03*
X114940000Y-121619975D03*
X117480000Y-121619975D03*
X120020000Y-121619975D03*
X122560000Y-121619975D03*
X125100000Y-121619975D03*
X127640000Y-121619975D03*
%TD*%
D13*
%TO.C,J2*%
X241400000Y-137900000D03*
X241400000Y-114750000D03*
D16*
X234900000Y-103100000D03*
X236900000Y-104100000D03*
X234900000Y-105100000D03*
X236900000Y-106100000D03*
X234900000Y-107100000D03*
X236900000Y-108100000D03*
X234900000Y-109100000D03*
X236900000Y-110100000D03*
X234900000Y-111100000D03*
X236900000Y-112100000D03*
X234900000Y-113100000D03*
X236900000Y-116100000D03*
X234900000Y-117100000D03*
X236900000Y-118100000D03*
X234900000Y-119100000D03*
X236900000Y-120100000D03*
X234900000Y-121100000D03*
X236900000Y-122100000D03*
X234900000Y-123100000D03*
X236900000Y-124100000D03*
X234900000Y-125100000D03*
X236900000Y-126100000D03*
X234900000Y-127100000D03*
X236900000Y-128100000D03*
X234900000Y-129100000D03*
X236900000Y-130100000D03*
X234900000Y-131100000D03*
X236900000Y-132100000D03*
X234900000Y-133100000D03*
X236900000Y-134100000D03*
X234900000Y-135100000D03*
X236900000Y-136100000D03*
X232400000Y-103100000D03*
X230400000Y-104100000D03*
X232400000Y-105100000D03*
X230400000Y-106100000D03*
X232400000Y-107100000D03*
X230400000Y-108100000D03*
X232400000Y-109100000D03*
X230400000Y-110100000D03*
X232400000Y-111100000D03*
X230400000Y-112100000D03*
X232400000Y-113100000D03*
X230400000Y-116100000D03*
X232400000Y-117100000D03*
X230400000Y-118100000D03*
X232400000Y-119100000D03*
X230400000Y-120100000D03*
X232400000Y-121100000D03*
X230400000Y-122100000D03*
X232400000Y-123100000D03*
X230400000Y-124100000D03*
X232400000Y-125100000D03*
X230400000Y-126100000D03*
X232400000Y-127100000D03*
X230400000Y-128100000D03*
X232400000Y-129100000D03*
X230400000Y-130100000D03*
X232400000Y-131100000D03*
X230400000Y-132100000D03*
X232400000Y-133100000D03*
X230400000Y-134100000D03*
X232400000Y-135100000D03*
X230400000Y-136100000D03*
%TD*%
D10*
%TO.C,TP21*%
X95000000Y-101800000D03*
%TD*%
D11*
%TO.C,J22*%
X81785000Y-132000000D03*
D12*
X81785000Y-134540000D03*
X79245000Y-132000000D03*
X79245000Y-134540000D03*
X76705000Y-132000000D03*
X76705000Y-134540000D03*
X74165000Y-132000000D03*
X74165000Y-134540000D03*
X71625000Y-132000000D03*
X71625000Y-134540000D03*
%TD*%
D10*
%TO.C,TP43*%
X187000000Y-90519975D03*
%TD*%
M02*
