%TF.GenerationSoftware,KiCad,Pcbnew,7.0.8*%
%TF.CreationDate,2024-09-16T14:36:25-04:00*%
%TF.ProjectId,breakout_pcie,62726561-6b6f-4757-945f-706369652e6b,rev?*%
%TF.SameCoordinates,Original*%
%TF.FileFunction,Soldermask,Bot*%
%TF.FilePolarity,Negative*%
%FSLAX46Y46*%
G04 Gerber Fmt 4.6, Leading zero omitted, Abs format (unit mm)*
G04 Created by KiCad (PCBNEW 7.0.8) date 2024-09-16 14:36:25*
%MOMM*%
%LPD*%
G01*
G04 APERTURE LIST*
%ADD10R,1.700000X1.700000*%
%ADD11O,1.700000X1.700000*%
%ADD12C,2.400000*%
%ADD13C,1.200000*%
%ADD14C,1.316000*%
G04 APERTURE END LIST*
D10*
%TO.C,J5*%
X172400000Y-80319975D03*
D11*
X174940000Y-80319975D03*
X177480000Y-80319975D03*
X180020000Y-80319975D03*
X182560000Y-80319975D03*
X185100000Y-80319975D03*
X187640000Y-80319975D03*
X190180000Y-80319975D03*
X192720000Y-80319975D03*
X195260000Y-80319975D03*
X197800000Y-80319975D03*
X200340000Y-80319975D03*
X202880000Y-80319975D03*
X205420000Y-80319975D03*
%TD*%
D10*
%TO.C,J9*%
X144000000Y-70719975D03*
D11*
X146540000Y-70719975D03*
X149080000Y-70719975D03*
X151620000Y-70719975D03*
X154160000Y-70719975D03*
X156700000Y-70719975D03*
X159240000Y-70719975D03*
X161780000Y-70719975D03*
X164320000Y-70719975D03*
X166860000Y-70719975D03*
X169400000Y-70719975D03*
X171940000Y-70719975D03*
%TD*%
D10*
%TO.C,J4*%
X99600000Y-112019975D03*
D11*
X102140000Y-112019975D03*
X104680000Y-112019975D03*
X107220000Y-112019975D03*
X109760000Y-112019975D03*
X112300000Y-112019975D03*
X114840000Y-112019975D03*
X117380000Y-112019975D03*
X119920000Y-112019975D03*
X122460000Y-112019975D03*
X125000000Y-112019975D03*
X127540000Y-112019975D03*
X130080000Y-112019975D03*
X132620000Y-112019975D03*
X135160000Y-112019975D03*
X137700000Y-112019975D03*
X140240000Y-112019975D03*
X142780000Y-112019975D03*
%TD*%
D10*
%TO.C,J16*%
X144000000Y-121619975D03*
D11*
X146540000Y-121619975D03*
X149080000Y-121619975D03*
X151620000Y-121619975D03*
X154160000Y-121619975D03*
X156700000Y-121619975D03*
X159240000Y-121619975D03*
X161780000Y-121619975D03*
X164320000Y-121619975D03*
X166860000Y-121619975D03*
X169400000Y-121619975D03*
X171940000Y-121619975D03*
%TD*%
D10*
%TO.C,J12*%
X187750000Y-126619975D03*
D11*
X190290000Y-126619975D03*
X192830000Y-126619975D03*
X195370000Y-126619975D03*
X197910000Y-126619975D03*
X200450000Y-126619975D03*
X202990000Y-126619975D03*
X205530000Y-126619975D03*
%TD*%
D10*
%TO.C,J17*%
X187600000Y-65564975D03*
D11*
X190140000Y-65564975D03*
X192680000Y-65564975D03*
X195220000Y-65564975D03*
X197760000Y-65564975D03*
X200300000Y-65564975D03*
X202840000Y-65564975D03*
X205380000Y-65564975D03*
%TD*%
D10*
%TO.C,J23*%
X81785000Y-117865000D03*
D11*
X81785000Y-120405000D03*
X79245000Y-117865000D03*
X79245000Y-120405000D03*
X76705000Y-117865000D03*
X76705000Y-120405000D03*
X74165000Y-117865000D03*
X74165000Y-120405000D03*
X71625000Y-117865000D03*
X71625000Y-120405000D03*
%TD*%
D10*
%TO.C,J8*%
X99700000Y-126699975D03*
D11*
X102240000Y-126699975D03*
X104780000Y-126699975D03*
X107320000Y-126699975D03*
X109860000Y-126699975D03*
X112400000Y-126699975D03*
X114940000Y-126699975D03*
X117480000Y-126699975D03*
X120020000Y-126699975D03*
X122560000Y-126699975D03*
X125100000Y-126699975D03*
X127640000Y-126699975D03*
%TD*%
D10*
%TO.C,J3*%
X99600000Y-80319975D03*
D11*
X102140000Y-80319975D03*
X104680000Y-80319975D03*
X107220000Y-80319975D03*
X109760000Y-80319975D03*
X112300000Y-80319975D03*
X114840000Y-80319975D03*
X117380000Y-80319975D03*
X119920000Y-80319975D03*
X122460000Y-80319975D03*
X125000000Y-80319975D03*
X127540000Y-80319975D03*
X130080000Y-80319975D03*
X132620000Y-80319975D03*
X135160000Y-80319975D03*
X137700000Y-80319975D03*
X140240000Y-80319975D03*
X142780000Y-80319975D03*
%TD*%
D10*
%TO.C,J20*%
X76640000Y-97800000D03*
D11*
X76640000Y-100340000D03*
X74100000Y-97800000D03*
X74100000Y-100340000D03*
X71560000Y-97800000D03*
X71560000Y-100340000D03*
%TD*%
D10*
%TO.C,J13*%
X99600000Y-65639975D03*
D11*
X102140000Y-65639975D03*
X104680000Y-65639975D03*
X107220000Y-65639975D03*
X109760000Y-65639975D03*
X112300000Y-65639975D03*
X114840000Y-65639975D03*
X117380000Y-65639975D03*
X119920000Y-65639975D03*
X122460000Y-65639975D03*
X125000000Y-65639975D03*
X127540000Y-65639975D03*
%TD*%
D10*
%TO.C,J11*%
X187600000Y-70644975D03*
D11*
X190140000Y-70644975D03*
X192680000Y-70644975D03*
X195220000Y-70644975D03*
X197760000Y-70644975D03*
X200300000Y-70644975D03*
X202840000Y-70644975D03*
X205380000Y-70644975D03*
%TD*%
D10*
%TO.C,J21*%
X77125000Y-54100000D03*
D11*
X74585000Y-54100000D03*
X72045000Y-54100000D03*
%TD*%
D12*
%TO.C,J1*%
X241400000Y-78000000D03*
X241400000Y-68850000D03*
D13*
X234900000Y-57200000D03*
X236900000Y-58200000D03*
X234900000Y-59200000D03*
X236900000Y-60200000D03*
X234900000Y-61200000D03*
X236900000Y-62200000D03*
X234900000Y-63200000D03*
X236900000Y-64200000D03*
X234900000Y-65200000D03*
X236900000Y-66200000D03*
X234900000Y-67200000D03*
X236900000Y-70200000D03*
X234900000Y-71200000D03*
X236900000Y-72200000D03*
X234900000Y-73200000D03*
X236900000Y-74200000D03*
X234900000Y-75200000D03*
X236900000Y-76200000D03*
X232400000Y-57200000D03*
X230400000Y-58200000D03*
X232400000Y-59200000D03*
X230400000Y-60200000D03*
X232400000Y-61200000D03*
X230400000Y-62200000D03*
X232400000Y-63200000D03*
X230400000Y-64200000D03*
X232400000Y-65200000D03*
X230400000Y-66200000D03*
X232400000Y-67200000D03*
X230400000Y-70200000D03*
X232400000Y-71200000D03*
X230400000Y-72200000D03*
X232400000Y-73200000D03*
X230400000Y-74200000D03*
X232400000Y-75200000D03*
X230400000Y-76200000D03*
%TD*%
D10*
%TO.C,J6*%
X172450000Y-111994975D03*
D11*
X174990000Y-111994975D03*
X177530000Y-111994975D03*
X180070000Y-111994975D03*
X182610000Y-111994975D03*
X185150000Y-111994975D03*
X187690000Y-111994975D03*
X190230000Y-111994975D03*
X192770000Y-111994975D03*
X195310000Y-111994975D03*
X197850000Y-111994975D03*
X200390000Y-111994975D03*
X202930000Y-111994975D03*
X205470000Y-111994975D03*
%TD*%
D10*
%TO.C,J15*%
X144000000Y-65639975D03*
D11*
X146540000Y-65639975D03*
X149080000Y-65639975D03*
X151620000Y-65639975D03*
X154160000Y-65639975D03*
X156700000Y-65639975D03*
X159240000Y-65639975D03*
X161780000Y-65639975D03*
X164320000Y-65639975D03*
X166860000Y-65639975D03*
X169400000Y-65639975D03*
X171940000Y-65639975D03*
%TD*%
D10*
%TO.C,J7*%
X99600000Y-70719975D03*
D11*
X102140000Y-70719975D03*
X104680000Y-70719975D03*
X107220000Y-70719975D03*
X109760000Y-70719975D03*
X112300000Y-70719975D03*
X114840000Y-70719975D03*
X117380000Y-70719975D03*
X119920000Y-70719975D03*
X122460000Y-70719975D03*
X125000000Y-70719975D03*
X127540000Y-70719975D03*
%TD*%
D10*
%TO.C,J19*%
X74200000Y-107800000D03*
D11*
X74200000Y-110340000D03*
X71660000Y-107800000D03*
X71660000Y-110340000D03*
%TD*%
D10*
%TO.C,J18*%
X187750000Y-121619975D03*
D11*
X190290000Y-121619975D03*
X192850000Y-121619975D03*
X195370000Y-121619975D03*
X197910000Y-121619975D03*
X200450000Y-121619975D03*
X202990000Y-121619975D03*
X205530000Y-121619975D03*
%TD*%
D10*
%TO.C,J10*%
X144000000Y-126699975D03*
D11*
X146540000Y-126699975D03*
X149080000Y-126699975D03*
X151620000Y-126699975D03*
X154160000Y-126699975D03*
X156700000Y-126699975D03*
X159240000Y-126699975D03*
X161780000Y-126699975D03*
X164320000Y-126699975D03*
X166860000Y-126699975D03*
X169400000Y-126699975D03*
X171940000Y-126699975D03*
%TD*%
D10*
%TO.C,J14*%
X99700000Y-121619975D03*
D11*
X102240000Y-121619975D03*
X104780000Y-121619975D03*
X107320000Y-121619975D03*
X109860000Y-121619975D03*
X112400000Y-121619975D03*
X114940000Y-121619975D03*
X117480000Y-121619975D03*
X120020000Y-121619975D03*
X122560000Y-121619975D03*
X125100000Y-121619975D03*
X127640000Y-121619975D03*
%TD*%
D12*
%TO.C,J2*%
X241400000Y-137900000D03*
X241400000Y-114750000D03*
D14*
X234900000Y-103100000D03*
X236900000Y-104100000D03*
X234900000Y-105100000D03*
X236900000Y-106100000D03*
X234900000Y-107100000D03*
X236900000Y-108100000D03*
X234900000Y-109100000D03*
X236900000Y-110100000D03*
X234900000Y-111100000D03*
X236900000Y-112100000D03*
X234900000Y-113100000D03*
X236900000Y-116100000D03*
X234900000Y-117100000D03*
X236900000Y-118100000D03*
X234900000Y-119100000D03*
X236900000Y-120100000D03*
X234900000Y-121100000D03*
X236900000Y-122100000D03*
X234900000Y-123100000D03*
X236900000Y-124100000D03*
X234900000Y-125100000D03*
X236900000Y-126100000D03*
X234900000Y-127100000D03*
X236900000Y-128100000D03*
X234900000Y-129100000D03*
X236900000Y-130100000D03*
X234900000Y-131100000D03*
X236900000Y-132100000D03*
X234900000Y-133100000D03*
X236900000Y-134100000D03*
X234900000Y-135100000D03*
X236900000Y-136100000D03*
X232400000Y-103100000D03*
X230400000Y-104100000D03*
X232400000Y-105100000D03*
X230400000Y-106100000D03*
X232400000Y-107100000D03*
X230400000Y-108100000D03*
X232400000Y-109100000D03*
X230400000Y-110100000D03*
X232400000Y-111100000D03*
X230400000Y-112100000D03*
X232400000Y-113100000D03*
X230400000Y-116100000D03*
X232400000Y-117100000D03*
X230400000Y-118100000D03*
X232400000Y-119100000D03*
X230400000Y-120100000D03*
X232400000Y-121100000D03*
X230400000Y-122100000D03*
X232400000Y-123100000D03*
X230400000Y-124100000D03*
X232400000Y-125100000D03*
X230400000Y-126100000D03*
X232400000Y-127100000D03*
X230400000Y-128100000D03*
X232400000Y-129100000D03*
X230400000Y-130100000D03*
X232400000Y-131100000D03*
X230400000Y-132100000D03*
X232400000Y-133100000D03*
X230400000Y-134100000D03*
X232400000Y-135100000D03*
X230400000Y-136100000D03*
%TD*%
D10*
%TO.C,J22*%
X81785000Y-132000000D03*
D11*
X81785000Y-134540000D03*
X79245000Y-132000000D03*
X79245000Y-134540000D03*
X76705000Y-132000000D03*
X76705000Y-134540000D03*
X74165000Y-132000000D03*
X74165000Y-134540000D03*
X71625000Y-132000000D03*
X71625000Y-134540000D03*
%TD*%
M02*
