M48
; DRILL file {KiCad 7.0.8} date 2024 September 16, Monday 14:38:22
; FORMAT={-:-/ absolute / metric / decimal}
; #@! TF.CreationDate,2024-09-16T14:38:22-04:00
; #@! TF.GenerationSoftware,Kicad,Pcbnew,7.0.8
; #@! TF.FileFunction,Plated,1,2,PTH
FMAT,2
METRIC
; #@! TA.AperFunction,Plated,PTH,ViaDrill
T1C0.400
; #@! TA.AperFunction,Plated,PTH,ComponentDrill
T2C0.750
; #@! TA.AperFunction,Plated,PTH,ComponentDrill
T3C0.810
; #@! TA.AperFunction,Plated,PTH,ComponentDrill
T4C1.000
%
G90
G05
T1
X67.9Y-61.9
X73.0Y-68.0
X73.0Y-75.9
X78.894Y-106.707
X80.0Y-58.8
X80.0Y-68.0
X83.7Y-107.55
X84.609Y-91.709
X84.8Y-105.25
X84.9Y-99.7
X85.151Y-96.051
X85.6Y-109.1
X85.601Y-97.899
X87.2Y-99.1
X87.35Y-93.25
X91.15Y-93.2
X91.2Y-99.1
X95.15Y-93.2
X95.2Y-99.1
X99.15Y-93.1
X99.2Y-99.2
X103.0Y-99.52
X103.2Y-92.87
X106.95Y-92.17
X107.0Y-100.22
X110.95Y-91.47
X111.0Y-100.92
X114.95Y-90.77
X115.0Y-101.62
X118.95Y-90.07
X119.0Y-102.32
X122.95Y-89.37
X123.0Y-103.02
X127.0Y-103.72
X127.013Y-88.67
X130.951Y-87.97
X131.0Y-104.42
X215.6Y-71.42
X216.521Y-71.03
X217.46Y-70.688
X218.368Y-70.269
X219.287Y-69.876
X219.918Y-61.112
X220.2Y-69.47
X220.85Y-60.75
X221.15Y-69.021
X221.837Y-60.356
X222.75Y-59.95
X223.7Y-59.55
X224.621Y-59.16
X225.56Y-58.818
X226.468Y-58.399
X227.387Y-58.006
X228.3Y-57.6
X229.25Y-57.2
X238.117Y-57.132
X239.0Y-57.6
X239.913Y-58.006
X243.638Y-58.399
X244.546Y-58.818
X244.65Y-109.47
X245.485Y-59.16
X246.406Y-59.55
X247.356Y-59.95
X248.27Y-60.356
X249.0Y-70.2
X249.256Y-60.75
X249.95Y-70.6
X250.169Y-61.158
X250.863Y-71.006
X251.782Y-71.399
X252.69Y-71.818
X253.629Y-72.16
X254.55Y-72.55
T2
X230.4Y-58.2
X230.4Y-60.2
X230.4Y-62.2
X230.4Y-64.2
X230.4Y-66.2
X230.4Y-70.2
X230.4Y-72.2
X230.4Y-74.2
X230.4Y-76.2
X232.4Y-57.2
X232.4Y-59.2
X232.4Y-61.2
X232.4Y-63.2
X232.4Y-65.2
X232.4Y-67.2
X232.4Y-71.2
X232.4Y-73.2
X232.4Y-75.2
X234.9Y-57.2
X234.9Y-59.2
X234.9Y-61.2
X234.9Y-63.2
X234.9Y-65.2
X234.9Y-67.2
X234.9Y-71.2
X234.9Y-73.2
X234.9Y-75.2
X236.9Y-58.2
X236.9Y-60.2
X236.9Y-62.2
X236.9Y-64.2
X236.9Y-66.2
X236.9Y-70.2
X236.9Y-72.2
X236.9Y-74.2
X236.9Y-76.2
T3
X230.4Y-104.1
X230.4Y-106.1
X230.4Y-108.1
X230.4Y-110.1
X230.4Y-112.1
X230.4Y-116.1
X230.4Y-118.1
X230.4Y-120.1
X230.4Y-122.1
X230.4Y-124.1
X230.4Y-126.1
X230.4Y-128.1
X230.4Y-130.1
X230.4Y-132.1
X230.4Y-134.1
X230.4Y-136.1
X232.4Y-103.1
X232.4Y-105.1
X232.4Y-107.1
X232.4Y-109.1
X232.4Y-111.1
X232.4Y-113.1
X232.4Y-117.1
X232.4Y-119.1
X232.4Y-121.1
X232.4Y-123.1
X232.4Y-125.1
X232.4Y-127.1
X232.4Y-129.1
X232.4Y-131.1
X232.4Y-133.1
X232.4Y-135.1
X234.9Y-103.1
X234.9Y-105.1
X234.9Y-107.1
X234.9Y-109.1
X234.9Y-111.1
X234.9Y-113.1
X234.9Y-117.1
X234.9Y-119.1
X234.9Y-121.1
X234.9Y-123.1
X234.9Y-125.1
X234.9Y-127.1
X234.9Y-129.1
X234.9Y-131.1
X234.9Y-133.1
X234.9Y-135.1
X236.9Y-104.1
X236.9Y-106.1
X236.9Y-108.1
X236.9Y-110.1
X236.9Y-112.1
X236.9Y-116.1
X236.9Y-118.1
X236.9Y-120.1
X236.9Y-122.1
X236.9Y-124.1
X236.9Y-126.1
X236.9Y-128.1
X236.9Y-130.1
X236.9Y-132.1
X236.9Y-134.1
X236.9Y-136.1
T4
X71.56Y-97.8
X71.56Y-100.34
X71.625Y-117.865
X71.625Y-120.405
X71.625Y-132.0
X71.625Y-134.54
X71.66Y-107.8
X71.66Y-110.34
X72.045Y-54.1
X74.1Y-97.8
X74.1Y-100.34
X74.165Y-117.865
X74.165Y-120.405
X74.165Y-132.0
X74.165Y-134.54
X74.2Y-107.8
X74.2Y-110.34
X74.585Y-54.1
X76.64Y-97.8
X76.64Y-100.34
X76.705Y-117.865
X76.705Y-120.405
X76.705Y-132.0
X76.705Y-134.54
X77.125Y-54.1
X79.245Y-117.865
X79.245Y-120.405
X79.245Y-132.0
X79.245Y-134.54
X81.785Y-117.865
X81.785Y-120.405
X81.785Y-132.0
X81.785Y-134.54
X99.6Y-65.64
X99.6Y-70.72
X99.6Y-80.32
X99.6Y-112.02
X99.7Y-121.62
X99.7Y-126.7
X102.14Y-65.64
X102.14Y-70.72
X102.14Y-80.32
X102.14Y-112.02
X102.24Y-121.62
X102.24Y-126.7
X104.68Y-65.64
X104.68Y-70.72
X104.68Y-80.32
X104.68Y-112.02
X104.78Y-121.62
X104.78Y-126.7
X107.22Y-65.64
X107.22Y-70.72
X107.22Y-80.32
X107.22Y-112.02
X107.32Y-121.62
X107.32Y-126.7
X109.76Y-65.64
X109.76Y-70.72
X109.76Y-80.32
X109.76Y-112.02
X109.86Y-121.62
X109.86Y-126.7
X112.3Y-65.64
X112.3Y-70.72
X112.3Y-80.32
X112.3Y-112.02
X112.4Y-121.62
X112.4Y-126.7
X114.84Y-65.64
X114.84Y-70.72
X114.84Y-80.32
X114.84Y-112.02
X114.94Y-121.62
X114.94Y-126.7
X117.38Y-65.64
X117.38Y-70.72
X117.38Y-80.32
X117.38Y-112.02
X117.48Y-121.62
X117.48Y-126.7
X119.92Y-65.64
X119.92Y-70.72
X119.92Y-80.32
X119.92Y-112.02
X120.02Y-121.62
X120.02Y-126.7
X122.46Y-65.64
X122.46Y-70.72
X122.46Y-80.32
X122.46Y-112.02
X122.56Y-121.62
X122.56Y-126.7
X125.0Y-65.64
X125.0Y-70.72
X125.0Y-80.32
X125.0Y-112.02
X125.1Y-121.62
X125.1Y-126.7
X127.54Y-65.64
X127.54Y-70.72
X127.54Y-80.32
X127.54Y-112.02
X127.64Y-121.62
X127.64Y-126.7
X130.08Y-80.32
X130.08Y-112.02
X132.62Y-80.32
X132.62Y-112.02
X135.16Y-80.32
X135.16Y-112.02
X137.7Y-80.32
X137.7Y-112.02
X140.24Y-80.32
X140.24Y-112.02
X142.78Y-80.32
X142.78Y-112.02
X144.0Y-65.64
X144.0Y-70.72
X144.0Y-121.62
X144.0Y-126.7
X146.54Y-65.64
X146.54Y-70.72
X146.54Y-121.62
X146.54Y-126.7
X149.08Y-65.64
X149.08Y-70.72
X149.08Y-121.62
X149.08Y-126.7
X151.62Y-65.64
X151.62Y-70.72
X151.62Y-121.62
X151.62Y-126.7
X154.16Y-65.64
X154.16Y-70.72
X154.16Y-121.62
X154.16Y-126.7
X156.7Y-65.64
X156.7Y-70.72
X156.7Y-121.62
X156.7Y-126.7
X159.24Y-65.64
X159.24Y-70.72
X159.24Y-121.62
X159.24Y-126.7
X161.78Y-65.64
X161.78Y-70.72
X161.78Y-121.62
X161.78Y-126.7
X164.32Y-65.64
X164.32Y-70.72
X164.32Y-121.62
X164.32Y-126.7
X166.86Y-65.64
X166.86Y-70.72
X166.86Y-121.62
X166.86Y-126.7
X169.4Y-65.64
X169.4Y-70.72
X169.4Y-121.62
X169.4Y-126.7
X171.94Y-65.64
X171.94Y-70.72
X171.94Y-121.62
X171.94Y-126.7
X172.4Y-80.32
X172.45Y-111.995
X174.94Y-80.32
X174.99Y-111.995
X177.48Y-80.32
X177.53Y-111.995
X180.02Y-80.32
X180.07Y-111.995
X182.56Y-80.32
X182.61Y-111.995
X185.1Y-80.32
X185.15Y-111.995
X187.6Y-65.565
X187.6Y-70.645
X187.64Y-80.32
X187.69Y-111.995
X187.75Y-121.62
X187.75Y-126.62
X190.14Y-65.565
X190.14Y-70.645
X190.18Y-80.32
X190.23Y-111.995
X190.29Y-121.62
X190.29Y-126.62
X192.68Y-65.565
X192.68Y-70.645
X192.72Y-80.32
X192.77Y-111.995
X192.83Y-126.62
X192.85Y-121.62
X195.22Y-65.565
X195.22Y-70.645
X195.26Y-80.32
X195.31Y-111.995
X195.37Y-121.62
X195.37Y-126.62
X197.76Y-65.565
X197.76Y-70.645
X197.8Y-80.32
X197.85Y-111.995
X197.91Y-121.62
X197.91Y-126.62
X200.3Y-65.565
X200.3Y-70.645
X200.34Y-80.32
X200.39Y-111.995
X200.45Y-121.62
X200.45Y-126.62
X202.84Y-65.565
X202.84Y-70.645
X202.88Y-80.32
X202.93Y-111.995
X202.99Y-121.62
X202.99Y-126.62
X205.38Y-65.565
X205.38Y-70.645
X205.42Y-80.32
X205.47Y-111.995
X205.53Y-121.62
X205.53Y-126.62
T0
M30
